<svg width="596" height="445" fill="none" xmlns="http://www.w3.org/2000/svg"><path d="M596 390.26H0v.298h596v-.298Zm-59.719 19.18h-39.479v.298h39.479v-.298Zm-141.467 3.242h-10.358v.298h10.358v-.298Zm100.796-14.304h-22.875v.298h22.875v-.298Zm-381.595 2.003H62.532v.298h51.483v-.298Zm18.166 0h-7.545v.298h7.545v-.298Zm136.198 5.03H156.712v.298h111.667v-.298Zm14.125-68.313H52.341a6.81 6.81 0 0 1-6.795-6.807V6.747A6.807 6.807 0 0 1 52.341 0h230.163a6.808 6.808 0 0 1 6.806 6.806v323.485a6.808 6.808 0 0 1-6.806 6.807ZM52.341.238a6.508 6.508 0 0 0-6.497 6.509V330.29a6.508 6.508 0 0 0 6.497 6.509h230.163a6.52 6.52 0 0 0 6.508-6.509V6.747a6.518 6.518 0 0 0-6.508-6.509H52.341Zm488.005 336.86H310.17a6.819 6.819 0 0 1-6.806-6.807V6.747A6.82 6.82 0 0 1 310.17 0h230.176a6.807 6.807 0 0 1 6.782 6.747V330.29a6.81 6.81 0 0 1-6.782 6.807ZM310.17.238a6.52 6.52 0 0 0-6.508 6.509V330.29a6.52 6.52 0 0 0 6.508 6.509h230.176a6.523 6.523 0 0 0 6.508-6.509V6.747a6.52 6.52 0 0 0-6.508-6.509H310.17Z" fill="#EBEBEB"/><path d="M526.697 388.747v-58.79h-27.13v-54.51h-3.826v31.254h-10.442v-8.642h-18.774V268.14h-3.481v-36.57h-2.789v35.903h-6.604v53.187h-12.528v-53.187h-22.6v44.974H394.79v-54.51h-3.826v31.242h-10.442v-8.642h-18.774v-29.919h-3.481v-36.559h-2.789v35.903h-6.604v53.175h-12.516v-53.175h-22.612v51.447h-15.245V271.49h-3.481v-36.571h-2.777v35.903h-6.616v53.187h-12.516v-53.187h-22.612v53.187h-11.134v5.948h-19.489v-54.51h-3.826v31.254h-10.442v-8.642h-18.774V268.14h-3.481v-36.57h-2.789v35.903h-6.055v-2.992h-22.613v2.992h-12.527v-2.992h-6.604v-35.903h-2.777v36.57h-3.481v29.907h-18.786v8.642h-10.43v-31.242h-3.826v54.51h-27.13v61.782h460.362Z" fill="#EBEBEB"/><path d="M177.05 115.221c16.902-7.001 24.929-26.379 17.928-43.28-7.001-16.903-26.379-24.93-43.281-17.928-16.902 7-24.929 26.378-17.928 43.28 7.002 16.903 26.379 24.929 43.281 17.928Z" fill="#FAFAFA"/><path d="M147.2 84.25a5.78 5.78 0 0 0-2.324-4.617 5.77 5.77 0 0 0-5.09-.902 12.166 12.166 0 0 0-6.987-12.86 12.17 12.17 0 0 0-7.317-.883 10.658 10.658 0 0 0-17.511-1.023 10.65 10.65 0 0 0-2.252 6.363h-.179a9.822 9.822 0 1 0 0 19.644h36.058a5.746 5.746 0 0 0 5.602-5.722Zm362.714 79.78a5.78 5.78 0 0 0-.616-2.583 5.763 5.763 0 0 0-4.147-3.086 5.778 5.778 0 0 0-2.652.15 12.161 12.161 0 0 0-2.83-9.745 12.161 12.161 0 0 0-9.233-4.213c-.755.001-1.509.069-2.252.203a10.654 10.654 0 0 0-11.903-4.683 10.651 10.651 0 0 0-7.825 10.118h-.179a9.822 9.822 0 0 0 0 19.644h36.058a5.744 5.744 0 0 0 5.579-5.805Zm-170.54-87.444a9.093 9.093 0 0 1 3.662-7.324 9.084 9.084 0 0 1 8.068-1.401 19.744 19.744 0 0 1-.203-2.802 19.262 19.262 0 0 1 22.839-18.953 16.853 16.853 0 0 1 31.266 8.523h.274a15.538 15.538 0 1 1 0 31.076h-57.049a9.109 9.109 0 0 1-8.857-9.119Zm-168.346 99.198a10.959 10.959 0 0 1 4.415-8.801 10.963 10.963 0 0 1 9.699-1.7 22.263 22.263 0 0 1-.251-3.362 23.224 23.224 0 0 1 23.22-23.22c1.432.004 2.86.135 4.268.393a20.26 20.26 0 0 1 22.7-9.11 20.255 20.255 0 0 1 10.718 7.18 20.255 20.255 0 0 1 4.213 12.194h.31a18.71 18.71 0 0 1 13.529 5.306 18.697 18.697 0 0 1 0 26.781 18.708 18.708 0 0 1-13.529 5.306h-68.659a10.957 10.957 0 0 1-10.633-10.967Zm48.419-74.286a3.574 3.574 0 0 0-3.576-3.576 3.232 3.232 0 0 0-1.025.156c.052-.368.08-.738.084-1.11a7.58 7.58 0 0 0-8.976-7.45 6.628 6.628 0 0 0-12.29 3.35h-.107a6.102 6.102 0 0 0 0 12.206h22.422a3.572 3.572 0 0 0 3.468-3.576ZM89.066 210.209a3.578 3.578 0 0 1 3.576-3.576c.35-.001.7.047 1.037.143a6.593 6.593 0 0 1-.083-1.097 7.583 7.583 0 0 1 7.581-7.581 7.68 7.68 0 0 1 1.395.131 6.627 6.627 0 0 1 12.289 3.35h.107c1.619 0 3.171.643 4.316 1.787a6.106 6.106 0 0 1 0 8.631 6.103 6.103 0 0 1-4.316 1.788H92.547a3.577 3.577 0 0 1-3.48-3.576Zm335.536 11.681c0-.948.377-1.858 1.048-2.528a3.573 3.573 0 0 1 2.528-1.048c.351-.001.7.047 1.037.143a6.591 6.591 0 0 1-.083-1.096 7.584 7.584 0 0 1 7.581-7.582c.468.002.935.045 1.395.132a6.628 6.628 0 0 1 7.405-2.951 6.625 6.625 0 0 1 4.884 6.3h.107a6.103 6.103 0 1 1 0 12.206h-22.421a3.575 3.575 0 0 1-3.481-3.576Z" fill="#F0F0F0"/><path d="M298 444.092c127.643 0 231.117-6.041 231.117-13.494 0-7.452-103.474-13.493-231.117-13.493-127.642 0-231.117 6.041-231.117 13.493 0 7.453 103.475 13.494 231.117 13.494Z" fill="#F5F5F5" fill-opacity=".52"/><path opacity=".6" d="m463.45 78.708-50.958 77.587-2.241 3.421-4.435 2.05-157.725 73.296 15.579 53.39 3.564 12.206-12.349 10.204-106.409 103.406H60.423l159.203-132.217-9.643-52.496-2.623-14.292 12.326-5.674 168.095-77.396 54.749-67.73-14.685-2.908 46.166-19.156-2.372 49.933-8.189-13.624Z" fill="#9F92F2"/><path d="M436.808 409.44h-84.393c-.83 0-1.502.672-1.502 1.502v19.239c0 .829.672 1.502 1.502 1.502h84.393c.83 0 1.502-.673 1.502-1.502v-19.239c0-.83-.672-1.502-1.502-1.502Z" fill="#7A6BDE"/><path opacity=".2" d="M358.28 410.727h-3.457v19.871h3.457v-19.871Zm7.855-.095h-2.515v19.87h2.515v-19.87Zm7.235.095h-1.263v19.871h1.263v-19.871Zm9.751-.095h-.632v19.87h.632v-19.87Zm47.823 19.87h3.457v-19.87h-3.457v19.87Zm-7.855.096h2.515v-19.871h-2.515v19.871Zm-7.224-.096h1.252v-19.87h-1.252v19.87Zm-9.762.096h.631v-19.871h-.631v19.871Zm-11.646 0h.31v-19.871h-.31v19.871Z" fill="#000"/><path opacity=".2" d="M435.974 412.825h-82.546c-.278 0-.545-.111-.742-.307a1.053 1.053 0 0 1-.307-.742 1.06 1.06 0 0 1 1.049-1.049h82.546a1.049 1.049 0 0 1 1.049 1.049c.002.138-.024.275-.077.403a1.023 1.023 0 0 1-.569.569 1.014 1.014 0 0 1-.403.077Z" fill="#fff"/><path d="M439.192 387.256h-84.393c-.83 0-1.502.673-1.502 1.502v19.239c0 .83.672 1.502 1.502 1.502h84.393c.83 0 1.502-.672 1.502-1.502v-19.239c0-.829-.672-1.502-1.502-1.502Z" fill="#7A6BDE"/><path opacity=".2" d="M360.664 388.544h-3.457v19.871h3.457v-19.871Zm7.867-.096h-2.515v19.871h2.515v-19.871Zm7.223.096h-1.251v19.871h1.251v-19.871Zm9.751-.096h-.632v19.871h.632v-19.871Zm47.835 19.859h3.457v-19.87h-3.457v19.87Zm-7.868.096h2.516v-19.871h-2.516v19.871Zm-7.235-.096h1.264v-19.87h-1.264v19.87Zm-9.75.096h.631v-19.871h-.631v19.871Zm-11.646 0h.31v-19.871h-.31v19.871Z" fill="#000"/><path opacity=".2" d="M438.358 390.642h-82.546a1.06 1.06 0 0 1-1.049-1.049 1.049 1.049 0 0 1 1.049-1.049h82.546a1.033 1.033 0 0 1 1.049 1.049c0 .278-.111.545-.307.742a1.053 1.053 0 0 1-.742.307Z" fill="#fff"/><path d="M439.192 365.074h-84.393c-.83 0-1.502.672-1.502 1.502v19.239c0 .829.672 1.501 1.502 1.501h84.393c.83 0 1.502-.672 1.502-1.501v-19.239c0-.83-.672-1.502-1.502-1.502Z" fill="#7A6BDE"/><path opacity=".2" d="M360.664 366.349h-3.457v19.871h3.457v-19.871Zm7.867-.095h-2.515v19.871h2.515v-19.871Zm7.223.095h-1.251v19.871h1.251v-19.871Zm9.751-.095h-.632v19.871h.632v-19.871Zm47.835 19.871h3.457v-19.871h-3.457v19.871Zm-7.868.094h2.516v-19.87h-2.516v19.87Zm-7.235-.094h1.264v-19.871h-1.264v19.871Zm-9.75.094h.631v-19.87h-.631v19.87Zm-11.646 0h.31v-19.87h-.31v19.87Z" fill="#000"/><path opacity=".2" d="M438.358 368.447h-82.546a1.049 1.049 0 0 1-1.049-1.049 1.06 1.06 0 0 1 1.049-1.049h82.546c.278 0 .545.111.742.307a1.053 1.053 0 0 1 .23 1.145 1.023 1.023 0 0 1-.569.569 1.014 1.014 0 0 1-.403.077Z" fill="#fff"/><path d="M436.808 342.879h-84.393c-.83 0-1.502.672-1.502 1.502v19.239c0 .829.672 1.502 1.502 1.502h84.393c.83 0 1.502-.673 1.502-1.502v-19.239c0-.83-.672-1.502-1.502-1.502Z" fill="#7A6BDE"/><path opacity=".2" d="M358.28 344.166h-3.457v19.871h3.457v-19.871Zm7.855-.095h-2.515v19.87h2.515v-19.87Zm7.235.095h-1.263v19.871h1.263v-19.871Zm9.751-.095h-.632v19.87h.632v-19.87Zm47.823 19.858h3.457v-19.871h-3.457v19.871Zm-7.855.096h2.515v-19.871h-2.515v19.871Zm-7.224-.096h1.252v-19.871h-1.252v19.871Zm-9.762.096h.631v-19.871h-.631v19.871Zm-11.646 0h.31v-19.871h-.31v19.871Z" fill="#000"/><path opacity=".2" d="M435.974 346.264h-82.546a1.06 1.06 0 0 1-1.049-1.049c0-.278.111-.545.307-.742.197-.196.464-.307.742-.307h82.546a1.032 1.032 0 0 1 .745.304c.098.097.175.214.227.342.053.128.079.265.077.403a1.049 1.049 0 0 1-1.049 1.049Z" fill="#fff"/><path d="M433.232 320.695h-84.393c-.83 0-1.502.673-1.502 1.502v19.239c0 .83.672 1.502 1.502 1.502h84.393c.83 0 1.502-.672 1.502-1.502v-19.239c0-.829-.672-1.502-1.502-1.502Z" fill="#7A6BDE"/><path opacity=".2" d="M354.704 321.971h-3.457v19.87h3.457v-19.87Zm7.855-.096h-2.515v19.871h2.515v-19.871Zm7.223.096h-1.251v19.87h1.251v-19.87Zm9.763-.096h-.632v19.871h.632v-19.871Zm47.823 19.871h3.457v-19.871h-3.457v19.871Zm-7.867.096h2.515v-19.871h-2.515v19.871Zm-7.212-.096h1.252v-19.871h-1.252v19.871Zm-9.75.096h.631v-19.871h-.631v19.871Zm-11.658 0h.31v-19.871h-.31v19.871Z" fill="#000"/><path opacity=".2" d="M432.398 324.069h-82.546a1.05 1.05 0 0 1-.745-.304 1.033 1.033 0 0 1-.304-.745 1.051 1.051 0 0 1 1.049-1.049h82.546a1.049 1.049 0 0 1 1.049 1.049 1.033 1.033 0 0 1-1.049 1.049Z" fill="#fff"/><path d="M436.808 298.5h-84.393c-.83 0-1.502.673-1.502 1.502v19.239c0 .83.672 1.502 1.502 1.502h84.393c.83 0 1.502-.672 1.502-1.502v-19.239c0-.829-.672-1.502-1.502-1.502Z" fill="#7A6BDE"/><path opacity=".2" d="M358.28 299.788h-3.457v19.87h3.457v-19.87Zm7.855-.095h-2.515v19.87h2.515v-19.87Zm7.235.095h-1.263v19.87h1.263v-19.87Zm9.751-.095h-.632v19.87h.632v-19.87Zm47.823 19.858h3.457V299.68h-3.457v19.871Zm-7.855.095h2.515v-19.87h-2.515v19.87Zm-7.224-.095h1.252V299.68h-1.252v19.871Zm-9.762.095h.631v-19.87h-.631v19.87Zm-11.646 0h.31v-19.87h-.31v19.87Z" fill="#000"/><path opacity=".2" d="M435.974 301.886h-82.546a1.05 1.05 0 0 1 0-2.098h82.546a1.031 1.031 0 0 1 .972.645c.053.128.079.265.077.404a1.033 1.033 0 0 1-1.049 1.049Z" fill="#fff"/><path d="M436.808 276.317h-84.393c-.83 0-1.502.673-1.502 1.502v19.239c0 .83.672 1.502 1.502 1.502h84.393c.83 0 1.502-.672 1.502-1.502v-19.239c0-.829-.672-1.502-1.502-1.502Z" fill="#7A6BDE"/><path opacity=".2" d="M358.28 277.593h-3.457v19.87h3.457v-19.87Zm7.855-.096h-2.515v19.871h2.515v-19.871Zm7.235.096h-1.263v19.87h1.263v-19.87Zm9.751-.096h-.632v19.871h.632v-19.871Zm47.823 19.871h3.457v-19.871h-3.457v19.871Zm-7.855.096h2.515v-19.871h-2.515v19.871Zm-7.224-.096h1.252v-19.871h-1.252v19.871Zm-9.762.096h.631v-19.871h-.631v19.871Zm-11.646 0h.31v-19.871h-.31v19.871Z" fill="#000"/><path opacity=".2" d="M435.974 279.703h-82.546a1.066 1.066 0 0 1-1.049-1.061 1.061 1.061 0 0 1 1.049-1.049h82.546a1.049 1.049 0 0 1 1.049 1.049 1.044 1.044 0 0 1-.645.98 1.056 1.056 0 0 1-.404.081Z" fill="#fff"/><path d="M440.385 254.122h-84.394c-.83 0-1.502.673-1.502 1.502v19.239c0 .829.672 1.502 1.502 1.502h84.394c.829 0 1.501-.673 1.501-1.502v-19.239c0-.829-.672-1.502-1.501-1.502Z" fill="#7A6BDE"/><path opacity=".2" d="M361.856 255.409h-3.457v19.871h3.457v-19.871Zm7.867-.095h-2.515v19.871h2.515v-19.871Zm7.235.095h-1.263v19.871h1.263v-19.871Zm9.739-.095h-.632v19.871h.632v-19.871Zm47.835 19.859h3.457v-19.87h-3.457v19.87Zm-7.868.107h2.515v-19.871h-2.515v19.871Zm-7.223-.107h1.252v-19.87h-1.252v19.87Zm-9.762.107h.632v-19.871h-.632v19.871Zm-11.634 0h.309v-19.871h-.309v19.871Z" fill="#000"/><path opacity=".2" d="M439.55 257.472h-82.534a1.06 1.06 0 0 1-.749-.303 1.06 1.06 0 0 1-.312-.746 1.045 1.045 0 0 1 .656-.973 1.04 1.04 0 0 1 .405-.076h82.534a1.04 1.04 0 0 1 .749.303 1.03 1.03 0 0 1 .312.746 1.06 1.06 0 0 1-.312.746 1.044 1.044 0 0 1-.749.303Z" fill="#fff"/><path d="M434.425 231.939h-84.394c-.83 0-1.502.672-1.502 1.502v19.239c0 .829.672 1.502 1.502 1.502h84.394c.829 0 1.501-.673 1.501-1.502v-19.239c0-.83-.672-1.502-1.501-1.502Z" fill="#7A6BDE"/><path opacity=".2" d="M355.896 233.227h-3.457v19.87h3.457v-19.87Zm7.855-.108h-2.515v19.871h2.515v-19.871Zm7.223.108h-1.251v19.87h1.251v-19.87Zm9.763-.108h-.632v19.871h.632v-19.871Zm47.823 19.871h3.457v-19.871h-3.457v19.871Zm-7.867.095h2.515v-19.87h-2.515v19.87Zm-7.212-.095h1.251v-19.871h-1.251v19.871Zm-9.763.095h.632v-19.87h-.632v19.87Zm-11.645 0h.31v-19.87h-.31v19.87Z" fill="#000"/><path opacity=".2" d="M433.59 235.325h-82.546a1.065 1.065 0 0 1-1.049-1.049 1.051 1.051 0 0 1 1.049-1.049h82.546a1.031 1.031 0 0 1 .972.645c.053.128.079.265.077.404a1.05 1.05 0 0 1-1.049 1.049Z" fill="#fff"/><path d="M432.041 209.744h-84.394c-.83 0-1.502.673-1.502 1.502v19.239c0 .829.672 1.502 1.502 1.502h84.394c.829 0 1.501-.673 1.501-1.502v-19.239c0-.829-.672-1.502-1.501-1.502Z" fill="#7A6BDE"/><path opacity=".2" d="M353.511 211.031h-3.456v19.871h3.456v-19.871Zm7.856-.095h-2.515v19.871h2.515v-19.871Zm7.235.095h-1.263v19.871h1.263v-19.871Zm9.751-.095h-.632v19.871h.632v-19.871Zm47.823 19.859h3.457v-19.871h-3.457v19.871Zm-7.867.107h2.515v-19.871h-2.515v19.871Zm-7.224-.107h1.252v-19.871h-1.252v19.871Zm-9.738.107h.632v-19.871h-.632v19.871Zm-11.658 0h.31v-19.871h-.31v19.871Z" fill="#000"/><path opacity=".2" d="M431.206 213.129H348.66a1.031 1.031 0 0 1-.972-.645 1.055 1.055 0 0 1-.077-.404 1.05 1.05 0 0 1 .304-.745 1.033 1.033 0 0 1 .745-.304h82.546a1.05 1.05 0 0 1 .745.304 1.033 1.033 0 0 1 .304.745 1.033 1.033 0 0 1-1.049 1.049Z" fill="#fff"/><path d="M329.469 409.44h-84.394c-.829 0-1.502.672-1.502 1.502v19.239c0 .829.673 1.502 1.502 1.502h84.394c.829 0 1.502-.673 1.502-1.502v-19.239c0-.83-.673-1.502-1.502-1.502Z" fill="#7A6BDE"/><path opacity=".2" d="M250.928 410.727h-3.457v19.871h3.457v-19.871Zm7.867-.095h-2.515v19.87h2.515v-19.87Zm7.224.095h-1.252v19.871h1.252v-19.871Zm9.75-.095h-.632v19.87h.632v-19.87Zm47.835 19.87h3.457v-19.87h-3.457v19.87Zm-7.867.096h2.515v-19.871h-2.515v19.871Zm-7.223-.096h1.251v-19.87h-1.251v19.87Zm-9.751.096h.632v-19.871h-.632v19.871Zm-11.646 0h.31v-19.871h-.31v19.871Z" fill="#000"/><path opacity=".2" d="M328.634 412.825h-82.546a1.033 1.033 0 0 1-1.049-1.049 1.05 1.05 0 0 1 1.049-1.049h82.546a1.061 1.061 0 0 1 1.049 1.049 1.049 1.049 0 0 1-1.049 1.049Z" fill="#fff"/><path d="M325.881 387.256h-84.393c-.83 0-1.502.673-1.502 1.502v19.239c0 .83.672 1.502 1.502 1.502h84.393c.83 0 1.502-.672 1.502-1.502v-19.239c0-.829-.672-1.502-1.502-1.502Z" fill="#7A6BDE"/><path opacity=".2" d="M247.352 388.544h-3.457v19.871h3.457v-19.871Zm7.867-.096h-2.515v19.871h2.515v-19.871Zm7.224.096h-1.252v19.871h1.252v-19.871Zm9.75-.096h-.631v19.871h.631v-19.871Zm47.835 19.859h3.457v-19.87h-3.457v19.87Zm-7.867.096h2.515v-19.871h-2.515v19.871Zm-7.224-.096h1.252v-19.87h-1.252v19.87Zm-9.762.096h.632v-19.871h-.632v19.871Zm-11.646 0h.31v-19.871h-.31v19.871Z" fill="#000"/><path opacity=".2" d="M325.047 390.642h-82.546a1.061 1.061 0 0 1-1.049-1.049 1.049 1.049 0 0 1 1.049-1.049h82.546a1.033 1.033 0 0 1 1.049 1.049 1.05 1.05 0 0 1-1.049 1.049Z" fill="#fff"/><path d="M329.469 365.074h-84.394c-.829 0-1.502.672-1.502 1.502v19.239c0 .829.673 1.501 1.502 1.501h84.394c.829 0 1.502-.672 1.502-1.501v-19.239c0-.83-.673-1.502-1.502-1.502Z" fill="#7A6BDE"/><path opacity=".2" d="M250.928 366.349h-3.457v19.871h3.457v-19.871Zm7.867-.095h-2.515v19.871h2.515v-19.871Zm7.224.095h-1.252v19.871h1.252v-19.871Zm9.75-.095h-.632v19.871h.632v-19.871Zm47.835 19.871h3.457v-19.871h-3.457v19.871Zm-7.867.094h2.515v-19.87h-2.515v19.87Zm-7.223-.094h1.251v-19.871h-1.251v19.871Zm-9.751.094h.632v-19.87h-.632v19.87Zm-11.646 0h.31v-19.87h-.31v19.87Z" fill="#000"/><path opacity=".2" d="M328.634 368.447h-82.546a1.033 1.033 0 0 1-1.049-1.049 1.05 1.05 0 0 1 1.049-1.049h82.546a1.061 1.061 0 0 1 1.049 1.049 1.049 1.049 0 0 1-1.049 1.049Z" fill="#fff"/><path d="M327.073 342.879h-84.394c-.829 0-1.502.672-1.502 1.502v19.239c0 .829.673 1.502 1.502 1.502h84.394c.83 0 1.502-.673 1.502-1.502v-19.239c0-.83-.672-1.502-1.502-1.502Z" fill="#7A6BDE"/><path opacity=".2" d="M248.544 344.166h-3.457v19.871h3.457v-19.871Zm7.867-.095h-2.515v19.87h2.515v-19.87Zm7.224.095h-1.252v19.871h1.252v-19.871Zm9.75-.095h-.631v19.87h.631v-19.87Zm47.835 19.858h3.457v-19.871h-3.457v19.871Zm-7.867.096h2.515v-19.871h-2.515v19.871Zm-7.235-.096h1.263v-19.871h-1.263v19.871Zm-9.751.096h.632v-19.871h-.632v19.871Zm-11.634 0h.31v-19.871h-.31v19.871Z" fill="#000"/><path opacity=".2" d="M326.239 346.264h-82.535c-.279 0-.547-.11-.746-.306a1.037 1.037 0 0 1-.003-1.489c.099-.097.216-.175.344-.227.129-.052.267-.077.405-.076h82.535c.138-.001.276.024.405.076a1.041 1.041 0 0 1 .655.973 1.065 1.065 0 0 1-.314.743 1.063 1.063 0 0 1-.746.306Z" fill="#fff"/><path d="M327.073 320.695h-84.394c-.829 0-1.502.673-1.502 1.502v19.239c0 .83.673 1.502 1.502 1.502h84.394c.83 0 1.502-.672 1.502-1.502v-19.239c0-.829-.672-1.502-1.502-1.502Z" fill="#7A6BDE"/><path opacity=".2" d="M248.544 321.971h-3.457v19.87h3.457v-19.87Zm7.867-.096h-2.515v19.871h2.515v-19.871Zm7.224.096h-1.252v19.87h1.252v-19.87Zm9.75-.096h-.631v19.871h.631v-19.871Zm47.835 19.871h3.457v-19.871h-3.457v19.871Zm-7.867.096h2.515v-19.871h-2.515v19.871Zm-7.235-.096h1.263v-19.871h-1.263v19.871Zm-9.751.096h.632v-19.871h-.632v19.871Zm-11.634 0h.31v-19.871h-.31v19.871Z" fill="#000"/><path opacity=".2" d="M326.239 324.069h-82.535a1.064 1.064 0 0 1-.749-.303 1.041 1.041 0 0 1-.311-.746c.003-.28.116-.546.314-.743.199-.196.467-.306.746-.306h82.535c.279 0 .547.11.746.306a1.04 1.04 0 0 1 .003 1.489 1.065 1.065 0 0 1-.749.303Z" fill="#fff"/><path d="M327.073 298.5h-84.394c-.829 0-1.502.673-1.502 1.502v19.239c0 .83.673 1.502 1.502 1.502h84.394c.83 0 1.502-.672 1.502-1.502v-19.239c0-.829-.672-1.502-1.502-1.502Z" fill="#7A6BDE"/><path opacity=".2" d="M248.544 299.788h-3.457v19.87h3.457v-19.87Zm7.867-.095h-2.515v19.87h2.515v-19.87Zm7.224.095h-1.252v19.87h1.252v-19.87Zm9.75-.095h-.631v19.87h.631v-19.87Zm47.835 19.858h3.457V299.68h-3.457v19.871Zm-7.867.095h2.515v-19.87h-2.515v19.87Zm-7.235-.095h1.263V299.68h-1.263v19.871Zm-9.751.095h.632v-19.87h-.632v19.87Zm-11.634 0h.31v-19.87h-.31v19.87Z" fill="#000"/><path opacity=".2" d="M326.239 301.886h-82.535a1.064 1.064 0 0 1-.749-.303 1.041 1.041 0 0 1-.311-.746 1.042 1.042 0 0 1 .311-.746 1.052 1.052 0 0 1 .749-.303h82.535a1.044 1.044 0 0 1 1.06 1.049 1.04 1.04 0 0 1-.311.746 1.065 1.065 0 0 1-.749.303Z" fill="#fff"/><path d="M328.11 253.883h-84.393c-.83 0-1.502.673-1.502 1.502v19.239c0 .83.672 1.502 1.502 1.502h84.393c.83 0 1.502-.672 1.502-1.502v-19.239c0-.829-.672-1.502-1.502-1.502Z" fill="#7A6BDE"/><path opacity=".2" d="M249.581 255.171h-3.457v19.871h3.457v-19.871Zm7.867-.095h-2.515v19.87h2.515v-19.87Zm7.224.095h-1.252v19.871h1.252v-19.871Zm9.75-.095h-.631v19.87h.631v-19.87Zm47.835 19.859h3.457v-19.871h-3.457v19.871Zm-7.867.107h2.515v-19.871h-2.515v19.871Zm-7.223-.107h1.251v-19.871h-1.251v19.871Zm-9.763.107h.632v-19.871h-.632v19.871Zm-11.634 0h.31v-19.871h-.31v19.871Z" fill="#000"/><path opacity=".2" d="M327.276 257.269h-82.534a1.065 1.065 0 0 1-.75-.303 1.041 1.041 0 0 1-.311-.746 1.062 1.062 0 0 1 1.061-1.049h82.534a1.063 1.063 0 0 1 1.061 1.049 1.056 1.056 0 0 1-.312.746 1.065 1.065 0 0 1-.749.303Z" fill="#fff"/><path d="M329.469 276.317h-84.394c-.829 0-1.502.673-1.502 1.502v19.239c0 .83.673 1.502 1.502 1.502h84.394c.829 0 1.502-.672 1.502-1.502v-19.239c0-.829-.673-1.502-1.502-1.502Z" fill="#7A6BDE"/><path opacity=".2" d="M250.928 277.593h-3.457v19.87h3.457v-19.87Zm7.867-.096h-2.515v19.871h2.515v-19.871Zm7.224.096h-1.252v19.87h1.252v-19.87Zm9.75-.096h-.632v19.871h.632v-19.871Zm47.835 19.871h3.457v-19.871h-3.457v19.871Zm-7.867.096h2.515v-19.871h-2.515v19.871Zm-7.223-.096h1.251v-19.871h-1.251v19.871Zm-9.751.096h.632v-19.871h-.632v19.871Zm-11.646 0h.31v-19.871h-.31v19.871Z" fill="#000"/><path opacity=".2" d="M328.634 279.703h-82.546a1.06 1.06 0 0 1-.746-.312 1.054 1.054 0 0 1-.303-.749 1.05 1.05 0 0 1 1.049-1.049h82.546a1.06 1.06 0 0 1 1.049 1.049 1.063 1.063 0 0 1-1.049 1.061Z" fill="#fff"/><path d="m298.096 239.961-2.671 5.221-2.717 5.304-4.756-1.74 2.384-4.661 3.003-5.864 4.757 1.74Z" fill="#FFC2BC"/><path opacity=".2" d="m298.095 239.961-2.67 5.221-5.09-1.097 3.004-5.864 4.756 1.74Z" fill="#000"/><path d="M401.966 210.436a.585.585 0 0 1-.584-.513c-.167-1.192-15.83-118.008-34.735-169.264a.593.593 0 0 1 .112-.694.592.592 0 0 1 .695-.105.59.59 0 0 1 .302.382c18.965 51.351 34.651 168.358 34.806 169.55a.608.608 0 0 1-.512.68l-.084-.036Z" fill="#263238"/><path d="m371.785 207.074 5.066-.202.989-11.753-5.078.202-.977 11.753Z" fill="#FFC2BC"/><path d="m377.327 204.189-5.53-.179a.478.478 0 0 0-.453.334l-1.192 4.458a.736.736 0 0 0 .372.846c.098.052.208.08.319.084 2.002 0 4.899 0 7.414.071 2.932.096 4.768 0 8.249.06 2.074.06 2.741-2.014 1.871-2.229-3.933-.989-6.508-.811-9.846-3.016a2.383 2.383 0 0 0-1.204-.429Z" fill="#263238"/><path opacity=".2" d="m377.84 195.119-.512 6.055-5.066.215.5-6.068 5.078-.202Z" fill="#000"/><path d="M369.723 164.495c1.287 2.468 1.382 28.334 1.382 34.902h8.762c1.132-6.806 6.735-43.353-1.192-48.574-8.726-5.757-30.849-3.778-30.849-3.778l-1.598-3.231-3.194-6.437-18.309 6.854-3.993 1.479-1.645.619h-.143v.489c.059.715.226 2.158.524 3.958a50.605 50.605 0 0 0 1.454 6.389c1.693 5.519 4.697 10.728 9.918 8.987.226-.071.453-.167.679-.262.429-.191.894-.369 1.371-.548a56.098 56.098 0 0 1 12.897-2.539c11.062-1.049 22.958-.215 23.936 1.692Z" fill="#263238"/><path d="m380.26 200.161-10.239.274-.06-3.302 11.253-.465-.954 3.493Z" fill="#7A6BDE"/><path d="M293.59 247.936h-6.175a.443.443 0 0 0-.429.346l-1.049 4.493a.74.74 0 0 0 .727.906c1.991 0 3.445-.155 5.96-.155 1.538 0 6.175.167 8.344.167 2.17 0 2.384-2.11 1.55-2.3-3.886-.847-6.818-2.027-8.058-3.147a1.192 1.192 0 0 0-.87-.31Zm44.938-101.654-1.061 3.659a1353.61 1353.61 0 0 1-2.241 7.701l-2.265 7.712c-3.862 13.052-8.773 29.347-11.491 37.083-5.411 15.353-23.518 42.662-23.518 42.662l-8.713-3.195s13.374-25.723 17.761-41.291c3.063-10.871 7.867-30.408 11.026-43.532l1.513-6.293c.513-2.146.93-3.898 1.192-5.126.263-1.228.477-2.015.477-2.015l3.517.537 13.803 2.098Z" fill="#263238"/><path d="m298.894 245.671-10.251-3.766 1.156-3.052 10.931 3.314-1.836 3.504Z" fill="#7A6BDE"/><path opacity=".2" d="m346.264 143.802-7.736 9.024-1.061-2.885-1.192-3.147-1.084 10.847-14.233-.464-2.968-.096 1.514-6.294a54.451 54.451 0 0 1-.525-3.957l.096-.536 1.645-.62c.31-1.288.476-2.015.476-2.015l3.517.537 18.345-6.819 3.206 6.425Zm-.429 19.013a50.428 50.428 0 0 0-14.304 3.087 7.9 7.9 0 0 1-.679.263l1.037-5.102s8.928-.417 13.946 1.752Z" fill="#000"/><path d="m279.262 148.702-3.111 4.124-2.635-5.018s2.992-3.517 4.768-1.896l.978 2.79Z" fill="#FFC2BC"/><path d="m271.394 154.709-.774-5.137 2.896-1.824 2.635 5.078-4.757 1.883Z" fill="#FFC2BC"/><path d="m280.108 148.32-.87.441-1.287-3.266 1.382-.667.775 3.492Z" fill="#fff"/><path d="M314.807 118.556a44.917 44.917 0 0 1-1.394 2.288 123.714 123.714 0 0 1-3.767 5.769l-1.085 1.562a83.275 83.275 0 0 1-3.492 4.649c-.62.763-1.252 1.537-1.955 2.3a27.053 27.053 0 0 1-2.253 2.265 49.213 49.213 0 0 1-9.989 6.592 77.124 77.124 0 0 1-10.728 4.553l-1.55-3.48c1.55-.942 3.159-1.908 4.697-2.909 1.538-1.001 3.099-1.99 4.589-3.039 1.49-1.049 2.956-2.11 4.339-3.219a40.185 40.185 0 0 0 3.862-3.445 62.657 62.657 0 0 0 6.163-8.511c1.99-3.087 4.506-8.499 6.472-11.586l6.091 6.211Z" fill="#263238"/><path opacity=".2" d="M313.413 120.845a123.714 123.714 0 0 1-3.767 5.769 16.7 16.7 0 0 1 2.038-7.152 3.303 3.303 0 0 1 1.729 1.383Z" fill="#000"/><path d="m381.762 105.718-3.457 3.219.489 2.98c1.263 1.668 4.172-.394 4.851-.918.109-.079.224-.147.346-.203l1.836-.739a1.566 1.566 0 0 0 .941-1.693l-.357-2.193a1.542 1.542 0 0 0-1.217-1.267 1.554 1.554 0 0 0-.619.004l-2.062.417a1.478 1.478 0 0 0-.751.393Z" fill="#FFC2BC"/><path d="m377.507 108.961.953-.239.548 3.457-1.501.358v-3.576Z" fill="#fff"/><path d="M378.305 112.56a77.87 77.87 0 0 1-11.491 1.549 48.466 48.466 0 0 1-11.92-.548 26.685 26.685 0 0 1-3.099-.787 54.277 54.277 0 0 1-2.861-.989 88.635 88.635 0 0 1-5.376-2.205l-2.11-.954a174.307 174.307 0 0 1-4.768-2.301c-1.192-.572-2.3-1.192-3.444-1.811l3.063-7.283c3.278 1.644 7.152 3.873 10.442 5.507a60.584 60.584 0 0 0 9.643 4.148c1.669.441 3.366.772 5.078.989 1.764.25 3.576.405 5.376.548 1.8.143 3.659.227 5.495.251 1.836.023 3.719.083 5.531.107l.441 3.779Z" fill="#263238"/><path opacity=".2" d="M341.413 108.626a174.367 174.367 0 0 1-4.768-2.3l-.62-3.386a11.925 11.925 0 0 1 5.388 5.686Z" fill="#000"/><path d="M309.777 111.69a95.99 95.99 0 0 1 4.697 14.948c.858 3.576 3.898 7.152 4.422 10.43a91.476 91.476 0 0 0 2.146 10.728c3.635-1.955 14.637-4.375 22.016-8.344.31-29.705-7.665-41.29-7.665-41.29a50.33 50.33 0 0 0-5.96 1.918l-1.287.537a113.735 113.735 0 0 0-10.37 5.566c-.656.394-1.312.799-1.943 1.192-3.243 2.122-6.056 4.315-6.056 4.315Z" fill="#7A6BDE"/><path opacity=".7" d="M309.777 111.69a95.99 95.99 0 0 1 4.697 14.948c.858 3.576 3.898 7.152 4.422 10.43a91.476 91.476 0 0 0 2.146 10.728c3.635-1.955 14.637-4.375 22.016-8.344.31-29.705-7.665-41.29-7.665-41.29a50.33 50.33 0 0 0-5.96 1.918l-1.287.537a113.735 113.735 0 0 0-10.37 5.566c-.656.394-1.312.799-1.943 1.192-3.243 2.122-6.056 4.315-6.056 4.315Z" fill="#fff"/><path d="m329.314 111.13.453-2.753-1.895-.12-1.157 1.276 2.599 1.597Z" fill="#7A6BDE"/><path d="M327.872 108.257c-3.505 1.955-6.974-.322-9.215-1.883l-.238-.167c.989-1.371 1.085-3.576.763-5.793a32.958 32.958 0 0 0-1.955-7.152l8.022 4.6c0 .55-.095 1.038-.119 1.467-.107 1.037-.119 1.74.453 2.193.89.497 1.904.724 2.92.656.918 1.061 1.776 4.732-.631 6.079Z" fill="#FFC2BC"/><path d="M315.88 107.41s10.096 10.537 17.487 16.271c0 0-.548-18.631-3.886-23.578l6.866-2.872s6.604 14.59 7.545 38.954l2.98 6.139-8.344 8.487-2.682-6.294-1.8 10.442-17.212 1.526 2.11-11.92-10.168-32.184 7.104-4.971Z" fill="#263238"/><path d="M328.408 110.569s2.384 8.13 2.217 12.469l3.076 1.597.548-2.384s-2.706-10.478-5.197-12.313l-.644.631Z" fill="#7A6BDE"/><path d="M316.238 106.541s12.611 13.839 17.069 17.141c0 0-1.299-18.739-4.196-23.447 0 0 1.991-1.37 6.235 2.765l-2.122 3.934 3.767 2.599s-1.288 14.041-3.767 20.705c.18-1.408.26-2.826.238-4.244l-14.793-8.201.656-4.53-5.59-.238s.619-5.352 2.503-6.484Z" fill="#263238"/><path opacity=".2" d="M316.238 106.541s12.611 13.839 17.069 17.141c0 0-1.299-18.739-4.196-23.447 0 0 1.991-1.37 6.235 2.765l-2.122 3.934 3.767 2.599s-1.288 14.041-3.767 20.705c.18-1.408.26-2.826.238-4.244l-14.793-8.201.656-4.53-5.59-.238s.619-5.352 2.503-6.484Z" fill="#fff"/><path d="M367.589 41.505s-7.152-.81-11.145 1.073c-3.993 1.883-8.01 8.022-14.495 8.606-6.484.584-7.784-1.526-7.784-1.526s5.71 10.132 16.688 10.025c10.979-.107 16.688-1.92 23.161 2.157.024 0-4.959-17.176-6.425-20.335Z" fill="#7A6BDE"/><path opacity=".2" d="M325.583 101.498c-.668 2.074-2.325 5.007-6.246 4.935a4.063 4.063 0 0 1-.68 0l-.238-.167c.989-1.37 1.085-3.576.763-5.793a7.964 7.964 0 0 1 5.96-1.108c-.119.977-.131 1.68.441 2.133Z" fill="#000"/><path d="M327.872 108.257a8.432 8.432 0 0 1-.894 4.16c-2.206-.309-8.797-3.576-9.131-6.305a3.508 3.508 0 0 1 1.025-1.705 15.694 15.694 0 0 0 9 3.85Z" fill="#fff"/><path d="M327.871 108.257a8.74 8.74 0 0 1 3.35 1.704c.62-2.563-1.943-8.725-2.599-9.059a6.088 6.088 0 0 0-3.123.524s3.6 3.362 2.372 6.831Z" fill="#fff"/><path d="M310.218 90.687c-.131 2.038 1.192 5.853 3.481 3.945 2.288-1.907-3.255-7.45-3.481-3.945Z" fill="#263238"/><path d="M324.486 89.912c1.478 4.768 2.587 7.534 1.121 10.812-2.217 4.935-8.845 4.923-11.741.643-2.599-3.838-4.59-11.038-.668-14.602a6.927 6.927 0 0 1 11.288 3.147Z" fill="#FFC2BC"/><path d="M325.249 83.845c-.476-3.123-4.184-2.682-6.353-1.037v6.163a14.923 14.923 0 0 0 2.384-1.419s.846 4.613 3.671 5.96c3.6-3.492 3.898-8.88.298-9.667Z" fill="#263238"/><path d="M327.8 93.143a4.769 4.769 0 0 1-1.192 3.42c-1.132 1.193-2.586.418-3.004-1.12-.417-1.537-.25-3.66 1.192-4.315a2.174 2.174 0 0 1 2.752.987c.167.317.254.67.252 1.028Z" fill="#FFC2BC"/><path d="M317.835 93.846c.143.381 0 .763-.202.858-.203.095-.573-.143-.716-.524-.143-.382 0-.763.203-.859.203-.095.56.143.715.525Zm-4.339 1.585c.155.382.06.763-.191.859-.25.095-.572-.144-.715-.525-.143-.381-.059-.763.191-.858.25-.096.56.143.715.524Z" fill="#263238"/><path d="M314.938 95.122a13.953 13.953 0 0 1-.679 3.826 2.383 2.383 0 0 0 1.943-.358l-1.264-3.468Z" fill="#ED893E"/><path d="m318.812 99.305-.488.214a.12.12 0 0 1-.155-.072.123.123 0 0 1 .003-.091.123.123 0 0 1 .068-.063 3.227 3.227 0 0 0 2.039-2.086.118.118 0 0 1 .017-.044.129.129 0 0 1 .034-.034.115.115 0 0 1 .092-.017.107.107 0 0 1 .089.096.092.092 0 0 1-.006.047 3.347 3.347 0 0 1-1.693 2.05Zm-.167-7.342a.26.26 0 0 1-.25 0 1.907 1.907 0 0 0-1.728-.215.24.24 0 0 1-.191-.44 2.386 2.386 0 0 1 2.181.25.25.25 0 0 1 .072.333.272.272 0 0 1-.084.072Zm-7.533 2.67a.203.203 0 0 1-.143 0 .244.244 0 0 1-.162-.086.238.238 0 0 1-.044-.083.244.244 0 0 1-.009-.093 2.392 2.392 0 0 1 1.192-1.86.243.243 0 0 1 .184-.013.238.238 0 0 1 .138.12.237.237 0 0 1-.095.322 1.841 1.841 0 0 0-.894 1.478.24.24 0 0 1-.167.215Zm10.061-7.045s-3.016 3.11-5.96 2.956a7.28 7.28 0 0 0 2.133-1.478s-5.757 2.491-8.594 1.192c-2.837-1.3-2.515-2.706-2.515-2.706s.322.822 3.075.739c0 0-2.384-1.561-1.418-3.767a1.758 1.758 0 0 0 1.418.942 11.114 11.114 0 0 1 8.511-5.03c6.187-.704 7.438 1.74 7.712 3.576.274 1.835-4.362 3.576-4.362 3.576Z" fill="#263238"/><path d="M222.117 409.44h-84.393c-.83 0-1.502.673-1.502 1.502v19.239c0 .83.672 1.502 1.502 1.502h84.393c.83 0 1.502-.672 1.502-1.502v-19.239c0-.829-.672-1.502-1.502-1.502Z" fill="#7A6BDE"/><path opacity=".2" d="M143.588 410.728h-3.457v19.871h3.457v-19.871Zm7.856-.095h-2.516v19.87h2.516v-19.87Zm7.223.095h-1.251v19.871h1.251v-19.871Zm9.751-.095h-.632v19.87h.632v-19.87Zm47.834 19.87h3.457v-19.87h-3.457v19.87Zm-7.855.095h2.516v-19.87h-2.516v19.87Zm-7.235-.095h1.251v-19.87h-1.251v19.87Zm-9.751.095h.632v-19.87h-.632v19.87Zm-11.646 0h.31v-19.87h-.31v19.87Z" fill="#000"/><path opacity=".2" d="M221.283 412.826h-82.546a1.032 1.032 0 0 1-.745-.304 1.023 1.023 0 0 1-.227-.342 1.014 1.014 0 0 1-.077-.403 1.049 1.049 0 0 1 1.049-1.049h82.546c.278 0 .545.111.742.307a1.053 1.053 0 0 1 .23 1.145 1.023 1.023 0 0 1-.569.569 1.032 1.032 0 0 1-.403.077Z" fill="#fff"/><path d="M223.309 387.257h-84.393c-.83 0-1.502.673-1.502 1.502v19.239c0 .83.672 1.502 1.502 1.502h84.393c.83 0 1.502-.672 1.502-1.502v-19.239c0-.829-.672-1.502-1.502-1.502Z" fill="#7A6BDE"/><path opacity=".2" d="M144.78 388.545h-3.457v19.871h3.457v-19.871Zm7.856-.095h-2.516v19.87h2.516v-19.87Zm7.223.095h-1.252v19.871h1.252v-19.871Zm9.763-.095h-.632v19.87h.632v-19.87Zm47.823 19.858h3.456v-19.871h-3.456v19.871Zm-7.868.096h2.516v-19.871h-2.516v19.871Zm-7.223-.096h1.252v-19.871h-1.252v19.871Zm-9.751.096h.632v-19.871h-.632v19.871Zm-11.646 0h.31v-19.871h-.31v19.871Z" fill="#000"/><path opacity=".2" d="M222.475 390.643h-82.546a1.049 1.049 0 0 1-1.049-1.049 1.031 1.031 0 0 1 .645-.972 1.02 1.02 0 0 1 .404-.077h82.546a1.033 1.033 0 0 1 1.049 1.049c0 .278-.111.545-.307.742a1.053 1.053 0 0 1-.742.307Z" fill="#fff"/><path d="M218.541 365.074h-84.393c-.83 0-1.502.673-1.502 1.502v19.239c0 .83.672 1.502 1.502 1.502h84.393c.83 0 1.502-.672 1.502-1.502v-19.239c0-.829-.672-1.502-1.502-1.502Z" fill="#7A6BDE"/><path opacity=".2" d="M140 366.35h-3.457v19.87H140v-19.87Zm7.868-.096h-2.516v19.871h2.516v-19.871Zm7.223.096h-1.252v19.87h1.252v-19.87Zm9.751-.096h-.632v19.871h.632v-19.871Zm47.823 19.871h3.457v-19.871h-3.457v19.871Zm-7.844.095h2.515v-19.871h-2.515v19.871Zm-7.235-.095h1.251v-19.871h-1.251v19.871Zm-9.751.095h.632v-19.871h-.632v19.871Zm-11.646 0h.31v-19.871h-.31v19.871Z" fill="#000"/><path opacity=".2" d="M217.707 368.448h-82.546a1.05 1.05 0 0 1-.745-.304 1.031 1.031 0 0 1-.304-.745 1.047 1.047 0 0 1 1.049-1.049h82.546a1.06 1.06 0 0 1 1.049 1.049 1.05 1.05 0 0 1-1.049 1.049Z" fill="#fff"/><path d="m171.004 350.365-2.396 5.9-1.812 4.458-4.553-1.621 1.633-4.005 2.575-6.365 4.553 1.633Zm97.315-31.588-3.874 2.873-1.418-3.147-3.29-7.271 3.874-2.885 3.111 6.89 1.597 3.54Z" fill="#E4897B"/><path opacity=".2" d="m166.451 348.732 4.553 1.633-2.396 5.9-4.732-1.168 2.575-6.365Zm100.271-33.495-3.695 3.266-3.29-7.271 3.874-2.885 3.111 6.89Z" fill="#000"/><path d="M205.179 187.001c.131.37.429.596.668.513.238-.084.333-.453.202-.823-.131-.369-.429-.596-.667-.512-.239.083-.358.453-.203.822Z" fill="#263238"/><path d="M205.573 187.609a13.878 13.878 0 0 0 2.86 2.515 2.197 2.197 0 0 1-1.633.954l-1.227-3.469Z" fill="#DE5753"/><path d="M203.117 185.44a.315.315 0 0 1-.167 0 .226.226 0 0 1 0-.31 2.281 2.281 0 0 1 1.812-1.026.238.238 0 0 1 .208.328.228.228 0 0 1-.13.124.232.232 0 0 1-.09.013 1.802 1.802 0 0 0-1.431.823.273.273 0 0 1-.096.045.27.27 0 0 1-.106.003Z" fill="#263238"/><path d="M196.358 193.009c.06 3.576-.393 10.085-3.242 11.98 0 0 .322 3.695 6.782 4.839 7.152 1.276 4.029-2.92 4.029-2.92-3.707-1.609-3.099-4.47-1.943-7.057l-5.626-6.842Z" fill="#E4897B"/><path d="M192.663 190.541c1.859 4.411 2.729 7.152 5.829 8.607 4.648 2.264 9.536-1.765 8.975-6.64-.453-4.398-3.433-10.871-8.487-11.109a6.529 6.529 0 0 0-6.835 5.897 6.522 6.522 0 0 0 .518 3.245Z" fill="#E4897B"/><path d="M195.81 197.717c2.098.847 8.69-3.874 6.437-9.309 0 0 2.253-3.636 1.442-7.152-.811-3.517-3.457-4.577-5.96-3.433-2.217 1.001-1.979 2.253-1.979 2.253s-10.728 2.813-7.795 6.925c-3.779 5.436 5.221 9.679 7.855 10.716Z" fill="#263238"/><path d="M200.482 189.648a5.462 5.462 0 0 0 2.325 2.586c1.382.751 2.181-.298 1.895-1.692-.286-1.395-1.275-3.159-2.706-3.338-1.43-.179-2.062 1.132-1.514 2.444Z" fill="#E4897B"/><path d="M191.399 205.024c-.5-1.001-1.049-2.145.167-2.455 1.216-.31 9.846-.811 12.314 0-.811 1.347.441 3.063.441 3.063l-12.922-.608Z" fill="#7A6BDE"/><path opacity=".5" d="M191.399 205.024c-.5-1.001-1.049-2.145.167-2.455 1.216-.31 9.846-.811 12.314 0-.811 1.347.441 3.063.441 3.063l-12.922-.608Z" fill="#FAFAFA"/><path d="M167.107 358.792h-5.269a.418.418 0 0 0-.405.334l-.954 4.291a.689.689 0 0 0 .132.601.701.701 0 0 0 .559.258c1.896 0 4.649-.143 7.033-.143 2.801 0 5.209.155 8.487.155 1.991 0 2.539-2.003 1.705-2.182-3.779-.834-6.854-.918-10.12-2.932a2.303 2.303 0 0 0-1.168-.382Zm34.091-111.154s-1.502 10.12-3.326 21.754c-.799 4.983-1.657 10.24-2.503 15.103-.942 5.447-1.86 10.382-2.623 13.863-3.325 15.138-20.979 56.858-20.979 56.858l-8.642-1.871s12.349-32.458 15.103-53.64c2.134-16.247 6.317-52.079 6.317-52.079l16.653.012Z" fill="#263238"/><path d="m173.829 352.32-1.609 3.123-9.727-2.11.811-2.885 10.525 1.872Z" fill="#7A6BDE"/><path opacity=".3" d="m173.829 352.32-1.609 3.123-9.727-2.11.811-2.885 10.525 1.872Z" fill="#000"/><path opacity=".2" d="M197.872 269.392c-.799 4.983-1.657 10.24-2.503 15.103-2.384-9.619-1.61-15.377-1.61-15.377l4.113.274Z" fill="#000"/><path d="M187.072 213.857c-2.324 2.193-4.768 4.517-6.985 6.842a95.28 95.28 0 0 0-6.365 7.152 33.13 33.13 0 0 0-2.301 3.862 167.777 167.777 0 0 0-2.205 4.41l-4.374 9.036-3.433-1.192c.739-3.35 1.68-6.616 2.706-9.894a99.605 99.605 0 0 1 1.74-4.899 32.489 32.489 0 0 1 2.443-5.066 64.393 64.393 0 0 1 6.509-8.344 87.97 87.97 0 0 1 7.39-7.367l4.875 5.46Z" fill="#DC897C"/><path d="m161.123 252.788 1.752-3.111-5.34-1.621a5.58 5.58 0 0 0 .095 4.529l3.493.203Zm3.707-7.677-3.421-1.109-3.874 4.053 5.34 1.621 1.955-4.565Z" fill="#E4897B"/><path d="m268.259 318.122-4.35 3.23a.428.428 0 0 0-.132.512l1.788 4.017a.692.692 0 0 0 1.073.263c1.502-1.192 2.182-1.788 4.089-3.207 1.192-.87 3.91-2.789 5.543-3.993 1.633-1.204.643-2.98-.132-2.622-3.468 1.561-5.471 1.728-7.068 1.573a1.189 1.189 0 0 0-.811.227Z" fill="#263238"/><path d="M184.998 205.477c-4.637-.286-11.479 9.738-11.479 9.738l6.747 9.215a19.883 19.883 0 0 0 7.152-7.152c3.207-5.412 2.313-11.503-2.42-11.801Z" fill="#7A6BDE"/><path opacity=".6" d="M184.998 205.477c-4.637-.286-11.479 9.738-11.479 9.738l6.747 9.215a19.883 19.883 0 0 0 7.152-7.152c3.207-5.412 2.313-11.503-2.42-11.801Z" fill="#FAFAFA"/><path opacity=".2" d="M186.31 214.727c-3.04 1.633-5.066 5.65-6.342 9.286l.298.417a19.868 19.868 0 0 0 7.152-7.152c.191-.31.37-.644.537-.966l-1.645-1.585Z" fill="#000"/><path d="M212.438 204.738s2.777 6.985-2.086 42.912h-25.807c-.178-3.969 2.313-23.303-1.514-41.97a66.654 66.654 0 0 1 8.642-1.097c3.302-.155 14.304-2.384 17.213-2.109 3.826.333 3.552 2.264 3.552 2.264Z" fill="#7A6BDE"/><path opacity=".6" d="M213.046 220.58c-.31 6.354-1.085 15.103-2.694 27.059h-25.807c-.178-3.97 2.313-23.304-1.514-41.971a66.652 66.652 0 0 1 8.642-1.096c3.302-.155 14.304-2.384 17.213-2.11 3.826.345 3.576 2.277 3.576 2.277s.584 1.466.739 6.508c.06 2.3.048 5.34-.155 9.333Z" fill="#FAFAFA"/><path d="m209.303 245.552 5.102 11.92s24.71 3.099 31.719 11.598 20.264 42.984 20.264 42.984l-6.604 5.614s-18.953-34.854-24.257-39.062c-5.304-4.207-35.498-4.195-42.244-6.711-6.747-2.515-8.69-24.293-8.69-24.293l24.71-2.05Z" fill="#263238"/><path d="m258.378 317.013 7.962-6.103 1.026 1.967-7.629 6.02-1.359-1.884Z" fill="#7A6BDE"/><path opacity=".3" d="m258.378 317.013 7.962-6.103 1.026 1.967-7.629 6.02-1.359-1.884Z" fill="#000"/><path d="M203.832 182.972s-.298-7.08-4.041-7.319c-3.743-.238-6.687 3.147-6.687 3.147a3.901 3.901 0 0 0-1.343-1.069 3.894 3.894 0 0 0-1.673-.385c-2.122-.119-5.817 3.492-5.817 3.492s4.613-2.837 6.556-1.537c0 0-5.233 1.454-6.556 4.768a11.921 11.921 0 0 1-2.741 4.494h2.741l-1.8 3.063s3.791 3.659 6.652 3.051l-.918 1.741s5.614 2.05 7.903 1.418c2.288-.631.119-12.027.119-12.027l7.605-2.837Z" fill="#263238"/><path opacity=".2" d="M213.046 220.58c-4.684-3.183-4.613-10.514-4.613-10.514l4.768 1.192c.06 2.289.048 5.329-.155 9.322Z" fill="#000"/><path d="m169.836 256.769-31.838-5.352-8.237 24.508 5.269 9.571 34.758 4.578 7.045-26.701-6.997-6.604Z" fill="#7A6BDE"/><path opacity=".4" d="m129.761 275.925 2.05 3.73.465.823 2.754 5.018 34.758 4.578 7.045-26.701-2.992-2.813-.918-.871-3.075-2.92-31.85-5.352-8.237 24.508Z" fill="#000"/><path opacity=".2" d="m176.833 263.373-31.516-4.899-7.319-7.057 31.85 5.352 6.985 6.604Z" fill="#fff"/><path opacity=".1" d="m145.317 258.474-10.287 27.022-5.269-9.571 8.237-24.508 7.319 7.057Z" fill="#fff"/><path d="m131.811 279.656.465.822 9.524-25.306 32.041 5.388-.918-.87-31.695-5.078-9.417 25.044Z" fill="#263238"/><path d="m163.089 258.224-1.609-1.49-8.022-1.455 1.407 1.621 8.224 1.324Z" fill="#263238"/><path d="M166.189 258.819s.369-8.415.143-8.975c-.227-.561-11.515-2.384-12.361-2.563-.847-.179-4.566 8.022-4.566 8.022l.644.989 2.134.286s2.705-7.068 2.98-7.247c3.092.329 6.165.83 9.202 1.502.238.191-.692 6.615-.692 6.615l.728 1.049 1.788.322Z" fill="#263238"/><path d="m131.919 272.193 2.384 3.064.226-.608 1.8-4.768.215-.572.381-1.025s-.679.763-1.609 1.633a10.029 10.029 0 0 1-3.397 2.276Z" fill="#7A6BDE"/><path opacity=".2" d="m132.693 272.42 1.776 2.229 1.8-4.768.215-.572a10.076 10.076 0 0 1-3.791 3.111Z" fill="#fff"/><path opacity=".2" d="M135.256 269.904h1.013l.596-1.597s-.679.727-1.609 1.597Z" fill="#000"/><path d="m131.048 266.198-.441 4.315a9.869 9.869 0 0 1 5.698-.763l.227-.596 1.382-3.707.155-.381a13.93 13.93 0 0 0-7.021 1.132Zm4.53-7.319a16.533 16.533 0 0 0 3.242 4.362l.167-.452.429-1.192.716-1.967.345-.954.096-.274a18.095 18.095 0 0 1-1.478-2.754l-3.517 3.231Zm7.295-5.555c.435.68.772 1.419 1.001 2.193l.501.084.691.107 1.109.203 1.061.178.369.06a6.844 6.844 0 0 0-1.74-4.482l-2.992 1.657Z" fill="#7A6BDE"/><path opacity=".2" d="M143.541 253.444c.355.686.635 1.41.834 2.157l.691.107a.736.736 0 0 1 .578-1.134.74.74 0 0 1 .292.038.722.722 0 0 1 .437.37.75.75 0 0 1 .04.571.758.758 0 0 1-.238.358l1.061.179a6.947 6.947 0 0 0-1.395-3.874l-2.3 1.228Zm-12.206 12.921-.275 3.493a14.13 14.13 0 0 1 5.472-.704l1.382-3.707a12.951 12.951 0 0 0-6.579.918Zm3.826-.286a.98.98 0 0 1 .867.108.99.99 0 0 1 .118 1.563.983.983 0 0 1-.842.236.98.98 0 0 1-.446.047.993.993 0 0 1-.796-1.351.982.982 0 0 1 .651-.583.984.984 0 0 1 .448-.02Zm1.025-7.01a19.757 19.757 0 0 0 2.801 3.719l.429-1.192a1.015 1.015 0 0 1-.572-1.287 1.024 1.024 0 0 1 1.192-.703l.346-.954a8.214 8.214 0 0 1-1.454-2.265l-2.742 2.682Z" fill="#fff"/><path d="m242.846 182.209 1.836-3.063 4.053 3.838a5.602 5.602 0 0 1-3.982 2.158l-1.907-2.933Zm4.673-7.164 2.873 4.041-1.657 3.898-4.053-3.838 2.837-4.101Z" fill="#E4897B"/><path d="M211.127 203.069a99.683 99.683 0 0 0 9.774-2.527 39.189 39.189 0 0 0 8.845-3.862 6.84 6.84 0 0 0 .727-.524l.823-.763a48.62 48.62 0 0 0 1.728-1.764c1.132-1.264 2.301-2.563 3.421-3.898 2.301-2.647 4.542-5.4 6.854-8.082l3.016 2.002c-1.657 3.231-3.493 6.306-5.436 9.37-.989 1.513-2.002 3.039-3.123 4.529-.56.739-1.192 1.49-1.788 2.241-.31.37-.703.751-1.049 1.133-.426.422-.876.82-1.347 1.192a39.61 39.61 0 0 1-10.334 5.316 65.078 65.078 0 0 1-10.848 2.896l-1.263-7.259Z" fill="#DC897C"/><path d="M209.589 213.487c5.019 4.351 16.045-3.111 16.045-3.111l-4.399-10.859a63.816 63.816 0 0 0-11.92 2.563c-6.973 2.372-3.564 8.094.274 11.407Z" fill="#7A6BDE"/><path opacity=".6" d="M209.589 213.487c5.019 4.351 16.045-3.111 16.045-3.111l-4.399-10.859a63.816 63.816 0 0 0-11.92 2.563c-6.973 2.372-3.564 8.094.274 11.407Z" fill="#FAFAFA"/></svg>