<svg width="617" height="477" fill="none" xmlns="http://www.w3.org/2000/svg"><path d="M547.667 339.742H324.724a7.24 7.24 0 0 1-7.229-7.229V7.703a7.238 7.238 0 0 1 7.229-7.218h222.943a7.239 7.239 0 0 1 7.23 7.218v324.81a7.24 7.24 0 0 1-7.23 7.229ZM324.724.794a6.923 6.923 0 0 0-6.97 6.909v324.81a6.922 6.922 0 0 0 6.921 6.921h222.992a6.92 6.92 0 0 0 6.921-6.921V7.703A6.92 6.92 0 0 0 547.667.78L324.724.794Zm-34.198 338.948H67.533a7.241 7.241 0 0 1-7.23-7.229V7.703a7.242 7.242 0 0 1 7.23-7.23h222.993a7.241 7.241 0 0 1 7.229 7.23v324.81a7.24 7.24 0 0 1-7.229 7.229ZM67.533.794a6.921 6.921 0 0 0-6.92 6.908v324.811a6.922 6.922 0 0 0 6.92 6.921h222.993a6.922 6.922 0 0 0 6.921-6.921V7.703A6.92 6.92 0 0 0 290.526.78L67.533.794Z" fill="#F0F0F0"/><path d="M616.853 415.085H0v.308h616.853v-.308Z" fill="#E0E0E0"/><path d="M108.875 153.07H69.927a1.85 1.85 0 0 0-1.85 1.851v8.796a1.85 1.85 0 0 0 1.85 1.851h38.948a1.85 1.85 0 0 0 1.85-1.851v-8.796a1.85 1.85 0 0 0-1.85-1.851Zm46.535 0h-38.948a1.851 1.851 0 0 0-1.851 1.851v8.796c0 1.022.829 1.851 1.851 1.851h38.948a1.851 1.851 0 0 0 1.851-1.851v-8.796a1.851 1.851 0 0 0-1.851-1.851Zm-23.268 15.927H93.194a1.85 1.85 0 0 0-1.85 1.851v8.796a1.85 1.85 0 0 0 1.85 1.851h38.948a1.851 1.851 0 0 0 1.851-1.851v-8.796a1.851 1.851 0 0 0-1.851-1.851Zm173.435 56.628h-38.948a1.85 1.85 0 0 0-1.851 1.85v8.796c0 1.022.829 1.851 1.851 1.851h38.948a1.851 1.851 0 0 0 1.851-1.851v-8.796a1.85 1.85 0 0 0-1.851-1.85Zm46.535 0h-38.948a1.85 1.85 0 0 0-1.851 1.85v8.796c0 1.022.829 1.851 1.851 1.851h38.948a1.851 1.851 0 0 0 1.851-1.851v-8.796a1.85 1.85 0 0 0-1.851-1.85Zm-23.267 15.939h-38.949a1.85 1.85 0 0 0-1.85 1.851v8.796a1.85 1.85 0 0 0 1.85 1.85h38.949a1.85 1.85 0 0 0 1.85-1.85v-8.796a1.85 1.85 0 0 0-1.85-1.851Zm-220.044 48.435H69.853a1.85 1.85 0 0 0-1.851 1.851v8.796a1.85 1.85 0 0 0 1.85 1.851h38.949a1.85 1.85 0 0 0 1.85-1.851v-8.796a1.85 1.85 0 0 0-1.85-1.851Zm23.267 15.94H93.12a1.85 1.85 0 0 0-1.85 1.85v8.797a1.85 1.85 0 0 0 1.85 1.85h38.948a1.85 1.85 0 0 0 1.851-1.85v-8.797a1.85 1.85 0 0 0-1.851-1.85ZM493.976 95.777h-38.948a1.85 1.85 0 0 0-1.85 1.85v8.797a1.85 1.85 0 0 0 1.85 1.85h38.948a1.85 1.85 0 0 0 1.851-1.85v-8.797a1.85 1.85 0 0 0-1.851-1.85Zm46.536 0h-38.949a1.85 1.85 0 0 0-1.85 1.85v8.797a1.85 1.85 0 0 0 1.85 1.85h38.949a1.85 1.85 0 0 0 1.85-1.85v-8.797a1.85 1.85 0 0 0-1.85-1.85Zm-23.268 15.927h-38.948a1.85 1.85 0 0 0-1.851 1.85v8.797a1.85 1.85 0 0 0 1.851 1.85h38.948a1.85 1.85 0 0 0 1.851-1.85v-8.797a1.85 1.85 0 0 0-1.851-1.85Z" fill="#F0F0F0"/><path d="M108.718 110.864c10.33-4.279 15.235-16.122 10.957-26.452-4.279-10.33-16.122-15.235-26.452-10.957-10.33 4.28-15.235 16.122-10.957 26.452 4.28 10.33 16.122 15.235 26.452 10.957Z" fill="#E6E6E6"/><path d="M98.832 84.55h-4.7v15.212h4.7V84.55Zm8.945 0h-4.701v15.212h4.701V84.55Z" fill="#fff"/><path d="M499.713 50.944a8.82 8.82 0 0 1-8.821-8.821V26.307a8.818 8.818 0 0 1 8.821-8.821 8.823 8.823 0 0 1 8.833 8.82v15.817a8.821 8.821 0 0 1-8.833 8.82Z" fill="#E6E6E6"/><path d="M518.157 38.965c0 .542 0 9.141-5.651 14.804a16.69 16.69 0 0 1-11.189 4.8v9.795h-3.245v-9.796a16.73 16.73 0 0 1-11.165-4.799c-5.613-5.687-5.638-14.286-5.638-14.804h3.245c0 .074 0 7.76 4.737 12.522a13.975 13.975 0 0 0 10.45 3.898 14.287 14.287 0 0 0 10.511-3.898c4.663-4.725 4.7-12.263 4.7-12.522h3.245Z" fill="#E6E6E6"/><path d="M565.716 289.604h-12.941v125.481h12.941V289.604Z" fill="#E0E0E0"/><path d="M524.942 289.604H512v125.481h12.942V289.604Z" fill="#F0F0F0"/><path d="M366.966 289.604h-12.942v125.481h12.942V289.604Z" fill="#E0E0E0"/><path d="M326.18 289.604h-12.942v125.481h12.942V289.604Z" fill="#F0F0F0"/><path d="M313.25 289.592v22.145h252.479v-22.145H313.25Z" fill="#F0F0F0"/><path d="M565.716 289.604H512.05v22.146h53.666v-22.146Z" fill="#E0E0E0"/><path d="M576.992 469.109c0 4.318-119.164 7.822-266.16 7.822-146.996 0-266.16-3.479-266.16-7.822s119.164-7.809 266.16-7.809c146.996 0 266.16 3.516 266.16 7.809Z" fill="#F5F5F5"/><path d="M146.947 14.833v15.212a4.94 4.94 0 0 1-3.356 4.688l.346 7.402-6.465-7.118H110.33a4.934 4.934 0 0 1-4.934-4.935V14.833a4.932 4.932 0 0 1 4.934-4.935h31.707a4.935 4.935 0 0 1 4.91 4.935Z" fill="#7A6BDE"/><path opacity=".5" d="M146.947 14.833v15.212a4.94 4.94 0 0 1-3.356 4.688l.346 7.402-6.465-7.118H110.33a4.934 4.934 0 0 1-4.934-4.935V14.833a4.932 4.932 0 0 1 4.934-4.935h31.707a4.935 4.935 0 0 1 4.91 4.935Z" fill="#fff"/><path d="M116.388 24.913a2.295 2.295 0 1 0 0-4.59 2.295 2.295 0 0 0 0 4.59Zm19.48 0a2.295 2.295 0 1 0 0-4.59 2.295 2.295 0 0 0 0 4.59Zm-9.648 0a2.294 2.294 0 1 0 .001-4.59 2.294 2.294 0 0 0-.001 4.59Zm127.072 33.075v21.627a5.677 5.677 0 0 0 5.676 5.688H378.39l4.935 10.807 5.169-10.807h6.009a5.671 5.671 0 0 0 5.246-3.512c.285-.69.43-1.43.429-2.176V57.988a5.668 5.668 0 0 0-3.502-5.246 5.662 5.662 0 0 0-2.173-.429H258.968a5.663 5.663 0 0 0-5.676 5.675Z" fill="#7A6BDE"/><path opacity=".5" d="M253.292 57.988v21.627a5.677 5.677 0 0 0 5.676 5.688H378.39l4.935 10.807 5.169-10.807h6.009a5.671 5.671 0 0 0 5.246-3.512c.285-.69.43-1.43.429-2.176V57.988a5.668 5.668 0 0 0-3.502-5.246 5.662 5.662 0 0 0-2.173-.429H258.968a5.663 5.663 0 0 0-5.676 5.675Z" fill="#fff"/><path d="M279.583 68.253a9.124 9.124 0 0 1-10.903 8.968 9.127 9.127 0 0 1-7.179-7.17 9.135 9.135 0 0 1 8.953-10.915 9.13 9.13 0 0 1 9.129 9.117Z" fill="#7A6BDE"/><path d="M267.949 63.947v8.611l7.625-4.836-7.625-3.775Z" fill="#fff"/><path d="M286.615 62.442h-1.407v12.547h1.407V62.442Zm5.317 2.282h-1.406v7.983h1.406v-7.983Zm5.318-2.282h-1.407v12.547h1.407V62.442Zm5.304 2.282h-1.406v7.983h1.406v-7.983Zm10.635 0h-1.406v7.983h1.406v-7.983Zm10.622 0h-1.406v7.983h1.406v-7.983Zm10.635 0h-1.406v7.983h1.406v-7.983Zm10.622 0h-1.406v7.983h1.406v-7.983Zm10.622 0h-1.406v7.983h1.406v-7.983Zm10.635 0h-1.407v7.983h1.407v-7.983Zm21.293 0h-1.406v7.983h1.406v-7.983Zm-10.387 0h-1.407v7.983h1.407v-7.983Zm-69.359-2.282h-1.407v12.547h1.407V62.442Zm10.635 0H317.1v12.547h1.407V62.442Zm10.622 0h-1.407v12.547h1.407V62.442Zm10.622 0h-1.407v12.547h1.407V62.442Zm10.634 0h-1.406v12.547h1.406V62.442Zm10.623 0h-1.407v12.547h1.407V62.442Zm10.634 0h-1.406v12.547h1.406V62.442Zm10.622 0h-1.406v12.547h1.406V62.442Z" fill="#7A6BDE"/><path opacity=".8" d="M323.811 64.724h-1.406v7.983h1.406v-7.983Zm10.635 0h-1.406v7.983h1.406v-7.983Zm10.622 0h-1.406v7.983h1.406v-7.983Zm10.622 0h-1.406v7.983h1.406v-7.983Zm10.635 0h-1.407v7.983h1.407v-7.983Zm21.293 0h-1.406v7.983h1.406v-7.983Zm-10.387 0h-1.407v7.983h1.407v-7.983Zm-48.102-2.282h-1.407v12.547h1.407V62.442Zm10.622 0h-1.407v12.547h1.407V62.442Zm10.634 0h-1.406v12.547h1.406V62.442Zm10.623 0h-1.407v12.547h1.407V62.442Zm10.634 0h-1.406v12.547h1.406V62.442Zm10.622 0h-1.406v12.547h1.406V62.442Z" fill="#fff"/><path d="M359.083 6.382v21.64a5.649 5.649 0 0 1-1.659 4.016 5.659 5.659 0 0 1-4.016 1.659H233.985l-4.935 10.82-5.169-10.82h-6.008a5.663 5.663 0 0 1-5.675-5.676V6.383a5.676 5.676 0 0 1 5.675-5.675h135.584a5.673 5.673 0 0 1 5.626 5.675Z" fill="#7A6BDE"/><path opacity=".5" d="M359.083 6.382v21.64a5.649 5.649 0 0 1-1.659 4.016 5.659 5.659 0 0 1-4.016 1.659H233.985l-4.935 10.82-5.169-10.82h-6.008a5.663 5.663 0 0 1-5.675-5.676V6.383a5.676 5.676 0 0 1 5.675-5.675h135.584a5.673 5.673 0 0 1 5.626 5.675Z" fill="#fff"/><path d="M229.223 8.751h-.198a3.207 3.207 0 0 0-3.207 3.208v6.131a3.207 3.207 0 0 0 3.207 3.208h.198a3.208 3.208 0 0 0 3.208-3.208v-6.13a3.208 3.208 0 0 0-3.208-3.208Z" fill="#7A6BDE"/><path d="M236.045 16.807a8.507 8.507 0 0 1-2.122 5.552 6.253 6.253 0 0 1-4.194 1.801v3.701h-1.234V24.16a6.253 6.253 0 0 1-4.182-1.801 8.513 8.513 0 0 1-2.122-5.552h1.234a7.4 7.4 0 0 0 1.776 4.688 5.246 5.246 0 0 0 3.923 1.468 5.338 5.338 0 0 0 3.936-1.468 7.4 7.4 0 0 0 1.764-4.688h1.221Zm11.721-5.786h-1.407v12.547h1.407V11.02Zm5.304 2.282h-1.406v7.983h1.406v-7.983Zm5.318-2.282h-1.407v12.547h1.407V11.02Zm5.317 2.282h-1.406v7.983h1.406v-7.983Zm10.622 0h-1.406v7.983h1.406v-7.983Zm10.622 0h-1.406v7.983h1.406v-7.983Zm10.635 0h-1.406v7.983h1.406v-7.983Zm10.622 0H304.8v7.983h1.406v-7.983Zm10.635 0h-1.406v7.983h1.406v-7.983Zm10.622 0h-1.406v7.983h1.406v-7.983Zm21.294 0h-1.406v7.983h1.406v-7.983Zm-10.388 0h-1.407v7.983h1.407v-7.983Zm-69.359-2.282h-1.406v12.547h1.406V11.02Zm10.635 0h-1.407v12.547h1.407V11.02Zm10.622 0h-1.407v12.547h1.407V11.02Zm10.635 0h-1.407v12.547h1.407V11.02Zm10.622 0h-1.407v12.547h1.407V11.02Zm10.622 0h-1.407v12.547h1.407V11.02Zm10.634 0h-1.406v12.547h1.406V11.02Zm10.623 0h-1.407v12.547h1.407V11.02Z" fill="#7A6BDE"/><path opacity=".8" d="M284.949 13.303h-1.406v7.983h1.406v-7.983Zm10.635 0h-1.406v7.983h1.406v-7.983Zm10.622 0H304.8v7.983h1.406v-7.983Zm10.635 0h-1.406v7.983h1.406v-7.983Zm10.622 0h-1.406v7.983h1.406v-7.983Zm21.294 0h-1.406v7.983h1.406v-7.983Zm-10.388 0h-1.407v7.983h1.407v-7.983Zm-48.102-2.282h-1.407v12.547h1.407V11.02Zm10.635 0h-1.407v12.547h1.407V11.02Zm10.622 0h-1.407v12.547h1.407V11.02Zm10.622 0h-1.407v12.547h1.407V11.02Zm10.634 0h-1.406v12.547h1.406V11.02Zm10.623 0h-1.407v12.547h1.407V11.02Z" fill="#fff"/><path d="M309.66 398.541s-9.61-15.101-32.94-28.82c-16.47-9.697-26.08-37.011-26.08-37.011s31.57 1.37 45.301 20.591c13.732 19.221 13.719 45.24 13.719 45.24Z" fill="#7A6BDE"/><path d="M309.66 398.541s-9.61-15.101-32.94-28.82c-16.47-9.697-26.08-37.011-26.08-37.011s31.57 1.37 45.301 20.591c13.732 19.221 13.719 45.24 13.719 45.24Z" fill="#000" opacity=".2"/><path opacity=".2" d="M309.771 398.948a.473.473 0 0 1-.456-.345 80.19 80.19 0 0 0-21.528-36.148 78.616 78.616 0 0 0-15.064-11.782.47.47 0 0 1-.173-.642.46.46 0 0 1 .63-.185 79.74 79.74 0 0 1 15.273 11.93 81.063 81.063 0 0 1 21.762 36.567.462.462 0 0 1-.167.499.443.443 0 0 1-.166.081l-.111.025Z" fill="#000"/><path d="M305.527 398.195s-2.751-5.49-15.1-4.108c-12.35 1.382-19.221 8.229-41.181-4.12 0 0 16.47-13.731 34.321-10.98 17.852 2.751 19.209 9.61 21.96 19.208Z" fill="#7A6BDE"/><path d="M305.527 398.195s-2.751-5.49-15.1-4.108c-12.35 1.382-19.221 8.229-41.181-4.12 0 0 16.47-13.731 34.321-10.98 17.852 2.751 19.209 9.61 21.96 19.208Z" fill="#000" opacity=".2"/><path opacity=".2" d="M305.589 398.664a.46.46 0 0 1-.407-.222c0-.086-5.577-8.759-14.459-10.375-15.533-2.826-26.106 2.134-26.204 2.183a.46.46 0 0 1-.52-.061.485.485 0 0 1-.156-.327.468.468 0 0 1 .269-.451c.098 0 10.93-5.156 26.771-2.27 9.302 1.691 14.866 10.438 15.101 10.808a.48.48 0 0 1-.148.654.665.665 0 0 1-.247.061Z" fill="#000"/><path d="M310.919 396.875s-1.073-6.045 9.647-12.337c10.721-6.292 20.332-4.873 30.572-27.894 0 0-21.405-1.234-34.088 11.683-12.682 12.917-9.672 19.197-6.131 28.548Z" fill="#7A6BDE"/><path d="M310.919 396.875s-1.073-6.045 9.647-12.337c10.721-6.292 20.332-4.873 30.572-27.894 0 0-21.405-1.234-34.088 11.683-12.682 12.917-9.672 19.197-6.131 28.548Z" fill="#000" opacity=".2"/><path opacity=".2" d="M310.869 397.381a.471.471 0 0 1-.469-.432c0-.444-.801-10.782 5.651-17.691 10.992-11.77 22.725-14.151 22.836-14.175a.48.48 0 0 1 .555.382.468.468 0 0 1-.37.543c-.124 0-11.56 2.356-22.33 13.891-6.169 6.613-5.416 16.865-5.404 16.976a.472.472 0 0 1-.255.457.472.472 0 0 1-.177.049h-.037Z" fill="#000"/><path d="M308.686 471.576c-24.539 0-40.157-3.898-37.641-21.195 1.592-10.968 10.141-21.713 16.187-28.104.851-.9 1.64-1.715 2.368-2.467 2.246-2.209 3.701-3.479 3.701-3.479l.062-.407.432-2.468.493-2.788 1.135-6.378.383-2.233 12.83-.568 13.386.568.309 2.233.481 3.491.777 5.675.333 2.468v.407s1.518 1.233 3.701 3.479c.728.715 1.53 1.53 2.381 2.467 6.033 6.391 14.595 17.136 16.186 28.104 2.616 17.26-13.003 21.195-37.504 21.195Z" fill="#7A6BDE"/><path d="M326.784 404.339h-36.542v-7.809h36.542v7.809Z" fill="#7A6BDE"/><path d="M326.784 404.339h-36.542v-7.809h36.542v7.809Z" fill="#fff" opacity=".4"/><path d="M323.934 415.924h-30.559l.432-2.418h29.794l.333 2.418Zm6.181 6.304h-42.921c.852-.901 1.641-1.715 2.369-2.468h38.171c.691.765 1.53 1.58 2.381 2.468Z" fill="#000" opacity=".3"/><path d="M439.175 131.345c-4.404 8.71-9.08 17.037-14.299 25.278-2.603 4.108-5.305 8.192-8.266 12.239a124.635 124.635 0 0 1-4.725 6.045c-.863 1.011-1.752 2.035-2.751 3.072a36.21 36.21 0 0 1-3.516 3.22 19.81 19.81 0 0 1-2.776 1.826c-.751.386-1.536.704-2.344.95a10.264 10.264 0 0 1-4.022.394c-.444-.05-.885-.128-1.32-.234a6.362 6.362 0 0 1-.715-.21c-.321-.111-.63-.234-.938-.37a8.386 8.386 0 0 1-1.234-.666l-.444-.296-.259-.21-.493-.407-.346-.321c-.259-.234-.407-.395-.592-.58a21.045 21.045 0 0 1-1.591-1.85c-1.74-2.221-3.06-4.269-4.429-6.342-2.69-4.12-5.17-8.228-7.588-12.337-4.861-8.278-9.425-16.655-13.793-25.192l7.748-4.935 17.21 22.602c2.862 3.701 5.712 7.476 8.636 11.103 1.419 1.764 2.924 3.541 4.232 4.935.257.274.528.533.814.777 0 0 .086.074.062 0l-.148-.135-.087-.062-.246-.185a6.145 6.145 0 0 0-.802-.444 8.743 8.743 0 0 0-.728-.284l-.506-.148a8.653 8.653 0 0 0-.888-.161 6.182 6.182 0 0 0-2.258.173c-.243.068-.482.15-.715.247-.173.074-.001 0 .135-.222.37-.383.962-1.049 1.542-1.777.58-.728 1.234-1.554 1.814-2.467a87.777 87.777 0 0 0 3.627-5.465c2.393-3.8 4.737-7.773 7.02-11.795 2.282-4.022 4.577-8.093 6.835-12.176l6.76-12.214 16.384 8.624Z" fill="#FF8B7B"/><path d="m427.566 107.559-21.072 34.679 18.888 15.94 6.49-29.301-4.306-21.318Z" fill="#7A6BDE"/><path opacity=".3" d="m426.9 108.57-20.406 33.668 18.888 15.94 6.49-29.301-4.972-20.307Z" fill="#000"/><path d="M453.671 438.044v21.429l-8.648.691-4.244-20.072 12.892-2.048Z" fill="#FF8B7B"/><path d="M447.527 458.141s-2.714-5.219-4.318-4.663c-1.603.555-2.27 6.896-2.27 6.896s-8.722 2.912-11.103 3.072c-2.381.16-4.417 1.53-4.725 6.292h29.794s-.21-10.746-.259-12.584c-.05-1.838-2.677.457-2.677.457l-4.442.53Z" fill="#7A6BDE"/><path d="M447.527 458.141s-2.714-5.219-4.318-4.663c-1.603.555-2.27 6.896-2.27 6.896s-8.722 2.912-11.103 3.072c-2.381.16-4.417 1.53-4.725 6.292h29.794s-.21-10.746-.259-12.584c-.05-1.838-2.677.457-2.677.457l-4.442.53Z" fill="#fff" opacity=".2"/><path d="M454.522 461.238a4.458 4.458 0 0 0-2.246 4.592c.093.599.308 1.173.63 1.687a.203.203 0 0 1 .03.082.217.217 0 0 1-.04.167.229.229 0 0 1-.064.06.231.231 0 0 1-.169.027.234.234 0 0 1-.08-.037.212.212 0 0 1-.059-.064 4.924 4.924 0 0 1-.626-3.824 4.932 4.932 0 0 1 2.328-3.097c.247-.161.543.259.296.407Z" fill="#fff"/><path d="m454.572 468.035-23.379.235-5.428.061c-.309 0-.37-.468 0-.468l23.366-.247 5.441-.062c.296 0 .358.469.061.481h-.061Zm-12.338-5.786c-1.233-1.455-3.01-1.875-4.342-.765-.222.173-.518-.234-.296-.419 1.542-1.234 3.627-.716 5.021.95.21.247-.173.481-.383.234Z" fill="#fff"/><path d="M439.767 463.027a3.029 3.029 0 0 0-2.003-1.33 3.02 3.02 0 0 0-2.339.552c-.223.185-.519-.222-.297-.407 1.543-1.233 3.628-.715 5.022.938.209.247-.173.493-.383.247Z" fill="#fff"/><path d="M437.213 463.791a3.034 3.034 0 0 0-2.005-1.323 3.028 3.028 0 0 0-2.337.559c-.222.185-.518-.223-.296-.408 1.542-1.233 3.627-.715 5.021.938.21.247-.173.481-.383.234Z" fill="#fff"/><path d="M458.877 225.624c-.246 3.825.272 15.57-.246 21.874-.975 12.016-2.283 27.598-3.319 43.18-1.234 18.073-2.073 36.172-1.641 48.731 1.11 32.249.864 105.334.864 105.334h-13.991s-16.433-72.641-19.504-105.334c-2.567-27.141-1.234-96.932-.778-113.809l38.615.024Z" fill="#263238"/><path opacity=".2" d="M458.631 247.498c-.975 12.016-2.283 27.598-3.319 43.18-6.884-20.381-.493-51.174-.493-51.174l3.812 7.994Z" fill="#000"/><path d="M455.756 445.261h-16.421l-1.209-5.231 18.395-.641-.765 5.872Z" fill="#7A6BDE"/><path d="M473.299 341.556c6.761 32.076 31.744 102.237 31.744 102.237l13.904-1.591s-10.129-71.999-14.879-103.903c-4.281-28.807-6.958-94.527-7.933-114.106l-46.424 1.431c1.468 16.816 17.987 89.284 23.588 115.969v-.037Z" fill="#263238"/><path d="M517.762 438.044v21.429l-8.648.691-4.244-20.072 12.892-2.048Z" fill="#FF8B7B"/><path d="M511.63 458.141s-2.726-5.219-4.33-4.663c-1.604.555-2.27 6.896-2.27 6.896s-8.722 2.912-11.103 3.072c-2.381.16-4.417 1.53-4.725 6.292h29.794s-.21-10.746-.259-12.584c-.05-1.838-2.678.457-2.678.457l-4.429.53Z" fill="#7A6BDE"/><path d="M511.63 458.141s-2.726-5.219-4.33-4.663c-1.604.555-2.27 6.896-2.27 6.896s-8.722 2.912-11.103 3.072c-2.381.16-4.417 1.53-4.725 6.292h29.794s-.21-10.746-.259-12.584c-.05-1.838-2.678.457-2.678.457l-4.429.53Z" fill="#fff" opacity=".2"/><path d="M518.614 461.238a4.457 4.457 0 0 0-2.159 2.792 4.477 4.477 0 0 0 .542 3.487.221.221 0 0 1-.009.249.233.233 0 0 1-.065.06.232.232 0 0 1-.169.027.226.226 0 0 1-.139-.101 4.941 4.941 0 0 1-.626-3.824 4.93 4.93 0 0 1 2.329-3.097c.246-.161.542.259.296.407Z" fill="#fff"/><path d="m518.663 468.035-23.379.235-5.428.061c-.309 0-.37-.468-.062-.468l23.366-.247 5.441-.062c.296 0 .358.469.062.481Zm-12.337-5.786c-1.234-1.455-3.01-1.875-4.343-.765-.222.173-.518-.234-.296-.419 1.542-1.234 3.627-.716 5.021.95.21.247-.172.481-.382.234Z" fill="#fff"/><path d="M503.858 463.027a3.02 3.02 0 0 0-3.23-1.296 3.026 3.026 0 0 0-1.113.518c-.222.185-.518-.222-.296-.407 1.542-1.233 3.627-.715 5.021.938.21.247-.172.493-.382.247Z" fill="#fff"/><path d="M501.304 463.791a3.034 3.034 0 0 0-2.005-1.323 3.028 3.028 0 0 0-2.337.559c-.222.185-.506-.223-.296-.408 1.542-1.233 3.627-.715 5.021.938.21.247-.173.481-.383.234Z" fill="#fff"/><path d="m520.205 442.572-16.31 1.85-1.789-5.07 18.185-2.714-.086 5.934ZM418.412 230.14l79.574-2.764c.506-11.103-9.179-63.375-.728-115.771a9.417 9.417 0 0 0-8.143-10.82 165.33 165.33 0 0 0-12.275-1.06 211.791 211.791 0 0 0-28.301 0c-5.971.542-19.641 2.985-22.108 9.77-2.135 5.935-5.601 103.003-8.019 120.645Z" fill="#7A6BDE"/><path d="m371.531 137.599-.74-7.994s1.394-3.812.148-6.168c-3.529-6.662-11.104-8.772-11.758-6.909-.111.308-4.096 9.869-4.096 9.869l9.5 12.189 6.946-.987Z" fill="#FF8B7B"/><path d="m358.17 133.923 9.869 2.06c1.678.346 2.838-1.233 2.32-3.146l-6.341-23.23a3.53 3.53 0 0 0-2.468-2.542l-9.869-2.06c-1.678-.345-2.838 1.234-2.308 3.158l6.342 23.219a3.477 3.477 0 0 0 2.455 2.541Z" fill="#000"/><path d="m358.17 133.923 9.869 2.06c1.678.346 2.838-1.233 2.32-3.146l-6.341-23.23a3.53 3.53 0 0 0-2.468-2.542l-9.869-2.06c-1.678-.345-2.838 1.234-2.308 3.158l6.342 23.219a3.477 3.477 0 0 0 2.455 2.541Z" fill="#fff" opacity=".2"/><path d="m357.171 133.725 9.869 2.048c1.69.346 2.838-1.233 2.32-3.146l-6.391-23.23a3.537 3.537 0 0 0-2.467-2.542l-9.87-2.048c-1.69-.357-2.838 1.234-2.319 3.146l6.341 23.231a3.53 3.53 0 0 0 2.517 2.541Z" fill="#000"/><path d="M355.727 119.674a3.708 3.708 0 0 0 2.357 2.936c1.048.222 1.69-.74 1.431-2.147a3.707 3.707 0 0 0-2.369-2.948c-1.049-.21-1.678.752-1.419 2.159Z" fill="#fff" opacity=".2"/><path d="M349.398 112.642s6.168 1.295 6.267 2.714c.062 1.69-2.689 1.233-4.737 1.147-2.307-.074-2.505-3.787-1.53-3.861Z" fill="#FF8B7B"/><path d="M350.78 115.911a5.692 5.692 0 0 0-.728 4.12c.493 2.345 3.479 9.512 5.786 4.824 3.479-7.069-3.701-8.796-5.058-8.944Z" fill="#FF8B7B"/><path d="M359.514 110.162a2.087 2.087 0 0 0 1.32 1.653c.593.123.95-.419.802-1.234a2.096 2.096 0 0 0-1.332-1.653c-.58-.062-.938.444-.79 1.234Z" fill="#000"/><path d="M359.514 110.162a2.087 2.087 0 0 0 1.32 1.653c.593.123.95-.419.802-1.234a2.096 2.096 0 0 0-1.332-1.653c-.58-.062-.938.444-.79 1.234Z" fill="#fff" opacity=".2"/><path d="M443.888 49.649a19.652 19.652 0 0 1 15.47 2.467c2.974 1.95 5.441 4.725 4.997 8.463-1.049 8.735-4.935 23.12-4.935 23.12l-28.141-17.173s-1.233-7.403 2.344-11.967c1.851-2.332 6.366-3.911 10.265-4.91Z" fill="#000"/><path d="M445.393 93.334v.099l1.37 5.033a16.22 16.22 0 0 1-.284 5.478c-1.098 1.53-1.592 4.935 2.331 4.935 4.935 0 14.028-7.329 14.348-9.525-2.356-6.76-4.33-14.693-4.009-21.17l-5.626 6.169-8.13 8.981Z" fill="#FF8B7B"/><path d="m445.43 93.445 1.369 5.034c3.097-1.444 6.329-4.528 7.045-7.835.505-2.393-.58-4.626-1.543-4.737l-6.871 7.538Z" fill="#000" opacity=".2"/><path d="M432.785 82.958a56.63 56.63 0 0 0 .999 3.22c3.195 9.377 14.804 10.142 21.96 3.171a16.962 16.962 0 0 0 1.801-2.048c4.54-6.057 3.356-10.684 2.579-21.195a14.353 14.353 0 0 0-2.252-6.86 14.352 14.352 0 0 0-12.321-6.594c-2.445.04-4.839.706-6.956 1.931-8.771 5.034-8.845 17.482-5.81 28.375Z" fill="#FF8B7B"/><path d="M439.693 84.723h-.234a.32.32 0 0 1-.343-.351.32.32 0 0 1 .405-.278 4.504 4.504 0 0 0 4.934-4.318.324.324 0 0 1 .358-.272.308.308 0 0 1 .272.346 5.16 5.16 0 0 1-5.392 4.873Zm20.566-17.63s-3.171.173-3.294 2.887c-.123 2.714.173 3.072.173 3.072l-3.702.802s1-10.351-1.739-10.215c-2.739.135.21-4.528-1.431-5.194-3.874-1.567-14.422-1.604-18.506 4.762 0 0 1.049-6.267 6.045-9.672 4.997-3.405 15.052-4.158 19.148.765 4.095 4.922 3.306 12.793 3.306 12.793Z" fill="#000"/><path d="M465.552 72.46a9.99 9.99 0 0 1-3.948 6.55c-2.85 2.06-5.478-.184-5.712-3.503-.21-2.986 1.024-7.661 4.367-8.414 3.343-.753 5.749 2.159 5.293 5.367Z" fill="#FF8B7B"/><path d="M444.603 73.262c.111.826-.234 1.542-.765 1.616-.53.074-1.061-.53-1.172-1.357-.111-.827.235-1.542.765-1.616.531-.075 1.061.53 1.172 1.357Zm-9.018 1.061c.111.826-.234 1.542-.765 1.616-.53.074-1.073-.53-1.234-1.357-.16-.827.235-1.542.778-1.616.542-.074 1.061.53 1.172 1.357m-3.479-3.085a.445.445 0 0 0 .333-.259 2.17 2.17 0 0 1 1.135-1.233 2.468 2.468 0 0 1 1.715 0 .413.413 0 0 0 .339.033.427.427 0 0 0 .252-.23.403.403 0 0 0 .035-.172.412.412 0 0 0-.293-.397 3.344 3.344 0 0 0-2.369 0 2.95 2.95 0 0 0-1.591 1.765.405.405 0 0 0 .234.543.623.623 0 0 0 .21-.05Zm14.532-1.678a.296.296 0 0 0 .173 0 .4.4 0 0 0 .178-.43.413.413 0 0 0-.067-.15 3.255 3.255 0 0 0-1.961-1.32 2.972 2.972 0 0 0-2.295.593.43.43 0 0 0-.099.592.445.445 0 0 0 .592.099 2.185 2.185 0 0 1 1.641-.47 2.465 2.465 0 0 1 1.431.975.418.418 0 0 0 .407.111Z" fill="#000"/><path d="M439.052 72.805a26.202 26.202 0 0 1-3.195 6.995c-.21.309 3.577.95 3.577.95l-.382-7.945Z" fill="#FF5652"/><path d="m485.365 235.099.555 1.086a64.876 64.876 0 0 0 9.277 10.092c3.701-1.481 6.761-10.487 6.996-11.634.234-1.148-4.676-8.982-4.676-8.982a36.345 36.345 0 0 0-15.212 7.082c-3.232 2.763 6.465-.555 6.465-.555l-3.405 2.911Z" fill="#FF8B7B"/><path d="M459.901 71.93c0 .135-.826 7.401-2.356 18.16-1.234 8.314-2.764 18.727-4.75 29.608-6.168 33.681-12.756 55.641-19.739 65.288-3.356 4.639-7.489 6.971-12.337 6.971h-.728c-5.515-.26-11.942-3.48-19.135-9.562a139.97 139.97 0 0 1-18.505-19.739 285.843 285.843 0 0 1-19.53-28.375.483.483 0 0 1 .16-.654.484.484 0 0 1 .654.173 281.156 281.156 0 0 0 19.468 28.276c14.583 18.506 27.339 28.536 36.876 28.992 4.823.222 8.944-1.974 12.263-6.551 5.292-7.34 10.56-22.54 15.47-44.5v-.061c1.061-13.324-5.021-34.31-9.512-47.757.445.247.864.518 1.481.814 3.935 12.017 8.636 29.461 9.068 42.181a629.557 629.557 0 0 0 3.059-15.594 791.861 791.861 0 0 0 4.577-28.376c1.641-11.424 2.468-19.16 2.529-19.295a.465.465 0 0 1 .173-.314.454.454 0 0 1 .346-.093.467.467 0 0 1 .468.407Z" fill="#000"/><path opacity=".9" d="M364.598 135.243a284.677 284.677 0 0 0 18.567 26.784c14.582 18.505 27.339 28.535 36.875 28.992 4.812.222 8.945-1.974 12.263-6.563 5.293-7.329 10.561-22.528 15.471-44.5 1.061-13.312-5.021-34.297-9.512-47.745.432.247.864.506 1.481.815a256.677 256.677 0 0 1 5.884 20.775 117.25 117.25 0 0 1 3.208 21.356 634.078 634.078 0 0 0 3.06-15.594 796.367 796.367 0 0 0 4.577-28.376c1.628-11.411 2.467-19.147 2.529-19.282a.44.44 0 0 1 .506-.408.47.47 0 0 1 .419.506c0 .124-.827 7.402-2.356 18.16-1.234 8.316-2.764 18.716-4.75 29.609-6.169 33.668-12.757 55.641-19.739 65.288-3.356 4.639-7.489 6.971-12.338 6.971h-.727c-5.515-.26-11.943-3.48-19.135-9.574a138.749 138.749 0 0 1-18.506-19.739 286.114 286.114 0 0 1-19.061-27.611l1.284.136Z" fill="#fff"/><path d="M459.605 73.632a1.456 1.456 0 1 0 0-2.912 1.456 1.456 0 0 0 0 2.912Z" fill="#000"/><path d="M459.605 73.632a1.456 1.456 0 1 0 0-2.912 1.456 1.456 0 0 0 0 2.912Z" fill="#000"/><path opacity=".9" d="M459.605 73.632a1.456 1.456 0 1 0 0-2.912 1.456 1.456 0 0 0 0 2.912Z" fill="#fff"/><path d="M464.046 62.837a45.478 45.478 0 0 1-14.928-.876 101.683 101.683 0 0 1-4.182-.925 25.271 25.271 0 0 0-4.935-.753c-8.167-.358-6.785 2.924-8.784 6.304 0 0-16.642-4.453-16.642-10.4.007-.65.19-1.285.53-1.838 2.381-4.096 9.08-2.8 15.742-.42 5.404-11.263 27.759-7.883 32.311-1.307 2.825 4.034.888 10.215.888 10.215Z" fill="#7A6BDE"/><path opacity=".5" d="M449.118 61.986a101.518 101.518 0 0 1-4.182-.926 25.279 25.279 0 0 0-4.935-.752c-8.167-.358-6.785 2.924-8.784 6.304 0 0-16.642-4.454-16.642-10.4.007-.65.19-1.285.53-1.838 2.381-4.096 9.08-2.8 15.742-.42 7.193 2.653 14.657 6.514 18.271 8.032Z" fill="#000"/><path d="M496.012 110.384c3.577 9.869 6.908 19.739 10.079 29.609 1.567 4.935 3.121 9.968 4.577 15.026 1.456 5.059 2.887 10.104 4.121 15.471.296 1.369.592 2.714.863 4.269.136.728.259 1.653.358 2.627v2.912a70.633 70.633 0 0 1-1.234 8.636c-.974 5.367-2.257 10.474-3.54 15.594a417.257 417.257 0 0 1-9.105 30.115l-8.315-2.024 4.33-30.682a338.558 338.558 0 0 0 1.826-15.088c.241-2.278.352-4.569.333-6.859v-.987c-.062-.309-.123-.679-.259-1.234-.21-.999-.543-2.171-.864-3.319-1.357-4.688-2.948-9.586-4.552-14.434l-4.935-14.62-9.944-29.337 16.261-5.675Z" fill="#FF8B7B"/><path d="M494.667 103.524s4.318 3.356 6.86 12.103c2.541 8.747 7.871 23.021 7.871 23.021l-23.761 10.61s-11.893-25.784-11.104-35.173c.703-7.797 11.054-14.126 20.134-10.561Z" fill="#7A6BDE"/><path opacity=".3" d="M494.667 103.524s4.318 3.356 6.86 12.103c2.541 8.747 7.871 23.021 7.871 23.021l-23.761 10.61s-11.893-25.784-11.104-35.173c.703-7.797 11.054-14.126 20.134-10.561Z" fill="#000"/><path d="M506.079 225.415s-4.725-5.219-10.375-4.824c-1 .839-.839 2.467-.667 4.046 0 0 5.86.975 9.006 4.713-.061 0 2.591-2.048 2.036-3.935Z" fill="#263238"/><path d="m502.131 228.844-1.234-.468c-1.295-.482-1.764-2.468-1.036-4.405.728-1.937 2.356-3.146 3.701-2.665l1.53.593-.321.801-2.295 5.552-.345.592Z" fill="#263238"/><path d="M502.131 228.844c-1.295-.481-1.752-2.467-1.036-4.392.715-1.924 2.356-3.146 3.701-2.664 1.344.481 1.764 2.467 1.036 4.392-.728 1.924-2.406 3.146-3.701 2.664Z" fill="#263238"/><path d="M502.834 227.709c-.838-.308-1.147-1.591-.666-2.862.481-1.271 1.53-2.06 2.381-1.739.852.32 1.148 1.591.667 2.862-.482 1.271-1.53 2.06-2.382 1.739Z" fill="#fff"/><path d="M239.08 162.829c0 1.468 0 2.948-.123 4.54 0 .801-.124 1.64-.222 2.553a24.809 24.809 0 0 1-.568 3.109 16.687 16.687 0 0 1-.74 2.233 12.965 12.965 0 0 1-2.468 3.874 11.325 11.325 0 0 1-4.219 2.875c-.539.201-1.091.366-1.653.493-.645.143-1.302.226-1.962.247-.562.044-1.127.044-1.69 0-.457-.044-.91-.118-1.357-.222a11.919 11.919 0 0 1-3.232-1.234 13.781 13.781 0 0 1-1.592-1.036 20.035 20.035 0 0 1-1.801-1.542c-.469-.444-.839-.827-1.234-1.234-.678-.753-1.233-1.431-1.776-2.073a97.06 97.06 0 0 1-4.096-5.551c-.358-.58-.74-1.135-1.123-1.703-3.059-4.725-5.872-9.339-8.525-14.039-5.342-9.389-10.239-18.79-14.742-28.561l20.516-10.03c4.688 8.908 9.278 18.049 13.867 26.994 0-1.123.086-2.258.123-3.381.272-10.425.444-20.973.815-31.484l10.696-.987c2.208 10.511 3.886 20.973 5.206 31.657.679 5.342 1.16 10.696 1.555 16.174.234 2.665.32 5.441.345 8.328Z" fill="#263238"/><path opacity=".2" d="M216.256 177.399c-.678-.753-1.233-1.431-1.776-2.073a97.067 97.067 0 0 1-4.096-5.552l-2.048-34.803 7.92 42.428Z" fill="#000"/><path d="m221.376 108.965-2.837-8.142s-1.58-3.874-.383-6.33c3.368-6.97 11.103-9.437 11.807-7.55.135.321 4.601 10.043 4.601 10.043l-2.627 9.758c-3.22 2.887-6.699 3.874-10.561 2.221Z" fill="#B55B52"/><path d="m231.678 104.77-10.067 2.468c-1.715.419-2.961-1.16-2.468-3.146l5.65-24.082a3.608 3.608 0 0 1 2.468-2.714l10.067-2.468c1.715-.42 2.961 1.148 2.467 3.146l-5.638 24.107a3.598 3.598 0 0 1-2.479 2.689Z" fill="#000"/><path d="m231.678 104.77-10.067 2.468c-1.715.419-2.961-1.16-2.468-3.146l5.65-24.082a3.608 3.608 0 0 1 2.468-2.714l10.067-2.468c1.715-.42 2.961 1.148 2.467 3.146l-5.638 24.107a3.598 3.598 0 0 1-2.479 2.689Z" fill="#fff" opacity=".2"/><path d="m232.689 104.524-10.067 2.467c-1.715.419-2.961-1.147-2.467-3.146l5.626-24.107a3.605 3.605 0 0 1 2.467-2.701l10.067-2.468c1.703-.432 2.961 1.148 2.467 3.146l-5.625 24.107a3.616 3.616 0 0 1-2.468 2.702Z" fill="#000"/><path d="M233.639 90.028a3.812 3.812 0 0 1-2.307 3.12c-1.073.26-1.764-.702-1.554-2.158a3.83 3.83 0 0 1 2.319-3.121c1.061-.26 1.752.703 1.542 2.159Z" fill="#fff" opacity=".2"/><path d="M239.894 82.564s-6.341 1.579-6.341 3.035c0 1.74 2.813 1.135 4.935.987 2.344-.16 2.344-3.973 1.406-4.022Z" fill="#B55B52"/><path d="M238.587 85.981a5.886 5.886 0 0 1 .888 4.207c-.42 2.467-3.208 9.87-5.749 5.17-3.849-7.132 3.429-9.167 4.861-9.377Z" fill="#B55B52"/><path d="M229.395 80.405a2.146 2.146 0 0 1-1.308 1.752c-.604.148-.987-.395-.863-1.234a2.104 2.104 0 0 1 1.271-1.666c.629-.21 1.011.334.9 1.148Z" fill="#000"/><path d="M229.395 80.405a2.146 2.146 0 0 1-1.308 1.752c-.604.148-.987-.395-.863-1.234a2.104 2.104 0 0 1 1.271-1.666c.629-.21 1.011.334.9 1.148Z" fill="#fff" opacity=".2"/><path d="m199.996 446.705 2.591 13.151h6.958l.925-13.151h-10.474Z" fill="#B55B52"/><path d="M208.632 458.178a2.998 2.998 0 0 1 2.986-1.073c1.665.567 3.861 3.306 3.861 3.306s9.068 2.899 11.511 3.059c2.442.161 4.589 1.53 5.514 6.268h-29.695s-1.234-10.709-1.345-12.547c-.111-1.838 2.727.456 2.727.456l4.441.531Z" fill="#7A6BDE"/><path d="m231.616 468.331-5.342-.061-23.441-.247a.223.223 0 0 1-.157-.379.223.223 0 0 1 .157-.065h1.592a4.934 4.934 0 0 0-2.467-6.28c-.26-.135 0-.543.234-.395a5.358 5.358 0 0 1 2.64 6.737h3.306l23.379.246a.234.234 0 0 1 .099.444Z" fill="#000"/><path d="M214.43 462.274a2.88 2.88 0 0 1 1.941-1.341 2.885 2.885 0 0 1 2.291.564c.247.185.469-.222.234-.395a3.335 3.335 0 0 0-2.644-.614 3.338 3.338 0 0 0-2.229 1.551c-.172.235.235.469.407.235Z" fill="#fff"/><path d="M216.984 463.039a2.897 2.897 0 0 1 1.951-1.335 2.89 2.89 0 0 1 2.293.57c.234.173.457-.222.234-.395a3.326 3.326 0 0 0-3.978-.112 3.337 3.337 0 0 0-.956 1.037c-.173.247.222.481.394.235h.062Z" fill="#fff"/><path d="M219.624 463.816a2.87 2.87 0 0 1 3.159-1.3c.395.1.765.282 1.085.535.234.173.469-.222.234-.407a3.342 3.342 0 0 0-4.873.938c-.172.246.222.468.395.234Z" fill="#fff"/><path d="m137.792 446.803 1.444 13.053h6.958l2.073-13.053h-10.475Z" fill="#B55B52"/><path d="M145.269 458.178a3.03 3.03 0 0 1 1.346-.964 3.027 3.027 0 0 1 1.652-.109c1.665.567 3.861 3.306 3.861 3.306s9.068 2.899 11.511 3.059c2.443.161 4.589 1.53 5.515 6.268h-29.696s-1.233-10.709-1.344-12.547c-.112-1.838 2.726.456 2.726.456l4.429.531Z" fill="#7A6BDE"/><path d="m168.265 468.331-5.342-.061-23.44-.247a.22.22 0 0 1-.222-.222.22.22 0 0 1 .222-.222h1.591a4.929 4.929 0 0 0 .007-3.627 4.93 4.93 0 0 0-2.474-2.653c-.259-.135 0-.543.234-.395a5.355 5.355 0 0 1 2.641 6.737h3.293l23.441.246a.236.236 0 0 1 .157.347.227.227 0 0 1-.108.097Z" fill="#000"/><path d="M151.067 462.274a2.887 2.887 0 0 1 4.244-.777c.247.185.469-.222.235-.395a3.353 3.353 0 0 0-2.68-.648 3.341 3.341 0 0 0-2.255 1.586c-.173.234.234.468.395.234h.061Z" fill="#fff"/><path d="M153.633 463.039a2.89 2.89 0 0 1 4.244-.765c.235.173.457-.222.222-.395a3.319 3.319 0 0 0-4.86.925c-.173.247.222.482.394.235Z" fill="#fff"/><path d="M156.274 463.816a2.87 2.87 0 0 1 3.158-1.3c.396.1.766.282 1.086.535.234.173.468-.222.234-.407a3.353 3.353 0 0 0-2.68-.648 3.337 3.337 0 0 0-2.255 1.586c-.173.246.222.468.395.234h.062Z" fill="#fff"/><path d="M197.652 447.161h15.347c1.32-19.739 5.083-85.212 2.11-117.597 2.134-44.944-4.738-104.606-4.738-104.606H161.8s3.566 39.923 19.555 103.952c-.111 50.73 12.263 101.448 16.297 118.251Z" fill="#7A6BDE"/><path opacity=".2" d="M178.727 318.152c8.784-35.876 1.073-82.411 1.073-82.411l-7.575 53.148 6.502 29.263Z" fill="#000"/><path d="m195.851 446.779 1.122 5.835 17.593-.074.012-5.835-18.727.074Z" fill="#263238"/><path d="M135.609 447.728h15.335c5.465-20.319 18.777-85.779 20.529-118.164 8.697-44.944 10.523-104.606 10.523-104.606H133.4s-2.257 39.923 4.38 103.952c-7.501 50.73-2.517 101.448-2.171 118.818Z" fill="#7A6BDE"/><path d="m134.264 446.766-.025 5.774 17.729.012.925-5.786h-18.629Zm82.486-214.529c-33.693 12.966-88.618 3.565-88.618 3.565.667-16.47 1.234-49.126 1-76.255 0-4.515-.111-8.883-.198-12.991-.148-7.402-.407-14.052-.752-19.246-.617-9.253 4.404-17.852 13.57-19.381 2.776-.469 5.774-.876 8.896-1.234l2.257-.222a221.554 221.554 0 0 1 26.833-.987h3.048c3.873.148 7.525.444 10.807.876 7.402.962 14.076 6.847 14.212 14.36.346 19.974 5.293 103.052 8.945 111.515Z" fill="#263238"/><path d="M172.25 118.181c-10.721-1.678-16.26-8.303-19.369-11.646a221.554 221.554 0 0 1 26.833-.987c8.414 9.586 2.492 14.2-7.464 12.633Z" fill="#263238"/><path opacity=".9" d="M172.25 118.181c-10.721-1.678-16.26-8.303-19.369-11.646a221.554 221.554 0 0 1 26.833-.987c8.414 9.586 2.492 14.2-7.464 12.633Z" fill="#fff"/><path d="M173.225 52.708a20.242 20.242 0 0 0-15.508 4.343c-2.788 2.344-4.935 5.465-4.084 9.24 2.11 8.784 7.822 23.009 7.822 23.009l26.821-20.036s.259-8.512-3.96-12.793c-2.196-2.184-6.995-3.245-11.091-3.763Z" fill="#000"/><path d="M156.199 58.531a3.576 3.576 0 0 0-4.49-.925c-2.542 1.468.629 2.467.629 2.467s-3.121 2.949-1.616 4.22c1.505 1.27 4.466-2.221 4.466-2.221l1.011-3.54Z" fill="#000"/><path d="M176.889 97.454a1.027 1.027 0 0 0 0 .112l-.79 5.292a17.37 17.37 0 0 0 .284 3.121c.163.836.382 1.661.654 2.468 1.307 1.419 2.233 4.935-1.789 5.342-5.071.58-15.199-5.342-15.779-7.551 1.591-7.192 2.665-16.038 1.567-22.576l6.477 5.638 9.376 8.154Z" fill="#B55B52"/><path d="m176.864 97.578-.789 5.293c-3.344-1.098-7.008-3.862-8.143-7.156-.79-2.381.062-4.787 1.024-5.021l7.908 6.884Z" fill="#000" opacity=".2"/><path d="M188.535 85.426a62.446 62.446 0 0 1-.629 3.417c-2.159 9.956-13.904 12.115-22.047 5.848a16.357 16.357 0 0 1-2.072-1.875c-5.367-5.638-4.701-10.499-5.169-21.331a14.805 14.805 0 0 1 20.602-14.434c9.549 4.12 11.116 16.815 9.315 28.375Z" fill="#B55B52"/><path d="M188.535 85.426a62.446 62.446 0 0 1-.629 3.417c-2.159 9.956-13.904 12.115-22.046 5.848-3.467-3.701-4.639-8.019-1.9-15.162l2.467 1.64s.518 1.444 4.256 2.06c3.738.618 5.441-1.726 10.906-.27 0 0 3.22-1.654 5.552-.556 1.69.778 1.32 1.678 1.394 3.023Z" fill="#000"/><path d="M181.194 87.51a1.696 1.696 0 0 1-1.371 1.206 1.7 1.7 0 0 1-1.673-.729 1.709 1.709 0 0 1 .642-2.473 1.7 1.7 0 0 1 .934-.175 1.863 1.863 0 0 1 1.468 2.172Z" fill="#fff"/><path d="M179.911 55.903c-5.502-2.874-15.865-2.467-19.468 3.072-3.602 5.54-1.862 13.46-1.862 13.46.894-.031 1.777.2 2.541.666.471.288.888.655 1.234 1.086a13.31 13.31 0 0 0 3.701 2.578c-.506-2.985-1.234-8.747.876-8.883 2.813-.172-.753-4.601.851-5.477 3.775-2.06 14.533-3.368 19.419 2.665.024 0-1.789-6.28-7.292-9.167Z" fill="#000"/><path d="M169.955 53.066s5.996-5.416 10.055-4.084c3.701 1.234 6.033-.987 7.032-4.466 0 0 2.578 5.342.185 9.635 0 0 4.047-2.319 4.577-5.613 0 0 1.999 6.526-.432 10.746a6.891 6.891 0 0 1-7.081 3.318l-14.336-9.536Z" fill="#000"/><path d="M153.818 78.554a10.242 10.242 0 0 0 4.824 6.169c3.146 1.764 5.564-.84 5.404-4.257-.148-3.072-1.962-7.698-5.466-8.068-3.503-.37-5.613 2.887-4.762 6.169" fill="#B55B52"/><path d="M161.936 84.71a1.23 1.23 0 0 1-.761 1.14 1.236 1.236 0 0 1-1.683-.899 1.234 1.234 0 1 1 2.444-.24Z" fill="#fff"/><path d="M175.248 74.446c0 .851.42 1.554.975 1.567.555.012 1.024-.679 1.036-1.53.012-.851-.419-1.555-.975-1.555-.555 0-1.024.667-1.036 1.518Zm9.339.061c0 .852.419 1.555.975 1.555.555 0 1.024-.666 1.036-1.517.012-.852-.42-1.555-.975-1.567-.555-.013-1.024.678-1.036 1.53Zm2.628-3.133a.408.408 0 0 1-.358-.222 2.256 2.256 0 0 0-1.32-1.234 2.555 2.555 0 0 0-1.752.235.432.432 0 0 1-.419-.753 3.379 3.379 0 0 1 2.467-.308 3.058 3.058 0 0 1 1.838 1.603.43.43 0 0 1 .032.326.43.43 0 0 1-.204.254.483.483 0 0 1-.284.099Zm-14.521-.247a.394.394 0 0 1-.197 0 .466.466 0 0 1-.198-.629 3.704 3.704 0 0 1 1.999-1.715 3.352 3.352 0 0 1 2.615.37.476.476 0 0 1 .277.275.46.46 0 0 1-.027.39.465.465 0 0 1-.512.233.47.47 0 0 1-.182-.083 2.466 2.466 0 0 0-1.887-.297 2.75 2.75 0 0 0-1.456 1.234.471.471 0 0 1-.432.222Z" fill="#000"/><path d="M180.923 74.187a9.573 9.573 0 0 0 2.763 4.688c2.172 1.9-2.208 3.467-2.208 3.467l-.555-8.155Z" fill="#A02724"/><path opacity=".2" d="m145.738 132.122-16.606 27.474c0-4.515-.111-8.882-.197-12.991l16.803-14.483Z" fill="#000"/><path d="m129.428 199.013-6.662 9.154a223.296 223.296 0 0 1-25.982-17.383c-2.097-1.628-4.207-3.331-6.255-5.231a52.676 52.676 0 0 1-6.292-6.662 24.677 24.677 0 0 1-1.665-2.467 16.12 16.12 0 0 1-1.653-3.936 9.28 9.28 0 0 1-.321-1.554 12.59 12.59 0 0 1-.136-1.925c0-.412.026-.824.074-1.233 0-.407.099-.802.185-1.234.102-.461.233-.914.395-1.357l.222-.666.173-.37.345-.716.284-.53.284-.506.234-.383c.333-.543.605-.913.876-1.332a51.38 51.38 0 0 1 2.912-3.701c.925-1.074 1.826-2.135 2.726-3.159 3.615-3.984 7.254-7.673 10.906-11.325 3.652-3.652 7.402-7.192 11.103-10.635 7.501-6.97 15.126-13.706 23.108-20.146l14.743 17.432c-7.403 6.675-15.163 13.201-22.799 19.678l-11.412 9.722c-3.8 3.207-7.55 6.464-11.103 9.672-.852.777-1.678 1.554-2.468 2.295a45.352 45.352 0 0 0 1.986 2.467 138.312 138.312 0 0 0 4.738 5.256c6.798 7.044 14.212 13.94 21.454 20.775Z" fill="#263238"/><path d="M125.53 195.226s10.782.629 12.657 2.023c1.876 1.394-4.318 13.879-7.402 16.223-3.084 2.344-2.467-2.307-2.467-2.307s-5.342.506-8.365-2.331c-3.022-2.838-2.652-10.721 5.577-13.608Z" fill="#B55B52"/></svg>