<svg width="261" height="231" fill="none" xmlns="http://www.w3.org/2000/svg"><path d="M38.221 101.578c-50.961 29.425-50.961 77.127 0 106.552 50.962 29.425 133.589 29.425 184.556 0 50.967-29.425 50.961-77.127 0-106.552-50.962-29.424-133.59-29.424-184.556 0Z" fill="#F5F5F5"/><path d="m208.944 178.96-5.646-3.248a4.337 4.337 0 0 0-4.137.103l-29.137 15.641c-5.691-3.319-13.535-5.376-22.236-5.376-17.373 0-31.455 8.224-31.455 18.364s14.077 18.364 31.455 18.364c17.379 0 31.439-8.224 31.439-18.364 0-3.248-1.445-6.286-3.974-8.933l33.643-14.228c1.191-.612 1.191-1.651.048-2.323Z" fill="#E0E0E0"/><path d="M98.018 205.911a6.748 6.748 0 0 1-3.34-.818l-54.2-31.281-8.613 1.624a3.66 3.66 0 0 1-.73.07 3.966 3.966 0 0 1-1.982-.541L6.468 161.906a3.962 3.962 0 0 1-1.878-2.522 3.968 3.968 0 0 1 .547-3.097l.037-.054 1.44-1.977-2.198-1.266a3.037 3.037 0 0 1 0-5.566L78.68 104.27l98.652 56.954-75.984 43.853a6.761 6.761 0 0 1-3.33.834Zm97.548-60.626 52.96-30.562c1.364-.79 1.364-2.062 0-2.853l-70.923-40.934a5.413 5.413 0 0 0-4.938 0l-52.937 30.561c-1.359.785-1.359 2.063 0 2.848l70.923 40.94a5.45 5.45 0 0 0 4.915 0Zm26.805 31.839-33.523-19.355 31.791-18.331 33.528 19.354-31.796 18.332ZM94.618 216.246l-5.11-5.809-38.5-22.3-1.082-.628-1.765-1.023-.119-.065a.061.061 0 0 1 .038 0l-1.7-.975-6.946-4.001c-1.337-.915-3.351.948-4.13 2.821a4.845 4.845 0 0 0-.272.872c-.151.779 0 1.483.542 1.878l5.663 3.249 1.559.931 1.272.731.12.065 1.466.85.06.043 1.234.704 39.16 22.69 7.46 1.472 2.025.406a.302.302 0 0 0 .26-.076.279.279 0 0 0 .084-.203.283.283 0 0 0-.084-.203l-1.235-1.429Z" fill="#E0E0E0"/><path d="m42.412 31.527-2.783 3.389a1.624 1.624 0 0 1-1.565.433 15.288 15.288 0 0 0-2.35-.465c-.508-.06-1.114-.731-1.353-1.538l-.936-3.13c-.239-.806-.818-1.38-1.289-1.282l-4.835 1.001c-.476.103-.806.812-.747 1.597l.266 3.482c.06.78-.239 1.591-.66 1.83-.761.43-1.485.92-2.166 1.467a1.625 1.625 0 0 1-1.657.075l-3.492-1.884a1.175 1.175 0 0 0-1.51.32l-2.653 4.039a1.337 1.337 0 0 0 .39 1.624l2.82 2.463a2.03 2.03 0 0 1 .606 1.917 16.74 16.74 0 0 0-.4 1.97c-.103.688-.504 1.402-.958 1.554l-4.245 1.386c-.46.146-.704.92-.541 1.727l.703 3.79c.152.806.666 1.424 1.154 1.38l4.38-.406c.487-.048 1.163.542 1.575 1.24.25.437.522.86.817 1.267a2.193 2.193 0 0 1 .38 2.025l-1.933 3.79a1.294 1.294 0 0 0 .481 1.591l3.59 2.474a1.185 1.185 0 0 0 1.564-.08l2.789-3.39a1.624 1.624 0 0 1 1.559-.433c.77.216 1.555.372 2.35.466.509.06 1.115.73 1.353 1.537l.937 3.13c.243.806.817 1.38 1.294 1.277l4.834-1.001c.471-.098.807-.813.742-1.592l-.292-3.492c-.06-.785.243-1.592.66-1.83.76-.43 1.485-.92 2.166-1.467a1.624 1.624 0 0 1 1.656-.076l3.509 1.879a1.17 1.17 0 0 0 1.51-.32l2.653-4.044a1.332 1.332 0 0 0-.39-1.624l-2.804-2.431a2.03 2.03 0 0 1-.607-1.917c.175-.648.31-1.306.406-1.97.098-.688.498-1.402.959-1.554l4.244-1.386c.455-.146.704-.92.541-1.727l-.703-3.79c-.152-.806-.666-1.424-1.153-1.38l-4.38.406c-.488.048-1.164-.542-1.576-1.24a14.02 14.02 0 0 0-.817-1.267 2.205 2.205 0 0 1-.38-2.03l1.934-3.79a1.294 1.294 0 0 0-.482-1.592l-3.59-2.474a1.186 1.186 0 0 0-1.575.076ZM38.93 43.113a9.648 9.648 0 0 1 2.447 13.199 9.148 9.148 0 0 1-12.864 2.664 9.647 9.647 0 0 1-2.447-13.2 9.143 9.143 0 0 1 12.864-2.663Zm38.477-22.23-1.943 2.371a1.132 1.132 0 0 1-1.083.303 10.729 10.729 0 0 0-1.624-.325c-.357-.043-.78-.514-.948-1.082l-.65-2.166c-.172-.541-.573-.958-.903-.893l-3.379.703c-.33.065-.541.542-.541 1.083l.184 2.431a1.451 1.451 0 0 1-.444 1.283c-.529.3-1.032.642-1.505 1.023a1.116 1.116 0 0 1-1.153.055l-2.453-1.31a.812.812 0 0 0-1.082.221l-1.857 2.821a.936.936 0 0 0 .276 1.153l1.96 1.7a1.413 1.413 0 0 1 .422 1.337c-.123.452-.217.912-.282 1.376a1.387 1.387 0 0 1-.671 1.082l-2.962.97c-.319.102-.492.644-.39 1.207l.493 2.653c.103.541.466.996.807.963l3.059-.281c.341-.033.812.373 1.083.866.178.303.368.601.574.888a1.527 1.527 0 0 1 .26 1.413l-1.349 2.631a.915.915 0 0 0 .336 1.115l2.507 1.722a.829.829 0 0 0 1.082-.054l1.944-2.366a1.132 1.132 0 0 1 1.083-.303c.532.15 1.075.258 1.624.325.357.043.78.541.947 1.082l.65 2.166c.168.541.574.958.904.893l3.379-.703c.33-.066.541-.542.541-1.116l-.184-2.43a1.445 1.445 0 0 1 .46-1.278c.529-.3 1.032-.642 1.505-1.024a1.116 1.116 0 0 1 1.153-.054l2.453 1.31a.812.812 0 0 0 1.083-.221l1.857-2.821a.936.936 0 0 0-.276-1.153l-1.96-1.7a1.413 1.413 0 0 1-.423-1.338c.123-.452.217-.91.282-1.375a1.385 1.385 0 0 1 .671-1.083l2.962-.969c.32-.102.492-.644.39-1.207l-.493-2.653c-.103-.541-.466-.996-.807-.963l-3.059.281c-.34.033-.812-.373-1.082-.866a11.793 11.793 0 0 0-.574-.888 1.527 1.527 0 0 1-.26-1.413l1.348-2.631a.915.915 0 0 0-.336-1.115l-2.485-1.7a.845.845 0 0 0-1.12.054Zm-2.43 8.12a6.74 6.74 0 0 1 1.71 9.204A6.387 6.387 0 0 1 67.7 40.07a6.745 6.745 0 0 1-1.71-9.204 6.39 6.39 0 0 1 8.987-1.884v.022Z" fill="#F0F0F0"/><path d="m242.862 114.074-1.916-1.04 1.77-.428a1.373 1.373 0 0 1 .146 1.468Z" fill="#7A6BDE"/><path opacity=".5" d="m242.862 114.074-1.916-1.04 1.77-.428a1.373 1.373 0 0 1 .146 1.468Z" fill="#000"/><path d="M191.343 140.017a4.404 4.404 0 0 0 3.958 0l44.394-25.635-66.461-37.752-1.554-.899-44.395 25.007c-1.082.634-1.082 1.663 0 2.285l64.058 36.994Z" fill="#7A6BDE"/><path d="m208.013 92.212 15.484 8.911 10.021-5.782 11.662 6.735v7.78c0 1.018-1.143 2.469-1.559 2.23-.768.185-1.514.45-2.226.791a16.756 16.756 0 0 0-3.221 2.382l-35.575-19.918 5.414-3.13Z" fill="#7A6BDE"/><path opacity=".15" d="m208.013 92.212 15.484 8.911 10.021-5.782 11.662 6.735v7.78c0 1.018-1.143 2.469-1.559 2.23-.768.185-1.514.45-2.226.791a16.756 16.756 0 0 0-3.221 2.382l-35.575-19.918 5.414-3.13Z" fill="#000"/><path d="M238.78 103.014v8.445c.045-.031.092-.06.141-.086a3.95 3.95 0 0 1 1.895-.596c.437-.044.876.06 1.245.298v-9.962l-3.281 1.901Z" fill="#37474F"/><path d="M236.615 114.355a2.64 2.64 0 0 1 .541-1.44c.163-.222.344-.431.541-.623l.19-.178.243-.206.201-.152c.146-.108.298-.205.438-.297v-8.408l-2.165 1.256v-.043l.011 10.091Z" fill="#E0E0E0"/><path opacity=".4" d="M245.179 109.857c0 1.017-1.142 2.468-1.559 2.23l-1.559-1.012v-6.421l1.564-2.707.85-.303.704.411v7.802Z" fill="#000"/><path d="M193.303 129.26v9.637c.46.009.914-.099 1.321-.314l4.873-2.81 37.118-21.418v-10.091l-43.312 24.996Z" fill="#EBEBEB"/><path d="M128.396 93.057v7.276a2.924 2.924 0 0 0 1.315 2.285l57.431 33.155 4.873 2.809c.404.217.857.325 1.315.314v-8.548l-64.934-37.291Z" fill="#F5F5F5"/><path d="m173.233 64.114 66.462 38.374v.888c0 .498.693.677 1.548.184.856-.493 1.554-1.083 1.554-1.965l.081-.845-67.717-39.089-.276-.162a.943.943 0 0 0-.114.411v.412c0 .493-.682 1.283-1.538 1.792Z" fill="#7A6BDE"/><path opacity=".1" d="m173.233 64.114 66.462 38.374v.888c0 .498.693.677 1.548.184.856-.493 1.554-1.083 1.554-1.965l.081-.845-67.717-39.089-.276-.162a.943.943 0 0 0-.114.411v.412c0 .493-.682 1.283-1.538 1.792Z" fill="#000"/><path d="m195.301 128.118 43.409-25.066c.541-.293 1.056-.542 1.272-.412l-.287-.157-66.461-38.368-.775-.45c-.427-.249-1.369-.108-2.095.309l-43.079 24.872c-1.082.633-1.082 1.662 0 2.284l64.058 36.994a4.39 4.39 0 0 0 3.958-.006Zm-20.405-66.625.276.163 67.717 39.088a.479.479 0 0 1 .147-.178l.227-.13.487-.282.601-.352a.613.613 0 0 1 .769.07.22.22 0 0 1 .076.066c.08.085.149.179.206.281.073.121.132.25.173.385.056.143.103.289.141.438.037.168.064.336.097.542.018.102.031.205.038.308v.845-1.901c0-1.05-.888-2.414-1.976-3.042l-64.031-37.015c-1.083-.634-2.674-.737-3.524-.25l-.807.472h-.033a4.468 4.468 0 0 1-.341.195.704.704 0 0 0-.243.297Zm20.405 78.519 2.68-1.554 40.193-23.204c.032-.524.22-1.025.541-1.44a5.837 5.837 0 0 1 1.76-1.543 3.972 3.972 0 0 1 1.895-.596c.451-.006.891.138 1.25.412.517-1.03.77-2.172.737-3.324h1.521c0 2.1-.693 4.206-1.543 4.694l-.769.449c-.433.254-.774.265-.774.032v-.411c0-.455-.693-.433-1.554.06-.861.492-1.548 1.266-1.548 1.721v.412c0 .232-.59.758-1.316 1.18l-38.866 22.468-4.207 2.425a4.096 4.096 0 0 1-1.971.466v-1.76a4.021 4.021 0 0 0 1.971-.487Z" fill="#7A6BDE"/><path opacity=".3" d="m195.301 140.012 2.68-1.554 40.193-23.204c.032-.524.22-1.025.541-1.44a5.837 5.837 0 0 1 1.76-1.543 3.972 3.972 0 0 1 1.895-.596c.451-.006.891.138 1.25.412.517-1.03.77-2.172.737-3.324h1.521c0 2.1-.693 4.206-1.543 4.694l-.769.449c-.433.254-.774.265-.774.032v-.411c0-.455-.693-.433-1.554.06-.861.492-1.548 1.266-1.548 1.721v.412c0 .232-.59.758-1.316 1.18l-38.866 22.468-4.207 2.425a4.096 4.096 0 0 1-1.971.466v-1.76a4.021 4.021 0 0 0 1.971-.487Z" fill="#000"/><path d="m195.285 128.123 2.68-1.554 30.859-17.817 9.859-5.695c.698-.412 1.272-.542 1.31-.342v.45c0 .498.693.498 1.548 0 .856-.498 1.202-1.083 1.219-1.554v-.487a.688.688 0 0 1 .227-.574c.074-.047.149-.091.227-.13l.488-.282.601-.352a.608.608 0 0 1 .768.07.22.22 0 0 1 .076.066.77.77 0 0 1 .136.184.443.443 0 0 1 .07.097c.074.121.132.25.173.385.057.143.104.289.141.438.038.168.065.336.097.542.019.102.031.205.038.308v6.892h-1.521v-6.524l-.038-.379a.077.077 0 0 0 0-.037c-.135 1.207-1.294 2.29-2.301 2.864a3.832 3.832 0 0 1-1.857.573 2.037 2.037 0 0 1-1.359-.498l-.141.076-.265.157-38.812 22.457-4.207 2.431h-.027a4.113 4.113 0 0 1-1.944.449v-1.759a4.06 4.06 0 0 0 1.955-.455Z" fill="#7A6BDE"/><path opacity=".3" d="m195.285 128.123 2.68-1.554 30.859-17.817 9.859-5.695c.698-.412 1.272-.542 1.31-.342v.45c0 .498.693.498 1.548 0 .856-.498 1.202-1.083 1.219-1.554v-.487a.688.688 0 0 1 .227-.574c.074-.047.149-.091.227-.13l.488-.282.601-.352a.608.608 0 0 1 .768.07.22.22 0 0 1 .076.066.77.77 0 0 1 .136.184.443.443 0 0 1 .07.097c.074.121.132.25.173.385.057.143.104.289.141.438.038.168.065.336.097.542.019.102.031.205.038.308v6.892h-1.521v-6.524l-.038-.379a.077.077 0 0 0 0-.037c-.135 1.207-1.294 2.29-2.301 2.864a3.832 3.832 0 0 1-1.857.573 2.037 2.037 0 0 1-1.359-.498l-.141.076-.265.157-38.812 22.457-4.207 2.431h-.027a4.113 4.113 0 0 1-1.944.449v-1.759a4.06 4.06 0 0 0 1.955-.455Z" fill="#000"/><path d="M126.473 89.96v1.792a1.363 1.363 0 0 0 .78 1.126h.032l59.857 34.579 4.201 2.431a4.158 4.158 0 0 0 1.971.465v-1.759a4 4 0 0 1-1.976-.471l-2.675-1.543-61.378-35.45a1.357 1.357 0 0 1-.812-1.17Z" fill="#7A6BDE"/><path opacity=".2" d="M126.473 89.96v1.792a1.363 1.363 0 0 0 .78 1.126h.032l59.857 34.579 4.201 2.431a4.158 4.158 0 0 0 1.971.465v-1.759a4 4 0 0 1-1.976-.471l-2.675-1.543-61.378-35.45a1.357 1.357 0 0 1-.812-1.17Z" fill="#000"/><path d="M126.473 101.86v1.776a1.354 1.354 0 0 0 .78 1.137h.032l59.857 34.595 4.201 2.426a4.106 4.106 0 0 0 1.971.465V140.5a4 4 0 0 1-1.976-.471l-2.675-1.543-61.378-35.462a1.365 1.365 0 0 1-.812-1.164Z" fill="#7A6BDE"/><path opacity=".2" d="M126.473 101.86v1.776a1.354 1.354 0 0 0 .78 1.137h.032l59.857 34.595 4.201 2.426a4.106 4.106 0 0 0 1.971.465V140.5a4 4 0 0 1-1.976-.471l-2.675-1.543-61.378-35.462a1.365 1.365 0 0 1-.812-1.164Z" fill="#000"/><path d="m242.879 94.584-51.909 29.565-69.039-39.614L173.84 54.96l69.039 39.625Z" fill="#7A6BDE"/><path opacity=".2" d="m242.879 94.584-51.909 29.565-69.039-39.614L173.84 54.96l69.039 39.625Z" fill="#fff"/><path d="m190.494 122.341 50.452-28.878c-1.056-2.988-.974-6.497.217-10.454l-50.171 28.634s-.791 2.523-.498 10.698Z" fill="#F5F5F5"/><path d="M193.022 108.373a8.51 8.51 0 0 0-3.871 6.67v7.791c0 2.458 1.732 3.448 3.876 2.225l49.846-28.548v-1.927l-49.321 28.098c-1.283.737-2.322.136-2.317-1.337l.032-7.217a5.133 5.133 0 0 1 2.328-4.001l49.267-28.109v-2.165l-49.84 28.52Z" fill="#7A6BDE"/><path opacity=".4" d="M193.022 108.373a8.51 8.51 0 0 0-3.871 6.67v7.791c0 2.458 1.732 3.448 3.876 2.225l49.846-28.548v-1.927l-49.321 28.098c-1.283.737-2.322.136-2.317-1.337l.032-7.217a5.133 5.133 0 0 1 2.328-4.001l49.267-28.109v-2.165l-49.84 28.52Z" fill="#fff"/><path d="m242.873 79.814-69.06-39.597-49.808 28.542a8.497 8.497 0 0 0-3.877 6.67v7.79c0 1.224.434 2.085 1.137 2.491l69.034 39.619c-.704-.406-1.132-1.267-1.137-2.49v-7.796a8.505 8.505 0 0 1 3.876-6.67l49.835-28.559Z" fill="#7A6BDE"/><path opacity=".85" d="m242.873 79.814-69.06-39.597-49.808 28.542a8.497 8.497 0 0 0-3.877 6.67v7.79c0 1.224.434 2.085 1.137 2.491l69.034 39.619c-.704-.406-1.132-1.267-1.137-2.49v-7.796a8.505 8.505 0 0 1 3.876-6.67l49.835-28.559Z" fill="#fff"/><path d="M190.282 111.247a7.875 7.875 0 0 0-1.137 3.79v7.796c0 1.223.434 2.084 1.137 2.49L121.255 85.71c-.704-.406-1.137-1.267-1.137-2.49v-7.792a7.794 7.794 0 0 1 1.137-3.79l69.027 39.609Z" fill="#7A6BDE"/><path opacity=".6" d="M190.282 111.247a7.875 7.875 0 0 0-1.137 3.79v7.796c0 1.223.434 2.084 1.137 2.49L121.255 85.71c-.704-.406-1.137-1.267-1.137-2.49v-7.792a7.794 7.794 0 0 1 1.137-3.79l69.027 39.609Z" fill="#fff"/><path d="M130.355 76.799c-1.256 5.452-1.239 10.162 0 14.163l3.211 1.851c-1.24-4-1.256-8.71 0-14.163l-3.211-1.851Zm45.851 26.474c-1.256 5.452-1.234 10.162 0 14.163l3.205 1.852c-1.234-4.001-1.251-8.711 0-14.163l-3.205-1.852Z" fill="#fff"/><path d="M5.153 150.553c-1.435-.828-1.44-2.165 0-3.01l73.532-42.727 95.696 55.25-73.77 42.597a5.773 5.773 0 0 1-5.208 0l-54.68-31.558-9.15 1.721a2.464 2.464 0 0 1-1.706-.287L7.183 159.47a2.5 2.5 0 0 1-1.18-1.585 2.488 2.488 0 0 1 .346-1.945l2.398-3.297-3.594-2.09Z" fill="#7A6BDE"/><path opacity=".15" d="M5.153 150.553c-1.435-.828-1.44-2.165 0-3.01l73.532-42.727 95.696 55.25-73.77 42.597a5.773 5.773 0 0 1-5.208 0l-54.68-31.558-9.15 1.721a2.464 2.464 0 0 1-1.706-.287L7.183 159.47a2.5 2.5 0 0 1-1.18-1.585 2.488 2.488 0 0 1 .346-1.945l2.398-3.297-3.594-2.09Z" fill="#000"/><path d="m81.7 106.549 89.444 51.654-73.137 41.899-88.93-51.362L81.7 106.549Z" fill="#F0F0F0"/><path d="m174.49 160.129-66.591 38.288a5.602 5.602 0 0 1-5.068-.087l-90.245-52.104c-1.44-.828-1.5-2.138-.14-2.929l66.336-38.439 95.708 55.271Z" fill="#7A6BDE"/><path d="m198.512 169.762-22.165 12.734h-.032a2.157 2.157 0 0 0-.953 1.884 6.68 6.68 0 0 0 2.75 5.371 2.12 2.12 0 0 0 2.122.319l23.28-10.335a5.591 5.591 0 0 0 1.302-9.341 5.584 5.584 0 0 0-4.167-1.311 5.598 5.598 0 0 0-2.132.652l-.005.027Z" fill="#455A64"/><path d="m180.218 190.097 23.28-10.336a5.585 5.585 0 0 0 2.773-7.295 5.587 5.587 0 0 0-1.761-2.238c1.31 1.353.958 4.753-2.864 6.756s-18.158 8.489-24.677 11.803c.324.389.704.728 1.127 1.007a2.122 2.122 0 0 0 2.122.303Z" fill="#37474F"/><path d="M175.346 184.418a6.649 6.649 0 0 0 2.761 5.365 2.125 2.125 0 0 0 2.062.342c.406-.19 1.977-.883 2.399-1.083.612-.276 1.023-.969 1.083-1.998a6.876 6.876 0 0 0-2.843-5.533c-.861-.541-1.662-.628-2.241-.292-.406.227-2.263 1.299-2.263 1.299a2.16 2.16 0 0 0-.958 1.9Z" fill="#7A6BDE"/><path d="M175.345 184.418c.092-1.922 1.484-2.631 3.097-1.592a6.674 6.674 0 0 1 2.761 5.365c-.097 1.922-1.483 2.637-3.096 1.592a6.667 6.667 0 0 1-2.762-5.365Z" fill="#7A6BDE"/><path opacity=".3" d="M175.345 184.418c.092-1.922 1.484-2.631 3.097-1.592a6.674 6.674 0 0 1 2.761 5.365c-.097 1.922-1.483 2.637-3.096 1.592a6.667 6.667 0 0 1-2.762-5.365Z" fill="#fff"/><path d="M169.553 193.042a4.417 4.417 0 0 1-1.857-3.541 1.416 1.416 0 0 1 .633-1.267l8.191-4.261a1.39 1.39 0 0 1 1.397.201 4.427 4.427 0 0 1 1.857 3.54 1.414 1.414 0 0 1-.639 1.267l-8.18 4.261a1.405 1.405 0 0 1-1.402-.2Z" fill="#37474F"/><path d="M170.96 193.237a1.393 1.393 0 0 1-1.407-.195 3.775 3.775 0 0 1-1.083-1.083l11.023-5.738c.192.476.288.986.281 1.499a1.414 1.414 0 0 1-.639 1.267l-8.18 4.261.005-.011Z" fill="#263238"/><path d="M118.71 194.861v7.942c0 4.331 2.848 8.619 8.543 11.911 11.397 6.578 29.869 6.578 41.265 0 5.696-3.292 8.543-7.58 8.549-11.911v-7.942c0-4.331-2.853-8.625-8.549-11.911-11.396-6.578-29.868-6.578-41.265 0-5.695 3.286-8.543 7.58-8.543 11.911Zm55.531 0c0 3.448-2.534 6.81-7.136 9.469-5.089 2.934-11.911 4.553-19.219 4.553-7.309 0-14.131-1.624-19.22-4.553-4.602-2.659-7.135-6.021-7.135-9.469 0-3.449 2.533-6.811 7.135-9.469 5.089-2.94 11.911-4.559 19.22-4.559 7.308 0 14.135 1.624 19.219 4.559 4.602 2.658 7.136 6.02 7.136 9.469Z" fill="#7A6BDE"/><path opacity=".3" d="M118.71 194.861v7.942c0 4.331 2.848 8.619 8.543 11.911 11.397 6.578 29.869 6.578 41.265 0 5.696-3.292 8.543-7.58 8.549-11.911v-7.942c0-4.331-2.853-8.625-8.549-11.911-11.396-6.578-29.868-6.578-41.265 0-5.695 3.286-8.543 7.58-8.543 11.911Zm55.531 0c0 3.448-2.534 6.81-7.136 9.469-5.089 2.934-11.911 4.553-19.219 4.553-7.309 0-14.131-1.624-19.22-4.553-4.602-2.659-7.135-6.021-7.135-9.469 0-3.449 2.533-6.811 7.135-9.469 5.089-2.94 11.911-4.559 19.22-4.559 7.308 0 14.135 1.624 19.219 4.559 4.602 2.658 7.136 6.02 7.136 9.469Z" fill="#fff"/><path opacity=".4" d="M172.871 190.509a8.024 8.024 0 0 1 1.37 4.331c0 3.448-2.534 6.81-7.136 9.469a31.644 31.644 0 0 1-7.243 2.977v10.855a35.138 35.138 0 0 0 8.662-3.448c5.695-3.292 8.543-7.58 8.548-11.911v-7.921a10.826 10.826 0 0 0-1.829-5.863l-2.372 1.511Z" fill="#7A6BDE"/><path opacity=".3" d="M118.71 194.861v7.943c0 4.331 2.848 8.619 8.543 11.91a32.725 32.725 0 0 0 5.024 2.317l.044-10.941a28.824 28.824 0 0 1-3.655-1.76c-4.602-2.658-7.135-6.02-7.135-9.469a7.666 7.666 0 0 1 .828-3.389l-2.204-1.846a10.602 10.602 0 0 0-1.445 5.235Z" fill="#fff"/><path d="M168.518 182.95c-11.369-6.578-29.868-6.578-41.259 0-11.391 6.578-11.37 17.243 0 23.821 11.369 6.578 29.868 6.578 41.259 0 11.391-6.578 11.397-17.243 0-23.821Zm-1.407 21.385c-5.089 2.934-11.911 4.553-19.22 4.553-7.309 0-14.136-1.624-19.225-4.553-4.596-2.658-7.13-6.02-7.13-9.469s2.528-6.811 7.13-9.469c5.089-2.94 11.911-4.558 19.225-4.558 7.314 0 14.131 1.624 19.22 4.558 4.602 2.658 7.135 6.02 7.135 9.469s-2.533 6.805-7.135 9.469Z" fill="#7A6BDE"/><path d="M168.518 182.95c-11.369-6.578-29.868-6.578-41.259 0-11.391 6.578-11.37 17.243 0 23.821 11.369 6.578 29.868 6.578 41.259 0 11.391-6.578 11.397-17.243 0-23.821Zm-1.407 21.385c-5.089 2.934-11.911 4.553-19.22 4.553-7.309 0-14.136-1.624-19.225-4.553-4.596-2.658-7.13-6.02-7.13-9.469s2.528-6.811 7.13-9.469c5.089-2.94 11.911-4.558 19.225-4.558 7.314 0 14.131 1.624 19.22 4.558 4.602 2.658 7.135 6.02 7.135 9.469s-2.533 6.805-7.135 9.469Z" fill="#fff" opacity=".5"/><path opacity=".4" d="M122.094 186.903a12.864 12.864 0 0 0-3.216 5.636 10.228 10.228 0 0 0 .568 6.459 15.106 15.106 0 0 0 3.926 5.23 23.114 23.114 0 0 0 2.615 1.981c.46.298.92.59 1.402.85l1.456.758c.48.259.976.488 1.483.688.504.216 1.007.438 1.511.638l1.548.542.78.265c.26.087.541.146.785.222a48.14 48.14 0 0 0 25.873 0c.26-.076.542-.135.785-.222l.78-.265 1.548-.542c.509-.2 1.007-.422 1.511-.633.503-.211 1.007-.422 1.489-.688l1.461-.779c.482-.26.942-.542 1.403-.845a23.93 23.93 0 0 0 2.62-1.987 15.09 15.09 0 0 0 3.92-5.23 10.183 10.183 0 0 0 .568-6.458 12.864 12.864 0 0 0-3.216-5.636 21.931 21.931 0 0 0-5.165-3.952 22.059 22.059 0 0 1 5.084 4.028 12.71 12.71 0 0 1 3.08 5.614 9.934 9.934 0 0 1-.617 6.291 14.747 14.747 0 0 1-3.887 5.083 24.99 24.99 0 0 1-5.414 3.503c-.475.254-.965.478-1.467.672-.498.211-.996.427-1.494.628l-1.538.541-.769.26c-.254.081-.541.141-.779.216a48.892 48.892 0 0 1-25.646 0c-.26-.07-.541-.135-.78-.216l-.768-.26-1.538-.541c-.498-.201-.991-.417-1.494-.628a13.578 13.578 0 0 1-1.467-.672 24.966 24.966 0 0 1-5.414-3.503 14.762 14.762 0 0 1-3.888-5.083 9.94 9.94 0 0 1-.617-6.291 12.723 12.723 0 0 1 3.081-5.614 21.891 21.891 0 0 1 5.056-4.012 22.048 22.048 0 0 0-5.159 3.952Z" fill="#fff"/><path d="M174.247 194.862a7.828 7.828 0 0 1-1.143 3.973c-1.153-2.008-3.194-3.887-5.998-5.5-5.084-2.94-11.911-4.559-19.22-4.559-7.309 0-14.13 1.624-19.214 4.559-2.804 1.624-4.873 3.492-6.004 5.5a7.867 7.867 0 0 1-1.137-3.973c0-3.449 2.534-6.811 7.141-9.469 5.084-2.935 11.911-4.559 19.214-4.559 7.303 0 14.136 1.624 19.22 4.559 4.607 2.658 7.141 6.02 7.141 9.469Z" fill="#7A6BDE"/><path opacity=".3" d="M174.247 194.862a7.828 7.828 0 0 1-1.143 3.973c-1.153-2.008-3.194-3.887-5.998-5.5-5.084-2.94-11.911-4.559-19.22-4.559-7.309 0-14.13 1.624-19.214 4.559-2.804 1.624-4.873 3.492-6.004 5.5a7.867 7.867 0 0 1-1.137-3.973c0-3.449 2.534-6.811 7.141-9.469 5.084-2.935 11.911-4.559 19.214-4.559 7.303 0 14.136 1.624 19.22 4.559 4.607 2.658 7.141 6.02 7.141 9.469Z" fill="#fff"/><path opacity=".4" d="M128.672 185.387c-4.607 2.658-7.141 6.02-7.141 9.469a7.873 7.873 0 0 0 1.137 3.974c1.159-2.009 3.2-3.887 6.004-5.501a28.912 28.912 0 0 1 3.681-1.775c-1.082.433-4.52 1.526-3.28-1.727 1.483-3.866 8.7-8.051 14.006-8.744-5.452.547-10.46 2.03-14.407 4.304Z" fill="#7A6BDE"/><path opacity=".7" d="M167.111 188.987c-5.089-2.94-11.911-4.553-19.22-4.553-7.309 0-14.135 1.624-19.225 4.553-3.789 2.192-6.177 4.872-6.897 7.671.72 2.805 3.102 5.479 6.897 7.672 5.09 2.934 11.911 4.553 19.225 4.553 7.315 0 14.131-1.624 19.22-4.553 3.79-2.193 6.177-4.873 6.897-7.672-.736-2.804-3.102-5.479-6.897-7.671Z" fill="#fff"/><path d="m41.81 187.832.699.396.839.487L87.06 214.02c-.26-.585-.06-1.755.541-2.875.693-1.305 1.76-2.339 2.529-2.377l-43.49-25.175-1.625-.92c1.029.65-2.181 5.798-3.205 5.159Z" fill="#455A64"/><path d="m46.585 183.545-1.575-.866c-.439-.271-1.278.541-2.014 1.575-.98 1.391-1.776 3.248-1.191 3.6l1.148.661.411.227c-.585-.363.211-2.209 1.191-3.606.704-1.007 1.51-1.781 1.96-1.591h.07Z" fill="#EBEBEB"/><path d="M46.179 183.329c-1.029-.639-4.234 4.537-3.205 5.176l1.554.893c-1.024-.633 2.165-5.809 3.205-5.176l-1.554-.893Z" fill="#7A6BDE"/><path d="m49.216 185.076-1.548-.887c-1.002-.628-4.147 4.331-3.292 5.127.015.015.031.03.049.043l1.564.899c-1.028-.677 2.22-5.826 3.227-5.182Z" fill="#EBEBEB"/><path d="M45.031 182.679c-.438-.282-1.277.541-2.014 1.57-.969 1.37-1.76 3.178-1.212 3.579l-6.497-3.725a1.562 1.562 0 0 1-.51-1.695c.364-1.889 2.578-4.293 3.98-3.335l6.253 3.606Zm49.239 31.584c-.54.726-.48 1.083-.48 1.083l-6.73-1.326c-.672-1.018-.228-2.675.692-3.855l.298.168 6.22 3.93Z" fill="#F28F8F"/><path d="m95.62 215.704-1.83-.358s-.087-.357.481-1.082l1.581 1.007a.253.253 0 0 1 .076.184.255.255 0 0 1-.309.249Z" fill="#37474F"/><path d="m90.124 208.769 4.618 5.235a.804.804 0 0 0-.476.265l-6.22-3.93-.299-.168a3.242 3.242 0 0 1 2.377-1.402Z" fill="#FFA8A7"/><path d="M94.271 214.264a.632.632 0 0 1 .476-.265l1.105 1.272-1.581-1.007Z" fill="#455A64"/><path opacity=".2" d="m87.731 210.165-52.288-29.349a4.823 4.823 0 0 0-.65 1.576 1.557 1.557 0 0 0 .504 1.694l6.497 3.747.698.395.84.487 43.711 25.305c-.806-1.267.098-3.135.688-3.855Z" fill="#000"/><path d="m196.941 154.147 26.475-15.284 25.456 14.699-26.474 15.284-25.457-14.699Z" fill="#7A6BDE"/><path opacity=".3" d="m196.941 154.147 26.475-15.284 25.456 14.699-26.474 15.284-25.457-14.699Z" fill="#fff"/><path d="m196.941 154.146-3.053-1.759 26.474-15.289 3.054 1.765-26.475 15.283Z" fill="#7A6BDE"/><path opacity=".15" d="m196.941 154.146-3.053-1.759 26.474-15.289 3.054 1.765-26.475 15.283Z" fill="#7A6BDE"/><path opacity=".3" d="m196.941 154.146-3.053-1.759 26.474-15.289 3.054 1.765-26.475 15.283Z" fill="#fff"/><path d="M193.888 152.387v5.246l28.51 16.464v-5.252l-28.51-16.458Z" fill="#7A6BDE"/><path opacity=".15" d="M193.888 152.387v5.246l28.51 16.464v-5.252l-28.51-16.458Z" fill="#000"/><path d="m222.398 168.844 26.474-15.283v5.246l-26.474 15.289v-5.252Zm21.536-20.506-20.518-9.475-26.475 15.284 25.446 11.759 22.912-13.226c1.397-.812 2.755-2.166 2.669-3.974-.785.406-2.068.541-4.034-.368Z" fill="#7A6BDE"/><path opacity=".5" d="m243.934 148.338-20.518-9.475-26.475 15.284 25.446 11.759 22.912-13.226c1.397-.812 2.755-2.166 2.669-3.974-.785.406-2.068.541-4.034-.368Z" fill="#fff"/><path d="m235.094 148.624-.103-.054c-.168-.135-.406.103-.293.211a4.019 4.019 0 0 0-.541.271c-.365.2-.775.302-1.191.298a.244.244 0 0 0 0-.054c.135-.493-.244-1.11-.764-1.505a1.22 1.22 0 0 0-1.385-.174c-.542.32-.19.932.135 1.262a2.59 2.59 0 0 0 1.223.671 2.647 2.647 0 0 1-.795.444c-.471.19-.693.19-.71.585.016.211.056.42.119.622.082.401 0 .883-.86.823a3.195 3.195 0 0 1-1.083-.303c-.168-.07-.341 0-.357.108-.049.331.097.672.081 1.002-.044.937-1.375 0-1.787-.276-.216-.146-.46 0-.379.162a2.32 2.32 0 0 1 0 1.684c-.07.271-.184.796-.595.974a.967.967 0 0 1-1.083-.189 3.317 3.317 0 0 0 .4-2.485.853.853 0 0 0-.447-.627.866.866 0 0 0-.771-.017c-.974.281-.866 1.083-.676 1.57a5.237 5.237 0 0 0 1.012 1.581c-.541.925-1.575 1.7-2.869 2.468-.168.098 0 .314.2.19 1.337-.736 2.295-1.391 2.972-2.382a1.312 1.312 0 0 0 1.684.059 2.412 2.412 0 0 0 .78-2.36 1.855 1.855 0 0 0 1.564.444c.742-.238.455-1.002.385-1.5a2.734 2.734 0 0 0 1.873.173c.866-.335.303-.996.352-1.467.048-.471.785-.492 1.283-.844.133-.094.25-.209.346-.341a2.793 2.793 0 0 0 2.301-.85.11.11 0 0 0 .028-.043.116.116 0 0 0-.012-.097.133.133 0 0 0-.037-.034Zm-10.677 6.216a5.216 5.216 0 0 1-.368-.542c-.227-.357-.844-1.299-.503-1.738a.526.526 0 0 1 .146-.119.7.7 0 0 1 .579-.043.751.751 0 0 1 .476.709 6.537 6.537 0 0 1-.059.726 3.13 3.13 0 0 1-.271 1.007Zm8.051-5.636a2.066 2.066 0 0 1-1.24-.585.544.544 0 0 1-.19-.347.427.427 0 0 1 .396-.4c.384-.038.601.238.801.503.049.038.395.845.233.829Zm-9.978 2.679c.25-.38.361-.835.314-1.288a8.425 8.425 0 0 0 0-.899 3.825 3.825 0 0 0-.173-.541c.498.298.936.687 1.705.455 1.083-.331.839-1.208.612-1.852.644.347 1.229.698 1.689-.065a2.19 2.19 0 0 1 .861-1.001c.296-.153.577-.335.839-.542.585-.541.238-1.164.671-1.716.125-.157-.211-.325-.384-.152a.911.911 0 0 0-.244.542c-.146.768-.482 1.169-1.413 1.738-.444.27-.487.481-.763.779-.655.688-.926.163-1.543-.086-.179-.071-.385.037-.352.146.146.465.92 1.765-.411 1.84-.688.044-.905-.351-1.484-.541-.579-.189-.276 1.153-.222 1.413.054.269.082.543.081.818a.85.85 0 0 1-.474.971.848.848 0 0 1-.381.074c-.47.059-.947.022-1.402-.109.075-.178.254-.298.33-.492a1.47 1.47 0 0 0 .076-.683 2.203 2.203 0 0 0-.677-1.321 1.983 1.983 0 0 0-1.835-.454c-.623.276-.298 1.174-.136 1.516a3.788 3.788 0 0 0 1.489 1.407 3.459 3.459 0 0 1-1.164.347c-.66.103-1.185.059-1.391.498-.103.233.097.622-.136.812-.427.352-.877 0-1.245 0-.498.054-.649.141-.655.471 0 .097.157.254.125.341l.081.124a1.076 1.076 0 0 1-.666-.086c-.092 0-.585-.211-.579-.211a.32.32 0 0 0-.181-.008.323.323 0 0 0-.155.094c-.145.453-.132.942.038 1.386-.72-.99-1.213-1.992-2.577-2.815-.736-.449-2.041-1.012-2.956-.401-1.392.926-.921 3.433.98 4.039a.262.262 0 0 0 .222-.059l.157-.152c.13-.124-.076-.287-.255-.141-.357.298-1.229-1.267-1.261-1.375a2.016 2.016 0 0 1 .2-1.781c.85-1.132 2.68.103 3.378.682 1.04.866 1.349 1.873 2.166 2.794.13.146.466.135.504-.038.129-.617-.309-1.224-.157-1.825.514.239 1.391.672 1.721.222.157-.216-.178-.471-.076-.698.157-.347.109-.135.601-.06a1.7 1.7 0 0 0 .542 0 .724.724 0 0 0 .454-.276c.412-.471-.059-.969 1.002-1.245a6.661 6.661 0 0 0 1.624-.379l.136-.081.314.141c.887.411 1.976.335 2.436-.277Zm-2.924-.297a7.916 7.916 0 0 1-.736-.542 1.628 1.628 0 0 1-.725-1.353.599.599 0 0 1 .682-.464c.1.016.195.056.276.117a1.955 1.955 0 0 1 .817 1.376 1.023 1.023 0 0 1-.314.866Z" fill="#455A64"/><path d="m130.685 44.926-.898-3.205c.39-1.84-7.12 2.496-7.509 4.331l2.42 6.497a.993.993 0 0 0 .406.471c.541.33 4.114 2.36 4.288 2.469a1.042 1.042 0 0 0 1.542-.58l3.135-10.746c.222-.888-1.532-.292-3.384.763Z" fill="#7A6BDE"/><path opacity=".2" d="m130.685 44.926-.898-3.205c.39-1.84-7.12 2.496-7.509 4.331l2.42 6.497a.993.993 0 0 0 .406.471c.541.33 4.114 2.36 4.288 2.469a1.042 1.042 0 0 0 1.542-.58l3.135-10.746c.222-.888-1.532-.292-3.384.763Z" fill="#fff"/><path d="m139.261.229-28.548 16.458a2.135 2.135 0 0 0-.969 1.673v33.843a2.111 2.111 0 0 0 .975 1.662l3.394 1.927a2.169 2.169 0 0 0 1.933 0l28.532-16.49a2.162 2.162 0 0 0 .963-1.674V3.797a2.108 2.108 0 0 0-.963-1.662L141.199.229a2.16 2.16 0 0 0-1.938 0Z" fill="#7A6BDE"/><path opacity=".2" d="m139.261.229-28.548 16.458a2.135 2.135 0 0 0-.969 1.673v33.843a2.111 2.111 0 0 0 .975 1.662l3.394 1.927a2.169 2.169 0 0 0 1.933 0l28.532-16.49a2.162 2.162 0 0 0 .963-1.674V3.797a2.108 2.108 0 0 0-.963-1.662L141.199.229a2.16 2.16 0 0 0-1.938 0Z" fill="#fff"/><path d="m144.578 3.238-28.532 16.48a2.162 2.162 0 0 0-.963 1.673v33.832c0 .612.433.866.963.541l10.926-6.269 2.008 5.566a1.046 1.046 0 0 0 1.955-.103l2.669-9.29 10.974-6.367a2.162 2.162 0 0 0 .963-1.673V3.796c.022-.612-.422-.86-.963-.558Z" fill="#7A6BDE"/><path opacity=".4" d="m144.578 3.238-28.532 16.48a2.162 2.162 0 0 0-.963 1.673v33.832c0 .612.433.866.963.541l10.926-6.269 2.008 5.566a1.046 1.046 0 0 0 1.955-.103l2.669-9.29 10.974-6.367a2.162 2.162 0 0 0 .963-1.673V3.796c.022-.612-.422-.86-.963-.558Z" fill="#fff"/><path opacity=".7" d="M145.552 3.623c-.076-.487-.476-.66-.953-.384l-28.547 16.48a1.96 1.96 0 0 0-.682.725l-5.322-3.059c.159-.282.388-.519.666-.687L139.267.228a2.165 2.165 0 0 1 1.932 0l3.379 1.906a2.172 2.172 0 0 1 .974 1.49Z" fill="#fff"/><path d="M137.334 15.572a2.128 2.128 0 0 0-2.772 1.132l-7.996 19.035-1.906-1.857a2.119 2.119 0 0 0-3.592 1.55 2.12 2.12 0 0 0 .641 1.487l4.131 4.018a2.106 2.106 0 0 0 1.895.552 2.116 2.116 0 0 0 1.532-1.25l9.204-21.895a2.122 2.122 0 0 0-1.137-2.772Z" fill="#fff"/><path opacity=".15" d="m9.663 132.753 74.279-42.878 99.118 57.339-74.274 42.878-99.123-57.339Z" fill="#000"/><path d="m16.024 132.466 92.762 53.663v-33.566L16.019 98.895l.005 33.571Z" fill="#E0E0E0"/><path d="m176.704 146.923-67.918 39.208v-33.566l67.918-39.213v33.571Z" fill="#EBEBEB"/><path d="m16.019 98.895 67.917-39.207 92.768 53.662-67.918 39.214-92.767-53.669Z" fill="#F5F5F5"/><path opacity=".1" d="m61.035 135.775 47.751 26.253 28.153-16.253-28.153 17.931-47.75-27.931Z" fill="#000"/><path opacity=".1" d="m33.722 134.552 75.064 42.228 47.286-28.461-47.286 30.102-75.064-43.869Zm-10.313-26.474s-1.554 8.765-.774 13.205c0 0 12.284-.303 33.025 5.414l-32.251-18.619Z" fill="#000"/><path d="m23.409 108.078 32.245 18.619-35.678-10.298 3.433-8.321Z" fill="#fff"/><path opacity=".1" d="m47.257 133.489 35.353 32.484s.985-4.467 7.769-7.607l-43.122-24.877Z" fill="#000"/><path d="m47.257 133.489 33.203 27.952 9.919-3.058-43.122-24.894Z" fill="#FAFAFA"/><path opacity=".1" d="M164.523 126.019a11.816 11.816 0 0 0-.298-.439l-22.354 12.901 25.148-2.068c.877-4.666-1.608-9.025-2.496-10.394Z" fill="#000"/><path d="m141.882 138.481 22.343-12.901 7.439 3.925-29.782 8.976Z" fill="#FAFAFA"/><path d="m16.019 98.894 92.767 51.54 67.918-37.085-67.918 35.699-92.767-50.154Z" fill="#E0E0E0"/><path d="m16.019 98.894 92.767 50.155 67.918-35.7-92.768-53.663L16.02 98.894Z" fill="#fff"/><path d="m83.942 60.25 91.761 53.056-66.906 35.191-91.782-49.614L83.942 60.25Zm0-.542L16.019 98.894l92.767 50.155 67.918-35.7-92.762-53.663v.022Z" fill="#E6E6E6"/><path d="M42.53 91.953a3.48 3.48 0 0 1 1.625-.503 2.756 2.756 0 0 1 1.5.368c.266.124.479.34.6.606a.661.661 0 0 1-.146.666l2.556.417.092.033a.098.098 0 0 1 .06.086.086.086 0 0 1-.06.081l-.542.325a.477.477 0 0 1-.26.076 1.16 1.16 0 0 1-.205 0l-2.415-.395-.882.514 1.548.888a.118.118 0 0 1 .07.103.113.113 0 0 1-.07.103l-.541.314a.361.361 0 0 1-.179.043.368.368 0 0 1-.184-.043l-4.282-2.474c-.05 0-.076-.065-.07-.103a.113.113 0 0 1 .07-.103l1.716-1.002Zm1.084 1.781.963-.54c.197-.093.36-.242.471-.429.06-.135-.032-.276-.281-.422a1.083 1.083 0 0 0-.72-.157c-.259.047-.506.14-.731.276l-.959.542 1.257.73ZM52 90.898a.39.39 0 0 1 .357 0l.47.27a.124.124 0 0 1 .077.104.118.118 0 0 1-.076.103l-2.913 1.683a.347.347 0 0 1-.178.044.364.364 0 0 1-.18-.044l-4.282-2.474a.124.124 0 0 1-.075-.103.12.12 0 0 1 .075-.102l2.86-1.625a.39.39 0 0 1 .356 0l.471.271a.125.125 0 0 1 .076.103.12.12 0 0 1-.076.103l-2.165 1.24 1.083.606 1.997-1.153a.438.438 0 0 1 .358 0l.47.276a.114.114 0 0 1 .071.103.12.12 0 0 1-.07.103l-1.998 1.153 1.083.633L52 90.898Zm-1.294-3.735a3.6 3.6 0 0 1 .898-.385c.281-.082.57-.132.861-.151.245-.031.492-.031.737 0 .187.027.37.082.541.162.054 0 .081.065.076.103a.13.13 0 0 1-.076.103l-.466.27a.51.51 0 0 1-.21.07 1.03 1.03 0 0 1-.223 0 2.168 2.168 0 0 0-.59 0 2.141 2.141 0 0 0-.72.277 1.273 1.273 0 0 0-.292.211.71.71 0 0 0-.168.217.276.276 0 0 0 0 .205.308.308 0 0 0 .157.168.867.867 0 0 0 .314.109c.124.017.25.017.373 0a3.83 3.83 0 0 0 .542-.157l.752-.271c.29-.11.587-.202.888-.276.245-.064.495-.102.747-.114a2.253 2.253 0 0 1 1.224.287c.172.092.316.228.417.395a.628.628 0 0 1 .065.471 1.23 1.23 0 0 1-.32.542 3.006 3.006 0 0 1-.693.54 3.97 3.97 0 0 1-.8.358c-.28.095-.569.162-.862.2a3.253 3.253 0 0 1-.828 0 2.08 2.08 0 0 1-.71-.2c-.053 0-.08-.065-.075-.103a.12.12 0 0 1 .076-.103l.465-.27a.542.542 0 0 1 .212-.076.794.794 0 0 1 .221 0c.094.017.188.028.282.032.111.014.224.014.336 0 .3-.053.588-.162.85-.319.125-.07.244-.15.357-.238.087-.07.164-.152.227-.244a.342.342 0 0 0 .05-.233.296.296 0 0 0-.169-.194.612.612 0 0 0-.33-.087c-.15.003-.3.027-.444.07a7.73 7.73 0 0 0-.59.2l-.796.282c-.252.09-.508.167-.769.228-.223.052-.452.08-.682.08a2.61 2.61 0 0 1-.617-.075 2.317 2.317 0 0 1-.59-.254 1.083 1.083 0 0 1-.422-.39.688.688 0 0 1-.065-.46 1.08 1.08 0 0 1 .27-.482 2.22 2.22 0 0 1 .569-.498Zm9.674-1.11a.39.39 0 0 1 .358 0l.47.27c.05.033.077.066.071.11-.005.042 0 .07-.07.102l-2.913 1.678a.39.39 0 0 1-.357 0l-4.283-2.474a.12.12 0 0 1-.075-.103.124.124 0 0 1 .075-.102l2.859-1.652a.39.39 0 0 1 .357 0l.471.27a.114.114 0 0 1 0 .212l-2.165 1.234 1.083.612 1.997-1.153a.391.391 0 0 1 .357 0l.471.27a.114.114 0 0 1 .07.104.12.12 0 0 1-.07.103l-1.997 1.153 1.083.633 2.209-1.267Zm-.628-4.039a.38.38 0 0 1 .212-.06c.09.004.179.018.265.044l5.814 1.483h.055a.119.119 0 0 1 .07.103.114.114 0 0 1-.07.103l-.477.276a.482.482 0 0 1-.243.076.61.61 0 0 1-.184 0l-1.018-.26-2.101 1.212.455.59c.022.03.035.066.038.103 0 .044-.044.087-.13.141l-.477.276a.4.4 0 0 1-.362 0l-.038-.032-2.566-3.357a.265.265 0 0 1-.076-.151c0-.044.032-.087.103-.125l.73-.422Zm3.276 1.472-2.62-.671 1.158 1.51 1.462-.839Zm1.099-4a3.48 3.48 0 0 1 1.624-.504 2.756 2.756 0 0 1 1.5.368c.264.124.477.337.601.601a.666.666 0 0 1-.146.672l2.555.416.092.033a.092.092 0 0 1 .06.087.087.087 0 0 1-.06.08l-.541.325a.476.476 0 0 1-.26.076h-.206l-2.414-.395-.883.514 1.548.888a.113.113 0 0 1 .052.17.113.113 0 0 1-.052.041l-.54.309a.368.368 0 0 1-.185.043.38.38 0 0 1-.179-.043l-4.282-2.474a.12.12 0 0 1-.07-.103.113.113 0 0 1 .07-.103l1.716-1.001Zm1.083 1.78.964-.54c.194-.096.357-.244.47-.428.06-.136-.032-.276-.28-.423a1.082 1.082 0 0 0-.72-.157c-.26.047-.507.14-.732.276l-.958.542 1.256.73Zm7.493-3.075c-.05-.038-.07-.076-.06-.114a.174.174 0 0 1 .081-.097l.541-.309a.363.363 0 0 1 .18-.049.276.276 0 0 1 .178.05c.16.103.299.235.411.389.1.142.148.314.136.487-.031.2-.117.388-.25.542a2.542 2.542 0 0 1-.741.59 3.887 3.887 0 0 1-.948.39 3.97 3.97 0 0 1-1.932.01 4.445 4.445 0 0 1-.899-.33c-.179-.092-.368-.2-.574-.314a8.282 8.282 0 0 1-.541-.33 2.165 2.165 0 0 1-.574-.541.926.926 0 0 1-.2-.542.969.969 0 0 1 .222-.541c.186-.222.414-.406.67-.542.32-.19.665-.335 1.024-.433.313-.081.635-.129.958-.14.286-.008.571.02.85.08.234.053.46.13.677.233.06.028.087.065.081.103a.135.135 0 0 1-.081.103l-.541.314a.475.475 0 0 1-.168.043.342.342 0 0 1-.206-.032 1.513 1.513 0 0 0-.774-.092 2.098 2.098 0 0 0-.482.092 2.47 2.47 0 0 0-.541.222c-.145.074-.27.18-.368.309a.542.542 0 0 0-.114.303.54.54 0 0 0 .119.303c.089.105.193.196.308.27l.542.33c.2.12.39.223.568.315.152.076.312.136.477.179.177.044.359.068.541.07.183 0 .364-.022.542-.065.19-.043.373-.116.541-.217.145-.075.276-.174.39-.292a.71.71 0 0 0 .157-.281.39.39 0 0 0 0-.25.584.584 0 0 0-.2-.216Zm2.127-4.872a.32.32 0 0 1 .185-.044.314.314 0 0 1 .178.043l4.283 2.47c.048.032.076.064.07.108-.005.043 0 .075-.07.102l-.542.309a.39.39 0 0 1-.357 0l-1.754-1.012-2.003 1.158 1.754 1.013a.113.113 0 0 1 .07.102.12.12 0 0 1-.07.103l-.542.309a.39.39 0 0 1-.357 0l-4.277-2.496a.12.12 0 0 1-.076-.103.123.123 0 0 1 .076-.103l.541-.308a.39.39 0 0 1 .358 0l1.705.98 2.003-1.154-1.705-.985a.109.109 0 0 1-.075-.103.109.109 0 0 1 .075-.103l.53-.287Z" fill="#455A64"/><path d="M80.97 76.675 46.618 96.506l.937.541 34.351-19.83-.936-.542Z" fill="#7A6BDE"/><path opacity=".5" d="M80.97 76.675 46.618 96.506l.937.541 34.351-19.83-.936-.542Z" fill="#fff"/><path d="M95.344 73.113 40.463 104.8l-1.023-.59 54.88-31.688 1.024.59Zm2.446 1.413-54.88 31.687-1.029-.595 54.887-31.682 1.023.59Zm2.448 1.412-54.887 31.688-1.023-.595L99.21 75.343l1.029.595Zm18.315 10.574L63.673 118.2l-1.03-.59 54.882-31.688 1.028.59ZM121 87.926l-54.886 31.687-1.023-.595 54.881-31.688 1.028.596Zm2.442 1.414-54.88 31.682-1.03-.59 54.887-31.688 1.023.596Zm35.31 20.382-53.712 31.012-1.029-.596 53.712-31.011 1.029.595Zm2.441 1.408-53.711 31.017-1.024-.596 53.712-31.011 1.023.59Z" fill="#E0E0E0"/><path d="m56.51 106.464-6.584 3.8-2.604-1.5 6.589-3.8 2.599 1.5Zm8.045-4.652-6.584 3.806-2.598-1.505 6.583-3.801 2.599 1.5Zm8.05-4.644-6.583 3.8-2.599-1.5 6.583-3.8 2.6 1.5Zm8.051-4.646-6.584 3.8-2.598-1.5 6.583-3.805 2.599 1.505Zm8.05-4.652-6.583 3.801-2.599-1.5 6.584-3.8 2.598 1.5Zm8.051-4.644-6.584 3.8-2.598-1.499 6.583-3.8 2.599 1.5Z" fill="#7A6BDE"/><path d="m59.904 108.423-6.583 3.8-2.6-1.5 6.584-3.8 2.599 1.5Z" fill="#F0F0F0"/><path d="m67.954 103.778-6.583 3.801-2.599-1.5 6.584-3.801 2.599 1.5Z" fill="#E0E0E0"/><path d="m76.005 99.127-6.583 3.8-2.599-1.499 6.583-3.801 2.599 1.5Zm8.051-4.644-6.584 3.8-2.598-1.499 6.583-3.8 2.599 1.5Zm8.05-4.651-6.583 3.806-2.599-1.505 6.583-3.801 2.6 1.5Z" fill="#F0F0F0"/><path d="m100.157 85.185-6.584 3.8-2.598-1.499 6.583-3.8 2.599 1.5Z" fill="#E0E0E0"/><path d="m108.207 80.541-6.583 3.8-2.604-1.499 6.589-3.806 2.598 1.505Zm-44.903 29.846-6.584 3.801-2.598-1.5 6.583-3.8 2.599 1.499Zm8.051-4.65-6.584 3.801-2.598-1.5 6.583-3.801 2.599 1.5Zm8.05-4.645-6.583 3.801-2.599-1.5 6.584-3.8 2.598 1.499Z" fill="#F0F0F0"/><path d="m87.456 96.441-6.584 3.806-2.598-1.505 6.583-3.8 2.599 1.5Z" fill="#E0E0E0"/><path d="m95.506 91.796-6.589 3.801-2.593-1.5 6.583-3.8 2.599 1.5Zm8.045-4.65-6.583 3.806-2.599-1.505 6.589-3.8 2.593 1.5Zm8.051-4.646-6.583 3.801-2.599-1.5 6.583-3.8 2.599 1.5Zm-44.898 29.847-6.583 3.801-2.599-1.5 6.583-3.8 2.599 1.499Z" fill="#F0F0F0"/><path d="m74.755 107.703-6.584 3.8-2.598-1.499 6.583-3.801 2.599 1.5Z" fill="#E0E0E0"/><path d="m82.805 103.052-6.583 3.801-2.599-1.5 6.583-3.8 2.6 1.499Zm8.045-4.645-6.583 3.8-2.599-1.499 6.583-3.8 2.599 1.499Z" fill="#F0F0F0"/><path d="m98.9 93.755-6.583 3.801-2.598-1.5 6.583-3.8 2.599 1.5Z" fill="#E0E0E0"/><path d="m106.951 89.111-6.583 3.8-2.599-1.5 6.583-3.8 2.599 1.5Zm8.051-4.651-6.584 3.801-2.598-1.5 6.583-3.8 2.599 1.5Z" fill="#F0F0F0"/><path d="m56.51 106.464-6.584 3.8-2.604-1.5 6.589-3.8 2.599 1.5Zm8.045-4.652-6.584 3.806-2.598-1.505 6.583-3.801 2.599 1.5Zm8.05-4.644-6.583 3.8-2.599-1.5 6.583-3.8 2.6 1.5Zm8.051-4.646-6.584 3.8-2.598-1.5 6.583-3.805 2.599 1.505Zm8.05-4.652-6.583 3.801-2.599-1.5 6.584-3.8 2.598 1.5Zm8.051-4.644-6.584 3.8-2.598-1.499 6.583-3.8 2.599 1.5Zm8.05-4.65-6.583 3.8-2.599-1.5 6.584-3.8 2.598 1.5Z" fill="#7A6BDE"/><path d="m56.51 106.464-6.584 3.8-2.604-1.5 6.589-3.8 2.599 1.5Zm8.045-4.652-6.584 3.806-2.598-1.505 6.583-3.801 2.599 1.5Zm8.051-4.644-6.584 3.8-2.598-1.5 6.583-3.8 2.599 1.5Zm8.05-4.646-6.583 3.8-2.6-1.5 6.584-3.805 2.599 1.505Zm8.05-4.652-6.583 3.801-2.599-1.5 6.584-3.8 2.598 1.5Zm8.051-4.644-6.584 3.8-2.598-1.499 6.583-3.8 2.599 1.5Zm8.051-4.65-6.584 3.8-2.599-1.5 6.584-3.8 2.599 1.5Z" opacity=".3" fill="#fff"/><path d="m110.627 113.117-11.91-6.882c4.899-2.793 12.788-3.345 19.133-1.472 7.839 2.317 11.575 8.153 7.796 12.761l-15.019-4.407Z" fill="#7A6BDE"/><path d="m110.627 113.116-11.91-6.882c4.899-2.793 12.788-3.345 19.133-1.472 7.839 2.317 11.575 8.153 7.796 12.761l-15.019-4.407Z" fill="#fff" opacity=".6"/><path d="M121.585 120.122a17.654 17.654 0 0 1-3.384 1.473l-6.161-6.979 12.095 3.557a11.766 11.766 0 0 1-2.55 1.949Z" fill="#7A6BDE"/><path d="M121.585 120.122a17.654 17.654 0 0 1-3.384 1.473l-6.161-6.979 12.095 3.557a11.766 11.766 0 0 1-2.55 1.949Z" fill="#000" opacity=".2"/><path d="M117.091 122.467a27.487 27.487 0 0 1-13.935 0l6.973-7.888 6.962 7.888Zm-15.039-.872a17.453 17.453 0 0 1-3.357-1.484c-6.102-3.524-6.296-9.203-.574-12.852l10.985 6.345-7.054 7.991Z" fill="#7A6BDE"/><path d="M102.052 121.596a17.451 17.451 0 0 1-3.357-1.484c-6.101-3.524-6.296-9.203-.574-12.852l10.985 6.345-7.054 7.991Z" fill="#fff" opacity=".3"/><path d="M114.536 106.44a.108.108 0 0 1-.098-.054.108.108 0 0 1-.013-.088.107.107 0 0 1 .057-.069l.801-.465a.117.117 0 0 1 .088-.011.113.113 0 0 1 .069.054.117.117 0 0 1 .011.088.116.116 0 0 1-.054.069l-.802.466a.1.1 0 0 1-.059.01Zm1.624-.925a.13.13 0 0 1-.103-.054.124.124 0 0 1 .044-.163l.801-.46a.113.113 0 0 1 .045-.026.126.126 0 0 1 .102.014c.015.01.027.023.036.039a.117.117 0 0 1 .009.102.137.137 0 0 1-.028.044.115.115 0 0 1-.045.027l-.801.46a.127.127 0 0 1-.076.017h.016Zm1.624-.926a.111.111 0 0 1-.056-.017.1.1 0 0 1-.041-.043.113.113 0 0 1 .043-.157l.801-.465a.12.12 0 0 1 .087-.01c.03.008.055.027.07.053a.099.099 0 0 1 .017.044.106.106 0 0 1-.024.089.103.103 0 0 1-.036.029l-.801.461a.116.116 0 0 1-.047.02.126.126 0 0 1-.051-.004h.038Zm1.624-.926a.12.12 0 0 1-.106-.087.118.118 0 0 1 .047-.129l.807-.466a.115.115 0 1 1 .113.2l-.801.466a.12.12 0 0 1-.055.022.119.119 0 0 1-.059-.006h.054Zm1.625-.926a.112.112 0 0 1-.077-.019.116.116 0 0 1-.046-.064.117.117 0 0 1 .007-.078.115.115 0 0 1 .056-.055l.801-.466a.122.122 0 0 1 .08.001.12.12 0 0 1 .077.129.114.114 0 0 1-.038.07l-.806.466a.103.103 0 0 1-.06.029.1.1 0 0 1-.065-.013h.071Zm-31.255 17.054a.118.118 0 0 1-.067-.027.119.119 0 0 1-.036-.132.127.127 0 0 1 .044-.058l.806-.465a.116.116 0 0 1 .157.043.115.115 0 0 1-.043.157l-.801.466a.124.124 0 0 1-.06.016Zm1.624-.931a.12.12 0 0 1-.058-.013.12.12 0 0 1-.044-.041.115.115 0 0 1 .043-.157l.801-.466a.12.12 0 0 1 .08.001.118.118 0 0 1 .04.199l-.807.466a.102.102 0 0 1-.07.011h.016Zm1.625-.926a.118.118 0 0 1-.098-.054.112.112 0 0 1 .007-.133.13.13 0 0 1 .037-.03l.8-.46a.105.105 0 0 1 .043-.015.096.096 0 0 1 .044.002.102.102 0 0 1 .04.018.113.113 0 0 1 .043.123.12.12 0 0 1-.055.073l-.802.46a.114.114 0 0 1-.046.02.109.109 0 0 1-.051-.004h.038Zm1.624-.926a.11.11 0 0 1-.076-.019.113.113 0 0 1 .017-.197l.8-.466a.118.118 0 0 1 .163.043c.013.028.016.06.008.09a.134.134 0 0 1-.051.073l-.807.46a.101.101 0 0 1-.108.016h.054Zm1.624-.926a.113.113 0 0 1-.097-.059.115.115 0 0 1 .008-.128.108.108 0 0 1 .035-.029l.801-.466a.126.126 0 0 1 .043-.014.114.114 0 0 1 .114.058.11.11 0 0 1 .012.087.104.104 0 0 1-.02.04.126.126 0 0 1-.035.03l-.801.465a.107.107 0 0 1-.064.035.111.111 0 0 1-.072-.013l.076-.006Zm17.049-9.05c-.244-.141-.244-.363 0-.504a.98.98 0 0 1 .866 0 .265.265 0 0 1 0 .504.973.973 0 0 1-.866 0Z" fill="#455A64"/><path d="M97.05 115.478a.262.262 0 0 1-.182-.252.266.266 0 0 1 .181-.251.972.972 0 0 1 .866 0 .262.262 0 0 1 .182.251.262.262 0 0 1-.182.252.946.946 0 0 1-.866 0Zm22.927 4.216a.258.258 0 0 1-.134-.404.26.26 0 0 1 .134-.094.948.948 0 0 1 .866 0 .27.27 0 0 1 .174.249.257.257 0 0 1-.048.152.257.257 0 0 1-.126.097.93.93 0 0 1-.866 0Z" fill="#455A64"/><path d="M125.759 100.837a.163.163 0 0 1-.076 0 .184.184 0 0 1-.081 0l-.357-.206-.915.542a.14.14 0 0 1-.081 0 .143.143 0 0 1-.082 0l-.205-.119s-.049-.033-.054-.055a.172.172 0 0 1 0-.064l-.222-1.17a.095.095 0 0 1 .043-.114l.227-.13h.157l1.18.683.255-.147a.166.166 0 0 1 .162 0l.206.12a.046.046 0 0 1 .028.017.05.05 0 0 1 .01.031.068.068 0 0 1-.032.044l-.293.119.357.205a.066.066 0 0 1 .023.021.067.067 0 0 1 .01.028.052.052 0 0 1-.01.027.044.044 0 0 1-.023.016l-.227.152Zm-.882-.422-.634-.363.13.655.504-.292Zm-.065-1.325a.05.05 0 0 1-.023-.016.051.051 0 0 1-.01-.027c0-.01.004-.02.009-.029a.054.054 0 0 1 .024-.02l1.083-.638a.164.164 0 0 1 .162 0l.211.119c.01.004.018.01.024.02a.072.072 0 0 1 .009.029.051.051 0 0 1-.01.026.05.05 0 0 1-.023.017l-.834.482.347.232a.48.48 0 0 1 .119-.113l.125-.076a1.54 1.54 0 0 1 .351-.152c.122-.037.247-.059.374-.065.126-.013.253-.013.379 0 .123.03.241.075.352.136.102.054.19.13.26.222a.325.325 0 0 1 .059.222.454.454 0 0 1-.119.216 1.37 1.37 0 0 1-.265.2 1.652 1.652 0 0 1-.763.238 1.35 1.35 0 0 1-.336.001 1.1 1.1 0 0 1-.298-.115.05.05 0 0 1-.011-.031.066.066 0 0 1 .015-.026.063.063 0 0 1 .023-.018l.238-.135a.1.1 0 0 1 .071 0 .218.218 0 0 1 .086 0c.055.019.111.03.168.032h.157a1.158 1.158 0 0 0 .282-.12c.113-.064.173-.134.178-.204.006-.07-.037-.147-.146-.206a.542.542 0 0 0-.325-.07.869.869 0 0 0-.362.102.541.541 0 0 0-.179.157v.054a.199.199 0 0 1-.06.044l-.27.157a.125.125 0 0 1-.076 0 .129.129 0 0 1-.081 0l-.915-.644Zm1.982-1.252a.872.872 0 0 1 .438-.119.806.806 0 0 1 .2 0 .66.66 0 0 1 .168.054l.173.092.157.098a.52.52 0 0 1 .098.097.196.196 0 0 1 .038.12.273.273 0 0 1-.054.124.434.434 0 0 1-.157.124.728.728 0 0 1-.222.092.754.754 0 0 1-.217.033.806.806 0 0 1-.2 0 .763.763 0 0 1-.168-.06l-.168-.092a1.37 1.37 0 0 1-.157-.097.37.37 0 0 1-.103-.098.152.152 0 0 1-.028-.053.137.137 0 0 1-.004-.06.198.198 0 0 1 .049-.125.485.485 0 0 1 .157-.13Zm.822.293-.054-.033-.081-.043-.076-.049-.059-.032a.606.606 0 0 0-.141-.033.259.259 0 0 0-.157.043c-.06.033-.087.065-.081.092a.171.171 0 0 0 .065.082l.054.032.076.049.081.043.059.033a.316.316 0 0 0 .141.032.259.259 0 0 0 .157-.043c.06-.033.081-.065.076-.092a.119.119 0 0 0-.022-.047.126.126 0 0 0-.038-.035Zm.434-.937a.068.068 0 0 1 0-.049.13.13 0 0 1 .048-.043l.179-.103h.13l.46 1.949a.081.081 0 0 1 0 .049.127.127 0 0 1-.049.043l-.178.103a.152.152 0 0 1-.065 0 .11.11 0 0 1-.06 0l-.465-1.95Zm1.055.503a1 1 0 0 1 .222-.092c.073-.016.148-.025.222-.027a.814.814 0 0 1 .201 0 .755.755 0 0 1 .167.06l.168.087.157.102a.426.426 0 0 1 .103.092.164.164 0 0 1 .033.12.219.219 0 0 1-.049.124.564.564 0 0 1-.157.13.952.952 0 0 1-.222.087.78.78 0 0 1-.217.032.816.816 0 0 1-.2 0 .681.681 0 0 1-.168-.06l-.173-.086-.157-.103a.344.344 0 0 1-.098-.097.167.167 0 0 1-.037-.114.262.262 0 0 1 .054-.125c.039-.06.09-.11.151-.146v.016Zm.829.298-.055-.038-.081-.043-.081-.049-.059-.027a.395.395 0 0 0-.136-.038.28.28 0 0 0-.162.044c-.054.032-.081.065-.076.092a.15.15 0 0 0 .06.08l.054.039.081.043.081.043.06.033c.042.02.088.033.135.038a.29.29 0 0 0 .162-.049c.055-.032.082-.06.076-.092a.132.132 0 0 0-.032-.076h-.027Z" fill="#7A6BDE"/><path d="M125.759 100.839a.163.163 0 0 1-.076 0 .184.184 0 0 1-.081 0l-.357-.206-.915.542a.14.14 0 0 1-.081 0 .143.143 0 0 1-.082 0l-.205-.119s-.049-.033-.054-.055a.178.178 0 0 1 0-.065l-.222-1.169a.095.095 0 0 1 .043-.114l.227-.13h.157l1.18.683.255-.147a.166.166 0 0 1 .162 0l.206.12a.046.046 0 0 1 .028.017.05.05 0 0 1 .01.031.058.058 0 0 1-.012.025.06.06 0 0 1-.02.019l-.293.119.357.205a.066.066 0 0 1 .023.021.067.067 0 0 1 .01.028.052.052 0 0 1-.01.027.044.044 0 0 1-.023.016l-.227.152Zm-.882-.422-.634-.363.13.655.504-.292Zm-.065-1.327a.051.051 0 0 1-.023-.017.051.051 0 0 1-.01-.027c0-.01.004-.02.009-.029a.055.055 0 0 1 .024-.02l1.083-.638a.164.164 0 0 1 .162 0l.211.119c.01.004.018.01.024.02a.072.072 0 0 1 .009.028.051.051 0 0 1-.01.027.05.05 0 0 1-.023.017l-.834.482.347.232a.478.478 0 0 1 .119-.113l.125-.076a1.54 1.54 0 0 1 .351-.152c.122-.037.247-.059.374-.065.126-.013.253-.013.379 0 .123.03.241.075.352.136.102.054.19.13.26.222a.325.325 0 0 1 .059.222.455.455 0 0 1-.119.216c-.08.078-.169.145-.265.2a1.652 1.652 0 0 1-.763.238 1.35 1.35 0 0 1-.336.001 1.1 1.1 0 0 1-.298-.115.05.05 0 0 1-.011-.031.067.067 0 0 1 .015-.026.063.063 0 0 1 .023-.018l.238-.135a.099.099 0 0 1 .071 0 .218.218 0 0 1 .086 0 .62.62 0 0 0 .168.032h.157a1.158 1.158 0 0 0 .282-.12c.113-.064.173-.134.178-.204.006-.07-.037-.147-.146-.206a.541.541 0 0 0-.325-.07.867.867 0 0 0-.362.102.538.538 0 0 0-.179.157v.055a.197.197 0 0 1-.06.043l-.27.157a.125.125 0 0 1-.076 0 .129.129 0 0 1-.081 0l-.915-.644Zm1.981-1.25a.883.883 0 0 1 .439-.12.806.806 0 0 1 .2 0 .66.66 0 0 1 .168.054l.173.092.157.098a.53.53 0 0 1 .098.097.203.203 0 0 1 .038.12.274.274 0 0 1-.055.124.418.418 0 0 1-.157.124.708.708 0 0 1-.222.092.75.75 0 0 1-.216.033.806.806 0 0 1-.2 0 .763.763 0 0 1-.168-.06l-.168-.092a1.301 1.301 0 0 1-.157-.097.346.346 0 0 1-.103-.098.137.137 0 0 1-.028-.053.137.137 0 0 1-.004-.06.197.197 0 0 1 .048-.125.507.507 0 0 1 .157-.13Zm.823.291-.054-.032-.081-.043-.076-.049-.059-.032a.606.606 0 0 0-.141-.033.259.259 0 0 0-.157.043c-.06.033-.087.065-.081.092a.165.165 0 0 0 .065.082l.054.032.075.049.082.043.059.033a.316.316 0 0 0 .141.032.26.26 0 0 0 .157-.043c.06-.033.081-.065.076-.092a.135.135 0 0 0-.06-.081Zm.433-.936a.08.08 0 0 1 0-.049.132.132 0 0 1 .049-.043l.179-.103h.13l.46 1.949a.08.08 0 0 1 0 .049.125.125 0 0 1-.049.043l-.179.103a.152.152 0 0 1-.065 0 .106.106 0 0 1-.059 0l-.466-1.95Zm1.056.503c.07-.04.144-.07.222-.092.073-.016.147-.025.222-.027a.806.806 0 0 1 .2 0 .768.768 0 0 1 .168.06l.168.087.157.102a.427.427 0 0 1 .103.092.16.16 0 0 1 .032.12.21.21 0 0 1-.048.124.578.578 0 0 1-.157.13.943.943 0 0 1-.222.087.784.784 0 0 1-.217.032.806.806 0 0 1-.2 0 .667.667 0 0 1-.168-.06l-.173-.086-.157-.103a.343.343 0 0 1-.098-.097.173.173 0 0 1-.038-.114.272.272 0 0 1 .054-.125.473.473 0 0 1 .152-.146v.016Zm.828.298-.054-.038-.081-.043-.081-.049-.06-.027a.383.383 0 0 0-.135-.038.279.279 0 0 0-.162.044c-.055.032-.082.064-.076.092.01.032.031.061.059.08l.054.039.082.043.081.043.059.033c.043.02.089.033.136.038a.292.292 0 0 0 .162-.049c.054-.032.081-.06.076-.092a.127.127 0 0 0-.033-.076h-.027Z" opacity=".6" fill="#fff"/><path d="M125.97 103.355h.076l.098.06-.618.357h-.075l-.91-.541.114-.065h.075l.775.449.465-.26Zm-.341-.325a.584.584 0 0 1-.119-.103.195.195 0 0 1-.043-.114.232.232 0 0 1 .043-.124.518.518 0 0 1 .152-.119.886.886 0 0 1 .211-.087.888.888 0 0 1 .206-.027c.067.001.135.01.2.027.061.016.121.038.179.065l.059.033.07.037.065.044.055.032a.488.488 0 0 1 .119.103.17.17 0 0 1 .043.114.199.199 0 0 1-.043.124.531.531 0 0 1-.152.119.846.846 0 0 1-.211.087.887.887 0 0 1-.206 0 .795.795 0 0 1-.195 0 .884.884 0 0 1-.178-.065l-.065-.038-.065-.038a.186.186 0 0 1-.065-.038l-.06-.032Zm.644-.368a.447.447 0 0 0-.221-.049.445.445 0 0 0-.217.06c-.065.038-.098.075-.098.119 0 .043 0 .092.087.13l.119.07.119.07a.462.462 0 0 0 .222.049.436.436 0 0 0 .217-.059c.065-.038.097-.076.103-.125a.157.157 0 0 0-.029-.075.144.144 0 0 0-.063-.049.85.85 0 0 0-.119-.071l-.12-.07Zm.439-.649a.666.666 0 0 1 .347-.108.593.593 0 0 1 .319.076.274.274 0 0 1 .124.13.129.129 0 0 1-.027.14l.542.092-.119.071a.1.1 0 0 1-.054 0h-.049l-.542-.087-.184.108.325.19-.113.065a.043.043 0 0 1-.019.004.04.04 0 0 1-.019-.004.05.05 0 0 1-.038 0l-.91-.541.417-.136Zm.227.374.206-.114a.294.294 0 0 0 .103-.092s0-.06-.06-.092a.275.275 0 0 0-.157-.032.49.49 0 0 0-.151.059l-.206.119.265.152Zm1.765-.612h.076l.103.06-.623.357a.03.03 0 0 1-.016.004.03.03 0 0 1-.016-.004.043.043 0 0 1-.019.004.04.04 0 0 1-.019-.004l-.91-.541.607-.352h.075l.098.059-.455.26.227.13.423-.243h.076l.097.059-.422.244.233.135.465-.168Zm.368-.563-.195-.428v-.033l.098-.054h.076l.904.542-.114.065h-.076l-.541-.32.135.293a.02.02 0 0 1 .004.013c0 .005-.001.01-.004.014l-.07.043h-.087l-.503-.081.541.319-.114.065h-.075l-.91-.541.098-.054a.1.1 0 0 1 .054 0h.043l.736.157Zm1.522-.325h-.076l-.909-.542.113-.065h.071l.909.542-.108.065Zm-.195-1.04c.104-.062.22-.1.341-.108a.586.586 0 0 1 .33.081c.101.062.15.127.147.195 0 .065-.071.136-.185.2l-.227.13.314.179-.114.065a.07.07 0 0 1-.075 0l-.91-.541.379-.2Zm.233.396.216-.125a.229.229 0 0 0 .098-.092c0-.032 0-.065-.065-.092a.232.232 0 0 0-.157-.038.4.4 0 0 0-.157.06l-.217.124.282.163Zm.601-.878a.728.728 0 0 1 .195-.081l.178-.033a.736.736 0 0 1 .157 0l.114.033v.027l-.098.054h-.194a.384.384 0 0 0-.152.06.205.205 0 0 0-.065.043.135.135 0 0 0-.032.049.041.041 0 0 0-.004.019c0 .006.001.013.004.019a.067.067 0 0 0 .014.022.076.076 0 0 0 .023.015.112.112 0 0 0 .065 0 .217.217 0 0 0 .082 0l.108-.032.157-.054a1.233 1.233 0 0 1 .352-.087.535.535 0 0 1 .135 0 .257.257 0 0 1 .119.049.193.193 0 0 1 .092.081.131.131 0 0 1 0 .103.205.205 0 0 1-.065.108.625.625 0 0 1-.146.108.619.619 0 0 1-.173.076.729.729 0 0 1-.357.044.377.377 0 0 1-.152-.044l.103-.054a.06.06 0 0 1 .043 0 .12.12 0 0 1 .043 0h.217l.097-.043.076-.054a.198.198 0 0 0 .049-.05.1.1 0 0 0 0-.048s0-.032-.038-.043a.134.134 0 0 0-.07 0h-.092l-.125.043-.168.06-.167.049h-.141a.48.48 0 0 1-.13 0 .442.442 0 0 1-.13-.055.185.185 0 0 1-.087-.08.162.162 0 0 1 0-.098.258.258 0 0 1 .06-.103.586.586 0 0 1 .103-.103Zm1.353-.763h.076l.574.335a.46.46 0 0 1 .135.103.197.197 0 0 1 .043.114.187.187 0 0 1-.048.119.594.594 0 0 1-.146.119 1.138 1.138 0 0 1-.206.087.895.895 0 0 1-.206.027.804.804 0 0 1-.379-.103l-.574-.336.114-.065h.076l.568.33a.33.33 0 0 0 .114.044h.108a.35.35 0 0 0 .108 0l.098-.044a.299.299 0 0 0 .076-.06.087.087 0 0 0 0-.059.09.09 0 0 0 0-.065.264.264 0 0 0-.082-.065l-.568-.33.119-.151Zm1.213-.119-.2-.423.027-.032.092-.054h.076l.909.541-.114.065h-.075l-.542-.32.13.293-.07.043h-.087l-.503-.081.541.32-.114.064h-.075l-.91-.541.097-.054a.095.095 0 0 1 .055 0h.043l.72.178Z" fill="#E0E0E0"/><path d="M81.641 122.5a.207.207 0 0 1 .162 0l.206.124a.078.078 0 0 1 .044.049v.563a1.544 1.544 0 0 1 .611-.141c.1.002.2.014.298.038a.98.98 0 0 1 .27.108c.088.045.16.112.212.195a.277.277 0 0 1 .038.211.47.47 0 0 1-.13.222 1.15 1.15 0 0 1-.27.206 1.77 1.77 0 0 1-.412.179 1.69 1.69 0 0 1-.38.076 1.357 1.357 0 0 1-.324 0 .904.904 0 0 1-.254-.076c-.028 0-.038-.027-.038-.044 0-.016 0-.032.037-.048l.233-.136a.143.143 0 0 1 .065 0h.347a.704.704 0 0 0 .162-.043 1.77 1.77 0 0 0 .195-.097.473.473 0 0 0 .217-.212c.025-.072-.008-.131-.098-.178a.394.394 0 0 0-.298-.049c-.122.025-.24.071-.346.135l-.25.141a.185.185 0 0 1-.08 0 .162.162 0 0 1-.076 0l-.211-.119a.067.067 0 0 1-.025-.02.066.066 0 0 1-.013-.029.203.203 0 0 1 0-.054v-.487l-.812.471a.206.206 0 0 1-.082.016.206.206 0 0 1-.08-.016l-.212-.125a.051.051 0 0 1-.023-.016.05.05 0 0 1-.01-.027s0-.032.033-.049l1.294-.768Zm2.842-.743.125.07.14.081.136.082a1.389 1.389 0 0 1 .39.287.396.396 0 0 1 .119.222.331.331 0 0 1-.076.238.989.989 0 0 1-.303.243 1.483 1.483 0 0 1-1.23.152 2.587 2.587 0 0 1-.367-.152l-.26-.146c-.092-.054-.179-.103-.25-.151a1.43 1.43 0 0 1-.27-.217.388.388 0 0 1-.119-.227.343.343 0 0 1 .065-.239.936.936 0 0 1 .303-.243 1.511 1.511 0 0 1 .84-.222c.132.005.263.029.39.07.126.04.249.091.367.152Zm-.682.985c.135.071.282.115.433.13a.7.7 0 0 0 .412-.103c.135-.081.195-.157.178-.238a.543.543 0 0 0-.227-.249l-.244-.146-.254-.141a1.177 1.177 0 0 0-.433-.13.7.7 0 0 0-.412.103c-.135.081-.195.157-.173.238a.461.461 0 0 0 .227.249l.239.146.254.141Zm.617-1.861a.686.686 0 0 1 .222-.087c.071-.018.144-.029.217-.032a.746.746 0 0 1 .2 0 .667.667 0 0 1 .168.059c.06.026.118.057.174.092l.156.098a.329.329 0 0 1 .098.097c.026.032.04.072.038.114a.21.21 0 0 1-.054.124.494.494 0 0 1-.157.13.937.937 0 0 1-.433.119.788.788 0 0 1-.206 0 .713.713 0 0 1-.168-.054l-.168-.092-.157-.097a.605.605 0 0 1-.103-.098.19.19 0 0 1-.032-.119.214.214 0 0 1 .049-.124.495.495 0 0 1 .156-.13Zm.823.297-.054-.037-.08-.044-.077-.049-.06-.027a.429.429 0 0 0-.14-.037.29.29 0 0 0-.157.043c-.06.038-.087.065-.076.092a.124.124 0 0 0 .06.081l.054.038.076.043.08.049.06.027a.406.406 0 0 0 .141.038c.056 0 .11-.015.157-.043.06-.038.087-.065.081-.092a.143.143 0 0 0-.065-.082Zm.434-.936a.076.076 0 0 1 0-.049.108.108 0 0 1 .048-.049l.179-.103a.177.177 0 0 1 .065 0 .091.091 0 0 1 .065 0l.46 1.949a.155.155 0 0 1 0 .049s0 .027-.049.044l-.173.102a.12.12 0 0 1-.07 0h-.06l-.465-1.943Zm1.082.498a1.09 1.09 0 0 1 .222-.087c.073-.018.147-.029.222-.032.067-.006.134-.006.2 0l.169.059.167.092c.055.029.107.062.157.098.04.025.076.058.103.097a.19.19 0 0 1 .038.114.23.23 0 0 1-.054.124.551.551 0 0 1-.157.13.943.943 0 0 1-.222.092.988.988 0 0 1-.217.028.839.839 0 0 1-.2 0 .665.665 0 0 1-.168-.055l-.168-.092-.162-.097a.523.523 0 0 1-.097-.098.194.194 0 0 1-.038-.119.27.27 0 0 1 .054-.124.47.47 0 0 1 .124-.13h.027Zm.829.298-.054-.033-.082-.049-.08-.043-.06-.032a.378.378 0 0 0-.136-.038.345.345 0 0 0-.162.048c-.054.033-.081.06-.076.093a.115.115 0 0 0 .065.075s.027 0 .049.038l.08.044.082.048.06.027a.406.406 0 0 0 .14.038.273.273 0 0 0 .157-.043c.055-.033.082-.065.076-.092a.139.139 0 0 0-.086-.081h.027Z" fill="#7A6BDE"/><path d="M81.64 122.499a.207.207 0 0 1 .163 0l.206.124a.078.078 0 0 1 .043.049v.563a1.544 1.544 0 0 1 .612-.141c.1.002.2.015.298.038a.98.98 0 0 1 .27.108c.087.045.16.112.212.195a.275.275 0 0 1 .038.211.47.47 0 0 1-.13.222c-.08.082-.171.151-.271.206-.13.077-.267.137-.412.179-.123.04-.25.065-.379.076a1.357 1.357 0 0 1-.324 0 .904.904 0 0 1-.255-.076c-.027 0-.038-.027-.038-.044 0-.016 0-.032.038-.048l.233-.136a.143.143 0 0 1 .065 0h.347a.704.704 0 0 0 .162-.043 1.77 1.77 0 0 0 .195-.097.474.474 0 0 0 .216-.212c.026-.072-.007-.131-.097-.178a.394.394 0 0 0-.298-.049c-.122.025-.24.071-.346.135l-.25.141a.185.185 0 0 1-.08 0 .162.162 0 0 1-.076 0l-.212-.119a.068.068 0 0 1-.024-.02.066.066 0 0 1-.013-.029.203.203 0 0 1 0-.054v-.487l-.813.471a.206.206 0 0 1-.08.016.206.206 0 0 1-.082-.016l-.211-.125a.051.051 0 0 1-.023-.016.05.05 0 0 1-.01-.027s0-.032.033-.049l1.294-.768Zm2.843-.741.125.07.14.081.136.082a1.389 1.389 0 0 1 .39.287.396.396 0 0 1 .119.222.331.331 0 0 1-.076.238.989.989 0 0 1-.303.243 1.483 1.483 0 0 1-1.23.152 2.587 2.587 0 0 1-.367-.152l-.26-.146c-.092-.054-.179-.103-.25-.151a1.43 1.43 0 0 1-.27-.217.388.388 0 0 1-.119-.227.343.343 0 0 1 .065-.239.936.936 0 0 1 .303-.243 1.511 1.511 0 0 1 .84-.222c.132.005.263.028.39.07.126.04.249.091.367.152Zm-.682.985c.135.071.282.115.433.13a.7.7 0 0 0 .412-.103c.135-.081.195-.157.178-.238a.543.543 0 0 0-.227-.249l-.244-.146-.254-.141a1.177 1.177 0 0 0-.433-.13.7.7 0 0 0-.412.103c-.135.081-.195.157-.173.238a.461.461 0 0 0 .227.249l.239.146.254.141Zm.617-1.863a1.057 1.057 0 0 1 .439-.119.746.746 0 0 1 .2 0 .667.667 0 0 1 .168.059c.06.027.118.057.173.092l.157.098a.328.328 0 0 1 .097.097c.027.032.04.072.038.114a.209.209 0 0 1-.054.124.494.494 0 0 1-.157.13.935.935 0 0 1-.433.119.788.788 0 0 1-.206 0 .713.713 0 0 1-.168-.054l-.167-.092-.157-.097a.608.608 0 0 1-.103-.098.19.19 0 0 1-.033-.119.216.216 0 0 1 .049-.124.494.494 0 0 1 .157-.13Zm.823.297-.054-.037-.081-.044-.076-.048-.06-.028a.429.429 0 0 0-.14-.037.29.29 0 0 0-.157.043c-.06.038-.087.065-.076.092a.125.125 0 0 0 .06.081l.053.038.076.043.081.049.06.027a.406.406 0 0 0 .14.038c.056 0 .11-.015.158-.043.06-.038.086-.065.08-.092a.145.145 0 0 0-.065-.082Zm.433-.936a.076.076 0 0 1 0-.049.108.108 0 0 1 .049-.049l.178-.102a.142.142 0 0 1 .065 0 .082.082 0 0 1 .065 0l.46 1.949a.149.149 0 0 1 0 .048s0 .027-.048.044l-.173.102a.106.106 0 0 1-.07 0h-.06l-.466-1.943Zm1.083.498a1.09 1.09 0 0 1 .222-.087c.073-.018.147-.029.222-.032.067-.006.134-.006.2 0l.168.059.168.092c.054.029.107.062.157.098.04.025.075.058.103.097a.19.19 0 0 1 .038.114.237.237 0 0 1-.055.125.563.563 0 0 1-.157.129.941.941 0 0 1-.222.092.987.987 0 0 1-.216.028.839.839 0 0 1-.2 0 .665.665 0 0 1-.168-.055l-.168-.092-.163-.097a.523.523 0 0 1-.097-.098.194.194 0 0 1-.038-.119.27.27 0 0 1 .054-.124.471.471 0 0 1 .125-.13h.027Zm.828.298-.054-.033-.081-.049-.081-.043-.06-.032a.378.378 0 0 0-.135-.038.345.345 0 0 0-.163.048c-.054.033-.08.06-.075.093a.115.115 0 0 0 .065.075s.027 0 .048.038l.081.044.082.048.06.027a.406.406 0 0 0 .14.038.273.273 0 0 0 .157-.043c.054-.033.081-.065.076-.092a.14.14 0 0 0-.087-.081h.027Z" opacity=".3" fill="#fff"/><path d="M83.552 126.423h.076l.098.06-.618.357h-.075l-.91-.541.114-.07h.08l.775.449.46-.255Zm-.319-.324a.548.548 0 0 1-.12-.103.198.198 0 0 1-.042-.113.234.234 0 0 1 .043-.125.543.543 0 0 1 .151-.119.85.85 0 0 1 .206-.087.94.94 0 0 1 .211-.027c.068.001.135.01.2.027.062.017.122.039.18.065l.059.033.07.043.065.038.054.033a.473.473 0 0 1 .12.102.204.204 0 0 1 .043.114.172.172 0 0 1-.043.125.563.563 0 0 1-.152.119.85.85 0 0 1-.417.113 1.01 1.01 0 0 1-.379-.092l-.06-.037-.064-.038-.07-.038-.055-.033Zm.644-.362a.411.411 0 0 0-.222-.055.435.435 0 0 0-.216.06c-.065.038-.098.076-.103.124a.159.159 0 0 0 .03.074c.016.022.037.04.062.051l.119.07.12.071a.46.46 0 0 0 .221.048.44.44 0 0 0 .217-.059c.065-.038.097-.076.102-.119a.153.153 0 0 0-.091-.13l-.114-.07-.125-.065Zm.401-.666a.744.744 0 0 1 .352-.108.594.594 0 0 1 .319.075.283.283 0 0 1 .124.13.14.14 0 0 1-.027.141l.542.092-.12.07a.1.1 0 0 1-.053 0h-.044l-.514-.086-.184.108.325.19-.114.065a.06.06 0 0 1-.019.004.06.06 0 0 1-.019-.004.061.061 0 0 1-.038 0l-.91-.542v-.027l.38-.108Zm.232.373.206-.113a.23.23 0 0 0 .098-.092s0-.06-.054-.092a.286.286 0 0 0-.157-.033.59.59 0 0 0-.152.06l-.206.119.265.151Zm1.776-.6h.076l.103.06-.617.357h-.081l-.904-.541.611-.352a.042.042 0 0 1 .02-.005.04.04 0 0 1 .018.005h.054l.098.059-.455.26.222.13.428-.244h.075l.098.06-.422.244.233.135.443-.168Zm.363-.564-.195-.422v-.027l.027-.033.092-.054h.081l.904.542-.113.064h-.076l-.542-.319.136.292a.032.032 0 0 1 .003.014.025.025 0 0 1-.003.013l-.07.044h-.087l-.504-.081.542.319-.114.065h-.076l-.91-.541.098-.055a.123.123 0 0 1 .054 0h.043l.71.179Zm1.527-.325H88.1l-.91-.541.114-.065h.081l.904.541-.113.065Zm-.196-1.023a.756.756 0 0 1 .342-.108.582.582 0 0 1 .33.086c.103.06.152.119.14.19-.01.07-.064.135-.178.2l-.227.13.314.179-.114.065a.072.072 0 0 1-.038.011.072.072 0 0 1-.038-.011l-.91-.542v-.027l.38-.173Zm.234.395.216-.124a.237.237 0 0 0 .098-.092c0-.033 0-.065-.065-.092a.236.236 0 0 0-.157-.038.37.37 0 0 0-.157.059l-.217.125.282.162Zm.6-.894a.762.762 0 0 1 .195-.081l.18-.032a.687.687 0 0 1 .156 0l.114.032v.027l-.098.054h-.216a.416.416 0 0 0-.152.06.206.206 0 0 0-.065.043.13.13 0 0 0-.032.049.048.048 0 0 0-.004.019c0 .006.001.013.004.019a.074.074 0 0 0 .032.038.167.167 0 0 0 .07 0 .16.16 0 0 0 .082 0l.108-.033.157-.054a1.13 1.13 0 0 1 .19-.059.994.994 0 0 1 .162-.028.612.612 0 0 1 .135 0 .34.34 0 0 1 .12.049c.038.017.07.045.091.081a.136.136 0 0 1 0 .103.214.214 0 0 1-.065.109.665.665 0 0 1-.146.108.643.643 0 0 1-.173.076.732.732 0 0 1-.357.043.382.382 0 0 1-.152-.043l.103-.055a.064.064 0 0 1 .043 0h.276l.098-.048a.375.375 0 0 0 .124-.098.095.095 0 0 0 0-.048s0-.033-.037-.044a.167.167 0 0 0-.07 0 .354.354 0 0 0-.093 0l-.124.044-.168.059-.168.049h-.14a.472.472 0 0 1-.13 0 .438.438 0 0 1-.13-.054.216.216 0 0 1-.087-.082.155.155 0 0 1 0-.097.257.257 0 0 1 .06-.103.653.653 0 0 1 .108-.103Zm1.354-.763h.076l.574.336c.05.025.097.06.135.102a.204.204 0 0 1 .043.114.19.19 0 0 1-.048.119.555.555 0 0 1-.147.119 1.281 1.281 0 0 1-.205.087.892.892 0 0 1-.206.027.801.801 0 0 1-.38-.103l-.573-.335.114-.065h.075l.569.33a.33.33 0 0 0 .114.043h.108a.328.328 0 0 0 .108 0l.098-.043a.302.302 0 0 0 .075-.06.086.086 0 0 0 .028-.059.087.087 0 0 0 .006-.033.078.078 0 0 0-.007-.032.26.26 0 0 0-.08-.065l-.57-.33.093-.152Zm1.212-.117-.194-.423a.037.037 0 0 1 0-.027v-.032l.092-.054h.075l.91.541-.114.065h-.075l-.542-.319.13.292a.027.027 0 0 1 0 .027l-.07.043h-.072l-.503-.081.541.319-.114.065h-.037a.042.042 0 0 1-.02.005.042.042 0 0 1-.018-.005l-.91-.541.098-.054a.084.084 0 0 1 .054 0h.043l.726.179Z" fill="#E0E0E0"/><path d="M107.574 128.33a.131.131 0 0 1-.059-.014.13.13 0 0 1-.044-.04.12.12 0 0 1 .043-.163l.801-.46a.106.106 0 0 1 .042-.015.114.114 0 0 1 .045.001c.014.004.028.01.04.019s.023.02.03.033a.117.117 0 0 1 .015.089.124.124 0 0 1-.053.074l-.806.46a.103.103 0 0 1-.054.016Zm1.624-.926a.117.117 0 0 1-.067-.027.119.119 0 0 1-.04-.06.126.126 0 0 1 .003-.072.124.124 0 0 1 .044-.057l.807-.466a.12.12 0 0 1 .157.043.126.126 0 0 1-.043.163l-.802.46a.127.127 0 0 1-.081.016h.022Zm1.624-.926a.112.112 0 0 1-.122-.082.119.119 0 0 1 .006-.079.12.12 0 0 1 .056-.055l.802-.466a.119.119 0 0 1 .156.13.123.123 0 0 1-.037.071l-.807.465a.091.091 0 0 1-.044.019.098.098 0 0 1-.048-.003h.038Zm1.624-.925a.13.13 0 0 1-.057-.017.104.104 0 0 1-.04-.043.11.11 0 0 1-.012-.088.11.11 0 0 1 .021-.04.105.105 0 0 1 .034-.029l.801-.466a.115.115 0 0 1 .088-.01c.014.004.028.01.04.02a.105.105 0 0 1 .029.034.091.091 0 0 1 .014.042.113.113 0 0 1-.023.085.122.122 0 0 1-.034.03l-.801.465a.105.105 0 0 1-.057.027.118.118 0 0 1-.062-.01h.059Zm1.624-.932a.113.113 0 0 1-.103-.054.12.12 0 0 1 .044-.162h.043l-.417-.238a.107.107 0 0 1-.051-.071.098.098 0 0 1-.002-.045.102.102 0 0 1 .015-.041.112.112 0 0 1 .069-.058.102.102 0 0 1 .046-.002.108.108 0 0 1 .042.016l.758.439-.384.222-.06-.006Zm-1.174-.925a.151.151 0 0 1-.06 0l-.801-.461a.116.116 0 0 1-.056-.072.123.123 0 0 1 .012-.09.108.108 0 0 1 .031-.033.114.114 0 0 1 .04-.019.114.114 0 0 1 .045-.001.102.102 0 0 1 .041.015l.807.46c.02.014.036.034.044.058a.126.126 0 0 1 .003.072.121.121 0 0 1-.106.087v-.016Zm-1.625-.926a.1.1 0 0 1-.054 0l-.806-.466a.12.12 0 0 1-.044-.157.126.126 0 0 1 .163-.043l.801.466c.025.011.044.03.056.055a.116.116 0 0 1 .007.078.12.12 0 0 1-.046.064.117.117 0 0 1-.077.019v-.016Zm-1.835-.639a.265.265 0 0 1 0-.504.986.986 0 0 1 .872 0 .26.26 0 0 1 .131.097.262.262 0 0 1 0 .31.265.265 0 0 1-.131.097 1 1 0 0 1-.872 0Z" fill="#455A64"/><path d="M97.612 131.069a.206.206 0 0 1 .082-.016.2.2 0 0 1 .08.016l.212.124c.017.011.03.026.038.044v.563a1.691 1.691 0 0 1 .611-.136c.101-.001.201.012.298.038a.916.916 0 0 1 .271.109.536.536 0 0 1 .211.189.28.28 0 0 1 .038.217.506.506 0 0 1-.13.222 1.14 1.14 0 0 1-.27.205 1.831 1.831 0 0 1-.407.179c-.123.037-.25.062-.379.076-.11.014-.22.014-.33 0a.944.944 0 0 1-.254-.076c-.027 0-.038-.027-.038-.043a.066.066 0 0 1 .013-.029.08.08 0 0 1 .025-.02l.232-.135a.12.12 0 0 1 .065 0h.098a.72.72 0 0 0 .114 0h.135a.544.544 0 0 0 .162-.049 1.56 1.56 0 0 0 .195-.092.476.476 0 0 0 .217-.211c0-.071 0-.13-.092-.184a.444.444 0 0 0-.303-.044c-.123.025-.24.071-.347.136l-.249.141a.193.193 0 0 1-.076 0 .185.185 0 0 1-.08 0l-.212-.125a.064.064 0 0 1-.024-.018.068.068 0 0 1-.014-.025.203.203 0 0 1 0-.054v-.488l-.812.466a.165.165 0 0 1-.081.022.165.165 0 0 1-.082-.022l-.21-.119a.05.05 0 0 1-.032-.044c0-.01.002-.02.008-.029a.056.056 0 0 1 .023-.019l1.294-.769Zm2.832-.741.124.07.141.082.141.075.119.076c.095.061.184.132.265.211a.424.424 0 0 1 .119.228.327.327 0 0 1-.076.238 1.01 1.01 0 0 1-.303.244 1.927 1.927 0 0 1-.427.178 1.56 1.56 0 0 1-.796-.027 2.154 2.154 0 0 1-.369-.157l-.265-.141-.249-.151a1.595 1.595 0 0 1-.27-.217.405.405 0 0 1-.12-.227.34.34 0 0 1 .065-.238 1 1 0 0 1 .304-.249c.133-.078.277-.136.427-.174a1.442 1.442 0 0 1 .802.027c.127.038.25.089.368.152Zm-.683.98c.135.071.282.115.434.13a.695.695 0 0 0 .411-.097c.135-.082.195-.163.179-.239a.498.498 0 0 0-.228-.249c-.075-.048-.151-.097-.243-.146l-.255-.141a1.214 1.214 0 0 0-.433-.13.7.7 0 0 0-.411.103c-.136.076-.195.157-.174.233.022.076.093.162.228.249.078.054.16.102.243.146l.25.141Zm.628-1.857a.876.876 0 0 1 .439-.119.744.744 0 0 1 .2 0 .74.74 0 0 1 .173.054l.168.092.157.097a.598.598 0 0 1 .103.098.194.194 0 0 1 .033.119.254.254 0 0 1-.049.124.46.46 0 0 1-.162.125.819.819 0 0 1-.634.092.755.755 0 0 1-.173-.06l-.168-.092-.157-.097a.37.37 0 0 1-.103-.098.163.163 0 0 1-.032-.113.199.199 0 0 1 .048-.125.556.556 0 0 1 .157-.097Zm.823.297-.054-.037-.076-.044-.081-.048-.059-.028a.383.383 0 0 0-.141-.037.256.256 0 0 0-.157.043c-.06.032-.081.065-.076.092.01.033.031.061.06.081l.054.033.076.048.081.044.059.032a.314.314 0 0 0 .298-.011c.06-.032.087-.059.081-.092a.116.116 0 0 0-.024-.045.127.127 0 0 0-.041-.031Zm.433-.942a.079.079 0 0 1 0-.048.13.13 0 0 1 .049-.044l.179-.102h.065a.12.12 0 0 1 .065 0l.46 1.949a.13.13 0 0 1 0 .048s0 .027-.049.044l-.173.102a.165.165 0 0 1-.07 0 .102.102 0 0 1-.06 0l-.466-1.949Zm1.083.504a.861.861 0 0 1 .439-.119.836.836 0 0 1 .2 0 .671.671 0 0 1 .168.059l.168.087.162.103a.43.43 0 0 1 .098.097.168.168 0 0 1 .037.114.243.243 0 0 1-.054.125.559.559 0 0 1-.157.129.834.834 0 0 1-.222.087.79.79 0 0 1-.216.033.836.836 0 0 1-.2 0 .799.799 0 0 1-.168-.06l-.168-.087-.157-.102a.357.357 0 0 1-.103-.098.167.167 0 0 1-.038-.114.271.271 0 0 1 .054-.124.495.495 0 0 1 .136-.13h.021Zm.823.298-.054-.038-.081-.043-.081-.049-.055-.027a.405.405 0 0 0-.14-.038.256.256 0 0 0-.157.043c-.06.033-.087.065-.082.092.006.027.028.054.065.081l.049.038.081.044.082.048.059.027a.405.405 0 0 0 .141.038.267.267 0 0 0 .157-.048c.059-.033.081-.06.076-.093a.137.137 0 0 0-.082-.059l.022-.016Z" fill="#7A6BDE"/><path d="M99.523 134.995h.076l.103.059-.617.358h-.076l-.91-.542v-.027l.114-.065h.076l.769.45.465-.233Zm-.319-.325a.566.566 0 0 1-.114-.103.181.181 0 0 1-.049-.119.205.205 0 0 1 .05-.12.452.452 0 0 1 .145-.119.852.852 0 0 1 .417-.113.868.868 0 0 1 .379.092l.065.032.065.044.065.037.06.033a.555.555 0 0 1 .119.103.195.195 0 0 1 .043.113.2.2 0 0 1-.049.125.56.56 0 0 1-.146.119.886.886 0 0 1-.211.087.803.803 0 0 1-.406 0 .874.874 0 0 1-.179-.065l-.06-.038-.07-.038-.065-.038-.06-.032Zm.65-.369a.482.482 0 0 0-.439.011c-.065.038-.103.076-.103.119 0 .044.027.092.092.13l.114.071.124.065a.42.42 0 0 0 .222.054.416.416 0 0 0 .212-.06c.065-.038.102-.076.102-.124 0-.049-.027-.087-.092-.125l-.113-.07-.12-.071Zm.4-.66a.666.666 0 0 1 .347-.108.584.584 0 0 1 .319.076.274.274 0 0 1 .13.13c.007.024.008.05.002.074a.129.129 0 0 1-.035.066l.542.093-.119.07h-.103l-.509-.081-.19.108.331.189-.114.065h-.076l-.91-.541.385-.141Zm.233.374.2-.114a.285.285 0 0 0 .103-.092c0-.027 0-.059-.06-.092a.257.257 0 0 0-.151-.032.459.459 0 0 0-.157.059l-.206.119.271.152Zm1.776-.601h.076l.097.059-.617.358h-.076l-.91-.542.607-.351h.076l.103.059-.455.26.222.13.422-.244h.076l.103.06-.428.243.238.136.466-.168Zm.363-.542-.195-.422.027-.033.097-.054h.076l.909.542-.113.065h-.076l-.541-.32.135.293v.027l-.076.043h-.086l-.499-.076.542.32-.114.065h-.076l-.909-.542.097-.054a.122.122 0 0 1 .06 0h.038l.704.146Zm1.526-.346h-.076l-.909-.541.113-.065h.076l.91.541-.114.065Zm-.179-1.025a.776.776 0 0 1 .347-.108.604.604 0 0 1 .33.081c.103.06.152.125.141.195-.011.071-.07.13-.184.201l-.227.13.314.178-.114.065h-.038a.05.05 0 0 1-.038 0l-.91-.541.379-.201Zm.233.396.217-.125a.221.221 0 0 0 .097-.092c0-.032 0-.065-.059-.092a.249.249 0 0 0-.157-.038.397.397 0 0 0-.163.06l-.216.124.281.163Zm.585-.892a.618.618 0 0 1 .19-.082l.184-.032a.687.687 0 0 1 .157 0l.113.032-.097.06h-.222a.434.434 0 0 0-.152.059.16.16 0 0 0-.059.044l-.038.043a.054.054 0 0 0 0 .043l.032.038a.143.143 0 0 0 .065 0 .226.226 0 0 0 .082 0l.113-.032.157-.054c.061-.026.125-.046.19-.06a.832.832 0 0 1 .292-.027.35.35 0 0 1 .125.043.232.232 0 0 1 .086.087.132.132 0 0 1 0 .103.288.288 0 0 1-.07.108.47.47 0 0 1-.146.108.668.668 0 0 1-.168.076.735.735 0 0 1-.184.043.843.843 0 0 1-.174 0 .31.31 0 0 1-.151-.043l.097-.054h.304l.102-.049.071-.048a.129.129 0 0 0 .03-.022.106.106 0 0 0 .018-.033.05.05 0 0 0 0-.048.038.038 0 0 0-.011-.023.051.051 0 0 0-.021-.015.138.138 0 0 0-.07 0h-.098l-.124.043-.168.06-.163.048h-.276a.403.403 0 0 1-.124-.054.191.191 0 0 1-.092-.081.116.116 0 0 1-.01-.049c0-.016.003-.033.01-.048a.202.202 0 0 1 .059-.103.339.339 0 0 1 .141-.081Zm1.348-.765h.076l.574.33c.05.03.096.066.135.109a.163.163 0 0 1 .043.113.189.189 0 0 1-.048.12.792.792 0 0 1-.146.119.85.85 0 0 1-.206.081.65.65 0 0 1-.201.032.759.759 0 0 1-.2-.027.74.74 0 0 1-.179-.081l-.579-.33.114-.065h.076l.568.325a.28.28 0 0 0 .114.048h.114a.291.291 0 0 0 .102 0 .39.39 0 0 0 .174-.102.094.094 0 0 0 .032-.06.103.103 0 0 0 0-.065.24.24 0 0 0-.086-.065l-.569-.33.092-.152Zm1.213-.118-.195-.422a.122.122 0 0 1 0-.027v-.033l.097-.054h.076l.91.541-.114.065h-.076l-.541-.319.135.292a.023.023 0 0 1 .004.014.02.02 0 0 1-.004.013l-.076.044h-.086l-.498-.082.541.32-.114.065h-.075l-.91-.542.097-.054a.122.122 0 0 1 .06 0h.038l.731.179Z" fill="#E0E0E0"/><path d="M133.712 114.465a.163.163 0 0 1-.076 0 .069.069 0 0 1 0-.049l.136-.66v-.049a.093.093 0 0 1 .038-.043l.232-.13a.123.123 0 0 1 .076 0 .125.125 0 0 1 .081 0l1.911 1.083s.033.027 0 .043c-.032.016.001.038-.032.049l-.238.14a.163.163 0 0 1-.076 0 .159.159 0 0 1-.081 0l-1.462-.844-.092.433a.042.042 0 0 1-.012.025.043.043 0 0 1-.026.013.212.212 0 0 1-.087 0l-.292-.011Zm3.135-1.695.124.07.141.082.141.081.119.07c.097.061.186.134.265.217a.392.392 0 0 1 .119.222.332.332 0 0 1-.075.238.919.919 0 0 1-.304.243 1.472 1.472 0 0 1-1.223.152 2.112 2.112 0 0 1-.368-.152l-.266-.146c-.092-.054-.178-.103-.249-.151a1.682 1.682 0 0 1-.265-.211.4.4 0 0 1-.125-.233.347.347 0 0 1 .065-.238.972.972 0 0 1 .304-.244 1.5 1.5 0 0 1 .427-.179 1.44 1.44 0 0 1 .802.027c.126.041.249.091.368.152Zm-.677.985c.133.071.278.116.428.13a.685.685 0 0 0 .411-.103c.136-.081.195-.157.179-.238a.545.545 0 0 0-.228-.249l-.243-.146-.255-.141a1.188 1.188 0 0 0-.433-.13.669.669 0 0 0-.406.103c-.141.081-.2.157-.178.238a.538.538 0 0 0 .227.249l.244.146.254.141Zm.623-1.862a.845.845 0 0 1 .222-.086.819.819 0 0 1 .417 0c.06.012.118.032.173.059l.168.092.157.098c.04.025.075.058.103.097a.171.171 0 0 1 .032.114.195.195 0 0 1-.049.124.523.523 0 0 1-.162.13 1.15 1.15 0 0 1-.217.092.983.983 0 0 1-.216.027.622.622 0 0 1-.368-.054l-.173-.092-.157-.097a.532.532 0 0 1-.103-.098.227.227 0 0 1-.033-.119.218.218 0 0 1 .049-.124.567.567 0 0 1 .157-.163Zm.823.298-.054-.038-.076-.043-.081-.043-.06-.033a.405.405 0 0 0-.141-.038.303.303 0 0 0-.157.044c-.059.037-.081.064-.075.092a.127.127 0 0 0 .059.081l.054.038.076.043.081.049h.06c.044.02.092.033.141.038a.342.342 0 0 0 .162-.044c.054-.032.081-.065.076-.092a.128.128 0 0 0-.065-.054Zm.433-.937a.079.079 0 0 1 0-.048.098.098 0 0 1 .049-.049l.178-.103a.143.143 0 0 1 .065 0 .091.091 0 0 1 .065 0l.46 1.949a.135.135 0 0 1 0 .049l-.048.043-.179.103a.105.105 0 0 1-.07 0h-.06l-.46-1.944Zm1.083.499a.834.834 0 0 1 .222-.087 1.349 1.349 0 0 1 .417-.033c.057.015.113.035.167.06l.168.092.163.098a.32.32 0 0 1 .097.097.188.188 0 0 1 .038.114.228.228 0 0 1-.054.124.493.493 0 0 1-.157.13.861.861 0 0 1-.222.092.984.984 0 0 1-.217 0 .836.836 0 0 1-.2 0 .766.766 0 0 1-.168-.054l-.168-.092a1.41 1.41 0 0 1-.157-.097.384.384 0 0 1-.103-.098.164.164 0 0 1-.032-.119.22.22 0 0 1 .049-.125.521.521 0 0 1 .135-.097l.022-.005Zm.823.297-.055-.032-.081-.049-.076-.043-.059-.033a.453.453 0 0 0-.141-.038.312.312 0 0 0-.157.049c-.059.033-.086.06-.081.092a.14.14 0 0 0 .065.076l.054.038.076.043.081.049.06.027a.405.405 0 0 0 .14.038.263.263 0 0 0 .157-.043c.06-.033.082-.065.076-.092a.158.158 0 0 0-.081-.082h.022Z" fill="#7A6BDE"/><path d="M133.712 114.465a.163.163 0 0 1-.076 0 .069.069 0 0 1 0-.049l.136-.66v-.049a.093.093 0 0 1 .038-.043l.232-.13a.123.123 0 0 1 .076 0 .125.125 0 0 1 .081 0l1.911 1.083s.033.027 0 .043c-.032.016.001.038-.032.049l-.238.14a.163.163 0 0 1-.076 0 .159.159 0 0 1-.081 0l-1.462-.844-.092.433a.042.042 0 0 1-.012.025.043.043 0 0 1-.026.013.212.212 0 0 1-.087 0l-.292-.011Zm3.135-1.695.124.07.141.082.141.081.119.07c.097.061.186.134.265.217a.392.392 0 0 1 .119.222.332.332 0 0 1-.075.238.919.919 0 0 1-.304.243 1.472 1.472 0 0 1-1.223.152 2.112 2.112 0 0 1-.368-.152l-.266-.146c-.092-.054-.178-.103-.249-.151a1.682 1.682 0 0 1-.265-.211.4.4 0 0 1-.125-.233.347.347 0 0 1 .065-.238.972.972 0 0 1 .304-.244 1.5 1.5 0 0 1 .427-.179 1.44 1.44 0 0 1 .802.027c.126.041.249.091.368.152Zm-.677.985c.133.071.278.116.428.13a.685.685 0 0 0 .411-.103c.136-.081.195-.157.179-.238a.545.545 0 0 0-.228-.249l-.243-.146-.255-.141a1.188 1.188 0 0 0-.433-.13.669.669 0 0 0-.406.103c-.141.081-.2.157-.178.238a.538.538 0 0 0 .227.249l.244.146.254.141Zm.623-1.862a.845.845 0 0 1 .222-.086.819.819 0 0 1 .417 0c.06.012.118.032.173.059l.168.092.157.098c.04.025.075.058.103.097a.171.171 0 0 1 .032.114.195.195 0 0 1-.049.124.523.523 0 0 1-.162.13 1.15 1.15 0 0 1-.217.092.983.983 0 0 1-.216.027.622.622 0 0 1-.368-.054l-.173-.092-.157-.097a.532.532 0 0 1-.103-.098.227.227 0 0 1-.033-.119.218.218 0 0 1 .049-.124.567.567 0 0 1 .157-.163Zm.823.298-.054-.038-.076-.043-.081-.043-.06-.033a.405.405 0 0 0-.141-.038.303.303 0 0 0-.157.044c-.059.037-.081.064-.075.092a.127.127 0 0 0 .059.081l.054.038.076.043.081.049h.06c.044.02.092.033.141.038a.342.342 0 0 0 .162-.044c.054-.032.081-.065.076-.092a.128.128 0 0 0-.065-.054Zm.433-.937a.079.079 0 0 1 0-.048.098.098 0 0 1 .049-.049l.178-.103a.143.143 0 0 1 .065 0 .091.091 0 0 1 .065 0l.46 1.949a.135.135 0 0 1 0 .049l-.048.043-.179.103a.105.105 0 0 1-.07 0h-.06l-.46-1.944Zm1.083.499a.834.834 0 0 1 .222-.087 1.349 1.349 0 0 1 .417-.033c.057.015.113.035.167.06l.168.092.163.098a.32.32 0 0 1 .097.097.188.188 0 0 1 .038.114.228.228 0 0 1-.054.124.493.493 0 0 1-.157.13.861.861 0 0 1-.222.092.984.984 0 0 1-.217 0 .836.836 0 0 1-.2 0 .766.766 0 0 1-.168-.054l-.168-.092a1.41 1.41 0 0 1-.157-.097.384.384 0 0 1-.103-.098.164.164 0 0 1-.032-.119.22.22 0 0 1 .049-.125.521.521 0 0 1 .135-.097l.022-.005Zm.823.297-.055-.032-.081-.049-.076-.043-.059-.033a.453.453 0 0 0-.141-.038.312.312 0 0 0-.157.049c-.059.033-.086.06-.081.092a.14.14 0 0 0 .065.076l.054.038.076.043.081.049.06.027a.405.405 0 0 0 .14.038.263.263 0 0 0 .157-.043c.06-.033.082-.065.076-.092a.158.158 0 0 0-.081-.082h.022Z" opacity=".2" fill="#000"/><path d="m124.075 121.697-.059-.032a.133.133 0 0 1-.058-.074.132.132 0 0 1 .004-.094.114.114 0 0 1 .103-.059l.736-.428a.109.109 0 0 1 .043-.014.108.108 0 0 1 .044.003.108.108 0 0 1 .04.02c.012.01.022.021.03.034a.128.128 0 0 1 .014.043.114.114 0 0 1-.057.114l-.84.487Zm-.823-.498a.099.099 0 0 1-.059 0l-.801-.465a.123.123 0 0 1-.035-.029.12.12 0 0 1-.023-.086.123.123 0 0 1 .043-.077.12.12 0 0 1 .086-.023.123.123 0 0 1 .042.014l.802.466a.107.107 0 0 1 .059.114.106.106 0 0 1-.016.043.113.113 0 0 1-.043.035.114.114 0 0 1-.055.008Zm2.41-.433a.112.112 0 0 1-.077-.019.116.116 0 0 1-.046-.064.117.117 0 0 1 .007-.078.111.111 0 0 1 .056-.055l.801-.466a.122.122 0 0 1 .08.001c.026.01.047.028.061.051.014.023.02.051.016.078a.114.114 0 0 1-.038.07l-.806.466a.103.103 0 0 1-.054.016Zm-4.017-.492h-.06l-.801-.461a.109.109 0 0 1-.055-.069.114.114 0 0 1-.003-.045.136.136 0 0 1 .014-.043.122.122 0 0 1 .03-.034.113.113 0 0 1 .085-.023.091.091 0 0 1 .042.014l.807.46a.12.12 0 0 1 .043.163.138.138 0 0 1-.047.031.129.129 0 0 1-.055.007Zm5.619-.439a.11.11 0 0 1-.056-.013.115.115 0 0 1-.041-.041.116.116 0 0 1-.014-.089.114.114 0 0 1 .052-.073l.806-.461a.128.128 0 0 1 .043-.014.11.11 0 0 1 .085.024c.012.009.022.02.029.034a.091.091 0 0 1 .014.042.113.113 0 0 1-.023.085.122.122 0 0 1-.034.03l-.801.465c-.022.011-.047.015-.071.011h.011Zm1.624-.926a.108.108 0 0 1-.076-.019.112.112 0 0 1-.039-.142.111.111 0 0 1 .056-.055l.801-.46a.114.114 0 0 1 .157.037.121.121 0 0 1-.038.163l-.806.46a.102.102 0 0 1-.065.016h.01Zm1.625-.925a.126.126 0 0 1-.057-.017.12.12 0 0 1-.055-.086.114.114 0 0 1 .057-.114l.802-.466a.122.122 0 0 1 .082.001c.026.01.048.029.062.054a.114.114 0 0 1 .012.081.11.11 0 0 1-.043.07l-.801.46a.11.11 0 0 1-.07.017h.011Zm1.624-.926a.117.117 0 0 1-.077-.019.12.12 0 0 1-.046-.064.12.12 0 0 1 .007-.079.12.12 0 0 1 .056-.055l.639-.368a.128.128 0 0 1 .043-.014.114.114 0 0 1 .114.057.109.109 0 0 1 .014.043.114.114 0 0 1-.057.114l-.634.368-.059.017Z" fill="#455A64"/><path d="M136.192 117.285h.076l.103.059-.618.358h-.075l-.91-.542.114-.07h.076l.768.449.466-.254Zm-.32-.324a.838.838 0 0 1-.119-.103.198.198 0 0 1-.043-.114.195.195 0 0 1 .049-.124.436.436 0 0 1 .146-.12.843.843 0 0 1 .417-.113.87.87 0 0 1 .379.092l.059.038.071.038.065.037.059.033c.043.03.083.065.119.103a.176.176 0 0 1 0 .238.557.557 0 0 1-.146.119.886.886 0 0 1-.211.087.804.804 0 0 1-.406 0 .87.87 0 0 1-.179-.065l-.059-.033-.071-.043-.065-.038-.065-.032Zm.645-.363a.404.404 0 0 0-.222-.054.41.41 0 0 0-.211.059c-.065.038-.103.076-.103.125s.027.086.092.124l.113.071.125.07a.462.462 0 0 0 .433-.011c.065-.038.103-.076.103-.119s-.027-.092-.092-.13l-.114-.07-.124-.065Zm.406-.666a.722.722 0 0 1 .346-.108.586.586 0 0 1 .32.076.292.292 0 0 1 .13.13c.008.024.009.05.003.075a.148.148 0 0 1-.036.066l.542.092-.119.07h-.103l-.509-.087-.19.109.331.189-.114.07h-.076l-.909-.541a.022.022 0 0 1-.004-.013c0-.005.001-.01.004-.014l.384-.114Zm.233.374.2-.114a.293.293 0 0 0 .103-.092s0-.059-.06-.092a.257.257 0 0 0-.151-.032.584.584 0 0 0-.157.059l-.206.119.271.152Zm1.775-.601h.076l.098.06-.617.357h-.076l-.91-.541.607-.352a.038.038 0 0 1 .019-.004c.006 0 .013.001.018.004h.038l.098.06-.455.259.227.13.423-.243h.076l.102.059-.427.244.232.135.471-.168Zm.363-.564-.195-.422a.061.061 0 0 0 0-.027l.027-.032.098-.055h.076l.909.542-.114.065h-.075l-.542-.32.136.293a.032.032 0 0 1 0 .027l-.076.043h-.087l-.498-.081.542.319-.114.065h-.076l-.909-.541.097-.054a.102.102 0 0 1 .06 0h.037l.704.178Zm1.527-.325h-.076l-.91-.541.114-.065h.076l.909.541-.113.065Zm-.2-1.022a.753.753 0 0 1 .346-.103.54.54 0 0 1 .33.081c.103.06.147.119.141.19-.005.07-.07.135-.184.2l-.227.13.314.179-.119.07h-.076l-.91-.541v-.027l.385-.179Zm.233.395.216-.124a.241.241 0 0 0 .098-.092c0-.033 0-.065-.06-.092a.252.252 0 0 0-.162-.038.504.504 0 0 0-.157.059l-.217.125.282.162Zm.606-.893a.624.624 0 0 1 .189-.082l.184-.032a.687.687 0 0 1 .157 0l.114.038-.103.054a.079.079 0 0 1-.043 0h-.173a.434.434 0 0 0-.152.059.173.173 0 0 0-.06.044.098.098 0 0 0-.037.048.082.082 0 0 0 0 .044c.01.013.023.024.037.032a.143.143 0 0 0 .065 0 .143.143 0 0 0 .082 0l.108-.032.162-.054a.912.912 0 0 1 .19-.06.824.824 0 0 1 .157 0 .509.509 0 0 1 .135 0 .5.5 0 0 1 .125.049.183.183 0 0 1 .086.081.132.132 0 0 1 0 .103.455.455 0 0 1-.216.216.652.652 0 0 1-.168.076.836.836 0 0 1-.184.044.503.503 0 0 1-.173 0 .42.42 0 0 1-.152-.038v-.027l.097-.055h.304l.097-.043a.438.438 0 0 0 .125-.103v-.048a.052.052 0 0 0-.01-.027.048.048 0 0 0-.023-.017.165.165 0 0 0-.07 0h-.098l-.124.044-.168.059-.163.049h-.146a.565.565 0 0 1-.13 0 .38.38 0 0 1-.124-.054.193.193 0 0 1-.092-.082.112.112 0 0 1-.01-.048c0-.017.003-.034.01-.049a.238.238 0 0 1 .054-.103.673.673 0 0 1 .141-.086Zm1.348-.764h.076l.573.336a.47.47 0 0 1 .136.103.195.195 0 0 1 .043.113.19.19 0 0 1-.049.12.581.581 0 0 1-.146.119 1.007 1.007 0 0 1-.206.086.836.836 0 0 1-.2 0 .744.744 0 0 1-.2 0 .722.722 0 0 1-.184-.076l-.574-.335.114-.065h.075l.542.33a.311.311 0 0 0 .113.043.363.363 0 0 0 .114 0 .297.297 0 0 0 .103 0 .383.383 0 0 0 .097-.043.211.211 0 0 0 .076-.059.085.085 0 0 0 .024-.026.1.1 0 0 0 .009-.034.103.103 0 0 0 0-.065.43.43 0 0 0-.087-.065l-.568-.33.119-.152Zm1.229-.118-.195-.422a.061.061 0 0 0 0-.027v-.033l.097-.054h.076l.91.541-.114.065h-.076l-.541-.314.135.287a.023.023 0 0 1 .004.014.02.02 0 0 1-.004.013l-.076.044h-.086l-.498-.082.541.32-.114.065a.07.07 0 0 1-.075 0l-.91-.542.098-.054a.1.1 0 0 1 .054 0h.043l.731.179Z" fill="#E0E0E0"/></svg>