<svg width="316" height="194" fill="none" xmlns="http://www.w3.org/2000/svg"><path d="m308.849 125.287-6.235.133-3.164.052c-1.06.024-2.124 0-3.184.029h-.209v-.214l-.029-5.332v-.237h.238l6.291.028c2.101 0 4.196.053 6.292.076h.133v.133c0 .903-.038 1.801-.062 2.69l-.071 2.642Zm0 0-.067-2.685c-.024-.884-.052-1.758-.062-2.632l.129.133c-2.096.023-4.191.076-6.292.076l-6.291.028.238-.237v5.317l-.214-.209c1.036 0 2.071 0 3.112.024l3.094.08 6.353.105Zm-7.019 6.705-6.234.133-3.17.053c-1.055 0-2.119 0-3.179.028h-.209v-5.768h.238l6.291.033c2.096 0 4.196.052 6.292.076h.133v.128c0 .903-.038 1.801-.062 2.69l-.1 2.627Zm0 0-.066-2.684c-.024-.884-.053-1.759-.062-2.633l.128.133c-2.095.024-4.196.076-6.291.076l-6.292.029.238-.238v5.317l-.214-.209c1.036 0 2.072 0 3.113.024l3.122.057 6.324.128Zm14.037 0-6.234.133-3.165.053c-1.059 0-2.124 0-3.184.028h-.209v-.214l-.028-5.317v-.237h.237l6.292.033c2.1 0 4.196.052 6.291.076H316v.128c0 .903-.042 1.801-.061 2.69l-.072 2.627Zm0 0-.066-2.684c0-.884-.053-1.759-.062-2.633l.128.133c-2.095.024-4.191.076-6.291.076l-6.292.029.238-.238v5.317l-.214-.209c1.041 0 2.072 0 3.113.024l3.126.057 6.32.128ZM129.43 62.017l-6.235.133-3.164.052h-3.393v-.213l-.029-5.318v-.237h.238l6.291.028c2.101 0 4.196.052 6.292.076h.133v.128c0 .903-.043 1.797-.067 2.685l-.066 2.666Zm0 0-.067-2.69c0-.883-.052-1.758-.062-2.627l.129.128c-2.096 0-4.191.076-6.292.076l-6.291.033.238-.237-.024 5.317-.214-.214c1.036 0 2.072 0 3.112.029l3.127.052 6.344.133Zm-7.028 6.704-6.234.133-3.17.052c-1.055 0-2.119 0-3.179.024h-.209v-.214l-.038-5.307v-.238h.238l6.291.028c2.096 0 4.196.053 6.291.076h.133v.133c0 .903-.038 1.797-.061 2.685l-.062 2.628Zm0 0-.067-2.69c-.023-.883-.052-1.758-.061-2.627l.128.128c-2.096.024-4.196.076-6.291.076l-6.292.033.238-.237-.01 5.317-.214-.214c1.036 0 2.072 0 3.113.029l3.122.052 6.334.133Zm14.046 0-6.234.133-3.165.052c-1.059 0-2.119 0-3.183.024h-.21v-.214l-.028-5.307v-.238h.238l6.291.028c2.1 0 4.196.053 6.291.076h.133v.133c0 .903-.042 1.797-.061 2.685l-.072 2.628Zm0 0-.066-2.69c0-.883-.052-1.758-.062-2.627l.128.128c-2.095.024-4.191.076-6.291.076l-6.291.033.237-.237-.024 5.317-.213-.214c1.04 0 2.071 0 3.112.029l3.127.052 6.343.133ZM26.834 97.2l-6.235.132-3.17.053c-1.054 0-2.118 0-3.178.023h-.19V91.64h.237l6.292.028c2.095 0 4.196.052 6.291.076h.133v.129c0 .902-.038 1.796-.062 2.684l-.118 2.642Zm0 0-.067-2.69c0-.884-.052-1.758-.062-2.628l.129.128c-2.096.024-4.196.076-6.292.076l-6.291.034.238-.238-.024 5.317-.214-.214c1.036 0 2.072 0 3.112.029l3.122.052 6.349.133Zm208.595-35.187-6.235.133-3.165.052c-1.059.024-2.124 0-3.183.024h-.209v-.214l-.029-5.317v-.238h.238l6.291.029c2.1 0 4.196.057 6.292.08h.133v.129c0 .903-.038 1.8-.062 2.684l-.071 2.638Zm0 0-.067-2.685c-.024-.889-.052-1.763-.062-2.633l.129.129c-2.096.023-4.192.076-6.292.08l-6.291.03.237-.238-.023 5.317-.214-.214c1.036 0 2.072 0 3.112.028l3.127.053 6.344.133Zm72.693-51.643-6.235.132-3.169.053c-1.055 0-2.119 0-3.179.028h-.209V4.814h.237l6.292.029c2.095 0 4.196.057 6.291.08h.133v.129c0 .903-.038 1.801-.062 2.685l-.099 2.632Zm0 0-.067-2.685c-.024-.889-.052-1.763-.062-2.633l.129.128c-2.096 0-4.196.076-6.292.081l-6.291.029.238-.238-.024 5.317-.214-.213c1.036 0 2.072 0 3.112.028l3.122.052 6.349.133Zm7.018 6.705-6.234.133-3.165.053c-1.06.023-2.124 0-3.184.023h-.209v-.213l-.028-5.318v-.237h.237l6.292.028c2.1 0 4.196.057 6.291.08h.133v.13c0 .902-.043 1.8-.066 2.684l-.067 2.637Zm0 0-.066-2.684c0-.89-.053-1.764-.062-2.633l.128.128c-2.095.024-4.191.076-6.291.081l-6.292.029.238-.238v5.317l-.214-.214c1.036 0 2.072 0 3.113.029l3.126.052 6.32.133Zm-302.343-6.7-6.24.133-3.164.053c-1.055 0-2.12 0-3.18.028H0V4.82h.242l6.292.034c2.095 0 4.19.052 6.291.076h.128v.128c0 .903-.042 1.8-.061 2.69l-.095 2.627Zm0 0-.072-2.685c0-.888-.052-1.763-.061-2.632l.133.128c-2.1.029-4.196.076-6.292.081l-6.291.028.237-.237-.028 5.317-.21-.185h3.109l3.126.052 6.349.133ZM262.518 149.84a.889.889 0 0 1 .333.347.887.887 0 0 1 .1.471v.551a.883.883 0 0 1-.433.817l-.988.57 1.858 3.222.988-.57a.88.88 0 0 1 .951.033c.153.1.312.192.475.276a.871.871 0 0 1 .475.784v1.154h3.721v-1.14a.88.88 0 0 1 .475-.784c.164-.082.323-.174.475-.276a.882.882 0 0 1 .95-.033l.989.57 1.858-3.221-.993-.575a.876.876 0 0 1-.428-.813v-.551a.881.881 0 0 1 .432-.818l.989-.57-1.858-3.221-.984.57a.879.879 0 0 1-.95-.033 7.758 7.758 0 0 0-.475-.276.871.871 0 0 1-.347-.326.873.873 0 0 1-.128-.458v-1.141h-3.721v1.141a.885.885 0 0 1-.475.784 5.028 5.028 0 0 0-.476.276.877.877 0 0 1-.95.033l-.988-.57-1.858 3.221.983.556Zm5.612-1.953a3.045 3.045 0 1 1 0 6.09 3.045 3.045 0 0 1 0-6.09Z" fill="#EBEBEB"/><path d="M279.036 127.322a14.477 14.477 0 0 0 17.312 14.185 14.478 14.478 0 1 0-17.312-14.185Zm7.717 0a6.776 6.776 0 0 1 4.171-6.259 6.771 6.771 0 0 1 9.232 4.929 6.766 6.766 0 0 1-6.641 8.087 6.767 6.767 0 0 1-6.762-6.757Z" fill="#EBEBEB"/><path d="M290.73 113.441h5.569l-.309-3.944h-4.951l-.309 3.944Zm10.601 1.877 3.935 3.934 2.571-3.003-3.503-3.502-3.003 2.571Zm6.168 8.82v5.569l3.94-.309v-4.951l-3.94-.309Zm-1.877 10.595-3.939 3.94 3.008 2.57 3.502-3.502-2.571-3.008Zm-8.824 6.168h-5.564l.309 3.944h4.951l.304-3.944Zm-10.596-1.875-3.94-3.934-2.566 3.003 3.502 3.502 3.004-2.571Zm-6.168-8.821v-5.569l-3.94.309v4.951l3.94.309Zm1.877-10.596 3.939-3.94-3.008-2.57-3.502 3.502 2.571 3.008Zm1.962-86.135c-1.226.276-2.176-.475-2.176-1.625a1.664 1.664 0 0 1 1.107-1.62c3.84-1.189 4.395-2.415 4.395-5.104 0-.794-.08-2.096-.08-2.927 0-3.089 1.463-4.552 4.115-5.422-2.614-.832-4.115-2.338-4.115-5.422 0-.831.08-2.138.08-2.927 0-2.69-.555-3.92-4.395-5.103a1.676 1.676 0 0 1-1.107-1.625c0-1.146.95-1.901 2.176-1.62 6.135 1.344 7.755 3.8 7.755 7.635 0 .594-.081 2.177-.081 2.851 0 2.932 1.032 4.196 3.721 4.315 1.269.08 2.02.832 2.02 1.9 0 1.07-.751 1.82-2.02 1.901-2.689.081-3.721 1.388-3.721 4.277 0 .67.081 2.253.081 2.851 0 3.863-1.62 6.301-7.755 7.665ZM276.199.059c1.226-.28 2.172.475 2.172 1.62a1.647 1.647 0 0 1-1.146 1.625c-3.801 1.183-4.352 2.414-4.352 5.104 0 .788.081 2.095.081 2.927 0 3.084-1.464 4.552-4.116 5.421 2.609.832 4.116 2.334 4.116 5.422 0 .832-.081 2.134-.081 2.927 0 2.69.556 3.916 4.352 5.104a1.643 1.643 0 0 1 1.146 1.62c0 1.15-.951 1.9-2.172 1.625-6.135-1.344-7.76-3.801-7.76-7.679 0-.594.081-2.176.081-2.85 0-2.89-1.069-4.197-3.759-4.277-1.226-.076-1.976-.827-1.976-1.901s.75-1.82 1.976-1.9c2.69-.12 3.759-1.383 3.759-4.315 0-.67-.081-2.253-.081-2.851 0-3.826 1.625-6.278 7.76-7.622ZM25.127 90.656a1.61 1.61 0 0 1-1.121 2.761 1.716 1.716 0 0 1-1.178-.475l-7.19-7.275a.2.2 0 0 1-.128-.157.628.628 0 0 0-.081-.052.893.893 0 0 1-.076-.204.128.128 0 0 1-.076-.1c0-.052 0-.128-.052-.157-.053-.028-.053-.1-.053-.128v-.637c0-.052.053-.076.053-.105 0-.028.028-.123.052-.204.024-.08 0 0 0-.047a2.29 2.29 0 0 1 .128-.233.052.052 0 0 1 .053-.052.442.442 0 0 1 .156-.176l7.19-7.294a1.658 1.658 0 0 1 2.3 0 1.615 1.615 0 0 1 0 2.3l-6.04 6.12 6.063 6.115Zm6.515.817 6.273-14.92a1.425 1.425 0 0 1 1.867-.742 1.383 1.383 0 0 1 .718 1.815l-6.273 14.95a1.425 1.425 0 0 1-1.306.84 1.212 1.212 0 0 1-.509-.1 1.387 1.387 0 0 1-.77-1.843Zm21.241-6.016v.029a1.612 1.612 0 0 1-.18.18l-7.19 7.295a1.668 1.668 0 0 1-1.155.475 1.65 1.65 0 0 1-1.15-.475 1.621 1.621 0 0 1 0-2.305l6.064-6.116-6.064-6.12a1.615 1.615 0 0 1 0-2.3 1.663 1.663 0 0 1 2.305 0l7.19 7.294c.066.051.127.11.18.176v.052c.048.075.09.153.128.233 0 .024.029.024.029.048.016.08.04.157.071.233 0 .023.029.023.029.075v.181c0 .024.028.1.028.128 0 .029-.029.1-.029.124v.204c0 .029-.028.029-.028.053-.047.104-.047.18-.071.232-.024.053-.029.024-.029.076 0 .053-.076.129-.128.228Z" fill="#EBEBEB"/><path d="m3.949 193.252 38.523-.114 38.523-.043 77.045-.08 77.046.08 38.523.043 38.523.114-38.523.119-38.523.043-77.046.076-77.045-.081-38.523-.038-38.523-.119Z" fill="#263238"/><path d="M302.263 182.747H13.813v10.506h288.45v-10.506Z" fill="#C7C7C7"/><path d="M272.464 29.672H43.621V182.75h228.843V29.671Z" fill="#DBDBDB"/><path d="M270.801 31.54H45.285v149.344H270.8V31.539Z" fill="#37474F"/><path d="M260.812 41.138H55.268V171.28h205.544V41.138Z" fill="#263238"/><path d="M260.812 41.138H55.268v5.008h205.544v-5.008Z" fill="#7A6BDE"/><path d="M59.982 43.642a.95.95 0 1 1-1.902 0 .95.95 0 0 1 1.902 0Z" fill="#C7C7C7"/><path d="M63.855 43.642a.95.95 0 1 1-1.902 0 .95.95 0 0 1 1.902 0Z" fill="#fff"/><path d="M67.723 43.642a.95.95 0 1 1-1.902 0 .95.95 0 0 1 1.902 0Z" fill="#455A64"/><path d="M73.125 68.394h-4.723v.927h4.723v-.927Zm110.257 0H78.699v.927h104.683v-.927Z" fill="#EBEBEB"/><path d="M195.256 68.394h-8.971v.927h8.971v-.927Z" fill="#7A6BDE"/><path d="M230.919 90.233H200.64v.922h30.279v-.922Z" fill="#EBEBEB"/><path d="M241.653 68.394h-44.448v.927h44.448v-.927Z" fill="#A6A6A6"/><path d="M73.125 72.76h-4.723v.927h4.723v-.926Z" fill="#EBEBEB"/><path d="M118.852 72.76H83.299v.927h35.553v-.926Zm79.655 17.473h-13.448v.922h13.448v-.922Zm-85.851-4.366H78.699v.927h33.957v-.927Z" fill="#A6A6A6"/><path d="M107.12 77.133H83.299v.926h23.821v-.926Z" fill="#7A6BDE"/><path d="M237.41 81.499h-45.128v.922h45.128v-.922Zm-54.028 21.437h-45.128v.921h45.128v-.921Zm14.939-25.803h-88.554v.926h88.554v-.926Z" fill="#A6A6A6"/><path d="M181.989 90.233H78.699v.922h103.29v-.922Z" fill="#7A6BDE"/><path d="M194.254 72.76h-73.169v.927h73.169v-.926Zm23.17 4.373h-15.32v.926h15.32v-.926Zm-144.299 0h-4.723v.926h4.723v-.926Z" fill="#EBEBEB"/><path d="M73.125 81.499h-4.723v.922h4.723v-.922Z" fill="#A6A6A6"/><path d="M106.611 81.499H78.699v.922h27.912v-.922Zm4.6 13.101H83.299v.927h27.912v-.926Z" fill="#EBEBEB"/><path d="M224.822 98.968h-38.965v.926h38.965v-.926Z" fill="#7A6BDE"/><path d="M183.415 98.968h-74.874v.926h74.874v-.926Z" fill="#EBEBEB"/><path d="M104.278 98.968h-20.98v.926h20.98v-.926Z" fill="#A6A6A6"/><path d="M195.252 85.867h-80.677v.927h80.677v-.927Z" fill="#EBEBEB"/><path d="M245.341 85.867h-48.136v.927h48.136v-.927Zm-55.255-4.368h-80.643v.922h80.643v-.922Z" fill="#7A6BDE"/><path d="M73.125 85.867h-4.723v.927h4.723v-.927Zm0 4.366h-4.723v.922h4.723v-.922Z" fill="#EBEBEB"/><path d="M73.125 94.6h-4.723v.927h4.723v-.926Z" fill="#A6A6A6"/><path d="M73.125 98.968h-4.723v.926h4.723v-.926Zm0 3.968h-4.723v.921h4.723v-.921Zm60.947 0H78.699v.921h55.373v-.921Zm-60.947 4.367h-4.723v.926h4.723v-.926Z" fill="#EBEBEB"/><path d="M118.852 107.303H83.299v.926h35.553v-.926Zm-6.196 13.099H78.699v.922h33.957v-.922Z" fill="#A6A6A6"/><path d="M107.12 111.668H83.299v.927h23.821v-.927Zm54.555 17.473h-23.821v.926h23.821v-.926Zm-54.555 8.734H83.299v.927h23.821v-.927Z" fill="#7A6BDE"/><path d="M198.321 111.668h-88.554v.927h88.554v-.927Z" fill="#A6A6A6"/><path d="M181.989 124.77H78.699v.926h103.29v-.926Z" fill="#7A6BDE"/><path d="M194.254 107.303h-73.169v.926h73.169v-.926Zm15.495 8.733h-15.291v.927h15.291v-.927Zm-136.624-4.368h-4.723v.927h4.723v-.927Z" fill="#EBEBEB"/><path d="M73.125 116.036h-4.723v.927h4.723v-.927Z" fill="#A6A6A6"/><path d="M106.611 116.036H78.699v.927h27.912v-.927Zm88.641 4.366h-80.677v.922h80.677v-.922Z" fill="#EBEBEB"/><path d="M190.086 116.036h-80.643v.927h80.643v-.927Z" fill="#7A6BDE"/><path d="M73.125 120.402h-4.723v.922h4.723v-.922Zm0 8.739h-4.723v.926h4.723v-.926Zm60.947 0H78.699v.926h55.373v-.926Zm-60.947 4.368h-4.723v.926h4.723v-.926Z" fill="#EBEBEB"/><path d="M118.852 133.509H83.299v.926h35.553v-.926Zm-6.196 13.1H78.699v.927h33.957v-.927Zm85.665-8.734h-88.554v.927h88.554v-.927Z" fill="#A6A6A6"/><path d="M209.749 142.242h-15.291v.927h15.291v-.927Zm-136.624-4.367h-4.723v.927h4.723v-.927Z" fill="#EBEBEB"/><path d="M73.125 142.242h-4.723v.927h4.723v-.927Z" fill="#A6A6A6"/><path d="M106.611 142.242H78.699v.927h27.912v-.927Zm88.641 4.367h-80.677v.927h80.677v-.927Z" fill="#EBEBEB"/><path d="M190.086 142.242h-80.643v.927h80.643v-.927Z" fill="#7A6BDE"/><path d="M73.125 146.609h-4.723v.927h4.723v-.927Z" fill="#EBEBEB"/><path d="M70.692 60.083a.317.317 0 0 1 0 .475.328.328 0 0 1-.223.095.338.338 0 0 1-.233-.095l-1.425-1.45a.033.033 0 0 1-.029-.028.219.219 0 0 1 0-.043v-.204s0-.033.024-.048a.071.071 0 0 1 .033-.033l1.426-1.425a.328.328 0 0 1 .475 0 .318.318 0 0 1 0 .475l-1.207 1.216 1.16 1.065Zm1.298.167 1.245-2.966a.28.28 0 0 1 .46-.087.271.271 0 0 1 .053.301l-1.24 2.97a.286.286 0 0 1-.262.17.194.194 0 0 1-.1 0 .27.27 0 0 1-.156-.389Zm4.224-1.193-.038.034-1.425 1.449a.325.325 0 0 1-.368.077.325.325 0 0 1-.108-.077.318.318 0 0 1 0-.475l1.207-1.217-1.207-1.216a.318.318 0 0 1 0-.475.33.33 0 0 1 .476 0l1.425 1.425.038.033v.048a.27.27 0 0 0 0 .048v.104a.47.47 0 0 0 0 .047.425.425 0 0 0 0 .195Z" fill="#7A6BDE"/><path d="M284.324 36.47h-48.991v31.253h48.991V36.471Z" fill="#fff"/><path d="M284.633 68.032H235.02v-31.87h49.609l.004 31.87Zm-48.991-.617h48.369V36.799h-48.369v30.616Z" fill="#EBEBEB"/><path d="M284.324 36.47h-48.991v5.912h48.991v-5.911Z" fill="#7A6BDE"/><path d="M284.633 42.691H235.02v-6.529h49.609l.004 6.53Zm-48.991-.618h48.369V36.8h-48.369v5.274Zm8.145 11.993a6.047 6.047 0 0 1 6.044-5.925 6.175 6.175 0 0 1 3.801 1.283.947.947 0 0 1 .114 1.282.948.948 0 0 1-1.268.22 4.092 4.092 0 0 0-2.647-.908 4.372 4.372 0 0 0-2.965 1.183 4.073 4.073 0 0 0-1.202 2.851 4.006 4.006 0 0 0 1.202 2.851 4.372 4.372 0 0 0 2.965 1.183 4.155 4.155 0 0 0 2.647-.903.996.996 0 0 1 1.316.181.95.95 0 0 1-.162 1.316 6.175 6.175 0 0 1-3.801 1.283 6.025 6.025 0 0 1-6.044-5.897Zm12.839 3.061a.86.86 0 0 1 1.202-.114 5.375 5.375 0 0 0 3.146 1.269 3.562 3.562 0 0 0 2.058-.609 1.485 1.485 0 0 0 .703-1.188.907.907 0 0 0-.148-.522 1.464 1.464 0 0 0-.475-.475 6.534 6.534 0 0 0-2.252-.775h-.033a8.948 8.948 0 0 1-2.124-.642 3.523 3.523 0 0 1-1.53-1.287 2.524 2.524 0 0 1-.381-1.35 3.056 3.056 0 0 1 1.317-2.376 4.872 4.872 0 0 1 2.851-.874c1.577 0 2.746.775 3.587 1.316a.85.85 0 0 1 .228 1.17.83.83 0 0 1-1.169.246c-.836-.56-1.644-1.055-2.646-1.055a3.147 3.147 0 0 0-1.844.561 1.309 1.309 0 0 0-.627 1.036.794.794 0 0 0 .114.475c.121.17.272.317.447.433.633.37 1.331.615 2.057.722h.033c.782.139 1.544.37 2.272.689a3.884 3.884 0 0 1 1.644 1.368c.258.42.395.904.394 1.397a3.167 3.167 0 0 1-1.425 2.552 5.118 5.118 0 0 1-3.041.95 7.093 7.093 0 0 1-4.215-1.648.868.868 0 0 1-.347-.604.882.882 0 0 1 .204-.665Zm10.815 0a.86.86 0 0 1 1.202-.114 5.364 5.364 0 0 0 3.141 1.269 3.56 3.56 0 0 0 2.058-.609 1.476 1.476 0 0 0 .708-1.188.913.913 0 0 0-.147-.522 1.52 1.52 0 0 0-.476-.475 6.535 6.535 0 0 0-2.252-.775h-.066a8.915 8.915 0 0 1-2.125-.641 3.529 3.529 0 0 1-1.53-1.288 2.532 2.532 0 0 1-.38-1.35 3.044 3.044 0 0 1 1.317-2.376 4.86 4.86 0 0 1 2.851-.874c1.582 0 2.751.775 3.592 1.316a.86.86 0 0 1 0 1.409.836.836 0 0 1-.941.007c-.841-.56-1.644-1.054-2.651-1.054a3.16 3.16 0 0 0-1.844.56 1.32 1.32 0 0 0-.623 1.036.808.808 0 0 0 .114.475c.12.172.272.319.447.433.633.37 1.332.616 2.058.722h.028c.784.138 1.548.37 2.276.689a3.877 3.877 0 0 1 1.644 1.368c.259.42.395.904.395 1.397a3.19 3.19 0 0 1-1.426 2.552 5.145 5.145 0 0 1-3.046.95 7.126 7.126 0 0 1-4.214-1.648.862.862 0 0 1-.329-.611.873.873 0 0 1 .219-.658Z" fill="#EBEBEB"/><path d="M239.8 39.469a.954.954 0 0 1-.587.878.949.949 0 0 1-.891-1.668.95.95 0 0 1 1.478.79Z" fill="#C7C7C7"/><path d="M243.673 39.469a.954.954 0 0 1-.587.878.95.95 0 1 1 .587-.878Z" fill="#fff"/><path d="M247.541 39.469a.954.954 0 0 1-.587.878.949.949 0 0 1-1.242-1.242.953.953 0 0 1 1.551-.308.95.95 0 0 1 .278.672Zm-4.781-24.804h-33.372V27.02h33.372V14.665Z" fill="#455A64"/><path d="M214.207 23.404v-5.48a.488.488 0 0 1 .146-.362.495.495 0 0 1 .362-.146.508.508 0 0 1 .523.509v2.242h2.404v-2.242a.494.494 0 0 1 .148-.364.498.498 0 0 1 .365-.145.511.511 0 0 1 .518.509v5.479a.514.514 0 0 1-.716.476.511.511 0 0 1-.315-.476v-2.23h-2.404v2.23a.52.52 0 0 1-.154.366.51.51 0 0 1-.369.147.503.503 0 0 1-.508-.514Zm10.558-4.957h-1.473v4.957a.504.504 0 0 1-.131.394.516.516 0 0 1-.588.124.516.516 0 0 1-.303-.518v-4.957h-1.468a.522.522 0 0 1-.475-.324.501.501 0 0 1-.038-.198.511.511 0 0 1 .036-.198.51.51 0 0 1 .28-.276.496.496 0 0 1 .197-.035h3.963a.508.508 0 0 1 .513.509.525.525 0 0 1-.513.522Zm7.637-.523v5.48a.524.524 0 0 1-.518.513.513.513 0 0 1-.514-.514v-3.91l-1.335 1.858a.503.503 0 0 1-.418.213.517.517 0 0 1-.428-.213l-1.33-1.858v3.91a.519.519 0 0 1-1.031 0v-5.479a.513.513 0 0 1 .513-.508h.028a.511.511 0 0 1 .409.21l1.848 2.565 1.849-2.566a.504.504 0 0 1 .772-.055c.095.095.15.221.155.354Zm2.247 5.479v-5.479a.506.506 0 0 1 .513-.508.511.511 0 0 1 .518.508v4.961h2.519a.52.52 0 0 1 .334.864.52.52 0 0 1-.334.168h-3.037a.515.515 0 0 1-.513-.514Z" fill="#fff"/><path d="M163.961 182.822c-1.345.518-40.338 1.226-41.863.357-.167-.1-.124-1.82-.694-6.273-.029-.214-.922-1.04-2.309-2.205-5.227-4.371-17.468-13.585-17.468-13.585l19.482-16.907 18.86 18.532 4.904 4.818s15.933 8.606 17.511 9.742c1.577 1.135 2.922 5.008 1.577 5.521Z" fill="#DD6A57"/><path d="M163.961 182.823c-1.344.518-40.338 1.226-41.863.356-.166-.1-.119-1.82-.699-6.272-.023-.214-.912-1.036-2.304-2.205-1.815-1.521-2.676-2.215-5.375-4.315l24.743-9.09 1.483 1.454 4.904 4.823s15.932 8.601 17.51 9.736c1.578 1.136 2.946 4.999 1.601 5.513Z" fill="#EBEBEB"/><path d="M166.646 183.36c-1.354.475-42.899.927-44.396 0-.352-.219-.675-2.633-.95-5.94-.034-.413-4.244-3.777-4.819-4.4l25.46-8.553 3.217 3.022s18.737 8.72 20.267 9.907c1.53 1.188 2.594 5.494 1.221 5.964Z" fill="#7A6BDE"/><path d="M166.071 181.81c-6.529-.085-35.482.195-41.939.609-.053 0-.053.038 0 .038 6.467.228 35.42-.267 41.939-.537.138-.01.138-.105 0-.11Zm-18.817-14.055c-2.576-.446-5.702 0-7.65 1.834-.077.072.028.176.109.152a36.165 36.165 0 0 1 7.531-1.663.157.157 0 0 0 .116-.044.165.165 0 0 0 .051-.112.163.163 0 0 0-.157-.167Zm1.868 1.098c-2.576-.452-5.703 0-7.651 1.834-.076.071.024.176.109.147a36.086 36.086 0 0 1 7.532-1.658.16.16 0 0 0 .166-.157.154.154 0 0 0-.044-.115.157.157 0 0 0-.112-.051Zm1.862 1.093c-2.57-.447-5.702 0-7.65 1.834-.071.071.028.176.114.152a36.096 36.096 0 0 1 7.532-1.663.162.162 0 0 0 .118-.274.159.159 0 0 0-.114-.049Zm1.868 1.097c-2.571-.451-5.702 0-7.651 1.834-.076.072.029.176.114.148a36.025 36.025 0 0 1 7.532-1.659.16.16 0 0 0 .115-.045.163.163 0 0 0 .003-.229.165.165 0 0 0-.113-.049Z" fill="#263238"/><path d="M151.925 161.772c-1.022-1.378-2.894-.732-3.958.181a13.693 13.693 0 0 0-3.887 5.93.056.056 0 0 0-.004.031.064.064 0 0 0 .035.051c.009.005.02.008.03.008a.324.324 0 0 0 .409.318c2.11-.812 4.467-1.425 6.268-2.851 1.045-.845 2.076-2.376 1.107-3.668Zm-4.424 4.633c-1.031.423-2.072.794-3.089 1.259.765-1.154 1.473-2.338 2.348-3.416.414-.524.863-1.02 1.344-1.483.756-.708 3.764-2.219 3.327.604-.214 1.544-2.704 2.523-3.93 3.026v.01Z" fill="#263238"/><path d="M137.546 167.28c2.129.875 4.562.803 6.814.993a.32.32 0 0 0 .304-.418.078.078 0 0 0 .026-.017.092.092 0 0 0 .016-.027.065.065 0 0 0 .002-.031.067.067 0 0 0-.01-.029 13.66 13.66 0 0 0-5.379-4.614c-1.274-.585-3.255-.685-3.854.922-.57 1.515.841 2.708 2.081 3.221Zm-1.178-1.82c-1.188-2.594 2.119-1.976 3.041-1.506.592.311 1.162.664 1.706 1.055 1.111.82 2.18 1.695 3.202 2.623-1.102-.162-2.209-.228-3.326-.347-1.307-.147-3.972-.394-4.623-1.825Z" fill="#263238"/><path d="m140.212 161.71-24.054 12.469s-25.06-22.685-27.356-22.856c-2.295-.171-36.01 22.709-52.983 22.804-17.581.076-18.47-18.342-18.47-18.342l25.66-5.892c18.484-9.11 37.739-25.47 50.336-23.945 13.661 1.635 46.867 35.762 46.867 35.762Z" fill="#455A64"/><path d="M134.338 158.536c-4.062 2.01-2.922 1.378-6.961 3.431-1.977 1.002-11.922 6.02-13.614 7.261-.033.028 0 .095.043.08 1.986-.665 11.822-5.897 13.78-6.937 4.001-2.124 2.851-1.554 6.809-3.721a.062.062 0 0 0 .02-.015.048.048 0 0 0 .012-.022.05.05 0 0 0 .003-.024.048.048 0 0 0-.006-.024.062.062 0 0 0-.015-.02.053.053 0 0 0-.022-.012.069.069 0 0 0-.025-.004.073.073 0 0 0-.024.007Zm-22.438 9.889c-4.704-4.144-20.114-17.643-20.736-18.147a8.366 8.366 0 0 0-1.606-1.202 1.707 1.707 0 0 0-1.483.118c-.713.333-1.426.699-2.12 1.041l-4.167 2.034c-5.388 2.628-10.748 5.327-16.18 7.874-5.227 2.442-8.952 4.751-14.407 6.652a81.624 81.624 0 0 1-16.708 3.973c-.703.085-1.406.161-2.11.228a.043.043 0 0 0-.02.015.045.045 0 0 0-.008.025c0 .009.003.018.008.025a.045.045 0 0 0 .02.016 67.588 67.588 0 0 0 16.47-3.065c5.403-1.659 9.067-3.802 14.204-6.178 5.317-2.447 10.558-5.065 15.8-7.674 2.77-1.373 5.53-2.765 8.306-4.125.632-.304 1.525-.974 2.247-.646.3.17.578.376.827.613l.95.77c1.188.988 20.077 17.259 20.694 17.724 0 .038.067-.023.019-.071Z" fill="#263238"/><path d="M17.302 155.761s-2.852 16.631 5.44 23.165c8.292 6.534 69.248 5.745 78.481 2.756 9.233-2.989 9.537-17.905-.57-21.359-9.613-3.303-50.479-4.885-51.514-5.289-.252-.1 3.63-2.428 3.611-2.571l-9.304-2.851-26.144 6.149Z" fill="#455A64"/><path d="M29.922 155.338c0-.071-.119-.048-.119 0a8.225 8.225 0 0 1-1.9 5.284c-1.426 1.635-3.502 2.552-5.394 3.507-.18.09-.043.375.143.318a16.43 16.43 0 0 0 3.326-1.425 8.087 8.087 0 0 0 2.514-2.091 7.185 7.185 0 0 0 1.43-5.593Zm18.551-2.056c-.423-.542-.883-1.055-1.325-1.578-1.041-1.24-2.087-2.485-3.18-3.678-.1-.114-.304.048-.209.171.737.951 1.512 1.901 2.277 2.828l1.183 1.425a9.21 9.21 0 0 1 1.107 1.426c.285.532-.09.988-.646 1.045a1.903 1.903 0 0 1-1.326-.475 17.768 17.768 0 0 1-2.257-2.409c-.437-.476-.88-.989-1.321-1.473-.442-.485-.979-1.013-1.454-1.53-.029-.034-.086 0-.062.052.413.565.794 1.154 1.207 1.725.413.57.836 1.126 1.26 1.682.422.556.821 1.04 1.254 1.549a5.26 5.26 0 0 0 1.268 1.136c.79.475 2.162.565 2.585-.476a1.424 1.424 0 0 0-.36-1.42Z" fill="#263238"/><path d="M99.96 181.731c-3.18.057-6.363.242-9.547.309a318.652 318.652 0 0 1-28.478-.68c-6.396-.442-13.305-1.079-19.639-1.962-3.041-.419-6.12-.77-9.123-1.426a14.41 14.41 0 0 1-7.2-3.678c-4.114-3.987-5.701-9.855-6.367-15.457a59.69 59.69 0 0 1-.223-2.262c0-.048-.08-.048-.076 0 .37 5.745 1.264 11.737 4.88 16.355a14.327 14.327 0 0 0 5.887 4.572c2.851 1.14 6.002 1.425 9.029 1.815 6.377.865 13.305 1.535 19.71 2.029 6.406.494 12.925.812 19.397.907 6.472.096 12.954 0 19.416-.313a69.097 69.097 0 0 0 2.376-.152.043.043 0 0 0 .006-.022.044.044 0 0 0-.007-.022.048.048 0 0 0-.019-.013.044.044 0 0 0-.023 0Zm-20.068-24.439c-2-.295-4-.58-6.016-.794a278.934 278.934 0 0 0-6.11-.565c-4.03-.343-8.078-.647-12.113-.837-2.295-.109-4.59-.119-6.885-.09-.076 0-.071.104 0 .114 4.039.366 8.078.618 12.131.889 4.054.27 8.078.622 12.103 1.007 2.286.219 4.571.385 6.857.57a.147.147 0 0 0 .164-.131.149.149 0 0 0-.031-.109.149.149 0 0 0-.1-.054Z" fill="#263238"/><path d="M53.225 152.269a31.312 31.312 0 0 0-4.637 2.48 37.043 37.043 0 0 0-4.277 3.003c-.038.034 0 .081.047.062 1.573-.727 3.09-1.639 4.586-2.509a44.285 44.285 0 0 0 4.395-2.822c.081-.081.02-.276-.114-.214Zm-7.635-16.632-3.969-.646a12.312 12.312 0 0 1 .076-7.489c.176-.556-1.777 2.471-2.09 7.166-4.191-.67-9.889-1.583-14.855-2.428.262-1.953.414-3.773.414-3.773a21.719 21.719 0 0 1-1.497 3.597l-1.982-.342c.699-2.98 1.155-8.306 1.155-8.306a26.853 26.853 0 0 1-3.977 7.807c-3.146-.57-5.227-.998-5.046-1.126 5.763-4.576 2.85-8.364 5.098-12.921 2.69-5.459 7.822-5.459 8.473-9.812.537-3.54 1.278-10.007 5.977-10.55a8.71 8.71 0 0 1 9.623-.066c6.529 3.987 1.748 14.327 1.82 16.632.1 3.278 1.397 4.666 1.853 8.467.456 3.802-1.63 5.964-2.276 8.397-.646 2.433 1.986 5.517 1.202 5.393Z" fill="#263238"/><path d="M13.819 129.294a12.437 12.437 0 0 0 2.095-2.799c.56-1.008.608-2.134.599-3.326-.04-1.197-.02-2.394.062-3.588a9.35 9.35 0 0 1 1.017-3.559 8.153 8.153 0 0 1 2.47-2.77 21.618 21.618 0 0 1 3.127-1.797 13.467 13.467 0 0 0 2.927-1.853 6.405 6.405 0 0 0 1.84-2.917 6 6 0 0 1-1.54 3.24 11.983 11.983 0 0 1-2.894 2.162 26.75 26.75 0 0 0-2.942 1.873 7.751 7.751 0 0 0-2.166 2.523 9.15 9.15 0 0 0-.95 3.217c-.143 1.14-.143 2.309-.205 3.507a11.98 11.98 0 0 1-.219 1.815 5.279 5.279 0 0 1-.727 1.715 10.213 10.213 0 0 1-2.494 2.557Zm32.402-27.774c.239 1.446.3 2.915.18 4.376-.085 1.459-.242 2.913-.413 4.357l-.237 2.158a10.718 10.718 0 0 0-.057 2.095 11.675 11.675 0 0 0 1.25 3.992c.312.678.58 1.377.802 2.091.212.732.345 1.486.395 2.247.022.752-.012 1.505-.1 2.253a9.3 9.3 0 0 1-.527 2.2c-.267.712-.6 1.368-.899 2.014-.3.645-.538 1.316-.712 2.006a4.458 4.458 0 0 0 1.06 3.948 4.537 4.537 0 0 1-1.502-4.034c.121-.736.319-1.457.59-2.152.256-.699.56-1.35.764-2.02a11.59 11.59 0 0 0 .433-4.158 10.282 10.282 0 0 0-.39-2.038 15.858 15.858 0 0 0-.78-1.972 20.526 20.526 0 0 1-.831-2.063 9.228 9.228 0 0 1-.447-2.247 11.79 11.79 0 0 1 .124-2.257c.095-.727.214-1.45.333-2.167.232-1.426.475-2.851.679-4.301.245-1.429.34-2.88.285-4.328Z" fill="#263238"/><path d="M34.717 123.672c2.343 6.373 12.949 22.985 17.862 25.423 3.635 1.796 14.488 4.001 15.885 3.654 2.015-.475 6.525-14.18 4.68-14.313-8.866-.641-14.511-1.791-16.602-2.618-1.763-.699-9.11-7.484-18.641-15.771-3.322-2.885-4.59-.186-3.184 3.625Z" fill="#F7D9D6"/><path d="m40.163 137.595 6.087-11.599s-4.928-4.367-7.998-6.4c-4.063-2.685-6.016-1.806-4.433 3.953 1.055 3.849 6.343 14.046 6.343 14.046Z" fill="#7A6BDE"/><path d="M40.67 121.353h-.051a.88.88 0 0 1-.86-.699c.294.252.598.456.912.699Zm-.051 13.609a.882.882 0 0 0-.88.879.88.88 0 0 0 .88.879l.717-1.373a.875.875 0 0 0-.722-.385h.005Zm-4.866-7.603a.82.82 0 0 0-.447.128c.228.518.475 1.051.708 1.588a.873.873 0 0 0 .618-.837.878.878 0 0 0-.884-.888l.005.009Zm9.731 0a.883.883 0 0 0-.812.543.876.876 0 0 0 .123.878l.747-1.426-.058.005Z" fill="#fff"/><path d="M39.683 135.843c.77-1.749 1.558-3.484 2.432-5.185.431-.849.878-1.691 1.34-2.528.476-.836 1.008-1.625 1.455-2.466.023-.043.095 0 .066.043-.475.813-.87 1.706-1.316 2.542-.447.837-.889 1.692-1.326 2.538a255.813 255.813 0 0 0-2.585 5.098c-.028.048-.09.005-.066-.042Z" fill="#263238"/><path opacity=".1" d="m45.294 127.821-5.132 9.78s-5.284-10.203-6.348-14.052c-.475-1.782-.637-3.093-.475-3.982l11.955 8.254Z" fill="#000"/><path d="M68.464 152.743a50.43 50.43 0 0 0 5.945 2.771c1.63.556 6.362 2.029 7.151.294.542-1.183-2.138-2.376-4.02-3.264-.988-.475-2.181-1.578-1.853-2.214.57-1.108 3.117.152 4.775 1.221 3.213 2.072 7.451 5.73 9.547 4.148.789-.599-.043-1.791-1.283-2.984 2.038 1.426 4.229 2.599 5.136 1.972.519-.361.566-.884.314-1.492a1.488 1.488 0 0 0 1.635-.181c.717-.679.432-1.753-.266-2.851a.828.828 0 0 0 .641-.375c1.55-2.138-5.398-8.805-7.874-9.504-7.284-2.091-15.153-1.815-15.153-1.815-3.027 2.148-4.7 14.274-4.695 14.274Z" fill="#F7D9D6"/><path d="M79.636 146.385a12.01 12.01 0 0 1 4.827 2.115c1.663 1.264 2.956 2.936 4.481 4.348.043.038 0 .099-.061.061-.713-.727-1.507-1.382-2.253-2.076-.746-.694-1.425-1.388-2.205-2.015a11.897 11.897 0 0 0-4.794-2.404s-.038-.034.005-.029Zm1.497-3.063a29.41 29.41 0 0 1 5.63 2.247c1.901 1.093 3.384 2.794 4.824 4.439.864.988 1.71 1.991 2.532 3.017.034.043-.028.104-.061.062a111.964 111.964 0 0 0-4.534-4.952 15.755 15.755 0 0 0-5.06-3.53c-1.088-.475-2.21-.86-3.327-1.25-.038-.005-.028-.038-.004-.033Zm2.195-2.638c1.863.475 3.488.879 5.103 1.967 2.144 1.425 4.168 3.801 4.88 4.614a76.41 76.41 0 0 1 2.277 2.818c.028.038-.038.09-.072.052a63.02 63.02 0 0 0-5.474-5.945 12.488 12.488 0 0 0-3.112-2.233 21.895 21.895 0 0 0-3.607-1.254s-.004-.019.005-.019Z" fill="#263238"/><path d="M15.044 159.343c1.127.366 33.263-8.933 33.263-8.933l-3.801-11.152s1.9-3.588 1.002-7.038c-1.16-4.609-9.693-12.188-10.363-12.635-2.69-1.782-5.227-1.753-7.447-.57-9.29 4.937-12.654 40.328-12.654 40.328Z" fill="#7A6BDE"/><path d="M31.761 120.479a.876.876 0 0 1-.543.812.883.883 0 0 1-.958-.191.877.877 0 0 1 .134-1.352.876.876 0 0 1 1.11.109.88.88 0 0 1 .257.622Zm-10.61 14.483a.883.883 0 0 0-.813.543.88.88 0 1 0 .812-.543Zm9.731 0a.883.883 0 0 0-.812.543.88.88 0 1 0 .812-.543Zm9.732 0a.884.884 0 0 0-.813.543.88.88 0 1 0 .813-.543Zm-14.598-7.603a.875.875 0 0 0-.816.542.877.877 0 0 0 .644 1.2.871.871 0 0 0 .903-.381.88.88 0 0 0 .143-.491.88.88 0 0 0-.874-.879v.009Zm9.732 0a.884.884 0 0 0-.812.543.879.879 0 1 0 1.69.336.877.877 0 0 0-.878-.888v.009ZM21.15 150.325a.876.876 0 0 0-.812.542.88.88 0 0 0 1.149 1.149.873.873 0 0 0 .542-.812.88.88 0 0 0-.879-.879Zm9.732 0a.876.876 0 0 0-.812.542.88.88 0 0 0 1.148 1.149.873.873 0 0 0 .543-.812.88.88 0 0 0-.879-.879Zm9.732 0a.876.876 0 0 0-.813.542.88.88 0 0 0 1.15 1.149.873.873 0 0 0 .542-.812.88.88 0 0 0-.88-.879Zm-14.598-7.603a.882.882 0 0 0-.816.542.877.877 0 0 0 .644 1.2.88.88 0 0 0 1.046-.873.876.876 0 0 0-.874-.879v.01Zm9.732 0a.876.876 0 0 0-.862 1.05.881.881 0 0 0 .69.691.874.874 0 0 0 .903-.374.876.876 0 0 0 .148-.488.873.873 0 0 0-.254-.628.893.893 0 0 0-.625-.261v.01Zm9.945.028a.882.882 0 0 0-1.093.851.88.88 0 0 0 1.26.793.854.854 0 0 0 .304-.247l-.47-1.397Zm-29.409 15.325a.882.882 0 0 0-.879.879.784.784 0 0 0 .086.366c.366-.052.95-.171 1.668-.337a.88.88 0 0 0-.874-.908Z" fill="#fff"/><path d="M34.199 138.456a28.862 28.862 0 0 1 4.186-.476c.699 0 1.393 0 2.091.034.347 0 .694 0 1.04.023.366.011.731-.02 1.089-.095.029 0 .043.038 0 .048a7.83 7.83 0 0 1-.998.261c-.329.05-.66.079-.993.086-.708.024-1.426 0-2.129.028-1.425.029-2.85.062-4.276.195-.062.014-.077-.071-.01-.104Zm-2.993 2.122a30.822 30.822 0 0 1 3.297-1.093 20.55 20.55 0 0 1 1.697-.37l.817-.133c.304-.043.613-.048.912-.095.007 0 .013.002.017.007a.02.02 0 0 1 .007.016.022.022 0 0 1-.007.017.022.022 0 0 1-.017.007c-.28.053-.556.157-.831.228l-.841.209c-.561.143-1.122.29-1.682.428a101.22 101.22 0 0 0-3.355.874.05.05 0 0 1-.036-.008.05.05 0 0 1-.01-.068.05.05 0 0 1 .032-.019Z" fill="#263238"/><path d="M29.713 118.44c0 .594 1.972 4.846 4.6 5.255.855.133 1.787-4.505 1.787-4.505l.147-.328 2.053-4.571-5.602-5.412s-2.99 9.304-2.985 9.561Z" fill="#F7D9D6"/><path d="m38.295 114.291-2.053 4.571a10.06 10.06 0 0 1-4.567-6.799c.514-1.616.951-2.956 1.003-3.156a.055.055 0 0 0 0-.028l.718.646 4.9 4.766Z" fill="#263238"/><path d="M46.05 107.91c-.775 8.762-6.116 9.285-8.002 9.118-1.716-.156-7.537-.893-7.674-9.693-.138-8.8 4.186-11.205 8.13-11.063 3.944.143 8.344 2.87 7.546 11.638Z" fill="#F7D9D6"/><path d="M44.853 106.366a5.988 5.988 0 0 1-.566-.218.953.953 0 0 1-.537-.333.307.307 0 0 1 .057-.375.779.779 0 0 1 .789-.057c.269.085.497.266.642.508a.334.334 0 0 1-.385.475Zm-6.007-.19c.21 0 .404 0 .608-.028a.995.995 0 0 0 .613-.152.31.31 0 0 0 .062-.376.782.782 0 0 0-.727-.299 1.146 1.146 0 0 0-.77.285.333.333 0 0 0 .214.57Zm1.041 1.752c0-.023-.048 0-.052.043-.062.599-.233 1.269-.794 1.397v.033c.68-.004.884-.898.846-1.473Z" fill="#263238"/><path d="M39.44 107.236c-.95-.199-1.278 1.701-.404 1.901.875.2 1.198-1.73.404-1.901Z" fill="#263238"/><path d="M39.05 107.269c-.185.081-.38.243-.584.228-.204-.014-.375-.247-.475-.475 0-.023-.033 0-.038 0-.071.366 0 .765.39.884s.66-.161.812-.513c.01-.043-.028-.152-.104-.124Zm4.272.807s.043.038.038.062c-.128.584-.175 1.278.324 1.573v.028c-.637-.237-.575-1.145-.361-1.663Z" fill="#263238"/><path d="M43.964 107.54c.95.104.684 2.015-.204 1.924-.889-.09-.604-2.01.204-1.924Z" fill="#263238"/><path d="M44.344 107.725c.138.124.261.328.437.366.176.038.395-.143.556-.323 0 0 .029 0 .029.028-.043.366-.219.732-.58.751-.361.019-.523-.333-.556-.708-.01-.071.057-.166.114-.114Zm-2.519 3.312s-.047.903-.123 1.317c0 .038-.114.038-.257 0a1.996 1.996 0 0 1-1.779-1.118.044.044 0 0 1 0-.017.034.034 0 0 1 .007-.015.045.045 0 0 1 .027-.019.047.047 0 0 1 .017 0 .05.05 0 0 1 .015.007 3.04 3.04 0 0 0 1.713.876c.053-.109.029-1.549.095-1.539.318.089.622.222.903.394.152-1.877 0-3.763.186-5.631a.056.056 0 0 1 .097-.04.06.06 0 0 1 .017.04c.22 2.016.24 4.049.057 6.068-.029.252-.822-.223-.974-.323Z" fill="#263238"/><path d="M41.46 112.201a2.43 2.43 0 0 1-1.05.67c-.22.069-.456.069-.675 0-.475-.175-.442-.617-.319-.988.067-.198.158-.386.271-.561a3.197 3.197 0 0 0 1.773.879Z" fill="#263238"/><path d="M40.41 112.871c-.22.069-.456.069-.675 0-.475-.176-.442-.618-.319-.988a1.146 1.146 0 0 1 .993.988Z" fill="#FF9CBD"/><path d="M30.74 108.143c.95 0 3.678-2.442 4.105-7.085 0 0-.675 4.139-1.036 4.752-.36.613 1.516-1.382 1.901-5.122a15.083 15.083 0 0 0 3.697 2.285c1.73.632 2.813.699 2.95.58.139-.119-2.404-1.135-3.05-2.005 0 0 4.543 2.547 6.705 2.88.247.038.841-4.605-2.376-7.052-3.217-2.447-8.582-.984-10.117.29 0 0-1.696.109-3.71 2.456-2.015 2.348-.11 8.002.93 8.021Z" fill="#263238"/><path d="M37.758 111.023a2.849 2.849 0 0 1-1.33-4.95 2.853 2.853 0 0 1 4.207.517c.306.438.483.954.51 1.487a2.852 2.852 0 0 1-2.693 3.008 2.652 2.652 0 0 1-.694-.062Zm1.026-5.227a2.473 2.473 0 0 0-2.953 2.411 2.472 2.472 0 0 0 4.041 1.936 2.473 2.473 0 0 0 .446-3.361 2.481 2.481 0 0 0-1.534-.986Zm5.513 5.698c-1.074-.209-1.83-1.497-1.716-2.984a3.427 3.427 0 0 1 .756-1.949 1.781 1.781 0 0 1 1.587-.734 1.79 1.79 0 0 1 1.454.972c.357.616.514 1.329.447 2.039-.124 1.568-1.174 2.775-2.343 2.684a1.287 1.287 0 0 1-.185-.028Zm.74-5.27h-.142a1.531 1.531 0 0 0-1.268.604 3.064 3.064 0 0 0-.666 1.729c-.104 1.359.59 2.528 1.55 2.604.96.076 1.829-.974 1.933-2.333a3.033 3.033 0 0 0-.394-1.81 1.561 1.561 0 0 0-1.012-.794Z" fill="#7A6BDE"/><path d="m41.042 108.386-.224-.313c.476-.328 1.497-.737 2.134.062l-.3.237c-.555-.717-1.572-.019-1.61.014Zm-12.754-.252-.323-.199c.095-.152.95-1.483 1.8-1.554.851-.071 5.874.808 6.088.846l-.062.375c-1.454-.252-5.37-.893-5.992-.841-.623.052-1.283 1.008-1.511 1.373Z" fill="#7A6BDE"/><path d="M31.71 108.134s-1.426-3.042-2.762-2.581c-1.335.461-.613 4.629.732 5.417a1.472 1.472 0 0 0 1.145.229 1.482 1.482 0 0 0 .955-.67l-.07-2.395Z" fill="#F7D9D6"/><path d="M29.19 106.741v.038c.951.589 1.303 1.621 1.502 2.656a.82.82 0 0 0-1.169-.437c-.028 0 0 .062 0 .062a.914.914 0 0 1 .95.475c.143.282.255.578.333.884.029.1.2.081.186-.028v-.029c.237-1.269-.442-3.236-1.801-3.621Z" fill="#263238"/><path d="M22.9 124.908c-6.73 13.271-7.528 24.509-5.541 26.524 5.345 5.451 22.898 3.022 27.67 2.932 1.929-.038-1.992-15.895-4.035-15.61-4.818.666-11.737 2.181-11.97 2.086-.475-.194.072-3.939.789-15.115.58-9.043-4.162-6.244-6.914-.817Zm24.533 11.899c4.79-.67 6.12-.105 9.86-2.813 2.456-1.777 4.647-.974 3.245 1.853-2.285 4.619-8.287 6.776-10.582 6.919l-2.523-5.959Z" fill="#F7D9D6"/><path d="M34.717 141.416s5.379-2.989 10.411-4.206c3.478-.841 10.806-1.364 18.689 5.845 2.086 1.901 2.504 5.735-1.221 3.616-2.718-1.549-3.935-2.96-5.702-3.459 0 0 .978 5.075-.913 6.771a47.12 47.12 0 0 1-5.26 4.082 10.624 10.624 0 0 1-.85-.917s-1.901 1.425-5.527 1.074l-9.627-12.806Z" fill="#F7D9D6"/><path d="M48.578 136.939c1.663.87 5.155 2.766 7.474 5.313 2.576 2.827 6.776 8.971 4.671 10.853-1.549 1.378-3.354-.827-3.354-.827s1.197 2.904-.475 3.845c-1.521.855-2.818-.951-2.818-.951s.427 1.901-1.198 2.428c-1.953.656-2.523-3.407-5.075-4.457-.565-.214.775-16.204.775-16.204Z" fill="#F7D9D6"/><path d="M52.612 144.476c1.426 1.069 4.054 4.338 4.78 7.726 0 .076-.033.129-.061.062a37.525 37.525 0 0 0-4.752-7.764s.014-.038.033-.024Zm-2.78 2.68c1.14 1.055 3.693 4.543 4.31 8.002 0 .076-.038.128-.066.057a40.34 40.34 0 0 0-4.277-8.035s.02-.033.033-.024Z" fill="#263238"/><path d="M40.086 138.882a32.143 32.143 0 0 1 6.686-2.086c1.15-.232 2.31-.4 3.479-.503.589-.048 1.178-.062 1.739-.138a10.215 10.215 0 0 0 1.672-.399 11.293 11.293 0 0 0 3.065-1.559 5.956 5.956 0 0 1 1.55-.893 3.513 3.513 0 0 1 1.805-.262c.335.041.64.212.85.476.187.28.273.615.243.95a4.481 4.481 0 0 1-.499 1.744 8.655 8.655 0 0 1-2.286 2.723v-.281a47.462 47.462 0 0 1 4.234 3.098c.684.558 1.32 1.171 1.901 1.835.285.343.53.718.732 1.116.217.405.348.85.385 1.307a1.61 1.61 0 0 1-.129.708c-.106.229-.29.414-.518.523a1.936 1.936 0 0 1-1.378 0 11.632 11.632 0 0 1-2.328-1.25c-.732-.475-1.425-.984-2.167-1.468a27.735 27.735 0 0 0-1.093-.703c-.36-.23-.75-.41-1.16-.533l.091-.147a31.35 31.35 0 0 1 2.57 3.697 19.02 19.02 0 0 1 1.032 2c.305.687.536 1.404.689 2.139a10.361 10.361 0 0 0-.732-2.12 17.619 17.619 0 0 0-1.069-1.972 31.392 31.392 0 0 0-2.628-3.63l-.18-.214.27.072c.427.124.835.306 1.212.541.38.224.751.475 1.117.694.727.475 1.425.974 2.176 1.426.712.485 1.478.886 2.281 1.197a1.66 1.66 0 0 0 1.174 0 .948.948 0 0 0 .475-.95 4.274 4.274 0 0 0-1.055-2.243 15.458 15.458 0 0 0-1.867-1.782 45.144 45.144 0 0 0-4.215-3.056l-.195-.128.185-.152a8.392 8.392 0 0 0 2.177-2.609c.26-.496.422-1.038.475-1.596a1.19 1.19 0 0 0-.223-.718.952.952 0 0 0-.628-.361 3.281 3.281 0 0 0-1.62.242 5.68 5.68 0 0 0-1.478.841 11.41 11.41 0 0 1-3.16 1.597c-.564.184-1.143.32-1.73.409-.598.076-1.178.085-1.758.128-1.154.09-2.314.223-3.459.428a36.05 36.05 0 0 0-6.71 1.862Z" fill="#263238"/><path d="m16.812 136.378 12.93-2.224s.475-6.572.209-10.245c-.352-4.856-2.234-5.854-5.845-1.102-2.414 3.174-7.294 13.571-7.294 13.571Z" fill="#7A6BDE"/><path d="m21.953 135.494-1.677.285a.878.878 0 0 1 .726-.805.871.871 0 0 1 .951.52Zm4.063-8.144a.878.878 0 1 0 .33 1.691.88.88 0 0 0-.33-1.691Z" fill="#fff"/><path d="M17.915 134.93c1.858-.452 3.716-.879 5.597-1.226.95-.171 1.89-.33 2.818-.475.95-.143 1.9-.19 2.851-.347.048 0 .062.076 0 .081-.95.109-1.9.342-2.823.503-.921.162-1.876.319-2.817.475-1.872.338-3.75.67-5.617 1.051-.062.028-.062-.048-.01-.062Z" fill="#263238"/><path d="M28.155 134.43c.512-.131 1.03-.235 1.554-.313.033-.775.057-1.549.104-2.324 0-.385.048-.774.081-1.159s.062-.913.095-1.288a.043.043 0 0 1 .005-.039.038.038 0 0 1 .016-.013.045.045 0 0 1 .02-.005.045.045 0 0 1 .034.018.043.043 0 0 1 .006.039v1.292c0 .428 0 .761-.024 1.141-.029.808-.029 1.668-.104 2.471a13.62 13.62 0 0 1-1.778.228s-.033-.043-.01-.048Z" fill="#263238"/><path d="M30.464 130.045c-.06.466-.198.919-.409 1.34a4.214 4.214 0 0 1 .409-1.34Z" fill="#263238"/><path d="M79.555 156.812h-34.09v1.53h34.09v-1.53Z" fill="#C7C7C7"/><path d="m60.139 156.812-1.164 1.525h27.96v-1.525H60.139Z" fill="#A6A6A6"/><path d="M61.612 158.336h33.22l6.748-22.562H68.355l-6.743 22.562Z" fill="#A6A6A6"/><path d="M62.762 158.336h33.22l6.743-22.562h-33.22l-6.743 22.562Z" fill="#C7C7C7"/><path d="M81.36 147.041a1.615 1.615 0 0 0 1.63 2.02 2.571 2.571 0 0 0 2.415-2.02 1.621 1.621 0 0 0-1.63-2.024 2.574 2.574 0 0 0-2.414 2.024Zm-8.268-40.058v20.609h2.894v5.004l4.999-5.004h27.437v-20.609h-35.33Z" fill="#fff"/><path d="m73.092 106.983.076 10.336c.035 3.437.054 6.861.057 10.273l-.133-.133h3.032v5.137l-.261-.105 4.984-5.013.053-.052h.07l13.72-.038c4.57 0 9.147-.043 13.718 0l-.228.228.057-20.609.171.171-17.615-.057-17.7-.138Zm0 0 17.615-.118 17.715-.057h.171v.175l.052 20.609v.228h-.228c-4.571.024-9.147 0-13.718 0l-13.718-.033.123-.052-5.013 4.984-.266.266v-5.374l.142.143h-2.984v-.133c0-3.45.02-6.895.057-10.336l.052-10.302Z" fill="#263238"/><path d="M86.013 120.588a.851.851 0 0 1-.59 1.454.887.887 0 0 1-.618-.243l-3.8-3.834c-.039 0-.053-.038-.067-.081a.14.14 0 0 0-.038-.024.402.402 0 0 1-.043-.109.072.072 0 0 1-.038-.052c0-.029 0-.072-.029-.081-.028-.01-.028-.057-.028-.067v-.337c0-.029.028-.043.028-.057 0-.014 0-.067.029-.105.028-.038 0 0 0-.028 0-.029.043-.095.071-.119.028-.024 0-.028.024-.028a.274.274 0 0 1 .08-.095l3.802-3.83a.875.875 0 0 1 1.207 0 .835.835 0 0 1 .253.603.843.843 0 0 1-.253.604l-3.184 3.217 3.194 3.212Zm3.426.432 3.293-7.84a.75.75 0 0 1 .983-.39.726.726 0 0 1 .376.95l-3.293 7.85a.744.744 0 0 1-1.198.237.73.73 0 0 1-.161-.807Zm11.162-3.159a.61.61 0 0 1-.095.095l-3.802 3.835a.855.855 0 1 1-1.207-1.212l3.184-3.212-3.184-3.217a.852.852 0 0 1-.253-.604.847.847 0 0 1 .253-.603.875.875 0 0 1 1.207 0l3.802 3.83a.947.947 0 0 1 .095.095v.028s.052.081.066.119c.014.038 0 0 0 .029.01.041.025.08.043.118v.404a1.138 1.138 0 0 0-.043.124v.038a1.097 1.097 0 0 0-.066.133Zm210.747 29.282c-6.301 8.553-12.873 18.442-14.474 29.148 0 .161.242.214.276.052a63.412 63.412 0 0 1 2.789-8.553c4.144-1.141 8.211-2.077 10.387-6.178 2.219-4.229 1.939-9.741 1.516-14.345-.033-.276-.366-.29-.494-.124Z" fill="#7A6BDE"/><path d="M300.001 167.689c2.851-6.353 6.467-12.73 11.086-17.957.033-.033.081 0 .052.052-3.027 3.721-5.322 7.774-7.569 11.88 2.086-2.119 4.376-4.02 6.353-6.263.038-.048.1 0 .061.062-1.962 2.376-4.105 4.913-6.652 6.652-.689 1.264-1.378 2.533-2.081 3.802.171-.095.351-.181.527-.266a.022.022 0 0 1 .009.01.022.022 0 0 1 .004.013c0 .005-.001.01-.004.014a.022.022 0 0 1-.009.01c-.195.1-.385.2-.589.285-.328.604-.661 1.202-.998 1.801-.071.167-.247.043-.19-.095Zm2.105-2.214a37.187 37.187 0 0 0 4.842-3.232c.038-.033.1.024.057.062a25.46 25.46 0 0 1-4.828 3.269c-.076.057-.156-.057-.071-.099Z" fill="#263238"/><path d="M296.147 174.698c0 .128.233.128.228 0 .034-3.526 0-7.071.057-10.611.903-1.82 2.852-2.851 4.187-4.277a18.728 18.728 0 0 0 2.518-3.502 25.176 25.176 0 0 0 2.913-9.741c.375-3.773-1.055-16.213-2.647-15.781-.822.224-3.492 6.387-4.2 8.425a58.715 58.715 0 0 0-2.509 10.331c-1.288 8.287-1.179 16.807-.547 25.156Z" fill="#7A6BDE"/><path d="M296.119 159.492c.19-4.462 1.197-8.966 2.138-13.305 1.012-4.661 2.195-9.052 4.595-13.205.043-.081.157 0 .119.067a48.992 48.992 0 0 0-3.692 10.135c.161-.247.356-.475.522-.727.067-.09.219 0 .157.095a6.914 6.914 0 0 1-.751 1.055.045.045 0 0 1-.033 0c-.822 3.326-1.425 6.738-1.901 10.14l.114-.133c0-.028.072 0 .053.038a4.677 4.677 0 0 1-.205.338c-.256 1.725-.475 3.45-.727 5.156 3.07-2.628 5.703-5.703 7.171-9.533h.028c-1.425 3.959-3.73 7.475-7.251 9.875-.062.475-.128.917-.195 1.373 0 .095-.161.071-.161 0 0-.409 0-.817.038-1.221a.102.102 0 0 1-.033-.029.081.081 0 0 1-.015-.04.09.09 0 0 1 .004-.043.101.101 0 0 1 .025-.036Z" fill="#263238"/><path d="M297.568 153.03c2.347-3.507 4.538-6.909 6.258-10.782 0-.042.09 0 .076.034-1.449 3.849-3.474 7.745-6.22 10.839-.052.061-.162-.024-.114-.091Zm3.117-11.646c.951-1.721 2.001-3.393 2.913-5.147a.042.042 0 0 1 .008-.018.037.037 0 0 1 .015-.013.046.046 0 0 1 .02-.005c.007 0 .014.002.02.005a.04.04 0 0 1 .015.014.04.04 0 0 1 .007.018.05.05 0 0 1-.002.021.038.038 0 0 1-.012.016 26.56 26.56 0 0 1-2.851 5.199c-.047.085-.19.009-.133-.09Z" fill="#263238"/><path d="M293.757 164.5a35.534 35.534 0 0 1-.822 6.947c.038.252.071.504.109.761a32.962 32.962 0 0 0 1.24-7.741.237.237 0 0 0 0-.242 51.34 51.34 0 0 0-.779-10.488c-1.093-6.481-3.478-12.696-7.997-17.553a.336.336 0 0 0-.125-.056.333.333 0 0 0-.261.058.305.305 0 0 0-.089.103c-1.82 4.633-1.184 10.164.366 14.792a27.155 27.155 0 0 0 3.582 7.023c1.545 2.177 3.536 4.02 4.776 6.396Z" fill="#7A6BDE"/><path d="M286.059 138.346c4.277 6.952 7.261 15.206 7.627 23.398 0 .147-.238.185-.261.038-.1-.736-.214-1.468-.333-2.195-1.772-1.697-3.592-3.488-4.861-5.607 0-.038.033-.081.062-.048a58.973 58.973 0 0 0 4.699 5.132 92.886 92.886 0 0 0-1.097-5.36l-.343-.399c-.071-.086.053-.214.129-.128l.104.114a63.242 63.242 0 0 0-2.238-7.128c-1.093-1.297-2.309-2.424-3.103-3.987a.036.036 0 0 1-.001-.023.036.036 0 0 1 .015-.019.037.037 0 0 1 .023-.004.034.034 0 0 1 .02.013c.637.893 1.255 1.796 1.982 2.628.285.327.603.641.903.95a54.728 54.728 0 0 0-3.507-7.308.08.08 0 0 1-.006-.037.08.08 0 0 1 .009-.037.08.08 0 0 1 .022-.03.083.083 0 0 1 .032-.02.115.115 0 0 1 .037-.006.112.112 0 0 1 .036.009.097.097 0 0 1 .031.022c.008.009.015.02.019.032Z" fill="#263238"/><path d="M286.924 146.924c1.383 1.863 2.96 3.64 4.248 5.565.038.052-.043.109-.09.066-1.654-1.549-3.051-3.668-4.277-5.578a.065.065 0 0 1 .119-.053Zm4.443 5.992.057.062c.043.038-.024.104-.062.061l-.062-.057a.045.045 0 0 1-.009-.032.05.05 0 0 1 .014-.03.05.05 0 0 1 .03-.014c.011 0 .023.003.032.01Z" fill="#263238"/><path d="M279.349 151.709c.343 3.573 2.224 7.845 4.519 10.601a11.334 11.334 0 0 0 3.664 2.851c1.587.784 3.25 1.687 4.89 2.333a32.19 32.19 0 0 1 1.734 6.158l.157-.546c-1.055-9.052-6.914-16.788-14.403-21.754a.363.363 0 0 0-.394-.001.375.375 0 0 0-.136.154.376.376 0 0 0-.031.204Z" fill="#7A6BDE"/><path d="M281.939 154.384c-.052-.047 0-.143.076-.1a30.664 30.664 0 0 1 9.551 11.766c.057.123-.114.233-.185.109a60.18 60.18 0 0 0-1.064-1.787c-1.711-.323-3.327-1.525-4.6-2.665a.043.043 0 0 1-.005-.025.039.039 0 0 1 .011-.022.036.036 0 0 1 .022-.011.04.04 0 0 1 .024.005 10.537 10.537 0 0 0 2.162 1.521c.699.352 1.426.575 2.172.86a47.419 47.419 0 0 0-1.982-2.908 19.964 19.964 0 0 1-5.141-2.889c-.048-.034 0-.114.047-.081a50.81 50.81 0 0 0 4.781 2.552 43.093 43.093 0 0 0-3.374-3.93c-.58-.309-1.174-.618-1.734-.95a.054.054 0 0 1-.02-.027.045.045 0 0 1 .003-.032.047.047 0 0 1 .022-.024.053.053 0 0 1 .033-.003c.467.165.913.383 1.33.651a51.17 51.17 0 0 0-2.129-2.01Zm.157 3.113c.102.062.199.132.29.209.029.024 0 .057-.038.048a2.382 2.382 0 0 1-.299-.171c-.053-.024.014-.086.047-.086Z" fill="#263238"/><path d="M306.007 193.255h-20.532l1.658-18.694.361-4.124h16.489l.366 4.124 1.658 18.694Z" fill="#455A64"/><path d="M304.349 174.561h-17.216l.361-4.124h16.489l.366 4.124Z" fill="#263238"/><path d="M304.967 167.552h-18.452v4.082h18.452v-4.082Z" fill="#455A64"/></svg>