<svg width="228" height="228" fill="none" xmlns="http://www.w3.org/2000/svg"><path d="M114 227.121c62.488 0 113.144-29.247 113.144-65.324 0-36.078-50.656-65.324-113.144-65.324C51.512 96.473.856 125.719.856 161.797c0 36.077 50.656 65.324 113.144 65.324Z" fill="#F0F0F0"/><path opacity=".07" d="m137.514 219.678-114.74-66.249a.631.631 0 0 1 0-1.198l68.013-39.269a2.295 2.295 0 0 1 2.076 0l114.744 66.249a.628.628 0 0 1 .43.599.636.636 0 0 1-.43.599l-68.017 39.269a2.297 2.297 0 0 1-2.076 0Z" fill="#000"/><path d="M67.464 215.155c9.909 0 17.94-4.637 17.94-10.358 0-5.72-8.031-10.358-17.94-10.358-9.908 0-17.94 4.638-17.94 10.358 0 5.721 8.032 10.358 17.94 10.358Zm110.973-55.571c9.44 0 17.092-4.418 17.092-9.869 0-5.45-7.652-9.868-17.092-9.868-9.439 0-17.092 4.418-17.092 9.868 0 5.451 7.653 9.869 17.092 9.869Z" fill="#E0E0E0"/><path d="m161.354 33.1 2.876 1.663a3.51 3.51 0 0 1-.024-.383v-.834c0-1.481 1.04-2.085 2.325-1.342.553.34 1.027.794 1.39 1.332.206-1.864 1.672-2.56 3.451-1.533a7.708 7.708 0 0 1 3.499 6.03v1.245a3.28 3.28 0 0 1-.293 1.438l2.397 1.38a2.84 2.84 0 0 1 1.294 2.234c0 .825-.58 1.155-1.294.743l-15.621-8.992a2.882 2.882 0 0 1-1.289-2.238c0-.82.575-1.155 1.289-.743Zm19.019-7.64 1.587.61v-3.495c0-2.77 2.209-3.436 4.611-2.051 2.396 1.385 4.342 4.754 4.342 7.525v.508a2.35 2.35 0 0 1 2.018.311 6.911 6.911 0 0 1 3.125 5.416v.23l2.214 1.28a4.55 4.55 0 0 1 2.061 3.566c0 1.313-.925 1.846-2.061 1.189l-17.897-10.334a4.542 4.542 0 0 1-2.061-3.566c0-1.313.921-1.845 2.061-1.189Z" fill="#EBEBEB"/><path d="M188.066 146.464c1.069-1.471 4.127-2.967 8.057-3.537 3.931-.57 7.894-1.352 7.156-3.657-.795-2.492-4.385-2.852-8.009-1.649-3.954 1.314-7.07 5.023-7.29 7.477l.086 1.366Z" fill="#7A6BDE"/><path d="M188.066 146.464c1.069-1.471 4.127-2.967 8.057-3.537 3.93-.57 7.894-1.352 7.156-3.657-.796-2.492-4.386-2.852-8.009-1.649-3.954 1.314-7.07 5.023-7.29 7.477l.086 1.366Z" fill="#000" opacity=".1"/><path d="M187.812 145.746a.301.301 0 0 0 .274-.148c3.508-6.154 10.707-6.71 12.941-6.193a.288.288 0 1 0 .124-.565c-2.334-.528-9.888.033-13.559 6.47a.278.278 0 0 0-.038.14.287.287 0 0 0 .131.249.292.292 0 0 0 .137.047h-.01Z" fill="#fff"/><path d="M188.085 145.598s.882-5.752 7.29-9.96a44.866 44.866 0 0 0 4.166-3.379c2.396-2.023 1.605-4.448-1.486-4.616-4.592-.249-8.211 3.389-10.008 8.345a14.859 14.859 0 0 0 .038 9.61Z" fill="#7A6BDE"/><path d="M187.529 143.57a.286.286 0 0 0 .307-.239c1.5-9.27 8.929-13.473 10.899-13.838a.294.294 0 0 0 .185-.12.295.295 0 0 0 .045-.215.294.294 0 0 0-.12-.185.295.295 0 0 0-.215-.045c-2.397.441-9.831 4.822-11.364 14.307a.29.29 0 0 0 .239.335h.024Z" fill="#fff"/><path d="m44.127 154.161 3.906-1.404s1.15-8.537.087-15.549c-1.587-10.496-10.473-20.662-16.805-22.628-11.675-3.623-11.584 7.41-2.794 13.56 7.64 5.344 14.45 13.344 15.606 26.021Z" fill="#7A6BDE"/><path d="M46.044 153.677h-.048a.482.482 0 0 1-.35-.546c2.095-9.586-5.349-27.728-15.817-33.106a.477.477 0 0 1 .12-.781.477.477 0 0 1 .302-.038c10.804 5.545 18.472 24.223 16.296 34.121a.48.48 0 0 1-.503.35Z" fill="#fff"/><path d="M49.241 159.639c.192-1.136.307-2.804.34-3.216a10.544 10.544 0 0 0-.479-4.314c-.21-.604-.628-1.193-.704-1.812-.077-.618.067-1.169-.092-1.783a4.744 4.744 0 0 0-2.19-2.942c-1.045-.6-2.396-.868-2.986-1.918-.393-.709-.302-1.577-.268-2.396.048-1.237-.101-2.569-.897-3.518-1.025-1.227-2.818-1.467-4.404-1.304-1.587.163-3.159.638-4.75.508-2.69-.22-4.985-2.128-7.67-2.521a8.328 8.328 0 0 0-2.841.115c-1.38.288-2.795.959-3.437 2.214a3.907 3.907 0 0 0 .288 3.696c.742 1.232 1.917 2.003 3.158 2.679 1.242.676 2.195 1.414 1.567 3.015-.218.452-.36.939-.417 1.438a2.547 2.547 0 0 0 1.3 2.176 7.487 7.487 0 0 0 2.487.81l3.053.623c.887.182 1.98.585 2.023 1.491.029.56-.388 1.03-.609 1.548a2.875 2.875 0 0 0 .805 3.072 5.528 5.528 0 0 0 3.053 1.309c1.117.163 2.248.143 3.356.268 1.732.198 3.406.744 4.922 1.606a4.29 4.29 0 0 0 1.222.556c.652.124 4.05-.681 4.17-1.4Z" fill="#7A6BDE"/><path d="M49.241 159.639c.192-1.136.307-2.804.34-3.216a10.544 10.544 0 0 0-.479-4.314c-.21-.604-.628-1.193-.704-1.812-.077-.618.067-1.169-.092-1.783a4.744 4.744 0 0 0-2.19-2.942c-1.045-.6-2.396-.868-2.986-1.918-.393-.709-.302-1.577-.268-2.396.048-1.237-.101-2.569-.897-3.518-1.025-1.227-2.818-1.467-4.404-1.304-1.587.163-3.159.638-4.75.508-2.69-.22-4.985-2.128-7.67-2.521a8.328 8.328 0 0 0-2.841.115c-1.38.288-2.795.959-3.437 2.214a3.907 3.907 0 0 0 .288 3.696c.742 1.232 1.917 2.003 3.158 2.679 1.242.676 2.195 1.414 1.567 3.015-.218.452-.36.939-.417 1.438a2.547 2.547 0 0 0 1.3 2.176 7.487 7.487 0 0 0 2.487.81l3.053.623c.887.182 1.98.585 2.023 1.491.029.56-.388 1.03-.609 1.548a2.875 2.875 0 0 0 .805 3.072 5.528 5.528 0 0 0 3.053 1.309c1.117.163 2.248.143 3.356.268 1.732.198 3.406.744 4.922 1.606a4.29 4.29 0 0 0 1.222.556c.652.124 4.05-.681 4.17-1.4Z" fill="#000" opacity=".1"/><path d="M47.4 160.699a.415.415 0 0 1-.359-.268c-3.834-10.099-12.912-18.175-25.59-22.733a.424.424 0 0 1-.218-.525.42.42 0 0 1 .501-.266c12.913 4.644 22.182 12.898 26.093 23.227a.421.421 0 0 1-.244.541.403.403 0 0 1-.182.024Z" fill="#fff"/><path d="m47.075 165.263-1.616-.925a2.02 2.02 0 0 1-.91-1.582V44.244a2.013 2.013 0 0 1 .915-1.582L119 .215a2.028 2.028 0 0 1 1.821 0l1.601.926a2.005 2.005 0 0 1 .915 1.581V121.23a2.003 2.003 0 0 1-.915 1.581l-73.52 42.452a2.039 2.039 0 0 1-1.826 0Z" fill="#7A6BDE"/><path opacity=".3" d="m47.075 165.263-1.616-.925a2.02 2.02 0 0 1-.91-1.582V44.244a2.013 2.013 0 0 1 .915-1.582L119 .215a2.028 2.028 0 0 1 1.821 0l1.601.926a2.005 2.005 0 0 1 .915 1.581V121.23a2.003 2.003 0 0 1-.915 1.581l-73.52 42.452a2.039 2.039 0 0 1-1.826 0Z" fill="#000"/><path d="M123.327 2.569c-.067-.48-.451-.647-.906-.379l-73.52 42.447a1.843 1.843 0 0 0-.647.68l-3.427-1.964c.155-.275.376-.507.642-.676L118.994.216a2.04 2.04 0 0 1 1.826 0l1.601.925a2.06 2.06 0 0 1 .906 1.428Z" fill="#7A6BDE"/><path opacity=".2" d="M123.327 2.569c-.067-.48-.451-.647-.906-.379l-73.52 42.447a1.843 1.843 0 0 0-.647.68l-3.427-1.964c.155-.275.376-.507.642-.676L118.994.216a2.04 2.04 0 0 1 1.826 0l1.601.925a2.06 2.06 0 0 1 .906 1.428Z" fill="#000"/><path d="M48.738 165.335h-.053l-.096.033h-.038l-.168.043c-.364.07-.74.038-1.088-.091a1.246 1.246 0 0 1-.201-.091l-1.635-.891a2.034 2.034 0 0 1-.91-1.582V44.244c.012-.32.105-.631.268-.906l3.427 1.98a1.847 1.847 0 0 0-.268.9v118.517a.745.745 0 0 0 .139.48.482.482 0 0 0 .48.158l.143-.038Z" fill="#7A6BDE"/><path opacity=".4" d="M48.738 165.335h-.053l-.096.033h-.038l-.168.043c-.364.07-.74.038-1.088-.091a1.246 1.246 0 0 1-.201-.091l-1.635-.891a2.034 2.034 0 0 1-.91-1.582V44.244c.012-.32.105-.631.268-.906l3.427 1.98a1.847 1.847 0 0 0-.268.9v118.517a.745.745 0 0 0 .139.48.482.482 0 0 0 .48.158l.143-.038Z" fill="#000"/><path d="M74.515 39.485a.734.734 0 0 0-.163-.335l-.063-.053a.35.35 0 0 0-.34-.048.532.532 0 0 0-.124.053 1.471 1.471 0 0 0-.518.628 2.287 2.287 0 0 0-.211.92.892.892 0 0 0 .206.652.398.398 0 0 0 .523.043.992.992 0 0 0 .282-.254 2.185 2.185 0 0 0 .446-1.256 1.356 1.356 0 0 0-.038-.35ZM86.469 12.77a1.744 1.744 0 0 0-.878-.23 3.385 3.385 0 0 0-1.648.532 7.425 7.425 0 0 0-3.015 3.648 11.08 11.08 0 0 0-.269.656c-.081.22-.167.441-.24.671-.071.23-.153.48-.22.69-.024.077-.048.154-.067.226a9.63 9.63 0 0 0-.134.479.241.241 0 0 1 0 .062l-.268.844-.12.48-.115.455a29.99 29.99 0 0 1-.513 1.74 3.931 3.931 0 0 1-.115.335c-.043.11-.11.316-.173.48-.062.162-.096.234-.144.344a9.943 9.943 0 0 1-.24.537c-.08.173-.11.22-.167.326-1.284 2.473-2.876 3.441-3.772 4.716-.796 1.108-1.026 2-2.1 3.753a25.229 25.229 0 0 1-1.327 1.98c-1.548 2.137-2.104 3.197-2.296 3.834a.172.172 0 0 0 0 .053c0 .053-.029.096-.038.144a.135.135 0 0 0 0 .043c.003.04.003.08 0 .12a2.75 2.75 0 0 0 0 .378v4.726l1.71.988v-4.76c-.02-.246.002-.494.063-.733.187-.642.738-1.697 2.291-3.834.561-.777.988-1.438 1.333-1.985 1.069-1.754 1.299-2.64 2.094-3.743.91-1.275 2.483-2.239 3.772-4.721.204-.392.388-.793.551-1.203.825-2.061 1.194-4.793 2.21-7.094a7.453 7.453 0 0 1 3.039-3.638c1.04-.6 1.807-.652 2.396-.374l-1.6-.925Zm7.505 6.083a2.046 2.046 0 0 0-.455-.178c-.647-.153-1.61.22-2.579.11 1.357 1.755 3.245.628 4.314.878.16.037.315.1.456.186l-1.736-.996Zm3.62 6.532c-.052.031-.1.067-.145.106l-.067.072a.521.521 0 0 0-.067.076 2.124 2.124 0 0 0-.45 1.29.916.916 0 0 0 .2.647l.058.053a.353.353 0 0 0 .34.047.367.367 0 0 0 .13-.052c.053-.032.105-.067.153-.106.072-.071.138-.148.197-.23a2.18 2.18 0 0 0 .379-1.198c0-.623-.326-.95-.729-.705Zm1.12-4.313a5.494 5.494 0 0 0-1.768-.628c-.259-.058-.48-.13-.704-.192a4.95 4.95 0 0 0 2.396 1.18 6.845 6.845 0 0 1 1.582.512l-1.505-.872Z" fill="#7A6BDE"/><path opacity=".8" d="M74.515 39.485a.734.734 0 0 0-.163-.335l-.063-.053a.35.35 0 0 0-.34-.048.532.532 0 0 0-.124.053 1.471 1.471 0 0 0-.518.628 2.287 2.287 0 0 0-.211.92.892.892 0 0 0 .206.652.398.398 0 0 0 .523.043.992.992 0 0 0 .282-.254 2.185 2.185 0 0 0 .446-1.256 1.356 1.356 0 0 0-.038-.35ZM86.469 12.77a1.744 1.744 0 0 0-.878-.23 3.385 3.385 0 0 0-1.648.532 7.425 7.425 0 0 0-3.015 3.648 11.08 11.08 0 0 0-.269.656c-.081.22-.167.441-.24.671-.071.23-.153.48-.22.69-.024.077-.048.154-.067.226a9.63 9.63 0 0 0-.134.479.241.241 0 0 1 0 .062l-.268.844-.12.48-.115.455a29.99 29.99 0 0 1-.513 1.74 3.931 3.931 0 0 1-.115.335c-.043.11-.11.316-.173.48-.062.162-.096.234-.144.344a9.943 9.943 0 0 1-.24.537c-.08.173-.11.22-.167.326-1.284 2.473-2.876 3.441-3.772 4.716-.796 1.108-1.026 2-2.1 3.753a25.229 25.229 0 0 1-1.327 1.98c-1.548 2.137-2.104 3.197-2.296 3.834a.172.172 0 0 0 0 .053c0 .053-.029.096-.038.144a.135.135 0 0 0 0 .043c.003.04.003.08 0 .12a2.75 2.75 0 0 0 0 .378v4.726l1.71.988v-4.76c-.02-.246.002-.494.063-.733.187-.642.738-1.697 2.291-3.834.561-.777.988-1.438 1.333-1.985 1.069-1.754 1.299-2.64 2.094-3.743.91-1.275 2.483-2.239 3.772-4.721.204-.392.388-.793.551-1.203.825-2.061 1.194-4.793 2.21-7.094a7.453 7.453 0 0 1 3.039-3.638c1.04-.6 1.807-.652 2.396-.374l-1.6-.925Zm7.505 6.083a2.046 2.046 0 0 0-.455-.178c-.647-.153-1.61.22-2.579.11 1.357 1.755 3.245.628 4.314.878.16.037.315.1.456.186l-1.736-.996Zm3.62 6.532c-.052.031-.1.067-.145.106l-.067.072a.521.521 0 0 0-.067.076 2.124 2.124 0 0 0-.45 1.29.916.916 0 0 0 .2.647l.058.053a.353.353 0 0 0 .34.047.367.367 0 0 0 .13-.052c.053-.032.105-.067.153-.106.072-.071.138-.148.197-.23a2.18 2.18 0 0 0 .379-1.198c0-.623-.326-.95-.729-.705Zm1.12-4.313a5.494 5.494 0 0 0-1.768-.628c-.259-.058-.48-.13-.704-.192a4.95 4.95 0 0 0 2.396 1.18 6.845 6.845 0 0 1 1.582.512l-1.505-.872Z" fill="#fff"/><path d="m100.368 22.035-.134-.082a6.62 6.62 0 0 0-1.582-.513 4.931 4.931 0 0 1-2.397-1.179 3.086 3.086 0 0 0-.555-.412 1.597 1.597 0 0 0-.48-.187c-1.035-.25-2.924.882-4.28-.877a.448.448 0 0 1-.043-.058c-.959-1.274-1.294-4.126-2.718-4.965a1.006 1.006 0 0 0-.144-.077c-.584-.278-1.346-.225-2.396.374-3.767 2.176-3.892 7.338-5.272 10.732-1.38 3.393-3.279 4.462-4.314 5.924-1.035 1.462-1.112 2.54-3.432 5.752-2.32 3.21-2.396 3.973-2.396 4.577v4.755l30.833-17.816v-4.76a1.193 1.193 0 0 0-.69-1.188Zm-26.544 19.31c-.403.236-.728-.076-.728-.699a1.917 1.917 0 0 1 .728-1.543c.403-.23.724.086.724.704a1.918 1.918 0 0 1-.724 1.539Zm11.83-14.325a1.557 1.557 0 0 1-2.397-.73 4.386 4.386 0 0 1-.374-1.916c0-2.334 1.232-4.937 2.751-5.814a2.26 2.26 0 0 1 .662-.259c1.198-.24 2.08.915 2.08 2.905.019 2.334-1.218 4.936-2.723 5.814Zm11.944.599c-.408.234-.734-.077-.734-.695a1.917 1.917 0 0 1 .733-1.539c.398-.23.724.081.724.7a1.918 1.918 0 0 1-.724 1.534Z" fill="#7A6BDE"/><path opacity=".4" d="m100.368 22.035-.134-.082a6.62 6.62 0 0 0-1.582-.513 4.931 4.931 0 0 1-2.397-1.179 3.086 3.086 0 0 0-.555-.412 1.597 1.597 0 0 0-.48-.187c-1.035-.25-2.924.882-4.28-.877a.448.448 0 0 1-.043-.058c-.959-1.274-1.294-4.126-2.718-4.965a1.006 1.006 0 0 0-.144-.077c-.584-.278-1.346-.225-2.396.374-3.767 2.176-3.892 7.338-5.272 10.732-1.38 3.393-3.279 4.462-4.314 5.924-1.035 1.462-1.112 2.54-3.432 5.752-2.32 3.21-2.396 3.973-2.396 4.577v4.755l30.833-17.816v-4.76a1.193 1.193 0 0 0-.69-1.188Zm-26.544 19.31c-.403.236-.728-.076-.728-.699a1.917 1.917 0 0 1 .728-1.543c.403-.23.724.086.724.704a1.918 1.918 0 0 1-.724 1.539Zm11.83-14.325a1.557 1.557 0 0 1-2.397-.73 4.386 4.386 0 0 1-.374-1.916c0-2.334 1.232-4.937 2.751-5.814a2.26 2.26 0 0 1 .662-.259c1.198-.24 2.08.915 2.08 2.905.019 2.334-1.218 4.936-2.723 5.814Zm11.944.599c-.408.234-.734-.077-.734-.695a1.917 1.917 0 0 1 .733-1.539c.398-.23.724.081.724.7a1.918 1.918 0 0 1-.724 1.534Z" fill="#fff"/><path d="M70.383 40.285a2.218 2.218 0 0 0-.11.734v4.759l-1.735-.987v-4.755a2.783 2.783 0 0 1 0-.379.773.773 0 0 0 0-.12.142.142 0 0 1 0-.043c0-.048.024-.09.038-.143v-.053l1.807.987Zm5.694-9.561c-.796 1.102-1.026 1.989-2.094 3.743l-1.712-.987c1.074-1.755 1.304-2.646 2.1-3.753l1.706.997Zm6.538-13.029c-1.016 2.305-1.385 5.033-2.21 7.094-.163.41-.347.811-.551 1.203l-1.711-.959c.057-.105.11-.216.168-.326.057-.11.162-.35.24-.537.047-.11.1-.225.143-.345.043-.12.12-.306.173-.479.052-.172.081-.22.115-.335.186-.556.35-1.136.512-1.74l.115-.456a6.97 6.97 0 0 0 .12-.479l.23-.858a.24.24 0 0 0 0-.062c.043-.158.087-.307.135-.48 0-.071.043-.148.067-.225.067-.23.144-.48.22-.69.077-.21.153-.45.24-.671.086-.22.172-.441.268-.657l1.726 1.002Z" fill="#7A6BDE"/><path opacity=".65" d="M70.383 40.285a2.218 2.218 0 0 0-.11.734v4.759l-1.735-.987v-4.755a2.783 2.783 0 0 1 0-.379.773.773 0 0 0 0-.12.142.142 0 0 1 0-.043c0-.048.024-.09.038-.143v-.053l1.807.987Zm5.694-9.561c-.796 1.102-1.026 1.989-2.094 3.743l-1.712-.987c1.074-1.755 1.304-2.646 2.1-3.753l1.706.997Zm6.538-13.029c-1.016 2.305-1.385 5.033-2.21 7.094-.163.41-.347.811-.551 1.203l-1.711-.959c.057-.105.11-.216.168-.326.057-.11.162-.35.24-.537.047-.11.1-.225.143-.345.043-.12.12-.306.173-.479.052-.172.081-.22.115-.335.186-.556.35-1.136.512-1.74l.115-.456a6.97 6.97 0 0 0 .12-.479l.23-.858a.24.24 0 0 0 0-.062c.043-.158.087-.307.135-.48 0-.071.043-.148.067-.225.067-.23.144-.48.22-.69.077-.21.153-.45.24-.671.086-.22.172-.441.268-.657l1.726 1.002Z" fill="#fff"/><path d="M73.307 39.728Zm1.246.082c0-.11-.012-.22-.038-.326.022.107.033.216.033.326a2.181 2.181 0 0 1-.249.958c.157-.295.244-.623.254-.958Zm22.57-12.184a.355.355 0 0 0 .34.048.384.384 0 0 1-.34-.048ZM88.4 21.205c0 2.334-1.232 4.937-2.746 5.814a1.557 1.557 0 0 1-2.397-.724c.236-.05.46-.14.667-.263 1.538-.892 2.755-3.48 2.755-5.82a4.375 4.375 0 0 0-.373-1.916c1.203-.235 2.094.92 2.094 2.91Z" fill="#7A6BDE"/><path opacity=".1" d="M88.4 21.205c0 2.334-1.232 4.937-2.746 5.814a1.557 1.557 0 0 1-2.397-.724c.236-.05.46-.14.667-.263 1.538-.892 2.755-3.48 2.755-5.82a4.375 4.375 0 0 0-.373-1.916c1.203-.235 2.094.92 2.094 2.91Z" fill="#000"/><path d="M74.299 40.793a1.669 1.669 0 0 1-.192.297.992.992 0 0 1-.282.254.398.398 0 0 1-.523-.043.892.892 0 0 1-.206-.652c.005-.318.077-.631.21-.92.11-.254.29-.471.519-.628a.536.536 0 0 1 .124-.053.379.379 0 0 1 .403.101.734.734 0 0 1 .163.336c.026.106.038.216.038.325a2.2 2.2 0 0 1-.254.983Z" fill="#455A64"/><path d="M98.322 26.099a2.181 2.181 0 0 1-.379 1.198c-.06.082-.125.159-.197.23-.048.038-.1.074-.153.105a.367.367 0 0 1-.13.053.359.359 0 0 1-.397-.1.915.915 0 0 1-.201-.648c.004-.467.162-.92.45-1.289a.521.521 0 0 1 .067-.076l.067-.072a1.01 1.01 0 0 1 .144-.106c.403-.254.729.072.729.705Z" fill="#37474F"/><path d="M119.89 19.93c-.067-.225-.278-.297-.527-.153l-63.982 36.94a1.135 1.135 0 0 0-.388.407l-1.712-.987a1.125 1.125 0 0 1 .178-.235.964.964 0 0 1 .21-.173l63.983-36.94a.798.798 0 0 1 .158-.071c.262-.091.548-.091.81 0a.57.57 0 0 1 .12.057l.623.355c.032.02.063.042.091.067a.336.336 0 0 1 .077.067c.035.033.069.068.1.105a.69.69 0 0 1 .067.096 1.202 1.202 0 0 1 .192.465Z" fill="#fff"/><path d="m204.966 177.077-44.263-23.653-6.03-3.907a70.594 70.594 0 0 1-13.559-11.45 80.359 80.359 0 0 1-21.205-54.387V60.195l-1.95-1.122-63.124-1.395c.007-.19.062-.376.158-.541l-1.711-.988a1.15 1.15 0 0 0-.067.135 1.043 1.043 0 0 0-.092.407v39.94h-.028v23.486c0 1.117 0 2.238.033 3.355v.038c.033 2.868.253 5.731.657 8.57a79.063 79.063 0 0 0 1.054 5.618 80.398 80.398 0 0 0 19.254 36.815 70.476 70.476 0 0 0 13.545 11.46l6.03 3.906 43.837 25.307h.024l1.917 1.112a2.292 2.292 0 0 0 2.075 0l63.019-36.345a.714.714 0 0 0 .426-.599v-2.277Z" fill="#EBEBEB"/><path opacity=".1" d="M204.966 177.078v2.253a.718.718 0 0 1-.427.599l-62.999 36.379c-.32.171-.678.257-1.04.249v-2.253c.362.009.72-.077 1.04-.249l62.999-36.369a.733.733 0 0 0 .427-.609Z" fill="#000"/><path d="m204.54 176.489-43.837-25.293-6.03-3.906a70.563 70.563 0 0 1-13.559-11.45 80.359 80.359 0 0 1-21.205-54.387v-61.35a.634.634 0 0 0 0-.163c-.067-.226-.278-.298-.527-.154l-64.001 36.93a1.136 1.136 0 0 0-.388.408 1.17 1.17 0 0 0-.159.541v61.351a80.393 80.393 0 0 0 21.205 54.377 70.455 70.455 0 0 0 13.56 11.45l6.029 3.907 43.837 25.307a2.292 2.292 0 0 0 2.075 0l63-36.37a.63.63 0 0 0 .429-.599.632.632 0 0 0-.429-.599Z" fill="#FAFAFA"/><path d="m80.53 33.287-.091.14a3.258 3.258 0 0 0-.432 1.082v.058a.088.088 0 0 0 0 .024l-1.054 5.886-.33 1.879a2.104 2.104 0 0 1-.058.234 1.33 1.33 0 0 1-.067.226c-.02.05-.038.1-.053.153l1.706.987c.082-.196.143-.4.182-.608l.331-1.88 1.035-5.876c.08-.472.263-.92.537-1.313l-1.706-.992ZM68.749 52.263c-.173.269-.34.547-.48.82a6.325 6.325 0 0 0-.206.398c-.062.129-.167.345-.24.517-.071.173-.162.384-.234.575-.072.192-.144.384-.206.58-.063.197-.149.45-.211.68a9.62 9.62 0 0 0-.125.48c-.096.36-.177.729-.254 1.098-.029.13-.057.263-.081.388s-.063.312-.091.48v.023c0 .125 0 .206.062.24a.066.066 0 0 0 .053 0l1.438-1.155.24-.192.114-.086.13-.1.1-.078a.549.549 0 0 1 .087-.067 13.08 13.08 0 0 1 2.113-4.313l-1.687-1.05c-.187.268-.364.513-.522.762ZM87.255 20.38c-.077.13-.149.259-.216.393a1.55 1.55 0 0 0-.125.23c-.062.11-.115.22-.172.33a3.28 3.28 0 0 0-.13.27 9.768 9.768 0 0 0-.234.521c-.072.173-.163.38-.235.566-.067.168-.13.34-.182.508-.091.254-.168.513-.24.772-.038.134-.072.268-.106.402v.03l-.043.205a6.054 6.054 0 0 0-.096.48c-.023.158-.052.254-.086.378-.033.125-.067.264-.11.398s-.082.25-.12.379v.033c-.053.135-.105.278-.168.422-.062.144-.115.283-.182.427a.996.996 0 0 0-.048.115l-.158.326a18.196 18.196 0 0 1-.46.877l1.687 1.011a11.526 11.526 0 0 0 1.328-3.355 14.753 14.753 0 0 1 1.802-4.726l-1.706-.992Zm10.18 3.8a.618.618 0 0 0-.278-.096 2.09 2.09 0 0 0 1.529.959c.147 0 .292.031.426.09l-1.677-.953Z" fill="#7A6BDE"/><path opacity=".8" d="M97.435 24.18a.618.618 0 0 0-.278-.096 2.09 2.09 0 0 0 1.529.959c.147 0 .292.031.426.09l-1.677-.953Z" fill="#fff"/><path d="M103.795 31.625a1.853 1.853 0 0 0-1.716.048c-1.989.881-2.851 1.275-3.877 1.706-.201 1.318.58 1.438.958 1.29 1.438-.576 2.181-.926 4.626-2a1.842 1.842 0 0 1 1.701-.057l-1.692-.987Z" fill="#7A6BDE"/><path opacity=".8" d="M103.795 31.625a1.853 1.853 0 0 0-1.716.048c-1.989.881-2.851 1.275-3.877 1.706-.201 1.318.58 1.438.958 1.29 1.438-.576 2.181-.926 4.626-2a1.842 1.842 0 0 1 1.701-.057l-1.692-.987Z" fill="#fff"/><path d="M80.151 43.965a7.008 7.008 0 0 1-1.505 2.153l-5.363 4.02a14.38 14.38 0 0 0-2.3 2.397L69.27 51.5a14.139 14.139 0 0 1 2.3-2.368l5.37-4.026a7.119 7.119 0 0 0 1.504-2.147l1.706 1.006Z" fill="#7A6BDE"/><path opacity=".8" d="M80.151 43.965a7.008 7.008 0 0 1-1.505 2.153l-5.363 4.02a14.38 14.38 0 0 0-2.3 2.397L69.27 51.5a14.139 14.139 0 0 1 2.3-2.368l5.37-4.026a7.119 7.119 0 0 0 1.504-2.147l1.706 1.006Z" fill="#fff"/><path d="M85.83 29.453a18.106 18.106 0 0 1-2.703 3.772 6.393 6.393 0 0 0-.891 1.074l-1.707-.959c.247-.406.541-.78.878-1.117a18.01 18.01 0 0 0 2.703-3.767l1.72.997Z" fill="#7A6BDE"/><path opacity=".8" d="M85.83 29.453a18.106 18.106 0 0 1-2.703 3.772 6.393 6.393 0 0 0-.891 1.074l-1.707-.959c.247-.406.541-.78.878-1.117a18.01 18.01 0 0 0 2.703-3.767l1.72.997Z" fill="#fff"/><path d="M95.499 16.805c-.633-.33-1.472-.273-2.464.244-1.467.767-2.943 2.397-4.064 4.314l-1.716-.987c1.126-1.917 2.602-3.552 4.074-4.314a3.423 3.423 0 0 1 1.567-.446c.335-.004.665.079.959.24l1.644.949Z" fill="#7A6BDE"/><path opacity=".8" d="M95.499 16.805c-.633-.33-1.472-.273-2.464.244-1.467.767-2.943 2.397-4.064 4.314l-1.716-.987c1.126-1.917 2.602-3.552 4.074-4.314a3.423 3.423 0 0 1 1.567-.446c.335-.004.665.079.959.24l1.644.949Z" fill="#fff"/><path opacity=".65" d="M70.982 52.513a13.079 13.079 0 0 0-2.114 4.314.56.56 0 0 0-.086.067l-.1.076-.13.101-.115.086-.24.192-1.438 1.155a.066.066 0 0 1-.052 0c-.058-.033-.082-.115-.063-.24v-.023c.029-.159.063-.312.091-.48.029-.168.053-.259.082-.388.076-.369.158-.738.254-1.098a22.4 22.4 0 0 0 .124-.479c.063-.23.135-.455.211-.68.077-.226.134-.389.206-.58.072-.192.154-.384.235-.576.082-.191.154-.345.24-.517.086-.173.13-.264.206-.398.144-.273.311-.551.48-.82.167-.268.335-.479.522-.743l1.687 1.03ZM82.236 34.29a3.215 3.215 0 0 0-.537 1.313l-1.035 5.877-.33 1.879c-.04.208-.101.412-.183.608l-1.706-.987c.015-.052.032-.103.053-.153.028-.073.05-.149.067-.226.024-.077.043-.155.057-.235l.33-1.878 1.041-5.877a.087.087 0 0 1 0-.024v-.057a3.29 3.29 0 0 1 .431-1.083l.091-.14 1.721.983Zm6.734-12.922a14.753 14.753 0 0 0-1.811 4.73 11.529 11.529 0 0 1-1.338 3.355l-1.715-.987c.067-.115.129-.23.191-.35.063-.12.182-.35.269-.527l.158-.326a.978.978 0 0 1 .048-.115c.062-.139.124-.288.182-.427.057-.139.115-.287.168-.421v-.034c.038-.13.086-.254.12-.378.033-.125.08-.269.11-.398.028-.13.062-.254.086-.379.024-.125.057-.316.096-.48l.043-.205v-.03c.034-.133.067-.268.105-.402.072-.259.149-.517.24-.771.053-.168.115-.34.182-.508.072-.187.153-.38.235-.566.082-.187.149-.345.235-.523.038-.09.086-.177.13-.268.042-.091.11-.22.172-.33.035-.08.076-.158.124-.23.067-.135.14-.264.216-.394l1.754.964Z" fill="#fff"/><path d="m66.73 58.508 1.439-1.156c-.566.456-1.357 1.074-1.438 1.156Z" fill="#7A6BDE"/><path d="M105.521 32.626h-.024a1.869 1.869 0 0 0-1.706.053c-2.44 1.078-3.178 1.438-4.62 2.003-.389.158-1.17.029-.96-1.29a.727.727 0 0 1 0-.09l.331-1.879.925-5.119s.211-.805-.326-1.112h-.038a.959.959 0 0 0-.426-.096 2.07 2.07 0 0 1-1.525-.958 3.862 3.862 0 0 1-.575-2.929c.388-2.195-.038-3.734-1.011-4.314l-.077-.047c-.628-.331-1.471-.278-2.454.24-2.598 1.341-5.224 5.372-5.876 9.01-.403 2.296-2.708 5.824-4.04 7.122-1.333 1.3-1.439 2.397-1.439 2.397l-1.035 5.88-.33 1.88c-.245 1.404-1.688 2.76-1.688 2.76l-5.363 4.022a12.94 12.94 0 0 0-4.414 6.681s-2.013 1.563-2.138 1.688l.685-.393 37.031-21.286.518-.288c.091-.057 1.582-1.467 1.582-1.467-.034-1.236-.389-2.099-1.007-2.468ZM94.828 21.823c-.398 2.233-2.008 4.726-3.61 5.564-1.107.58-1.917.22-2.18-.795a4.261 4.261 0 0 1 0-1.735c.398-2.234 2.013-4.726 3.614-5.56.153-.081.313-.147.479-.197 1.294-.402 2.047.714 1.697 2.723Z" fill="#7A6BDE"/><path opacity=".55" d="M105.521 32.626h-.024a1.869 1.869 0 0 0-1.706.053c-2.44 1.078-3.178 1.438-4.62 2.003-.389.158-1.17.029-.96-1.29a.727.727 0 0 1 0-.09l.331-1.879.925-5.119s.211-.805-.326-1.112h-.038a.959.959 0 0 0-.426-.096 2.07 2.07 0 0 1-1.525-.958 3.862 3.862 0 0 1-.575-2.929c.388-2.195-.038-3.734-1.011-4.314l-.077-.047c-.628-.331-1.471-.278-2.454.24-2.598 1.341-5.224 5.372-5.876 9.01-.403 2.296-2.708 5.824-4.04 7.122-1.333 1.3-1.439 2.397-1.439 2.397l-1.035 5.88-.33 1.88c-.245 1.404-1.688 2.76-1.688 2.76l-5.363 4.022a12.94 12.94 0 0 0-4.414 6.681s-2.013 1.563-2.138 1.688l.685-.393 37.031-21.286.518-.288c.091-.057 1.582-1.467 1.582-1.467-.034-1.236-.389-2.099-1.007-2.468ZM94.828 21.823c-.398 2.233-2.008 4.726-3.61 5.564-1.107.58-1.917.22-2.18-.795a4.261 4.261 0 0 1 0-1.735c.398-2.234 2.013-4.726 3.614-5.56.153-.081.313-.147.479-.197 1.294-.402 2.047.714 1.697 2.723Z" fill="#fff"/><path d="m66.736 58.513 37.716-21.684.522-.287c.091-.058 1.582-1.472 1.582-1.472L68.869 56.821s-2.282 1.769-2.133 1.692ZM93.107 19.1a2.68 2.68 0 0 0-.48.197c-1.6.834-3.216 3.326-3.614 5.56a4.261 4.261 0 0 0 0 1.735c.269 1.016 1.074 1.375 2.181.795 1.601-.839 3.212-3.33 3.61-5.564.373-2.009-.38-3.125-1.697-2.723Zm-3.979 7.448a4.162 4.162 0 0 1 0-1.672c.389-2.205 1.99-4.669 3.557-5.484.14-.075.285-.137.436-.186a4.311 4.311 0 0 1 0 1.624c-.393 2.239-2.008 4.726-3.61 5.565a3.1 3.1 0 0 1-.364.158l-.019-.005Z" fill="#7A6BDE"/><path opacity=".1" d="M93.107 19.1a2.68 2.68 0 0 0-.48.197c-1.6.834-3.216 3.326-3.614 5.56a4.261 4.261 0 0 0 0 1.735c.269 1.016 1.074 1.375 2.181.795 1.601-.839 3.212-3.33 3.61-5.564.373-2.009-.38-3.125-1.697-2.723Zm-3.979 7.448a4.162 4.162 0 0 1 0-1.672c.389-2.205 1.99-4.669 3.557-5.484.14-.075.285-.137.436-.186a4.311 4.311 0 0 1 0 1.624c-.393 2.239-2.008 4.726-3.61 5.565a3.1 3.1 0 0 1-.364.158l-.019-.005Z" fill="#000"/><path opacity=".1" d="M58.741 79.339v24.353c0 .436.302.614.68.393l36.217-20.86a1.515 1.515 0 0 0 .685-1.183V57.689c0-.441-.306-.614-.685-.398L59.422 78.15a1.513 1.513 0 0 0-.68 1.188Z" fill="#7A6BDE"/><path d="M60.318 101.756s3.274-4.314 4.227-6.145c1.414-2.737 1.088-8.033 3.796-9.586 2.708-1.553 2.282 5.435 5.786 3.432 3.503-2.004 3.499-4.376 5.272-5.536 1.773-1.16 3.321 1.16 5.411 0 2.397-1.333 3.494-9.486 5.968-10.842 2.77-1.52 3.867 5.905 3.867 5.905v2.967l-34.327 19.805Z" fill="#7A6BDE"/><path opacity=".6" d="M60.318 101.757s1.538-8.292 3.211-9.265c2.397-1.39 1.553 4.793 4.793 2.78 2.66-1.625 2.167-8.68 5.618-10.622 2.593-1.437 2.425 4.089 5.612 2.287 3.188-1.802 2.397-10.703 5.613-12.5 3.216-1.798 2.77 7.73 5.234 6.23 2.91-1.749 1.917-4.102 4.232-6.159v7.43l-34.313 19.819Z" fill="#7A6BDE"/><path opacity=".25" d="M60.318 101.757s1.538-8.292 3.211-9.265c2.397-1.39 1.553 4.793 4.793 2.78 2.66-1.625 2.167-8.68 5.618-10.622 2.593-1.437 2.425 4.089 5.612 2.287 3.188-1.802 2.397-10.703 5.613-12.5 3.216-1.798 2.77 7.73 5.234 6.23 2.91-1.749 1.917-4.102 4.232-6.159v7.43l-34.313 19.819Z" fill="#000"/><path d="M61.942 80.708c0 .513.36.72.8.48a1.768 1.768 0 0 0 .801-1.39c0-.513-.354-.72-.8-.48a1.777 1.777 0 0 0-.8 1.39Z" fill="#7A6BDE"/><path opacity=".25" d="M61.942 80.708c0 .513.36.72.8.48a1.768 1.768 0 0 0 .801-1.39c0-.513-.354-.72-.8-.48a1.777 1.777 0 0 0-.8 1.39Z" fill="#000"/><path d="m65.59 78.247 13.608-7.856c.23-.13.416-.033.416.226a.895.895 0 0 1-.416.7l-13.608 7.86c-.23.13-.417.029-.417-.225a.911.911 0 0 1 .417-.705Z" fill="#455A64"/><path d="M61.942 84.414c0 .513.36.72.8.48a1.77 1.77 0 0 0 .801-1.39c0-.513-.354-.72-.8-.48a1.778 1.778 0 0 0-.8 1.39Z" fill="#7A6BDE"/><path d="m65.59 81.95 13.608-7.856c.23-.129.416-.033.416.226a.895.895 0 0 1-.416.7L65.59 82.88c-.23.13-.417.029-.417-.225a.91.91 0 0 1 .417-.705Z" fill="#455A64"/><path opacity=".1" d="M58.731 108.092v16.104c0 .288.206.408.456.264l19.253-11.129a.998.998 0 0 0 .45-.782v-16.1c0-.287-.2-.402-.45-.258l-19.253 11.115a1.008 1.008 0 0 0-.456.786Z" fill="#7A6BDE"/><path d="M60.855 121.048v-12.251l.733-.422v12.251l-.733.422Z" fill="#7A6BDE"/><path d="m60.692 121.992 1.059-.613v.379l-1.06.608v-.374Z" fill="#455A64"/><path d="M62.244 120.241v-9.802l.734-.421v9.801l-.734.422Z" fill="#7A6BDE"/><path d="m62.082 121.187 1.059-.609v.374l-1.06.613v-.378Z" fill="#455A64"/><path d="M64.368 119.02v-10.65l.733-.417v10.645l-.733.422Z" fill="#7A6BDE"/><path d="m64.205 119.959 1.064-.613v.374l-1.064.613v-.374Z" fill="#455A64"/><path d="M65.758 118.216v-8.81l.733-.422v8.81l-.733.422Z" fill="#7A6BDE"/><path d="m65.6 119.155 1.06-.614v.379l-1.06.613v-.378Z" fill="#455A64"/><path d="M67.88 116.993v-4.913l.734-.422v4.913l-.733.422Z" fill="#7A6BDE"/><path d="m67.713 117.938 1.064-.614v.374l-1.064.614v-.374Z" fill="#455A64"/><path d="M69.276 116.188v-5.574l.728-.422v5.575l-.728.421Z" fill="#7A6BDE"/><path d="m69.108 117.132 1.06-.613v.373l-1.06.614v-.374Z" fill="#455A64"/><path d="M71.394 114.961v-6.72l.734-.422v6.72l-.734.422Z" fill="#7A6BDE"/><path d="m71.241 115.905 1.06-.613v.374l-1.06.613v-.374Z" fill="#455A64"/><path d="M72.789 114.156v-4.371l.728-.422v4.376l-.728.417Z" fill="#7A6BDE"/><path d="m72.63 115.099 1.065-.614v.374l-1.064.614v-.374Z" fill="#455A64"/><path d="M74.908 112.933v-1.912l.733-.417v1.907l-.733.422Zm-14.053 8.115v-12.251l.733-.422v12.251l-.733.422Zm3.513-2.028v-10.65l.733-.417v10.645l-.733.422Zm3.512-2.027v-4.913l.734-.422v4.913l-.733.422Zm3.514-2.032v-6.72l.734-.422v6.72l-.734.422Z" fill="#7A6BDE"/><path d="M74.908 112.933v-1.912l.733-.417v1.907l-.733.422Z" fill="#7A6BDE"/><path d="m74.754 113.872 1.064-.613v.374l-1.064.613v-.374Z" fill="#455A64"/><path d="M76.302 112.129v-.949l.729-.422v.954l-.729.417Z" fill="#7A6BDE"/><path d="m76.15 113.067 1.059-.614v.379l-1.065.608.005-.373Z" fill="#455A64"/><path d="m71.466 102.234-.796.461v.92l.796-.46v-.921Z" fill="#7A6BDE"/><path opacity=".25" d="m71.466 102.234-.796.461v.92l.796-.46v-.921Z" fill="#000"/><path d="m77.625 98.813-5.689 3.278a.476.476 0 0 0-.206.36v.182c0 .129.091.187.206.12l5.69-3.284a.48.48 0 0 0 .206-.359v-.158c0-.154-.092-.206-.207-.14Z" fill="#455A64"/><path d="m71.466 103.768-.796.46v.92l.796-.46v-.92Z" fill="#7A6BDE"/><path d="m77.625 100.342-5.689 3.283a.482.482 0 0 0-.206.359v.178c0 .134.091.187.206.12l5.69-3.284a.435.435 0 0 0 .206-.359v-.177c0-.13-.092-.187-.207-.12Z" fill="#455A64"/><path d="M60.855 121.048v-12.251l.733-.422v12.251l-.733.422Zm3.513-2.028v-10.65l.733-.417v10.645l-.733.422Zm3.512-2.027v-4.913l.734-.422v4.913l-.733.422Zm3.514-2.032v-6.72l.734-.422v6.72l-.734.422Z" fill="#7A6BDE"/><path d="M60.855 121.048v-12.251l.733-.422v12.251l-.733.422Zm3.513-2.028v-10.65l.733-.417v10.645l-.733.422Zm3.512-2.027v-4.913l.734-.422v4.913l-.733.422Zm3.514-2.032v-6.72l.734-.422v6.72l-.734.422Zm3.514-2.028v-1.912l.733-.417v1.907l-.733.422Z" fill="#7A6BDE"/><path opacity=".25" d="M60.855 121.048v-12.251l.733-.422v12.251l-.733.422Zm3.513-2.028v-10.65l.733-.417v10.645l-.733.422Zm3.512-2.027v-4.913l.734-.422v4.913l-.733.422Zm3.514-2.032v-6.72l.734-.422v6.72l-.734.422Zm3.514-2.028v-1.912l.733-.417v1.907l-.733.422Z" fill="#000"/><path opacity=".1" d="M81.014 95.241v16.109c0 .288.201.403.455.259l14.38-8.316a.993.993 0 0 0 .479-.781v-16.11c0-.287-.207-.402-.48-.258L81.47 94.46a.988.988 0 0 0-.455.781Z" fill="#7A6BDE"/><path d="m82.874 94.873-.796.46v.92l.796-.46v-.92Z" fill="#7A6BDE"/><path d="m85.807 93.417-2.627 1.515a.273.273 0 0 0-.124.215v.25c0 .081.057.11.124.072l2.627-1.515a.283.283 0 0 0 .125-.216v-.249c0-.081-.058-.11-.125-.072Z" fill="#455A64"/><path d="m87.38 92.27-.796.46.004.916.791-.46v-.916Z" fill="#7A6BDE"/><path opacity=".25" d="m87.38 92.27-.796.46.004.916.791-.46v-.916Z" fill="#000"/><path d="m90.332 90.833-2.627 1.515a.292.292 0 0 0-.124.215v.254a.076.076 0 0 0 .037.08.077.077 0 0 0 .087-.008l2.627-1.514a.278.278 0 0 0 .125-.22v-.25c0-.077-.053-.1-.125-.072Z" fill="#455A64"/><path d="m91.89 89.663-.796.46v.92l.795-.46v-.92Z" fill="#7A6BDE"/><path opacity=".4" d="m91.89 89.663-.796.46v.92l.795-.46v-.92Z" fill="#000"/><path d="M94.856 88.255 92.23 89.77a.258.258 0 0 0-.12.215v.25c0 .081.053.11.125.072l2.621-1.515a.264.264 0 0 0 .125-.216v-.249c0-.081-.053-.11-.124-.072Z" fill="#455A64"/><path d="M88.922 95.118c-2.343 1.352-4.246 4.645-4.246 7.348 0 2.703 1.917 3.805 4.246 2.454 2.33-1.352 4.242-4.645 4.242-7.353s-1.898-3.82-4.242-2.449Zm-.656 8.671c-.372.239-.8.378-1.242.402-.906 0-1.04-1.078-1.04-1.725 0-2.248 1.644-5.095 3.59-6.231.371-.242.8-.382 1.242-.407.906 0 1.044 1.083 1.044 1.725 0 2.248-1.644 5.095-3.594 6.221v.015Z" fill="#7A6BDE"/><path opacity=".25" d="M89.555 96.234c.371-.241.8-.382 1.241-.407.566 0 .83.417.959.891l.959-1.097c-.695-1.203-2.133-1.477-3.792-.518v1.582c.198-.169.41-.32.633-.45Z" fill="#000"/><path opacity=".4" d="m92.714 95.621-.959 1.098c.068.272.1.553.096.834-.001.265-.024.53-.067.79l1.37-.79a3.835 3.835 0 0 0-.45-1.918l.01-.014Z" fill="#000"/><path d="M74.53 58.312c.08-.048.143-.048.186 0a.384.384 0 0 1 .091.154l1.328 5.147c.013.04.02.083.024.125a.408.408 0 0 1-.039.168.235.235 0 0 1-.096.115l-.766.445c-.082.049-.14.053-.178 0a.225.225 0 0 1-.062-.114l-.173-.681-1.62.935-.172.877a.59.59 0 0 1-.063.191.416.416 0 0 1-.172.182l-.772.442a.067.067 0 0 1-.09 0 .157.157 0 0 1-.044-.125c.004-.052.012-.103.024-.154l1.323-6.667c.017-.09.046-.176.086-.258a.45.45 0 0 1 .187-.211l.997-.57Zm-.988 4.693.987-.57-.48-1.97-.507 2.54Zm5.886-.959a.139.139 0 0 1-.168 0 .263.263 0 0 1-.082-.086l-1.394-2.397v3.173a.479.479 0 0 1-.053.206.298.298 0 0 1-.115.144l-.796.48a.091.091 0 0 1-.12 0 .192.192 0 0 1-.047-.15V57.34c0-.071.016-.142.047-.206a.331.331 0 0 1 .12-.144l.633-.364a.159.159 0 0 1 .168 0 .32.32 0 0 1 .081.086l1.395 2.397V55.93a.479.479 0 0 1 .053-.206.264.264 0 0 1 .115-.139l.795-.48a.1.1 0 0 1 .12 0 .22.22 0 0 1 .048.15v6.067a.52.52 0 0 1-.048.206.282.282 0 0 1-.12.144l-.632.374Zm3.896-8.821c.082-.047.144-.047.187 0a.321.321 0 0 1 .086.159l1.333 5.147c.013.04.02.083.024.125a.35.35 0 0 1-.043.168.23.23 0 0 1-.091.115l-.772.445c-.082.048-.14.053-.173 0a.196.196 0 0 1-.062-.115l-.172-.68-1.62.958-.135.868a.738.738 0 0 1-.062.192.432.432 0 0 1-.177.182l-.767.44a.072.072 0 0 1-.096 0 .172.172 0 0 1-.038-.12.95.95 0 0 1 .023-.157l1.328-6.682a1.29 1.29 0 0 1 .091-.259.45.45 0 0 1 .187-.21l.95-.576Zm-.959 4.674.988-.57-.48-1.97-.508 2.54Zm6.083-2.564c.048-.024.086-.024.115 0a.202.202 0 0 1 .053.149v.997a.479.479 0 0 1-.053.206.273.273 0 0 1-.115.144l-2.823 1.63a.086.086 0 0 1-.115 0 .193.193 0 0 1-.048-.15v-6.057a.48.48 0 0 1 .048-.207.364.364 0 0 1 .115-.143l.8-.48a.087.087 0 0 1 .115 0 .192.192 0 0 1 .048.149v4.793l1.86-1.03Zm2.325-.081a.48.48 0 0 1-.048.206.364.364 0 0 1-.115.144l-.8.48a.087.087 0 0 1-.116 0 .192.192 0 0 1-.048-.15v-2.036l-1.409-3.173a.23.23 0 0 1-.024-.11.355.355 0 0 1 .039-.168.215.215 0 0 1 .096-.115l.834-.48c.08-.047.143-.052.182 0a.211.211 0 0 1 .072.096l.771 1.87.772-2.761c.02-.063.046-.124.076-.182a.436.436 0 0 1 .183-.202l.834-.479a.072.072 0 0 1 .096 0 .18.18 0 0 1 .038.125.38.38 0 0 1-.024.134l-1.41 4.793v2.008Zm3.379-8.363a1.56 1.56 0 0 1 .719-.24 1.01 1.01 0 0 1 .56.12.9.9 0 0 1 .374.384c.09.17.138.359.14.55a.369.369 0 0 1-.125.279l-.8.48a.24.24 0 0 1-.14.042.316.316 0 0 1-.163-.11.335.335 0 0 0-.115-.072.37.37 0 0 0-.182 0 .65.65 0 0 0-.268.1 1.66 1.66 0 0 0-.412.336.957.957 0 0 0-.135.226.682.682 0 0 0-.052.263.258.258 0 0 0 .062.202.245.245 0 0 0 .192.062c.123-.005.245-.024.364-.058l.56-.143c.19-.055.388-.081.586-.077a.738.738 0 0 1 .416.158.85.85 0 0 1 .254.422c.06.235.088.477.082.719a3.12 3.12 0 0 1-.144.958 3.526 3.526 0 0 1-.393.868 3.94 3.94 0 0 1-.594.757 3.807 3.807 0 0 1-.758.575 1.778 1.778 0 0 1-.752.264 1.01 1.01 0 0 1-.59-.106.958.958 0 0 1-.407-.43 1.403 1.403 0 0 1-.148-.624.38.38 0 0 1 .043-.168.269.269 0 0 1 .086-.11l.8-.48a.283.283 0 0 1 .135-.047c.035.005.068.02.095.043a.68.68 0 0 1 .077.081.4.4 0 0 0 .13.096.388.388 0 0 0 .206.039.7.7 0 0 0 .306-.115c.2-.112.383-.253.542-.417a.757.757 0 0 0 .216-.518.195.195 0 0 0-.077-.187.426.426 0 0 0-.24-.038 2.125 2.125 0 0 0-.402.081l-.585.149a.897.897 0 0 1-.92-.163 1.677 1.677 0 0 1-.288-1.122 3.08 3.08 0 0 1 .12-.839c.078-.296.194-.581.345-.848a3.84 3.84 0 0 1 .546-.762c.212-.231.46-.427.734-.58Zm2.688 5.113a.086.086 0 0 1-.115 0 .191.191 0 0 1-.047-.148v-6.078a.48.48 0 0 1 .047-.206.332.332 0 0 1 .116-.144l.8-.48a.086.086 0 0 1 .115 0 .19.19 0 0 1 .048.15v6.067a.478.478 0 0 1-.048.206.311.311 0 0 1-.115.14l-.8.493Zm3.408-8.652c.215-.137.46-.22.714-.24a1.03 1.03 0 0 1 .566.12.892.892 0 0 1 .369.384c.092.17.141.358.144.55a.377.377 0 0 1-.043.169.213.213 0 0 1-.087.11l-.8.48a.225.225 0 0 1-.134.042.23.23 0 0 1-.11-.052l-.058-.058a.27.27 0 0 0-.11-.072.387.387 0 0 0-.187 0 .609.609 0 0 0-.264.1 1.474 1.474 0 0 0-.412.336.823.823 0 0 0-.134.226.603.603 0 0 0-.053.263.283.283 0 0 0 .058.201.253.253 0 0 0 .196.063c.122-.005.243-.024.36-.058.153-.032.34-.08.56-.143.19-.055.388-.08.585-.077.153.01.3.064.422.158.121.114.208.26.249.422.06.235.088.476.082.719a3.31 3.31 0 0 1-.139.958 3.994 3.994 0 0 1-.393.868c-.17.275-.371.529-.599.757a3.786 3.786 0 0 1-.753.575 1.79 1.79 0 0 1-.757.264 1.027 1.027 0 0 1-.59-.105.959.959 0 0 1-.388-.398 1.405 1.405 0 0 1-.144-.623.448.448 0 0 1 .038-.168.274.274 0 0 1 .092-.11l.795-.48a.282.282 0 0 1 .135-.048c.036.006.07.021.1.044l.072.081a.408.408 0 0 0 .34.134.739.739 0 0 0 .307-.115 2.32 2.32 0 0 0 .537-.417.77.77 0 0 0 .244-.546.198.198 0 0 0-.081-.187.428.428 0 0 0-.24-.038 2.123 2.123 0 0 0-.402.081l-.585.149a.887.887 0 0 1-.916-.163 1.649 1.649 0 0 1-.292-1.122 3.28 3.28 0 0 1 .12-.839 4.04 4.04 0 0 1 .345-.848 3.81 3.81 0 0 1 .546-.762c.2-.23.435-.427.695-.585Z" fill="#455A64"/><path d="m68.58 123.535 39.639-22.882a.794.794 0 0 1 1.251.58l.091.508a1.823 1.823 0 0 1-.819 1.778l-39.581 22.854a.811.811 0 0 1-1.128-.186.818.818 0 0 1-.152-.39l-.096-.479a1.768 1.768 0 0 1 .796-1.783Zm3.855 22.187 32.012-18.492a.81.81 0 0 1 .609-.161.812.812 0 0 1 .537.329.957.957 0 0 1-.518 1.126l-32.06 18.511c-.48.263-.959.187-1.122-.182a.981.981 0 0 1 .542-1.131Z" fill="#7A6BDE"/><path opacity=".7" d="m72.435 145.722 32.012-18.492a.81.81 0 0 1 .609-.161.812.812 0 0 1 .537.329.957.957 0 0 1-.518 1.126l-32.06 18.511c-.48.263-.959.187-1.122-.182a.981.981 0 0 1 .542-1.131Z" fill="#fff"/><path d="m73.738 148.32 19.609-11.307a.789.789 0 0 1 1.14.168.958.958 0 0 1-.513 1.126l-19.65 11.336c-.48.264-.96.182-1.123-.182a.987.987 0 0 1 .537-1.141Zm5.666 10.032 32.295-18.659a.96.96 0 0 1 1.246.11c.235.326.048.805-.412 1.069l-32.32 18.659a.959.959 0 0 1-1.236-.12c-.22-.311-.033-.791.427-1.059Z" fill="#7A6BDE"/><path opacity=".7" d="m79.404 158.352 32.295-18.659a.96.96 0 0 1 1.246.11c.235.326.048.805-.412 1.069l-32.32 18.659a.959.959 0 0 1-1.236-.12c-.22-.311-.033-.791.427-1.059Z" fill="#fff"/><path d="m81.048 160.723 12.687-7.323a.96.96 0 0 1 1.25.105c.23.321.049.796-.412 1.064l-12.687 7.314a.987.987 0 0 1-1.256-.1c-.22-.321-.042-.796.418-1.06Zm2.626 3.442 32.363-18.693a1.06 1.06 0 0 1 1.294.087c.254.311.091.781-.365 1.045l-32.367 18.692a1.056 1.056 0 0 1-1.294-.081c-.254-.321-.091-.786.37-1.05Z" fill="#7A6BDE"/><path opacity=".7" d="m83.674 164.165 32.363-18.693a1.06 1.06 0 0 1 1.294.087c.254.311.091.781-.365 1.045l-32.367 18.692a1.056 1.056 0 0 1-1.294-.081c-.254-.321-.091-.786.37-1.05Z" fill="#fff"/><path d="m85.529 166.38 12.615-7.285a1.098 1.098 0 0 1 1.318.081c.269.312.115.777-.34 1.04l-12.6 7.276a1.117 1.117 0 0 1-1.329-.077c-.273-.306-.12-.771.336-1.035Zm-9.874-14.2 25.327-14.624a.882.882 0 0 1 1.198.139.853.853 0 0 1-.479 1.098L76.336 153.44a.846.846 0 0 1-1.18-.148.89.89 0 0 1 .5-1.112Z" fill="#7A6BDE"/><path opacity=".7" d="m75.655 152.18 25.327-14.624a.882.882 0 0 1 1.198.139.853.853 0 0 1-.479 1.098L76.336 153.44a.846.846 0 0 1-1.18-.148.89.89 0 0 1 .5-1.112Z" fill="#fff"/><path d="m77.093 154.694 23.093-13.334a.896.896 0 0 1 1.212.134c.216.336 0 .825-.445 1.093l-23.117 13.334a.885.885 0 0 1-1.203-.134.844.844 0 0 1 .46-1.093Zm37.295-27.79a.996.996 0 0 1 .781-.06 1.006 1.006 0 0 1 .59.515 1.053 1.053 0 0 1-.317 1.438 1.012 1.012 0 0 1-1.375-.455 1.05 1.05 0 0 1 .321-1.438Zm6.164 9.76a1.186 1.186 0 0 1 1.491.383.856.856 0 0 1-.221 1.328 1.22 1.22 0 0 1-1.491-.384.887.887 0 0 1-.056-1.067.882.882 0 0 1 .277-.26Z" fill="#7A6BDE"/><path opacity=".7" d="M120.552 136.664a1.186 1.186 0 0 1 1.491.383.856.856 0 0 1-.221 1.328 1.22 1.22 0 0 1-1.491-.384.887.887 0 0 1-.056-1.067.882.882 0 0 1 .277-.26Z" fill="#fff"/><path opacity=".1" d="m97.023 179.475 48.131-27.8a2.929 2.929 0 0 1 2.636 0l25.47 14.705c.724.422.724 1.102 0 1.519l-48.131 27.8a2.902 2.902 0 0 1-2.636 0l-25.466-14.7c-.733-.427-.733-1.107-.004-1.524Z" fill="#7A6BDE"/><path d="M129.601 188.232c.031.017.06.038.086.063a.267.267 0 0 1 .058.067.204.204 0 0 1 .028.077.303.303 0 0 1 0 .095l-.024.221.36-.211h.081l.178.101v.048l-.762.44h-.044a.104.104 0 0 1-.043 0l-.139-.081a.12.12 0 0 1-.043-.038.043.043 0 0 1-.006-.022c0-.008.002-.015.006-.021l.077-.451a.116.116 0 0 0 0-.086.22.22 0 0 0-.053-.048h-.168a.262.262 0 0 0-.081.029.109.109 0 0 0-.048.047.066.066 0 0 0 0 .044l.024.033v.029a.044.044 0 0 1-.012.015.056.056 0 0 1-.017.009l-.177.105h-.058a.378.378 0 0 1-.115-.096.206.206 0 0 1 0-.239.439.439 0 0 1 .144-.12.776.776 0 0 1 .197-.077.828.828 0 0 1 .211 0 .69.69 0 0 1 .196.029c.049.008.097.02.144.038Zm.216-.56a.97.97 0 0 1 .22-.087.983.983 0 0 1 .23 0c.075.001.15.014.221.039.07.02.137.047.201.081.052.025.101.054.149.086l.144.087c.053.03.102.069.143.115a.223.223 0 0 1 .067.124.196.196 0 0 1-.028.134.4.4 0 0 1-.149.125.677.677 0 0 1-.225.086.708.708 0 0 1-.225 0 .833.833 0 0 1-.221-.038 1.299 1.299 0 0 1-.201-.081l-.149-.082-.148-.091a.455.455 0 0 1-.139-.115.285.285 0 0 1-.072-.129.193.193 0 0 1 .033-.13.482.482 0 0 1 .149-.124Zm.891.34-.278-.163-.086-.038h-.086a.248.248 0 0 0-.086 0l-.092.033a.161.161 0 0 0-.057.053.079.079 0 0 0 0 .048.174.174 0 0 0 .038.052 2.883 2.883 0 0 0 .345.211l.087.039h.086a.31.31 0 0 0 .086 0 .216.216 0 0 0 .086-.034.15.15 0 0 0 .058-.048.058.058 0 0 0 .005-.026.065.065 0 0 0-.005-.027.094.094 0 0 0-.034-.047.344.344 0 0 0-.091-.053h.024Zm0-.419a.043.043 0 0 1-.019.004.045.045 0 0 1-.02-.004v-.028l.034-.336v-.029c0-.028 0 0 .024-.028l.177-.101a.053.053 0 0 1 .039 0h.043l1.073.623a.02.02 0 0 1 .004.012.02.02 0 0 1-.004.012v.024l-.191.105a.053.053 0 0 1-.039 0h-.043l-.728-.421v.187a.079.079 0 0 1-.048 0l-.302-.02Zm1.984-.698a.42.42 0 0 1 .139.119.198.198 0 0 1 .039.13.23.23 0 0 1-.058.125.402.402 0 0 1-.134.115.777.777 0 0 1-.192.076c-.072.019-.146.03-.22.034a.94.94 0 0 1-.225-.024.686.686 0 0 1-.293-.139l-.052-.062a.381.381 0 0 1-.034-.058l-.024-.058-.153-.407v-.024l.23-.134h.067l.105.278a.782.782 0 0 1 .182-.062c.069-.005.138-.005.206 0l.202.028c.074.01.147.031.215.063Zm-.594.34a.24.24 0 0 0 .077.029h.168l.071-.029a.18.18 0 0 0 .048-.043.079.079 0 0 0 0-.043.095.095 0 0 0 0-.053.24.24 0 0 0-.129-.072h-.168l-.067.029a.168.168 0 0 0-.053.043.298.298 0 0 0-.024.043.119.119 0 0 0 0 .053.175.175 0 0 0 .087.043h-.01Zm10.027-6.132.081.058c.026.017.047.04.063.067l.029.081a.386.386 0 0 1 0 .096l-.029.216.364-.206h.082l.177.105a.027.027 0 0 1 .003.012.027.027 0 0 1-.003.012.027.027 0 0 1 .003.012.027.027 0 0 1-.003.012l-.757.436h-.087l-.144-.086-.043-.034a.05.05 0 0 1-.005-.021c0-.008.002-.015.005-.022l.072-.455a.097.097 0 0 0 .008-.041.097.097 0 0 0-.008-.041.2.2 0 0 0-.057-.047h-.163a.163.163 0 0 0-.082 0c-.028 0-.043.033-.048.047a.059.059 0 0 0-.005.022c0 .008.002.015.005.022a.24.24 0 0 0 0 .038v.033c0 .01 0 0-.028.024l-.178.101h-.067a.482.482 0 0 1-.115-.096.258.258 0 0 1-.053-.115.208.208 0 0 1 .034-.124.382.382 0 0 1 .139-.12.665.665 0 0 1 .201-.082c.07-.007.141-.007.211 0a.876.876 0 0 1 .197.029.95.95 0 0 1 .201.067Zm.192-.561a.664.664 0 0 1 .22-.086.708.708 0 0 1 .225 0c.075.005.149.018.221.038.068.024.136.051.201.082l.154.086.143.086c.052.034.1.073.144.115a.285.285 0 0 1 .067.13.19.19 0 0 1-.033.129.423.423 0 0 1-.149.13.673.673 0 0 1-.22.086 1.219 1.219 0 0 1-.446-.043.903.903 0 0 1-.201-.082l-.149-.081-.149-.086a.747.747 0 0 1-.143-.12.245.245 0 0 1-.068-.125.185.185 0 0 1 .034-.129.337.337 0 0 1 .149-.13Zm.891.336-.278-.163-.091-.038h-.173a.211.211 0 0 0-.086.033.156.156 0 0 0-.057.048.058.058 0 0 0-.006.026c0 .009.002.018.006.027a.142.142 0 0 0 .033.048l.067.052.283.159.082.038a.31.31 0 0 0 .086 0h.091a.303.303 0 0 0 .086-.034.153.153 0 0 0 .058-.052.06.06 0 0 0 0-.048.155.155 0 0 0-.034-.053l-.067-.043Zm.029-.412h-.043l.038-.335a.097.097 0 0 1 0-.034l.024-.029.178-.1h.081l1.074.618v.024l-.187.11h-.086l-.724-.417-.024.182a.027.027 0 0 1 .003.012.021.021 0 0 1-.003.012h-.043l-.288-.043Zm1.629-.081-.527-.662-.426.245h-.087l-.172-.106a.024.024 0 0 1-.003-.012l.003-.012.69-.398h.082l.158.091a.192.192 0 0 1 .057.063l.527.661v.024a.02.02 0 0 1 .004.012c0 .004-.001.009-.004.012l-.201.115a.05.05 0 0 1-.038 0l-.063-.033Zm10.397-6.903.086.057a.249.249 0 0 1 .086.149.31.31 0 0 1 0 .096l-.024.216.36-.207h.043a.079.079 0 0 1 .043 0l.172.101a.038.038 0 0 1 .015.009c.004.004.008.01.009.015a.02.02 0 0 1 .004.012.02.02 0 0 1-.004.012l-.762.436a.05.05 0 0 1-.038 0h-.043l-.144-.086a.102.102 0 0 1-.043-.034.04.04 0 0 1-.006-.021c0-.008.002-.015.006-.022l.077-.479a.099.099 0 0 0 .01-.041.099.099 0 0 0-.01-.041.263.263 0 0 0-.053-.047h-.168a.195.195 0 0 0-.081.024.195.195 0 0 0-.048.047.162.162 0 0 0 0 .044.121.121 0 0 0 0 .038v.033c0 .01 0 0-.029.024l-.177.101h-.067a.758.758 0 0 1-.116-.096.239.239 0 0 1-.047-.115.176.176 0 0 1 .033-.124.35.35 0 0 1 .139-.12.746.746 0 0 1 .201-.082c.069-.007.138-.007.207 0a.745.745 0 0 1 .369.101Zm.192-.559a.693.693 0 0 1 .225-.087.94.94 0 0 1 .225 0c.075.006.149.019.221.039.068.023.135.05.201.081l.153.086.144.087c.049.034.096.073.139.115.035.035.059.08.067.129a.156.156 0 0 1-.001.068.151.151 0 0 1-.028.062.47.47 0 0 1-.148.129.686.686 0 0 1-.225.086 1.067 1.067 0 0 1-.226 0 .825.825 0 0 1-.22-.043.927.927 0 0 1-.202-.081l-.148-.082-.149-.086a.88.88 0 0 1-.139-.12.223.223 0 0 1-.067-.125.168.168 0 0 1 .029-.129.365.365 0 0 1 .149-.129Zm.891.335-.278-.163-.086-.033a.269.269 0 0 0-.087-.024h-.086a.193.193 0 0 0-.086.033.16.16 0 0 0-.058.048.06.06 0 0 0-.007.027.06.06 0 0 0 .007.026.097.097 0 0 0 .034.048.266.266 0 0 0 .067.053l.278.158.086.038a.254.254 0 0 0 .087 0h.086a.303.303 0 0 0 .086-.034.16.16 0 0 0 .058-.052.097.097 0 0 0 0-.048.187.187 0 0 0-.039-.053l-.062-.024Zm.024-.412h-.039a.027.027 0 0 1-.003-.012l.003-.012.034-.335v-.034a.062.062 0 0 1 .024-.029l.177-.1h.039a.054.054 0 0 1 .043 0l1.073.618.024.024a.024.024 0 0 1 .003.012.027.027 0 0 1-.003.012l-.191.11h-.082l-.728-.417v.182a.049.049 0 0 1 0 .024h-.087l-.287-.043Zm.767-.47a.3.3 0 0 1-.115-.106.172.172 0 0 1-.029-.115.232.232 0 0 1 .057-.119.507.507 0 0 1 .125-.106.962.962 0 0 1 .388-.105.974.974 0 0 1 .202 0 .548.548 0 0 1 .182.067.34.34 0 0 1 .1.081.175.175 0 0 1 .043.091.8.8 0 0 1 .183 0 .705.705 0 0 1 .163.063.36.36 0 0 1 .115.105c.021.036.03.078.024.12a.24.24 0 0 1-.063.12.483.483 0 0 1-.139.115c-.061.033-.125.06-.191.081a1.08 1.08 0 0 1-.211.034.79.79 0 0 1-.206 0 .706.706 0 0 1-.183-.067.327.327 0 0 1-.11-.096.167.167 0 0 1-.033-.101l-.159-.024a.55.55 0 0 1-.143-.038Zm.263-.154a.227.227 0 0 0 .12.024.277.277 0 0 0 .134-.038.118.118 0 0 0 .042-.031.104.104 0 0 0 .025-.046.065.065 0 0 0-.009-.043.065.065 0 0 0-.034-.029.303.303 0 0 0-.12 0 .356.356 0 0 0-.134.039c-.043.029-.062.053-.067.081a.08.08 0 0 0 .034.043h.009Zm.451.283c.036.021.078.03.12.024a.331.331 0 0 0 .153-.048c.053-.033.082-.062.086-.091.005-.029 0-.048-.038-.067a.192.192 0 0 0-.12-.024.331.331 0 0 0-.153.048c-.053.034-.082.062-.086.091-.005.029-.005.048.028.067h.01Zm8.268-5.285c.03.013.058.033.081.057a.208.208 0 0 1 .062.067.2.2 0 0 1 .029.077.31.31 0 0 1 0 .096l-.029.22.365-.21h.081l.178.1v.029l-.758.441h-.086l-.144-.082-.043-.038a.04.04 0 0 1-.006-.021c0-.008.002-.015.006-.022l.072-.451a.116.116 0 0 0 0-.086.138.138 0 0 0-.058-.043h-.163a.262.262 0 0 0-.081.029.087.087 0 0 0-.048.048.05.05 0 0 0-.005.021c0 .008.002.015.005.022a.091.091 0 0 0 0 .033v.053l-.029.029-.177.101h-.034a.045.045 0 0 1-.033 0 .334.334 0 0 1-.115-.096.21.21 0 0 1-.053-.115.19.19 0 0 1 .034-.12.389.389 0 0 1 .139-.125.889.889 0 0 1 .201-.077.828.828 0 0 1 .211 0c.066 0 .133.01.196.029a.557.557 0 0 1 .202.034Zm.192-.565a.906.906 0 0 1 .22-.086.847.847 0 0 1 .225 0 .833.833 0 0 1 .221.038.92.92 0 0 1 .201.081c.053.025.105.054.154.087l.143.086c.054.03.103.069.144.115a.272.272 0 0 1 .067.125.206.206 0 0 1-.033.134.42.42 0 0 1-.149.129.94.94 0 0 1-.22.086.855.855 0 0 1-.226 0 .819.819 0 0 1-.22-.038 1.207 1.207 0 0 1-.201-.081l-.149-.082-.149-.091a.565.565 0 0 1-.143-.115.265.265 0 0 1-.068-.125.2.2 0 0 1 .034-.134.404.404 0 0 1 .149-.129Zm.891.359-.278-.163-.091-.038h-.081a.2.2 0 0 0-.091 0l-.087.029a.15.15 0 0 0-.057.052.053.053 0 0 0-.006.024c0 .009.002.017.006.024.007.02.019.038.033.053l.067.048c.087.058.183.11.278.163l.087.038h.091a.179.179 0 0 0 .086 0 .321.321 0 0 0 .086-.028.21.21 0 0 0 .058-.053.069.069 0 0 0 .005-.024.064.064 0 0 0-.005-.024.094.094 0 0 0-.034-.053l-.067-.048Zm.024-.437a.063.063 0 0 1-.043 0 .033.033 0 0 1 0-.024l.038-.34a.07.07 0 0 1 0-.029l.024-.029.177-.101a.065.065 0 0 1 .039 0h.043l1.073.623a.028.028 0 0 1 .004.012.021.021 0 0 1-.004.012v.024l-.187.106h-.086l-.724-.422v.187h-.043l-.311-.019Zm.757-.413a.382.382 0 0 1-.139-.12.19.19 0 0 1-.033-.129.193.193 0 0 1 .052-.125.427.427 0 0 1 .13-.105.712.712 0 0 1 .182-.077.863.863 0 0 1 .22-.029.908.908 0 0 1 .221 0 .764.764 0 0 1 .211.082l.081.057a.243.243 0 0 1 .048.058l.039.057c.006.02.014.04.024.058l.163.412-.231.134h-.067l-.115-.278a.902.902 0 0 1-.177.053.927.927 0 0 1-.197 0 .977.977 0 0 1-.201-.024.629.629 0 0 1-.211-.024Zm.575-.331a.156.156 0 0 0-.071-.028h-.159a.152.152 0 0 0-.071.028.165.165 0 0 0-.048.039.13.13 0 0 0 0 .048.064.064 0 0 0 0 .043c.009.02.027.035.048.043a.165.165 0 0 0 .071.029h.159a.17.17 0 0 0 .071-.029.18.18 0 0 0 .048-.038.079.079 0 0 0 0-.048.064.064 0 0 0 0-.043.103.103 0 0 0-.048-.044Z" fill="#455A64"/><path opacity=".3" d="M119.315 189.108c1.179-.709-8.057-6.231-4.002-8.483 4.055-2.253 10.611 3.129 14.686.771 3.872-2.243-8.005-7.731-4.007-10.022 3.997-2.291 11.834 3.801 16.027 1.543 3.643-1.965-.733-4.15.993-5.818 1.725-1.668 6.336.383 9.322-1.251 2.986-1.635-8.292-5.273-2.114-8.863l14.422 8.331-43.137 25.062-2.19-1.27Z" fill="#7A6BDE"/><path d="m119.813 189.199-.992-.187c.283-.182-.786-1.208-1.649-2.032-2.157-2.071-5.109-4.908-2.348-6.451a5.574 5.574 0 0 1 2.459-.652c1.869-.101 3.81.479 5.684 1.006 1.692.48 3.441 1.002 4.793.925a3.761 3.761 0 0 0 1.735-.508c1.798-1.04-.163-2.947-2.051-4.793-2.013-1.965-4.098-3.997-1.951-5.224a5.2 5.2 0 0 1 2.344-.609c2.037-.096 4.184.595 6.461 1.323 2.013.642 4.088 1.309 5.641 1.241a3.584 3.584 0 0 0 1.582-.417c1.984-1.068 1.438-2.224.958-3.355-.397-.867-.776-1.692 0-2.444 1.017-.983 3.111-.863 4.793-.767 1.76.101 3.279.192 4.583-.522 1.073-.585-.053-1.563-1.357-2.694-2.032-1.769-4.563-3.969-.767-6.159l.988.187c-3.528 2.037-1.103 4.141.843 5.838 1.409 1.222 2.627 2.281 1.266 3.029-1.702.93-3.945.8-5.752.695-1.807-.106-2.828-.158-3.528.518-.699.675-.33 1.437.048 2.262.523 1.126 1.112 2.396-1.097 3.59a5.506 5.506 0 0 1-2.397.594c-2.09.091-4.266-.604-6.571-1.342-1.984-.637-4.031-1.289-5.517-1.222a3.347 3.347 0 0 0-1.519.426c-1.884 1.079.115 3.025 2.042 4.913 2.065 2.013 4.016 3.921 1.965 5.11a5.644 5.644 0 0 1-2.536.69c-1.888.105-3.834-.479-5.751-1.011-1.678-.48-3.413-.993-4.755-.921a3.771 3.771 0 0 0-1.663.48c-2.488 1.394.479 4.246 2.449 6.135 1.423 1.366 2.085 2.037 1.567 2.348Z" fill="#7A6BDE"/><path d="M127.084 172.003a.52.52 0 0 1-.302-.024l-.22-.13c-.058-.033 0-.076.081-.1a.555.555 0 0 1 .302.028l.221.125c.057.038.024.082-.082.101Zm12.582 7.265a.547.547 0 0 1-.302-.029l-.441-.245c-.057-.033-.024-.081.082-.1a.482.482 0 0 1 .297.029l.45.258c.053.02.015.063-.086.087Zm-.901-.523a.511.511 0 0 1-.302-.024l-.446-.259c-.062-.038-.024-.081.077-.1a.546.546 0 0 1 .302.024l.45.263c.077.034.024.077-.081.096Zm-.896-.517a.553.553 0 0 1-.302 0l-.451-.264c-.057-.034-.024-.077.082-.096a.518.518 0 0 1 .302 0l.445.259c.063.038.019.081-.076.101Zm-.901-.518a.511.511 0 0 1-.302-.029l-.446-.259c-.063-.033-.024-.076.081-.1a.537.537 0 0 1 .297.028l.451.259c.058.034.024.082-.081.101Zm-.897-.518a.556.556 0 0 1-.302-.028l-.45-.259c-.058-.034-.024-.082.081-.101a.512.512 0 0 1 .302.029l.446.259c.062.033.024.076-.077.1Zm-.901-.522a.486.486 0 0 1-.297 0l-.451-.259c-.062-.038-.024-.081.082-.101a.555.555 0 0 1 .297 0l.451.264c.062.024.024.077-.082.096Zm-.896-.518a.545.545 0 0 1-.302-.024l-.451-.259c-.057-.038-.024-.081.082-.1a.511.511 0 0 1 .302.024l.446.259c.062.038.028.067-.077.1Zm-.901-.513a.473.473 0 0 1-.297-.028l-.451-.259c-.062-.034-.024-.077.082-.101a.53.53 0 0 1 .297.029l.45.259c.063.028.024.1-.081.1Zm-.897-.517a.543.543 0 0 1-.301-.029l-.451-.259c-.058-.033-.024-.081.081-.101a.511.511 0 0 1 .302.029l.446.259c.062.029.029.072-.077.096v.005Zm-.901-.523a.473.473 0 0 1-.297-.024l-.45-.258c-.063-.039-.024-.082.081-.101a.48.48 0 0 1 .297.029l.451.258c.077.029.024.072-.082.092v.004Zm-.896-.517a.555.555 0 0 1-.302-.024l-.45-.259c-.058-.038-.024-.082.081-.101a.52.52 0 0 1 .302.024l.451.259c.057.034.014.077-.082.096v.005Zm-.901-.518a.48.48 0 0 1-.297-.029l-.451-.259c-.062-.033-.024-.076.082-.1a.529.529 0 0 1 .297.029l.45.258c.063.029.024.077-.081.096v.005Zm-.896-.518a.555.555 0 0 1-.302-.028l-.446-.259c-.062-.034-.029-.082.077-.101a.547.547 0 0 1 .302.029l.45.259c.058.028.024.076-.081.096v.004Zm-.901-.517a.533.533 0 0 1-.298-.029l-.45-.259c-.062-.033-.024-.081.081-.101a.484.484 0 0 1 .298.029l.45.259c.062.029.024.072-.081.096v.005Zm12.352 7.123a.545.545 0 0 1-.302-.024l-.216-.129c-.062-.034-.024-.077.077-.101a.547.547 0 0 1 .302.029l.22.125c.057.038.024.081-.081.1Zm-13.963 7.232a.547.547 0 0 1-.302-.029l-.45-.259c-.058-.033-.024-.081.081-.1a.496.496 0 0 1 .302.029l.451.258c.057.034.009.077-.082.101Zm-.901-.522a.487.487 0 0 1-.297-.024l-.45-.259c-.063-.039-.024-.082.081-.101a.538.538 0 0 1 .297.024l.451.264c.062.033.024.076-.082.096Zm-.896-.518a.555.555 0 0 1-.302-.024l-.446-.259c-.062-.038-.028-.081.077-.101a.52.52 0 0 1 .302.024l.45.259c.058.039.024.082-.081.101Zm-.901-.518a.48.48 0 0 1-.297-.028l-.451-.259c-.062-.034-.024-.077.082-.101a.53.53 0 0 1 .297.029l.45.259c.063.033.024.081-.081.1Zm-.896-.517a.546.546 0 0 1-.302-.029l-.446-.259c-.062-.034-.029-.081.077-.101a.513.513 0 0 1 .302.029l.45.259c.058.038.024.077-.081.101Zm-.901-.518a.533.533 0 0 1-.298-.029l-.45-.259c-.062-.038-.024-.081.081-.1a.473.473 0 0 1 .297.029l.451.258c.062.034.024.077-.081.101Zm-.897-.503a.553.553 0 0 1-.302 0l-.445-.259c-.063-.038-.024-.082.076-.101a.518.518 0 0 1 .302 0l.451.259c.057.019.024.062-.082.101Zm-.901-.518a.48.48 0 0 1-.297-.029l-.451-.259c-.057-.033-.024-.076.082-.1a.547.547 0 0 1 .302.029l.446.258c.072.015.024.063-.082.082v.019Zm-.896-.518a.537.537 0 0 1-.302-.028l-.446-.259c-.062-.034-.024-.082.077-.101a.547.547 0 0 1 .302.029l.45.259c.058.014.01.062-.081.081v.019Zm-.896-.517a.546.546 0 0 1-.302-.029l-.451-.259c-.057-.033-.024-.081.082-.1a.5.5 0 0 1 .301.028l.446.259c.063.014.024.058-.076.082v.019Zm-.902-.523a.473.473 0 0 1-.297-.024l-.45-.258c-.063-.039-.024-.082.081-.101.1-.02.203-.012.297.024l.451.259c.057.019.024.062-.082.081v.019Zm-.896-.517a.513.513 0 0 1-.302-.029l-.45-.259c-.058-.033-.024-.077.081-.096a.52.52 0 0 1 .302.024l.446.259c.062.019.024.062-.077.082v.019Zm10.549 6.073a.52.52 0 0 1-.297-.024l-.22-.129c-.063-.033-.024-.077.081-.101a.529.529 0 0 1 .297.029l.221.125c.062.038.024.081-.082.1Zm17.495-20.207a.48.48 0 0 1-.297-.029l-.221-.125c-.062-.038-.024-.081.077-.1a.545.545 0 0 1 .302.024l.22.129c.063.053.024.082-.081.101Zm8.029 4.634a.546.546 0 0 1-.302-.029l-.446-.258c-.058-.034-.024-.077.081-.096a.502.502 0 0 1 .302 0l.446.259c.058.057.024.105-.081.124Zm-.892-.518a.511.511 0 0 1-.302-.023l-.446-.259c-.062-.034 0-.082.082-.101a.48.48 0 0 1 .297.029l.451.254c.057.038.024.081-.082.1Zm-.891-.512a.511.511 0 0 1-.302-.029l-.446-.254c-.062-.039-.024-.082.081-.101a.483.483 0 0 1 .298.024l.445.259c.053.034.053.081-.076.101Zm-.892-.518a.511.511 0 0 1-.302-.024l-.446-.259c-.062-.033-.024-.081.082-.1a.52.52 0 0 1 .297.028l.446.259c.062.034.029.077-.077.096Zm-.896-.513a.48.48 0 0 1-.297-.029l-.446-.254c-.062-.038-.024-.081.081-.1a.531.531 0 0 1 .298.024l.445.258c.063.034.024.082-.081.101Zm-.892-.513a.52.52 0 0 1-.297-.028l-.446-.259c-.062-.034 0-.077.082-.101a.529.529 0 0 1 .297.029l.446.259c.062.033.024.076-.082.1Zm-.891-.517a.537.537 0 0 1-.297-.024l-.446-.259c-.062-.039-.024-.082.077-.101a.513.513 0 0 1 .302.029l.445.254c.063.038.024.081-.081.101Zm-.892-.513a.53.53 0 0 1-.297-.029l-.446-.259c-.062-.033-.028-.076.077-.1a.538.538 0 0 1 .302.028l.446.259c.062.034.024.077-.082.101Zm-.891-.518a.528.528 0 0 1-.297-.024l-.446-.259c-.062-.033-.029-.081.077-.1a.505.505 0 0 1 .302.028l.445.254c.063.02.024.082-.081.101Zm7.803 4.505a.503.503 0 0 1-.302-.028l-.221-.125c-.057-.033-.024-.081.082-.101a.513.513 0 0 1 .302.029l.22.125c.058.033.024.081-.081.1Zm-27.992-2.871-2.061-1.188-2.717 1.572 2.061 1.193 1.131-.657 1.294.446-.58-.863.872-.503Zm-10.798 9.473-2.061-1.189-2.713 1.572 2.061 1.189 1.126-.652 1.299.446-.58-.863.868-.503Zm28.892-13.886-2.061-1.189-2.713 1.577 2.061 1.189 1.127-.657 1.299.451-.58-.868.867-.503Zm-5.929 31.073h.058a.083.083 0 0 1 .062 0l.259.149a.063.063 0 0 1 .02.013c.006.006.01.013.013.02a.128.128 0 0 1 0 .039l.043.316c.14-.043.286-.062.432-.058a.881.881 0 0 1 .407.115c.187.106.269.221.249.336-.019.115-.124.23-.321.345-.096.056-.199.1-.306.129a1.19 1.19 0 0 1-.307.053.996.996 0 0 1-.278 0 .643.643 0 0 1-.226-.076l-.023-.029a.028.028 0 0 1 0-.029l.263-.153a.206.206 0 0 1 .091-.024h.254a.482.482 0 0 0 .154-.063.286.286 0 0 0 .129-.119c0-.039 0-.077-.057-.111a.286.286 0 0 0-.192-.033.72.72 0 0 0-.206.076l-.178.101a.07.07 0 0 1-.057 0 .13.13 0 0 1-.062 0l-.211-.12s-.029-.024-.034-.038c-.005-.014 0-.029 0-.038l-.038-.283-.547.321a.166.166 0 0 1-.124 0l-.259-.149a.069.069 0 0 1-.029-.038.047.047 0 0 1-.004-.017c0-.006.002-.011.004-.017l1.021-.618Zm.92-.576c.101-.059.212-.101.326-.124.111-.017.224-.017.336 0 .108.005.216.023.321.052.103.032.202.074.297.125l.22.12c.077.048.149.086.211.129.076.049.147.105.211.168a.382.382 0 0 1 .096.187.283.283 0 0 1-.043.192.597.597 0 0 1-.221.187c-.1.061-.21.104-.325.129a1.31 1.31 0 0 1-.331 0 1.21 1.21 0 0 1-.321-.058 1.823 1.823 0 0 1-.297-.119l-.216-.12-.216-.13a.97.97 0 0 1-.211-.172.351.351 0 0 1-.096-.187.29.29 0 0 1 .044-.192.624.624 0 0 1 .215-.187Zm1.309.48a6.623 6.623 0 0 0-.408-.235l-.129-.058a.583.583 0 0 0-.254-.029.462.462 0 0 0-.125.048.23.23 0 0 0-.086.072.086.086 0 0 0 0 .077.16.16 0 0 0 .048.072.66.66 0 0 0 .101.072c.124.081.263.163.407.239l.125.053a.44.44 0 0 0 .129.034.375.375 0 0 0 .254-.048.219.219 0 0 0 .082-.072.086.086 0 0 0 0-.072.156.156 0 0 0-.048-.077l-.096-.076Zm.512-1.099c.064.031.125.066.183.106a.385.385 0 0 1 .11.091.198.198 0 0 1 .048.101.138.138 0 0 1-.029.1.256.256 0 0 1-.115.096.463.463 0 0 1-.168.067.749.749 0 0 1-.177 0l-.173-.029a1.015 1.015 0 0 1-.158-.062l-.096-.053-.091-.057a.399.399 0 0 1-.105-.091.187.187 0 0 1-.053-.101.134.134 0 0 1 .029-.1.332.332 0 0 1 .115-.096.603.603 0 0 1 .172-.067.532.532 0 0 1 .178 0c.056 0 .113.008.167.024a.874.874 0 0 1 .163.071Zm-.249.341a.636.636 0 0 0 .12.043.174.174 0 0 0 .096 0c.029 0 .043-.038.033-.058a.186.186 0 0 0-.072-.067 1.768 1.768 0 0 0-.162-.096.525.525 0 0 0-.116-.038.13.13 0 0 0-.095 0c-.034 0-.043.034-.034.053a.201.201 0 0 0 .072.067c.047.035.097.067.149.096h.009Zm.479-.815a.05.05 0 0 1 0-.034l.034-.033.173-.101a.086.086 0 0 1 .095 0l.542 1.515a.062.062 0 0 1 0 .038.1.1 0 0 1-.034.034l-.172.1h-.053a.079.079 0 0 1-.048 0l-.537-1.519Zm1.587.398c.065.032.127.069.187.11a.438.438 0 0 1 .11.091c.025.026.042.06.048.096a.142.142 0 0 1-.029.105.256.256 0 0 1-.115.096.533.533 0 0 1-.168.067.526.526 0 0 1-.177 0 .714.714 0 0 1-.172-.024 1.01 1.01 0 0 1-.159-.067.94.94 0 0 1-.095-.048l-.091-.057a.747.747 0 0 1-.111-.091.255.255 0 0 1-.048-.101.142.142 0 0 1 .029-.101.34.34 0 0 1 .115-.095.517.517 0 0 1 .173-.068 1.136 1.136 0 0 1 .513.087h-.01Zm-.244.34a.386.386 0 0 0 .119.043.133.133 0 0 0 .096 0c.029 0 .043-.033.034-.053a.192.192 0 0 0-.077-.067 1.476 1.476 0 0 0-.158-.096l-.115-.038a.133.133 0 0 0-.096 0c-.034 0-.043.038-.034.058a.201.201 0 0 0 .072.067.833.833 0 0 0 .168.086h-.009Z" fill="#455A64"/><path d="m134.609 194.471-1.783-.528a2.675 2.675 0 0 0-.613 2.253l1.97-.182a1.917 1.917 0 0 1 .426-1.543Zm-1.557-.78 1.778.522c.245-.246.522-.457.824-.628a6.07 6.07 0 0 1 1.093-.479l-.906-1.026a8.267 8.267 0 0 0-1.596.69c-.439.25-.84.56-1.193.921Zm6.83-.959.311-1.136a11.842 11.842 0 0 0-3.896.354l.906 1.026a8.628 8.628 0 0 1 2.679-.244Zm-5.622 3.572-1.975.177a4.03 4.03 0 0 0 1.793 2.028l1.409-.811a2.913 2.913 0 0 1-1.227-1.394Zm1.581 1.595-1.414.815a9.814 9.814 0 0 0 3.537 1.036l.312-1.141a6.945 6.945 0 0 1-2.435-.71Zm2.905.748-.312 1.136c1.31.096 2.626-.024 3.897-.355l-.906-1.026a8.726 8.726 0 0 1-2.679.245Zm4.213-.843a5.586 5.586 0 0 1-1.088.479l.906 1.03a7.84 7.84 0 0 0 1.591-.695 5.42 5.42 0 0 0 1.199-.915l-1.779-.527a4.032 4.032 0 0 1-.829.628Zm1.054-.887 1.778.522a2.642 2.642 0 0 0 .614-2.248l-1.97.178a1.908 1.908 0 0 1-.422 1.548Zm-1.256-3.428 1.41-.815a9.755 9.755 0 0 0-3.514-1.035l-.311 1.136c.841.091 1.66.333 2.415.714Zm1.602 1.597 1.975-.183a4.007 4.007 0 0 0-1.793-2.027l-1.438.815a2.872 2.872 0 0 1 1.256 1.395Z" fill="#7A6BDE"/><path opacity=".3" d="m133.052 193.691 1.778.522c.245-.246.522-.457.824-.628a6.07 6.07 0 0 1 1.093-.479l-.906-1.026a8.267 8.267 0 0 0-1.596.69c-.439.25-.84.56-1.193.921Zm6.83-.959.311-1.136a11.842 11.842 0 0 0-3.896.354l.906 1.026a8.628 8.628 0 0 1 2.679-.244Zm2.875.756 1.409-.815a9.745 9.745 0 0 0-3.513-1.035l-.311 1.136a7.052 7.052 0 0 1 2.415.714Z" fill="#000"/><path d="M155.296 186.914h.264l.1-.043a.215.215 0 0 0 .072-.058.136.136 0 0 0 .029-.062.08.08 0 0 0 .007-.034.075.075 0 0 0-.007-.033.17.17 0 0 0-.077-.063.355.355 0 0 0-.191-.048.413.413 0 0 0-.206.058.177.177 0 0 0-.044.038l-.028.043v.034h-.024l-.326.192a.094.094 0 0 1-.062 0 .097.097 0 0 1-.063 0l-.805-.537a.08.08 0 0 1-.029-.039.045.045 0 0 1 0-.033l.901-.518a.134.134 0 0 1 .063 0h.062l.259.149a.043.043 0 0 1 .02.015.05.05 0 0 1 .009.023.05.05 0 0 1 0 .034l-.614.354.201.13a.207.207 0 0 1 .048-.072.37.37 0 0 1 .091-.072c.083-.047.172-.084.264-.11a1.241 1.241 0 0 1 .594-.005c.103.027.201.067.293.12a.595.595 0 0 1 .255.262.245.245 0 0 1 .013.097.318.318 0 0 1-.081.178.651.651 0 0 1-.202.163 1.228 1.228 0 0 1-.604.167 1.11 1.11 0 0 1-.522-.11s-.024 0-.024-.033a.027.027 0 0 1-.003-.012c0-.005.001-.009.003-.012l.268-.159a.25.25 0 0 1 .067 0l.029-.004Zm.403-1.654c.101-.059.211-.101.326-.125.11-.023.223-.033.335-.028.11.004.218.024.322.057.1.031.198.071.292.12l.225.125c.077.043.149.086.211.129a.902.902 0 0 1 .206.168c.052.05.087.116.101.187a.292.292 0 0 1-.043.191.685.685 0 0 1-.221.187.951.951 0 0 1-.326.125 1.305 1.305 0 0 1-.33.029 1.196 1.196 0 0 1-.321-.058 1.785 1.785 0 0 1-.298-.12l-.22-.12-.211-.129a.97.97 0 0 1-.211-.172.382.382 0 0 1-.101-.187.272.272 0 0 1 .048-.192.607.607 0 0 1 .216-.187Zm1.309.479c-.135-.081-.269-.163-.408-.235a.744.744 0 0 0-.129-.057l-.125-.029a.396.396 0 0 0-.254.053.222.222 0 0 0-.086.072.085.085 0 0 0 0 .076.153.153 0 0 0 .048.072.54.54 0 0 0 .1.072 4.141 4.141 0 0 0 .532.293.641.641 0 0 0 .254.028.341.341 0 0 0 .13-.048.206.206 0 0 0 .081-.071.085.085 0 0 0 0-.077.178.178 0 0 0-.052-.072.565.565 0 0 0-.077-.062l-.014-.015Zm.522-1.117c.064.032.127.069.187.11a.456.456 0 0 1 .11.091.17.17 0 0 1 .048.096.147.147 0 0 1-.029.105.289.289 0 0 1-.115.096.568.568 0 0 1-.168.067 1.134 1.134 0 0 1-.35-.028 1.157 1.157 0 0 1-.158-.068l-.096-.047-.091-.058a.533.533 0 0 1-.11-.091.236.236 0 0 1-.048-.101.134.134 0 0 1 .029-.1.344.344 0 0 1 .115-.096.49.49 0 0 1 .172-.067.715.715 0 0 1 .173 0 .995.995 0 0 1 .172.028.907.907 0 0 1 .159.063Zm-.245.345c.039.017.079.03.12.038a.133.133 0 0 0 .096 0c.029 0 .043-.033.033-.053a.183.183 0 0 0-.076-.067 1.583 1.583 0 0 0-.158-.096l-.115-.038a.115.115 0 0 0-.048-.01.112.112 0 0 0-.048.01c-.034 0-.043.034-.034.053a.201.201 0 0 0 .072.067c.05.036.103.068.158.096Zm.48-.815a.05.05 0 0 1 0-.038l.033-.029.173-.101a.087.087 0 0 1 .095 0l.542 1.515a.121.121 0 0 1 0 .038.107.107 0 0 1-.033.034l-.173.096a.096.096 0 0 1-.053 0h-.048l-.536-1.515Zm1.591.398.187.105a.911.911 0 0 1 .11.096.17.17 0 0 1 .048.096.152.152 0 0 1-.029.105.393.393 0 0 1-.115.096.575.575 0 0 1-.172.067.503.503 0 0 1-.173 0 .536.536 0 0 1-.173-.028.744.744 0 0 1-.158-.063l-.096-.048-.091-.057a.793.793 0 0 1-.11-.091.236.236 0 0 1-.048-.101.138.138 0 0 1 .029-.1.349.349 0 0 1 .115-.101.757.757 0 0 1 .173-.067.707.707 0 0 1 .172 0l.173.029c.056.015.11.036.163.062h-.005Zm-.245.34a.401.401 0 0 0 .12.043.133.133 0 0 0 .096 0c.029 0 .038-.033.029-.052a.236.236 0 0 0-.072-.072 1.133 1.133 0 0 0-.158-.091.403.403 0 0 0-.12-.044.195.195 0 0 0-.096 0c-.029.02-.038.039-.029.058 0 0 .034.038.072.067.052.034.107.065.163.091h-.005Z" fill="#455A64"/><path d="m152.018 184.41-1.778-.527a2.65 2.65 0 0 0-.614 2.253l1.97-.183a1.91 1.91 0 0 1 .422-1.543Zm-1.553-.779 1.778.522c.248-.244.526-.455.829-.627.346-.197.71-.357 1.088-.48l-.906-1.025a8.162 8.162 0 0 0-1.591.69c-.44.249-.844.559-1.198.92Zm6.82-.96.312-1.136a11.873 11.873 0 0 0-3.897.355l.906 1.026a8.634 8.634 0 0 1 2.679-.245Zm-5.613 3.571-1.974.178a4.036 4.036 0 0 0 1.797 2.027l1.409-.81a2.94 2.94 0 0 1-1.232-1.395Zm1.587 1.596-1.438.815a9.745 9.745 0 0 0 3.513 1.035l.312-1.141a6.89 6.89 0 0 1-2.387-.709Zm2.919.743-.311 1.136a12.005 12.005 0 0 0 3.896-.354l-.905-1.031a8.732 8.732 0 0 1-2.68.249Zm4.199-.838a5.903 5.903 0 0 1-1.093.479l.906 1.031a7.882 7.882 0 0 0 1.596-.695c.44-.248.843-.556 1.198-.916l-1.783-.527a3.816 3.816 0 0 1-.824.628Zm1.073-.887 1.783.523a2.646 2.646 0 0 0 .614-2.248l-1.97.177a1.923 1.923 0 0 1-.427 1.548Zm-1.26-3.427 1.414-.815a9.836 9.836 0 0 0-3.513-1.035l-.317 1.136a7.05 7.05 0 0 1 2.416.714Zm1.586 1.596 1.97-.182a3.97 3.97 0 0 0-1.792-2.028l-1.41.815c.553.318.986.808 1.232 1.395Z" fill="#7A6BDE"/><path opacity=".3" d="m150.465 183.631 1.778.522c.248-.244.526-.455.829-.627.346-.197.71-.357 1.088-.48l-.906-1.025a8.162 8.162 0 0 0-1.591.69c-.44.249-.844.559-1.198.92Zm6.82-.96.312-1.136a11.873 11.873 0 0 0-3.897.355l.906 1.026a8.634 8.634 0 0 1 2.679-.245Zm4.165 4.185 1.783.523a2.646 2.646 0 0 0 .614-2.248l-1.97.177a1.923 1.923 0 0 1-.427 1.548Zm-1.26-3.428 1.414-.815a9.836 9.836 0 0 0-3.514-1.035l-.316 1.136a7.05 7.05 0 0 1 2.416.714Zm1.586 1.597 1.97-.182a3.97 3.97 0 0 0-1.792-2.028l-1.41.815c.553.318.986.808 1.232 1.395Z" fill="#000"/><path d="M173.049 177.173h-.024l-.772-.958-.627.364a.083.083 0 0 1-.058 0 .152.152 0 0 1-.067 0l-.254-.149a.062.062 0 0 1-.021-.015.065.065 0 0 1-.013-.023s0-.024.024-.033l1.007-.58a.092.092 0 0 1 .057 0 .151.151 0 0 1 .067 0l.226.129a.393.393 0 0 1 .091.091l.772.959v.038a.05.05 0 0 1 0 .034l-.293.167a.058.058 0 0 1-.026.006.066.066 0 0 1-.027-.006.098.098 0 0 1-.062-.024Zm.01-1.935c.102-.057.212-.099.326-.125.111-.017.224-.017.336 0 .109.005.217.024.321.057.102.03.202.071.297.12l.22.125.211.125c.076.047.145.103.206.167a.359.359 0 0 1 .101.187.283.283 0 0 1-.043.192.639.639 0 0 1-.221.192 1.169 1.169 0 0 1-.326.124c-.109.015-.22.015-.33 0a1.164 1.164 0 0 1-.321-.057 1.51 1.51 0 0 1-.298-.12l-.215-.12c-.082-.043-.149-.086-.216-.129a.974.974 0 0 1-.211-.173.362.362 0 0 1-.096-.182.26.26 0 0 1 .043-.192.576.576 0 0 1 .216-.191Zm1.309.479-.408-.235-.129-.053a.453.453 0 0 0-.125-.033.557.557 0 0 0-.129 0 .432.432 0 0 0-.125.048.193.193 0 0 0-.086.076.077.077 0 0 0 0 .072.153.153 0 0 0 .048.072l.1.077c.125.081.264.158.408.235l.124.057.13.029a.523.523 0 0 0 .125 0 .502.502 0 0 0 .129-.048.207.207 0 0 0 .081-.077.074.074 0 0 0 .009-.036.08.08 0 0 0-.009-.036.133.133 0 0 0-.052-.071.568.568 0 0 0-.067-.063l-.024-.014Zm.503-1.112c.063.03.124.065.182.105a.543.543 0 0 1 .11.092.191.191 0 0 1 .048.1.141.141 0 0 1-.028.101.32.32 0 0 1-.115.101.786.786 0 0 1-.168.067h-.178l-.172-.029a1.263 1.263 0 0 1-.158-.062l-.096-.053-.091-.053a.67.67 0 0 1-.11-.096.195.195 0 0 1-.048-.096.151.151 0 0 1 .028-.105.41.41 0 0 1 .115-.096.675.675 0 0 1 .173-.067.695.695 0 0 1 .345 0 .687.687 0 0 1 .163.091Zm-.249.34a.392.392 0 0 0 .12.043.13.13 0 0 0 .095 0c.029 0 .044-.038.034-.057a.179.179 0 0 0-.077-.067 1.177 1.177 0 0 0-.158-.091.339.339 0 0 0-.12-.043.13.13 0 0 0-.091 0c-.033 0-.043.033-.033.052a.225.225 0 0 0 .072.072c.053.035.109.065.167.091h-.009Zm.479-.81a.05.05 0 0 1 0-.038l.034-.034.172-.1a.083.083 0 0 1 .048-.015c.017 0 .034.005.048.015l.542 1.514a.127.127 0 0 1 0 .039.073.073 0 0 1-.034.033l-.172.101a.095.095 0 0 1-.053 0 .098.098 0 0 1-.048 0l-.537-1.515Zm1.591.398a1.111 1.111 0 0 1 .298.197.17.17 0 0 1 .047.1.141.141 0 0 1-.028.101.344.344 0 0 1-.115.096.482.482 0 0 1-.168.067 1.116 1.116 0 0 1-.35-.029 1.439 1.439 0 0 1-.158-.062l-.096-.053-.091-.057a.538.538 0 0 1-.11-.091.242.242 0 0 1-.048-.101.137.137 0 0 1 .029-.101c.03-.04.07-.073.115-.096a.482.482 0 0 1 .345-.067.714.714 0 0 1 .345.096h-.015Zm-.244.34a.51.51 0 0 0 .12.039.132.132 0 0 0 .096 0c.028 0 .038-.039.033-.058a.18.18 0 0 0-.077-.067.853.853 0 0 0-.158-.091.42.42 0 0 0-.12-.043.14.14 0 0 0-.095 0c-.029 0-.039.034-.029.053a.188.188 0 0 0 .072.067c.055.038.112.072.172.1h-.014Z" fill="#455A64"/><path d="m169.435 174.351-1.783-.527a2.675 2.675 0 0 0-.613 2.253l1.97-.182a1.92 1.92 0 0 1 .426-1.544Zm-1.552-.781 1.778.523a3.87 3.87 0 0 1 .829-.628c.346-.196.71-.357 1.088-.479l-.906-1.026a8.223 8.223 0 0 0-1.591.69c-.44.25-.844.559-1.198.92Zm6.815-.959.312-1.136a11.848 11.848 0 0 0-3.897.354l.911 1.026a8.542 8.542 0 0 1 2.674-.244Zm-5.608 3.572-1.975.177c.348.862.98 1.577 1.793 2.027l1.409-.829a2.919 2.919 0 0 1-1.227-1.375Zm1.582 1.594-1.414.815a9.796 9.796 0 0 0 3.518 1.035l.312-1.14a6.952 6.952 0 0 1-2.416-.71Zm2.91.74-.312 1.136c1.31.096 2.626-.024 3.897-.355l-.911-1.03a8.724 8.724 0 0 1-2.674.249Zm4.208-.835c-.346.196-.71.357-1.088.479l.906 1.031a7.982 7.982 0 0 0 1.576-.676c.44-.248.844-.556 1.199-.916l-1.779-.527a3.845 3.845 0 0 1-.814.609Zm1.054-.887 1.778.522a2.627 2.627 0 0 0 .609-2.248l-1.965.178a1.908 1.908 0 0 1-.422 1.548Zm-1.236-3.426 1.437-.815a9.79 9.79 0 0 0-3.518-1.035l-.311 1.135a7.07 7.07 0 0 1 2.392.715Zm1.577 1.595 1.974-.182a3.98 3.98 0 0 0-1.792-2.027l-1.414.815c.556.313.99.804 1.232 1.394Z" fill="#7A6BDE"/><path d="m167.883 173.569 1.778.523a3.87 3.87 0 0 1 .829-.628c.346-.196.71-.357 1.088-.479l-.906-1.026a8.223 8.223 0 0 0-1.591.69c-.44.25-.844.559-1.198.92Zm6.815-.958.312-1.136a11.848 11.848 0 0 0-3.897.354l.911 1.026a8.542 8.542 0 0 1 2.674-.244Zm-1.117 5.904-.311 1.136a11.987 11.987 0 0 0 3.897-.355l-.911-1.03a8.7 8.7 0 0 1-2.675.249Zm4.208-.834a5.83 5.83 0 0 1-1.088.479l.906 1.031a7.99 7.99 0 0 0 1.577-.676 5.42 5.42 0 0 0 1.198-.915l-1.778-.528a3.85 3.85 0 0 1-.815.609Zm1.055-.886 1.778.522a2.64 2.64 0 0 0 .609-2.248l-1.965.178a1.924 1.924 0 0 1-.422 1.548Zm-1.236-3.427 1.437-.815a9.79 9.79 0 0 0-3.518-1.035l-.311 1.136a7.047 7.047 0 0 1 2.392.714Zm1.576 1.595 1.975-.182a3.984 3.984 0 0 0-1.792-2.027l-1.414.815c.555.313.989.804 1.231 1.394ZM99.62 85.628a.244.244 0 0 1-.21-.12.24.24 0 0 1 .09-.326l15.573-8.992a.244.244 0 0 1 .191-.04.236.236 0 0 1 .158.114.261.261 0 0 1 .031.094.243.243 0 0 1-.14.244L99.74 85.6a.274.274 0 0 1-.12.029Zm0 2.248a.244.244 0 0 1-.21-.12.24.24 0 0 1 .09-.326l15.573-8.992a.245.245 0 0 1 .191-.04.238.238 0 0 1 .189.208.243.243 0 0 1-.14.244L99.74 87.848a.274.274 0 0 1-.12.029Zm0 2.247a.244.244 0 0 1-.21-.12.24.24 0 0 1 .09-.326l15.573-8.992a.247.247 0 0 1 .191-.04.236.236 0 0 1 .158.114.261.261 0 0 1 .031.094.243.243 0 0 1-.14.244L99.74 90.095a.272.272 0 0 1-.12.029Zm0 2.248a.244.244 0 0 1-.21-.12.24.24 0 0 1 .09-.326l15.573-8.992a.245.245 0 0 1 .191-.04.24.24 0 0 1 .049.453L99.74 92.342a.274.274 0 0 1-.12.029Zm0 2.267a.244.244 0 0 1-.21-.12.24.24 0 0 1 .09-.326l15.573-8.991a.238.238 0 0 1 .182-.026.236.236 0 0 1 .144.112.244.244 0 0 1-.086.33L99.736 94.59a.272.272 0 0 1-.115.048Zm0 2.229a.243.243 0 0 1-.21-.12.24.24 0 0 1 .09-.326l15.569-8.972a.23.23 0 0 1 .181-.026.24.24 0 0 1 .145.112.244.244 0 0 1-.087.33l-15.572 8.992a.274.274 0 0 1-.115.01Zm0 2.249a.234.234 0 0 1-.21-.12.24.24 0 0 1 .09-.326l15.573-8.992a.236.236 0 0 1 .326.086.244.244 0 0 1-.086.331L99.74 99.087a.274.274 0 0 1-.12.029Zm0-40.468a.242.242 0 0 1-.21-.12.24.24 0 0 1 .09-.326l15.573-8.992a.236.236 0 0 1 .326.087.244.244 0 0 1-.086.33L99.74 58.62a.272.272 0 0 1-.12.029Zm0 2.247a.235.235 0 0 1-.232-.302.24.24 0 0 1 .113-.144l15.572-8.991a.236.236 0 0 1 .326.086.244.244 0 0 1-.086.33L99.74 60.867a.274.274 0 0 1-.12.029Zm0 2.254a.24.24 0 0 1-.119-.45l15.572-8.992a.236.236 0 0 1 .326.086.244.244 0 0 1-.086.33l-15.572 8.992a.282.282 0 0 1-.12.034Zm0 2.251a.24.24 0 0 1-.119-.45l15.572-8.992a.236.236 0 0 1 .326.087.244.244 0 0 1-.086.33l-15.572 8.992a.283.283 0 0 1-.12.034Zm0 2.244a.24.24 0 0 1-.119-.45l15.568-8.982a.24.24 0 0 1 .328.088.24.24 0 0 1-.089.328L99.736 67.62a.226.226 0 0 1-.115.024Zm0 2.248a.24.24 0 0 1-.119-.45l15.572-8.993a.243.243 0 0 1 .183-.023.231.231 0 0 1 .143.114.238.238 0 0 1-.086.326l-15.577 8.992a.225.225 0 0 1-.115.034Zm0 2.248a.245.245 0 0 1-.21-.12.236.236 0 0 1 .091-.326l15.572-8.996a.24.24 0 0 1 .326.09.233.233 0 0 1-.086.327L99.736 72.11a.225.225 0 0 1-.115.029Zm0 2.248a.245.245 0 0 1-.21-.12.235.235 0 0 1 .091-.326l15.572-8.996a.24.24 0 0 1 .326.09.232.232 0 0 1-.086.327l-15.572 8.991a.225.225 0 0 1-.12.034Zm0 2.248a.245.245 0 0 1-.21-.12.236.236 0 0 1 .091-.326l15.572-8.996a.24.24 0 0 1 .326.09.233.233 0 0 1-.086.327l-15.572 8.991a.225.225 0 0 1-.12.034Zm0 2.247a.244.244 0 0 1-.21-.12.24.24 0 0 1 .09-.326l15.573-8.992a.244.244 0 0 1 .191-.04.238.238 0 0 1 .189.208.242.242 0 0 1-.14.244L99.74 78.85a.224.224 0 0 1-.12.034Zm0 2.248a.244.244 0 0 1-.21-.12.24.24 0 0 1 .09-.326l7.79-4.5a.248.248 0 0 1 .33.09.24.24 0 0 1-.091.327l-7.784 4.495a.225.225 0 0 1-.124.034Zm-35.611 51.651a.241.241 0 0 1-.206-.12.24.24 0 0 1 .086-.326l50.988-29.434a.248.248 0 0 1 .191-.04.233.233 0 0 1 .157.114.227.227 0 0 1 .031.094.242.242 0 0 1-.059.186.229.229 0 0 1-.08.058l-50.964 29.439a.248.248 0 0 1-.144.029Zm.724 2.832a.237.237 0 0 1-.23-.177.241.241 0 0 1 .11-.268L115.6 105.73a.232.232 0 0 1 .181-.026c.03.008.059.022.084.041a.249.249 0 0 1 .085.254.244.244 0 0 1-.111.148l-50.988 29.434a.212.212 0 0 1-.12.033Zm.857 2.775a.246.246 0 0 1-.21-.12.233.233 0 0 1 .09-.325l50.974-29.439a.24.24 0 0 1 .183-.024.242.242 0 0 1 .148.11.25.25 0 0 1-.091.331l-50.983 29.434a.226.226 0 0 1-.11.033Zm.887 2.766a.237.237 0 0 1-.121-.032.238.238 0 0 1-.112-.272.245.245 0 0 1 .113-.147l50.998-29.434a.243.243 0 0 1 .172-.01.247.247 0 0 1 .134.108c.03.052.04.112.027.17a.235.235 0 0 1-.093.144l-50.998 29.449a.226.226 0 0 1-.12.024Zm1.031 2.698a.236.236 0 0 1-.206-.12.244.244 0 0 1 .086-.331l50.988-29.433a.238.238 0 0 1 .306.097.241.241 0 0 1-.066.315l-50.983 29.438a.26.26 0 0 1-.125.034Zm16.775 26.769a.24.24 0 0 1-.177-.081c-1.75-1.989-5.527-6.423-7.305-8.987-3.805-5.68-6.561-10.645-8.426-15.18a.243.243 0 0 1 .318-.313.234.234 0 0 1 .128.131c1.85 4.506 4.592 9.443 8.373 15.093 1.769 2.541 5.527 6.96 7.271 8.939a.239.239 0 0 1 .034.263.232.232 0 0 1-.058.073.23.23 0 0 1-.073.047.208.208 0 0 1-.085.015Zm32.837-43.9a.246.246 0 0 1-.211-.119.25.25 0 0 1 .092-.331l5.535-3.197a.24.24 0 1 1 .24.417l-5.536 3.197a.22.22 0 0 1-.12.033Zm-1.912 4.487a.235.235 0 0 1-.144-.05.243.243 0 0 1-.076-.28.239.239 0 0 1 .1-.115l9.006-5.206a.246.246 0 0 1 .331.091.241.241 0 0 1-.091.326l-9.006 5.206a.25.25 0 0 1-.12.028Zm8.311 5.245a.247.247 0 0 1-.211-.12.25.25 0 0 1 .091-.331l5.512-3.173a.235.235 0 0 1 .281 0 .234.234 0 0 1 .098.168.238.238 0 0 1-.139.244l-5.512 3.178a.232.232 0 0 1-.12.034Zm-1.654 4.327a.248.248 0 0 1-.146-.048.237.237 0 0 1-.078-.281.233.233 0 0 1 .1-.117l8.886-5.273a.244.244 0 0 1 .362.175.243.243 0 0 1-.047.177.232.232 0 0 1-.071.061l-8.886 5.272a.22.22 0 0 1-.12.034Zm-35.559 31.913a.24.24 0 0 1-.22-.33.237.237 0 0 1 .1-.115l51.285-29.612a.25.25 0 0 1 .182-.02.246.246 0 0 1 .175.199.229.229 0 0 1-.046.177.243.243 0 0 1-.071.061l-51.285 29.607a.22.22 0 0 1-.12.033Zm2.147 1.987a.24.24 0 0 1-.12-.446l51.285-29.606a.24.24 0 0 1 .37.267.24.24 0 0 1-.13.145l-51.261 29.606a.268.268 0 0 1-.144.034Zm2.061 1.808a.246.246 0 0 1-.21-.119.25.25 0 0 1 .09-.331l51.286-29.607a.247.247 0 0 1 .089-.03.225.225 0 0 1 .093.007.235.235 0 0 1 .146.112.25.25 0 0 1 .024.183.265.265 0 0 1-.042.084.22.22 0 0 1-.071.061l-51.285 29.607a.22.22 0 0 1-.12.033Zm2.454 1.98a.24.24 0 0 1-.12-.446l51.286-29.606a.238.238 0 0 1 .326.086c.031.055.04.12.023.181a.236.236 0 0 1-.11.145L93.088 178.44a.277.277 0 0 1-.12.029Zm49.383 24.116a.238.238 0 0 1-.229-.177.236.236 0 0 1 .109-.268l9.735-5.623a.228.228 0 0 1 .182-.023.235.235 0 0 1 .146.112.25.25 0 0 1 .024.183.265.265 0 0 1-.042.084.22.22 0 0 1-.071.061l-9.734 5.618a.222.222 0 0 1-.12.033Zm1.946 1.122a.238.238 0 0 1-.22-.329.237.237 0 0 1 .1-.116l9.734-5.618a.243.243 0 0 1 .172-.01.244.244 0 0 1 .162.278.246.246 0 0 1-.094.145l-9.735 5.622a.248.248 0 0 1-.119.028Zm1.945 1.127a.236.236 0 0 1-.222-.171.238.238 0 0 1 .004-.147.238.238 0 0 1 .089-.118l9.735-5.622a.247.247 0 0 1 .182-.024.236.236 0 0 1 .176.202.243.243 0 0 1-.048.177.236.236 0 0 1-.071.062l-9.734 5.618a.222.222 0 0 1-.111.023Zm13.632-12.366a.24.24 0 0 1-.22-.33.239.239 0 0 1 .1-.115l9.735-5.618a.236.236 0 0 1 .281 0 .238.238 0 0 1 .088.267.238.238 0 0 1-.13.145l-9.715 5.623a.278.278 0 0 1-.139.028Zm1.946 1.127a.242.242 0 0 1-.229-.178.24.24 0 0 1 .109-.268l9.735-5.622a.232.232 0 0 1 .181-.026c.03.008.059.022.084.041a.249.249 0 0 1 .085.254.244.244 0 0 1-.111.148l-9.744 5.617a.226.226 0 0 1-.11.034Zm1.946 1.121a.238.238 0 0 1-.229-.177.243.243 0 0 1 .009-.153.246.246 0 0 1 .1-.116l9.735-5.622a.236.236 0 0 1 .182-.023.239.239 0 0 1 .17.294.24.24 0 0 1-.113.146l-9.734 5.622a.265.265 0 0 1-.12.029Zm13.626-12.365a.235.235 0 0 1-.144-.05.246.246 0 0 1-.085-.127.243.243 0 0 1 .11-.269l9.734-5.622a.244.244 0 0 1 .361.175.23.23 0 0 1-.121.237l-9.735 5.623a.217.217 0 0 1-.12.033Zm1.951 1.125a.242.242 0 0 1-.229-.178.24.24 0 0 1 .109-.268l9.735-5.622a.241.241 0 0 1 .328.089.237.237 0 0 1 .024.182.242.242 0 0 1-.112.146l-9.735 5.617a.223.223 0 0 1-.12.034Zm1.946 1.127a.242.242 0 0 1-.12-.451l9.735-5.636a.235.235 0 0 1 .19-.041.248.248 0 0 1 .091.04.243.243 0 0 1 .039.354.256.256 0 0 1-.08.059l-9.735 5.622a.233.233 0 0 1-.12.053Z" opacity=".3" fill="#000"/><path d="M172.115 98.951c-.863 1.534-6.399 6.404-6.902 6.96-.503.556-1.093 1.064-1.591 1.529-.595.556-1.064 1.188-1.85 1.505a.857.857 0 0 1-.7.029c-.11-.058-.192-.154-.297-.211-.106-.058-.384-.091-.532-.206-.149-.115-.226-.48-.441-.647a1.793 1.793 0 0 0-.321-.125c-.197-.086-.322-.408-.403-.594-.043-.101-.082-.326-.235-.307a9.31 9.31 0 0 0-1.179.369c-.896.292-1.476.355-1.606-.082-.187-.608.518-.762 1.601-1.222 1.083-.46 3.355-1.409 3.255-1.658-.101-.249-.853-.686-1.155-1.242-.302-.556-.202-1.26.206-.958.23.182 1.121.632 1.514.858.393.225 1.103.652 1.587.479.484-.173 5.358-6.23 5.358-6.23s3.892-8.336 4.86-10.042c.969-1.707 1.745-2.68 3.356-2.737l.201 3.077-.417 3.47s-3.614 6.74-4.309 7.985Z" fill="#FFA8A7"/><path d="M177.152 84.354s-1.577-.398-2.588.705c-1.011 1.102-1.438 1.95-2.291 3.719s-3.187 6.816-3.187 6.816a4.465 4.465 0 0 0 4.035 1.83l4.261-8.061-.23-5.009Z" fill="#263238"/><path d="M174.066 92.106c.255 1.23.353 2.488.292 3.743-.11 1.649-1.284 4.673-1.284 4.673s.925.839 3.436.446c2.047-.321 1.323-6.49.149-7.67a3.877 3.877 0 0 0-2.593-1.192Z" fill="#37474F"/><path d="M188.224 144.752c.148.815.226 1.64.235 2.468.029 1.496.307 2.028.341 3.255.043 1.404-.202 1.917-.772 2.722-.57.805-2.061 1.505-2.694.168-.632-1.337-.551-2.205-.35-3.585.202-1.381.235-2.21.355-3.293.11-.959.235-1.687.235-1.687l2.65-.048Z" fill="#263238"/><path d="m183.978 132.98 4.932-.091c-.077 3.292-.599 8.776-.686 11.862 0 .58 0 4.52-.201 5.714-.331 1.797-2.464 1.557-2.579.479-.115-1.078.139-5.67.13-6.145 0-1.979-.911-7.151-1.395-10.707-.024-.154-.201-.945-.201-1.112Z" fill="#FFA8A7"/><path d="M176.726 142.193s.254 0 .297.221c.043.22.057.637.158 1.045.168.635.228 1.295.177 1.95-.086.48-1.136 1.146-1.85 1.266a5.576 5.576 0 0 0-2.296 1.361 5.492 5.492 0 0 1-3.187 1.251c-1.198 0-2.032-.398-2.43-1.04-.398-.642.359-.719 1.73-1.606l1.064-.69c2.167-1.438 2.962-2.176 3.576-3.595l2.761-.163Z" fill="#263238"/><path d="M173.951 141.42c.033-1.021-.479-8.531-.479-8.531l4.241.479c-1.001 5.986-1.083 8.023-.958 8.896a.805.805 0 0 1 .028.249c0 1.165-1.318 1.793-2.343 2.569a9.346 9.346 0 0 1-2.66 1.663c-.791.269-2.248.369-2.435-.11a32.63 32.63 0 0 0 3.935-3.278c.455-.518.632-.921.671-1.937Z" fill="#FFA8A7"/><path d="M185.377 97.44a17.893 17.893 0 0 1 3.101 6.394c1.4 5.656-.8 17.734-.8 17.734.072.82 1.011 2.435 1.361 6.044.412 4.266-.762 15.688-.762 15.688a2.731 2.731 0 0 1-2.766.057s-2.986-16.775-3.518-21.022c-.479-3.7-1.438-11.388-1.438-11.388l-2.137 11.369s.297 2.075.45 3.652c.245 2.497-2.186 15.017-2.186 15.017a3.438 3.438 0 0 1-2.751-.053s-1.078-16.176-1.303-19.172c-.23-3.091.57-10.3 1.164-16.042.178-1.726 1.055-7.065 1.362-8.546l10.223.268Z" fill="#455A64"/><path opacity=".6" d="m180.575 110.966-.508-3.504a8.707 8.707 0 0 1-4.122-1.332 5.268 5.268 0 0 0 3.451 1.917l.321 3.135-1.012 9.777 1.87-9.993Z" fill="#263238"/><path d="M174.919 93.703c.053 1.03.254 3.48.254 3.48 4.199 2.842 10.204.258 10.204.258l.873-5.972s-2.191-3.067-.135-6.303l-3.283-.647-3.916-.32-2.276.205c-1.285.959-2.138 2.876-2.55 3.911a4.963 4.963 0 0 0 .829 5.388Z" fill="#7A6BDE"/><path d="M174.919 93.702c.053 1.03.254 3.48.254 3.48 4.199 2.842 10.205.258 10.205.258l.872-5.972s-2.191-3.067-.134-6.303l-3.284-.647-3.915-.32-2.277.205c-1.285.959-2.138 2.876-2.55 3.911a4.962 4.962 0 0 0 .829 5.388Z" fill="#fff" opacity=".6"/><path d="M183.163 84.413s3.599.312 4.314.647c.714.336 1.878 2.368.829 5.325-1.05 2.957-2.008 6.418-1.917 7.118.091.7 2.617 4.314 2.617 4.314a6.847 6.847 0 0 1-2.311 1.107l-1.279-2.819.302 2.986a15.283 15.283 0 0 1-3.969.417s-1.213-11.45 1.414-19.095Z" fill="#37474F"/><path d="m166.143 96.587 10.636.719 5.406 11.987-10.161-.939-5.881-11.767Z" fill="#7A6BDE"/><path opacity=".1" d="m166.143 96.587 10.636.719 5.406 11.987-10.161-.939-5.881-11.767Z" fill="#000"/><path opacity=".15" d="M175.988 104.883a2.399 2.399 0 0 0 1.917 1.519 5.345 5.345 0 0 0 2.766-.517l-.456-1.002h-4.227Zm-6.528-7.046-.159-.37c-.091-.205.504-.33 1.323-.277l1.563.1c.819.053 1.553.26 1.639.48l.158.369-4.524-.302Z" fill="#000"/><path d="M168.477 96.514c-.058-.124.177-.206.522-.182l.619.053s-.336-.8 1.03-.762a2.09 2.09 0 0 1 1.826.93l.667.057c.287 0 .566.101.786.288l.119.225-5.478-.369-.091-.24Z" fill="#F0F0F0"/><path d="M169.273 96.794c.503.024.714.053.848.365.134.311.24.628.24.628l2.425.167s-.206-.455-.278-.632c-.072-.178 0-.307.374-.278v-.154l-3.796-.225.187.13Z" fill="#E0E0E0"/><path d="m169.402 97.886-.158-.37c-.087-.206.503-.33 1.323-.277l1.567.1c.815.053 1.548.26 1.639.48l.154.369-4.525-.302Z" fill="#F5F5F5"/><path d="M182.804 83.852h-8.829v-7.87a6.446 6.446 0 0 1 6.446-6.447 6.447 6.447 0 0 1 6.433 6.447v3.796a4.069 4.069 0 0 1-4.05 4.074Z" fill="#263238"/><path d="M175.729 73.311c-.374.154-1.15.815-1.165 4.654 0 3.25 1.016 4.084 1.539 4.314.522.23 1.548.135 2.545 0l-.024 1.601a7.103 7.103 0 0 0-.791 4.889c2.042-1.577 5.105-4.256 5.105-4.256l.095-4.51s.571.584 1.582-.254c.839-.69 1.146-1.889.527-2.555a1.433 1.433 0 0 0-1.236-.379 1.44 1.44 0 0 0-1.04.767c-2.128 0-3.044-2.372-3.183-3.834-.752.541-2.804.992-3.954-.437Z" fill="#FFA8A7"/><path d="M176.893 76.15c2.148-.317 2.79-2.397 2.79-2.397s1.261-3.355-2.095-3.551c-5.157-.326-4.644 5.962-4.644 5.962l3.949-.014Zm1.362.997a.397.397 0 0 0 .229.381.404.404 0 0 0 .555-.492.406.406 0 0 0-.353-.273.404.404 0 0 0-.391.23.412.412 0 0 0-.04.154Z" fill="#263238"/><path d="m178.226 80.036-1.107.321a.569.569 0 0 0 .704.412.608.608 0 0 0 .403-.733Z" fill="#F28F8F"/><path d="m174.976 76.15.853-.54a.48.48 0 0 0-.671-.159.515.515 0 0 0-.182.7Zm3.681-.431.868.48a.482.482 0 0 0-.033-.543.476.476 0 0 0-.145-.124.522.522 0 0 0-.69.187Zm-3.489 1.351a.407.407 0 0 0 .369.446.413.413 0 0 0 .432-.388.408.408 0 0 0-.369-.446.413.413 0 0 0-.432.388Z" fill="#263238"/><path d="m177.153 76.845-.048 2.621-1.266-.426 1.314-2.195Zm1.514 5.554c1.03-.106 3.163-.657 3.513-1.486-.144.42-.414.787-.772 1.05-.642.522-2.751 1.078-2.751 1.078l.01-.642Z" fill="#F28F8F"/><path d="M177.19 103.231a6.72 6.72 0 0 0 2.057-.599 5.074 5.074 0 0 1-1.155-.312.72.72 0 0 1-.441-.872c.057-.144.407.029 1.04 0a7.57 7.57 0 0 1 2.209 0c.321.067.758.287 1.04.124a70.297 70.297 0 0 0 6.14-4.26l-1.869-5.59a7.412 7.412 0 0 1 .508-6.661c1.27.22 2.253.479 3.202 3.834.997 3.547 2.396 8.148 2.32 9.615-.077 1.466-3.897 2.971-6.768 4.4-1.213.604-3.216 1.754-4.002 2.161-2.718 1.414-4.036 1.28-4.98.36-1.51-1.462-.935-1.994.699-2.2Z" fill="#FFA8A7"/><path d="M186.552 84.83c2.573.158 2.875 2.143 3.609 4.108.695 1.83 1.596 6.657 1.596 6.657s-1.884 1.893-3.902 1.4l-1.788-5.603s-2.128-4.328.485-6.562Z" fill="#263238"/><path d="M87.097 140.006c.254-.599.91-1.035 1.917-1.155a6.937 6.937 0 0 1 5.752 2.454c.599.801.738 1.572.479 2.176l-16.45 43.099c-.32.906-1.25 1.567-2.703 1.745-2.775.335-6.38-1.203-8.057-3.432-.882-1.174-1.05-2.301-.618-3.159l19.68-41.728Z" fill="#455A64"/><path d="M94.766 141.305c1.198 1.601.565 3.092-1.438 3.331a6.925 6.925 0 0 1-5.752-2.454c-1.203-1.6-.565-3.091 1.438-3.331a6.937 6.937 0 0 1 5.752 2.454Z" fill="#37474F"/><path d="M95.192 127.479a4.16 4.16 0 0 1 3.485 1.485 1.322 1.322 0 0 1 .292 1.314l-5.334 12.519a1.334 1.334 0 0 1-1.15.695 4.191 4.191 0 0 1-3.49-1.481 1.338 1.338 0 0 1-.292-1.318l5.34-12.5a1.324 1.324 0 0 1 1.15-.714Z" fill="#7A6BDE"/><path opacity=".2" d="M95.192 127.479a4.16 4.16 0 0 1 3.485 1.485 1.322 1.322 0 0 1 .292 1.314l-5.334 12.519a1.334 1.334 0 0 1-1.15.695 4.191 4.191 0 0 1-3.49-1.481 1.338 1.338 0 0 1-.292-1.318l5.34-12.5a1.324 1.324 0 0 1 1.15-.714Z" fill="#000"/><path opacity=".2" d="m91.583 133.942.37.216.057.033.072.039.076.043c.236.138.48.265.729.378.302.154.613.288.92.408.276.118.557.222.843.311.32.094.64.187.96.278.167.048.325.091.478.125.122.032.245.058.37.077l.12.024 2.396-5.604a1.315 1.315 0 0 0-.293-1.313 3.009 3.009 0 0 0-.503-.513c-1.488.46-3.03.724-4.587.786l-2.008 4.712Z" fill="#000"/><path opacity=".15" d="m91.4 144.487-17.355 43.76a7.585 7.585 0 0 0 2.047.062c1.438-.177 2.397-.834 2.703-1.749l16.45-43.089c-.259.604-.916 1.03-1.917 1.15a5.655 5.655 0 0 1-1.927-.134Z" fill="#000"/><path d="M145.634 75.66c0-.36-.024-.714-.053-1.069-.028-.355-.043-.7-.081-1.045 0-.235-.043-.48-.072-.695a22.75 22.75 0 0 0-.244-1.759 26.681 26.681 0 0 0-.144-.781c-.053-.259-.101-.48-.149-.729a57.287 57.287 0 0 0-.479-1.917c-.096-.292-.187-.58-.283-.867a.486.486 0 0 1-.043-.135c-.105-.282-.206-.556-.312-.824a14.986 14.986 0 0 0-.388-.915c-.139-.293-.196-.432-.311-.643a3.522 3.522 0 0 0-.23-.479 7.812 7.812 0 0 0-.293-.556.713.713 0 0 0-.076-.12 14.683 14.683 0 0 0-.278-.48c-.096-.157-.135-.2-.197-.301a15.628 15.628 0 0 0-1.524-2.027c-.096-.11-.197-.216-.283-.322-.086-.105-.158-.167-.24-.249-.081-.081-.206-.201-.311-.311a9.856 9.856 0 0 0-.92-.825 6.106 6.106 0 0 0-.48-.369c-.167-.115-.321-.24-.479-.355a8.832 8.832 0 0 0-.791-.517l-.211-.13-.043-.038-4.985-2.885-.072-.044a15.813 15.813 0 0 0-7.889-1.993c-4.117 0-8.761 1.346-13.679 4.184-16.915 9.763-30.603 33.493-30.603 53.035 0 9.734 3.403 16.583 8.91 19.79l.048.029 4.941 2.895.058.038.072.038.076.044c.237.138.48.264.729.378.3.152.607.288.92.408.276.118.557.222.844.311.148.053.297.096.45.134.156.059.317.105.48.139.157.05.317.092.479.125.12.036.24.063.364.081.216.044.441.091.666.115.051.01.103.01.154 0 .263.044.532.082.79.111 4.564.479 9.865-.81 15.535-4.079 16.909-9.764 30.618-33.508 30.618-53.02a9.42 9.42 0 0 0 .009-1.376Zm-55.767 46.06a29.862 29.862 0 0 1-1.035-8.009c0-18.501 13.536-41.944 29.554-51.195a28.645 28.645 0 0 1 7.496-3.1 16.467 16.467 0 0 1 3.834-.48 12.08 12.08 0 0 1 1.956.154h.053c3.278 3.877 3.762 10.093 3.762 13.42 0 18.496-13.521 41.939-29.549 51.185-4.074 2.353-7.994 3.594-11.354 3.594a7.828 7.828 0 0 1-2.066-.263 14.59 14.59 0 0 1-2.65-5.306Z" fill="#37474F"/><path opacity=".25" d="M141.267 75.742c0 9.83-3.834 21.046-9.801 30.8-.283.479-.571.915-.868 1.371-.297.455-.503.786-.767 1.174a69.99 69.99 0 0 1-1.725 2.464c-.283.383-.566.762-.858 1.136-.293.373-.633.824-.959 1.231a47.303 47.303 0 0 1-1.917 2.267c-.427.48-.863.959-1.299 1.438a49.731 49.731 0 0 1-11.379 9.299c-.766.441-1.524.848-2.276 1.208a22.733 22.733 0 0 1-7.789 2.329c-.441.043-.872.058-1.289.058h-.647a9.948 9.948 0 0 1-1.218-.13c-.196-.029-.388-.057-.575-.1-.187-.044-.374-.082-.56-.139a8.964 8.964 0 0 1-4.794-3.106 7.876 7.876 0 0 0 2.061.263c3.356 0 7.286-1.241 11.36-3.594 16.028-9.241 29.544-32.689 29.544-51.185 0-3.326-.479-9.538-3.758-13.42h-.052c4.174.666 6.552 3.508 7.889 6.791.379.933.686 1.895.915 2.876 0 .053 0 .105.034.163.043.172.086.355.12.532.033.177.067.345.1.518.011.044.02.089.024.134.039.185.072.367.101.546a35.7 35.7 0 0 1 .244 1.999c0 .187.034.36.044.537.009.177.023.268.028.398v.167c0 .144 0 .283.024.422.003.04.003.08 0 .12v.522c.039.297.043.638.043.911Z" fill="#000"/><path d="m92.978 131.969-4.596-2.704c-5.508-3.216-8.892-10.06-8.892-19.766 0-8.704 2.733-18.242 7.243-27.004l5.22 2.996c-4.52 8.761-7.511 18.213-7.511 26.908-.005 9.519 3.235 16.272 8.536 19.57Z" fill="#263238"/><path d="m136.748 57.255-.043-.038-4.971-2.895-.067-.044a15.76 15.76 0 0 0-7.894-1.998c-4.112 0-8.762 1.347-13.684 4.184-9.366 5.411-17.734 15.117-23.361 26.017l5.195 3.053-.115.215c5.632-10.78 13.977-20.538 23.242-26.361 8.387-5.273 16.349-5.359 21.909-1.975l-.211-.158Z" fill="#455A64"/><path opacity=".3" d="M138.603 74.175c0 18.496-13.536 41.944-29.554 51.19a28.517 28.517 0 0 1-7.511 3.105 16.446 16.446 0 0 1-3.858.48 11.033 11.033 0 0 1-3.92-.667c-1.99-1.667-3.188-4.083-3.907-6.566a29.86 29.86 0 0 1-1.035-8.009c0-18.501 13.535-41.944 29.553-51.194a28.637 28.637 0 0 1 7.497-3.101 16.467 16.467 0 0 1 3.834-.48 11.066 11.066 0 0 1 3.921.671c1.989 1.663 3.187 4.084 3.906 6.567.719 2.607 1.08 5.3 1.074 8.004Z" fill="#fff"/><path d="M75.723 158.139c.906.201 2.636.383 2.636.383l1.241-2.631-2.784-1.289-1.093 3.537Z" fill="#FFA8A7"/><path d="M68.946 156.174a18.429 18.429 0 0 0 7.031 1.998l1.496-2.252-7.516-5.066-1.011 5.32Z" fill="#7A6BDE"/><path opacity=".3" d="M68.946 156.174a18.429 18.429 0 0 0 7.031 1.998l1.496-2.252-7.516-5.066-1.011 5.32Z" fill="#000"/><path d="m75.508 158.134 1.265.187.959-2.876s-1.242-.595-1.275-.575c-.034.019-.95 3.264-.95 3.264Z" fill="#7A6BDE"/><path opacity=".4" d="m75.508 158.134 1.265.187.959-2.876s-1.242-.595-1.275-.575c-.034.019-.95 3.264-.95 3.264Z" fill="#000"/><path d="M58.737 140.213a3.028 3.028 0 0 0-3.078 1.591 6.408 6.408 0 0 0-.479 3.245c.288 2.536 2.19 8.072 2.19 8.072l1.367-12.908Z" fill="#7A6BDE"/><path opacity=".4" d="M58.737 140.213a3.028 3.028 0 0 0-3.078 1.591 6.408 6.408 0 0 0-.479 3.245c.288 2.536 2.19 8.072 2.19 8.072l1.367-12.908Z" fill="#000"/><path d="M56.005 199.747c-.22.081-.346.479-.441 1.495-.058.623-.274 1.438.675 1.951a2.401 2.401 0 0 0 2.243-.024c.825-.508 1.237-1.438 2.2-2.21.849-.661 1.918-1.15 2.594-2.358.675-1.208.575-2.008-.83-2.008-2.252 0-2.928 1.241-4.088 1.265-.628.015-2.119 1.807-2.353 1.889Z" fill="#263238"/><path d="M56.005 199.248v1.016c0 .479 2.109 1.232 2.698.101.043-.096.273-1.486.273-1.486l-2.971.369Z" fill="#FFA8A7"/><path d="M65.787 205.642s-.398 0-.556 1.634c-.062.623-.21 1.917 0 2.363.211.446 1.366.666 2.66.781a6.967 6.967 0 0 1 2.728 1.055 5.842 5.842 0 0 0 2.76.762c1.223 0 2.258-.12 3.13-.81.48-.364 1.05-1.136.618-1.721a1.276 1.276 0 0 0-.651-.34 29.393 29.393 0 0 0-1.644-.566 17.308 17.308 0 0 1-2.42-.925c-1.142-.565-2.397-1.193-3.275-2.152l-3.35-.081Z" fill="#263238"/><path d="M65.792 204.8v1.179c0 .426.48 1.074 1.812 1.035.925-.029 1.567-.273 1.534-1.035v-1.098l-3.346-.081Z" fill="#FFA8A7"/><path d="M55.434 185.804a27.838 27.838 0 0 1 1.223-5.272s-.336-4.554-.48-8.872c-.133-4.423-.01-8.849.37-13.258 0 0 14.67-1.39 14.91 3.998.24 5.387-.11 19.1-.297 21.468-.187 2.367-.383 4.586-.882 8.986-.431 3.797-1.13 12.026-1.13 12.026a3.556 3.556 0 0 1-3.356-.086s-1.102-11.053-1.232-13.785c-.163-3.537.662-5.493.662-5.493s-.312-2.224-.858-6.806c-.384-3.235-.897-6.916-.897-6.916s-.479 4.558-.805 7.098c-.283 2.359-.762 4.223-1.471 8.628-.614 3.834-2.287 11.877-2.287 11.877a2.5 2.5 0 0 1-2.875-.144s-1.074-10.142-.595-13.449Z" fill="#263238"/><path d="m63.467 171.809-.694-4.505s-2.876-.906-4.314-2.608c0 0 .771 1.98 3.431 3.044l1.07 3.791.181 3.13.326-2.852Z" fill="#000"/><path d="m65.873 138.886-.685 4.813-4.328-.149.417-5.622 4.596.958Z" fill="#FFA8A7"/><path d="M68.984 132.946s1.16 1.702 1.035 1.874c-.297.167-.622.28-.958.336l-.077-2.21Z" fill="#F28F8F"/><path d="M67.168 132.664a1.44 1.44 0 0 1 .857-1.359 1.438 1.438 0 1 1 .58 2.753 1.406 1.406 0 0 1-1.322-.854 1.407 1.407 0 0 1-.115-.54Zm.311 0a1.102 1.102 0 1 0 0-.005v.005Z" fill="#263238"/><path d="M65.758 128.23c2.301.45 2.982 1.438 3.255 5.09.287 3.811-.082 5.014-.575 5.536-.331.35-2.21.441-3.164.197-1.188-.307-3.882-1.218-5.171-3.111-1.51-2.234-1.946-5.272-.384-6.562 2.195-1.802 5.1-1.332 6.04-1.15Z" fill="#FFA8A7"/><path d="M65.84 139.15c.987.11 2.325 0 2.598-.293a6.815 6.815 0 0 1-2.464-.479l-.134.772Z" fill="#F28F8F"/><path d="m69.372 129.15-.072.072c-.479.446-1.044.733-1.519 1.155a3.568 3.568 0 0 0-1.064 1.754c-.149.556-.201 1.213-.8 1.477 0 0-.403-1.467-1.64-1.261-1.236.206-1.394 1.802-.59 2.756.806.954 1.535.575 1.535.575s0 2.109-.92 3.317a6.383 6.383 0 0 1-3.02-.029c-1.203-.235-2.924-1.711-3.667-3.288-1.562-3.355-1.716-6.36.417-7.304.211-1.553 1.438-2.267 2.804-2.608 2.07-.508 4.036.695 6.087.202.421-.13.848-.239 1.28-.326a.25.25 0 0 1 .148 0c.11.052.106.201.077.316a2.728 2.728 0 0 1-.59 1.122 6.374 6.374 0 0 0 2.325-.336 2.997 2.997 0 0 1-.79 2.406Z" fill="#263238"/><path d="m58.339 129.151-1.376-.814a.796.796 0 0 1 1.323-.093.789.789 0 0 1 .16.588.802.802 0 0 1-.098.296l-.01.023Zm7.601 5.272-.066-1.591a.802.802 0 0 1 .572.209.797.797 0 0 1-.505 1.382Z" fill="#263238"/><path d="m69.857 132.329-4.261.618.177.298 4.089-.595-.005-.321Z" fill="#263238"/><path d="M56.081 142.864c.504-1.975 1.218-2.617 2.938-2.665.887.061 1.768.173 2.641.336.183.839 2.34 1.404 4.52.958.652.187 2.397.657 2.91.853 1.548.561 2.295 2.167 2.396 7.257 0 0 .297 12.079 0 14.163a18.729 18.729 0 0 1-10.17.959c-4.645-1.04-5.196-2.972-5.196-2.972s.244-4.845.402-8.531c-.235-2.349-.584-4.113-.71-5.987a15.636 15.636 0 0 1 .27-4.371Z" fill="#7A6BDE"/><path d="M56.081 142.863c.504-1.975 1.218-2.617 2.938-2.665.887.061 1.768.173 2.641.336.183.839 2.34 1.404 4.52.958.652.187 2.397.657 2.91.854 1.548.56 2.295 2.166 2.396 7.256 0 0 .297 12.079 0 14.164a18.738 18.738 0 0 1-10.17.958c-4.645-1.04-5.196-2.972-5.196-2.972s.244-4.845.402-8.531c-.235-2.349-.584-4.113-.71-5.987a15.636 15.636 0 0 1 .27-4.371Z" fill="#fff" opacity=".6"/><path d="m61.176 139.288-.033.48s.225.656 1.538.901c2.21.407 2.981-.278 2.981-.278l.058-.398s.211-.086.57.192c.547.563 1.057 1.16 1.53 1.787 0 0-.422-.124-1.803.48a6.581 6.581 0 0 1-4.313.163 2.372 2.372 0 0 1-1.573-1.769c-.052-.436.667-1.725 1.045-1.558Z" fill="#7A6BDE"/><path opacity=".25" d="m61.176 139.288-.033.48s.225.656 1.538.901c2.21.407 2.981-.278 2.981-.278l.058-.398s.211-.086.57.192c.547.563 1.057 1.16 1.53 1.787 0 0-.422-.124-1.803.48a6.581 6.581 0 0 1-4.313.163 2.372 2.372 0 0 1-1.573-1.769c-.052-.436.667-1.725 1.045-1.558Z" fill="#000"/><path d="M68.917 142.245c1.965.245 3.518.657 4.376 2.531 1.438 3.173 3.024 5.78 4.17 7.007 1.222 1.309 6.23 3.609 7.362 3.427 1.131-.182 2.253-1.481 2.837-1.145.585.335-.479 1.596-.426 1.879.053.282 2.118.134 3.087-.552.968-.685 1.327.729.072 2.196-1.256 1.466-3.605 1.581-6.16 1.068-2.554-.512-7.755-1.73-9.715-3.355-2.396-1.96-2.8-3.571-3.81-5.325-3.681-3.757-1.793-7.731-1.793-7.731Z" fill="#FFA8A7"/><path d="M68.63 142.193s2.104 0 3.206.671c1.102.671 1.797 2.114 2.708 4.098a26.524 26.524 0 0 0 2.99 4.707c.48.594 3.979 2.54 3.979 2.54a14.896 14.896 0 0 1-1.03 3.629s-3.519-.882-5.637-2.018c-2.119-1.136-5.34-5.685-5.34-5.685s-2.267-3.01-.877-7.942Z" fill="#7A6BDE"/><path opacity=".15" d="M68.63 142.193s2.104 0 3.206.671c1.102.671 1.797 2.114 2.708 4.098a26.524 26.524 0 0 0 2.99 4.707c.48.594 3.979 2.54 3.979 2.54a14.896 14.896 0 0 1-1.03 3.629s-3.519-.882-5.637-2.018c-2.119-1.136-5.34-5.685-5.34-5.685s-2.267-3.01-.877-7.942Z" fill="#000"/><path d="M81.297 154.074a8.255 8.255 0 0 1-1.097 3.676c.62.169 1.249.305 1.883.408 0 0 1.103-1.107 1.04-3.317l-1.826-.767Z" fill="#7A6BDE"/><path opacity=".3" d="M81.297 154.074a8.255 8.255 0 0 1-1.097 3.676c.62.169 1.249.305 1.883.408 0 0 1.103-1.107 1.04-3.317l-1.826-.767Z" fill="#000"/><path d="M82.366 155.095a.226.226 0 0 1-.22.221.226.226 0 0 1-.138-.37.226.226 0 0 1 .138-.076.225.225 0 0 1 .22.225Z" fill="#455A64"/></svg>