<svg width="206" height="69" fill="none" xmlns="http://www.w3.org/2000/svg"><g clip-path="url(#a)"><path fill-rule="evenodd" clip-rule="evenodd" d="m.692 33.446 9.183-16.208L19.081 1.03a.973.973 0 0 1 .868-.508L38.338.5h18.389c.412 0 .738.243.912.574L66.8 17.216l.043.066 9.162 16.141c.174.332.174.707 0 1.016L66.8 50.647l-9.184 16.208a.998.998 0 0 1-.868.508h-36.8a.974.974 0 0 1-.89-.552L9.897 50.669l-.043-.066L.692 34.46a1 1 0 0 1 0-1.015Z" fill="#B88826"/><path fill-rule="evenodd" clip-rule="evenodd" d="M57.248.655 19.45 67.23a.995.995 0 0 0 .5.132h36.799a.998.998 0 0 0 .868-.508l9.184-16.208 9.205-16.207c.174-.31.174-.685 0-1.016l-9.162-16.142-.043-.066-9.162-16.142a1.036 1.036 0 0 0-.39-.42Z" fill="#A67924"/><path fill-rule="evenodd" clip-rule="evenodd" d="M30.61 50.603h2.864V45.28l-10.139-.022c-.868 0-.999-.022-1.302-.84l-.956-2.538h12.419l-.022-1.303v-.133c0-.662-.087-.95-.717-.95-4.71.067-7.663.2-10.898-2.406-2.975-2.407-4.147-6.36-3.43-10.334.716-3.909 3.234-6.448 6.448-7.618 1.65-.597 3.17-.663 4.906-.663h7.599v34.271h-5.32c-.477 0-.672-.023-.846-.464l-.608-1.678Zm-4.256-27.47c-1.845.795-3.517 2.562-3.865 4.836-.586 3.842 2.193 7.287 5.819 7.596 1.672.133 3.452.067 5.124.067V23.398c0-.728.021-.773-.739-.773-1.085 0-2.106.023-3.213.045-1.129.022-2.04.022-3.126.463Zm19.735 27.47H43.2V45.28l10.16-.022c.87 0 1-.022 1.303-.84l.934-2.538H43.201v-1.436c0-.662.109-.95.717-.95 4.733.067 7.685.2 10.92-2.406 2.974-2.407 4.147-6.36 3.43-10.334-.716-3.909-3.256-6.448-6.448-7.618-1.65-.597-3.17-.663-4.906-.663h-7.621v34.271h5.341c.478 0 .673-.023.825-.464l.63-1.678Zm4.255-27.47c1.845.795 3.517 2.562 3.864 4.836.587 3.842-2.192 7.287-5.84 7.596-1.65.133-3.43.067-5.102.067V23.398c0-.728-.043-.773.717-.773 1.107 0 2.128.023 3.235.045 1.129.022 2.04.022 3.126.463Z" fill="#FEFEFE"/><path d="M98.281 16.95v-1.015c2.996-.243 4.798-1.745 4.798-4.107 0-2.319-1.802-3.865-4.798-4.108V6.683h-1.759v1.06c-2.996.242-4.798 1.766-4.798 4.085 0 2.362 1.802 3.864 4.798 4.107v1.016h1.759Zm2.996-5.122c0 1.369-1.064 2.296-2.996 2.495v-4.99c1.932.22 2.996 1.148 2.996 2.495Zm-7.75 0c0-1.347 1.063-2.275 2.995-2.496v4.99c-1.932-.22-2.996-1.125-2.996-2.494Zm18.584 5.122v-1.567h-5.146v-2.849h5.037v-1.59h-5.037V8.272h5.146v-1.59h-6.926v10.269h6.926Zm1.541 1.9h1.78v-1.9h6.839v1.9h1.759v-3.467h-.934v-8.7h-6.86l-.587 5.277c-.347 3.047-.911 3.467-1.997 3.577v3.312Zm3.756-6.757.434-3.82h3.496v7.11h-5.254c.673-.64 1.15-1.678 1.324-3.29Zm15.284 4.857v-1.567h-5.145v-2.849h5.037v-1.59h-5.037V8.272h5.145v-1.59h-6.925v10.269h6.925Zm3.973 0v-3.82h2.671c2.106 0 3.3-1.479 3.3-3.223 0-1.745-1.194-3.224-3.3-3.224h-4.451V16.95h1.78Zm2.432-5.41h-2.432V8.273h2.432c.999 0 1.715.64 1.715 1.635 0 .993-.716 1.633-1.715 1.633Zm14.481 5.41-3.973-10.267h-2.215l-3.973 10.268h2.019l.738-1.966h4.647l.738 1.966h2.019Zm-3.257-3.555h-3.647l1.824-4.88 1.823 4.88Zm4.082 3.755c1.954 0 3.278-.707 3.756-5.057l.434-3.82h3.495v8.678h1.759V6.683h-6.839l-.608 5.277c-.347 3.047-.89 3.577-1.997 3.577v1.612Zm11.984-10.467V16.95h4.451c2.106 0 3.278-1.48 3.278-3.202 0-1.745-1.194-3.224-3.278-3.224h-2.671V6.683h-1.78Zm4.19 5.432c.999 0 1.737.64 1.737 1.634 0 .971-.738 1.634-1.737 1.634h-2.41v-3.268h2.41Zm14.199 4.835V6.684h-1.78V10.9h-5.233V6.683h-1.78V16.95h1.78v-4.483h5.233v4.483h1.78Zm11.615 0L192.44 6.684h-2.215l-3.973 10.268h2.019l.738-1.966h4.625l.76 1.966h1.997Zm-3.257-3.555h-3.625l1.823-4.88 1.802 4.88Zm6.34 3.555 2.236-3.82h1.759v3.82h1.78V6.684h-4.429c-1.997 0-3.3 1.325-3.3 3.224 0 1.832 1.172 2.826 2.388 3.025l-2.475 4.019h2.041Zm1.585-5.41c-.999 0-1.737-.64-1.737-1.633 0-.994.738-1.635 1.737-1.635h2.41v3.268h-2.41ZM95.502 34.329c2.974 0 5.297-2.164 5.297-5.322s-2.323-5.3-5.297-5.3c-2.04 0-3.3 1.06-4.06 2.297l1.52.795c.477-.861 1.454-1.502 2.54-1.502 1.715 0 3.04 1.149 3.387 2.827h-5.363v1.59h5.406c-.282 1.766-1.65 3.003-3.43 3.003a2.938 2.938 0 0 1-2.54-1.48l-1.52.773c.782 1.237 2.02 2.319 4.06 2.319Zm15.61-.199-4.407-5.41 4.103-4.858h-2.193l-3.951 4.902v-4.902h-1.78V34.13h1.78v-3.268l.868-1.06 3.387 4.328h2.193Zm6.405.199c2.04 0 3.278-1.082 4.059-2.319l-1.519-.773a2.94 2.94 0 0 1-2.54 1.48c-1.998 0-3.474-1.546-3.474-3.71 0-2.142 1.476-3.71 3.474-3.71 1.085 0 2.062.64 2.54 1.502l1.519-.795c-.759-1.237-2.019-2.297-4.059-2.297-2.975 0-5.298 2.142-5.298 5.3s2.323 5.322 5.298 5.322Zm14.654-.199V23.862h-8.793V34.13h1.781v-8.678h5.254v8.678h1.758Zm9.466 0v-1.59h-5.145v-2.826h5.037v-1.59h-5.037v-2.672h5.145v-1.59h-6.926V34.13h6.926Zm3.973 0v-3.82h2.671c2.084 0 3.3-1.48 3.3-3.224 0-1.744-1.195-3.224-3.3-3.224h-4.451V34.13h1.78Zm2.41-5.41h-2.41v-3.268h2.41c.999 0 1.737.64 1.737 1.634 0 .994-.738 1.634-1.737 1.634Zm9.574 5.41v-8.678h3.062v-1.59h-7.881v1.59h3.061v8.678h1.758Zm13.743 0V23.862h-1.759v4.218h-5.254v-4.218h-1.78V34.13h1.78v-4.482h5.254v4.482h1.759Zm11.615 0-3.951-10.268h-2.214l-3.974 10.268h2.02l.738-1.965h4.646l.738 1.965h1.997Zm-3.235-3.555h-3.647l1.824-4.88 1.823 4.88Zm6.318 3.555 2.258-3.82h1.737v3.82h1.78V23.862h-4.429c-1.997 0-3.3 1.325-3.3 3.224 0 1.833 1.173 2.827 2.388 3.025l-2.475 4.02h2.041Zm1.585-5.41c-.999 0-1.737-.64-1.737-1.634 0-.993.738-1.634 1.737-1.634h2.41v3.268h-2.41ZM97.022 51.508c2.04 0 3.278-1.082 4.06-2.318l-1.52-.795a2.913 2.913 0 0 1-2.54 1.502c-1.998 0-3.496-1.546-3.496-3.71 0-2.164 1.498-3.71 3.496-3.71 1.085 0 2.062.64 2.54 1.502l1.52-.795c-.76-1.237-2.02-2.297-4.06-2.297-2.996 0-5.298 2.142-5.298 5.3 0 3.157 2.302 5.321 5.298 5.321Zm5.21 0c1.954 0 3.279-.707 3.756-5.056l.413-3.82h3.495v8.677h1.781V41.042h-6.861l-.586 5.277c-.348 3.047-.912 3.577-1.998 3.577v1.612Zm13.2 0c1.716 0 2.497-.883 3.105-2.12l4.212-8.346h-2.019l-2.779 5.984-2.779-5.985h-2.019l3.799 7.552c-.477.95-.825 1.303-1.65 1.303-.477 0-.955-.265-1.302-.574l-.652 1.48c.326.33 1.173.706 2.084.706Zm10.031-.198 3.386-4.329.5.619v3.71h1.758V47.6l.5-.619 3.408 4.328h2.171l-4.407-5.41 4.103-4.858h-2.192l-3.583 4.439v-4.438h-1.758v4.438l-3.583-4.438h-2.192l4.103 4.857-4.407 5.41h2.193Zm13.287-10.269V51.31h4.45c2.106 0 3.278-1.48 3.278-3.201 0-1.745-1.194-3.224-3.278-3.224h-2.67V42.63h5.145v-1.59h-6.925Zm4.19 5.433c.998 0 1.736.64 1.736 1.634 0 .971-.738 1.611-1.736 1.611h-2.41v-3.245h2.41Zm14.481 4.836-3.952-10.269h-2.214l-3.973 10.268h2.019l.738-1.965h4.624l.76 1.965h1.998Zm-3.257-3.556h-3.626l1.824-4.88 1.802 4.88Z" fill="#000"/><path fill-rule="evenodd" clip-rule="evenodd" d="M11.982 18.474 3.34 33.711a2.813 2.813 0 0 0-.065.22v.023c0 .066.021.154.065.22l8.619 15.17.021.044.022.045 8.62 15.17v.022a.518.518 0 0 0 .173.198h.022a.432.432 0 0 0 .238.067h34.586a.432.432 0 0 0 .24-.067.665.665 0 0 0 .173-.176l8.619-15.214.022-.022 8.662-15.237c.022-.066.044-.132.044-.22v-.023c0-.066 0-.154-.044-.22l-.022-.023-8.597-15.147-.022-.045-.021-.044-8.62-15.17-.021-.022a.351.351 0 0 0-.152-.199h-.022V3.04h-.043v-.022h-.065v-.022h-.022c-.044 0-.065-.022-.109-.022l-17.303.022H21.035a.559.559 0 0 0-.24.066.407.407 0 0 0-.151.177l-8.64 15.192v.044h-.022ZM5.36 33.512l8.054-14.198L21.47 5.115a.854.854 0 0 1 .76-.442v-.022h32.218c.109 0 .217.022.304.067h.044l.021.022h.022l.022.022h.022l.021.022h.022l.022.022.021.022h.022v.022h.022v.022h.021v.022h.022v.022h.022v.022h.022v.022h.021v.023h.022v.022h.022v.022l.021.022v.022h.022v.044h.022v.022l.022.022 8.032 14.132.022.044 8.033 14.155a.913.913 0 0 1 0 .883l-8.054 14.199L55.23 62.77a.88.88 0 0 1-.76.441H38.36l-16.13.023c-.348 0-.63-.221-.782-.508l-.13-.243-7.903-13.89-.021-.066L5.36 34.395a.912.912 0 0 1 0-.883Z" fill="#FEFEFE"/><path d="M96.262 64.007c1.672 0 2.822-1.281 2.822-2.982 0-1.722-1.15-3.002-2.822-3.002-1.563 0-2.649 1.081-2.823 2.583h-1.02v-2.495h-.695v5.807h.695v-2.672h1.02c.087 1.612 1.216 2.76 2.823 2.76Zm0-.64c-1.281 0-2.106-.994-2.106-2.341 0-1.37.825-2.363 2.106-2.363 1.26 0 2.084.994 2.084 2.363 0 1.346-.825 2.34-2.084 2.34Zm5.515.551V61.6h1.584c1.129 0 1.781-.795 1.781-1.745 0-.95-.63-1.744-1.781-1.744h-2.279v5.807h.695Zm1.498-2.959h-1.498v-2.208h1.498c.673 0 1.15.464 1.15 1.104 0 .663-.477 1.104-1.15 1.104Zm4.385 2.959 3.322-4.637v4.637h.695v-5.807h-.717l-3.278 4.527V58.11h-.717v5.807h.695Zm5.84 1.06h.716v-1.06h4.234v1.06h.716v-1.7h-.521V58.11h-3.473l-.369 2.915c-.239 1.965-.608 2.252-1.303 2.296v1.656Zm2.019-3.908.282-2.319h2.128v4.527h-3.278c.412-.331.716-.972.868-2.208Zm6.123 2.848 3.321-4.637v4.637h.717v-5.807h-.738l-3.279 4.527V58.11h-.716v5.807h.695Zm6.773-5.808h-.695v1.502c0 1.193.63 1.988 1.976 1.988.543 0 .999-.089 1.368-.199v2.517h.716v-5.807h-.716v2.65c-.369.132-.847.198-1.324.198-.847 0-1.325-.441-1.325-1.325v-1.523Zm9.314 5.808v-.64h-3.039v-2.01h2.974v-.64h-2.974v-1.877h3.039v-.64h-3.734v5.807h3.734Zm4.69.089c1.02 0 1.693-.486 2.171-1.127l-.608-.353c-.326.508-.912.84-1.563.84-1.238 0-2.193-.972-2.193-2.341 0-1.392.955-2.363 2.193-2.363a1.91 1.91 0 0 1 1.563.839l.608-.331c-.456-.663-1.151-1.148-2.171-1.148-1.629 0-2.931 1.214-2.931 3.002 0 1.767 1.302 2.982 2.931 2.982Zm8.293-.089-2.584-3.047 2.367-2.76h-.89l-2.519 3.003V58.11h-.694v5.807h.694v-1.943l.587-.662 2.149 2.605h.89Zm6.557 0-2.28-5.807h-.89l-2.28 5.807h.804l.499-1.303h2.844l.499 1.303h.804Zm-1.52-1.943h-2.41l1.194-3.113 1.216 3.113Zm3.712 1.943 1.455-2.318h1.151v2.318h.694v-5.807h-2.279c-1.042 0-1.802.684-1.802 1.744s.716 1.634 1.498 1.7l-1.542 2.363h.825Zm1.108-2.937c-.673 0-1.151-.463-1.151-1.126 0-.64.478-1.104 1.151-1.104h1.498v2.23h-1.498Zm8.64 2.937v-5.167h3.018v-.64h-3.734v5.807h.716Zm5.58 0V61.6h1.585c1.129 0 1.78-.795 1.78-1.745 0-.95-.63-1.744-1.78-1.744h-2.301v5.807h.716Zm1.498-2.959h-1.498v-2.208h1.498c.673 0 1.129.464 1.129 1.104 0 .663-.456 1.104-1.129 1.104Zm4.255 3.048c.825 0 1.194-.442 1.563-1.127l2.475-4.77h-.803l-1.802 3.6-1.78-3.6h-.803l2.192 4.24-.108.2c-.326.595-.5.816-.955.816-.326 0-.587-.176-.782-.375l-.304.574c.217.243.63.442 1.107.442Zm10.421-.089v-5.807h-4.754v5.807h.716v-5.167h3.322v5.167h.716Zm6.948 0v-5.807h-4.733v5.807h.695v-5.167h3.343v5.167h.695Zm7.099 0-2.301-5.807h-.869l-2.301 5.807h.825l.499-1.303h2.823l.521 1.303h.803Zm-1.52-1.943h-2.431l1.216-3.113 1.215 3.113Z" fill="#A67924"/></g><defs><clipPath id="a"><path fill="#fff" transform="translate(.54 .5)" d="M0 0h205v68H0z"/></clipPath></defs></svg>