<svg width="304" height="71" fill="none" xmlns="http://www.w3.org/2000/svg"><path d="m64.91 33.26-5.35 5.35.66.66a4.289 4.289 0 0 1 0 6.07l-1 1a4.218 4.218 0 0 1-3 1.25h-.29a4.29 4.29 0 0 1-1.23 3.24l-1 1a4.251 4.251 0 0 1-3 1.26 2.598 2.598 0 0 1-.29 0 4.241 4.241 0 0 1-1.23 3.33l-1 1a4.27 4.27 0 0 1-3 1.26 5.086 5.086 0 0 1-.67-.07 4.43 4.43 0 0 1-1.28 3l-1 1a4.4 4.4 0 0 1-3 1.28h-.09a4.089 4.089 0 0 1-2.91-1.19l-.38-.38-2.22 2.21a4.9 4.9 0 0 1-6.92 0l-.4-.41a4.85 4.85 0 0 1-1.38-4 5.23 5.23 0 0 1-.56 0 4.83 4.83 0 0 1-3.46-1.43l-.4-.41a4.83 4.83 0 0 1-1.37-4c-.2 0-.38.06-.57.06a4.93 4.93 0 0 1-3.46-1.43l-.4-.41a4.86 4.86 0 0 1-1.38-4c-.19.01-.38.01-.57 0a4.88 4.88 0 0 1-3.46-1.43l-.39-.39a4.88 4.88 0 0 1 0-6.92l.44-.46-6-6L34.1 2.46l30.81 30.8ZM58 37.09l3.82-3.83-22.68-22.72-14 14.07a3.74 3.74 0 0 0 6 4.26l9.3-9.44 13.82 13.86 3.74 3.8Zm.7 6.74a2.14 2.14 0 0 0 0-3L52 34.11 40.42 22.49 32.6 30.4a5.88 5.88 0 0 1-10-4.23c.002-.93.222-1.848.64-2.68l.21-.27L37.61 9.01 34.1 5.5 6.33 33.26l4.52 4.57.59-.59a4.88 4.88 0 0 1 6.92 0l.41.4a4.87 4.87 0 0 1 1.38 4 3.54 3.54 0 0 1 .57-.06 4.88 4.88 0 0 1 3.46 1.43l.4.41a4.86 4.86 0 0 1 1.37 4A4.91 4.91 0 0 1 30 48.83l.4.41a4.82 4.82 0 0 1 1.38 4 4.84 4.84 0 0 1 4 1.39l.41.39a4.91 4.91 0 0 1 1 5.54l.6.6a1.9 1.9 0 0 0 1.43.56 2.16 2.16 0 0 0 1.5-.66l1-1a2.2 2.2 0 0 0 .66-1.51 1.94 1.94 0 0 0-.56-1.43l-3.85-3.84L35 50.36l1.49-1.53 3.6 3.6.06-.06 3.48 3.46a2.14 2.14 0 0 0 3 0l1-1a2.19 2.19 0 0 0 0-3.05l-5.73-5.72-1-1 1.53-1.52 6.69 6.7a2.19 2.19 0 0 0 3 0l1-1a2.14 2.14 0 0 0 0-3l-6.76-6.76-.23-.23 1.56-1.42 7 7a2.15 2.15 0 0 0 3 0l1.01-1Zm-24 16.6a2.76 2.76 0 0 0 0-3.89l-.4-.4a2.75 2.75 0 0 0-3.88 0l-2.56 2.57a2.76 2.76 0 0 0 0 3.88l.4.41a2.78 2.78 0 0 0 3.89 0l2.55-2.57Zm-5.81-5.81a2.73 2.73 0 0 0 0-3.88l-.39-.4a2.74 2.74 0 0 0-3.88 0L22 52.9a2.747 2.747 0 0 0-.611 3.03c.142.338.35.644.611.9l.41.39a2.75 2.75 0 0 0 3.88 0l2.56-2.55.04-.05Zm-5.83-5.79a2.76 2.76 0 0 0 0-3.88l-.41-.39a2.69 2.69 0 0 0-1.93-.81 2.727 2.727 0 0 0-1.95.8l-2.57 2.53a2.76 2.76 0 0 0 0 3.88l.41.4a2.73 2.73 0 0 0 3.88 0l2.57-2.53Zm-5.8-5.8a2.76 2.76 0 0 0 0-3.88l-.41-.41a2.76 2.76 0 0 0-2-.79 2.73 2.73 0 0 0-1.93.79l-2.52 2.54a2.75 2.75 0 0 0 0 3.88l.4.41a2.76 2.76 0 0 0 3.88 0L17.24 43l.02.03Zm64.56-15c0-15.54 23.06-15.54 23.06 0s-23.06 15.57-23.06 0Zm17.18 0a5.649 5.649 0 0 0-9.773-4.258 5.649 5.649 0 0 0-1.497 4.258c0 8.15 11.27 8.15 11.27 0Zm20.39-11.53c4.65 0 9.69 2.54 10.56 8.54h-5.65a4.702 4.702 0 0 0-4.91-3.3c-3.37 0-5.59 2.53-5.59 6.26 0 3.3 2.19 6.19 5.59 6.23a4.78 4.78 0 0 0 5-3.63h5.65c-.84 6.36-5.88 8.86-10.66 8.86-5.72 0-11.5-3.82-11.53-11.46-.03-7.64 5.82-11.5 11.54-11.5Zm29.89 11.05a4.873 4.873 0 0 1 2.7 4.59c0 3.92-2.41 7.09-7 7.09h-10.53V16.76h9.6a6.892 6.892 0 0 1 7 6.9 5.39 5.39 0 0 1-1.77 3.89ZM140 21.9v3.63h3.63c2.28 0 2.28-3.63 0-3.63H140Zm0 8.41v3.82h4.59c2.31 0 2.28-3.82 0-3.82H140Zm15.09-2.28c0-15.54 23-15.54 23 0s-23 15.57-23 0Zm17.18 0a5.638 5.638 0 0 0-3.378-5.591A5.65 5.65 0 0 0 161 28.03c0 8.15 11.27 8.15 11.27 0Zm20.1-3.4c10.75 0 10.75 14.57 0 14.6h-9.89V16.76h16.15v5.14h-10.41v2.73h4.15Zm-4.15 5.07v4.4h4.11a2.21 2.21 0 1 0 0-4.4h-4.11Zm15.16-1.67c0-15.54 23.05-15.54 23.05 0s-23.05 15.57-23.05 0Zm17.17 0a5.647 5.647 0 0 0-3.358-5.648 5.656 5.656 0 0 0-6.432 1.35 5.65 5.65 0 0 0-1.47 4.298c0 8.15 11.26 8.15 11.26 0Zm12.17 13.74H228v-7.51h2.28L238 16.47h2.47l8 17.79h2.34v7.51H246V39.3h-13.3l.02 2.47Zm3.34-7.58h6.36l-3.24-8.12-3.12 8.12Zm19.65 5.08h-2.05V16.76h5.87v11l11.37-11.1h2.1v22.57h-6v-11l-11.29 11.04Zm42.86-22.57h2.06v22.53h-5.88v-10l-4.78 5h-.64l-4.75-5v10h-5.88V16.7h2.12l8.8 9.76 8.95-9.76ZM83.44 51.77h1a4.82 4.82 0 0 1 1.7-2.37 4 4 0 0 1 2.17-.65A4 4 0 0 1 91 55.49a3.71 3.71 0 0 1-2.74 1.14 4 4 0 0 1-2.59-.94 3.441 3.441 0 0 1-1.29-2.53h-1v3.28H82v-7.5h1.42l.02 2.83Zm7.3.93a2.6 2.6 0 0 0-.7-1.79 2.3 2.3 0 0 0-1.77-.76 2.42 2.42 0 0 0-1.74.7 2.52 2.52 0 0 0-.72 1.86 2.399 2.399 0 0 0 .74 1.84 2.46 2.46 0 0 0 1.74.7 2.31 2.31 0 0 0 1.71-.74 2.51 2.51 0 0 0 .74-1.81Zm4.86-3.76h1.52a4.997 4.997 0 0 1 1.77.22c.358.149.66.408.86.74.215.366.323.785.31 1.21.022.471-.123.935-.41 1.31a2.11 2.11 0 0 1-1.11.73 7.11 7.11 0 0 1-1.51.11v3.18H95.6v-7.5Zm1.4 2.89h.46c.25.01.499-.016.74-.08a.64.64 0 0 0 .33-.25.75.75 0 0 0 .12-.43.67.67 0 0 0-.34-.63 1.879 1.879 0 0 0-.91-.15H97v1.54Zm12-2.89v7.5h-1.43v-4.7l-2.8 4.7h-1.24v-7.5H105v4.89l2.84-4.85 1.16-.04Zm6.26 0h1.44l2.42 6.16h.88v2.47h-1.39v-1.13h-5.16v1.13H112V55.1h.83l2.43-6.16Zm.73 2-1.64 4.17h3.28l-1.64-4.17Zm12.44-2v7.5H127v-4.7l-2.8 4.7H123v-7.5h1.43v4.89l2.84-4.85 1.16-.04Zm7.1 4.21h-.48a7.228 7.228 0 0 1-1.53-.11 2.329 2.329 0 0 1-.94-.45 2.003 2.003 0 0 1-.64-.85 4.015 4.015 0 0 1-.18-1.32v-1.48h1.45v1.46c-.038.377.058.756.27 1.07a1.66 1.66 0 0 0 1.18.3h.87v-2.83H137v7.5h-1.43l-.04-3.29Zm5.25-4.21h4.09v1.39h-2.68v1.36h2.68v1.37h-2.68v2h2.68v1.4h-4.09v-7.52Zm14.41 1.31-1 1a3.1 3.1 0 0 0-2.3-1.08 2.419 2.419 0 0 0-1.81.74 2.465 2.465 0 0 0-.74 1.81c-.009.465.105.923.33 1.33.213.388.532.707.92.92a2.7 2.7 0 0 0 1.33.33c.389.003.774-.075 1.13-.23a4.23 4.23 0 0 0 1.14-.85l1 1a5.373 5.373 0 0 1-1.57 1.13 4.248 4.248 0 0 1-1.69.31 3.884 3.884 0 0 1-3.786-2.443 3.809 3.809 0 0 1-.264-1.537c-.013-.7.163-1.391.51-2a3.759 3.759 0 0 1 1.45-1.4 4.089 4.089 0 0 1 2-.53 4.325 4.325 0 0 1 3.27 1.5h.08Zm3.35-1.31H160v2.58l2-2.58h1.71l-2.62 3.35 2.91 4.15h-1.7l-2.3-3.33v3.33h-1.45l-.01-7.5Zm10.86 0h1.45l2.88 7.5h-1.48l-.59-1.54h-3.06l-.6 1.54h-1.5l2.9-7.5Zm.73 2-1 2.57h2l-1-2.57Zm11.22-2v7.5h-1.43v-3h-.36l-1.51 3h-1.56l1.7-3.25a1.87 1.87 0 0 1-1.48-2c-.009-.34.045-.68.16-1a1.835 1.835 0 0 1 1.13-1.04c.194-.074.395-.128.6-.16h1.25l1.5-.05Zm-1.43 3.09v-1.7h-.39a3.257 3.257 0 0 0-.77.07.62.62 0 0 0-.38.27.899.899 0 0 0-.15.53.703.703 0 0 0 .29.64c.293.149.622.215.95.19h.45Zm10.26-3.09h1.44v2.58l2-2.58h1.71l-2.62 3.35 2.88 4.15h-1.7l-2.31-3.33v3.33h-1.44l.04-7.5Zm12.1-.19A3.72 3.72 0 0 1 205 49.9a3.86 3.86 0 0 1 1.15 2.81 3.789 3.789 0 0 1-1.15 2.78 3.908 3.908 0 0 1-2.78 1.156 3.915 3.915 0 0 1-2.78-1.156 4 4 0 0 1-.59-4.75 3.71 3.71 0 0 1 1.43-1.43 3.77 3.77 0 0 1 2-.56Zm0 1.4a2.38 2.38 0 0 0-1.76.72 2.524 2.524 0 0 0-.71 1.84 2.379 2.379 0 0 0 .9 2 2.42 2.42 0 0 0 1.59.57 2.312 2.312 0 0 0 1.73-.74 2.641 2.641 0 0 0 0-3.62 2.34 2.34 0 0 0-1.76-.77h.01Zm8.05-1.21h1.4l1.74 5.23 1.75-5.23h1.39l1.26 7.5h-1.38l-.8-4.74-1.6 4.74h-1.26l-1.58-4.74-.82 4.74H209l1.33-7.5Zm10.76 0h5.4v7.5h-1.44v-6.17h-2.51v6.17h-1.45v-7.5Zm11.5 0H234l2.89 7.5h-1.49l-.59-1.54h-3.06l-.61 1.54h-1.49l2.94-7.5Zm.73 2-1 2.57h2l-1-2.57Zm6.8-2h1.45v2.83h2.5v-2.83h1.44v7.5h-1.44v-3.29h-2.5v3.29h-1.45v-7.5Zm14.66 0v7.5h-1.42v-4.7l-2.8 4.7h-1.25v-7.5h1.43v4.89l2.84-4.85 1.2-.04Zm8.22 0v7.5h-1.43v-3h-.36l-1.51 3h-1.56l1.7-3.25a1.86 1.86 0 0 1-1.47-2c-.012-.34.039-.679.15-1a1.823 1.823 0 0 1 1.11-1.11c.198-.073.402-.127.61-.16h1.24l1.52.02Zm-1.43 3.09v-1.7h-.39a3.332 3.332 0 0 0-.77.07.64.64 0 0 0-.38.27.899.899 0 0 0-.15.53.684.684 0 0 0 .3.64c.289.15.615.216.94.19h.45Z" fill="#1A75BC"/></svg>