<svg width="268" height="79" fill="none" xmlns="http://www.w3.org/2000/svg"><path d="M79.4 15.07h19.251v23.804h-4.958V19.168h-9.318v19.706H79.4V15.07Zm24.918 0h10.79a9.374 9.374 0 0 1 3.285.518c.88.31 1.675.826 2.319 1.504a6.307 6.307 0 0 1 1.373 2.399 10.59 10.59 0 0 1 .451 3.208 8.561 8.561 0 0 1-.533 3.072 6.823 6.823 0 0 1-1.54 2.414 7.106 7.106 0 0 1-2.464 1.58 9.062 9.062 0 0 1-3.295.576h-5.427v8.533h-4.959V15.07Zm4.959 11.162h4.7c1.118 0 2-.275 2.64-.828.639-.553.945-1.448.945-2.69a4.57 4.57 0 0 0-.249-1.602 2.721 2.721 0 0 0-1.843-1.726 5.158 5.158 0 0 0-1.509-.202h-4.684v7.048Zm24.177-11.162h5.67l8.395 23.804h-5.393l-1.518-4.908h-8.77l-1.648 4.908h-5.219l8.483-23.805Zm-.293 14.79h6.058l-2.955-9.427h-.066l-3.037 9.427Zm18.362-14.79h11.656c.86-.012 1.719.08 2.558.274.67.156 1.315.406 1.915.743a5.55 5.55 0 0 1 2.681 3.745c.088.437.133.882.135 1.328a7.57 7.57 0 0 1-.16 1.63c-.1.462-.273.905-.511 1.312a4.174 4.174 0 0 1-.904 1.068 6.524 6.524 0 0 1-1.332.866 5.929 5.929 0 0 1 1.921 1.12c.456.405.834.891 1.115 1.434.254.496.428 1.03.517 1.58.085.523.128 1.051.129 1.58a7.025 7.025 0 0 1-.63 3.063 6.065 6.065 0 0 1-1.776 2.212 8.013 8.013 0 0 1-2.785 1.369c-1.186.33-2.411.492-3.642.48h-10.887V15.07Zm4.766 9.38h6.121a5.21 5.21 0 0 0 1.245-.146 2.99 2.99 0 0 0 1.055-.477c.309-.222.562-.514.737-.853.192-.386.286-.814.274-1.245a2.781 2.781 0 0 0-.252-1.265 2.014 2.014 0 0 0-.684-.784 2.695 2.695 0 0 0-1.017-.4 6.402 6.402 0 0 0-1.229-.115h-6.25v5.285Zm0 10.322h6.184a5.617 5.617 0 0 0 1.519-.196 3.403 3.403 0 0 0 1.203-.591c.342-.265.613-.61.791-1.005.198-.45.295-.94.283-1.432a3.523 3.523 0 0 0-.346-1.662 2.53 2.53 0 0 0-.898-.948 3.315 3.315 0 0 0-1.26-.446 9.746 9.746 0 0 0-1.43-.104h-6.046v6.384Zm26.194-19.702h5.67l8.399 23.804h-5.397l-1.518-4.908h-8.767l-1.647 4.908h-5.236l8.496-23.805Zm-.29 14.79h6.058l-2.958-9.427h-.063l-3.037 9.427Zm16.053-14.79h19.446v4.108h-7.245v19.696h-4.965V19.168h-7.245l.009-4.099Zm21.913 11.908c-.014-1.68.226-3.351.712-4.959a11.168 11.168 0 0 1 2.132-3.963 9.88 9.88 0 0 1 3.569-2.633 12.254 12.254 0 0 1 5.006-.948 11.449 11.449 0 0 1 4.75.948 10.502 10.502 0 0 1 3.592 2.633 11.76 11.76 0 0 1 2.271 3.963 15.919 15.919 0 0 1 0 9.909 11.707 11.707 0 0 1-2.271 3.97 10.43 10.43 0 0 1-3.592 2.632 11.396 11.396 0 0 1-4.75.948 12.192 12.192 0 0 1-5.006-.948 9.81 9.81 0 0 1-3.569-2.633 11.132 11.132 0 0 1-2.132-3.976 16.681 16.681 0 0 1-.712-4.943Zm11.419 8.198a5.843 5.843 0 0 0 2.715-.632 5.956 5.956 0 0 0 2.026-1.71 7.834 7.834 0 0 0 1.26-2.591 12.505 12.505 0 0 0 0-6.561 7.876 7.876 0 0 0-1.26-2.595 5.989 5.989 0 0 0-2.038-1.694 6.313 6.313 0 0 0-5.428 0 5.976 5.976 0 0 0-2.029 1.71c-.573.78-1 1.66-1.26 2.595a12.342 12.342 0 0 0 0 6.56 7.96 7.96 0 0 0 1.26 2.592 5.935 5.935 0 0 0 2.029 1.71c.845.423 1.78.635 2.725.616Zm15.795-20.106h4.974v9.054h9.318V15.07h4.958v23.805h-4.958V28.242h-9.318v10.632h-4.974V15.07Z" fill="#004284"/><path d="M79.385 55.587h13.054v1.912H79.385v-1.912Zm28.137-.319a1.902 1.902 0 0 0-.68-1.284 2.223 2.223 0 0 0-1.402-.433 2.92 2.92 0 0 0-.829.133 1.936 1.936 0 0 0-.812.496c-.281.287-.496.63-.63 1.008a4.83 4.83 0 0 0-.246 1.691c0 .381.045.761.132 1.132.079.359.222.7.422 1.008.192.294.449.539.75.718a2.13 2.13 0 0 0 1.112.274 2.019 2.019 0 0 0 1.455-.55 2.55 2.55 0 0 0 .715-1.539h2.026a4.448 4.448 0 0 1-1.348 2.734 4.11 4.11 0 0 1-2.835.948 4.613 4.613 0 0 1-1.89-.363c-.527-.227-1-.564-1.387-.99a4.233 4.233 0 0 1-.853-1.497 5.792 5.792 0 0 1-.293-1.875 6.414 6.414 0 0 1 .283-1.93c.171-.58.459-1.119.848-1.58a3.95 3.95 0 0 1 1.402-1.047 4.708 4.708 0 0 1 1.965-.38 5.473 5.473 0 0 1 1.509.203c.453.128.88.335 1.26.613.373.272.684.621.911 1.024.245.454.389.955.422 1.47l-2.007.016Zm9.085-.591a2.98 2.98 0 0 1 .394-1.166c.211-.356.494-.665.832-.904a4.569 4.569 0 0 1 2.583-.654c.5-.002.998.057 1.483.176.438.104.856.28 1.235.522.338.214.624.5.838.837.212.346.321.745.315 1.15.019.453-.116.899-.381 1.265-.265.338-.634.58-1.049.69v.034a2.2 2.2 0 0 1 1.26.717c.348.406.53.929.51 1.464.016.461-.103.917-.343 1.311a2.671 2.671 0 0 1-.901.86 4.204 4.204 0 0 1-1.26.477c-.462.1-.933.152-1.405.152-1.291 0-2.323-.242-3.093-.727-.771-.485-1.252-1.288-1.443-2.412h2.013c.032.272.124.532.271.762.131.194.299.359.494.487.203.126.427.213.662.256.256.048.517.07.778.07a3.12 3.12 0 0 0 1.575-.345 1.184 1.184 0 0 0 .599-1.106 1.115 1.115 0 0 0-.397-.949 2.11 2.11 0 0 0-1.26-.316h-1.465v-1.58h1.483c.357.018.712-.057 1.031-.218a.88.88 0 0 0 .381-.828.928.928 0 0 0-.548-.913 3.403 3.403 0 0 0-1.412-.253 2.761 2.761 0 0 0-1.313.243 1.2 1.2 0 0 0-.558.888l-1.909.01Zm17.638 4.643c-.013.183.021.366.097.533a.42.42 0 0 0 .382.158h.211c.094-.002.188-.013.28-.034v1.397a5.155 5.155 0 0 1-.97.212c-.1.011-.199.017-.299.018a1.95 1.95 0 0 1-1.024-.246 1.256 1.256 0 0 1-.529-.87c-.415.4-.92.692-1.472.85a5.778 5.778 0 0 1-1.685.266c-.4.002-.797-.055-1.181-.167a3.147 3.147 0 0 1-.999-.496 2.393 2.393 0 0 1-.687-.832 2.596 2.596 0 0 1-.255-1.178c-.018-.48.091-.955.315-1.378.195-.343.474-.63.81-.835a3.709 3.709 0 0 1 1.131-.433c.416-.088.838-.155 1.26-.202a10.48 10.48 0 0 1 1.043-.152c.294-.023.586-.072.872-.148.223-.052.43-.161.599-.316a.904.904 0 0 0 .22-.664 1.026 1.026 0 0 0-.186-.632 1.237 1.237 0 0 0-.456-.38 1.948 1.948 0 0 0-.608-.176 5.078 5.078 0 0 0-.63-.045 2.515 2.515 0 0 0-1.393.354 1.376 1.376 0 0 0-.63 1.097h-2.013c.014-.518.16-1.025.426-1.47.236-.385.56-.71.945-.948.399-.242.839-.41 1.297-.496a7.663 7.663 0 0 1 1.481-.142c.445 0 .888.047 1.323.142.415.086.812.24 1.175.458.339.207.626.49.838.825.22.371.329.798.315 1.23l-.003 4.7Zm-2.01-2.548c-.34.213-.728.338-1.128.363a15.09 15.09 0 0 0-1.342.187 4.544 4.544 0 0 0-.63.148 1.99 1.99 0 0 0-.529.266 1.188 1.188 0 0 0-.362.442 1.502 1.502 0 0 0-.132.664.854.854 0 0 0 .195.569c.128.152.287.274.466.36.19.092.393.154.602.187a3.152 3.152 0 0 0 1.313-.035c.259-.06.506-.16.731-.3.227-.139.422-.323.573-.54.16-.238.241-.52.23-.807l.013-1.504Zm8.698 4.833c-1.471 0-2.606-.49-3.406-1.47-.8-.98-1.2-2.402-1.2-4.267 0-.423.022-.86.063-1.308.039-.44.103-.877.192-1.309.089-.418.209-.829.359-1.23.14-.379.328-.739.558-1.07a3.916 3.916 0 0 1 1.559-1.407 5.971 5.971 0 0 1 2.322-.525c.387 0 .699-.028.945-.05a3.19 3.19 0 0 0 .554-.098.584.584 0 0 0 .29-.168.663.663 0 0 0 .126-.284h1.89a3.88 3.88 0 0 1-.205 1.14 1.576 1.576 0 0 1-.529.728 2.415 2.415 0 0 1-.945.407 9.1 9.1 0 0 1-1.43.184 7.542 7.542 0 0 0-1.78.316c-.428.125-.83.329-1.184.6a2.577 2.577 0 0 0-.706.885 3.918 3.918 0 0 0-.334 1.116h.035a3.505 3.505 0 0 1 1.342-1.179 4.497 4.497 0 0 1 2.063-.433 3.96 3.96 0 0 1 1.622.316c.489.214.925.53 1.279.93.373.422.658.916.838 1.45.208.61.31 1.252.3 1.896.006.663-.1 1.321-.315 1.947a4.276 4.276 0 0 1-.898 1.524 4.157 4.157 0 0 1-1.446.998 4.935 4.935 0 0 1-1.959.36Zm0-1.58c.405.01.806-.088 1.162-.285.324-.182.602-.436.813-.743.215-.314.373-.664.466-1.033.101-.385.152-.781.151-1.18a4.24 4.24 0 0 0-.151-1.13 2.728 2.728 0 0 0-.466-.965 2.272 2.272 0 0 0-.813-.663 2.829 2.829 0 0 0-2.328 0 2.288 2.288 0 0 0-.81.663 2.732 2.732 0 0 0-.469.964c-.099.37-.149.75-.148 1.132 0 .397.05.794.148 1.179.094.37.253.72.469 1.033.214.305.494.557.819.737.355.192.754.288 1.157.278v.012Zm10.795 1.58a4.923 4.923 0 0 1-1.95-.364 4.156 4.156 0 0 1-1.446-.999 4.336 4.336 0 0 1-.901-1.523 5.91 5.91 0 0 1-.315-1.947 5.852 5.852 0 0 1 .315-1.928 4.336 4.336 0 0 1 .901-1.523 4.156 4.156 0 0 1 1.446-.999 5.412 5.412 0 0 1 3.9 0 4.138 4.138 0 0 1 1.446.999c.402.44.708.958.901 1.523a5.85 5.85 0 0 1 .315 1.928 5.91 5.91 0 0 1-.315 1.947 4.336 4.336 0 0 1-.901 1.523 4.138 4.138 0 0 1-1.446.999 4.935 4.935 0 0 1-1.95.364Zm0-1.58c.407.01.809-.089 1.166-.285a2.44 2.44 0 0 0 .809-.743 3.3 3.3 0 0 0 .47-1.033 4.726 4.726 0 0 0 0-2.346 3.166 3.166 0 0 0-.47-1.036 2.472 2.472 0 0 0-.809-.733 2.535 2.535 0 0 0-2.331 0c-.321.18-.598.431-.81.733a3.143 3.143 0 0 0-.469 1.036 4.703 4.703 0 0 0 0 2.346c.095.369.254.719.469 1.033.21.306.487.56.81.743.357.192.759.285 1.165.272v.012Zm13.88-6.315h-3.018v7.648h-2.023V53.71h-3.15v-1.505h8.191v1.505Zm5.736 7.895a4.935 4.935 0 0 1-1.95-.364 4.156 4.156 0 0 1-1.446-.999 4.336 4.336 0 0 1-.901-1.523 5.91 5.91 0 0 1-.315-1.947 5.852 5.852 0 0 1 .315-1.928 4.336 4.336 0 0 1 .901-1.523 4.156 4.156 0 0 1 1.446-.999 5.412 5.412 0 0 1 3.9 0 4.147 4.147 0 0 1 1.446.999c.402.44.708.958.901 1.523a5.85 5.85 0 0 1 .315 1.928 5.91 5.91 0 0 1-.315 1.947 4.336 4.336 0 0 1-.901 1.523 4.147 4.147 0 0 1-1.446.999 4.923 4.923 0 0 1-1.95.364Zm0-1.58c.407.01.809-.089 1.166-.285a2.44 2.44 0 0 0 .809-.743 3.3 3.3 0 0 0 .47-1.033 4.726 4.726 0 0 0 0-2.346 3.166 3.166 0 0 0-.47-1.036 2.482 2.482 0 0 0-.809-.733 2.535 2.535 0 0 0-2.332 0c-.32.18-.597.431-.809.733a3.143 3.143 0 0 0-.469 1.036 4.703 4.703 0 0 0 0 2.346c.095.369.254.719.469 1.033.21.306.487.56.809.743.358.192.76.285 1.166.272v.012Zm6.669-7.82h2.01v6.283h.034l4.007-6.283h2.486v9.166h-2.01V55.05h-.031l-4.096 6.32h-2.397l-.003-9.165Zm2.451-3.792a1.437 1.437 0 0 0 .661 1.043c.373.213.796.322 1.226.316.411.01.815-.108 1.156-.339a1.547 1.547 0 0 0 .63-1.008h1.002a2.643 2.643 0 0 1-.927 1.878 3.142 3.142 0 0 1-2 .632 2.827 2.827 0 0 1-1.94-.632 2.677 2.677 0 0 1-.832-1.859l1.024-.031Zm18.028 13.192a4.92 4.92 0 0 1-1.947-.364 4.128 4.128 0 0 1-1.449-.998 4.276 4.276 0 0 1-.898-1.524 5.831 5.831 0 0 1-.315-1.947 5.772 5.772 0 0 1 .315-1.928c.19-.565.496-1.084.898-1.523.406-.433.9-.774 1.449-.999a5.406 5.406 0 0 1 3.897 0c.547.226 1.04.566 1.446 1 .403.438.71.957.901 1.522.212.62.319 1.273.315 1.928a5.91 5.91 0 0 1-.315 1.947 4.28 4.28 0 0 1-.901 1.524 4.155 4.155 0 0 1-1.446.998 4.923 4.923 0 0 1-1.95.364Zm0-1.58c.407.01.809-.089 1.166-.285.323-.183.6-.437.812-.743a3.27 3.27 0 0 0 .467-1.033 4.635 4.635 0 0 0 0-2.345 3.163 3.163 0 0 0-.467-1.037 2.52 2.52 0 0 0-.812-.733 2.516 2.516 0 0 0-2.328 0c-.323.18-.601.43-.813.733a3.07 3.07 0 0 0-.466 1.037 4.613 4.613 0 0 0 0 2.345c.093.37.25.72.466 1.033.211.305.489.557.813.737.356.194.757.29 1.162.278v.013Zm11.574-.121a1.41 1.41 0 0 0 .872-.316c.291-.236.498-.56.592-.923.069-.218.124-.44.167-.664a10.88 10.88 0 0 0 .167-1.53c.013-.306.026-.66.035-1.061.009-.401.022-.86.028-1.372.007-.512 0-1.125 0-1.833h7.561v9.166h-1.997v-7.649h-3.51c0 .77-.008 1.445-.025 2.03-.019.58-.041 1.099-.072 1.548-.032.449-.067.84-.114 1.175-.04.303-.106.603-.195.895-.08.283-.186.558-.315.822a1.836 1.836 0 0 1-.545.654 2.781 2.781 0 0 1-.97.436 6.625 6.625 0 0 1-1.597.158h-.476a2.792 2.792 0 0 1-.391-.044v-1.52c.115.02.231.035.347.044l.438-.016Zm12.011 1.454v-9.166h2.013v3.648h1.818a5.173 5.173 0 0 1 .475-1.58 4.1 4.1 0 0 1 .908-1.23 3.89 3.89 0 0 1 1.32-.787 4.706 4.706 0 0 1 1.682-.285 4.596 4.596 0 0 1 1.89.364c.528.228 1 .569 1.383.999.387.444.682.962.866 1.523a5.99 5.99 0 0 1 .315 1.928 6.049 6.049 0 0 1-.315 1.947 4.416 4.416 0 0 1-.866 1.523c-.383.43-.855.77-1.383.999a4.595 4.595 0 0 1-1.89.363 4.757 4.757 0 0 1-1.764-.316 3.934 3.934 0 0 1-1.339-.869 4.102 4.102 0 0 1-.901-1.343 5.402 5.402 0 0 1-.406-1.726h-1.78v4.002l-2.026.006Zm8.213-1.346c.389.011.773-.087 1.108-.285.302-.187.558-.441.747-.743a3.33 3.33 0 0 0 .422-1.033 5.274 5.274 0 0 0 0-2.345 3.218 3.218 0 0 0-.422-1.037 2.358 2.358 0 0 0-.747-.733 2.294 2.294 0 0 0-2.205 0 2.303 2.303 0 0 0-.746.733 3.07 3.07 0 0 0-.422 1.037 5.245 5.245 0 0 0 0 2.345 3.2 3.2 0 0 0 .422 1.033c.187.303.443.558.746.743.332.196.712.295 1.097.285Zm7.399 4.124h-1.852v-4.282h1.147c.182-.05.351-.141.494-.266a1.73 1.73 0 0 0 .602-.923c.068-.218.124-.44.167-.664.041-.218.075-.448.104-.698.028-.25.05-.525.063-.831.012-.307.022-.66.034-1.062.013-.401.022-.86.029-1.372.006-.512 0-1.125 0-1.833h7.56v7.648h1.622v4.283h-1.852v-2.778h-8.118v2.778Zm6.351-10.43h-3.544c0 .77-.006 1.446-.019 2.03 0 .58-.031 1.1-.06 1.548-.028.449-.066.84-.113 1.176a5.67 5.67 0 0 1-.192.894 5.902 5.902 0 0 1-.158.496h4.095l-.009-6.144Zm12.651 7.652h-2.013v-3.559h-1.975l-2.152 3.559h-2.454l2.612-3.717a2.725 2.725 0 0 1-.98-.461 2.533 2.533 0 0 1-.589-.654 2.368 2.368 0 0 1-.293-.743 3.976 3.976 0 0 1-.079-.746c.004-.31.045-.62.123-.92a2.32 2.32 0 0 1 .479-.92 2.66 2.66 0 0 1 .976-.707 4.04 4.04 0 0 1 1.651-.285h4.694v9.153Zm-2.013-7.648h-2.593a1.4 1.4 0 0 0-.916.316 1.257 1.257 0 0 0-.388 1.027 1.103 1.103 0 0 0 .388.973c.271.182.591.274.916.266h2.593v-2.583Zm6.968 2.831-3.15-4.336h2.435l1.89 2.816 1.994-2.816h2.328l-3.103 4.232 3.494 4.92h-2.413l-2.309-3.38-2.24 3.38h-2.35l3.424-4.816Z" fill="#189DEF"/><path d="M44.913 62.606 26.711 73.47 8.841 62.68C3.72 59.59.54 53.672.54 47.243V9.481h52.645v37.825c0 6.385-3.188 12.257-8.272 15.3Z" fill="#6BB6F9"/><path d="M35.595 66.054c4.59-4.304 12.096-12.642 10.833-20.12-.44-2.623-1.84-4.029-2.447-4.298a5.732 5.732 0 0 0-2.373-.496c-.777.022-1.55.128-2.305.316-.48.122-.97.195-1.465.218a1.703 1.703 0 0 1-1.196-.386 1.715 1.715 0 0 1-.61-1.102 3.111 3.111 0 0 1 .552-2.51c1.137-1.52 3.701-2.367 8.575-2.844 6.023-.582 9.318-1.53 11.756-5.35 1.169-1.834.93-4.242.718-6.363-.223-2.266-.479-4.836 2-5.12.105-.013.21-.02.316-.019a2.677 2.677 0 0 1 2.205 1.21c2.649 3.581 1.704 15.297-.785 23.571-1.855 6.154-6.587 12.206-14.065 17.993A70.729 70.729 0 0 1 36.66 67.59l-5.756 2.845 4.69-4.38Z" fill="url(#a)"/><path d="M59.94 18.925c3.855 0 3.58 13.426.525 23.562C56.131 56.86 36.241 66.74 36.241 66.74c16.803-15.764 10.5-24.923 8.12-25.979a6.722 6.722 0 0 0-2.752-.575c-1.626 0-2.952.528-3.78.528a.773.773 0 0 1-.876-.718c-.52-2.753 3.273-3.742 8.288-4.225 5.985-.576 9.765-1.555 12.458-5.784 2.694-4.229-1.067-10.692 2.032-11.062h.199m0-1.896c-.138 0-.276.009-.413.025-1.56.18-2.614 1.217-2.895 2.845-.167.976-.057 2.108.063 3.309.195 1.969.416 4.2-.576 5.755-2.227 3.476-5.337 4.368-11.048 4.918-5.166.496-7.929 1.457-9.242 3.21a4.027 4.027 0 0 0-.725 3.253c.097.65.43 1.24.934 1.658a2.644 2.644 0 0 0 1.8.605 8.06 8.06 0 0 0 1.66-.24c.692-.17 1.4-.267 2.111-.288a4.831 4.831 0 0 1 1.988.414c.387.183 1.56 1.397 1.918 3.691 1.096 7.026-6.149 15.026-10.565 19.169l-9.375 8.805 11.517-5.717a71.77 71.77 0 0 0 10.802-6.953c7.636-5.907 12.477-12.12 14.39-18.47a59.431 59.431 0 0 0 2.365-13.907c.158-3.501-.019-8.166-1.739-10.492a3.673 3.673 0 0 0-2.96-1.58l-.01-.01Z" fill="#fff"/><path d="M51.128 33.757c-.426 0-.85-.06-1.26-.18a4.666 4.666 0 0 1-2.747-2.273 4.691 4.691 0 0 1-.346-3.555 4.74 4.74 0 0 1 1.68-2.449 4.716 4.716 0 0 1 2.802-.964c.427 0 .851.06 1.26.18a4.663 4.663 0 0 1 2.741 2.274 4.689 4.689 0 0 1 .343 3.55 4.741 4.741 0 0 1-1.675 2.45 4.716 4.716 0 0 1-2.798.967Z" fill="url(#b)"/><path d="M51.257 25.284c.338 0 .675.047.999.142.94.292 1.725.945 2.185 1.818.46.872.555 1.892.266 2.834a3.767 3.767 0 0 1-1.33 1.966 3.747 3.747 0 0 1-2.236.778c-.337 0-.672-.047-.996-.142a3.714 3.714 0 0 1-2.185-1.818 3.734 3.734 0 0 1-.266-2.835 3.765 3.765 0 0 1 1.328-1.965 3.744 3.744 0 0 1 2.235-.778Zm0-1.896a5.658 5.658 0 0 0-3.367 1.161 5.689 5.689 0 0 0-2.013 2.947 5.642 5.642 0 0 0 .425 4.277 5.611 5.611 0 0 0 3.311 2.727 5.433 5.433 0 0 0 1.525.218 5.658 5.658 0 0 0 3.367-1.162 5.689 5.689 0 0 0 2.013-2.946 5.642 5.642 0 0 0-.425-4.277 5.611 5.611 0 0 0-3.311-2.727 5.438 5.438 0 0 0-1.525-.218Z" fill="#fff"/><path d="M.54 47.243c.003 1.145.108 2.288.315 3.413 5.393-12.5 18.948-31.247 52.33-36.56V9.48H.54v37.762Z" fill="#4CABF2"/><path d="M53.185 11.457V9.482S34.285 10.992 26.863 0C19.646 10.844.54 9.482.54 9.482v18.037c8.597-7.7 24.231-14.877 52.645-16.062Z" fill="#189DEF"/><path d="M20.613 77.894a2.756 2.756 0 0 1-1.323-.351c-3.497-1.897-1.821-5.86-.712-8.477.601-1.419 1.351-3.186.794-3.432a.567.567 0 0 0-.243-.044c-1.241 0-3.591 2.07-5.478 3.732-2.482 2.187-4.624 4.074-6.53 4.074a2.535 2.535 0 0 1-1.771-.714 2.551 2.551 0 0 1-.775-1.751c-.047-1.896 1.94-3.98 4.244-6.39 2.079-2.181 4.438-4.656 4.706-6.53.23-1.618-1.988-2.63-5.147-3.884-2.77-1.1-5.633-2.235-5.542-4.656.029-.72.372-2.399 2.946-2.399 1.53 0 3.613.56 6.023 1.21 2.501.674 5.324 1.436 7.844 1.622 3.427-1.362 5.966-4.055 7.831-6.03 1.632-1.729 2.813-2.98 4.155-2.98a2.116 2.116 0 0 1 1.575.723c1.767 1.897.047 4.488-1.619 6.998-1.08 1.63-2.31 3.476-2.618 5.094-.12.604-.27 1.58-.463 2.813-.532 3.392-1.336 8.512-2.47 12.838-1.546 5.9-3.222 8.534-5.427 8.534Z" fill="#6BB6F9"/><path d="M31.635 42a1.042 1.042 0 0 1 .775.373c2.054 2.213-3.695 6.868-4.517 11.125-.775 4.023-3.009 23.303-7.28 23.303a1.66 1.66 0 0 1-.797-.219c-4.792-2.61 3.424-10.43 0-11.946a1.678 1.678 0 0 0-.69-.161c-3.254 0-8.978 7.806-12.008 7.806a1.39 1.39 0 0 1-.993-.389c-2.734-2.6 7.806-8.919 8.49-13.738.683-4.82-10.815-5.057-10.676-8.638.038-.977.725-1.337 1.843-1.337 2.974 0 9 2.528 14.034 2.844 6.457-2.433 9.727-9.026 11.82-9.026m0-2.212c-1.819 0-3.201 1.47-4.956 3.328-1.846 1.956-4.124 4.367-7.204 5.666-2.354-.211-5.015-.929-7.384-1.58-2.486-.67-4.631-1.248-6.3-1.248-2.886 0-3.982 1.789-4.049 3.476-.122 3.202 3.258 4.542 6.238 5.727 1.603.632 4.586 1.82 4.46 2.696-.217 1.527-2.64 4.068-4.41 5.923-2.48 2.598-4.615 4.832-4.558 7.184a3.568 3.568 0 0 0 1.137 2.547 3.566 3.566 0 0 0 2.52.999c2.319 0 4.609-2.017 7.245-4.349 1.046-.923 2.13-1.877 3.084-2.56.278-.2.514-.354.715-.474a23.477 23.477 0 0 1-.63 1.514c-.608 1.428-1.294 3.046-1.458 4.636-.24 2.317.706 4.178 2.659 5.243.57.325 1.213.496 1.868.5 4.615 0 6.719-7.838 8.987-22.304.192-1.223.343-2.19.457-2.778.27-1.397 1.43-3.145 2.454-4.69.835-1.264 1.622-2.443 2.091-3.613.961-2.383.215-3.9-.582-4.74a3.207 3.207 0 0 0-2.385-1.075v-.028Z" fill="#fff"/><path d="M18.9 49.373a4.531 4.531 0 0 0 4.523-4.538 4.531 4.531 0 0 0-4.524-4.539 4.531 4.531 0 0 0-4.524 4.539 4.531 4.531 0 0 0 4.524 4.538Z" fill="#6BB6F9"/><path d="M18.9 41.403c.676 0 1.338.2 1.9.577a3.443 3.443 0 0 1 .52 5.282 3.417 3.417 0 0 1-3.728.743 3.42 3.42 0 0 1-1.536-1.265 3.441 3.441 0 0 1 .427-4.332 3.415 3.415 0 0 1 2.416-1.005Zm0-2.213a5.616 5.616 0 0 0-3.127.952 5.641 5.641 0 0 0-2.072 2.534 5.662 5.662 0 0 0 1.22 6.152 5.61 5.61 0 0 0 6.132 1.222 5.63 5.63 0 0 0 2.526-2.081 5.658 5.658 0 0 0-.704-7.126A5.62 5.62 0 0 0 18.9 39.19Z" fill="#fff"/><defs><linearGradient id="a" x1="35.867" y1="65.225" x2="67.282" y2="9.134" gradientUnits="userSpaceOnUse"><stop stop-color="#5DA5F9"/><stop offset=".16" stop-color="#468DDC"/><stop offset=".45" stop-color="#2064AD"/><stop offset=".68" stop-color="#094B8F"/><stop offset=".8" stop-color="#004284"/></linearGradient><linearGradient id="b" x1="30.189" y1="68.401" x2="67.371" y2="2.01" gradientUnits="userSpaceOnUse"><stop stop-color="#5DA5F9"/><stop offset=".16" stop-color="#468DDC"/><stop offset=".45" stop-color="#2064AD"/><stop offset=".68" stop-color="#094B8F"/><stop offset=".8" stop-color="#004284"/></linearGradient></defs></svg>