<svg width="152" height="208" fill="none" xmlns="http://www.w3.org/2000/svg"><path d="M54.61 142.127c-1.921-8.245-2.3-15.968-1.138-23.169 1.162-7.2 5.384-14.22 12.665-21.06 2.176-2.104 4.892-4.548 8.148-7.331a77.421 77.421 0 0 0 9.24-9.477 40.745 40.745 0 0 0 6.762-11.557 22.416 22.416 0 0 0 .75-13.361 21.21 21.21 0 0 0-4.192-8.901 22.02 22.02 0 0 0-6.892-5.583 22.68 22.68 0 0 0-8.701-2.369 30.69 30.69 0 0 0-9.29.703 26.754 26.754 0 0 0-9.634 4.222 35.394 35.394 0 0 0-7.087 6.71 41.301 41.301 0 0 0-5.04 8.101 73.993 73.993 0 0 0-3.304 8.089l-3.804.886-21.707-10.917a50.363 50.363 0 0 1 5.473-15.945 54.905 54.905 0 0 1 9.986-13.112 59.514 59.514 0 0 1 13.581-9.782 66.549 66.549 0 0 1 16.171-6.033 68.02 68.02 0 0 1 19.593-1.636 49.435 49.435 0 0 1 18.856 4.931 47.096 47.096 0 0 1 15.745 12.708c4.584 5.59 7.896 12.764 9.936 21.522a50.157 50.157 0 0 1 1.434 14.71 40.869 40.869 0 0 1-2.818 12.513 48.614 48.614 0 0 1-6.215 11.032 98.016 98.016 0 0 1-9.04 10.36 307.992 307.992 0 0 1-8.747 8.166 62.47 62.47 0 0 0-7.78 8.333 30.958 30.958 0 0 0-4.998 9.423c-1.08 3.359-1.129 7.143-.148 11.352l-27.805 6.472Zm14.225 58.73-8.12-34.854 28.036-6.532 8.12 34.855-28.036 6.531Z" fill="#7A6BDE"/><path d="M54.61 142.127c-1.921-8.245-2.3-15.968-1.138-23.169 1.162-7.2 5.384-14.22 12.665-21.06 2.176-2.104 4.892-4.548 8.148-7.331a77.421 77.421 0 0 0 9.24-9.477 40.745 40.745 0 0 0 6.762-11.557 22.416 22.416 0 0 0 .75-13.361 21.21 21.21 0 0 0-4.192-8.901 22.02 22.02 0 0 0-6.892-5.583 22.68 22.68 0 0 0-8.701-2.369 30.69 30.69 0 0 0-9.29.703 26.754 26.754 0 0 0-9.634 4.222 35.394 35.394 0 0 0-7.087 6.71 41.301 41.301 0 0 0-5.04 8.101 73.993 73.993 0 0 0-3.304 8.089l-3.804.886-21.707-10.917a50.363 50.363 0 0 1 5.473-15.945 54.905 54.905 0 0 1 9.986-13.112 59.514 59.514 0 0 1 13.581-9.782 66.549 66.549 0 0 1 16.171-6.033 68.02 68.02 0 0 1 19.593-1.636 49.435 49.435 0 0 1 18.856 4.931 47.096 47.096 0 0 1 15.745 12.708c4.584 5.59 7.896 12.764 9.936 21.522a50.157 50.157 0 0 1 1.434 14.71 40.869 40.869 0 0 1-2.818 12.513 48.614 48.614 0 0 1-6.215 11.032 98.016 98.016 0 0 1-9.04 10.36 307.992 307.992 0 0 1-8.747 8.166 62.47 62.47 0 0 0-7.78 8.333 30.958 30.958 0 0 0-4.998 9.423c-1.08 3.359-1.129 7.143-.148 11.352l-27.805 6.472Zm14.225 58.73-8.12-34.854 28.036-6.532 8.12 34.855-28.036 6.531Z" fill="#000" opacity=".2"/><path d="M50.827 143.009c-1.921-8.246-2.3-15.969-1.138-23.169 1.163-7.201 5.386-14.221 12.67-21.062 2.173-2.103 4.887-4.547 8.144-7.33a77.186 77.186 0 0 0 9.245-9.478 40.842 40.842 0 0 0 6.762-11.557c1.6-4.274 1.86-8.934.745-13.36a21.21 21.21 0 0 0-4.197-8.873 22.02 22.02 0 0 0-6.892-5.583 22.68 22.68 0 0 0-8.701-2.368 30.69 30.69 0 0 0-9.29.703 26.711 26.711 0 0 0-9.645 4.197 35.451 35.451 0 0 0-7.092 6.71 41.269 41.269 0 0 0-5.035 8.101 74.088 74.088 0 0 0-3.31 8.09L7.588 57.998a50.272 50.272 0 0 1 5.473-15.946 54.77 54.77 0 0 1 9.986-13.111 59.544 59.544 0 0 1 13.576-9.78 66.51 66.51 0 0 1 16.187-6.038 67.986 67.986 0 0 1 19.592-1.635c6.55.375 12.96 2.05 18.856 4.93a47.037 47.037 0 0 1 15.745 12.709c4.584 5.59 7.898 12.763 9.942 21.52a50.163 50.163 0 0 1 1.428 14.712 40.749 40.749 0 0 1-2.833 12.516 48.652 48.652 0 0 1-6.215 11.032 97.063 97.063 0 0 1-9.041 10.36 292.907 292.907 0 0 1-8.747 8.166 62.476 62.476 0 0 0-7.779 8.333 30.943 30.943 0 0 0-4.993 9.422c-1.08 3.359-1.13 7.144-.153 11.353l-27.785 6.468Zm14.225 58.729-8.12-34.854 28.006-6.524 8.12 34.854-28.006 6.524Z" fill="#7A6BDE"/></svg>