<svg width="469" height="300" fill="none" xmlns="http://www.w3.org/2000/svg"><path d="M186.806 73.425A26.368 26.368 0 0 1 153.52 33.84a26.37 26.37 0 0 1 43.683 3.777 26.367 26.367 0 0 1-10.397 35.808Z" fill="#fff"/><path d="m186.806 73.425.355-.241 1.058-.67.784-.49c.275-.193.563-.435.885-.67l1.025-.796a13.24 13.24 0 0 0 1.092-.999 24.877 24.877 0 0 0 4.689-5.928 26.125 26.125 0 0 0 3.35-9.453c.06-.456.127-.925.194-1.4.067-.476.04-.958.067-1.44.027-.483.067-.986.034-1.481a86.761 86.761 0 0 1-.087-1.508c0-.254-.034-.509-.047-.763l-.121-.77c-.074-.51-.154-1.026-.234-1.548-.081-.523-.262-1.032-.389-1.555a13.01 13.01 0 0 0-.449-1.56 24.315 24.315 0 0 0-1.259-3.096c-.255-.502-.483-1.025-.764-1.527l-.918-1.474c-.161-.248-.295-.502-.469-.744l-.543-.67c-.368-.469-.71-.95-1.098-1.406a28.395 28.395 0 0 0-2.626-2.6 27.726 27.726 0 0 0-2.961-2.264c-.53-.342-1.092-.637-1.642-.965-.281-.147-.542-.328-.837-.462l-.878-.395a23.857 23.857 0 0 0-7.543-2.171l-.999-.14-1.004-.048-1.019-.046a6.479 6.479 0 0 0-1.018 0l-2.043.107-2.01.315a25.988 25.988 0 0 0-14.491 7.945l-1.34 1.554-1.192 1.675-.295.416-.255.442-.502.877-.502.878-.416.918a29.843 29.843 0 0 0-1.427 3.711 29.654 29.654 0 0 0-.777 3.826l-.134.95c-.047.322-.04.67-.06.959 0 .67-.074 1.273-.067 1.896.024 1.247.134 2.492.328 3.725a28.14 28.14 0 0 0 .784 3.55c.181.576.409 1.126.603 1.688l.301.831c.107.275.248.53.375.79l.757 1.568c.268.503.59.979.878 1.46.583.953 1.23 1.864 1.936 2.728.337.424.697.829 1.079 1.212.375.389.723.797 1.105 1.159l1.186 1.032.583.509.623.449 1.226.877c.402.302.851.51 1.266.764.415.255.837.496 1.26.717l1.286.59a26.296 26.296 0 0 0 9.747 2.29 25.028 25.028 0 0 0 7.53-.817c.483-.104.959-.234 1.427-.388l1.226-.442c.376-.134.731-.248 1.046-.382l.83-.395 1.139-.537.389-.167s-.121.074-.375.201l-1.119.563-.831.415c-.315.134-.67.255-1.045.402l-1.219.456c-.469.16-.945.297-1.427.408a25.154 25.154 0 0 1-7.571.858 26.309 26.309 0 0 1-9.834-2.231l-1.307-.59c-.422-.22-.837-.475-1.266-.716-.429-.242-.877-.47-1.286-.77l-1.24-.885-.629-.449-.59-.516-1.199-1.038c-.395-.362-.744-.777-1.125-1.166-.39-.385-.755-.794-1.092-1.226a23.31 23.31 0 0 1-1.963-2.747c-.295-.489-.623-.964-.898-1.48l-.771-1.581c-.12-.262-.267-.523-.375-.797l-.315-.845c-.194-.562-.428-1.118-.602-1.701a28.88 28.88 0 0 1-1.146-7.37c0-.636.047-1.28.067-1.922 0-.322 0-.67.054-.972l.133-.964c.18-1.307.444-2.6.791-3.873a30.683 30.683 0 0 1 1.44-3.765l.416-.924.509-.891.516-.891.254-.45.295-.421 1.206-1.695 1.38-1.574a26.27 26.27 0 0 1 14.672-8.04l2.07-.314 2.077-.114a7.548 7.548 0 0 1 1.031 0l1.025.047 1.025.046 1.012.141a29.62 29.62 0 0 1 3.946.797 31.29 31.29 0 0 1 3.691 1.414l.884.402c.295.134.57.315.851.469.556.328 1.126.63 1.662.978a28.501 28.501 0 0 1 5.6 4.904c.396.462.744.958 1.112 1.427l.543.71c.181.241.322.502.476.75l.924 1.494c.288.503.516 1.039.771 1.548a24.976 24.976 0 0 1 1.266 3.128c.181.518.333 1.046.455 1.581.121.53.282 1.045.376 1.575.093.529.16 1.052.241 1.567.04.262.08.516.114.77l.047.778.08 1.52c.033.503 0 1.006-.04 1.495-.04.489-.034.978-.074 1.46l-.201 1.414a26.221 26.221 0 0 1-3.35 9.5 25.024 25.024 0 0 1-4.796 5.928c-.354.35-.725.68-1.112.992l-1.039.784c-.328.24-.616.475-.898.67l-.79.475-1.079.67-.435.181Z" fill="#E0E0E0"/><path d="M175.973 48.979a6.48 6.48 0 0 0 1.308-3.47 6.479 6.479 0 0 0-.812-3.618c-1.715-3.142-5.487-4.388-8.435-2.787-2.947 1.601-3.946 5.453-2.237 8.589a6.454 6.454 0 0 0 6.304 3.436c-7.51 5.742-2.245 14.437-2.245 14.437l19.429-10.565s-4.516-9.258-13.312-6.022Z" fill="#E0E0E0"/><path d="M25.934 33.276a10.92 10.92 0 0 1-3.859-14.953 10.927 10.927 0 0 1 14.953-3.859 10.92 10.92 0 0 1 1.015 18.13 10.913 10.913 0 0 1-12.11.682Z" fill="#fff"/><path d="M25.934 33.276c.803.391 1.634.722 2.485.991 1.005.293 2.049.433 3.096.415a10.947 10.947 0 0 0 4.02-.824 10.665 10.665 0 0 0 4.019-2.9 10.786 10.786 0 0 0 2.465-5.112 10.05 10.05 0 0 0 .114-3.082 11.817 11.817 0 0 0-.268-1.58 13.162 13.162 0 0 0-.543-1.542 10.72 10.72 0 0 0-10.94-6.458c-.54.058-1.078.15-1.608.275-.515.142-1.02.316-1.514.523-.958.394-1.85.931-2.646 1.594a10.807 10.807 0 0 0-2.64 13.486 10.308 10.308 0 0 0 1.877 2.512c.646.62 1.34 1.19 2.076 1.702l-.154-.094-.442-.268a5.699 5.699 0 0 1-.67-.49 8.11 8.11 0 0 1-.87-.756 10.225 10.225 0 0 1-1.95-2.506 11.034 11.034 0 0 1-.744-9.05 11.087 11.087 0 0 1 3.35-4.777 10.718 10.718 0 0 1 2.72-1.655c.508-.213 1.03-.394 1.56-.543a12.277 12.277 0 0 1 1.662-.281 11.007 11.007 0 0 1 11.289 6.66c.218.521.397 1.059.536 1.607.129.534.223 1.075.28 1.621a10.491 10.491 0 0 1-.133 3.182 11.008 11.008 0 0 1-10.846 8.95 10.473 10.473 0 0 1-3.136-.475A8.551 8.551 0 0 1 27.294 34a5.47 5.47 0 0 1-.764-.368l-.449-.262-.147-.093Z" fill="#E0E0E0"/><path d="M32.352 24.252a2.679 2.679 0 0 0 2.64-1.34 2.52 2.52 0 0 0-1.764-3.888 2.52 2.52 0 0 0-2.558 1.308 2.68 2.68 0 0 0 .108 2.975c-3.631-1.447-5.588 2.264-5.588 2.264l7.859 4.69s2.318-3.558-.697-6.01Z" fill="#E0E0E0"/><path d="M465.236 37.106c1.531-6.96-2.869-13.843-9.829-15.374-6.959-1.532-13.843 2.869-15.374 9.828-1.532 6.96 2.869 13.843 9.829 15.375 6.959 1.531 13.842-2.87 15.374-9.829Z" fill="#fff"/><path d="M465.54 34.334a.902.902 0 0 1 0-.207c0-.155 0-.355-.047-.61a6.314 6.314 0 0 0-.154-1.005 8.614 8.614 0 0 0-.275-1.34 12.144 12.144 0 0 0-1.434-3.35 12.774 12.774 0 0 0-15.335-5.426 12.065 12.065 0 0 0-3.222 1.735 11.725 11.725 0 0 0-2.68 2.68 12.7 12.7 0 0 0 0 15.053c.385.517.801 1.01 1.246 1.474.451.441.93.853 1.434 1.233.98.739 2.066 1.324 3.222 1.735a12.79 12.79 0 0 0 15.335-5.433 12.22 12.22 0 0 0 1.441-3.403 8.5 8.5 0 0 0 .274-1.34c.066-.325.107-.654.121-.985 0-.255 0-.456.047-.61a1.097 1.097 0 0 1 0-.214c.007.071.007.143 0 .214v.61a5.76 5.76 0 0 1-.081.998c-.049.452-.132.9-.248 1.34a12.006 12.006 0 0 1-1.406 3.47 12.992 12.992 0 0 1-8.75 6.184 13.07 13.07 0 0 1-6.84-.556 12.389 12.389 0 0 1-3.316-1.769c-1.066-.769-2-1.706-2.767-2.773a13.004 13.004 0 0 1 0-15.456c.393-.534.823-1.04 1.286-1.514.465-.453.96-.873 1.481-1.26a12.194 12.194 0 0 1 3.316-1.768 12.95 12.95 0 0 1 12.334 1.916 12.926 12.926 0 0 1 3.276 3.711 12.121 12.121 0 0 1 1.407 3.504c.115.44.198.888.247 1.34.056.33.083.664.081.998v.617c.01.068.012.138.007.207Z" fill="#E0E0E0"/><path d="M447.069 33.644c.055-.706.324-1.38.771-1.93a3.29 3.29 0 0 1 1.661-1.172 2.68 2.68 0 0 1 3.035 1.193c.174-.355.426-.667.737-.912a2.674 2.674 0 0 1 2.07-.542c.685.12 1.315.455 1.796.958a3.446 3.446 0 0 1 1.004 1.815 4.26 4.26 0 0 1-.361 2.62 6 6 0 0 1-1.93 2.01c-1.286.89-2.981 2.01-2.981 2.01s-1.561-1.019-2.948-1.742a6.027 6.027 0 0 1-2.17-1.79 4.23 4.23 0 0 1-.684-2.518Zm8.79 192.479c-17.988-6.344-33.671 1.28-33.671 1.28 13.472 8.897 33.671-1.28 33.671-1.28Zm-48.624-14.57c-1.521 11.61 5.219 20.654 5.219 20.654 3.671-9.031-5.219-20.654-5.219-20.654Zm7.637 24.928c12.381 6.659 25.391 3.021 25.391 3.021-8.582-7.959-25.391-3.021-25.391-3.021Zm14.169-17.968c-.194-.174-7.215 7.182-15.69 16.427-8.474 9.245-15.18 16.889-15.006 17.063.174.175 7.215-7.175 15.69-16.426 8.474-9.252 15.201-16.89 15.006-17.064Z" fill="#E0E0E0"/><path d="M452.61 197.665s-21.278 4.515-26.369 23.273c.027 0 18.236-3.604 26.369-23.273Zm-27.247-3.115s-12.34 13.988-6.25 29.477a33.577 33.577 0 0 0 6.25-29.477ZM49.978 175.289c-4.449 20.48 6.03 36.538 6.03 36.538 7.777-15.904-6.03-36.538-6.03-36.538ZM40.7 230.297c12.862.074 21.8-8.522 21.8-8.522-10.351-2.766-21.8 8.522-21.8 8.522Zm26.127-11.737c5.567-14.41-.18-28.097-.18-28.097-7.504 10.444.18 28.097.18 28.097Zm-21.539-12.99c-.167.234 8.81 6.887 20.052 14.852 11.241 7.966 20.493 14.243 20.66 14.009.168-.235-8.816-6.881-20.057-14.853-11.242-7.972-20.48-14.223-20.655-14.008Z" fill="#E0E0E0"/><path d="M19.335 182.705s7.838 22.576 28.988 25.558c0 0-6.424-19.361-28.988-25.558Zm.349 30.154s16.929 11.536 33.007 2.78c0 0-14.31-10.042-33.007-2.78Zm439.612-143.34-36.11 9.024 9.694 8.984-25.116 13.935 42.822-8.576-10.002-9.265 18.712-14.102ZM293.105 14.343l-7.497 19.254 7.182-1.514-1.749 15.85 9.855-22.147-7.403 1.554-.388-12.997ZM443.03 172.984l-20.179-4.462 2.593 6.861-15.931.696 23.394 6.358-2.666-7.081 12.789-2.372Z" fill="#E0E0E0"/><path d="M447.82 289.707c0 .101-96.243.175-214.936.175-118.692 0-214.962-.074-214.962-.175 0-.1 96.223-.174 214.962-.174 118.74 0 214.936.081 214.936.174Z" fill="#263238"/><path d="M444.859 257.745a25.89 25.89 0 0 1-10.053 26.949 25.886 25.886 0 1 1-21.093-46.19 25.892 25.892 0 0 1 31.146 19.241Z" fill="#7A6BDE"/><path d="M413.713 238.504a25.89 25.89 0 0 0-19.24 31.166s17.887-3.39 20.466-11.53c2.58-8.14-1.226-19.636-1.226-19.636Z" fill="#fff" opacity=".1"/><path d="M438.32 258.864a19.672 19.672 0 0 1-7.664 20.47 19.675 19.675 0 0 1-25.886-29.385 19.678 19.678 0 0 1 24.749-3.318 19.66 19.66 0 0 1 8.801 12.233Z" fill="#7A6BDE"/><path d="M438.32 258.864a19.672 19.672 0 0 1-7.664 20.47 19.675 19.675 0 0 1-25.886-29.385 19.678 19.678 0 0 1 24.749-3.318 19.66 19.66 0 0 1 8.801 12.233Z" fill="#000" opacity=".2"/><path d="M439.05 259.534a19.421 19.421 0 0 1-7.53 20.239 19.42 19.42 0 0 1-21.581.778 19.425 19.425 0 0 1-8.968-19.645 19.424 19.424 0 0 1 14.725-15.796 19.431 19.431 0 0 1 23.354 14.424Z" fill="#7A6BDE"/><path d="M439.05 259.534a19.421 19.421 0 0 1-7.53 20.239 19.42 19.42 0 0 1-21.581.778 19.425 19.425 0 0 1-8.968-19.645 19.424 19.424 0 0 1 14.725-15.796 19.431 19.431 0 0 1 23.354 14.424Z" fill="#fff" opacity=".2"/><path d="m420.526 262.186-1.145-4.837c.908-.1 1.825-.078 2.726.067.473.117.935.274 1.381.469v-.16l.335-1.916.08-.443-1.079-.703-.368.288a9.222 9.222 0 0 0-3.738-.181l-.63-2.68-.985-.475.154.67-1.132.268.67 2.679c-3.651 1.24-4.917 3.792-4.341 6.238.79 3.349 3.838 3.517 6.652 3.53l1.132 4.79a9.429 9.429 0 0 1-5.218-.67l-.51 2.68c1.501.784 3.96 1.012 6.338.603l.476 2.01-.932.241 1.086.409 1.963-.463-.67-2.679c3.671-1.273 4.971-3.806 4.395-6.251-.737-3.316-3.833-3.47-6.64-3.484Zm-2.083-.04c-1.487-.08-2.64-.362-2.914-1.514-.248-1.052.268-2.083 1.902-2.747l1.012 4.261Zm3.765 7.175-.998-4.241c1.534.067 2.679.369 2.994 1.548.268 1.032-.308 2.017-1.996 2.693Z" fill="#7A6BDE"/><path d="m420.526 262.186-1.145-4.837c.908-.1 1.825-.078 2.726.067.473.117.935.274 1.381.469v-.16l.335-1.916.08-.443-1.079-.703-.368.288a9.222 9.222 0 0 0-3.738-.181l-.63-2.68-.985-.475.154.67-1.132.268.67 2.679c-3.651 1.24-4.917 3.792-4.341 6.238.79 3.349 3.838 3.517 6.652 3.53l1.132 4.79a9.429 9.429 0 0 1-5.218-.67l-.51 2.68c1.501.784 3.96 1.012 6.338.603l.476 2.01-.932.241 1.086.409 1.963-.463-.67-2.679c3.671-1.273 4.971-3.806 4.395-6.251-.737-3.316-3.833-3.47-6.64-3.484Zm-2.083-.04c-1.487-.08-2.64-.362-2.914-1.514-.248-1.052.268-2.083 1.902-2.747l1.012 4.261Zm3.765 7.175-.998-4.241c1.534.067 2.679.369 2.994 1.548.268 1.032-.308 2.017-1.996 2.693Z" fill="#000" opacity=".3"/><path d="m421.86 271.465.636 2.68-1.963.462-.63-2.68c-2.385.415-4.836.181-6.337-.603l.502-2.68a9.434 9.434 0 0 0 5.219.67l-1.132-4.79c-2.807 0-5.862-.207-6.653-3.537-.576-2.445.67-4.991 4.348-6.237l-.67-2.68 1.963-.462.63 2.68a10.625 10.625 0 0 1 5.212.308l-.415 2.68a10.227 10.227 0 0 0-4.187-.376l1.145 4.837c2.814 0 5.909.175 6.7 3.504.603 2.419-.697 4.951-4.368 6.224Zm-4.388-9.788-1.005-4.261c-1.642.67-2.157 1.695-1.903 2.754.255 1.058 1.427 1.46 2.908 1.507Zm5.761 4.482c-.275-1.172-1.46-1.474-2.995-1.541l1.005 4.241c1.689-.677 2.238-1.668 1.99-2.7Z" fill="#7A6BDE"/><path d="m424.318 283.162.154-.054.449-.14.731-.221a7.52 7.52 0 0 0 .978-.335l1.206-.496c.232-.09.456-.2.669-.328l.711-.375c.257-.126.507-.265.75-.416l.764-.509c.261-.181.542-.342.804-.549l.79-.67a20.896 20.896 0 0 0 3.162-3.283l.67-1.032c.121-.174.248-.348.362-.529l.315-.569c.207-.382.442-.764.63-1.166l.549-1.253.141-.321c.04-.108.073-.221.107-.329l.221-.67.221-.67c.08-.227.107-.469.167-.669.101-.469.221-.945.302-1.427l.181-1.481a19.43 19.43 0 0 0-2.807-11.891 94.892 94.892 0 0 1-.824-1.24c-.268-.408-.61-.763-.911-1.145-.161-.181-.295-.382-.469-.55a11.293 11.293 0 0 1-.496-.509l-.496-.496-.248-.247-.268-.222-.991-.891c-.355-.274-.737-.509-1.092-.763l-.536-.369-.563-.315-1.092-.603a20.85 20.85 0 0 0-4.294-1.52l-.998-.221c-.329-.067-.67-.088-.965-.128l-.905-.114c-.294-.04-.582 0-.864-.04h-.804a5.419 5.419 0 0 0-.743 0l-1.293.094a7.782 7.782 0 0 0-1.032.141l-.75.127-.463.08a.536.536 0 0 1-.16 0h.154l.462-.093.75-.148a6.653 6.653 0 0 1 1.032-.161l1.3-.113c.247-.017.496-.017.743 0h.811c.275 0 .569 0 .864.033l.918.101c.315.046.67.06.965.127l1.005.214a20.54 20.54 0 0 1 4.341 1.514l1.105.603c.188.107.375.201.563.315l.543.369c.361.254.743.489 1.098.763l1.065.885.268.221.248.248.503.509.502.509c.181.167.315.368.476.549.301.382.63.757.924 1.152l.831 1.26a19.471 19.471 0 0 1 2.814 11.945l-.181 1.494c-.06.489-.208.971-.308 1.447-.061.234-.094.476-.174.703-.081.228-.148.456-.228.67l-.221.67c0 .114-.067.221-.107.335l-.141.322-.556 1.259c-.194.409-.436.791-.67 1.179l-.322.57c-.114.187-.241.355-.362.536l-.716 1.038a20.853 20.853 0 0 1-3.203 3.29l-.804.669c-.261.208-.549.369-.81.543l-.771.503a7.71 7.71 0 0 1-.757.415l-.723.375a4.646 4.646 0 0 1-.67.315l-1.219.482a6.525 6.525 0 0 1-.992.322l-.737.208-.449.12-.134.047Z" fill="#263238"/><path d="M401.025 280.583s-.06-.054-.161-.168l-.442-.502a12.435 12.435 0 0 1-.67-.824c-.248-.335-.543-.704-.817-1.146l-.456-.67c-.154-.241-.288-.502-.449-.763-.315-.523-.603-1.112-.911-1.729a27.964 27.964 0 0 1-1.574-4.194 27.074 27.074 0 0 1-.818-4.401c-.053-.67-.113-1.34-.113-1.95v-.884c0-.281 0-.556.033-.817 0-.523.067-.992.107-1.4.029-.353.076-.704.141-1.052.047-.268.087-.489.121-.67a.85.85 0 0 1 .053-.228c.009.078.009.157 0 .235l-.08.669c-.041.282-.081.637-.107 1.046-.027.408-.081.877-.081 1.4v1.688c0 .61.074 1.259.127 1.936a26.681 26.681 0 0 0 2.379 8.542c.301.609.576 1.199.891 1.722.154.261.288.522.435.763l.442.67c.268.449.556.818.791 1.152.197.293.41.574.636.845l.409.522c.044.066.082.135.114.208Zm12.594-17.928a1.605 1.605 0 0 1-.67-.415 3.102 3.102 0 0 1-.964-1.688 3.053 3.053 0 0 1 .248-1.93 1.66 1.66 0 0 1 .469-.67s-.168.261-.349.71a3.169 3.169 0 0 0 .67 3.457c.342.362.61.509.596.536Zm2.54-8.34c-.054 0-.174-.335-.282-.764a1.755 1.755 0 0 1-.087-.81c.148.231.242.492.275.763.096.259.129.537.094.811Zm.1-10.974a4.422 4.422 0 0 1-.623.121 7.43 7.43 0 0 0-.724.133c-.281.061-.609.114-.958.215-.348.1-.737.181-1.139.315-.401.134-.837.281-1.286.442a22.51 22.51 0 0 0-2.814 1.34 21.551 21.551 0 0 0-2.572 1.748c-.369.308-.724.59-1.032.885-.308.294-.603.562-.851.824-.247.261-.475.502-.67.716-.194.215-.355.402-.482.563-.125.17-.267.327-.422.469.111-.178.232-.351.362-.516a6.64 6.64 0 0 1 .462-.583c.188-.221.389-.482.67-.743s.523-.556.844-.844c.322-.288.67-.597 1.025-.911a21.115 21.115 0 0 1 2.593-1.776 20.7 20.7 0 0 1 2.847-1.34c.456-.16.884-.321 1.3-.435.415-.114.797-.214 1.159-.295.318-.079.64-.142.964-.187.244-.048.49-.081.737-.101.202-.032.406-.045.61-.04Zm12.119 43.519c-.131.094-.272.17-.422.228-.275.134-.67.315-1.192.509a18.746 18.746 0 0 1-8.468 1.099c-.55-.054-.992-.121-1.287-.181a2.23 2.23 0 0 1-.469-.114c.16-.005.319.006.476.034.308.04.744.087 1.293.127 1.42.103 2.848.065 4.261-.114a22.128 22.128 0 0 0 4.147-.978c.515-.181.931-.335 1.212-.449.143-.07.294-.124.449-.161Z" fill="#fff"/><path d="M444.859 257.745s-.047-.141-.121-.409-.167-.67-.335-1.179a26.347 26.347 0 0 0-1.795-4.374 26.134 26.134 0 0 0-4.375-6.043 26.087 26.087 0 0 0-8.079-5.628 25.656 25.656 0 0 0-11.711-2.19c-2.228.106-4.432.5-6.559 1.172-1.112.349-2.2.772-3.255 1.266a28.543 28.543 0 0 0-3.129 1.755 25.816 25.816 0 0 0-9.6 11.51 25.27 25.27 0 0 0-1.273 3.778 24.115 24.115 0 0 0-.67 4.02 25.815 25.815 0 0 0 3.745 15.851c.348.583.744 1.139 1.132 1.688.389.549.817 1.079 1.26 1.581a25.316 25.316 0 0 0 2.827 2.807 25.813 25.813 0 0 0 13.74 6.029c1.19.134 2.387.187 3.584.161a26.053 26.053 0 0 0 9.868-2.211 25.663 25.663 0 0 0 9.473-7.188 26.228 26.228 0 0 0 4.69-8.649c.41-1.293.717-2.617.918-3.959.167-1.127.263-2.264.288-3.403a26.502 26.502 0 0 0-.355-4.69c-.074-.536-.181-.938-.228-1.213a16.144 16.144 0 0 0-.074-.408s.141.549.342 1.614c.479 2.687.517 5.434.114 8.133a24.527 24.527 0 0 1-.905 3.98 26.22 26.22 0 0 1-4.689 8.709 25.905 25.905 0 0 1-9.513 7.249 25.662 25.662 0 0 1-6.432 1.909 24.987 24.987 0 0 1-3.497.328 27.223 27.223 0 0 1-3.611-.161 25.98 25.98 0 0 1-16.688-8.863c-.449-.502-.857-1.045-1.273-1.588a17.263 17.263 0 0 1-1.139-1.701 25.925 25.925 0 0 1-3.771-15.965c.107-1.356.331-2.701.67-4.019a25.365 25.365 0 0 1 1.279-3.806 25.977 25.977 0 0 1 9.674-11.583 27.274 27.274 0 0 1 3.155-1.762 26.283 26.283 0 0 1 9.902-2.532 25.838 25.838 0 0 1 11.751 2.224 26.29 26.29 0 0 1 8.099 5.681 24.464 24.464 0 0 1 2.586 3.149 24.934 24.934 0 0 1 1.776 2.934 25.447 25.447 0 0 1 1.762 4.395c.321 1.038.442 1.601.442 1.601Z" fill="#263238"/><path d="M75.905 274.462c10.11-13.925 7.017-33.41-6.909-43.52-13.925-10.11-33.41-7.017-43.52 6.909-10.11 13.925-7.017 33.41 6.909 43.52 13.925 10.11 33.41 7.017 43.52-6.909Z" fill="#7A6BDE"/><path d="M30.583 232.361a31.164 31.164 0 0 0-3.698 43.914s17.358-13.399 15.69-23.521c-1.668-10.123-11.992-20.393-11.992-20.393Z" fill="#fff" opacity=".1"/><path d="M68.066 240.822a23.69 23.69 0 1 1-25.294-7.282 23.694 23.694 0 0 1 18.067 1.519 23.688 23.688 0 0 1 7.227 5.763Z" fill="#7A6BDE"/><path d="M68.066 240.822a23.69 23.69 0 1 1-25.294-7.282 23.694 23.694 0 0 1 18.067 1.519 23.688 23.688 0 0 1 7.227 5.763Z" fill="#000" opacity=".2"/><path d="M69.232 241.144a23.364 23.364 0 0 1-6.545 35.529 23.369 23.369 0 1 1-18.404-42.717 23.346 23.346 0 0 1 17.822 1.501 23.35 23.35 0 0 1 7.127 5.687Z" fill="#7A6BDE"/><path d="M69.232 241.144a23.364 23.364 0 0 1-6.545 35.529 23.369 23.369 0 1 1-18.404-42.717 23.346 23.346 0 0 1 17.822 1.501 23.35 23.35 0 0 1 7.127 5.687Z" fill="#fff" opacity=".2"/><path d="m50.789 254.074-3.86-4.562a12.11 12.11 0 0 1 2.962-1.421c.575-.132 1.16-.212 1.748-.241l-.06-.194-.67-2.238-.16-.516-1.535-.167-.24.509a11.198 11.198 0 0 0-4.121 1.836l-2.124-2.513-1.34.034.536.63-1.072.904 2.158 2.559c-3.243 3.35-3.216 6.746-1.267 9.058 2.68 3.142 6.03 1.681 9.065.174l3.825 4.522a11.306 11.306 0 0 1-5.976 2.104l.911 3.148c2.01 0 4.797-1.065 7.128-2.807l1.602 1.896-.871.764 1.393-.147 1.856-1.568-2.144-2.533c3.25-3.349 3.263-6.786 1.34-9.097-2.653-3.162-6.056-1.642-9.084-.134Zm-2.258 1.092c-1.635.723-3.028 1.052-3.946-.034-.918-1.085-.85-2.385.543-4.019l3.403 4.053Zm7.952 5.654-3.35-4.02c1.682-.763 3.116-1.085 4.02 0 .824 1.012.77 2.372-.67 4.02Z" fill="#7A6BDE"/><path d="m50.789 254.074-3.86-4.562a12.11 12.11 0 0 1 2.962-1.421c.575-.132 1.16-.212 1.748-.241l-.06-.194-.67-2.238-.16-.516-1.535-.167-.24.509a11.198 11.198 0 0 0-4.121 1.836l-2.124-2.513-1.34.034.536.63-1.072.904 2.158 2.559c-3.243 3.35-3.216 6.746-1.267 9.058 2.68 3.142 6.03 1.681 9.065.174l3.825 4.522a11.306 11.306 0 0 1-5.976 2.104l.911 3.148c2.01 0 4.797-1.065 7.128-2.807l1.602 1.896-.871.764 1.393-.147 1.856-1.568-2.144-2.533c3.25-3.349 3.263-6.786 1.34-9.097-2.653-3.162-6.056-1.642-9.084-.134Zm-2.258 1.092c-1.635.723-3.028 1.052-3.946-.034-.918-1.085-.85-2.385.543-4.019l3.403 4.053Zm7.952 5.654-3.35-4.02c1.682-.763 3.116-1.085 4.02 0 .824 1.012.77 2.372-.67 4.02Z" fill="#000" opacity=".3"/><path d="m57.273 263.311 2.144 2.533-1.855 1.567-2.124-2.512c-2.332 1.742-5.092 2.834-7.128 2.807l-.911-3.142a11.391 11.391 0 0 0 5.975-2.103l-3.825-4.529c-3.028 1.514-6.404 2.974-9.064-.174-1.95-2.312-2.01-5.735 1.266-9.058l-2.164-2.559 1.856-1.568 2.124 2.513a12.712 12.712 0 0 1 5.761-2.499l1.005 3.068a12.226 12.226 0 0 0-4.69 1.876l3.866 4.569c3.028-1.508 6.438-3.035 9.091.114 1.936 2.311 1.923 5.734-1.327 9.097Zm-10.049-8.119-3.403-4.02c-1.393 1.608-1.387 2.995-.542 4.02.844 1.025 2.324.723 3.959 0h-.014Zm8.63 1.675c-.939-1.113-2.379-.791-4.06 0l3.35 4.019c1.493-1.688 1.533-3.048.723-4.019h-.014Z" fill="#7A6BDE"/><path d="m66.284 274.527.134-.141.402-.395c.188-.175.409-.382.67-.637.314-.274.605-.571.871-.891l1.045-1.186c.197-.226.378-.466.543-.717l.556-.79c.21-.275.405-.561.583-.858l.543-.958c.18-.335.395-.669.562-1.025l.496-1.125a24.63 24.63 0 0 0 1.608-5.246c.067-.489.134-.984.2-1.494 0-.247.068-.502.095-.763.026-.262 0-.516 0-.784 0-.523.053-1.059.046-1.595l-.1-1.641v-.422c0-.134-.047-.275-.067-.415-.04-.275-.087-.556-.127-.838a36.79 36.79 0 0 0-.134-.844c-.047-.281-.134-.563-.194-.844-.155-.563-.282-1.132-.456-1.702l-.616-1.688a23.313 23.313 0 0 0-9.487-11.228l-1.56-.891c-.53-.268-1.073-.482-1.602-.73-.268-.107-.522-.248-.797-.335l-.817-.268-.804-.268-.396-.134-.408-.094-1.601-.368c-.53-.101-1.066-.148-1.588-.222l-.777-.107h-.77l-1.501-.053c-1.84.021-3.67.244-5.46.663l-1.193.308c-.388.101-.743.255-1.105.382l-1.032.375a8.626 8.626 0 0 0-.944.429l-.878.415a6.68 6.68 0 0 0-.79.416l-1.34.81c-.36.213-.705.45-1.032.71l-.737.543-.456.335c-.1.074-.154.114-.16.107l.147-.127.442-.348.724-.57a8.397 8.397 0 0 1 1.025-.723l1.34-.838c.253-.159.517-.3.79-.422l.878-.429c.306-.163.621-.309.944-.435l1.039-.389c.361-.127.716-.288 1.105-.395l1.2-.315a24.772 24.772 0 0 1 5.473-.737l1.52.047h.777l.784.101c.523.073 1.066.12 1.601.221l1.615.368.409.094.408.134.81.268.818.275c.277.096.547.207.81.335.53.241 1.086.462 1.615.736l1.581.891a23.56 23.56 0 0 1 9.58 11.342c.208.57.416 1.139.617 1.702.2.563.301 1.152.455 1.722.082.279.147.564.195.851.047.281.093.569.134.851.04.281.087.569.127.85 0 .134.047.275.067.416v.422c.033.556.06 1.112.094 1.655.033.542-.034 1.085-.047 1.614 0 .268 0 .529-.034.791l-.1.77c-.067.509-.14 1.012-.208 1.507-.35 1.813-.9 3.582-1.641 5.273l-.516 1.125c-.168.369-.389.67-.57 1.025-.18.355-.375.67-.555.965-.18.297-.378.583-.59.857l-.57.791c-.165.25-.348.487-.549.71l-1.045 1.179a9.2 9.2 0 0 1-.884.885l-.67.616-.422.382c-.094.12-.14.167-.148.161Z" fill="#263238"/><path d="M39.855 284.455a1.791 1.791 0 0 1-.267-.087l-.75-.302a15.14 15.14 0 0 1-1.16-.529c-.442-.228-.964-.456-1.5-.777l-.858-.489c-.295-.168-.583-.375-.898-.57-.623-.388-1.252-.871-1.922-1.34a33.22 33.22 0 0 1-3.96-3.664 34.313 34.313 0 0 1-3.282-4.274c-.43-.71-.851-1.38-1.18-2.01-.167-.328-.348-.636-.489-.945l-.408-.924c-.275-.563-.456-1.099-.67-1.561-.215-.462-.315-.871-.416-1.206l-.22-.797a1.27 1.27 0 0 1-.068-.275c.047.083.085.171.114.261.067.195.161.443.275.757.114.315.255.731.455 1.186.201.456.39.985.67 1.541l.422.884c.148.302.329.61.496.932.335.669.764 1.339 1.193 2.009a31.814 31.814 0 0 0 7.201 7.872c.67.489 1.28.972 1.896 1.34.309.194.597.402.885.576l.844.503c.53.328 1.038.569 1.474.804.435.234.824.415 1.145.556l.73.341.248.188Zm3.772-26.107a2.012 2.012 0 0 1-.965-.081 3.746 3.746 0 0 1-1.956-1.279 3.799 3.799 0 0 1-.777-2.204 2.009 2.009 0 0 1 .154-.958c.04 0 0 .368 0 .944a3.782 3.782 0 0 0 2.62 3.35c.575.161.93.161.924.228Zm-1.809-10.344c-.047.04-.368-.262-.716-.67-.349-.409-.59-.778-.543-.824.047-.047.368.261.717.67.348.408.59.777.542.824Zm-5.868-11.831c-.19.171-.39.328-.604.469-.2.141-.442.315-.71.536-.268.221-.583.455-.904.75-.322.295-.67.603-1.052.965s-.744.757-1.139 1.179a27.018 27.018 0 0 0-2.29 2.961 26.572 26.572 0 0 0-1.81 3.283c-.227.529-.455 1.031-.63 1.514a48.5 48.5 0 0 0-.468 1.34c-.134.408-.228.797-.322 1.132a10.93 10.93 0 0 0-.214.864 3.87 3.87 0 0 1-.195.737c.016-.255.052-.508.108-.757.04-.294.099-.584.174-.871.08-.342.16-.73.295-1.152.133-.422.26-.885.442-1.34.18-.456.388-.998.616-1.534a24.941 24.941 0 0 1 1.809-3.35 26.003 26.003 0 0 1 2.325-2.981c.401-.416.777-.824 1.165-1.173.389-.348.737-.67 1.079-.944.3-.259.613-.503.938-.73.233-.184.477-.354.73-.51.208-.146.428-.276.656-.388Zm36.706 40.116a2.592 2.592 0 0 1-.329.469c-.22.301-.563.71-1.005 1.205a22.94 22.94 0 0 1-3.912 3.384 22.71 22.71 0 0 1-4.576 2.405c-.623.234-1.132.402-1.487.502a2.09 2.09 0 0 1-.563.127c.173-.085.352-.157.536-.214.349-.121.844-.315 1.454-.569a25.266 25.266 0 0 0 8.428-5.748 37.79 37.79 0 0 0 1.058-1.146c.113-.155.246-.295.395-.415Z" fill="#fff"/><path d="m74.491 236.059-.348-.375c-.228-.242-.543-.63-1.005-1.086a31.845 31.845 0 0 0-4.308-3.718 31.257 31.257 0 0 0-3.504-2.157 29.357 29.357 0 0 0-4.481-1.943 31.384 31.384 0 0 0-11.738-1.648 31.347 31.347 0 0 0-22.945 11.979 33.278 33.278 0 0 0-2.405 3.584 31.11 31.11 0 0 0-3.35 22.335c.349 1.58.828 3.129 1.434 4.63a31.08 31.08 0 0 0 12.648 14.973c.67.435 1.42.817 2.137 1.199.717.382 1.46.71 2.211 1.005a30.659 30.659 0 0 0 4.57 1.48 31.09 31.09 0 0 0 18.014-1.045 32.257 32.257 0 0 0 3.939-1.775 30.606 30.606 0 0 0 3.557-2.238 31.114 31.114 0 0 0 5.835-5.507 31.092 31.092 0 0 0 6.25-12.876c.861-3.891.975-7.91.336-11.844a31.526 31.526 0 0 0-2.713-8.555 31.489 31.489 0 0 0-2.948-4.871 13.91 13.91 0 0 0-.898-1.172l-.308-.402s.456.509 1.246 1.547a30.237 30.237 0 0 1 2.988 4.858 30.7 30.7 0 0 1 1.568 3.811 29.821 29.821 0 0 1 1.192 4.764 31.42 31.42 0 0 1-.301 11.898 31.059 31.059 0 0 1-6.264 12.963 31.06 31.06 0 0 1-5.862 5.547 31.844 31.844 0 0 1-3.578 2.264 32.941 32.941 0 0 1-3.966 1.789 31.287 31.287 0 0 1-18.142 1.065 30.913 30.913 0 0 1-4.582-1.46c-.757-.302-1.487-.67-2.23-1.012-.744-.341-1.448-.77-2.151-1.212a31.324 31.324 0 0 1-12.729-15.087 29.408 29.408 0 0 1-1.454-4.69 31.234 31.234 0 0 1 3.35-22.49 33.912 33.912 0 0 1 2.432-3.604 31.628 31.628 0 0 1 9.272-8.006 30.692 30.692 0 0 1 6.96-2.894 30.2 30.2 0 0 1 6.867-1.112c4-.191 7.998.379 11.784 1.682a29.842 29.842 0 0 1 4.496 1.976 30.035 30.035 0 0 1 7.791 5.936c.938.938 1.333 1.494 1.333 1.494Z" fill="#263238"/><path d="M346.693 226.565h57.299v-10.404h-57.299v10.404Z" fill="#7A6BDE"/><path d="M398.378 226.64c.128 0 .235-2.312.235-5.159s-.107-5.165-.235-5.165c-.127 0-.241 2.311-.241 5.165s.107 5.159.241 5.159Zm3.136 0c.127 0 .234-2.312.234-5.159s-.107-5.165-.234-5.165c-.128 0-.242 2.311-.242 5.165s.108 5.159.242 5.159Zm-10.022 0c.134 0 .241-2.312.241-5.159s-.107-5.165-.241-5.165-.242 2.311-.242 5.165.108 5.159.242 5.159Zm3.135 0c.134 0 .234-2.312.234-5.159s-.1-5.165-.234-5.165-.241 2.311-.241 5.165.107 5.159.241 5.159Zm-10.022 0c.134 0 .241-2.312.241-5.159s-.107-5.165-.241-5.165-.235 2.311-.235 5.165.107 5.159.235 5.159Zm3.135 0c.134 0 .241-2.312.241-5.159s-.107-5.165-.241-5.165-.235 2.311-.235 5.165.121 5.159.235 5.159Zm-10.016 0c.127 0 .235-2.312.235-5.159s-.108-5.165-.235-5.165-.241 2.311-.241 5.165.094 5.159.241 5.159Zm3.129 0c.134 0 .241-2.312.241-5.159s-.107-5.165-.241-5.165-.235 2.311-.235 5.165.107 5.159.235 5.159Zm-10.016 0c.128 0 .235-2.312.235-5.159s-.107-5.165-.235-5.165c-.127 0-.241 2.311-.241 5.165s.107 5.159.241 5.159Zm3.136 0c.127 0 .234-2.312.234-5.159s-.107-5.165-.234-5.165c-.128 0-.242 2.311-.242 5.165s.108 5.159.242 5.159Zm-10.023 0c.134 0 .242-2.312.242-5.159s-.108-5.165-.242-5.165-.241 2.311-.241 5.165.107 5.159.241 5.159Zm3.136 0c.134 0 .234-2.312.234-5.159s-.1-5.165-.234-5.165-.242 2.311-.242 5.165.108 5.159.242 5.159Zm-10.022 0c.134 0 .241-2.312.241-5.159s-.107-5.165-.241-5.165-.235 2.311-.235 5.165.107 5.159.235 5.159Zm3.135 0c.134 0 .241-2.312.241-5.159s-.107-5.165-.241-5.165-.235 2.311-.235 5.165.101 5.159.235 5.159Zm-10.016 0c.127 0 .235-2.312.235-5.159s-.108-5.165-.235-5.165-.241 2.311-.241 5.165.107 5.159.241 5.159Zm3.129 0c.134 0 .241-2.312.241-5.159s-.107-5.165-.241-5.165-.235 2.311-.235 5.165.108 5.159.235 5.159Z" fill="#263238"/><path d="M346.686 216.162c0 .134 12.89.241 28.807.241 15.918 0 28.808-.107 28.808-.241s-12.89-.242-28.808-.242c-15.917 0-28.807.108-28.807.242Z" fill="#263238"/><path d="M350.444 237.137h57.3v-10.404h-57.3v10.404Z" fill="#7A6BDE"/><path d="M402.13 237.211c.127 0 .235-2.311.235-5.165s-.108-5.158-.235-5.158-.241 2.311-.241 5.158c0 2.847.107 5.165.241 5.165Zm3.135 0c.128 0 .235-2.311.235-5.165s-.107-5.158-.235-5.158c-.127 0-.241 2.311-.241 5.158 0 2.847.107 5.165.241 5.165Zm-10.022 0c.134 0 .241-2.311.241-5.165s-.107-5.158-.241-5.158-.241 2.311-.241 5.158c0 2.847.107 5.165.241 5.165Zm3.135 0c.128 0 .235-2.311.235-5.165s-.107-5.158-.235-5.158c-.127 0-.241 2.311-.241 5.158 0 2.847.107 5.165.241 5.165Zm-10.022 0c.134 0 .241-2.311.241-5.165s-.107-5.158-.241-5.158-.234 2.311-.234 5.158c0 2.847.107 5.165.234 5.165Zm3.136 0c.134 0 .241-2.311.241-5.165s-.107-5.158-.241-5.158-.242 2.311-.242 5.158c0 2.847.108 5.165.242 5.165Zm-10.023 0c.134 0 .241-2.311.241-5.165s-.107-5.158-.241-5.158-.234 2.311-.234 5.158c0 2.847.107 5.165.234 5.165Zm3.136 0c.134 0 .241-2.311.241-5.165s-.107-5.158-.241-5.158-.235 2.311-.235 5.158c0 2.847.107 5.165.235 5.165Zm-10.016 0c.127 0 .234-2.311.234-5.165s-.107-5.158-.234-5.158-.241 2.311-.241 5.158c0 2.847.107 5.165.241 5.165Zm3.135 0c.127 0 .235-2.311.235-5.165s-.108-5.158-.235-5.158-.241 2.311-.241 5.158c0 2.847.094 5.165.241 5.165Zm-10.022 0c.134 0 .241-2.311.241-5.165s-.107-5.158-.241-5.158-.241 2.311-.241 5.158c0 2.847.107 5.165.241 5.165Zm3.135 0c.128 0 .235-2.311.235-5.165s-.107-5.158-.235-5.158c-.127 0-.241 2.311-.241 5.158 0 2.847.107 5.165.241 5.165Zm-10.009 0c.134 0 .242-2.311.242-5.165s-.108-5.158-.242-5.158-.234 2.311-.234 5.158c0 2.847.094 5.165.234 5.165Zm3.122 0c.134 0 .242-2.311.242-5.165s-.108-5.158-.242-5.158-.241 2.311-.241 5.158c0 2.847.107 5.165.241 5.165Zm-10.022 0c.134 0 .242-2.311.242-5.165s-.108-5.158-.242-5.158-.234 2.311-.234 5.158c0 2.847.107 5.165.234 5.165Zm3.136 0c.134 0 .241-2.311.241-5.165s-.107-5.158-.241-5.158-.235 2.311-.235 5.158c0 2.847.107 5.165.235 5.165Z" fill="#263238"/><path d="M350.438 226.733c0 .128 12.889.235 28.807.235s28.807-.107 28.807-.235c0-.127-12.889-.241-28.807-.241s-28.807.107-28.807.241Z" fill="#263238"/><path d="M345.762 247.615h57.299v-10.404h-57.299v10.404Z" fill="#7A6BDE"/><path d="M397.447 247.689c.128 0 .235-2.311.235-5.165s-.107-5.159-.235-5.159c-.127 0-.241 2.312-.241 5.159s.107 5.165.241 5.165Zm3.136 0c.127 0 .234-2.311.234-5.165s-.107-5.159-.234-5.159c-.128 0-.242 2.312-.242 5.159s.108 5.165.242 5.165Zm-10.023 0c.134 0 .241-2.311.241-5.165s-.107-5.159-.241-5.159-.241 2.312-.241 5.159.107 5.165.241 5.165Zm3.136 0c.127 0 .234-2.311.234-5.165s-.107-5.159-.234-5.159c-.128 0-.241 2.312-.241 5.159s.107 5.165.241 5.165Zm-10.023 0c.134 0 .242-2.311.242-5.165s-.108-5.159-.242-5.159-.234 2.312-.234 5.159.107 5.165.234 5.165Zm3.136 0c.134 0 .241-2.311.241-5.165s-.107-5.159-.241-5.159-.242 2.312-.242 5.159.108 5.165.242 5.165Zm-10.023 0c.134 0 .241-2.311.241-5.165s-.107-5.159-.241-5.159-.234 2.312-.234 5.159.107 5.165.234 5.165Zm3.135 0c.134 0 .242-2.311.242-5.165s-.108-5.159-.242-5.159-.234 2.312-.234 5.159.107 5.165.234 5.165Zm-10.015 0c.127 0 .235-2.311.235-5.165s-.108-5.159-.235-5.159-.241 2.312-.241 5.159.107 5.165.241 5.165Zm3.135 0c.128 0 .235-2.311.235-5.165s-.107-5.159-.235-5.159c-.127 0-.241 2.312-.241 5.159s.087 5.165.241 5.165Zm-10.022 0c.134 0 .241-2.311.241-5.165s-.107-5.159-.241-5.159-.241 2.312-.241 5.159.107 5.165.241 5.165Zm3.169 0c.127 0 .235-2.311.235-5.165s-.108-5.159-.235-5.159-.241 2.312-.241 5.159.074 5.165.241 5.165Zm-10.049 0c.134 0 .241-2.311.241-5.165s-.107-5.159-.241-5.159-.234 2.312-.234 5.159.1 5.165.234 5.165Zm3.129 0c.134 0 .241-2.311.241-5.165s-.107-5.159-.241-5.159-.241 2.312-.241 5.159.107 5.165.241 5.165Zm-10.023 0c.134 0 .241-2.311.241-5.165s-.107-5.159-.241-5.159-.234 2.312-.234 5.159.107 5.165.234 5.165Zm3.135 0c.134 0 .242-2.311.242-5.165s-.108-5.159-.242-5.159c-.133 0-.234 2.312-.234 5.159s.107 5.165.234 5.165Z" fill="#263238"/><path d="M345.755 237.211c0 .128 12.923.235 28.854.235s28.854-.107 28.854-.235c0-.127-12.916-.241-28.854-.241-15.938 0-28.854.107-28.854.241Z" fill="#263238"/><path d="M350.25 257.939h57.3v-10.404h-57.3v10.404Z" fill="#7A6BDE"/><path d="M401.936 258.013c.134 0 .241-2.312.241-5.166 0-2.853-.107-5.158-.241-5.158s-.235 2.311-.235 5.158c0 2.848.107 5.166.235 5.166Zm3.108 0c.134 0 .241-2.312.241-5.166 0-2.853-.107-5.158-.241-5.158s-.241 2.311-.241 5.158c0 2.848.134 5.166.241 5.166Zm-9.995 0c.134 0 .241-2.312.241-5.166 0-2.853-.107-5.158-.241-5.158s-.235 2.311-.235 5.158c0 2.848.108 5.166.235 5.166Zm3.135 0c.134 0 .241-2.312.241-5.166 0-2.853-.107-5.158-.241-5.158s-.234 2.311-.234 5.158c0 2.848.107 5.166.234 5.166Zm-10.015 0c.127 0 .234-2.312.234-5.166 0-2.853-.107-5.158-.234-5.158-.128 0-.242 2.311-.242 5.158 0 2.848.108 5.166.242 5.166Zm3.135 0c.127 0 .234-2.312.234-5.166 0-2.853-.107-5.158-.234-5.158s-.241 2.311-.241 5.158c0 2.848.107 5.166.241 5.166Zm-10.023 0c.134 0 .242-2.312.242-5.166 0-2.853-.108-5.158-.242-5.158-.133 0-.241 2.311-.241 5.158 0 2.848.108 5.166.241 5.166Zm3.136 0c.127 0 .234-2.312.234-5.166 0-2.853-.107-5.158-.234-5.158-.128 0-.241 2.311-.241 5.158 0 2.848.1 5.166.241 5.166Zm-10.022 0c.134 0 .241-2.312.241-5.166 0-2.853-.107-5.158-.241-5.158s-.235 2.311-.235 5.158c0 2.848.107 5.166.235 5.166Zm3.135 0c.134 0 .241-2.312.241-5.166 0-2.853-.107-5.158-.241-5.158s-.241 2.311-.241 5.158c0 2.848.107 5.166.241 5.166Zm-10.002 0c.134 0 .241-2.312.241-5.166 0-2.853-.107-5.158-.241-5.158s-.235 2.311-.235 5.158c0 2.848.088 5.166.235 5.166Zm3.115 0c.134 0 .241-2.312.241-5.166 0-2.853-.107-5.158-.241-5.158s-.235 2.311-.235 5.158c0 2.848.108 5.166.235 5.166Zm-10.015 0c.127 0 .234-2.312.234-5.166 0-2.853-.107-5.158-.234-5.158-.128 0-.242 2.311-.242 5.158 0 2.848.108 5.166.242 5.166Zm3.135 0c.127 0 .234-2.312.234-5.166 0-2.853-.107-5.158-.234-5.158s-.241 2.311-.241 5.158c0 2.848.107 5.166.241 5.166Zm-10.022 0c.134 0 .241-2.312.241-5.166 0-2.853-.107-5.158-.241-5.158s-.241 2.311-.241 5.158c0 2.848.107 5.166.241 5.166Zm3.135 0c.127 0 .234-2.312.234-5.166 0-2.853-.107-5.158-.234-5.158s-.241 2.311-.241 5.158c0 2.848.107 5.166.241 5.166Z" fill="#263238"/><path d="M350.25 247.561c0 .128 12.89.235 28.807.235 15.918 0 28.808-.107 28.808-.235 0-.127-12.883-.241-28.808-.241-15.924 0-28.807.081-28.807.241Z" fill="#263238"/><path d="M344.509 268.498h57.3v-10.405h-57.3v10.405Z" fill="#7A6BDE"/><path d="M396.194 268.564c.134 0 .242-2.311.242-5.159 0-2.847-.108-5.165-.242-5.165s-.241 2.312-.241 5.165c0 2.854.107 5.159.241 5.159Zm3.136 0c.127 0 .234-2.311.234-5.159 0-2.847-.107-5.165-.234-5.165-.128 0-.242 2.312-.242 5.165 0 2.854.108 5.159.242 5.159Zm-10.022 0c.133 0 .241-2.311.241-5.159 0-2.847-.108-5.165-.241-5.165-.134 0-.235 2.312-.235 5.165 0 2.854.107 5.159.235 5.159Zm3.135 0c.134 0 .241-2.311.241-5.159 0-2.847-.107-5.165-.241-5.165s-.241 2.312-.241 5.165c0 2.854.114 5.159.241 5.159Zm-10.023 0c.134 0 .242-2.311.242-5.159 0-2.847-.108-5.165-.242-5.165-.133 0-.234 2.312-.234 5.165 0 2.854.08 5.159.234 5.159Zm3.136 0c.134 0 .241-2.311.241-5.159 0-2.847-.107-5.165-.241-5.165s-.235 2.312-.235 5.165c0 2.854.107 5.159.235 5.159Zm-9.989 0c.127 0 .234-2.311.234-5.159 0-2.847-.107-5.165-.234-5.165s-.241 2.312-.241 5.165c0 2.854.08 5.159.241 5.159Zm3.109 0c.127 0 .234-2.311.234-5.159 0-2.847-.107-5.165-.234-5.165-.128 0-.241 2.312-.241 5.165 0 2.854.107 5.159.241 5.159Zm-10.022 0c.134 0 .241-2.311.241-5.159 0-2.847-.107-5.165-.241-5.165s-.242 2.312-.242 5.165c0 2.854.108 5.159.242 5.159Zm3.135 0c.134 0 .234-2.311.234-5.159 0-2.847-.1-5.165-.234-5.165s-.241 2.312-.241 5.165c0 2.854.107 5.159.241 5.159Zm-10.023 0c.134 0 .241-2.311.241-5.159 0-2.847-.107-5.165-.241-5.165s-.234 2.312-.234 5.165c0 2.854.107 5.159.234 5.159Zm3.136 0c.134 0 .241-2.311.241-5.159 0-2.847-.107-5.165-.241-5.165s-.242 2.312-.242 5.165c0 2.854.108 5.159.242 5.159Zm-10.023 0c.134 0 .242-2.311.242-5.159 0-2.847-.108-5.165-.242-5.165s-.234 2.312-.234 5.165c0 2.854.107 5.159.234 5.159Zm3.136 0c.134 0 .241-2.311.241-5.159 0-2.847-.107-5.165-.241-5.165s-.235 2.312-.235 5.165c0 2.854.107 5.159.235 5.159Zm-10.016 0c.128 0 .235-2.311.235-5.159 0-2.847-.107-5.165-.235-5.165-.127 0-.241 2.312-.241 5.165 0 2.854.107 5.159.241 5.159Zm3.136 0c.127 0 .234-2.311.234-5.159 0-2.847-.107-5.165-.234-5.165-.128 0-.242 2.312-.242 5.165 0 2.854.108 5.159.242 5.159Z" fill="#263238"/><path d="M344.509 258.086c0 .134 12.883.241 28.807.241s28.807-.107 28.807-.241-12.889-.234-28.807-.234-28.807.107-28.807.234Z" fill="#263238"/><path d="M348.1 279.022h57.299v-10.404H348.1v10.404Z" fill="#7A6BDE"/><path d="M399.785 279.089c.134 0 .241-2.311.241-5.159 0-2.847-.107-5.165-.241-5.165s-.234 2.311-.234 5.165.134 5.159.234 5.159Zm3.136 0c.134 0 .241-2.311.241-5.159 0-2.847-.107-5.165-.241-5.165s-.235 2.311-.235 5.165.101 5.159.235 5.159Zm-10.016 0c.127 0 .234-2.311.234-5.159 0-2.847-.107-5.165-.234-5.165s-.241 2.311-.241 5.165.107 5.159.241 5.159Zm3.129 0c.134 0 .241-2.311.241-5.159 0-2.847-.107-5.165-.241-5.165s-.235 2.311-.235 5.165.107 5.159.235 5.159Zm-10.016 0c.127 0 .235-2.311.235-5.159 0-2.847-.108-5.165-.235-5.165s-.241 2.311-.241 5.165.107 5.159.241 5.159Zm3.135 0c.128 0 .235-2.311.235-5.159 0-2.847-.107-5.165-.235-5.165-.127 0-.241 2.311-.241 5.165s.107 5.159.241 5.159Zm-10.022 0c.134 0 .241-2.311.241-5.159 0-2.847-.107-5.165-.241-5.165s-.241 2.311-.241 5.165.107 5.159.241 5.159Zm3.136 0c.134 0 .241-2.311.241-5.159 0-2.847-.107-5.165-.241-5.165s-.242 2.311-.242 5.165.108 5.159.242 5.159Zm-10.05 0c.134 0 .242-2.311.242-5.159 0-2.847-.108-5.165-.242-5.165s-.234 2.311-.234 5.165.134 5.159.234 5.159Zm3.162 0c.134 0 .242-2.311.242-5.159 0-2.847-.108-5.165-.242-5.165s-.234 2.311-.234 5.165.107 5.159.234 5.159Zm-10.015 0c.127 0 .234-2.311.234-5.159 0-2.847-.107-5.165-.234-5.165-.128 0-.241 2.311-.241 5.165s.107 5.159.241 5.159Zm3.129 0c.134 0 .241-2.311.241-5.159 0-2.847-.107-5.165-.241-5.165s-.235 2.311-.235 5.165.107 5.159.235 5.159Zm-10.016 0c.127 0 .235-2.311.235-5.159 0-2.847-.108-5.165-.235-5.165s-.241 2.311-.241 5.165.107 5.159.241 5.159Zm3.135 0c.128 0 .235-2.311.235-5.159 0-2.847-.107-5.165-.235-5.165-.127 0-.241 2.311-.241 5.165s.127 5.159.241 5.159Zm-10.022 0c.134 0 .241-2.311.241-5.159 0-2.847-.107-5.165-.241-5.165s-.241 2.311-.241 5.165.1 5.159.241 5.159Zm3.135 0c.134 0 .241-2.311.241-5.159 0-2.847-.107-5.165-.241-5.165s-.241 2.311-.241 5.165.107 5.159.241 5.159Z" fill="#263238"/><path d="M348.1 268.611c0 .134 12.916.241 28.854.241 15.938 0 28.854-.107 28.854-.241s-12.916-.235-28.854-.235c-15.938 0-28.854.108-28.854.235Z" fill="#263238"/><path d="M352.595 289.345h57.3v-10.404h-57.3v10.404Z" fill="#7A6BDE"/><path d="M404.281 289.413c.127 0 .234-2.312.234-5.159s-.107-5.165-.234-5.165c-.128 0-.241 2.311-.241 5.165s.107 5.159.241 5.159Zm3.135 0c.127 0 .234-2.312.234-5.159s-.107-5.165-.234-5.165-.241 2.311-.241 5.165.107 5.159.241 5.159Zm-10.022 0c.134 0 .241-2.312.241-5.159s-.107-5.165-.241-5.165-.242 2.311-.242 5.165.108 5.159.242 5.159Zm3.135 0c.134 0 .241-2.312.241-5.159s-.107-5.165-.241-5.165-.241 2.311-.241 5.165.107 5.159.241 5.159Zm-10.023 0c.134 0 .242-2.312.242-5.159s-.108-5.165-.242-5.165-.234 2.311-.234 5.165.107 5.159.234 5.159Zm3.149 0c.134 0 .242-2.312.242-5.159s-.108-5.165-.242-5.165-.234 2.311-.234 5.165.087 5.159.234 5.159Zm-10.049 0c.128 0 .235-2.312.235-5.159s-.107-5.165-.235-5.165c-.127 0-.241 2.311-.241 5.165s.128 5.159.241 5.159Zm3.149 0c.134 0 .241-2.312.241-5.159s-.107-5.165-.241-5.165-.234 2.311-.234 5.165.107 5.159.234 5.159Zm-10.016 0c.128 0 .235-2.312.235-5.159s-.107-5.165-.235-5.165c-.127 0-.241 2.311-.241 5.165s.107 5.159.241 5.159Zm3.136 0c.127 0 .234-2.312.234-5.159s-.107-5.165-.234-5.165c-.128 0-.241 2.311-.241 5.165s.107 5.159.241 5.159Zm-10.022 0c.134 0 .241-2.312.241-5.159s-.107-5.165-.241-5.165-.241 2.311-.241 5.165.107 5.159.241 5.159Zm3.135 0c.134 0 .241-2.312.241-5.159s-.107-5.165-.241-5.165-.241 2.311-.241 5.165.141 5.159.241 5.159Zm-10.022 0c.134 0 .241-2.312.241-5.159s-.107-5.165-.241-5.165-.235 2.311-.235 5.165.107 5.159.235 5.159Zm3.135 0c.134 0 .241-2.312.241-5.159s-.107-5.165-.241-5.165-.235 2.311-.235 5.165.108 5.159.235 5.159Zm-10.016 0c.127 0 .235-2.312.235-5.159s-.108-5.165-.235-5.165-.241 2.311-.241 5.165.107 5.159.241 5.159Zm3.129 0c.134 0 .241-2.312.241-5.159s-.107-5.165-.241-5.165-.235 2.311-.235 5.165.107 5.159.235 5.159Z" fill="#263238"/><path d="M352.595 278.935c0 .134 12.883.241 28.807.241 15.925 0 28.807-.107 28.807-.241s-12.889-.235-28.807-.235c-15.917 0-28.807.107-28.807.235Z" fill="#263238"/><path d="M403.035 237.211c-8.562 2.104-17.68 2.506-26.47 1.923-8.789-.583-17.672-1.876-26.489-1.768l52.959-.155Zm-.49-10.357c-8.561 2.104-17.679 2.506-26.469 1.923-8.789-.583-17.673-1.876-26.489-1.769l52.958-.154Zm-2.773 20.782c-8.562 2.103-17.68 2.512-26.476 1.929s-17.673-1.882-26.483-1.775l52.959-.154Zm2.244 10.39c-8.555 2.103-17.679 2.512-26.469 1.923-8.789-.59-17.673-1.876-26.489-1.769l52.958-.154Zm-.683 10.344c-8.555 2.103-17.673 2.512-26.469 1.929-8.797-.583-17.673-1.882-26.483-1.775l52.952-.154Zm2.8 10.545c-8.555 2.104-17.679 2.512-26.469 1.929-8.789-.582-17.673-1.875-26.482-1.775l52.951-.154Z" fill="#000" opacity=".3"/><path d="M402.941 223.277c.134 0 .241-1.273.241-2.847 0-1.575-.107-2.847-.241-2.847s-.242 1.272-.242 2.847c0 1.574.108 2.847.242 2.847Zm3.611 11.121c.134 0 .241-1.34.241-3.055s-.107-3.062-.241-3.062-.235 1.34-.235 3.062c0 1.722.108 3.055.235 3.055Zm-5.139 10.704c.134 0 .235-1.219.235-2.713s-.101-2.68-.235-2.68c-.134 0-.241 1.22-.241 2.68 0 1.461.107 2.713.241 2.713Zm5.279 9.862c.134 0 .241-1.085.241-2.432 0-1.346-.107-2.431-.241-2.431s-.234 1.092-.234 2.431c0 1.34.107 2.432.234 2.432Zm-20.982-27.373c0 .127 4.227.234 9.446.234 5.219 0 9.453-.107 9.453-.234s-4.227-.241-9.453-.241c-5.225 0-9.446.114-9.446.241Zm-6.123-10.009c0 .134 4.261.235 9.52.235 5.259 0 9.519-.101 9.519-.235 0-.134-4.26-.241-9.519-.241s-9.52.107-9.52.241Zm-9.165.141c0 .127 1.4.234 3.122.234s3.129-.107 3.129-.234c0-.128-1.401-.242-3.129-.242s-3.122.108-3.122.242Zm30.603 50.399a45.583 45.583 0 0 0 0-7.958 43.706 43.706 0 0 0 0 7.958Zm-43.546-11.262c0 .094 10.418.174 23.274.174 12.856 0 23.273-.08 23.273-.174 0-.094-10.417-.174-23.273-.174s-23.274.074-23.274.174Zm9.285 21.016c0 .101 8.234.181 18.39.181s18.396-.08 18.396-.181c0-.1-8.24-.174-18.396-.174s-18.39.081-18.39.174Zm42.34 9.46c.232-1.492.232-3.01 0-4.502a14.647 14.647 0 0 0 0 4.502Zm-40.538.904c0 .094 8.535.174 19.067.174 10.531 0 19.066-.08 19.066-.174 0-.094-8.535-.174-19.066-.174-10.532 0-19.067.074-19.067.174Z" fill="#fff"/><path d="M409.895 289.346a.74.74 0 0 0 0-.188v-.556c0-.516 0-1.219.04-2.103 0-1.856 0-4.469.054-7.658v-.14h-4.228l.154.154V268.33h-3.966l.175.181v-10.558l-.161.16h5.761v-.134c0-3.162-.047-5.754-.06-7.597 0-.871 0-1.567-.04-2.076v-.55a.096.096 0 0 0 .056-.037.098.098 0 0 0 .017-.065.09.09 0 0 0-.031-.059.09.09 0 0 0-.062-.024.095.095 0 0 0-.094.083.094.094 0 0 0 .018.065.09.09 0 0 0 .056.037v2.626c0 1.843 0 4.435-.061 7.597l.134-.134h-5.694v10.894h3.966l-.174-.175v10.485h.154l4.086-.06-.134-.141c0 3.189.041 5.802.054 7.657 0 .885 0 1.588.04 2.104v.556a.713.713 0 0 0-.06.181ZM85.036 101.013H335.03a15.41 15.41 0 0 1 15.408 15.409v150.065a20.673 20.673 0 0 1-20.674 20.675H89.599a20.671 20.671 0 0 1-20.675-20.675V117.092a16.08 16.08 0 0 1 16.079-16.079h.033Z" fill="#263238"/><path d="M57.153 273.421H362.17v7.095a9.189 9.189 0 0 1-2.693 6.499 9.189 9.189 0 0 1-6.499 2.693H66.352a9.191 9.191 0 0 1-9.192-9.192v-7.095h-.007Z" fill="#263238"/><path d="M331.82 108.416H86.784c-5.686 0-10.297 4.61-10.297 10.297V255.34c0 5.687 4.61 10.297 10.297 10.297H331.82c5.687 0 10.297-4.61 10.297-10.297V118.713c0-5.687-4.61-10.297-10.297-10.297Z" fill="#fff"/><path d="m181.942 273.421 3.786 6.016h53.259l3.511-6.016h-60.556Z" fill="#455A64"/><path d="M350.499 273.361H68.971v.898H350.5v-.898Z" fill="#455A64"/><path d="M122.995 216.269H98.951v49.361h24.044v-49.361Zm37.884-24.768h-24.044v74.129h24.044v-74.129Zm39.218 0h-24.044v74.129h24.044v-74.129Zm80.413-36.043h-24.044V265.63h24.044V155.458Zm36.786-23.748h-24.044v133.927h24.044V131.71Z" fill="#EBEBEB"/><path d="m148.968 211.539 28.057-40.397 52.724-41.107 28.425 75.381s-32.224 20.627-40.604 22.704c-8.381 2.077-14.505 1.856-23.783 15.409l-44.819-31.99Zm120.2-93.851c.79-.041 10.437 6.927 5.004 12.601-5.781 6.03-26.388 23.629-26.388 23.629s-10.451-.978-8.201-7.001c2.251-6.023 29.585-29.229 29.585-29.229Z" fill="#FFBF9D"/><path d="M277.401 220.764a60.9 60.9 0 0 1-14.979-1.079 60.484 60.484 0 0 1-47.527-46.895 60.482 60.482 0 0 1 24.601-62.07l53.294-37.155 16.38 23.495-53.287 37.155a31.842 31.842 0 0 0 36.11 52.456l52.925-40.196 17.338 22.777-53.428 40.612-.254.181a59.98 59.98 0 0 1-31.173 10.719Z" fill="#7A6BDE"/><path d="m335.197 178.947 5.299 6.84 21.74-16.521-4.623-6.056-22.416 15.737Zm-52.845-72.313 4.408 6.063 22.41-15.63-4.408-6.17-22.41 15.737Z" fill="#E0E0E0"/><path d="M277.455 220.844a60.91 60.91 0 0 1-14.98-1.078 60.492 60.492 0 0 1-44.546-81.642 60.498 60.498 0 0 1 21.641-27.33l53.287-37.155 16.387 23.502-53.294 37.154a31.843 31.843 0 1 0 36.116 52.456l52.925-40.196 17.338 22.778-53.42 40.611-.262.181a60.026 60.026 0 0 1-31.192 10.719Z" fill="#000" opacity=".3"/><path d="M272.953 214.667a60.951 60.951 0 0 1-14.986-1.078 60.493 60.493 0 0 1-47.52-46.902 60.49 60.49 0 0 1 24.601-62.07l53.287-37.155 16.386 23.502-53.293 37.154a31.843 31.843 0 0 0 36.116 52.45l52.925-40.196 17.352 23.072-53.468 40.33-.255.181a60.043 60.043 0 0 1-31.145 10.712Z" fill="#7A6BDE"/><path d="m247.737 164.771 1.715-1.34c3.879-4.247 3.189-8.334-.784-10.98a5.239 5.239 0 0 0-2.485-.938c-4.321-.328-15.315 1.34-19.931 3.457-4.616 2.117-6.793 7.409-3.725 11.141s7.041 2.968 13.399 2.264a36.632 36.632 0 0 0 11.811-3.604Zm-14.571 7.959s-6.405 4.609-3.785 9.787c2.619 5.179 5.714 4.777 11.342 3.866 5.627-.911 14.289-9.346 14.289-9.346s3.497-5.252.67-8.937c-3.832-4.997-6.987-2.934-10.277-1.762-3.289 1.173-12.239 6.392-12.239 6.392Z" fill="#FFBF9D"/><path d="M246.94 185.258s-4.609 8.388 1.393 11.288c5.32 2.573 10.049-2.492 12.91-6.545 2.861-4.053 5.4-7.497 1.34-10.612-3.846-2.947-5.929-3.262-8.428-1.487-3.745 2.626-7.215 7.356-7.215 7.356Zm-82.001 4.019s11.711-31.963 15.53-40.002c3.818-8.039 27.018-26.563 27.018-26.563l24.232-11.067s9.051 10.631-1.97 18.389a204.239 204.239 0 0 1-20.996 12.95l-2.284 15.328s7.108 36.572-21.773 58.66l-19.757-27.695Z" fill="#FFBF9D"/><path d="M209.484 142.944a.763.763 0 0 1-.054.174l-.174.502a50.195 50.195 0 0 0-.67 1.93 42.564 42.564 0 0 0-1.528 7.369 78.588 78.588 0 0 0-.435 11.114c.074 4.188.362 8.797.342 13.654.055 4.561-.47 9.11-1.561 13.539a31.278 31.278 0 0 1-4.69 10.109 22.059 22.059 0 0 1-5.359 5.3l-.992.67c-.295.181-.556.301-.757.415l-.476.248-.167.074a.79.79 0 0 1 .154-.108l.449-.274c.201-.121.455-.255.743-.442l.972-.67a23.151 23.151 0 0 0 5.205-5.36 31.468 31.468 0 0 0 4.569-10.049 54.444 54.444 0 0 0 1.508-13.499c0-4.83-.262-9.44-.315-13.64a76.267 76.267 0 0 1 .509-11.154 39.726 39.726 0 0 1 1.648-7.37c.288-.837.529-1.487.717-1.916l.207-.489a.86.86 0 0 1 .155-.127Z" fill="#FF9A6C"/><path d="m265.423 83.52 16.929 23.114 22.41-15.737-16.306-23.642-23.033 16.266Zm52.483 73.855 18.041 22.483 21.847-16.427-17.244-23.133-22.644 17.077Z" fill="#E0E0E0"/><path d="M243.496 151.533c.267-.052.539-.076.811-.074h.442l.529.034.61.04.67.134a7.248 7.248 0 0 1 5.547 5.038 7.262 7.262 0 0 1-.556 3.349 10.215 10.215 0 0 1-3.49 4.288 17.068 17.068 0 0 1-4.02 2.077c-1.199.449-2.198.73-2.888.924a7.066 7.066 0 0 1-1.085.255 6.601 6.601 0 0 1 1.045-.382c.67-.234 1.662-.549 2.841-1.025a17.887 17.887 0 0 0 3.912-2.11 10.123 10.123 0 0 0 3.35-4.161 6.944 6.944 0 0 0 .536-3.202 7.152 7.152 0 0 0-2.285-3.443 7.282 7.282 0 0 0-2.981-1.467l-.67-.148-.596-.067-.523-.06h-.435a4.43 4.43 0 0 1-.764 0Zm12.562 23.716c-.08.192-.188.37-.322.529-.221.329-.563.791-1.005 1.34a33.037 33.037 0 0 1-3.798 4.02 23.013 23.013 0 0 1-4.522 3.209c-.491.271-.999.508-1.521.71a2.357 2.357 0 0 1-.59.187c0-.053.777-.395 2.01-1.112a27.505 27.505 0 0 0 4.415-3.256 44.805 44.805 0 0 0 3.839-3.932c.468-.591.966-1.157 1.494-1.695Z" fill="#FF9A6C"/><path d="m88.781 265.629 59.444-60.763 53.34 43.184-13.734 17.673-99.05-.094Z" fill="#7A6BDE"/><path d="M118.982 122.411a21.052 21.052 0 0 1 5.064-2.204l1.045-5.018 8.475-.147 1.219 4.977a20.689 20.689 0 0 1 5.146 2.01l4.28-2.807 6.104 5.889-2.68 4.381a20.775 20.775 0 0 1 2.204 5.065l5.018 1.045.147 8.475-4.977 1.219a20.775 20.775 0 0 1-2.01 5.145l2.807 4.281-5.889 6.103-4.375-2.68a20.816 20.816 0 0 1-5.071 2.204l-1.045 5.018-8.475.147-1.219-4.977a20.814 20.814 0 0 1-5.145-2.01l-4.281 2.807-6.097-5.889 2.68-4.374a21.108 21.108 0 0 1-2.204-5.072l-5.011-1.045-.154-8.475 4.977-1.219a20.853 20.853 0 0 1 2.01-5.145l-2.807-4.281 5.889-6.096 4.381 2.679-.006-.006Zm4.502 11.261a9.087 9.087 0 0 0-1.8 9.94 9.092 9.092 0 1 0 1.8-9.94Z" fill="#E0E0E0"/><path d="M102.903 172.187a15.083 15.083 0 0 1 3.685-1.601l.764-3.651 6.17-.107.884 3.617a15.29 15.29 0 0 1 3.745 1.474l3.115-2.01 4.442 4.288-1.936 3.189a15.119 15.119 0 0 1 1.608 3.684l3.651.764.107 6.17-3.624.885a15.078 15.078 0 0 1-1.474 3.745l2.01 3.115-4.281 4.441-3.189-1.929a15.115 15.115 0 0 1-3.692 1.601l-.757 3.651-6.17.108-.837-3.625a14.828 14.828 0 0 1-3.738-1.467l-3.122 2.043-4.435-4.287 1.93-3.189a15 15 0 0 1-1.602-3.692l-3.651-.797-.107-6.17 3.617-.884a15.29 15.29 0 0 1 1.474-3.745l-2.01-3.122 4.288-4.435 3.189 1.929-.054.007Zm3.29 8.22a6.62 6.62 0 0 0 4.891 11.204 6.622 6.622 0 0 0 6.352-8.015 6.62 6.62 0 0 0-1.864-3.356 6.621 6.621 0 0 0-9.359.167h-.02Zm59.557-59.155c.78-.47 1.617-.835 2.492-1.086l.509-2.465 4.167-.074.597 2.446a9.98 9.98 0 0 1 2.525.998l2.111-1.38 2.994 2.894-1.34 2.15c.471.777.836 1.613 1.086 2.486l2.458.516.074 4.167-2.445.596c-.216.882-.55 1.732-.992 2.526l1.38 2.103-2.894 2.995-2.15-1.3c-.778.471-1.617.834-2.493 1.079l-.509 2.465-4.167.074-.596-2.445a10.168 10.168 0 0 1-2.526-.992l-2.07 1.367-3.001-2.894 1.306-2.151a10.075 10.075 0 0 1-1.078-2.492l-2.466-.516-.073-4.16 2.445-.603a10.15 10.15 0 0 1 .991-2.526l-1.38-2.077 2.895-2.994 2.15 1.34v-.047Zm2.217 5.547a4.474 4.474 0 0 0-.881 4.886 4.467 4.467 0 0 0 6.646 1.886 4.472 4.472 0 0 0 1.61-2.034 4.476 4.476 0 0 0-1.057-4.852 4.477 4.477 0 0 0-6.318.114Zm71.65 105.24h-24.044v33.591h24.044v-33.591Z" fill="#EBEBEB"/><path d="M110.319 168.77a8.465 8.465 0 0 0-9.111-.234 10.046 10.046 0 0 0-16.031-5.018 10.153 10.153 0 0 0-15.107 1.14 10.153 10.153 0 0 0-2.05 5.238c-4.02.214-8.14 2.853-8.977 7.369h54.613a8.47 8.47 0 0 0-3.337-8.495Z" fill="#fff"/><path d="M110.32 168.77s.18.114.515.368c.484.395.92.844 1.3 1.34a8.788 8.788 0 0 1 1.387 2.68 8.32 8.32 0 0 1 .221 4.1v.073h-.074l-54.613.088h-.221l.047-.208.067-.268a8.774 8.774 0 0 1 3.35-5.185 10.553 10.553 0 0 1 5.687-2.01l-.16.154a10.31 10.31 0 0 1 17.418-6.465h-.194a10.256 10.256 0 0 1 5.4-2.244 9.965 9.965 0 0 1 5.231.824 10.34 10.34 0 0 1 5.615 6.491l-.134-.053a8.395 8.395 0 0 1 3.925-1.193 8.842 8.842 0 0 1 3.002.382c.594.19 1.165.446 1.701.764.355.228.53.362.53.362s-.054 0-.148-.074l-.402-.248a8.797 8.797 0 0 0-1.708-.71 8.756 8.756 0 0 0-2.968-.335 8.21 8.21 0 0 0-3.839 1.206l-.1.067v-.121a10.183 10.183 0 0 0-5.507-6.344 9.715 9.715 0 0 0-5.105-.777 10.05 10.05 0 0 0-5.239 2.197l-.1.087-.094-.093a10.005 10.005 0 0 0-10.42-2.161 10.001 10.001 0 0 0-6.47 8.451v.148h-.147c-1.986.11-3.898.796-5.5 1.976a8.379 8.379 0 0 0-3.249 4.978 1.996 1.996 0 0 0-.06.254l-.175-.207 54.614.087-.087.073a8.278 8.278 0 0 0-.181-4.019 8.556 8.556 0 0 0-2.579-4.02l-.369-.301c-.134-.074-.174-.108-.167-.114Z" fill="#263238"/><path d="M200.044 242.201a8.26 8.26 0 0 0-8.903-.234 9.798 9.798 0 0 0-6.512-6.706 9.796 9.796 0 0 0-9.171 1.802 9.936 9.936 0 0 0-16.749 6.237c-3.912.208-7.959 2.794-8.776 7.188h53.414a8.258 8.258 0 0 0-3.303-8.287Z" fill="#fff"/><path d="M200.044 242.201s.181.114.509.362a8.374 8.374 0 0 1 2.613 3.973c.41 1.3.486 2.682.221 4.019v.074h-.074l-53.414.08h-.221l.054-.207.06-.262a8.517 8.517 0 0 1 3.31-5.071 10.346 10.346 0 0 1 5.567-2.01l-.161.154a10.097 10.097 0 0 1 2.04-5.203 10.093 10.093 0 0 1 15.01-1.121h-.194a10.049 10.049 0 0 1 5.285-2.191 9.704 9.704 0 0 1 5.119.804 10.124 10.124 0 0 1 5.46 6.378l-.134-.053a8.082 8.082 0 0 1 3.838-1.166 8.627 8.627 0 0 1 2.935.368 7.813 7.813 0 0 1 1.668.751c.342.221.509.355.509.355l-.134-.074-.402-.241a9.015 9.015 0 0 0-1.668-.67 8.592 8.592 0 0 0-2.901-.322 7.983 7.983 0 0 0-3.752 1.179l-.1.061-.034-.114a9.93 9.93 0 0 0-5.359-6.204 9.43 9.43 0 0 0-4.991-.757 9.808 9.808 0 0 0-5.125 2.144l-.101.087-.093-.094a9.788 9.788 0 0 0-10.184-2.105 9.796 9.796 0 0 0-4.35 3.218 9.792 9.792 0 0 0-1.974 5.037v.148h-.147a10.046 10.046 0 0 0-5.359 1.929 8.227 8.227 0 0 0-3.176 4.871l-.06.247-.174-.207 53.414.087-.087.074a8.05 8.05 0 0 0-.181-3.933 8.41 8.41 0 0 0-2.519-3.953l-.362-.288-.181-.154Z" fill="#263238"/><path d="M319.119 240.292a8.264 8.264 0 0 0-8.91-.234 9.803 9.803 0 0 0-6.508-6.707 9.793 9.793 0 0 0-9.169 1.803 9.934 9.934 0 0 0-16.775 6.237c-3.919.208-7.959 2.793-8.776 7.188h53.407a8.254 8.254 0 0 0-3.269-8.287Z" fill="#fff"/><path d="M319.119 240.292s.181.107.509.355c.473.398.9.847 1.273 1.34a8.535 8.535 0 0 1 1.34 2.633c.407 1.3.483 2.682.221 4.019v.074h-.081l-53.407.081h-.221l.047-.201.06-.262a8.556 8.556 0 0 1 3.316-5.071 10.344 10.344 0 0 1 5.567-2.01l-.16.154a10.084 10.084 0 0 1 12.11-8.938 10.094 10.094 0 0 1 4.94 2.614h-.195a10.05 10.05 0 0 1 5.286-2.184 9.708 9.708 0 0 1 5.118.804 10.074 10.074 0 0 1 5.454 6.378l-.134-.054a8.135 8.135 0 0 1 3.845-1.166 8.473 8.473 0 0 1 2.934.369 7.991 7.991 0 0 1 1.669.75c.341.221.509.355.509.355l-.141-.073-.395-.242a8.393 8.393 0 0 0-4.569-1.025 8.044 8.044 0 0 0-3.752 1.186l-.107.06-.034-.113a9.928 9.928 0 0 0-5.359-6.204 9.45 9.45 0 0 0-4.991-.757 9.719 9.719 0 0 0-5.125 2.144l-.101.08-.093-.087a9.788 9.788 0 0 0-10.184-2.105 9.781 9.781 0 0 0-6.324 8.255v.147h-.187a10.012 10.012 0 0 0-5.36 1.93 8.235 8.235 0 0 0-3.182 4.87l-.06.248-.168-.208 53.408.088-.087.067a7.986 7.986 0 0 0-.175-3.926 8.415 8.415 0 0 0-2.525-3.946l-.355-.295-.134-.134Z" fill="#263238"/><path d="M164.102 148.98a5.408 5.408 0 0 0-5.815-.154 6.393 6.393 0 0 0-7.394-4.544 6.403 6.403 0 0 0-2.843 1.348 6.472 6.472 0 0 0-6.776-1.441 6.48 6.48 0 0 0-4.204 5.508c-2.552.14-5.192 1.822-5.728 4.689h34.87a5.4 5.4 0 0 0-2.11-5.406Z" fill="#fff"/><path d="M164.102 148.98c.463.276.864.643 1.179 1.079a5.5 5.5 0 0 1 1.045 4.354v.067h-.073c-7.102.054-20.098.087-34.871.087h-.221l.047-.207.04-.168a5.648 5.648 0 0 1 2.191-3.35 6.788 6.788 0 0 1 3.665-1.339l-.161.154a6.636 6.636 0 0 1 7.976-5.887 6.638 6.638 0 0 1 3.252 1.726h-.194a6.5 6.5 0 0 1 10.411 3.29l-.134-.054a5.35 5.35 0 0 1 2.525-.757 5.516 5.516 0 0 1 1.923.248c.517.145.998.396 1.414.737a6.79 6.79 0 0 0-1.441-.67 5.604 5.604 0 0 0-1.889-.201 5.164 5.164 0 0 0-2.432.77l-.107.067v-.12a6.447 6.447 0 0 0-3.497-4.02 6.373 6.373 0 0 0-6.559.905l-.1.087-.094-.094a6.328 6.328 0 0 0-6.66-1.388 6.317 6.317 0 0 0-4.066 5.454v.148h-.147a6.462 6.462 0 0 0-3.477 1.253 5.312 5.312 0 0 0-2.057 3.142l-.033.16-.175-.207c14.806 0 27.769.033 34.871.08l-.094.074a5.184 5.184 0 0 0-.107-2.553 5.445 5.445 0 0 0-.838-1.701 6.674 6.674 0 0 0-1.112-1.166Z" fill="#263238"/><path d="M446.319 145.992a12.79 12.79 0 0 1-6.648-7.21 12.81 12.81 0 0 1 3.346-13.837 12.802 12.802 0 0 1 14.055-2.206 12.81 12.81 0 1 1-10.753 23.253Z" fill="#fff"/><path d="M446.319 145.993c.07.01.138.03.201.06l.57.215c.306.126.622.227.944.301a9.49 9.49 0 0 0 1.34.308c1.209.223 2.444.263 3.665.121a12.734 12.734 0 0 0 4.622-1.434 12.465 12.465 0 0 0 4.328-3.852 12.73 12.73 0 0 0 2.284-6.264 12.02 12.02 0 0 0-.221-3.624 14.87 14.87 0 0 0-.509-1.816 14.622 14.622 0 0 0-.81-1.735 12.58 12.58 0 0 0-13.56-6.27 14.25 14.25 0 0 0-1.849.509 13.69 13.69 0 0 0-1.708.79 11.961 11.961 0 0 0-2.908 2.178 12.719 12.719 0 0 0-3.296 5.795 12.59 12.59 0 0 0-.1 5.835c.345 1.59.99 3.1 1.902 4.448a12.288 12.288 0 0 0 2.466 2.713c.343.291.708.555 1.092.791.269.193.551.368.844.522l.529.295c.12.067.181.107.174.114a.738.738 0 0 1-.187-.08l-.55-.268a6.018 6.018 0 0 1-.864-.496 8.254 8.254 0 0 1-1.105-.777 11.995 11.995 0 0 1-2.546-2.713 12.905 12.905 0 0 1-1.923-10.458 13.014 13.014 0 0 1 3.35-5.956 12.253 12.253 0 0 1 2.974-2.244 13.956 13.956 0 0 1 1.756-.811 14.997 14.997 0 0 1 1.895-.529 12.902 12.902 0 0 1 13.928 6.438c.315.577.59 1.175.824 1.789.213.609.386 1.231.516 1.862.263 1.221.337 2.475.221 3.718a12.848 12.848 0 0 1-6.867 10.317 12.89 12.89 0 0 1-4.689 1.407c-1.24.128-2.491.065-3.711-.187a8.696 8.696 0 0 1-1.34-.335 5.42 5.42 0 0 1-.932-.342l-.562-.241a1.222 1.222 0 0 1-.188-.094Z" fill="#263238"/><path d="M452.764 134.711a3.133 3.133 0 0 0 2.921-1.849 2.968 2.968 0 0 0-.416-3.347 2.966 2.966 0 0 0-3.28-.787 2.97 2.97 0 0 0-1.664 1.628 3.153 3.153 0 0 0 .476 3.457c-4.408-1.286-6.291 3.283-6.291 3.283l9.721 4.549s2.331-4.429-1.467-6.934Z" fill="#7A6BDE"/><path d="M326.575 138.047a15.53 15.53 0 0 1-21.887-1.742 15.53 15.53 0 0 1 13.045-25.553 15.517 15.517 0 0 1 13.54 10.691 15.516 15.516 0 0 1-.943 11.848 15.513 15.513 0 0 1-3.755 4.756Z" fill="#fff"/><path d="m326.575 138.047.174-.187.523-.523.388-.375c.141-.148.275-.322.429-.496.364-.405.699-.835 1.005-1.286a14.976 14.976 0 0 0 2.01-3.98c.626-1.873.887-3.849.77-5.821a15.262 15.262 0 0 0-2.01-6.794 15.468 15.468 0 0 0-5.754-5.701 15.459 15.459 0 0 0-1.97-.951 16.43 16.43 0 0 0-2.144-.67 17.75 17.75 0 0 0-2.258-.362 17.107 17.107 0 0 0-2.331 0 14.905 14.905 0 0 0-4.643 1.072 16.187 16.187 0 0 0-4.2 2.539 16.58 16.58 0 0 0-3.176 3.745 15.046 15.046 0 0 0-1.795 4.415 17.27 17.27 0 0 0-.375 2.305c-.054.76-.054 1.524 0 2.284.083 1.478.397 2.934.931 4.315a15.361 15.361 0 0 0 11.114 9.694c1.929.424 3.921.477 5.869.154a14.777 14.777 0 0 0 4.241-1.34 11.48 11.48 0 0 0 1.433-.791c.201-.12.389-.228.556-.341l.436-.322.596-.436c.064-.054.134-.101.208-.14l-.188.167-.576.463-.422.341c-.168.114-.355.228-.556.355-.452.314-.93.589-1.427.824a14.766 14.766 0 0 1-4.268 1.421 15.577 15.577 0 0 1-17.311-9.895 16.285 16.285 0 0 1-.67-2.137 16.007 16.007 0 0 1-.315-2.265 18.24 18.24 0 0 1 0-2.338c.075-.791.202-1.577.382-2.351a15.346 15.346 0 0 1 1.836-4.522 15.555 15.555 0 0 1 7.543-6.425 15.16 15.16 0 0 1 4.744-1.092 16.654 16.654 0 0 1 2.385 0c.775.073 1.545.199 2.304.375.746.17 1.478.394 2.191.67.691.281 1.362.608 2.01.978a15.767 15.767 0 0 1 5.842 5.842 15.6 15.6 0 0 1 1.185 12.816 14.52 14.52 0 0 1-2.077 4.019c-.31.453-.655.881-1.031 1.28-.161.174-.302.348-.442.489l-.402.368-.55.496-.214.114Z" fill="#263238"/><path d="M317.424 125.231a3.798 3.798 0 0 0-.556-4.154 3.597 3.597 0 0 0-2.465-1.421 3.578 3.578 0 0 0-2.723.822 3.59 3.59 0 0 0-1.049 3.984c.17.458.432.877.77 1.231a3.8 3.8 0 0 0 4.019 1.226c-3.651 4.207.423 8.595.423 8.595l9.941-8.401s-3.671-4.79-8.36-1.882Z" fill="#7A6BDE"/><path d="M389.403 188.708a9.533 9.533 0 0 0 0-13.482 9.533 9.533 0 0 0-13.482 0 9.533 9.533 0 0 0 0 13.482 9.533 9.533 0 0 0 13.482 0Z" fill="#fff"/><path d="M392.195 181.968a16.554 16.554 0 0 0-.362-2.311 9.506 9.506 0 0 0-3.477-5.172 9.374 9.374 0 0 0-8.89-1.34 9.409 9.409 0 0 0-4.341 3.269 9.323 9.323 0 0 0 0 11.068 8.993 8.993 0 0 0 2.01 2.009 8.811 8.811 0 0 0 2.365 1.28 9.52 9.52 0 0 0 4.93.422 9.519 9.519 0 0 0 7.437-6.914c.174-.761.295-1.533.362-2.311a.443.443 0 0 1 0 .154v.456a4.678 4.678 0 0 1-.061.737 7.363 7.363 0 0 1-.174.998 9.36 9.36 0 0 1-1.032 2.572 9.638 9.638 0 0 1-6.485 4.589 9.685 9.685 0 0 1-5.091-.402 9.122 9.122 0 0 1-2.459-1.339 9.25 9.25 0 0 1-2.057-2.057 9.648 9.648 0 0 1 0-11.469 9.694 9.694 0 0 1 4.516-3.35 9.695 9.695 0 0 1 5.091-.402 9.474 9.474 0 0 1 4.02 1.829 9.578 9.578 0 0 1 2.432 2.76c.472.8.82 1.668 1.032 2.572.081.329.139.662.174.999.04.243.06.49.06.737v.455a.397.397 0 0 1 0 .161Z" fill="#263238"/><path d="M378.548 181.459a2.554 2.554 0 0 1 .57-1.427 2.46 2.46 0 0 1 1.226-.871 2.006 2.006 0 0 1 2.244.884 1.983 1.983 0 0 1 2.07-1.065c.511.083.982.33 1.34.703.381.359.641.827.744 1.34a3.11 3.11 0 0 1-.268 1.936 4.447 4.447 0 0 1-1.42 1.514c-.952.67-2.205 1.481-2.205 1.481s-1.152-.75-2.177-1.286a4.39 4.39 0 0 1-1.601-1.34 3.116 3.116 0 0 1-.523-1.869Z" fill="#7A6BDE"/><path d="M31.524 167.573c8.877-4.267 12.615-14.922 8.349-23.799-4.267-8.877-14.922-12.615-23.8-8.348-8.877 4.266-12.614 14.921-8.348 23.798 4.267 8.878 14.922 12.615 23.8 8.349Z" fill="#fff"/><path d="M41.638 151.499a1.333 1.333 0 0 1 0-.288l-.06-.844-.041-.623c0-.228-.074-.475-.114-.743a12.936 12.936 0 0 0-.375-1.836 17.116 17.116 0 0 0-2.01-4.69 17.689 17.689 0 0 0-21.25-7.543c-.791.285-1.561.625-2.305 1.018-.756.409-1.482.873-2.17 1.387a20.054 20.054 0 0 0-2.01 1.708 19.617 19.617 0 0 0-1.729 1.997 17.127 17.127 0 0 0-2.525 4.863 17.506 17.506 0 0 0 0 11.148 17.17 17.17 0 0 0 2.525 4.871 19.47 19.47 0 0 0 1.729 2.043 19.923 19.923 0 0 0 2.01 1.708c.69.514 1.415.98 2.17 1.394.744.39 1.514.728 2.305 1.011a17.728 17.728 0 0 0 21.25-7.543 17.172 17.172 0 0 0 2.01-4.69c.17-.602.294-1.215.375-1.835.04-.275.087-.516.114-.744l.04-.623.027-.884a1.429 1.429 0 0 1 0-.288 1.54 1.54 0 0 1 0 .288v1.48c0 .228-.06.476-.1.751a12.091 12.091 0 0 1-.349 1.855 16.801 16.801 0 0 1-1.943 4.784 18.057 18.057 0 0 1-26.08 5.332 20.702 20.702 0 0 1-2.05-1.735 21.227 21.227 0 0 1-1.762-2.083 17.164 17.164 0 0 1-2.58-4.965 17.79 17.79 0 0 1 0-11.388 17.493 17.493 0 0 1 2.58-4.965 20.343 20.343 0 0 1 1.768-2.083 19.148 19.148 0 0 1 2.044-1.722c.702-.525 1.44-1 2.21-1.42a18.9 18.9 0 0 1 2.345-1.025 17.958 17.958 0 0 1 9.453-.757 17.934 17.934 0 0 1 12.059 8.501 16.76 16.76 0 0 1 1.943 4.79c.165.609.281 1.229.348 1.856.04.268.08.516.1.75v1.474c.027.101.042.204.047.308Z" fill="#263238"/><path d="M16.106 150.541a4.793 4.793 0 0 1 1.065-2.68 4.573 4.573 0 0 1 2.291-1.621 3.718 3.718 0 0 1 4.194 1.648 3.752 3.752 0 0 1 1.025-1.259 3.803 3.803 0 0 1 2.86-.751c.945.182 1.81.65 2.48 1.34a4.826 4.826 0 0 1 1.386 2.533 5.83 5.83 0 0 1-.495 3.611 8.237 8.237 0 0 1-2.68 2.833c-1.775 1.226-4.127 2.774-4.127 2.774s-2.15-1.407-4.073-2.405a8.272 8.272 0 0 1-2.995-2.472 5.856 5.856 0 0 1-.93-3.551Z" fill="#7A6BDE"/><path d="M235.042 72.782a9.868 9.868 0 0 1-4.544-6.041 9.864 9.864 0 0 1 1.06-7.485 9.888 9.888 0 0 1 13.526-3.49 9.874 9.874 0 0 1 4.548 6.043 9.874 9.874 0 0 1-1.058 7.49 9.88 9.88 0 0 1-13.532 3.483Z" fill="#fff"/><path d="M235.041 72.789a18.94 18.94 0 0 0 2.258.89 9.868 9.868 0 0 0 6.445-.374 9.708 9.708 0 0 0 5.875-7.243 8.959 8.959 0 0 0 .107-2.786 9.118 9.118 0 0 0-.73-2.814 9.681 9.681 0 0 0-9.901-5.842 9.297 9.297 0 0 0-2.821.717 8.944 8.944 0 0 0-2.385 1.447 9.702 9.702 0 0 0-3.504 8.629 9.888 9.888 0 0 0 2.787 5.828 17.402 17.402 0 0 0 1.869 1.54l-.16-.073-.402-.248a4.81 4.81 0 0 1-.63-.442 6.24 6.24 0 0 1-.791-.67 9.18 9.18 0 0 1-1.755-2.278 10.006 10.006 0 0 1-.67-8.2 10.053 10.053 0 0 1 3.035-4.327 9.644 9.644 0 0 1 2.465-1.501 9.432 9.432 0 0 1 2.915-.75 9.967 9.967 0 0 1 10.23 6.03 9.917 9.917 0 0 1 .629 5.794 9.965 9.965 0 0 1-6.083 7.41 9.9 9.9 0 0 1-3.738.71 9.303 9.303 0 0 1-2.84-.436 6.824 6.824 0 0 1-.985-.361 4.392 4.392 0 0 1-.67-.335l-.409-.235-.141-.08Z" fill="#263238"/><path d="M240.857 64.622a2.412 2.412 0 0 0 2.384-1.192 2.277 2.277 0 0 0 .36-1.786 2.296 2.296 0 0 0-1.062-1.481 2.283 2.283 0 0 0-3.21.929 2.437 2.437 0 0 0 .101 2.68c-3.283-1.34-5.085 2.01-5.085 2.01l7.114 4.247s2.131-3.19-.602-5.407Z" fill="#7A6BDE"/><path d="M408.686 66.463c11.765-5.948 16.48-20.307 10.532-32.072-5.948-11.764-20.307-16.48-32.072-10.532-11.765 5.948-16.48 20.307-10.532 32.072 5.948 11.765 20.307 16.48 32.072 10.532Z" fill="#fff"/><path d="M407.724 37.583a6.405 6.405 0 0 0-2.103-4.489 8.088 8.088 0 0 0-5.152-1.888 16.98 16.98 0 0 0-5.473.89 8.502 8.502 0 0 0-2.841 1.3 11.978 11.978 0 0 0-3.765 5.145 21.124 21.124 0 0 0-.436 6.887c.206.648.6 1.22 1.133 1.642.367 1.513 1 2.949 1.869 4.24.589-.924 1.172-1.855 1.755-2.78l15.013-10.947Z" fill="#263238"/><path d="m407.315 35.533-2.84-1.232c.71 4.234-.925 13.15-.958 17.418 1.46-1.34 5.132-5.554 5.446-7.503.315-1.95 1.943-8.187-1.648-8.683Z" fill="#263238"/><path d="M391.773 38.636a5.198 5.198 0 0 1 4.897-3.759l7.222-.134c3.022.382 4.134 4.469 3.631 7.47-.556 3.35-1.246 6.827-2.204 9.191-1.936 4.75-5.862 4.496-5.862 4.496s-.549 2.345-.891 3.778l-2.8 6.117-8.039-6.21 4.019-20.89c.014-.086-.013.054.027-.06Z" fill="#FFBF9D"/><path d="M404.964 45.91a.669.669 0 0 1-.988.413.621.621 0 0 1-.292-.633.67.67 0 0 1 .994-.412.617.617 0 0 1 .286.633Zm1.367-1.942c-.101.06-.496-.402-1.179-.563-.684-.16-1.253.067-1.34-.033-.087-.1.087-.174.341-.281.344-.135.72-.16 1.079-.074.354.081.674.274.911.55.201.207.241.374.188.401Zm-7.443.302a.671.671 0 0 1-.996.412.624.624 0 0 1-.28-.394.62.62 0 0 1-.004-.246.673.673 0 0 1 .757-.496.625.625 0 0 1 .514.478c.019.08.022.164.009.246Zm.985-1.823c-.101.06-.496-.402-1.179-.563-.684-.16-1.26.068-1.34 0-.081-.066.087-.174.341-.28.344-.136.72-.161 1.079-.075.354.08.673.27.911.543.194.181.235.342.188.375Zm.864 5.843a4.567 4.567 0 0 1 1.152.06c.181 0 .348 0 .409-.088a.981.981 0 0 0 0-.542l-.208-1.447a23.736 23.736 0 0 1-.349-3.725c.322 1.21.546 2.445.67 3.691.058.505.119.987.181 1.447a1 1 0 0 1-.073.67.444.444 0 0 1-.342.188 1.391 1.391 0 0 1-.308 0 4.63 4.63 0 0 1-1.132-.255Z" fill="#263238"/><path d="M393.334 52.61s.811 3.765 5.849 4.455l.274-1.159a12.797 12.797 0 0 1-6.123-3.296Z" fill="#FF9A6C"/><path d="M400.234 39.935c-.107.174-.77-.074-1.587-.167-.818-.094-1.521 0-1.588-.215 0-.087.127-.234.429-.355.398-.145.826-.19 1.246-.134.418.048.819.193 1.172.422.268.188.382.396.328.45Zm6.365 1.895c-.154.128-.59-.14-1.153-.28-.562-.141-1.065-.134-1.132-.322-.067-.188.081-.228.322-.328.325-.1.673-.1.998 0 .328.083.623.265.844.522.161.174.188.349.121.409Z" fill="#263238"/><path d="M407.249 37.396a2.23 2.23 0 0 0-1.628-1.682 4.369 4.369 0 0 0-2.432.128c-3.35 1.005-5.809 4.75-9.118 5.822-.817.26-1.655-.355-2.392.073a2.153 2.153 0 0 0-1.199 2.097 7.195 7.195 0 0 1-.603-1.943 2.38 2.38 0 0 1 .536-1.903c.348-.374.871-.602 1.112-1.058.133-.436.221-.885.261-1.34.155-.438.412-.833.751-1.152a13.114 13.114 0 0 1 5.882-3.845 8.543 8.543 0 0 1 4.616-.08 6.547 6.547 0 0 1 3.725 2.599c.509.763 1.045 1.547.515 2.29" fill="#263238"/><path d="M391.606 42.367c0-.154-2.372-1.688-3.049 1.038-.676 2.727 2.137 2.754 2.164 2.68.027-.074.885-3.718.885-3.718Z" fill="#FFBF9D"/><path d="M390.152 44.879s-.054 0-.141.04a.488.488 0 0 1-.348-.08 1.159 1.159 0 0 1-.275-1.152 1.56 1.56 0 0 1 .288-.63.564.564 0 0 1 .436-.268.233.233 0 0 1 .241.194v.14c0 .014.067 0 .074-.147a.339.339 0 0 0-.061-.194.367.367 0 0 0-.241-.127.671.671 0 0 0-.583.295 1.609 1.609 0 0 0-.341.67 1.222 1.222 0 0 0 .395 1.306.487.487 0 0 0 .435.033c.101-.013.128-.073.121-.08Z" fill="#FF9A6C"/><path d="M390.869 40.752a.732.732 0 0 0 .181-.053c.12-.04.294-.087.515-.174a9.416 9.416 0 0 0 1.735-.965 25.878 25.878 0 0 0 2.292-1.87 21.086 21.086 0 0 1 2.834-2.21 8.79 8.79 0 0 1 1.674-.784 7.077 7.077 0 0 1 1.695-.328 7.622 7.622 0 0 1 2.894.315c.632.19 1.236.462 1.796.81.201.121.348.235.449.302.1.067.154.107.16.1a1.33 1.33 0 0 0-.147-.12c-.1-.074-.234-.194-.435-.322a7.276 7.276 0 0 0-1.796-.857 7.902 7.902 0 0 0-2.934-.349 7.25 7.25 0 0 0-1.715.335 8.523 8.523 0 0 0-1.722.79 21.41 21.41 0 0 0-2.84 2.238 28.22 28.22 0 0 1-2.265 1.876c-.536.385-1.108.717-1.708.992-.214.093-.389.154-.503.2l-.16.074Z" fill="#fff"/><path d="M391.358 41.663a4.279 4.279 0 0 0-.242 2.198 1.44 1.44 0 0 0 1.642 1.145c.583-.174.891-.797 1.119-1.34.669-1.627 1.165-3.35 1.828-4.937l-4.347 2.934Z" fill="#263238"/><path d="M406.893 35.976s-.227-.1-.67-.215a4.763 4.763 0 0 0-1.828-.093 6.72 6.72 0 0 0-1.24.308 14.306 14.306 0 0 0-4.127 2.472c-.449.395-.857.81-1.293 1.186a6.571 6.571 0 0 1-1.34.944c-.824.423-1.694.748-2.592.972-.764.2-1.394.321-1.822.402l-.503.087h-.174a.506.506 0 0 1 .167-.054l.496-.114c.429-.1 1.052-.234 1.809-.442.886-.23 1.744-.556 2.559-.971a6.794 6.794 0 0 0 1.34-.938c.422-.369.831-.784 1.286-1.186a13.845 13.845 0 0 1 2.827-1.883c.435-.223.883-.422 1.34-.596.411-.14.836-.24 1.267-.294a4.498 4.498 0 0 1 1.862.147c.161.048.318.108.469.18a.86.86 0 0 1 .167.088Z" fill="#455A64"/><path d="M391.646 40.002a1.034 1.034 0 0 1-.275.107l-.764.235-.254.08a.952.952 0 0 1-.315 0 .315.315 0 0 1-.168-.087.22.22 0 0 1-.06-.201.582.582 0 0 1 .208-.301l1.072-1.066.08.121a2.64 2.64 0 0 1-.951.221 2.96 2.96 0 0 1-.978-.107.831.831 0 0 1-.228-.1.332.332 0 0 1-.168-.228.293.293 0 0 1 .108-.255c.061-.05.126-.095.194-.134a6.043 6.043 0 0 0 1.172-.925 9.12 9.12 0 0 0 .864-1.092c-.04.121-.097.236-.167.342-.178.294-.384.57-.616.824a5.616 5.616 0 0 1-1.179.972c-.121.073-.248.154-.228.248.02.093.154.167.295.2.3.087.612.124.924.108.309-.02.613-.092.898-.215l.375-.154-.288.282-1.092 1.051a.519.519 0 0 0-.174.228.132.132 0 0 0 .073.14.132.132 0 0 0 .054.014c.178.001.355-.028.523-.087l.777-.194c.095-.017.191-.026.288-.027Z" fill="#fff"/><path d="M397.856 48.932a.907.907 0 0 1 1.072-.455.939.939 0 0 1 .596.67 1.162 1.162 0 0 1-.167.89v.061a1.04 1.04 0 0 1-1.199 0 .981.981 0 0 1-.302-1.166Z" fill="#FF9A6C"/><path d="M399.819 50.239c0-.1-.67-.235-1.059-.918-.388-.683-.167-1.413-.268-1.44-.1-.027-.167.14-.227.455-.082.407-.018.829.18 1.193.192.348.512.607.891.723.289.08.476.034.483-.013Z" fill="#263238"/><path d="M406.384 63.45a14.318 14.318 0 0 0-2.968-2.68l-4.568-2.29a5.364 5.364 0 0 1-5.983 1.714 6.931 6.931 0 0 1-4.435-4.69s-6.472-.837-11.195 1.669a23.972 23.972 0 0 0 31.233 9.506 28.771 28.771 0 0 0-2.084-3.229Z" fill="#455A64"/><path d="M374.964 51.224s.047.12.128.368c.08.248.201.616.355 1.085.073.242.161.51.254.797.094.289.248.597.396.939.307.785.672 1.546 1.092 2.277a23.112 23.112 0 0 0 4.133 5.514 23.958 23.958 0 0 0 18.363 6.927c1.013-.066 2.02-.2 3.015-.402.502-.107 1.011-.188 1.521-.322l1.507-.468c.254-.08.509-.148.757-.242l.744-.315c.495-.214.998-.408 1.494-.67a25.219 25.219 0 0 0 2.847-1.681 23.99 23.99 0 0 0 2.679-2.09c.423-.389.811-.81 1.22-1.22.417-.417.802-.865 1.152-1.34a27.2 27.2 0 0 0 2.057-2.894 26.5 26.5 0 0 0 1.587-3.249 23.188 23.188 0 0 0 1.695-7.202 25.61 25.61 0 0 0-.669-7.59 25.376 25.376 0 0 0-3.002-6.934l-1.058-1.554-1.199-1.427a5.544 5.544 0 0 0-.63-.67l-.67-.67-.67-.67-.71-.576a26.942 26.942 0 0 0-2.941-2.11 27.486 27.486 0 0 0-3.189-1.561 11.169 11.169 0 0 0-1.635-.61c-.556-.167-1.098-.355-1.655-.496a24.443 24.443 0 0 0-3.349-.562 25.023 25.023 0 0 0-3.31-.128c-.549 0-1.085.1-1.621.141l-.804.08c-.261 0-.522.094-.784.141l-1.547.308c-.509.12-.998.302-1.494.442a21.21 21.21 0 0 0-2.841 1.08 23.957 23.957 0 0 0-12.842 14.873 22.784 22.784 0 0 0-1.019 6.819 16.97 16.97 0 0 0 .121 2.519c0 .368.053.67.094 1.011.04.342.114.576.16.824.088.483.155.858.208 1.126.054.268.06.382.06.382s-.04-.128-.093-.376c-.054-.248-.141-.67-.242-1.118-.053-.248-.113-.523-.174-.824-.06-.302-.073-.67-.114-1.012a16.757 16.757 0 0 1-.16-2.532c-.03-2.33.297-4.65.971-6.88a24.13 24.13 0 0 1 12.936-15.04 22.39 22.39 0 0 1 2.888-1.106c.496-.14.991-.322 1.507-.449l1.568-.315c.268-.047.529-.114.797-.147l.811-.08c.542-.047 1.085-.121 1.641-.148a26.456 26.456 0 0 1 6.74.683c.569.148 1.118.335 1.681.503.568.165 1.123.371 1.662.616 1.113.452 2.194.98 3.235 1.581a27.589 27.589 0 0 1 2.982 2.13l.723.59.67.67.67.67c.242.204.466.428.67.67l1.213 1.447 1.078 1.574a23.908 23.908 0 0 1 3.738 14.793 23.326 23.326 0 0 1-1.721 7.302 27.405 27.405 0 0 1-1.608 3.296 28.109 28.109 0 0 1-2.131 2.928 12.29 12.29 0 0 1-1.172 1.34c-.415.408-.811.844-1.239 1.232a24.734 24.734 0 0 1-2.747 2.117 26.403 26.403 0 0 1-2.894 1.702c-.496.234-1.012.428-1.508.67l-.757.315c-.247.1-.509.16-.77.247l-1.527.47c-.51.133-1.032.214-1.541.321a21.824 21.824 0 0 1-3.049.395 24.117 24.117 0 0 1-18.537-7.074 22.766 22.766 0 0 1-4.12-5.594 17.041 17.041 0 0 1-1.072-2.298c-.134-.342-.274-.67-.382-.945-.107-.274-.167-.57-.234-.81a72.433 72.433 0 0 1-.322-1.1c-.073-.26-.067-.414-.067-.414Z" fill="#263238"/><path d="M420.372 148.682c13.57-13.571 13.57-35.573 0-49.143-13.571-13.57-35.573-13.57-49.144 0-13.57 13.57-13.57 35.572 0 49.143 13.571 13.571 35.573 13.571 49.144 0Z" fill="#fff"/><path d="M412.226 121.795c-.194-3.29.094-6.606-.261-9.882s-1.467-6.639-3.926-8.83c-2.458-2.19-6.505-2.813-9.051-.723l-.355 2.84a60015.18 60015.18 0 0 1 5.856 37.805 13.13 13.13 0 0 0 1.393 4.797c.864 1.433 2.472 2.559 4.134 2.338 2.17-.288 3.443-2.606 3.979-4.73 1.923-7.718-1.3-15.683-1.769-23.615Z" fill="#263238"/><path d="M403.115 105.307a9.096 9.096 0 0 0-1.836-2.143 3.117 3.117 0 0 0-2.679-.67 1.29 1.29 0 0 0-.972.817c-.12.435.235.971.67.904l.101.074a99.256 99.256 0 0 0 3.182 2.338c.258.212.557.369.878.462a.893.893 0 0 0 .904-.261c.375-.449.06-1.065-.248-1.521Z" fill="#7A6BDE"/><path d="M405.199 108.403a16.615 16.615 0 0 0-13.298-5.487c-2.928.161-4.087.851-6.15 1.568a9.253 9.253 0 0 0-5.012 3.845 15.485 15.485 0 0 0-2.492 7.255 42.824 42.824 0 0 0 .181 7.973 14.539 14.539 0 0 0 3.008 7.289l6.82.669c3.732-.14 7.517-.281 11.081-1.386 3.564-1.106 6.954-3.31 8.669-6.619 2.358-4.576.757-11.336-2.807-15.107Z" fill="#263238"/><path d="M389.046 143.521c-.12-2.372-.247-5.36-.247-5.326 0 .033-5.541-.221-7.557-7.155-.999-3.45-1.555-9.245-1.849-14.002-.268-4.274 2.961-10.357 8.24-10.719l2.331-.435 9.239 2.934a2.513 2.513 0 0 1 2.545 2.244l2.526 30.951-5.078 10.049-10.866-7.255.716-1.286Z" fill="#CC6760"/><path d="M391.693 128.641a1.51 1.51 0 0 0-.583-.884 1.539 1.539 0 0 0-1.869 0 2.048 2.048 0 0 0-.67 1.976 1.865 1.865 0 0 0 1.394.67c.082.007.165.007.247 0 .42-.027.813-.214 1.099-.522a1.507 1.507 0 0 0 .382-1.24Z" fill="#9D4941"/><path d="M382.615 122.331a.908.908 0 0 0 .992.803.866.866 0 0 0 .786-.588.868.868 0 0 0 .044-.343.918.918 0 0 0-.991-.81.887.887 0 0 0-.612.294.871.871 0 0 0-.219.644Zm-1.447-3.028c.127.107.75-.489 1.728-.61.979-.12 1.756.275 1.849.141.094-.134-.1-.255-.442-.442a2.495 2.495 0 0 0-1.494-.262 2.38 2.38 0 0 0-1.34.63c-.288.268-.361.496-.301.543Zm6.847 7.248a6.16 6.16 0 0 0-1.621-.087c-.255 0-.496 0-.556-.181a1.263 1.263 0 0 1 .067-.763c.161-.63.328-1.3.502-2.01.67-2.834 1.146-5.152 1.032-5.179-.114-.027-.764 2.251-1.447 5.085-.161.67-.315 1.34-.469 2.01a1.499 1.499 0 0 0 0 .998.623.623 0 0 0 .455.315c.143.02.287.02.429 0a6.452 6.452 0 0 0 1.608-.188Z" fill="#263238"/><path d="M388.799 138.195a18.163 18.163 0 0 0 9.158-3.725s-1.903 5.226-9.071 5.453l-.087-1.728Z" fill="#9D4941"/><path d="M390.976 126.859c-.161 0 0 1.072-.844 1.943s-1.956.891-1.943 1.038c.013.148.275.174.757.127a2.677 2.677 0 0 0 1.628-.81c.424-.432.664-1.01.67-1.615-.047-.449-.194-.696-.268-.683Zm-9.714-11.013c.194.214.924 0 1.802-.074.878-.073 1.641.101 1.802-.14.074-.114-.053-.335-.382-.536a2.677 2.677 0 0 0-1.48-.322 2.586 2.586 0 0 0-1.427.496c-.308.234-.402.469-.315.576Zm12.494 5.459a.916.916 0 0 1-1.117.964.878.878 0 0 1-.548-.403.887.887 0 0 1-.117-.326.919.919 0 0 1 .797-.998.882.882 0 0 1 .985.763Zm.657-3.323c-.101.134-.838-.321-1.816-.227-.978.093-1.655.669-1.775.529-.121-.141.04-.275.335-.529a2.455 2.455 0 0 1 1.407-.57 2.417 2.417 0 0 1 1.46.328c.302.208.442.416.389.469Zm-.811-3.068c-.174.235-.951.074-1.862.141-.912.067-1.669.301-1.863.08-.087-.107 0-.335.328-.576a2.97 2.97 0 0 1 3.002-.187c.341.174.449.395.395.542Z" fill="#263238"/><path d="M401.367 123.054c-.061-.529.388-1.849.897-2.01 1.34-.395 3.886-.596 4.355 2.928.636 4.823-4.334 4.468-4.361 4.334-.027-.134-.663-3.43-.891-5.252Z" fill="#CC6760"/><path d="M403.356 126.391s.094.047.242.094a.88.88 0 0 0 .629-.074 2.108 2.108 0 0 0 .717-2.01 2.782 2.782 0 0 0-.395-1.172.98.98 0 0 0-.717-.563.432.432 0 0 0-.469.295c-.047.147 0 .234 0 .248 0 .013-.114-.067-.1-.268a.528.528 0 0 1 .147-.329.672.672 0 0 1 .449-.187 1.207 1.207 0 0 1 .978.63c.258.391.419.839.469 1.306.1.978-.282 1.949-.951 2.244a.907.907 0 0 1-.784 0c-.195-.1-.235-.207-.215-.214Z" fill="#9D4941"/><path d="m402.465 121.064-1.138 1.34c-5.675-4.689-16.957-16.708-16.327-15.991a15.515 15.515 0 0 1 7.537-1.34c4.02.395 11.63 1.842 11.844 6.505.215 4.663-1.916 9.486-1.916 9.486Z" fill="#263238"/><path d="M409.426 119.497a.995.995 0 0 0-.094-.275 4.543 4.543 0 0 0-.382-.744 6.95 6.95 0 0 0-2.184-2.13 13.174 13.174 0 0 0-4.214-1.675c-1.661-.415-3.517-.67-5.359-1.34a23.729 23.729 0 0 1-4.978-2.338 25.07 25.07 0 0 1-3.584-2.713 28.244 28.244 0 0 1-2.117-2.177l-.529-.637a2.707 2.707 0 0 0-.201-.214c.042.09.096.173.161.248.107.147.268.382.495.67.638.794 1.33 1.544 2.071 2.244a23.398 23.398 0 0 0 8.602 5.159c1.761.54 3.55.987 5.359 1.339 1.471.297 2.882.838 4.174 1.602a7.323 7.323 0 0 1 2.197 2.009c.422.603.563.978.583.972Z" fill="#455A64"/><path d="M408.073 120.354a2.596 2.596 0 0 0-.261-1.045 5.033 5.033 0 0 0-2.01-2.15 11.067 11.067 0 0 0-4.154-1.3 23.698 23.698 0 0 1-5.131-1.233 21.508 21.508 0 0 1-7.959-5.252 21.711 21.711 0 0 1-1.876-2.231l-.462-.67c-.108-.147-.161-.221-.175-.214.036.085.081.166.134.241l.422.67a20.567 20.567 0 0 0 1.829 2.291 20.965 20.965 0 0 0 7.999 5.36 22.939 22.939 0 0 0 5.186 1.232c1.431.139 2.821.555 4.093 1.226a5.036 5.036 0 0 1 2.01 2.01c.15.344.269.7.355 1.065Z" fill="#455A64"/><path d="M402.887 129.271c0-.033.402-.114 1.106-.355a6.993 6.993 0 0 0 2.606-1.702 9.809 9.809 0 0 0 2.244-4.019c.54-1.836.766-3.75.67-5.661a14.71 14.71 0 0 0-.442-2.921 13.635 13.635 0 0 0-3.779-6.297 22.85 22.85 0 0 0-3.45-2.607c.098.03.193.07.281.121.175.094.443.214.764.415a14.733 14.733 0 0 1 2.566 1.91 13.664 13.664 0 0 1 2.887 3.758c.43.837.775 1.715 1.032 2.62.26.976.413 1.978.456 2.987a16.78 16.78 0 0 1-.67 5.762 9.82 9.82 0 0 1-2.365 4.1 6.702 6.702 0 0 1-2.727 1.668c-.276.085-.558.15-.844.194a.86.86 0 0 1-.335.027Z" fill="#455A64"/><path d="M418.008 143.293c-2.325-1.34-6.123-1.34-6.123-1.34l-7.417-.509s-3.651 5.889-9.185 5.868c-5.533-.02-6.397-3.677-6.397-3.677s-9.246 2.184-14.176 8.206c6.284 4.516 13.492 7.416 22.61 7.021 8.14-.107 18.43-4.301 24.681-11.878a12.853 12.853 0 0 0-3.993-3.691Z" fill="#7A6BDE"/><path d="M430.462 121.661s-.033-.188-.087-.556c-.054-.369-.121-.925-.214-1.642a96.605 96.605 0 0 1-.154-1.205c-.054-.443-.208-.912-.322-1.434-.114-.523-.248-1.072-.389-1.668a5.088 5.088 0 0 0-.261-.905c-.1-.308-.208-.629-.321-.951a33.098 33.098 0 0 0-4.482-8.937 34.682 34.682 0 0 0-9.48-9.185l-1.568-1.005c-.549-.308-1.125-.582-1.694-.877-.57-.295-1.139-.63-1.756-.858l-1.849-.737-.944-.368-.985-.282-2.01-.569c-.67-.168-1.34-.261-2.07-.402a17.271 17.271 0 0 0-2.124-.322 32.96 32.96 0 0 0-4.401-.2c-.744 0-1.501 0-2.258.073l-2.271.281c-.382.054-.77.074-1.152.155l-1.139.26c-.757.182-1.528.322-2.291.537a37.33 37.33 0 0 0-4.509 1.675l-1.112.502c-.188.087-.375.16-.556.255l-.536.308-2.131 1.212c-.703.443-1.339.952-2.063 1.434-.335.248-.67.47-1.018.75l-.958.831a38.022 38.022 0 0 0-3.678 3.604l-1.621 2.091-.402.522-.362.55-.717 1.112-.717 1.118-.616 1.186-.61 1.186-.308.603c-.087.201-.167.415-.255.623l-.998 2.479-.75 2.619a34.29 34.29 0 0 0 1.534 21.773c.375.831.744 1.662 1.119 2.486.375.824.898 1.567 1.34 2.351l.341.583.389.549.77 1.092.778 1.086.864 1.004.864 1.005.435.496.476.456 1.889 1.802a38.544 38.544 0 0 0 4.154 3.055l1.065.67c.355.227.75.395 1.119.596.75.375 1.48.784 2.237 1.132l2.305.918.569.228.59.174 1.179.335c1.539.445 3.106.787 4.69 1.025.783.107 1.567.14 2.344.214l1.166.094h1.159l2.291-.047c.757-.04 1.501-.167 2.245-.241a32.442 32.442 0 0 0 4.327-.817 17.917 17.917 0 0 0 2.057-.623c.67-.235 1.34-.423 2.01-.67l1.889-.845.931-.415.885-.496 1.728-.991c.557-.335 1.096-.7 1.615-1.092.522-.375 1.058-.73 1.554-1.112l1.413-1.22a34.47 34.47 0 0 0 8.093-10.424 33.072 33.072 0 0 0 3.176-9.473c.067-.335.127-.67.187-.984a5.84 5.84 0 0 0 .134-.938c.054-.61.101-1.179.148-1.709.047-.529.1-1.011.114-1.46.013-.449 0-.851 0-1.219v-2.218.563c0 .368 0 .938.053 1.655 0 .368 0 .77.034 1.219.033.449-.067.938-.101 1.467-.033.529-.08 1.105-.127 1.715-.017.318-.06.634-.127.945-.061.315-.114.67-.181.991a32.857 32.857 0 0 1-3.136 9.533 34.63 34.63 0 0 1-8.099 10.525l-1.42 1.233c-.503.388-1.039.743-1.561 1.125-.523.382-1.045.784-1.628 1.106l-1.742.998-.884.502-.938.422-1.91.858c-.67.268-1.34.462-2.009.67-.677.251-1.369.461-2.071.63-1.433.373-2.89.651-4.361.83-.75.081-1.5.208-2.264.255l-2.311.047c-.389 0-.784.033-1.173 0l-1.172-.094c-.784-.074-1.581-.107-2.372-.208a37.283 37.283 0 0 1-4.743-1.031l-1.186-.335c-.194-.061-.395-.114-.589-.181l-.583-.228-2.298-.878c-.764-.341-1.501-.757-2.264-1.139-.369-.201-.764-.368-1.126-.603l-1.079-.669a39.293 39.293 0 0 1-4.193-3.075l-1.91-1.829-.482-.456-.435-.502-.871-1.012-.878-1.012-.831-1.118-.784-1.106-.395-.549-.341-.59-1.34-2.371c-.376-.838-.757-1.675-1.133-2.519a34.628 34.628 0 0 1-1.554-21.981c.261-.891.516-1.768.764-2.646.248-.878.67-1.702 1.012-2.546.087-.208.167-.422.254-.63l.315-.603.616-1.199.623-1.199.724-1.125.723-1.126.362-.556.416-.522c.542-.67 1.092-1.387 1.634-2.071a38.894 38.894 0 0 1 3.712-3.637l.978-.838c.321-.281.67-.502 1.025-.757.67-.482 1.34-.991 2.083-1.447l2.171-1.24.543-.307c.18-.094.375-.175.562-.255l1.126-.51a36.475 36.475 0 0 1 4.549-1.68c.77-.215 1.547-.362 2.318-.543l1.145-.255c.382-.08.777-.107 1.159-.16l2.298-.275c.764-.067 1.521-.04 2.271-.067a32.39 32.39 0 0 1 4.442.207 17.32 17.32 0 0 1 2.137.335c.67.134 1.407.235 2.09.409l2.01.576.991.288.952.375 1.862.744c.623.234 1.179.583 1.762.864a29.72 29.72 0 0 1 1.708.898l1.581 1.018a34.584 34.584 0 0 1 9.5 9.272 32.866 32.866 0 0 1 4.449 9.004c.113.328.214.67.314.958.112.298.2.605.262.918.127.596.254 1.152.368 1.675.114.522.235.998.302 1.44.067.442.1.851.14 1.213.081.714.141 1.264.181 1.648.034.368.047.556.047.556Z" fill="#263238"/><path d="M361.064 62.666c.494-12.354-9.12-22.77-21.475-23.263-12.354-.495-22.769 9.12-23.264 21.474-.494 12.354 9.121 22.77 21.475 23.264 12.354.494 22.77-9.12 23.264-21.475Z" fill="#fff"/><path d="M332.216 73.05v-2.68s-4.69-.449-5.052-5.111c-.16-2.258-.12-6.928-.033-11.155a8.707 8.707 0 0 1 8.193-8.515h.449c4.877 0 7.604 4.127 7.477 9.004l-.168 18.29-7.885 6.33-.576-.046-2.405-6.117Z" fill="#FFBF9D"/><path d="M332.202 70.35a11.34 11.34 0 0 0 5.976-2.163s-1.279 3.497-5.962 3.35l-.014-1.187Z" fill="#FF9A6C"/><path d="M335.063 56.1c.087.095.67-.334 1.413-.34.744-.008 1.34.374 1.441.274.1-.1-.047-.215-.302-.395a2.01 2.01 0 0 0-1.159-.349 1.9 1.9 0 0 0-1.125.395c-.235.195-.315.369-.268.416Zm.576 2.131a.642.642 0 0 0 .423.57.627.627 0 0 0 .247.033.608.608 0 0 0 .438-.174.598.598 0 0 0-.03-.878.626.626 0 0 0-.462-.16.611.611 0 0 0-.616.61Zm-2.606 3.276a4.235 4.235 0 0 0-1.173-.14c-.187 0-.361 0-.402-.161a.931.931 0 0 1 .088-.55l.462-1.427a24.71 24.71 0 0 0 .998-3.725 24.565 24.565 0 0 0-1.3 3.638c-.147.496-.294.978-.428 1.434a1.017 1.017 0 0 0-.054.723.435.435 0 0 0 .315.248c.104.016.21.016.315 0 .393.034.789.02 1.179-.04Zm2.419-7.912c.073.174.67.047 1.447.1.777.054 1.339.222 1.447.054.107-.167-.074-.241-.322-.402a2.454 2.454 0 0 0-1.092-.321 2.333 2.333 0 0 0-1.119.207c-.268.128-.395.275-.361.362Zm-7.33.442c.081.141.67 0 1.434 0 .764 0 1.34.087 1.427-.06.087-.147-.081-.194-.335-.308a2.492 2.492 0 0 0-1.092-.194c-.378.003-.75.087-1.092.247-.255.114-.375.228-.342.315Z" fill="#263238"/><path d="M343.062 58.023c.08-.04 3.155-1.138 3.243 2.057.087 3.196-3.142 2.633-3.149 2.54-.007-.095-.094-4.596-.094-4.596Z" fill="#FFBF9D"/><path d="M344.08 61.38s.054.04.154.08c.134.05.282.05.416 0a1.384 1.384 0 0 0 .603-1.253 1.79 1.79 0 0 0-.181-.797.67.67 0 0 0-.429-.415.28.28 0 0 0-.322.167c-.04.087 0 .147-.04.154-.04.007-.067-.047-.047-.18a.379.379 0 0 1 .121-.208.455.455 0 0 1 .308-.087.773.773 0 0 1 .596.482c.143.273.217.576.215.884a1.443 1.443 0 0 1-.771 1.4.594.594 0 0 1-.516-.067c-.107-.087-.107-.154-.107-.16Z" fill="#FF9A6C"/><path d="M334.031 64.22c0-.08.596-.26 1.045-.837.186-.257.339-.536.456-.83.094-.235.167-.376.201-.37.033.008 0 .168 0 .423-.07.338-.214.656-.422.931a1.858 1.858 0 0 1-.824.61c-.288.1-.456.1-.456.073Zm13.352-11.315c-.67-1.139-.791-2.485-1.139-3.745-.348-1.26-1.032-2.572-2.258-3.028a3.348 3.348 0 0 0-3.39.275 4.373 4.373 0 0 0-3.256-3.444 10.786 10.786 0 0 0-5.788.382c-1.206.47-2.378 1.44-3.812 2.88a15.37 15.37 0 0 0-1.654 1.957l-1.468 4.335 1.179 2.297c.067.161.143.318.228.47l1.032 4.83c.08-1.34.047-5.882.134-7.189a7.318 7.318 0 0 0 5.246-2.345c.723-.783 1.299-1.768 2.264-2.23 1.246-.597 2.68-.134 4.02.334l-.054-.046a5.756 5.756 0 0 1 1.782 1.34c-.329 2.586-.1 5.213.67 7.704.121.375.442 1.145.804 1.293.717.288.918-.442 1.34-.824a1.882 1.882 0 0 1 1.34-.302c.373-1.083.679-2.188.917-3.31.432.143.892.18 1.34.108-.134-.328-.261-.67-.395-.992.169.128.363.22.569.268a.53.53 0 0 0 .55-.234c.094-.261-.067-.55-.201-.784Z" fill="#263238"/><path d="M339.096 46.93c.165.132.32.277.462.435.353.452.584.987.67 1.554.073.39.107.788.101 1.186 0 .435-.041.89-.081 1.34a11.29 11.29 0 0 0-.053 1.527c.011.272.042.543.093.81.036.286.147.557.322.785a.674.674 0 0 0 .67.234c.229-.04.439-.156.596-.328a2.41 2.41 0 0 0 .469-1.18h-.1c.135.355.323.687.556.985.222.28.544.462.897.51a.899.899 0 0 0 .483-.08.81.81 0 0 0 .335-.316.846.846 0 0 0 .1-.415.584.584 0 0 0-.147-.362l-.047.04a2.937 2.937 0 0 0 1.3.891h.114l-.108-.047a2.888 2.888 0 0 1-.301-.134 3.152 3.152 0 0 1-.951-.777l-.054.047a.589.589 0 0 1 0 .67.702.702 0 0 1-.295.282.877.877 0 0 1-.435.067 1.341 1.341 0 0 1-.838-.483 3.832 3.832 0 0 1-.536-.965l-.067-.147v.16a2.355 2.355 0 0 1-.442 1.126.993.993 0 0 1-.536.295.595.595 0 0 1-.556-.194 1.596 1.596 0 0 1-.295-.737 5.386 5.386 0 0 1-.093-.79c-.015-.508 0-1.016.047-1.521 0-.483.073-.945.073-1.38 0-.403-.04-.805-.12-1.2a3.29 3.29 0 0 0-.737-1.567 1.817 1.817 0 0 0-.496-.322Zm-14.444 4.34h.034l.113.087c.064.049.131.091.201.128.089.06.183.112.282.154a4.075 4.075 0 0 0 2.01.389 5.302 5.302 0 0 0 2.827-1.005 9.191 9.191 0 0 0 2.452-2.754c.348-.563.629-1.139.944-1.668.286-.516.642-.99 1.059-1.407a3.204 3.204 0 0 1 1.34-.797 2.39 2.39 0 0 1 .71-.074c.228.017.453.062.67.134a2.792 2.792 0 0 1 1.487 1.286c.1.215.176.44.228.67v-.187a2.522 2.522 0 0 0-.174-.53 2.645 2.645 0 0 0-.51-.716 2.798 2.798 0 0 0-.984-.63 2.912 2.912 0 0 0-.67-.14 2.354 2.354 0 0 0-.744.066 3.312 3.312 0 0 0-1.4.818 6.314 6.314 0 0 0-1.166 1.487c-.315.536-.603 1.112-.944 1.661a9.107 9.107 0 0 1-2.419 2.734 5.21 5.21 0 0 1-2.773 1.005 4.208 4.208 0 0 1-1.97-.342 4.8 4.8 0 0 1-.603-.369Z" fill="#455A64"/><path d="M327.941 56.302c.087.094.63-.335 1.414-.342.784-.007 1.34.375 1.44.282.101-.094-.053-.221-.301-.402a1.936 1.936 0 0 0-1.159-.342 1.905 1.905 0 0 0-1.126.389c-.207.194-.315.368-.268.415Zm1.193 2.023a.617.617 0 0 0 .208.442.621.621 0 0 0 .462.16.6.6 0 0 0 .408-1.051.62.62 0 0 0-.462-.16.603.603 0 0 0-.435.175.599.599 0 0 0-.181.434Zm-2.68-10.672a1.966 1.966 0 0 1-1.661.931 4.871 4.871 0 0 1-.67-.2c-.228.14-.174.917 0 1.131.146.185.31.356.489.51-.771.415-1.467.207-2.285-.088a4.022 4.022 0 0 0 2.325 3.21 1.408 1.408 0 0 0 1.286 0c.308-.254.511-.612.57-1.006.369-1.4.563-2.84.576-4.287l-.63-.201Z" fill="#263238"/><path d="M352.24 74.785c-1.487-1.138-4.113-1.52-4.113-1.52l-5.078-1.052s-3.082 3.731-6.908 3.196c-3.825-.537-4.073-3.15-4.073-3.15s-7.235 1.193-11.214 4.898c3.919 3.712 8.253 6.15 14.591 6.74 5.647.67 13.258-2.13 18.296-7.604 0 0 .12-.235-1.501-1.508Z" fill="#455A64"/><path d="M359.221 63.028v-2.211c0-.288-.054-.603-.081-.945a16.056 16.056 0 0 0-.314-2.331 21.356 21.356 0 0 0-2.091-6.077 22.386 22.386 0 0 0-14.309-11.389 20.892 20.892 0 0 0-2.787-.502c-.476-.047-.952-.127-1.441-.154h-2.211l-.75.06c-.496.054-1.005.08-1.507.148-2.062.328-4.072.92-5.983 1.762-.482.22-.951.489-1.433.73-.484.247-.949.526-1.394.837a24.065 24.065 0 0 0-2.68 1.97 25.904 25.904 0 0 0-2.338 2.425 21.556 21.556 0 0 0-3.564 5.895 22.072 22.072 0 0 0-.911 13.982 21.517 21.517 0 0 0 2.767 6.31 24.38 24.38 0 0 0 2.01 2.68 23.93 23.93 0 0 0 2.371 2.298c.4.367.825.706 1.273 1.012.449.301.878.63 1.34.911a22.3 22.3 0 0 0 2.807 1.46c.942.418 1.911.772 2.901 1.06.489.14.985.227 1.474.34l.737.162c.241.053.489.067.737.1l1.46.168c.482.04.972 0 1.447.04a21.02 21.02 0 0 0 2.827-.14 22.311 22.311 0 0 0 15.663-9.46 21.272 21.272 0 0 0 2.861-5.755c.263-.74.469-1.5.616-2.271.074-.329.154-.637.208-.918.054-.281.067-.55.094-.777l.141-1.059c0-.234.06-.355.06-.355v.362c0 .241-.06.603-.101 1.058 0 .235-.053.496-.087.784-.033.288-.12.59-.187.925a15.209 15.209 0 0 1-.59 2.291 21.072 21.072 0 0 1-2.827 5.829 22.457 22.457 0 0 1-15.79 9.633c-.949.116-1.905.167-2.861.154-.489 0-.978 0-1.467-.04l-1.487-.168c-.248 0-.496-.046-.744-.093l-.744-.161c-.495-.114-.998-.208-1.5-.342a24.599 24.599 0 0 1-2.941-1.072 23.903 23.903 0 0 1-2.848-1.474c-.462-.287-.897-.616-1.339-.924a11.139 11.139 0 0 1-1.334-1.059 23.943 23.943 0 0 1-2.411-2.33 25.992 25.992 0 0 1-2.044-2.748 21.817 21.817 0 0 1-2.813-6.404 22.36 22.36 0 0 1 .924-14.196 21.859 21.859 0 0 1 3.624-5.983 25.13 25.13 0 0 1 2.379-2.465 25.593 25.593 0 0 1 2.679-2.01c.453-.315.927-.597 1.421-.844.489-.248.958-.516 1.453-.744a24.418 24.418 0 0 1 6.077-1.768c.509-.074 1.018-.094 1.527-.148l.757-.06h2.245c.489 0 .978.107 1.46.16.951.107 1.893.28 2.82.517a22.5 22.5 0 0 1 14.411 11.603 21.409 21.409 0 0 1 2.05 6.143c.155.773.249 1.557.281 2.345 0 .342.06.67.067.945.007.274 0 .556 0 .79v1.066c0 .254-.06.422-.06.422Z" fill="#263238"/><path d="M73.138 133.585c26.703 0 48.349-21.646 48.349-48.349 0-26.703-21.646-48.35-48.349-48.35-26.703 0-48.35 21.647-48.35 48.35 0 26.703 21.647 48.349 48.35 48.349Z" fill="#7A6BDE"/><path opacity=".3" d="M73.138 133.585c26.703 0 48.349-21.646 48.349-48.349 0-26.703-21.646-48.35-48.349-48.35-26.703 0-48.35 21.647-48.35 48.35 0 26.703 21.647 48.349 48.35 48.349Z" fill="#000"/><path d="M71.832 130.49c26.702 0 48.349-21.647 48.349-48.35 0-26.702-21.647-48.349-48.35-48.349-26.702 0-48.349 21.647-48.349 48.35 0 26.702 21.647 48.349 48.35 48.349Z" fill="#7A6BDE"/><path d="M71.832 119.751c20.771 0 37.61-16.838 37.61-37.61s-16.839-37.61-37.61-37.61c-20.772 0-37.61 16.838-37.61 37.61s16.838 37.61 37.61 37.61Z" fill="#fff"/><path d="M90.542 100.859c10.334-10.334 10.334-27.09 0-37.424-10.335-10.334-27.09-10.334-37.424 0s-10.334 27.09 0 37.424 27.09 10.334 37.424 0Z" fill="#7A6BDE"/><path d="M81.702 92.02c5.453-5.453 5.453-14.293 0-19.745-5.452-5.453-14.292-5.453-19.744 0-5.453 5.452-5.453 14.292 0 19.744 5.452 5.453 14.292 5.453 19.744 0Z" fill="#fff"/><path d="m109.241 42.983-1.313-10.317 10.498-11.235.757 11.135-9.942 10.417Zm22.537-8.207-10.652-.864-10.679 10.27 10.679 1.14 10.652-10.546Z" fill="#455A64"/><path opacity=".3" d="m71.832 82.958 39.693-28.425a53.146 53.146 0 0 0-5.038-6.23L72.488 81.175l-.656 1.782Z" fill="#000"/><path d="m120.757 30.415-4.984 5.045-11.958 12.12-14.41 14.604L76.89 74.866c-2.01 2.05-4.147 4.02-6.097 6.176l-.087.087c-1.179 1.193.67 3.029 1.836 1.836l4.984-5.044L89.505 65.8l14.41-14.604 12.501-12.655c2.01-2.05 4.14-4.02 6.09-6.17l.087-.094c1.179-1.193-.67-3.028-1.836-1.836v-.027Z" fill="#263238"/></svg>