<svg width="40" height="40" viewBox="0 0 40 40" fill="none" xmlns="http://www.w3.org/2000/svg">
<circle cx="20" cy="20" r="19" fill="white" stroke="white" stroke-width="2"/>
<path d="M15.2627 18.3562V33.1708L19.871 16.5174" fill="url(#paint0_linear_436_11238)"/>
<path d="M33.4858 10.7325L16.6305 10.9499C16.6157 10.9489 16.6009 10.952 16.587 10.9589C16.5731 10.9658 16.5604 10.9764 16.5497 10.9901L15.2894 12.4474C15.2855 12.4515 15.2827 12.4571 15.2814 12.4635C15.2801 12.4699 15.2804 12.4767 15.2822 12.4828C15.284 12.4889 15.2873 12.4941 15.2915 12.4975C15.2957 12.501 15.3006 12.5024 15.3055 12.5018L25.2428 12.2996C25.2593 12.296 25.2761 12.3014 25.2897 12.3145C25.3033 12.3277 25.3124 12.3475 25.3151 12.3697C25.3177 12.3919 25.3138 12.4146 25.304 12.4329C25.2942 12.4511 25.2795 12.4634 25.263 12.467L12.2888 15.9283C12.2842 15.929 12.28 15.9317 12.2767 15.9359L7.8348 21.0795C7.8178 21.1028 7.80731 21.1333 7.80512 21.1658C7.80292 21.1983 7.80917 21.2308 7.82278 21.2578C7.83639 21.2848 7.85653 21.3046 7.87978 21.3139C7.90303 21.3232 7.92796 21.3214 7.95033 21.3088L33.5262 11.0021C33.5508 10.9923 33.5718 10.9704 33.585 10.9409C33.5982 10.9114 33.6027 10.8762 33.5976 10.8424C33.5926 10.8087 33.5783 10.7786 33.5576 10.7583C33.5369 10.7379 33.5113 10.7288 33.4858 10.7325Z" fill="url(#paint1_linear_436_11238)"/>
<path d="M15.2861 12.4768V15.1285L26.2729 12.192L15.2861 12.4768Z" fill="url(#paint2_linear_436_11238)"/>
<defs>
<linearGradient id="paint0_linear_436_11238" x1="15.997" y1="23.4265" x2="20.5375" y2="23.3849" gradientUnits="userSpaceOnUse">
<stop stop-color="#CCE0F4"/>
<stop offset="0.06" stop-color="#C3DCF2"/>
<stop offset="0.17" stop-color="#A9D2EE"/>
<stop offset="0.31" stop-color="#80C2E7"/>
<stop offset="0.46" stop-color="#47ACDE"/>
<stop offset="0.57" stop-color="#1E9CD7"/>
<stop offset="0.87" stop-color="#0075BE"/>
<stop offset="0.99" stop-color="#005B97"/>
</linearGradient>
<linearGradient id="paint1_linear_436_11238" x1="11.9151" y1="15.1245" x2="37.1677" y2="13.0852" gradientUnits="userSpaceOnUse">
<stop stop-color="#CCE0F4"/>
<stop offset="0.06" stop-color="#C3DCF2"/>
<stop offset="0.17" stop-color="#A9D2EE"/>
<stop offset="0.31" stop-color="#80C2E7"/>
<stop offset="0.46" stop-color="#47ACDE"/>
<stop offset="0.57" stop-color="#1E9CD7"/>
<stop offset="0.87" stop-color="#0075BE"/>
<stop offset="0.99" stop-color="#005B97"/>
</linearGradient>
<linearGradient id="paint2_linear_436_11238" x1="17.0369" y1="13.4103" x2="27.6987" y2="12.088" gradientUnits="userSpaceOnUse">
<stop stop-color="#CCE0F4"/>
<stop offset="0.06" stop-color="#C3DCF2"/>
<stop offset="0.17" stop-color="#A9D2EE"/>
<stop offset="0.31" stop-color="#80C2E7"/>
<stop offset="0.46" stop-color="#47ACDE"/>
<stop offset="0.57" stop-color="#1E9CD7"/>
<stop offset="0.87" stop-color="#0075BE"/>
<stop offset="0.99" stop-color="#005B97"/>
</linearGradient>
</defs>
</svg>
