<svg width="37" height="31" viewBox="0 0 37 31" fill="none" xmlns="http://www.w3.org/2000/svg">
<path d="M11.075 10.5332V31L17.5064 7.99292" fill="url(#paint0_linear_64_17330)"/>
<path d="M36.5073 0.00114767L12.9837 0.301422C12.963 0.300091 12.9424 0.304325 12.923 0.313871C12.9036 0.323417 12.8859 0.338077 12.8709 0.356972L11.112 2.37032C11.1065 2.37591 11.1026 2.3837 11.1008 2.39252C11.099 2.40134 11.0994 2.4107 11.102 2.41918C11.1045 2.42767 11.1091 2.43481 11.1149 2.43954C11.1208 2.44427 11.1277 2.44632 11.1345 2.44538L25.0031 2.16613C25.0261 2.16115 25.0497 2.16856 25.0686 2.18672C25.0876 2.20488 25.1003 2.23231 25.104 2.26297C25.1078 2.29363 25.1022 2.32501 25.0886 2.35021C25.0749 2.37541 25.0543 2.39236 25.0313 2.39734L6.9243 7.17921C6.91796 7.18017 6.91201 7.18386 6.90739 7.18973L0.708228 14.2957C0.684498 14.3279 0.669859 14.37 0.666799 14.4149C0.663739 14.4598 0.672449 14.5047 0.691443 14.542C0.710437 14.5793 0.738546 14.6068 0.770998 14.6196C0.80345 14.6325 0.838241 14.63 0.869464 14.6125L36.5637 0.37349C36.598 0.359955 36.6272 0.329817 36.6457 0.28901C36.6641 0.248203 36.6704 0.199679 36.6634 0.152989C36.6563 0.106299 36.6364 0.0648222 36.6075 0.036721C36.5786 0.0086198 36.5429 -0.00406886 36.5073 0.00114767Z" fill="url(#paint1_linear_64_17330)"/>
<path d="M11.1076 2.41088V6.07423L26.4409 2.01752L11.1076 2.41088Z" fill="url(#paint2_linear_64_17330)"/>
<defs>
<linearGradient id="paint0_linear_64_17330" x1="14.1283" y1="21.2606" x2="14.4361" y2="8.41201" gradientUnits="userSpaceOnUse">
<stop stop-color="#CCE0F4"/>
<stop offset="0.06" stop-color="#C3DCF2"/>
<stop offset="0.17" stop-color="#A9D2EE"/>
<stop offset="0.31" stop-color="#80C2E7"/>
<stop offset="0.46" stop-color="#47ACDE"/>
<stop offset="0.57" stop-color="#1E9CD7"/>
<stop offset="0.87" stop-color="#0075BE"/>
<stop offset="0.99" stop-color="#005B97"/>
</linearGradient>
<linearGradient id="paint1_linear_64_17330" x1="1.01717" y1="8.76767" x2="36.5021" y2="4.323" gradientUnits="userSpaceOnUse">
<stop stop-color="#CCE0F4"/>
<stop offset="0.06" stop-color="#C3DCF2"/>
<stop offset="0.17" stop-color="#A9D2EE"/>
<stop offset="0.31" stop-color="#80C2E7"/>
<stop offset="0.46" stop-color="#47ACDE"/>
<stop offset="0.57" stop-color="#1E9CD7"/>
<stop offset="0.87" stop-color="#0075BE"/>
<stop offset="0.99" stop-color="#005B97"/>
</linearGradient>
<linearGradient id="paint2_linear_64_17330" x1="13.551" y1="3.70056" x2="28.4262" y2="1.83682" gradientUnits="userSpaceOnUse">
<stop stop-color="#CCE0F4"/>
<stop offset="0.06" stop-color="#C3DCF2"/>
<stop offset="0.17" stop-color="#A9D2EE"/>
<stop offset="0.31" stop-color="#80C2E7"/>
<stop offset="0.46" stop-color="#47ACDE"/>
<stop offset="0.57" stop-color="#1E9CD7"/>
<stop offset="0.87" stop-color="#0075BE"/>
<stop offset="0.99" stop-color="#005B97"/>
</linearGradient>
</defs>
</svg>
