<svg width="247" height="127" viewBox="0 0 247 127" fill="none" xmlns="http://www.w3.org/2000/svg">
<path d="M236.228 70H208.651C208.64 70 208.63 70.0012 208.62 70.0016C208.609 70.002 208.599 70.0025 208.589 70.0031C208.549 70.0057 208.51 70.0101 208.473 70.0175C208.472 70.0176 208.471 70.0176 208.47 70.0179C208.429 70.026 208.39 70.0374 208.351 70.0507C208.344 70.0532 208.337 70.0558 208.33 70.0585C208.293 70.072 208.258 70.0874 208.223 70.1053C208.221 70.1065 208.219 70.1074 208.217 70.1086C208.181 70.1278 208.147 70.1497 208.114 70.1733C208.106 70.1786 208.099 70.1843 208.092 70.1898C208.059 70.2147 208.027 70.241 207.999 70.2699C207.998 70.27 207.998 70.2701 207.998 70.2702L198.149 80.119C198.149 80.1192 198.149 80.1193 198.149 80.1194C198.12 80.1485 198.094 80.18 198.069 80.2126C198.063 80.22 198.058 80.2273 198.052 80.2346C198.029 80.2675 198.007 80.3016 197.987 80.3374C197.986 80.3399 197.985 80.3424 197.984 80.3448C197.966 80.3788 197.951 80.4141 197.937 80.4505C197.935 80.4577 197.932 80.4649 197.929 80.4722C197.916 80.5108 197.905 80.5502 197.897 80.5909C197.896 80.5924 197.896 80.594 197.896 80.5955C197.889 80.6325 197.884 80.6704 197.882 80.7089C197.881 80.7197 197.881 80.7304 197.88 80.7412C197.88 80.7517 197.879 80.7618 197.879 80.7721V124.107C197.879 125.702 199.177 127 200.772 127H236.228C237.823 127 239.121 125.702 239.121 124.107V72.8931C239.121 71.2978 237.823 70 236.228 70ZM207.728 73.1524V78.8024C207.728 79.3794 207.258 79.8488 206.681 79.8488H201.031L207.728 73.1524ZM237.274 124.107C237.274 124.684 236.805 125.153 236.228 125.153H200.772C200.195 125.153 199.726 124.684 199.726 124.107V81.6955H206.681C208.277 81.6955 209.574 80.3976 209.574 78.8024V71.8467H236.228C236.805 71.8467 237.274 72.3161 237.274 72.8931V124.107Z" fill="white" fill-opacity="0.6"/>
<path d="M206.681 85.6352H230.318C230.828 85.6352 231.242 85.222 231.242 84.7119C231.242 84.2019 230.828 83.7886 230.318 83.7886H206.681C206.171 83.7886 205.758 84.2019 205.758 84.7119C205.758 85.222 206.171 85.6352 206.681 85.6352Z" fill="white" fill-opacity="0.6"/>
<path d="M206.681 90.5595H230.318C230.828 90.5595 231.242 90.1463 231.242 89.6362C231.242 89.1262 230.828 88.7129 230.318 88.7129H206.681C206.171 88.7129 205.758 89.1262 205.758 89.6362C205.758 90.1463 206.171 90.5595 206.681 90.5595Z" fill="white" fill-opacity="0.6"/>
<path d="M206.681 95.4839H230.318C230.828 95.4839 231.242 95.0706 231.242 94.5605C231.242 94.0505 230.828 93.6372 230.318 93.6372H206.681C206.171 93.6372 205.758 94.0505 205.758 94.5605C205.758 95.0706 206.171 95.4839 206.681 95.4839Z" fill="white" fill-opacity="0.6"/>
<path d="M206.681 100.408H230.318C230.828 100.408 231.242 99.9949 231.242 99.4848C231.242 98.9748 230.828 98.5615 230.318 98.5615H206.681C206.171 98.5615 205.758 98.9748 205.758 99.4848C205.758 99.9949 206.171 100.408 206.681 100.408Z" fill="white" fill-opacity="0.6"/>
<path d="M206.681 105.332H230.318C230.828 105.332 231.242 104.919 231.242 104.409C231.242 103.899 230.828 103.486 230.318 103.486H206.681C206.171 103.486 205.758 103.899 205.758 104.409C205.758 104.919 206.171 105.332 206.681 105.332Z" fill="white" fill-opacity="0.6"/>
<path d="M218.5 110.38H206.681C206.171 110.38 205.758 110.794 205.758 111.304C205.758 111.814 206.171 112.227 206.681 112.227H218.5C219.01 112.227 219.423 111.814 219.423 111.304C219.423 110.794 219.01 110.38 218.5 110.38Z" fill="white" fill-opacity="0.6"/>
<path d="M218.5 115.305H206.681C206.171 115.305 205.758 115.718 205.758 116.228C205.758 116.738 206.171 117.151 206.681 117.151H218.5C219.01 117.151 219.423 116.738 219.423 116.228C219.423 115.718 219.01 115.305 218.5 115.305Z" fill="white" fill-opacity="0.6"/>
<path d="M226.871 112.35C226.09 112.35 225.455 112.985 225.455 113.766C225.455 114.547 226.09 115.182 226.871 115.182C227.651 115.182 228.287 114.547 228.287 113.766C228.287 112.985 227.651 112.35 226.871 112.35Z" fill="white" fill-opacity="0.6"/>
<path d="M226.871 108.411C223.918 108.411 221.516 110.813 221.516 113.766C221.516 116.719 223.918 119.121 226.871 119.121C229.824 119.121 232.226 116.719 232.226 113.766C232.226 110.813 229.824 108.411 226.871 108.411ZM226.871 117.275C224.936 117.275 223.362 115.701 223.362 113.766C223.362 111.831 224.936 110.257 226.871 110.257C228.806 110.257 230.38 111.831 230.38 113.766C230.38 115.701 228.806 117.275 226.871 117.275Z" fill="white" fill-opacity="0.6"/>
<path d="M178.936 42H137.813C137.797 42 137.782 42.0018 137.766 42.0024C137.75 42.0029 137.735 42.0037 137.72 42.0046C137.661 42.0084 137.603 42.0151 137.547 42.0261C137.545 42.0263 137.545 42.0263 137.543 42.0266C137.482 42.0387 137.423 42.0558 137.365 42.0756C137.355 42.0793 137.344 42.0832 137.334 42.0872C137.279 42.1074 137.226 42.1303 137.175 42.157C137.172 42.1588 137.168 42.1601 137.165 42.1619C137.111 42.1906 137.061 42.2232 137.012 42.2585C137 42.2664 136.99 42.2748 136.979 42.2831C136.93 42.3202 136.883 42.3595 136.84 42.4024C136.84 42.4026 136.839 42.4028 136.839 42.403L122.152 57.0898C122.152 57.09 122.152 57.0902 122.152 57.0903C122.108 57.1337 122.069 57.1807 122.032 57.2293C122.024 57.2403 122.016 57.2512 122.008 57.2622C121.972 57.3112 121.94 57.3621 121.911 57.4155C121.909 57.4191 121.907 57.4228 121.906 57.4265C121.879 57.4772 121.856 57.5298 121.836 57.584C121.832 57.5948 121.828 57.6055 121.824 57.6165C121.804 57.674 121.788 57.7327 121.775 57.7935C121.775 57.7957 121.775 57.7981 121.774 57.8003C121.764 57.8555 121.757 57.9121 121.753 57.9694C121.752 57.9855 121.751 58.0015 121.751 58.0176C121.751 58.0332 121.749 58.0483 121.749 58.0637V122.686C121.749 125.065 123.684 127 126.063 127H178.936C181.315 127 183.25 125.065 183.25 122.686V46.3143C183.25 43.9354 181.315 42 178.936 42ZM136.436 46.7009V55.1264C136.436 55.9868 135.736 56.6868 134.875 56.6868H126.45L136.436 46.7009ZM180.496 122.686C180.496 123.546 179.796 124.246 178.936 124.246H126.063C125.203 124.246 124.503 123.546 124.503 122.686V59.4406H134.875C137.254 59.4406 139.19 57.5052 139.19 55.1264V44.7538H178.936C179.796 44.7538 180.496 45.4538 180.496 46.3143V122.686Z" fill="white" fill-opacity="0.6"/>
<path d="M134.875 65.3153H170.123C170.884 65.3153 171.5 64.699 171.5 63.9384C171.5 63.1778 170.884 62.5615 170.123 62.5615H134.875C134.115 62.5615 133.498 63.1778 133.498 63.9384C133.498 64.699 134.115 65.3153 134.875 65.3153Z" fill="white" fill-opacity="0.6"/>
<path d="M134.875 72.6591H170.123C170.884 72.6591 171.5 72.0428 171.5 71.2822C171.5 70.5216 170.884 69.9053 170.123 69.9053H134.875C134.115 69.9053 133.498 70.5216 133.498 71.2822C133.498 72.0428 134.115 72.6591 134.875 72.6591Z" fill="white" fill-opacity="0.6"/>
<path d="M134.875 80.0018H170.123C170.884 80.0018 171.5 79.3855 171.5 78.6249C171.5 77.8643 170.884 77.248 170.123 77.248H134.875C134.115 77.248 133.498 77.8643 133.498 78.6249C133.498 79.3855 134.115 80.0018 134.875 80.0018Z" fill="white" fill-opacity="0.6"/>
<path d="M134.875 87.3456H170.123C170.884 87.3456 171.5 86.7293 171.5 85.9687C171.5 85.2081 170.884 84.5918 170.123 84.5918H134.875C134.115 84.5918 133.498 85.2081 133.498 85.9687C133.498 86.7293 134.115 87.3456 134.875 87.3456Z" fill="white" fill-opacity="0.6"/>
<path d="M134.875 94.6888H170.123C170.884 94.6888 171.5 94.0725 171.5 93.3119C171.5 92.5514 170.884 91.9351 170.123 91.9351H134.875C134.115 91.9351 133.498 92.5514 133.498 93.3119C133.498 94.0725 134.115 94.6888 134.875 94.6888Z" fill="white" fill-opacity="0.6"/>
<path d="M152.499 102.216H134.875C134.115 102.216 133.498 102.832 133.498 103.593C133.498 104.353 134.115 104.97 134.875 104.97H152.499C153.26 104.97 153.876 104.353 153.876 103.593C153.876 102.832 153.26 102.216 152.499 102.216Z" fill="white" fill-opacity="0.6"/>
<path d="M152.499 109.56H134.875C134.115 109.56 133.498 110.176 133.498 110.936C133.498 111.697 134.115 112.313 134.875 112.313H152.499C153.26 112.313 153.876 111.697 153.876 110.936C153.876 110.176 153.26 109.56 152.499 109.56Z" fill="white" fill-opacity="0.6"/>
<path d="M164.983 105.153C163.819 105.153 162.872 106.1 162.872 107.265C162.872 108.429 163.819 109.376 164.983 109.376C166.147 109.376 167.095 108.429 167.095 107.265C167.095 106.1 166.147 105.153 164.983 105.153Z" fill="white" fill-opacity="0.6"/>
<path d="M164.983 99.2788C160.58 99.2788 156.997 102.861 156.997 107.265C156.997 111.668 160.58 115.251 164.983 115.251C169.387 115.251 172.969 111.668 172.969 107.265C172.969 102.861 169.387 99.2788 164.983 99.2788ZM164.983 112.497C162.098 112.497 159.751 110.15 159.751 107.265C159.751 104.38 162.098 102.033 164.983 102.033C167.868 102.033 170.215 104.38 170.215 107.265C170.215 110.15 167.868 112.497 164.983 112.497Z" fill="white" fill-opacity="0.6"/>
<path d="M102.999 0H41.5558C41.5322 0 41.5091 0.00274298 41.4855 0.00356587C41.4625 0.00438877 41.44 0.00548596 41.417 0.00685745C41.3292 0.0126177 41.2425 0.0224924 41.158 0.0389503C41.1564 0.0392246 41.155 0.0392246 41.1534 0.0397732C41.062 0.0578769 40.9737 0.0833866 40.887 0.113011C40.8714 0.118497 40.8558 0.124257 40.8404 0.130292C40.7589 0.160464 40.6794 0.194752 40.6031 0.234525C40.5982 0.237268 40.593 0.239188 40.588 0.241931C40.5079 0.284721 40.432 0.333546 40.3587 0.386212C40.342 0.398006 40.3258 0.410624 40.3094 0.422968C40.2367 0.478376 40.1664 0.537076 40.102 0.601261C40.1017 0.601536 40.1012 0.60181 40.1009 0.602084L18.157 22.5459C18.1568 22.5462 18.1565 22.5465 18.1562 22.5467C18.0918 22.6115 18.0331 22.6817 17.9777 22.7544C17.9653 22.7709 17.953 22.787 17.9409 22.8035C17.8882 22.8767 17.8394 22.9527 17.7966 23.0325C17.7939 23.038 17.7914 23.0435 17.7887 23.049C17.7492 23.1247 17.7152 23.2034 17.685 23.2843C17.6789 23.3005 17.6729 23.3164 17.6672 23.3329C17.6375 23.4187 17.6123 23.5065 17.5942 23.5973C17.5936 23.6006 17.5934 23.6042 17.5925 23.6075C17.5766 23.69 17.567 23.7745 17.561 23.8601C17.5594 23.8842 17.5583 23.9081 17.5574 23.9322C17.5574 23.9555 17.5547 23.978 17.5547 24.0011V120.554C17.5547 124.108 20.4463 127 24.0007 127H102.999C106.553 127 109.445 124.108 109.445 120.554V6.446C109.445 2.89165 106.553 0 102.999 0ZM39.4985 7.02368V19.6123C39.4985 20.8979 38.4526 21.9438 37.167 21.9438H24.5784L39.4985 7.02368ZM105.33 120.554C105.33 121.84 104.284 122.886 102.999 122.886H24.0007C22.7151 122.886 21.6692 121.84 21.6692 120.554V26.0583H37.167C40.7214 26.0583 43.613 23.1667 43.613 19.6123V4.11447H102.999C104.284 4.11447 105.33 5.16037 105.33 6.446V120.554Z" fill="white" fill-opacity="0.6"/>
<path d="M37.1666 34.8357H89.8318C90.968 34.8357 91.8891 33.9149 91.8891 32.7784C91.8891 31.642 90.968 30.7212 89.8318 30.7212H37.1666C36.0305 30.7212 35.1094 31.642 35.1094 32.7784C35.1094 33.9149 36.0305 34.8357 37.1666 34.8357Z" fill="white" fill-opacity="0.6"/>
<path d="M37.1666 45.8083H89.8318C90.968 45.8083 91.8891 44.8875 91.8891 43.7511C91.8891 42.6147 90.968 41.6938 89.8318 41.6938H37.1666C36.0305 41.6938 35.1094 42.6147 35.1094 43.7511C35.1094 44.8875 36.0305 45.8083 37.1666 45.8083Z" fill="white" fill-opacity="0.6"/>
<path d="M37.1666 56.7795H89.8318C90.968 56.7795 91.8891 55.8587 91.8891 54.7223C91.8891 53.5859 90.968 52.665 89.8318 52.665H37.1666C36.0305 52.665 35.1094 53.5859 35.1094 54.7223C35.1094 55.8587 36.0305 56.7795 37.1666 56.7795Z" fill="white" fill-opacity="0.6"/>
<path d="M37.1666 67.7517H89.8318C90.968 67.7517 91.8891 66.8309 91.8891 65.6944C91.8891 64.558 90.968 63.6372 89.8318 63.6372H37.1666C36.0305 63.6372 35.1094 64.558 35.1094 65.6944C35.1094 66.8309 36.0305 67.7517 37.1666 67.7517Z" fill="white" fill-opacity="0.6"/>
<path d="M37.1666 78.7238H89.8318C90.968 78.7238 91.8891 77.803 91.8891 76.6666C91.8891 75.5302 90.968 74.6094 89.8318 74.6094H37.1666C36.0305 74.6094 35.1094 75.5302 35.1094 76.6666C35.1094 77.803 36.0305 78.7238 37.1666 78.7238Z" fill="white" fill-opacity="0.6"/>
<path d="M63.4992 89.9697H37.1666C36.0305 89.9697 35.1094 90.8905 35.1094 92.027C35.1094 93.1634 36.0305 94.0842 37.1666 94.0842H63.4992C64.6354 94.0842 65.5565 93.1634 65.5565 92.027C65.5565 90.8905 64.6354 89.9697 63.4992 89.9697Z" fill="white" fill-opacity="0.6"/>
<path d="M63.4992 100.942H37.1666C36.0305 100.942 35.1094 101.863 35.1094 102.999C35.1094 104.136 36.0305 105.056 37.1666 105.056H63.4992C64.6354 105.056 65.5565 104.136 65.5565 102.999C65.5565 101.863 64.6354 100.942 63.4992 100.942Z" fill="white" fill-opacity="0.6"/>
<path d="M82.1515 94.3584C80.4122 94.3584 78.9971 95.7735 78.9971 97.5128C78.9971 99.2521 80.4122 100.667 82.1515 100.667C83.8908 100.667 85.3059 99.2521 85.3059 97.5128C85.3059 95.7735 83.8908 94.3584 82.1515 94.3584Z" fill="white" fill-opacity="0.6"/>
<path d="M82.1517 85.5815C75.5724 85.5815 70.2197 90.9342 70.2197 97.5135C70.2197 104.093 75.5724 109.445 82.1517 109.445C88.731 109.445 94.0837 104.093 94.0837 97.5135C94.0837 90.9342 88.731 85.5815 82.1517 85.5815ZM82.1517 105.331C77.8411 105.331 74.3342 101.824 74.3342 97.5135C74.3342 93.2029 77.8411 89.696 82.1517 89.696C86.4623 89.696 89.9692 93.2029 89.9692 97.5135C89.9692 101.824 86.4623 105.331 82.1517 105.331Z" fill="white" fill-opacity="0.6"/>
</svg>
