<svg xmlns="http://www.w3.org/2000/svg" width="20" height="22" viewBox="0 0 20 22" fill="none">
<path d="M8 7.16898C8.1762 6.66811 8.52397 6.24575 8.98173 5.97672C9.43949 5.70769 9.9777 5.60935 10.501 5.69911C11.0243 5.78888 11.499 6.06095 11.8409 6.46715C12.1829 6.87335 12.37 7.38746 12.3692 7.91843C12.3692 9.41731 10.1209 10.1667 10.1209 10.1667M10.1499 13.1667H10.1599M7.9 17.8667L9.36 19.8134C9.57712 20.1029 9.68568 20.2477 9.81876 20.2994C9.93534 20.3447 10.0647 20.3447 10.1812 20.2994C10.3143 20.2477 10.4229 20.1029 10.64 19.8134L12.1 17.8667C12.3931 17.4759 12.5397 17.2805 12.7185 17.1312C12.9569 16.9323 13.2383 16.7916 13.5405 16.7203C13.7671 16.6667 14.0114 16.6667 14.5 16.6667C15.8978 16.6667 16.5967 16.6667 17.1481 16.4384C17.8831 16.1339 18.4672 15.5499 18.7716 14.8148C19 14.2635 19 13.5646 19 12.1667V6.46675C19 4.78659 19 3.94651 18.673 3.30478C18.3854 2.74029 17.9265 2.28135 17.362 1.99373C16.7202 1.66675 15.8802 1.66675 14.2 1.66675H5.8C4.11984 1.66675 3.27976 1.66675 2.63803 1.99373C2.07354 2.28135 1.6146 2.74029 1.32698 3.30478C1 3.94651 1 4.78659 1 6.46675V12.1667C1 13.5646 1 14.2635 1.22836 14.8148C1.53284 15.5499 2.11687 16.1339 2.85195 16.4384C3.40326 16.6667 4.10218 16.6667 5.5 16.6667C5.98858 16.6667 6.23287 16.6667 6.45951 16.7203C6.76169 16.7916 7.04312 16.9323 7.2815 17.1312C7.46028 17.2805 7.60685 17.4759 7.9 17.8667Z" stroke="white" stroke-width="2" stroke-linecap="round" stroke-linejoin="round"/>
</svg>