<svg width="211" height="50" viewBox="0 0 211 50" fill="none" xmlns="http://www.w3.org/2000/svg">
<path fill-rule="evenodd" clip-rule="evenodd" d="M93.5672 6.44106C94.7846 7.12692 95.74 8.07906 96.4337 9.29643C97.1274 10.5138 97.474 11.89 97.474 13.4244C97.474 14.9596 97.1274 16.3351 96.4337 17.5524C95.74 18.7698 94.7846 19.7213 93.5672 20.4078C92.3504 21.0943 90.9736 21.4375 89.4392 21.4375C88.0671 21.4375 86.8305 21.2006 85.732 20.7287C84.632 20.257 83.7132 19.5705 82.9756 18.6701L85.2556 16.5451C86.3476 17.7702 87.6831 18.3826 89.2621 18.3826C90.398 18.3826 91.3614 18.0504 92.151 17.3863C92.9397 16.7229 93.4524 15.8296 93.6893 14.708H87.4022V11.9636H93.6446C93.3933 10.9012 92.8768 10.0524 92.0951 9.41792C91.3129 8.78389 90.3684 8.46635 89.2621 8.46635C87.6831 8.46635 86.3476 9.07862 85.2556 10.3032L82.9756 8.1782C83.7132 7.27859 84.632 6.59197 85.732 6.1202C86.8305 5.64843 88.0671 5.41211 89.4392 5.41211C90.9736 5.41211 92.3504 5.75459 93.5672 6.44106Z" fill="#12123D"/>
<path fill-rule="evenodd" clip-rule="evenodd" d="M106.282 14.9297H103.804V21.1716H100.24V5.67773H103.804V11.9417H106.371L110.444 5.67773H114.229L109.16 13.1593L114.384 21.1716H110.311L106.282 14.9297Z" fill="#12123D"/>
<path fill-rule="evenodd" clip-rule="evenodd" d="M119.044 20.4085C117.767 19.7221 116.763 18.7706 116.033 17.5532C115.303 16.3358 114.938 14.9603 114.938 13.4252C114.938 11.8908 115.303 10.5147 116.033 9.29717C116.763 8.07926 117.767 7.12766 119.044 6.4418C120.32 5.75533 121.755 5.41211 123.349 5.41211C124.691 5.41211 125.905 5.64836 126.989 6.12088C128.075 6.59285 128.985 7.27127 129.723 8.15737L127.422 10.2817C126.374 9.07206 125.075 8.46709 123.525 8.46709C122.566 8.46709 121.71 8.67713 120.958 9.09774C120.206 9.51835 119.619 10.1051 119.198 10.8572C118.778 11.6099 118.567 12.4658 118.567 13.4252C118.567 14.3847 118.778 15.2404 119.198 15.9926C119.619 16.7452 120.206 17.332 120.958 17.7526C121.71 18.1726 122.566 18.3834 123.525 18.3834C125.075 18.3834 126.374 17.771 127.422 16.5458L129.723 18.6708C128.985 19.5712 128.071 20.2576 126.979 20.7294C125.887 21.2014 124.669 21.4376 123.327 21.4376C121.748 21.4376 120.32 21.0944 119.044 20.4085Z" fill="#12123D"/>
<path fill-rule="evenodd" clip-rule="evenodd" d="M146.191 5.67773V21.1717H142.627V8.59951H135.633V21.1717H132.069V5.67773H146.191Z" fill="#12123D"/>
<path fill-rule="evenodd" clip-rule="evenodd" d="M159.007 13.2806C159.567 12.8161 159.848 12.1559 159.848 11.2994C159.848 10.4292 159.567 9.76114 159.007 9.2964C158.447 8.83173 157.627 8.59877 156.551 8.59877H153.629V13.9777H156.551C157.627 13.9777 158.447 13.7453 159.007 13.2806ZM160.324 6.36347C161.335 6.82091 162.113 7.47 162.659 8.31136C163.204 9.15204 163.478 10.149 163.478 11.2994C163.478 12.4361 163.204 13.4283 162.659 14.2768C162.113 15.1254 161.335 15.7745 160.324 16.2239C159.313 16.6749 158.122 16.9 156.75 16.9H153.629V21.1716H150.043V5.67773H156.75C158.122 5.67773 159.313 5.90623 160.324 6.36347Z" fill="#12123D"/>
<path fill-rule="evenodd" clip-rule="evenodd" d="M177.843 18.2946V21.1724H165.846V5.67773H177.556V8.55546H169.409V11.9201H176.603V14.7087H169.409V18.2946H177.843Z" fill="#12123D"/>
<path fill-rule="evenodd" clip-rule="evenodd" d="M183.741 20.4085C182.465 19.7221 181.461 18.7706 180.731 17.5532C180.001 16.3358 179.636 14.9603 179.636 13.4252C179.636 11.8908 180.001 10.5147 180.731 9.29717C181.461 8.07926 182.465 7.12766 183.741 6.4418C185.018 5.75533 186.453 5.41211 188.047 5.41211C189.389 5.41211 190.603 5.64836 191.687 6.12088C192.772 6.59285 193.683 7.27127 194.422 8.15737L192.119 10.2817C191.071 9.07206 189.773 8.46709 188.224 8.46709C187.264 8.46709 186.409 8.67713 185.656 9.09774C184.904 9.51835 184.317 10.1051 183.896 10.8572C183.476 11.6099 183.266 12.4658 183.266 13.4252C183.266 14.3847 183.476 15.2404 183.896 15.9926C184.317 16.7452 184.904 17.332 185.656 17.7526C186.409 18.1726 187.264 18.3834 188.224 18.3834C189.773 18.3834 191.071 17.771 192.119 16.5458L194.422 18.6708C193.683 19.5712 192.768 20.2576 191.677 20.7294C190.585 21.2014 189.367 21.4376 188.024 21.4376C186.445 21.4376 185.018 21.0944 183.741 20.4085Z" fill="#12123D"/>
<path fill-rule="evenodd" clip-rule="evenodd" d="M199.479 20.4085C198.203 19.7221 197.2 18.7706 196.469 17.5532C195.739 16.3358 195.373 14.9603 195.373 13.4252C195.373 11.8908 195.739 10.5147 196.469 9.29717C197.2 8.07926 198.203 7.12766 199.479 6.4418C200.755 5.75533 202.191 5.41211 203.785 5.41211C205.127 5.41211 206.341 5.64836 207.426 6.12088C208.51 6.59285 209.421 7.27127 210.159 8.15737L207.857 10.2817C206.809 9.07206 205.511 8.46709 203.962 8.46709C203.002 8.46709 202.147 8.67713 201.394 9.09774C200.642 9.51835 200.055 10.1051 199.634 10.8572C199.214 11.6099 199.004 12.4658 199.004 13.4252C199.004 14.3847 199.214 15.2404 199.634 15.9926C200.055 16.7452 200.642 17.332 201.394 17.7526C202.147 18.1726 203.002 18.3834 203.962 18.3834C205.511 18.3834 206.809 17.771 207.857 16.5458L210.159 18.6708C209.421 19.5712 208.506 20.2576 207.415 20.7294C206.322 21.2014 205.105 21.4376 203.762 21.4376C202.183 21.4376 200.755 21.0944 199.479 20.4085Z" fill="#12123D"/>
<path fill-rule="evenodd" clip-rule="evenodd" d="M91.6299 40.252C92.5446 40.252 93.2456 40.0715 93.7326 39.7098C94.2194 39.3482 94.463 38.8206 94.463 38.1269C94.463 36.7699 93.5187 36.0906 91.6299 36.0906H88.044V40.252H91.6299ZM84.4805 27.4141H96.9863V30.2694H88.044V33.457H92.338C94.2124 33.457 95.6396 33.8481 96.6207 34.6303C97.6026 35.412 98.0935 36.5414 98.0935 38.0168C98.0935 39.5662 97.5475 40.7691 96.4554 41.6243C95.3628 42.4808 93.8211 42.9079 91.8294 42.9079H84.4805V27.4141Z" fill="#FFCB03"/>
<path fill-rule="evenodd" clip-rule="evenodd" d="M110.046 36.8657L107.588 30.9337L105.132 36.8657H110.046ZM111.174 39.5878H103.981L102.608 42.9086H98.9336L105.84 27.4141H109.381L116.31 42.9086H112.547L111.174 39.5878Z" fill="#FFCB03"/>
<path fill-rule="evenodd" clip-rule="evenodd" d="M132.578 27.4141V42.9079H128.992V36.5559H121.954V42.9079H118.368V27.4141H121.954V33.5232H128.992V27.4141H132.578Z" fill="#FFCB03"/>
<path fill-rule="evenodd" clip-rule="evenodd" d="M142.449 36.6662H139.971V42.9081H136.407V27.4141H139.971V33.6782H142.539L146.611 27.4141H150.396L145.327 34.8956L150.551 42.9081H146.478L142.449 36.6662Z" fill="#FFCB03"/>
<path fill-rule="evenodd" clip-rule="evenodd" d="M161.198 35.0171C161.759 34.5524 162.04 33.8922 162.04 33.0357C162.04 32.1655 161.759 31.4975 161.198 31.0327C160.638 30.5682 159.818 30.3358 158.742 30.3358H155.82V35.714H158.742C159.818 35.714 160.638 35.4816 161.198 35.0171ZM162.515 28.1C163.526 28.558 164.304 29.2065 164.851 30.0477C165.397 30.8891 165.669 31.8853 165.669 33.0357C165.669 34.1724 165.397 35.1647 164.851 36.0133C164.304 36.8618 163.526 37.5109 162.515 37.961C161.505 38.4112 160.313 38.6363 158.941 38.6363H155.82V42.9081H152.234V27.4141H158.941C160.313 27.4141 161.505 27.6431 162.515 28.1Z" fill="#FFCB03"/>
<path fill-rule="evenodd" clip-rule="evenodd" d="M178.131 39.4882C178.869 39.0676 179.448 38.4809 179.868 37.7287C180.29 36.976 180.5 36.1203 180.5 35.1608C180.5 34.2019 180.29 33.3462 179.868 32.5934C179.448 31.8407 178.869 31.2539 178.131 30.8333C177.394 30.4133 176.567 30.2027 175.653 30.2027C174.737 30.2027 173.911 30.4133 173.173 30.8333C172.435 31.2539 171.856 31.8407 171.436 32.5934C171.015 33.3462 170.805 34.2019 170.805 35.1608C170.805 36.1203 171.015 36.976 171.436 37.7287C171.856 38.4809 172.435 39.0676 173.173 39.4882C173.911 39.9089 174.737 40.119 175.653 40.119C176.567 40.119 177.394 39.9089 178.131 39.4882ZM171.303 42.133C170.012 41.44 169.001 40.4844 168.271 39.267C167.54 38.0496 167.175 36.6814 167.175 35.1608C167.175 33.6414 167.54 32.2725 168.271 31.055C169.001 29.8377 170.012 28.8822 171.303 28.1885C172.594 27.4956 174.043 27.1484 175.653 27.1484C177.261 27.1484 178.707 27.4956 179.991 28.1885C181.275 28.8822 182.285 29.8377 183.023 31.055C183.761 32.2725 184.13 33.6414 184.13 35.1608C184.13 36.6814 183.761 38.0496 183.023 39.267C182.285 40.4844 181.275 41.44 179.991 42.133C178.707 42.8267 177.261 43.1738 175.653 43.1738C174.043 43.1738 172.594 42.8267 171.303 42.133Z" fill="#FFCB03"/>
<path fill-rule="evenodd" clip-rule="evenodd" d="M198.517 30.3359H193.559V42.9081H190.018V30.3359H185.081V27.4141H198.517V30.3359Z" fill="#FFCB03"/>
<path fill-rule="evenodd" clip-rule="evenodd" d="M74.7569 24.575C74.7569 37.4313 64.8871 47.979 52.3143 49.0606C52.0944 49.1058 51.706 49.1177 51.5432 49.1242H51.4645H34.7093C33.8803 49.1242 33.2024 48.4463 33.2024 47.6166C33.2024 47.2012 33.3704 46.8245 33.6448 46.5503C33.9192 46.2759 34.2931 46.1074 34.7093 46.1074H50.1571H50.1625H50.1781C50.3822 46.1074 50.5878 46.104 50.7892 46.0981C62.3979 45.7758 71.7097 36.2646 71.7097 24.575C71.7097 13.0451 62.6453 3.63347 51.2537 3.07297C51.2447 3.07635 51.2387 3.07971 51.2387 3.07971H33.2325C32.3861 3.07971 31.6924 2.38622 31.6924 1.53959C31.6924 1.11749 31.8643 0.731674 32.1444 0.45149C32.4248 0.171172 32.8106 0 33.2325 0H49.9248C49.934 0 49.9453 -1.48502e-06 49.9551 0.00270168C50.0299 -1.48502e-06 50.1028 0 50.1781 0C63.7505 0 74.7569 11.0021 74.7569 24.575Z" fill="#12123D"/>
<path fill-rule="evenodd" clip-rule="evenodd" d="M19.7727 24.5767C19.7727 25.0001 19.5994 25.3852 19.3212 25.6648C19.0416 25.9444 18.6558 26.117 18.2318 26.117H1.54088C0.693501 26.117 0 25.4241 0 24.5767C0 24.1534 0.174488 23.7676 0.452779 23.4893C0.731611 23.2097 1.11614 23.0371 1.54088 23.0371H18.2318C19.079 23.0371 19.7727 23.7295 19.7727 24.5767Z" fill="#12123D"/>
<path fill-rule="evenodd" clip-rule="evenodd" d="M23.743 15.806C23.743 16.6526 23.0495 17.3455 22.2029 17.3455H7.47867C6.63218 17.3455 5.93848 16.6526 5.93848 15.806C5.93848 14.9588 6.63218 14.2656 7.47867 14.2656H22.2029C23.0495 14.2656 23.743 14.9588 23.743 15.806Z" fill="#FFCB03"/>
<path fill-rule="evenodd" clip-rule="evenodd" d="M23.743 33.347C23.743 34.1941 23.0495 34.8873 22.2029 34.8873H7.47867C6.63218 34.8873 5.93848 34.1941 5.93848 33.347C5.93848 32.4998 6.63218 31.8066 7.47867 31.8066H22.2029C23.0495 31.8066 23.743 32.4998 23.743 33.347Z" fill="#FFCB03"/>
<path fill-rule="evenodd" clip-rule="evenodd" d="M27.0816 7.03717C27.0816 7.46096 26.909 7.84486 26.6301 8.1245C26.3505 8.40408 25.9666 8.57675 25.5421 8.57675H14.9956C14.1498 8.57675 13.4561 7.88434 13.4561 7.03717C13.4561 6.61317 13.6287 6.2279 13.9083 5.94833C14.1879 5.67004 14.5725 5.49609 14.9956 5.49609H25.5421C26.3892 5.49609 27.0816 6.18979 27.0816 7.03717Z" fill="#12123D"/>
<path fill-rule="evenodd" clip-rule="evenodd" d="M27.0816 42.1159C27.0816 42.5399 26.909 42.9244 26.6301 43.204C26.3505 43.4829 25.9666 43.656 25.5421 43.656H14.9956C14.1498 43.656 13.4561 42.9631 13.4561 42.1159C13.4561 41.6925 13.6287 41.308 13.9083 41.0284C14.1879 40.7488 14.5725 40.5762 14.9956 40.5762H25.5421C26.3892 40.5762 27.0816 41.2693 27.0816 42.1159Z" fill="#12123D"/>
<path fill-rule="evenodd" clip-rule="evenodd" d="M31.7039 38.6092C31.7446 38.9295 31.9251 39.1178 32.2657 39.1185C32.6063 39.1199 32.9469 39.1239 33.2862 39.1239C39.0922 39.1206 44.8976 39.1172 50.7036 39.1148C52.8294 39.1141 54.888 38.7433 56.8162 37.8437C57.7659 37.4013 58.7122 36.8927 59.537 36.2553C62.0492 34.3155 64.0423 31.9503 65.0189 28.8703C65.6023 27.0262 65.8425 25.131 65.6777 23.1858C65.3536 19.3761 63.7785 16.1887 60.9455 13.641C58.5691 11.5049 55.766 10.2776 52.57 10.0834C50.7469 9.97235 48.9132 10.0112 47.085 10.0079C42.5836 9.99804 38.0828 10.0001 33.5822 9.99805H33.5578C33.5218 9.99872 33.483 9.99872 33.4425 9.99805H33.3696C32.4981 10.0014 32.0728 10.2953 31.8765 10.645C31.8752 10.6478 31.8738 10.6491 31.8732 10.6518C31.8514 10.6978 31.8285 10.745 31.8067 10.7936C31.7281 10.9995 31.7143 11.2135 31.7234 11.39C31.7439 11.5259 31.7662 11.6605 31.7911 11.795C31.7925 11.797 31.7925 11.7977 31.7925 11.7977C32.0332 13.0439 32.5405 14.1852 33.3746 15.1801C34.9018 17.0026 36.8831 17.863 39.239 17.8721C42.6523 17.8846 46.0656 17.8794 49.4783 17.8741C51.4478 17.8714 53.1403 18.5723 54.4869 19.9827C56.0771 21.649 56.7386 23.6505 56.3344 25.9541C55.9136 28.3528 54.6116 30.0518 52.2752 30.8374C51.5547 31.0796 50.7645 31.2102 50.004 31.2193C46.5565 31.2614 43.1079 31.2416 39.6598 31.2436C37.5512 31.2443 35.7603 31.9976 34.241 33.4565C32.8977 34.7468 31.988 36.2576 31.7183 38.1206C31.6954 38.2815 31.6836 38.449 31.7039 38.6092Z" fill="#12123D"/>
<path fill-rule="evenodd" clip-rule="evenodd" d="M37.8468 22.4102V22.4234C37.8473 22.5927 37.8597 22.9419 37.9353 23.2556C38.0344 23.8062 38.258 24.32 38.5514 24.8029C39.6763 26.6511 41.342 27.5357 43.5037 27.5238C45.6734 27.5113 47.8422 27.5191 50.0127 27.5184H50.0558C50.0932 27.5218 50.1334 27.5238 50.1739 27.5238C51.4754 27.5285 51.3651 26.8622 51.3651 26.8622C51.3887 26.1542 51.2176 25.4494 50.8972 24.7918C49.8899 22.7305 48.2335 21.6332 45.9273 21.6056C43.5004 21.5761 41.0728 21.5932 38.6453 21.5898H38.432C38.3881 21.5952 38.3416 21.6043 38.2928 21.6207C38.0887 21.6876 37.8683 21.8655 37.848 22.3196C37.848 22.3196 37.8468 22.3531 37.8468 22.4102Z" fill="#FFCB03"/>
</svg>
