<svg width="118" height="118" viewBox="0 0 118 118" fill="none" xmlns="http://www.w3.org/2000/svg">
<circle cx="59" cy="59" r="59" fill="#7181AA" fill-opacity="0.6"/>
<path d="M69.725 45.885H62.857V50.6911C62.857 50.7868 62.8299 50.8804 62.7789 50.9614C62.728 51.0423 62.6552 51.1072 62.569 51.1485C62.4828 51.1899 62.3866 51.2061 62.2916 51.1953C62.1966 51.1844 62.1066 51.147 62.0319 51.0872L60.6311 49.9662L59.3298 51.0773C59.2424 51.1519 59.1322 51.1947 59.0174 51.1986C58.9025 51.2025 58.7897 51.1674 58.6974 51.0989L57.1566 49.956L55.8414 51.0775C55.7676 51.1404 55.6774 51.1809 55.5813 51.1941C55.4853 51.2074 55.3874 51.1928 55.2994 51.1522C55.2113 51.1117 55.1367 51.0467 55.0844 50.9651C55.0321 50.8834 55.0042 50.7885 55.0041 50.6916V45.885H48.275C47.4699 45.8816 46.6843 45.6363 46.0203 45.1809C45.3563 44.7255 44.8445 44.0811 44.5513 43.3312L42.2422 37.3525V82.8646H75.7578V37.3525L73.449 43.3312C73.1558 44.0811 72.6439 44.7256 71.9799 45.181C71.3158 45.6364 70.5302 45.8817 69.725 45.885ZM45.4157 61.6351C45.4157 61.7698 45.3622 61.899 45.267 61.9942C45.1717 62.0894 45.0426 62.1429 44.9079 62.1429C44.7732 62.1429 44.6441 62.0894 44.5488 61.9942C44.4536 61.899 44.4001 61.7698 44.4001 61.6351V51.708C44.4001 51.5733 44.4536 51.4441 44.5488 51.3489C44.6441 51.2537 44.7732 51.2002 44.9079 51.2002C45.0426 51.2002 45.1717 51.2537 45.267 51.3489C45.3622 51.4441 45.4157 51.5733 45.4157 51.708V61.6351ZM45.4157 49.5295C45.4157 49.6642 45.3622 49.7933 45.267 49.8886C45.1717 49.9838 45.0426 50.0373 44.9079 50.0373C44.7732 50.0373 44.6441 49.9838 44.5488 49.8886C44.4536 49.7933 44.4001 49.6642 44.4001 49.5295V48.8701C44.4001 48.7355 44.4536 48.6063 44.5488 48.5111C44.6441 48.4158 44.7732 48.3623 44.9079 48.3623C45.0426 48.3623 45.1717 48.4158 45.267 48.5111C45.3622 48.6063 45.4157 48.7355 45.4157 48.8701V49.5295ZM48.8478 79.696H48.4809C48.3462 79.696 48.217 79.6425 48.1218 79.5472C48.0266 79.452 47.9731 79.3228 47.9731 79.1882C47.9731 79.0535 48.0266 78.9243 48.1218 78.8291C48.217 78.7339 48.3462 78.6804 48.4809 78.6804H48.8478C48.9825 78.6804 49.1117 78.7339 49.2069 78.8291C49.3021 78.9243 49.3556 79.0535 49.3556 79.1882C49.3556 79.3228 49.3021 79.452 49.2069 79.5472C49.1117 79.6425 48.9825 79.696 48.8478 79.696ZM48.8478 75.0282H48.4809C48.3462 75.0282 48.217 74.9747 48.1218 74.8794C48.0266 74.7842 47.9731 74.655 47.9731 74.5204C47.9731 74.3857 48.0266 74.2565 48.1218 74.1613C48.217 74.066 48.3462 74.0125 48.4809 74.0125H48.8478C48.9825 74.0125 49.1117 74.066 49.2069 74.1613C49.3021 74.2565 49.3556 74.3857 49.3556 74.5204C49.3556 74.655 49.3021 74.7842 49.2069 74.8794C49.1117 74.9747 48.9825 75.0282 48.8478 75.0282ZM48.8478 70.3605H48.4809C48.3462 70.3605 48.217 70.3069 48.1218 70.2117C48.0266 70.1165 47.9731 69.9873 47.9731 69.8526C47.9731 69.718 48.0266 69.5888 48.1218 69.4936C48.217 69.3983 48.3462 69.3448 48.4809 69.3448H48.8478C48.9825 69.3448 49.1117 69.3983 49.2069 69.4936C49.3021 69.5888 49.3556 69.718 49.3556 69.8526C49.3556 69.9873 49.3021 70.1165 49.2069 70.2117C49.1117 70.3069 48.9825 70.3605 48.8478 70.3605ZM54.1155 79.696H52.5102C52.3755 79.696 52.2463 79.6425 52.1511 79.5472C52.0558 79.452 52.0023 79.3228 52.0023 79.1882C52.0023 79.0535 52.0558 78.9243 52.1511 78.8291C52.2463 78.7339 52.3755 78.6804 52.5102 78.6804H54.1158C54.2504 78.6804 54.3796 78.7339 54.4748 78.8291C54.5701 78.9243 54.6236 79.0535 54.6236 79.1882C54.6236 79.3228 54.5701 79.452 54.4748 79.5472C54.3796 79.6425 54.2504 79.696 54.1158 79.696H54.1155ZM54.1155 75.0282H52.5102C52.3755 75.0282 52.2463 74.9747 52.1511 74.8794C52.0558 74.7842 52.0023 74.655 52.0023 74.5204C52.0023 74.3857 52.0558 74.2565 52.1511 74.1613C52.2463 74.066 52.3755 74.0125 52.5102 74.0125H54.1158C54.2504 74.0125 54.3796 74.066 54.4748 74.1613C54.5701 74.2565 54.6236 74.3857 54.6236 74.5204C54.6236 74.655 54.5701 74.7842 54.4748 74.8794C54.3796 74.9747 54.2504 75.0282 54.1158 75.0282H54.1155ZM54.1155 70.3605H52.5102C52.3755 70.3605 52.2463 70.3069 52.1511 70.2117C52.0558 70.1165 52.0023 69.9873 52.0023 69.8526C52.0023 69.718 52.0558 69.5888 52.1511 69.4936C52.2463 69.3983 52.3755 69.3448 52.5102 69.3448H54.1158C54.2504 69.3448 54.3796 69.3983 54.4748 69.4936C54.5701 69.5888 54.6236 69.718 54.6236 69.8526C54.6236 69.9873 54.5701 70.1165 54.4748 70.2117C54.3796 70.3069 54.2504 70.3605 54.1158 70.3605H54.1155ZM56.2866 65.8241V65.2239C56.2866 64.7224 56.4858 64.2415 56.8403 63.8869C57.1949 63.5322 57.6759 63.333 58.1773 63.3329H58.5086V56.9301H57.9553C56.8816 57.4593 55.6547 57.5897 54.4938 57.2978L56.1461 61.093C56.2421 61.1294 56.3248 61.1942 56.3832 61.2786C56.4416 61.3631 56.473 61.4634 56.4731 61.5661C56.4731 63.0782 55.1644 64.3082 53.5556 64.3082C51.9469 64.3082 50.6382 63.078 50.6382 61.5661C50.6383 61.4633 50.6696 61.3631 50.728 61.2786C50.7864 61.1941 50.8691 61.1293 50.9652 61.0929L53.0901 56.211C53.1379 56.0993 53.2245 56.0087 53.3338 55.9558C53.4432 55.903 53.568 55.8915 53.6852 55.9235C53.7306 55.9304 53.7749 55.9434 53.8168 55.9622L54.031 56.0623C54.592 56.3227 55.2055 56.4501 55.8238 56.4347C56.442 56.4193 57.0485 56.2615 57.5958 55.9735C57.669 55.9348 57.7505 55.9145 57.8334 55.9145H58.5091V55.3661C58.5091 55.2314 58.5627 55.1022 58.6579 55.007C58.7531 54.9118 58.8823 54.8583 59.017 54.8583C59.1516 54.8583 59.2808 54.9118 59.376 55.007C59.4713 55.1022 59.5248 55.2314 59.5248 55.3661V55.9145H60.1673C60.2501 55.9145 60.3316 55.9348 60.4048 55.9735C60.9522 56.2615 61.5586 56.4193 62.1769 56.4347C62.7951 56.4501 63.4087 56.3227 63.9697 56.0623L64.1838 55.9622C64.2676 55.9306 64.3556 55.9115 64.445 55.9058C64.5438 55.9057 64.6405 55.9346 64.7232 55.9887C64.8059 56.0428 64.871 56.1199 64.9105 56.2105L67.0354 61.0924C67.1315 61.1288 67.2142 61.1936 67.2726 61.2781C67.331 61.3626 67.3623 61.4628 67.3625 61.5655C67.3625 63.0777 66.0537 64.3077 64.445 64.3077C62.8362 64.3077 61.5275 63.0775 61.5275 61.5655C61.5276 61.4628 61.559 61.3626 61.6174 61.2781C61.6758 61.1936 61.7585 61.1289 61.8545 61.0925L63.5063 57.2972C62.3455 57.5906 61.1181 57.4603 60.0448 56.9296H59.5248V63.3328H59.8566C60.3578 63.3336 60.8383 63.5331 61.1927 63.8876C61.547 64.242 61.7464 64.7226 61.747 65.2238V65.8252C61.747 65.9599 61.6935 66.089 61.5982 66.1843C61.503 66.2795 61.3738 66.333 61.2391 66.333L56.7947 66.3315C56.66 66.3315 56.5308 66.2781 56.4355 66.183C56.3403 66.0878 56.2867 65.9587 56.2866 65.8241ZM69.5191 79.696H57.8368C57.7021 79.696 57.573 79.6425 57.4777 79.5472C57.3825 79.452 57.329 79.3228 57.329 79.1882C57.329 79.0535 57.3825 78.9243 57.4777 78.8291C57.573 78.7339 57.7021 78.6804 57.8368 78.6804H69.5191C69.6538 78.6804 69.783 78.7339 69.8782 78.8291C69.9734 78.9243 70.0269 79.0535 70.0269 79.1882C70.0269 79.3228 69.9734 79.452 69.8782 79.5472C69.783 79.6425 69.6538 79.696 69.5191 79.696ZM69.5191 75.0282H57.8368C57.7021 75.0282 57.573 74.9747 57.4777 74.8794C57.3825 74.7842 57.329 74.655 57.329 74.5204C57.329 74.3857 57.3825 74.2565 57.4777 74.1613C57.573 74.066 57.7021 74.0125 57.8368 74.0125H69.5191C69.6538 74.0125 69.783 74.066 69.8782 74.1613C69.9734 74.2565 70.0269 74.3857 70.0269 74.5204C70.0269 74.655 69.9734 74.7842 69.8782 74.8794C69.783 74.9747 69.6538 75.0282 69.5191 75.0282ZM69.5191 70.3605H57.8368C57.7021 70.3605 57.573 70.3069 57.4777 70.2117C57.3825 70.1165 57.329 69.9873 57.329 69.8526C57.329 69.718 57.3825 69.5888 57.4777 69.4936C57.573 69.3983 57.7021 69.3448 57.8368 69.3448H69.5191C69.6538 69.3448 69.783 69.3983 69.8782 69.4936C69.9734 69.5888 70.0269 69.718 70.0269 69.8526C70.0269 69.9873 69.9734 70.1165 69.8782 70.2117C69.783 70.3069 69.6538 70.3605 69.5191 70.3605Z" fill="#12123D"/>
<path d="M53.5553 63.293C54.4094 63.293 55.1339 62.7791 55.3732 62.0742H51.7373C51.9767 62.7791 52.7011 63.293 53.5553 63.293Z" fill="#12123D"/>
<path d="M64.4449 63.293C65.2991 63.293 66.0235 62.7791 66.2629 62.0742H62.627C62.8663 62.7791 63.5909 63.293 64.4449 63.293Z" fill="#12123D"/>
<path d="M65.9121 61.0577L64.4443 57.6855L62.9766 61.0577H65.9121Z" fill="#12123D"/>
<path d="M59.8562 64.3492L58.1781 64.3486C57.9459 64.3486 57.7233 64.4409 57.5591 64.605C57.395 64.7692 57.3027 64.9918 57.3027 65.224V65.3165L60.7316 65.3176V65.2246C60.7313 64.9925 60.639 64.77 60.4749 64.6059C60.3108 64.4418 60.0883 64.3495 59.8562 64.3492Z" fill="#12123D"/>
<path d="M52.0879 61.0577H55.0235L53.5557 57.6855L52.0879 61.0577Z" fill="#12123D"/>
<path d="M69.7247 44.8694C70.325 44.8669 70.9107 44.684 71.4057 44.3444C71.9008 44.0049 72.2824 43.5245 72.501 42.9654L75.5245 35.1357H42.4746L45.4981 42.9654C45.7167 43.5245 46.0984 44.005 46.5935 44.3446C47.0886 44.6841 47.6744 44.8669 48.2747 44.8694H55.0041V40.5297C55.0041 40.435 55.0306 40.3421 55.0807 40.2617C55.1307 40.1812 55.2023 40.1163 55.2872 40.0744C55.3722 40.0325 55.4672 40.0152 55.5615 40.0245C55.6558 40.0337 55.7456 40.0692 55.8208 40.1268L57.3036 41.265L58.6772 40.1377C58.7681 40.063 58.882 40.0221 58.9997 40.0221C59.1173 40.0221 59.2313 40.063 59.3222 40.1377L60.6791 41.2549L62.0245 40.1391C62.0987 40.0776 62.1889 40.0384 62.2845 40.0262C62.3802 40.0141 62.4773 40.0294 62.5646 40.0704C62.6518 40.1113 62.7256 40.1763 62.7773 40.2577C62.829 40.3391 62.8565 40.4335 62.8565 40.5299V44.8696L69.7247 44.8694Z" fill="#12123D"/>
<path d="M60.3581 42.3058L59 41.1875L57.6371 42.3062C57.5485 42.3789 57.4378 42.4195 57.3232 42.4214C57.2085 42.4232 57.0966 42.3862 57.0057 42.3164L56.0195 41.5595V49.5909L56.8051 48.9206C56.8925 48.846 57.0026 48.8034 57.1174 48.7995C57.2322 48.7956 57.3449 48.8307 57.4371 48.8991L58.9777 50.0427L60.2909 48.9216C60.3808 48.8449 60.4945 48.8019 60.6126 48.8001C60.7307 48.7982 60.8458 48.8376 60.938 48.9114L61.8414 49.6346V41.6111L61.0049 42.3048C60.914 42.3801 60.7997 42.4214 60.6817 42.4216C60.5636 42.4218 60.4492 42.3808 60.3581 42.3058Z" fill="#12123D"/>
</svg>
