<svg width="210" height="167" viewBox="0 0 210 167" fill="none" xmlns="http://www.w3.org/2000/svg">
<path d="M128.43 111.778H0.168945V3.8555C0.168945 1.83691 1.53988 0.200684 3.23136 0.200684H156.659C158.35 0.200684 159.721 1.83691 159.721 3.8555V107.974C159.721 110.075 158.294 111.778 156.534 111.778H128.431H128.43Z" fill="white"/>
<path d="M117.572 111.98H0.168306C0.0749729 111.98 0 111.889 0 111.779V3.85558C0 1.72931 1.44897 0 3.23072 0H156.658C158.439 0 159.889 1.72931 159.889 3.85558V58.8394C159.889 58.9507 159.813 59.0402 159.721 59.0402C159.628 59.0402 159.552 58.9507 159.552 58.8394V3.85558C159.552 1.95106 158.254 0.401528 156.659 0.401528H3.23072C1.63487 0.401528 0.336613 1.95106 0.336613 3.85558V111.577H117.571C117.665 111.577 117.74 111.667 117.74 111.778C117.74 111.889 117.665 111.979 117.571 111.979L117.572 111.98Z" fill="#12123D"/>
<path d="M188.264 34.9752V10.7521C188.264 9.09191 187.135 7.74609 185.744 7.74609L149.213 7.74609C147.821 7.74609 146.693 9.09191 146.693 10.7521V34.9752C146.693 36.6353 147.821 37.9812 149.213 37.9812H185.744C187.135 37.9812 188.264 36.6353 188.264 34.9752Z" fill="#FFCB03"/>
<path d="M185.745 38.1815H149.214C147.731 38.1815 146.525 36.7424 146.525 34.9748V10.7517C146.525 8.98312 147.732 7.54492 149.214 7.54492H185.745C187.227 7.54492 188.433 8.98404 188.433 10.7517V34.9748C188.433 36.7433 187.226 38.1815 185.745 38.1815ZM149.214 7.94645C147.917 7.94645 146.862 9.20488 146.862 10.7517V34.9748C146.862 36.5216 147.917 37.78 149.214 37.78H185.745C187.041 37.78 188.096 36.5216 188.096 34.9748V10.7517C188.096 9.20488 187.041 7.94645 185.745 7.94645H149.214Z" fill="#12123D"/>
<path d="M182.254 34.0437H152.704C152.611 34.0437 152.536 33.9533 152.536 33.8429V11.8839C152.536 11.7725 152.612 11.6831 152.704 11.6831C152.797 11.6831 152.873 11.7725 152.873 11.8839V33.6421H182.254C182.347 33.6421 182.422 33.7316 182.422 33.8429C182.422 33.9542 182.347 34.0437 182.254 34.0437Z" fill="#12123D"/>
<path d="M156.548 17.8169H153.934V32.5721H156.548V17.8169Z" fill="#FFCB03"/>
<path d="M156.547 32.774H153.933C153.84 32.774 153.765 32.6845 153.765 32.5732V17.818C153.765 17.7066 153.84 17.6172 153.933 17.6172H156.547C156.64 17.6172 156.715 17.7066 156.715 17.818V32.5732C156.715 32.6845 156.64 32.774 156.547 32.774ZM154.101 32.3724H156.379V18.0187H154.101V32.3724Z" fill="#12123D"/>
<path d="M160.663 24.645H158.049V32.5734H160.663V24.645Z" fill="#FFCB03"/>
<path d="M160.662 32.7742H158.048C157.955 32.7742 157.88 32.6848 157.88 32.5735V24.6451C157.88 24.5338 157.955 24.4443 158.048 24.4443H160.662C160.756 24.4443 160.831 24.5338 160.831 24.6451V32.5735C160.831 32.6848 160.756 32.7742 160.662 32.7742ZM158.217 32.3727H160.494V24.8468H158.217V32.3727Z" fill="#12123D"/>
<path d="M164.775 21.5596H162.161V32.5724H164.775V21.5596Z" fill="#FFCB03"/>
<path d="M164.776 32.7742H162.161C162.068 32.7742 161.993 32.6848 161.993 32.5735V21.5606C161.993 21.4493 162.068 21.3599 162.161 21.3599H164.776C164.869 21.3599 164.944 21.4493 164.944 21.5606V32.5735C164.944 32.6848 164.869 32.7742 164.776 32.7742ZM162.33 32.3727H164.607V21.7614H162.33V32.3727Z" fill="#12123D"/>
<path d="M168.891 16.7339H166.277V32.5733H168.891V16.7339Z" fill="#FFCB03"/>
<path d="M168.891 32.7741H166.277C166.183 32.7741 166.108 32.6847 166.108 32.5733V16.734C166.108 16.6226 166.184 16.5332 166.277 16.5332H168.891C168.984 16.5332 169.059 16.6226 169.059 16.734V32.5733C169.059 32.6847 168.983 32.7741 168.891 32.7741ZM166.445 32.3726H168.722V16.9356H166.445V32.3726Z" fill="#12123D"/>
<path d="M172.942 13.4204H170.459V32.5733H172.942V13.4204Z" fill="#FFCB03"/>
<path d="M172.941 32.7741H170.458C170.365 32.7741 170.29 32.6847 170.29 32.5734V13.4205C170.29 13.3092 170.365 13.2197 170.458 13.2197H172.941C173.034 13.2197 173.109 13.3092 173.109 13.4205V32.5734C173.109 32.6847 173.034 32.7741 172.941 32.7741ZM170.627 32.3726H172.773V13.6222H170.627V32.3726Z" fill="#12123D"/>
<path d="M177.122 12.4043H174.508V32.5738H177.122V12.4043Z" fill="#FFCB03"/>
<path d="M177.121 32.7746H174.507C174.414 32.7746 174.339 32.6852 174.339 32.5739V12.4044C174.339 12.293 174.414 12.2036 174.507 12.2036H177.121C177.215 12.2036 177.29 12.293 177.29 12.4044V32.5739C177.29 32.6852 177.215 32.7746 177.121 32.7746ZM174.675 32.3731H176.953V12.6051H174.675V32.3731Z" fill="#12123D"/>
<path d="M181.237 14.9165H178.623V32.5737H181.237V14.9165Z" fill="#FFCB03"/>
<path d="M181.237 32.7746H178.622C178.529 32.7746 178.454 32.6851 178.454 32.5738V14.9166C178.454 14.8053 178.529 14.7158 178.622 14.7158H181.237C181.33 14.7158 181.405 14.8053 181.405 14.9166V32.5738C181.405 32.6851 181.33 32.7746 181.237 32.7746ZM178.791 32.373H181.068V15.1173H178.791V32.373Z" fill="#12123D"/>
<path d="M64.0755 9.46436H7.95605V36.1149H64.0755V9.46436Z" fill="#6A6ACF"/>
<path d="M20.4589 12.6885C15.7149 12.6885 11.8691 17.2787 11.8691 22.9411C11.8691 28.6036 15.7149 33.1938 20.4589 33.1938C25.2028 33.1938 29.0486 28.6036 29.0486 22.9411C29.0486 17.2787 25.2028 12.6885 20.4589 12.6885ZM20.4589 29.7744C17.297 29.7744 14.7342 26.7155 14.7342 22.9411C14.7342 19.1668 17.297 16.1079 20.4589 16.1079C23.6208 16.1079 26.1836 19.1668 26.1836 22.9411C26.1836 26.7155 23.6208 29.7744 20.4589 29.7744Z" fill="white"/>
<path d="M14.74 23.1694H11.875C11.976 28.6886 15.7285 33.1309 20.3645 33.1911V29.7709C17.3113 29.7106 14.8403 26.7986 14.74 23.1685V23.1694Z" fill="#FFCB03"/>
<path d="M40.9824 28.7985H35.1712C35.0779 28.7985 35.0029 28.7091 35.0029 28.5977C35.0029 28.4864 35.0787 28.397 35.1712 28.397H40.9824C41.0757 28.397 41.1507 28.4864 41.1507 28.5977C41.1507 28.7091 41.0757 28.7985 40.9824 28.7985Z" fill="#12123D"/>
<path d="M53.0475 28.7985H44.3568C44.2634 28.7985 44.1885 28.7091 44.1885 28.5977C44.1885 28.4864 44.2642 28.397 44.3568 28.397H53.0475C53.1408 28.397 53.2158 28.4864 53.2158 28.5977C53.2158 28.7091 53.1401 28.7985 53.0475 28.7985Z" fill="#12123D"/>
<path d="M50.8729 23.1383H35.1722C35.0789 23.1383 35.0039 23.0489 35.0039 22.9376C35.0039 22.8262 35.0796 22.7368 35.1722 22.7368H50.8729C50.9662 22.7368 51.0412 22.8262 51.0412 22.9376C51.0412 23.0489 50.9662 23.1383 50.8729 23.1383Z" fill="#12123D"/>
<path d="M48.8813 17.4777H35.1712C35.0779 17.4777 35.0029 17.3883 35.0029 17.2769C35.0029 17.1656 35.0787 17.0762 35.1712 17.0762H48.8813C48.9747 17.0762 49.0496 17.1665 49.0496 17.2769C49.0496 17.3874 48.9739 17.4777 48.8813 17.4777Z" fill="#12123D"/>
<path d="M58.0964 17.4777H52.0902C51.9968 17.4777 51.9219 17.3883 51.9219 17.2769C51.9219 17.1656 51.9968 17.0762 52.0902 17.0762H58.0964C58.1898 17.0762 58.2647 17.1665 58.2647 17.2769C58.2647 17.3874 58.189 17.4777 58.0964 17.4777Z" fill="#12123D"/>
<path d="M89.6737 25.7077H77.7982C77.7049 25.7077 77.6299 25.6182 77.6299 25.5069V11.3311C77.6299 11.2198 77.7049 11.1304 77.7982 11.1304H88.9936C89.087 11.1304 89.1619 11.2198 89.1619 11.3311C89.1619 11.4425 89.087 11.5319 88.9936 11.5319H77.9665V25.3052H89.5054V15.1393C89.5054 15.0279 89.5804 14.9385 89.6737 14.9385C89.7671 14.9385 89.842 15.0288 89.842 15.1393V25.506C89.842 25.6173 89.7663 25.7068 89.6737 25.7068V25.7077Z" fill="#12123D"/>
<path d="M83.7355 23.2747C83.6812 23.2747 83.6299 23.2437 83.5985 23.1908L78.9456 15.4157C78.8913 15.3254 78.9089 15.1994 78.9846 15.1355C79.0604 15.0708 79.1659 15.0917 79.2195 15.1821L83.7355 22.729L91.7071 9.46943C91.7614 9.37909 91.8662 9.3581 91.9419 9.42289C92.0177 9.48769 92.0353 9.61271 91.9809 9.70305L83.8716 23.1908C83.8403 23.2437 83.789 23.2747 83.7347 23.2747H83.7355Z" fill="#12123D"/>
<path d="M122.097 13.5685H113.69C113.596 13.5685 113.521 13.4791 113.521 13.3678C113.521 13.2564 113.596 13.167 113.69 13.167H122.097C122.19 13.167 122.265 13.2564 122.265 13.3678C122.265 13.4791 122.19 13.5685 122.097 13.5685Z" fill="#12123D"/>
<path d="M112.071 13.5685H103.981C103.887 13.5685 103.812 13.4791 103.812 13.3678C103.812 13.2564 103.888 13.167 103.981 13.167H112.071C112.164 13.167 112.239 13.2564 112.239 13.3678C112.239 13.4791 112.164 13.5685 112.071 13.5685Z" fill="#12123D"/>
<path d="M102.361 13.5685H96.6986C96.6052 13.5685 96.5303 13.4791 96.5303 13.3678C96.5303 13.2564 96.6052 13.167 96.6986 13.167H102.361C102.455 13.167 102.53 13.2564 102.53 13.3678C102.53 13.4791 102.455 13.5685 102.361 13.5685Z" fill="#12123D"/>
<path d="M120.477 18.4386H117.279C117.185 18.4386 117.11 18.3492 117.11 18.2379C117.11 18.1265 117.185 18.0371 117.279 18.0371H120.477C120.571 18.0371 120.646 18.1275 120.646 18.2379C120.646 18.3483 120.571 18.4386 120.477 18.4386Z" fill="#12123D"/>
<path d="M115.658 18.4386H101.799C101.706 18.4386 101.631 18.3492 101.631 18.2379C101.631 18.1265 101.706 18.0371 101.799 18.0371H115.658C115.752 18.0371 115.827 18.1275 115.827 18.2379C115.827 18.3483 115.752 18.4386 115.658 18.4386Z" fill="#12123D"/>
<path d="M100.18 18.4386H95.0785C94.9851 18.4386 94.9102 18.3492 94.9102 18.2379C94.9102 18.1265 94.9859 18.0371 95.0785 18.0371H100.18C100.273 18.0371 100.348 18.1275 100.348 18.2379C100.348 18.3483 100.273 18.4386 100.18 18.4386Z" fill="#12123D"/>
<path d="M122.097 23.3092H108.625C108.532 23.3092 108.457 23.2189 108.457 23.1085C108.457 22.9981 108.533 22.9077 108.625 22.9077H122.097C122.191 22.9077 122.266 22.9971 122.266 23.1085C122.266 23.2198 122.191 23.3092 122.097 23.3092Z" fill="#12123D"/>
<path d="M107.004 23.3092H95.0785C94.9851 23.3092 94.9102 23.2189 94.9102 23.1085C94.9102 22.9981 94.9859 22.9077 95.0785 22.9077H107.004C107.098 22.9077 107.173 22.9971 107.173 23.1085C107.173 23.2198 107.098 23.3092 107.004 23.3092Z" fill="#12123D"/>
<path d="M89.6737 50.0608H77.7982C77.7049 50.0608 77.6299 49.9713 77.6299 49.86V35.6851C77.6299 35.5738 77.7049 35.4844 77.7982 35.4844H88.9936C89.087 35.4844 89.1619 35.5738 89.1619 35.6851C89.1619 35.7965 89.087 35.8859 88.9936 35.8859H77.9665V49.6592H89.5054V39.4933C89.5054 39.3819 89.5804 39.2925 89.6737 39.2925C89.7671 39.2925 89.842 39.3819 89.842 39.4933V49.86C89.842 49.9713 89.7663 50.0608 89.6737 50.0608Z" fill="#12123D"/>
<path d="M83.7355 47.6277C83.6812 47.6277 83.6299 47.5967 83.5985 47.5438L78.9456 39.7687C78.8913 39.6784 78.9089 39.5525 78.9846 39.4886C79.0604 39.4238 79.1659 39.4448 79.2195 39.5351L83.7355 47.082L91.7071 33.8225C91.7614 33.7321 91.8662 33.7111 91.9419 33.7759C92.0177 33.8407 92.0353 33.9657 91.9809 34.0561L83.8716 47.5438C83.8403 47.5967 83.789 47.6277 83.7347 47.6277H83.7355Z" fill="#12123D"/>
<path d="M122.097 37.9215H108.625C108.532 37.9215 108.457 37.8321 108.457 37.7208C108.457 37.6095 108.533 37.52 108.625 37.52H122.097C122.191 37.52 122.266 37.6095 122.266 37.7208C122.266 37.8321 122.191 37.9215 122.097 37.9215Z" fill="#12123D"/>
<path d="M107.004 37.9215H95.0785C94.9851 37.9215 94.9102 37.8321 94.9102 37.7208C94.9102 37.6095 94.9859 37.52 95.0785 37.52H107.004C107.098 37.52 107.173 37.6095 107.173 37.7208C107.173 37.8321 107.098 37.9215 107.004 37.9215Z" fill="#12123D"/>
<path d="M122.097 42.7922H111.298C111.205 42.7922 111.13 42.7027 111.13 42.5914C111.13 42.4801 111.205 42.3906 111.298 42.3906H122.097C122.191 42.3906 122.266 42.4801 122.266 42.5914C122.266 42.7027 122.191 42.7922 122.097 42.7922Z" fill="#12123D"/>
<path d="M109.679 42.7922H102.433C102.34 42.7922 102.265 42.7027 102.265 42.5914C102.265 42.4801 102.34 42.3906 102.433 42.3906H109.679C109.772 42.3906 109.847 42.4801 109.847 42.5914C109.847 42.7027 109.772 42.7922 109.679 42.7922Z" fill="#12123D"/>
<path d="M100.813 42.7922H95.0785C94.9851 42.7922 94.9102 42.7027 94.9102 42.5914C94.9102 42.4801 94.9859 42.3906 95.0785 42.3906H100.813C100.906 42.3906 100.981 42.4801 100.981 42.5914C100.981 42.7027 100.906 42.7922 100.813 42.7922Z" fill="#12123D"/>
<path d="M112.378 47.6632H106.091C105.998 47.6632 105.923 47.5738 105.923 47.4625C105.923 47.3511 105.999 47.2617 106.091 47.2617H112.378C112.472 47.2617 112.546 47.3511 112.546 47.4625C112.546 47.5738 112.472 47.6632 112.378 47.6632Z" fill="#12123D"/>
<path d="M104.471 47.6632H95.0785C94.9851 47.6632 94.9102 47.5738 94.9102 47.4625C94.9102 47.3511 94.9859 47.2617 95.0785 47.2617H104.471C104.565 47.2617 104.64 47.3511 104.64 47.4625C104.64 47.5738 104.565 47.6632 104.471 47.6632Z" fill="#12123D"/>
<path d="M89.6737 74.9612H77.7982C77.7049 74.9612 77.6299 74.8717 77.6299 74.7604V60.5855C77.6299 60.4742 77.7049 60.3848 77.7982 60.3848H88.9936C89.087 60.3848 89.1619 60.4742 89.1619 60.5855C89.1619 60.6969 89.087 60.7863 88.9936 60.7863H77.9665V74.5596H89.5054V64.3937C89.5054 64.2823 89.5804 64.1929 89.6737 64.1929C89.7671 64.1929 89.842 64.2823 89.842 64.3937V74.7604C89.842 74.8717 89.7663 74.9612 89.6737 74.9612Z" fill="#12123D"/>
<path d="M83.7355 72.5286C83.6812 72.5286 83.6299 72.4976 83.5985 72.4447L78.9456 64.6696C78.8913 64.5793 78.9089 64.4533 78.9846 64.3895C79.0604 64.3247 79.1659 64.3456 79.2195 64.436L83.7355 71.9829L91.7071 58.7233C91.7614 58.633 91.8662 58.612 91.9419 58.6768C92.0177 58.7416 92.0353 58.8666 91.9809 58.957L83.8716 72.4447C83.8403 72.4976 83.789 72.5286 83.7347 72.5286H83.7355Z" fill="#12123D"/>
<path d="M122.097 62.8224H108.625C108.532 62.8224 108.457 62.733 108.457 62.6217C108.457 62.5103 108.533 62.4209 108.625 62.4209H122.097C122.191 62.4209 122.266 62.5103 122.266 62.6217C122.266 62.733 122.191 62.8224 122.097 62.8224Z" fill="#12123D"/>
<path d="M107.004 62.8224H95.0785C94.9851 62.8224 94.9102 62.733 94.9102 62.6217C94.9102 62.5103 94.9859 62.4209 95.0785 62.4209H107.004C107.098 62.4209 107.173 62.5103 107.173 62.6217C107.173 62.733 107.098 62.8224 107.004 62.8224Z" fill="#12123D"/>
<path d="M122.097 67.6935H111.298C111.205 67.6935 111.13 67.6041 111.13 67.4928C111.13 67.3814 111.205 67.292 111.298 67.292H122.097C122.191 67.292 122.266 67.3814 122.266 67.4928C122.266 67.6041 122.191 67.6935 122.097 67.6935Z" fill="#12123D"/>
<path d="M109.679 67.6935H102.433C102.34 67.6935 102.265 67.6041 102.265 67.4928C102.265 67.3814 102.34 67.292 102.433 67.292H109.679C109.772 67.292 109.847 67.3814 109.847 67.4928C109.847 67.6041 109.772 67.6935 109.679 67.6935Z" fill="#12123D"/>
<path d="M100.813 67.6935H95.0785C94.9851 67.6935 94.9102 67.6041 94.9102 67.4928C94.9102 67.3814 94.9859 67.292 95.0785 67.292H100.813C100.906 67.292 100.981 67.3814 100.981 67.4928C100.981 67.6041 100.906 67.6935 100.813 67.6935Z" fill="#12123D"/>
<path d="M112.378 72.5641H106.091C105.998 72.5641 105.923 72.4738 105.923 72.3634C105.923 72.2529 105.999 72.1626 106.091 72.1626H112.378C112.472 72.1626 112.546 72.252 112.546 72.3634C112.546 72.4747 112.472 72.5641 112.378 72.5641Z" fill="#12123D"/>
<path d="M104.471 72.5641H95.0785C94.9851 72.5641 94.9102 72.4738 94.9102 72.3634C94.9102 72.2529 94.9859 72.1626 95.0785 72.1626H104.471C104.565 72.1626 104.64 72.252 104.64 72.3634C104.64 72.4747 104.565 72.5641 104.471 72.5641Z" fill="#12123D"/>
<path d="M89.6737 99.9934H77.7982C77.7049 99.9934 77.6299 99.903 77.6299 99.7926V85.6178C77.6299 85.5064 77.7049 85.417 77.7982 85.417H88.9936C89.087 85.417 89.1619 85.5073 89.1619 85.6178C89.1619 85.7282 89.087 85.8185 88.9936 85.8185H77.9665V99.5918H89.5054V89.4259C89.5054 89.3146 89.5804 89.2251 89.6737 89.2251C89.7671 89.2251 89.842 89.3146 89.842 89.4259V99.7926C89.842 99.9039 89.7663 99.9934 89.6737 99.9934Z" fill="#12123D"/>
<path d="M83.7355 97.5599C83.6812 97.5599 83.6299 97.5288 83.5985 97.4759L78.9456 89.7009C78.8913 89.6105 78.9089 89.4846 78.9846 89.4207C79.0604 89.3559 79.1659 89.3769 79.2195 89.4672L83.7355 97.0141L91.7071 83.7546C91.7614 83.6642 91.8662 83.6433 91.9419 83.7081C92.0177 83.7728 92.0353 83.8979 91.9809 83.9882L83.8716 97.4759C83.8403 97.5288 83.789 97.5599 83.7347 97.5599H83.7355Z" fill="#12123D"/>
<path d="M122.097 87.8546H108.625C108.532 87.8546 108.457 87.7652 108.457 87.6539C108.457 87.5426 108.533 87.4531 108.625 87.4531H122.097C122.191 87.4531 122.266 87.5426 122.266 87.6539C122.266 87.7652 122.191 87.8546 122.097 87.8546Z" fill="#12123D"/>
<path d="M107.004 87.8546H95.0785C94.9851 87.8546 94.9102 87.7652 94.9102 87.6539C94.9102 87.5426 94.9859 87.4531 95.0785 87.4531H107.004C107.098 87.4531 107.173 87.5426 107.173 87.6539C107.173 87.7652 107.098 87.8546 107.004 87.8546Z" fill="#12123D"/>
<path d="M122.097 92.7248H111.298C111.205 92.7248 111.13 92.6344 111.13 92.524C111.13 92.4136 111.205 92.3232 111.298 92.3232H122.097C122.191 92.3232 122.266 92.4127 122.266 92.524C122.266 92.6353 122.191 92.7248 122.097 92.7248Z" fill="#12123D"/>
<path d="M109.679 92.7248H102.433C102.34 92.7248 102.265 92.6344 102.265 92.524C102.265 92.4136 102.34 92.3232 102.433 92.3232H109.679C109.772 92.3232 109.847 92.4127 109.847 92.524C109.847 92.6353 109.772 92.7248 109.679 92.7248Z" fill="#12123D"/>
<path d="M100.813 92.7248H95.0785C94.9851 92.7248 94.9102 92.6344 94.9102 92.524C94.9102 92.4136 94.9859 92.3232 95.0785 92.3232H100.813C100.906 92.3232 100.981 92.4127 100.981 92.524C100.981 92.6353 100.906 92.7248 100.813 92.7248Z" fill="#12123D"/>
<path d="M112.378 97.5954H106.091C105.998 97.5954 105.923 97.506 105.923 97.3946C105.923 97.2833 105.999 97.1938 106.091 97.1938H112.378C112.472 97.1938 112.546 97.2833 112.546 97.3946C112.546 97.506 112.472 97.5954 112.378 97.5954Z" fill="#12123D"/>
<path d="M104.471 97.5954H95.0785C94.9851 97.5954 94.9102 97.506 94.9102 97.3946C94.9102 97.2833 94.9859 97.1938 95.0785 97.1938H104.471C104.565 97.1938 104.64 97.2833 104.64 97.3946C104.64 97.506 104.565 97.5954 104.471 97.5954Z" fill="#12123D"/>
<path d="M39.7467 72.4204H12.0137V85.6179H39.7467V72.4204Z" fill="#6A6ACF"/>
<path d="M36.0107 77.3176H32.3638C32.2246 77.3176 32.1113 77.1826 32.1113 77.0165C32.1113 76.8504 32.2246 76.7153 32.3638 76.7153H36.0107C36.1499 76.7153 36.2631 76.8504 36.2631 77.0165C36.2631 77.1826 36.1499 77.3176 36.0107 77.3176Z" fill="white"/>
<path d="M29.5459 77.3176H15.7486C15.6093 77.3176 15.4961 77.1826 15.4961 77.0165C15.4961 76.8504 15.6093 76.7153 15.7486 76.7153H29.5459C29.6851 76.7153 29.7983 76.8504 29.7983 77.0165C29.7983 77.1826 29.6851 77.3176 29.5459 77.3176Z" fill="white"/>
<path d="M36.0105 81.323H23.2896C23.1503 81.323 23.0371 81.1879 23.0371 81.0218C23.0371 80.8558 23.1503 80.7207 23.2896 80.7207H36.0105C36.1497 80.7207 36.2629 80.8558 36.2629 81.0218C36.2629 81.1879 36.1497 81.323 36.0105 81.323Z" fill="white"/>
<path d="M20.8396 81.323H15.7476C15.6083 81.323 15.4951 81.1879 15.4951 81.0218C15.4951 80.8558 15.6083 80.7207 15.7476 80.7207H20.8396C20.9788 80.7207 21.0921 80.8558 21.0921 81.0218C21.0921 81.1879 20.9788 81.323 20.8396 81.323Z" fill="white"/>
<path d="M11.1753 78.4349H7.87729C7.78396 78.4349 7.70898 78.3454 7.70898 78.2341V42.0382C7.70898 41.9268 7.78396 41.8374 7.87729 41.8374C7.97062 41.8374 8.0456 41.9268 8.0456 42.0382V78.0333H11.1753C11.2687 78.0333 11.3436 78.1228 11.3436 78.2341C11.3436 78.3454 11.2687 78.4349 11.1753 78.4349Z" fill="#12123D"/>
<path d="M19.551 64.0763H10.3255C10.2322 64.0763 10.1572 63.9869 10.1572 63.8756C10.1572 63.7642 10.2322 63.6748 10.3255 63.6748H19.551C19.6444 63.6748 19.7193 63.7642 19.7193 63.8756C19.7193 63.9869 19.6444 64.0763 19.551 64.0763Z" fill="#12123D"/>
<path d="M16.7451 66.4191H10.3265C10.2332 66.4191 10.1582 66.3297 10.1582 66.2183C10.1582 66.107 10.2332 66.0176 10.3265 66.0176H16.7451C16.8384 66.0176 16.9134 66.107 16.9134 66.2183C16.9134 66.3297 16.8377 66.4191 16.7451 66.4191Z" fill="#12123D"/>
<path d="M19.551 52.2257H10.3255C10.2322 52.2257 10.1572 52.1363 10.1572 52.025C10.1572 51.9136 10.2322 51.8242 10.3255 51.8242H19.551C19.6444 51.8242 19.7193 51.9136 19.7193 52.025C19.7193 52.1363 19.6444 52.2257 19.551 52.2257Z" fill="#12123D"/>
<path d="M16.7451 54.5685H10.3265C10.2332 54.5685 10.1582 54.4791 10.1582 54.3678C10.1582 54.2564 10.2332 54.167 10.3265 54.167H16.7451C16.8384 54.167 16.9134 54.2564 16.9134 54.3678C16.9134 54.4791 16.8377 54.5685 16.7451 54.5685Z" fill="#12123D"/>
<path d="M21.83 148.552L19.1501 158.262C18.8808 159.13 18.3866 159.873 17.7394 160.383L12.258 164.703C11.5136 165.29 11.8617 166.672 12.7545 166.672H32.9803C34.1386 166.672 35.1622 165.775 35.508 164.458L39.6835 148.552H21.83V148.552Z" fill="#6A6ACF"/>
<path d="M32.9799 166.873H12.7541C12.2713 166.873 11.8697 166.517 11.7305 165.965C11.5912 165.413 11.7618 164.852 12.165 164.535L17.6464 160.215C18.2684 159.725 18.7335 159.025 18.9921 158.191L21.6697 148.488C21.6927 148.406 21.7569 148.35 21.8296 148.35H39.6831C39.7366 148.35 39.7871 148.38 39.8185 148.432C39.8506 148.484 39.8598 148.55 39.8438 148.611L35.6682 164.516C35.2987 165.925 34.2177 166.873 32.9799 166.873ZM21.9513 148.753L19.3096 158.325C19.0235 159.245 18.5132 160.012 17.8316 160.55L12.3501 164.87C12.0151 165.134 11.9768 165.549 12.0525 165.85C12.1283 166.15 12.3524 166.471 12.7533 166.471H32.9791C34.0693 166.471 35.0202 165.638 35.3461 164.397L39.4528 148.753H21.9505H21.9513Z" fill="#12123D"/>
<path d="M70.6568 160.881C70.1305 160.163 69.8168 159.258 69.7632 158.307L69.5835 148.552H51.2908L50.9114 163.418C50.8663 165.199 52.0643 166.673 53.5592 166.673H72.9175C73.6901 166.673 74.104 165.587 73.5953 164.894L70.6568 160.882V160.881Z" fill="#6A6ACF"/>
<path d="M72.9172 166.873H53.5589C52.79 166.873 52.0717 166.511 51.5369 165.852C51.0021 165.194 50.7199 164.327 50.7436 163.411L51.123 148.545C51.1261 148.436 51.2003 148.35 51.2913 148.35H69.5832C69.675 148.35 69.7492 148.437 69.7515 148.546L69.9313 158.3C69.9818 159.194 70.2839 160.066 70.7827 160.748L73.7212 164.759C74.0005 165.141 74.0647 165.664 73.8895 166.125C73.7143 166.586 73.341 166.873 72.9164 166.873H72.9172ZM51.4543 148.753L51.0802 163.423C51.0595 164.23 51.3074 164.993 51.7787 165.572C52.2499 166.152 52.8826 166.471 53.5589 166.471H72.9172C73.2079 166.471 73.4634 166.275 73.5835 165.959C73.7036 165.644 73.6593 165.285 73.468 165.024L70.5295 161.012C69.9825 160.265 69.6505 159.309 69.5947 158.318L69.4179 148.752H51.4543V148.753Z" fill="#12123D"/>
<path d="M38.3457 158.496L52.2011 102.774L50.2151 158.611L70.6231 158.241L68.2423 75.9048L41.8786 75.9166L17.6562 158.463L38.3457 158.496Z" fill="#6A6ACF"/>
<path d="M50.2141 158.813C50.169 158.813 50.1254 158.791 50.0933 158.752C50.0611 158.713 50.0435 158.659 50.0458 158.603L51.9745 104.39L38.5069 158.553C38.4855 158.639 38.4197 158.697 38.3455 158.697L17.656 158.663C17.6017 158.663 17.5505 158.632 17.5183 158.579C17.487 158.526 17.4785 158.457 17.4969 158.396L41.7193 75.8501C41.743 75.7698 41.8065 75.7151 41.8784 75.7151L68.2413 75.7041C68.3323 75.7041 68.4065 75.7899 68.4096 75.8985L70.7904 158.235C70.7919 158.288 70.7751 158.341 70.7445 158.38C70.7131 158.419 70.6703 158.442 70.6251 158.442L50.2172 158.812H50.2149L50.2141 158.813ZM52.2002 102.574C52.2093 102.574 52.2185 102.574 52.2285 102.576C52.3119 102.593 52.3723 102.681 52.3692 102.783L50.3909 158.408L70.4484 158.043L68.0791 76.1056L41.9985 76.1166L17.894 158.261L38.2208 158.295L52.0403 102.716C52.0617 102.629 52.1282 102.572 52.2017 102.572L52.2002 102.574Z" fill="#12123D"/>
<path d="M52.0091 161.478C51.9166 161.478 51.8408 161.388 51.8408 161.277C51.8408 161.166 51.9158 161.075 52.0091 161.075L70.7187 161.018C70.8113 161.018 70.887 161.107 70.887 161.219C70.887 161.33 70.812 161.42 70.7187 161.42L52.0091 161.478Z" fill="#12123D"/>
<path d="M33.5376 161.359H33.5353L17.2371 161.128C17.1438 161.126 17.0696 161.036 17.0703 160.925C17.0718 160.814 17.1468 160.726 17.2386 160.726H17.2409L33.5391 160.957C33.6324 160.959 33.7066 161.049 33.7059 161.16C33.7043 161.271 33.6294 161.359 33.5376 161.359Z" fill="#12123D"/>
<path d="M52.2505 104.236H52.2459C52.1526 104.233 52.0799 104.14 52.0822 104.03L52.2735 95.7063C52.3025 94.6358 51.8527 93.6083 51.1007 93.0252L49.8698 92.0706C49.7917 92.0104 49.7695 91.8854 49.82 91.7923C49.8705 91.6992 49.9753 91.6727 50.0534 91.733L51.2843 92.6875C52.135 93.3473 52.643 94.5081 52.6109 95.7172L52.4196 104.039C52.4173 104.148 52.3423 104.234 52.2513 104.234L52.2505 104.236Z" fill="#12123D"/>
<path d="M31.2218 23.804H38.6869L36.5249 16.3465C36.3429 15.7178 36.3222 15.0388 36.4645 14.3946C36.8172 12.8003 37.3512 9.65652 36.3482 8.65726C35.2481 7.56127 33.9437 8.73757 33.9437 8.73757C33.9437 8.73757 32.787 6.03638 32.1803 6.01721C31.4153 5.99349 31.0129 6.3503 30.9961 7.39062C30.9961 7.39062 29.8722 6.60764 29.6902 8.20007C29.6902 8.20007 28.3636 8.14075 28.5969 10.0152C28.5969 10.0152 26.9804 11.301 29.072 14.3973C29.072 14.3973 30.0398 18.6389 31.2218 23.8031V23.804Z" fill="white"/>
<path d="M38.6865 24.0048H31.2213C31.1456 24.0048 31.079 23.9446 31.0591 23.857C29.9445 18.9857 29.0203 14.9358 28.9186 14.4913C28.0901 13.2548 27.732 12.1424 27.856 11.1851C27.9447 10.4952 28.2622 10.0901 28.4175 9.92944C28.3578 9.31163 28.4573 8.82615 28.7136 8.48485C28.9798 8.12986 29.3439 8.03404 29.5459 8.00849C29.6232 7.55038 29.7922 7.24376 30.0485 7.0941C30.3262 6.93258 30.6361 7.00467 30.8434 7.09136C30.8832 6.68619 30.9933 6.38504 31.1785 6.17333C31.4011 5.91872 31.7285 5.80282 32.1845 5.81651C32.7843 5.83476 33.6495 7.6389 34.0076 8.44926C34.4161 8.16089 35.5062 7.55769 36.4557 8.5031C37.5152 9.55894 37.0179 12.679 36.6263 14.4457C36.4916 15.0535 36.5115 15.6886 36.6829 16.28L38.8448 23.7374C38.8624 23.7986 38.854 23.867 38.8227 23.92C38.7913 23.9729 38.74 24.0039 38.6857 24.0039L38.6865 24.0048ZM31.3498 23.6033H38.4501L36.3654 16.4123C36.1718 15.7443 36.1496 15.0288 36.3011 14.3435C36.5995 12.9957 37.1908 9.75879 36.2399 8.81246C35.2538 7.82963 34.0565 8.8882 34.045 8.89915C34.0053 8.93474 33.9548 8.94752 33.9058 8.93474C33.8576 8.92106 33.8163 8.88364 33.7933 8.83071C33.2586 7.58232 32.4882 6.2299 32.1753 6.21987C31.815 6.20618 31.5656 6.28922 31.411 6.46535C31.2519 6.64695 31.1708 6.95174 31.1639 7.39616C31.1624 7.46734 31.1303 7.53305 31.0783 7.56772C31.0262 7.6024 30.962 7.60149 30.9107 7.5659C30.9069 7.56316 30.493 7.283 30.1954 7.4573C30.0172 7.56134 29.9032 7.82142 29.8565 8.22842C29.845 8.32789 29.7731 8.40272 29.6897 8.40272C29.6874 8.40272 29.6851 8.40272 29.6828 8.40272C29.679 8.40089 29.2345 8.39177 28.9622 8.75679C28.7618 9.026 28.6944 9.43939 28.7633 9.98784C28.7725 10.0645 28.7442 10.1412 28.6898 10.184C28.6738 10.1968 28.2767 10.5281 28.1865 11.2572C28.0832 12.0931 28.4343 13.1362 29.2024 14.2732C29.2169 14.2951 29.2277 14.3198 29.2338 14.3463C29.2338 14.3463 30.1832 18.5066 31.3491 23.6042L31.3498 23.6033Z" fill="#12123D"/>
<path d="M32.6612 12.8305C32.4164 12.8305 32.1632 12.7565 31.9803 12.5184C31.7049 12.1606 31.7638 11.6432 31.8235 11.3667C32.0637 10.2506 32.8341 9.47679 33.6703 8.71845C33.7445 8.65092 33.8501 8.66826 33.9067 8.75678C33.9633 8.8453 33.9488 8.97123 33.8746 9.03876C33.0873 9.7533 32.3636 10.4761 32.1502 11.4671C32.1157 11.6259 32.0553 12.021 32.229 12.2473C32.4103 12.4837 32.7645 12.4372 32.9603 12.3888C33.4408 12.2692 33.8921 12.0037 34.2647 11.6213C34.3351 11.5483 34.4414 11.5584 34.5026 11.6423C34.5631 11.7263 34.5554 11.8531 34.485 11.9261C34.0696 12.3532 33.5662 12.6489 33.03 12.7821C32.9183 12.8104 32.7913 12.8305 32.6627 12.8305H32.6612Z" fill="#12123D"/>
<path d="M32.958 14.7004C32.8662 14.7004 32.7912 14.6137 32.7897 14.5042C32.7752 13.7094 33.01 12.9027 33.4331 12.2894C33.492 12.2037 33.5983 12.1918 33.6702 12.2621C33.7422 12.3323 33.7521 12.4592 33.6932 12.545C33.3206 13.0852 33.1141 13.7961 33.1263 14.496C33.1286 14.6074 33.0544 14.6986 32.9618 14.7013H32.958V14.7004Z" fill="#12123D"/>
<path d="M32.1042 11.0327C32.0667 11.0327 32.0285 11.0172 31.9971 10.9861C31.1097 10.1073 30.6659 8.66365 30.8656 7.30849C30.8817 7.19898 30.9681 7.12598 31.0607 7.14514C31.1525 7.16431 31.2137 7.26834 31.1976 7.37785C31.0186 8.59338 31.4164 9.88831 32.2128 10.6768C32.2847 10.7479 32.2939 10.8748 32.235 10.9597C32.2013 11.0071 32.1539 11.0327 32.105 11.0327H32.1042Z" fill="#12123D"/>
<path d="M31.1772 12.3186C30.8689 12.3186 30.5452 12.1607 30.2897 11.8788C30.0625 11.6287 29.8804 11.2847 29.7328 10.8275C29.4574 9.97424 29.3862 9.04707 29.5285 8.1482C29.5461 8.0396 29.6349 7.96933 29.7251 7.9885C29.8162 8.00857 29.8766 8.11443 29.859 8.22303C29.7305 9.03703 29.797 9.91036 30.0472 10.6833C30.1757 11.0812 30.3295 11.3759 30.5185 11.584C30.7396 11.8277 31.0196 11.9481 31.2705 11.9098C31.5352 11.8678 31.7593 11.626 31.7922 11.3467C31.8052 11.2372 31.8886 11.1597 31.9827 11.1761C32.0745 11.1916 32.1388 11.2929 32.1258 11.4033C32.0715 11.8623 31.731 12.2429 31.3149 12.3086C31.2697 12.3159 31.2238 12.3195 31.1772 12.3195V12.3186Z" fill="#12123D"/>
<path d="M30.1042 13.0586C29.9167 13.0586 29.7216 12.9956 29.5426 12.8715C29.3322 12.7273 29.1433 12.5065 28.9635 12.1953C28.5642 11.5017 28.3706 10.6585 28.4196 9.81898C28.4264 9.70765 28.5075 9.62917 28.5993 9.63191C28.6919 9.64012 28.7623 9.73594 28.7562 9.84636C28.7126 10.5956 28.8847 11.3484 29.2412 11.9672C29.3911 12.2272 29.5449 12.4088 29.7102 12.5229C29.8991 12.6525 30.1149 12.6899 30.287 12.6224C30.4645 12.553 30.6007 12.3541 30.6045 12.1588C30.6068 12.0493 30.6818 11.9626 30.7728 11.9626H30.7774C30.8707 11.9653 30.9442 12.0575 30.9419 12.1688C30.9342 12.5375 30.7078 12.8806 30.3918 13.0038C30.3 13.0394 30.2028 13.0577 30.1042 13.0577V13.0586Z" fill="#12123D"/>
<path d="M29.4613 14.1402C29.2333 14.1402 29.0046 14.0279 28.8516 13.8171C28.7904 13.7332 28.7988 13.6063 28.8692 13.5333C28.9396 13.4612 29.0459 13.4703 29.1071 13.5543C29.2456 13.7459 29.5156 13.7952 29.6969 13.662C29.8775 13.5278 29.9609 13.2167 29.879 12.983C29.8431 12.8808 29.8836 12.7631 29.9693 12.7202C30.055 12.6773 30.1537 12.7257 30.1896 12.8288C30.3365 13.2486 30.198 13.7642 29.8744 14.0042C29.749 14.0973 29.6051 14.1411 29.4613 14.1411V14.1402Z" fill="#12123D"/>
<path d="M33.0878 9.52854C33.0197 9.52854 32.9547 9.47835 32.9294 9.39713L32.488 7.96897C32.4559 7.86494 32.5002 7.74904 32.5874 7.71072C32.6747 7.67239 32.7718 7.72532 32.804 7.82935L33.2454 9.25751C33.2775 9.36154 33.2331 9.47744 33.1459 9.51577C33.1268 9.52398 33.1069 9.52854 33.0878 9.52854Z" fill="#12123D"/>
<path d="M69.4603 9.40186C69.5077 10.7479 67.9095 12.1012 67.8529 13.1972C67.8185 13.8716 67.8545 14.8316 67.7305 15.4914L66.0566 24.429H73.5203C74.335 18.1406 75.061 12.5064 75.061 12.5064C75.7603 11.1914 75.9278 10.2241 75.8704 9.53144L69.4595 9.40186H69.4603Z" fill="white"/>
<path d="M73.521 24.6289H66.0574C66.0061 24.6289 65.9579 24.6015 65.9258 24.5532C65.8937 24.5057 65.8814 24.4437 65.8929 24.3834L67.5668 15.4458C67.6479 15.0132 67.657 14.4191 67.6662 13.8944C67.6701 13.6398 67.6746 13.3998 67.6854 13.1835C67.7144 12.6223 68.0755 12.0465 68.4573 11.4369C68.8788 10.7643 69.3156 10.068 69.2919 9.40917C69.2896 9.35351 69.3072 9.29967 69.3393 9.26042C69.3715 9.22118 69.4143 9.2002 69.4602 9.2002H69.4633L75.8742 9.32978C75.9599 9.3316 76.0311 9.40917 76.0387 9.51138C76.1106 10.382 75.836 11.4141 75.2224 12.5776C75.1551 13.0996 74.4612 18.4837 73.6862 24.4583C73.6732 24.5568 73.6029 24.6289 73.5195 24.6289H73.521ZM66.2678 24.2274H73.3764C74.1827 18.0083 74.8958 12.4754 74.8958 12.4754C74.8996 12.448 74.9072 12.4215 74.9202 12.3987C75.4619 11.3794 75.7281 10.4823 75.7136 9.72948L69.6255 9.60629C69.5734 10.3299 69.1443 11.0144 68.7281 11.6787C68.3769 12.239 68.0449 12.7683 68.0227 13.2091C68.012 13.4172 68.0082 13.6526 68.0044 13.9026C67.9952 14.4456 67.9852 15.0616 67.8973 15.5343L66.2693 24.2274H66.2678Z" fill="#12123D"/>
<path d="M71.1513 13.3407C71.0657 13.3407 70.9915 13.2622 70.9838 13.1582C70.9295 12.45 70.6526 11.7601 70.2241 11.2655C70.1576 11.188 70.1553 11.0611 70.2203 10.9817C70.2853 10.9023 70.3917 10.9005 70.4582 10.9772C70.944 11.5375 71.2577 12.3186 71.3197 13.1217C71.3281 13.2321 71.26 13.3298 71.1674 13.3407C71.1621 13.3407 71.1567 13.3407 71.1521 13.3407H71.1513Z" fill="#12123D"/>
<path d="M69.9284 6.36561C70.4112 6.81003 70.6988 7.51726 70.9344 8.20077C71.5128 9.87624 71.9198 11.6448 71.9657 13.3942L68.3196 15.1746C67.8697 14.69 67.7458 13.8678 67.8521 13.1971C67.9585 12.5263 68.25 11.9578 68.4932 11.3674C68.7365 10.7769 68.94 10.1126 68.852 9.40627C68.7878 8.89067 68.5736 8.40428 68.4282 7.90328C68.2829 7.40228 68.2125 6.82463 68.4236 6.42219C68.7174 5.86279 69.4442 5.92119 69.9269 6.36652L69.9284 6.36561Z" fill="white"/>
<path d="M68.3205 15.3755C68.2799 15.3755 68.2401 15.3582 68.2072 15.3235C67.6633 14.7376 67.5868 13.7913 67.687 13.1598C67.7765 12.594 67.9892 12.1031 68.1942 11.6276C68.2447 11.5117 68.2945 11.3958 68.3427 11.2781C68.5477 10.7808 68.7718 10.1228 68.6861 9.43564C68.6448 9.10621 68.5377 8.78681 68.4245 8.44916C68.371 8.28946 68.3174 8.12977 68.27 7.96824C68.1307 7.48914 68.0206 6.81293 68.2814 6.31467C68.4153 6.05916 68.6272 5.8949 68.895 5.8374C69.263 5.75984 69.6983 5.90037 70.0303 6.20608C70.5421 6.67788 70.842 7.4061 71.0891 8.12338C71.7394 10.0078 72.0905 11.7782 72.1334 13.387C72.1364 13.4984 72.0638 13.5905 71.9704 13.5942C71.8763 13.6051 71.7998 13.5112 71.7968 13.3998C71.7554 11.8393 71.4127 10.1155 70.7777 8.27669C70.5482 7.61052 70.2736 6.93796 69.8245 6.52365C69.569 6.28821 69.2263 6.17323 68.9547 6.23254C68.8346 6.2581 68.6708 6.33019 68.5668 6.5273C68.4176 6.81111 68.4253 7.27652 68.5882 7.83683C68.6334 7.99197 68.6846 8.14528 68.7366 8.2995C68.8522 8.64354 68.9723 9.00035 69.0189 9.37633C69.1184 10.1739 68.8713 10.9067 68.6448 11.4561C68.5959 11.5756 68.5446 11.6933 68.4934 11.812C68.2899 12.2819 68.0986 12.7263 68.0175 13.2346C67.9334 13.7639 67.9915 14.5515 68.4322 15.0251C68.501 15.0999 68.5064 15.2268 68.4444 15.3089C68.4115 15.3527 68.3656 15.3755 68.3197 15.3755H68.3205Z" fill="#12123D"/>
<path d="M53.137 43.9142C52.4125 44.1049 51.3338 44.3495 50.0088 44.5019C47.9761 44.7364 46.8714 44.8477 45.86 44.1706C44.7959 43.457 44.3307 42.2013 44.066 41.4484C42.119 35.9101 40.6984 28.2582 39.7115 24.2785C39.2425 22.3859 38.4599 19.6673 37.1356 16.4834C34.5299 17.1468 31.925 17.8112 29.3193 18.4746C29.9803 23.2437 31.1776 30.567 33.4023 39.3705C34.722 44.5904 35.5337 46.8955 36.786 51.6408C38.2273 57.1035 39.5485 68.4357 39.8676 80.0125C39.876 80.3319 40.0925 80.5846 40.3602 80.5855C48.7228 80.5938 59.6504 80.9068 68.1392 80.9305C68.765 80.9323 69.2768 80.3428 69.2982 79.5972C69.5897 69.3893 69.3189 56.9793 70.1543 51.5797C71.0915 45.5257 72.1166 40.8224 73.2037 32.0618C73.9091 26.3765 74.3038 21.6941 74.5272 18.6352C71.8626 18.2127 69.1972 17.7911 66.5326 17.3686C65.0929 22.0446 64.3431 25.9239 63.9239 28.6305C63.3211 32.5235 62.3433 36.3216 61.6005 40.1809C61.2601 41.9485 61.0153 43.2571 60.0605 44.1761C57.9337 46.2239 54.2203 44.4708 53.1355 43.9142H53.137Z" fill="#FFCB03"/>
<path d="M52.7478 75.1041C52.6828 75.1041 52.6208 75.0585 52.5932 74.9827L47.5693 61.0479C47.5418 60.9703 47.5571 60.8809 47.6075 60.8234L49.8376 58.2755L46.5472 57.6714C46.5021 57.6632 46.4615 57.6331 46.4348 57.5884C46.4087 57.5436 46.3988 57.488 46.4072 57.4341L48.3955 45.2833C48.4131 45.1738 48.5019 45.1027 48.5929 45.1246C48.6839 45.1456 48.7436 45.2514 48.726 45.36L46.7714 57.3055L50.2262 57.9397C50.2897 57.9516 50.3418 58.0045 50.3617 58.0775C50.3808 58.1505 50.3639 58.2299 50.3173 58.2828L47.925 61.016L52.9031 74.8231C52.9398 74.9253 52.9 75.043 52.8151 75.0868C52.7937 75.0977 52.7707 75.1032 52.7485 75.1032L52.7478 75.1041Z" fill="#12123D"/>
<path d="M54.9017 75.0782C54.8795 75.0782 54.8566 75.0727 54.8352 75.0618C54.7495 75.018 54.7105 74.8993 54.7472 74.7981L59.7153 61.0174L57.323 58.2843C57.2764 58.2314 57.2596 58.152 57.2787 58.079C57.2978 58.006 57.3506 57.9521 57.4141 57.9412L60.869 57.3069L58.9143 45.3615C58.8967 45.2529 58.9564 45.147 59.0474 45.126C59.1385 45.1041 59.2272 45.1753 59.2448 45.2848L61.2331 57.4356C61.2415 57.4894 61.2323 57.5451 61.2056 57.5898C61.1788 57.6345 61.1383 57.6647 61.0931 57.6729L57.8027 58.277L60.0328 60.8249C60.0833 60.8833 60.0986 60.9727 60.071 61.0494L55.0563 74.9578C55.0287 75.0335 54.9668 75.0791 54.9017 75.0791V75.0782Z" fill="#12123D"/>
<path d="M67.7847 81.0162H67.7832L40.7654 80.7297C40.6721 80.7287 40.5979 80.6375 40.5986 80.5271C40.5994 80.4157 40.6705 80.3199 40.7685 80.3281L67.7862 80.6147C67.8796 80.6156 67.9538 80.7068 67.953 80.8173C67.9523 80.9277 67.8765 81.0162 67.7847 81.0162Z" fill="#12123D"/>
<path d="M53.9016 80.0502L49.7949 44.4629L53.8098 39.6729L57.8247 44.4629L53.9016 80.0502Z" fill="white"/>
<path d="M53.8244 51.1114L52.1543 48.6785L53.8244 46.2456L55.4952 48.6785L53.8244 51.1114Z" fill="#12123D"/>
<path d="M53.202 48.9414L52.2197 65.5154L53.8944 80.1547L55.4948 65.6185L54.4697 48.9414H53.202Z" fill="#12123D"/>
<path d="M75.3506 11.5229C75.6688 11.616 75.9963 11.4125 76.1149 11.0483L76.8095 8.91386C76.9656 8.43477 76.7322 7.90274 76.3138 7.78046C75.9481 7.67369 75.5755 7.92373 75.4623 8.35172L74.8839 10.5346C74.7707 10.9626 74.9841 11.4161 75.3506 11.5229Z" fill="white"/>
<path d="M75.5043 11.7464C75.44 11.7464 75.375 11.7373 75.31 11.7181C75.0904 11.6542 74.9007 11.4818 74.7898 11.2472C74.6788 11.0127 74.6544 10.7307 74.7224 10.4734L75.3008 8.29051C75.44 7.76305 75.9036 7.45461 76.3527 7.58419C76.5998 7.65628 76.8079 7.85157 76.9257 8.11987C77.0428 8.38816 77.0573 8.70391 76.9655 8.98589L76.2709 11.1204C76.1462 11.5027 75.8363 11.7455 75.5043 11.7455V11.7464ZM75.3903 11.3284C75.6259 11.3969 75.8692 11.2463 75.9572 10.9771L76.6518 8.84262C76.7085 8.66832 76.6993 8.47394 76.6274 8.30785C76.5547 8.14177 76.4262 8.02131 76.2732 7.97659C75.9955 7.89537 75.7086 8.08701 75.6221 8.4128L75.0438 10.5957C75.0032 10.749 75.017 10.9114 75.0835 11.051C75.1493 11.1916 75.2587 11.2901 75.3903 11.3284Z" fill="#12123D"/>
<path d="M73.6741 12.2547C74.0651 12.3688 74.4636 12.1023 74.5853 11.6451L75.4628 8.36083C75.6143 7.79412 75.3312 7.19366 74.8469 7.05221C74.3849 6.91715 73.9174 7.2548 73.8042 7.80507L73.1141 11.1524C73.0132 11.6415 73.2641 12.1343 73.6741 12.2538V12.2547Z" fill="white"/>
<path d="M73.8546 12.482C73.7819 12.482 73.7077 12.472 73.6343 12.4501C73.3917 12.3789 73.1875 12.2 73.0582 11.9464C72.9289 11.6927 72.8906 11.3933 72.9503 11.105L73.6404 7.75768C73.7758 7.10064 74.3343 6.69637 74.8866 6.85698C75.1628 6.93729 75.4007 7.15356 75.5399 7.44924C75.6792 7.74491 75.709 8.09898 75.6226 8.42203L74.7451 11.7063C74.6196 12.1754 74.2516 12.482 73.8538 12.482H73.8546ZM73.7138 12.0595C74.0175 12.1489 74.3297 11.94 74.4245 11.5841L75.302 8.29975C75.3609 8.07982 75.341 7.84711 75.2462 7.64635C75.1513 7.44467 74.9952 7.30323 74.8063 7.24847C74.4345 7.13988 74.0581 7.41182 73.967 7.85441L73.277 11.2017C73.2395 11.386 73.2632 11.5768 73.3458 11.7383C73.4285 11.9007 73.5593 12.0148 73.7138 12.0595Z" fill="#12123D"/>
<path d="M72.2064 11.8266C72.6164 11.9462 73.0311 11.6468 73.1313 11.1586L73.8213 7.81134C73.9346 7.26015 73.6523 6.7044 73.1902 6.56934C72.7059 6.42789 72.2217 6.80478 72.1352 7.38974L71.6357 10.7845C71.566 11.2572 71.8154 11.7126 72.2064 11.8266Z" fill="white"/>
<path d="M72.3888 12.0539C72.3153 12.0539 72.2411 12.0439 72.1669 12.022C71.6918 11.8833 71.3858 11.3248 71.47 10.7499L71.9703 7.35515C72.0192 7.02206 72.1837 6.72457 72.4217 6.53932C72.6596 6.35407 72.9549 6.29384 73.2311 6.37414C73.4988 6.45262 73.7245 6.64974 73.8668 6.93081C74.0091 7.21096 74.0519 7.54131 73.9854 7.85889L73.2953 11.2062C73.1913 11.7126 72.808 12.0539 72.3888 12.0539ZM72.2465 11.6314C72.5662 11.7245 72.8898 11.4909 72.9679 11.1104L73.6579 7.76307C73.7023 7.54953 73.674 7.32777 73.5776 7.13887C73.482 6.94997 73.3297 6.81674 73.1492 6.76472C72.961 6.70997 72.7667 6.74921 72.6045 6.87605C72.4423 7.0029 72.3344 7.19728 72.3008 7.42542L71.8005 10.8202C71.7461 11.187 71.942 11.5429 72.2449 11.6314H72.2465Z" fill="#12123D"/>
<path d="M70.8769 10.8638C71.2602 10.976 71.6434 10.6785 71.7131 10.2158L72.13 7.44074C72.2012 6.96621 71.951 6.50719 71.5578 6.3922C71.1064 6.26079 70.6604 6.63312 70.6114 7.18431L70.3613 9.98771C70.3253 10.3929 70.5456 10.767 70.8777 10.8638H70.8769Z" fill="white"/>
<path d="M71.0383 11.0875C70.971 11.0875 70.9029 11.0775 70.8363 11.0583C70.424 10.9378 70.1478 10.4679 70.1922 9.96595L70.4423 7.16347C70.4706 6.84316 70.6137 6.55387 70.8348 6.36862C71.0559 6.18337 71.3344 6.12132 71.596 6.19706C72.0741 6.33668 72.3809 6.89882 72.2945 7.47648L71.8775 10.2516C71.8362 10.5263 71.7 10.7717 71.5034 10.9241C71.3642 11.0327 71.2012 11.0884 71.0375 11.0884L71.0383 11.0875ZM70.9167 10.6677C71.0567 10.7088 71.1997 10.6796 71.3206 10.5856C71.4407 10.4916 71.521 10.3474 71.5463 10.1795L71.9632 7.40438C72.0183 7.0348 71.8224 6.67616 71.5164 6.58673C71.3481 6.53745 71.1706 6.5776 71.0283 6.69623C70.8868 6.81487 70.795 7.00012 70.7774 7.20453L70.5273 10.007C70.5005 10.3109 70.6673 10.5938 70.9167 10.6668V10.6677Z" fill="#12123D"/>
<path d="M51.3005 41.7767L50.9355 44.4669C51.1 44.6877 52.1336 46.0338 53.8312 46.0602C55.704 46.0894 56.8224 44.4888 56.9563 44.2899C56.8622 43.2888 56.7689 42.2877 56.6748 41.2866L51.3005 41.7767Z" fill="white"/>
<path d="M53.8826 46.2623C53.865 46.2623 53.8467 46.2623 53.8283 46.2623C52.1513 46.2358 51.0933 44.9838 50.8087 44.6005C50.7751 44.5558 50.7605 44.4947 50.7689 44.4353L51.1339 41.7451C51.1461 41.6538 51.2096 41.5836 51.2876 41.5772L56.662 41.0871C56.7507 41.078 56.8318 41.1574 56.8425 41.2651L57.124 44.2683C57.1286 44.3213 57.1156 44.3751 57.0881 44.4162C56.8792 44.7264 55.75 46.2623 53.8834 46.2623H53.8826ZM51.1147 44.4034C51.4383 44.8168 52.3847 45.837 53.8329 45.8599C53.8497 45.8599 53.8658 45.8599 53.8826 45.8599C55.4922 45.8599 56.5051 44.6142 56.7805 44.2273L56.525 41.5014L51.4452 41.965L51.114 44.4034H51.1147Z" fill="#12123D"/>
<path d="M46.6827 31.8082C46.5825 31.0946 46.558 30.3417 46.7737 29.6646C46.9895 28.9884 47.489 28.4044 48.0927 28.3341C48.6113 28.2739 49.1293 28.5869 49.6441 28.492C50.5407 28.3268 50.973 27.0757 51.7503 26.5163C52.3011 26.1202 53.0324 26.1138 53.5879 26.5008C53.9918 26.7827 54.3452 27.2682 54.8127 27.2609C55.2556 27.2545 55.6037 26.801 56.0321 26.6678C56.4506 26.5382 56.905 26.7371 57.2309 27.0766C57.5568 27.4161 57.7726 27.8796 57.9531 28.3487C58.4496 29.64 58.7235 31.0535 58.7526 32.4735C58.7786 33.7675 58.5789 35.1309 57.8904 36.1311C57.2692 37.0327 56.3282 37.5309 55.3895 37.8585C53.8786 38.3869 52.2797 38.5548 50.7144 38.3504C49.3787 38.1761 48.7957 37.3858 48.1294 36.1064C47.4431 34.7896 46.8977 33.3459 46.6819 31.8073L46.6827 31.8082Z" fill="#12123D"/>
<path d="M59.082 34.7426C58.3453 33.5891 57.6422 34.4086 57.2191 35.1834C57.135 34.1358 57.0133 33.1876 56.8397 32.5141C56.1282 29.7554 55.1444 32.0213 54.0534 33.1237C52.9625 34.2261 51.1257 31.9821 50.2482 32.1044C49.6576 32.1865 49.3799 32.9239 49.2605 33.3975C49.2039 33.6229 49.1871 33.8574 49.2062 34.092C49.2429 34.5537 49.3217 35.5146 49.4258 36.6736C48.8972 35.98 48.048 35.2336 47.475 36.5677C46.7528 38.2505 48.4022 39.8648 49.6905 39.4323C49.7548 40.0546 49.8228 40.6725 49.8917 41.251C50.0768 42.7987 51.1976 43.9403 52.5066 43.9102C53.3489 43.8911 54.3748 43.766 55.4902 43.4147C56.6239 43.0579 57.405 41.8168 57.4005 40.4169C57.3982 39.7106 57.3882 38.8893 57.3645 38.0351C58.6857 38.1474 60.0337 36.2319 59.082 34.7426Z" fill="white"/>
<path d="M52.4564 44.1113C51.0885 44.1113 49.9188 42.904 49.7245 41.2787C49.6671 40.8005 49.6074 40.2621 49.5455 39.6753C48.8386 39.8131 48.0391 39.4417 47.5457 38.7235C47.0821 38.0482 47.001 37.2287 47.3238 36.4759C47.5403 35.9721 47.8188 35.6892 48.1516 35.6363C48.4737 35.5843 48.8302 35.7531 49.2081 36.1391C49.1285 35.2366 49.0689 34.5029 49.0375 34.1105C49.0161 33.845 49.0367 33.5858 49.0979 33.3394C49.3121 32.4861 49.713 31.976 50.2271 31.9048C50.6142 31.8501 51.0924 32.1512 51.6478 32.4989C52.4472 32.999 53.3538 33.5657 53.9429 32.9707C54.1724 32.738 54.4019 32.4469 54.6237 32.1658C55.1455 31.5033 55.6382 30.8746 56.1415 31.0169C56.4996 31.1155 56.7719 31.5727 56.9991 32.4551C57.1361 32.9871 57.2508 33.7236 57.3396 34.648C57.6479 34.2127 57.9638 33.9855 58.2829 33.9709C58.6065 33.9554 58.9285 34.1753 59.2147 34.6215C59.6385 35.285 59.6852 36.0981 59.3432 36.8537C58.9767 37.6631 58.2538 38.2097 57.5377 38.2399C57.5553 38.9316 57.566 39.6625 57.5683 40.4163C57.5729 41.9166 56.736 43.2298 55.5333 43.6094C54.551 43.9187 53.5336 44.0876 52.51 44.1113C52.4924 44.1113 52.474 44.1113 52.4564 44.1113ZM49.6901 39.2309C49.723 39.2309 49.7551 39.2419 49.7834 39.2647C49.8247 39.2975 49.8515 39.3495 49.8576 39.407C49.9272 40.0768 49.9945 40.6874 50.0588 41.2221C50.2294 42.6494 51.2561 43.7089 52.4564 43.7089C52.4725 43.7089 52.4878 43.7089 52.5031 43.7089C53.4999 43.686 54.4906 43.5218 55.4477 43.2206C56.5026 42.8885 57.2363 41.7359 57.2317 40.4182C57.2294 39.5914 57.2164 38.792 57.1958 38.0427C57.1942 37.9862 57.2126 37.9305 57.247 37.8913C57.2814 37.852 57.3289 37.831 57.3755 37.8356C58.0143 37.8867 58.7143 37.3967 59.0464 36.6629C59.2085 36.3043 59.412 35.5934 58.9469 34.8661C58.7319 34.5294 58.5108 34.3606 58.2959 34.3733C57.9287 34.3898 57.5836 34.8834 57.3595 35.295C57.3205 35.3662 57.2478 35.4018 57.1782 35.3808C57.1085 35.3607 57.0573 35.2895 57.0504 35.2047C56.9586 34.0621 56.8331 33.177 56.6771 32.5747C56.4965 31.8738 56.2846 31.4705 56.065 31.4102C55.7514 31.3235 55.3023 31.8921 54.8693 32.4433C54.6413 32.7325 54.4057 33.0319 54.1609 33.2792C53.3981 34.0503 52.3409 33.3887 51.4909 32.8576C51.0059 32.5537 50.5477 32.2671 50.2661 32.3064C49.7643 32.3766 49.521 33.0574 49.4208 33.4571C49.3718 33.6524 49.3557 33.8605 49.3726 34.074C49.4101 34.5431 49.4889 35.5013 49.5921 36.6529C49.5998 36.7396 49.56 36.8217 49.4934 36.8573C49.4277 36.8929 49.3489 36.8737 49.2999 36.809C48.8837 36.2632 48.4905 35.9895 48.196 36.0351C47.9794 36.0698 47.7867 36.2797 47.6237 36.6593C47.3644 37.2634 47.4309 37.9232 47.8065 38.4689C48.2549 39.1223 49.0283 39.4454 49.6442 39.2382C49.6595 39.2336 49.6748 39.2309 49.6901 39.2309Z" fill="#12123D"/>
<path d="M57.3641 38.091C57.3596 38.091 57.3557 38.091 57.3511 38.091C57.2586 38.0828 57.1889 37.9861 57.1958 37.8756C57.2264 37.3956 57.2065 36.912 57.1354 36.4374C57.1193 36.3279 57.1798 36.2239 57.2716 36.2047C57.3634 36.1856 57.4506 36.2577 57.4667 36.3672C57.5424 36.8746 57.5646 37.3929 57.5317 37.9067C57.5248 38.0125 57.4514 38.0919 57.3641 38.0919V38.091Z" fill="#12123D"/>
<path d="M49.7265 39.7072C49.6416 39.7072 49.5689 39.6306 49.559 39.5275L49.4121 37.9122C49.4022 37.8018 49.4687 37.7032 49.5613 37.6905C49.6516 37.6795 49.7365 37.758 49.7472 37.8684L49.8941 39.4837C49.904 39.5941 49.8375 39.6926 49.7449 39.7054C49.7388 39.7054 49.7327 39.7063 49.7265 39.7063V39.7072Z" fill="#12123D"/>
<path d="M49.1527 35.8416C49.3011 36.0579 49.4495 36.2742 49.5979 36.4905C50.1105 39.324 50.7807 40.1188 51.3483 40.2429C52.0927 40.4054 52.476 39.3723 53.7987 39.2136C55.0924 39.0575 55.6325 39.9354 56.2613 39.5841C56.7334 39.3194 57.2146 38.384 56.9881 35.1463C57.1228 35.1362 57.2574 35.1262 57.392 35.1152C57.8472 37.0873 57.8266 38.7053 57.7417 39.7374C57.6346 41.036 57.5504 41.933 56.9843 42.7424C56.1695 43.9078 54.9264 44.0757 54.0007 44.2007C53.0635 44.3276 51.4814 44.542 50.4303 43.3648C49.8466 42.7114 49.6936 41.9275 49.4182 40.4227C49.2208 39.3431 49.0356 37.779 49.1527 35.8435V35.8416Z" fill="#12123D"/>
<path d="M53.5582 166.873H0.168306C0.0749729 166.873 0 166.783 0 166.672C0 166.562 0.0757379 166.471 0.168306 166.471H53.5582C53.6515 166.471 53.7265 166.561 53.7265 166.672C53.7265 166.784 53.6515 166.873 53.5582 166.873Z" fill="#12123D"/>
<path d="M172.12 141.14V138.646C172.12 137.973 172.579 137.426 173.143 137.426H181.329C181.893 137.426 182.352 137.973 182.352 138.646V141.14H183.614V138.646C183.614 137.143 182.589 135.92 181.329 135.92H173.143C171.883 135.92 170.857 137.143 170.857 138.646V141.14H172.12Z" fill="#12123D"/>
<path d="M172.229 142.256H170.844C170.161 142.256 169.603 141.589 169.603 140.775C169.603 139.961 170.162 139.294 170.844 139.294H172.229C172.912 139.294 173.471 139.961 173.471 140.775C173.471 141.589 172.911 142.256 172.229 142.256Z" fill="#6A6ACF"/>
<path d="M172.229 142.458H170.844C170.066 142.458 169.434 141.703 169.434 140.775C169.434 139.847 170.066 139.093 170.844 139.093H172.229C173.007 139.093 173.64 139.847 173.64 140.775C173.64 141.703 173.007 142.458 172.229 142.458ZM170.844 139.495C170.252 139.495 169.771 140.069 169.771 140.775C169.771 141.482 170.252 142.056 170.844 142.056H172.229C172.821 142.056 173.302 141.482 173.302 140.775C173.302 140.069 172.821 139.495 172.229 139.495H170.844Z" fill="#12123D"/>
<path d="M183.621 142.256H182.237C181.554 142.256 180.995 141.589 180.995 140.775C180.995 139.961 181.554 139.294 182.237 139.294H183.621C184.305 139.294 184.863 139.961 184.863 140.775C184.863 141.589 184.304 142.256 183.621 142.256Z" fill="#6A6ACF"/>
<path d="M183.622 142.458H182.237C181.459 142.458 180.826 141.703 180.826 140.775C180.826 139.847 181.459 139.093 182.237 139.093H183.622C184.4 139.093 185.032 139.847 185.032 140.775C185.032 141.703 184.4 142.458 183.622 142.458ZM182.237 139.495C181.645 139.495 181.164 140.069 181.164 140.775C181.164 141.482 181.645 142.056 182.237 142.056H183.622C184.214 142.056 184.695 141.482 184.695 140.775C184.695 140.069 184.214 139.495 183.622 139.495H182.237Z" fill="#12123D"/>
<path d="M195.465 166.798H163.857L165.87 140.499H192.427L195.465 166.798Z" fill="#6A6ACF"/>
<path d="M195.465 166.999H163.857C163.81 166.999 163.765 166.976 163.733 166.934C163.701 166.892 163.685 166.836 163.689 166.78L165.702 140.481C165.709 140.378 165.783 140.299 165.869 140.299H192.426C192.51 140.299 192.581 140.373 192.593 140.472L195.631 166.771C195.638 166.829 195.624 166.887 195.592 166.931C195.559 166.975 195.514 166.999 195.465 166.999H195.465ZM164.042 166.598H195.272L192.28 140.7H166.025L164.043 166.598H164.042Z" fill="#12123D"/>
<path d="M193.612 166.999C193.529 166.999 193.456 166.925 193.446 166.824L191.902 152.322C191.89 152.212 191.955 152.111 192.048 152.098C192.142 152.087 192.225 152.162 192.236 152.272L193.78 166.774C193.791 166.884 193.726 166.984 193.634 166.998C193.627 166.999 193.619 167 193.612 167V166.999Z" fill="#12123D"/>
<path d="M191.582 166.798H159.974L162.485 140.499H189.568L191.582 166.798Z" fill="#6A6ACF"/>
<path d="M191.581 166.999H159.974C159.925 166.999 159.879 166.974 159.848 166.931C159.817 166.888 159.801 166.832 159.807 166.774L162.318 140.475C162.328 140.374 162.4 140.297 162.486 140.297H189.569C189.656 140.297 189.729 140.377 189.736 140.48L191.749 166.779C191.754 166.835 191.738 166.891 191.705 166.932C191.673 166.974 191.628 166.998 191.581 166.998L191.581 166.999ZM160.162 166.597H191.397L189.415 140.7H162.636L160.162 166.597Z" fill="#12123D"/>
<path d="M188.984 153.028H161.54C161.447 153.028 161.372 152.937 161.372 152.827C161.372 152.717 161.447 152.626 161.54 152.626H188.802L188.467 147.064C188.46 146.954 188.531 146.857 188.623 146.85C188.717 146.84 188.797 146.925 188.803 147.036L189.151 152.813C189.155 152.869 189.138 152.924 189.107 152.965C189.075 153.006 189.03 153.029 188.984 153.029V153.028Z" fill="#12123D"/>
<path d="M178.383 152.297H173.307V155.099H178.383V152.297Z" fill="#6A6ACF"/>
<path d="M178.383 155.299H173.306C173.213 155.299 173.138 155.209 173.138 155.098V152.296C173.138 152.185 173.213 152.095 173.306 152.095H178.383C178.476 152.095 178.551 152.185 178.551 152.296V155.098C178.551 155.21 178.476 155.299 178.383 155.299ZM173.474 154.898H178.214V152.498H173.474V154.898Z" fill="#12123D"/>
<path d="M209.831 166.999H195.464C195.371 166.999 195.296 166.909 195.296 166.799C195.296 166.688 195.371 166.598 195.464 166.598H209.831C209.924 166.598 209.999 166.687 209.999 166.799C209.999 166.91 209.923 166.999 209.831 166.999Z" fill="#12123D"/>
<path d="M170.336 101.135C166.895 105.915 162.105 109.38 156.906 110.877C156.456 111.007 156.074 110.499 156.251 110.003L156.803 108.456C151.556 111.363 145.996 113.501 140.304 114.798C139.342 115.017 138.231 115.179 137.579 114.167C137.377 113.852 137.263 113.472 137.226 113.08C137.13 112.059 137.487 111.118 137.856 110.215C140.288 104.259 143.488 98.7628 146.675 93.2938L143.988 94.3934C143.637 94.5367 143.324 94.1096 143.502 93.7309C145.758 88.9263 149.787 83.993 153.425 80.4878L170.337 101.135L170.336 101.135Z" fill="#FFCB03"/>
<path d="M150.057 93.9581C150.015 93.9581 149.973 93.9398 149.941 93.9033C149.874 93.8267 149.871 93.6998 149.935 93.6195L154.015 88.4854C154.079 88.4051 154.186 88.4015 154.253 88.4781C154.32 88.5548 154.323 88.6816 154.259 88.7619L150.179 93.8951C150.146 93.9371 150.101 93.9581 150.057 93.9581Z" fill="#12123D"/>
<path d="M143.631 109.834C143.593 109.834 143.555 109.818 143.523 109.787C143.452 109.716 143.442 109.589 143.502 109.504C147.552 103.708 151.919 98.1229 156.482 92.904C156.55 92.8273 156.656 92.83 156.72 92.9094C156.784 92.9897 156.782 93.1166 156.716 93.1932C152.161 98.4022 147.803 103.976 143.761 109.761C143.728 109.808 143.68 109.833 143.632 109.833L143.631 109.834Z" fill="#12123D"/>
<path d="M156.889 101.508C156.844 101.508 156.799 101.487 156.766 101.444C156.702 101.363 156.706 101.236 156.774 101.16L160.413 97.1082C160.481 97.0324 160.587 97.037 160.651 97.1182C160.714 97.1994 160.71 97.3263 160.642 97.402L157.004 101.454C156.971 101.49 156.93 101.508 156.889 101.508Z" fill="#12123D"/>
<path d="M169.89 98.7805L173.085 109.319C173.333 110.136 174.216 110.343 174.696 109.697C177.987 105.273 187.541 91.146 184.759 79.6167L169.89 98.7805Z" fill="white"/>
<path d="M173.991 110.279C173.919 110.279 173.848 110.271 173.776 110.254C173.382 110.164 173.064 109.84 172.926 109.387L169.731 98.8483C169.709 98.778 169.722 98.6986 169.765 98.643L184.634 79.4791C184.676 79.4262 184.738 79.4034 184.797 79.4198C184.856 79.4362 184.904 79.4901 184.92 79.5594C186.126 84.553 185.195 90.5604 182.154 97.4128C179.705 102.931 176.51 107.56 174.822 109.828C174.606 110.118 174.306 110.277 173.99 110.277L173.991 110.279ZM170.083 98.8264L173.244 109.25C173.34 109.568 173.564 109.796 173.84 109.859C174.114 109.921 174.386 109.81 174.57 109.562C177.594 105.498 187.178 91.4538 184.676 80.0175L170.083 98.8264Z" fill="#12123D"/>
<path d="M155.055 81.1734L146.245 77.4629C145.562 77.1755 145.379 76.1178 145.91 75.532C149.553 71.524 161.193 59.8742 170.823 63.0773L155.055 81.1743V81.1734Z" fill="white"/>
<path d="M155.055 81.3743C155.036 81.3743 155.017 81.3706 154.999 81.3633L146.189 77.6528C145.812 77.494 145.538 77.119 145.457 76.649C145.376 76.1799 145.503 75.7072 145.796 75.3842C147.663 73.33 151.477 69.4343 156.04 66.4246C161.707 62.6877 166.696 61.4959 170.868 62.883C170.926 62.9021 170.971 62.9569 170.986 63.0271C171 63.0974 170.983 63.1713 170.939 63.2206L155.171 81.3177C155.139 81.3542 155.097 81.3743 155.054 81.3743H155.055ZM167.355 62.7306C158.549 62.7306 149.011 72.3928 146.024 75.6789C145.818 75.9053 145.73 76.2374 145.786 76.5678C145.844 76.8981 146.036 77.1619 146.3 77.2732L155.013 80.9426L170.49 63.1786C169.465 62.8711 168.414 62.7306 167.355 62.7306Z" fill="#12123D"/>
<path d="M170.167 101.403C170.85 101.25 171.495 100.856 172.01 100.243C179.651 91.1388 211.055 52.4224 209.796 32.4354L209.787 32.4245C193.136 31.1551 161.296 69.3541 153.812 78.6449C152.804 79.897 152.532 81.7641 153.132 83.3565C156.227 91.5796 161.216 97.5003 168.097 101.119C168.763 101.469 169.484 101.557 170.167 101.403Z" fill="white"/>
<path d="M204.079 53.261C207.801 45.5334 210.159 38.2046 209.795 32.4354L209.786 32.4244C204.936 32.0548 198.796 35.0344 192.346 39.6729C192.346 39.6729 193.805 44.1317 197.28 48.0001C201.03 52.1741 204.079 53.261 204.079 53.261Z" fill="#FFCB03"/>
<path d="M170.252 101.584C170.174 101.584 170.105 101.519 170.088 101.425C170.068 101.317 170.126 101.21 170.217 101.187C170.851 101.026 171.431 100.65 171.89 100.101C177.018 93.9917 194.467 72.5747 203.696 53.4875C203.743 53.3917 203.846 53.3579 203.927 53.4136C204.007 53.4693 204.035 53.5915 203.989 53.6883C194.739 72.8184 177.264 94.2673 172.129 100.386C171.623 100.989 170.986 101.403 170.288 101.581C170.276 101.583 170.264 101.585 170.252 101.585V101.584Z" fill="#12123D"/>
<path d="M152.879 81.0086C152.869 81.0086 152.859 81.0077 152.848 81.0049C152.756 80.9839 152.696 80.879 152.714 80.7704C152.849 79.9144 153.188 79.1314 153.692 78.5054C158.703 72.2826 176.278 51.1002 192.007 39.7616C192.086 39.7041 192.19 39.7342 192.238 39.8291C192.286 39.924 192.261 40.0481 192.181 40.1047C176.487 51.4178 158.939 72.5701 153.934 78.7828C153.476 79.3523 153.168 80.065 153.045 80.8434C153.029 80.9401 152.959 81.0067 152.879 81.0067V81.0086Z" fill="#12123D"/>
<path d="M181.611 77.2817C185.807 76.1501 188.433 71.1437 187.477 66.0995C186.521 61.0553 182.344 57.8835 178.149 59.0151C173.953 60.1466 171.327 65.1531 172.283 70.1973C173.239 75.2414 177.415 78.4132 181.611 77.2817Z" fill="white"/>
<path d="M179.905 77.7176C177.792 77.7176 175.801 76.7347 174.295 74.947C171.168 71.2365 171.129 65.1707 174.207 61.4265C175.695 59.6169 177.684 58.6112 179.805 58.5957H179.855C181.968 58.5957 183.958 59.5785 185.465 61.3663C188.591 65.0777 188.631 71.1425 185.552 74.8868C184.063 76.6964 182.076 77.7021 179.954 77.7176H179.905ZM179.854 58.9972H179.807C177.775 59.0118 175.873 59.9746 174.448 61.7076C171.498 65.2948 171.536 71.106 174.532 74.6614C175.975 76.3743 177.882 77.3151 179.905 77.3151H179.952C181.983 77.3005 183.887 76.3378 185.311 74.6048C188.26 71.0175 188.223 65.2063 185.226 61.651C183.783 59.9381 181.877 58.9972 179.853 58.9972H179.854Z" fill="#12123D"/>
<path d="M181.073 74.4851C183.972 73.7038 185.788 70.2445 185.127 66.7585C184.467 63.2725 181.582 61.0799 178.682 61.8612C175.783 62.6425 173.968 66.1018 174.628 69.5878C175.288 73.0738 178.174 75.2664 181.073 74.4851Z" fill="#FFCB03"/>
<path d="M174.252 95.706C174.228 95.706 174.204 95.7005 174.181 95.6877C166.953 91.7126 160.856 84.4805 157.456 75.8468C157.416 75.7464 157.452 75.6268 157.537 75.5794C157.62 75.5319 157.721 75.5748 157.761 75.6761C161.128 84.225 167.165 91.3859 174.322 95.3227C174.406 95.3692 174.444 95.4888 174.405 95.5892C174.376 95.6622 174.315 95.706 174.252 95.706Z" fill="#12123D"/>
<path d="M128.894 135.552C128.85 135.552 128.806 135.532 128.774 135.491C128.708 135.412 128.71 135.285 128.776 135.208L140.425 121.611C140.491 121.534 140.598 121.536 140.663 121.614C140.728 121.693 140.726 121.82 140.661 121.898L129.011 135.494C128.979 135.533 128.936 135.552 128.894 135.552Z" fill="#12123D"/>
<path d="M126.272 121.99C126.226 121.99 126.18 121.968 126.147 121.924C126.085 121.842 126.09 121.715 126.159 121.64L133.44 113.753C133.508 113.678 133.615 113.684 133.678 113.767C133.74 113.849 133.735 113.976 133.666 114.05L126.385 121.938C126.353 121.972 126.313 121.99 126.272 121.99Z" fill="#12123D"/>
<path d="M129.269 108.181C129.224 108.181 129.18 108.16 129.146 108.117C129.083 108.036 129.086 107.909 129.154 107.834L136.66 99.4388C136.728 99.3631 136.834 99.3677 136.897 99.448C136.961 99.5292 136.958 99.656 136.89 99.7318L129.384 108.126C129.352 108.163 129.31 108.181 129.269 108.181H129.269Z" fill="#12123D"/>
<path d="M144.346 131.493C144.302 131.493 144.259 131.473 144.226 131.433C144.161 131.354 144.162 131.227 144.228 131.149L153.763 120.02C153.83 119.942 153.936 119.944 154.001 120.022C154.066 120.102 154.065 120.229 153.999 120.306L144.464 131.436C144.431 131.474 144.389 131.493 144.346 131.493Z" fill="#12123D"/>
<path d="M140.05 157.613H97.707V166.673H140.05V157.613Z" fill="white"/>
<path d="M140.05 166.874H97.7074C97.614 166.874 97.5391 166.783 97.5391 166.673V157.613C97.5391 157.502 97.6148 157.412 97.7074 157.412H140.05C140.144 157.412 140.219 157.502 140.219 157.613V166.673C140.219 166.784 140.144 166.874 140.05 166.874ZM97.8757 166.472H139.881V157.814H97.8757V166.472Z" fill="#12123D"/>
</svg>
