<svg width="50" height="50" viewBox="0 0 50 50" fill="none" xmlns="http://www.w3.org/2000/svg">
<path d="M31.3554 36.4395C30.8868 36.4395 30.508 36.8183 30.508 37.2869C30.508 40.0911 28.2275 42.3717 25.4232 42.3717C22.619 42.3717 20.3385 40.0911 20.3385 37.2869C20.3385 36.8183 19.9597 36.4395 19.491 36.4395C19.0224 36.4395 18.6436 36.8183 18.6436 37.2869C18.6436 41.025 21.6851 44.0666 25.4232 44.0666C29.1614 44.0666 32.2029 41.025 32.2029 37.2869C32.2029 36.8183 31.8241 36.4395 31.3554 36.4395Z" fill="#0BCA7A"/>
<path d="M19.4918 33.05C20.4279 33.05 21.1867 32.2911 21.1867 31.3551C21.1867 30.419 20.4279 29.6602 19.4918 29.6602C18.5557 29.6602 17.7969 30.419 17.7969 31.3551C17.7969 32.2911 18.5557 33.05 19.4918 33.05Z" fill="#0BCA7A"/>
<path d="M31.356 33.05C32.2921 33.05 33.051 32.2911 33.051 31.3551C33.051 30.419 32.2921 29.6602 31.356 29.6602C30.42 29.6602 29.6611 30.419 29.6611 31.3551C29.6611 32.2911 30.42 33.05 31.356 33.05Z" fill="#0BCA7A"/>
<path d="M46.5941 19.6672C46.2508 8.8884 37.6636 1.69434 25 1.69434C12.3364 1.69434 3.74915 8.8884 3.40593 19.6672C1.44492 20.2172 0 22.0172 0 24.152V36.0164C0 38.5859 2.09153 40.6774 4.66102 40.6774C6.32627 40.6774 7.78644 39.7969 8.61102 38.4791C11.8314 44.5079 18.0432 48.3045 25 48.3045C31.9568 48.3045 38.1686 44.5079 41.389 38.4791C42.2136 39.7969 43.6737 40.6774 45.339 40.6774C47.9085 40.6774 50 38.5859 50 36.0164V24.152C50 22.0172 48.5551 20.2172 46.5941 19.6672ZM25 3.38925C34.6763 3.38925 44.4322 8.38671 44.8932 19.5138C43.572 19.6401 42.4127 20.3223 41.6449 21.3215C39.9695 17.8308 37.2856 15.057 33.9873 13.2706C31.3415 11.6469 28.2373 10.7426 24.8661 10.7426C21.3712 10.7426 18.1703 11.7596 15.4754 13.5587C12.4195 15.3494 9.93898 18.0206 8.35509 21.3215C7.58729 20.3223 6.42881 19.6401 5.10678 19.5138C5.5678 8.38671 15.3237 3.38925 25 3.38925ZM15.5949 15.4935C18.2873 13.7155 21.5237 12.7113 25 12.7113C27.8831 12.7113 30.5975 13.407 32.978 14.6554C36.7542 16.9316 39.5161 20.8257 40.5585 25.7376C37.3288 26.8172 35.4915 24.5935 33.7542 22.0045C33.4661 21.5757 33.0093 21.285 32.5009 21.2079C31.9797 21.1308 31.4458 21.274 31.0322 21.6045C23.1636 27.8901 12.4051 26.2359 9.46441 25.6282C10.3992 21.2833 12.5805 17.7935 15.5949 15.4935ZM4.66102 38.9825C3.02542 38.9825 1.69492 37.652 1.69492 36.0164V24.152C1.69492 22.5164 3.02542 21.1859 4.66102 21.1859C6.09153 21.1859 7.28898 22.2045 7.5661 23.5537V23.5571C7.60763 23.7494 7.62712 23.9503 7.62712 24.152V35.9867C7.62203 36.0257 7.61356 36.1071 7.61271 36.1359C7.61271 36.1384 7.61441 36.1409 7.61441 36.1435C7.54661 37.7189 6.25339 38.9825 4.66102 38.9825ZM40.678 36.0367C38.067 42.4664 31.9356 46.6096 25 46.6096C18.0644 46.6096 11.9322 42.4664 9.32119 36.0367C9.32203 36.0291 9.32203 36.0223 9.32203 36.0164V27.3367C10.661 27.613 13.1297 28.0155 16.139 28.0147C20.8864 28.0147 26.9771 27.0113 32.0898 22.9274C32.1517 22.8765 32.2161 22.8782 32.2432 22.8816C32.3093 22.8926 32.3381 22.935 32.3475 22.9486C33.7297 25.0087 36.2144 28.6909 40.678 27.4621V36.0164C40.678 36.024 40.678 36.0308 40.678 36.0367ZM48.3051 36.0164C48.3051 37.652 46.9746 38.9825 45.339 38.9825C43.7466 38.9825 42.4534 37.7189 42.3856 36.1426C42.3856 36.1401 42.3873 36.1376 42.3873 36.135C42.3856 36.0808 42.3797 36.0274 42.3729 36.0164V24.152C42.3729 23.9503 42.3924 23.7494 42.4331 23.5579V23.5545C42.711 22.2045 43.9085 21.1859 45.339 21.1859C46.9746 21.1859 48.3051 22.5164 48.3051 24.152V36.0164Z" fill="#0BCA7A"/>
</svg>
