<svg width="88" height="60" viewBox="0 0 88 60" fill="none" xmlns="http://www.w3.org/2000/svg">
<path d="M16 8C12.0218 8 8.20644 9.60142 5.3934 12.452C2.58035 15.3025 1 19.1687 1 23.2C1 23.5487 1 23.8974 1 24.2256V24.3077C1.60729 32.6359 8.42915 39.3333 16 48C23.9049 38.9538 31 32.1026 31 23.2C31 19.1687 29.4197 15.3025 26.6066 12.452C23.7936 9.60142 19.9782 8 16 8ZM16 15.8974C17.4277 15.8974 18.8234 16.3266 20.0104 17.1306C21.1974 17.9346 22.1223 19.0773 22.6682 20.4141C23.2141 21.751 23.3565 23.2219 23.0772 24.6407C22.7979 26.0595 22.1096 27.3625 21.0993 28.3848C20.089 29.4071 18.8022 30.1028 17.4017 30.3838C16.0011 30.6648 14.5498 30.5185 13.2313 29.9635C11.9128 29.4084 10.7864 28.4695 9.99469 27.2656C9.20294 26.0616 8.7814 24.6468 8.7834 23.2C8.78608 21.2623 9.54758 19.4049 10.9007 18.0357C12.2538 16.6665 14.0878 15.8974 16 15.8974Z" stroke="#0BCA7A" stroke-width="1.5" stroke-linecap="round" stroke-linejoin="round"/>
<path d="M83.8716 60H82.3853V40.9591C82.3853 40.6396 82.5835 40.3519 82.8766 40.2419C85.2216 39.3745 86.5138 37.5233 86.5138 35.0331V24.0338C86.5138 19.7877 83.1429 16.3329 79 16.3329C74.8571 16.3329 71.4862 19.7877 71.4862 24.0338V35.0564C71.4862 37.5317 72.7784 39.3745 75.1234 40.2419C75.4186 40.3519 75.6147 40.6396 75.6147 40.9591V60H74.1284V41.4753C71.4986 40.3096 70 37.9972 70 35.0564V24.0338C70 18.9478 74.0376 14.8096 79 14.8096C83.9624 14.8096 88 18.9478 88 24.0338V35.0331C88 37.9866 86.5014 40.3096 83.8716 41.4753V60ZM79 12.1016C75.7447 12.1016 73.0963 9.38717 73.0963 6.05078C73.0963 2.71439 75.7447 0 79 0C82.2553 0 84.9037 2.71439 84.9037 6.05078C84.9037 9.38717 82.2553 12.1016 79 12.1016ZM79 1.52327C76.5642 1.52327 74.5826 3.5543 74.5826 6.05078C74.5826 8.54725 76.5642 10.5783 79 10.5783C81.4358 10.5783 83.4174 8.54725 83.4174 6.05078C83.4174 3.5543 81.4358 1.52327 79 1.52327Z" fill="#0BCA7A"/>
<path d="M55.0848 26.627L56.1762 25.5616L61 30.2797L56.1784 35L55.0869 33.9324L58.0531 31.0333H40.3716L43.3357 33.9324L42.2464 35L37.4204 30.2797L42.2442 25.5616L43.3335 26.627L40.3695 29.5283H58.051L55.0848 26.627Z" fill="#0BCA7A"/>
</svg>
