<svg width="57" height="57" viewBox="0 0 57 57" fill="none" xmlns="http://www.w3.org/2000/svg">
<path d="M28.5 55.2188C13.7673 55.2188 1.78125 43.2327 1.78125 28.5C1.78125 13.7673 13.7673 1.78125 28.5 1.78125C43.2327 1.78125 55.2188 13.7673 55.2188 28.5C55.2188 43.2327 43.2327 55.2188 28.5 55.2188ZM28.5 3.5625C14.7488 3.5625 3.5625 14.7488 3.5625 28.5C3.5625 42.2513 14.7488 53.4375 28.5 53.4375C42.2513 53.4375 53.4375 42.2513 53.4375 28.5C53.4375 14.7488 42.2513 3.5625 28.5 3.5625Z" fill="#0BCA7A"/>
<path d="M42.1088 36.895L33.6265 33.9524L33.0511 29.3496C32.6682 29.8965 32.1196 30.3222 31.4053 30.5448L31.9272 34.7219C31.9681 35.0585 32.1979 35.3435 32.5186 35.4522L41.5228 38.58C43.1259 39.1394 44.5313 41.1219 44.5313 42.8212V42.8087C44.5313 43.3004 44.9303 43.6994 45.4219 43.6994C45.9118 43.6994 46.3108 43.3021 46.3126 42.8123C46.3072 40.356 44.4244 37.7055 42.1088 36.895Z" fill="#0BCA7A"/>
<path d="M11.5781 43.6976C11.0865 43.6976 10.6875 43.2986 10.6875 42.807V42.8195C10.6875 40.3631 12.5738 37.7055 14.8895 36.895L23.3718 33.972L23.3932 33.4733C23.4537 32.9852 23.9079 32.645 24.3889 32.7002C24.8752 32.7608 25.2225 33.2061 25.1619 33.6959L25.0711 34.7451C25.0301 35.0817 24.7986 35.365 24.4779 35.4754L15.4755 38.5783C13.8742 39.1394 12.4687 41.122 12.4687 42.8195V42.807C12.4687 43.3004 12.0697 43.6976 11.5781 43.6976Z" fill="#0BCA7A"/>
<path d="M28.4997 32.1318C23.5496 32.1318 21.0327 28.8472 21.0166 20.6089C21.0131 18.5177 21.2357 16.3998 23.2022 14.4298C24.4545 13.174 26.2357 12.5381 28.4997 12.5381C30.7636 12.5381 32.5449 13.174 33.7989 14.4316C35.7654 16.3998 35.988 18.5195 35.9845 20.6107C35.9667 28.8472 33.4498 32.1318 28.4997 32.1318ZM28.4997 14.3193C26.7024 14.3193 25.3825 14.7682 24.4616 15.6891C23.3358 16.8166 22.7908 17.8266 22.7961 20.6071C22.8104 27.7642 24.6753 30.3524 28.4979 30.3524C32.3205 30.3524 34.1854 27.7642 34.1997 20.6071C34.205 17.8266 33.66 16.8166 32.5342 15.6891C31.6169 14.7682 30.297 14.3193 28.4997 14.3193Z" fill="#0BCA7A"/>
</svg>
