<svg width="315" height="19" viewBox="0 0 315 19" fill="none" xmlns="http://www.w3.org/2000/svg">
<path d="M1.19336 17C1.06003 17 0.940026 16.9533 0.833359 16.86C0.740026 16.7667 0.693359 16.6467 0.693359 16.5V3.5C0.693359 3.35333 0.740026 3.23333 0.833359 3.14C0.940026 3.04667 1.06003 3 1.19336 3H3.05336C3.25336 3 3.40003 3.05333 3.49336 3.16C3.60003 3.26667 3.67336 3.34667 3.71336 3.4L7.39336 10.18L11.1134 3.4C11.14 3.34667 11.2 3.26667 11.2934 3.16C11.4 3.05333 11.5534 3 11.7534 3H13.6134C13.76 3 13.88 3.04667 13.9734 3.14C14.0667 3.23333 14.1134 3.35333 14.1134 3.5V16.5C14.1134 16.6467 14.0667 16.7667 13.9734 16.86C13.88 16.9533 13.76 17 13.6134 17H11.5734C11.44 17 11.3267 16.9533 11.2334 16.86C11.14 16.7667 11.0934 16.6467 11.0934 16.5V8.42L8.55336 13.18C8.48669 13.3 8.40003 13.4067 8.29336 13.5C8.18669 13.5933 8.04669 13.64 7.87336 13.64H6.93336C6.76003 13.64 6.62003 13.5933 6.51336 13.5C6.40669 13.4067 6.32003 13.3 6.25336 13.18L3.71336 8.42V16.5C3.71336 16.6467 3.66669 16.7667 3.57336 16.86C3.48003 16.9533 3.36669 17 3.23336 17H1.19336Z" fill="#fff"/>
<path d="M17.5801 17C17.4334 17 17.3134 16.9533 17.2201 16.86C17.1267 16.7667 17.0801 16.6467 17.0801 16.5V3.5C17.0801 3.35333 17.1267 3.23333 17.2201 3.14C17.3134 3.04667 17.4334 3 17.5801 3H26.5001C26.6467 3 26.7667 3.04667 26.8601 3.14C26.9534 3.23333 27.0001 3.35333 27.0001 3.5V5.2C27.0001 5.34667 26.9534 5.46667 26.8601 5.56C26.7667 5.65333 26.6467 5.7 26.5001 5.7H20.2001V9.08H26.1001C26.2467 9.08 26.3667 9.12667 26.4601 9.22C26.5534 9.31333 26.6001 9.43333 26.6001 9.58V11.28C26.6001 11.4133 26.5534 11.5267 26.4601 11.62C26.3667 11.7133 26.2467 11.76 26.1001 11.76H20.2001V16.5C20.2001 16.6467 20.1534 16.7667 20.0601 16.86C19.9667 16.9533 19.8467 17 19.7001 17H17.5801Z" fill="#fff"/>
<path d="M48.5943 17C48.461 17 48.3543 16.96 48.2743 16.88C48.1943 16.8 48.1543 16.6934 48.1543 16.56V3.46005C48.1543 3.31338 48.1943 3.20005 48.2743 3.12005C48.3543 3.04005 48.461 3.00005 48.5943 3.00005H48.9543C49.101 3.00005 49.2143 3.04005 49.2943 3.12005C49.3743 3.20005 49.4143 3.31338 49.4143 3.46005V9.30005H52.1343L55.9343 3.30005C56.001 3.19338 56.0876 3.12005 56.1943 3.08005C56.301 3.02672 56.4343 3.00005 56.5943 3.00005H56.9143C57.061 3.00005 57.161 3.04005 57.2143 3.12005C57.281 3.20005 57.3143 3.29338 57.3143 3.40005C57.3143 3.46672 57.281 3.55338 57.2143 3.66005L53.3143 9.80005L57.6143 16.3C57.641 16.34 57.6543 16.4134 57.6543 16.5201C57.6543 16.6534 57.6076 16.7667 57.5143 16.8601C57.4343 16.9534 57.3276 17 57.1943 17H56.8543C56.7343 17 56.641 16.9801 56.5743 16.9401C56.5076 16.8867 56.4476 16.82 56.3943 16.74L52.1943 10.5H49.4143V16.56C49.4143 16.6934 49.3743 16.8 49.2943 16.88C49.2143 16.96 49.101 17 48.9543 17H48.5943Z" fill="#fff"/>
<path d="M69.4595 17C69.3261 17 69.2195 16.96 69.1395 16.88C69.0595 16.8 69.0195 16.6934 69.0195 16.56V4.20005H63.5195V8.02005C63.5195 9.62005 63.4261 10.98 63.2395 12.1C63.0661 13.22 62.8061 14.1334 62.4595 14.84C62.1128 15.5334 61.6861 16.0534 61.1795 16.4C60.6728 16.7334 60.0861 16.9267 59.4195 16.98C59.2861 16.9934 59.1728 16.9534 59.0795 16.8601C58.9995 16.7667 58.9595 16.6534 58.9595 16.5201V16.16C58.9595 15.8934 59.0928 15.7467 59.3595 15.72C59.7861 15.6534 60.1728 15.4801 60.5195 15.2001C60.8795 14.9067 61.1861 14.4667 61.4395 13.88C61.7061 13.28 61.9061 12.4867 62.0395 11.5C62.1861 10.5134 62.2595 9.30005 62.2595 7.86005V3.44005C62.2595 3.30672 62.2995 3.20005 62.3795 3.12005C62.4595 3.04005 62.5661 3.00005 62.6995 3.00005H69.8195C69.9661 3.00005 70.0795 3.04005 70.1595 3.12005C70.2395 3.20005 70.2795 3.31338 70.2795 3.46005V16.56C70.2795 16.6934 70.2395 16.8 70.1595 16.88C70.0795 16.96 69.9661 17 69.8195 17H69.4595Z" fill="#fff"/>
<path d="M74.4732 17C74.3399 17 74.2332 16.96 74.1532 16.88C74.0732 16.7867 74.0332 16.6734 74.0332 16.5401V3.46005C74.0332 3.31338 74.0732 3.20005 74.1532 3.12005C74.2465 3.04005 74.3599 3.00005 74.4932 3.00005H74.8532C74.9865 3.00005 75.0932 3.04005 75.1732 3.12005C75.2532 3.20005 75.2932 3.31338 75.2932 3.46005V14.8L83.5132 3.24005C83.5399 3.21338 83.5799 3.16671 83.6332 3.10005C83.6999 3.03338 83.7999 3.00005 83.9332 3.00005H84.3532C84.4865 3.00005 84.5932 3.04005 84.6732 3.12005C84.7532 3.20005 84.7932 3.31338 84.7932 3.46005V16.56C84.7932 16.6934 84.7532 16.8 84.6732 16.88C84.5932 16.96 84.4865 17 84.3532 17H83.9932C83.8599 17 83.7465 16.96 83.6532 16.88C83.5732 16.8 83.5332 16.6934 83.5332 16.56V5.24005L75.3332 16.76C75.3199 16.7867 75.2799 16.8334 75.2132 16.9C75.1465 16.9667 75.0465 17 74.9132 17H74.4732Z" fill="#fff"/>
<path d="M88.9849 17C88.8516 17 88.7449 16.96 88.6649 16.88C88.5849 16.8 88.5449 16.6934 88.5449 16.56V3.46005C88.5449 3.31338 88.5849 3.20005 88.6649 3.12005C88.7449 3.04005 88.8516 3.00005 88.9849 3.00005H96.7849C96.9316 3.00005 97.0449 3.04005 97.1249 3.12005C97.2049 3.20005 97.2449 3.31338 97.2449 3.46005V3.76005C97.2449 3.89338 97.2049 4.00005 97.1249 4.08005C97.0449 4.16005 96.9316 4.20005 96.7849 4.20005H89.8049V9.30005H96.3449C96.4916 9.30005 96.6049 9.34005 96.6849 9.42005C96.7649 9.50005 96.8049 9.61338 96.8049 9.76005V10.06C96.8049 10.1934 96.7649 10.3 96.6849 10.38C96.6049 10.46 96.4916 10.5 96.3449 10.5H89.8049V15.8H96.9449C97.0916 15.8 97.2049 15.84 97.2849 15.92C97.3649 16 97.4049 16.1134 97.4049 16.26V16.56C97.4049 16.6934 97.3649 16.8 97.2849 16.88C97.2049 16.96 97.0916 17 96.9449 17H88.9849Z" fill="#fff"/>
<path d="M100.821 17C100.688 17 100.581 16.96 100.501 16.88C100.421 16.8 100.381 16.6934 100.381 16.56V3.46005C100.381 3.31338 100.421 3.20005 100.501 3.12005C100.581 3.04005 100.688 3.00005 100.821 3.00005H101.181C101.328 3.00005 101.441 3.04005 101.521 3.12005C101.601 3.20005 101.641 3.31338 101.641 3.46005V9.30005H109.361V3.46005C109.361 3.31338 109.401 3.20005 109.481 3.12005C109.561 3.04005 109.668 3.00005 109.801 3.00005H110.161C110.308 3.00005 110.421 3.04005 110.501 3.12005C110.581 3.20005 110.621 3.31338 110.621 3.46005V16.56C110.621 16.6934 110.581 16.8 110.501 16.88C110.421 16.96 110.308 17 110.161 17H109.801C109.668 17 109.561 16.96 109.481 16.88C109.401 16.8 109.361 16.6934 109.361 16.56V10.5H101.641V16.56C101.641 16.6934 101.601 16.8 101.521 16.88C101.441 16.96 101.328 17 101.181 17H100.821Z" fill="#fff"/>
<path d="M117.885 17C117.751 17 117.645 16.96 117.565 16.88C117.485 16.8 117.445 16.6934 117.445 16.56V4.20005H113.485C113.351 4.20005 113.245 4.16005 113.165 4.08005C113.085 4.00005 113.045 3.89338 113.045 3.76005V3.46005C113.045 3.31338 113.085 3.20005 113.165 3.12005C113.245 3.04005 113.351 3.00005 113.485 3.00005H122.645C122.791 3.00005 122.905 3.04005 122.985 3.12005C123.065 3.20005 123.105 3.31338 123.105 3.46005V3.76005C123.105 3.89338 123.065 4.00005 122.985 4.08005C122.905 4.16005 122.791 4.20005 122.645 4.20005H118.705V16.56C118.705 16.6934 118.665 16.8 118.585 16.88C118.505 16.96 118.391 17 118.245 17H117.885Z" fill="#fff"/>
<path d="M125.958 17C125.824 17 125.718 16.96 125.638 16.88C125.558 16.8 125.518 16.6934 125.518 16.56V3.44005C125.518 3.30672 125.558 3.20005 125.638 3.12005C125.718 3.04005 125.824 3.00005 125.958 3.00005H126.318C126.464 3.00005 126.578 3.04005 126.658 3.12005C126.738 3.20005 126.778 3.30672 126.778 3.44005V8.54005H129.638C130.984 8.54005 132.018 8.90005 132.738 9.62005C133.471 10.3267 133.838 11.36 133.838 12.72C133.838 13.4 133.691 14.0734 133.398 14.74C133.104 15.3934 132.644 15.9334 132.018 16.3601C131.404 16.7867 130.611 17 129.638 17H125.958ZM126.778 15.8H129.438C130.424 15.8 131.191 15.5134 131.738 14.9401C132.298 14.3667 132.578 13.6067 132.578 12.66C132.578 11.6867 132.318 10.96 131.798 10.48C131.291 9.98672 130.504 9.74005 129.438 9.74005H126.778V15.8ZM136.358 17C136.224 17 136.118 16.96 136.038 16.88C135.958 16.8 135.918 16.6934 135.918 16.56V3.44005C135.918 3.30672 135.958 3.20005 136.038 3.12005C136.118 3.04005 136.224 3.00005 136.358 3.00005H136.738C136.871 3.00005 136.978 3.04005 137.058 3.12005C137.138 3.20005 137.178 3.30672 137.178 3.44005V16.56C137.178 16.6934 137.138 16.8 137.058 16.88C136.978 16.96 136.871 17 136.738 17H136.358Z" fill="#fff"/>
<path d="M146.544 17C146.41 17 146.304 16.96 146.224 16.88C146.144 16.8 146.104 16.6934 146.104 16.56V3.46005C146.104 3.31338 146.144 3.20005 146.224 3.12005C146.304 3.04005 146.41 3.00005 146.544 3.00005H146.904C147.05 3.00005 147.164 3.04005 147.244 3.12005C147.324 3.20005 147.364 3.31338 147.364 3.46005V9.30005H155.084V3.46005C155.084 3.31338 155.124 3.20005 155.204 3.12005C155.284 3.04005 155.39 3.00005 155.524 3.00005H155.884C156.03 3.00005 156.144 3.04005 156.224 3.12005C156.304 3.20005 156.344 3.31338 156.344 3.46005V16.56C156.344 16.6934 156.304 16.8 156.224 16.88C156.144 16.96 156.03 17 155.884 17H155.524C155.39 17 155.284 16.96 155.204 16.88C155.124 16.8 155.084 16.6934 155.084 16.56V10.5H147.364V16.56C147.364 16.6934 147.324 16.8 147.244 16.88C147.164 16.96 147.05 17 146.904 17H146.544Z" fill="#fff"/>
<path d="M159.107 17C159.001 17 158.907 16.96 158.827 16.88C158.747 16.8 158.707 16.7067 158.707 16.6C158.707 16.5334 158.721 16.46 158.747 16.38L163.807 3.40005C163.861 3.26672 163.927 3.16671 164.007 3.10005C164.101 3.03338 164.227 3.00005 164.387 3.00005H165.067C165.227 3.00005 165.347 3.03338 165.427 3.10005C165.521 3.16671 165.594 3.26672 165.647 3.40005L170.707 16.38C170.734 16.46 170.747 16.5334 170.747 16.6C170.747 16.7067 170.707 16.8 170.627 16.88C170.547 16.96 170.454 17 170.347 17H169.947C169.814 17 169.714 16.9667 169.647 16.9C169.581 16.82 169.534 16.7534 169.507 16.7001L168.267 13.5H161.187L159.947 16.7001C159.934 16.7534 159.887 16.82 159.807 16.9C159.741 16.9667 159.641 17 159.507 17H159.107ZM161.667 12.3H167.787L164.727 4.42005L161.667 12.3Z" fill="#fff"/>
<path d="M178.711 17C178.578 17 178.471 16.96 178.391 16.88C178.311 16.8 178.271 16.6934 178.271 16.56V3.46005C178.271 3.31338 178.311 3.20005 178.391 3.12005C178.471 3.04005 178.578 3.00005 178.711 3.00005H187.031C187.178 3.00005 187.291 3.04005 187.371 3.12005C187.451 3.20005 187.491 3.31338 187.491 3.46005V3.76005C187.491 3.89338 187.451 4.00005 187.371 4.08005C187.291 4.16005 187.178 4.20005 187.031 4.20005H179.531V8.94005H183.991C185.338 8.94005 186.371 9.30672 187.091 10.04C187.825 10.76 188.191 11.72 188.191 12.92C188.191 13.36 188.105 13.82 187.931 14.3C187.771 14.78 187.518 15.2267 187.171 15.64C186.838 16.04 186.405 16.3667 185.871 16.6201C185.351 16.8734 184.725 17 183.991 17H178.711ZM179.531 15.8H183.791C184.458 15.8 185.025 15.6667 185.491 15.4C185.958 15.1334 186.311 14.78 186.551 14.34C186.805 13.8867 186.931 13.3934 186.931 12.8601C186.931 12.0467 186.671 11.3934 186.151 10.9C185.645 10.3934 184.858 10.14 183.791 10.14H179.531V15.8Z" fill="#fff"/>
<path d="M189.908 17C189.802 17 189.708 16.96 189.628 16.88C189.548 16.8 189.508 16.7067 189.508 16.6C189.508 16.5334 189.522 16.46 189.548 16.38L194.608 3.40005C194.662 3.26672 194.728 3.16671 194.808 3.10005C194.902 3.03338 195.028 3.00005 195.188 3.00005H195.868C196.028 3.00005 196.148 3.03338 196.228 3.10005C196.322 3.16671 196.395 3.26672 196.448 3.40005L201.508 16.38C201.535 16.46 201.548 16.5334 201.548 16.6C201.548 16.7067 201.508 16.8 201.428 16.88C201.348 16.96 201.255 17 201.148 17H200.748C200.615 17 200.515 16.9667 200.448 16.9C200.382 16.82 200.335 16.7534 200.308 16.7001L199.068 13.5H191.988L190.748 16.7001C190.735 16.7534 190.688 16.82 190.608 16.9C190.542 16.9667 190.442 17 190.308 17H189.908ZM192.468 12.3H198.588L195.528 4.42005L192.468 12.3Z" fill="#fff"/>
<path d="M204.356 17C204.223 17 204.116 16.96 204.036 16.88C203.956 16.8 203.916 16.6934 203.916 16.56V3.46005C203.916 3.31338 203.956 3.20005 204.036 3.12005C204.116 3.04005 204.223 3.00005 204.356 3.00005H204.716C204.863 3.00005 204.976 3.04005 205.056 3.12005C205.136 3.20005 205.176 3.31338 205.176 3.46005V9.30005H212.896V3.46005C212.896 3.31338 212.936 3.20005 213.016 3.12005C213.096 3.04005 213.203 3.00005 213.336 3.00005H213.696C213.843 3.00005 213.956 3.04005 214.036 3.12005C214.116 3.20005 214.156 3.31338 214.156 3.46005V16.56C214.156 16.6934 214.116 16.8 214.036 16.88C213.956 16.96 213.843 17 213.696 17H213.336C213.203 17 213.096 16.96 213.016 16.88C212.936 16.8 212.896 16.6934 212.896 16.56V10.5H205.176V16.56C205.176 16.6934 205.136 16.8 205.056 16.88C204.976 16.96 204.863 17 204.716 17H204.356Z" fill="#fff"/>
<path d="M218.36 17C218.227 17 218.12 16.96 218.04 16.88C217.96 16.8 217.92 16.6934 217.92 16.56V3.46005C217.92 3.31338 217.96 3.20005 218.04 3.12005C218.12 3.04005 218.227 3.00005 218.36 3.00005H218.72C218.867 3.00005 218.98 3.04005 219.06 3.12005C219.14 3.20005 219.18 3.31338 219.18 3.46005V9.30005H221.9L225.7 3.30005C225.767 3.19338 225.853 3.12005 225.96 3.08005C226.067 3.02672 226.2 3.00005 226.36 3.00005H226.68C226.827 3.00005 226.927 3.04005 226.98 3.12005C227.047 3.20005 227.08 3.29338 227.08 3.40005C227.08 3.46672 227.047 3.55338 226.98 3.66005L223.08 9.80005L227.38 16.3C227.407 16.34 227.42 16.4134 227.42 16.5201C227.42 16.6534 227.373 16.7667 227.28 16.8601C227.2 16.9534 227.093 17 226.96 17H226.62C226.5 17 226.407 16.9801 226.34 16.9401C226.273 16.8867 226.213 16.82 226.16 16.74L221.96 10.5H219.18V16.56C219.18 16.6934 219.14 16.8 219.06 16.88C218.98 16.96 218.867 17 218.72 17H218.36Z" fill="#fff"/>
<path d="M230.645 17C230.512 17 230.405 16.96 230.325 16.88C230.245 16.8 230.205 16.6934 230.205 16.56V3.46005C230.205 3.31338 230.245 3.20005 230.325 3.12005C230.405 3.04005 230.512 3.00005 230.645 3.00005H235.505C236.438 3.00005 237.245 3.16005 237.925 3.48005C238.618 3.78671 239.152 4.24671 239.525 4.86005C239.912 5.47338 240.105 6.23338 240.105 7.14005C240.105 8.04672 239.912 8.80672 239.525 9.42005C239.152 10.0334 238.618 10.5 237.925 10.82C237.245 11.1267 236.438 11.28 235.505 11.28H231.465V16.56C231.465 16.6934 231.425 16.8 231.345 16.88C231.265 16.96 231.152 17 231.005 17H230.645ZM231.465 10.08H235.405C236.565 10.08 237.425 9.82672 237.985 9.32005C238.558 8.81338 238.845 8.08672 238.845 7.14005C238.845 6.19338 238.558 5.46672 237.985 4.96005C237.425 4.45338 236.565 4.20005 235.405 4.20005H231.465V10.08Z" fill="#fff"/>
<path d="M247.504 17.2001C246.397 17.2001 245.457 17.0067 244.684 16.6201C243.91 16.2201 243.317 15.6134 242.904 14.8C242.49 13.9734 242.264 12.9334 242.224 11.68C242.21 11.08 242.204 10.52 242.204 10C242.204 9.48005 242.21 8.92005 242.224 8.32005C242.264 7.08005 242.504 6.05338 242.944 5.24005C243.384 4.41338 243.99 3.80005 244.764 3.40005C245.55 3.00005 246.464 2.80005 247.504 2.80005C248.544 2.80005 249.45 3.00005 250.224 3.40005C251.01 3.80005 251.624 4.41338 252.064 5.24005C252.517 6.05338 252.757 7.08005 252.784 8.32005C252.81 8.92005 252.824 9.48005 252.824 10C252.824 10.52 252.81 11.08 252.784 11.68C252.757 12.9334 252.53 13.9734 252.104 14.8C251.69 15.6134 251.097 16.2201 250.324 16.6201C249.55 17.0067 248.61 17.2001 247.504 17.2001ZM247.504 16C248.65 16 249.59 15.6534 250.324 14.96C251.07 14.2667 251.47 13.14 251.524 11.58C251.55 10.98 251.564 10.4534 251.564 10C251.564 9.54672 251.55 9.02005 251.524 8.42005C251.497 7.38005 251.304 6.53338 250.944 5.88005C250.597 5.22672 250.124 4.75338 249.524 4.46005C248.937 4.15338 248.264 4.00005 247.504 4.00005C246.757 4.00005 246.084 4.15338 245.484 4.46005C244.897 4.75338 244.424 5.22672 244.064 5.88005C243.717 6.53338 243.524 7.38005 243.484 8.42005C243.47 9.02005 243.464 9.54672 243.464 10C243.464 10.4534 243.47 10.98 243.484 11.58C243.537 13.14 243.937 14.2667 244.684 14.96C245.43 15.6534 246.37 16 247.504 16Z" fill="#fff"/>
<path d="M259.506 17C259.373 17 259.266 16.96 259.186 16.88C259.106 16.8 259.066 16.6934 259.066 16.56V4.20005H255.106C254.973 4.20005 254.866 4.16005 254.786 4.08005C254.706 4.00005 254.666 3.89338 254.666 3.76005V3.46005C254.666 3.31338 254.706 3.20005 254.786 3.12005C254.866 3.04005 254.973 3.00005 255.106 3.00005H264.266C264.413 3.00005 264.526 3.04005 264.606 3.12005C264.686 3.20005 264.726 3.31338 264.726 3.46005V3.76005C264.726 3.89338 264.686 4.00005 264.606 4.08005C264.526 4.16005 264.413 4.20005 264.266 4.20005H260.326V16.56C260.326 16.6934 260.286 16.8 260.206 16.88C260.126 16.96 260.013 17 259.866 17H259.506Z" fill="#fff"/>
<path d="M271.879 17.2001C270.665 17.2001 269.672 16.9667 268.899 16.5C268.139 16.02 267.572 15.3734 267.199 14.56C266.825 13.7467 266.619 12.8201 266.579 11.7801C266.565 11.2334 266.559 10.6467 266.559 10.02C266.559 9.39338 266.565 8.79338 266.579 8.22005C266.619 7.18005 266.825 6.25338 267.199 5.44005C267.572 4.61338 268.139 3.96672 268.899 3.50005C269.672 3.03338 270.665 2.80005 271.879 2.80005C272.825 2.80005 273.632 2.93338 274.299 3.20005C274.965 3.46672 275.505 3.82005 275.919 4.26005C276.345 4.68672 276.659 5.15338 276.859 5.66005C277.072 6.15338 277.192 6.64005 277.219 7.12005C277.232 7.24005 277.192 7.34005 277.099 7.42005C277.019 7.48672 276.919 7.52005 276.799 7.52005H276.399C276.292 7.52005 276.199 7.49338 276.119 7.44005C276.039 7.37338 275.985 7.26005 275.959 7.10005C275.705 5.91338 275.225 5.10005 274.519 4.66005C273.825 4.22005 272.945 4.00005 271.879 4.00005C270.665 4.00005 269.699 4.34672 268.979 5.04005C268.272 5.72005 267.892 6.81338 267.839 8.32005C267.799 9.41338 267.799 10.5334 267.839 11.68C267.892 13.1867 268.272 14.2867 268.979 14.98C269.699 15.66 270.665 16 271.879 16C272.945 16 273.825 15.78 274.519 15.34C275.225 14.9 275.705 14.0867 275.959 12.9C275.985 12.74 276.039 12.6334 276.119 12.58C276.199 12.5134 276.292 12.48 276.399 12.48H276.799C276.919 12.48 277.019 12.5201 277.099 12.6C277.192 12.6667 277.232 12.76 277.219 12.88C277.192 13.36 277.072 13.8534 276.859 14.3601C276.659 14.8534 276.345 15.32 275.919 15.76C275.505 16.1867 274.965 16.5334 274.299 16.8C273.632 17.0667 272.825 17.2001 271.879 17.2001Z" fill="#fff"/>
<path d="M283.666 17C283.533 17 283.426 16.96 283.346 16.88C283.266 16.8 283.226 16.6934 283.226 16.56V4.20005H279.266C279.133 4.20005 279.026 4.16005 278.946 4.08005C278.866 4.00005 278.826 3.89338 278.826 3.76005V3.46005C278.826 3.31338 278.866 3.20005 278.946 3.12005C279.026 3.04005 279.133 3.00005 279.266 3.00005H288.426C288.573 3.00005 288.686 3.04005 288.766 3.12005C288.846 3.20005 288.886 3.31338 288.886 3.46005V3.76005C288.886 3.89338 288.846 4.00005 288.766 4.08005C288.686 4.16005 288.573 4.20005 288.426 4.20005H284.486V16.56C284.486 16.6934 284.446 16.8 284.366 16.88C284.286 16.96 284.173 17 284.026 17H283.666Z" fill="#fff"/>
<path d="M291.739 17C291.605 17 291.499 16.96 291.419 16.88C291.339 16.8 291.299 16.6934 291.299 16.56V3.46005C291.299 3.31338 291.339 3.20005 291.419 3.12005C291.499 3.04005 291.605 3.00005 291.739 3.00005H296.959C297.892 3.00005 298.652 3.16672 299.239 3.50005C299.839 3.83338 300.279 4.27338 300.559 4.82005C300.839 5.35338 300.979 5.94005 300.979 6.58005C300.979 7.15338 300.885 7.64672 300.699 8.06005C300.525 8.46005 300.299 8.78672 300.019 9.04005C299.752 9.29338 299.485 9.48672 299.219 9.62005C299.752 9.88672 300.225 10.3134 300.639 10.9C301.052 11.4867 301.259 12.2 301.259 13.04C301.259 13.7067 301.099 14.3467 300.779 14.96C300.472 15.56 300.005 16.0534 299.379 16.4401C298.765 16.8134 298.005 17 297.099 17H291.739ZM292.559 15.8H296.899C297.885 15.8 298.645 15.5401 299.179 15.0201C299.725 14.5001 299.999 13.84 299.999 13.04C299.999 12.2267 299.725 11.5667 299.179 11.06C298.645 10.54 297.885 10.28 296.899 10.28H292.559V15.8ZM292.559 9.08005H296.699C297.685 9.08005 298.432 8.86005 298.939 8.42005C299.459 7.98005 299.719 7.36672 299.719 6.58005C299.719 5.79338 299.459 5.20005 298.939 4.80005C298.432 4.40005 297.685 4.20005 296.699 4.20005H292.559V9.08005Z" fill="#fff"/>
<path d="M309.105 17.2001C307.999 17.2001 307.059 17.0067 306.285 16.6201C305.512 16.2201 304.919 15.6134 304.505 14.8C304.092 13.9734 303.865 12.9334 303.825 11.68C303.812 11.08 303.805 10.52 303.805 10C303.805 9.48005 303.812 8.92005 303.825 8.32005C303.865 7.08005 304.105 6.05338 304.545 5.24005C304.985 4.41338 305.592 3.80005 306.365 3.40005C307.152 3.00005 308.065 2.80005 309.105 2.80005C310.145 2.80005 311.052 3.00005 311.825 3.40005C312.612 3.80005 313.225 4.41338 313.665 5.24005C314.119 6.05338 314.359 7.08005 314.385 8.32005C314.412 8.92005 314.425 9.48005 314.425 10C314.425 10.52 314.412 11.08 314.385 11.68C314.359 12.9334 314.132 13.9734 313.705 14.8C313.292 15.6134 312.699 16.2201 311.925 16.6201C311.152 17.0067 310.212 17.2001 309.105 17.2001ZM309.105 16C310.252 16 311.192 15.6534 311.925 14.96C312.672 14.2667 313.072 13.14 313.125 11.58C313.152 10.98 313.165 10.4534 313.165 10C313.165 9.54672 313.152 9.02005 313.125 8.42005C313.099 7.38005 312.905 6.53338 312.545 5.88005C312.199 5.22672 311.725 4.75338 311.125 4.46005C310.539 4.15338 309.865 4.00005 309.105 4.00005C308.359 4.00005 307.685 4.15338 307.085 4.46005C306.499 4.75338 306.025 5.22672 305.665 5.88005C305.319 6.53338 305.125 7.38005 305.085 8.42005C305.072 9.02005 305.065 9.54672 305.065 10C305.065 10.4534 305.072 10.98 305.085 11.58C305.139 13.14 305.539 14.2667 306.285 14.96C307.032 15.6534 307.972 16 309.105 16Z" fill="#fff"/>
<path fill-rule="evenodd" clip-rule="evenodd" d="M37 19L37 -4.37114e-08L38 0L38 19L37 19Z" fill="#fff"/>
</svg>
