<svg width="96" height="96" viewBox="0 0 96 96" fill="none" xmlns="http://www.w3.org/2000/svg">
<path d="M21.2016 56C21.0282 56 20.8722 55.9394 20.7336 55.818C20.6122 55.6967 20.5516 55.5407 20.5516 55.35V42.428L16.8076 45.314C16.6516 45.4354 16.4869 45.4787 16.3136 45.444C16.1576 45.4094 16.0189 45.314 15.8976 45.158L14.5976 43.468C14.4936 43.312 14.4502 43.1474 14.4676 42.974C14.5022 42.8007 14.5976 42.662 14.7536 42.558L20.6816 37.982C20.7856 37.9127 20.8809 37.8694 20.9676 37.852C21.0716 37.8174 21.1842 37.8 21.3056 37.8H24.0616C24.2349 37.8 24.3822 37.8607 24.5036 37.982C24.6249 38.1034 24.6856 38.2594 24.6856 38.45V55.35C24.6856 55.5407 24.6249 55.6967 24.5036 55.818C24.3822 55.9394 24.2349 56 24.0616 56H21.2016Z" fill="black"/>
<path d="M35.125 56.26C33.877 56.26 32.8023 56.0867 31.901 55.74C31.017 55.376 30.2803 54.882 29.691 54.258C29.119 53.6167 28.6857 52.88 28.391 52.048C28.1137 51.1987 27.949 50.2974 27.897 49.344C27.8797 48.876 27.8623 48.356 27.845 47.784C27.845 47.1947 27.845 46.6054 27.845 46.016C27.8623 45.4267 27.8797 44.8894 27.897 44.404C27.9317 43.4507 28.0963 42.558 28.391 41.726C28.703 40.894 29.1537 40.166 29.743 39.542C30.3323 38.918 31.069 38.4327 31.953 38.086C32.8543 37.722 33.9117 37.54 35.125 37.54C36.3383 37.54 37.387 37.722 38.271 38.086C39.155 38.4327 39.8917 38.918 40.481 39.542C41.0703 40.166 41.5123 40.894 41.807 41.726C42.119 42.558 42.301 43.4507 42.353 44.404C42.3703 44.8894 42.379 45.4267 42.379 46.016C42.3963 46.6054 42.3963 47.1947 42.379 47.784C42.379 48.356 42.3703 48.876 42.353 49.344C42.301 50.2974 42.1277 51.1987 41.833 52.048C41.5383 52.88 41.0963 53.6167 40.507 54.258C39.935 54.882 39.1983 55.376 38.297 55.74C37.413 56.0867 36.3557 56.26 35.125 56.26ZM35.125 52.88C36.1303 52.88 36.867 52.5507 37.335 51.892C37.803 51.2334 38.0543 50.3407 38.089 49.214C38.1063 48.7114 38.115 48.1914 38.115 47.654C38.1323 47.1167 38.1323 46.5794 38.115 46.042C38.115 45.5047 38.1063 45.002 38.089 44.534C38.0543 43.4594 37.803 42.584 37.335 41.908C36.867 41.232 36.1303 40.8854 35.125 40.868C34.1023 40.8854 33.357 41.232 32.889 41.908C32.4383 42.584 32.1957 43.4594 32.161 44.534C32.1437 45.002 32.1263 45.5047 32.109 46.042C32.109 46.5794 32.109 47.1167 32.109 47.654C32.1263 48.1914 32.1437 48.7114 32.161 49.214C32.1957 50.3407 32.447 51.2334 32.915 51.892C33.383 52.5507 34.1197 52.88 35.125 52.88Z" fill="black"/>
<path d="M52.4922 56.26C51.2442 56.26 50.1695 56.0867 49.2682 55.74C48.3842 55.376 47.6475 54.882 47.0582 54.258C46.4862 53.6167 46.0528 52.88 45.7582 52.048C45.4808 51.1987 45.3162 50.2974 45.2642 49.344C45.2468 48.876 45.2295 48.356 45.2122 47.784C45.2122 47.1947 45.2122 46.6054 45.2122 46.016C45.2295 45.4267 45.2468 44.8894 45.2642 44.404C45.2988 43.4507 45.4635 42.558 45.7582 41.726C46.0702 40.894 46.5208 40.166 47.1102 39.542C47.6995 38.918 48.4362 38.4327 49.3202 38.086C50.2215 37.722 51.2788 37.54 52.4922 37.54C53.7055 37.54 54.7542 37.722 55.6382 38.086C56.5222 38.4327 57.2588 38.918 57.8482 39.542C58.4375 40.166 58.8795 40.894 59.1742 41.726C59.4862 42.558 59.6682 43.4507 59.7202 44.404C59.7375 44.8894 59.7462 45.4267 59.7462 46.016C59.7635 46.6054 59.7635 47.1947 59.7462 47.784C59.7462 48.356 59.7375 48.876 59.7202 49.344C59.6682 50.2974 59.4948 51.1987 59.2002 52.048C58.9055 52.88 58.4635 53.6167 57.8742 54.258C57.3022 54.882 56.5655 55.376 55.6642 55.74C54.7802 56.0867 53.7228 56.26 52.4922 56.26ZM52.4922 52.88C53.4975 52.88 54.2342 52.5507 54.7022 51.892C55.1702 51.2334 55.4215 50.3407 55.4562 49.214C55.4735 48.7114 55.4822 48.1914 55.4822 47.654C55.4995 47.1167 55.4995 46.5794 55.4822 46.042C55.4822 45.5047 55.4735 45.002 55.4562 44.534C55.4215 43.4594 55.1702 42.584 54.7022 41.908C54.2342 41.232 53.4975 40.8854 52.4922 40.868C51.4695 40.8854 50.7242 41.232 50.2562 41.908C49.8055 42.584 49.5628 43.4594 49.5282 44.534C49.5108 45.002 49.4935 45.5047 49.4762 46.042C49.4762 46.5794 49.4762 47.1167 49.4762 47.654C49.4935 48.1914 49.5108 48.7114 49.5282 49.214C49.5628 50.3407 49.8142 51.2334 50.2822 51.892C50.7502 52.5507 51.4868 52.88 52.4922 52.88Z" fill="black"/>
<path d="M64.0614 56C63.68 56 63.4894 55.8267 63.4894 55.48C63.4894 55.376 63.524 55.2807 63.5934 55.194L76.4374 38.294C76.5587 38.138 76.68 38.0167 76.8014 37.93C76.9227 37.8434 77.096 37.8 77.3214 37.8H78.9334C79.3147 37.8 79.5054 37.9734 79.5054 38.32C79.5054 38.424 79.4707 38.5194 79.4014 38.606L66.5574 55.506C66.436 55.662 66.3147 55.7834 66.1934 55.87C66.0894 55.9567 65.916 56 65.6734 56H64.0614ZM76.8534 56.13C75.6747 56.13 74.7387 55.818 74.0454 55.194C73.3694 54.57 72.9967 53.738 72.9274 52.698C72.8927 52.2474 72.8754 51.8487 72.8754 51.502C72.8927 51.1554 72.91 50.7394 72.9274 50.254C72.9794 49.214 73.3347 48.3734 73.9934 47.732C74.6694 47.0907 75.6227 46.77 76.8534 46.77C78.084 46.77 79.0287 47.0907 79.6874 47.732C80.3634 48.3734 80.7274 49.214 80.7794 50.254C80.814 50.7394 80.8314 51.1554 80.8314 51.502C80.8314 51.8487 80.814 52.2474 80.7794 52.698C80.7274 53.738 80.346 54.57 79.6354 55.194C78.942 55.818 78.0147 56.13 76.8534 56.13ZM76.8534 53.998C77.1827 53.998 77.4427 53.9287 77.6334 53.79C77.824 53.6514 77.9627 53.4694 78.0494 53.244C78.1534 53.0187 78.214 52.7847 78.2314 52.542C78.266 52.1434 78.2834 51.788 78.2834 51.476C78.2834 51.1467 78.266 50.7827 78.2314 50.384C78.214 50.02 78.1014 49.6907 77.8934 49.396C77.6854 49.1014 77.3387 48.954 76.8534 48.954C76.368 48.954 76.0214 49.1014 75.8134 49.396C75.6227 49.6907 75.51 50.02 75.4754 50.384C75.458 50.7827 75.4494 51.1467 75.4494 51.476C75.4494 51.788 75.458 52.1434 75.4754 52.542C75.51 52.7847 75.562 53.0187 75.6314 53.244C75.718 53.4694 75.8567 53.6514 76.0474 53.79C76.2554 53.9287 76.524 53.998 76.8534 53.998ZM66.1674 46.978C64.9887 46.978 64.0527 46.6747 63.3594 46.068C62.6834 45.444 62.3107 44.612 62.2414 43.572C62.2067 43.1214 62.1894 42.7314 62.1894 42.402C62.2067 42.0554 62.224 41.6394 62.2414 41.154C62.2934 40.0967 62.6487 39.256 63.3074 38.632C63.9834 37.9907 64.9367 37.67 66.1674 37.67C67.4154 37.67 68.3687 37.9907 69.0274 38.632C69.686 39.256 70.0414 40.0967 70.0934 41.154C70.128 41.6394 70.1454 42.0554 70.1454 42.402C70.1454 42.7314 70.128 43.1214 70.0934 43.572C70.0414 44.612 69.6687 45.444 68.9754 46.068C68.282 46.6747 67.346 46.978 66.1674 46.978ZM66.1674 44.872C66.4967 44.872 66.7567 44.8027 66.9474 44.664C67.138 44.5254 67.2767 44.3434 67.3634 44.118C67.4674 43.8927 67.528 43.6674 67.5454 43.442C67.58 43.026 67.5974 42.662 67.5974 42.35C67.5974 42.0207 67.58 41.6654 67.5454 41.284C67.528 40.92 67.4154 40.5907 67.2074 40.296C66.9994 39.984 66.6527 39.828 66.1674 39.828C65.682 39.828 65.3354 39.984 65.1274 40.296C64.9367 40.5907 64.824 40.92 64.7894 41.284C64.772 41.6654 64.7634 42.0207 64.7634 42.35C64.7634 42.662 64.772 43.026 64.7894 43.442C64.824 43.6674 64.8847 43.8927 64.9714 44.118C65.058 44.3434 65.1967 44.5254 65.3874 44.664C65.578 44.8027 65.838 44.872 66.1674 44.872Z" fill="black"/>
<circle cx="48" cy="48" r="44" stroke="url(#paint0_linear_286_12)" stroke-width="8"/>
<defs>
<linearGradient id="paint0_linear_286_12" x1="22.8387" y1="1.54839" x2="66.0645" y2="105.419" gradientUnits="userSpaceOnUse">
<stop stop-color="#00AFC0"/>
<stop offset="1" stop-color="#C4DA00"/>
</linearGradient>
</defs>
</svg>
