<svg width="96" height="96" viewBox="0 0 96 96" fill="none" xmlns="http://www.w3.org/2000/svg">
<path d="M33.7 60.3601C31.588 60.3601 29.752 59.9761 28.192 59.2081C26.656 58.4401 25.456 57.3841 24.592 56.0401C23.752 54.6721 23.332 53.1361 23.332 51.4321C23.332 50.7121 23.44 49.9921 23.656 49.2721C23.872 48.5521 24.136 47.8801 24.448 47.2561C24.76 46.6081 25.072 46.0321 25.384 45.5281C25.72 45.0241 25.996 44.6161 26.212 44.3041L32.692 35.5201C32.812 35.4001 32.968 35.2561 33.16 35.0881C33.352 34.8961 33.616 34.8001 33.952 34.8001H37.984C38.2 34.8001 38.38 34.8841 38.524 35.0521C38.668 35.1961 38.74 35.3761 38.74 35.5921C38.74 35.6881 38.728 35.7841 38.704 35.8801C38.68 35.9521 38.644 36.0121 38.596 36.0601L33.628 42.8641C33.82 42.8161 34.036 42.7801 34.276 42.7561C34.54 42.7321 34.768 42.7201 34.96 42.7201C36.112 42.7681 37.216 43.0081 38.272 43.4401C39.352 43.8721 40.312 44.4721 41.152 45.2401C41.992 45.9841 42.652 46.8721 43.132 47.9041C43.636 48.9361 43.888 50.0881 43.888 51.3601C43.888 52.9681 43.468 54.4561 42.628 55.8241C41.812 57.1921 40.636 58.2961 39.1 59.1361C37.588 59.9521 35.788 60.3601 33.7 60.3601ZM33.628 55.7161C34.42 55.7161 35.152 55.5601 35.824 55.2481C36.496 54.9121 37.036 54.4201 37.444 53.7721C37.852 53.1241 38.056 52.3441 38.056 51.4321C38.056 50.4961 37.852 49.7161 37.444 49.0921C37.036 48.4441 36.496 47.9641 35.824 47.6521C35.152 47.3161 34.42 47.1481 33.628 47.1481C32.836 47.1481 32.104 47.3161 31.432 47.6521C30.76 47.9641 30.22 48.4441 29.812 49.0921C29.404 49.7161 29.2 50.4961 29.2 51.4321C29.2 52.3441 29.404 53.1241 29.812 53.7721C30.244 54.4201 30.784 54.9121 31.432 55.2481C32.104 55.5601 32.836 55.7161 33.628 55.7161Z" fill="black"/>
<path d="M48.9531 60.0001C48.4251 60.0001 48.1611 59.7601 48.1611 59.2801C48.1611 59.1361 48.2091 59.0041 48.3051 58.8841L66.0891 35.4841C66.2571 35.2681 66.4251 35.1001 66.5931 34.9801C66.7611 34.8601 67.0011 34.8001 67.3131 34.8001H69.5451C70.0731 34.8001 70.3371 35.0401 70.3371 35.5201C70.3371 35.6641 70.2891 35.7961 70.1931 35.9161L52.4091 59.3161C52.2411 59.5321 52.0731 59.7001 51.9051 59.8201C51.7611 59.9401 51.5211 60.0001 51.1851 60.0001H48.9531ZM66.6651 60.1801C65.0331 60.1801 63.7371 59.7481 62.7771 58.8841C61.8411 58.0201 61.3251 56.8681 61.2291 55.4281C61.1811 54.8041 61.1571 54.2521 61.1571 53.7721C61.1811 53.2921 61.2051 52.7161 61.2291 52.0441C61.3011 50.6041 61.7931 49.4401 62.7051 48.5521C63.6411 47.6641 64.9611 47.2201 66.6651 47.2201C68.3691 47.2201 69.6771 47.6641 70.5891 48.5521C71.5251 49.4401 72.0291 50.6041 72.1011 52.0441C72.1491 52.7161 72.1731 53.2921 72.1731 53.7721C72.1731 54.2521 72.1491 54.8041 72.1011 55.4281C72.0291 56.8681 71.5011 58.0201 70.5171 58.8841C69.5571 59.7481 68.2731 60.1801 66.6651 60.1801ZM66.6651 57.2281C67.1211 57.2281 67.4811 57.1321 67.7451 56.9401C68.0091 56.7481 68.2011 56.4961 68.3211 56.1841C68.4651 55.8721 68.5491 55.5481 68.5731 55.2121C68.6211 54.6601 68.6451 54.1681 68.6451 53.7361C68.6451 53.2801 68.6211 52.7761 68.5731 52.2241C68.5491 51.7201 68.3931 51.2641 68.1051 50.8561C67.8171 50.4481 67.3371 50.2441 66.6651 50.2441C65.9931 50.2441 65.5131 50.4481 65.2251 50.8561C64.9611 51.2641 64.8051 51.7201 64.7571 52.2241C64.7331 52.7761 64.7211 53.2801 64.7211 53.7361C64.7211 54.1681 64.7331 54.6601 64.7571 55.2121C64.8051 55.5481 64.8771 55.8721 64.9731 56.1841C65.0931 56.4961 65.2851 56.7481 65.5491 56.9401C65.8371 57.1321 66.2091 57.2281 66.6651 57.2281ZM51.8691 47.5081C50.2371 47.5081 48.9411 47.0881 47.9811 46.2481C47.0451 45.3841 46.5291 44.2321 46.4331 42.7921C46.3851 42.1681 46.3611 41.6281 46.3611 41.1721C46.3851 40.6921 46.4091 40.1161 46.4331 39.4441C46.5051 37.9801 46.9971 36.8161 47.9091 35.9521C48.8451 35.0641 50.1651 34.6201 51.8691 34.6201C53.5971 34.6201 54.9171 35.0641 55.8291 35.9521C56.7411 36.8161 57.2331 37.9801 57.3051 39.4441C57.3531 40.1161 57.3771 40.6921 57.3771 41.1721C57.3771 41.6281 57.3531 42.1681 57.3051 42.7921C57.2331 44.2321 56.7171 45.3841 55.7571 46.2481C54.7971 47.0881 53.5011 47.5081 51.8691 47.5081ZM51.8691 44.5921C52.3251 44.5921 52.6851 44.4961 52.9491 44.3041C53.2131 44.1121 53.4051 43.8601 53.5251 43.5481C53.6691 43.2361 53.7531 42.9241 53.7771 42.6121C53.8251 42.0361 53.8491 41.5321 53.8491 41.1001C53.8491 40.6441 53.8251 40.1521 53.7771 39.6241C53.7531 39.1201 53.5971 38.6641 53.3091 38.2561C53.0211 37.8241 52.5411 37.6081 51.8691 37.6081C51.1971 37.6081 50.7171 37.8241 50.4291 38.2561C50.1651 38.6641 50.0091 39.1201 49.9611 39.6241C49.9371 40.1521 49.9251 40.6441 49.9251 41.1001C49.9251 41.5321 49.9371 42.0361 49.9611 42.6121C50.0091 42.9241 50.0931 43.2361 50.2131 43.5481C50.3331 43.8601 50.5251 44.1121 50.7891 44.3041C51.0531 44.4961 51.4131 44.5921 51.8691 44.5921Z" fill="black"/>
<circle cx="48" cy="48" r="44" stroke="url(#paint0_linear_286_11)" stroke-width="8"/>
<defs>
<linearGradient id="paint0_linear_286_11" x1="20.4675" y1="88" x2="84.3636" y2="14.7532" gradientUnits="userSpaceOnUse">
<stop stop-color="#00AAFF"/>
<stop offset="1" stop-color="#E5FF00"/>
</linearGradient>
</defs>
</svg>
