<svg width="96" height="96" viewBox="0 0 96 96" fill="none" xmlns="http://www.w3.org/2000/svg">
<path d="M25.972 60.9999C25.708 60.9999 25.492 60.9159 25.324 60.7479C25.18 60.5799 25.108 60.3759 25.108 60.1359V41.4879L19.636 45.6999C19.42 45.8439 19.204 45.9039 18.988 45.8799C18.772 45.8319 18.58 45.6999 18.412 45.4839L16.9 43.5399C16.756 43.3239 16.696 43.0959 16.72 42.8559C16.768 42.6159 16.9 42.4239 17.116 42.2799L25.18 36.0519C25.324 35.9319 25.468 35.8599 25.612 35.8359C25.756 35.8119 25.912 35.7999 26.08 35.7999H29.248C29.488 35.7999 29.692 35.8839 29.86 36.0519C30.028 36.2199 30.112 36.4239 30.112 36.6639V60.1359C30.112 60.3759 30.028 60.5799 29.86 60.7479C29.692 60.9159 29.488 60.9999 29.248 60.9999H25.972Z" fill="black"/>
<path d="M44.472 61.3599C42.768 61.3599 41.316 61.1079 40.116 60.6039C38.916 60.0999 37.932 59.4039 37.164 58.5159C36.396 57.6279 35.82 56.6079 35.436 55.4559C35.052 54.2799 34.824 53.0319 34.752 51.7119C34.728 51.0639 34.704 50.3559 34.68 49.5879C34.68 48.7959 34.68 48.0039 34.68 47.2119C34.704 46.4199 34.728 45.6879 34.752 45.0159C34.8 43.6959 35.028 42.4599 35.436 41.3079C35.844 40.1319 36.432 39.1119 37.2 38.2479C37.992 37.3839 38.988 36.6999 40.188 36.1959C41.388 35.6919 42.816 35.4399 44.472 35.4399C46.1521 35.4399 47.592 35.6919 48.792 36.1959C49.992 36.6999 50.976 37.3839 51.744 38.2479C52.536 39.1119 53.124 40.1319 53.508 41.3079C53.916 42.4599 54.144 43.6959 54.192 45.0159C54.24 45.6879 54.264 46.4199 54.264 47.2119C54.264 48.0039 54.264 48.7959 54.264 49.5879C54.264 50.3559 54.24 51.0639 54.192 51.7119C54.144 53.0319 53.928 54.2799 53.544 55.4559C53.16 56.6079 52.584 57.6279 51.816 58.5159C51.048 59.4039 50.052 60.0999 48.828 60.6039C47.628 61.1079 46.176 61.3599 44.472 61.3599ZM44.472 57.2199C46.032 57.2199 47.172 56.7159 47.892 55.7079C48.6361 54.6759 49.02 53.2839 49.044 51.5319C49.092 50.8359 49.116 50.1399 49.116 49.4439C49.116 48.7239 49.116 48.0039 49.116 47.2839C49.116 46.5639 49.092 45.8799 49.044 45.2319C49.02 43.5279 48.6361 42.1599 47.892 41.1279C47.172 40.0719 46.032 39.5439 44.472 39.5439C42.936 39.5439 41.796 40.0719 41.052 41.1279C40.332 42.1599 39.948 43.5279 39.9 45.2319C39.9 45.8799 39.888 46.5639 39.864 47.2839C39.864 48.0039 39.864 48.7239 39.864 49.4439C39.888 50.1399 39.9 50.8359 39.9 51.5319C39.948 53.2839 40.344 54.6759 41.088 55.7079C41.832 56.7159 42.96 57.2199 44.472 57.2199Z" fill="black"/>
<path d="M68.1322 61.3599C66.4282 61.3599 64.9762 61.1079 63.7762 60.6039C62.5762 60.0999 61.5922 59.4039 60.8242 58.5159C60.0562 57.6279 59.4802 56.6079 59.0962 55.4559C58.7122 54.2799 58.4842 53.0319 58.4122 51.7119C58.3882 51.0639 58.3642 50.3559 58.3402 49.5879C58.3402 48.7959 58.3402 48.0039 58.3402 47.2119C58.3642 46.4199 58.3882 45.6879 58.4122 45.0159C58.4602 43.6959 58.6882 42.4599 59.0962 41.3079C59.5042 40.1319 60.0922 39.1119 60.8602 38.2479C61.6522 37.3839 62.6482 36.6999 63.8482 36.1959C65.0482 35.6919 66.4762 35.4399 68.1322 35.4399C69.8122 35.4399 71.2522 35.6919 72.4522 36.1959C73.6522 36.6999 74.6362 37.3839 75.4042 38.2479C76.1962 39.1119 76.7842 40.1319 77.1682 41.3079C77.5762 42.4599 77.8042 43.6959 77.8522 45.0159C77.9002 45.6879 77.9242 46.4199 77.9242 47.2119C77.9242 48.0039 77.9242 48.7959 77.9242 49.5879C77.9242 50.3559 77.9002 51.0639 77.8522 51.7119C77.8042 53.0319 77.5882 54.2799 77.2042 55.4559C76.8202 56.6079 76.2442 57.6279 75.4762 58.5159C74.7082 59.4039 73.7122 60.0999 72.4882 60.6039C71.2882 61.1079 69.8362 61.3599 68.1322 61.3599ZM68.1322 57.2199C69.6922 57.2199 70.8322 56.7159 71.5522 55.7079C72.2962 54.6759 72.6802 53.2839 72.7042 51.5319C72.7522 50.8359 72.7762 50.1399 72.7762 49.4439C72.7762 48.7239 72.7762 48.0039 72.7762 47.2839C72.7762 46.5639 72.7522 45.8799 72.7042 45.2319C72.6802 43.5279 72.2962 42.1599 71.5522 41.1279C70.8322 40.0719 69.6922 39.5439 68.1322 39.5439C66.5962 39.5439 65.4562 40.0719 64.7122 41.1279C63.9922 42.1599 63.6082 43.5279 63.5602 45.2319C63.5602 45.8799 63.5482 46.5639 63.5242 47.2839C63.5242 48.0039 63.5242 48.7239 63.5242 49.4439C63.5482 50.1399 63.5602 50.8359 63.5602 51.5319C63.6082 53.2839 64.0042 54.6759 64.7482 55.7079C65.4922 56.7159 66.6202 57.2199 68.1322 57.2199Z" fill="black"/>
<circle cx="48" cy="48" r="44" stroke="url(#paint0_linear_286_8)" stroke-width="8"/>
<defs>
<linearGradient id="paint0_linear_286_8" x1="22.8387" y1="1.54839" x2="66.0645" y2="105.419" gradientUnits="userSpaceOnUse">
<stop stop-color="#0094CD"/>
<stop offset="1" stop-color="#00B02A"/>
</linearGradient>
</defs>
</svg>
