<svg width="243" height="243" viewBox="0 0 243 243" fill="none" xmlns="http://www.w3.org/2000/svg">
<path d="M125.246 21.7696L216.371 58.2194C219.915 59.6369 222.75 63.8893 222.75 67.6355V101.251C222.75 106.819 218.194 111.376 212.625 111.376H30.3752C24.8065 111.376 20.2502 106.819 20.2502 101.251V67.6355C20.2502 63.8893 23.0853 59.6369 26.629 58.2194L117.754 21.7696C119.779 20.9596 123.221 20.9596 125.246 21.7696Z" stroke="#D1D1D1" stroke-width="10" stroke-miterlimit="10" stroke-linecap="round" stroke-linejoin="round"/>
<path d="M222.75 222.75H20.2502V192.375C20.2502 186.806 24.8065 182.25 30.3752 182.25H212.625C218.194 182.25 222.75 186.806 222.75 192.375V222.75Z" stroke="#D1D1D1" stroke-width="10" stroke-miterlimit="10" stroke-linecap="round" stroke-linejoin="round"/>
<path d="M40.4998 182.25V111.375" stroke="#D1D1D1" stroke-width="10" stroke-miterlimit="10" stroke-linecap="round" stroke-linejoin="round"/>
<path d="M81 182.25V111.375" stroke="#D1D1D1" stroke-width="10" stroke-miterlimit="10" stroke-linecap="round" stroke-linejoin="round"/>
<path d="M121.5 182.25V111.375" stroke="#D1D1D1" stroke-width="10" stroke-miterlimit="10" stroke-linecap="round" stroke-linejoin="round"/>
<path d="M162 182.25V111.375" stroke="#D1D1D1" stroke-width="10" stroke-miterlimit="10" stroke-linecap="round" stroke-linejoin="round"/>
<path d="M202.5 182.25V111.375" stroke="#D1D1D1" stroke-width="10" stroke-miterlimit="10" stroke-linecap="round" stroke-linejoin="round"/>
<path d="M10.1248 222.75H232.875" stroke="#D1D1D1" stroke-width="10" stroke-miterlimit="10" stroke-linecap="round" stroke-linejoin="round"/>
<path d="M121.5 86.0625C129.888 86.0625 136.688 79.2628 136.688 70.875C136.688 62.4872 129.888 55.6875 121.5 55.6875C113.112 55.6875 106.312 62.4872 106.312 70.875C106.312 79.2628 113.112 86.0625 121.5 86.0625Z" stroke="#D1D1D1" stroke-width="10" stroke-miterlimit="10" stroke-linecap="round" stroke-linejoin="round"/>
</svg>
