<svg width="20" height="16" viewBox="0 0 20 16" fill="none" xmlns="http://www.w3.org/2000/svg">
<path opacity="0.979" fill-rule="evenodd" clip-rule="evenodd" d="M20 1.99734C20 2.11088 20 2.22438 20 2.33792C15.8412 6.90586 11.6615 11.454 7.46094 15.9823C7.33852 16.0159 7.22133 16.0017 7.10938 15.9397C4.73066 13.3544 2.36087 10.7645 0 8.17029C0 8.07097 0 7.9716 0 7.87228C0.590012 7.20795 1.18897 6.54808 1.79688 5.89268C1.89571 5.83215 1.99987 5.81797 2.10938 5.85011C3.8596 7.71502 5.59789 9.59526 7.32422 11.4909C10.8203 7.68071 14.3164 3.87051 17.8125 0.0603144C17.9245 -0.00170457 18.0416 -0.0158938 18.1641 0.0177423C18.7709 0.6862 19.3829 1.34607 20 1.99734Z" fill="#130D49"/>
</svg>
