<svg width="212" height="74" fill="none" xmlns="http://www.w3.org/2000/svg"><mask id="a" style="mask-type:alpha" maskUnits="userSpaceOnUse" x="12" y="17" width="42" height="41"><path d="M33.12 57.616c11.225 0 20.326-9.088 20.326-20.298 0-11.21-9.1-20.297-20.327-20.297-11.226 0-20.326 9.087-20.326 20.297s9.1 20.298 20.326 20.298Z" fill="#D9D9D9"/></mask><g mask="url(#a)"><path d="M54.632 16.444H11.607v6.586h43.025v-6.586Z" fill="#EE772D"/><path d="M54.632 34.22H11.607v8.057h43.025V34.22Z" fill="#E84E0E"/><path d="M54.632 42.276H11.607v8.71h43.025v-8.71Z" fill="#77ABDC"/><path d="M54.632 50.987H11.607v7.145h43.025v-7.145Z" fill="#1077B1"/><path d="M54.632 27.694H11.607v6.526h43.025v-6.526Z" fill="#F9B515"/><path d="M54.632 23.03H11.607v4.664h43.025V23.03Z" fill="#FCCE86"/></g><path d="M132.811 41.556c0 5.11 3.386 6.088 5.672 5.633v-1.13c-1.732.265-4.378-.462-4.378-4.523v-8.187h4.038v-1.17h-4.038V27.96h-1.294v13.596ZM147.665 33.32c-3.159-.605-5.765 3.035-5.765 7.123v6.68h-1.292V32.196h1.292v3.747c.799-2.286 2.837-4.487 5.765-3.915v1.293ZM199.207 47.222c-1.335.245-3.575-.275-3.575-3.17v-16.91h1.294v16.58c0 2.157 1.163 2.443 2.281 2.3v1.2ZM69.703 47.482c-5.65 0-9.752-4.105-9.752-9.762 0-5.656 4.102-9.761 9.752-9.761 4.09 0 6.321 2.147 6.79 2.654l-1.8 2.906c-.546-.507-2.312-1.94-4.739-1.94-3.34 0-5.765 2.568-5.765 6.104 0 1.656.57 3.193 1.604 4.332 1.081 1.19 2.611 1.844 4.305 1.844 2.516 0 4.487-1.524 5.28-2.247a9.697 9.697 0 0 0 1.244 3.31c-.889.793-3.277 2.56-6.919 2.56ZM129.894 47.186c-2.932.413-5.778-.438-5.778-4.713V27.142h3.696v14.775c0 1.64.718 2.291 2.082 2.164v3.105ZM85.35 44.319c-2.433 0-4.457-1.872-4.457-4.654 0-2.752 2.024-4.655 4.457-4.655 2.404 0 4.428 1.903 4.428 4.655 0 2.782-2.024 4.654-4.428 4.654Zm-.03-12.471c-4.543 0-8.208 3.25-8.208 7.817 0 4.597 3.665 7.817 8.238 7.817 4.544 0 8.21-3.22 8.21-7.817 0-4.567-3.666-7.817-8.24-7.817ZM104.444 32.051v3.66c-4.15-.766-5.276 3.348-5.276 5.504v5.913h-3.724v-14.93h3.577v3.528c.674-2.136 3.151-4.157 5.423-3.675ZM113.102 44.25c-2.434 0-4.458-1.874-4.458-4.656 0-2.75 2.024-4.655 4.458-4.655 2.404 0 4.428 1.905 4.428 4.655 0 2.782-2.024 4.657-4.428 4.657Zm4.405-12.05v1.267c-1.31-1.045-2.973-1.625-4.722-1.625-4.592 0-7.926 3.299-7.926 7.842 0 2.049.751 3.969 2.116 5.406 1.454 1.535 3.505 2.379 5.778 2.379 1.862 0 3.457-.525 4.754-1.564v1.226h3.579V32.2h-3.579ZM155.227 46.349c-3.699 0-6.489-2.85-6.489-6.633 0-3.72 2.85-6.633 6.489-6.633 3.537 0 6.321 2.778 6.45 6.373v.527c-.128 3.648-2.858 6.366-6.45 6.366Zm6.45-14.153v3.32c-1.307-2.166-3.638-3.578-6.45-3.578-4.393 0-7.833 3.417-7.833 7.778 0 2.123.793 4.088 2.235 5.526 1.453 1.452 3.44 2.253 5.598 2.253 2.15 0 4.129-.801 5.578-2.255.339-.339.627-.705.872-1.097v2.98h1.293V32.197h-1.293ZM185.991 32.887c3.228 0 5.393 2.44 5.357 5.53h-11.334c.451-3.18 2.729-5.53 5.977-5.53Zm.003-1.159c-4.394 0-7.408 3.459-7.408 7.873 0 2.149.794 4.136 2.235 5.593 1.453 1.47 3.44 2.28 5.599 2.28 2.08 0 4.001-.758 5.434-2.14l-.705-1.072c-1.16 1.28-2.823 2.053-4.729 2.053-3.694 0-6.481-2.878-6.489-6.697h12.733c.483-4.658-2.357-7.89-6.67-7.89ZM176.705 32.195 172.14 43.8c-.278.74-.524 1.66-.524 1.66h-.063s-.245-.92-.524-1.66l-4.564-11.604h-1.386l5.889 14.928h1.234l5.86-14.928h-1.357Z" fill="#1C8BCB"/></svg>