<svg width="106" height="96" fill="none" xmlns="http://www.w3.org/2000/svg"><g clip-path="url(#a)"><path fill-rule="evenodd" clip-rule="evenodd" d="M50.638.84c-11.145.204-23.162 1.994-35.047 5.219-.998.27-1.155.327-1.292.466l-.156.16-.013 15.388-.013 15.39H9.914v2.989l-4.953.014-4.954.013 2.85 5.207c1.567 2.864 2.898 5.3 2.957 5.414l.108.206-2.961 5.413L0 62.133l7.157.013 7.157.013.027.22c.578 4.653 1.606 8.232 3.472 12.076a36.66 36.66 0 0 0 9.905 12.528c8.157 6.654 18.801 9.73 29.783 8.609a40.17 40.17 0 0 0 10.915-2.705c6.62-2.689 12.258-7.068 16.4-12.737 3.67-5.024 6.052-11.081 6.78-17.236l.09-.755h7.157c3.937 0 7.157-.009 7.157-.019 0-.016-5.351-9.815-5.776-10.578l-.145-.259 2.958-5.412 2.959-5.412-4.949-.026-4.95-.026-.013-1.482-.013-1.482H91.868V22.11c0-14.928-.003-15.356-.095-15.51a.607.607 0 0 0-.24-.218c-.391-.16-4.705-1.273-6.933-1.789C72.838 1.871 61.68.637 50.638.84Zm7.496 1.355c9.115.422 17.71 1.643 26.87 3.817 1.593.378 4.92 1.23 5.561 1.424.087.026.09.685.076 15.014l-.014 14.987H88.45l-.025-13.614c-.024-12.612-.032-13.623-.11-13.745-.112-.174-.156-.19-1.714-.612-18.24-4.944-31.413-6.17-46.245-4.302-6.022.759-12.691 2.105-19.78 3.992l-.066.018c-2.387.636-2.596.691-2.735.824l-.04.04-.003.005-.144.152-.012 13.634-.014 13.634h-2.177v-30l.165-.053c.312-.102 2.346-.635 3.76-.986C26.62 4.61 33.907 3.349 40.888 2.69c3.218-.304 5.378-.435 9.32-.567.99-.033 6.806.02 7.927.071Zm-4.027 19.336v15.906H51.93l-.012-15.854c-.008-8.72-.003-15.884.01-15.92.02-.05.268-.062 1.103-.052l1.077.014v15.906Zm-3.444.026v15.88l-15.917.013-15.918.013V10.969l.266-.077a178.41 178.41 0 0 1 3.913-1.033C30.702 7.9 37.685 6.64 44.154 6.04c2.265-.21 5.067-.381 6.028-.369l.48.006v15.88Zm8.079-15.775c6.729.412 13.55 1.488 21.552 3.4 2.399.574 6.633 1.681 6.824 1.785.087.048.09.59.078 13.26l-.013 13.21H55.374l-.013-15.9-.013-15.901 1.077.035c.592.02 1.635.07 2.317.111ZM46.29 12.563c-.066.027-.248.166-.405.31-.699.639-2.183 1.487-3.414 1.95-1.12.423-2.403.74-3.805.943-.73.105-.995.112-5.429.131l-1.052.005c-2.818.015-3.619.019-4.387-.143a12.516 12.516 0 0 1-1.023-.28l-.396-.119c-2.06-.61-2.08-.615-2.407-.545-.577.123-.98.42-1.231.906-.125.242-.138.32-.139.809 0 .656.092.942.415 1.295.273.296.64.465 1.082.497h.003c.067.006.122.01.176.009.232-.003.463-.09 1.677-.547l.015-.006c.376-.142.758-.273.849-.293l.164-.035.003 7.21c.002 5.444.018 7.252.063 7.387.075.22.345.414.575.414.103 0 1.233-.433 2.873-1.1L33.2 30.26l2.704 1.1c1.486.606 2.767 1.101 2.845 1.101.205 0 .43-.134.545-.324.097-.162.099-.316.099-7.428v-7.263l.19.035c1.493.272 3.321.902 4.52 1.558.604.33 1.328.82 1.765 1.192.434.37.624.43.923.293.154-.07.259-.185.459-.502 1.354-2.15 1.343-4.807-.03-6.98-.303-.48-.578-.622-.93-.479Zm.296 2.06c.546 1.347.529 2.68-.052 3.998l-.149.337-.267-.2c-.979-.734-2.374-1.43-3.9-1.944l-.798-.268.67-.22c1.428-.469 2.707-1.075 3.685-1.747.32-.22.599-.388.618-.372.02.016.107.203.193.416Zm15.828-.29a.895.895 0 0 0-.253.184c-.095.109-.103.209-.127 1.619l-.025 1.502-.89.026c-.747.022-.91.041-1.029.12a.798.798 0 0 1-.04.025c-.017.011-.034.021-.049.033-.196.15-.196.565-.195 6.28v2.003c-.001 5.654-.001 6.017.177 6.192a1.207 1.207 0 0 0 .076.067c.11.102.204.103 7.641.129l7.529.026.025.959c.02.725.043.98.098 1.047.135.165.363.25.6.222.2-.023.27-.071.614-.419l.388-.392.252.264c.402.422.616.562.855.56.252-.002.41-.086.54-.285.087-.136.097-.25.098-1.067v-.915h2.003c1.74 0 2.065 0 2.222-.166a.748.748 0 0 0 .097-.142l.002-.003c.075-.13.082-.751.082-7.095 0-5.459-.015-6.98-.064-7.08a.824.824 0 0 0-.235-.245c-.162-.111-.22-.118-1.022-.118h-.85l-.016-1.456c-.018-1.63-.032-1.702-.368-1.865-.163-.079-.494-.085-3.788-.07-3.575.016-3.613.017-3.942.13a3.339 3.339 0 0 0-1.153.726l-.2.204-.278-.267a3.139 3.139 0 0 0-1.152-.682c-.257-.087-.555-.095-3.875-.107-2.928-.011-3.624-.001-3.748.056Zm7.383 1.339c.31.122.71.489.848.78.06.127.14.421.176.655.058.367.088.444.225.568.129.117.205.144.415.144.224 0 .28-.022.426-.171.165-.168.186-.231.252-.763.06-.478.536-1.05 1.03-1.235.148-.056.835-.074 3.314-.087l3.127-.016V28.95l-3.229.017c-3.178.016-3.234.018-3.561.13-.394.135-.876.44-1.15.73l-.197.206-.291-.276c-.317-.3-.71-.533-1.145-.679-.255-.085-.552-.095-3.507-.11l-3.23-.018V15.547l3.128.015c2.887.014 3.147.023 3.369.11Zm-45.357.593c.159.081.376.176.483.211.106.036.181.076.167.09-.038.04-.847.38-.975.411-.248.06-.369-.463-.167-.724.058-.074.127-.136.153-.136.027 0 .18.067.339.148Zm13.18 1.023c.052.055-.822.825-1.244 1.095-2.036 1.302-4.788 1.206-6.712-.236-.378-.283-.843-.72-.918-.863-.051-.098.016-.099 4.398-.061 2.448.02 4.462.05 4.476.065Zm-8.61 1.999c.756.558 1.769.991 2.785 1.19.658.13 2.107.132 2.786.005a7.14 7.14 0 0 0 3.249-1.536c.13-.11.25-.199.267-.199.018 0 .026.387.018.86l-.014.86-4.705 1.998a2469.61 2469.61 0 0 1-4.9 2.08l-.196.079v-5.89l.165.136c.09.075.335.263.544.417Zm36.64-.338c-.223.138-.323.304-.323.534 0 .257.117.48.302.578.221.116 3.733.116 3.954 0 .297-.156.403-.654.197-.921-.222-.287-.244-.29-2.184-.29-1.67 0-1.798.007-1.947.099Zm-3.616 5.512.026 5.482.165.151.165.15h3.459c3.78 0 3.845.005 4.263.3.197.138.533.538.533.633 0 .029-1.865.043-4.774.034l-4.774-.013-.012-6.058c-.008-3.332-.002-6.088.011-6.125.019-.048.142-.062.47-.051l.443.015.025 5.482Zm19.805.628v6.135h-3.144l.014-.477.015-.477.92-.026c.888-.024.926-.03 1.052-.15a.801.801 0 0 0 .18-.31c.032-.116.05-2.143.051-5.507v-5.324h.912v6.136Zm-16.186-3.89c-.421.211-.436.913-.024 1.13.221.117 3.733.117 3.954 0 .416-.219.396-.925-.032-1.132-.24-.116-3.667-.114-3.898.002Zm-27.537 1.185-.015.442-4.609 1.956c-2.535 1.076-4.74 2.014-4.9 2.084l-.292.127v-.911l4.85-2.065c2.668-1.136 4.88-2.067 4.915-2.07.05-.002.062.103.051.438Zm27.502 1.084c-.275.152-.378.604-.205.903.172.296.235.305 2.218.305 1.583 0 1.826-.01 1.948-.084.405-.243.407-.915.004-1.127-.218-.115-3.756-.112-3.965.003Zm-27.491 4.095c0 2.138-.018 3.248-.051 3.248-.028 0-1.105-.429-2.393-.953-1.288-.525-2.405-.954-2.481-.954-.077 0-1.171.42-2.432.935-1.26.514-2.333.946-2.382.96-.084.024-.089-.048-.076-1.172l.014-1.197 4.837-2.056c2.66-1.13 4.866-2.057 4.9-2.057.05-.002.064.681.064 3.246Zm37.102 3.171v.464l-1.482.014c-.883.008-1.481-.006-1.481-.034 0-.12.413-.561.648-.691.364-.202.58-.234 1.505-.225l.81.008v.464Zm2.192.658c.007.616.004 1.12-.007 1.12s-.086-.034-.165-.076a.6.6 0 0 0-.579 0l-.15.08V30.24l.444.015.443.015.014 1.122Zm17.41 16.924v9.537H11.205l-.012-9.55-.013-9.552 41.826.013 41.825.013v9.538ZM9.914 50.428v8.688h2.103c1.64 0 2.108.014 2.123.064.011.036.033.43.049.877l.028.812H8.191c-3.315 0-6.027-.01-6.027-.022 0-.012 1.166-2.153 2.59-4.756 1.426-2.604 2.592-4.76 2.592-4.79 0-.03-1.139-2.142-2.533-4.692-1.394-2.55-2.56-4.688-2.593-4.752l-.06-.116h7.754v8.688Zm93.894-8.621c-.013.036-1.147 2.118-2.519 4.627a713.934 713.934 0 0 0-2.57 4.723l-.077.162 2.562 4.685a531.398 531.398 0 0 1 2.595 4.775c.033.086-.265.09-5.983.077l-6.018-.013.015-.516c.008-.283.03-.666.048-.85l.032-.336 2.09-.013 2.09-.013v-8.653c0-4.759.014-8.668.033-8.687.019-.019 1.765-.034 3.88-.034 3.1 0 3.842.013 3.822.066ZM17.583 59.233c.013.064.036.469.051.899.096 2.682.68 5.886 1.582 8.696 3.264 10.151 11.2 18.039 21.66 21.527 8.478 2.827 18.133 2.578 26.274-.678 12.455-4.98 20.49-16.119 21.224-29.426.03-.553.065-1.035.077-1.07.016-.051.258-.063 1.074-.052l1.051.013-.012.697c-.037 1.939-.441 4.853-.975 7.016-1.364 5.522-3.875 10.413-7.567 14.741-.665.779-2.223 2.387-3.02 3.116-5.795 5.308-13.208 8.64-21.273 9.564-1.724.198-2.47.235-4.66.234-2.174-.001-2.807-.033-4.584-.234C38.128 93.107 28.91 88 22.745 80.012c-4.041-5.237-6.533-11.565-7.182-18.24-.09-.926-.18-2.557-.145-2.617.012-.02.5-.038 1.082-.038 1.059 0 1.06 0 1.083.116Zm33.093 15.779c.011 14.027.004 15.871-.063 15.898-.113.043-1.728-.119-2.938-.295-3.95-.575-7.54-1.705-11.042-3.474-1.477-.745-2.328-1.242-3.622-2.115-7.94-5.35-12.932-13.602-13.975-23.1-.116-1.056-.223-2.691-.18-2.762.018-.029 6.306-.042 15.918-.035l15.889.013.013 15.87Zm3.431.062v15.931l-.937.016c-.515.008-1.01.001-1.102-.016l-.164-.03V75.081c0-8.743.016-15.911.035-15.93.02-.02.514-.03 1.102-.022l1.066.013v15.932Zm33.016-15.235c-.005.383-.035.986-.066 1.34-.835 9.521-5.505 17.778-13.194 23.33-4.001 2.888-8.822 4.923-13.92 5.876-1.41.263-3.652.543-4.35.543h-.245V75.057c0-8.73.016-15.887.034-15.906.019-.019 7.17-.029 15.892-.022l15.858.013-.01.697Zm-16.585 3.728c-.614.234-.906.661-.906 1.327 0 .368.186.76.476 1.002l.214.177-.304 2.31-.304 2.31-.347.087a2.817 2.817 0 0 0-1.14.55c-.245.198-.637.648-.681.783-.018.056-.357-.031-1.536-.393l-.405-.125-.005-.298c-.022-1.222-1.498-1.813-2.354-.942-.41.418-.52 1.11-.26 1.63.126.252.46.57.713.678.277.12.794.104 1.097-.033l.252-.114 1.064.317 1.063.317v.482c0 .44-.009.486-.1.51-.892.224-5.33 1.126-5.511 1.12-.422-.013-.644.17-.644.532 0 .25.116.414.363.515.203.083.22.08 3.248-.565 2.763-.589 3.047-.64 3.091-.562.026.048.125.174.219.28l.17.192-1.095 2.005c-.604 1.102-1.133 2.033-1.176 2.068a.434.434 0 0 1-.233.065c-.215.001-.63.208-.835.416-.414.421-.54 1.18-.288 1.723.257.552.728.849 1.348.849.448 0 .734-.111 1.032-.4.302-.294.436-.63.435-1.093 0-.416-.087-.68-.327-1.001l-.132-.175.97-1.77c.535-.975 1.015-1.844 1.067-1.932l.094-.16.267.093c.146.05.395.106.553.125.028.004.054.006.077.008.065.005.112.01.147.032.087.055.106.222.171.805l.032.28c.07.606.076.8.03.932-.102.285-.075.439.112.628.128.13.216.175.342.175.212 0 .478-.16.527-.318a.423.423 0 0 1 .1-.17c.05-.042.033-.309-.087-1.289-.082-.68-.13-1.243-.105-1.251.198-.068.74-.455.983-.704l.296-.303.596.369.004.002c2.1 1.301 2.326 1.442 2.417 1.645l.03.078c.12.342.216.476.459.64.186.125.257.141.623.141.367 0 .436-.016.626-.143.71-.478.65-1.583-.107-1.967a1.077 1.077 0 0 0-1.025-.006l-.244.126-1.481-.927-1.48-.927.05-.217c.047-.21.025-.985-.034-1.197-.025-.088.152-.225 1.184-.921.988-.666 1.229-.852 1.298-1a.615.615 0 0 0-.468-.873c-.272-.037-.494.086-.625.347-.085.17-.258.31-.983.802l-.88.597-.22-.245A2.989 2.989 0 0 0 71 70.893c-.14-.051-.254-.123-.254-.159 0-.093.553-4.29.588-4.465.02-.097.087-.173.215-.24.932-.483.927-1.898-.009-2.383-.26-.136-.752-.174-1.002-.079Zm-42.678.185a.728.728 0 0 0-.215.204c-.029.056-.714 1.901-1.522 4.1-.92 2.502-1.47 4.068-1.47 4.184 0 .24.12.468.293.56.172.09 1.88.725 2.392.888.43.138.558.148.786.064.142-.052.187-.043.376.072l.216.13.008.483c.01.547.098.778.42 1.106.208.212.634.432.837.433.114 0 .155.044.259.27.258.569.715.867 1.385.905.367.02.42.037.475.142.178.338.855.642 1.429.643.366 0 .37.001.57.214.112.117.328.272.48.343.34.16.894.207 1.193.102l.202-.07.322.296c.392.361.736.507 1.199.507.556 0 1.14-.314 1.36-.729l.092-.174.429.019c.397.017.453.006.75-.143.299-.15.497-.327.685-.612.07-.106.093-.11.279-.057a1.9 1.9 0 0 0 .532.034 1.548 1.548 0 0 0 1.221-.754l.141-.226.347-.011c.635-.02 1.16-.37 1.423-.952a1.778 1.778 0 0 0-.154-1.668c-.076-.11-.089-.164-.047-.207.041-.042.094-.02.198.08.244.239.407.266.84.143.351-.1 1.899-.662 2.314-.84.253-.107.453-.366.453-.583 0-.18-2.82-7.923-2.975-8.17-.125-.198-.223-.253-.448-.255-.178-.001-.387.107-1.481.771l-1.275.774H40.604l-.846-.407c-1.157-.555-1.503-.676-1.94-.676-.405 0-.776.112-1.362.412-.905.463-2.973.636-4.737.396-.43-.058-.486-.081-.988-.401a78.945 78.945 0 0 0-1.412-.87c-.978-.59-1.174-.652-1.459-.47Zm1.381 2.019c.377.257.697.498.712.537.07.183-.659 2.56-1.12 3.659-.399.948-1.1 2.285-1.246 2.377-.051.032-1.34-.412-1.43-.492-.036-.033 2.33-6.548 2.379-6.548.011 0 .328.21.705.467Zm15.42.396a948.956 948.956 0 0 1 2.187 5.987c.011.048-.202.149-.678.32l-.694.25-.182-.294c-.529-.856-1.265-2.538-1.663-3.802-.22-.7-.505-1.81-.481-1.88.016-.05 1.293-.863 1.368-.873.019-.002.083.13.144.292Zm-6.154.058c.306.139.819.376 1.14.529l.582.277.822.016.822.017.049.19c.027.104.097.387.155.628.31 1.267.896 2.864 1.487 4.046l.217.435.157.314c.007.014-.081.08-.196.147l-.21.122-2.5-2.545-2.502-2.545-.74.008c-.408.004-.912.023-1.12.043-.33.032-.402.058-.553.2-.153.142-.18.206-.217.509-.08.649-.367 1.032-1.007 1.342-.313.15-.808.22-.9.126-.02-.02.12-.268.313-.551.569-.833.589-.879.618-1.402l.026-.463.284-.214c1.01-.763 2.25-1.48 2.555-1.48.088.001.411.114.718.251Zm-5.75.629c.572.031 1.047.066 1.058.076.01.01-.009.095-.041.188a3.324 3.324 0 0 0-.09.609l-.03.438-.369.567c-.724 1.115-.797 1.363-.548 1.872.157.322.404.54.78.692.389.156 1.161.154 1.59-.004.956-.353 1.683-1.043 1.925-1.828l.089-.286.427-.016.428-.017 2.805 2.861c1.544 1.574 2.82 2.912 2.838 2.973.046.157-.162.391-.347.391-.118 0-.402-.264-1.72-1.604l-1.58-1.605h-.26c-.31 0-.532.157-.623.44-.12.367-.082.418 1.373 1.909.968.991 1.362 1.429 1.362 1.51 0 .15-.216.369-.363.369-.082 0-.548-.44-1.66-1.567-.852-.862-1.598-1.592-1.658-1.624-.255-.132-.674.002-.804.257-.04.08-.073.252-.073.383v.239l1.008 1.066a98.94 98.94 0 0 0 1.24 1.295c.262.258.302.448.132.62-.21.216-.323.153-1.076-.605-.565-.568-.733-.77-.844-1.018a2.533 2.533 0 0 0-.277-.474c-.16-.193-.576-.411-.874-.458-.19-.03-.22-.055-.328-.29-.147-.32-.527-.675-.84-.784a1.847 1.847 0 0 0-.506-.082c-.254 0-.27-.007-.27-.13 0-.391-.357-.735-.913-.88a1.54 1.54 0 0 0-1.136.15l-.216.123-.126-.16a1.633 1.633 0 0 0-.4-.315c-.246-.14-.317-.154-.729-.154-.559 0-.752.09-1.253.583l-.342.335-.168-.092-.033-.018c-.172-.094-.258-.14-.277-.207-.019-.067.029-.152.123-.324l.019-.033c.743-1.35 1.478-3.259 1.887-4.903l.146-.585.253.03c.14.015.72.055 1.292.087Zm37.979 5.171c.354.185.649.493.813.85.114.246.134.36.132.73-.002.377-.022.48-.148.736-.518 1.058-1.846 1.317-2.704.527a2.115 2.115 0 0 1-.374-.533c-.145-.3-.165-.392-.165-.755 0-.347.024-.461.141-.706a1.878 1.878 0 0 1 1.1-.977c.07-.023.309-.035.532-.027.32.012.46.045.673.155Zm-39.394 1.351c.148.112.218.13.461.116.26-.014.297-.003.394.122a.695.695 0 0 0 .617.23c.082-.017.23-.087.33-.157.19-.13.256-.126.468.028.11.082.112.092.036.243a.595.595 0 0 0-.005.573c.19.374.608.476.959.234.234-.162.36-.163.463-.004.061.096.069.165.033.298-.147.541.336 1.02.822.816.402-.168.636-.108.636.165 0 .14-.084.25-.572.746-.488.497-.596.582-.732.582-.21 0-.283-.139-.272-.525.016-.528-.237-.801-.691-.75-.186.022-.271.072-.486.286-.143.143-.294.264-.336.27-.177.023-.259-.01-.31-.123-.043-.096-.032-.161.052-.321.127-.241.133-.387.025-.617a.608.608 0 0 0-.81-.31c-.105.045-.31.198-.457.339-.291.28-.346.299-.484.171-.111-.102-.117-.264-.015-.402.04-.055.074-.209.074-.344 0-.206-.026-.272-.17-.428-.152-.163-.2-.184-.424-.184a.687.687 0 0 0-.44.128c-.102.071-.227.13-.277.13-.14 0-.276-.182-.242-.322.035-.142 1-1.122 1.105-1.122.04 0 .152.06.248.132Zm6.48 4.313c0 .178-.16.35-.328.35-.075 0-.211-.078-.332-.19l-.205-.188.24-.25.242-.248.192.19c.132.131.192.237.192.336ZM17.375 45.317v.438h.186c.104 0 .27-.029.373-.064.102-.036.198-.066.213-.066.014 0 .023 1.371.018 3.046l-.008 3.046-.172.06c-.095.033-.27.106-.391.162l-.22.103v.608H22.359v-2.083l-.359.009-.358.01-.057.154c-.057.157-.13.528-.176.886l-.025.195h-2.268v-6.036l.234-.08c.128-.045.305-.117.391-.162l.158-.081v-.585h-2.524v.44Zm12.404-.009.009.431.18.01a.993.993 0 0 0 .374-.057 2.58 2.58 0 0 1 .211-.066c.01 0 .017 1.372.017 3.049v3.05l-.267.092c-.147.05-.323.124-.392.163l-.123.07-.01.3-.009.3h2.654v-.877l-.082-.02c-.113-.03-.382.006-.618.08l-.195.063.008-1.371.009-1.37.527-.009c.29-.004.542.003.56.016.02.014.436.69.928 1.501.925 1.531 1.114 1.795 1.37 1.922.315.154.896.152 1.172-.006l.123-.07v-.702l-.401-.01-.403-.009-.976-1.554-.976-1.555.955-1.45.955-1.45.234-.077c.128-.043.305-.114.391-.16l.158-.08v-.585h-2.526l.009.431.009.431.18.01c.1.005.27-.014.38-.043a.907.907 0 0 1 .208-.04c.007.006-.366.603-.828 1.327l-.84 1.316-.613.008-.613.01.008-1.275.009-1.274.207-.072c.115-.039.284-.11.376-.158l.168-.086v-.585h-2.526l.009.431Zm8.076-.144v.287l.13.075c.073.04.249.115.392.165l.26.09.008 2.971.008 2.971-.231.075a2.734 2.734 0 0 0-.391.163l-.16.088-.01.3-.008.301h5.306v-1.984h-.663l-.071.168c-.068.16-.124.411-.182.808l-.027.179h-2.588l-.008-1.374-.008-1.374h2.3v-.78h-2.3V45.69h2.42l.035.276c.02.153.076.398.125.545l.09.268.358.01.36.008v-1.92h-5.145v.286Zm-13.26.184v.439l.08.02c.108.028.346-.011.543-.087.088-.034.164-.062.168-.062.005 0 .008 1.374.008 3.053v3.053l-.247.089a4.26 4.26 0 0 0-.4.167l-.152.079v.584h2.62v-.878h-.2c-.175 0-.354.034-.59.11l-.072.024V45.826l.167-.055c.093-.03.265-.1.384-.154l.216-.099v-.608h-2.525v.438Zm24.42.456v-.915H51.7v.635l-.193.092c-.107.05-.29.123-.408.162l-.213.071v2.035c0 1.835.005 2.063.047 2.324.123.766.397 1.232.849 1.442.365.17.453.18 1.857.18h1.253l.007-3.059.006-3.058-.174.059c-.167.056-.42.078-.509.044-.035-.013-.04-.08-.04-.471v-.456h2.532v.636l-.213.1a3.86 3.86 0 0 1-.388.158l-.174.056.007 2.995.006 2.995.69.007.692.007v1.987l-.38-.007-.378-.008-.071-.19a2.977 2.977 0 0 1-.175-.746l-.016-.184-2.145-.015c-2.059-.014-2.155-.016-2.365-.067-.798-.193-1.298-.575-1.614-1.231a3.6 3.6 0 0 1-.29-.992c-.037-.23-.044-.577-.053-2.486l-.011-2.218-.17.06c-.192.07-.423.1-.56.075l-.094-.017Zm9.795-.304v-.611H64.262v1.988l-.381-.007-.381-.007-.06-.15a2.698 2.698 0 0 1-.178-.748l-.016-.21h-2.551V48.2h2.714v.815h-2.715l.008 1.407.006 1.407 1.362.007 1.362.006.013-.083c.008-.045.026-.176.041-.291.032-.237.108-.522.186-.701l.053-.122h.744v2.037h-5.66v-.614l.213-.098c.117-.054.309-.131.427-.17l.213-.073-.007-2.937-.006-2.937-.22-.071c-.268-.087-.39-.138-.52-.22l-.1-.062Zm7.184.304v-.915h2.716l-.008.312-.007.312-.178.093c-.098.05-.28.125-.407.165l-.228.073v1.166l-.001 1.165 1.984-.007 1.983-.006v-1.235c0-.81-.009-1.234-.026-1.23-.014.002-.096.03-.18.06-.177.062-.404.09-.541.064l-.093-.017v-.915h2.688v.634l-.188.091c-.103.05-.286.124-.406.164l-.22.073-.007 3.02c-.003 1.662.004 3.022.016 3.022a1.4 1.4 0 0 0 .172-.051c.22-.075.461-.11.621-.09l.141.017v.913h-2.817v-.613l.174-.08c.097-.043.286-.12.42-.172l.246-.093.007-1.342.007-1.342H67.88v1.427c0 .784.003 1.426.007 1.425l.164-.049c.246-.076.474-.109.623-.09l.136.016v.913h-2.817v-.603l.13-.07c.07-.037.26-.117.42-.177l.29-.108.007-3.01c.005-2.4 0-3.01-.026-3.01a.988.988 0 0 0-.172.052c-.16.06-.418.09-.555.065l-.094-.017Zm9.15 1.072v-1.987h6.253v1.987h-.726l-.064-.138a3.178 3.178 0 0 1-.204-.798l-.019-.185h-1.597v3.069c0 1.688.009 3.068.02 3.068.01 0 .088-.023.172-.051.215-.07.47-.107.616-.087l.123.016v.912h-2.793l.007-.312.008-.312.183-.09c.1-.05.284-.124.407-.165l.223-.075V45.755H76.16l-.031.227a3.376 3.376 0 0 1-.209.773l-.052.12h-.726Zm7.998-1.365-.007-.313-.007-.312 1.713.01c1.76.01 1.869.017 2.284.121.85.214 1.328.711 1.473 1.532.064.363.04.977-.052 1.276-.3.99-1.114 1.598-2.275 1.7-.157.013-.51.025-.783.025h-.498v1.171c0 .645.009 1.172.02 1.172.011 0 .13-.028.265-.061.318-.08.508-.102.684-.08l.142.017v.913h-2.972v-.61l.2-.099c.11-.054.296-.132.414-.172l.213-.074-.006-2.938-.007-2.938-.281-.097a2.744 2.744 0 0 1-.4-.17l-.12-.073Zm4.416 1.632c.002-.842-.368-1.232-1.289-1.361a8.156 8.156 0 0 0-.73-.026h-.549v2.96l.614-.013c.518-.01.646-.02.82-.067.769-.202 1.132-.68 1.134-1.493Z" fill="#000"/></g><defs><clipPath id="a"><path fill="#fff" transform="translate(0 .818)" d="M0 0h106v95H0z"/></clipPath></defs></svg>