<svg width="249" height="39" fill="none" xmlns="http://www.w3.org/2000/svg"><path d="M1.311 37.79c-.35 0-.664-.123-.944-.369-.245-.246-.367-.563-.367-.95V2.166c0-.387.122-.704.367-.95.28-.247.595-.37.944-.37h5.664c.56 0 .98.158 1.26.475.314.282.506.51.576.686l9.23 16.678 9.231-16.678a5.18 5.18 0 0 1 .525-.686c.28-.317.717-.475 1.311-.475h5.612c.385 0 .7.123.944.37.28.246.42.563.42.95V36.47c0 .387-.14.704-.42.95-.245.246-.56.37-.944.37h-6.241c-.385 0-.717-.124-.997-.37-.245-.246-.367-.563-.367-.95V16.68L21.19 27.71c-.14.317-.35.598-.63.845-.28.246-.664.369-1.154.369h-2.727c-.49 0-.874-.123-1.154-.37a3.144 3.144 0 0 1-.681-.844L8.915 16.68V36.47c0 .387-.122.704-.367.95s-.56.37-.944.37H1.31ZM54.133 37.79c-.35 0-.664-.123-.944-.369-.245-.246-.367-.563-.367-.95V25.124L40.654 2.535a2.07 2.07 0 0 0-.105-.264 1.016 1.016 0 0 1 .262-1.056c.245-.246.525-.369.84-.369h6.555c.525 0 .927.14 1.207.422.315.247.507.475.577.686l7.552 13.617 7.552-13.617c.105-.21.298-.44.577-.686.315-.281.735-.422 1.26-.422h6.555c.315 0 .577.123.787.37a1.016 1.016 0 0 1 .262 1.055c0 .07-.018.158-.053.264l-12.22 22.589V36.47c0 .387-.122.704-.367.95s-.56.37-.944.37h-6.818ZM80.391 37.79c-.384 0-.699-.123-.944-.369s-.367-.563-.367-.95V2.166c0-.387.123-.704.367-.95.245-.247.56-.37.944-.37h24.073c.385 0 .7.123.945.37.279.246.419.563.419.95v5.33c0 .387-.14.704-.419.95-.245.246-.56.37-.945.37H88.311v7.758h15.105c.384 0 .699.14.944.422.279.246.419.563.419.95v5.278c0 .352-.14.668-.419.95-.245.246-.56.37-.944.37H88.311V36.47c0 .387-.123.704-.367.95-.245.246-.56.37-.944.37H80.39ZM126.193 38.318c-3.216 0-6.013-.527-8.391-1.583s-4.231-2.639-5.559-4.75c-1.329-2.146-2.063-4.82-2.203-8.022a196.253 196.253 0 0 1 0-9.13c.14-3.167.874-5.824 2.203-7.97 1.363-2.182 3.234-3.818 5.611-4.909 2.378-1.09 5.158-1.636 8.339-1.636 3.147 0 5.909.546 8.287 1.636 2.413 1.091 4.301 2.727 5.664 4.909 1.364 2.146 2.098 4.803 2.203 7.97a98.195 98.195 0 0 1 0 9.13c-.14 3.202-.874 5.876-2.203 8.022-1.328 2.111-3.181 3.694-5.559 4.75s-5.175 1.583-8.392 1.583Zm0-7.6c1.854 0 3.357-.563 4.511-1.689 1.189-1.125 1.818-2.92 1.888-5.383.07-1.548.105-3.008.105-4.38 0-1.373-.035-2.798-.105-4.275-.07-1.654-.385-2.991-.944-4.011-.525-1.056-1.259-1.83-2.203-2.323-.944-.492-2.028-.739-3.252-.739-1.188 0-2.255.247-3.199.74-.944.492-1.696 1.266-2.255 2.322-.559 1.02-.874 2.357-.944 4.01a180.669 180.669 0 0 0 0 8.656c.105 2.463.734 4.258 1.888 5.383 1.154 1.126 2.657 1.69 4.51 1.69ZM149.843 37.79c-.385 0-.7-.123-.945-.369-.244-.246-.367-.563-.367-.95V2.166c0-.387.123-.704.367-.95.245-.247.56-.37.945-.37h14.265c4.511 0 8.059 1.056 10.647 3.167 2.622 2.076 3.933 5.031 3.933 8.867 0 2.498-.612 4.609-1.835 6.333-1.189 1.724-2.763 3.026-4.721 3.905l7.238 12.984c.105.21.157.404.157.58 0 .282-.122.546-.367.792a1.062 1.062 0 0 1-.786.317h-6.923c-.665 0-1.154-.159-1.469-.475-.315-.352-.542-.669-.682-.95l-5.979-11.611h-5.402V36.47c0 .387-.122.704-.367.95s-.559.37-.944.37h-6.765Zm8.076-20.477h6.084c1.644 0 2.867-.405 3.671-1.214.84-.81 1.259-1.918 1.259-3.325 0-1.372-.402-2.48-1.206-3.325-.769-.845-2.011-1.267-3.724-1.267h-6.084v9.13ZM199.692 38.318c-3.322 0-6.171-.545-8.549-1.636-2.342-1.09-4.178-2.691-5.507-4.803-1.293-2.11-2.01-4.732-2.15-7.863-.035-1.443-.052-2.991-.052-4.645 0-1.654.017-3.237.052-4.75.14-3.061.874-5.647 2.203-7.758 1.328-2.146 3.182-3.765 5.559-4.856C193.626.881 196.44.318 199.692.318c2.308 0 4.441.3 6.399.898 1.958.563 3.671 1.407 5.139 2.533 1.469 1.09 2.605 2.428 3.409 4.011.84 1.548 1.277 3.307 1.312 5.278a.865.865 0 0 1-.315.791c-.21.212-.472.317-.787.317h-7.08c-.455 0-.804-.088-1.049-.264-.245-.21-.455-.58-.629-1.108-.49-1.865-1.294-3.132-2.413-3.8-1.084-.704-2.43-1.056-4.038-1.056-1.923 0-3.444.546-4.563 1.636-1.119 1.056-1.731 2.833-1.836 5.331-.105 2.885-.105 5.84 0 8.867.105 2.498.717 4.292 1.836 5.383 1.119 1.056 2.64 1.583 4.563 1.583 1.608 0 2.972-.352 4.091-1.055 1.118-.704 1.905-1.97 2.36-3.8.139-.528.332-.88.577-1.056.279-.21.646-.316 1.101-.316h7.08c.315 0 .577.105.787.316.245.211.35.475.315.792-.035 1.97-.472 3.747-1.312 5.33-.804 1.549-1.94 2.886-3.409 4.012-1.468 1.09-3.181 1.935-5.139 2.533-1.958.563-4.091.844-6.399.844ZM222.777 37.79c-.385 0-.7-.123-.945-.369-.244-.246-.367-.563-.367-.95V2.166c0-.387.123-.704.367-.95.245-.247.56-.37.945-.37h24.492c.385 0 .7.123.944.37.245.246.367.563.367.95v4.96c0 .388-.122.704-.367.95-.244.247-.559.37-.944.37h-16.73v7.125h15.576c.385 0 .7.14.944.422.245.247.368.563.368.95v4.592c0 .352-.123.668-.368.95-.244.246-.559.37-.944.37h-15.576v7.336h17.15c.384 0 .699.123.944.369s.367.563.367.95v4.961c0 .387-.122.704-.367.95s-.56.37-.944.37h-24.912Z" fill="#022749"/></svg>