<svg width="239" height="54" fill="none" xmlns="http://www.w3.org/2000/svg"><g clip-path="url(#a)"><path fill-rule="evenodd" clip-rule="evenodd" d="M33.305 38.596c0 8.325-6.643 14.361-17.195 14.361A23.013 23.013 0 0 1 0 45.742l3.529-3.895c3.303 3.139 7.19 6.189 12.512 6.189 5.911 0 12.285-3.309 12.285-9.249 0-4.934-3.93-8.152-12.187-10.69-9.41-2.87-14.19-6.764-14.19-14.086C1.95 6.765 8.095.818 16.852.818c6.54 0 10.632 2.782 14.615 6.336l-3.47 3.844c-3.491-3.087-6.82-5.18-10.903-5.18-5.065 0-10.065 3.26-10.065 7.951 0 4.251 2.449 6.96 11.092 9.6 7.917 2.432 15.184 6.204 15.184 15.227ZM76.016 5.62a4.137 4.137 0 0 0 4.142 4.134 4.142 4.142 0 0 0 2.928-1.21A4.127 4.127 0 0 0 84.3 5.619a4.137 4.137 0 0 0-4.141-4.133 4.137 4.137 0 0 0-4.142 4.133Zm40.074-3.286h-4.991V52.14h4.991V2.333Zm11.65 48.15s3.073 2.49 13.31 2.49l-.006-.001c10.106 0 18.308-7.376 18.308-17.453 0-10.077-8.196-17.423-18.302-17.423a18.782 18.782 0 0 0-8.319 1.697V2.333h-4.991v48.15Zm37.44-14.92c-.001 10.081 8.189 18.254 18.292 18.256 10.104 0 18.295-8.173 18.296-18.255 0-10.08-8.19-18.253-18.294-18.254-10.102 0-18.293 8.172-18.294 18.253Zm66.855 16.593h6.516l-14.406-17.122 13.434-16.058h-6.478l-10.203 12.196-10.254-12.196h-6.516l13.53 16.08-14.304 17.1h6.476l11.074-13.237 11.131 13.237ZM183.503 22.24a13.32 13.32 0 0 0-12.308 8.205 13.271 13.271 0 0 0 2.887 14.487 13.341 13.341 0 0 0 14.518 2.882 13.292 13.292 0 0 0 8.222-12.283c-.001-7.34-5.963-13.29-13.319-13.291Zm-42.453.848c-2.981.042-5.88.98-8.32 2.69v20.558a16.852 16.852 0 0 0 8.32 1.66c7.349 0 13.31-5.124 13.31-12.453 0-7.33-5.967-12.457-13.316-12.457l.006.002ZM94.463 2.333h4.991v49.808h-4.991V2.333ZM63.678 52.145l-17.46-17.423 15.806-15.784h7.058L53.276 34.722l17.46 17.423h-7.058ZM41.21 2.333V52.14h4.992V2.333H41.21Zm36.627 49.812h4.992V18.938h-4.992v33.207Z" fill="#000"/></g><defs><clipPath id="a"><path fill="#fff" transform="translate(0 .818)" d="M0 0h239v53H0z"/></clipPath></defs></svg>