<svg width="243" height="84" fill="none" xmlns="http://www.w3.org/2000/svg"><g clip-path="url(#a)"><mask id="b" style="mask-type:luminance" maskUnits="userSpaceOnUse" x="0" y="0" width="243" height="84"><path d="M243 .818H0v83h243v-83Z" fill="#fff"/></mask><g mask="url(#b)"><path d="m64.784 48.558.68-1.544c.453-1.043 1.27-1.316 2.312-.545 1.997 1.453 5.262 2.544 9.617 2.544 3.72 0 5.308-.953 5.308-2.09 0-1.271-1.315-1.635-3.493-1.907l-4.945-.634c-5.942-.771-8.937-2.906-8.937-6.628 0-3.995 3.267-7.174 10.842-7.174 4.218 0 6.94.636 8.709 1.316 1.95.771 2.222 1.407 2.222 2.997v2.043c0 1.272-.453 1.726-1.724 1.726H83.97c-1.27 0-1.724-.454-1.724-1.726v-.682c-.816-.273-2.857-.68-5.26-.68-4.173 0-6.216.77-6.216 2.042 0 .953 1.224 1.498 3.447 1.817l4.853.636c5.943.77 9.073 2.543 9.073 6.81 0 4.358-4.128 7.129-11.476 7.129-5.398 0-9.752-1.726-11.477-3.314-.633-.592-.724-1.364-.405-2.136ZM118.319 53.643h-2.494c-1.225 0-1.634-.181-2.223-1.09l-4.717-6.947c-.679-.953-1.179-1.18-2.585-1.18h-4.717v7.492c0 1.271-.453 1.725-1.724 1.725h-1.814c-1.27 0-1.725-.454-1.725-1.725V29.353h-1.677c-1.27 0-1.725-.454-1.725-1.725V26.13c0-1.271.454-1.726 1.724-1.726h5.217c1.271 0 1.724.454 1.724 1.726v13.213h4.219c1.406 0 1.905-.227 2.585-1.181l3.947-6.084c.635-.953 1.042-1.134 2.268-1.134h2.495c1.361 0 1.633 1.09.861 2.224l-4.4 6.675c-.454.636-.998 1.316-1.543 1.861.545.454 1.315 1.225 1.634 1.68l5.533 8.081c.77 1.09.498 2.178-.863 2.178ZM126.907 57.821v-1.498c0-1.271.454-1.726 1.724-1.726h2.178c1.315 0 1.95-.272 2.45-1.316l.272-.59-10.387-19.659c-.635-1.18-.137-2.089 1.224-2.089h2.359c1.225 0 1.769.227 2.223 1.09l4.354 8.944c.998 2.043 2.131 4.404 3.038 6.447.908-1.998 1.951-4.267 2.949-6.265l4.444-9.126c.408-.862.998-1.09 2.223-1.09h2.359c1.361 0 1.859.909 1.224 2.09l-11.839 22.474c-1.361 2.588-2.948 4.041-6.487 4.041h-2.585c-1.269-.001-1.723-.455-1.723-1.727ZM178.531 42.203v.545c0 1.272-.454 1.726-1.724 1.726h-18.599c.635 2.406 3.039 4.721 8.165 4.721 4.581 0 6.668-1.498 7.621-2.18 1.042-.77 1.768-.5 2.312.545l.771 1.498c.408.771.182 1.362-.5 1.952-.998.862-4.4 2.997-10.206 2.997-7.802 0-13.245-4.586-13.245-11.76 0-7.038 5.217-11.668 12.701-11.668 7.487 0 12.704 4.586 12.704 11.624Zm-20.323-2.134h15.287c-.589-2.36-2.994-4.585-7.667-4.585-4.672 0-7.031 2.224-7.62 4.585ZM211.609 41.43v10.488c0 1.271-.454 1.726-1.725 1.726h-1.814c-1.271 0-1.724-.455-1.724-1.726V41.565c0-3.677-2.178-5.675-5.852-5.675-2.858 0-6.26 1.77-7.939 3.63v12.396c0 1.272-.454 1.726-1.725 1.726h-1.814c-1.271 0-1.724-.454-1.724-1.726V35.89h-1.678c-1.271 0-1.724-.454-1.724-1.726v-1.498c0-1.271.453-1.725 1.724-1.725h4.4c1.27 0 1.724.454 1.724 1.725v1.272c2.45-1.998 5.761-3.36 9.345-3.36 6.805 0 10.526 4.042 10.526 10.852ZM242.927 32.667v21.25c0 4.721-5.079 7.81-11.567 7.81-6.123 0-9.025-1.817-10.342-3.042-.634-.59-.726-1.363-.408-2.134l.678-1.544c.501-1.135 1.316-1.362 2.313-.545 1.589 1.271 3.131 2.315 7.711 2.361 4.083 0 6.351-1.497 6.351-3.314v-2.18c-1.634 1.044-3.63 1.726-6.487 1.726-7.349 0-12.43-4.313-12.43-11.214 0-6.901 5.079-11.26 12.43-11.26 3.174 0 5.262.907 6.67 1.997.362-.771 1.088-1.635 1.994-1.635h1.362c1.271-.002 1.725.453 1.725 1.724Zm-5.26 12.805v-7.264c-1.271-1.544-3.131-2.497-6.487-2.497-4.037 0-6.986 2.315-6.986 6.13 0 3.814 2.949 6.083 6.986 6.083 3.311-.002 5.171-.954 6.487-2.452Z" fill="#022749"/><path d="M6.562 58.894C2.743 61.087 0 59.259 0 56.008v-27.69c0-3.251 2.741-5.08 6.562-2.886L30.35 39.096c2.372 1.363 2.372 4.77 0 6.132 0 .002-17.84 10.25-23.788 13.666Z" fill="#00C1FF"/><path d="M26.2 58.894c-3.819 2.193-6.562.365-6.562-2.886v-27.69c0-3.251 2.742-5.08 6.562-2.886l23.266 13.365c2.605 1.496 2.605 5.236 0 6.732L26.2 58.894Z" fill="#6FE4FF"/><mask id="c" style="mask-type:alpha" maskUnits="userSpaceOnUse" x="19" y="24" width="33" height="36"><path d="M26.2 58.894c-3.819 2.193-6.562.365-6.562-2.886v-27.69c0-3.251 2.742-5.08 6.562-2.886l23.266 13.365c2.605 1.496 2.605 5.236 0 6.732L26.2 58.894Z" fill="#6FE4FF"/></mask><g mask="url(#c)"><path d="M6.562 58.894C2.743 61.087 0 59.259 0 56.008v-27.69c0-3.251 2.741-5.08 6.562-2.886L30.35 39.096c2.372 1.363 2.372 4.77 0 6.132L6.562 58.894Z" fill="#009EE4"/></g></g></g><defs><clipPath id="a"><path fill="#fff" transform="translate(0 .818)" d="M0 0h243v83H0z"/></clipPath></defs></svg>