<svg width="541" height="426" viewBox="0 0 541 426" fill="none" xmlns="http://www.w3.org/2000/svg">
<path d="M260.495 406.512C394.147 406.512 502.494 390.732 502.494 371.266C502.494 351.801 394.147 336.021 260.495 336.021C126.843 336.021 18.4961 351.801 18.4961 371.266C18.4961 390.732 126.843 406.512 260.495 406.512Z" fill="#0BCA7A"/>
<path opacity="0.7" d="M260.495 406.512C394.147 406.512 502.494 390.732 502.494 371.266C502.494 351.801 394.147 336.021 260.495 336.021C126.843 336.021 18.4961 351.801 18.4961 371.266C18.4961 390.732 126.843 406.512 260.495 406.512Z" fill="white"/>
<path d="M180.742 323.663C180.742 323.663 51.3905 334.773 53.2151 232.585C53.2151 232.585 46.0477 152.512 104.937 104.771C119.589 93.0065 136.829 84.8821 155.24 81.0657C169.962 77.9466 195.108 71.0846 221.022 57.1859C221.022 57.1859 333.007 -23.2868 453.435 50.8604C453.435 50.8604 543.987 109.599 517.723 208.138C517.723 208.138 500.939 312.472 340.006 306.863C340.006 306.876 234.957 320.75 180.742 323.663Z" fill="#0BCA7A"/>
<path opacity="0.7" d="M180.742 323.663C180.742 323.663 51.3905 334.773 53.2151 232.585C53.2151 232.585 46.0477 152.512 104.937 104.771C119.589 93.0065 136.829 84.8821 155.24 81.0657C169.962 77.9466 195.108 71.0846 221.022 57.1859C221.022 57.1859 333.007 -23.2868 453.435 50.8604C453.435 50.8604 543.987 109.599 517.723 208.138C517.723 208.138 500.939 312.472 340.006 306.863C340.006 306.876 234.957 320.75 180.742 323.663Z" fill="white"/>
<path d="M448.773 68.4268H247.716C236.6 68.4268 227.589 77.4228 227.589 88.52V211.213C227.589 222.31 236.6 231.306 247.716 231.306H448.773C459.889 231.306 468.901 222.31 468.901 211.213V88.52C468.901 77.4228 459.889 68.4268 448.773 68.4268Z" fill="#E6E6E6"/>
<path d="M444.662 73.9043H241.549C230.433 73.9043 221.422 82.9003 221.422 93.9975V208.481C221.422 219.578 230.433 228.574 241.549 228.574H444.662C455.778 228.574 464.789 219.578 464.789 208.481V93.9975C464.789 82.9003 455.778 73.9043 444.662 73.9043Z" fill="white"/>
<path opacity="0.37" d="M420.915 186.142H338.649V191.619H420.915V186.142Z" fill="#0BCA7A"/>
<path opacity="0.37" d="M392.121 195.724H338.649V201.201H392.121V195.724Z" fill="#0BCA7A"/>
<path opacity="0.37" d="M410.63 205.299H338.649V210.776H410.63V205.299Z" fill="#0BCA7A"/>
<path opacity="0.37" d="M351.747 91.6953H245.336C243.106 91.6953 241.299 93.4995 241.299 95.7252V161.576C241.299 163.801 243.106 165.605 245.336 165.605H351.747C353.977 165.605 355.784 163.801 355.784 161.576V95.7252C355.784 93.4995 353.977 91.6953 351.747 91.6953Z" fill="#0BCA7A"/>
<path d="M348.929 147.97H259.727V97.834H260.414V147.284H348.929V147.97Z" fill="white"/>
<path d="M272.837 134.813H270.094V147.814H272.837V134.813Z" fill="white"/>
<path d="M281.066 132.755H278.323V147.814H281.066V132.755Z" fill="white"/>
<path d="M318.773 132.755H316.029V147.814H318.773V132.755Z" fill="white"/>
<path d="M326.996 119.068H324.253V147.814H326.996V119.068Z" fill="white"/>
<path d="M285.179 152.605H259.077C258.986 152.605 258.899 152.569 258.834 152.505C258.77 152.44 258.733 152.353 258.733 152.262C258.733 152.171 258.77 152.084 258.834 152.019C258.899 151.955 258.986 151.919 259.077 151.919H285.179C285.27 151.919 285.357 151.955 285.422 152.019C285.486 152.084 285.522 152.171 285.522 152.262C285.522 152.353 285.486 152.44 285.422 152.505C285.357 152.569 285.27 152.605 285.179 152.605Z" fill="white"/>
<path d="M285.179 156.024H259.077C259.029 156.03 258.979 156.027 258.932 156.013C258.885 155.998 258.842 155.975 258.805 155.942C258.768 155.91 258.739 155.87 258.718 155.826C258.698 155.781 258.688 155.733 258.688 155.684C258.688 155.635 258.698 155.587 258.718 155.542C258.739 155.497 258.768 155.458 258.805 155.426C258.842 155.393 258.885 155.369 258.932 155.355C258.979 155.341 259.029 155.337 259.077 155.344H285.179C285.227 155.337 285.277 155.341 285.324 155.355C285.371 155.369 285.414 155.393 285.451 155.426C285.488 155.458 285.518 155.497 285.538 155.542C285.558 155.587 285.569 155.635 285.569 155.684C285.569 155.733 285.558 155.781 285.538 155.826C285.518 155.87 285.488 155.91 285.451 155.942C285.414 155.975 285.371 155.998 285.324 156.013C285.277 156.027 285.227 156.03 285.179 156.024Z" fill="white"/>
<path d="M285.179 159.448H259.077C258.986 159.448 258.899 159.412 258.834 159.347C258.77 159.283 258.733 159.196 258.733 159.105C258.733 159.014 258.77 158.927 258.834 158.862C258.899 158.798 258.986 158.762 259.077 158.762H285.179C285.27 158.762 285.357 158.798 285.422 158.862C285.486 158.927 285.522 159.014 285.522 159.105C285.522 159.196 285.486 159.283 285.422 159.347C285.357 159.412 285.27 159.448 285.179 159.448Z" fill="white"/>
<path d="M255.697 104.989H251.929V105.675H255.697V104.989Z" fill="white"/>
<path d="M255.697 111.152H251.929V111.839H255.697V111.152Z" fill="white"/>
<path d="M255.697 116.623H251.929V117.309H255.697V116.623Z" fill="white"/>
<path d="M255.697 122.101H251.929V122.787H255.697V122.101Z" fill="white"/>
<path d="M255.697 127.577H251.929V128.263H255.697V127.577Z" fill="white"/>
<path d="M255.697 132.368H251.929V133.054H255.697V132.368Z" fill="white"/>
<path d="M255.697 137.839H251.929V138.525H255.697V137.839Z" fill="white"/>
<path d="M255.697 144.002H251.929V144.688H255.697V144.002Z" fill="white"/>
<g opacity="0.37">
<path d="M266.344 125.5L265.932 124.958L279.635 114.577L293.37 119.718L309.142 110.479L317.36 113.891L335.719 101.677L336.1 102.244L317.435 114.665L309.199 111.24L293.433 120.472L279.748 115.351L266.344 125.5Z" fill="#0BCA7A"/>
</g>
<g opacity="0.37">
<path d="M336.25 105.725H335.563V102.057L330.564 102.693L330.477 102.013L336.25 101.277V105.725Z" fill="#0BCA7A"/>
</g>
<path d="M287.64 163.441L312.254 161.146L316.004 203.26C316.004 203.26 311.854 210.421 311.005 210.745C310.155 211.07 286.197 209.753 286.197 209.753L283.841 199.704L287.64 163.441Z" fill="#E6E6E6"/>
<path d="M321.853 352.632C321.853 352.632 322.134 367.492 329.214 370.923C329.966 371.284 330.808 371.417 331.635 371.306C332.462 371.196 333.239 370.845 333.869 370.299C336.412 368.091 339.774 362.52 334.538 349.713L321.853 352.632Z" fill="#0BCA7A"/>
<path d="M326.259 269.584L328.364 303.177C328.364 303.177 329.739 327.125 329.739 334.655C329.739 342.184 334.538 349.714 334.538 349.714C333.851 357.243 328.364 357.923 328.364 357.923C325.621 358.609 323.565 355.871 322.197 353.818C320.828 351.766 323.565 342.184 323.565 342.184C317.398 329.184 313.286 292.222 313.286 292.222C310.543 285.36 309.168 273.745 309.168 273.745L326.259 269.584Z" fill="#F9B499"/>
<path d="M287.771 148.937C287.771 148.937 285.084 155.93 282.729 158.712C286.144 157.326 289.736 156.421 293.402 156.023V152.168C293.402 152.168 290.658 151.918 287.771 148.937Z" fill="#333333"/>
<path d="M244.33 172.38L245.517 174.876C245.517 174.876 250.554 173.46 254.36 167.253L253.441 165.718C253.38 165.614 253.298 165.524 253.199 165.455C253.101 165.386 252.989 165.338 252.87 165.316C252.752 165.293 252.63 165.296 252.513 165.325C252.396 165.353 252.286 165.407 252.191 165.481L244.568 171.339C244.413 171.458 244.306 171.627 244.262 171.817C244.219 172.007 244.243 172.206 244.33 172.38Z" fill="#333333"/>
<path d="M293.615 361.815C293.596 362.036 293.495 362.243 293.331 362.393C293.167 362.543 292.953 362.627 292.73 362.627C292.508 362.627 292.294 362.543 292.13 362.393C291.966 362.243 291.865 362.036 291.846 361.815V354.953C290.557 357.138 288.816 359.024 286.741 360.486C284.707 361.954 282.258 362.74 279.748 362.732H268.038C265.295 362.046 276.262 353.836 276.262 353.836C276.262 353.836 280.38 357.941 287.235 350.412C287.235 350.412 289.978 346.307 293.402 345.627L293.615 361.815Z" fill="#0BCA7A"/>
<path d="M327.683 239.547V266.652C327.688 267.42 327.456 268.17 327.019 268.802C326.582 269.433 325.96 269.915 325.24 270.183C317.646 273.041 309.609 274.544 301.494 274.624C295.504 274.667 289.563 273.553 283.997 271.343C283.329 271.065 282.759 270.594 282.359 269.99C281.96 269.387 281.749 268.679 281.754 267.956V210.714C284.57 208.123 287.879 206.123 291.483 204.832C294.639 203.659 298 203.138 301.363 203.3C304.726 203.462 308.021 204.304 311.049 205.774L313.479 210.714L327.683 239.547Z" fill="#333333"/>
<path opacity="0.2" d="M313.473 210.714L308.824 213.97C308.466 219.676 308.587 225.402 309.186 231.088C305.087 234.294 292.04 237.469 292.04 237.469L291.702 239.372C301.65 239.902 309.561 233.702 309.561 233.702V233.658C311.042 242.504 314.742 249.734 323.578 243.639C323.578 243.639 325.377 267.251 301.519 274.612C309.634 274.532 317.671 273.028 325.265 270.17C325.986 269.903 326.606 269.421 327.044 268.789C327.481 268.157 327.713 267.407 327.708 266.639V239.547L313.473 210.714Z" fill="black"/>
<path opacity="0.2" d="M311.042 205.774C305.374 208.986 298.201 205.299 298.201 205.299C294.776 203.933 291.439 206.89 291.439 206.89L291.477 204.832C294.632 203.659 297.993 203.138 301.356 203.3C304.719 203.462 308.014 204.304 311.042 205.774Z" fill="black"/>
<path d="M166.576 371.609C182.479 371.609 195.371 368.238 195.371 364.079C195.371 359.921 182.479 356.55 166.576 356.55C150.673 356.55 137.781 359.921 137.781 364.079C137.781 368.238 150.673 371.609 166.576 371.609Z" fill="#B3B3B3"/>
<path d="M156.434 303.37L162.364 359.944C162.417 360.395 162.633 360.811 162.971 361.116C163.309 361.42 163.746 361.591 164.201 361.597H168.5C168.998 361.597 169.474 361.4 169.826 361.049C170.178 360.698 170.375 360.222 170.375 359.725V301.305H158.271C158.011 301.308 157.754 301.366 157.518 301.475C157.281 301.583 157.07 301.739 156.897 301.933C156.724 302.127 156.594 302.355 156.514 302.603C156.434 302.85 156.407 303.111 156.434 303.37Z" fill="#A7A9AC"/>
<path d="M126.814 214.201C126.814 214.201 114.473 215.567 113.791 231.993C113.791 231.993 111.736 250.819 120.303 285.89C120.303 285.89 123.615 306.826 149.547 304.998L178.917 303.913L180.104 281.418L152.072 226.522L126.814 214.201Z" fill="#B3B3B3"/>
<path d="M150.697 214.925L171.031 213.172L174.293 238.936L175.486 247.457C175.486 247.457 168.975 254.943 168.294 255.267C167.613 255.592 159.721 247.457 159.721 247.457L150.697 214.925Z" fill="#F2F2F2"/>
<path d="M174.587 201.194C174.587 201.194 181.66 199.141 184.404 203.932L193.314 223.096V245.972L172.068 234.044L174.587 201.194Z" fill="#0BCA7A"/>
<path d="M169.294 182.947C169.294 182.947 170.006 186.821 175.486 190.932C175.486 190.932 172.018 192.386 169.294 191.313C169.308 191.79 169.443 192.257 169.687 192.668C169.93 193.079 170.275 193.422 170.687 193.664C168.514 194.562 166.154 194.913 163.813 194.688C163.813 194.688 169.275 192.074 169.294 182.947Z" fill="#333333"/>
<path d="M437.888 366.381L435.926 367.46C435.339 367.783 434.666 367.914 434.001 367.835C430.42 367.354 427.084 372.289 427.084 372.289C425.866 374.321 423.898 375.795 421.603 376.394C408.574 381.184 405.712 374.522 405.712 374.522C402.844 371.278 412.686 367.492 412.686 367.492C416.604 366.93 419.147 358.64 419.947 355.595C425.44 355.308 433.938 350.723 433.938 350.723C434.37 350.481 434.748 350.154 435.051 349.763L440.112 363.387C440.444 364.529 438.931 365.807 437.888 366.381Z" fill="#333333"/>
<path opacity="0.2" d="M437.888 366.381L435.926 367.46C435.339 367.783 434.666 367.914 434.001 367.835C430.42 367.354 427.084 372.289 427.084 372.289C425.866 374.321 423.898 375.795 421.603 376.394C408.574 381.184 405.712 374.522 405.712 374.522C402.844 371.278 412.686 367.492 412.686 367.492C416.604 366.93 419.147 358.64 419.947 355.595C425.44 355.308 433.938 350.723 433.938 350.723C434.37 350.481 434.748 350.154 435.051 349.763L440.112 363.387C440.444 364.529 438.931 365.807 437.888 366.381Z" fill="black"/>
<path d="M453.135 380.505C467.523 380.505 479.187 377.287 479.187 373.318C479.187 369.349 467.523 366.132 453.135 366.132C438.748 366.132 427.084 369.349 427.084 373.318C427.084 377.287 438.748 380.505 453.135 380.505Z" fill="#A7A9AC"/>
<path d="M435.05 349.769C434.748 350.161 434.37 350.488 433.938 350.73C433.938 350.73 425.44 355.315 419.922 355.577C419.039 355.657 418.148 355.549 417.31 355.259C416.877 355.081 416.51 354.773 416.261 354.377C416.013 353.981 415.894 353.517 415.923 353.051C415.948 352.3 416.253 351.585 416.779 351.048C416.779 351.048 418.147 349.682 416.779 346.257L410.08 331.691L394.177 301.118L405.15 286.77L397.82 273.963C397.82 273.963 411.873 267.824 421.872 269.085L427.133 310.038L433.607 340.605C433.813 341.54 434.14 342.444 434.582 343.294C435.394 344.885 436.531 347.829 435.05 349.769Z" fill="#0BCA7A"/>
<path opacity="0.2" d="M435.05 349.769C434.748 350.161 434.37 350.488 433.938 350.73C433.938 350.73 425.44 355.315 419.922 355.577C419.039 355.657 418.148 355.549 417.31 355.259C416.877 355.081 416.51 354.773 416.261 354.377C416.013 353.981 415.894 353.517 415.923 353.051C415.948 352.3 416.253 351.585 416.779 351.048C416.779 351.048 418.147 349.682 416.779 346.257L410.08 331.691L394.177 301.118L405.15 286.77L397.82 273.963C397.82 273.963 411.873 267.824 421.872 269.085L427.133 310.038L433.607 340.605C433.813 341.54 434.14 342.444 434.582 343.294C435.394 344.885 436.531 347.829 435.05 349.769Z" fill="black"/>
<path d="M294.602 152.262C300.565 152.262 305.4 145.673 305.4 137.546C305.4 129.419 300.565 122.83 294.602 122.83C288.638 122.83 283.804 129.419 283.804 137.546C283.804 145.673 288.638 152.262 294.602 152.262Z" fill="#F9B499"/>
<path d="M293.402 152.169V156.024C293.402 156.024 290.609 156.56 289.609 156.648L289.978 168.357C289.978 168.357 300.364 176.098 307.85 166.067C307.85 166.067 304.594 158.582 304.482 154.57L304.232 144.196C304.232 144.196 300.945 153.292 293.402 152.169Z" fill="#F9B499"/>
<path d="M293.402 152.168V155.001C293.402 155.001 303.4 155.624 304.232 144.184C304.232 144.184 300.945 153.104 293.402 152.168Z" fill="#F7A48B"/>
<path d="M254.878 166.504C254.166 167.62 250.648 172.742 245.592 174.869C245.483 174.914 245.384 174.981 245.301 175.066C245.219 175.151 245.155 175.251 245.113 175.362C245.07 175.472 245.051 175.59 245.056 175.708C245.062 175.826 245.091 175.942 245.142 176.048C247.017 179.909 255.022 195.636 261.052 199.129C261.563 199.42 262.126 199.607 262.71 199.677C263.294 199.748 263.886 199.702 264.451 199.541C269.945 197.983 274.652 194.421 277.636 189.56L279.005 240.888C279.005 240.888 280.38 240.888 283.123 242.94C283.123 242.94 290.659 248.417 292.034 237.469L291.346 193.665L289.978 168.344L289.609 156.635C289.609 156.635 280.386 157.976 274.812 164.208C274.418 164.665 274.059 165.151 273.737 165.661C271.925 168.437 265.389 178.219 261.864 179.978L255.122 166.522C255.111 166.501 255.094 166.482 255.074 166.469C255.053 166.455 255.03 166.447 255.005 166.445C254.981 166.443 254.956 166.448 254.934 166.458C254.912 166.468 254.893 166.484 254.878 166.504Z" fill="#0BCA7A"/>
<path opacity="0.2" d="M274.63 192.697C274.63 192.697 274.205 177.239 276.949 169.716C276.949 169.716 275.58 182.716 276.949 189.56C276.949 189.56 276.424 190.358 274.63 192.697Z" fill="white"/>
<path d="M283.854 158.45C283.854 158.45 283.311 194.769 291.44 199.71L289.609 156.666C287.638 157.075 285.711 157.673 283.854 158.45Z" fill="#0BCA7A"/>
<path opacity="0.2" d="M283.854 158.45C283.854 158.45 283.311 194.769 291.44 199.71L289.609 156.666C287.638 157.075 285.711 157.673 283.854 158.45Z" fill="white"/>
<path d="M311.911 236.783C311.911 236.783 308.593 222.91 307.85 195.967V166.055L314.23 155.007C314.23 155.007 322.884 155.344 332.483 164.239L342.25 171.195C342.25 171.195 346.761 174.052 349.561 171.195L355.81 165.581C358.531 169.38 362.361 172.249 366.776 173.796L353.747 188.144C353.747 188.144 351.01 192.249 342.781 188.824L327.683 183.403C327.683 183.403 324.253 189.56 324.253 192.985C324.253 192.985 322.884 215.567 331.127 226.515C331.127 226.515 337.294 233.377 327.702 239.522C327.683 239.547 313.286 251.842 311.911 236.783Z" fill="#0BCA7A"/>
<path opacity="0.2" d="M313.967 221.724C313.967 221.724 320.141 227.201 328.339 228.586C328.364 228.567 311.23 229.253 313.967 221.724Z" fill="white"/>
<path opacity="0.2" d="M343.868 171.962C343.868 171.962 343.449 179.298 348.936 182.03C348.936 182.03 346.074 176.472 347.161 172.411C347.161 172.411 344.974 172.848 343.868 171.962Z" fill="white"/>
<path d="M307.893 197.289C307.893 197.289 313.186 197.102 312.892 175.537L314.23 155.007L307.85 166.055L307.893 197.289Z" fill="#0BCA7A"/>
<path opacity="0.2" d="M307.893 197.289C307.893 197.289 313.186 197.102 312.892 175.537L314.23 155.007L307.85 166.055L307.893 197.289Z" fill="white"/>
<path opacity="0.2" d="M281.748 241.967V244.312C281.748 244.312 286.047 248.679 288.353 244.1C288.353 244.1 285.854 244.992 283.123 242.94L281.748 241.967Z" fill="black"/>
<path opacity="0.2" d="M281.061 237.469C281.061 237.469 288.603 234.73 289.29 229.939C289.322 229.939 293.402 236.097 281.061 237.469Z" fill="white"/>
<path opacity="0.2" d="M292.715 226.515C292.715 226.515 297.989 229.284 307.35 228.586C307.35 228.586 300.257 235.417 292.715 226.515Z" fill="black"/>
<path opacity="0.2" d="M292.715 197.751C292.715 197.751 305.056 205.96 306.431 198.431L292.715 197.751Z" fill="white"/>
<path opacity="0.2" d="M262.289 181.207C262.289 181.207 264.607 191.612 266.663 191.612C266.663 191.612 268.719 192.299 267.344 189.56L262.289 181.207Z" fill="white"/>
<path d="M356.49 166.56L358.527 164.919L367.432 171.082L365.639 173.384C365.639 173.384 359.933 170.926 356.49 166.56Z" fill="#333333"/>
<path d="M359.509 165.599C359.509 165.599 368.126 156.71 370.182 157.396C370.182 157.396 370.869 158.762 368.813 162.873C368.813 162.873 369.882 163.497 374.15 161.476C374.15 161.476 381.155 158.981 381.792 162.349C381.818 162.499 381.803 162.652 381.749 162.793C381.695 162.935 381.604 163.059 381.486 163.154L376.393 167.215C375.471 167.955 374.361 168.424 373.188 168.569L365.22 169.548L359.509 165.599Z" fill="#F9B499"/>
<path d="M299.945 274.599L298.889 296.314C298.889 318.21 293.402 340.549 293.402 340.549V345.596C289.978 346.276 287.235 350.381 287.235 350.381C280.361 357.91 276.262 353.805 276.262 353.805L285.504 341.161V286.021C285.513 284.969 285.382 283.92 285.116 282.902C283.81 278.174 283.992 271.312 283.992 271.312C290.347 274.368 299.945 274.599 299.945 274.599Z" fill="#F9B499"/>
<path d="M451.929 374.342C450.76 374.342 449.634 373.907 448.77 373.121C447.906 372.335 447.368 371.255 447.261 370.094L441.48 306.589H457.246L456.621 369.713C456.61 370.947 456.11 372.126 455.231 372.993C454.352 373.86 453.164 374.345 451.929 374.342Z" fill="#BCBEC0"/>
<path d="M414.742 351.073L415.942 355.864C416.075 356.388 416.096 356.934 416.004 357.467C415.754 358.863 415.132 360.167 414.205 361.241C409.405 366.911 397.333 367.105 397.333 367.105C393.833 367.336 395.208 361.378 395.914 358.939C396.122 358.232 396.106 357.479 395.87 356.781C393.458 349.401 389.109 339.856 387.747 336.918C387.556 336.474 387.311 336.054 387.016 335.671C385.466 333.762 385.866 331.092 386.272 329.607C386.375 329.233 386.388 328.841 386.313 328.461C386.237 328.081 386.073 327.723 385.835 327.417L385.01 326.313C384.772 325.993 384.47 325.725 384.123 325.527C382.154 324.417 382.154 321.99 382.329 320.605C382.426 319.89 382.313 319.162 382.004 318.509C374.987 303.7 374.987 286.744 374.987 286.744C372.25 272.397 419.797 272.347 419.797 272.347L406.893 309.09L406.575 310.013C406.618 311.379 409.955 330.543 409.955 330.543C410.63 336.7 414.742 351.073 414.742 351.073Z" fill="#0BCA7A"/>
<path opacity="0.3" d="M414.205 361.241C415.106 359.11 415.295 356.745 414.742 354.498C412.686 359.969 407.869 359.289 407.869 359.289C416.098 354.498 411.299 344.23 411.299 344.23L404.163 315.653C403.912 314.639 403.361 313.724 402.582 313.026L396.921 307.942C387.322 298.36 391.359 288.454 391.359 288.454L396.233 290.831L406.856 309.071L406.538 309.995C406.581 311.361 409.918 330.524 409.918 330.524C410.599 336.682 414.711 351.054 414.711 351.054L415.911 355.845C416.044 356.369 416.065 356.916 415.973 357.449C415.735 358.848 415.124 360.158 414.205 361.241Z" fill="black"/>
<path opacity="0.2" d="M398.289 336.02C395.975 334.974 393.747 333.745 391.628 332.346C389.535 330.924 387.366 329.458 385.829 327.418C389.747 330.624 394.215 333.032 398.289 336.02Z" fill="black"/>
<path d="M398.289 367.061C398.289 367.061 397.951 375.371 392.808 378.446C392.808 378.446 382.96 382.233 385.828 385.477C385.828 385.477 388.697 392.139 401.719 387.348C404.016 386.747 405.986 385.271 407.206 383.237C407.206 383.237 410.543 378.309 414.123 378.783C414.788 378.868 415.463 378.736 416.048 378.409L418.01 377.329C418.518 377.055 418.914 376.614 419.133 376.08C419.352 375.547 419.379 374.955 419.21 374.404L414.973 360.181C414.973 360.181 412.342 365.789 398.289 367.061Z" fill="#333333"/>
<path d="M162.689 195.208C168.756 192.78 171.072 184.333 167.862 176.342C164.652 168.35 157.132 163.841 151.065 166.27C144.998 168.698 142.682 177.145 145.892 185.136C149.102 193.128 156.622 197.637 162.689 195.208Z" fill="#F9B499"/>
<path d="M145.523 172.087C145.523 172.087 156.296 181.351 159.033 173.135C159.033 173.135 168.475 178.169 172.668 170.521C172.668 170.521 173.917 166.566 166.819 163.035C167.021 162.751 167.295 162.525 167.614 162.38C167.932 162.235 168.283 162.177 168.631 162.212C168.631 162.212 166.375 155.35 156.877 154.67C156.877 154.67 145.323 153.316 141.211 161.532C141.211 161.532 128.869 160.166 131.613 177.271C131.613 177.271 136.649 190.427 128.645 191.719C128.645 191.719 130.925 195.755 138.468 193.696C138.468 193.696 137.099 197.121 135.724 197.121C135.724 197.121 142.598 198.487 147.379 193.016C147.379 193.016 148.066 195.069 146.697 195.755C146.697 195.755 150.897 195.905 150.166 191.719C150.166 191.688 141.605 183.36 145.523 172.087Z" fill="#333333"/>
<path d="M150.166 191.688C150.166 191.688 152.178 199.173 147.379 201.195L153.553 216.933C153.553 216.933 165.207 218.306 169.319 215.567L167.263 201.881C166.062 201.171 165.06 200.17 164.351 198.97C163.642 197.77 163.249 196.411 163.207 195.019C163.207 195.019 157.321 198.113 150.166 191.688Z" fill="#F9B499"/>
<path d="M150.166 191.688C150.166 191.688 153.29 199.173 164.051 198.462C163.635 197.343 163.352 196.179 163.207 194.994C163.207 194.994 157.065 198.612 150.166 191.688Z" fill="#F7A48B"/>
<path d="M167.263 201.88C167.263 201.88 165.894 200.333 167.263 200.078C167.263 200.078 174.805 198.911 175.486 202.791C175.486 202.791 178.917 222.41 172.062 234.045L169.343 215.567L167.263 201.88Z" fill="#333333"/>
<path d="M159.033 287.425C153.852 296.739 143.967 293.538 139.455 291.417C137.894 290.683 136.455 289.715 135.187 288.548C133.759 287.342 132.693 285.766 132.106 283.994C131.923 283.527 131.772 283.047 131.656 282.559C131.193 280.737 131.182 278.829 131.625 277.001L135.724 260.058C130.244 258.692 129.557 250.476 129.557 250.476L128.851 234.394C128.779 231.957 128.091 229.577 126.851 227.476C123.377 221.799 124.77 214.201 124.77 214.201C127.513 201.194 139.393 201.194 139.393 201.194L146.697 211.475L159.72 242.273C159.72 242.273 161.495 255.261 162.301 265.884C162.363 266.695 162.413 267.494 162.463 268.28C162.874 274.844 161.697 281.41 159.033 287.425Z" fill="#0BCA7A"/>
<path d="M163.833 286.745C161.777 302.484 149.548 301.305 149.548 301.305C132.051 298.809 131.663 282.964 131.657 282.553C131.773 283.041 131.923 283.52 132.107 283.987C132.694 285.76 133.76 287.336 135.188 288.541C136.456 289.709 137.895 290.677 139.456 291.411C143.967 293.532 153.828 296.732 159.033 287.418C161.705 281.395 162.884 274.817 162.47 268.242C162.42 267.456 162.37 266.658 162.308 265.847C165.557 275.784 163.833 286.745 163.833 286.745Z" fill="#0BCA7A"/>
<path opacity="0.2" d="M163.833 286.745C161.777 302.484 149.548 301.305 149.548 301.305C132.051 298.809 131.663 282.964 131.657 282.553C131.773 283.041 131.923 283.52 132.107 283.987C132.694 285.76 133.76 287.336 135.188 288.541C136.456 289.709 137.895 290.677 139.456 291.411C143.967 293.532 153.828 296.732 159.033 287.418C161.705 281.395 162.884 274.817 162.47 268.242C162.42 267.456 162.37 266.658 162.308 265.847C165.557 275.784 163.833 286.745 163.833 286.745Z" fill="black"/>
<path d="M228.533 343.587C228.409 344.282 228.139 344.943 227.74 345.525C227.341 346.108 226.824 346.6 226.221 346.968C223.624 348.283 220.814 349.128 217.922 349.464C217.141 349.564 216.304 349.651 215.423 349.688C214.994 349.711 214.572 349.571 214.242 349.297C213.912 349.023 213.698 348.635 213.642 348.21C213.317 345.827 212.886 341.242 213.873 338.778C213.873 338.778 200.163 317.568 196.732 303.22L190.652 288.579C190.402 287.969 189.999 287.434 189.481 287.025C188.963 286.617 188.349 286.348 187.697 286.246C184.528 285.753 178.611 285.734 174.574 291.236C173.428 292.776 171.883 293.976 170.106 294.705C168.972 295.19 167.81 295.606 166.625 295.952C164.376 296.603 162.05 296.952 159.708 296.988C159.708 296.988 167.607 290.182 162.289 265.891L166.663 266.184L207.724 268.954L227.602 334.667C227.602 334.667 229.42 339.763 228.533 343.587Z" fill="#333333"/>
<path opacity="0.2" d="M166.651 295.921C164.401 296.572 162.075 296.92 159.733 296.957C159.733 296.957 167.632 290.151 162.314 265.859L166.688 266.153C166.688 266.153 169.469 289.359 166.651 295.921Z" fill="black"/>
<path opacity="0.2" d="M193.314 267.962C193.314 267.962 202.925 269.933 211.486 281.418L207.737 268.941L193.314 267.962Z" fill="black"/>
<path d="M168.631 359.944C168.631 359.944 176.173 364.055 182.347 361.996L195.588 300.381L190.652 288.579C190.652 288.579 190.096 284.574 182.103 286.339C179.056 286.916 176.361 288.672 174.605 291.224L173.449 292.534L168.631 359.944Z" fill="#333333"/>
<path opacity="0.2" d="M168.631 359.944C168.631 359.944 176.173 364.055 182.347 361.996L195.588 300.381L190.652 288.579C190.652 288.579 190.096 284.574 182.103 286.339C179.056 286.916 176.361 288.672 174.605 291.224L173.449 292.534L168.631 359.944Z" fill="black"/>
<path opacity="0.2" d="M186.009 344.972C186.009 344.972 181.266 361.372 171.868 361.359C171.868 361.359 178.229 363.406 182.347 362.033L186.009 344.972Z" fill="black"/>
<path d="M242.406 362.495H230.102C229.715 362.494 229.338 362.373 229.022 362.15C228.707 361.927 228.468 361.611 228.339 361.247C227.615 359.301 226.115 355.546 224.821 353.93C224.76 353.861 224.685 353.806 224.601 353.768C224.517 353.729 224.426 353.708 224.334 353.705H222.459C222.368 353.705 222.278 353.722 222.194 353.756C222.11 353.791 222.033 353.842 221.969 353.907C221.905 353.971 221.855 354.048 221.821 354.132C221.787 354.217 221.77 354.307 221.772 354.398L221.916 362.47H219.716L217.973 349.413C220.865 349.078 223.674 348.233 226.271 346.918C226.874 346.55 227.392 346.058 227.79 345.475C228.189 344.892 228.459 344.232 228.583 343.537C229.605 346.677 231.266 349.573 233.461 352.042C235.657 354.511 238.341 356.5 241.343 357.885C241.343 357.885 246.942 360.917 242.406 362.495Z" fill="#0BCA7A"/>
<path d="M169.763 360.518C169.763 360.518 163.151 372.994 163.151 377.08C163.151 377.08 163.151 386.662 167.263 385.296C167.263 385.296 176.861 382.557 178.23 375.028L180.873 362.364C180.873 362.364 176.38 363.113 169.763 360.518Z" fill="#0BCA7A"/>
<path d="M143.511 267.962L113.573 380.505H124.484L159.721 267.962H143.511Z" fill="#BCBEC0"/>
<path d="M393.721 267.962L423.659 380.505H412.749L377.512 267.962H393.721Z" fill="#BCBEC0"/>
<path d="M398.489 221.724H340.193L347.592 256.969L407.206 256.626L398.489 221.724Z" fill="#E6E6E6"/>
<path d="M340.193 221.725L339.337 218.992H397.332L398.489 221.725H340.193Z" fill="#0BCA7A"/>
<path d="M339.312 218.992L338.475 221.725L345.723 258.973L408.212 259.366L407.187 256.627L347.579 256.97C345.28 247.382 343.774 239.628 341.718 229.597C341.468 228.393 340.749 224.101 340.343 222.068C340.058 221.024 339.713 219.997 339.312 218.992Z" fill="#0BCA7A"/>
<path opacity="0.2" d="M351.822 221.724L344.33 241.967L346.673 252.572L359.658 221.724H351.822Z" fill="white"/>
<path opacity="0.2" d="M372.387 221.724L361.221 256.969L370.232 256.845L381.667 221.724H372.387Z" fill="white"/>
<path opacity="0.2" d="M391.046 221.724L381.667 256.776L392.121 256.969L400.545 229.939L398.489 221.724H391.046Z" fill="white"/>
<path d="M447.748 112.225C448.589 115.466 449.009 118.801 448.998 122.15C448.998 143.129 432.42 160.134 411.98 160.134C409.274 160.135 406.576 159.833 403.938 159.236L412.03 122.73L447.748 112.225Z" fill="#B3B3B3"/>
<path d="M434.126 91.7014C427.79 86.8181 420.01 84.1701 412.005 84.1719C395.896 84.1719 382.198 94.7269 377.105 109.455L412.055 122.736L434.126 91.7014Z" fill="#333333"/>
<path d="M404 159.242C387.403 155.499 374.98 140.309 374.98 122.15C374.977 117.83 375.693 113.54 377.099 109.455L412.055 122.73L404 159.242Z" fill="#0BCA7A"/>
<path d="M447.736 112.2C445.597 104.052 440.81 96.8419 434.126 91.7012L412.055 122.736L447.736 112.2Z" fill="#CCCCCC"/>
<path d="M458.621 200.508V204.999C458.621 204.999 465.495 200.508 470.275 201.194V194.101L463.401 192.984L458.621 200.508Z" fill="#F9B499"/>
<path d="M458.621 200.508V203.664C458.621 203.664 465.076 201.25 467.332 198.143V194.35L465.132 193.259L458.621 200.508Z" fill="#F7A48B"/>
<path d="M466.552 189.55C467.964 181.601 465.083 174.446 460.118 173.568C455.153 172.689 449.985 178.421 448.574 186.369C447.162 194.317 450.043 201.473 455.008 202.351C459.973 203.23 465.141 197.498 466.552 189.55Z" fill="#F9B499"/>
<path d="M449.686 182.293L448.867 184.938C448.867 184.938 451.123 185.88 451.823 183.097C451.823 183.097 453.554 187.059 457.559 186.123C457.414 185.883 457.338 185.608 457.338 185.327C457.338 185.047 457.414 184.772 457.559 184.532C457.559 184.532 461.859 190.034 467.632 187.957L462.965 179.623L457.559 176.622L451.354 178.887C450.998 179.332 450.688 179.813 450.429 180.321C450.106 180.947 449.856 181.609 449.686 182.293Z" fill="#F7A48B"/>
<path d="M451.791 181.35C452.274 182.192 452.974 182.889 453.818 183.37C454.661 183.85 455.619 184.096 456.59 184.083C456.59 184.083 456.234 181.918 457.44 181.974C457.44 181.974 460.989 188.836 467.357 188.213V198.194C467.357 198.194 475.78 200.558 481.267 187.557C481.267 187.557 488.809 173.871 476.468 168.394C476.468 168.394 462.758 163.603 455.903 169.08C455.903 169.08 442.874 175.237 444.936 180.028C446.998 184.819 448.335 183.403 451.791 181.35Z" fill="#333333"/>
<path d="M470.142 192.751C470.862 190.401 470.233 188.127 468.738 187.671C467.243 187.214 465.448 188.749 464.728 191.098C464.009 193.447 464.638 195.721 466.133 196.178C467.628 196.634 469.423 195.1 470.142 192.751Z" fill="#F9B499"/>
<path d="M453.822 208.038C453.822 208.038 464.102 199.828 472.331 201.176C472.331 201.176 478.774 200.34 477.612 204.519L453.822 208.038Z" fill="#0BCA7A"/>
<path d="M492.896 220.358L493.809 216.253C494.283 214.254 494.198 212.163 493.565 210.208C490.384 200.795 477.793 204.594 477.612 204.537C477.43 204.481 453.822 208.037 453.822 208.037C439.45 207.357 437.369 223.096 437.369 223.096C437.369 223.096 427.771 235.417 429.139 237.444C429.139 237.444 424.34 239.496 425.027 247.026L392.121 251.131V258.947H426.583L492.896 220.358Z" fill="#333333"/>
<path opacity="0.2" d="M429.139 237.47C424.628 240.065 425.565 245.991 427.227 250.077C427.783 251.562 428.477 252.978 429.139 254.444C428.69 253.783 428.277 253.103 427.846 252.429C426.589 250.352 425.725 248.062 425.296 245.673C424.672 242.554 425.921 238.611 429.139 237.482V237.47Z" fill="black"/>
<path d="M371.213 258.973H392.122V254.431L384.623 252.741C383.697 252.533 382.74 252.514 381.807 252.684C380.874 252.855 379.985 253.211 379.193 253.733L371.213 258.973Z" fill="#F9B499"/>
<path d="M502.307 248.186C501.832 258.554 499.808 278.716 491.528 294.268C491.528 294.268 481.93 310.013 468.901 310.013H408.231C406.249 309.922 404.301 309.472 402.482 308.684C398.913 307.208 395.975 304.531 394.177 301.117C394.177 301.117 384.579 286.058 398.976 281.267C398.976 281.267 401.345 279.851 407.25 279.396C409.73 279.224 412.142 278.505 414.311 277.29C416.48 276.076 418.351 274.396 419.791 272.372C419.941 272.16 420.085 271.935 420.229 271.71C420.407 271.492 420.571 271.263 420.722 271.024C421.51 269.814 423.334 266.695 426.652 259.39C428.383 255.591 430.514 250.657 433.114 244.287C433.114 244.287 444.093 204.363 477.749 212.023C477.749 212.023 503.082 218.567 502.445 241.38C502.445 241.355 502.507 243.957 502.307 248.186Z" fill="#B3B3B3"/>
<path d="M502.308 248.186C501.833 258.554 499.808 278.716 491.528 294.268C491.528 294.268 481.93 310.013 468.901 310.013H408.231C406.25 309.922 404.302 309.472 402.482 308.684C402.482 308.684 394.871 303.17 403.782 294.96C403.782 294.96 407.213 290.169 416.811 290.856C416.811 290.856 442.175 293.887 453.829 267.731C453.823 267.724 463.733 228.106 502.308 248.186Z" fill="#A7A9AC"/>
<path d="M144.642 187.507C146.913 187.507 148.754 185.67 148.754 183.403C148.754 181.136 146.913 179.298 144.642 179.298C142.371 179.298 140.53 181.136 140.53 183.403C140.53 185.67 142.371 187.507 144.642 187.507Z" fill="#F9B499"/>
<path d="M144.642 244.992C142.863 250.306 140.197 255.282 136.756 259.708H171.749L170.381 247.456L144.642 244.992Z" fill="#0BCA7A"/>
<path d="M140.524 216.203C140.524 216.203 144.542 230.626 142.874 242.26C142.08 242.299 141.318 242.583 140.692 243.072C140.067 243.561 139.608 244.232 139.381 244.992C140.053 244.566 140.807 244.284 141.595 244.167C142.383 244.05 143.187 244.1 143.955 244.312C143.955 244.312 138.468 247.051 137.787 250.47C137.787 250.47 141.899 245.679 144.661 244.992C144.661 244.992 159.033 248.317 168.313 248.367V246.901C168.313 246.901 152.003 246.365 144.217 242.26C144.198 242.26 145.323 223.683 140.524 216.203Z" fill="#0BCA7A"/>
<path opacity="0.2" d="M140.524 216.203C140.524 216.203 144.542 230.626 142.874 242.26C142.08 242.299 141.318 242.583 140.692 243.072C140.067 243.561 139.608 244.232 139.381 244.992C140.053 244.566 140.807 244.284 141.595 244.167C142.383 244.05 143.187 244.1 143.955 244.312C143.955 244.312 138.468 247.051 137.787 250.47C137.787 250.47 141.899 245.679 144.661 244.992C144.661 244.992 159.033 248.317 168.313 248.367V246.901C168.313 246.901 152.003 246.365 144.217 242.26C144.198 242.26 145.323 223.683 140.524 216.203Z" fill="black"/>
<path d="M147.379 201.194C144.792 200.278 141.968 200.278 139.381 201.194C139.76 203.202 140.208 205.282 140.724 207.432C141.43 210.358 142.412 213.995 143.649 217.613C144.255 219.347 145.096 220.99 146.148 222.497L159.752 242.285C159.752 242.285 157.696 224.487 153.584 216.958L147.379 201.194Z" fill="#333333"/>
<path d="M240.118 218.992L220.641 259.815H162.539L176.861 218.992H240.118Z" fill="#0BCA7A"/>
<path opacity="0.4" d="M240.118 218.992L220.641 259.815H162.539L176.861 218.992H240.118Z" fill="white"/>
<path opacity="0.4" d="M239.956 219.278L220.584 259.827H173.431C173.431 259.827 216.71 243.738 239.9 219.235C239.906 219.234 239.913 219.234 239.919 219.236C239.926 219.238 239.932 219.241 239.937 219.245C239.942 219.249 239.947 219.254 239.95 219.26C239.953 219.266 239.955 219.272 239.956 219.278Z" fill="white"/>
<path d="M207.711 228.568C208.847 228.568 209.767 227.649 209.767 226.515C209.767 225.382 208.847 224.463 207.711 224.463C206.576 224.463 205.655 225.382 205.655 226.515C205.655 227.649 206.576 228.568 207.711 228.568Z" fill="white"/>
<path d="M426.653 259.365C423.334 266.67 421.51 269.789 420.722 270.999H106.937C106.577 271 106.22 270.93 105.887 270.793C105.554 270.656 105.252 270.455 104.997 270.201C104.742 269.948 104.54 269.646 104.402 269.314C104.264 268.982 104.193 268.626 104.193 268.267V262.104C104.193 261.377 104.482 260.681 104.997 260.167C105.511 259.654 106.209 259.365 106.937 259.365H426.653Z" fill="#E6E6E6"/>
<path d="M281.136 135.369C281.136 135.369 281.604 140.291 284.16 142.318C284.176 142.331 284.194 142.338 284.214 142.34C284.233 142.342 284.253 142.338 284.271 142.329C284.288 142.319 284.302 142.305 284.311 142.288C284.321 142.27 284.325 142.251 284.323 142.231C284.098 141.501 283.642 139.355 284.01 134.702C284.01 134.67 283.46 134.471 281.136 135.369Z" fill="#333333"/>
<path opacity="0.2" d="M281.136 135.369C281.136 135.369 281.604 140.291 284.16 142.318C284.176 142.331 284.194 142.338 284.214 142.34C284.233 142.342 284.253 142.338 284.271 142.329C284.288 142.319 284.302 142.305 284.311 142.288C284.321 142.27 284.325 142.251 284.323 142.231C284.098 141.501 283.642 139.355 284.01 134.702C284.01 134.67 283.46 134.471 281.136 135.369Z" fill="black"/>
<path d="M284.766 131.482C284.129 133.44 283.804 135.487 283.804 137.546C284.329 136.394 285.15 135.402 286.185 134.67C286.185 134.67 287.64 141.151 300.119 131.482C300.119 131.482 301.051 137.252 305.45 138.082L307.112 126.598L298.888 125.231L284.766 131.482Z" fill="#F7A48B"/>
<path d="M304.162 144.389L304.375 150.552C303.687 160.814 311.248 172.448 311.248 172.448L316.048 181.35C320.159 192.298 314.329 198.455 314.329 198.455C320.159 200.508 322.903 193.664 322.903 193.664C323.584 196.403 321.528 198.455 321.528 198.455C322.971 198.258 324.357 197.76 325.596 196.995C326.47 196.434 327.217 195.697 327.79 194.831C328.364 193.965 328.751 192.99 328.926 191.968C329.666 188.144 329.371 184.193 328.07 180.521C326.769 176.85 324.511 173.591 321.528 171.082C317.416 168.343 317.416 162.873 317.416 162.873C318.103 153.971 316.729 138.918 316.729 138.918C314.673 117.016 305.418 119.218 305.418 119.218C289.996 104.995 276.28 131.388 276.28 131.388C274.911 135.493 279.023 134.127 279.023 134.127C281.079 137.545 287.253 132.755 287.253 132.755C287.253 132.755 287.94 140.284 300.963 127.284C300.963 127.284 301.65 135.007 305.418 135.25C305.4 135.25 306.006 138.918 304.162 144.389Z" fill="#333333"/>
<path d="M308.744 138.166C309.376 136.19 308.804 134.242 307.466 133.816C306.128 133.389 304.531 134.644 303.899 136.62C303.267 138.596 303.839 140.543 305.177 140.97C306.514 141.397 308.112 140.141 308.744 138.166Z" fill="#F9B499"/>
<path d="M245.667 170.521C244.604 169.06 243.243 167.84 241.674 166.94C240.286 166.145 238.739 165.663 237.144 165.531C235.877 165.439 234.632 165.155 233.451 164.688C233.004 164.51 232.624 164.197 232.363 163.793C232.103 163.389 231.975 162.914 231.997 162.434C232.019 161.954 232.19 161.493 232.486 161.114C232.782 160.736 233.19 160.459 233.651 160.322C235.526 159.698 239.019 159.473 245.055 161.688C245.055 161.688 246.099 161.731 244.043 159.897C244.043 159.897 241.543 157.602 242.512 155.606C242.525 155.574 242.547 155.546 242.574 155.524C242.602 155.503 242.634 155.489 242.668 155.483C242.702 155.478 242.738 155.481 242.77 155.492C242.803 155.504 242.832 155.524 242.855 155.549C243.874 156.783 245.154 157.774 246.605 158.45C247.514 158.798 248.326 159.359 248.973 160.085C250.379 161.833 251.179 163.989 251.254 166.229L245.667 170.521Z" fill="#F9B499"/>
<path d="M264.608 128.651C265.743 128.651 266.663 127.732 266.663 126.598C266.663 125.465 265.743 124.546 264.608 124.546C263.472 124.546 262.552 125.465 262.552 126.598C262.552 127.732 263.472 128.651 264.608 128.651Z" fill="#0BCA7A"/>
<path d="M279.692 117.016C280.827 117.016 281.747 116.097 281.747 114.963C281.747 113.83 280.827 112.911 279.692 112.911C278.556 112.911 277.636 113.83 277.636 114.963C277.636 116.097 278.556 117.016 279.692 117.016Z" fill="#0BCA7A"/>
<path d="M309.168 112.911C310.304 112.911 311.224 111.993 311.224 110.859C311.224 109.726 310.304 108.807 309.168 108.807C308.033 108.807 307.112 109.726 307.112 110.859C307.112 111.993 308.033 112.911 309.168 112.911Z" fill="#0BCA7A"/>
<path d="M317.398 116.329C318.533 116.329 319.454 115.41 319.454 114.277C319.454 113.143 318.533 112.225 317.398 112.225C316.262 112.225 315.342 113.143 315.342 114.277C315.342 115.41 316.262 116.329 317.398 116.329Z" fill="#0BCA7A"/>
</svg>
