<svg width="607" height="613" viewBox="0 0 607 613" fill="none" xmlns="http://www.w3.org/2000/svg">
<circle cx="522.888" cy="356.889" r="197" transform="rotate(111.705 522.888 356.889)" fill="url(#paint0_linear_79_3713)" fill-opacity="0.7"/>
<circle cx="364" cy="402" r="139.5" stroke="#2F2F2F"/>
<circle cx="133.5" cy="65.5" r="7.5" fill="#D9D9D9"/>
<ellipse cx="163" cy="65.5" rx="7" ry="7.5" fill="#D9D9D9"/>
<ellipse cx="192" cy="65.5" rx="7" ry="7.5" fill="#D9D9D9"/>
<circle cx="221.5" cy="65.5" r="7.5" fill="#D9D9D9"/>
<circle cx="251.5" cy="65.5" r="7.5" fill="#D9D9D9"/>
<ellipse cx="133.5" cy="95" rx="7.5" ry="7" fill="#D9D9D9"/>
<ellipse cx="133.5" cy="124" rx="7.5" ry="7" fill="#D9D9D9"/>
<circle cx="133.5" cy="153.5" r="7.5" fill="#D9D9D9"/>
<circle cx="133.5" cy="178.5" r="7.5" fill="#D9D9D9"/>
<circle cx="163" cy="124" r="7" fill="#D9D9D9"/>
<ellipse cx="163" cy="153.5" rx="7" ry="7.5" fill="#D9D9D9"/>
<ellipse cx="163" cy="178.5" rx="7" ry="7.5" fill="#D9D9D9"/>
<circle cx="192" cy="124" r="7" fill="#D9D9D9"/>
<ellipse cx="192" cy="153.5" rx="7" ry="7.5" fill="#D9D9D9"/>
<ellipse cx="192" cy="178.5" rx="7" ry="7.5" fill="#D9D9D9"/>
<ellipse cx="221.5" cy="124" rx="7.5" ry="7" fill="#D9D9D9"/>
<circle cx="221.5" cy="153.5" r="7.5" fill="#D9D9D9"/>
<circle cx="221.5" cy="178.5" r="7.5" fill="#D9D9D9"/>
<ellipse cx="251.5" cy="124" rx="7.5" ry="7" fill="#D9D9D9"/>
<circle cx="251.5" cy="153.5" r="7.5" fill="#D9D9D9"/>
<circle cx="251.5" cy="178.5" r="7.5" fill="#D9D9D9"/>
<circle cx="163" cy="95" r="7" fill="#D9D9D9"/>
<circle cx="192" cy="95" r="7" fill="#D9D9D9"/>
<ellipse cx="221.5" cy="95" rx="7.5" ry="7" fill="#D9D9D9"/>
<ellipse cx="251.5" cy="95" rx="7.5" ry="7" fill="#D9D9D9"/>
<circle cx="224" cy="197" r="196.5" stroke="#2F2F2F"/>
<circle cx="247" cy="305" r="199" fill="white"/>
<path d="M489.723 492.426H453.734V492.696H489.723V492.426Z" fill="#EBEBEB"/>
<path d="M360.758 495.385H351.312V495.655H360.758V495.385Z" fill="#EBEBEB"/>
<path d="M452.649 482.324H431.795V482.595H452.649V482.324Z" fill="#EBEBEB"/>
<path d="M121.333 484.153H114.453V484.423H121.333V484.153Z" fill="#EBEBEB"/>
<path d="M245.499 488.751H143.699V489.021H245.499V488.751Z" fill="#EBEBEB"/>
<path d="M259.893 426.37H50.0584C48.4133 426.37 46.8356 425.715 45.6723 424.55C44.509 423.385 43.8555 421.804 43.8555 420.157V124.727C43.8703 123.089 44.5302 121.522 45.6917 120.368C46.8532 119.214 48.4225 118.566 50.0584 118.564H259.893C260.708 118.564 261.515 118.724 262.268 119.036C263.022 119.347 263.706 119.805 264.283 120.382C264.86 120.959 265.317 121.644 265.629 122.398C265.941 123.153 266.102 123.961 266.102 124.777V420.157C266.102 420.973 265.941 421.782 265.629 422.536C265.317 423.29 264.86 423.975 264.283 424.552C263.706 425.129 263.022 425.587 262.268 425.899C261.515 426.21 260.708 426.371 259.893 426.37ZM50.0584 118.784C48.4858 118.788 46.9786 119.415 45.8666 120.529C44.7546 121.642 44.1285 123.152 44.1252 124.727V420.157C44.1285 421.732 44.7546 423.241 45.8666 424.355C46.9786 425.469 48.4858 426.096 50.0584 426.1H259.893C261.465 426.096 262.972 425.469 264.084 424.355C265.196 423.241 265.823 421.732 265.826 420.157V124.727C265.823 123.152 265.196 121.642 264.084 120.529C262.972 119.415 261.465 118.788 259.893 118.784H50.0584Z" fill="#EBEBEB"/>
<path d="M494.941 426.369H285.119C284.304 426.37 283.497 426.21 282.744 425.898C281.99 425.586 281.306 425.129 280.729 424.552C280.153 423.975 279.695 423.29 279.383 422.535C279.071 421.781 278.91 420.973 278.91 420.156V124.727C278.925 123.087 279.586 121.52 280.749 120.366C281.911 119.212 283.482 118.564 285.119 118.564H494.941C496.586 118.564 498.164 119.219 499.327 120.384C500.49 121.549 501.144 123.129 501.144 124.777V420.156C501.144 421.804 500.49 423.385 499.327 424.55C498.164 425.715 496.586 426.369 494.941 426.369ZM285.119 118.784C283.547 118.787 282.04 119.415 280.928 120.528C279.816 121.642 279.189 123.152 279.186 124.727V420.156C279.189 421.732 279.816 423.241 280.928 424.355C282.04 425.469 283.547 426.096 285.119 426.099H494.941C496.514 426.096 498.021 425.469 499.133 424.355C500.245 423.241 500.871 421.732 500.874 420.156V124.727C500.871 123.152 500.245 121.642 499.133 120.528C498.021 119.415 496.514 118.787 494.941 118.784H285.119Z" fill="#EBEBEB"/>
<path d="M544.17 474.918H0.837891V475.188H544.17V474.918Z" fill="#EBEBEB"/>
<path d="M178.251 256.35H58.8398V474.754H178.251V256.35Z" fill="#EBEBEB"/>
<path d="M160.747 229.651H76.3457V244.137H160.747V229.651Z" fill="#F0F0F0"/>
<path d="M172.112 261.652H64.9805V474.755H172.112V261.652Z" fill="#FAFAFA"/>
<path d="M172.112 358.039H64.9805V385.165H172.112V358.039Z" fill="#F0F0F0"/>
<path d="M172.112 447.93H64.9805V475.056H172.112V447.93Z" fill="#F0F0F0"/>
<path d="M164.923 381.747V360.388C164.925 359.846 164.712 359.324 164.331 358.938C163.951 358.552 163.433 358.333 162.891 358.328C162.346 358.328 161.822 358.545 161.437 358.931C161.051 359.318 160.834 359.842 160.834 360.388V381.747C160.836 382.294 161.053 382.818 161.438 383.205C161.823 383.592 162.346 383.811 162.891 383.814C163.432 383.804 163.948 383.582 164.328 383.196C164.708 382.81 164.922 382.29 164.923 381.747Z" fill="white"/>
<path d="M421.847 176.253C421.847 178.652 420.895 180.953 419.202 182.65C417.508 184.346 415.211 185.299 412.815 185.299H346.389C344.05 185.212 341.836 184.22 340.213 182.532C338.589 180.844 337.682 178.591 337.682 176.247C337.682 173.903 338.589 171.65 340.213 169.962C341.836 168.274 344.05 167.282 346.389 167.194H412.796C413.985 167.193 415.162 167.426 416.26 167.88C417.359 168.335 418.357 169.002 419.197 169.844C420.038 170.685 420.705 171.684 421.159 172.784C421.614 173.884 421.848 175.063 421.847 176.253Z" fill="#F5F5F5"/>
<path d="M395.022 168.501V184.087H346.979C344.953 184.029 343.03 183.183 341.618 181.728C340.206 180.273 339.416 178.323 339.416 176.294C339.416 174.265 340.206 172.315 341.618 170.86C343.03 169.405 344.953 168.559 346.979 168.501H395.022Z" fill="#E6E6E6"/>
<path d="M342.451 215.661C342.45 218.896 341.217 222.009 339.002 224.364C336.787 226.719 333.759 228.138 330.534 228.332H296.233C293.075 228.071 290.129 226.635 287.975 224.307C285.821 221.98 284.614 218.928 284.594 215.754C284.574 212.58 285.74 209.514 287.864 207.158C289.988 204.803 292.916 203.329 296.07 203.027C296.354 198.392 298.399 194.042 301.785 190.87C305.171 187.698 309.642 185.945 314.278 185.971C318.915 185.998 323.365 187.802 326.715 191.012C330.065 194.223 332.06 198.597 332.291 203.235C335.156 203.812 337.734 205.365 339.586 207.63C341.438 209.896 342.451 212.733 342.451 215.661Z" fill="#F5F5F5"/>
<path d="M325.222 247.241L313.901 258.593L302.555 247.241H307.02V228.482H321.421V247.241H325.222Z" fill="#E6E6E6"/>
<path d="M459.266 356.613C459.265 355.047 459.035 353.489 458.582 351.989L462.615 348.421L460.106 343.986L454.989 345.72C452.826 343.407 450.021 341.797 446.935 341.096L445.85 335.794H440.745L439.66 341.096C436.592 341.808 433.804 343.418 431.651 345.72L426.539 343.986L423.986 348.421L428.038 351.989C427.128 355.007 427.128 358.226 428.038 361.243L423.986 364.811L426.539 369.24L431.651 367.5C433.804 369.805 436.591 371.418 439.66 372.136L440.745 377.438H445.85L446.935 372.136C450.003 371.419 452.788 369.805 454.938 367.5L460.056 369.24L462.609 364.811L458.557 361.281C459.025 359.769 459.264 358.196 459.266 356.613ZM443.354 365.213C441.718 365.213 440.118 364.727 438.758 363.817C437.398 362.906 436.337 361.612 435.711 360.098C435.085 358.584 434.921 356.918 435.24 355.31C435.56 353.703 436.347 352.227 437.504 351.068C438.661 349.909 440.135 349.12 441.74 348.8C443.345 348.48 445.008 348.644 446.52 349.272C448.032 349.899 449.324 350.961 450.233 352.323C451.142 353.686 451.627 355.288 451.627 356.927C451.627 358.015 451.413 359.093 450.997 360.098C450.581 361.103 449.972 362.017 449.204 362.786C448.436 363.556 447.524 364.166 446.52 364.582C445.516 364.999 444.44 365.213 443.354 365.213Z" fill="#E0E0E0"/>
<path d="M481.827 370.905C481.394 369.844 480.811 368.852 480.096 367.959L481.877 364.428L478.923 362.122L475.925 364.692C473.843 363.713 471.517 363.378 469.245 363.731L467.069 360.47L463.613 361.859L464.334 365.747C462.449 367.07 460.996 368.921 460.157 371.068L456.225 371.288L455.691 374.988L459.411 376.301C459.615 378.596 460.487 380.78 461.919 382.583L460.138 386.114L463.067 388.419L466.071 385.85C468.154 386.825 470.478 387.162 472.751 386.817L474.927 390.084L478.39 388.702L477.668 384.807C479.554 383.483 481.005 381.63 481.839 379.48L485.778 379.254L486.311 375.566L482.592 374.247C482.499 373.102 482.241 371.976 481.827 370.905ZM473.372 381.082C472.262 381.53 471.044 381.639 469.872 381.394C468.7 381.149 467.627 380.562 466.789 379.706C465.95 378.85 465.384 377.765 465.161 376.587C464.939 375.409 465.07 374.191 465.538 373.088C466.007 371.984 466.791 371.045 467.793 370.388C468.794 369.731 469.968 369.386 471.164 369.398C472.361 369.409 473.528 369.775 474.517 370.45C475.506 371.126 476.273 372.08 476.721 373.192C477.32 374.679 477.304 376.344 476.677 377.821C476.05 379.297 474.864 380.463 473.378 381.063L473.372 381.082Z" fill="#EBEBEB"/>
<path d="M423.513 237.178L423.227 291.9L486.554 292.233L486.84 237.51L423.513 237.178Z" fill="#E0E0E0"/>
<path d="M423.573 226.943L423.52 237.183L486.847 237.515L486.9 227.275L423.573 226.943Z" fill="#E6E6E6"/>
<path d="M421.371 290.362L484.711 290.701L486.844 237.51L423.51 237.183L421.371 290.362Z" fill="#F5F5F5"/>
<path d="M437.598 250.319L468.945 250.483L469.327 241.122L437.968 240.959L437.598 250.319Z" fill="#EBEBEB"/>
<path d="M473.742 262.607L482.115 262.651L482.454 254.258L474.075 254.214L473.742 262.607Z" fill="#E0E0E0"/>
<path d="M461.863 262.544L470.23 262.582L470.569 254.202L462.202 254.151L461.863 262.544Z" fill="#E0E0E0"/>
<path d="M473.285 273.915L481.664 273.959L481.997 265.566L473.618 265.522L473.285 273.915Z" fill="#E0E0E0"/>
<path d="M472.84 285.223L481.207 285.267L481.539 276.886L473.172 276.842L472.84 285.223Z" fill="#EBEBEB"/>
<path d="M461.404 273.852L469.784 273.896L470.122 265.516L461.743 265.472L461.404 273.852Z" fill="#E0E0E0"/>
<path d="M449.525 273.783L457.905 273.827L458.243 265.447L449.864 265.403L449.525 273.783Z" fill="#E0E0E0"/>
<path d="M437.652 273.733L446.025 273.777L446.352 265.384L437.985 265.34L437.652 273.733Z" fill="#E0E0E0"/>
<path d="M425.773 273.663L434.14 273.707L434.479 265.327L426.112 265.271L425.773 273.663Z" fill="#E0E0E0"/>
<path d="M460.947 285.16L469.327 285.204L469.665 276.823L461.286 276.779L460.947 285.16Z" fill="#EBEBEB"/>
<path d="M449.074 285.103L457.447 285.147L457.786 276.754L449.407 276.71L449.074 285.103Z" fill="#EBEBEB"/>
<path d="M437.195 285.04L445.575 285.084L445.907 276.691L437.534 276.647L437.195 285.04Z" fill="#E0E0E0"/>
<path d="M449.984 262.475L458.351 262.519L458.69 254.139L450.323 254.095L449.984 262.475Z" fill="#EBEBEB"/>
<path d="M438.104 262.412L446.47 262.462L446.809 254.076L438.442 254.032L438.104 262.412Z" fill="#EBEBEB"/>
<path d="M426.219 262.356L434.598 262.4L434.937 254.007L426.557 253.963L426.219 262.356Z" fill="#EBEBEB"/>
<path d="M425.316 284.972L433.696 285.016L434.022 276.635L425.655 276.591L425.316 284.972Z" fill="#E0E0E0"/>
<path d="M455.089 224.317C454.365 224.315 453.656 224.528 453.052 224.929C452.448 225.33 451.976 225.902 451.697 226.572C451.418 227.242 451.343 227.98 451.482 228.692C451.622 229.404 451.969 230.059 452.48 230.574C452.991 231.088 453.643 231.439 454.354 231.583C455.064 231.726 455.801 231.655 456.471 231.379C457.141 231.102 457.715 230.633 458.118 230.03C458.522 229.428 458.738 228.718 458.74 227.992C458.743 227.51 458.651 227.033 458.469 226.587C458.287 226.14 458.018 225.735 457.679 225.393C457.34 225.051 456.936 224.78 456.492 224.596C456.047 224.411 455.571 224.317 455.089 224.317ZM455.089 230.757C454.538 230.759 453.999 230.598 453.54 230.293C453.08 229.988 452.721 229.554 452.508 229.045C452.295 228.536 452.238 227.975 452.344 227.433C452.449 226.891 452.713 226.393 453.101 226.002C453.489 225.61 453.985 225.343 454.525 225.233C455.065 225.124 455.626 225.178 456.135 225.387C456.645 225.597 457.081 225.954 457.388 226.412C457.696 226.87 457.86 227.409 457.862 227.961C457.863 228.327 457.793 228.69 457.654 229.028C457.516 229.367 457.312 229.675 457.054 229.935C456.797 230.194 456.491 230.401 456.154 230.542C455.816 230.683 455.455 230.756 455.089 230.757Z" fill="#E6E6E6"/>
<path d="M189.189 476.809C188.314 476.819 187.439 476.76 186.574 476.633C149.782 474.264 151.451 404.489 151.513 401.524L153.966 401.605C153.966 402.303 152.285 472.047 186.787 474.189H186.956C187.477 474.283 199.92 476.532 207.459 462.693L207.691 462.266C213.882 451.46 218.052 425.144 220.448 404.954C224.211 373.179 225.29 324.172 225.353 323.682C226.752 308.561 234.065 301.519 248.377 301.424L261.247 301.519V303.975L248.384 303.881C235.269 303.962 229.11 309.924 227.786 323.82C227.786 324.222 226.701 373.355 222.876 405.249C219.338 434.951 214.942 454.557 209.799 463.497L209.598 463.861C203.407 475.295 193.843 476.809 189.189 476.809Z" fill="#00AAFF"/>
<path d="M160.978 419.082C161.03 419.857 160.775 420.622 160.268 421.21C159.76 421.798 159.042 422.162 158.269 422.223H148.027C147.278 422.225 146.557 421.94 146.01 421.428C145.464 420.915 145.133 420.214 145.085 419.465L143.762 400.55H159.68L160.978 419.082Z" fill="#00AAFF"/>
<path d="M81.3503 140.319H88.9895C87.3073 140.294 85.6366 140.6 84.0729 141.222C82.5091 141.843 81.083 142.767 79.876 143.941C78.6691 145.115 77.705 146.516 77.0389 148.063C76.3728 149.61 76.0177 151.274 75.994 152.959C75.9824 153.414 75.9992 153.869 76.0442 154.322L92.2572 386.679C92.5792 390.44 94.2864 393.946 97.0466 396.516C99.8068 399.085 103.423 400.534 107.191 400.581H99.5452C95.7718 400.529 92.1532 399.071 89.3947 396.491C86.6363 393.912 84.9356 390.396 84.6242 386.629L68.3987 154.322C68.0902 150.934 69.1378 147.561 71.3113 144.946C73.4848 142.33 76.6062 140.687 79.9892 140.376C80.4415 140.332 80.8959 140.313 81.3503 140.319Z" fill="#407BFF"/>
<path d="M81.3491 140.319H88.9884C87.3062 140.294 85.6355 140.6 84.0717 141.222C82.508 141.843 81.0819 142.767 79.8749 143.941C78.668 145.115 77.7039 146.516 77.0378 148.063C76.3717 149.61 76.0166 151.274 75.9929 152.959C75.9813 153.414 75.9981 153.869 76.0431 154.322L92.2561 386.679C92.5781 390.44 94.2853 393.946 97.0455 396.516C99.8057 399.085 103.422 400.534 107.19 400.581H99.5441C91.8546 400.581 84.1088 394.331 83.5694 386.629L67.3188 154.322C66.7794 146.57 73.6597 140.319 81.3491 140.319Z" fill="#00AAFF"/>
<path d="M101.795 400.581H195.372C198.77 400.63 202.047 399.325 204.484 396.954C206.922 394.582 208.318 391.338 208.368 387.935C208.373 387.499 208.356 387.063 208.318 386.629L192.105 154.322C191.795 150.556 190.096 147.04 187.338 144.46C184.581 141.881 180.963 140.422 177.19 140.369H83.644C81.9607 140.341 80.2884 140.645 78.7225 141.265C77.1567 141.884 75.7281 142.807 74.5183 143.979C73.3085 145.152 72.3413 146.552 71.6719 148.099C71.0026 149.646 70.6441 151.311 70.6172 152.997C70.6172 153.436 70.6172 153.882 70.6611 154.322L86.9242 386.679C87.2451 390.429 88.9434 393.926 91.6904 396.495C94.4375 399.063 98.0379 400.519 101.795 400.581Z" fill="#01AE51"/>
<g opacity="0.6">
<path d="M176.947 144.805C179.568 144.846 182.081 145.862 183.996 147.656C185.911 149.45 187.092 151.893 187.308 154.511L203.533 386.861C203.739 389.095 203.051 391.32 201.619 393.046C200.188 394.772 198.131 395.857 195.9 396.065C195.588 396.096 195.274 396.108 194.96 396.102H101.395C98.7707 396.061 96.2556 395.045 94.3383 393.25C92.421 391.455 91.2386 389.01 91.021 386.39L74.8143 154.052C74.7079 152.947 74.8201 151.832 75.1444 150.771C75.4687 149.709 75.9987 148.723 76.7042 147.867C77.4096 147.011 78.2767 146.302 79.2557 145.782C80.2347 145.262 81.3064 144.941 82.4096 144.836C82.7354 144.814 83.0623 144.814 83.3881 144.836L176.947 144.805Z" fill="white"/>
</g>
<path d="M196.886 333.752H90.5455L79.9961 182.761H186.349L196.886 333.752Z" fill="#01AE51"/>
<g opacity="0.8">
<path d="M196.886 333.752H90.5455L79.9961 182.761H186.349L196.886 333.752Z" fill="white"/>
</g>
<path d="M111.505 311.922C111.467 311.533 111.583 311.145 111.828 310.841C112.074 310.538 112.429 310.344 112.816 310.301C112.902 310.295 112.988 310.295 113.073 310.301C113.307 310.299 113.539 310.344 113.755 310.435C113.971 310.526 114.166 310.66 114.328 310.829L113.97 311.187C113.861 311.068 113.728 310.975 113.58 310.912C113.432 310.849 113.272 310.819 113.111 310.822C112.852 310.805 112.596 310.891 112.4 311.062C112.204 311.232 112.083 311.474 112.064 311.733C112.057 311.796 112.057 311.859 112.064 311.922C112.08 312.227 112.214 312.513 112.438 312.721C112.661 312.928 112.957 313.041 113.262 313.034C113.417 313.04 113.573 313.008 113.714 312.943C113.856 312.877 113.98 312.779 114.077 312.657L114.478 313.021C114.328 313.195 114.141 313.332 113.93 313.422C113.719 313.513 113.491 313.554 113.262 313.542C112.817 313.55 112.387 313.386 112.06 313.084C111.733 312.782 111.534 312.366 111.505 311.922Z" fill="#00AAFF"/>
<path d="M117.657 310.351L117.871 313.492H117.294L117.193 312.135H115.588L115.682 313.492H115.098L114.879 310.351H115.468L115.556 311.645H117.187L117.087 310.351H117.657Z" fill="#00AAFF"/>
<path d="M121.064 312.99V313.48H118.705L118.492 310.339H120.794V310.829H119.088V311.645H120.606V312.123H119.088L119.144 313.002L121.064 312.99Z" fill="#00AAFF"/>
<path d="M121.421 311.922C121.384 311.531 121.503 311.141 121.752 310.837C122.001 310.533 122.36 310.341 122.75 310.301C122.83 310.295 122.909 310.295 122.989 310.301C123.223 310.297 123.455 310.342 123.671 310.433C123.887 310.524 124.082 310.658 124.243 310.829L123.892 311.187C123.781 311.069 123.646 310.976 123.497 310.913C123.348 310.85 123.188 310.819 123.026 310.823C122.898 310.812 122.768 310.827 122.646 310.867C122.523 310.907 122.409 310.971 122.312 311.055C122.214 311.139 122.133 311.242 122.075 311.357C122.017 311.473 121.982 311.598 121.973 311.727C121.963 311.792 121.963 311.857 121.973 311.922C121.99 312.227 122.126 312.514 122.35 312.721C122.575 312.929 122.871 313.041 123.177 313.034C123.331 313.037 123.483 313.005 123.622 312.94C123.762 312.874 123.884 312.777 123.98 312.657L124.381 313.021C124.234 313.196 124.049 313.334 123.84 313.424C123.631 313.515 123.404 313.555 123.177 313.543C122.733 313.547 122.304 313.382 121.978 313.081C121.652 312.78 121.453 312.365 121.421 311.922Z" fill="#00AAFF"/>
<path d="M125.988 312.179L125.524 312.694L125.586 313.505H124.997L124.777 310.364H125.361L125.474 311.972L126.91 310.364H127.568L126.352 311.733L127.869 313.486H127.186L125.988 312.179Z" fill="#00AAFF"/>
<path d="M128.045 310.351H128.634L128.848 313.492H128.271L128.045 310.351Z" fill="#00AAFF"/>
<path d="M132.271 310.351L132.49 313.492H132.007L130.126 311.356L130.282 313.492H129.749L129.523 310.351H130.006L131.888 312.481L131.744 310.351H132.271Z" fill="#00AAFF"/>
<path d="M135.375 311.891H135.921L136.009 313.147C135.666 313.417 135.24 313.559 134.804 313.549C134.352 313.565 133.912 313.405 133.575 313.103C133.239 312.801 133.032 312.38 132.998 311.928C132.963 311.533 133.086 311.141 133.34 310.837C133.594 310.533 133.959 310.343 134.353 310.307C134.43 310.301 134.508 310.301 134.585 310.307C134.826 310.298 135.066 310.339 135.29 310.429C135.514 310.519 135.716 310.655 135.883 310.829L135.538 311.181C135.422 311.066 135.284 310.975 135.132 310.915C134.98 310.854 134.817 310.825 134.654 310.829C134.526 310.816 134.396 310.828 134.273 310.865C134.15 310.903 134.035 310.964 133.935 311.046C133.836 311.127 133.753 311.228 133.692 311.342C133.632 311.455 133.594 311.58 133.581 311.708C133.572 311.781 133.572 311.855 133.581 311.928C133.602 312.235 133.74 312.522 133.967 312.729C134.194 312.936 134.491 313.047 134.798 313.04C135.017 313.039 135.232 312.985 135.425 312.883L135.375 311.891Z" fill="#00AAFF"/>
<path d="M138.436 310.841L138.505 311.821H140.023V312.324H138.58V313.505H138.003L137.777 310.364H140.073V310.854L138.436 310.841Z" fill="#00AAFF"/>
<path d="M140.544 311.922C140.507 311.531 140.626 311.141 140.875 310.837C141.124 310.533 141.483 310.341 141.873 310.301C141.957 310.295 142.041 310.295 142.124 310.301C142.575 310.287 143.014 310.448 143.349 310.749C143.684 311.051 143.891 311.471 143.924 311.922C143.943 312.116 143.924 312.312 143.867 312.498C143.811 312.684 143.718 312.858 143.595 313.008C143.471 313.159 143.319 313.284 143.148 313.375C142.976 313.467 142.788 313.524 142.595 313.543H142.35C141.898 313.559 141.458 313.399 141.121 313.097C140.784 312.794 140.577 312.373 140.544 311.922ZM143.341 311.922C143.323 311.62 143.189 311.336 142.967 311.131C142.744 310.926 142.451 310.815 142.149 310.823C142.021 310.822 141.893 310.846 141.774 310.895C141.655 310.943 141.547 311.015 141.456 311.105C141.364 311.196 141.291 311.303 141.241 311.422C141.192 311.54 141.165 311.668 141.165 311.796C141.161 311.838 141.161 311.88 141.165 311.922C141.179 312.224 141.31 312.509 141.53 312.716C141.75 312.924 142.042 313.037 142.344 313.034C142.483 313.032 142.621 313.001 142.747 312.943C142.874 312.885 142.987 312.8 143.079 312.695C143.172 312.591 143.241 312.468 143.283 312.334C143.324 312.201 143.338 312.061 143.322 311.922H143.341Z" fill="#00AAFF"/>
<path d="M146.704 313.505L146.001 312.581H145.167L145.236 313.505H144.628L144.408 310.364H145.663C146.497 310.364 147.036 310.785 147.086 311.482C147.102 311.687 147.054 311.893 146.947 312.068C146.84 312.244 146.68 312.382 146.49 312.462L147.281 313.505H146.704ZM145.725 310.841H145.048L145.136 312.098H145.813C146.321 312.098 146.578 311.865 146.547 311.469C146.516 311.074 146.233 310.841 145.725 310.841Z" fill="#00AAFF"/>
<path d="M149.017 312.129L148.904 310.351H149.481L149.607 312.11C149.589 312.231 149.599 312.353 149.636 312.469C149.672 312.585 149.735 312.692 149.818 312.78C149.901 312.869 150.003 312.938 150.116 312.982C150.229 313.026 150.351 313.043 150.472 313.034C150.98 313.034 151.244 312.757 151.2 312.11L151.081 310.351H151.651L151.777 312.129C151.814 312.309 151.808 312.495 151.76 312.672C151.713 312.849 151.625 313.013 151.503 313.15C151.381 313.287 151.229 313.394 151.059 313.462C150.889 313.53 150.705 313.558 150.522 313.542C150.161 313.569 149.803 313.452 149.526 313.217C149.25 312.982 149.076 312.648 149.042 312.286C149.029 312.234 149.021 312.182 149.017 312.129Z" fill="#00AAFF"/>
<path d="M155.201 311.469C155.245 312.167 154.768 312.587 153.946 312.587H153.238L153.3 313.505H152.717L152.504 310.364H153.79C154.611 310.351 155.151 310.772 155.201 311.469ZM154.611 311.469C154.611 311.073 154.298 310.841 153.783 310.841H153.112L153.2 312.097H153.877C154.385 312.097 154.661 311.865 154.611 311.469Z" fill="#00AAFF"/>
<path d="M155.697 310.351H157.071C157.292 310.332 157.514 310.356 157.726 310.423C157.937 310.489 158.134 310.597 158.303 310.74C158.473 310.883 158.613 311.059 158.714 311.256C158.816 311.454 158.878 311.669 158.896 311.891V311.922C158.938 312.298 158.83 312.676 158.595 312.973C158.36 313.27 158.017 313.461 157.642 313.505C157.529 313.518 157.415 313.518 157.303 313.505H155.917L155.697 310.351ZM157.228 313.002C157.356 313.016 157.485 313.005 157.609 312.968C157.733 312.932 157.848 312.872 157.948 312.79C158.048 312.709 158.132 312.609 158.193 312.496C158.255 312.382 158.293 312.258 158.306 312.129C158.319 312.061 158.319 311.99 158.306 311.922C158.3 311.772 158.264 311.625 158.2 311.49C158.137 311.354 158.047 311.233 157.936 311.132C157.825 311.032 157.696 310.954 157.555 310.904C157.414 310.854 157.264 310.833 157.115 310.841H156.318L156.475 313.002H157.228Z" fill="#00AAFF"/>
<path d="M161.561 312.764H159.993L159.73 313.505H159.172L160.37 310.364H160.934L162.571 313.505H161.944L161.561 312.764ZM161.336 312.311L160.652 310.929L160.15 312.311H161.336Z" fill="#00AAFF"/>
<path d="M163.243 310.841H162.189V310.351H164.861V310.841H163.814L163.996 313.505H163.444L163.243 310.841Z" fill="#00AAFF"/>
<path d="M167.833 312.99V313.48H165.45L165.236 310.339H167.532V310.829H165.826L165.882 311.646H167.394V312.123H165.87L165.933 313.002L167.833 312.99Z" fill="#00AAFF"/>
<path d="M168.215 313.172L168.385 312.719C168.697 312.935 169.066 313.053 169.445 313.059C169.934 313.059 170.128 312.883 170.11 312.65C170.11 311.972 168.228 312.412 168.146 311.243C168.146 310.734 168.479 310.263 169.344 310.263C169.721 310.255 170.093 310.353 170.417 310.546L170.26 310.998C169.991 310.843 169.687 310.759 169.376 310.753C168.893 310.753 168.705 310.942 168.749 311.174C168.749 311.852 170.63 311.413 170.705 312.569C170.705 313.071 170.354 313.505 169.501 313.505C169.048 313.532 168.598 313.416 168.215 313.172Z" fill="#00AAFF"/>
<path d="M174.105 318.298H111.116C109.345 318.269 107.648 317.581 106.356 316.367C105.065 315.154 104.27 313.502 104.129 311.733C104.059 310.938 104.146 310.136 104.386 309.374C104.626 308.612 105.013 307.905 105.525 307.293C106.038 306.681 106.666 306.176 107.373 305.807C108.081 305.439 108.854 305.213 109.648 305.143C109.857 305.131 110.066 305.131 110.275 305.143H173.252C175.02 305.17 176.715 305.854 178.007 307.063C179.3 308.271 180.097 309.918 180.245 311.683C180.312 312.533 180.202 313.387 179.924 314.192C179.645 314.998 179.204 315.737 178.627 316.363C178.049 316.983 177.348 317.475 176.569 317.808C175.791 318.141 174.951 318.308 174.105 318.298ZM110.256 306.123C109.587 306.111 108.921 306.231 108.298 306.477C107.675 306.724 107.106 307.091 106.625 307.558C106.144 308.025 105.761 308.583 105.496 309.199C105.231 309.815 105.09 310.478 105.082 311.149C105.069 311.333 105.069 311.518 105.082 311.702C105.201 313.224 105.881 314.646 106.991 315.692C108.101 316.737 109.561 317.331 111.084 317.356H174.105C175.458 317.378 176.764 316.861 177.737 315.918C178.709 314.976 179.269 313.685 179.292 312.33C179.292 312.15 179.292 311.968 179.292 311.784C179.17 310.261 178.487 308.838 177.375 307.793C176.263 306.747 174.802 306.154 173.277 306.13L110.256 306.123Z" fill="#01AE51"/>
<path d="M118.581 269.543C118.525 268.978 118.695 268.414 119.053 267.975C119.412 267.535 119.93 267.257 120.494 267.199C120.615 267.19 120.736 267.19 120.858 267.199C121.207 267.188 121.554 267.25 121.878 267.38C122.202 267.511 122.496 267.709 122.739 267.96L122.231 268.475C122.069 268.305 121.874 268.169 121.659 268.076C121.443 267.984 121.211 267.935 120.977 267.934C120.789 267.922 120.601 267.946 120.423 268.006C120.245 268.066 120.081 268.16 119.939 268.284C119.798 268.408 119.682 268.558 119.598 268.727C119.515 268.895 119.465 269.079 119.453 269.266C119.443 269.36 119.443 269.455 119.453 269.549C119.472 269.992 119.666 270.41 119.991 270.711C120.316 271.012 120.747 271.173 121.19 271.157C121.416 271.166 121.641 271.122 121.847 271.028C122.052 270.934 122.234 270.793 122.375 270.617L122.965 271.138C122.748 271.393 122.476 271.594 122.169 271.727C121.863 271.86 121.53 271.921 121.196 271.905C120.538 271.934 119.895 271.703 119.405 271.261C118.916 270.819 118.62 270.202 118.581 269.543Z" fill="#00AAFF"/>
<path d="M127.542 267.25L127.856 271.829H127.015L126.878 269.869H124.513L124.651 271.829H123.798L123.484 267.25H124.325L124.463 269.134H126.809L126.671 267.25H127.542Z" fill="#00AAFF"/>
<path d="M132.46 271.113L132.51 271.829H129.086L128.76 267.25H132.084L132.134 267.972H129.625L129.707 269.159H131.915V269.857H129.713L129.801 271.113H132.46Z" fill="#00AAFF"/>
<path d="M132.948 269.543C132.92 269.263 132.948 268.98 133.029 268.71C133.111 268.441 133.244 268.19 133.423 267.973C133.601 267.755 133.82 267.575 134.068 267.442C134.316 267.309 134.587 267.227 134.867 267.199C134.99 267.19 135.114 267.19 135.237 267.199C135.581 267.192 135.923 267.256 136.241 267.387C136.559 267.518 136.848 267.713 137.087 267.96L136.579 268.475C136.418 268.304 136.224 268.168 136.008 268.075C135.792 267.982 135.56 267.934 135.325 267.935C134.946 267.909 134.572 268.034 134.285 268.284C133.998 268.533 133.822 268.887 133.795 269.266C133.785 269.36 133.785 269.455 133.795 269.549C133.819 269.993 134.016 270.41 134.343 270.71C134.67 271.011 135.101 271.171 135.545 271.157C135.768 271.165 135.991 271.12 136.195 271.026C136.398 270.932 136.577 270.792 136.717 270.617L137.307 271.138C137.091 271.392 136.82 271.593 136.514 271.726C136.209 271.858 135.877 271.92 135.545 271.905C134.889 271.929 134.251 271.695 133.766 271.254C133.28 270.812 132.987 270.198 132.948 269.543Z" fill="#00AAFF"/>
<path d="M139.61 269.913L138.933 270.661L139.008 271.829H138.168L137.842 267.25H138.695L138.852 269.599L140.953 267.25H141.937L140.131 269.285L142.345 271.798H141.367L139.61 269.913Z" fill="#00AAFF"/>
<path d="M142.613 267.25H143.485L143.811 271.829H142.965L142.613 267.25Z" fill="#00AAFF"/>
<path d="M148.754 267.25L149.068 271.829H148.39L145.656 268.738L145.869 271.829H145.035L144.715 267.25H145.411L148.146 270.359L147.932 267.25H148.754Z" fill="#00AAFF"/>
<path d="M153.297 269.492H154.093L154.219 271.308C153.727 271.708 153.108 271.918 152.475 271.899C151.817 271.929 151.173 271.7 150.682 271.259C150.192 270.818 149.894 270.202 149.853 269.543C149.827 269.261 149.856 268.977 149.939 268.707C150.022 268.437 150.157 268.186 150.337 267.968C150.517 267.751 150.738 267.571 150.988 267.439C151.237 267.307 151.51 267.225 151.791 267.199C151.915 267.19 152.038 267.19 152.161 267.199C152.509 267.185 152.855 267.242 153.179 267.369C153.503 267.496 153.797 267.688 154.043 267.935L153.541 268.468C153.372 268.298 153.171 268.163 152.949 268.072C152.727 267.98 152.489 267.933 152.249 267.935C151.868 267.907 151.491 268.031 151.201 268.281C150.911 268.53 150.731 268.884 150.7 269.266C150.694 269.36 150.694 269.455 150.7 269.549C150.726 269.996 150.926 270.414 151.257 270.715C151.587 271.016 152.023 271.174 152.469 271.157C152.8 271.158 153.125 271.069 153.41 270.9L153.297 269.492Z" fill="#00AAFF"/>
<path d="M155.015 271.333C154.997 271.209 155.028 271.083 155.102 270.982C155.176 270.881 155.286 270.813 155.41 270.793H155.504C155.651 270.791 155.793 270.846 155.901 270.947C156.008 271.047 156.073 271.186 156.081 271.333C156.088 271.398 156.082 271.464 156.063 271.527C156.045 271.59 156.014 271.648 155.972 271.699C155.931 271.75 155.88 271.792 155.822 271.823C155.764 271.854 155.701 271.873 155.636 271.879H155.586C155.439 271.878 155.298 271.821 155.192 271.719C155.086 271.618 155.023 271.479 155.015 271.333Z" fill="#00AAFF"/>
<path d="M156.601 271.333C156.594 271.27 156.598 271.206 156.615 271.144C156.632 271.083 156.661 271.026 156.7 270.975C156.739 270.925 156.787 270.883 156.842 270.852C156.898 270.82 156.959 270.8 157.022 270.793H157.103C157.25 270.791 157.391 270.846 157.498 270.947C157.604 271.048 157.667 271.186 157.674 271.333C157.684 271.465 157.643 271.596 157.559 271.698C157.475 271.8 157.354 271.865 157.222 271.879H157.172C157.026 271.876 156.886 271.819 156.78 271.718C156.675 271.616 156.611 271.479 156.601 271.333Z" fill="#00AAFF"/>
<path d="M158.201 271.333C158.193 271.27 158.198 271.206 158.215 271.144C158.231 271.083 158.26 271.026 158.299 270.975C158.338 270.925 158.387 270.883 158.442 270.852C158.497 270.821 158.558 270.8 158.621 270.793H158.703C158.85 270.789 158.992 270.844 159.099 270.945C159.206 271.046 159.269 271.186 159.274 271.333C159.284 271.465 159.243 271.596 159.158 271.698C159.074 271.8 158.953 271.865 158.822 271.879H158.772C158.626 271.877 158.486 271.819 158.38 271.718C158.274 271.616 158.21 271.479 158.201 271.333Z" fill="#00AAFF"/>
<path d="M175.987 258.254C176.052 258.986 175.972 259.724 175.751 260.426C175.531 261.128 175.175 261.779 174.703 262.342C174.231 262.906 173.653 263.371 173.002 263.711C172.35 264.05 171.639 264.258 170.907 264.322C170.717 264.335 170.526 264.335 170.336 264.322H107.379C105.732 264.301 104.153 263.665 102.95 262.539C101.747 261.413 101.007 259.878 100.875 258.235C100.811 257.502 100.892 256.764 101.113 256.063C101.334 255.362 101.691 254.711 102.164 254.148C102.636 253.585 103.215 253.121 103.866 252.782C104.518 252.443 105.23 252.236 105.961 252.172C106.149 252.16 106.338 252.16 106.526 252.172H169.502C171.145 252.197 172.719 252.833 173.918 253.958C175.117 255.082 175.855 256.614 175.987 258.254Z" fill="#01AE51"/>
<g opacity="0.4">
<path d="M151.414 252.876L152.154 263.512H107.398C105.966 263.482 104.596 262.922 103.554 261.939C102.511 260.956 101.869 259.62 101.753 258.191C101.693 257.51 101.777 256.824 101.998 256.177C102.22 255.53 102.575 254.937 103.039 254.436C103.504 253.935 104.068 253.538 104.696 253.269C105.323 253 106 252.866 106.683 252.876H151.414Z" fill="black"/>
</g>
<path d="M169.364 233.835C169.503 233.099 169.582 232.353 169.602 231.605L172.983 230.719C172.998 230.282 172.968 229.844 172.895 229.412L169.364 228.564C169.089 227.048 168.585 225.582 167.871 224.217L170.236 221.704C170.004 221.321 169.759 220.95 169.502 220.573L166.146 221.56C165.166 220.349 164.012 219.291 162.722 218.419L163.443 214.982C163.061 214.744 162.665 214.536 162.264 214.354L159.987 216.873C159.278 216.572 158.546 216.326 157.798 216.138C157.058 215.939 156.303 215.803 155.541 215.73L154.418 212.281H153.113L152.486 215.755C151.011 215.918 149.573 216.322 148.227 216.949L145.562 214.436C145.192 214.627 144.832 214.837 144.483 215.064L145.737 218.494C144.583 219.387 143.588 220.471 142.796 221.698L139.29 220.712C139.095 221.076 138.907 221.459 138.732 221.842L141.479 224.311C141.223 225.008 141.026 225.724 140.889 226.453C140.758 227.186 140.676 227.927 140.645 228.671L137.258 229.569C137.267 230.007 137.3 230.443 137.358 230.876L140.883 231.718C141.16 233.235 141.666 234.7 142.382 236.065L140.017 238.578C140.243 238.961 140.488 239.344 140.751 239.709L144.101 238.722C145.083 239.931 146.237 240.989 147.525 241.864L146.804 245.306C147.186 245.532 147.588 245.746 147.995 245.934L150.266 243.359C150.978 243.653 151.709 243.899 152.455 244.094C153.192 244.283 153.943 244.418 154.7 244.496L155.829 247.945H157.171L157.798 244.471C159.273 244.308 160.712 243.905 162.057 243.277L164.729 245.79C165.086 245.589 165.45 245.363 165.808 245.124L164.553 241.706C165.707 240.807 166.701 239.72 167.495 238.49L170.995 239.476C171.202 239.106 171.388 238.724 171.553 238.333L168.806 235.877C169.046 235.212 169.233 234.529 169.364 233.835Z" fill="#01AE51"/>
<g opacity="0.2">
<path d="M169.364 233.835C169.503 233.099 169.582 232.353 169.602 231.605L172.983 230.719C172.998 230.282 172.968 229.844 172.895 229.412L169.364 228.564C169.089 227.048 168.585 225.582 167.871 224.217L170.236 221.704C170.004 221.321 169.759 220.95 169.502 220.573L166.146 221.56C165.166 220.349 164.012 219.291 162.722 218.419L163.443 214.982C163.061 214.744 162.665 214.536 162.264 214.354L159.987 216.873C159.278 216.572 158.546 216.326 157.798 216.138C157.058 215.939 156.303 215.803 155.541 215.73L154.418 212.281H153.113L152.486 215.755C151.011 215.918 149.573 216.322 148.227 216.949L145.562 214.436C145.192 214.627 144.832 214.837 144.483 215.064L145.737 218.494C144.583 219.387 143.588 220.471 142.796 221.698L139.29 220.712C139.095 221.076 138.907 221.459 138.732 221.842L141.479 224.311C141.223 225.008 141.026 225.724 140.889 226.453C140.758 227.186 140.676 227.927 140.645 228.671L137.258 229.569C137.267 230.007 137.3 230.443 137.358 230.876L140.883 231.718C141.16 233.235 141.666 234.7 142.382 236.065L140.017 238.578C140.243 238.961 140.488 239.344 140.751 239.709L144.101 238.722C145.083 239.931 146.237 240.989 147.525 241.864L146.804 245.306C147.186 245.532 147.588 245.746 147.995 245.934L150.266 243.359C150.978 243.653 151.709 243.899 152.455 244.094C153.192 244.283 153.943 244.418 154.7 244.496L155.829 247.945H157.171L157.798 244.471C159.273 244.308 160.712 243.905 162.057 243.277L164.729 245.79C165.086 245.589 165.45 245.363 165.808 245.124L164.553 241.706C165.707 240.807 166.701 239.72 167.495 238.49L170.995 239.476C171.202 239.106 171.388 238.724 171.553 238.333L168.806 235.877C169.046 235.212 169.233 234.529 169.364 233.835Z" fill="white"/>
</g>
<g opacity="0.3">
<path d="M161.947 236.763C165.337 233.246 165.034 227.444 161.269 223.802C157.504 220.16 151.703 220.059 148.313 223.575C144.922 227.092 145.226 232.895 148.991 236.536C152.756 240.178 158.557 240.279 161.947 236.763Z" fill="black"/>
</g>
<path d="M137.759 213.198L134.285 213.261C133.781 212.313 133.197 211.409 132.541 210.56L134.115 207.607C133.116 206.468 132.009 205.429 130.81 204.504L127.95 206.3C127.062 205.705 126.127 205.183 125.153 204.742L124.965 201.249C123.571 200.725 122.127 200.346 120.656 200.119L119.176 203.165C118.655 203.165 118.134 203.096 117.62 203.096C117.101 203.085 116.581 203.108 116.065 203.165L114.183 200.119C112.762 200.344 111.37 200.723 110.031 201.249L110.338 204.742C109.43 205.182 108.563 205.704 107.748 206.3L104.612 204.416C103.544 205.341 102.58 206.382 101.74 207.519L103.703 210.472C103.155 211.323 102.695 212.228 102.329 213.173L98.842 213.104C98.4109 214.478 98.1312 215.896 98.0078 217.332L101.144 219.034V220.642C101.164 221.165 101.223 221.686 101.319 222.2L98.3779 223.89C98.7093 225.346 99.1863 226.764 99.8016 228.124L103.283 228.068C103.784 229.017 104.368 229.921 105.026 230.769L103.452 233.715C104.449 234.867 105.556 235.919 106.757 236.857L109.617 235.054C110.504 235.654 111.439 236.177 112.414 236.618L112.603 240.104C114.017 240.681 115.489 241.102 116.993 241.361L118.473 238.314C118.987 238.314 119.458 238.383 120.035 238.383C120.552 238.396 121.07 238.373 121.584 238.314L123.466 241.361C124.887 241.136 126.279 240.757 127.618 240.23L127.317 236.737C128.223 236.3 129.086 235.778 129.894 235.179L133.03 236.976C134.103 236.051 135.07 235.01 135.915 233.873L133.952 230.92C134.498 230.067 134.958 229.162 135.326 228.219L138.807 228.281C139.237 226.904 139.516 225.485 139.641 224.047L136.505 222.357V220.793C136.488 220.272 136.43 219.753 136.329 219.241L139.271 217.539C138.921 216.043 138.414 214.588 137.759 213.198Z" fill="#01AE51"/>
<g opacity="0.3">
<path d="M137.759 213.198L134.285 213.261C133.781 212.313 133.197 211.409 132.541 210.56L134.115 207.607C133.116 206.468 132.009 205.429 130.81 204.504L127.95 206.3C127.062 205.705 126.127 205.183 125.153 204.742L124.965 201.249C123.571 200.725 122.127 200.346 120.656 200.119L119.176 203.165C118.655 203.165 118.134 203.096 117.62 203.096C117.101 203.085 116.581 203.108 116.065 203.165L114.183 200.119C112.762 200.344 111.37 200.723 110.031 201.249L110.338 204.742C109.43 205.182 108.563 205.704 107.748 206.3L104.612 204.416C103.544 205.341 102.58 206.382 101.74 207.519L103.703 210.472C103.155 211.323 102.695 212.228 102.329 213.173L98.842 213.104C98.4109 214.478 98.1312 215.896 98.0078 217.332L101.144 219.034V220.642C101.164 221.165 101.223 221.686 101.319 222.2L98.3779 223.89C98.7093 225.346 99.1863 226.764 99.8016 228.124L103.283 228.068C103.784 229.017 104.368 229.921 105.026 230.769L103.452 233.715C104.449 234.867 105.556 235.919 106.757 236.857L109.617 235.054C110.504 235.654 111.439 236.177 112.414 236.618L112.603 240.104C114.017 240.681 115.489 241.102 116.993 241.361L118.473 238.314C118.987 238.314 119.458 238.383 120.035 238.383C120.552 238.396 121.07 238.373 121.584 238.314L123.466 241.361C124.887 241.136 126.279 240.757 127.618 240.23L127.317 236.737C128.223 236.3 129.086 235.778 129.894 235.179L133.03 236.976C134.103 236.051 135.07 235.01 135.915 233.873L133.952 230.92C134.498 230.067 134.958 229.162 135.326 228.219L138.807 228.281C139.237 226.904 139.516 225.485 139.641 224.047L136.505 222.357V220.793C136.488 220.272 136.43 219.753 136.329 219.241L139.271 217.539C138.921 216.043 138.414 214.588 137.759 213.198Z" fill="white"/>
</g>
<g opacity="0.4">
<path d="M133.168 220.68C133.473 224.162 132.385 227.624 130.144 230.303C127.902 232.983 124.691 234.662 121.214 234.972C120.762 235.014 120.307 235.03 119.853 235.022C115.975 234.969 112.257 233.47 109.423 230.818C106.59 228.166 104.846 224.551 104.531 220.68C104.226 217.195 105.316 213.732 107.56 211.052C109.804 208.372 113.019 206.695 116.498 206.388C116.946 206.348 117.396 206.334 117.846 206.344C121.723 206.397 125.44 207.895 128.274 210.546C131.107 213.196 132.852 216.81 133.168 220.68Z" fill="black"/>
</g>
<path d="M121.661 220.68C121.699 221.028 121.667 221.379 121.569 221.714C121.471 222.049 121.307 222.362 121.088 222.634C120.869 222.906 120.599 223.132 120.292 223.299C119.986 223.466 119.65 223.571 119.303 223.608C119.19 223.614 119.077 223.614 118.964 223.608C118.172 223.6 117.411 223.291 116.837 222.745C116.262 222.198 115.915 221.454 115.866 220.661C115.835 220.312 115.873 219.96 115.979 219.625C116.084 219.29 116.254 218.98 116.48 218.711C116.705 218.443 116.982 218.221 117.293 218.06C117.604 217.899 117.944 217.801 118.293 217.772C118.383 217.766 118.473 217.766 118.563 217.772C119.349 217.779 120.104 218.082 120.678 218.621C121.252 219.16 121.603 219.895 121.661 220.68Z" fill="#00AAFF"/>
<path d="M158.025 230.16C158.1 230.862 157.894 231.566 157.452 232.116C157.01 232.666 156.367 233.018 155.666 233.094C155.554 233.103 155.44 233.103 155.328 233.094C154.535 233.086 153.775 232.777 153.2 232.231C152.625 231.684 152.278 230.94 152.229 230.147C152.193 229.798 152.225 229.446 152.325 229.109C152.425 228.773 152.59 228.459 152.811 228.187C153.031 227.914 153.304 227.688 153.612 227.521C153.92 227.354 154.258 227.25 154.606 227.214C154.713 227.204 154.82 227.204 154.926 227.214C155.719 227.222 156.479 227.53 157.054 228.077C157.629 228.623 157.976 229.368 158.025 230.16Z" fill="#00AAFF"/>
<g opacity="0.2">
<path d="M154.073 396.102H116.793L147.526 144.817H177.562C178.852 144.81 180.129 145.068 181.316 145.575C182.502 146.082 183.573 146.826 184.461 147.763L154.073 396.102Z" fill="white"/>
</g>
<g opacity="0.2">
<path d="M106.513 396.102H98.1152L128.892 144.805H137.29L106.513 396.102Z" fill="white"/>
</g>
<path d="M183.4 174.004H173.936V174.984H183.4V174.004Z" fill="#00AAFF"/>
<path d="M183.589 176.812H174.125V177.792H183.589V176.812Z" fill="#00AAFF"/>
<path d="M183.785 179.614H174.32V180.594H183.785V179.614Z" fill="#00AAFF"/>
<path d="M180.114 391.824H169.815L169.088 381.509H179.393L180.114 391.824ZM170.706 390.844H179.041L178.452 382.489H170.148L170.706 390.844Z" fill="white"/>
<path d="M128.947 392.71L119.539 387.157L128.182 381.616L128.947 392.71ZM121.421 387.119L127.856 390.888L127.31 383.35L121.421 387.119Z" fill="white"/>
<path d="M150.993 391.824C149.609 391.804 148.282 391.269 147.27 390.322C146.257 389.376 145.633 388.086 145.518 386.704C145.466 386.075 145.539 385.442 145.732 384.841C145.925 384.24 146.234 383.683 146.641 383.202C147.049 382.721 147.547 382.325 148.108 382.036C148.669 381.748 149.28 381.573 149.908 381.521H150.341C151.727 381.542 153.055 382.078 154.067 383.026C155.079 383.973 155.703 385.265 155.817 386.648C155.872 387.272 155.803 387.902 155.615 388.5C155.427 389.098 155.123 389.653 154.72 390.133C154.318 390.614 153.825 391.01 153.269 391.299C152.713 391.588 152.106 391.764 151.483 391.818C151.32 391.833 151.156 391.835 150.993 391.824ZM150.366 382.489C149.833 382.479 149.304 382.582 148.814 382.793C148.325 383.003 147.885 383.315 147.524 383.708C147.164 384.101 146.891 384.566 146.723 385.073C146.556 385.58 146.498 386.117 146.553 386.648C146.646 387.782 147.158 388.841 147.988 389.618C148.818 390.394 149.908 390.834 151.044 390.85C151.545 390.858 152.042 390.766 152.508 390.581C152.973 390.395 153.398 390.119 153.757 389.769C154.116 389.419 154.402 389.001 154.599 388.54C154.797 388.079 154.901 387.583 154.907 387.081C154.907 386.956 154.907 386.83 154.907 386.704C154.819 385.562 154.308 384.495 153.473 383.712C152.638 382.93 151.541 382.489 150.398 382.476L150.366 382.489Z" fill="white"/>
<path d="M108.076 176.039H106.652V175.361H110.309V176.039H108.879L109.136 179.677H108.333L108.076 176.039Z" fill="#00AAFF"/>
<path d="M114.34 178.967L114.39 179.645H111.16L110.859 175.33H114.058V176.002H111.712L111.788 177.12H113.895V177.78H111.813L111.907 178.967H114.34Z" fill="#00AAFF"/>
<path d="M119.245 179.645L119.038 176.787L117.784 179.143H117.432L115.852 176.812L116.046 179.645H115.281L114.986 175.33H115.614L117.526 178.188L119 175.33H119.665L119.973 179.645H119.245Z" fill="#00AAFF"/>
<path d="M122.677 177.761L122.508 175.33H123.304L123.467 177.729C123.536 178.621 123.963 178.986 124.659 178.986C125.355 178.986 125.719 178.609 125.638 177.729L125.474 175.33H126.258L126.422 177.761C126.469 177.967 126.475 178.18 126.44 178.388C126.406 178.596 126.33 178.796 126.218 178.975C126.106 179.154 125.96 179.309 125.789 179.432C125.617 179.554 125.423 179.642 125.217 179.689C125.041 179.734 124.858 179.745 124.678 179.721C124.428 179.737 124.178 179.703 123.941 179.621C123.705 179.539 123.487 179.411 123.301 179.243C123.115 179.076 122.963 178.873 122.856 178.647C122.749 178.42 122.688 178.174 122.677 177.924C122.672 177.87 122.672 177.815 122.677 177.761Z" fill="#00AAFF"/>
<path d="M131.137 176.863C131.206 177.849 130.509 178.395 129.412 178.395H128.427L128.515 179.652H127.693L127.398 175.336H129.167C130.334 175.33 131.068 175.939 131.137 176.863ZM130.334 176.863C130.334 176.322 129.907 176.008 129.205 176.008H128.27L128.389 177.717H129.324C130.026 177.717 130.371 177.403 130.334 176.863Z" fill="#00AAFF"/>
<path d="M131.832 175.33H133.676C133.98 175.302 134.286 175.335 134.577 175.427C134.868 175.519 135.138 175.667 135.371 175.864C135.605 176.061 135.797 176.302 135.936 176.574C136.076 176.846 136.16 177.142 136.185 177.447V177.485C136.239 178.002 136.087 178.521 135.762 178.927C135.436 179.333 134.964 179.593 134.447 179.652C134.293 179.668 134.138 179.668 133.983 179.652H132.102L131.832 175.33ZM133.933 178.967C134.284 179.008 134.637 178.908 134.914 178.689C135.191 178.47 135.371 178.15 135.413 177.799C135.426 177.694 135.426 177.589 135.413 177.485C135.391 177.071 135.205 176.683 134.897 176.406C134.589 176.129 134.183 175.986 133.77 176.008H132.71L132.911 178.955L133.933 178.967Z" fill="#00AAFF"/>
<path d="M139.879 178.64H137.728L137.377 179.626H136.549L138.186 175.311H138.982L141.228 179.626H140.381L139.879 178.64ZM139.572 178.012L138.593 176.127L137.916 178.012H139.572Z" fill="#00AAFF"/>
<path d="M142.175 176.039H140.751L140.701 175.361H144.351L144.402 176.039H142.978L143.222 179.677H142.426L142.175 176.039Z" fill="#00AAFF"/>
<path d="M148.441 178.967V179.645H145.211L144.91 175.33H148.046L148.096 176.002H145.751L145.832 177.12H147.914L147.958 177.78H145.882L145.958 178.967H148.441Z" fill="#00AAFF"/>
<path d="M157.221 156.935C157.257 157.199 157.241 157.467 157.174 157.725C157.106 157.982 156.989 158.223 156.828 158.435C156.667 158.647 156.466 158.825 156.236 158.959C156.007 159.093 155.753 159.18 155.49 159.216C155.394 159.222 155.297 159.222 155.201 159.216C154.59 159.204 154.004 158.969 153.554 158.555C153.103 158.14 152.819 157.576 152.755 156.967C152.699 156.43 152.858 155.893 153.196 155.474C153.535 155.055 154.026 154.787 154.562 154.73C154.643 154.724 154.725 154.724 154.806 154.73C155.405 154.748 155.978 154.981 156.421 155.385C156.864 155.79 157.148 156.339 157.221 156.935Z" fill="white"/>
<path d="M158.143 155.767C158.03 155.764 157.921 155.72 157.838 155.642C157.754 155.565 157.703 155.459 157.692 155.346C157.591 154.316 156.287 153.518 154.75 153.518C153.214 153.518 152.028 154.737 152.091 155.346C152.1 155.447 152.069 155.548 152.004 155.627C151.94 155.706 151.847 155.756 151.746 155.767H151.708C151.593 155.765 151.483 155.721 151.398 155.643C151.312 155.566 151.258 155.46 151.244 155.346C151.15 154.146 152.706 152.682 154.669 152.682C156.632 152.682 158.432 153.851 158.595 155.346C158.606 155.446 158.577 155.547 158.515 155.627C158.453 155.707 158.363 155.759 158.263 155.773L158.143 155.767Z" fill="white"/>
<path d="M158.854 153.82C158.738 153.819 158.627 153.775 158.541 153.698C158.456 153.62 158.402 153.514 158.389 153.399C158.302 152.419 156.558 151.571 154.463 151.571C152.368 151.571 150.838 152.858 150.901 153.424C150.909 153.473 150.907 153.523 150.895 153.571C150.883 153.619 150.861 153.664 150.831 153.703C150.801 153.743 150.764 153.775 150.721 153.8C150.678 153.824 150.63 153.839 150.581 153.845H150.518C150.404 153.842 150.296 153.798 150.212 153.72C150.129 153.643 150.077 153.537 150.067 153.424C149.96 152.224 151.948 150.76 154.413 150.76C156.878 150.76 159.054 151.885 159.205 153.424C159.217 153.522 159.191 153.621 159.131 153.7C159.071 153.779 158.983 153.831 158.885 153.845L158.854 153.82Z" fill="white"/>
<path d="M159.554 151.878C159.441 151.876 159.332 151.833 159.248 151.757C159.163 151.681 159.11 151.577 159.096 151.464C159.027 150.578 157.064 149.629 154.267 149.629C151.469 149.629 149.713 150.993 149.757 151.464C149.766 151.562 149.736 151.659 149.674 151.736C149.612 151.812 149.522 151.861 149.425 151.872H149.375C149.262 151.87 149.154 151.826 149.071 151.75C148.988 151.674 148.935 151.57 148.923 151.458C148.823 150.258 151.225 148.788 154.198 148.788C157.384 148.788 159.799 149.906 159.93 151.458C159.939 151.556 159.909 151.653 159.847 151.73C159.785 151.806 159.695 151.855 159.598 151.866L159.554 151.878Z" fill="white"/>
<path d="M164.322 159.185H162.998L162.666 155.346H163.989L164.322 159.185Z" fill="white"/>
<path d="M166.14 159.185H164.817L164.34 153.813H165.669L166.14 159.185Z" fill="white"/>
<path d="M167.953 159.185H166.629L166.027 152.281H167.357L167.953 159.185Z" fill="white"/>
<path d="M169.764 159.184H168.453L167.707 150.748H169.03L169.764 159.184Z" fill="white"/>
<path d="M171.59 159.185H170.266L169.395 149.215H170.718L171.59 159.185Z" fill="white"/>
<path d="M181.531 159.185H176.577L175.799 150.333H180.754L181.531 159.185Z" fill="white"/>
<path d="M179.844 150.333H176.721L176.664 149.686H179.781L179.844 150.333Z" fill="white"/>
<path d="M325.184 450.097C325.184 450.097 392.997 462.171 438.625 443.658C438.625 443.658 542.896 339.375 487.841 265.176C487.841 265.176 457.071 211.213 396.935 226.956L301.539 399.086L325.184 450.097Z" fill="#01AE51"/>
<g opacity="0.7">
<path d="M325.184 450.097C325.184 450.097 392.997 462.171 438.625 443.658C438.625 443.658 542.896 339.375 487.841 265.176C487.841 265.176 457.071 211.213 396.935 226.956L301.539 399.086L325.184 450.097Z" fill="white"/>
</g>
<g opacity="0.2">
<path d="M334.913 371.514C334.913 371.514 360.352 384.914 390.796 385.423C427.694 386.051 460.214 361.205 469.735 325.491C477.33 297.014 482.498 253.693 447.3 244.973C393.938 231.756 385.471 306.708 385.471 306.708C385.471 306.708 335.879 347.315 334.932 354.684C333.985 362.053 334.913 371.514 334.913 371.514Z" fill="white"/>
</g>
<path d="M339.629 465.381C339.629 465.381 343.587 473.693 331.332 478.574L316.812 483.109C316.812 483.109 309.085 485.371 303.045 489.153C303.045 489.153 272.175 508.056 272.62 490.014L339.629 465.381Z" fill="#E1E1E2"/>
<path d="M325.674 445.932L325.906 445.605C325.992 445.484 326.104 445.383 326.235 445.311C326.365 445.239 326.509 445.196 326.658 445.187C326.806 445.178 326.955 445.203 327.093 445.259C327.231 445.315 327.355 445.401 327.455 445.511C329.964 448.307 337.446 457.102 339.629 465.381C339.629 465.381 339.441 471.62 319.64 477.475C314.366 478.976 309.301 481.133 304.562 483.895C304.562 483.895 274.206 500.706 272.318 488.996C272.318 488.996 268.185 480.961 287.879 469.867C287.879 469.867 294.816 464.533 299.031 456.744L316.065 450.461L325.674 445.932Z" fill="#01AE51"/>
<path d="M287.892 474.038C287.758 475.595 287.417 477.127 286.876 478.593C285.678 481.85 283.56 484.687 280.78 486.76C274.125 491.722 261.788 498.626 247.043 496.001C247.043 496.001 234.411 495.435 228.566 485.987C228.566 485.987 226.308 482.978 230.379 480.019C231.57 479.201 232.862 478.543 234.223 478.059L243.154 473.938C244.547 473.31 245.958 472.681 247.401 472.179C251.222 470.823 254.439 468.151 256.476 464.64C256.476 464.64 260.772 455.556 265.037 458.59L287.278 468.095C287.278 468.095 288.256 469.829 287.892 474.038Z" fill="#01AE51"/>
<g opacity="0.2">
<path d="M287.892 474.038C287.758 475.595 287.417 477.127 286.876 478.593C285.678 481.85 283.56 484.687 280.78 486.76C274.125 491.722 261.788 498.626 247.043 496.001C247.043 496.001 234.411 495.435 228.566 485.987C228.566 485.987 226.308 482.978 230.379 480.019C231.57 479.201 232.862 478.543 234.223 478.059L243.154 473.938C244.547 473.31 245.958 472.681 247.401 472.179C251.222 470.823 254.439 468.151 256.476 464.64C256.476 464.64 260.772 455.556 265.037 458.59L287.278 468.095C287.278 468.095 288.256 469.829 287.892 474.038Z" fill="black"/>
</g>
<path d="M262.132 499.362C241.81 503.181 232.208 495.862 228.89 492.3C227.786 491.125 226.949 489.723 226.438 488.192C224.343 481.778 230.345 480.025 230.345 480.025H230.402C226.331 482.984 228.589 485.993 228.589 485.993C234.435 495.416 247.066 496.007 247.066 496.007C261.812 498.633 274.149 491.729 280.803 486.766C283.583 484.693 285.701 481.856 286.899 478.599H287C288.166 488.38 273.772 495.278 267.557 497.785C265.805 498.489 263.988 499.017 262.132 499.362Z" fill="#E1E1E2"/>
<path d="M297.77 450.65L299.024 456.744C299.024 456.744 315.118 459.885 325.673 445.932L321.151 439.135L297.77 450.65Z" fill="#F9B499"/>
<path d="M309.636 317.462C309.636 317.462 247.801 312.776 250.818 338.118C250.818 338.118 249.683 345.292 259.68 370.226L293.273 452.918C293.273 452.918 315.714 453.866 323.441 439.725L294.213 355.865C297.063 356.192 299.89 356.689 302.681 357.354L309.636 317.462Z" fill="#00AAFF"/>
<g opacity="0.2">
<path d="M294.183 355.84C294.183 355.84 281.012 349.231 273.254 340.354L317.283 446.428C319.845 444.722 321.949 442.412 323.411 439.7L294.183 355.84Z" fill="black"/>
</g>
<path d="M349.431 283.69L326.426 277.269C326.426 277.269 333.952 234.4 379.794 225.712L429.969 228.734C429.969 228.734 463.154 236.272 466.171 270.284C466.171 270.284 467.118 285.392 464.478 298.421C464.478 298.421 456.744 287.66 435.438 279.914C435.438 279.914 427.329 336.767 421.483 350.55C421.483 350.55 394.991 327.796 343.228 316.558L340.4 306.921C340.4 306.921 343.021 302.938 349.431 283.69Z" fill="#01AE51"/>
<g opacity="0.4">
<path d="M349.431 283.69L343.09 281.981C343.09 281.981 352.071 265.937 352.071 256.683C352.071 256.683 352.636 270.271 349.431 283.69Z" fill="black"/>
</g>
<path d="M435.42 279.914L433.764 290.732C433.764 290.732 412.521 273.726 405.095 268.663C403.842 267.804 402.876 266.587 402.323 265.17C400.372 260.145 395.361 248.529 390.35 247.053C390.35 247.053 363.951 235.745 363.575 239.684C363.575 239.684 361.882 240.821 376.589 247.618C376.589 247.618 374.513 248.56 375.266 252.154C375.266 252.154 371.873 253.284 373.761 257.248C373.761 257.248 370.292 258.7 371.954 261.589C372.389 262.327 373.015 262.933 373.767 263.342L389.334 271.949C390.467 272.576 391.368 273.552 391.905 274.732C396.496 284.896 420.273 334.311 444.659 326C444.659 326 452.956 320.71 464.459 298.422C464.459 298.422 455.026 286.335 435.42 279.914Z" fill="#F9B499"/>
<path d="M435.421 279.915C435.421 279.915 453.899 285.568 464.461 298.422C464.461 298.422 444.848 284.959 444.848 292.768C444.848 293.145 446.165 308.442 446.165 308.442C446.165 308.442 442.302 294.772 433.766 290.732L435.421 279.915Z" fill="#F7A48B"/>
<g opacity="0.4">
<path d="M439.754 256.683L435.42 279.927L433.765 290.732L429.029 286.9C429.029 286.9 435.42 262.915 439.754 256.683Z" fill="black"/>
</g>
<g opacity="0.2">
<path d="M435.42 279.914L436.906 272.564C436.906 272.564 456.588 272.564 466.083 285.405C466.083 285.405 465.4 294.457 464.459 298.421C464.459 298.421 456.343 287.095 435.42 279.914Z" fill="white"/>
</g>
<g opacity="0.2">
<path d="M326.426 277.269C326.426 277.269 327.567 271.27 329.261 268.041L347.38 273.186C347.38 273.186 344.476 280.096 343.09 281.981L326.426 277.269Z" fill="white"/>
</g>
<path d="M308.834 256.909C310.445 264.253 314.572 282.339 318.536 293.207C319.353 295.471 320.65 297.529 322.339 299.24C324.028 300.952 326.069 302.275 328.319 303.118C330.569 303.962 332.975 304.306 335.371 304.126C337.766 303.947 340.095 303.248 342.194 302.078L342.633 301.826C342.633 301.826 345.65 296.173 349.419 283.69L331.419 278.821L320.688 247.549C320.413 246.725 320.46 245.827 320.819 245.036C321.898 242.611 323.328 236.178 315.67 225.737C314.841 223.085 314.331 220.344 314.152 217.571C314.148 217.415 314.108 217.263 314.035 217.126C313.962 216.989 313.858 216.872 313.731 216.782C313.604 216.693 313.458 216.635 313.305 216.613C313.151 216.59 312.995 216.604 312.848 216.653C311.311 217.156 309.216 219.166 311.142 226.9C311.142 226.9 312.841 233.885 307.937 229.921L305.058 228.037C303.717 227.158 302.516 226.082 301.495 224.845L292.526 213.977C292.193 213.567 291.731 213.281 291.215 213.167C290.699 213.053 290.16 213.117 289.685 213.349C289.38 213.502 289.112 213.72 288.9 213.987C288.688 214.255 288.537 214.566 288.459 214.899C288.38 215.231 288.374 215.577 288.443 215.911C288.512 216.246 288.654 216.562 288.857 216.836L296.315 226.887C296.363 226.956 296.386 227.04 296.38 227.124C296.373 227.209 296.337 227.288 296.279 227.349C296.22 227.41 296.142 227.449 296.059 227.458C295.975 227.468 295.89 227.448 295.819 227.402L282.83 218.683C282.598 218.526 282.335 218.421 282.059 218.374C281.783 218.328 281.501 218.34 281.23 218.412C280.959 218.483 280.707 218.611 280.49 218.788C280.272 218.965 280.095 219.186 279.97 219.436C279.772 219.833 279.713 220.285 279.803 220.719C279.893 221.154 280.126 221.545 280.466 221.83L292.338 231.818C292.362 231.835 292.377 231.86 292.382 231.889C292.387 231.917 292.38 231.946 292.363 231.969C292.347 231.993 292.322 232.008 292.293 232.013C292.265 232.018 292.236 232.011 292.213 231.994L282.291 225.907C282.097 225.788 281.882 225.71 281.658 225.678C281.434 225.645 281.205 225.658 280.986 225.717C280.767 225.776 280.562 225.879 280.385 226.019C280.207 226.16 280.059 226.336 279.951 226.535C279.763 226.889 279.709 227.299 279.797 227.69C279.886 228.081 280.112 228.427 280.434 228.665L293.06 237.981C293.227 238.104 293.359 238.268 293.445 238.457C293.531 238.647 293.567 238.855 293.549 239.062C293.534 239.248 293.476 239.429 293.38 239.59C293.284 239.75 293.152 239.887 292.995 239.988C292.838 240.09 292.66 240.154 292.474 240.175C292.288 240.196 292.1 240.174 291.924 240.111L282.949 236.882C282.742 236.807 282.523 236.776 282.303 236.789C282.084 236.801 281.869 236.858 281.672 236.956C281.475 237.054 281.3 237.191 281.158 237.359C281.015 237.526 280.908 237.721 280.842 237.931C280.722 238.313 280.748 238.727 280.915 239.091C281.082 239.455 281.378 239.745 281.745 239.904C285.508 241.568 296.647 246.581 305.139 251.771C306.069 252.333 306.876 253.078 307.511 253.962C308.146 254.845 308.596 255.847 308.834 256.909Z" fill="#F9B499"/>
<path d="M308.513 243.34C303.496 239.571 299.827 242.8 299.676 242.944L299.256 242.473C299.293 242.435 303.471 238.76 308.89 242.837L308.513 243.34Z" fill="#F7A48B"/>
<path d="M315.6 245.093C306.619 242.793 305.948 231.9 305.941 231.768L306.569 231.737C306.569 231.844 307.233 242.297 315.763 244.483L315.6 245.093Z" fill="#F7A48B"/>
<path d="M421.465 350.551C421.465 350.551 416.372 403.622 341.704 364.151C341.704 364.151 345.85 386.817 320.963 424.969L294.182 462.171C290.345 462.38 286.498 462.199 282.698 461.631C277.574 460.871 271.697 459.219 267.219 455.751C267.219 455.751 293.737 405.494 296.822 359.232C296.935 357.48 296.985 355.727 296.985 353.968C296.954 346.467 298.027 316.388 316.999 315.232C316.999 315.232 334.347 313.159 348.114 318.631C348.114 318.631 378.703 319.021 412.508 342.905C415.575 345.073 418.354 347.987 421.465 350.551Z" fill="#00AAFF"/>
<g opacity="0.2">
<path d="M421.464 350.55C421.464 350.55 416.371 403.622 341.704 364.151C341.704 364.151 345.849 386.817 320.962 424.968L294.181 462.171C290.345 462.38 286.497 462.199 282.697 461.631C291.384 454.243 309.667 432.965 325.484 376.822L330.577 354.916C330.577 354.916 331.894 348.113 340.38 352.46C340.38 352.46 407.641 384.449 412.131 342.547C415.198 344.689 418.353 347.987 421.464 350.55Z" fill="black"/>
</g>
<path d="M267.219 455.751L264.422 459.363C264.422 459.363 273.83 469.377 286.675 469L291.197 462.196C291.197 462.196 276.646 462.931 267.219 455.751Z" fill="#F9B499"/>
<path d="M393.742 217.778V224.01C389.039 223.759 384.328 224.335 379.824 225.712C379.824 225.712 403.206 250.451 430 228.734C430 228.734 427.171 226.655 417.174 225.335L419.055 192.844L393.742 217.778Z" fill="#F9B499"/>
<path d="M393.742 217.778V224.01C393.742 224.01 412.922 221.754 416.158 200.973L393.742 217.778Z" fill="#F7A48B"/>
<path d="M381.017 170.279C381.017 170.279 378.251 181.693 382.334 204.573C382.909 207.925 384.637 210.97 387.22 213.179C392.2 217.369 401.338 219.135 413.744 196.814L413.556 169.047C413.556 169.047 397.895 159.417 381.017 170.279Z" fill="#F9B499"/>
<path d="M412.039 195.866C412.039 195.866 412.039 175.907 407.504 170.398C412.17 171.331 416.485 173.545 419.966 176.793L420.725 184.332C420.725 184.332 416.592 186.072 416.015 195.011L412.039 195.866Z" fill="#2F2E41"/>
<g opacity="0.2">
<path d="M411.802 195.468C411.802 195.468 411.802 175.509 407 170C411.941 170.933 416.51 173.147 420.196 176.395L421 183.934C421 183.934 416.623 185.674 416.012 194.613L411.802 195.468Z" fill="white"/>
</g>
<path d="M381.531 200.062C381.531 200.062 385.213 213.324 387.665 210.195C387.795 210.029 387.9 209.845 387.979 209.649C388.286 208.907 389.497 206.369 391.29 207.224C391.553 207.354 391.784 207.538 391.97 207.764C392.156 207.991 392.292 208.254 392.369 208.537C392.827 210.069 394.671 213.763 401.288 208.537C401.288 208.537 409.962 204.189 412.038 195.878L416.002 195.055C416.002 195.055 416.228 196.437 418.373 197.292C418.373 197.292 405.829 221.421 389.076 218.28C387.874 218.061 386.749 217.531 385.813 216.744C384.877 215.956 384.162 214.937 383.739 213.788C382.817 211.269 381.889 207.06 381.531 200.062Z" fill="#2F2E41"/>
<path d="M425.255 191.497C426.389 187.534 425.156 183.705 422.502 182.943C419.848 182.181 416.778 184.776 415.644 188.738C414.511 192.701 415.743 196.53 418.397 197.292C421.051 198.054 424.121 195.459 425.255 191.497Z" fill="#F9B499"/>
<path d="M419.967 176.793C419.967 176.793 405.924 162.721 379.62 173.395C379.62 173.395 372.451 176.793 368.682 171.51L372.263 170.945C372.263 170.945 368.857 168.501 367.91 162.062C367.91 162.062 368.098 162.627 370.739 164.141C369.878 160.434 370.14 156.554 371.491 152.997C371.491 152.997 372.62 161.308 381.859 159.417C381.859 159.417 379.218 156.018 382.618 152.62C382.618 152.62 382.618 157.526 391.48 156.389C391.486 156.395 419.202 151.483 419.967 176.793Z" fill="#2F2E41"/>
<g opacity="0.2">
<path d="M373.033 171.428C372.349 171.428 372.098 171.24 372.017 171.146C371.987 171.117 371.963 171.083 371.947 171.045C371.93 171.008 371.922 170.967 371.922 170.926C371.922 170.884 371.93 170.844 371.947 170.806C371.963 170.768 371.987 170.734 372.017 170.706C372.075 170.654 372.149 170.625 372.227 170.625C372.305 170.625 372.379 170.654 372.437 170.706C372.525 170.756 374.281 171.629 383.557 166.654C388.226 164.123 393.513 162.963 398.811 163.305C405.055 163.784 411.022 166.089 415.971 169.933C416.004 169.958 416.031 169.989 416.052 170.024C416.073 170.06 416.087 170.099 416.093 170.14C416.099 170.181 416.097 170.222 416.086 170.262C416.076 170.302 416.058 170.34 416.033 170.373C415.983 170.438 415.908 170.481 415.827 170.493C415.745 170.505 415.661 170.484 415.594 170.436C410.742 166.664 404.891 164.401 398.767 163.927C393.588 163.593 388.42 164.729 383.858 167.207C377.317 170.718 374.363 171.428 373.033 171.428Z" fill="black"/>
</g>
<g opacity="0.2">
<path d="M374.112 166.02C370.976 166.02 370.468 164.317 370.437 164.223C370.415 164.14 370.426 164.051 370.469 163.976C370.512 163.901 370.583 163.847 370.666 163.824C370.749 163.802 370.838 163.813 370.912 163.856C370.987 163.899 371.042 163.97 371.064 164.053C371.064 164.091 371.88 166.415 377.606 164.851C378.792 164.518 379.944 164.077 381.049 163.532C383.696 162.238 390.582 159.335 397.388 160.24C397.429 160.245 397.468 160.258 397.504 160.278C397.54 160.298 397.572 160.326 397.597 160.358C397.622 160.391 397.641 160.429 397.651 160.469C397.661 160.509 397.663 160.551 397.657 160.592C397.646 160.674 397.603 160.749 397.537 160.8C397.472 160.85 397.388 160.873 397.306 160.862C390.664 159.976 383.922 162.828 381.325 164.097C380.184 164.659 378.994 165.113 377.769 165.454C376.58 165.804 375.351 165.994 374.112 166.02Z" fill="black"/>
</g>
<path d="M373.872 256.941L373.609 257.512L382.001 261.383L382.263 260.812L373.872 256.941Z" fill="#F7A48B"/>
<path d="M375.391 251.864L375.148 252.443L383.917 256.126L384.16 255.547L375.391 251.864Z" fill="#F7A48B"/>
<path d="M376.52 247.328L376.277 247.907L385.046 251.59L385.288 251.011L376.52 247.328Z" fill="#F7A48B"/>
<g opacity="0.2">
<path d="M245.35 265.936L264.768 315.421H346.792L329.444 265.371L245.35 265.936Z" fill="white"/>
</g>
<path d="M348.113 315.986H368.29C368.463 315.986 368.634 316.02 368.794 316.087C368.954 316.153 369.099 316.25 369.221 316.373C369.344 316.495 369.441 316.641 369.507 316.801C369.573 316.961 369.607 317.132 369.607 317.305C369.607 317.655 369.468 317.991 369.221 318.238C368.974 318.486 368.639 318.625 368.29 318.625H348.113V315.98V315.986Z" fill="#B3B3B3"/>
<path d="M245.35 265.936L264.768 315.421H346.792L329.444 265.371L245.35 265.936Z" fill="#B3B3B3"/>
<path d="M245.35 265.936L247.043 263.675L330.836 264.039L350.342 318.505H264.611C264.203 318.505 263.812 318.343 263.524 318.054C263.236 317.766 263.074 317.374 263.074 316.966C263.074 316.557 263.236 316.165 263.524 315.876C263.812 315.586 264.203 315.422 264.611 315.421H346.773L329.444 265.371L245.35 265.936Z" fill="#E1E1E2"/>
<path d="M104.775 484.152H57.8418V484.422H104.775V484.152Z" fill="#EBEBEB"/>
<path d="M91.9816 265.013H73.3477V354.741H91.9816V265.013Z" fill="#E0E0E0"/>
<path d="M90.2695 267.004H75.2168V352.718H90.2695V267.004Z" fill="#EBEBEB"/>
<path d="M90.2569 279.117L75.2168 285.041V299.559L90.2569 293.635V279.117Z" fill="#F5F5F5"/>
<path d="M90.2569 296.6L75.2168 302.517V308.083L90.2569 302.159V296.6Z" fill="#F5F5F5"/>
<path d="M90.2569 326.811L75.2168 332.735V338.294L90.2569 332.377V326.811Z" fill="#F5F5F5"/>
<path d="M70.3607 207.086C70.2368 207.088 70.1169 207.042 70.0259 206.958C69.9348 206.873 69.8796 206.757 69.8715 206.633L67.4819 174.042C67.477 173.977 67.4847 173.913 67.5048 173.851C67.5248 173.79 67.5567 173.733 67.5986 173.684C67.6405 173.635 67.6917 173.595 67.7491 173.566C67.8066 173.537 67.8693 173.519 67.9335 173.514C67.9977 173.509 68.0623 173.517 68.1236 173.537C68.1848 173.557 68.2415 173.589 68.2904 173.631C68.3394 173.673 68.3795 173.724 68.4087 173.782C68.4379 173.839 68.4554 173.902 68.4603 173.966L70.8876 206.571C70.8929 206.698 70.849 206.823 70.7649 206.919C70.6808 207.015 70.563 207.075 70.436 207.086H70.3607Z" fill="#01AE51"/>
<path d="M67.5211 168.243C67.3976 168.245 67.2778 168.201 67.1859 168.118C67.094 168.035 67.0367 167.921 67.0256 167.797L66.3984 159.235C66.4007 159.111 66.4493 158.992 66.5346 158.902C66.6198 158.812 66.7357 158.757 66.8592 158.749C66.9828 158.74 67.1051 158.778 67.202 158.855C67.299 158.932 67.3636 159.043 67.3831 159.166L68.0103 167.766C68.0155 167.83 68.0078 167.895 67.9879 167.956C67.9679 168.018 67.9361 168.075 67.8941 168.124C67.8521 168.173 67.8009 168.213 67.7434 168.242C67.6858 168.271 67.6231 168.289 67.5588 168.294L67.5211 168.243Z" fill="#01AE51"/>
<path d="M95.4925 179.18L95.7183 178.552C96.1492 178.853 96.6606 179.017 97.1859 179.023C97.8508 179.023 98.1644 178.785 98.0954 178.464C98.0264 177.478 95.5176 178.137 95.3984 176.498C95.3984 175.807 95.8688 175.241 97.048 175.241C97.5606 175.236 98.0653 175.368 98.5093 175.625L98.3024 176.253C97.9314 176.039 97.5134 175.92 97.0856 175.907C96.4208 175.907 96.1699 176.165 96.195 176.498C96.2514 177.415 98.7602 176.812 98.8794 178.382C98.8794 179.08 98.409 179.67 97.2236 179.67C96.6087 179.7 96.0011 179.528 95.4925 179.18Z" fill="#00AAFF"/>
<path d="M101.419 178.119L101.525 179.645H100.723L100.616 178.131L98.7344 175.33H99.5874L100.999 177.434L102.128 175.33H102.911L101.419 178.119Z" fill="#00AAFF"/>
<path d="M103.264 179.181L103.502 178.552C103.926 178.853 104.431 179.017 104.951 179.024C105.628 179.024 105.935 178.785 105.873 178.464C105.804 177.478 103.295 178.138 103.176 176.498C103.176 175.807 103.64 175.242 104.825 175.242C105.337 175.241 105.841 175.373 106.287 175.625L106.073 176.253C105.707 176.034 105.29 175.914 104.863 175.908C104.198 175.908 103.941 176.165 103.972 176.498C104.029 177.415 106.544 176.812 106.657 178.383C106.657 179.08 106.186 179.671 105.001 179.671C104.385 179.694 103.777 179.522 103.264 179.181Z" fill="#00AAFF"/>
<path d="M84.7855 180.757L81.3359 177.308L84.7855 173.859L85.4754 174.544L82.722 177.308L85.4754 180.06L84.7855 180.757Z" fill="#00AAFF"/>
<path d="M92.3 176.812H82.0391V177.792H92.3V176.812Z" fill="#00AAFF"/>
<defs>
<linearGradient id="paint0_linear_79_3713" x1="494.388" y1="329.389" x2="600.888" y2="553.889" gradientUnits="userSpaceOnUse">
<stop stop-color="#00B414"/>
<stop offset="0.989638" stop-color="#00A0D9"/>
</linearGradient>
</defs>
</svg>
