<svg width="307" height="180" viewBox="0 0 307 180" fill="none" xmlns="http://www.w3.org/2000/svg">
<path d="M160.78 68.0107C162.819 65.4271 165.806 64.3853 167.45 65.6836C169.094 66.9818 168.773 70.128 166.732 72.7122C165.931 73.7556 164.892 74.5921 163.701 75.1516L154.92 85.9889L149.922 81.7604L159.109 71.5257C159.377 70.2374 159.95 69.0321 160.78 68.0107Z" fill="#FFB6B6"/>
<path d="M128.421 63.3738L141.233 85.1443L156.744 74.4315L162.983 76.9198C162.983 76.9198 151.96 100.906 142.457 99.3463C132.953 97.7862 114.042 76.3222 116.213 68.8266C118.384 61.3311 128.421 63.3738 128.421 63.3738Z" fill="#0BCA7A"/>
<path d="M167.041 56.6654L159.882 58.7793L164.815 75.4816L171.974 73.3677L167.041 56.6654Z" fill="#0BCA7A"/>
<path d="M126.813 63.9159L126.966 53.7071L120.67 49.7827L113.823 58.1563L126.813 63.9159Z" fill="#FFB6B6"/>
<path opacity="0.1" d="M126.813 63.9159L127.221 53.9615L120.67 49.7827L122.896 62.1018L126.813 63.9159Z" fill="black"/>
<path d="M123.441 54.7245C129.625 54.7245 134.639 49.7118 134.639 43.5283C134.639 37.3448 129.625 32.332 123.441 32.332C117.257 32.332 112.243 37.3448 112.243 43.5283C112.243 49.7118 117.257 54.7245 123.441 54.7245Z" fill="#FFB6B6"/>
<path d="M142.104 131.421L140.132 144.831L139.14 151.584L135.009 179.684C129.798 179.52 124.655 179.286 119.589 178.991L120.325 161.881L120.769 151.584L121.061 144.831L121.242 140.581L118.587 130.441C118.587 130.441 117.712 128.816 116.824 126.652C116.667 126.268 116.507 125.866 116.354 125.454C115.252 122.508 114.378 119 115.476 117.166C115.53 117.08 115.583 116.999 115.643 116.92C116.141 116.277 117.431 115.797 119.184 115.442C120.254 115.222 121.502 115.051 122.845 114.919C126.912 114.518 131.878 114.457 135.678 114.496C139.115 114.525 141.596 114.632 141.596 114.632L141.632 115.765L141.635 115.875L141.66 116.736L141.72 118.79L141.873 123.865L142.03 129.022L142.104 131.421Z" fill="#2F2E41"/>
<path d="M142.03 129.022L136.496 140.122L132.994 144.831L127.979 151.584L120.326 161.881L108.19 178.212C102.353 177.757 96.6303 177.213 91.0459 176.595L105.901 151.584L109.91 144.831L113.781 138.316L116.241 128.127C116.241 128.127 116.241 127.583 116.28 126.712C116.298 126.346 116.323 125.92 116.355 125.454C116.572 122.344 117.23 117.386 119.185 115.442C119.448 115.175 119.736 114.969 120.048 114.827C120.635 114.564 121.612 114.628 122.846 114.919C125.896 115.648 130.503 117.795 134.64 119.927C137.502 121.406 140.136 122.874 141.874 123.865L142.03 129.022Z" fill="#2F2E41"/>
<path d="M115.263 55.9966L127.983 62.1018C127.983 62.1018 141.468 102.04 141.468 104.075C141.468 106.11 145.284 107.382 142.994 109.672C140.704 111.961 147.256 113.9 143.726 115.729C140.196 117.558 118.173 127.561 115.725 126.659C108.971 124.171 116.011 115.029 116.011 115.029C116.011 115.029 110.937 110.944 111.701 108.909C112.464 106.874 107.121 67.9527 107.121 67.9527L115.263 55.9966Z" fill="#008950"/>
<path d="M124.384 46.1303L127.194 47.7027C127.194 47.7027 125.47 42.6056 126.729 40.3575C127.987 38.1095 127.253 36.5184 127.253 36.5184C127.253 36.5184 131.741 37.9958 132.922 36.1478C134.104 34.2999 134.495 33.3378 130.646 31.7747C126.797 30.2117 128.245 31.317 128.245 31.317C128.245 31.317 124.958 30.0685 125.682 30.6211C126.406 31.1738 122.957 29.6871 123.443 30.4016C123.929 31.1162 121.28 29.782 121.766 30.4966C122.252 31.2112 115.63 32.2294 116.992 32.6964C118.355 33.1635 111.409 33.7053 111.617 39.1355C111.826 44.5657 108.044 46.106 110.835 47.6844C113.626 49.2627 117.522 56.0177 117.522 56.0177L120.807 53.7848C120.807 53.7848 119.82 45.053 124.384 46.1303Z" fill="#2F2E41"/>
<path d="M100.529 104.312C103.793 103.889 106.222 101.862 105.952 99.7846C105.683 97.7073 102.818 96.3666 99.552 96.79C98.2452 96.9413 96.9935 97.4033 95.9018 98.1373L82.0918 100.104L83.1528 106.564L96.6544 103.939C97.8976 104.371 99.2261 104.499 100.529 104.312Z" fill="#A0616A"/>
<path d="M58.3095 75.9638L62.0974 104.158C62.0974 104.158 63.1394 110.222 72.6237 109.329C82.1081 108.437 94.572 104.759 94.572 104.759L93.7609 98.175L83.1676 99.3224C83.1676 99.3224 78.2227 98.1229 77.241 98.9319C76.2593 99.7408 76.7102 100.688 75.7394 99.51C74.7685 98.3321 75.256 97.6008 74.406 98.6308C73.556 99.6609 73.3833 101.451 72.8742 99.2338C72.3651 97.0162 71.418 97.467 71.418 97.467L70.879 76.814C70.879 76.814 68.0335 66.962 62.836 70.2559C57.6386 73.5498 58.3095 75.9638 58.3095 75.9638Z" fill="#E6E6E6"/>
<path d="M74.9125 53.4688H56.1523V81.1852H74.9125V53.4688Z" fill="#2F2E41"/>
<path d="M60.3633 72.7344L61.0203 64.7959H69.7558L71.6924 73.2065L60.3633 72.7344Z" fill="#A0616A"/>
<path opacity="0.1" d="M60.3633 72.7344L61.0203 64.7959H69.7558L71.6924 73.2065L60.3633 72.7344Z" fill="black"/>
<path d="M76.189 59.3034C77.0338 54.0986 73.4986 49.1946 68.2931 48.3499C63.0876 47.5053 58.1829 51.0399 57.3381 56.2448C56.4934 61.4496 60.0285 66.3537 65.234 67.1983C70.4396 68.0429 75.3443 64.5083 76.189 59.3034Z" fill="#A0616A"/>
<path d="M69.1717 47.7298C69.1717 47.7298 69.1717 43.8103 65.5317 44.6502C61.8916 45.4901 60.7716 46.8899 60.7716 46.8899C60.7716 46.8899 59.3716 49.1296 57.1316 49.4096C54.8916 49.6896 52.9315 56.1288 53.2115 57.5286C53.4915 58.9284 54.8916 62.5679 52.9315 64.2477C50.9715 65.9275 48.1715 68.4472 49.0115 70.9669C49.8515 73.4866 52.3715 79.9257 52.3715 79.9257C52.3715 79.9257 45.3428 80.953 45.9172 85.3388C45.9172 85.3388 49.2915 82.7254 53.7716 82.7254C58.2516 82.7254 57.6916 74.5987 57.6916 74.5987C57.6916 74.5987 57.9716 69.5671 58.8116 68.1672C59.6516 66.7674 58.5316 58.9284 62.7316 54.7289C66.9317 50.5295 69.1717 47.7298 69.1717 47.7298Z" fill="#2F2E41"/>
<path d="M68.0521 46.8897C68.0521 46.8897 73.3722 48.0095 75.3322 53.3288C77.2922 58.6482 76.3023 59.638 76.3023 59.638C76.3023 59.638 76.7356 62.841 79.1139 63.9642C81.4922 65.0873 79.5322 69.8467 79.5322 69.8467C79.5322 69.8467 80.0922 74.6061 87.6523 76.2859C95.2124 77.9657 78.1718 90.8472 78.1718 90.8472C78.1718 90.8472 79.397 84.7675 71.5569 84.4875C63.7168 84.2076 73.0922 69.8467 73.0922 69.8467L73.9322 60.6079C73.9322 60.6079 72.2522 49.9693 67.2121 48.5694C62.1721 47.1696 68.0521 46.8897 68.0521 46.8897Z" fill="#2F2E41"/>
<path d="M81.6073 131.677L79.6736 144.831L78.6819 151.584L77.0005 163.007L75.2978 174.583C73.2823 174.292 71.2917 173.99 69.326 173.677C65.9491 173.14 62.6433 172.575 59.4085 171.978L60.0377 157.289L60.283 151.584L60.5744 144.831L60.7451 140.833L58.0862 130.693C58.0862 130.693 52.6014 120.482 55.1465 117.176C55.2638 117.027 55.4202 116.885 55.6193 116.753C56.2662 116.316 57.3326 115.968 58.6727 115.698C61.8399 115.051 66.5321 114.816 70.8083 114.756C76.2967 114.678 81.0955 114.887 81.0955 114.887L81.1239 115.722L81.1772 117.535L81.6073 131.677Z" fill="#2F2E41"/>
<path d="M81.6077 131.677L79.6739 144.831L78.6822 151.584L77.0009 163.007L69.3263 173.677C65.9494 173.14 62.6436 172.575 59.4088 171.978C57.0308 171.541 54.6954 171.086 52.3955 170.617L60.038 157.289L63.3083 151.584L67.1758 144.831L69.0349 141.59L70.6522 138.768L71.8359 133.508L72.7459 129.474L72.9557 128.543C72.9557 128.543 72.9343 127.078 73.073 125.113C73.2862 122.134 73.8727 117.997 75.4866 116.053C75.7994 115.669 76.1549 115.374 76.5565 115.186C77.3954 114.791 79.0519 115.062 81.1243 115.723L81.1776 117.535L81.6077 131.677Z" fill="#2F2E41"/>
<path d="M72.3204 72.786L72.0874 72.7202L60.6171 69.479L51.458 81.9439L57.5641 107.891L55.2743 118.321C55.2743 118.321 73.8469 113.488 81.2251 117.558C81.2251 117.558 81.7339 115.238 81.2251 114.108C80.7162 112.979 79.953 108.278 80.7162 106.177C81.4795 104.075 79.1897 94.1543 79.1897 94.1543C79.1897 94.1543 79.953 87.5403 76.6455 84.2333C73.3381 80.9263 72.3204 72.786 72.3204 72.786Z" fill="#E6E6E6"/>
<path d="M69.1367 142.004C69.9592 145.191 72.2706 147.35 74.2991 146.826C76.3276 146.303 77.3047 143.295 76.4815 140.107C76.1702 138.829 75.5572 137.644 74.694 136.651L71.0385 123.191L64.7578 125.041L69.0283 138.114C68.7532 139.4 68.7903 140.734 69.1367 142.004Z" fill="#A0616A"/>
<path d="M70.8016 84.2427C70.8016 84.2427 67.2441 74.6305 63.3452 75.2563C59.4463 75.8822 55.8916 81.9243 55.8916 81.9243L58.7101 116.118L66.452 135.631L74.6641 132.394L70.3985 112.893L70.8016 84.2427Z" fill="#E6E6E6"/>
<path opacity="0.7" d="M248.666 24.8779V172.245C248.549 172.27 248.432 172.291 248.311 172.309C246.508 172.636 244.681 172.948 242.833 173.254C240.636 173.617 238.407 173.969 236.15 174.306C234.273 174.583 232.379 174.853 230.463 175.113C224.885 175.877 219.152 176.556 213.28 177.146C211.399 177.338 209.501 177.519 207.592 177.69C190.903 179.19 173.165 180 154.773 180C152.168 180 149.58 179.982 147.003 179.95C146.882 179.95 146.765 179.95 146.647 179.947V24.8779H248.666Z" fill="#F2F2F2"/>
<path d="M248.311 73.4954V73.9326L248.357 73.8402C248.353 73.7265 248.336 73.6127 248.311 73.4954ZM146.647 119.927L146.292 119.639V151.584H146.647V179.947C146.765 179.95 146.882 179.95 147.003 179.95V98.3818C146.886 98.4458 146.768 98.5062 146.647 98.5666V119.927ZM146.292 24.5225V179.939C146.409 179.943 146.527 179.947 146.647 179.947C146.765 179.95 146.882 179.95 147.003 179.95V25.2333H248.311V172.309C248.432 172.291 248.549 172.27 248.666 172.245C248.783 172.227 248.904 172.206 249.022 172.181V24.5225H146.292Z" fill="#0BCA7A"/>
<path d="M155.355 136.303C159.085 136.303 162.109 133.28 162.109 129.55C162.109 125.821 159.085 122.797 155.355 122.797C151.625 122.797 148.602 125.821 148.602 129.55C148.602 133.28 151.625 136.303 155.355 136.303Z" fill="#0BCA7A"/>
<path d="M154.481 127.679C156.905 129.906 160.02 130.46 161.437 128.917C162.853 127.374 162.037 124.318 159.611 122.091C158.654 121.188 157.495 120.528 156.231 120.165L145.839 110.86L141.576 115.829L152.273 124.474C152.742 125.703 153.499 126.802 154.481 127.679Z" fill="#FFB6B6"/>
<path d="M124.447 78.3099C124.447 78.3099 116.231 72.1804 113.3 74.8265C110.37 77.4727 110.675 84.476 110.675 84.476L131.647 111.632L148.761 123.792L153.89 116.608L139.699 102.567L124.447 78.3099Z" fill="#0BCA7A"/>
<path d="M213.279 139.5V177.146C211.399 177.338 209.501 177.519 207.592 177.69V139.5H213.279Z" fill="#0BCA7A"/>
<path d="M5.68745 139.5V156.596C3.70039 155.718 1.80219 154.815 0 153.894V139.5H5.68745Z" fill="#0BCA7A"/>
<path d="M211.145 144.832H3.9082V151.585H211.145V144.832Z" fill="#0BCA7A"/>
<path d="M257.067 45.021C257.067 45.021 253.275 47.2443 254.519 49.443C255.762 51.6418 257.496 54.6367 256.32 55.5799C255.144 56.5231 253.202 60.6818 253.202 60.6818C253.202 60.6818 244.914 59.5244 245.692 65.9614C246.47 72.3983 250.364 73.2759 247.027 76.1077C243.689 78.9395 250.495 82.3263 250.495 82.3263C250.495 82.3263 255.193 80.8624 256.265 76.3608C257.337 71.8591 255.309 79.8028 255.989 80.3724C256.669 80.942 259.309 84.6963 261.178 79.7047C263.046 74.7131 261.196 72.7778 263.664 69.8318C266.133 66.8858 267.811 62.1208 267.738 61.2878C267.664 60.4549 270.561 52.8541 266.102 49.8899C261.642 46.9257 257.067 45.021 257.067 45.021Z" fill="#2F2E41"/>
<path d="M224.882 115.218C222.982 117.359 220.336 118.114 218.973 116.904C217.61 115.695 218.047 112.979 219.948 110.837C220.696 109.971 221.641 109.296 222.703 108.87L230.871 99.8984L235 103.821L226.509 112.249C226.212 113.354 225.654 114.372 224.882 115.218Z" fill="#FFB6B6"/>
<path d="M248.769 73.0065C248.769 73.0065 253.723 68.4562 255.813 69.988C257.903 71.5198 258.171 76.1123 258.171 76.1123L246.294 95.2415L229.163 109.679L225.335 105.331L240.432 89.8613L248.769 73.0065Z" fill="#0BCA7A"/>
<path d="M258.808 62.6966L256.124 72.2341H270.853L266.003 60.4824L258.808 62.6966Z" fill="#FFB6B6"/>
<path opacity="0.1" d="M258.808 62.6966L256.124 72.2341H270.853L266.003 60.4824L258.808 62.6966Z" fill="black"/>
<path d="M266.276 94.1709L274.913 114.571L245.685 113.128L247.671 94.1709H266.276Z" fill="#FFB6B6"/>
<path d="M257.828 67.351L270.016 66.8433L278.141 81.0602L271.031 103.909L246.148 106.448L248.843 84.4121L250.211 71.9207L257.828 67.351Z" fill="#0BCA7A"/>
<path d="M278.141 133.711C277.554 136.55 276.918 140.442 276.296 144.661C275.972 146.857 275.653 149.143 275.347 151.414C274.558 157.239 273.854 162.972 273.388 166.875C269.521 167.877 265.5 168.833 261.338 169.736L259.187 151.414L258.395 144.661L257.574 137.673L257.204 144.661L256.845 151.414L255.814 170.887C253.585 171.335 251.321 171.765 249.021 172.181C248.904 172.206 248.783 172.227 248.666 172.245C248.548 172.27 248.431 172.291 248.31 172.309C246.508 172.636 244.681 172.949 242.832 173.254L242.527 151.414L242.431 144.661L242.086 120.159L245.09 110.235L245.996 110.154L248.31 109.944L248.666 109.912L249.021 109.876L272.041 107.786L272.809 107.715C272.809 107.715 273.356 108.785 274.11 110.566C274.174 110.715 274.241 110.871 274.309 111.031C274.959 112.595 275.734 114.625 276.442 116.917C277.377 119.931 278.198 123.4 278.471 126.851C278.656 129.193 278.592 131.525 278.141 133.711Z" fill="#2F2E41"/>
<path d="M279.04 124.447C278.826 127.302 277.179 129.506 275.361 129.369C273.544 129.233 272.245 126.808 272.46 123.952C272.53 122.81 272.872 121.701 273.459 120.718L274.519 108.632L280.181 109.251L278.535 121.1C278.968 122.159 279.141 123.307 279.04 124.447Z" fill="#FFB6B6"/>
<path d="M272.456 76.3963C272.456 76.3963 273.639 69.775 276.23 69.7271C278.821 69.6791 281.818 73.1696 281.818 73.1696L283.964 95.583L279.087 117.447L273.407 116.309L276.04 94.8553L272.456 76.3963Z" fill="#0BCA7A"/>
<path d="M262.308 64.769C267.207 64.769 271.178 60.7981 271.178 55.8999C271.178 51.0016 267.207 47.0308 262.308 47.0308C257.409 47.0308 253.438 51.0016 253.438 55.8999C253.438 60.7981 257.409 64.769 262.308 64.769Z" fill="#FFB6B6"/>
<path d="M258.907 45.9964C258.907 45.9964 257.429 50.1353 259.794 51.0222C262.16 51.9091 265.412 53.0917 265.117 54.5699C264.821 56.048 266.004 60.4826 266.004 60.4826C266.004 60.4826 258.907 64.9171 263.638 69.3517C268.369 73.7862 271.917 71.9589 271.178 76.2724C270.439 80.5859 277.831 78.8121 277.831 78.8121C277.831 78.8121 280.492 74.6732 278.422 70.5342C276.352 66.3953 279.901 73.7862 280.788 73.7862C281.675 73.7862 286.11 74.9688 284.336 69.943C282.562 64.9171 279.901 64.6215 279.901 60.7782C279.901 56.935 278.126 52.2048 277.535 51.6135C276.944 51.0222 274.283 43.3357 268.96 43.9269C263.638 44.5182 258.907 45.9964 258.907 45.9964Z" fill="#2F2E41"/>
<path d="M219.189 102.903L212.03 105.017L216.963 121.719L224.123 119.605L219.189 102.903Z" fill="#0BCA7A"/>
<path d="M101.886 88.6863L94.7266 90.8003L99.6598 107.503L106.819 105.389L101.886 88.6863Z" fill="#0BCA7A"/>
<path d="M236.15 139.33V174.306C234.273 174.583 232.379 174.854 230.463 175.113V139.33H236.15Z" fill="#0BCA7A"/>
<path d="M307 144.66H234.373V151.413H307V144.66Z" fill="#0BCA7A"/>
<path d="M124.007 27.213C128.734 27.213 132.566 23.3814 132.566 18.6549C132.566 13.9283 128.734 10.0967 124.007 10.0967C119.279 10.0967 115.447 13.9283 115.447 18.6549C115.447 23.3814 119.279 27.213 124.007 27.213Z" fill="#E6E6E6"/>
<path d="M267.368 40.7116C272.095 40.7116 275.927 36.88 275.927 32.1534C275.927 27.4268 272.095 23.5952 267.368 23.5952C262.641 23.5952 258.809 27.4268 258.809 32.1534C258.809 36.88 262.641 40.7116 267.368 40.7116Z" fill="#E6E6E6"/>
<path d="M126.347 20.8346C125.889 20.8108 125.43 20.8003 124.972 20.7967C125.276 19.0848 125.58 17.3729 125.885 15.661C125.955 15.2677 125.838 14.8692 125.476 14.6575C125.131 14.4556 124.685 14.5234 124.399 14.7965C123.554 15.6045 122.709 16.4124 121.865 17.2204C121.518 17.5521 121.53 18.143 121.865 18.477C122.211 18.8235 122.773 18.8097 123.121 18.477C123.308 18.2984 123.495 18.1198 123.682 17.9413L123.167 20.8358C122.666 20.8608 122.165 20.8934 121.665 20.9426C121.187 20.9895 120.776 21.3173 120.776 21.8311C120.776 22.3216 121.183 22.7089 121.665 22.7196C122.403 22.7361 123.142 22.7525 123.88 22.7689C124.064 22.773 124.266 22.6989 124.43 22.5761C125.069 22.57 125.708 22.5785 126.347 22.6117C126.827 22.6366 127.236 22.1855 127.236 21.7231C127.236 21.2213 126.829 20.8595 126.347 20.8346Z" fill="white"/>
<path d="M193.042 17.1164C197.769 17.1164 201.601 13.2847 201.601 8.55818C201.601 3.83163 197.769 0 193.042 0C188.315 0 184.482 3.83163 184.482 8.55818C184.482 13.2847 188.315 17.1164 193.042 17.1164Z" fill="#0BCA7A"/>
<path d="M195.383 10.7379C194.924 10.7141 194.465 10.7036 194.007 10.7C194.311 8.98811 194.616 7.27619 194.92 5.56428C194.99 5.17106 194.874 4.77256 194.511 4.56086C194.166 4.35891 193.72 4.42675 193.435 4.6998C192.59 5.50778 191.745 6.31575 190.9 7.12373C190.553 7.45546 190.566 8.04631 190.9 8.38032C191.246 8.72686 191.809 8.713 192.156 8.38032C192.343 8.20174 192.53 8.02316 192.717 7.84459L192.202 10.7392C191.701 10.7642 191.2 10.7968 190.7 10.8459C190.223 10.8928 189.812 11.2207 189.812 11.7344C189.812 12.2249 190.218 12.6122 190.7 12.623C191.439 12.6394 192.177 12.6558 192.915 12.6723C193.099 12.6764 193.301 12.6022 193.465 12.4794C194.104 12.4734 194.743 12.4819 195.383 12.515C195.862 12.5399 196.271 12.0888 196.271 11.6265C196.271 11.1246 195.864 10.7629 195.383 10.7379Z" fill="white"/>
<path d="M67.2175 40.6955C71.9447 40.6955 75.7769 36.8638 75.7769 32.1373C75.7769 27.4107 71.9447 23.5791 67.2175 23.5791C62.4904 23.5791 58.6582 27.4107 58.6582 32.1373C58.6582 36.8638 62.4904 40.6955 67.2175 40.6955Z" fill="#E6E6E6"/>
<path d="M69.8208 34.5633C69.085 34.183 68.2816 33.9804 67.4747 33.952C68.1039 32.939 68.5376 31.8017 68.7082 30.6288C68.8077 29.9286 68.8184 29.2285 68.3243 28.6634C67.9475 28.2297 67.4036 28.0627 66.8527 28.0094C66.4048 27.9667 65.8716 27.9952 65.4486 28.1373C64.7057 28.379 64.4604 29.0188 64.4781 29.7474C64.4959 30.4405 64.6026 31.1442 65.0682 31.6879C65.3881 32.0612 65.8538 32.3064 66.3408 32.3455C65.8929 33.2696 65.2495 34.087 64.4355 34.773C64.0978 35.0538 64.1085 35.6189 64.3644 35.9388C64.6417 36.2871 65.1144 36.3866 65.5126 36.1662C66.5576 35.5833 67.8657 35.5513 68.925 36.0987C69.3516 36.3191 69.8884 36.2089 70.1407 35.7788C70.3753 35.3807 70.2509 34.7836 69.8208 34.5633ZM66.9984 30.0139C66.9984 30.0708 66.9949 30.1241 66.9877 30.181C66.9842 30.213 66.9806 30.2414 66.9806 30.2592C66.9771 30.277 66.9771 30.2912 66.9735 30.2947V30.2983C66.9593 30.3871 66.938 30.4724 66.9238 30.5577C66.7816 30.5186 66.6323 30.5151 66.4865 30.5648C66.4723 30.5684 66.4652 30.5684 66.4545 30.572H66.4439C66.4154 30.5506 66.3941 30.5328 66.451 30.5684C66.419 30.5328 66.4012 30.5115 66.3906 30.5044L66.3657 30.4582C66.3692 30.4724 66.3692 30.4831 66.3692 30.4866C66.3621 30.476 66.3515 30.444 66.3337 30.3871C66.3159 30.3232 66.2981 30.2556 66.2839 30.1881C66.2626 30.0815 66.259 29.9429 66.2555 29.7865C66.2697 29.7865 66.2839 29.7829 66.2875 29.7829C66.3906 29.7758 66.4901 29.7723 66.5932 29.7723C66.6607 29.7723 66.7283 29.7794 66.7958 29.7829C66.8136 29.79 66.9273 29.8149 66.97 29.8256C66.9771 29.8327 66.9877 29.8398 66.9949 29.8433C67.002 29.854 67.0055 29.8611 67.0162 29.8718L66.9984 30.0139Z" fill="white"/>
<path d="M268.562 32.0396C269.159 31.5811 269.631 30.9058 269.582 30.1239C269.489 28.6809 268.075 28.0233 266.823 27.7816C266.351 27.6892 265.864 27.9132 265.728 28.4001C265.611 28.8372 265.878 29.4024 266.351 29.4948C266.553 29.5339 266.756 29.5801 266.958 29.6405C267.061 29.6689 267.165 29.7045 267.264 29.7471C267.292 29.7613 267.396 29.8075 267.413 29.8182C267.495 29.8609 267.58 29.9106 267.659 29.9675C267.666 29.9781 267.708 30.0172 267.737 30.0457C267.673 29.9959 267.794 30.1843 267.794 30.1381C267.801 30.1558 267.804 30.1701 267.808 30.1843V30.2163C267.808 30.2198 267.787 30.2909 267.794 30.2909C267.737 30.3833 267.715 30.426 267.68 30.4615C267.527 30.6321 267.42 30.6961 267.197 30.8027C266.678 31.055 266.105 31.1901 265.586 31.4531C264.683 31.9152 265.313 33.3546 266.272 33.0774C266.319 33.0667 266.361 33.0525 266.407 33.0418C266.432 33.0383 266.475 33.0312 266.503 33.0312C266.564 33.0312 266.621 33.0312 266.678 33.0347H266.699C266.816 33.0596 266.933 33.088 267.044 33.1342C267.058 33.1413 267.079 33.152 267.097 33.1662C267.147 33.1947 267.2 33.2266 267.25 33.2551L267.307 33.2942L267.31 33.2977C267.356 33.3333 267.396 33.3759 267.438 33.415C267.445 33.4221 267.484 33.4683 267.506 33.4897C267.524 33.5145 267.559 33.5607 267.563 33.5679C267.595 33.6212 267.627 33.678 267.655 33.7349C267.659 33.7456 267.662 33.7633 267.666 33.7811C267.673 33.8167 267.684 33.8557 267.694 33.8948C267.691 33.909 267.698 33.9695 267.698 34.0086C267.698 34.0192 267.698 34.0263 267.701 34.0335C267.691 34.0797 267.676 34.1259 267.666 34.1721C267.662 34.1827 267.662 34.1863 267.662 34.1898C267.63 34.2503 267.595 34.3071 267.563 34.364C267.559 34.3711 267.552 34.3746 267.548 34.3818V34.3853C267.509 34.4244 267.477 34.46 267.438 34.4991C267.413 34.5239 267.381 34.5488 267.353 34.5737C267.332 34.5843 267.275 34.627 267.26 34.6341C267.211 34.659 267.165 34.6874 267.115 34.7123H267.111C267.108 34.7158 267.104 34.7158 267.101 34.7158C267.033 34.7372 266.969 34.7549 266.905 34.7727H266.894C266.834 34.7727 266.692 34.7549 266.692 34.7621C266.67 34.7585 266.642 34.7514 266.624 34.7478C266.585 34.7265 266.51 34.6874 266.51 34.6874C265.526 34.0974 264.63 35.6364 265.611 36.2228C267.204 37.1753 269.372 35.8958 269.471 34.0903C269.518 33.2693 269.141 32.5478 268.562 32.0396Z" fill="white"/>
</svg>
