<svg width="260" height="181" viewBox="0 0 260 181" fill="none" xmlns="http://www.w3.org/2000/svg">
<path d="M259.663 169.794H0V169.924H259.663V169.794Z" fill="#EBEBEB"/>
<path d="M233.644 178.15H216.444V178.28H233.644V178.15Z" fill="#EBEBEB"/>
<path d="M172.01 179.562H167.498V179.693H172.01V179.562Z" fill="#EBEBEB"/>
<path d="M215.924 173.33H205.959V173.46H215.924V173.33Z" fill="#EBEBEB"/>
<path d="M49.6719 174.204H27.2432V174.334H49.6719V174.204Z" fill="#EBEBEB"/>
<path d="M57.5873 174.204H54.2998V174.334H57.5873V174.204Z" fill="#EBEBEB"/>
<path d="M116.925 176.394H68.2754V176.524H116.925V176.394Z" fill="#EBEBEB"/>
<path d="M231.319 32.0586H105.496V153.342H231.319V32.0586Z" fill="#E0E0E0"/>
<path d="M231.319 34.2603H107.517V151.222H231.319V34.2603Z" fill="white"/>
<path d="M108.43 122.898V87.7128H112.08V83.0644L120.307 79.2234V74.4661H121.677V87.7128H123.05V122.898H124.876V104.619H128.99V95.0257H130.36V122.898H133.553V112.386H135.84V109.646H140.866V100.052H143.609V93.6557H146.806V84.0594H148.179V93.6557H151.379V100.052H154.116V109.646H159.143V112.386H161.426V122.898H164.169V109.646H169.195V80.406H170.569V77.2062H181.529V80.406H183.815V101.425H192.955V103.703H196.149V105.076H192.955V113.302H202.548V85.8861H204.375V80.406H208.945V59.3896H210.315V80.406H213.515V85.8861H231.319V151.221H107.517V122.898H108.43Z" fill="#E6E6E6"/>
<path d="M221.804 87.3196H220.51V88.614H221.804V87.3196Z" fill="#F0F0F0"/>
<path d="M221.804 89.4912H220.51V90.7856H221.804V89.4912Z" fill="#F0F0F0"/>
<path d="M221.804 98.1743H220.51V99.4687H221.804V98.1743Z" fill="#F0F0F0"/>
<path d="M221.804 100.34H220.51V101.634H221.804V100.34Z" fill="#F0F0F0"/>
<path d="M221.804 102.508H220.51V103.803H221.804V102.508Z" fill="#F0F0F0"/>
<path d="M221.804 109.023H220.51V110.317H221.804V109.023Z" fill="#F0F0F0"/>
<path d="M221.804 111.194H220.51V112.489H221.804V111.194Z" fill="#F0F0F0"/>
<path d="M219.748 96.0029H218.453V97.2974H219.748V96.0029Z" fill="#F0F0F0"/>
<path d="M219.748 98.1743H218.453V99.4687H219.748V98.1743Z" fill="#F0F0F0"/>
<path d="M219.748 100.34H218.453V101.634H219.748V100.34Z" fill="#F0F0F0"/>
<path d="M219.748 102.508H218.453V103.803H219.748V102.508Z" fill="#F0F0F0"/>
<path d="M219.748 104.68H218.453V105.974H219.748V104.68Z" fill="#F0F0F0"/>
<path d="M219.748 109.023H218.453V110.317H219.748V109.023Z" fill="#F0F0F0"/>
<path d="M219.748 111.194H218.453V112.489H219.748V111.194Z" fill="#F0F0F0"/>
<path d="M217.691 87.3196H216.396V88.614H217.691V87.3196Z" fill="#F0F0F0"/>
<path d="M217.691 89.4912H216.396V90.7856H217.691V89.4912Z" fill="#F0F0F0"/>
<path d="M217.691 91.6597H216.396V92.9541H217.691V91.6597Z" fill="#F0F0F0"/>
<path d="M217.691 93.8315H216.396V95.126H217.691V93.8315Z" fill="#F0F0F0"/>
<path d="M217.691 96.0029H216.396V97.2974H217.691V96.0029Z" fill="#F0F0F0"/>
<path d="M217.691 98.1743H216.396V99.4687H217.691V98.1743Z" fill="#F0F0F0"/>
<path d="M217.691 100.34H216.396V101.634H217.691V100.34Z" fill="#F0F0F0"/>
<path d="M217.691 102.508H216.396V103.803H217.691V102.508Z" fill="#F0F0F0"/>
<path d="M217.691 104.68H216.396V105.974H217.691V104.68Z" fill="#F0F0F0"/>
<path d="M217.691 106.851H216.396V108.146H217.691V106.851Z" fill="#F0F0F0"/>
<path d="M217.691 111.194H216.396V112.489H217.691V111.194Z" fill="#F0F0F0"/>
<path d="M215.634 87.3196H214.34V88.614H215.634V87.3196Z" fill="#F0F0F0"/>
<path d="M215.634 89.4912H214.34V90.7856H215.634V89.4912Z" fill="#F0F0F0"/>
<path d="M215.634 91.6597H214.34V92.9541H215.634V91.6597Z" fill="#F0F0F0"/>
<path d="M215.634 93.8315H214.34V95.126H215.634V93.8315Z" fill="#F0F0F0"/>
<path d="M215.634 96.0029H214.34V97.2974H215.634V96.0029Z" fill="#F0F0F0"/>
<path d="M215.634 98.1743H214.34V99.4687H215.634V98.1743Z" fill="#F0F0F0"/>
<path d="M215.634 100.34H214.34V101.634H215.634V100.34Z" fill="#F0F0F0"/>
<path d="M215.634 119.877H214.34V121.171H215.634V119.877Z" fill="#F0F0F0"/>
<path d="M213.578 87.3196H212.283V88.614H213.578V87.3196Z" fill="#F0F0F0"/>
<path d="M213.578 89.4912H212.283V90.7856H213.578V89.4912Z" fill="#F0F0F0"/>
<path d="M213.578 91.6597H212.283V92.9541H213.578V91.6597Z" fill="#F0F0F0"/>
<path d="M213.578 93.8315H212.283V95.126H213.578V93.8315Z" fill="#F0F0F0"/>
<path d="M213.578 96.0029H212.283V97.2974H213.578V96.0029Z" fill="#F0F0F0"/>
<path d="M213.578 98.1743H212.283V99.4687H213.578V98.1743Z" fill="#F0F0F0"/>
<path d="M213.578 100.34H212.283V101.634H213.578V100.34Z" fill="#F0F0F0"/>
<path d="M213.578 102.508H212.283V103.803H213.578V102.508Z" fill="#F0F0F0"/>
<path d="M213.578 115.534H212.283V116.829H213.578V115.534Z" fill="#F0F0F0"/>
<path d="M213.578 117.706H212.283V119H213.578V117.706Z" fill="#F0F0F0"/>
<path d="M213.578 119.877H212.283V121.171H213.578V119.877Z" fill="#F0F0F0"/>
<path d="M213.578 122.042H212.283V123.337H213.578V122.042Z" fill="#F0F0F0"/>
<path d="M213.578 130.726H212.283V132.02H213.578V130.726Z" fill="#F0F0F0"/>
<path d="M211.521 87.3196H210.227V88.614H211.521V87.3196Z" fill="#F0F0F0"/>
<path d="M211.521 89.4912H210.227V90.7856H211.521V89.4912Z" fill="#F0F0F0"/>
<path d="M211.521 91.6597H210.227V92.9541H211.521V91.6597Z" fill="#F0F0F0"/>
<path d="M211.521 93.8315H210.227V95.126H211.521V93.8315Z" fill="#F0F0F0"/>
<path d="M211.521 96.0029H210.227V97.2974H211.521V96.0029Z" fill="#F0F0F0"/>
<path d="M211.521 98.1743H210.227V99.4687H211.521V98.1743Z" fill="#F0F0F0"/>
<path d="M211.521 100.34H210.227V101.634H211.521V100.34Z" fill="#F0F0F0"/>
<path d="M211.521 102.508H210.227V103.803H211.521V102.508Z" fill="#F0F0F0"/>
<path d="M211.521 104.68H210.227V105.974H211.521V104.68Z" fill="#F0F0F0"/>
<path d="M211.521 106.851H210.227V108.146H211.521V106.851Z" fill="#F0F0F0"/>
<path d="M211.521 113.363H210.227V114.657H211.521V113.363Z" fill="#F0F0F0"/>
<path d="M211.521 115.534H210.227V116.829H211.521V115.534Z" fill="#F0F0F0"/>
<path d="M211.521 117.706H210.227V119H211.521V117.706Z" fill="#F0F0F0"/>
<path d="M211.521 119.877H210.227V121.171H211.521V119.877Z" fill="#F0F0F0"/>
<path d="M211.521 122.042H210.227V123.337H211.521V122.042Z" fill="#F0F0F0"/>
<path d="M211.521 130.726H210.227V132.02H211.521V130.726Z" fill="#F0F0F0"/>
<path d="M209.464 87.3198H208.17V88.6143H209.464V87.3198Z" fill="#F0F0F0"/>
<path d="M209.464 89.4912H208.17V90.7856H209.464V89.4912Z" fill="#F0F0F0"/>
<path d="M209.464 91.6597H208.17V92.9541H209.464V91.6597Z" fill="#F0F0F0"/>
<path d="M209.464 93.8315H208.17V95.126H209.464V93.8315Z" fill="#F0F0F0"/>
<path d="M209.464 96.0029H208.17V97.2974H209.464V96.0029Z" fill="#F0F0F0"/>
<path d="M209.464 98.1743H208.17V99.4687H209.464V98.1743Z" fill="#F0F0F0"/>
<path d="M209.464 100.34H208.17V101.634H209.464V100.34Z" fill="#F0F0F0"/>
<path d="M209.464 102.508H208.17V103.803H209.464V102.508Z" fill="#F0F0F0"/>
<path d="M209.464 104.68H208.17V105.974H209.464V104.68Z" fill="#F0F0F0"/>
<path d="M209.464 106.851H208.17V108.146H209.464V106.851Z" fill="#F0F0F0"/>
<path d="M209.464 109.022H208.17V110.317H209.464V109.022Z" fill="#F0F0F0"/>
<path d="M209.464 111.194H208.17V112.489H209.464V111.194Z" fill="#F0F0F0"/>
<path d="M209.464 113.363H208.17V114.657H209.464V113.363Z" fill="#F0F0F0"/>
<path d="M209.464 115.534H208.17V116.829H209.464V115.534Z" fill="#F0F0F0"/>
<path d="M209.464 117.706H208.17V119H209.464V117.706Z" fill="#F0F0F0"/>
<path d="M209.464 119.877H208.17V121.171H209.464V119.877Z" fill="#F0F0F0"/>
<path d="M209.464 122.042H208.17V123.337H209.464V122.042Z" fill="#F0F0F0"/>
<path d="M209.464 124.211H208.17V125.505H209.464V124.211Z" fill="#F0F0F0"/>
<path d="M207.408 87.3198H206.113V88.6143H207.408V87.3198Z" fill="#F0F0F0"/>
<path d="M207.408 89.4912H206.113V90.7856H207.408V89.4912Z" fill="#F0F0F0"/>
<path d="M207.408 91.6597H206.113V92.9541H207.408V91.6597Z" fill="#F0F0F0"/>
<path d="M207.408 93.8315H206.113V95.126H207.408V93.8315Z" fill="#F0F0F0"/>
<path d="M207.408 96.0029H206.113V97.2974H207.408V96.0029Z" fill="#F0F0F0"/>
<path d="M207.408 98.1743H206.113V99.4687H207.408V98.1743Z" fill="#F0F0F0"/>
<path d="M207.408 100.34H206.113V101.634H207.408V100.34Z" fill="#F0F0F0"/>
<path d="M207.408 102.508H206.113V103.803H207.408V102.508Z" fill="#F0F0F0"/>
<path d="M207.408 104.68H206.113V105.974H207.408V104.68Z" fill="#F0F0F0"/>
<path d="M207.408 106.851H206.113V108.146H207.408V106.851Z" fill="#F0F0F0"/>
<path d="M207.408 113.363H206.113V114.657H207.408V113.363Z" fill="#F0F0F0"/>
<path d="M207.408 115.534H206.113V116.829H207.408V115.534Z" fill="#F0F0F0"/>
<path d="M207.408 117.706H206.113V119H207.408V117.706Z" fill="#F0F0F0"/>
<path d="M207.408 119.877H206.113V121.171H207.408V119.877Z" fill="#F0F0F0"/>
<path d="M205.358 87.3198H204.063V88.6143H205.358V87.3198Z" fill="#F0F0F0"/>
<path d="M205.358 89.4912H204.063V90.7856H205.358V89.4912Z" fill="#F0F0F0"/>
<path d="M205.358 91.6597H204.063V92.9541H205.358V91.6597Z" fill="#F0F0F0"/>
<path d="M205.358 93.8315H204.063V95.126H205.358V93.8315Z" fill="#F0F0F0"/>
<path d="M205.358 96.0029H204.063V97.2974H205.358V96.0029Z" fill="#F0F0F0"/>
<path d="M205.358 98.1743H204.063V99.4687H205.358V98.1743Z" fill="#F0F0F0"/>
<path d="M205.358 100.34H204.063V101.634H205.358V100.34Z" fill="#F0F0F0"/>
<path d="M205.358 102.508H204.063V103.803H205.358V102.508Z" fill="#F0F0F0"/>
<path d="M205.358 104.68H204.063V105.974H205.358V104.68Z" fill="#F0F0F0"/>
<path d="M205.358 106.851H204.063V108.146H205.358V106.851Z" fill="#F0F0F0"/>
<path d="M205.358 113.363H204.063V114.657H205.358V113.363Z" fill="#F0F0F0"/>
<path d="M205.358 115.534H204.063V116.829H205.358V115.534Z" fill="#F0F0F0"/>
<path d="M205.358 117.706H204.063V119H205.358V117.706Z" fill="#F0F0F0"/>
<path d="M182.207 81.6855H180.912V82.98H182.207V81.6855Z" fill="#F0F0F0"/>
<path d="M182.207 83.854H180.912V85.1484H182.207V83.854Z" fill="#F0F0F0"/>
<path d="M182.207 86.0254H180.912V87.3198H182.207V86.0254Z" fill="#F0F0F0"/>
<path d="M182.207 88.1968H180.912V89.4912H182.207V88.1968Z" fill="#F0F0F0"/>
<path d="M182.207 90.3682H180.912V91.6626H182.207V90.3682Z" fill="#F0F0F0"/>
<path d="M182.207 92.54H180.912V93.8345H182.207V92.54Z" fill="#F0F0F0"/>
<path d="M182.207 94.7056H180.912V96H182.207V94.7056Z" fill="#F0F0F0"/>
<path d="M182.207 96.874H180.912V98.1685H182.207V96.874Z" fill="#F0F0F0"/>
<path d="M182.207 103.388H180.912V104.683H182.207V103.388Z" fill="#F0F0F0"/>
<path d="M182.207 105.557H180.912V106.851H182.207V105.557Z" fill="#F0F0F0"/>
<path d="M180.15 81.6855H178.855V82.98H180.15V81.6855Z" fill="#F0F0F0"/>
<path d="M180.15 83.854H178.855V85.1484H180.15V83.854Z" fill="#F0F0F0"/>
<path d="M180.15 86.0254H178.855V87.3198H180.15V86.0254Z" fill="#F0F0F0"/>
<path d="M180.15 88.1968H178.855V89.4912H180.15V88.1968Z" fill="#F0F0F0"/>
<path d="M180.15 90.3682H178.855V91.6626H180.15V90.3682Z" fill="#F0F0F0"/>
<path d="M180.15 92.54H178.855V93.8345H180.15V92.54Z" fill="#F0F0F0"/>
<path d="M180.15 94.7056H178.855V96H180.15V94.7056Z" fill="#F0F0F0"/>
<path d="M180.15 96.874H178.855V98.1685H180.15V96.874Z" fill="#F0F0F0"/>
<path d="M180.15 105.557H178.855V106.851H180.15V105.557Z" fill="#F0F0F0"/>
<path d="M178.092 81.6855H176.798V82.98H178.092V81.6855Z" fill="#F0F0F0"/>
<path d="M178.092 83.854H176.798V85.1484H178.092V83.854Z" fill="#F0F0F0"/>
<path d="M178.092 86.0254H176.798V87.3198H178.092V86.0254Z" fill="#F0F0F0"/>
<path d="M178.092 88.1968H176.798V89.4912H178.092V88.1968Z" fill="#F0F0F0"/>
<path d="M178.092 90.3682H176.798V91.6626H178.092V90.3682Z" fill="#F0F0F0"/>
<path d="M178.092 92.54H176.798V93.8345H178.092V92.54Z" fill="#F0F0F0"/>
<path d="M178.092 94.7056H176.798V96H178.092V94.7056Z" fill="#F0F0F0"/>
<path d="M178.092 96.874H176.798V98.1685H178.092V96.874Z" fill="#F0F0F0"/>
<path d="M176.037 81.6855H174.742V82.98H176.037V81.6855Z" fill="#F0F0F0"/>
<path d="M176.037 83.854H174.742V85.1484H176.037V83.854Z" fill="#F0F0F0"/>
<path d="M176.037 86.0254H174.742V87.3198H176.037V86.0254Z" fill="#F0F0F0"/>
<path d="M176.037 88.1968H174.742V89.4912H176.037V88.1968Z" fill="#F0F0F0"/>
<path d="M176.037 90.3682H174.742V91.6626H176.037V90.3682Z" fill="#F0F0F0"/>
<path d="M176.037 92.54H174.742V93.8345H176.037V92.54Z" fill="#F0F0F0"/>
<path d="M176.037 96.874H174.742V98.1685H176.037V96.874Z" fill="#F0F0F0"/>
<path d="M176.037 99.0454H174.742V100.34H176.037V99.0454Z" fill="#F0F0F0"/>
<path d="M176.037 105.557H174.742V106.851H176.037V105.557Z" fill="#F0F0F0"/>
<path d="M176.037 107.728H174.742V109.022H176.037V107.728Z" fill="#F0F0F0"/>
<path d="M176.037 109.899H174.742V111.194H176.037V109.899Z" fill="#F0F0F0"/>
<path d="M176.037 112.071H174.742V113.366H176.037V112.071Z" fill="#F0F0F0"/>
<path d="M176.037 114.24H174.742V115.534H176.037V114.24Z" fill="#F0F0F0"/>
<path d="M176.037 116.408H174.742V117.703H176.037V116.408Z" fill="#F0F0F0"/>
<path d="M176.037 118.577H174.742V119.871H176.037V118.577Z" fill="#F0F0F0"/>
<path d="M173.98 81.6855H172.686V82.98H173.98V81.6855Z" fill="#F0F0F0"/>
<path d="M173.98 83.854H172.686V85.1484H173.98V83.854Z" fill="#F0F0F0"/>
<path d="M173.98 86.0254H172.686V87.3198H173.98V86.0254Z" fill="#F0F0F0"/>
<path d="M173.98 88.1968H172.686V89.4912H173.98V88.1968Z" fill="#F0F0F0"/>
<path d="M173.98 90.3682H172.686V91.6626H173.98V90.3682Z" fill="#F0F0F0"/>
<path d="M173.98 92.54H172.686V93.8345H173.98V92.54Z" fill="#F0F0F0"/>
<path d="M173.98 99.0454H172.686V100.34H173.98V99.0454Z" fill="#F0F0F0"/>
<path d="M173.98 101.217H172.686V102.511H173.98V101.217Z" fill="#F0F0F0"/>
<path d="M173.98 103.388H172.686V104.683H173.98V103.388Z" fill="#F0F0F0"/>
<path d="M173.98 105.557H172.686V106.851H173.98V105.557Z" fill="#F0F0F0"/>
<path d="M173.98 107.728H172.686V109.022H173.98V107.728Z" fill="#F0F0F0"/>
<path d="M173.98 109.899H172.686V111.194H173.98V109.899Z" fill="#F0F0F0"/>
<path d="M173.98 112.071H172.686V113.366H173.98V112.071Z" fill="#F0F0F0"/>
<path d="M173.98 114.24H172.686V115.534H173.98V114.24Z" fill="#F0F0F0"/>
<path d="M173.98 116.408H172.686V117.703H173.98V116.408Z" fill="#F0F0F0"/>
<path d="M173.98 118.577H172.686V119.871H173.98V118.577Z" fill="#F0F0F0"/>
<path d="M173.98 120.749H172.686V122.043H173.98V120.749Z" fill="#F0F0F0"/>
<path d="M173.98 125.091H172.686V126.386H173.98V125.091Z" fill="#F0F0F0"/>
<path d="M171.923 81.6855H170.629V82.98H171.923V81.6855Z" fill="#F0F0F0"/>
<path d="M171.923 83.854H170.629V85.1484H171.923V83.854Z" fill="#F0F0F0"/>
<path d="M171.923 86.0254H170.629V87.3198H171.923V86.0254Z" fill="#F0F0F0"/>
<path d="M171.923 88.1968H170.629V89.4912H171.923V88.1968Z" fill="#F0F0F0"/>
<path d="M171.923 90.3682H170.629V91.6626H171.923V90.3682Z" fill="#F0F0F0"/>
<path d="M171.923 92.5398H170.629V93.8342H171.923V92.5398Z" fill="#F0F0F0"/>
<path d="M171.923 99.0452H170.629V100.34H171.923V99.0452Z" fill="#F0F0F0"/>
<path d="M171.923 101.217H170.629V102.511H171.923V101.217Z" fill="#F0F0F0"/>
<path d="M171.923 103.388H170.629V104.683H171.923V103.388Z" fill="#F0F0F0"/>
<path d="M171.923 105.557H170.629V106.851H171.923V105.557Z" fill="#F0F0F0"/>
<path d="M171.923 112.071H170.629V113.366H171.923V112.071Z" fill="#F0F0F0"/>
<path d="M171.923 114.24H170.629V115.534H171.923V114.24Z" fill="#F0F0F0"/>
<path d="M171.923 116.408H170.629V117.703H171.923V116.408Z" fill="#F0F0F0"/>
<path d="M171.923 118.577H170.629V119.871H171.923V118.577Z" fill="#F0F0F0"/>
<path d="M171.923 120.748H170.629V122.043H171.923V120.748Z" fill="#F0F0F0"/>
<path d="M171.923 125.091H170.629V126.385H171.923V125.091Z" fill="#F0F0F0"/>
<path d="M171.923 127.26H170.629V128.554H171.923V127.26Z" fill="#F0F0F0"/>
<path d="M153.269 101.867H151.975V103.162H153.269V101.867Z" fill="#F0F0F0"/>
<path d="M153.269 104.036H151.975V105.33H153.269V104.036Z" fill="#F0F0F0"/>
<path d="M153.269 106.207H151.975V107.501H153.269V106.207Z" fill="#F0F0F0"/>
<path d="M153.269 108.373H151.975V109.667H153.269V108.373Z" fill="#F0F0F0"/>
<path d="M153.269 110.544H151.975V111.838H153.269V110.544Z" fill="#F0F0F0"/>
<path d="M153.269 112.715H151.975V114.01H153.269V112.715Z" fill="#F0F0F0"/>
<path d="M153.269 114.884H151.975V116.178H153.269V114.884Z" fill="#F0F0F0"/>
<path d="M153.269 121.398H151.975V122.693H153.269V121.398Z" fill="#F0F0F0"/>
<path d="M153.269 123.567H151.975V124.861H153.269V123.567Z" fill="#F0F0F0"/>
<path d="M153.269 125.738H151.975V127.033H153.269V125.738Z" fill="#F0F0F0"/>
<path d="M151.212 101.867H149.918V103.161H151.212V101.867Z" fill="#F0F0F0"/>
<path d="M151.212 104.035H149.918V105.33H151.212V104.035Z" fill="#F0F0F0"/>
<path d="M151.212 106.207H149.918V107.501H151.212V106.207Z" fill="#F0F0F0"/>
<path d="M151.212 108.373H149.918V109.667H151.212V108.373Z" fill="#F0F0F0"/>
<path d="M151.212 110.544H149.918V111.838H151.212V110.544Z" fill="#F0F0F0"/>
<path d="M151.212 112.715H149.918V114.01H151.212V112.715Z" fill="#F0F0F0"/>
<path d="M151.212 114.884H149.918V116.178H151.212V114.884Z" fill="#F0F0F0"/>
<path d="M149.156 101.867H147.861V103.161H149.156V101.867Z" fill="#F0F0F0"/>
<path d="M149.156 104.035H147.861V105.33H149.156V104.035Z" fill="#F0F0F0"/>
<path d="M149.156 106.207H147.861V107.501H149.156V106.207Z" fill="#F0F0F0"/>
<path d="M149.156 108.373H147.861V109.667H149.156V108.373Z" fill="#F0F0F0"/>
<path d="M149.156 110.544H147.861V111.838H149.156V110.544Z" fill="#F0F0F0"/>
<path d="M149.156 112.715H147.861V114.01H149.156V112.715Z" fill="#F0F0F0"/>
<path d="M149.156 114.884H147.861V116.178H149.156V114.884Z" fill="#F0F0F0"/>
<path d="M147.099 101.867H145.805V103.161H147.099V101.867Z" fill="#F0F0F0"/>
<path d="M147.099 104.035H145.805V105.33H147.099V104.035Z" fill="#F0F0F0"/>
<path d="M147.099 106.207H145.805V107.501H147.099V106.207Z" fill="#F0F0F0"/>
<path d="M147.099 108.373H145.805V109.667H147.099V108.373Z" fill="#F0F0F0"/>
<path d="M147.099 110.544H145.805V111.838H147.099V110.544Z" fill="#F0F0F0"/>
<path d="M147.099 112.715H145.805V114.01H147.099V112.715Z" fill="#F0F0F0"/>
<path d="M147.099 114.884H145.805V116.178H147.099V114.884Z" fill="#F0F0F0"/>
<path d="M147.099 117.055H145.805V118.35H147.099V117.055Z" fill="#F0F0F0"/>
<path d="M147.099 119.227H145.805V120.521H147.099V119.227Z" fill="#F0F0F0"/>
<path d="M147.099 121.398H145.805V122.693H147.099V121.398Z" fill="#F0F0F0"/>
<path d="M147.099 123.567H145.805V124.861H147.099V123.567Z" fill="#F0F0F0"/>
<path d="M145.042 101.867H143.748V103.161H145.042V101.867Z" fill="#F0F0F0"/>
<path d="M145.042 104.035H143.748V105.33H145.042V104.035Z" fill="#F0F0F0"/>
<path d="M145.042 106.207H143.748V107.501H145.042V106.207Z" fill="#F0F0F0"/>
<path d="M145.042 108.373H143.748V109.667H145.042V108.373Z" fill="#F0F0F0"/>
<path d="M145.042 110.544H143.748V111.838H145.042V110.544Z" fill="#F0F0F0"/>
<path d="M145.042 112.715H143.748V114.01H145.042V112.715Z" fill="#F0F0F0"/>
<path d="M145.042 114.884H143.748V116.178H145.042V114.884Z" fill="#F0F0F0"/>
<path d="M145.042 117.055H143.748V118.35H145.042V117.055Z" fill="#F0F0F0"/>
<path d="M145.042 119.227H143.748V120.521H145.042V119.227Z" fill="#F0F0F0"/>
<path d="M145.042 121.398H143.748V122.693H145.042V121.398Z" fill="#F0F0F0"/>
<path d="M145.042 123.567H143.748V124.861H145.042V123.567Z" fill="#F0F0F0"/>
<path d="M145.042 125.739H143.748V127.033H145.042V125.739Z" fill="#F0F0F0"/>
<path d="M145.042 132.247H143.748V133.541H145.042V132.247Z" fill="#F0F0F0"/>
<path d="M145.042 134.418H143.748V135.712H145.042V134.418Z" fill="#F0F0F0"/>
<path d="M142.986 101.867H141.691V103.161H142.986V101.867Z" fill="#F0F0F0"/>
<path d="M142.986 104.035H141.691V105.33H142.986V104.035Z" fill="#F0F0F0"/>
<path d="M142.986 106.207H141.691V107.501H142.986V106.207Z" fill="#F0F0F0"/>
<path d="M142.986 112.715H141.691V114.01H142.986V112.715Z" fill="#F0F0F0"/>
<path d="M142.986 114.884H141.691V116.178H142.986V114.884Z" fill="#F0F0F0"/>
<path d="M142.986 117.055H141.691V118.35H142.986V117.055Z" fill="#F0F0F0"/>
<path d="M142.986 119.227H141.691V120.521H142.986V119.227Z" fill="#F0F0F0"/>
<path d="M142.986 121.398H141.691V122.693H142.986V121.398Z" fill="#F0F0F0"/>
<path d="M142.986 123.567H141.691V124.861H142.986V123.567Z" fill="#F0F0F0"/>
<path d="M142.986 125.739H141.691V127.033H142.986V125.739Z" fill="#F0F0F0"/>
<path d="M142.986 132.247H141.691V133.541H142.986V132.247Z" fill="#F0F0F0"/>
<path d="M142.986 134.418H141.691V135.712H142.986V134.418Z" fill="#F0F0F0"/>
<path d="M142.986 136.586H141.691V137.881H142.986V136.586Z" fill="#F0F0F0"/>
<path d="M121.441 88.8413H120.146V90.1357H121.441V88.8413Z" fill="#F0F0F0"/>
<path d="M121.441 91.0127H120.146V92.3071H121.441V91.0127Z" fill="#F0F0F0"/>
<path d="M121.441 93.1812H120.146V94.4756H121.441V93.1812Z" fill="#F0F0F0"/>
<path d="M121.441 95.3525H120.146V96.647H121.441V95.3525Z" fill="#F0F0F0"/>
<path d="M121.441 97.5239H120.146V98.8184H121.441V97.5239Z" fill="#F0F0F0"/>
<path d="M121.441 99.6958H120.146V100.99H121.441V99.6958Z" fill="#F0F0F0"/>
<path d="M121.441 101.867H120.146V103.162H121.441V101.867Z" fill="#F0F0F0"/>
<path d="M121.441 104.036H120.146V105.33H121.441V104.036Z" fill="#F0F0F0"/>
<path d="M121.441 106.207H120.146V107.501H121.441V106.207Z" fill="#F0F0F0"/>
<path d="M121.441 108.373H120.146V109.667H121.441V108.373Z" fill="#F0F0F0"/>
<path d="M121.441 110.544H120.146V111.838H121.441V110.544Z" fill="#F0F0F0"/>
<path d="M121.441 112.715H120.146V114.01H121.441V112.715Z" fill="#F0F0F0"/>
<path d="M121.441 114.884H120.146V116.178H121.441V114.884Z" fill="#F0F0F0"/>
<path d="M121.441 117.055H120.146V118.35H121.441V117.055Z" fill="#F0F0F0"/>
<path d="M121.441 119.227H120.146V120.521H121.441V119.227Z" fill="#F0F0F0"/>
<path d="M121.441 121.398H120.146V122.693H121.441V121.398Z" fill="#F0F0F0"/>
<path d="M121.441 123.567H120.146V124.861H121.441V123.567Z" fill="#F0F0F0"/>
<path d="M121.441 125.738H120.146V127.033H121.441V125.738Z" fill="#F0F0F0"/>
<path d="M121.441 127.91H120.146V129.204H121.441V127.91Z" fill="#F0F0F0"/>
<path d="M121.441 130.075H120.146V131.37H121.441V130.075Z" fill="#F0F0F0"/>
<path d="M121.441 132.247H120.146V133.541H121.441V132.247Z" fill="#F0F0F0"/>
<path d="M121.441 134.418H120.146V135.712H121.441V134.418Z" fill="#F0F0F0"/>
<path d="M121.441 136.586H120.146V137.881H121.441V136.586Z" fill="#F0F0F0"/>
<path d="M119.383 88.8413H118.089V90.1357H119.383V88.8413Z" fill="#F0F0F0"/>
<path d="M119.383 91.0127H118.089V92.3071H119.383V91.0127Z" fill="#F0F0F0"/>
<path d="M119.383 93.1812H118.089V94.4756H119.383V93.1812Z" fill="#F0F0F0"/>
<path d="M119.383 95.3525H118.089V96.647H119.383V95.3525Z" fill="#F0F0F0"/>
<path d="M119.383 97.5239H118.089V98.8184H119.383V97.5239Z" fill="#F0F0F0"/>
<path d="M119.383 99.6958H118.089V100.99H119.383V99.6958Z" fill="#F0F0F0"/>
<path d="M119.383 101.867H118.089V103.162H119.383V101.867Z" fill="#F0F0F0"/>
<path d="M119.383 104.036H118.089V105.33H119.383V104.036Z" fill="#F0F0F0"/>
<path d="M119.383 106.207H118.089V107.501H119.383V106.207Z" fill="#F0F0F0"/>
<path d="M119.383 108.373H118.089V109.667H119.383V108.373Z" fill="#F0F0F0"/>
<path d="M119.383 110.544H118.089V111.838H119.383V110.544Z" fill="#F0F0F0"/>
<path d="M119.383 112.715H118.089V114.01H119.383V112.715Z" fill="#F0F0F0"/>
<path d="M119.383 114.884H118.089V116.178H119.383V114.884Z" fill="#F0F0F0"/>
<path d="M119.383 117.055H118.089V118.35H119.383V117.055Z" fill="#F0F0F0"/>
<path d="M119.383 119.227H118.089V120.521H119.383V119.227Z" fill="#F0F0F0"/>
<path d="M119.383 121.398H118.089V122.693H119.383V121.398Z" fill="#F0F0F0"/>
<path d="M119.383 123.567H118.089V124.861H119.383V123.567Z" fill="#F0F0F0"/>
<path d="M119.383 125.738H118.089V127.033H119.383V125.738Z" fill="#F0F0F0"/>
<path d="M119.383 127.91H118.089V129.204H119.383V127.91Z" fill="#F0F0F0"/>
<path d="M117.328 88.8413H116.033V90.1357H117.328V88.8413Z" fill="#F0F0F0"/>
<path d="M117.328 91.0127H116.033V92.3071H117.328V91.0127Z" fill="#F0F0F0"/>
<path d="M117.328 93.1812H116.033V94.4756H117.328V93.1812Z" fill="#F0F0F0"/>
<path d="M117.328 95.3525H116.033V96.647H117.328V95.3525Z" fill="#F0F0F0"/>
<path d="M117.328 97.5239H116.033V98.8184H117.328V97.5239Z" fill="#F0F0F0"/>
<path d="M117.328 99.6958H116.033V100.99H117.328V99.6958Z" fill="#F0F0F0"/>
<path d="M117.328 101.867H116.033V103.162H117.328V101.867Z" fill="#F0F0F0"/>
<path d="M117.328 104.036H116.033V105.33H117.328V104.036Z" fill="#F0F0F0"/>
<path d="M117.328 106.207H116.033V107.501H117.328V106.207Z" fill="#F0F0F0"/>
<path d="M117.328 108.373H116.033V109.667H117.328V108.373Z" fill="#F0F0F0"/>
<path d="M117.328 110.544H116.033V111.838H117.328V110.544Z" fill="#F0F0F0"/>
<path d="M117.328 112.715H116.033V114.01H117.328V112.715Z" fill="#F0F0F0"/>
<path d="M117.328 114.884H116.033V116.178H117.328V114.884Z" fill="#F0F0F0"/>
<path d="M117.328 117.055H116.033V118.35H117.328V117.055Z" fill="#F0F0F0"/>
<path d="M117.328 119.227H116.033V120.521H117.328V119.227Z" fill="#F0F0F0"/>
<path d="M117.328 121.398H116.033V122.693H117.328V121.398Z" fill="#F0F0F0"/>
<path d="M117.328 123.567H116.033V124.861H117.328V123.567Z" fill="#F0F0F0"/>
<path d="M117.328 125.738H116.033V127.033H117.328V125.738Z" fill="#F0F0F0"/>
<path d="M117.328 127.91H116.033V129.204H117.328V127.91Z" fill="#F0F0F0"/>
<path d="M115.271 88.8413H113.977V90.1357H115.271V88.8413Z" fill="#F0F0F0"/>
<path d="M115.271 91.0127H113.977V92.3071H115.271V91.0127Z" fill="#F0F0F0"/>
<path d="M115.271 93.1812H113.977V94.4756H115.271V93.1812Z" fill="#F0F0F0"/>
<path d="M115.271 95.3525H113.977V96.647H115.271V95.3525Z" fill="#F0F0F0"/>
<path d="M115.271 97.5239H113.977V98.8184H115.271V97.5239Z" fill="#F0F0F0"/>
<path d="M115.271 99.6958H113.977V100.99H115.271V99.6958Z" fill="#F0F0F0"/>
<path d="M115.271 101.867H113.977V103.162H115.271V101.867Z" fill="#F0F0F0"/>
<path d="M115.271 104.036H113.977V105.33H115.271V104.036Z" fill="#F0F0F0"/>
<path d="M115.271 106.207H113.977V107.501H115.271V106.207Z" fill="#F0F0F0"/>
<path d="M115.271 108.373H113.977V109.667H115.271V108.373Z" fill="#F0F0F0"/>
<path d="M115.271 110.544H113.977V111.838H115.271V110.544Z" fill="#F0F0F0"/>
<path d="M115.271 112.715H113.977V114.01H115.271V112.715Z" fill="#F0F0F0"/>
<path d="M115.271 114.884H113.977V116.178H115.271V114.884Z" fill="#F0F0F0"/>
<path d="M115.271 117.055H113.977V118.35H115.271V117.055Z" fill="#F0F0F0"/>
<path d="M115.271 119.227H113.977V120.521H115.271V119.227Z" fill="#F0F0F0"/>
<path d="M113.214 88.8413H111.92V90.1357H113.214V88.8413Z" fill="#F0F0F0"/>
<path d="M113.214 91.0127H111.92V92.3071H113.214V91.0127Z" fill="#F0F0F0"/>
<path d="M113.214 93.1812H111.92V94.4756H113.214V93.1812Z" fill="#F0F0F0"/>
<path d="M113.214 95.3525H111.92V96.647H113.214V95.3525Z" fill="#F0F0F0"/>
<path d="M113.214 97.5239H111.92V98.8184H113.214V97.5239Z" fill="#F0F0F0"/>
<path d="M113.214 99.6956H111.92V100.99H113.214V99.6956Z" fill="#F0F0F0"/>
<path d="M113.214 101.867H111.92V103.161H113.214V101.867Z" fill="#F0F0F0"/>
<path d="M113.214 104.035H111.92V105.33H113.214V104.035Z" fill="#F0F0F0"/>
<path d="M113.214 106.207H111.92V107.501H113.214V106.207Z" fill="#F0F0F0"/>
<path d="M113.214 108.373H111.92V109.667H113.214V108.373Z" fill="#F0F0F0"/>
<path d="M113.214 110.544H111.92V111.838H113.214V110.544Z" fill="#F0F0F0"/>
<path d="M113.214 112.715H111.92V114.01H113.214V112.715Z" fill="#F0F0F0"/>
<path d="M113.214 114.884H111.92V116.178H113.214V114.884Z" fill="#F0F0F0"/>
<path d="M111.158 88.8413H109.863V90.1357H111.158V88.8413Z" fill="#F0F0F0"/>
<path d="M111.158 91.0127H109.863V92.3071H111.158V91.0127Z" fill="#F0F0F0"/>
<path d="M111.158 93.1812H109.863V94.4756H111.158V93.1812Z" fill="#F0F0F0"/>
<path d="M111.158 95.3525H109.863V96.647H111.158V95.3525Z" fill="#F0F0F0"/>
<path d="M111.158 97.5239H109.863V98.8184H111.158V97.5239Z" fill="#F0F0F0"/>
<path d="M111.158 99.6956H109.863V100.99H111.158V99.6956Z" fill="#F0F0F0"/>
<path d="M111.158 101.867H109.863V103.161H111.158V101.867Z" fill="#F0F0F0"/>
<path d="M111.158 104.035H109.863V105.33H111.158V104.035Z" fill="#F0F0F0"/>
<path d="M111.158 106.207H109.863V107.501H111.158V106.207Z" fill="#F0F0F0"/>
<path d="M111.158 108.373H109.863V109.667H111.158V108.373Z" fill="#F0F0F0"/>
<path d="M111.158 110.544H109.863V111.838H111.158V110.544Z" fill="#F0F0F0"/>
<path d="M111.158 112.715H109.863V114.01H111.158V112.715Z" fill="#F0F0F0"/>
<path d="M231.167 88.1968H229.873V89.4912H231.167V88.1968Z" fill="#F0F0F0"/>
<path d="M231.167 90.3682H229.873V91.6626H231.167V90.3682Z" fill="#F0F0F0"/>
<path d="M231.167 92.5398H229.873V93.8342H231.167V92.5398Z" fill="#F0F0F0"/>
<path d="M231.167 94.7053H229.873V95.9998H231.167V94.7053Z" fill="#F0F0F0"/>
<path d="M231.167 96.8738H229.873V98.1682H231.167V96.8738Z" fill="#F0F0F0"/>
<path d="M231.167 99.0452H229.873V100.34H231.167V99.0452Z" fill="#F0F0F0"/>
<path d="M231.167 101.217H229.873V102.511H231.167V101.217Z" fill="#F0F0F0"/>
<path d="M231.167 103.388H229.873V104.683H231.167V103.388Z" fill="#F0F0F0"/>
<path d="M231.167 105.557H229.873V106.851H231.167V105.557Z" fill="#F0F0F0"/>
<path d="M231.167 107.728H229.873V109.023H231.167V107.728Z" fill="#F0F0F0"/>
<path d="M231.167 109.9H229.873V111.194H231.167V109.9Z" fill="#F0F0F0"/>
<path d="M231.167 112.071H229.873V113.366H231.167V112.071Z" fill="#F0F0F0"/>
<path d="M231.167 114.24H229.873V115.534H231.167V114.24Z" fill="#F0F0F0"/>
<path d="M231.167 116.408H229.873V117.703H231.167V116.408Z" fill="#F0F0F0"/>
<path d="M231.167 118.577H229.873V119.871H231.167V118.577Z" fill="#F0F0F0"/>
<path d="M231.167 120.748H229.873V122.043H231.167V120.748Z" fill="#F0F0F0"/>
<path d="M231.167 122.92H229.873V124.214H231.167V122.92Z" fill="#F0F0F0"/>
<path d="M231.167 127.26H229.873V128.554H231.167V127.26Z" fill="#F0F0F0"/>
<path d="M231.167 129.431H229.873V130.726H231.167V129.431Z" fill="#F0F0F0"/>
<path d="M231.167 131.603H229.873V132.897H231.167V131.603Z" fill="#F0F0F0"/>
<path d="M231.167 133.774H229.873V135.068H231.167V133.774Z" fill="#F0F0F0"/>
<path d="M231.167 135.939H229.873V137.234H231.167V135.939Z" fill="#F0F0F0"/>
<path d="M229.111 88.1968H227.816V89.4912H229.111V88.1968Z" fill="#F0F0F0"/>
<path d="M229.111 90.3682H227.816V91.6626H229.111V90.3682Z" fill="#F0F0F0"/>
<path d="M229.111 92.5398H227.816V93.8342H229.111V92.5398Z" fill="#F0F0F0"/>
<path d="M229.111 94.7053H227.816V95.9998H229.111V94.7053Z" fill="#F0F0F0"/>
<path d="M229.111 96.8738H227.816V98.1682H229.111V96.8738Z" fill="#F0F0F0"/>
<path d="M229.111 99.0452H227.816V100.34H229.111V99.0452Z" fill="#F0F0F0"/>
<path d="M229.111 101.217H227.816V102.511H229.111V101.217Z" fill="#F0F0F0"/>
<path d="M229.111 103.388H227.816V104.683H229.111V103.388Z" fill="#F0F0F0"/>
<path d="M229.111 105.557H227.816V106.851H229.111V105.557Z" fill="#F0F0F0"/>
<path d="M229.111 107.728H227.816V109.023H229.111V107.728Z" fill="#F0F0F0"/>
<path d="M229.111 109.9H227.816V111.194H229.111V109.9Z" fill="#F0F0F0"/>
<path d="M229.111 112.071H227.816V113.366H229.111V112.071Z" fill="#F0F0F0"/>
<path d="M229.111 114.24H227.816V115.534H229.111V114.24Z" fill="#F0F0F0"/>
<path d="M229.111 116.408H227.816V117.703H229.111V116.408Z" fill="#F0F0F0"/>
<path d="M229.111 118.577H227.816V119.871H229.111V118.577Z" fill="#F0F0F0"/>
<path d="M229.111 120.748H227.816V122.043H229.111V120.748Z" fill="#F0F0F0"/>
<path d="M229.111 133.774H227.816V135.068H229.111V133.774Z" fill="#F0F0F0"/>
<path d="M229.111 135.939H227.816V137.234H229.111V135.939Z" fill="#F0F0F0"/>
<path d="M227.06 88.1968H225.766V89.4912H227.06V88.1968Z" fill="#F0F0F0"/>
<path d="M227.06 90.3682H225.766V91.6626H227.06V90.3682Z" fill="#F0F0F0"/>
<path d="M227.06 92.54H225.766V93.8345H227.06V92.54Z" fill="#F0F0F0"/>
<path d="M227.06 94.7056H225.766V96H227.06V94.7056Z" fill="#F0F0F0"/>
<path d="M227.06 96.874H225.766V98.1685H227.06V96.874Z" fill="#F0F0F0"/>
<path d="M227.06 99.0454H225.766V100.34H227.06V99.0454Z" fill="#F0F0F0"/>
<path d="M227.06 101.217H225.766V102.511H227.06V101.217Z" fill="#F0F0F0"/>
<path d="M227.06 103.388H225.766V104.683H227.06V103.388Z" fill="#F0F0F0"/>
<path d="M227.06 105.557H225.766V106.851H227.06V105.557Z" fill="#F0F0F0"/>
<path d="M227.06 107.728H225.766V109.022H227.06V107.728Z" fill="#F0F0F0"/>
<path d="M227.06 109.899H225.766V111.194H227.06V109.899Z" fill="#F0F0F0"/>
<path d="M227.06 112.071H225.766V113.366H227.06V112.071Z" fill="#F0F0F0"/>
<path d="M227.06 114.24H225.766V115.534H227.06V114.24Z" fill="#F0F0F0"/>
<path d="M227.06 116.408H225.766V117.703H227.06V116.408Z" fill="#F0F0F0"/>
<path d="M227.06 118.577H225.766V119.871H227.06V118.577Z" fill="#F0F0F0"/>
<path d="M227.06 120.749H225.766V122.043H227.06V120.749Z" fill="#F0F0F0"/>
<path d="M227.06 125.091H225.766V126.386H227.06V125.091Z" fill="#F0F0F0"/>
<path d="M227.06 127.26H225.766V128.554H227.06V127.26Z" fill="#F0F0F0"/>
<path d="M227.06 129.431H225.766V130.726H227.06V129.431Z" fill="#F0F0F0"/>
<path d="M227.06 131.603H225.766V132.897H227.06V131.603Z" fill="#F0F0F0"/>
<path d="M227.06 135.939H225.766V137.234H227.06V135.939Z" fill="#F0F0F0"/>
<path d="M191.192 103.388H189.897V104.683H191.192V103.388Z" fill="#F0F0F0"/>
<path d="M191.192 105.557H189.897V106.851H191.192V105.557Z" fill="#F0F0F0"/>
<path d="M191.192 107.728H189.897V109.022H191.192V107.728Z" fill="#F0F0F0"/>
<path d="M191.192 109.899H189.897V111.194H191.192V109.899Z" fill="#F0F0F0"/>
<path d="M191.192 112.071H189.897V113.366H191.192V112.071Z" fill="#F0F0F0"/>
<path d="M191.192 114.24H189.897V115.534H191.192V114.24Z" fill="#F0F0F0"/>
<path d="M191.192 116.408H189.897V117.703H191.192V116.408Z" fill="#F0F0F0"/>
<path d="M191.192 118.577H189.897V119.871H191.192V118.577Z" fill="#F0F0F0"/>
<path d="M191.192 120.749H189.897V122.043H191.192V120.749Z" fill="#F0F0F0"/>
<path d="M191.192 122.92H189.897V124.214H191.192V122.92Z" fill="#F0F0F0"/>
<path d="M191.192 125.091H189.897V126.386H191.192V125.091Z" fill="#F0F0F0"/>
<path d="M191.192 127.26H189.897V128.554H191.192V127.26Z" fill="#F0F0F0"/>
<path d="M191.192 129.431H189.897V130.726H191.192V129.431Z" fill="#F0F0F0"/>
<path d="M191.192 133.774H189.897V135.068H191.192V133.774Z" fill="#F0F0F0"/>
<path d="M191.192 135.939H189.897V137.234H191.192V135.939Z" fill="#F0F0F0"/>
<path d="M191.192 138.108H189.897V139.402H191.192V138.108Z" fill="#F0F0F0"/>
<path d="M191.192 140.28H189.897V141.574H191.192V140.28Z" fill="#F0F0F0"/>
<path d="M191.192 144.623H189.897V145.917H191.192V144.623Z" fill="#F0F0F0"/>
<path d="M191.192 146.794H189.897V148.088H191.192V146.794Z" fill="#F0F0F0"/>
<path d="M191.192 148.962H189.897V150.257H191.192V148.962Z" fill="#F0F0F0"/>
<path d="M189.135 103.388H187.841V104.683H189.135V103.388Z" fill="#F0F0F0"/>
<path d="M189.135 105.557H187.841V106.851H189.135V105.557Z" fill="#F0F0F0"/>
<path d="M189.135 107.728H187.841V109.022H189.135V107.728Z" fill="#F0F0F0"/>
<path d="M189.135 109.899H187.841V111.194H189.135V109.899Z" fill="#F0F0F0"/>
<path d="M189.135 112.071H187.841V113.366H189.135V112.071Z" fill="#F0F0F0"/>
<path d="M189.135 114.24H187.841V115.534H189.135V114.24Z" fill="#F0F0F0"/>
<path d="M189.135 116.408H187.841V117.703H189.135V116.408Z" fill="#F0F0F0"/>
<path d="M189.135 118.577H187.841V119.871H189.135V118.577Z" fill="#F0F0F0"/>
<path d="M189.135 120.749H187.841V122.043H189.135V120.749Z" fill="#F0F0F0"/>
<path d="M189.135 122.92H187.841V124.214H189.135V122.92Z" fill="#F0F0F0"/>
<path d="M189.135 125.091H187.841V126.386H189.135V125.091Z" fill="#F0F0F0"/>
<path d="M189.135 127.26H187.841V128.554H189.135V127.26Z" fill="#F0F0F0"/>
<path d="M189.135 129.431H187.841V130.726H189.135V129.431Z" fill="#F0F0F0"/>
<path d="M189.135 135.939H187.841V137.234H189.135V135.939Z" fill="#F0F0F0"/>
<path d="M189.135 138.108H187.841V139.402H189.135V138.108Z" fill="#F0F0F0"/>
<path d="M189.135 142.451H187.841V143.746H189.135V142.451Z" fill="#F0F0F0"/>
<path d="M189.135 144.623H187.841V145.917H189.135V144.623Z" fill="#F0F0F0"/>
<path d="M189.135 146.794H187.841V148.088H189.135V146.794Z" fill="#F0F0F0"/>
<path d="M189.135 148.962H187.841V150.257H189.135V148.962Z" fill="#F0F0F0"/>
<path d="M187.079 103.388H185.784V104.683H187.079V103.388Z" fill="#F0F0F0"/>
<path d="M187.079 105.557H185.784V106.851H187.079V105.557Z" fill="#F0F0F0"/>
<path d="M187.079 107.728H185.784V109.022H187.079V107.728Z" fill="#F0F0F0"/>
<path d="M187.079 109.899H185.784V111.194H187.079V109.899Z" fill="#F0F0F0"/>
<path d="M187.079 112.071H185.784V113.366H187.079V112.071Z" fill="#F0F0F0"/>
<path d="M187.079 114.24H185.784V115.534H187.079V114.24Z" fill="#F0F0F0"/>
<path d="M187.079 116.408H185.784V117.703H187.079V116.408Z" fill="#F0F0F0"/>
<path d="M187.079 118.577H185.784V119.871H187.079V118.577Z" fill="#F0F0F0"/>
<path d="M187.079 120.749H185.784V122.043H187.079V120.749Z" fill="#F0F0F0"/>
<path d="M187.079 122.92H185.784V124.214H187.079V122.92Z" fill="#F0F0F0"/>
<path d="M187.079 125.091H185.784V126.386H187.079V125.091Z" fill="#F0F0F0"/>
<path d="M187.079 127.26H185.784V128.554H187.079V127.26Z" fill="#F0F0F0"/>
<path d="M187.079 129.431H185.784V130.726H187.079V129.431Z" fill="#F0F0F0"/>
<path d="M187.079 131.603H185.784V132.897H187.079V131.603Z" fill="#F0F0F0"/>
<path d="M187.079 135.939H185.784V137.234H187.079V135.939Z" fill="#F0F0F0"/>
<path d="M187.079 140.28H185.784V141.574H187.079V140.28Z" fill="#F0F0F0"/>
<path d="M187.079 142.451H185.784V143.746H187.079V142.451Z" fill="#F0F0F0"/>
<path d="M187.079 144.623H185.784V145.917H187.079V144.623Z" fill="#F0F0F0"/>
<path d="M187.079 146.794H185.784V148.088H187.079V146.794Z" fill="#F0F0F0"/>
<path d="M187.079 148.962H185.784V150.257H187.079V148.962Z" fill="#F0F0F0"/>
<path d="M199.566 115.764H198.271V117.058H199.566V115.764Z" fill="#F0F0F0"/>
<path d="M199.566 117.932H198.271V119.227H199.566V117.932Z" fill="#F0F0F0"/>
<path d="M199.566 120.104H198.271V121.398H199.566V120.104Z" fill="#F0F0F0"/>
<path d="M199.566 122.269H198.271V123.564H199.566V122.269Z" fill="#F0F0F0"/>
<path d="M199.566 124.441H198.271V125.735H199.566V124.441Z" fill="#F0F0F0"/>
<path d="M199.566 126.613H198.271V127.907H199.566V126.613Z" fill="#F0F0F0"/>
<path d="M199.566 133.124H198.271V134.418H199.566V133.124Z" fill="#F0F0F0"/>
<path d="M199.566 135.295H198.271V136.59H199.566V135.295Z" fill="#F0F0F0"/>
<path d="M199.566 137.467H198.271V138.761H199.566V137.467Z" fill="#F0F0F0"/>
<path d="M199.566 139.635H198.271V140.93H199.566V139.635Z" fill="#F0F0F0"/>
<path d="M199.566 141.807H198.271V143.101H199.566V141.807Z" fill="#F0F0F0"/>
<path d="M199.566 143.972H198.271V145.267H199.566V143.972Z" fill="#F0F0F0"/>
<path d="M199.566 146.144H198.271V147.438H199.566V146.144Z" fill="#F0F0F0"/>
<path d="M197.509 115.764H196.215V117.058H197.509V115.764Z" fill="#F0F0F0"/>
<path d="M197.509 117.932H196.215V119.227H197.509V117.932Z" fill="#F0F0F0"/>
<path d="M197.509 120.104H196.215V121.398H197.509V120.104Z" fill="#F0F0F0"/>
<path d="M197.509 122.269H196.215V123.564H197.509V122.269Z" fill="#F0F0F0"/>
<path d="M197.509 124.441H196.215V125.735H197.509V124.441Z" fill="#F0F0F0"/>
<path d="M197.509 126.613H196.215V127.907H197.509V126.613Z" fill="#F0F0F0"/>
<path d="M197.509 133.124H196.215V134.418H197.509V133.124Z" fill="#F0F0F0"/>
<path d="M197.509 135.295H196.215V136.59H197.509V135.295Z" fill="#F0F0F0"/>
<path d="M197.509 137.467H196.215V138.761H197.509V137.467Z" fill="#F0F0F0"/>
<path d="M197.509 139.635H196.215V140.93H197.509V139.635Z" fill="#F0F0F0"/>
<path d="M197.509 141.807H196.215V143.101H197.509V141.807Z" fill="#F0F0F0"/>
<path d="M197.509 143.972H196.215V145.267H197.509V143.972Z" fill="#F0F0F0"/>
<path d="M197.509 148.315H196.215V149.61H197.509V148.315Z" fill="#F0F0F0"/>
<path d="M129.204 106.207H127.909V107.501H129.204V106.207Z" fill="#F0F0F0"/>
<path d="M129.204 108.373H127.909V109.667H129.204V108.373Z" fill="#F0F0F0"/>
<path d="M129.204 110.544H127.909V111.838H129.204V110.544Z" fill="#F0F0F0"/>
<path d="M129.204 112.715H127.909V114.01H129.204V112.715Z" fill="#F0F0F0"/>
<path d="M129.204 114.884H127.909V116.178H129.204V114.884Z" fill="#F0F0F0"/>
<path d="M129.204 117.055H127.909V118.35H129.204V117.055Z" fill="#F0F0F0"/>
<path d="M129.204 119.227H127.909V120.521H129.204V119.227Z" fill="#F0F0F0"/>
<path d="M129.204 121.398H127.909V122.693H129.204V121.398Z" fill="#F0F0F0"/>
<path d="M129.204 123.567H127.909V124.861H129.204V123.567Z" fill="#F0F0F0"/>
<path d="M129.204 125.738H127.909V127.033H129.204V125.738Z" fill="#F0F0F0"/>
<path d="M129.204 127.91H127.909V129.204H129.204V127.91Z" fill="#F0F0F0"/>
<path d="M129.204 132.247H127.909V133.541H129.204V132.247Z" fill="#F0F0F0"/>
<path d="M129.204 134.418H127.909V135.712H129.204V134.418Z" fill="#F0F0F0"/>
<path d="M129.204 136.586H127.909V137.881H129.204V136.586Z" fill="#F0F0F0"/>
<path d="M129.204 138.758H127.909V140.052H129.204V138.758Z" fill="#F0F0F0"/>
<path d="M129.204 140.93H127.909V142.224H129.204V140.93Z" fill="#F0F0F0"/>
<path d="M129.204 143.102H127.909V144.396H129.204V143.102Z" fill="#F0F0F0"/>
<path d="M129.204 145.27H127.909V146.564H129.204V145.27Z" fill="#F0F0F0"/>
<path d="M129.204 147.441H127.909V148.736H129.204V147.441Z" fill="#F0F0F0"/>
<path d="M127.154 106.207H125.859V107.501H127.154V106.207Z" fill="#F0F0F0"/>
<path d="M127.154 108.373H125.859V109.667H127.154V108.373Z" fill="#F0F0F0"/>
<path d="M127.154 110.544H125.859V111.838H127.154V110.544Z" fill="#F0F0F0"/>
<path d="M127.154 112.715H125.859V114.01H127.154V112.715Z" fill="#F0F0F0"/>
<path d="M127.154 114.884H125.859V116.178H127.154V114.884Z" fill="#F0F0F0"/>
<path d="M127.154 117.055H125.859V118.35H127.154V117.055Z" fill="#F0F0F0"/>
<path d="M127.154 119.227H125.859V120.521H127.154V119.227Z" fill="#F0F0F0"/>
<path d="M127.154 121.398H125.859V122.693H127.154V121.398Z" fill="#F0F0F0"/>
<path d="M127.154 123.567H125.859V124.861H127.154V123.567Z" fill="#F0F0F0"/>
<path d="M127.154 125.738H125.859V127.033H127.154V125.738Z" fill="#F0F0F0"/>
<path d="M127.154 127.91H125.859V129.204H127.154V127.91Z" fill="#F0F0F0"/>
<path d="M127.154 130.075H125.859V131.37H127.154V130.075Z" fill="#F0F0F0"/>
<path d="M127.154 132.247H125.859V133.541H127.154V132.247Z" fill="#F0F0F0"/>
<path d="M127.154 134.418H125.859V135.712H127.154V134.418Z" fill="#F0F0F0"/>
<path d="M127.154 136.586H125.859V137.881H127.154V136.586Z" fill="#F0F0F0"/>
<path d="M127.154 138.758H125.859V140.052H127.154V138.758Z" fill="#F0F0F0"/>
<path d="M127.154 140.93H125.859V142.224H127.154V140.93Z" fill="#F0F0F0"/>
<path d="M127.154 143.102H125.859V144.396H127.154V143.102Z" fill="#F0F0F0"/>
<path d="M127.154 145.27H125.859V146.564H127.154V145.27Z" fill="#F0F0F0"/>
<path d="M127.154 147.441H125.859V148.736H127.154V147.441Z" fill="#F0F0F0"/>
<path d="M139.335 114.657H138.041V115.952H139.335V114.657Z" fill="#F0F0F0"/>
<path d="M139.335 116.829H138.041V118.123H139.335V116.829Z" fill="#F0F0F0"/>
<path d="M139.335 118.997H138.041V120.291H139.335V118.997Z" fill="#F0F0F0"/>
<path d="M139.335 121.168H138.041V122.463H139.335V121.168Z" fill="#F0F0F0"/>
<path d="M139.335 123.34H138.041V124.634H139.335V123.34Z" fill="#F0F0F0"/>
<path d="M139.335 125.512H138.041V126.806H139.335V125.512Z" fill="#F0F0F0"/>
<path d="M139.335 127.68H138.041V128.975H139.335V127.68Z" fill="#F0F0F0"/>
<path d="M139.335 129.849H138.041V131.143H139.335V129.849Z" fill="#F0F0F0"/>
<path d="M139.335 132.017H138.041V133.312H139.335V132.017Z" fill="#F0F0F0"/>
<path d="M139.335 134.188H138.041V135.483H139.335V134.188Z" fill="#F0F0F0"/>
<path d="M137.279 114.657H135.984V115.952H137.279V114.657Z" fill="#F0F0F0"/>
<path d="M137.279 116.829H135.984V118.123H137.279V116.829Z" fill="#F0F0F0"/>
<path d="M137.279 118.997H135.984V120.291H137.279V118.997Z" fill="#F0F0F0"/>
<path d="M137.279 121.168H135.984V122.463H137.279V121.168Z" fill="#F0F0F0"/>
<path d="M137.279 123.34H135.984V124.634H137.279V123.34Z" fill="#F0F0F0"/>
<path d="M137.279 125.512H135.984V126.806H137.279V125.512Z" fill="#F0F0F0"/>
<path d="M137.279 127.68H135.984V128.975H137.279V127.68Z" fill="#F0F0F0"/>
<path d="M137.279 129.849H135.984V131.143H137.279V129.849Z" fill="#F0F0F0"/>
<path d="M137.279 132.017H135.984V133.312H137.279V132.017Z" fill="#F0F0F0"/>
<path d="M149.509 32.2976H147.338V153.342H149.509V32.2976Z" fill="#E0E0E0"/>
<path d="M190.383 32.2974H188.212V153.342H190.383V32.2974Z" fill="#E0E0E0"/>
<path d="M231.255 32.2974H229.084V153.342H231.255V32.2974Z" fill="#E0E0E0"/>
<path d="M76.764 141.544H90.1529C90.7601 141.544 91.3424 141.785 91.7717 142.215C92.2011 142.644 92.4423 143.226 92.4423 143.833V169.71H74.4806V143.855C74.4774 143.554 74.5336 143.255 74.6459 142.976C74.7583 142.697 74.9246 142.443 75.1353 142.229C75.346 142.014 75.597 141.843 75.8739 141.725C76.1507 141.608 76.4481 141.546 76.7489 141.544H76.764Z" fill="#F0F0F0"/>
<path d="M92.4462 145.375H74.4814V147.396H92.4462V145.375Z" fill="#E6E6E6"/>
<path d="M84.6973 166.328H89.1734C89.4998 166.328 89.8129 166.458 90.0438 166.689C90.2746 166.92 90.4043 167.233 90.4043 167.559V169.74H83.4482V167.538C83.4482 167.212 83.5779 166.898 83.8088 166.668C84.0396 166.437 84.3527 166.307 84.6792 166.307L84.6973 166.328Z" fill="#E0E0E0"/>
<path d="M90.426 169.731H85.4479C85.2361 169.731 85.033 169.646 84.8833 169.497C84.7335 169.347 84.6494 169.144 84.6494 168.932C84.6502 168.721 84.7347 168.519 84.8843 168.37C85.034 168.22 85.2366 168.137 85.4479 168.137H90.426C90.6372 168.137 90.8398 168.22 90.9895 168.37C91.1391 168.519 91.2236 168.721 91.2244 168.932C91.2244 169.144 91.1403 169.347 90.9905 169.497C90.8408 169.646 90.6377 169.731 90.426 169.731Z" fill="#E6E6E6"/>
<path d="M170.188 26.6166C176.763 25.065 180.834 18.4778 179.282 11.9037C177.731 5.32956 171.144 1.25803 164.569 2.80967C157.995 4.3613 153.924 10.9485 155.475 17.5226C157.027 24.0967 163.614 28.1682 170.188 26.6166Z" fill="#E0E0E0"/>
<path d="M167.377 25.0997C173.122 25.0997 177.778 20.4431 177.778 14.6989C177.778 8.95469 173.122 4.2981 167.377 4.2981C161.633 4.2981 156.977 8.95469 156.977 14.6989C156.977 20.4431 161.633 25.0997 167.377 25.0997Z" fill="#F0F0F0"/>
<path d="M167.87 7.57031V14.8409L172.685 12.1159" fill="#F0F0F0"/>
<path d="M167.871 15.346C167.778 15.3467 167.687 15.3216 167.608 15.2734C167.53 15.2272 167.466 15.1617 167.421 15.0832C167.377 15.0047 167.353 14.916 167.354 14.8258V7.54916C167.364 7.41844 167.422 7.29631 167.519 7.20721C167.615 7.11811 167.741 7.0686 167.872 7.0686C168.003 7.0686 168.13 7.11811 168.226 7.20721C168.322 7.29631 168.381 7.41844 168.391 7.54916V13.9487L172.431 11.6623C172.552 11.5941 172.694 11.5765 172.827 11.6134C172.961 11.6503 173.074 11.7386 173.142 11.8589C173.21 11.9792 173.228 12.1217 173.191 12.255C173.154 12.3882 173.066 12.5014 172.946 12.5696L168.125 15.2915C168.045 15.3293 167.958 15.3479 167.871 15.346Z" fill="#E0E0E0"/>
<path d="M50.3259 134.086C49.3914 132.528 47.855 133.883 47.855 133.883C48.0728 130.931 45.3599 128.917 45.3599 128.917C45.3599 128.917 48.5144 128.917 48.9499 125.911C49.3854 122.905 47.855 124.302 46.4094 124.281C44.9637 124.26 43.4546 128.476 45.372 130.85C47.2895 133.224 46.7632 137.274 42.3658 141.169C41.3131 142.153 40.5239 143.385 40.0703 144.753C40.4 141.175 40.5875 136.13 39.5501 132.767C37.7627 127.054 41.1712 125.509 42.145 122.651C43.1189 119.793 39.5501 117.373 39.5501 117.373C39.5501 117.373 42.9314 115.816 41.2801 114.077C39.6288 112.338 36.2203 112.564 36.2203 114.854C36.2203 117.143 38.5309 118.033 38.5309 118.033C38.5309 118.033 41.1712 120.779 41.1712 122.188C41.1712 123.597 38.5309 126.709 38.5309 126.709C38.5309 126.709 39.7407 124.078 37.3212 123.969C34.9017 123.86 34.1335 127.042 35.1255 128.47C36.1175 129.897 37.7627 128.693 37.7627 128.693C37.8726 130.356 38.1297 132.006 38.5309 133.623C38.7819 134.449 38.667 137.673 38.4583 141.03C37.9994 139.819 37.2654 138.73 36.3141 137.851C31.9136 133.956 31.4055 129.903 33.3109 127.532C35.2162 125.161 33.6919 120.942 32.2705 120.963C30.849 120.984 29.2854 119.584 29.727 122.59C30.1686 125.596 33.3199 125.615 33.3199 125.615C33.3199 125.615 30.598 127.629 30.8218 130.578C30.8218 130.578 29.2643 129.238 28.3509 130.78C26.6815 133.529 30.5527 135.232 31.1999 133.898C31.1999 133.898 39.4019 139.702 37.4331 148.058L37.8898 148.739C37.8323 149.416 37.796 149.819 37.796 149.819L38.4341 149.543L39.166 150.602C39.1426 151.815 39.2052 153.027 39.3536 154.231L41.3103 151.334C39.3324 142.977 47.5435 137.171 47.5435 137.171C48.1424 138.541 52.0045 136.832 50.3259 134.086Z" fill="#E0E0E0"/>
<path opacity="0.2" d="M50.3259 134.086C49.3914 132.528 47.855 133.883 47.855 133.883C48.0728 130.931 45.3599 128.917 45.3599 128.917C45.3599 128.917 48.5144 128.917 48.9499 125.911C49.3854 122.905 47.855 124.302 46.4094 124.281C44.9637 124.26 43.4546 128.476 45.372 130.85C47.2895 133.224 46.7632 137.274 42.3658 141.169C41.3131 142.153 40.5239 143.385 40.0703 144.753C40.4 141.175 40.5875 136.13 39.5501 132.767C37.7627 127.054 41.1712 125.509 42.145 122.651C43.1189 119.793 39.5501 117.373 39.5501 117.373C39.5501 117.373 42.9314 115.816 41.2801 114.077C39.6288 112.338 36.2203 112.564 36.2203 114.854C36.2203 117.143 38.5309 118.033 38.5309 118.033C38.5309 118.033 41.1712 120.779 41.1712 122.188C41.1712 123.597 38.5309 126.709 38.5309 126.709C38.5309 126.709 39.7407 124.078 37.3212 123.969C34.9017 123.86 34.1335 127.042 35.1255 128.47C36.1175 129.897 37.7627 128.693 37.7627 128.693C37.8726 130.356 38.1297 132.006 38.5309 133.623C38.7819 134.449 38.667 137.673 38.4583 141.03C37.9994 139.819 37.2654 138.73 36.3141 137.851C31.9136 133.956 31.4055 129.903 33.3109 127.532C35.2162 125.161 33.6919 120.942 32.2705 120.963C30.849 120.984 29.2854 119.584 29.727 122.59C30.1686 125.596 33.3199 125.615 33.3199 125.615C33.3199 125.615 30.598 127.629 30.8218 130.578C30.8218 130.578 29.2643 129.238 28.3509 130.78C26.6815 133.529 30.5527 135.232 31.1999 133.898C31.1999 133.898 39.4019 139.702 37.4331 148.058L37.8898 148.739C37.8323 149.416 37.796 149.819 37.796 149.819L38.4341 149.543L39.166 150.602C39.1426 151.815 39.2052 153.027 39.3536 154.231L41.3103 151.334C39.3324 142.977 47.5435 137.171 47.5435 137.171C48.1424 138.541 52.0045 136.832 50.3259 134.086Z" fill="#E0E0E0"/>
<path d="M48.7315 169.731H29.9471L27.9238 149.165H50.7638L48.7315 169.731Z" fill="#E6E6E6"/>
<path d="M51.7621 146.896H26.917V151.436H51.7621V146.896Z" fill="#F0F0F0"/>
<path d="M54.7412 69.8148L60.1609 127.299H62.9342L57.2635 69.6877L54.7412 69.8148Z" fill="#C2C4C6"/>
<path d="M62.4326 69.815L66.0861 126.543H68.3573L65.2029 69.688L62.4326 69.815Z" fill="#C2C4C6"/>
<path d="M62.0537 180.12H59.2773V131.333H63.4389L62.0537 180.12Z" fill="#C2C4C6"/>
<path d="M77.8108 179.865H75.0375L73.9033 131.333H78.0618L77.8108 179.865Z" fill="#C2C4C6"/>
<path d="M81.9698 179.993H84.7431L85.8773 131.458H81.7188L81.9698 179.993Z" fill="#C2C4C6"/>
<path d="M103.022 179.993H105.795L105.922 131.839H101.761L103.022 179.993Z" fill="#C2C4C6"/>
<path d="M80.8351 125.533H58.7754V132.087H80.8351V125.533Z" fill="#2E3135"/>
<path d="M106.678 125.533H80.835V132.087H106.678V125.533Z" fill="#3F4347"/>
<path d="M83.7354 169.655V174.824H89.6601V169.026L83.7354 169.655Z" fill="#F9B499"/>
<path d="M83.4814 179.406V174.446L89.6753 174.367L96.5981 178.021C96.7888 178.122 96.9484 178.273 97.0598 178.458C97.1711 178.643 97.2301 178.854 97.2302 179.07C97.2294 179.383 97.1055 179.682 96.8853 179.904C96.6651 180.126 96.3663 180.252 96.0537 180.256L84.4553 180.361C84.3283 180.364 84.202 180.341 84.084 180.294C83.9659 180.247 83.8584 180.177 83.7677 180.088C83.6771 179.999 83.6051 179.893 83.5559 179.776C83.5067 179.659 83.4814 179.533 83.4814 179.406Z" fill="#0BCA7A"/>
<path d="M110.964 169.531V174.697H116.889V168.899L110.964 169.531Z" fill="#F9B499"/>
<path d="M110.713 179.278V174.318L116.907 174.24L123.817 177.893C124.008 177.994 124.168 178.145 124.28 178.33C124.391 178.515 124.45 178.727 124.45 178.943C124.45 179.256 124.326 179.556 124.106 179.778C123.885 180 123.586 180.126 123.273 180.128L111.675 180.237C111.548 180.237 111.423 180.213 111.307 180.165C111.19 180.117 111.084 180.046 110.995 179.957C110.905 179.868 110.835 179.762 110.786 179.646C110.738 179.529 110.713 179.405 110.713 179.278Z" fill="#0BCA7A"/>
<path d="M42.5137 180.119H44.4039L54.6142 104.48H52.5969L42.5137 180.119Z" fill="#9EA0A3"/>
<path d="M79.1962 180.119H77.306L67.0957 104.48H69.113L79.1962 180.119Z" fill="#9EA0A3"/>
<path d="M73.6528 145.956H47.6826V147.973H73.6528V145.956Z" fill="#9EA0A3"/>
<path d="M141.471 180.119H143.361L153.574 104.48H151.557L141.471 180.119Z" fill="#9EA0A3"/>
<path d="M178.156 180.119H176.263L166.053 104.48H168.07L178.156 180.119Z" fill="#9EA0A3"/>
<path d="M172.61 145.956H146.64V147.973H172.61V145.956Z" fill="#9EA0A3"/>
<path d="M87.2647 62.8828L87.5158 70.5707L53.7306 71.3268L53.3525 63.8899L87.2647 62.8828Z" fill="#2E3135"/>
<path d="M176.895 101.961H48.4381C47.3241 101.961 46.4209 102.864 46.4209 103.978C46.4209 105.092 47.3241 105.995 48.4381 105.995H176.895C178.009 105.995 178.912 105.092 178.912 103.978C178.912 102.864 178.009 101.961 176.895 101.961Z" fill="#E1E1E2"/>
<path d="M80.2062 172.05H96.0902L98.7365 137.27C98.7365 137.27 98.8635 132.229 98.4854 129.833C98.4854 129.833 105.039 134.119 106.551 134.875L106.089 169.477C106.089 169.477 116.765 171.936 121.679 170.423L123.446 132.731C123.446 132.731 124.704 123.277 117.397 117.225L104.09 106.053L69.5695 105.935C69.5695 105.935 65.9403 119.747 73.3893 127.689L80.8141 135.087C81.1056 135.377 81.3334 135.725 81.4828 136.108C81.6323 136.491 81.7001 136.902 81.6821 137.313L80.2062 172.05Z" fill="#2F2E41"/>
<path opacity="0.2" d="M98.4856 129.821C98.4856 129.821 98.8636 125.284 95.3342 120.113L88.5264 108.892C88.5264 108.892 102.865 120.309 108.533 126.66C109.855 128.143 110.576 130.066 110.553 132.053L110.066 170.16C108.727 170.008 107.399 169.774 106.089 169.458L106.552 134.875L98.4856 129.821Z" fill="black"/>
<path d="M89.4702 64.6733L76.033 67.7975C76.033 67.7975 69.4792 67.9245 67.4619 74.9834L64.498 90.5528L71.6204 95.6579L77.4665 101.952H114.745L112.719 77.3787C112.719 77.3787 110.825 70.5346 97.7782 67.5918L89.4702 64.6733Z" fill="#0BCA7A"/>
<path opacity="0.2" d="M78.1892 74.6055L77.5844 85.4206L77.4785 101.952H86.7694C86.7694 101.952 80.9626 85.8259 78.1892 74.6055Z" fill="black"/>
<path opacity="0.2" d="M104.274 101.952H110.108C110.108 101.952 106.428 89.2283 106.301 79.1421L104.274 101.952Z" fill="black"/>
<path d="M147.126 65.4023H111.109C109.359 65.4023 107.939 66.8214 107.939 68.5719V91.3544C107.939 93.1049 109.359 94.5239 111.109 94.5239H147.126C148.877 94.5239 150.296 93.1049 150.296 91.3544V68.5719C150.296 66.8214 148.877 65.4023 147.126 65.4023Z" fill="#2F2E41"/>
<path opacity="0.2" d="M147.168 65.4023H111.067C109.34 65.4023 107.939 66.8024 107.939 68.5295V91.3968C107.939 93.1239 109.34 94.5239 111.067 94.5239H147.168C148.896 94.5239 150.296 93.1239 150.296 91.3968V68.5295C150.296 66.8024 148.896 65.4023 147.168 65.4023Z" fill="#9EFF00"/>
<path d="M131.436 59.6499C131.423 59.7811 131.366 59.9038 131.273 59.9977C131.181 60.0918 131.061 60.1534 130.931 60.1732L126.975 60.7387C126.975 60.7387 128.237 60.9897 128.237 61.7458C128.237 61.7458 128.488 62.2509 127.731 62.756C127.877 63.0105 127.942 63.3028 127.92 63.5951C127.897 63.8873 127.787 64.1661 127.604 64.3952C127.604 64.3952 127.928 65.2057 127.453 65.4295L118.528 65.4023C118.528 65.4023 121.553 59.7286 126.47 59.0995L130.704 58.9937H130.837C130.921 58.9942 131.003 59.012 131.08 59.0459C131.156 59.0798 131.224 59.1292 131.28 59.1908C131.337 59.2525 131.38 59.3251 131.406 59.4041C131.433 59.4831 131.443 59.5668 131.436 59.6499Z" fill="#F9B499"/>
<path d="M131.436 59.6499C131.423 59.7811 131.365 59.9038 131.273 59.9977C131.181 60.0918 131.061 60.1534 130.931 60.1732L126.975 60.7387C125.638 60.655 124.31 61.0085 123.191 61.7458C124.075 59.9826 127.982 59.9826 127.982 59.9826C129.763 59.8556 130.453 59.408 130.704 58.9937H130.837C130.92 58.9942 131.003 59.012 131.079 59.0459C131.155 59.0798 131.224 59.1292 131.28 59.1908C131.336 59.2525 131.379 59.3251 131.406 59.4041C131.433 59.4831 131.443 59.5668 131.436 59.6499Z" fill="#F7A48B"/>
<path d="M127.226 63.0071L125.33 64.8973C125.33 64.8973 124.897 65.3298 122.91 65.4296" stroke="#F7A48B" stroke-miterlimit="10"/>
<path d="M97.7292 63.0069V68.2391C97.7292 69.3259 97.2975 70.3683 96.5289 71.1368C95.7604 71.9053 94.7181 72.3371 93.6312 72.3371C92.5444 72.3371 91.502 71.9053 90.7335 71.1368C89.965 70.3683 89.5332 69.3259 89.5332 68.2391V60.2336L90.8639 59.6741L97.7292 63.0069Z" fill="#F9B499"/>
<path d="M97.7294 63.0069V66.7299C96.6074 66.6784 93.6072 66.1704 91.7412 62.2961L97.7294 63.0069Z" fill="#F7A48B"/>
<path d="M100.754 58.0924C102.006 58.0924 103.022 56.653 103.022 54.8775C103.022 53.102 102.006 51.6626 100.754 51.6626C99.5009 51.6626 98.4854 53.102 98.4854 54.8775C98.4854 56.653 99.5009 58.0924 100.754 58.0924Z" fill="#0BCA7A"/>
<path opacity="0.2" d="M100.502 57.4511C101.408 57.4511 102.142 56.4112 102.142 55.1284C102.142 53.8456 101.408 52.8057 100.502 52.8057C99.5972 52.8057 98.8633 53.8456 98.8633 55.1284C98.8633 56.4112 99.5972 57.4511 100.502 57.4511Z" fill="black"/>
<path d="M100.182 51.8896C99.0503 48.857 95.6742 47.3162 92.6415 48.4483C89.6088 49.5803 88.0681 52.9565 89.2002 55.9892L91.0077 60.8314C92.1398 63.8641 95.5159 65.4048 98.5486 64.2728C101.581 63.1407 103.122 59.7645 101.99 56.7319L100.182 51.8896Z" fill="#F9B499"/>
<path d="M86.7296 58.54C86.7296 58.54 83.5299 54.6446 85.8223 49.2007C86.0142 48.7305 86.3457 48.3304 86.772 48.0545C87.0478 47.8624 87.3738 47.7554 87.7098 47.7468C88.0458 47.7382 88.3769 47.8284 88.6622 48.0061C88.6622 48.0061 88.6622 47.9365 88.6894 47.8216C88.7718 47.356 88.9462 46.9116 89.2023 46.5142C89.4585 46.1168 89.7913 45.7745 90.1813 45.5073C90.5713 45.24 91.0107 45.0532 91.4738 44.9578C91.9368 44.8624 92.4143 44.8602 92.8782 44.9515C94.5059 45.2442 96.1696 45.2779 97.8079 45.0513C98.0828 45.0147 98.3547 44.9581 98.6214 44.8819C99.5681 44.6218 102.677 44.0805 102.889 48.245C102.889 48.245 103.63 50.4377 100.297 52.0527L99.7919 50.9821C99.5231 50.5169 99.181 50.0982 98.7787 49.7421C98.7787 49.7421 95.3279 52.6576 91.0394 51.9015L90.5554 53.4137L86.7296 58.54Z" fill="#2F2E41"/>
<path d="M89.3402 57.4512H91.1548V61.1076H89.3402C88.8589 61.1076 88.3974 60.9164 88.0571 60.5761C87.7168 60.2358 87.5256 59.7743 87.5256 59.293C87.522 59.0524 87.5663 58.8135 87.6558 58.5902C87.7454 58.3669 87.8785 58.1636 88.0474 57.9922C88.2162 57.8209 88.4175 57.6847 88.6394 57.5919C88.8614 57.499 89.0996 57.4511 89.3402 57.4512Z" fill="#F9B499"/>
<path d="M88.904 53.804C88.904 53.804 88.1328 47.4528 92.8659 44.9517L93.9396 45.1361C93.9396 45.1361 90.3103 48.8017 91.1814 53.6981L88.904 53.804Z" fill="#0BCA7A"/>
<path d="M90.1659 60.4876C91.5589 60.4876 92.6882 58.879 92.6882 56.8947C92.6882 54.9104 91.5589 53.3018 90.1659 53.3018C88.7728 53.3018 87.6436 54.9104 87.6436 56.8947C87.6436 58.879 88.7728 60.4876 90.1659 60.4876Z" fill="#3F4347"/>
<path d="M88.9042 59.9826C90.2972 59.9826 91.4265 58.6002 91.4265 56.8948C91.4265 55.1894 90.2972 53.8069 88.9042 53.8069C87.5111 53.8069 86.3818 55.1894 86.3818 56.8948C86.3818 58.6002 87.5111 59.9826 88.9042 59.9826Z" fill="#0BCA7A"/>
<path opacity="0.2" d="M88.7135 58.9725C89.6538 58.9725 90.4162 57.9854 90.4162 56.7678C90.4162 55.5501 89.6538 54.563 88.7135 54.563C87.7731 54.563 87.0107 55.5501 87.0107 56.7678C87.0107 57.9854 87.7731 58.9725 88.7135 58.9725Z" fill="black"/>
<path d="M73.208 103.095C78.3944 103.095 82.5987 98.9191 82.5987 93.7678C82.5987 88.6166 78.3944 84.4407 73.208 84.4407C68.0217 84.4407 63.8174 88.6166 63.8174 93.7678C63.8174 98.9191 68.0217 103.095 73.208 103.095Z" fill="#0BCA7A"/>
<path d="M89.6606 95.0263C89.6606 95.0263 67.9789 106.879 65.4656 95.7824C65.4656 95.7824 63.3214 87.2114 72.7755 87.2114C72.7755 87.2114 79.9614 87.0844 90.4257 89.2286L101.135 91.4395C102.11 91.6425 102.986 92.1768 103.612 92.9516L108.297 98.6979C108.345 98.758 108.38 98.828 108.399 98.903C108.418 98.978 108.421 99.0562 108.406 99.1322C108.392 99.2082 108.361 99.2802 108.316 99.343C108.271 99.4059 108.213 99.4582 108.145 99.4964C108.048 99.5526 107.935 99.5763 107.823 99.5637C107.71 99.5512 107.605 99.5033 107.522 99.4268L102.266 94.6513L103.207 97.1585C103.303 97.4065 103.34 97.6732 103.317 97.9381C103.293 98.2029 103.209 98.4588 103.071 98.6858C102.768 99.1576 102.203 99.5689 101.132 99.3179C101.132 99.3179 100.376 100.074 99.1147 99.3179C99.1147 99.3179 98.0532 99.953 95.4401 100.059C95.3729 100.07 95.304 100.057 95.2446 100.024C95.1852 99.9906 95.1389 99.9382 95.113 99.8752C95.0871 99.8122 95.0832 99.7423 95.1019 99.6769C95.1207 99.6114 95.161 99.5542 95.2163 99.5145C95.7002 99.0548 96.4624 98.4832 97.2245 98.5588L96.4684 96.7956C96.4684 96.7956 91.4238 97.5487 89.6606 95.0263Z" fill="#F9B499"/>
<path d="M98.9873 92.8848C98.9873 92.8848 101.761 92.6307 102.266 94.648" stroke="#F7A48B" stroke-miterlimit="10"/>
<path d="M97.8535 93.3896L99.3899 94.1246C99.8052 94.322 100.161 94.6251 100.423 95.0036C100.684 95.3821 100.841 95.8226 100.878 96.2809L101.132 99.3053" stroke="#F7A48B" stroke-miterlimit="10"/>
<path d="M99.115 99.3143L99.0182 97.3122C99.0059 96.9902 98.9247 96.6747 98.7802 96.3867C98.6357 96.0987 98.4312 95.845 98.1804 95.6427L96.9707 94.6477" stroke="#F7A48B" stroke-miterlimit="10"/>
<path d="M148.369 65.4023H114.403C112.086 65.4023 110.208 67.2804 110.208 69.5971V90.3292C110.208 92.6459 112.086 94.5239 114.403 94.5239H148.369C150.686 94.5239 152.564 92.6459 152.564 90.3292V69.5971C152.564 67.2804 150.686 65.4023 148.369 65.4023Z" fill="#006418"/>
<path d="M139.393 68.3025H139.39C138.799 68.3025 138.319 68.7818 138.319 69.3731V73.6617C138.319 74.253 138.799 74.7323 139.39 74.7323H139.393C139.984 74.7323 140.464 74.253 140.464 73.6617V69.3731C140.464 68.7818 139.984 68.3025 139.393 68.3025Z" fill="#0BCA7A"/>
<path d="M142.671 68.3025H142.668C142.077 68.3025 141.598 68.7818 141.598 69.3731V73.6617C141.598 74.253 142.077 74.7323 142.668 74.7323H142.671C143.263 74.7323 143.742 74.253 143.742 73.6617V69.3731C143.742 68.7818 143.263 68.3025 142.671 68.3025Z" fill="#0BCA7A"/>
<path d="M146.074 68.3027H146.071C145.479 68.3027 145 68.7821 145 69.3734V73.6619C145 74.2532 145.479 74.7325 146.071 74.7325H146.074C146.665 74.7325 147.144 74.2532 147.144 73.6619V69.3734C147.144 68.7821 146.665 68.3027 146.074 68.3027Z" fill="#0BCA7A"/>
<path d="M126.842 79.9011L131.633 100.573H117.019C116.919 100.572 116.819 100.592 116.727 100.63C116.634 100.668 116.55 100.724 116.479 100.795C116.408 100.866 116.352 100.95 116.314 101.043C116.276 101.135 116.256 101.235 116.257 101.335C116.257 101.536 116.337 101.729 116.479 101.872C116.622 102.014 116.815 102.094 117.016 102.094H138.335C138.609 102.095 138.88 102.035 139.129 101.918C139.377 101.801 139.596 101.63 139.77 101.418C139.944 101.205 140.068 100.957 140.134 100.69C140.199 100.424 140.205 100.146 140.149 99.877L136.066 80.0251L126.842 79.9011Z" fill="#0BCA7A"/>
<path opacity="0.2" d="M126.848 79.9011L126.745 94.4755L130.187 94.5784L126.848 79.9011Z" fill="black"/>
<path d="M32.2644 142.24C29.0828 135.704 23.4938 132.347 17.2454 134.198C10.9971 136.049 10.0021 144.801 14.705 147.009C19.4079 149.217 24.0805 142.775 26.5423 141.444C29.0042 140.113 32.2644 142.24 32.2644 142.24Z" fill="#0BCA7A"/>
<path d="M35.3425 159.675C35.3425 158.885 35.2911 158.096 35.2639 157.307C35.2095 155.734 35.153 154.162 35.0945 152.592C34.9917 149.713 34.6802 146.891 33.4916 144.235C32.4355 141.834 30.6768 139.808 28.447 138.426C27.6191 137.925 26.7268 137.539 25.7946 137.279C24.951 136.423 23.8757 135.831 22.7007 135.577C21.2481 135.279 19.7543 135.24 18.2881 135.462C18.2307 135.462 18.2367 135.555 18.2881 135.543C19.6846 135.365 21.1026 135.468 22.4587 135.846C23.0407 136.002 23.6043 136.22 24.1403 136.496C24.4786 136.673 24.8031 136.875 25.1111 137.101C23.8452 136.836 22.5369 136.849 21.2762 137.137C20.8211 137.246 20.376 137.393 19.9455 137.576C19.6043 137.499 19.2545 137.468 18.9051 137.482C18.4468 137.499 17.9915 137.565 17.5472 137.679C16.6386 137.932 15.7702 138.311 14.9674 138.807C14.919 138.807 14.9674 138.9 15.0128 138.873C15.8018 138.435 16.6475 138.107 17.526 137.899C17.9533 137.805 18.387 137.742 18.8234 137.712C19.0622 137.7 19.3015 137.7 19.5402 137.712C17.7541 138.536 16.3181 139.966 15.4876 141.749C15.4876 141.798 15.536 141.843 15.5602 141.792C16.0578 140.759 16.7804 139.852 17.6748 139.135C18.5692 138.419 19.6128 137.912 20.7288 137.651C20.8709 137.621 21.0131 137.603 21.1522 137.576C21.1189 137.784 21.0978 137.996 21.0857 138.205C21.0403 138.522 20.9859 138.84 20.9254 139.154C20.7955 139.802 20.6258 140.442 20.4173 141.069C20.1971 141.703 19.9354 142.323 19.634 142.923C19.3518 143.564 18.9944 144.169 18.5694 144.725C18.5596 144.732 18.5526 144.741 18.5498 144.753C18.547 144.764 18.5486 144.776 18.5543 144.786C18.5629 144.793 18.5735 144.796 18.5845 144.796C18.5955 144.796 18.6062 144.793 18.6148 144.786C18.6232 144.78 18.6296 144.771 18.6329 144.762C19.011 144.157 19.4495 143.627 19.7943 143.014C20.1239 142.431 20.408 141.825 20.6441 141.199C20.8811 140.562 21.0642 139.907 21.1915 139.239C21.2639 138.888 21.3184 138.534 21.3548 138.178C21.4001 137.963 21.4154 137.743 21.4002 137.524C22.1363 137.415 22.8834 137.401 23.6231 137.482C23.3449 139.043 23.0485 140.67 22.1714 142.019C22.1442 142.061 22.2228 142.106 22.2501 142.058C22.6644 141.34 23.0301 140.595 23.3449 139.829C23.635 139.084 23.8193 138.302 23.8923 137.506C25.1857 137.681 26.4345 138.099 27.5729 138.737C29.7167 139.986 31.4289 141.859 32.4815 144.105C33.5809 146.518 34.1973 149.123 34.2961 151.772C34.5048 155.099 34.5471 158.477 34.8828 161.807C34.8828 162.025 35.2488 162.109 35.2881 161.849C35.3692 161.127 35.3874 160.4 35.3425 159.675Z" fill="#2F2E41"/>
<path d="M27.9911 137.863C27.7791 137.616 27.5361 137.396 27.2682 137.21C27.0051 136.998 26.7208 136.79 26.4577 136.605C25.9039 136.227 25.2906 135.943 24.6431 135.768C24.5886 135.768 24.5644 135.84 24.6431 135.849C25.2907 136.014 25.8965 136.313 26.4214 136.726C26.6916 136.916 26.9492 137.123 27.1926 137.346C27.4132 137.573 27.6576 137.776 27.9215 137.951C27.9638 137.966 28.0243 137.9 27.9911 137.863Z" fill="#2F2E41"/>
<path d="M17.8438 140.234C17.317 140.838 16.8281 141.475 16.38 142.139C15.9442 142.819 15.5774 143.54 15.2852 144.293C15.2852 144.293 15.3124 144.323 15.3245 144.293C16.0528 142.87 16.9125 141.518 17.8922 140.255C17.9375 140.249 17.877 140.189 17.8438 140.234Z" fill="#2F2E41"/>
<path d="M24.6848 139.587C24.6164 139.993 24.4944 140.389 24.3219 140.763C24.147 141.135 23.9427 141.492 23.7109 141.831C23.7109 141.831 23.7109 141.876 23.7442 141.831C24.2962 141.201 24.6488 140.421 24.7574 139.59C24.7725 139.554 24.6878 139.532 24.6848 139.587Z" fill="#2F2E41"/>
<path d="M34.9014 142.397C34.9014 142.397 39.4046 136.738 48.1178 138.743C56.3744 140.655 60.1669 155.798 51.8408 157.612C43.5148 159.427 44.9392 145.424 41.8997 143.026C39.6678 141.284 36.4529 141.659 34.9014 142.397Z" fill="#0BCA7A"/>
<path d="M54.8017 147.018C54.2357 146.521 53.6376 146.063 53.0112 145.645C52.4213 145.242 51.7793 144.922 51.1029 144.692C50.7639 144.178 50.3857 143.691 49.9718 143.234C49.2033 142.41 48.3165 141.705 47.3406 141.142H47.6037C48.0661 141.117 48.5294 141.117 48.9919 141.142C49.9174 141.199 50.8245 141.426 51.6684 141.81C51.7168 141.81 51.7561 141.756 51.7077 141.734C50.8482 141.363 49.9492 141.092 49.0282 140.924C48.5799 140.845 48.1254 140.806 47.6702 140.809C47.4265 140.802 47.1826 140.816 46.9413 140.851H46.7992C45.9994 140.452 45.156 140.148 44.2859 139.944C44.3684 139.929 44.4493 139.907 44.5279 139.877C44.9519 139.782 45.3811 139.71 45.8132 139.663C46.6783 139.564 47.5525 139.577 48.4142 139.702C48.4717 139.702 48.4807 139.629 48.4142 139.626C47.5426 139.518 46.6637 139.481 45.786 139.514C45.0483 139.536 44.3147 139.632 43.5964 139.802C43.0719 139.705 42.5414 139.645 42.0086 139.62C38.9842 139.487 35.6756 140.621 33.7914 143.113C31.9072 145.606 31.5624 148.929 31.2358 151.942C30.742 156.139 30.6469 160.374 30.9515 164.59C30.9515 164.834 31.3175 164.792 31.3265 164.556C31.4415 160.984 31.5685 157.437 31.9072 153.853C32.0675 152.211 32.2429 150.569 32.5121 148.923C32.7153 147.518 33.1228 146.149 33.7218 144.862C34.3652 143.543 35.3851 142.446 36.6524 141.707C37.9247 140.975 39.3445 140.537 40.8079 140.425C42.1198 140.319 43.44 140.443 44.7094 140.791C44.67 141.047 44.67 141.308 44.7094 141.565C44.7366 141.887 44.8005 142.204 44.8999 142.512C44.9938 142.804 45.1154 143.086 45.2628 143.355C45.4201 143.658 45.6227 143.903 45.8102 144.202C45.8102 144.248 45.907 144.202 45.8737 144.154C45.5128 143.643 45.2766 143.055 45.1842 142.436C45.1322 142.145 45.0968 141.851 45.0783 141.556V140.882C46.4578 141.307 47.7453 141.987 48.8739 142.887C49.0849 143.058 49.2868 143.241 49.4788 143.434C49.1913 143.701 48.9419 144.006 48.7378 144.341C48.4405 144.777 48.1824 145.239 47.9666 145.72C47.5607 146.675 47.283 147.678 47.1409 148.706C47.1409 148.76 47.2105 148.778 47.2166 148.706C47.377 147.7 47.7128 146.731 48.2085 145.841C48.4381 145.402 48.6957 144.978 48.9798 144.571C49.1219 144.363 49.2822 144.154 49.4334 143.951C49.5181 143.848 49.6088 143.74 49.6935 143.619C50.7169 144.618 51.551 145.794 52.1553 147.091C51.7444 147.525 51.4018 148.02 51.1392 148.557C50.8276 149.116 50.5567 149.696 50.3286 150.293C49.9078 151.452 49.5603 152.636 49.2882 153.838C49.2843 153.848 49.2846 153.86 49.2891 153.87C49.2937 153.88 49.302 153.888 49.3124 153.892C49.3233 153.896 49.3353 153.896 49.346 153.892C49.3567 153.887 49.3652 153.879 49.3699 153.868C49.3729 153.858 49.3729 153.848 49.3699 153.838C49.6425 152.629 50.0652 151.458 50.628 150.354C50.8912 149.806 51.1754 149.259 51.4567 148.745C51.7559 148.256 52.0275 147.752 52.2703 147.233C52.8474 148.501 53.1837 149.866 53.2623 151.258C53.2623 151.316 53.35 151.31 53.3439 151.258C53.1828 149.076 52.516 146.962 51.3962 145.082C51.9315 145.296 52.4555 145.537 52.9659 145.805C53.6213 146.149 54.231 146.574 54.7805 147.069C54.7896 147.118 54.844 147.069 54.8017 147.018Z" fill="#2F2E41"/>
<path d="M48.4264 147.336C48.1694 148.197 47.8397 149.029 47.6038 149.894C47.3645 150.727 47.2353 151.587 47.2197 152.453H47.259C47.4978 150.718 47.9175 149.013 48.5111 147.366C48.5131 147.36 48.514 147.354 48.5137 147.348C48.5134 147.343 48.512 147.337 48.5094 147.331C48.5069 147.326 48.5033 147.321 48.499 147.317C48.4946 147.313 48.4895 147.31 48.4839 147.308C48.4784 147.306 48.4725 147.305 48.4666 147.306C48.4607 147.306 48.4549 147.307 48.4495 147.31C48.4442 147.313 48.4394 147.316 48.4355 147.32C48.4315 147.325 48.4284 147.33 48.4264 147.336Z" fill="#2F2E41"/>
<path d="M53.9365 145.212C53.592 144.884 53.2018 144.607 52.7781 144.39C52.3497 144.193 51.9043 144.035 51.4474 143.918C51.399 143.918 51.3839 143.984 51.4474 143.997C51.9031 144.122 52.3396 144.31 52.7449 144.553C53.1547 144.764 53.548 145.006 53.9214 145.276C53.9214 145.276 53.9546 145.234 53.9365 145.212Z" fill="#2F2E41"/>
<path d="M39.1748 134.839C39.1748 134.839 40.0095 124.674 47.5674 121.384C53.8762 118.643 57.4904 125.721 53.0415 130.063C49.4183 133.575 43.6297 131.99 39.1748 134.839Z" fill="#0BCA7A"/>
<path d="M51.6293 123.349C50.4785 123.815 49.3556 124.347 48.2662 124.943C47.3612 125.463 46.4905 126.041 45.6592 126.673C45.7862 126.416 45.8951 126.125 46.0221 125.895C46.2162 125.502 46.4302 125.118 46.6633 124.746C47.1215 123.976 47.673 123.265 48.3055 122.629C48.3448 122.599 48.3055 122.538 48.245 122.575C47.6093 123.208 47.0239 123.889 46.4939 124.613C46.2339 124.983 45.9937 125.367 45.7741 125.762C45.5527 126.129 45.3818 126.524 45.266 126.936L45.1844 126.996C43.8648 128.049 42.655 129.233 41.5733 130.529C41.5806 130.425 41.603 130.323 41.6398 130.226C41.782 129.727 41.9423 129.24 42.0995 128.747C42.4238 127.705 42.8823 126.708 43.4635 125.784C43.4662 125.779 43.4679 125.774 43.4686 125.769C43.4693 125.764 43.4689 125.758 43.4675 125.753C43.4661 125.748 43.4637 125.743 43.4604 125.739C43.4571 125.735 43.453 125.732 43.4484 125.729C43.4439 125.726 43.4388 125.725 43.4336 125.724C43.4284 125.723 43.4231 125.724 43.418 125.725C43.4129 125.727 43.4082 125.729 43.404 125.732C43.3999 125.736 43.3965 125.74 43.394 125.744C42.7981 126.67 42.2685 127.638 41.8092 128.639C41.5909 129.129 41.4079 129.634 41.2618 130.151C41.1528 130.483 41.0709 130.824 41.0168 131.17C40.6872 131.584 40.3575 132.008 40.0581 132.443C36.8099 137.061 35.1828 142.647 34.7957 148.239C34.6773 149.905 34.648 151.576 34.708 153.245C34.7205 154.93 34.8681 156.612 35.1495 158.274C35.1539 158.286 35.1605 158.296 35.1689 158.305C35.1774 158.314 35.1875 158.322 35.1987 158.327C35.21 158.332 35.2221 158.334 35.2344 158.335C35.2467 158.335 35.259 158.333 35.2705 158.329C35.2872 158.322 35.3017 158.311 35.3123 158.297C35.323 158.282 35.3295 158.265 35.331 158.247C35.2977 156.777 35.1435 155.31 35.1163 153.865C35.088 152.391 35.1355 150.918 35.2584 149.449C35.4967 146.517 36.0483 143.618 36.9037 140.803C37.7782 137.92 39.0691 135.18 40.7355 132.67C41.0531 132.604 41.3707 132.516 41.6852 132.44L42.8163 132.138C43.5455 131.95 44.2545 131.692 44.9334 131.367C44.9818 131.367 44.9334 131.267 44.888 131.294C44.2237 131.661 43.5016 131.912 42.7528 132.035C42.163 132.15 41.5431 132.225 40.9563 132.362C41.5047 131.555 42.0905 130.785 42.7135 130.051C44.1497 130.183 45.5979 130.076 46.999 129.733C47.7424 129.551 48.4737 129.323 49.1886 129.05C49.9447 128.747 50.6615 128.382 51.4085 128.07C51.463 128.07 51.4085 127.964 51.3753 127.991C50.0166 128.734 48.5334 129.222 46.999 129.431C45.6516 129.646 44.2896 129.757 42.9252 129.764C43.4726 129.159 44.02 128.554 44.6067 127.985C46.5794 125.999 48.95 124.453 51.5628 123.449C51.7079 123.409 51.6777 123.328 51.6293 123.349Z" fill="#2F2E41"/>
<path d="M45.4864 123.383C45.1451 123.81 44.8358 124.262 44.561 124.734C44.2771 125.233 44.0528 125.763 43.8926 126.313H43.9228C44.1769 125.814 44.3886 125.297 44.6426 124.801C44.895 124.311 45.1992 123.85 45.5499 123.425C45.5711 123.398 45.5106 123.337 45.4864 123.383Z" fill="#2F2E41"/>
<path d="M52.4944 126.766C52.0032 127.037 51.4839 127.253 50.9459 127.411C50.4287 127.583 49.9015 127.725 49.3672 127.834V127.876C49.9269 127.819 50.4787 127.7 51.0124 127.522C51.5293 127.323 52.0342 127.094 52.5246 126.836C52.6002 126.803 52.5549 126.739 52.4944 126.766Z" fill="#2F2E41"/>
<path d="M33.3259 133.009C33.2836 133.454 32.1827 129.319 25.7953 125.654C19.9643 122.327 13.0627 113.659 18.7243 108.182C23.3213 103.803 35.4188 113.402 33.3259 133.009Z" fill="#0BCA7A"/>
<path d="M37.7079 156.69C37.6169 152.391 37.2786 148.102 36.6948 143.842C36.1894 139.929 35.2844 136.078 33.994 132.35C33.5192 131.004 32.9748 129.682 32.3911 128.379C32.4302 127.875 32.4302 127.37 32.3911 126.867C32.3578 126.213 32.2973 125.563 32.2368 124.916C32.1764 124.269 32.1159 123.618 32.0342 122.971C31.9526 122.324 31.8195 121.68 31.7923 121.033C31.7923 121.023 31.7886 121.013 31.7818 121.006C31.7751 120.998 31.7659 120.994 31.756 120.993C31.7455 120.993 31.7355 120.997 31.7282 121.005C31.7208 121.012 31.7167 121.022 31.7167 121.033C31.8439 121.712 31.9188 122.401 31.9405 123.092C31.9888 123.718 32.0282 124.347 32.0433 124.976C32.0584 125.605 32.0433 126.231 32.0433 126.86V127.571C31.4384 126.301 30.7912 125.055 30.1016 123.833C30.5341 121.181 29.9686 118.416 29.4333 115.825C29.4333 115.77 29.3395 115.825 29.3516 115.825C29.6121 117.174 29.7487 118.545 29.7599 119.92C29.7599 121.014 29.7599 122.112 29.7266 123.207C29.5724 122.944 29.4242 122.687 29.2669 122.43C28.4382 121.071 27.5531 119.747 26.6115 118.459C26.6868 117.831 26.6664 117.196 26.551 116.575C26.4442 115.876 26.2886 115.186 26.0853 114.509C25.8837 113.834 25.6478 113.169 25.3776 112.516C25.1054 111.841 24.7334 111.206 24.4703 110.532C24.4657 110.523 24.4578 110.516 24.4482 110.512C24.4386 110.509 24.4281 110.51 24.4189 110.514C24.4141 110.516 24.4098 110.519 24.4061 110.522C24.4025 110.526 24.3996 110.53 24.3976 110.535C24.3957 110.54 24.3947 110.545 24.3947 110.55C24.3947 110.555 24.3957 110.56 24.3977 110.565C24.7216 111.203 24.9771 111.873 25.1598 112.564C25.3711 113.217 25.5447 113.882 25.68 114.554C25.8171 115.226 25.93 115.901 26.0188 116.581C26.0853 117.028 26.1246 117.488 26.2002 117.948C24.8331 116.109 23.3384 114.369 21.7272 112.74C21.6879 112.7 21.6334 112.74 21.6697 112.8C24.1037 115.545 26.2784 118.51 28.1661 121.656L28.3747 122.012C28.0179 121.795 27.6186 121.619 27.2799 121.432L25.4169 120.406C24.812 120.086 24.2072 119.75 23.6023 119.418C23.2998 119.245 22.9974 119.067 22.6708 118.906C22.2898 118.735 21.9236 118.533 21.576 118.302C21.5306 118.268 21.4762 118.341 21.5306 118.368C22.1355 118.707 22.6859 119.212 23.2847 119.578C23.8836 119.944 24.4945 120.328 25.0993 120.673C26.2335 121.308 27.4644 121.767 28.5864 122.418C29.3607 123.773 30.0775 125.158 30.7337 126.585C30.0563 126.154 29.3647 125.739 28.659 125.342C28.2084 125.091 27.7517 124.84 27.295 124.598C26.8385 124.387 26.4064 124.126 26.0067 123.821C25.9643 123.788 25.9099 123.821 25.9462 123.881C26.6925 124.55 27.5184 125.124 28.405 125.59C29.2276 126.071 30.0502 126.531 30.9092 126.954C31.6135 128.452 32.2394 129.985 32.7843 131.548C35.4729 139.161 36.4589 147.251 36.9307 155.277C37.0728 157.673 37.1454 160.065 37.1756 162.463C37.2059 164.862 37.0789 167.245 37.0849 169.64C37.088 169.654 37.0959 169.667 37.1072 169.676C37.1184 169.685 37.1325 169.69 37.1469 169.69C37.1614 169.69 37.1754 169.685 37.1866 169.676C37.1979 169.667 37.2058 169.654 37.2089 169.64C37.5113 167.523 37.5507 165.355 37.6414 163.219C37.7321 161.084 37.7472 158.864 37.7079 156.69Z" fill="#2F2E41"/>
<path d="M26.0857 122.209C24.9193 121.694 23.786 121.107 22.6923 120.452C21.5847 119.829 20.5115 119.146 19.4774 118.407C19.4774 118.407 19.4381 118.407 19.4774 118.434C20.4548 119.239 21.4887 119.971 22.5714 120.627C23.7046 121.256 24.8752 121.816 26.0766 122.303C26.0978 122.303 26.131 122.23 26.0857 122.209Z" fill="#2F2E41"/>
<path d="M27.9449 113.598C27.8481 113.226 27.7332 112.867 27.6061 112.504C27.6106 112.499 27.6131 112.492 27.6131 112.486C27.6131 112.479 27.6106 112.472 27.6061 112.467C27.5245 112.259 27.4428 112.056 27.3551 111.863C27.3582 111.836 27.3582 111.81 27.3551 111.784L27.3037 111.669L27.3702 111.878C27.3781 111.919 27.3892 111.959 27.4035 111.999C27.8258 113.419 28.1422 114.868 28.3501 116.336C28.3501 116.346 28.3543 116.356 28.3617 116.363C28.369 116.371 28.379 116.375 28.3895 116.375C28.3945 116.375 28.3995 116.374 28.4041 116.372C28.4087 116.37 28.4128 116.367 28.4163 116.363C28.4197 116.359 28.4223 116.355 28.4239 116.35C28.4255 116.346 28.4262 116.341 28.4258 116.336C28.3526 115.41 28.1916 114.494 27.9449 113.598Z" fill="#2F2E41"/>
<path d="M44.4492 158.235L43.9956 163.642L42.5983 180.125H27.6458L26.2516 163.642L25.7949 158.235H44.4492Z" fill="#095449"/>
<path opacity="0.2" d="M44.4492 158.235L43.9956 163.642H26.2516L25.7949 158.235H44.4492Z" fill="black"/>
<path d="M45.916 156.066H24.3281V161.253H45.916V156.066Z" fill="#095449"/>
<path d="M80.3336 36.1265H69.7755C68.9287 36.1265 68.2422 36.813 68.2422 37.6598V42.1752C68.2422 43.022 68.9287 43.7085 69.7755 43.7085H80.3336C81.1804 43.7085 81.867 43.022 81.867 42.1752V37.6598C81.867 36.813 81.1804 36.1265 80.3336 36.1265Z" fill="#0BCA7A"/>
<path d="M76.2656 43.1341L81.398 47.1686L78.2163 42.8438L76.2656 43.1341Z" fill="#0BCA7A"/>
<path d="M78.0979 39.9099C78.0979 39.8515 78.1094 39.7937 78.1317 39.7398C78.154 39.6858 78.1868 39.6368 78.2281 39.5955C78.2694 39.5543 78.3184 39.5215 78.3723 39.4992C78.4262 39.4768 78.4841 39.4653 78.5424 39.4653C78.631 39.4659 78.7173 39.4928 78.7906 39.5425C78.8639 39.5921 78.9208 39.6624 78.9541 39.7444C78.9874 39.8265 78.9957 39.9165 78.9778 40.0032C78.9599 40.0899 78.9168 40.1694 78.8538 40.2316C78.7907 40.2937 78.7107 40.3358 78.6238 40.3525C78.5368 40.3692 78.4469 40.3597 78.3653 40.3253C78.2838 40.2909 78.2142 40.233 78.1656 40.1591C78.1169 40.0852 78.0912 39.9984 78.0918 39.9099H78.0979Z" fill="white"/>
<path d="M75.7727 39.9099C75.7727 39.792 75.8195 39.6789 75.9029 39.5955C75.9863 39.5122 76.0993 39.4653 76.2172 39.4653C76.3058 39.4659 76.3921 39.4928 76.4654 39.5425C76.5387 39.5921 76.5956 39.6624 76.6289 39.7444C76.6622 39.8265 76.6705 39.9165 76.6526 40.0032C76.6348 40.0899 76.5916 40.1694 76.5286 40.2316C76.4656 40.2937 76.3855 40.3358 76.2986 40.3525C76.2116 40.3692 76.1217 40.3597 76.0401 40.3253C75.9586 40.2909 75.8891 40.233 75.8404 40.1591C75.7917 40.0852 75.766 39.9984 75.7666 39.9099H75.7727Z" fill="white"/>
<path d="M73.4465 39.9099C73.4465 39.792 73.4933 39.6789 73.5767 39.5955C73.6601 39.5122 73.7732 39.4653 73.8911 39.4653C73.9796 39.4659 74.066 39.4928 74.1392 39.5425C74.2125 39.5921 74.2694 39.6624 74.3027 39.7444C74.336 39.8265 74.3443 39.9165 74.3264 40.0032C74.3086 40.0899 74.2654 40.1694 74.2024 40.2316C74.1394 40.2937 74.0593 40.3358 73.9724 40.3525C73.8855 40.3692 73.7955 40.3597 73.714 40.3253C73.6324 40.2909 73.5629 40.233 73.5142 40.1591C73.4655 40.0852 73.4398 39.9984 73.4404 39.9099H73.4465Z" fill="white"/>
<path d="M71.1213 39.9099C71.1213 39.792 71.1681 39.6789 71.2515 39.5955C71.3349 39.5122 71.448 39.4653 71.5659 39.4653C71.6544 39.4659 71.7408 39.4928 71.814 39.5425C71.8873 39.5921 71.9442 39.6624 71.9775 39.7444C72.0108 39.8265 72.0191 39.9165 72.0012 40.0032C71.9834 40.0899 71.9402 40.1694 71.8772 40.2316C71.8142 40.2937 71.7341 40.3358 71.6472 40.3525C71.5603 40.3692 71.4703 40.3597 71.3888 40.3253C71.3072 40.2909 71.2377 40.233 71.189 40.1591C71.1403 40.0852 71.1146 39.9984 71.1152 39.9099H71.1213Z" fill="white"/>
</svg>
