<svg width="245" height="193" viewBox="0 0 245 193" fill="none" xmlns="http://www.w3.org/2000/svg">
<path d="M226.004 53.3932C226.004 53.3932 215.638 29.4664 179.775 23.6726C176.086 23.0809 172.366 22.7034 168.634 22.5421C163.37 22.3165 158.097 22.4335 152.849 22.8926C150.7 23.081 148.491 23.3184 146.224 23.6048C146.224 23.6048 138.968 24.9529 130.521 27.3947C124.459 29.1413 117.786 31.4532 112.735 34.2286C112.735 34.2286 103.425 38.1853 94.3548 36.953C88.4489 36.156 82.4693 35.961 76.5605 36.6902C69.2028 37.5974 59.5501 39.3977 49.7021 42.9729C16.5415 55.0013 -0.805656 91.0046 10.0243 124.227C10.2733 124.979 10.5309 125.733 10.8054 126.488C11.6996 128.924 12.7212 131.4 13.8956 133.873C23.7719 154.679 44.2744 175.246 86.8783 168.813C86.8783 168.813 105.522 167.202 118.007 168.989C118.007 168.989 193.771 181.373 227.178 137.021C227.184 137.021 252.726 104.39 226.004 53.3932Z" fill="#0BCA7A"/>
<path opacity="0.7" d="M227.18 137.021C226.982 137.284 226.784 137.546 226.583 137.804C225.413 139.311 224.196 140.751 222.932 142.125C214.27 151.553 203.505 157.952 192.203 162.279C190.38 162.974 188.547 163.616 186.701 164.203C159.735 172.826 131.165 170.585 121.464 169.452C119.245 169.192 118.014 168.988 118.014 168.988C117.347 168.895 116.659 168.807 115.96 168.731C103.582 167.372 86.8801 168.813 86.8801 168.813C73.0137 170.907 61.4819 170.139 51.9027 167.437C49.7685 166.834 47.6693 166.114 45.6147 165.28C33.135 160.193 24.4642 151.579 18.4479 142.125C17.5404 140.701 16.6914 139.26 15.901 137.804C15.1897 136.498 14.5228 135.187 13.9002 133.87C12.7258 131.397 11.7042 128.921 10.81 126.487C10.5383 125.734 10.278 124.98 10.029 124.226C5.31059 109.812 5.7962 94.203 11.4015 80.1091C12.1391 78.2382 12.9607 76.4058 13.8663 74.6121C20.6475 61.2399 31.8645 50.6318 45.6034 44.5976C46.9354 44.0079 48.2975 43.4606 49.6898 42.9556C50.4255 42.6899 51.1594 42.4337 51.8914 42.1869C59.9047 39.5288 68.1651 37.6815 76.5482 36.6729C82.4627 35.9409 88.4337 36.1387 94.3425 36.9357C103.415 38.1595 112.723 34.2113 112.723 34.2113C113.739 33.646 114.822 33.1147 115.949 32.5947C117.692 31.792 119.548 31.0374 121.453 30.3337C124.444 29.2201 127.548 28.2338 130.508 27.3803C138.956 24.9412 146.211 23.5875 146.211 23.5875C148.475 23.2973 150.685 23.0618 152.839 22.8809C158.087 22.4253 163.359 22.3101 168.621 22.5361C172.354 22.7004 176.073 23.0778 179.763 23.6666C182.189 24.0566 184.498 24.5277 186.69 25.0797C188.609 25.5545 190.443 26.0802 192.191 26.6568C218.076 35.1354 225.992 53.3872 225.992 53.3872C229.583 60.1525 232.48 67.2638 234.637 74.6121C235.174 76.4812 235.646 78.3126 236.052 80.1063C244.026 115.505 227.18 137.021 227.18 137.021Z" fill="white"/>
<g opacity="0.7">
<path d="M236.05 80.1093H11.3965C12.1379 78.2384 12.9614 76.406 13.867 74.6123H234.626C235.173 76.4833 235.648 78.3156 236.05 80.1093Z" fill="white"/>
<path d="M226.583 137.804C225.413 139.311 224.197 140.751 222.933 142.125H18.4395C17.532 140.701 16.6831 139.26 15.8926 137.804H226.583Z" fill="white"/>
<path d="M51.9032 42.1899V167.437C49.769 166.835 47.6698 166.115 45.6152 165.28V44.6007C46.9472 44.011 48.3093 43.4636 49.7016 42.9587C50.4374 42.693 51.1712 42.4368 51.9032 42.1899Z" fill="white"/>
<path d="M121.465 30.334V169.452C119.246 169.192 118.015 168.989 118.015 168.989C117.348 168.895 116.66 168.808 115.961 168.731V32.5978C117.704 31.7951 119.561 31.0405 121.465 30.334Z" fill="white"/>
<path d="M192.203 26.6625V162.279C190.381 162.974 188.547 163.616 186.702 164.203V25.0854C188.621 25.5603 190.455 26.0859 192.203 26.6625Z" fill="white"/>
</g>
<path opacity="0.5" d="M152.932 22.6943L134.136 74.7703H121.543V53.828L130.599 27.1965C139.051 24.7547 146.304 23.4065 146.304 23.4065C148.568 23.1126 150.778 22.8752 152.932 22.6943Z" fill="white"/>
<path opacity="0.5" d="M179.773 23.6724C172.928 42.0457 160.796 74.6122 160.878 74.6122H149.646L168.632 22.5391C172.365 22.7013 176.085 23.0797 179.773 23.6724Z" fill="white"/>
<path opacity="0.5" d="M34.3519 80.1093L13.8947 133.87C12.7203 131.397 11.6987 128.921 10.8045 126.485C10.5215 125.733 10.2725 124.978 10.0234 124.224L26.7197 80.1064L34.3519 80.1093Z" fill="white"/>
<path opacity="0.5" d="M40.1223 80.1094L19.1133 137.807H23.2675L44.0474 80.1094H40.1223Z" fill="white"/>
<path d="M56.9098 149.27C56.9098 149.27 57.3456 147.472 61.2848 146.28C62.2508 145.981 63.1838 145.586 64.0694 145.098C66.3334 143.866 70.0122 141.424 72.0271 137.807C72.0271 137.807 72.3384 136.235 77.4491 135.45C77.4491 135.45 74.7409 141.461 74.5909 144.542C74.5584 145.45 74.3618 146.345 74.0108 147.184C73.0034 149.516 71.2715 153.894 71.5545 155.861C71.5545 155.861 71.945 160.948 64.0864 163.319C64.0864 163.319 54.8072 165.727 55.1242 168.251L49.6738 166.747L56.9098 149.27Z" fill="#0BCA7A"/>
<path opacity="0.2" d="M56.9098 149.27C56.9098 149.27 57.3456 147.472 61.2848 146.28C62.2508 145.981 63.1838 145.586 64.0694 145.098C66.3334 143.866 70.0122 141.424 72.0271 137.807C72.0271 137.807 72.3384 136.235 77.4491 135.45C77.4491 135.45 74.7409 141.461 74.5909 144.542C74.5584 145.45 74.3618 146.345 74.0108 147.184C73.0034 149.516 71.2715 153.894 71.5545 155.861C71.5545 155.861 71.945 160.948 64.0864 163.319C64.0864 163.319 54.8072 165.727 55.1242 168.251L49.6738 166.747L56.9098 149.27Z" fill="black"/>
<path d="M60.5904 127.209C60.5904 127.209 57.4039 131.527 58.9773 136.236C58.9773 136.236 60.9724 139.559 58.2302 143.454C57.2726 144.754 56.7497 146.322 56.7361 147.936C56.7317 148.746 56.9199 149.545 57.285 150.268C57.285 150.268 61.5921 161.957 49.6727 166.756L44.0468 164.614C44.0468 164.614 44.0469 162.534 41.6839 160.569C39.3209 158.605 37.7617 156.231 44.0468 149.177C44.3628 148.851 44.6568 148.504 44.9269 148.14C45.7759 146.992 46.9079 145.07 46.3985 143.304C46.3985 143.304 44.8477 140.277 47.5304 137.914C48.0715 137.467 48.7058 137.147 49.3868 136.976C50.3122 136.722 51.8885 135.786 51.8885 132.398C51.8885 132.398 49.5283 123.679 55.8192 118.97C55.8192 118.97 60.913 115.437 62.4977 111.512C62.5118 111.509 64.5635 121.714 60.5904 127.209Z" fill="#0BCA7A"/>
<path d="M44.9272 148.136C44.6571 148.501 44.3631 148.848 44.0472 149.174C37.762 156.239 39.3269 158.605 41.6842 160.566C44.0415 162.527 44.0472 164.61 44.0472 164.61C44.0472 164.61 26.7509 156.25 29.5016 149.185C29.8055 148.065 30.0231 146.924 30.1524 145.771C30.4734 142.775 29.7247 139.762 28.0385 137.264C26.4481 134.856 24.903 130.006 29.2072 122.076C29.2072 122.076 29.7732 128.426 34.352 131.154C34.352 131.154 38.0082 134.57 38.2742 139.132C38.2742 139.132 37.8214 140.76 41.7182 143.015C41.7182 143.007 45.0178 144.736 44.9272 148.136Z" fill="#0BCA7A"/>
<path d="M44.9272 148.136C44.6571 148.501 44.3631 148.848 44.0472 149.174C37.762 156.239 39.3269 158.605 41.6842 160.566C44.0415 162.527 44.0472 164.61 44.0472 164.61C44.0472 164.61 26.7509 156.25 29.5016 149.185C29.8055 148.065 30.0231 146.924 30.1524 145.771C30.4734 142.775 29.7247 139.762 28.0385 137.264C26.4481 134.856 24.903 130.006 29.2072 122.076C29.2072 122.076 29.7732 128.426 34.352 131.154C34.352 131.154 38.0082 134.57 38.2742 139.132C38.2742 139.132 37.8214 140.76 41.7182 143.015C41.7182 143.007 45.0178 144.736 44.9272 148.136Z" fill="#0BCA7A"/>
<path opacity="0.2" d="M44.9272 148.136C44.6571 148.501 44.3631 148.848 44.0472 149.174C37.762 156.239 39.3269 158.605 41.6842 160.566C44.0415 162.527 44.0472 164.61 44.0472 164.61C44.0472 164.61 26.7509 156.25 29.5016 149.185C29.8055 148.065 30.0231 146.924 30.1524 145.771C30.4734 142.775 29.7247 139.762 28.0385 137.264C26.4481 134.856 24.903 130.006 29.2072 122.076C29.2072 122.076 29.7732 128.426 34.352 131.154C34.352 131.154 38.0082 134.57 38.2742 139.132C38.2742 139.132 37.8214 140.76 41.7182 143.015C41.7182 143.007 45.0178 144.736 44.9272 148.136Z" fill="black"/>
<path d="M56.5163 161.18C60.8206 160.45 64.0268 156.971 64.723 152.721C64.9126 150.239 65.92 147.444 68.4018 146.441C66.4435 147.359 65.4021 149.442 65.0852 151.494C64.7513 156.384 61.5224 160.538 56.5078 161.18H56.5163Z" fill="white"/>
<path d="M32.5857 139.132C34.6657 139.545 35.9533 141.543 36.5476 143.445C36.8982 144.722 37.0884 146.038 37.1136 147.362L37.0711 148.801C36.5609 150.931 36.8955 153.175 38.005 155.064C38.4513 155.791 38.9918 156.456 39.6123 157.042C38.4247 156.058 37.5369 154.762 37.0497 153.3C36.5625 151.837 36.4954 150.268 36.856 148.77C36.8957 147.593 36.8436 146.414 36.7004 145.245C36.62 144.658 36.5028 144.077 36.3495 143.504C35.8061 141.617 34.6006 139.65 32.5801 139.138L32.5857 139.132Z" fill="white"/>
<path d="M47.3746 165.882C50.1394 163.44 51.2034 158.424 51.5741 154.883C51.659 154.204 51.6873 153.322 51.7439 152.636C51.7977 151.463 51.7581 150.036 51.9052 148.871C52.1294 146.867 52.5813 144.895 53.2523 142.993C54.0022 141.133 54.6672 139.242 54.9361 137.25C55.1226 136.016 55.1625 134.765 55.0549 133.522C54.138 128.271 55.2077 124.275 58.5838 120.143C55.3011 124.331 54.2965 128.288 55.2473 133.502C55.3597 134.761 55.3246 136.028 55.1426 137.278C54.8823 139.282 54.2144 141.204 53.4673 143.066C52.7947 144.952 52.3399 146.908 52.1118 148.897C51.959 150.058 51.9958 151.477 51.9364 152.647C51.8996 153.184 51.8373 153.989 51.7949 154.526C51.7581 154.809 51.594 156.089 51.5543 156.397L51.2713 157.884C50.8846 159.86 50.2005 161.765 49.2423 163.536C48.763 164.423 48.1263 165.215 47.3633 165.874L47.3746 165.882Z" fill="white"/>
<mask id="mask0_50_20253" style="mask-type:luminance" maskUnits="userSpaceOnUse" x="6" y="22" width="233" height="149">
<path d="M226.004 53.3932C226.004 53.3932 215.638 29.4664 179.775 23.6726C176.086 23.0823 172.366 22.7048 168.634 22.5421C163.37 22.3179 158.097 22.435 152.849 22.8926C150.7 23.081 148.491 23.3184 146.224 23.6048C146.224 23.6048 138.968 24.9529 130.521 27.3947C124.459 29.1413 117.786 31.4532 112.735 34.2285C112.735 34.2285 103.425 38.1853 94.3548 36.953C88.4489 36.156 82.4693 35.9582 76.5605 36.6902C69.2028 37.5974 59.5501 39.3977 49.7021 42.9729C16.5415 55.0013 -0.805655 90.9876 10.0243 124.227C10.2733 124.979 10.5309 125.733 10.8054 126.488C11.6996 128.921 12.7212 131.4 13.8956 133.873C23.7719 154.679 44.2744 175.246 86.8783 168.813C86.8783 168.813 105.522 167.202 118.007 168.989C118.007 168.989 193.771 181.373 227.178 137.021C227.184 137.021 252.726 104.39 226.004 53.3932Z" fill="white"/>
</mask>
<g mask="url(#mask0_50_20253)">
<path opacity="0.1" d="M181.592 68.2847C180.774 69.3643 179.419 69.9804 178.091 70.0963C177.903 70.1095 177.714 70.1151 177.525 70.1132C179.019 69.862 180.423 69.2325 181.603 68.2847H181.592Z" fill="black"/>
<path opacity="0.1" d="M181.609 71.4756C180.724 72.2556 179.467 72.5298 178.312 72.4987C179.444 72.2161 180.562 71.9815 181.609 71.4756Z" fill="black"/>
<path d="M112.736 125.835L118.716 174.7H224.797L234.455 125.835H112.736Z" fill="#B3B3B3"/>
<path opacity="0.15" d="M136.764 174.7L159.895 127.208H181.006L154.731 174.7H136.764Z" fill="white"/>
<path opacity="0.15" d="M192.459 127.208L167.98 174.7H189.315L213.12 127.208H192.459Z" fill="white"/>
<path d="M237.403 124.461H109.676V127.209H237.403V124.461Z" fill="#CCCCCC"/>
<path d="M226.001 82.8564H179.628V115.041H226.001V82.8564Z" fill="#333333"/>
<path opacity="0.2" d="M202.816 98.9492C204.118 98.9492 205.174 97.8952 205.174 96.595C205.174 95.2947 204.118 94.2407 202.816 94.2407C201.514 94.2407 200.459 95.2947 200.459 96.595C200.459 97.8952 201.514 98.9492 202.816 98.9492Z" fill="black"/>
<path d="M198.093 102.482H208.564C208.564 102.482 216.185 115.435 208.324 122.5H197.615C197.615 122.5 205.567 115.042 198.093 102.482Z" fill="#333333"/>
<path opacity="0.2" d="M198.093 102.482H208.564C208.564 102.482 216.185 115.435 208.324 122.5H197.615C197.615 122.5 205.567 115.042 198.093 102.482Z" fill="black"/>
<path d="M198.094 102.482H196.546C196.546 102.482 204.365 113.47 196.121 122.5H197.607C197.607 122.5 205.567 115.827 198.094 102.482Z" fill="#333333"/>
<path opacity="0.3" d="M198.094 102.482H196.546C196.546 102.482 204.365 113.47 196.121 122.5H197.607C197.607 122.5 205.567 115.827 198.094 102.482Z" fill="black"/>
<path d="M214.216 122.5H191.421V124.461H214.216V122.5Z" fill="#333333"/>
<path d="M135.414 138.316C135.17 138.683 136.096 138.641 136.096 138.641L137.822 138.66C139.288 132.256 136.028 128.144 136.028 128.144L134.047 128.404C134.047 128.404 136.384 129.006 136.526 133.989C136.529 133.989 136.684 136.399 135.414 138.316Z" fill="#333333"/>
<path d="M154.613 172.77C154.531 169.944 154.613 154.496 154.613 154.496L170.627 149.861L186.825 155.513C186.825 155.513 188.24 155.513 189.282 171.213" fill="#333333"/>
<path opacity="0.2" d="M154.613 172.77C154.531 169.944 154.613 154.496 154.613 154.496L170.627 149.861L186.825 155.513C186.825 155.513 188.24 155.513 189.282 171.213" fill="black"/>
<path d="M163.865 92.7373L159.018 102.103L163.138 97.1038L166.771 93.3874L165.385 92.0845H164.046L163.865 92.7373Z" fill="#0BCA7A"/>
<path opacity="0.2" d="M163.865 92.7373L159.018 102.103L163.138 97.1038L166.771 93.3874L165.385 92.0845H164.046L163.865 92.7373Z" fill="black"/>
<path d="M186.242 69.582C186.242 69.582 191.135 70.0851 188.846 74.282C188.846 74.282 190.329 74.7116 188.846 77.2241C188.846 77.2241 189.695 77.7272 187.176 78.8351C187.176 78.8351 185.048 79.8214 184.012 78.8351C184.012 78.8351 182.529 78.9962 182.753 78.1087C182.753 78.1087 181.621 78.4733 181.621 77.5435C181.63 77.5379 184.765 74.8953 186.242 69.582Z" fill="#333333"/>
<path opacity="0.1" d="M186.242 69.582C186.242 69.582 191.135 70.0851 188.846 74.282C188.846 74.282 190.329 74.7116 188.846 77.2241C188.846 77.2241 189.695 77.7272 187.176 78.8351C187.176 78.8351 185.048 79.8214 184.012 78.8351C184.012 78.8351 182.529 78.9962 182.753 78.1087C182.753 78.1087 181.621 78.4733 181.621 77.5435C181.63 77.5379 184.765 74.8953 186.242 69.582Z" fill="black"/>
<path d="M135.777 136.592C134.668 138.005 133.117 137.061 133.117 137.061C133.293 137.568 133.349 138.109 133.278 138.641C132.995 139.958 131.323 139.327 131.323 139.327C130.943 141.588 128.883 140.822 128.883 140.822C128.413 142.235 127.001 141.289 127.001 141.289L120.422 138.708C123.252 133.777 121.554 128.376 121.554 128.376L122.445 128.277C123.207 128.193 123.946 127.962 124.619 127.596C129.115 125.123 130.827 127.197 130.827 127.197C130.892 127.251 130.96 127.305 131.023 127.361C127.675 126.632 127.664 128.927 127.664 128.927C127.454 129.973 127.035 130.182 127.035 130.182C126.407 130.812 126.826 131.23 126.826 131.23C128.589 132.462 129.557 130.702 129.82 130.1C129.824 130.089 129.831 130.08 129.841 130.074C129.85 130.068 129.861 130.065 129.872 130.065C129.883 130.065 129.894 130.068 129.904 130.074C129.913 130.08 129.92 130.089 129.925 130.1C130.227 130.877 132.653 131.877 132.653 131.877C137.353 135.659 135.777 136.592 135.777 136.592Z" fill="#F9B499"/>
<path d="M127.428 139.898C127.982 140.08 128.482 140.397 128.882 140.82C128.328 140.639 127.828 140.322 127.428 139.898Z" fill="#F7A48B"/>
<path d="M129.893 137.954C130.466 138.302 130.955 138.771 131.327 139.328C130.756 138.978 130.266 138.51 129.893 137.954Z" fill="#F7A48B"/>
<path d="M131.322 134.879C132.029 135.51 132.634 136.246 133.116 137.061C132.41 136.429 131.805 135.694 131.322 134.879Z" fill="#F7A48B"/>
<path d="M135.415 138.315L133.29 138.64C133.36 138.108 133.305 137.567 133.129 137.061C133.129 137.061 134.679 138.002 135.789 136.591C135.789 136.591 137.365 135.653 132.659 131.894C132.659 131.894 130.234 130.894 129.931 130.117C129.927 130.106 129.919 130.097 129.91 130.091C129.901 130.085 129.89 130.082 129.878 130.082C129.867 130.082 129.856 130.085 129.847 130.091C129.838 130.097 129.83 130.106 129.826 130.117C129.566 130.704 128.598 132.468 126.832 131.247C126.832 131.247 126.413 130.829 127.041 130.199C127.041 130.199 127.46 129.989 127.67 128.944C127.67 128.944 127.67 126.649 131.029 127.378C132.069 127.46 133.084 127.743 134.017 128.209C134.47 128.44 134.872 128.759 135.199 129.147C135.527 129.535 135.773 129.985 135.924 130.47C136.49 132.236 137.147 135.551 135.415 138.315Z" fill="#F7A48B"/>
<path d="M120.009 139.288L118.75 139.079C122.61 133.347 119.856 127.339 119.743 127.118L121.475 127.568C121.475 127.568 123.773 134.969 120.009 139.288Z" fill="#333333"/>
<path d="M103.946 174.285L104.619 156.274L105.415 155.556L104.079 143.686L98.6172 160.812V176.67" fill="#333333"/>
<path opacity="0.2" d="M103.946 174.285L104.619 156.274L105.415 155.556L104.079 143.686L98.6172 160.812V176.67" fill="black"/>
<path d="M103.946 143.64C103.946 143.64 102.531 153.51 105.36 157.738C105.36 157.738 106.775 158.207 107.242 155.858C107.242 155.858 105.007 142.131 105.42 138.423L103.677 137.954L103.946 143.64Z" fill="#0BCA7A"/>
<path d="M91.038 86.5987L91.205 84.4282C91.2161 84.2853 91.1908 84.1419 91.1314 84.0114C91.072 83.8809 90.9805 83.7676 90.8654 83.6821L89.3599 82.5516L88.9863 80.4658C90.9503 81.3137 91.8388 82.4809 92.235 83.292C92.4235 83.694 92.5312 84.129 92.552 84.5723C92.6369 85.7226 93.4009 86.8785 93.8198 87.4127C93.8317 87.4291 93.8379 87.4488 93.8375 87.4691C93.8372 87.4893 93.8303 87.5088 93.8178 87.5248C93.8053 87.5407 93.788 87.5522 93.7685 87.5575C93.7489 87.5627 93.7282 87.5615 93.7094 87.554C92.6822 87.1159 91.038 86.5987 91.038 86.5987Z" fill="#0BCA7A"/>
<path opacity="0.4" d="M91.038 86.5987L91.205 84.4282C91.2161 84.2853 91.1908 84.1419 91.1314 84.0114C91.072 83.8809 90.9805 83.7676 90.8654 83.6821L89.3599 82.5516L88.9863 80.4658C90.9503 81.3137 91.8388 82.4809 92.235 83.292C92.4235 83.694 92.5312 84.129 92.552 84.5723C92.6369 85.7226 93.4009 86.8785 93.8198 87.4127C93.8317 87.4291 93.8379 87.4488 93.8375 87.4691C93.8372 87.4893 93.8303 87.5088 93.8178 87.5248C93.8053 87.5407 93.788 87.5522 93.7685 87.5575C93.7489 87.5627 93.7282 87.5615 93.7094 87.554C92.6822 87.1159 91.038 86.5987 91.038 86.5987Z" fill="white"/>
<path d="M98.3 70.3367C98.3 70.3367 97.7114 70.5402 98.017 71.8459C98.017 71.8459 98.2378 72.8351 97.6774 73.0951C97.6474 73.1087 97.6205 73.1285 97.5986 73.1533C97.5768 73.178 97.5603 73.207 97.5505 73.2385C97.5406 73.2699 97.5375 73.3031 97.5413 73.3359C97.5451 73.3687 97.5558 73.4002 97.5727 73.4286C97.7407 73.6756 97.8124 73.9755 97.7743 74.2717C97.7363 74.5679 97.5911 74.84 97.3661 75.0367C97.3661 75.0367 96.4238 75.5059 96.8964 76.9161C96.8964 76.9161 97.8387 81.1555 90.3084 78.3293C90.3084 78.3293 88.8935 79.7424 89.3689 82.5686L85.6023 79.7424C85.6023 79.7424 84.1874 78.3293 81.3575 77.3938C81.3575 77.3938 78.0663 76.4526 77.5938 75.5143L77.7211 74.4941L77.9673 72.5581V72.4733C78.6606 72.7559 79.4785 72.4733 80.0897 70.396C79.3712 69.6141 78.982 68.5857 79.003 67.5246C79.003 65.4473 80.3727 63.7685 82.0621 63.7685C87.5578 57.7091 83.4346 54.3968 81.6235 53.3398C81.5869 53.3175 81.5587 53.2837 81.5435 53.2437C81.5284 53.2036 81.527 53.1597 81.5397 53.1188C81.5523 53.0779 81.5783 53.0423 81.6135 53.0179C81.6487 52.9934 81.6911 52.9814 81.7339 52.9837C82.979 53.0402 85.3391 53.2352 87.0031 53.8965C87.0031 53.8965 89.5642 55.1768 91.2479 55.0977H91.3725L91.5451 55.0751C91.7776 55.0419 92.0146 55.061 92.2388 55.1309C92.4631 55.2008 92.6688 55.3198 92.8412 55.4792L93.0364 55.6545L93.1666 55.7703L93.376 55.954L93.659 56.1971C93.7467 56.2649 93.8345 56.3384 93.9222 56.4091L94.1089 56.556C94.2523 56.6691 94.3967 56.7765 94.5419 56.8782L94.7428 57.0223C94.8136 57.0704 94.8843 57.1184 94.9579 57.1608C95.0315 57.2032 95.0937 57.2513 95.1617 57.2908C95.2296 57.3304 95.3654 57.4095 95.4616 57.4576C95.5692 57.5143 95.6797 57.5653 95.7927 57.6102C95.837 57.6296 95.8824 57.6466 95.9286 57.6611C95.9286 57.6611 95.9286 57.6611 95.9286 57.6809C96.0276 57.825 96.4945 58.5711 96.8568 60.2245C97.199 61.8496 97.3641 63.5069 97.3492 65.1675C97.3492 65.1675 97.8218 66.5806 99.7036 67.9938C99.7121 67.9881 101.121 68.9264 98.3 70.3367Z" fill="#F9B499"/>
<path d="M92.182 54.8291C92.182 54.8291 92.4481 55.0948 92.8527 55.4622C92.6804 55.3028 92.4746 55.1838 92.2504 55.1139C92.0262 55.044 91.7892 55.0249 91.5566 55.058C91.7789 55.0263 91.9919 54.9483 92.182 54.8291Z" fill="#F9B499"/>
<path d="M103.476 156.327C103.946 161.496 93.1245 161.496 93.1245 161.496C74.303 162.909 66.7755 156.796 66.7755 156.796C65.836 142.702 68.6574 131.891 68.6574 131.891L67.2424 123.905C65.3605 113.097 64.4125 101.348 64.4125 101.348C63.9428 90.0718 69.5884 85.3718 69.5884 85.3718C71.0033 83.4924 74.2917 78.7952 74.2917 78.7952C75.234 75.5055 76.1735 76.9157 76.1735 76.9157C76.0137 77.3838 75.8188 77.8391 75.5906 78.278C75.5039 78.4339 75.4748 78.6152 75.5084 78.7904C75.542 78.9655 75.6362 79.1233 75.7745 79.2361C78.0186 81.0646 86.6866 88.0369 90.7729 90.0718C102.064 98.9999 102.534 114.035 102.534 114.035L103.949 143.64C103.104 147.816 102.944 152.1 103.476 156.327Z" fill="#0BCA7A"/>
<path d="M119.139 138.96C118.432 139.999 117.592 140.94 116.64 141.761L99.712 137.072C99.712 137.072 86.0663 135.193 71.4811 113.578C68.9116 109.771 67.2363 103.711 67.2363 103.711C66.3873 100.187 66.3873 97.4655 66.8033 95.3854C67.6891 90.9426 72.5168 88.4894 76.7079 90.2163C80.3047 91.6915 84.5382 95.1593 86.0465 103.24C86.0465 103.24 88.7519 105.698 88.8141 108.462L95.9652 118.173C96.395 118.763 97.0412 119.158 97.7622 119.273C98.6989 119.414 100.026 119.762 100.773 120.609C101.093 120.969 101.505 121.234 101.965 121.378L119.923 127.206C120.059 127.421 123.005 133.229 119.139 138.96Z" fill="#0BCA7A"/>
<path opacity="0.2" d="M119.139 138.96C118.432 139.999 117.592 140.94 116.64 141.761L99.712 137.072C99.712 137.072 86.0663 135.193 71.4811 113.578C68.9116 109.771 67.2363 103.711 67.2363 103.711C66.3873 100.187 66.3873 97.4655 66.8033 95.3854C67.6891 90.9426 72.5168 88.4894 76.7079 90.2163C80.3047 91.6915 84.5382 95.1593 86.0465 103.24C86.0465 103.24 88.7519 105.698 88.8141 108.462L95.9652 118.173C96.395 118.763 97.0412 119.158 97.7622 119.273C98.6989 119.414 100.026 119.762 100.773 120.609C101.093 120.969 101.505 121.234 101.965 121.378L119.923 127.206C120.059 127.421 123.005 133.229 119.139 138.96Z" fill="black"/>
<path d="M90.7734 90.0721L91.0394 86.5986L93.708 87.5567C93.708 87.5567 97.2737 95.3514 97.5538 97.8809C97.5538 97.8809 95.0069 93.3618 90.7734 90.0721Z" fill="#333333"/>
<path d="M93.707 87.5566C93.707 87.5566 98.2716 93.7404 99.2253 101.069L97.5528 97.8808C96.4979 94.3593 95.2133 90.9105 93.707 87.5566Z" fill="#0BCA7A"/>
<path opacity="0.2" d="M93.707 87.5566C93.707 87.5566 98.2716 93.7404 99.2253 101.069L97.5528 97.8808C96.4979 94.3593 95.2133 90.9105 93.707 87.5566Z" fill="black"/>
<path d="M98.6177 174.859V160.812C78.2425 163.89 68.3379 157.777 68.3379 157.777C68.3379 157.777 69.1331 165.724 70.0754 171.365" fill="#333333"/>
<path d="M125.795 140.622L125.588 140.82C124.173 141.761 124.255 140.359 124.255 140.359C122.925 140.84 123.237 139.882 123.237 139.882C121.822 140.351 121.822 139.412 121.822 139.412C121.117 139.647 120.766 139.472 120.591 139.237C120.51 139.117 120.467 138.976 120.467 138.832C120.467 138.687 120.51 138.546 120.591 138.426C120.874 137.951 121.525 137.086 122.085 137.445C122.085 137.445 123.002 137.705 122.467 138.494C122.467 138.508 122.467 138.531 122.49 138.522C122.773 138.375 123.89 137.881 123.89 138.974C123.89 138.974 124.937 138.347 124.937 139.602C124.937 139.602 126.069 139.282 126.069 140.043C126.065 140.153 126.038 140.261 125.991 140.36C125.944 140.46 125.877 140.549 125.795 140.622Z" fill="#F7A48B"/>
<path d="M122.463 138.485C122.377 138.862 122.149 139.191 121.826 139.404C121.913 139.028 122.141 138.699 122.463 138.485Z" fill="#F48F78"/>
<path d="M123.886 138.974C123.795 139.348 123.563 139.673 123.238 139.881C123.329 139.507 123.561 139.182 123.886 138.974Z" fill="#F48F78"/>
<path d="M124.932 139.616C124.879 139.783 124.792 139.936 124.675 140.067C124.559 140.197 124.416 140.302 124.256 140.373C124.309 140.207 124.397 140.053 124.514 139.923C124.63 139.792 124.773 139.688 124.932 139.616Z" fill="#F48F78"/>
<path d="M155.115 117.204C153.228 124.532 137.915 127.217 137.915 127.217C135.597 127.395 136.028 128.144 136.028 128.144C136.028 128.144 139.14 132.101 137.276 140.359C137.276 140.359 151.991 137.654 159.83 132.59" fill="#0BCA7A"/>
<path opacity="0.2" d="M155.115 117.204C153.228 124.532 137.915 127.217 137.915 127.217C135.597 127.395 136.028 128.144 136.028 128.144C136.028 128.144 139.14 132.101 137.276 140.359C137.276 140.359 151.991 137.654 159.83 132.59" fill="black"/>
<path d="M169.367 91.0385C169.367 91.0385 154.065 103.807 154.487 113.648L155.534 120.149C155.534 120.149 156.162 129.568 157.419 131.453C156.765 132.621 156.51 133.969 156.694 135.294C156.866 136.693 156.58 138.11 155.879 139.333C155.879 139.333 154.697 142.747 154.065 147.981L152.6 153.634C152.6 153.634 175.864 164.727 188.231 154.482C188.231 154.482 185.987 143.66 181.439 135.987C181.439 135.987 192.054 111.746 189.821 101.086C189.821 101.086 189.06 95.4502 185.293 91.6829C185.293 91.6829 184.424 87.4096 182.763 86.6155L177.953 85.8213L169.367 91.0385Z" fill="#0BCA7A"/>
<path d="M181.776 84.6908C182.206 85.2701 182.54 85.9141 182.767 86.5985C182.767 86.5985 175.446 88.1077 169.367 94.5967L168.518 95.015L169.775 96.6909C169.775 96.6909 155.13 105.526 154.494 112.622C154.494 112.622 154.177 106.724 163.133 97.1036C163.293 96.0833 163.836 95.1624 164.653 94.5289C164.825 94.3987 164.96 94.2259 165.045 94.0277C165.13 93.8295 165.161 93.6126 165.137 93.3984C165.046 92.6833 165.094 91.6037 166.008 90.9085L169.795 90.2019L179.416 84.3403L181.776 84.6908Z" fill="#0BCA7A"/>
<path opacity="0.1" d="M181.776 84.6908C182.206 85.2701 182.54 85.9141 182.767 86.5985C182.767 86.5985 175.446 88.1077 169.367 94.5967L168.518 95.015L169.775 96.6909C169.775 96.6909 155.13 105.526 154.494 112.622C154.494 112.622 154.177 106.724 163.133 97.1036C163.293 96.0833 163.836 95.1624 164.653 94.5289C164.825 94.3987 164.96 94.2259 165.045 94.0277C165.13 93.8295 165.161 93.6126 165.137 93.3984C165.046 92.6833 165.094 91.6037 166.008 90.9085L169.795 90.2019L179.416 84.3403L181.776 84.6908Z" fill="black"/>
<path d="M163.919 60.2667C163.919 60.2667 160.144 62.9884 160.354 69.2683C160.233 69.9605 159.94 70.6111 159.5 71.16C159.061 71.7088 158.49 72.1381 157.841 72.4082C157.841 72.4082 156.582 73.4539 159.516 74.5024C159.516 74.5024 160.365 74.7116 159.935 75.7573C159.935 75.7573 158.888 77.2241 160.985 77.0149C161.857 76.8457 162.702 76.5605 163.498 76.1671C163.498 76.1671 163.288 77.6339 160.985 78.4704C160.985 78.4704 160.136 79.0979 161.194 80.1464C161.194 80.1464 161.426 79.9373 161.52 81.6104C161.52 81.6104 160.77 84.8323 168.631 81.8591C168.631 81.8591 170.278 84.2896 169.197 89.1253L175.675 85.796L179.806 81.8252L179.416 78.8972L178.159 63.6158L166.631 59.4302L163.919 60.2667Z" fill="#F9B499"/>
<path d="M172.036 70.0906C170.723 69.8645 169.368 66.3374 169.368 66.3374C168.111 61.5328 166.433 61.3152 166.433 61.3152C164.129 57.3358 160.816 65.2464 160.816 65.2464C160.816 65.2464 157.21 58.3844 166.224 56.7084C166.224 56.7084 177.962 49.8011 185.506 62.7791C185.506 62.7791 190.249 70.6558 181.262 77.9362C180.651 78.4325 179.909 78.7384 179.126 78.8158C178.342 78.8932 177.554 78.7387 176.858 78.3714C175.508 77.6919 174.439 76.562 173.836 75.1778L173.98 71.7863V70.3732L172.036 70.0906Z" fill="#333333"/>
<path d="M173.98 74.9205C175.254 74.9205 176.287 73.5147 176.287 71.7806C176.287 70.0464 175.254 68.6406 173.98 68.6406C172.706 68.6406 171.674 70.0464 171.674 71.7806C171.674 73.5147 172.706 74.9205 173.98 74.9205Z" fill="#F9B499"/>
<path d="M159.727 92.9237C159.727 92.9237 163.343 91.4145 165.307 89.1338L169.481 84.6118C169.481 84.6118 169.651 87.2176 169.198 89.1338L166.017 92.2935C165.082 92.4273 164.159 92.6381 163.258 92.9237C163.258 92.9237 161.195 93.9694 159.727 92.9237Z" fill="#0BCA7A"/>
<path opacity="0.4" d="M159.727 92.9237C159.727 92.9237 163.343 91.4145 165.307 89.1338L169.481 84.6118C169.481 84.6118 169.651 87.2176 169.198 89.1338L166.017 92.2935C165.082 92.4273 164.159 92.6381 163.258 92.9237C163.258 92.9237 161.195 93.9694 159.727 92.9237Z" fill="white"/>
<path d="M161.404 153.001C164.731 155.812 168.576 157.946 172.724 159.281C172.724 159.281 179.821 146.17 182.77 133.989L186.969 117.916C186.969 117.916 191.664 103.621 189.216 98.4801C189.216 98.4801 184.462 90.2021 178.593 95.6539C178.593 95.6539 172.056 99.1386 173.811 110.333C173.922 111.014 173.937 111.706 173.856 112.391C173.457 115.664 172.132 125.521 170.236 129.718C170.217 129.761 170.201 129.804 170.188 129.848C170.103 130.168 169.795 131.49 170.259 132.443C170.332 132.599 170.358 132.772 170.335 132.943C170.311 133.113 170.239 133.273 170.126 133.404C169.738 133.858 169.47 134.403 169.346 134.987C169.222 135.572 169.247 136.178 169.419 136.75C169.476 136.967 169.452 137.197 169.351 137.397L161.404 153.001Z" fill="#0BCA7A"/>
<path opacity="0.2" d="M161.404 153.001C164.731 155.812 168.576 157.946 172.724 159.281C172.724 159.281 179.821 146.17 182.77 133.989L186.969 117.916C186.969 117.916 191.664 103.621 189.216 98.4801C189.216 98.4801 184.462 90.2021 178.593 95.6539C178.593 95.6539 172.056 99.1386 173.811 110.333C173.922 111.014 173.937 111.706 173.856 112.391C173.457 115.664 172.132 125.521 170.236 129.718C170.217 129.761 170.201 129.804 170.188 129.848C170.103 130.168 169.795 131.49 170.259 132.443C170.332 132.599 170.358 132.772 170.335 132.943C170.311 133.113 170.239 133.273 170.126 133.404C169.738 133.858 169.47 134.403 169.346 134.987C169.222 135.572 169.247 136.178 169.419 136.75C169.476 136.967 169.452 137.197 169.351 137.397L161.404 153.001Z" fill="black"/>
<path d="M162.624 153.993L161.823 155.51C161.823 155.51 165.828 159.99 171.371 160.68L172.282 159.136C172.282 159.136 166.569 157.288 162.624 153.993Z" fill="#333333"/>
<path d="M161.824 155.51C161.824 155.51 155.117 159.49 158.261 163.466C158.261 163.466 157.211 165.769 158.47 166.397C158.47 166.397 158.77 166.815 159.772 166.397C159.772 166.397 159.936 167.355 161.824 166.77C161.824 166.77 161.973 167.731 163.994 166.959C163.994 166.959 165.805 167.861 168.112 165.142C168.112 165.142 169.858 162.429 170.033 160.436C166.893 159.584 164.051 157.879 161.824 155.51Z" fill="#F7A48B"/>
<path d="M158.26 163.466C158.404 162.588 158.69 161.739 159.109 160.954C158.965 161.832 158.678 162.681 158.26 163.466Z" fill="#F48F78"/>
<path d="M159.771 166.397C160.339 165.449 161.029 164.579 161.823 163.811C161.255 164.759 160.565 165.628 159.771 166.397Z" fill="#F48F78"/>
<path d="M163.728 164.048C163.361 165.116 162.701 166.059 161.823 166.77C162.483 165.866 163.108 164.984 163.728 164.048Z" fill="#F48F78"/>
<path d="M165.804 164.721C165.454 165.641 164.82 166.425 163.993 166.96C164.65 166.239 165.176 165.464 165.804 164.721Z" fill="#F48F78"/>
<path d="M90.3 78.3235C90.3 78.3235 89.5246 78.9961 89.3605 80.6749C89.3605 80.6749 84.0148 78.4139 83.3555 74.1011C83.3555 74.1011 86.7938 77.648 90.3 78.3235Z" fill="#F7A48B"/>
<path d="M91.2052 84.4283L91.0383 86.5988L90.7723 90.0722C86.6972 88.0373 78.0378 81.065 75.7739 79.2365C75.6356 79.1237 75.5414 78.9659 75.5078 78.7908C75.4741 78.6156 75.5032 78.4343 75.5899 78.2784C75.8182 77.8395 76.013 77.3842 76.1729 76.9161C76.6455 74.0899 77.5878 74.4658 77.5878 74.4658L77.7152 74.4856L77.5878 75.5059C78.0576 76.4442 81.3516 77.3853 81.3516 77.3853C84.1815 78.3236 85.5964 79.7339 85.5964 79.7339L89.3602 82.5601L90.8657 83.6906C90.9795 83.7754 91.0703 83.8873 91.1296 84.0162C91.1889 84.1451 91.2149 84.2867 91.2052 84.4283Z" fill="#0BCA7A"/>
<path opacity="0.3" d="M91.2052 84.4283L91.0383 86.5988L90.7723 90.0722C86.6972 88.0373 78.0378 81.065 75.7739 79.2365C75.6356 79.1237 75.5414 78.9659 75.5078 78.7908C75.4741 78.6156 75.5032 78.4343 75.5899 78.2784C75.8182 77.8395 76.013 77.3842 76.1729 76.9161C76.6455 74.0899 77.5878 74.4658 77.5878 74.4658L77.7152 74.4856L77.5878 75.5059C78.0576 76.4442 81.3516 77.3853 81.3516 77.3853C84.1815 78.3236 85.5964 79.7339 85.5964 79.7339L89.3602 82.5601L90.8657 83.6906C90.9795 83.7754 91.0703 83.8873 91.1296 84.0162C91.1889 84.1451 91.2149 84.2867 91.2052 84.4283Z" fill="white"/>
<path d="M96.891 60.2186C96.5231 58.5653 96.0619 57.8191 95.9628 57.675C95.9628 57.675 95.9628 57.658 95.9628 57.6552C95.9166 57.6407 95.8713 57.6238 95.827 57.6043C95.714 57.5594 95.6034 57.5085 95.4959 57.4517C95.3968 57.4008 95.2978 57.3443 95.1959 57.285C95.094 57.2256 95.0601 57.2002 94.9922 57.155C94.9243 57.1097 94.8478 57.0645 94.7771 57.0165L94.5762 56.8723C94.4328 56.7706 94.2885 56.6632 94.1432 56.5502L93.9564 56.4032C93.8687 56.3325 93.781 56.2591 93.6932 56.1912L93.4103 55.9482L93.2009 55.7645C93.1556 55.7277 93.1103 55.6853 93.0707 55.6486L92.8754 55.4734C92.7031 55.314 92.4973 55.195 92.2731 55.1251C92.0489 55.0551 91.8119 55.0361 91.5793 55.0692L91.4067 55.0918H91.2822C89.5843 55.171 87.0374 53.8907 87.0374 53.8907C85.3734 53.2293 83.0133 53.0428 81.7681 52.9778C81.7253 52.9755 81.683 52.9875 81.6478 53.012C81.6126 53.0365 81.5866 53.072 81.5739 53.1129C81.5612 53.1538 81.5626 53.1978 81.5778 53.2378C81.593 53.2778 81.6211 53.3117 81.6578 53.3339C83.4689 54.3909 87.6005 57.7033 82.0964 63.7627C80.3985 63.7627 79.0373 65.4415 79.0373 67.5187C79.007 68.5738 79.3827 69.6005 80.0872 70.3873C79.4759 72.4505 78.6722 72.7331 77.9648 72.4646C77.2205 72.182 76.6404 71.2748 76.6404 71.2748C75.6839 70.3365 74.7642 69.3953 74.7642 69.3953C71.0032 66.5691 71.2806 63.7599 71.2806 63.7599C70.1486 53.8879 77.1186 52.4804 77.1186 52.4804C77.5884 49.1907 85.1159 48.6932 85.1159 48.6932C92.1736 47.2604 96.8797 52.9524 96.8797 52.9524C100.641 55.8662 97.6325 59.4414 96.891 60.2186Z" fill="#333333"/>
<path d="M84.4968 67.5157C84.4968 69.593 83.1271 71.2774 81.4405 71.2774C81.0667 71.2734 80.6978 71.1923 80.3569 71.0391C80.016 70.8859 79.7105 70.6639 79.4596 70.3872C78.7472 69.6026 78.3642 68.5745 78.3899 67.5157C78.3899 65.4413 79.7595 63.7568 81.449 63.7568C83.1384 63.7568 84.4968 65.4413 84.4968 67.5157Z" fill="#F9B499"/>
<path opacity="0.1" d="M182.767 78.1085C183.899 77.7863 184.948 77.3341 186.032 76.9102C185.084 77.6194 183.949 78.036 182.767 78.1085Z" fill="black"/>
<path d="M171.371 94.5741C171.371 94.5741 170.627 88.7351 165.386 92.0842C165.386 92.0842 164.758 91.2363 167.064 90.411C167.064 90.411 169.234 89.4106 170.446 88.0031C170.962 87.3886 171.522 86.8115 172.121 86.2763C173.983 84.6484 177.597 81.9098 181.106 81.6187L182.362 84.3403C182.362 84.3403 178.799 86.2254 175.655 90.6202C175.655 90.6202 173.793 93.7121 171.371 94.5741Z" fill="#0BCA7A"/>
<path opacity="0.3" d="M171.371 94.5741C171.371 94.5741 170.627 88.7351 165.386 92.0842C165.386 92.0842 164.758 91.2363 167.064 90.411C167.064 90.411 169.234 89.4106 170.446 88.0031C170.962 87.3886 171.522 86.8115 172.121 86.2763C173.983 84.6484 177.597 81.9098 181.106 81.6187L182.362 84.3403C182.362 84.3403 178.799 86.2254 175.655 90.6202C175.655 90.6202 173.793 93.7121 171.371 94.5741Z" fill="white"/>
</g>
</svg>
