<svg width="231" height="161" viewBox="0 0 231 161" fill="none" xmlns="http://www.w3.org/2000/svg">
<path d="M222.558 88.6296C190.722 147.985 141.627 154.492 141.627 154.492C133.72 155.897 125.745 156.891 117.735 157.47C117.226 157.505 116.72 157.541 116.211 157.569C65.3055 160.769 36.2456 143.26 20.1101 125.82C3.46001 107.828 -3.62542 82.8209 1.79528 58.912C11.0655 18.0339 50.521 4.85637 50.521 4.85637C59.0511 1.47462 68.28 0.151093 77.1787 0.0135122C100.796 -0.371715 122.107 7.60799 122.107 7.60799C128.387 9.76141 134.78 11.5728 141.256 13.0342C154.464 15.9427 160.715 15.3401 160.715 15.3401C183.895 11.5758 199.722 15.307 199.722 15.307C222.272 20.0673 228.969 36.9788 230.265 51.8844C231.382 64.5996 228.595 77.3754 222.558 88.6296Z" fill="#0BCA7A"/>
<g opacity="0.7">
<path d="M222.555 88.6296C194.133 141.612 151.948 152.492 143.236 154.212C142.191 154.418 141.627 154.487 141.627 154.487C139.546 154.854 137.497 155.189 135.48 155.491L135.259 155.522C129.151 156.439 123.309 157.086 117.734 157.464C117.228 157.503 116.716 157.536 116.21 157.56C112.618 157.788 109.133 157.914 105.754 157.937H105.525C102.363 157.959 99.2939 157.899 96.3185 157.756C82.7089 157.117 70.987 154.842 60.883 151.518C54.0335 149.288 47.4403 146.336 41.2144 142.713C41.1236 142.666 41.0356 142.611 40.9393 142.553C40.1798 142.11 39.4231 141.648 38.6857 141.177C31.84 136.904 25.5916 131.741 20.104 125.823C3.45941 107.828 -3.62602 82.8181 1.79192 58.912C11.0649 18.0366 50.5177 4.85637 50.5177 4.85637C59.0477 1.47738 68.2767 0.151093 77.1809 0.0135122C100.798 -0.371715 122.104 7.60799 122.104 7.60799C128.385 9.76238 134.778 11.5738 141.255 13.0342C154.463 15.9427 160.715 15.3401 160.715 15.3401C183.894 11.5758 199.724 15.307 199.724 15.307C222.271 20.0673 228.969 36.9761 230.267 51.8844C231.379 64.6024 228.595 77.3727 222.555 88.6296Z" fill="white"/>
</g>
<path d="M202.79 41.7283H184.186C182.307 41.7283 180.505 42.4748 179.176 43.8036C177.847 45.1323 177.101 46.9345 177.101 48.8137V53.929C177.107 55.8039 177.857 57.5997 179.185 58.9231C180.513 60.2466 182.311 60.9897 184.186 60.9896H202.974L209.886 68.0998V48.8C209.883 46.9213 209.133 45.1209 207.802 43.7948C206.471 42.4687 204.668 41.7254 202.79 41.7283Z" fill="#0BCA7A"/>
<path d="M29.9076 44.48H15.9679C14.7799 44.48 13.6404 44.9519 12.8003 45.792C11.9602 46.6321 11.4883 47.7715 11.4883 48.9596V59.6442C11.4879 60.2327 11.6035 60.8155 11.8285 61.3593C12.0534 61.9031 12.3834 62.3973 12.7994 62.8135C13.2154 63.2298 13.7093 63.56 14.253 63.7853C14.7967 64.0106 15.3794 64.1266 15.9679 64.1266H21.0667L23.0589 72.2026L25.2051 64.1266H29.9076C31.095 64.1266 32.2339 63.6555 33.0743 62.8166C33.9146 61.9778 34.3879 60.8398 34.39 59.6524V48.9679C34.3911 48.3787 34.276 47.7951 34.0512 47.2504C33.8264 46.7058 33.4963 46.2109 33.0799 45.794C32.6636 45.3771 32.169 45.0464 31.6247 44.821C31.0803 44.5955 30.4969 44.4796 29.9076 44.48Z" fill="#E1E1E2"/>
<path d="M109.664 23.9966C76.3449 23.9966 49.335 50.9625 49.335 84.2021C49.335 117.442 76.3449 144.41 109.664 144.41C142.984 144.41 169.991 117.444 169.991 84.2021C169.991 50.9597 142.981 23.9966 109.664 23.9966ZM109.664 141.521C77.9436 141.521 52.2297 115.86 52.2297 84.2021C52.2297 52.5447 77.9436 26.883 109.664 26.883C141.385 26.883 167.099 52.5447 167.099 84.2021C167.099 115.86 141.382 141.521 109.664 141.521Z" fill="#0BCA7A"/>
<g opacity="0.4">
<path d="M109.663 23.9966C76.3439 23.9966 49.334 50.9625 49.334 84.2021C49.334 117.442 76.3439 144.41 109.663 144.41C142.983 144.41 169.99 117.444 169.99 84.2021C169.99 50.9597 142.98 23.9966 109.663 23.9966ZM109.663 141.521C77.9426 141.521 52.2287 115.86 52.2287 84.2021C52.2287 52.5447 77.9426 26.883 109.663 26.883C141.384 26.883 167.098 52.5447 167.098 84.2021C167.098 115.86 141.381 141.521 109.663 141.521Z" fill="white"/>
</g>
<path d="M61.69 138.448C75.0039 138.448 85.797 127.532 85.797 114.066C85.797 100.6 75.0039 89.6836 61.69 89.6836C48.3761 89.6836 37.583 100.6 37.583 114.066C37.583 127.532 48.3761 138.448 61.69 138.448Z" fill="#0BCA7A"/>
<g opacity="0.6">
<path d="M61.6888 136.268C74.1046 136.268 84.1695 126.328 84.1695 114.066C84.1695 101.803 74.1046 91.8628 61.6888 91.8628C49.273 91.8628 39.208 101.803 39.208 114.066C39.208 126.328 49.273 136.268 61.6888 136.268Z" fill="white"/>
</g>
<path d="M58.1345 108.491C58.1345 108.491 49.0955 111.383 46.685 122.472C46.685 122.472 41.8642 139.226 52.2296 141.155C52.2296 141.155 60.3056 142.482 66.9342 137.303L66.5628 135.762C66.5628 135.762 75.0433 134.661 80.7529 125.914C80.7529 125.914 75.3707 112.112 64.7632 108.254L62.3528 109.099L58.1345 108.491Z" fill="#2F2E41"/>
<path d="M75.3103 50.0296C85.9556 50.0296 94.5854 41.3013 94.5854 30.5343C94.5854 19.7674 85.9556 11.0391 75.3103 11.0391C64.6649 11.0391 56.0352 19.7674 56.0352 30.5343C56.0352 41.3013 64.6649 50.0296 75.3103 50.0296Z" fill="#0BCA7A"/>
<g opacity="0.6">
<path d="M91.9592 30.5343C91.9622 34.227 90.7063 37.8104 88.3986 40.6933C86.875 42.6009 84.9528 44.1524 82.7667 45.2393C80.5805 46.3261 78.1832 46.922 75.7427 46.9851C73.3021 47.0483 70.8772 46.5773 68.6377 45.605C66.3983 44.6327 64.3985 43.1827 62.7782 41.3564C60.1126 38.3588 58.647 34.483 58.6622 30.4717C58.6775 26.4604 60.1725 22.5958 62.8607 19.6186C64.4307 17.8743 66.3508 16.4806 68.4957 15.5285C70.6407 14.5765 72.9623 14.0874 75.3091 14.0933C84.505 14.0933 91.9592 21.4539 91.9592 30.5343Z" fill="white"/>
</g>
<path d="M79.5886 24.8389C79.5886 24.8389 81.6385 29.0599 80.3122 31.5886L76.8177 30.5045L74.5283 27.4777L79.5886 24.8389Z" fill="#2F2E41"/>
<path d="M171.98 98.3402C181.2 98.3402 188.674 90.9584 188.674 81.8525C188.674 72.7466 181.2 65.3647 171.98 65.3647C162.76 65.3647 155.286 72.7466 155.286 81.8525C155.286 90.9584 162.76 98.3402 171.98 98.3402Z" fill="#0BCA7A"/>
<g opacity="0.6">
<path d="M186.625 81.8522C186.627 84.0377 186.127 86.1945 185.164 88.1562C184.316 89.8805 183.133 91.4191 181.686 92.6826C181.474 92.8697 181.256 93.0486 181.034 93.2329C179.451 94.4642 177.632 95.3576 175.69 95.858C174.48 96.1683 173.235 96.3254 171.986 96.3258C169.167 96.3327 166.406 95.5284 164.031 94.0089C163.929 93.9456 163.828 93.8796 163.729 93.8108C162.351 92.8834 161.141 91.7276 160.151 90.3933C158.318 87.9274 157.329 84.936 157.331 81.8632C157.331 73.8835 163.888 67.3979 171.978 67.3979C180.068 67.3979 186.625 73.8643 186.625 81.8522Z" fill="white"/>
</g>
<path d="M166.452 77.5242C166.452 77.5242 164.567 80.0447 166.727 83.5392L171.188 83.4182L170.104 79.5659L166.452 77.5242Z" fill="#2F2E41"/>
<path d="M139.503 63.5322L139.883 63.1525C140.029 63.0057 140.142 62.83 140.216 62.6367C140.29 62.4433 140.323 62.2365 140.312 62.0298L140.117 58.4362C140.115 58.4065 140.12 58.3768 140.132 58.3495C140.144 58.3222 140.162 58.298 140.184 58.2786C140.207 58.2592 140.234 58.2452 140.262 58.2377C140.291 58.2302 140.321 58.2294 140.35 58.2353C140.683 58.3013 141.264 58.6398 141.432 60.1614C141.432 60.1614 141.553 61.0062 142.637 59.6799L145.094 57.1126C145.149 57.0542 145.223 57.0163 145.302 57.0053C145.382 56.9943 145.463 57.0108 145.532 57.0521C145.576 57.0786 145.615 57.1144 145.644 57.1573C145.673 57.2001 145.692 57.2487 145.701 57.2999C145.709 57.351 145.706 57.4034 145.692 57.4533C145.678 57.5032 145.654 57.5494 145.62 57.5887L144.01 59.4818C143.963 59.5352 143.938 59.605 143.941 59.6764C143.944 59.7478 143.975 59.8151 144.027 59.8643C144.075 59.9138 144.139 59.9435 144.208 59.9476C144.277 59.9517 144.345 59.9298 144.398 59.8863C145.031 59.3965 146.996 57.9601 147.097 59.0773C147.097 59.0773 148.129 59.7652 146.167 61.2538C146.148 61.2682 146.133 61.2864 146.121 61.3072C146.11 61.328 146.103 61.351 146.101 61.3747C146.1 61.3984 146.103 61.4222 146.111 61.4445C146.119 61.4668 146.132 61.4872 146.148 61.5042C146.179 61.5315 146.218 61.5466 146.26 61.5466C146.301 61.5466 146.34 61.5315 146.371 61.5042L147.004 61.0117C147.046 60.9792 147.094 60.9559 147.145 60.9434C147.196 60.9308 147.25 60.9293 147.302 60.9389C147.354 60.9486 147.403 60.9691 147.447 60.9992C147.49 61.0293 147.527 61.0682 147.554 61.1135C147.596 61.1839 147.614 61.266 147.605 61.3474C147.596 61.4289 147.561 61.5051 147.505 61.5648C146.789 62.3297 144.203 64.8997 142.032 64.487L140.705 65.6922L139.503 63.5322Z" fill="#F9B499"/>
<path d="M144.557 61.0172C144.527 61.0174 144.499 61.0082 144.475 60.991C144.451 60.9737 144.433 60.9494 144.424 60.9214C144.416 60.8934 144.416 60.8633 144.425 60.8355C144.435 60.8077 144.453 60.7836 144.477 60.7668L147.008 58.959C147.023 58.9484 147.04 58.9409 147.058 58.9368C147.075 58.9328 147.094 58.9323 147.111 58.9353C147.129 58.9384 147.147 58.945 147.162 58.9547C147.177 58.9644 147.19 58.9771 147.201 58.992C147.222 59.0221 147.23 59.059 147.223 59.095C147.217 59.1309 147.197 59.1631 147.168 59.1846L144.636 60.9924C144.613 61.0084 144.585 61.017 144.557 61.0172Z" fill="#F7A48B"/>
<path d="M144.435 62.8249C144.412 62.8251 144.389 62.8191 144.369 62.8075C144.348 62.7959 144.332 62.7791 144.32 62.7588C144.187 62.5264 143.972 62.3529 143.716 62.2732C143.461 62.1936 143.185 62.2137 142.944 62.3296C142.92 62.3417 142.892 62.346 142.865 62.3421C142.838 62.3382 142.813 62.3261 142.793 62.3076C142.772 62.29 142.758 62.2668 142.75 62.2408C142.743 62.2149 142.743 62.1874 142.751 62.1617C142.857 61.9026 142.883 61.618 142.826 61.344C142.769 61.0701 142.632 60.8193 142.432 60.6236C142.418 60.6121 142.407 60.598 142.398 60.5821C142.39 60.5662 142.385 60.5487 142.383 60.5307C142.382 60.5128 142.384 60.4947 142.389 60.4776C142.395 60.4604 142.404 60.4446 142.416 60.4309C142.427 60.4168 142.441 60.405 142.457 60.3964C142.473 60.3877 142.49 60.3823 142.508 60.3806C142.526 60.3788 142.544 60.3806 142.561 60.3859C142.579 60.3913 142.595 60.4 142.608 60.4117C142.819 60.6106 142.974 60.8616 143.057 61.1393C143.14 61.4171 143.149 61.7118 143.082 61.9939C143.363 61.9142 143.663 61.9323 143.933 62.0452C144.203 62.1582 144.427 62.3593 144.567 62.6157C144.586 62.6465 144.592 62.6833 144.584 62.7182C144.575 62.7532 144.554 62.7836 144.523 62.8028C144.498 62.8211 144.466 62.8289 144.435 62.8249Z" fill="#F7A48B"/>
<path d="M116.292 77.3151C116.292 77.3151 128.166 80.5262 142.389 65.5794L139.502 62.5664C139.502 62.5664 133.95 68.8621 123.65 66.9305C121.549 66.5236 119.525 65.7891 117.652 64.7539C116.568 64.1404 115.401 63.6872 114.188 63.4084L116.292 77.3151Z" fill="#0BCA7A"/>
<g opacity="0.4">
<path d="M116.292 77.3151C116.292 77.3151 128.165 80.5262 142.388 65.5794L139.501 62.5664C139.501 62.5664 133.949 68.8621 123.649 66.9305C121.548 66.5236 119.524 65.7891 117.651 64.7539C116.567 64.1404 115.4 63.6872 114.187 63.4084L116.292 77.3151Z" fill="white"/>
</g>
<path d="M104.541 63.1688C104.541 63.1688 100.443 64.7372 99.2383 66.3029C99.2383 66.3029 103.091 75.9474 103.335 80.405L115.148 80.6471L117.182 74.8687C117.818 73.0617 117.866 71.0992 117.316 69.2637L116.172 65.4114C116.029 64.9386 115.773 64.5079 115.426 64.1568C115.079 63.8058 114.651 63.545 114.18 63.3972C113.095 63.0654 111.979 62.8442 110.85 62.7368L104.541 63.1688Z" fill="#0BCA7A"/>
<path d="M111.411 68.1108C108.035 68.1108 104.532 63.1579 104.532 63.1579L106.582 61.4711L106.8 57.3162L110.198 59.5422V60.7144V62.3269C110.469 62.4309 110.722 62.5756 110.949 62.7561C112.366 63.8843 112.366 66.0581 112.366 66.0581C112.738 67.9897 111.411 68.1108 111.411 68.1108Z" fill="#F9B499"/>
<path d="M77.439 63.4412L77.128 63.0065C77.008 62.8378 76.9247 62.6459 76.8834 62.443C76.8422 62.2402 76.844 62.0309 76.8886 61.8288L77.6673 58.315C77.6742 58.286 77.6742 58.2559 77.6674 58.227C77.6607 58.198 77.6473 58.1711 77.6284 58.1481C77.6095 58.1252 77.5855 58.107 77.5584 58.0949C77.5312 58.0828 77.5017 58.0771 77.472 58.0783C77.1308 58.0783 76.5034 58.3287 76.0962 59.7953C76.0962 59.7953 75.8375 60.6208 74.9955 59.1239L72.9923 56.1907C72.9472 56.1238 72.8807 56.0743 72.8036 56.0503C72.7266 56.0263 72.6437 56.0292 72.5686 56.0586C72.5208 56.078 72.4777 56.1074 72.4423 56.1449C72.407 56.1824 72.3801 56.2272 72.3636 56.2761C72.3472 56.3249 72.3415 56.3768 72.3469 56.4281C72.3524 56.4794 72.3689 56.5289 72.3952 56.5732L73.672 58.7029C73.7101 58.7631 73.7234 58.8358 73.709 58.9056C73.6946 58.9754 73.6537 59.0369 73.5949 59.0771C73.5399 59.119 73.471 59.1385 73.4022 59.1319C73.3334 59.1252 73.2696 59.0929 73.2235 59.0414C72.6731 58.4525 70.9754 56.719 70.6947 57.8004C70.6947 57.8004 69.5638 58.3095 71.2588 60.098C71.275 60.1154 71.2873 60.1361 71.2949 60.1587C71.3025 60.1812 71.3052 60.2051 71.3029 60.2288C71.3006 60.2525 71.2932 60.2754 71.2813 60.296C71.2695 60.3166 71.2533 60.3345 71.234 60.3484C71.2011 60.3726 71.1604 60.3838 71.1197 60.3797C71.0791 60.3757 71.0414 60.3567 71.0139 60.3264L70.4636 59.7375C70.4288 59.6992 70.3863 59.6685 70.3389 59.6475C70.2915 59.6265 70.2403 59.6156 70.1884 59.6156C70.1366 59.6156 70.0853 59.6265 70.038 59.6475C69.9906 59.6685 69.9481 59.6992 69.9133 59.7375C69.8597 59.7993 69.8279 59.8769 69.823 59.9585C69.818 60.0401 69.84 60.121 69.8857 60.1888C70.4691 61.0611 72.6099 64.0191 74.8084 63.9668L75.9091 65.3729L77.439 63.4412Z" fill="#F9B499"/>
<path d="M72.8803 60.1339C72.8625 60.1345 72.8447 60.1314 72.8281 60.1248C72.8115 60.1181 72.7965 60.1081 72.784 60.0954L70.5827 57.8941C70.5698 57.8813 70.5596 57.8661 70.5526 57.8493C70.5456 57.8326 70.542 57.8146 70.542 57.7964C70.542 57.7783 70.5456 57.7603 70.5526 57.7435C70.5596 57.7268 70.5698 57.7115 70.5827 57.6988C70.6084 57.6735 70.643 57.6594 70.679 57.6594C70.715 57.6594 70.7496 57.6735 70.7753 57.6988L72.9766 59.9001C72.9895 59.9128 72.9997 59.9281 73.0067 59.9448C73.0137 59.9616 73.0173 59.9796 73.0173 59.9977C73.0173 60.0159 73.0137 60.0339 73.0067 60.0506C72.9997 60.0674 72.9895 60.0826 72.9766 60.0954C72.9642 60.1083 72.9492 60.1184 72.9326 60.125C72.916 60.1316 72.8982 60.1347 72.8803 60.1339Z" fill="#F7A48B"/>
<path d="M72.7041 61.9387C72.6873 61.939 72.6707 61.936 72.6551 61.9299C72.6395 61.9237 72.6253 61.9146 72.6133 61.9029C72.5995 61.8913 72.5882 61.877 72.5801 61.861C72.5719 61.845 72.5671 61.8274 72.5658 61.8095C72.5645 61.7915 72.5668 61.7735 72.5726 61.7565C72.5784 61.7394 72.5875 61.7237 72.5995 61.7103C72.7807 61.4814 73.0338 61.3203 73.3179 61.2529C73.6019 61.1855 73.9004 61.2157 74.1652 61.3388C74.1454 61.0496 74.2021 60.7602 74.3296 60.4999C74.4571 60.2395 74.651 60.0174 74.8916 59.8557C74.923 59.8376 74.9603 59.8327 74.9954 59.842C75.0304 59.8513 75.0603 59.874 75.0787 59.9052C75.0972 59.9367 75.1026 59.9742 75.0938 60.0096C75.0851 60.0451 75.0629 60.0757 75.0319 60.0951C74.8021 60.2546 74.6252 60.4792 74.5242 60.7401C74.4231 61.001 74.4026 61.2862 74.4651 61.5589C74.4691 61.5862 74.465 61.6141 74.4532 61.6391C74.4415 61.664 74.4226 61.685 74.3991 61.6993C74.3764 61.7134 74.3502 61.7209 74.3234 61.7209C74.2966 61.7209 74.2704 61.7134 74.2477 61.6993C74.0276 61.5419 73.7555 61.4747 73.4874 61.5115C73.2193 61.5484 72.9754 61.6864 72.8059 61.8974C72.7927 61.9109 72.7768 61.9215 72.7593 61.9286C72.7418 61.9357 72.723 61.9392 72.7041 61.9387Z" fill="#F7A48B"/>
<path d="M116.111 80.4048H102.49V82.8152H116.111V80.4048Z" fill="#E1E1E2"/>
<path d="M112.642 119.847C112.642 119.847 132.263 125.003 135.398 116.927C135.632 116.497 135.713 115.999 135.625 115.516C135.538 115.033 135.287 114.595 134.916 114.275C134.916 114.275 130.439 111.573 124.903 114.61C124.903 114.61 118.816 118.185 112.642 119.847Z" fill="#2F2E41"/>
<g opacity="0.2">
<path d="M112.641 119.847C112.641 119.847 132.262 125.003 135.397 116.927C135.631 116.497 135.712 115.999 135.624 115.516C135.537 115.033 135.286 114.595 134.915 114.275C134.915 114.275 130.438 111.573 124.902 114.61C124.902 114.61 118.815 118.185 112.641 119.847Z" fill="black"/>
</g>
<path d="M107.914 157.428H101.649L101.046 118.977L109.119 118.856L107.914 157.428Z" fill="#F9B499"/>
<path d="M121.655 115.301L120.736 146.761L120.45 156.463H114.182L114.041 146.761L113.579 115.431L121.655 115.301Z" fill="#F9B499"/>
<path d="M101.429 146.725H108.36L107.914 157.428H101.649L101.429 146.725Z" fill="#E6E6E6"/>
<path d="M144.618 49.5484C151.64 49.5484 157.333 43.8556 157.333 36.8332C157.333 29.8107 151.64 24.1179 144.618 24.1179C137.595 24.1179 131.902 29.8107 131.902 36.8332C131.902 43.8556 137.595 49.5484 144.618 49.5484Z" fill="#0BCA7A"/>
<path d="M149.86 34.4829H146.365V30.7462C146.365 30.3945 146.225 30.0571 145.976 29.8084C145.728 29.5597 145.39 29.4199 145.039 29.4199C144.687 29.4199 144.35 29.5597 144.101 29.8084C143.852 30.0571 143.712 30.3945 143.712 30.7462V34.4829H139.736C139.557 34.4747 139.378 34.503 139.21 34.5659C139.043 34.6288 138.889 34.725 138.76 34.8489C138.63 34.9727 138.527 35.1215 138.456 35.2863C138.386 35.4512 138.35 35.6286 138.35 35.8078C138.35 35.9871 138.386 36.1645 138.456 36.3293C138.527 36.4941 138.63 36.6429 138.76 36.7668C138.889 36.8906 139.043 36.9869 139.21 37.0498C139.378 37.1127 139.557 37.1409 139.736 37.1327H143.712V40.8694C143.712 41.2212 143.852 41.5585 144.101 41.8073C144.35 42.056 144.687 42.1957 145.039 42.1957C145.39 42.1957 145.728 42.056 145.976 41.8073C146.225 41.5585 146.365 41.2212 146.365 40.8694V37.1327H149.86C150.039 37.1409 150.217 37.1127 150.385 37.0498C150.553 36.9869 150.707 36.8906 150.836 36.7668C150.966 36.6429 151.069 36.4941 151.139 36.3293C151.21 36.1645 151.246 35.9871 151.246 35.8078C151.246 35.6286 151.21 35.4512 151.139 35.2863C151.069 35.1215 150.966 34.9727 150.836 34.8489C150.707 34.725 150.553 34.6288 150.385 34.5659C150.217 34.503 150.039 34.4747 149.86 34.4829Z" fill="white"/>
<path d="M205.305 96.1362H205.131C203.984 96.1362 203.054 97.0663 203.054 98.2137V114.911C203.054 116.058 203.984 116.988 205.131 116.988H205.305C206.452 116.988 207.382 116.058 207.382 114.911V98.2137C207.382 97.0663 206.452 96.1362 205.305 96.1362Z" fill="#E1E1E2"/>
<path d="M215.249 106.65V106.476C215.249 105.329 214.319 104.399 213.172 104.399H196.475C195.327 104.399 194.397 105.329 194.397 106.476V106.65C194.397 107.797 195.327 108.727 196.475 108.727H213.172C214.319 108.727 215.249 107.797 215.249 106.65Z" fill="#E1E1E2"/>
<path d="M77.1786 33.8803C73.8024 33.8803 69.5869 28.5752 69.5869 28.5752C72.4789 28.4569 73.2025 26.528 73.2025 26.528L73.8437 23.3691L74.0528 23.4022L76.455 26.1538L76.3366 28.0799C76.3366 29.6483 78.626 29.8877 78.626 29.8877C79.2424 33.5171 77.4208 33.8803 77.1786 33.8803Z" fill="#F9B499"/>
<path d="M76.4545 26.1652L76.3362 28.0913C76.3362 28.0913 72.9764 27.0237 74.0523 23.4136L76.4545 26.1652Z" fill="#F7A48B"/>
<path d="M88.3989 40.6939C86.6301 42.9136 84.3239 44.645 81.6987 45.7238L78.6251 43.2804L78.2646 34.965L80.554 31.3494L88.3989 40.6939Z" fill="#0BCA7A"/>
<g opacity="0.2">
<path d="M88.3989 40.6931C86.6301 42.9129 84.3239 44.6442 81.6987 45.7231L78.6251 43.2797L78.2646 34.9643L80.554 31.3486L88.3989 40.6931Z" fill="black"/>
</g>
<path d="M67.4103 43.5471L65.652 43.9296C64.5977 43.1876 63.6336 42.3251 62.7793 41.3596L66.6921 39.3069L67.4103 43.5471Z" fill="#2F2E41"/>
<path d="M59.4601 102.583L59.2179 107.407L58.1338 108.491C58.1338 108.491 63.4389 112.227 64.7625 108.249L63.6783 108.128V105.478L59.4601 102.583Z" fill="#F9B499"/>
<path d="M63.6791 105.478V108.128C63.6791 108.128 61.3898 109.936 60.1846 105.115L63.6791 105.478Z" fill="#F7A48B"/>
<path d="M65.874 133.357C66.6244 133.294 67.334 132.989 67.8965 132.488C67.8965 132.488 69.6217 130.622 71.8753 132.127C72.5504 132.459 73.2709 132.688 74.0133 132.807C74.0405 132.811 74.0661 132.822 74.087 132.84C74.108 132.858 74.1236 132.881 74.1319 132.907C74.1402 132.933 74.141 132.961 74.1342 132.988C74.1273 133.014 74.1131 133.038 74.0931 133.057C73.7822 133.333 73.0558 133.767 71.6332 133.432C71.6332 133.432 70.7912 134.276 74.0436 135.603C74.0436 135.603 76.6962 136.326 75.7331 136.808C75.7331 136.808 75.612 137.531 74.6462 137.531C74.6462 137.531 74.2857 138.495 72.1147 137.771C72.1147 137.771 71.0526 137.24 69.9519 136.67C69.3891 136.373 68.754 136.241 68.1193 136.288L66.7435 136.398L65.874 133.357Z" fill="#F9B499"/>
<path d="M72.1663 136.456L72.0684 136.713L74.5985 137.678L74.6965 137.42L72.1663 136.456Z" fill="black"/>
<path d="M72.8092 135.633L72.7168 135.893L75.6871 136.951L75.7795 136.692L72.8092 135.633Z" fill="black"/>
<path d="M152.452 133.322C157.944 133.322 162.397 128.87 162.397 123.377C162.397 117.885 157.944 113.433 152.452 113.433C146.96 113.433 142.508 117.885 142.508 123.377C142.508 128.87 146.96 133.322 152.452 133.322Z" fill="#0BCA7A"/>
<path d="M189.637 48.5852H185.779V57.2638H189.637V48.5852Z" fill="white"/>
<path d="M190.36 48.5854H191.623C192.136 48.5874 192.639 48.4525 193.082 48.1946C193.524 47.9368 193.89 47.5654 194.141 47.1188C194.171 47.0638 194.202 47.0087 194.229 46.951C194.544 46.3068 194.705 45.5986 194.7 44.8817V44.6066C194.7 44.2869 194.827 43.9804 195.053 43.7544C195.279 43.5283 195.585 43.4014 195.905 43.4014C196.225 43.4014 196.531 43.5283 196.757 43.7544C196.983 43.9804 197.11 44.2869 197.11 44.6066V47.9828C197.11 47.9828 200.726 47.7407 201.086 51.0096V54.6252C201.086 54.6252 200.847 57.2778 198.436 57.2778H190.36V48.5854Z" fill="white"/>
<path d="M22.9386 50.3928C22.9386 50.3928 20.4072 47.1376 18.1178 49.7902C18.1178 49.7902 15.4652 53.6425 23.0707 60.8792C23.0707 60.8792 31.7493 52.4428 27.1679 49.3087C27.1569 49.3087 24.386 47.8613 22.9386 50.3928Z" fill="white"/>
<path d="M106.763 57.2969L106.807 57.3271L106.59 61.4821L106.763 57.2969Z" fill="#F9B499"/>
<path d="M106.759 57.2969L110.201 59.5532V62.3268C110.201 62.3268 106.938 61.9113 106.759 57.2969Z" fill="#F7A48B"/>
<path d="M110.275 50.635H110.014C108.255 50.635 106.83 52.0604 106.83 53.8186V57.5774C106.83 59.3356 108.255 60.761 110.014 60.761H110.275C112.033 60.761 113.459 59.3356 113.459 57.5774V53.8186C113.459 52.0604 112.033 50.635 110.275 50.635Z" fill="#F9B499"/>
<path d="M113.332 63.1603C113.332 63.1603 111.763 62.8384 110.957 62.7558C110.73 62.5753 110.477 62.4306 110.206 62.3266V60.7141C110.355 60.7306 112.46 60.9508 113.233 58.6312C113.381 58.1772 113.454 57.7024 113.45 57.2251V53.7085C113.45 53.7085 113.588 51.6338 111.29 50.8303C111.29 50.8303 111.403 53.8874 108.148 53.1637C108.148 53.1637 108.561 56.1107 106.846 56.4436L106.8 57.3269L106.582 61.4818L104.532 63.1686C103.869 63.4713 103.101 63.7464 102.303 64.1949C101.816 64.4701 101.244 64.7618 100.856 65.0369C100.856 65.0369 91.5142 61.6029 93.8036 55.0926C93.8036 55.0926 94.7694 52.6822 98.385 53.648C98.385 53.648 100.072 50.9954 102.001 53.8874C102.001 53.8874 104.532 52.6821 105.495 51.2375C105.495 51.2375 107.906 48.3428 111.274 50.2717C111.274 50.2717 113.805 49.6691 114.529 52.9243C114.637 53.3041 114.664 53.7025 114.607 54.0934C114.55 54.4842 114.411 54.8585 114.199 55.1916C114.016 55.4948 113.921 55.8423 113.923 56.196V57.3957C113.924 57.8992 114.042 58.3957 114.267 58.8458C114.845 59.9739 115.676 62.3404 113.332 63.1603Z" fill="#2F2E41"/>
<path d="M106.167 57.8665C106.732 57.8665 107.191 57.4083 107.191 56.8429C107.191 56.2776 106.732 55.8193 106.167 55.8193C105.602 55.8193 105.144 56.2776 105.144 56.8429C105.144 57.4083 105.602 57.8665 106.167 57.8665Z" fill="#F9B499"/>
<path d="M77.2249 62.5L75.3511 64.8004C75.2473 64.927 75.1826 65.0811 75.165 65.2438C75.1474 65.4065 75.1777 65.5709 75.252 65.7167C76.6884 68.5316 84.4314 82.1962 97.4273 77.755C97.4273 77.755 105.385 75.2236 103.817 67.7501C103.817 67.7501 103.164 62.7477 97.2127 66.5835C96.7743 66.8704 96.3518 67.1809 95.947 67.5135C94.816 68.427 90.3364 71.3658 83.8123 67.0265C83.8123 67.0265 79.9215 64.5693 78.0834 62.4863C78.0308 62.4228 77.9647 62.372 77.8898 62.3375C77.8149 62.3031 77.7333 62.2859 77.6509 62.2872C77.5685 62.2885 77.4874 62.3083 77.4137 62.3452C77.34 62.382 77.2755 62.4349 77.2249 62.5Z" fill="#0BCA7A"/>
<g opacity="0.4">
<path d="M77.2259 62.5L75.352 64.8004C75.2482 64.927 75.1836 65.0811 75.166 65.2438C75.1484 65.4065 75.1786 65.5709 75.253 65.7167C76.6893 68.5316 84.4324 82.1962 97.4283 77.755C97.4283 77.755 105.386 75.2236 103.818 67.7501C103.818 67.7501 103.165 62.7477 97.2137 66.5835C96.7753 66.8704 96.3528 67.1809 95.9479 67.5135C94.817 68.427 90.3374 71.3658 83.8133 67.0265C83.8133 67.0265 79.9225 64.5693 78.0844 62.4863C78.0318 62.4228 77.9656 62.372 77.8908 62.3375C77.8159 62.3031 77.7343 62.2859 77.6519 62.2872C77.5694 62.2885 77.4884 62.3083 77.4147 62.3452C77.3409 62.382 77.2764 62.4349 77.2259 62.5Z" fill="white"/>
</g>
<path d="M102.491 82.8157C102.491 82.8157 99.8408 88.3602 97.0672 102.947C97.0672 102.947 95.141 115.362 90.5596 121.025C90.5596 121.025 106.654 125.653 124.782 114.93C125.172 114.702 125.586 114.517 126.017 114.38C127.577 113.879 131.674 112.525 134.916 114.283C134.916 114.283 128.166 109.826 126.719 104.039C126.719 104.039 121.898 88.9711 116.111 82.8239L102.491 82.8157Z" fill="#2F2E41"/>
<path d="M92.8025 160.2H108.41C108.41 160.2 109.373 158.273 107.925 155.86C107.925 155.86 105.636 157.308 104.552 155.739C104.552 155.739 103.523 154.38 101.566 155.12C98.2922 155.975 95.2423 157.53 92.6264 159.677C92.5798 159.715 92.5459 159.766 92.5292 159.823C92.5125 159.881 92.5138 159.942 92.533 159.999C92.5521 160.056 92.5882 160.106 92.6364 160.142C92.6846 160.177 92.7425 160.198 92.8025 160.2Z" fill="#0BCA7A"/>
<path d="M120.737 146.761L120.451 156.463H114.182L114.042 146.761H120.737Z" fill="#E6E6E6"/>
<path d="M129.39 160.2H113.794C113.794 160.2 112.831 158.273 114.275 155.86C114.275 155.86 116.568 157.308 117.652 155.739C117.652 155.739 118.681 154.38 120.637 155.12C123.911 155.975 126.961 157.53 129.577 159.677C129.625 159.715 129.659 159.767 129.675 159.826C129.691 159.885 129.689 159.947 129.669 160.004C129.648 160.062 129.61 160.111 129.56 160.146C129.511 160.181 129.451 160.2 129.39 160.2Z" fill="#0BCA7A"/>
<path d="M174.33 83.4179C173.588 83.8729 172.822 84.288 172.035 84.6616C171.411 84.9634 170.728 85.1267 170.035 85.1404C169.647 85.1565 169.261 85.0938 168.898 84.956C168.702 84.8695 168.532 84.7331 168.405 84.5605C168.279 84.3879 168.199 84.1851 168.175 83.9722C168.151 83.7593 168.183 83.5438 168.267 83.3472C168.352 83.1505 168.487 82.9794 168.659 82.851C168.881 82.6832 169.126 82.5497 169.388 82.4548L169.267 80.7681L172.294 78.3384V81.6101C172.294 82.8951 174.22 83.3876 174.338 83.4179H174.33Z" fill="#F9B499"/>
<path d="M169.267 80.7682L169.388 82.4549C169.388 82.4549 171.399 81.5799 171.661 79.7886L169.267 80.7682Z" fill="#F7A48B"/>
<path d="M166.496 89.9284L164.019 94.0008L163.992 94.0476L163.86 93.9623C163.81 93.91 163.761 93.8549 163.717 93.8027C162.339 92.8752 161.129 91.7195 160.14 90.3851L163.106 86.4338C165.516 83.2997 165.998 83.5391 165.998 83.5391L166.496 89.9284Z" fill="#0BCA7A"/>
<g opacity="0.4">
<path d="M166.497 89.9286L164.02 94.001L163.993 94.0478L163.861 93.9625C163.811 93.9102 163.762 93.8552 163.718 93.8029C162.34 92.8755 161.13 91.7197 160.141 90.3854L163.107 86.4341C165.517 83.3 165.999 83.5394 165.999 83.5394L166.497 89.9286Z" fill="white"/>
</g>
<path d="M169.319 71.9685H169.096C167.593 71.9685 166.375 73.1869 166.375 74.6899V78.5284C166.375 80.0313 167.593 81.2497 169.096 81.2497H169.319C170.822 81.2497 172.041 80.0313 172.041 78.5284V74.6899C172.041 73.1869 170.822 71.9685 169.319 71.9685Z" fill="#F9B499"/>
<path d="M185.164 88.156C184.316 89.8803 183.134 91.4189 181.686 92.6824C181.474 92.8695 181.257 93.0484 181.034 93.2327L175.55 85.2035L175.536 85.1842L174.342 83.4315C172.171 82.8289 172.292 81.6236 172.292 81.6236V77.5127C170.844 77.7549 170.844 75.2234 170.844 75.2234C170.693 73.2532 169.595 72.6479 168.803 72.4717C168.544 72.415 168.276 72.4257 168.023 72.5028C167.77 72.5799 167.541 72.7208 167.358 72.912C166.945 73.3635 166.639 73.9025 166.464 74.4887C166.412 74.6675 166.385 74.8527 166.384 75.039V76.1892C163.357 73.5284 167.837 71.9792 167.837 71.9792C172.9 68.603 174.105 74.0292 174.105 74.0292C174.41 75.3821 174.812 76.711 175.31 78.0053C176.232 79.8488 178.637 80.0717 179.713 80.0745C180.333 80.069 180.941 80.244 181.463 80.578C183.362 81.819 182.288 84.0313 182.288 84.0313C183.618 85.1065 184.615 86.5368 185.164 88.156Z" fill="#2F2E41"/>
<path d="M172.34 78.8368C172.84 78.8368 173.245 78.4056 173.245 77.8737C173.245 77.3418 172.84 76.9106 172.34 76.9106C171.84 76.9106 171.435 77.3418 171.435 77.8737C171.435 78.4056 171.84 78.8368 172.34 78.8368Z" fill="#F9B499"/>
<path d="M175.665 95.8031L175.684 95.8499C174.474 96.1602 173.23 96.3174 171.98 96.3177C169.164 96.326 166.405 95.5247 164.031 94.0091L164.003 94.0558L163.871 93.9705C163.822 93.9183 163.772 93.8632 163.728 93.8109C161.62 91.3345 164.686 87.4052 164.686 87.4052C165.786 85.7184 166.012 83.5529 166.012 83.5529C166.978 82.9503 168.659 82.865 168.659 82.865C168.488 82.9934 168.353 83.1644 168.268 83.3611C168.183 83.5578 168.151 83.7733 168.175 83.9861C168.199 84.199 168.279 84.4018 168.406 84.5744C168.533 84.747 168.703 84.8834 168.898 84.97C169.261 85.1077 169.648 85.1704 170.035 85.1543C170.728 85.1407 171.411 84.9774 172.035 84.6756C172.822 84.302 173.588 83.8868 174.33 83.4318C175.197 83.6533 175.949 84.1913 176.438 84.9397C176.218 85.1158 175.717 85.0058 175.538 85.2149C174.509 86.3651 174.162 87.8619 174.14 89.3726V89.3863C174.121 92.259 175.362 95.1647 175.64 95.7729C175.648 95.7834 175.656 95.7935 175.665 95.8031Z" fill="#0BCA7A"/>
<path d="M181.685 92.6831C181.473 92.8702 181.256 93.049 181.033 93.2334C179.45 94.4646 177.631 95.358 175.689 95.8584L175.67 95.8117C175.66 95.7941 175.652 95.7757 175.645 95.7566C175.64 95.7471 175.635 95.7369 175.632 95.7264C175.632 95.7044 175.612 95.6823 175.601 95.6576C175.268 94.8761 174.162 92.0805 174.148 89.3729V89.3261C174.148 87.7962 174.498 86.2993 175.524 85.1821C175.769 84.926 176.095 84.763 176.446 84.7213C176.798 84.6796 177.153 84.7618 177.45 84.9538C178.158 85.4105 179.101 86.4231 180.106 88.6189L181.685 92.6831Z" fill="#0BCA7A"/>
<g opacity="0.4">
<path d="M181.685 92.6831C181.473 92.8702 181.256 93.049 181.033 93.2334C179.45 94.4646 177.631 95.358 175.689 95.8584L175.67 95.8117C175.66 95.7941 175.652 95.7757 175.645 95.7566C175.64 95.7471 175.635 95.7369 175.632 95.7264C175.632 95.7044 175.612 95.6823 175.601 95.6576C175.268 94.8761 174.162 92.0805 174.148 89.3729V89.3261C174.148 87.7962 174.498 86.2993 175.524 85.1821C175.769 84.926 176.095 84.763 176.446 84.7213C176.798 84.6796 177.153 84.7618 177.45 84.9538C178.158 85.4105 179.101 86.4231 180.106 88.6189L181.685 92.6831Z" fill="white"/>
</g>
<path d="M80.9613 41.6619L78.383 44.4795L78.2097 46.901L77.9015 48.2135L67.8966 46.2874L66.6914 39.2955L61.8705 41.827L58.376 33.9931L69.5861 28.5669C69.5861 28.5669 73.8016 33.872 77.1778 33.872C77.42 33.872 79.2278 33.5088 78.6252 29.8932C80.3119 30.4958 80.5513 31.3405 80.5513 31.3405L81.8253 38.7011C81.916 39.2278 81.8852 39.7683 81.7355 40.2814C81.5858 40.7944 81.321 41.2666 80.9613 41.6619Z" fill="#0BCA7A"/>
<path d="M78.5722 17.3373L78.3291 17.29C76.6852 16.9705 75.0935 18.0441 74.774 19.688L74.0279 23.5262C73.7083 25.1701 74.7819 26.7618 76.4259 27.0814L76.669 27.1286C78.3129 27.4482 79.9046 26.3746 80.2241 24.7306L80.9702 20.8924C81.2897 19.2485 80.2161 17.6568 78.5722 17.3373Z" fill="#F9B499"/>
<path d="M80.7742 21.9963L80.9476 21.0084C80.9476 21.0084 81.4484 19.1401 79.6158 17.7725C79.6158 17.7725 77.7805 19.8968 75.9727 19.4235C75.9727 19.4235 76.0745 22.2412 74.2749 22.2797L73.8429 23.3803L73.2018 26.5392C73.2018 26.5392 72.357 28.5864 69.5861 28.5864L58.9731 33.7209C58.4798 31.2316 58.5744 28.6615 59.2494 26.2152C59.9244 23.7689 61.1611 21.514 62.8612 19.6299C64.7598 20.1224 67.9462 20.67 69.1018 19.1869C69.1018 19.1869 74.1648 11.4823 80.0726 17.0158C80.0726 17.0158 82.1198 18.221 81.9987 20.0289C81.9932 20.0179 82.1968 21.6798 80.7742 21.9963Z" fill="#2F2E41"/>
<path d="M73.5626 23.3914C74.1614 23.3914 74.6468 22.906 74.6468 22.3073C74.6468 21.7085 74.1614 21.2231 73.5626 21.2231C72.9639 21.2231 72.4785 21.7085 72.4785 22.3073C72.4785 22.906 72.9639 23.3914 73.5626 23.3914Z" fill="#F9B499"/>
<path d="M62.905 96.3174H62.6436C60.8853 96.3174 59.46 97.7427 59.46 99.501V103.741C59.46 105.5 60.8853 106.925 62.6436 106.925H62.905C64.6633 106.925 66.0886 105.5 66.0886 103.741V99.501C66.0886 97.7427 64.6633 96.3174 62.905 96.3174Z" fill="#F9B499"/>
<path d="M58.0962 101.755C58.0962 101.755 56.3269 99.5702 57.2899 97.4019C57.2899 97.4019 56.569 96.4361 57.8953 96.0757C57.8988 95.7812 57.9744 95.4921 58.1154 95.2337C58.1327 95.2065 58.157 95.1845 58.1858 95.17C58.2146 95.1555 58.2467 95.1491 58.2788 95.1513C58.311 95.1536 58.3419 95.1644 58.3683 95.1828C58.3948 95.2012 58.4158 95.2264 58.4291 95.2557C58.5117 95.4538 58.7043 95.6409 59.2188 95.352C59.2188 95.352 64.2983 92.8122 66.2272 95.8638C66.4067 96.1401 66.5006 96.4632 66.4972 96.7926C66.4938 97.1221 66.3932 97.4432 66.208 97.7156C65.6576 98.4861 64.3313 99.1492 61.0266 97.8835C61.0266 97.8835 61.0266 98.9676 59.8214 98.8465C59.8214 98.8465 60.003 101.873 59.4912 102.165L58.0962 101.755Z" fill="#2F2E41"/>
<path d="M58.9181 103.307C59.4835 103.307 59.9417 102.821 59.9417 102.223C59.9417 101.624 59.4835 101.138 58.9181 101.138C58.3528 101.138 57.8945 101.624 57.8945 102.223C57.8945 102.821 58.3528 103.307 58.9181 103.307Z" fill="#F9B499"/>
<path d="M53.9277 111.864C54.3884 112.034 54.7931 112.329 55.0972 112.714L55.254 112.901L55.3888 113.105C56.451 114.775 56.539 116.853 56.4895 118.773C56.4455 121.038 55.6117 124.216 55.1962 126.461C54.734 128.28 54.3707 131.214 56.1648 132.41C57.1636 133.03 58.4019 132.928 59.5135 132.686L65.3827 131.585H65.4103C65.4103 131.607 66.5769 135.712 66.5852 135.743L65.3635 131.615L65.3938 131.635L59.5273 132.757C58.4872 132.98 57.326 133.087 56.3299 132.595C54.2332 131.494 54.5799 128.346 55.0917 126.409C55.0917 126.431 55.8841 122.593 55.8786 122.595C56.5033 119.792 56.9325 115.626 55.3778 113.094L55.2458 112.89L55.0917 112.703C54.7936 112.315 54.3948 112.016 53.9387 111.839L53.9277 111.864Z" fill="#2F2E41"/>
<g opacity="0.2">
<path d="M53.9268 111.864C54.3874 112.035 54.7921 112.329 55.0962 112.715L55.253 112.902L55.3879 113.105C56.45 114.776 56.538 116.853 56.4885 118.774C56.4445 121.038 55.6108 124.216 55.1953 126.462C54.733 128.281 54.3698 131.214 56.1638 132.411C57.1627 133.03 58.4009 132.928 59.5126 132.686L65.3818 131.585H65.4093C65.4093 131.607 66.576 135.713 66.5842 135.743L65.3625 131.616L65.3928 131.635L59.5263 132.757C58.4862 132.98 57.325 133.088 56.3289 132.595C54.2322 131.494 54.5789 128.347 55.0907 126.409C55.0907 126.431 55.8832 122.593 55.8777 122.596C56.5023 119.792 56.9315 115.626 55.3769 113.094L55.2448 112.891L55.0907 112.704C54.7926 112.316 54.3939 112.017 53.9378 111.84L53.9268 111.864Z" fill="black"/>
</g>
<path d="M163.693 122.476C163.851 124.702 163.345 126.925 162.239 128.864C161.133 130.803 159.476 132.37 157.48 133.367C155.483 134.364 153.235 134.746 151.02 134.465C148.806 134.185 146.725 133.253 145.04 131.789C143.355 130.325 142.143 128.394 141.555 126.241C140.968 124.087 141.033 121.808 141.742 119.692C142.451 117.575 143.771 115.716 145.537 114.35C147.302 112.985 149.433 112.173 151.66 112.019C154.641 111.812 157.583 112.797 159.84 114.758C162.096 116.718 163.482 119.494 163.693 122.476Z" fill="#0BCA7A"/>
<g opacity="0.1">
<path d="M151.657 112.018C148.676 112.23 145.901 113.616 143.941 115.872C141.981 118.129 140.996 121.07 141.203 124.052C141.203 124.052 149.128 123.854 150.805 120.542C152.482 117.23 151.657 112.018 151.657 112.018Z" fill="white"/>
</g>
<path d="M160.949 122.533C161.068 124.243 160.678 125.95 159.827 127.438C158.976 128.926 157.703 130.128 156.17 130.893C154.636 131.657 152.909 131.95 151.209 131.734C149.509 131.518 147.911 130.802 146.617 129.678C145.323 128.554 144.392 127.071 143.941 125.418C143.489 123.764 143.538 122.014 144.082 120.388C144.625 118.763 145.638 117.335 146.993 116.285C148.348 115.235 149.983 114.61 151.693 114.489C152.829 114.409 153.97 114.554 155.05 114.915C156.13 115.276 157.128 115.846 157.988 116.593C158.847 117.34 159.551 118.249 160.059 119.268C160.568 120.288 160.87 121.397 160.949 122.533Z" fill="#0BCA7A"/>
<g opacity="0.2">
<path d="M160.805 122.501C160.922 124.191 160.537 125.878 159.696 127.349C158.855 128.819 157.597 130.008 156.081 130.763C154.565 131.519 152.859 131.809 151.178 131.595C149.498 131.381 147.918 130.674 146.64 129.563C145.361 128.452 144.441 126.986 143.995 125.352C143.549 123.718 143.597 121.988 144.134 120.382C144.671 118.775 145.672 117.363 147.011 116.326C148.35 115.288 149.967 114.671 151.657 114.551C152.779 114.472 153.907 114.615 154.974 114.972C156.042 115.329 157.028 115.892 157.878 116.631C158.728 117.369 159.423 118.267 159.926 119.275C160.428 120.282 160.726 121.378 160.805 122.501Z" fill="black"/>
</g>
<path d="M160.95 122.834C161.064 124.49 160.684 126.142 159.86 127.582C159.035 129.022 157.802 130.185 156.316 130.924C154.831 131.664 153.159 131.946 151.513 131.736C149.867 131.525 148.32 130.832 147.069 129.743C145.817 128.653 144.916 127.218 144.48 125.616C144.043 124.015 144.092 122.321 144.619 120.747C145.145 119.174 146.127 117.792 147.439 116.776C148.751 115.76 150.334 115.155 151.99 115.039C153.09 114.962 154.195 115.102 155.241 115.452C156.287 115.803 157.253 116.355 158.086 117.079C158.918 117.803 159.599 118.684 160.09 119.672C160.582 120.659 160.874 121.734 160.95 122.834Z" fill="#0BCA7A"/>
<g opacity="0.2">
<path d="M161.071 122.84C161.186 124.507 160.804 126.172 159.973 127.622C159.142 129.073 157.9 130.244 156.404 130.989C154.907 131.734 153.224 132.018 151.566 131.806C149.908 131.594 148.35 130.896 147.089 129.799C145.828 128.701 144.92 127.255 144.481 125.642C144.041 124.03 144.09 122.323 144.621 120.738C145.151 119.153 146.14 117.76 147.461 116.737C148.783 115.713 150.378 115.105 152.046 114.988C153.154 114.91 154.267 115.052 155.32 115.404C156.374 115.757 157.348 116.314 158.186 117.043C159.024 117.772 159.711 118.66 160.206 119.654C160.701 120.649 160.995 121.731 161.071 122.84Z" fill="white"/>
</g>
<path d="M152.827 122.585L152.679 120.41C153.075 120.43 153.466 120.504 153.842 120.63C154.038 120.713 154.224 120.815 154.4 120.933L154.425 120.865L154.703 120.056L154.768 119.871L154.355 119.49L154.178 119.588C153.676 119.364 153.135 119.247 152.586 119.244L152.504 118.046L152.136 117.77V118.073L151.635 118.091L151.718 119.313C150.066 119.593 149.343 120.607 149.418 121.705C149.521 123.199 150.822 123.503 152.026 123.71L152.173 125.867C151.395 125.859 150.635 125.625 149.984 125.194L149.579 126.332C150.383 126.835 151.321 127.079 152.266 127.03L152.329 127.935L151.913 127.973L152.349 128.226L153.224 128.16L153.139 126.954C154.803 126.663 155.537 125.655 155.461 124.557C155.351 123.08 154.033 122.792 152.827 122.585ZM151.936 122.43C151.305 122.291 150.832 122.097 150.795 121.568C150.757 121.04 151.057 120.683 151.796 120.511L151.936 122.43ZM153.049 125.806L152.917 123.902C153.57 124.039 154.06 124.236 154.098 124.782C154.128 125.245 153.822 125.634 153.049 125.806Z" fill="#0BCA7A"/>
<g opacity="0.3">
<path d="M152.921 122.676L152.773 120.52C153.17 120.54 153.562 120.613 153.939 120.738C154.134 120.821 154.321 120.921 154.498 121.039L154.523 120.971L154.801 120.169L154.866 119.986L154.453 119.608L154.275 119.705C153.772 119.483 153.229 119.367 152.68 119.364L152.597 118.176L152.229 117.903V118.204L151.727 118.221L151.81 119.432C150.156 119.71 149.431 120.716 149.506 121.804C149.609 123.285 150.913 123.586 152.119 123.792L152.267 125.93C151.487 125.922 150.725 125.691 150.073 125.263L149.667 126.392C150.473 126.89 151.412 127.132 152.359 127.084L152.422 127.981L152.006 128.019L152.442 128.269L153.319 128.204L153.234 127.008C154.901 126.72 155.636 125.72 155.561 124.632C155.45 123.168 154.129 122.882 152.921 122.676ZM152.028 122.523C151.397 122.385 150.923 122.192 150.885 121.668C150.848 121.144 151.148 120.791 151.888 120.62L152.028 122.523ZM153.144 125.87L153.011 123.982C153.665 124.118 154.157 124.313 154.194 124.855C154.225 125.314 153.919 125.7 153.144 125.87Z" fill="black"/>
</g>
<path d="M152.87 126.685L152.953 127.891L152.076 127.951L152.003 126.761C151.059 126.799 150.125 126.552 149.322 126.052L149.728 124.918C150.382 125.344 151.143 125.576 151.923 125.586L151.753 123.433C150.547 123.229 149.246 122.929 149.144 121.439C149.063 120.322 149.79 119.328 151.447 119.048L151.362 117.831L152.239 117.77L152.321 118.965C153.09 118.945 153.852 119.119 154.537 119.469L154.174 120.601C153.621 120.326 153.018 120.17 152.402 120.143L152.557 122.313C153.762 122.52 155.083 122.818 155.186 124.3C155.261 125.394 154.534 126.393 152.87 126.685ZM151.672 122.147L151.54 120.233C150.803 120.405 150.494 120.813 150.537 121.287C150.58 121.761 151.051 122.008 151.682 122.147H151.672ZM153.833 124.492C153.798 123.965 153.311 123.763 152.657 123.614L152.79 125.518C153.56 125.344 153.865 124.953 153.833 124.492Z" fill="#0BCA7A"/>
<path d="M149.963 122.448C149.86 122.391 149.771 122.308 149.704 122.206C149.528 121.967 149.426 121.674 149.413 121.368C149.408 121.062 149.494 120.761 149.658 120.512C149.716 120.401 149.8 120.31 149.902 120.246C149.828 120.338 149.763 120.438 149.706 120.543C149.566 120.79 149.496 121.075 149.505 121.365C149.514 121.654 149.602 121.934 149.758 122.169C149.868 122.35 149.973 122.434 149.963 122.448Z" fill="white"/>
<path d="M152.44 114.252C152.348 114.262 152.256 114.262 152.164 114.252L151.845 114.265L151.423 114.28C151.251 114.28 151.08 114.3 150.913 114.339C150.731 114.388 150.547 114.403 150.335 114.439C149.897 114.538 149.466 114.667 149.044 114.824C148.625 114.99 148.217 115.187 147.823 115.411C147.644 115.521 147.46 115.618 147.325 115.726C147.191 115.834 147.029 115.931 146.905 116.026C146.781 116.121 146.656 116.213 146.572 116.282C146.487 116.351 146.387 116.433 146.323 116.492C146.26 116.56 146.189 116.62 146.111 116.669C146.171 116.6 146.233 116.533 146.3 116.469C146.368 116.405 146.442 116.328 146.549 116.246C146.656 116.164 146.751 116.064 146.88 115.967C147.009 115.869 147.141 115.759 147.295 115.657C147.45 115.554 147.621 115.444 147.793 115.331C148.187 115.101 148.598 114.902 149.022 114.736C149.447 114.576 149.884 114.448 150.328 114.354C150.537 114.316 150.731 114.275 150.913 114.257C151.094 114.239 151.281 114.219 151.428 114.208C151.574 114.198 151.729 114.208 151.855 114.193H152.174L152.44 114.252Z" fill="white"/>
</svg>
