<svg width="428" height="416" viewBox="0 0 428 416" fill="none" xmlns="http://www.w3.org/2000/svg">
<path d="M338.148 0H67.7391C57.0878 0 48.4531 7.95004 48.4531 17.7569V171.899C48.4531 181.706 57.0878 189.656 67.7391 189.656H338.148C348.8 189.656 357.434 181.706 357.434 171.899V17.7569C357.434 7.95004 348.8 0 338.148 0Z" fill="#AFAFAF"/>
<path opacity="0.28" d="M333.61 4.5H73.3251C62.6737 4.5 54.0391 12.45 54.0391 22.2569V165.791C54.0391 175.598 62.6737 183.548 73.3251 183.548H333.61C344.261 183.548 352.896 175.598 352.896 165.791V22.2569C352.896 12.45 344.261 4.5 333.61 4.5Z" fill="#0BCA7A"/>
<path d="M128.04 88.829C112.538 88.6233 100.067 83.6215 90.9689 73.9651C67.9681 49.5349 74.1547 2.86678 74.2106 2.39746L75.6071 2.55819C75.5443 3.02107 69.4414 49.1427 92.0372 73.1229C100.856 82.49 112.985 87.3439 128.068 87.5432L128.04 88.829Z" fill="#333333"/>
<path d="M280.716 89.2782L280.018 88.1596C308.716 73.4243 302.362 5.22542 302.306 4.58252L303.703 4.4668C304.69 16.6408 304.594 28.8689 303.416 41.0285C300.777 66.6674 293.138 82.9071 280.716 89.2782Z" fill="#333333"/>
<path d="M288.997 109.968C286.722 109.985 284.447 109.897 282.182 109.704L282.342 108.418C282.803 108.47 328.909 112.919 356.358 81.1465L357.454 81.9501C342.833 98.8584 323.135 105.5 309.19 108.097C302.542 109.328 295.778 109.955 288.997 109.968Z" fill="#333333"/>
<path d="M283.069 119.259C283.069 119.259 281.672 132.117 264.914 134.045C264.914 134.045 258.036 153.043 231.998 150.812L231.411 150.761C231.411 150.761 214.067 149.179 202.957 137.376C201.971 136.332 201.059 135.23 200.227 134.077H182.533C182.533 134.077 175.083 134.077 168.568 126.755C167.227 125.237 166.058 123.598 165.076 121.862H132.977C130.051 121.892 127.165 121.228 124.598 119.934C120.527 117.819 116.121 113.453 116.917 104.504C117.568 101.788 118.924 99.2576 120.87 97.1301C122.816 95.0026 125.293 93.3414 128.089 92.2889C128.089 92.2889 120.318 75.3614 140.965 70.6489C140.965 70.6489 136.469 55.0007 151.132 49.8575C151.132 49.8575 159.511 46.0001 168.589 53.7149C168.589 53.7149 169.287 40.214 181.856 38.2853C181.856 38.2853 195.123 35.7137 200.011 47.9288C200.011 47.9288 206.993 34.4279 221.657 38.9282C221.657 38.9282 230.734 40.214 232.131 53.072C232.131 53.072 244.001 42.7856 255.872 53.7149C255.872 53.7149 264.251 61.4297 257.966 72.359C257.966 72.359 276.121 67.2158 280.311 82.6454C281.009 85.8197 280.649 89.1142 279.278 92.0969C277.908 95.0796 275.59 97.6116 272.63 99.3608C275.606 100.998 278.19 103.175 280.227 105.758C281.769 107.668 282.824 109.874 283.316 112.21C283.808 114.547 283.724 116.956 283.069 119.259Z" fill="#F9B499" stroke="#F7A48B" stroke-miterlimit="10"/>
<path d="M128.054 92.2567C129.61 91.7822 131.249 91.5837 132.886 91.6716C134.543 91.7474 136.176 92.0755 137.718 92.6424C138.486 92.936 139.23 93.2798 139.945 93.6711C140.643 94.0857 141.3 94.5569 141.907 95.079C143.122 96.0951 144.109 97.3204 144.812 98.6857C143.699 97.6571 142.498 96.7112 141.223 95.8569C139.981 95.0253 138.627 94.3467 137.194 93.8382C135.768 93.3043 134.284 92.9121 132.767 92.6681C131.209 92.4221 129.634 92.2845 128.054 92.2567Z" fill="#F7A48B"/>
<path d="M172.443 68.405C174.444 68.2171 176.466 68.4366 178.365 69.0479C178.839 69.2151 179.321 69.3694 179.761 69.5623L181.158 70.2052C181.584 70.4559 182.003 70.7323 182.429 70.9959C182.854 71.2595 183.211 71.6003 183.602 71.9024C185.099 73.1857 186.278 74.7515 187.058 76.4927L187.365 77.1356C187.449 77.3542 187.512 77.5792 187.582 77.7785L187.98 79.1093C188.159 80.0084 188.28 80.9165 188.343 81.8288C187.959 80.9802 187.693 80.1187 187.323 79.2958L186.73 78.0807C186.625 77.8814 186.541 77.6757 186.437 77.4828L186.08 76.9106L185.382 75.7791L184.551 74.7312C184.282 74.3786 183.98 74.0474 183.65 73.7411C183.353 73.4082 183.023 73.1005 182.666 72.8218C181.297 71.6309 179.717 70.6634 177.995 69.9609C176.224 69.2263 174.358 68.7035 172.443 68.405Z" fill="#F29681"/>
<path d="M196.484 80.041C196.484 80.041 191.247 90.9703 202.943 97.3993" stroke="#ED1C24" stroke-miterlimit="10"/>
<path d="M116.966 109.1C116.966 109.1 144.813 120.569 156.683 110.926C156.683 110.926 176.479 97.2897 166.228 85.4668C171.223 88.8085 174.743 93.6949 176.144 99.2313C176.144 99.2313 162.269 103.854 165.062 121.855H132.977C132.977 121.855 119.137 122.684 116.966 109.1Z" fill="#F7A48B"/>
<path d="M156.683 76.8261C156.683 76.8261 174.837 74.2545 168.553 53.6816C168.553 53.6816 179.725 62.7851 168.895 73.3415C168.895 73.3415 165.062 77.469 156.683 76.8261Z" fill="#F7A48B"/>
<path d="M195.088 60.7539C195.088 60.7539 191.596 70.5324 195.088 76.8971C195.088 76.8971 184.614 83.8983 195.088 97.3992H207.314C207.314 97.3992 196.379 85.962 203.767 76.8971C203.753 76.8971 194.389 73.6119 195.088 60.7539Z" fill="#F7A48B"/>
<path d="M215.336 62.04C215.336 62.04 243.267 57.5397 228.603 84.5416C228.603 84.5416 235.914 86.7853 240.076 91.6135C240.981 92.685 241.601 93.9374 241.885 95.2698C242.169 96.6021 242.109 97.9772 241.71 99.2844C241.312 100.592 240.585 101.794 239.589 102.796C238.593 103.797 237.356 104.569 235.977 105.05C231.62 106.599 224.595 108.046 213.507 108.13C210.9 108.18 208.309 107.752 205.884 106.868C203.46 105.985 201.251 104.665 199.388 102.986C199.207 102.819 199.025 102.646 198.857 102.472C198.857 102.472 205.966 111.685 199.13 123.823C199.13 123.823 203.061 122.344 203.962 113.723C203.962 113.723 204.164 111.531 208.005 112.173L236.815 112.116C236.815 112.116 251.479 110.888 252.254 97.3867C252.254 97.3867 253.413 84.9016 236.124 81.8221C236.124 81.8221 246.8 64.1873 228.624 59.2498C228.624 59.2627 223.716 58.1826 215.336 62.04Z" fill="#F7A48B"/>
<path d="M254.293 52.377C254.293 52.377 260.026 69.0924 250.25 76.1643C250.25 76.1643 263.196 75.2771 259.516 59.6482C259.516 59.6674 258.336 54.9357 254.293 52.377Z" fill="#F7A48B"/>
<path d="M265.611 101.257C265.611 101.257 282.488 90.7708 275.792 75.1162C275.792 75.1162 284.171 81.7831 279.074 92.4745C279.074 92.4874 276.085 99.9707 265.611 101.257Z" fill="#F7A48B"/>
<path d="M283.068 119.258C283.068 119.258 281.671 132.116 264.913 134.044C264.913 134.044 258.035 153.042 231.997 150.811C256.304 148.278 257.931 128.901 257.931 128.901C285.61 133.363 280.275 106.22 280.191 105.757C281.739 107.665 282.801 109.869 283.299 112.206C283.797 114.543 283.718 116.953 283.068 119.258Z" fill="#F7A48B"/>
<path d="M243.966 119.9C243.846 117.692 244.081 115.48 244.664 113.336C245.246 111.175 246.134 109.093 247.304 107.144C247.618 106.662 247.89 106.167 248.239 105.711L249.294 104.341C249.657 103.891 250.083 103.493 250.481 103.056L251.081 102.413L251.779 101.853C252.233 101.487 252.673 101.101 253.141 100.754L254.628 99.8026C254.887 99.6547 255.124 99.4875 255.389 99.359L256.192 98.9796C256.73 98.7353 257.268 98.4975 257.805 98.2725C257.338 98.6196 256.87 98.9539 256.409 99.2818L255.711 99.764C255.48 99.9311 255.278 100.13 255.054 100.31L253.756 101.384L252.568 102.554C251.01 104.128 249.662 105.867 248.553 107.736C247.431 109.604 246.496 111.562 245.76 113.586C245.002 115.649 244.402 117.759 243.966 119.9Z" fill="#F29681"/>
<g opacity="0.41">
<path d="M250.25 122.486C250.093 122.492 249.939 122.448 249.812 122.363C249.686 122.278 249.594 122.156 249.552 122.017C249.51 121.888 245.809 109.21 257.463 103.579C257.627 103.499 257.818 103.483 257.995 103.534C258.172 103.585 258.319 103.698 258.406 103.849C258.492 104 258.509 104.176 258.454 104.338C258.399 104.501 258.276 104.637 258.112 104.717C247.464 109.86 250.753 121.188 250.892 121.67C250.942 121.833 250.919 122.009 250.829 122.157C250.738 122.305 250.588 122.414 250.41 122.461C250.358 122.474 250.304 122.482 250.25 122.486Z" fill="white"/>
</g>
<g opacity="0.41">
<path d="M171.032 124.479C170.895 124.479 170.761 124.442 170.647 124.372C170.533 124.302 170.443 124.203 170.39 124.087C170.25 123.772 166.898 116.333 170.313 110.104C172.212 106.613 175.843 104.228 181.101 103.032C181.28 102.991 181.469 103.016 181.627 103.103C181.785 103.19 181.9 103.331 181.946 103.495C181.969 103.577 181.974 103.663 181.961 103.747C181.947 103.831 181.916 103.912 181.869 103.985C181.821 104.058 181.759 104.121 181.685 104.172C181.61 104.222 181.526 104.259 181.436 104.279C176.597 105.391 173.28 107.545 171.57 110.708C168.462 116.404 171.647 123.566 171.681 123.617C171.717 123.696 171.735 123.779 171.736 123.864C171.736 123.949 171.718 124.032 171.683 124.111C171.648 124.189 171.596 124.26 171.531 124.32C171.467 124.38 171.389 124.427 171.304 124.46C171.216 124.484 171.123 124.491 171.032 124.479Z" fill="white"/>
</g>
<g opacity="0.41">
<path d="M122.051 104.785C121.986 104.793 121.92 104.793 121.855 104.785C121.678 104.737 121.528 104.626 121.439 104.477C121.349 104.327 121.329 104.151 121.38 103.987C121.415 103.885 124.872 93.3218 135.492 94.7618C135.678 94.7874 135.844 94.8797 135.955 95.0183C136.067 95.157 136.114 95.3307 136.086 95.5012C136.058 95.6717 135.958 95.8251 135.807 95.9275C135.657 96.03 135.468 96.0732 135.283 96.0477C125.898 94.7618 122.847 103.968 122.714 104.36C122.665 104.486 122.575 104.594 122.456 104.67C122.337 104.746 122.195 104.786 122.051 104.785Z" fill="white"/>
</g>
<g opacity="0.41">
<path d="M132.9 91.1643C132.745 91.17 132.591 91.1275 132.465 91.0436C132.338 90.9597 132.246 90.8393 132.202 90.7014C128.571 78.8849 139.527 74.571 139.639 74.526C139.81 74.4604 140.002 74.4601 140.174 74.5252C140.346 74.5903 140.482 74.7155 140.553 74.8732C140.625 75.0309 140.625 75.2082 140.554 75.3662C140.483 75.5241 140.348 75.6497 140.176 75.7154C139.771 75.8697 130.261 79.6692 133.571 90.3478C133.62 90.5106 133.598 90.6849 133.51 90.8329C133.421 90.981 133.272 91.0908 133.096 91.1386C133.032 91.1556 132.967 91.1643 132.9 91.1643Z" fill="white"/>
</g>
<g opacity="0.41">
<path d="M144.813 71.6886C144.657 71.6943 144.504 71.6518 144.377 71.5679C144.251 71.484 144.158 71.3636 144.115 71.2257C142.362 65.6968 142.579 61.055 144.757 57.4291C146.36 54.7624 148.984 52.7409 152.117 51.7587C152.207 51.7303 152.302 51.7189 152.396 51.7254C152.491 51.7319 152.583 51.756 152.667 51.7963C152.751 51.8366 152.825 51.8923 152.885 51.9599C152.945 52.0275 152.99 52.1056 153.016 52.1895C153.042 52.2734 153.049 52.3613 153.037 52.4479C153.025 52.5345 152.994 52.6179 152.946 52.6931C152.898 52.7683 152.833 52.8336 152.757 52.8852C152.681 52.9368 152.593 52.9735 152.501 52.993C149.726 53.9007 147.403 55.7056 145.965 58.072C143.982 61.3829 143.815 65.6839 145.456 70.8657C145.481 70.9467 145.489 71.0316 145.479 71.1156C145.469 71.1995 145.442 71.2808 145.398 71.3548C145.353 71.4288 145.294 71.4941 145.222 71.547C145.151 71.5999 145.069 71.6392 144.981 71.6629C144.926 71.6784 144.87 71.687 144.813 71.6886Z" fill="white"/>
</g>
<g opacity="0.41">
<path d="M198.859 65.9287C198.674 65.9287 198.496 65.8609 198.365 65.7404C198.234 65.6198 198.16 65.4563 198.16 65.2858C197.735 51.6113 206.54 46.3523 206.931 46.1337C207.008 46.0816 207.096 46.0447 207.19 46.0254C207.283 46.006 207.38 46.0046 207.474 46.0213C207.569 46.0379 207.658 46.0722 207.737 46.1221C207.816 46.1719 207.883 46.2363 207.934 46.3111C207.985 46.3859 208.019 46.4695 208.033 46.5568C208.048 46.6441 208.042 46.7332 208.018 46.8185C207.993 46.9038 207.949 46.9835 207.89 47.0526C207.83 47.1217 207.755 47.1788 207.671 47.2203C207.587 47.2717 199.152 52.3635 199.557 65.2215C199.557 65.392 199.483 65.5555 199.352 65.6761C199.222 65.7966 199.044 65.8644 198.859 65.8644V65.9287Z" fill="white"/>
</g>
<path d="M202.943 137.387C201.957 136.343 201.045 135.242 200.213 134.089H182.519C182.519 134.089 175.069 134.089 168.554 126.767C168.554 126.767 179.475 129.981 188.328 129.454C194.649 129.168 200.982 129.185 207.3 129.505C207.3 129.505 202.419 133.639 202.943 137.387Z" fill="#F7A48B"/>
<path d="M419.531 22.1807H333.044C328.582 22.1807 324.965 25.5109 324.965 29.619V80.961C324.965 85.0691 328.582 88.3994 333.044 88.3994H419.531C423.992 88.3994 427.609 85.0691 427.609 80.961V29.619C427.609 25.5109 423.992 22.1807 419.531 22.1807Z" fill="#E6E7E8"/>
<path opacity="0.28" d="M427.609 29.619V33.11H324.965V29.619C324.965 28.6422 325.174 27.6749 325.58 26.7725C325.986 25.87 326.581 25.05 327.331 24.3593C328.081 23.6686 328.972 23.1207 329.952 22.7469C330.932 22.3731 331.983 22.1807 333.044 22.1807H419.531C421.673 22.1807 423.728 22.9643 425.243 24.3593C426.758 25.7543 427.609 27.6462 427.609 29.619Z" fill="#0BCA7A"/>
<path d="M392.695 31.1819C394.624 31.1819 396.187 29.7428 396.187 27.9674C396.187 26.1921 394.624 24.7529 392.695 24.7529C390.767 24.7529 389.204 26.1921 389.204 27.9674C389.204 29.7428 390.767 31.1819 392.695 31.1819Z" fill="#E6E7E8"/>
<path d="M405.265 31.1819C407.193 31.1819 408.756 29.7428 408.756 27.9674C408.756 26.1921 407.193 24.7529 405.265 24.7529C403.337 24.7529 401.773 26.1921 401.773 27.9674C401.773 29.7428 403.337 31.1819 405.265 31.1819Z" fill="#E6E7E8"/>
<path d="M417.833 31.1819C419.761 31.1819 421.324 29.7428 421.324 27.9674C421.324 26.1921 419.761 24.7529 417.833 24.7529C415.905 24.7529 414.342 26.1921 414.342 27.9674C414.342 29.7428 415.905 31.1819 417.833 31.1819Z" fill="#E6E7E8"/>
<path d="M348.008 63.9678H341.724V81.3261H348.008V63.9678Z" fill="#333333"/>
<path d="M363.368 51.7529H357.084V81.3264H363.368V51.7529Z" fill="#0BCA7A"/>
<path d="M380.825 56.2539H374.541V81.327H380.825V56.2539Z" fill="#333333"/>
<path d="M396.886 46.6104H390.602V81.327H396.886V46.6104Z" fill="#0BCA7A"/>
<path d="M413.645 39.5381H407.36V81.3266H413.645V39.5381Z" fill="#333333"/>
<path d="M215.337 62.0395C216.986 61.1219 218.743 60.38 220.574 59.828C222.412 59.2543 224.332 58.9316 226.272 58.87C228.243 58.8079 230.203 59.1758 231.991 59.9437C233.768 60.7591 235.3 61.9646 236.453 63.4539L236.411 63.4089C237.595 64.6826 238.469 66.1756 238.973 67.7871C239.483 69.3781 239.707 71.0349 239.637 72.6924L239.546 73.9268C239.504 74.3382 239.406 74.7432 239.336 75.1483C239.185 75.9612 238.978 76.7643 238.715 77.5527C238.464 78.3435 238.114 79.0957 237.807 79.8672L236.655 82.098L236.215 81.288C238.237 81.6322 240.205 82.2066 242.074 82.9981C243.957 83.7744 245.711 84.794 247.283 86.0261C248.059 86.661 248.781 87.351 249.44 88.0899C250.085 88.846 250.653 89.6552 251.137 90.5072C252.077 92.2248 252.659 94.0891 252.855 96.004C252.911 96.4797 252.911 96.9619 252.946 97.4376C252.98 97.9134 252.946 98.3827 252.946 98.8584C252.902 99.3561 252.809 99.8489 252.666 100.331C252.551 100.797 252.406 101.256 252.233 101.706C251.566 103.524 250.549 105.216 249.231 106.702C246.585 109.695 242.875 111.731 238.757 112.449C237.739 112.624 236.706 112.718 235.671 112.732C234.651 112.732 233.667 112.732 232.661 112.732L226.67 112.687L214.674 112.565L208.683 112.501C207.698 112.501 206.644 112.456 205.715 112.469C205.286 112.507 204.89 112.699 204.612 113.002C204.473 113.154 204.366 113.328 204.298 113.517C204.235 113.697 204.207 113.934 204.158 114.159C203.838 115.989 203.347 117.789 202.692 119.541C202.357 120.417 201.916 121.255 201.379 122.041C200.876 122.851 200.091 123.481 199.151 123.829C200.053 123.439 200.79 122.786 201.246 121.971C201.728 121.171 202.121 120.329 202.419 119.457C203.001 117.706 203.417 115.912 203.662 114.095C203.686 113.854 203.73 113.616 203.795 113.382C203.873 113.129 204.003 112.894 204.179 112.687C204.538 112.269 205.058 111.995 205.631 111.922C206.7 111.871 207.649 111.877 208.669 111.858L214.66 111.794L226.656 111.678L232.612 111.671C233.611 111.671 234.623 111.671 235.601 111.671C236.564 111.651 237.524 111.557 238.471 111.389C242.283 110.694 245.708 108.784 248.141 105.995C249.342 104.613 250.267 103.045 250.872 101.366C251.03 100.945 251.161 100.515 251.263 100.08C251.381 99.6715 251.458 99.2541 251.493 98.8327V97.4955C251.493 97.0583 251.493 96.6083 251.416 96.1711C251.253 94.4108 250.732 92.6945 249.88 91.1115C249.447 90.3262 248.933 89.5813 248.344 88.8871C247.744 88.1949 247.083 87.5498 246.368 86.9584C244.897 85.7872 243.251 84.8172 241.48 84.0782C239.72 83.3174 237.865 82.7582 235.957 82.413L235.161 82.278L235.517 81.6351L236.641 79.5136C236.934 78.7742 237.29 78.0542 237.549 77.3084C237.812 76.5644 238.026 75.8066 238.191 75.039C238.261 74.6597 238.373 74.2739 238.415 73.8882L238.533 72.7245C238.635 71.1681 238.46 69.6068 238.017 68.1021C237.591 66.6044 236.822 65.2079 235.761 64.0068L235.726 63.9682C234.678 62.5467 233.272 61.3798 231.628 60.5673C229.95 59.7785 228.093 59.3686 226.209 59.3715C224.317 59.3743 222.436 59.6277 220.623 60.1237C218.792 60.5878 217.02 61.23 215.337 62.0395Z" fill="#F29681"/>
<path d="M165.063 121.83C164.792 120.435 164.649 119.022 164.637 117.606C164.607 116.183 164.688 114.761 164.881 113.35C165.25 110.492 166.248 107.733 167.814 105.243C168.624 103.987 169.612 102.837 170.754 101.823C171.911 100.816 173.204 99.9521 174.601 99.2509C177.415 97.9172 180.489 97.1129 183.644 96.885C185.201 96.7564 186.779 96.7564 188.301 96.7629H192.896C195.961 96.8015 199.019 96.8143 202.085 96.8722C208.216 96.9536 214.344 97.1208 220.47 97.3736C214.339 97.6222 208.211 97.7894 202.085 97.8751C199.019 97.933 195.961 97.9458 192.896 97.9844H188.301C186.758 97.9844 185.264 97.9844 183.769 98.1258C180.795 98.3175 177.89 99.0403 175.216 100.254C173.906 100.884 172.686 101.661 171.585 102.568C170.502 103.501 169.548 104.553 168.743 105.699C167.145 108.056 166.061 110.676 165.552 113.414C164.98 116.186 164.816 119.017 165.063 121.83Z" fill="#F29681"/>
<path d="M151.096 81.9696C153.943 81.4219 156.888 81.4703 159.712 82.111C162.587 82.7277 165.281 83.9123 167.61 85.5827C169.922 87.2663 171.843 89.3608 173.259 91.7417C174.662 94.0721 175.643 96.5975 176.163 99.2186C175.131 96.7906 173.845 94.4609 172.323 92.2624C171.568 91.1857 170.72 90.1666 169.788 89.2151C168.875 88.2611 167.865 87.3893 166.772 86.6113C165.69 85.8128 164.519 85.1211 163.28 84.5476C162.048 83.961 160.763 83.4728 159.44 83.0882C156.741 82.3101 153.924 81.9325 151.096 81.9696Z" fill="#F29681"/>
<path d="M195.087 60.7539C195.275 63.5465 195.92 66.297 197 68.9123C197.948 71.4978 199.765 73.7385 202.188 75.3103C204.611 76.8822 207.514 77.7036 210.477 77.6558C213.528 77.7092 216.574 77.4308 219.554 76.8264C216.672 77.9321 213.597 78.5526 210.477 78.6587H209.297L208.11 78.5687C207.713 78.5398 207.319 78.4883 206.93 78.4144C206.535 78.3586 206.143 78.2834 205.757 78.1894C204.19 77.8228 202.709 77.1977 201.385 76.3442C200.074 75.4785 198.939 74.4054 198.034 73.1747C197.153 71.9559 196.462 70.6293 195.981 69.2338C195.035 66.4972 194.73 63.6069 195.087 60.7539Z" fill="#F29681"/>
<path d="M168.554 53.6816C170.24 54.8293 171.626 56.3098 172.611 58.0148C173.644 59.7498 174.193 61.6937 174.21 63.6723C174.199 65.6537 173.637 67.5996 172.576 69.3234C171.562 71.0074 170.195 72.489 168.554 73.6823C169.752 72.1886 170.773 70.5807 171.598 68.8862C171.808 68.4748 171.94 68.0376 172.122 67.6004C172.303 67.1633 172.415 66.7389 172.499 66.3146C172.721 65.4469 172.827 64.5573 172.813 63.6659C172.799 61.8682 172.396 60.0912 171.626 58.4391C170.836 56.7345 169.803 55.1346 168.554 53.6816Z" fill="#F29681"/>
<path opacity="0.18" d="M303.32 4.82108L165.154 183.547H219.528L339.364 5.30326C337.544 4.61243 335.57 4.33672 333.61 4.49963L303.32 4.82108Z" fill="white"/>
<path opacity="0.18" d="M247.388 4.44238V4.50024L128.718 183.548H73.3251C68.2107 183.546 63.3063 181.675 59.6898 178.345C56.0734 175.016 54.0409 170.5 54.0391 165.791V153.608L168.554 4.50024L247.388 4.44238Z" fill="white"/>
<path d="M333.449 37.9775V82.6141H419.077V80.8011H335.439V37.9775H333.449Z" fill="#0BCA7A"/>
<path d="M313.213 321.714H307.516V366.28H313.213V321.714Z" fill="#BCBEC0"/>
<path d="M317.962 360.165H302.774V389.006H317.962V360.165Z" fill="#A7A9AC"/>
<path d="M335.893 319.29H274.404V317.451H335.74C339.929 316.662 343.89 315.07 347.366 312.777C354.872 307.756 358.294 300.253 357.539 290.468V290.398L357.875 271.516H359.872L359.53 290.398C360.528 303.436 354.069 310.604 348.469 314.326C344.742 316.796 340.478 318.491 335.97 319.296L335.893 319.29Z" fill="#0BCA7A"/>
<path d="M227.789 395.994C223.997 399.492 210.695 402.989 210.695 402.989C186.996 409.759 171.767 404.873 167.975 403.381C167.22 403.104 166.55 402.663 166.02 402.095C165.768 401.824 165.593 401.499 165.511 401.15C165.133 399.189 169.896 398.643 169.896 398.643L183.163 395.146C192.652 393.397 194.551 389.032 194.551 389.032C196.451 383.786 199.697 385.174 199.697 385.174L223.997 388.119C226.266 390.228 227.615 393.03 227.789 395.994Z" fill="#0BCA7A"/>
<path d="M253.421 364.538L261.94 375.905L270.479 378.528C270.479 378.528 278.775 367.92 279.375 367.978C279.976 368.036 279.969 361.922 279.969 361.922L269.495 353.185L253.421 364.538Z" fill="#F9B499"/>
<path d="M203.11 374.148L199.717 385.148C199.717 385.148 205.959 386.698 203.11 391.783C203.11 391.783 219.247 395.12 223.995 388.132V380.134L203.11 374.148Z" fill="#F9B499"/>
<path d="M353.727 193.108C352.668 193.308 351.719 193.848 351.051 194.63C350.382 195.413 350.037 196.388 350.075 197.384L351.22 253.753L353.001 287.673C353.001 287.673 363.726 293.516 363.621 281.841C363.621 281.841 366.366 209.001 358.734 196.766C358.769 196.753 357.379 192.523 353.727 193.108Z" fill="#0BCA7A"/>
<path opacity="0.4" d="M353.727 193.108C352.668 193.308 351.719 193.848 351.051 194.63C350.382 195.413 350.037 196.388 350.075 197.384L351.22 253.753L353.001 287.673C353.001 287.673 363.726 293.516 363.621 281.841C363.621 281.841 366.366 209.001 358.734 196.766C358.769 196.753 357.379 192.523 353.727 193.108Z" fill="white"/>
<path d="M312.054 181.684C311.845 173.609 310.364 171.397 310.364 171.397L317.473 164.788C318.527 165.267 319.648 165.613 320.803 165.817C322.703 166.151 326.501 166.151 330.3 174.014C333.582 180.835 312.054 181.684 312.054 181.684Z" fill="#F9B499"/>
<path d="M312.054 181.683C312.054 181.683 324.581 172.175 317.472 164.801C318.527 165.28 319.647 165.626 320.803 165.829C322.702 166.164 326.501 166.164 330.299 174.026C333.581 180.835 312.054 181.683 312.054 181.683Z" fill="#F7A48B"/>
<path d="M307.989 174.901C315.065 174.901 320.802 165.316 320.802 153.493C320.802 141.669 315.065 132.084 307.989 132.084C300.912 132.084 295.176 141.669 295.176 153.493C295.176 165.316 300.912 174.901 307.989 174.901Z" fill="#F9B499"/>
<path d="M340.551 167.135C339.543 167.624 338.48 168.01 337.381 168.285C336.832 168.44 336.338 168.729 335.952 169.12C335.566 169.512 335.302 169.992 335.188 170.51C334.895 171.616 333.694 172.876 329.797 172.972C329.797 172.972 325.552 165.508 320.804 165.83C320.804 165.83 315.113 165.29 314.638 160.924C314.163 156.559 310.623 157.71 310.623 157.71C310.623 157.71 306.776 160.031 308.57 151.281C308.57 151.281 301.455 143.881 299.737 137.092C298.027 139.618 296.815 142.401 296.155 145.315C296.155 145.315 288.544 131.814 303.731 128.001C303.731 128.001 311.077 116.056 321.642 128.001C321.642 128.001 335.998 121.572 335.998 138.198C335.998 138.198 349.265 144.318 342.646 156.553C342.639 156.553 348.064 163.432 340.551 167.135Z" fill="#333333"/>
<path opacity="0.2" d="M340.55 167.135C339.542 167.624 338.479 168.01 337.38 168.286C336.831 168.441 336.338 168.729 335.952 169.12C335.566 169.512 335.302 169.992 335.188 170.51C334.894 171.616 333.693 172.876 329.797 172.972C329.797 172.972 325.551 165.508 320.803 165.83C320.803 165.83 315.112 165.29 314.638 160.924C314.163 156.559 310.623 157.71 310.623 157.71C310.623 157.71 306.775 160.031 308.57 151.281C308.57 151.281 317.012 135.556 323.652 146.916C323.652 146.916 325.551 148.664 325.551 158.276C325.551 158.301 326.124 168.106 340.55 167.135Z" fill="black"/>
<path d="M314.638 160.923C316.998 160.923 318.911 158.77 318.911 156.115C318.911 153.459 316.998 151.306 314.638 151.306C312.278 151.306 310.364 153.459 310.364 156.115C310.364 158.77 312.278 160.923 314.638 160.923Z" fill="#F9B499"/>
<path d="M297.076 242.182C297.076 242.182 279.047 250.919 261.011 247.421C261.011 247.421 256.262 253.85 247.744 254.564L232.382 253.156V248.296C232.382 248.296 237.772 244.342 259.845 241.082C266.917 239.422 273.705 236.869 280.017 233.496C280.017 233.496 281.323 232.692 283.194 231.567C286.93 229.356 292.97 225.948 295.365 225.44L295.205 240.42L297.076 242.182Z" fill="#F9B499"/>
<path d="M297.076 242.181C297.076 242.181 279.047 250.918 261.011 247.421C261.011 247.421 276.128 240.799 283.167 231.58C286.902 229.368 292.942 225.961 295.337 225.453L295.177 240.433L297.076 242.181Z" fill="#F7A48B"/>
<path d="M48.4032 258.793H41.7627V408.229H48.4032V258.793Z" fill="#BCBEC0"/>
<path d="M111.045 273.04C111.045 273.04 113.342 298.833 51.2524 295.509C51.2524 295.509 47.6354 283.294 52.3068 272.365C52.3068 272.365 79.4064 246.752 105.836 266.495L111.045 273.04Z" fill="#333333"/>
<path opacity="0.2" d="M111.045 273.04C111.045 273.04 113.342 298.833 51.2524 295.509C51.2524 295.509 47.6354 283.294 52.3068 272.365C52.3068 272.365 79.4064 246.752 105.836 266.495L111.045 273.04Z" fill="black"/>
<path d="M18.7692 241.62L30.3744 287.633H37.5874L28.2726 239.782C28.0781 238.702 27.4679 237.723 26.5536 237.024C25.6393 236.325 24.4821 235.953 23.294 235.976H23.1683C22.4539 236.032 21.7611 236.23 21.1377 236.556C20.5143 236.882 19.975 237.329 19.5569 237.865C19.1389 238.402 18.852 239.015 18.7161 239.663C18.5801 240.311 18.5982 240.979 18.7692 241.62Z" fill="#BCBEC0"/>
<path d="M115.793 237.636L119.563 239.976C120.376 240.477 121.031 241.166 121.464 241.974C121.896 242.782 122.091 243.68 122.028 244.579L119.123 287.653H111.994L114.005 251.825L115.793 237.636Z" fill="#BCBEC0"/>
<path d="M115.792 222.965H108.202V251.805H115.792V222.965Z" fill="#F9B499"/>
<path d="M117.796 192.567C117.097 195.139 114.765 196.63 113.557 197.267C113.315 197.395 113.066 197.51 112.81 197.614C111.226 189.832 108.455 182.295 104.578 175.228C103.763 173.737 102.856 172.29 101.861 170.895C95.5142 162.968 84.4746 160.467 84.4746 160.467L84.335 156.835V156.391C93.3146 152.823 95.4234 142.132 95.8144 139.47C95.8703 139.078 95.8912 138.859 95.8912 138.859L98.1257 140.017V140.499L98.384 153.595C96.1496 161.573 106.316 164.839 106.316 164.839C113.906 168.33 111.064 179.696 111.064 179.696C110.094 188.421 117.796 192.567 117.796 192.567Z" fill="#333333"/>
<path opacity="0.2" d="M117.796 192.568C117.098 195.139 114.766 196.631 113.558 197.267L113.181 197.332C111.634 189.583 108.728 182.118 104.578 175.229C103.767 173.889 102.86 172.6 101.862 171.371C95.5146 163.451 84.4751 160.95 84.4751 160.95L84.3145 156.867C93.2941 153.293 95.3889 142.216 95.7729 139.509C95.8288 139.117 95.8498 138.898 95.8498 138.898L98.0842 140.519L98.3425 153.614C96.1081 161.593 106.275 164.859 106.275 164.859C113.865 168.35 111.023 179.716 111.023 179.716C110.094 188.421 117.796 192.568 117.796 192.568Z" fill="black"/>
<path d="M119.284 223.253L111.044 227.336L31.3168 225.587C19.593 224.301 14.8797 218.425 13.162 215.301C12.8901 214.795 12.7843 214.226 12.8575 213.666C12.9307 213.105 13.1796 212.576 13.574 212.144C15.0752 210.492 17.8334 206.847 21.3596 199.447L21.8065 198.489C21.8065 198.489 38.893 155.672 69.2884 156.109L84.3918 160.423C84.3918 160.423 103.343 163.637 109.152 183.638C112.21 192.473 114.431 201.535 115.793 210.723C115.793 210.723 116.386 215.661 119.94 219.017C120.261 219.31 120.502 219.667 120.646 220.061C120.79 220.456 120.831 220.875 120.767 221.287C120.704 221.698 120.536 222.09 120.279 222.432C120.021 222.773 119.681 223.055 119.284 223.253Z" fill="#0BCA7A"/>
<path d="M95.8648 137.33C95.8786 140.179 95.4074 143.012 94.4682 145.726C92.569 151.21 88.8402 155.37 84.3085 156.842C83.1441 157.229 81.9156 157.427 80.6776 157.427C76.1388 157.427 72.068 154.798 69.2889 150.619C66.7291 146.591 65.4154 141.996 65.4903 137.33C65.492 136.209 65.5619 135.088 65.6998 133.974C66.9148 124.466 73.1503 117.227 80.6776 117.227C89.0637 117.227 95.8648 126.227 95.8648 137.33Z" fill="#F9B499"/>
<path opacity="0.2" d="M67.8642 161.863L66.8657 162.634C65.3587 163.79 64.3102 165.372 63.8841 167.135L62.6412 172.278L54.1992 177.717C53.8788 177.923 53.6213 178.202 53.4513 178.526C53.2814 178.85 53.2047 179.209 53.2286 179.568L54.1015 192.375L41.7631 204.59C28.4961 204.59 21.3809 199.447 21.3809 199.447L21.8277 198.489C21.8277 198.489 38.9142 155.672 69.3096 156.109C67.3894 158.301 67.8642 161.863 67.8642 161.863Z" fill="black"/>
<path d="M77.5154 191.725H54.0538L53.2299 179.575C53.2059 179.215 53.2826 178.856 53.4526 178.532C53.6225 178.208 53.88 177.929 54.2004 177.723L62.6424 172.284L64.444 174.644L77.5154 191.725Z" fill="#0BCA7A"/>
<path opacity="0.3" d="M77.5154 191.725H54.0538L53.2299 179.575C53.2059 179.215 53.2826 178.856 53.4526 178.532C53.6225 178.208 53.88 177.929 54.2004 177.723L62.6424 172.284L64.444 174.644L77.5154 191.725Z" fill="white"/>
<path opacity="0.2" d="M57.1541 185.695L63.0544 191.725H54.0538L53.2299 179.575C53.2059 179.215 53.2826 178.856 53.4526 178.532C53.6225 178.208 53.88 177.929 54.2004 177.723L62.6424 172.284L64.444 174.644L57.6569 179.716C57.1393 180.105 56.7222 180.596 56.436 181.152C56.1498 181.708 56.0015 182.315 56.002 182.931C55.9994 183.952 56.4102 184.938 57.1541 185.695Z" fill="black"/>
<path d="M84.1465 160.203C84.1465 160.203 91.1291 169.204 84.4677 191.705H104.187C104.187 191.705 104.885 174.45 99.599 168.445C99.599 168.464 94.5855 162.82 84.1465 160.203Z" fill="#0BCA7A"/>
<path opacity="0.3" d="M84.1465 160.203C84.1465 160.203 91.1291 169.204 84.4677 191.705H104.187C104.187 191.705 104.885 174.45 99.599 168.445C99.599 168.464 94.5855 162.82 84.1465 160.203Z" fill="white"/>
<path d="M108.197 247.434H31.3184V251.805H108.197V247.434Z" fill="#BCBEC0"/>
<path d="M22.7355 223.472L21.3809 251.824H31.3171V225.587C31.3171 225.587 25.5355 224.822 22.7355 223.472Z" fill="#F9B499"/>
<path d="M22.7348 223.472L22.4346 230.016L28.4885 229.521V225.124C26.4811 224.884 24.5342 224.325 22.7348 223.472Z" fill="#F7A48B"/>
<path d="M28.4754 245.632C28.4754 245.632 18.0015 252.556 31.3174 250.865V247.432C31.3174 247.432 28.4754 248.203 28.4754 245.632Z" fill="#F7A48B"/>
<path d="M95.8634 137.33C95.8773 140.179 95.4061 143.012 94.4669 145.726C90.2773 144.441 85.9062 123.263 85.9062 123.263C83.5391 117.934 76.8288 128.76 76.8288 128.76C72.5065 137.51 66.8785 134.668 65.7334 133.974C66.9484 124.466 73.1838 117.227 80.7111 117.227C89.0623 117.227 95.8634 126.227 95.8634 137.33Z" fill="#F7A48B"/>
<path d="M51.2522 295.497C51.2522 295.497 27.5113 273.638 39.8636 261.423H111.994C111.994 261.423 112.944 268.919 111.044 273.034C111.044 273.034 82.5763 253.56 62.6409 268.418C62.6409 268.411 52.2019 274.525 51.2522 295.497Z" fill="#333333"/>
<path d="M30.375 287.634H121.254C122.826 287.634 124.334 288.209 125.446 289.232C126.558 290.256 127.182 291.644 127.182 293.092V296.371H30.375V287.634Z" fill="#939598"/>
<path d="M80.6705 292.88H70.2314V374.149H80.6705V292.88Z" fill="#BCBEC0"/>
<path d="M67.3892 370.651L83.3445 370.806V380.391L134.01 404.879V407.875H120.01V404.879L83.3445 390.639H78.7779V407.875H83.3445V409.894H66.7328V407.567H71.1808V389.913H67.7244L30.9469 404.879V407.258H16.1367V404.879L67.3892 380.263V370.651Z" fill="#939598"/>
<path d="M237.275 248.308H162.296V251.805H237.275V248.308Z" fill="#BCBEC0"/>
<path d="M145.217 194.13L159.454 250.056H197.894L183.454 194.13H145.217Z" fill="#D1D3D4"/>
<path opacity="0.3" d="M145.217 194.13L190.366 250.056H197.894L194.619 237.384L164.133 194.13H145.217Z" fill="white"/>
<path d="M183.453 194.13H186.246L200.267 248.307H197.439L183.453 194.13Z" fill="#BCBEC0"/>
<path d="M335.99 309.479H243.925L242.975 317.348C248.456 325.995 266.841 342.961 273.119 348.651C273.398 348.9 273.62 349.198 273.77 349.529C273.92 349.859 273.995 350.214 273.991 350.572C273.987 350.93 273.904 351.283 273.747 351.611C273.59 351.938 273.362 352.233 273.077 352.476C267.435 357.103 261.503 361.422 255.313 365.411C245.824 369.777 238.234 359.291 238.234 359.291L234.435 383.76C205.96 381.137 201.219 374.116 201.219 374.116L211.665 310.328C209.249 304.316 208.173 300.247 207.768 297.508C207.07 292.686 208.467 291.979 208.467 291.979C224.268 274.499 279.99 256.15 279.99 256.15L314.163 259.641L340.739 260.516L351.178 281.494C352.127 309.479 335.99 309.479 335.99 309.479Z" fill="#333333"/>
<path opacity="0.2" d="M217.691 381.26C217.691 381.26 235.469 313.113 243.527 313.055L243.01 317.349L238.269 359.292L234.471 383.761C234.471 383.761 222.782 382.25 217.691 381.26Z" fill="black"/>
<path opacity="0.2" d="M335.991 309.479H248.966C275.2 308.039 286.924 304.227 292.154 301.083C292.921 300.619 293.581 300.02 294.095 299.32C294.609 298.621 294.967 297.834 295.148 297.005C295.329 296.177 295.33 295.324 295.15 294.495C294.971 293.667 294.614 292.879 294.102 292.179C287.915 283.731 275.744 283.319 269.558 283.718C267.527 283.849 265.53 284.268 263.637 284.959C256.34 287.633 251.892 287.633 251.892 287.633C242.766 286.759 235.329 292.005 235.329 292.005C222.935 301.616 207.776 297.54 207.776 297.54C207.077 292.719 208.474 292.011 208.474 292.011C224.276 274.531 279.997 256.183 279.997 256.183L314.17 259.674L340.746 260.548L351.185 281.526C352.127 309.479 335.991 309.479 335.991 309.479Z" fill="black"/>
<path d="M353.001 287.658C353.012 287.977 352.947 288.295 352.81 288.588C352.673 288.881 352.467 289.143 352.208 289.354C351.949 289.566 351.642 289.723 351.31 289.813C350.977 289.903 350.627 289.925 350.285 289.876C345.739 289.266 340.055 288.475 336.773 288.012C336.062 287.91 335.423 287.556 334.993 287.024C334.563 286.493 334.378 285.827 334.476 285.17C335.412 278.966 336.717 270.075 336.787 269.529L326.362 281.326C325.936 281.799 325.386 282.165 324.765 282.39C324.143 282.615 323.47 282.691 322.808 282.612C287.197 278.825 279.977 256.169 279.977 256.169C295.178 249.181 297.077 242.18 297.077 242.18L295.178 240.431L295.387 221.208C296.553 201.979 303.724 194.991 303.724 194.991V189.848C303.718 189.235 303.968 188.643 304.423 188.195C319.184 174.052 328.38 174.052 328.38 174.052C337.87 173.184 336.92 182.795 336.92 182.795C340.32 187.81 343.023 196.572 345.159 207.019C351.053 235.693 352.715 276.986 353.001 287.658Z" fill="#0BCA7A"/>
<path d="M317.012 252.68C314.163 261.417 307.515 264.04 307.515 264.04C289.486 274.526 250.572 280.646 250.572 280.646C242.025 289.383 226.831 288.509 226.831 288.509C224.83 289.181 222.918 290.061 221.133 291.132C214.486 291.132 218.298 283.906 218.298 283.906C218.897 283.259 219.585 282.686 220.344 282.202C228.241 277.02 247.709 274.526 247.709 274.526C254.349 269.286 273.335 259.669 273.335 259.669C287.419 253.465 293.201 247.993 295.533 244.882C296.208 244.07 296.726 243.156 297.062 242.182C303.724 247.434 317.012 252.68 317.012 252.68Z" fill="#F9B499"/>
<path d="M317.012 252.678C314.163 261.415 307.515 264.038 307.515 264.038C289.486 274.524 250.572 280.645 250.572 280.645C242.025 289.382 226.831 288.507 226.831 288.507C224.83 289.179 222.918 290.06 221.133 291.13C214.486 291.13 218.298 283.904 218.298 283.904C218.897 283.257 219.585 282.684 220.344 282.2C220.344 282.2 237.27 286.759 251.508 275.398C251.508 275.398 260.997 276.273 277.134 269.284L303.179 258.548C303.179 258.548 309.296 255.334 303.179 250.055L295.498 244.912C296.173 244.1 296.691 243.187 297.027 242.212C303.724 247.432 317.012 252.678 317.012 252.678Z" fill="#F7A48B"/>
<path opacity="0.2" d="M325.55 201.992C325.55 201.992 334.383 213.352 329.496 242.193L328.274 250.055C328.274 250.055 327.464 254.427 317.025 252.678C317.025 252.678 315.125 260.541 307.528 264.039C307.528 264.039 301.858 267.33 291.405 270.93C291.405 270.93 298.067 277.051 309.916 280.156C309.916 280.156 317.855 266.263 323.316 259.583C324.709 257.919 326.495 256.569 328.539 255.636C330.264 254.819 332.875 252.858 333.734 248.313C333.72 248.307 339.788 211.604 325.55 201.992Z" fill="black"/>
<path opacity="0.3" d="M336.94 182.77C322.703 173.159 303.724 194.985 303.724 194.985V189.842C303.717 189.229 303.967 188.638 304.422 188.19C319.183 174.046 328.379 174.046 328.379 174.046C337.89 173.159 336.94 182.77 336.94 182.77Z" fill="white"/>
<path opacity="0.2" d="M352.999 287.66C353.01 287.979 352.945 288.296 352.808 288.589C352.671 288.882 352.465 289.144 352.206 289.356C351.947 289.567 351.64 289.724 351.308 289.814C350.975 289.905 350.625 289.926 350.283 289.878C345.737 289.267 340.053 288.476 336.771 288.014C336.06 287.912 335.421 287.557 334.991 287.025C334.561 286.494 334.376 285.828 334.474 285.172C335.41 278.968 336.715 270.077 336.785 269.53C336.785 269.53 337.874 265.814 340.723 264.065C340.723 264.065 337.874 285.924 344.522 281.546C344.522 281.546 352.112 274.551 346.414 239.597L345.164 207.027C351.051 235.694 352.713 276.988 352.999 287.66Z" fill="black"/>
<path d="M285.395 364.64C283.567 373.408 279.671 381.699 273.982 388.928C268.294 396.158 260.951 402.149 252.472 406.48C252.035 406.573 251.578 406.544 251.159 406.397C250.419 406.069 249.923 405.06 251.522 402.115C251.522 402.115 262.911 384.635 260.062 380.257C260.062 380.257 255.572 376.817 260.67 374.168C260.67 374.168 264.81 371.159 266.71 375.705L275.033 368.884C276.513 367.673 277.412 365.971 277.533 364.152C277.584 363.542 277.601 362.931 277.582 362.32C277.57 361.953 277.65 361.59 277.817 361.257C277.983 360.924 278.231 360.632 278.54 360.402C278.85 360.172 279.214 360.012 279.602 359.933C279.99 359.854 280.394 359.859 280.78 359.947C281.868 360.196 282.902 360.613 283.838 361.182C284.433 361.557 284.897 362.084 285.174 362.698C285.45 363.312 285.527 363.987 285.395 364.64Z" fill="#0BCA7A"/>
<path d="M295.066 374.463L288.321 381.959C288.022 382.277 287.628 382.507 287.189 382.621C286.75 382.735 286.284 382.729 285.849 382.602C284.627 382.268 282.763 382.287 281.115 384.415C280.469 385.304 280.032 386.307 279.83 387.36C279.222 390.272 276.436 398.765 263.993 406.524C263.993 406.524 255.544 412.42 251.159 406.389C251.578 406.537 252.035 406.566 252.472 406.473C260.951 402.142 268.294 396.15 273.982 388.921C279.671 381.691 283.567 373.4 285.395 364.633C285.526 363.981 285.45 363.308 285.175 362.696C284.9 362.083 284.438 361.557 283.845 361.181C284.075 361.181 286.868 361.322 292.336 368.021L295.199 371.981C295.469 372.353 295.602 372.795 295.578 373.242C295.554 373.689 295.375 374.117 295.066 374.463Z" fill="#333333"/>
<path d="M225.895 411.727H209.758C208.808 405.607 201.19 409.979 201.19 409.979C185.053 415.218 167.674 409.111 167.674 409.111C162.66 408.249 165.46 401.126 165.46 401.126C165.542 401.475 165.718 401.8 165.97 402.071C166.499 402.639 167.17 403.08 167.925 403.357C171.717 404.848 186.946 409.734 210.645 402.964C210.645 402.964 223.912 399.467 227.738 395.97C229.686 402.116 225.895 411.727 225.895 411.727Z" fill="#333333"/>
<path d="M259.147 401.24C259.147 401.24 285.723 385.926 310.4 386.595C310.4 386.595 341.724 388.131 361.652 400.365L358.803 402.988C358.803 402.988 335.063 390.773 310.4 391.211C310.4 391.211 285.444 390.253 261.382 404.069L259.147 401.24Z" fill="#BCBEC0"/>
<path d="M313.213 389.006H307.516V403.863H313.213V389.006Z" fill="#BCBEC0"/>
<path d="M363.516 411.719C367.184 411.719 370.157 408.982 370.157 405.605C370.157 402.229 367.184 399.491 363.516 399.491C359.849 399.491 356.876 402.229 356.876 405.605C356.876 408.982 359.849 411.719 363.516 411.719Z" fill="#A7A9AC"/>
<path d="M258.163 411.719C261.83 411.719 264.803 408.982 264.803 405.605C264.803 402.229 261.83 399.491 258.163 399.491C254.496 399.491 251.522 402.229 251.522 405.605C251.522 408.982 254.496 411.719 258.163 411.719Z" fill="#A7A9AC"/>
<path d="M310.364 411.719C314.032 411.719 317.005 408.982 317.005 405.605C317.005 402.229 314.032 399.491 310.364 399.491C306.697 399.491 303.724 402.229 303.724 405.605C303.724 408.982 306.697 411.719 310.364 411.719Z" fill="#A7A9AC"/>
<path d="M220.197 258.793H213.557V408.229H220.197V258.793Z" fill="#BCBEC0"/>
<path d="M164.196 258.793H157.556V408.229H164.196V258.793Z" fill="#BCBEC0"/>
<path d="M9.4901 258.793H2.84961V408.229H9.4901V258.793Z" fill="#BCBEC0"/>
<path d="M65.49 142.57C67.5878 142.57 69.2885 140.612 69.2885 138.198C69.2885 135.783 67.5878 133.826 65.49 133.826C63.3921 133.826 61.6914 135.783 61.6914 138.198C61.6914 140.612 63.3921 142.57 65.49 142.57Z" fill="#F9B499"/>
<path d="M106.304 165.289C86.1454 166.775 97.0034 155.144 100.718 151.615C101.853 150.564 102.569 149.191 102.75 147.719C103.204 143.109 97.8622 141.136 96.2772 140.647C95.9605 140.555 95.6613 140.419 95.3904 140.242C89.3853 136.224 93.0303 125.661 93.0303 125.661C89.4063 119.277 84.4556 117.85 84.4556 117.85C82.3119 117.348 80.1613 118.782 78.4575 120.505C76.5449 122.502 75.1526 124.874 74.3866 127.442C71.8659 135.298 65.4768 133.826 65.4768 133.826C65.002 144.755 69.2754 150.612 69.2754 150.612V156.109C56.0084 160.918 60.7286 168.78 60.7286 168.78C63.5775 174.02 59.779 175.769 59.779 175.769L54.7724 178.675C54.0581 179.067 53.4576 179.613 53.0223 180.266C52.587 180.919 52.3298 181.659 52.2727 182.423C52.0632 186.595 57.8588 188.003 57.8588 188.003C51.2532 197.627 39.8925 186.248 39.8925 186.248C41.7917 194.991 33.245 196.74 33.245 196.74C28.5038 196.74 29.1951 191.494 29.1951 191.494C38.4261 185.38 31.3457 177.524 31.3457 177.524C23.7556 169.655 28.5038 164.132 28.5038 164.132C31.3457 159.484 37.3857 160.236 37.3857 160.236C49.1095 159.593 45.3668 146.182 45.3668 146.182C39.4456 128.824 52.2308 125.082 52.2308 125.082C55.5363 123.609 58.202 121.148 59.793 118.101C61.2439 115.187 63.6926 112.792 66.7637 111.282C69.8348 109.772 73.3588 109.232 76.7957 109.743C89.0502 106.638 93.0163 114.59 93.0163 114.59C103.434 119.849 100.641 127.744 100.641 127.744C96.8428 136.487 102.541 139.959 102.541 139.959C111.08 146.954 104.23 156.128 104.23 156.128C99.2448 161.818 106.304 165.289 106.304 165.289Z" fill="#333333"/>
<path opacity="0.2" d="M93.0156 114.603H86.3681C83.5017 112.491 80.2639 110.848 76.7949 109.742C89.0494 106.65 93.0156 114.603 93.0156 114.603Z" fill="black"/>
<path opacity="0.2" d="M69.288 150.617V156.114C56.021 160.923 60.7412 168.786 60.7412 168.786C63.5901 174.025 59.7916 175.774 59.7916 175.774L54.785 178.68C54.0707 179.072 53.4702 179.618 53.0349 180.271C52.5996 180.924 52.3424 181.664 52.2853 182.428C52.0758 186.6 57.8714 188.008 57.8714 188.008C44.6044 188.883 49.3316 178.397 49.3316 178.397C50.5675 174.411 49.4014 171.601 48.4308 170.123C47.436 168.713 47.0384 167.015 47.3136 165.352C47.9281 162.215 50.7212 161.276 52.5995 161.019C53.7886 160.88 54.9269 160.49 55.926 159.881C56.9251 159.271 57.758 158.457 58.3601 157.503C60.7412 153.491 58.814 148.406 58.814 148.406C55.0085 136.756 62.829 135.059 62.829 135.059C63.9881 134.545 65.4685 133.831 65.4685 133.831C64.5398 145.191 69.288 150.617 69.288 150.617Z" fill="black"/>
<path d="M85.8388 166.459C85.2313 170.22 80.6787 170.85 80.6787 170.85C72.132 171.152 68.3404 163.54 68.3404 163.54C66.4411 158.301 69.29 156.115 69.29 156.115V150.618C70.1094 151.875 71.1049 153.027 72.2506 154.045C72.3364 154.127 72.4273 154.204 72.523 154.276C72.6557 154.386 72.7813 154.501 72.914 154.604C75.0501 156.372 77.8068 157.372 80.6787 157.42C81.8662 157.418 83.0455 157.238 84.17 156.886C84.2172 156.866 84.2663 156.848 84.3166 156.835L84.4772 160.917C85.7551 163.27 86.0693 165.083 85.8388 166.459Z" fill="#F9B499"/>
<path d="M85.8372 166.46C82.506 165.834 79.4456 164.327 77.0318 162.123C74.6179 159.919 72.9556 157.114 72.249 154.052C72.3346 154.136 72.4255 154.215 72.5214 154.29C72.6446 154.406 72.7752 154.515 72.9124 154.617C77.9888 158.79 83.2117 157.241 84.1614 156.9C84.2086 156.879 84.2576 156.862 84.308 156.848L84.4686 160.931C85.7534 163.271 86.0676 165.084 85.8372 166.46Z" fill="#F7A48B"/>
<path d="M111.046 191.507H31.3184V247.433H111.046V191.507Z" fill="#D1D3D4"/>
<path opacity="0.3" d="M37.5889 191.507L78.8981 247.433H105.202L57.1123 191.507H37.5889Z" fill="white"/>
<path opacity="0.3" d="M71.1807 191.726L111.044 241.628V232.73L77.5139 191.726H71.1807Z" fill="white"/>
<path d="M29.9121 191.507H31.3086V247.439H29.9121C29.5306 247.439 29.1647 247.3 28.8949 247.051C28.6252 246.803 28.4736 246.466 28.4736 246.115V192.831C28.4736 192.48 28.6252 192.143 28.8949 191.895C29.1647 191.646 29.5306 191.507 29.9121 191.507Z" fill="#BCBEC0"/>
<path d="M101.554 300.743L65.4888 372.401C65.4888 372.401 61.5994 388.865 58.0453 395.879C57.7348 396.506 57.2724 397.058 56.6938 397.493C56.1152 397.929 55.4357 398.237 54.7076 398.393C51.4956 399.081 45.8536 399.293 44.5339 392.787C44.088 390.545 44.3124 388.234 45.1833 386.101C45.7284 384.753 46.5014 383.492 47.4736 382.366C50.3504 379.016 54.4562 373.686 55.0497 369.778L58.4852 356.277L67.9746 319.033L85.0401 278.466C85.0401 278.466 95.8632 264.04 106.302 273.683C106.302 273.683 107.531 274.255 108.201 276.461C109.186 279.746 108.921 286.663 101.554 300.743Z" fill="#F9B499"/>
<path d="M108.203 276.428C98.7071 273.11 93.9659 284.991 93.9659 284.991L58.4941 356.25L67.9835 319.007L85.0491 278.44C85.0491 278.44 95.8651 264.039 106.304 273.682C106.304 273.682 107.533 274.222 108.203 276.428Z" fill="#F7A48B"/>
<path d="M74.0304 307.756L39.8923 371.525C39.8923 379.388 35.1441 389.88 35.1441 389.88C33.2448 391.622 27.9869 394.245 27.9869 394.245C24.6353 395.994 23.7554 394.245 23.7554 394.245L19.929 388.118C19.4192 387.475 19.4541 386.427 19.8731 385.11C21.7584 379.156 31.3037 368.021 31.3037 368.021L49.3398 303.358C56.0012 261.415 76.9002 268.41 76.9002 268.41C96.8077 273.682 74.0304 307.756 74.0304 307.756Z" fill="#F9B499"/>
<path d="M58.0466 395.878C57.2506 401.876 50.3029 408.228 50.3029 408.228C45.5547 411.726 42.7128 403.857 42.7128 403.857C37.9646 392.496 45.1846 386.1 45.1846 386.1C44.3138 388.233 44.0893 390.544 44.5352 392.786C45.8549 399.292 51.5179 399.08 54.7089 398.392C55.437 398.236 56.1165 397.928 56.6951 397.492C57.2737 397.056 57.7361 396.504 58.0466 395.878Z" fill="#0BCA7A"/>
<path d="M35.1157 389.88C35.1157 394.246 27.5256 402.989 27.5256 402.989C22.7774 408.229 19.5514 400.926 19.5514 400.926C13.6371 389.546 19.5514 385.322 19.8726 385.123C19.4537 386.409 19.4187 387.502 19.9285 388.132L23.727 394.246C23.727 394.246 24.6068 395.994 27.9585 394.246C27.9585 394.246 33.2164 391.623 35.1157 389.88Z" fill="#0BCA7A"/>
<path d="M247.723 251.805H0V262.29H247.723V251.805Z" fill="#939598"/>
<path d="M70.2301 224.719C73.3769 224.719 75.9279 222.37 75.9279 219.473C75.9279 216.575 73.3769 214.227 70.2301 214.227C67.0832 214.227 64.5322 216.575 64.5322 219.473C64.5322 222.37 67.0832 224.719 70.2301 224.719Z" fill="white"/>
<path opacity="0.2" d="M296.154 145.315C296.154 145.315 291.964 137.78 299.743 137.118C299.736 137.118 297.076 139.96 296.154 145.315Z" fill="black"/>
<path d="M342.045 309.479H270.151C268.25 309.479 266.709 310.899 266.709 312.649V321.167C266.709 322.918 268.25 324.337 270.151 324.337H342.045C343.946 324.337 345.487 322.918 345.487 321.167V312.649C345.487 310.899 343.946 309.479 342.045 309.479Z" fill="#0BCA7A"/>
<path opacity="0.4" d="M342.045 309.479H270.151C268.25 309.479 266.709 310.899 266.709 312.649V321.167C266.709 322.918 268.25 324.337 270.151 324.337H342.045C343.946 324.337 345.487 322.918 345.487 321.167V312.649C345.487 310.899 343.946 309.479 342.045 309.479Z" fill="white"/>
<path d="M364.913 354.425C364.608 347.044 364.729 339.653 365.276 332.283C366.463 317.087 368.985 302.005 372.817 287.184C374.912 278.826 377.509 270.623 380.205 262.413C380.289 262.169 380.714 262.246 380.631 262.503C372.293 291.433 365.45 321.245 365.925 351.294C366.058 359.703 367.126 367.964 367.971 376.322C367.971 376.547 367.594 376.637 367.545 376.406C365.963 369.165 365.082 361.809 364.913 354.425Z" fill="#0BCA7A"/>
<path d="M380.645 262.477C380.645 262.477 393.284 291.992 390.421 298.935C387.558 305.879 381.755 307.357 381.755 307.357C381.755 307.357 389.527 317.515 384.136 327.043C378.746 336.571 366.68 336.121 365.926 346.928C365.877 346.928 365.207 301.745 380.645 262.477Z" fill="#0BCA7A"/>
<path d="M367.245 328.271C367.224 328.219 367.224 328.162 367.245 328.11C368.919 307.946 373.042 288.019 379.534 268.7C379.534 268.642 379.66 268.7 379.639 268.7C377.12 277.362 374.902 286.06 372.984 294.795C374.68 293.312 376.755 292.248 379.017 291.703C379.017 291.703 379.073 291.748 379.017 291.754C376.64 292.57 374.506 293.892 372.789 295.611C372.419 297.328 372.09 299.038 371.762 300.755C374.59 297.855 378.5 296.409 382.418 295.046M382.418 295.116C378.319 296.653 374.22 298.614 371.518 301.86C370.54 306.755 369.693 311.669 368.976 316.602C371.026 314.628 373.656 313.247 376.545 312.629C376.636 312.629 376.692 312.738 376.594 312.751C373.627 313.536 370.973 315.1 368.955 317.251C368.704 318.987 368.471 320.725 368.257 322.465C369.824 321.247 371.592 320.266 373.494 319.559C373.543 319.559 373.578 319.617 373.494 319.637C371.54 320.413 369.751 321.501 368.208 322.851H368.138C367.929 324.503 367.719 326.162 367.531 327.814C370.38 324.652 374.074 322.226 378.249 320.774C378.326 320.774 378.382 320.858 378.298 320.89C374.172 322.548 370.543 325.1 367.719 328.329C367.691 328.369 367.648 328.398 367.598 328.412C367.549 328.426 367.495 328.424 367.447 328.406C367.177 330.952 366.944 333.497 366.749 336.043C366.441 339.862 366.672 336.043 366.686 336.043C366.833 333.472 367.021 330.855 367.258 328.251L382.418 295.116Z" fill="#333333"/>
<path d="M377.397 288.766C379.683 287.455 382.297 286.707 384.987 286.593C385.05 286.593 385.05 286.663 384.987 286.676C382.39 287.125 379.869 287.886 377.488 288.939C377.463 288.95 377.434 288.952 377.408 288.943C377.382 288.935 377.36 288.917 377.348 288.894C377.338 288.871 377.337 288.845 377.346 288.822C377.355 288.798 377.373 288.778 377.397 288.766Z" fill="#333333"/>
<path d="M375.86 320.023C377.615 319.096 379.547 318.487 381.551 318.229C381.564 318.229 381.578 318.234 381.588 318.242C381.598 318.251 381.605 318.262 381.607 318.275C381.607 318.288 381.601 318.301 381.59 318.311C381.58 318.321 381.566 318.326 381.551 318.326C379.592 318.689 377.698 319.301 375.923 320.145C375.846 320.184 375.79 320.062 375.86 320.023Z" fill="#333333"/>
<path d="M337.624 302.008C342.695 305.75 347.288 310.01 351.317 314.705C355.443 319.675 358.483 325.334 360.268 331.369C364.074 343.941 365.617 357.002 364.835 370.033C364.414 377.251 363.081 384.399 360.862 391.332C360.838 391.382 360.793 391.42 360.738 391.439C360.683 391.459 360.622 391.457 360.569 391.435C360.525 391.42 360.488 391.391 360.463 391.354C360.439 391.316 360.43 391.273 360.436 391.23C363.48 378.939 364.423 366.287 363.229 353.729C362 341.405 359.654 327.93 352.057 317.508C347.902 311.844 342.533 307.177 337.24 302.413C336.946 302.149 337.351 301.789 337.624 302.008Z" fill="#0BCA7A"/>
<path d="M363.663 361.201C360.989 356.488 357.76 352.059 354.034 347.996C348.197 341.76 343.218 337.279 342.701 333.396C342.184 329.513 349.544 327.153 349.544 327.153C349.544 327.153 340.697 327.989 338.644 324.453C336.591 320.917 336.927 301.309 336.927 301.309C336.927 301.309 351.96 312.797 358.112 327.938C364.264 343.078 363.663 361.201 363.663 361.201Z" fill="#0BCA7A"/>
<path d="M341.968 306.709C348.113 313.196 354.369 320.081 357.672 328.272C358.79 331.106 359.737 333.994 360.507 336.925C360.66 337.51 360.821 338.102 360.968 338.693C360.974 338.725 360.974 338.758 360.968 338.79C362.364 344.846 363.39 350.969 364.04 357.132C364.04 357.132 363.977 357.183 363.977 357.132C363.537 354.039 363.027 350.921 362.42 347.797H362.329C361.042 347.185 359.659 346.762 358.23 346.543C358.14 346.543 358.161 346.382 358.23 346.389C359.637 346.528 361.017 346.846 362.329 347.334C361.785 344.505 361.17 341.676 360.444 338.925C357.415 338.026 354.29 337.431 351.122 337.15M351.122 337.099C354.244 337.184 357.342 337.637 360.339 338.449C360.206 337.98 360.074 337.51 359.955 337.028C357.94 336.437 355.885 335.967 353.803 335.62V335.562C355.863 335.741 357.898 336.109 359.878 336.662C359.18 334.251 358.482 331.866 357.595 329.538C356.887 327.633 356.033 325.777 355.039 323.984C353.397 323.487 351.719 323.094 350.019 322.807V322.73C351.626 322.725 353.221 322.98 354.732 323.482C354.034 322.196 353.224 320.911 352.372 319.708C348.881 318.77 345.312 317.825 341.626 318.21C341.616 318.201 341.61 318.188 341.61 318.175C341.61 318.162 341.616 318.149 341.626 318.14C345.159 317.535 348.552 318.255 351.953 319.085C351.618 318.59 351.255 318.14 350.927 317.632C348.817 316.878 346.603 316.404 344.349 316.224C344.349 316.224 344.3 316.16 344.349 316.16C346.445 316.128 348.529 316.448 350.501 317.105C347.826 313.536 344.831 310.161 341.863 306.818C341.716 306.67 341.821 306.587 341.968 306.747L351.122 337.099Z" fill="#333333"/>
<path d="M341.088 320.023C342.143 319.953 343.204 319.989 344.251 320.132C344.37 320.132 344.349 320.344 344.251 320.344C343.225 320.293 342.198 320.151 341.116 320.132C341.108 320.135 341.1 320.136 341.091 320.136C341.083 320.135 341.075 320.133 341.067 320.13C341.06 320.126 341.053 320.121 341.049 320.114C341.044 320.108 341.04 320.101 341.039 320.093C341.037 320.086 341.037 320.078 341.038 320.07C341.039 320.062 341.042 320.055 341.047 320.048C341.052 320.042 341.057 320.036 341.065 320.032C341.072 320.027 341.079 320.024 341.088 320.023Z" fill="#333333"/>
<path d="M351.004 339.722C352.672 339.877 354.299 340.294 355.815 340.956V341.027C354.23 340.564 352.61 340.307 351.004 339.953C350.971 339.952 350.94 339.939 350.917 339.918C350.893 339.896 350.88 339.868 350.878 339.837C350.878 339.807 350.891 339.777 350.915 339.756C350.938 339.734 350.97 339.722 351.004 339.722Z" fill="#333333"/>
<path d="M354.941 333.415C355.635 333.461 356.323 333.569 356.994 333.736C357.064 333.736 356.994 333.846 356.994 333.846C356.303 333.83 355.616 333.752 354.941 333.614C354.914 333.606 354.891 333.587 354.878 333.563C354.865 333.539 354.863 333.511 354.872 333.486C354.874 333.469 354.882 333.453 354.894 333.44C354.907 333.428 354.923 333.419 354.941 333.415Z" fill="#333333"/>
<path d="M404.307 316.346C399.346 318.475 394.661 321.113 390.342 324.209C385.887 327.508 382.167 331.568 379.386 336.167C373.522 345.746 369.401 356.144 367.188 366.949C365.956 372.935 365.487 379.032 365.791 385.118C365.799 385.157 365.822 385.193 365.856 385.218C365.89 385.244 365.932 385.258 365.976 385.258C366.02 385.258 366.062 385.244 366.096 385.218C366.13 385.193 366.153 385.157 366.161 385.118C366.361 374.493 368.369 363.963 372.11 353.911C375.79 344.062 380.643 333.473 389.162 326.331C393.791 322.473 399.203 319.664 404.524 316.751C404.553 316.738 404.578 316.72 404.6 316.698C404.621 316.676 404.637 316.65 404.647 316.622C404.658 316.594 404.662 316.564 404.66 316.534C404.658 316.505 404.65 316.476 404.635 316.449C404.621 316.423 404.601 316.399 404.577 316.379C404.553 316.36 404.525 316.345 404.494 316.335C404.464 316.326 404.432 316.322 404.4 316.324C404.367 316.326 404.336 316.333 404.307 316.346Z" fill="#0BCA7A"/>
<path d="M370.101 359.896C373.321 356.542 376.932 353.523 380.868 350.895C387.012 346.89 392.04 344.145 393.325 341.059C394.61 337.973 389.093 334.694 389.093 334.694C389.093 334.694 396.132 337.034 398.632 334.546C401.131 332.058 405.084 315.928 405.084 315.928C405.084 315.928 390.28 322.543 381.894 333.743C373.508 344.942 370.101 359.896 370.101 359.896Z" fill="#0BCA7A"/>
<path d="M370.526 356.617C376.67 342.518 385.468 329.422 398.61 320.042C395.191 322.593 392.039 325.435 389.197 328.528C392.044 328.091 394.966 328.355 397.667 329.293C397.73 329.293 397.667 329.39 397.667 329.377C394.831 328.71 391.881 328.553 388.981 328.914H388.89C388.436 329.396 387.996 329.859 387.556 330.393C389.055 330.307 390.559 330.337 392.053 330.483V330.541C390.482 330.43 388.902 330.471 387.34 330.663C385.048 333.335 382.924 336.125 380.979 339.02C381.983 338.788 383.03 338.751 384.051 338.911C384.063 338.915 384.074 338.922 384.081 338.932C384.089 338.942 384.093 338.954 384.093 338.966C384.093 338.978 384.089 338.99 384.081 338.999C384.074 339.009 384.063 339.016 384.051 339.02C382.942 339.019 381.836 339.118 380.748 339.316C380.378 339.85 380.05 340.39 379.659 340.93C382.784 340.435 385.975 340.396 389.113 340.814M389.113 340.891C385.885 340.642 382.635 340.774 379.442 341.283C379.107 341.804 378.8 342.344 378.472 342.859C380.341 342.621 382.237 342.621 384.107 342.859C384.116 342.87 384.121 342.883 384.121 342.897C384.121 342.911 384.116 342.925 384.107 342.936C384.11 342.946 384.11 342.957 384.107 342.968C382.171 342.776 380.216 342.832 378.297 343.135C376.901 345.404 375.56 347.719 374.289 350.046C375.088 349.834 375.93 349.796 376.747 349.937V350.001C375.856 350.028 374.972 350.155 374.115 350.38C372.974 352.489 371.889 354.606 370.861 356.732C370.756 356.925 370.4 356.829 370.526 356.642L389.113 340.891Z" fill="#333333"/>
<path d="M381.189 344.356C382.689 344.101 384.228 344.117 385.721 344.401L381.189 344.356ZM385.721 344.466C384.224 344.376 382.721 344.376 381.224 344.466C381.204 344.459 381.188 344.444 381.179 344.427C381.17 344.409 381.168 344.388 381.175 344.369L385.721 344.466Z" fill="#333333"/>
<path d="M392.683 326.755C393.357 326.64 394.045 326.605 394.728 326.652C394.737 326.655 394.745 326.659 394.752 326.665C394.759 326.671 394.765 326.678 394.769 326.685C394.772 326.693 394.775 326.702 394.775 326.71C394.775 326.719 394.774 326.727 394.77 326.735C394.767 326.744 394.762 326.753 394.755 326.759C394.747 326.766 394.738 326.771 394.728 326.774C394.03 326.774 393.374 326.87 392.683 326.915C392.659 326.908 392.639 326.893 392.628 326.872C392.616 326.852 392.613 326.828 392.62 326.806C392.636 326.784 392.657 326.767 392.683 326.755Z" fill="#333333"/>
<path d="M349.809 415.5H384.806L379.813 377.209L378.535 367.392H356.079L354.801 377.209L349.809 415.5Z" fill="#333333"/>
<path opacity="0.3" d="M354.801 377.209H379.813L378.535 367.392H356.079L354.801 377.209Z" fill="#231F20"/>
<path d="M381.755 363.99H352.868V372.309H381.755V363.99Z" fill="#333333"/>
</svg>
