<svg width="658" height="520" viewBox="0 0 658 520" fill="none" xmlns="http://www.w3.org/2000/svg">
<path d="M575.826 358.393C657.909 287.371 614.336 119.718 614.336 119.718C597.677 12.2595 469.597 35.7889 469.597 35.7889C437.608 41.5609 394.575 33.1009 373.773 28.1742C357.483 24.2475 340.776 22.3246 324.022 22.448C235.023 23.3313 143.683 68.6159 143.683 68.6159C-21.8813 165.619 45.799 332.541 45.799 332.541C45.799 332.541 78.0773 445.239 315.783 437.99C315.783 437.99 467.56 452.062 575.826 358.393Z" fill="#0BCA7A"/>
<path opacity="0.7" d="M575.826 358.393C657.909 287.371 614.336 119.718 614.336 119.718C597.677 12.2595 469.597 35.7889 469.597 35.7889C437.608 41.5609 394.575 33.1009 373.773 28.1742C357.483 24.2475 340.776 22.3246 324.022 22.448C235.023 23.3313 143.683 68.6159 143.683 68.6159C-21.8813 165.619 45.799 332.541 45.799 332.541C45.799 332.541 78.0773 445.239 315.783 437.99C315.783 437.99 467.56 452.062 575.826 358.393Z" fill="white"/>
<mask id="mask0_79_8" style="mask-type:luminance" maskUnits="userSpaceOnUse" x="32" y="22" width="594" height="417">
<path d="M575.826 358.393C657.909 287.371 614.336 119.718 614.336 119.718C597.677 12.2595 469.597 35.7889 469.597 35.7889C437.608 41.5609 394.575 33.1009 373.773 28.1742C357.483 24.2475 340.776 22.3246 324.022 22.448C235.023 23.3313 143.683 68.6159 143.683 68.6159C-21.8813 165.619 45.799 332.541 45.799 332.541C45.799 332.541 78.0773 445.239 315.783 437.99C315.783 437.99 467.56 452.062 575.826 358.393Z" fill="white"/>
</mask>
<g mask="url(#mask0_79_8)">
<path d="M569.708 315.324L558.11 465.623H565.391L581.017 329.412L682.017 330.447L694.557 452.754L701.8 451.468L693.47 314.807L569.708 315.324Z" fill="#E1E1E2"/>
<path d="M325.01 315.324L313.412 465.623H320.693L336.319 329.412L437.319 330.447L449.859 452.754L457.102 451.468L448.772 314.807L325.01 315.324Z" fill="#C2C4C6"/>
<path d="M609.396 308.54H453.713C450.984 308.54 448.772 310.756 448.772 313.489V317.152C448.772 319.885 450.984 322.101 453.713 322.101H609.396C612.125 322.101 614.337 319.885 614.337 317.152V313.489C614.337 310.756 612.125 308.54 609.396 308.54Z" fill="#C2C4C6"/>
<path d="M592.463 12.2593H60.3766C57.5013 12.2593 55.1704 14.5946 55.1704 17.4753V290.805C55.1704 293.686 57.5013 296.021 60.3766 296.021H592.463C595.338 296.021 597.669 293.686 597.669 290.805V17.4753C597.669 14.5946 595.338 12.2593 592.463 12.2593Z" fill="#CCCCCC"/>
<path d="M587.257 12.2593H62.459V284.546H587.257V12.2593Z" fill="#EBEBEB"/>
<path d="M494.587 379.485H484.174V418.084H494.587V379.485Z" fill="#5D6166"/>
<path d="M455.286 308.54H318.344C315.616 308.54 313.404 310.756 313.404 313.489V317.152C313.404 319.885 315.616 322.101 318.344 322.101H455.286C458.014 322.101 460.226 319.885 460.226 317.152V313.489C460.226 310.756 458.014 308.54 455.286 308.54Z" fill="#E1E1E2"/>
<path d="M511.497 229.255H551.619C556.098 229.261 560.392 231.048 563.557 234.224C566.722 237.399 568.499 241.703 568.499 246.19V368.026H503.099C501.981 368.026 500.874 367.805 499.842 367.376C498.809 366.948 497.871 366.32 497.08 365.528C496.29 364.736 495.663 363.796 495.235 362.761C494.807 361.726 494.587 360.617 494.587 359.497V246.19C494.587 243.966 495.024 241.763 495.874 239.708C496.724 237.653 497.97 235.786 499.54 234.213C501.111 232.64 502.975 231.393 505.027 230.542C507.078 229.692 509.277 229.254 511.497 229.255Z" fill="#2E3135"/>
<path d="M432.128 368.01H566.44V384.702H422.742V377.414C422.742 376.179 422.985 374.957 423.456 373.816C423.928 372.675 424.619 371.638 425.491 370.765C426.363 369.891 427.397 369.199 428.536 368.726C429.675 368.254 430.895 368.01 432.128 368.01Z" fill="#5D6166"/>
<path d="M501.077 229.255H541.199C543.419 229.255 545.617 229.693 547.668 230.544C549.718 231.396 551.582 232.643 553.151 234.216C554.721 235.788 555.966 237.655 556.815 239.71C557.665 241.764 558.102 243.967 558.102 246.19V359.482C558.102 360.602 557.882 361.711 557.454 362.746C557.026 363.78 556.399 364.72 555.609 365.512C554.818 366.304 553.88 366.933 552.847 367.361C551.815 367.79 550.708 368.01 549.59 368.01H492.687C490.429 368.01 488.264 367.112 486.668 365.512C485.071 363.913 484.174 361.744 484.174 359.482V246.19C484.174 241.699 485.955 237.391 489.125 234.216C492.295 231.04 496.594 229.255 501.077 229.255Z" fill="#3F4347"/>
<path d="M339.443 3.91357H330.072V292.891H339.443V3.91357Z" fill="#CCCCCC"/>
<path d="M113.943 301.542C113.943 301.542 115.608 305.661 110.006 308.288C106.457 309.963 99.9891 311.022 88.3379 310.047L90.618 96.8357L95.2769 93.3711L118.731 75.9639L113.943 301.542Z" fill="#0BCA7A"/>
<path opacity="0.3" d="M110.006 308.258C106.457 309.933 99.9891 310.992 88.3379 310.017L90.618 96.8055L95.2769 93.3408V238.492C95.279 243.593 95.6881 248.686 96.5006 253.722C98.4994 266.332 103.06 290.881 110.006 308.258Z" fill="white"/>
<path d="M77.819 301.542C77.819 301.542 77.059 309.613 57.2451 308.57C57.2451 308.57 54.1594 311.22 45.8447 310.42V145.387L59.7912 129.541L73.9125 113.458L77.819 301.542Z" fill="#0BCA7A"/>
<path opacity="0.3" d="M58.2939 194.829C58.2939 194.829 47.8816 280.373 57.2451 308.54C57.2451 308.54 54.1594 311.19 45.8447 310.39V145.387L59.7912 129.541C60.1484 138.085 60.6728 160.007 58.2939 194.829Z" fill="white"/>
</g>
<path d="M544.049 169.793C585.168 169.793 618.501 136.396 618.501 95.199C618.501 54.0021 585.168 20.6055 544.049 20.6055C502.931 20.6055 469.597 54.0021 469.597 95.199C469.597 136.396 502.931 169.793 544.049 169.793Z" fill="#0BCA7A"/>
<path opacity="0.3" d="M544.049 169.793C585.168 169.793 618.501 136.396 618.501 95.199C618.501 54.0021 585.168 20.6055 544.049 20.6055C502.931 20.6055 469.597 54.0021 469.597 95.199C469.597 136.396 502.931 169.793 544.049 169.793Z" fill="white"/>
<path d="M569.563 77.9823C573.934 77.3579 575.309 79.7413 575.704 81.7439C575.93 82.9655 575.835 84.2247 575.431 85.399L565.847 115.096C564.42 119.657 561.795 123.75 558.247 126.945C544.901 138.793 523.719 139.555 523.719 139.555C514.348 133.295 509.278 125.49 506.656 118.188C503.343 108.793 503.289 98.5521 506.504 89.1226L513.306 68.6086C517.471 57.1332 522.677 62.3493 522.677 62.3493C529.419 68.2583 542.294 66.6592 546.998 65.8292C547.528 65.7342 548.073 65.7728 548.584 65.9416C549.094 66.1105 549.555 66.4042 549.924 66.7963C552.926 70.0021 561.241 77.9823 569.563 77.9823Z" fill="#0BCA7A"/>
<path d="M535.94 100.347L528.575 88.3305C527.563 86.6782 525.946 85.4883 524.07 85.0158C522.193 84.5433 520.207 84.8257 518.535 85.8025C516.866 86.7782 515.643 88.3695 515.129 90.2364C514.615 92.1032 514.85 94.0975 515.784 95.7929L525.512 113.459C526.442 115.154 527.981 116.43 529.816 117.03C531.651 117.629 533.644 117.507 535.393 116.688L587.394 92.3206C589.043 91.5421 590.339 90.1688 591.022 88.4749C591.706 86.7811 591.726 84.8913 591.08 83.183C590.725 82.2547 590.183 81.4093 589.489 80.6994C588.794 79.9895 587.961 79.4301 587.042 79.056C586.123 78.6818 585.136 78.5009 584.144 78.5245C583.152 78.5481 582.176 78.7756 581.275 79.1929L535.94 100.347Z" fill="white"/>
<path d="M212.047 492.153C203.375 493.859 186.457 493.676 172.792 493.219C161.255 492.815 152.043 492.153 152.043 492.153C149.961 481.721 158.291 477.517 158.291 477.517L177.717 471.883C178.229 472.044 178.776 472.058 179.296 471.923C179.816 471.789 180.288 471.511 180.658 471.121C181.324 471.117 181.977 471.307 182.537 471.668C183.097 472.029 183.54 472.546 183.812 473.154C183.966 473.426 184.093 473.711 184.192 474.007C190.318 481.949 206.187 486.952 206.187 486.952C211.363 489.023 212.047 492.153 212.047 492.153Z" fill="#0BCA7A"/>
<path opacity="0.2" d="M172.762 493.219C161.224 492.815 152.013 492.153 152.013 492.153C149.93 481.721 158.26 477.517 158.26 477.517L177.687 471.883C178.199 472.044 178.746 472.058 179.266 471.923C179.786 471.789 180.258 471.511 180.628 471.121C181.294 471.117 181.946 471.307 182.506 471.668C183.066 472.029 183.51 472.546 183.782 473.154L171.766 479.634C163.467 485.894 172.762 493.219 172.762 493.219Z" fill="black"/>
<path d="M447.526 499.387L385.097 497.56C384.665 497.545 384.249 497.388 383.915 497.113C383.581 496.838 383.348 496.459 383.251 496.037C383.104 495.45 383.063 494.841 383.129 494.24C383.714 489.237 392.546 489.024 392.546 489.024C399.834 487.98 412.306 479.635 412.306 479.635C412.306 479.635 418.333 475.112 424.801 473.398C427.644 472.637 430.577 472.416 433.161 473.398L434.203 473.855C436.931 475.013 444.296 477.876 447.511 476.589C449.791 479.916 449.905 492.047 449.859 497.148C449.853 497.449 449.788 497.746 449.668 498.021C449.547 498.296 449.373 498.545 449.157 498.753C448.94 498.961 448.684 499.124 448.404 499.233C448.125 499.342 447.826 499.394 447.526 499.387Z" fill="#2F2E41"/>
<path opacity="0.2" d="M447.526 499.387L385.097 497.559C384.665 497.545 384.249 497.388 383.915 497.113C383.581 496.837 383.348 496.459 383.251 496.036C383.104 495.449 383.063 494.841 383.129 494.239H406.469C408.726 494.219 410.968 493.862 413.12 493.181C421.404 490.607 433.952 490.135 438.048 490.082C439.199 490.08 440.339 489.85 441.4 489.404C444.44 488.087 444.44 486.175 443.825 484.736C443.342 483.667 442.547 482.769 441.545 482.162C434.081 477.228 433.116 473.375 433.116 473.375L434.157 473.832C436.886 474.989 444.25 477.852 447.465 476.566C449.745 479.893 449.859 492.023 449.814 497.125C449.808 497.728 449.564 498.305 449.135 498.729C448.706 499.152 448.128 499.389 447.526 499.387Z" fill="black"/>
<path d="M199.385 154.144L223.022 147.558L234.202 160.67L262.741 276.353C262.741 276.353 248.453 282.018 246.02 281.683C243.588 281.348 201.179 277.213 201.179 277.213L199.385 154.144Z" fill="#E6E6E6" stroke="#630000" stroke-width="0.25" stroke-miterlimit="10"/>
<path d="M230.105 318.972L217.611 369.054C215.911 379.386 213.411 389.569 210.132 399.512C204.994 415.323 198.861 430.792 191.77 445.825C191.658 446.082 191.574 446.35 191.519 446.625C189.459 459.638 187.863 466.248 187.02 469.202C186.861 469.778 186.529 470.29 186.069 470.67C185.61 471.05 185.045 471.279 184.451 471.327C182.171 471.54 179.518 472.012 178.492 472.195C178.205 472.251 177.928 472.351 177.671 472.492C172.351 475.317 163.147 476.132 158.313 476.36C157.907 476.373 157.502 476.302 157.124 476.15C156.746 475.999 156.404 475.771 156.118 475.481C155.833 475.19 155.61 474.844 155.465 474.463C155.319 474.082 155.254 473.676 155.273 473.268C155.326 472.081 155.395 470.893 155.463 469.712C157.85 430.443 171.834 394.037 171.834 394.037C173.689 384.306 175.741 378.481 177.458 375.001C180.056 369.664 181.52 363.846 181.76 357.913L183.394 321.591C183.394 321.591 213.902 308.92 223.06 301.915C223.022 301.983 233.229 297.064 230.105 318.972Z" fill="#2F2E41"/>
<path d="M262.49 308.258L261.342 375.313C261.342 401.394 257.284 403.625 257.284 403.625C254.244 413.174 257.177 461.9 257.177 461.9C257.295 463.138 257.313 464.383 257.231 465.624C257.231 465.624 235.319 465.03 231.154 448.338C231.154 448.338 226.054 439.848 228.6 420.621C228.6 420.621 226.989 401.66 223.865 394.731C222.324 382.092 223.951 369.268 228.6 357.419C228.6 357.419 242.167 309.385 262.49 308.258Z" fill="#2F2E41"/>
<path d="M228.593 357.426C223.944 369.276 222.316 382.1 223.858 394.738C226.982 401.653 228.593 420.628 228.593 420.628C226.047 439.856 231.147 448.346 231.147 448.346C235.312 465.037 257.223 465.631 257.223 465.631C256.828 470.634 254.381 471.137 252.663 470.832C252.058 470.725 251.474 470.525 250.93 470.238C240.518 466.065 234.271 475.454 234.271 475.454C233.933 475.631 233.585 475.789 233.229 475.926C227.415 478.211 226.465 472.766 226.549 468.494C226.591 465.045 226.316 461.599 225.728 458.199C223.63 445.49 223.022 424.489 223.022 424.489C222.194 392.309 217.611 369.054 217.611 369.054L230.106 318.972C233.229 297.065 223.022 301.984 223.022 301.984C213.864 308.989 183.356 321.66 183.356 321.66L183.873 310.017L223.835 268.304C237.364 276.063 260.317 264.725 260.317 264.725L262.756 293.356L262.506 308.258C242.167 309.385 228.593 357.426 228.593 357.426Z" fill="#2F2E41"/>
<path opacity="0.2" d="M228.593 357.426C223.944 369.276 222.316 382.1 223.858 394.738C226.982 401.653 228.593 420.628 228.593 420.628C226.047 439.856 231.147 448.346 231.147 448.346C235.312 465.037 257.223 465.631 257.223 465.631C256.828 470.634 254.381 471.137 252.663 470.832C252.058 470.725 251.474 470.525 250.93 470.238C240.518 466.065 234.271 475.454 234.271 475.454C233.933 475.631 233.585 475.789 233.229 475.926C227.415 478.211 226.465 472.766 226.549 468.494C226.591 465.045 226.316 461.599 225.728 458.199C223.63 445.49 223.022 424.489 223.022 424.489C222.194 392.309 217.611 369.054 217.611 369.054L230.106 318.972C233.229 297.065 223.022 301.984 223.022 301.984C213.864 308.989 183.356 321.66 183.356 321.66L183.873 310.017L223.835 268.304C237.364 276.063 260.317 264.725 260.317 264.725L262.756 293.356L262.506 308.258C242.167 309.385 228.593 357.426 228.593 357.426Z" fill="black"/>
<path d="M196.664 127.874C196.664 127.874 196.786 134.323 195.745 136.41C195.745 136.41 201.612 139.204 202.843 131.026L202.448 130.188C202.448 130.188 200.708 131.864 196.664 127.874Z" fill="#2F2E41"/>
<path d="M202.843 131.026C202.843 131.026 205.123 142.608 199.385 148.372C199.385 148.372 204.075 154.144 206.157 158.317C206.157 158.317 229.064 164.576 223.858 151.014L222.064 143.621C222.064 143.621 210.983 147.55 202.843 131.026Z" fill="#F9B499"/>
<path d="M202.843 131.026C202.843 131.026 203.694 134.59 202.843 141.237C202.843 141.237 214.031 147.694 222.064 143.621C222.064 143.621 210.983 147.55 202.843 131.026Z" fill="#F7A48B"/>
<path d="M223.858 266.811C223.858 280.038 221.122 289.328 216.942 295.808C203.679 316.368 175.961 308.54 175.961 308.54V230.299L166.59 190.657C162.25 166.29 171.652 160.076 174.912 158.675C176.218 158.104 177.487 157.453 178.713 156.726L183.463 153.969L185.165 152.979L187.658 151.525C190.083 150.186 192.347 148.574 194.407 146.72C197.326 143.956 199.423 148.365 199.423 148.365C202.03 150.946 206.195 158.309 206.195 158.309C207.828 161.187 209.256 164.177 210.466 167.257C216.319 181.77 219.982 200.761 221.7 211.171C222.46 215.861 222.855 218.785 222.855 218.785L223.858 266.811Z" fill="#0BCA7A"/>
<path d="M272.135 293.356C272.135 293.356 256.129 301.237 253.013 273.07C253.013 273.07 248.642 244.302 245.701 225.501C244.85 220.026 244.113 215.389 243.641 212.556C243.641 212.556 240.928 200.16 237.189 186.415C236.596 184.222 235.965 181.991 235.334 179.775C231.952 168.01 228.031 156.558 224.626 152.119L223.022 147.55C223.022 147.55 229.399 148.783 239.841 156.04C240.404 156.429 240.974 156.802 241.559 157.266C245.124 159.118 248.205 161.781 250.556 165.042C252.907 168.303 254.462 172.072 255.095 176.044C255.095 176.044 257.702 182.989 260.468 193.84C260.643 194.532 260.826 195.241 261 195.972V196.01C263.798 207.257 265.651 218.719 266.541 230.276L272.135 293.356Z" fill="#0BCA7A"/>
<path opacity="0.2" d="M223.858 266.811C223.858 280.038 221.122 289.328 216.942 295.808C216.273 279.939 197.835 255.336 197.835 255.336C185.332 239.688 180.126 208.391 180.126 208.391L210.322 195.873C205.116 171.879 183.424 153.992 183.424 153.992L185.127 153.002L210.428 167.28C216.28 181.793 219.944 200.784 221.661 211.193C222.421 215.884 222.817 218.808 222.817 218.808L223.858 266.811Z" fill="black"/>
<path opacity="0.2" d="M181.882 211.178C181.882 211.178 192.705 241.195 203.687 245.536C204.915 245.982 206.12 246.49 207.297 247.059L220.468 253.912L205.055 248.528C204.295 248.254 203.489 248.011 202.691 247.767C201.346 247.379 198.245 246.137 195.038 242.528C193.112 240.315 191.617 237.761 190.63 234.997L181.882 211.178Z" fill="black"/>
<path opacity="0.2" d="M272.135 293.356C272.135 293.356 256.129 301.238 253.013 273.071C253.013 273.071 248.643 244.302 245.701 225.502C244.85 220.027 244.113 215.389 243.642 212.557C243.642 212.557 240.928 200.16 237.189 186.416C236.596 184.223 235.965 181.991 235.334 179.776L239.841 156.041C239.841 156.041 247.715 198.683 248.795 226.492C248.795 226.492 250.094 240.868 255.118 245.209C255.588 245.613 256.157 245.886 256.766 245.999C257.375 246.112 258.003 246.062 258.587 245.853C259.171 245.644 259.689 245.285 260.088 244.81C260.488 244.336 260.756 243.764 260.864 243.153C262.049 236.414 264.398 218.024 260.301 193.558C260.301 193.558 260.355 193.657 260.469 193.84C260.643 194.533 260.826 195.241 261.001 195.972V196.01C263.798 207.257 265.651 218.719 266.541 230.276L272.135 293.356Z" fill="black"/>
<path opacity="0.2" d="M210.117 399.566C204.979 415.377 198.846 430.845 191.755 445.879C191.642 446.135 191.558 446.403 191.504 446.678C189.444 459.692 187.848 466.301 187.004 469.256C186.846 469.831 186.514 470.344 186.054 470.724C185.595 471.104 185.03 471.333 184.436 471.38C182.155 471.593 179.503 472.065 178.477 472.248C178.19 472.305 177.913 472.405 177.656 472.545C172.336 475.37 163.132 476.185 158.298 476.413C157.892 476.427 157.487 476.355 157.109 476.204C156.731 476.052 156.389 475.824 156.103 475.534C155.818 475.244 155.595 474.897 155.45 474.516C155.304 474.136 155.239 473.729 155.258 473.322C155.311 472.134 155.38 470.946 155.448 469.766C179.693 472.416 188.479 443.114 188.479 443.114L210.117 399.566Z" fill="black"/>
<path d="M286.993 491.148C278.314 492.854 261.396 492.671 247.738 492.214C236.201 491.811 226.982 491.148 226.982 491.148C224.899 480.716 233.229 476.513 233.229 476.513L252.663 470.878C253.174 471.038 253.72 471.052 254.239 470.917C254.757 470.783 255.228 470.505 255.597 470.116C256.263 470.111 256.916 470.3 257.477 470.661C258.037 471.022 258.48 471.54 258.751 472.149C258.908 472.42 259.038 472.706 259.138 473.002C265.257 480.944 281.126 485.947 281.126 485.947C286.332 487.98 286.993 491.148 286.993 491.148Z" fill="#0BCA7A"/>
<path opacity="0.2" d="M247.768 492.176C236.231 491.772 227.012 491.11 227.012 491.11C224.929 480.678 233.259 476.475 233.259 476.475L252.693 470.84C253.204 471 253.75 471.014 254.269 470.879C254.787 470.745 255.258 470.467 255.627 470.078C256.293 470.072 256.947 470.262 257.507 470.623C258.067 470.984 258.51 471.501 258.781 472.111L246.795 478.576C238.435 484.851 247.768 492.176 247.768 492.176Z" fill="black"/>
<path d="M286.993 491.148C286.606 496.364 282.198 496.364 282.198 496.364H234.27C225.91 496.364 226.982 491.148 226.982 491.148C226.982 491.148 236.201 491.81 247.738 492.214C261.396 492.671 278.314 492.816 286.993 491.148Z" fill="#2F2E41"/>
<path d="M212.047 492.153C211.667 497.369 207.259 497.369 207.259 497.369H159.302C150.941 497.369 152.013 492.153 152.013 492.153C152.013 492.153 161.224 492.815 172.762 493.219C186.427 493.706 203.345 493.859 212.047 492.153Z" fill="#2F2E41"/>
<path d="M248.278 264.725L253.735 266.477C262.779 269.263 268.343 266.477 268.343 266.477C274.301 270.284 278.048 264.725 278.048 264.725C284.333 267.855 284.675 264.535 284.463 262.677C284.418 262.355 284.297 262.048 284.109 261.783C283.921 261.518 283.672 261.302 283.383 261.154C280.126 259.453 277.236 257.124 274.879 254.301C270.714 251.171 272.135 245.064 272.135 245.064C274.59 236.871 272.135 236.437 272.135 236.437L261.343 246.998C257.178 250.128 249.661 248.734 249.661 248.734L248.848 262.646C248.76 263.363 248.568 264.064 248.278 264.725Z" fill="#F9B499"/>
<path d="M249.661 248.727L252.785 249.024C252.785 249.024 252.131 263.263 256.22 267.124C253.534 266.457 250.884 265.657 248.278 264.725C248.616 264.079 248.811 263.367 248.848 262.639L249.661 248.727Z" fill="#F7A48B"/>
<path d="M266.389 264.725C266.879 264.702 267.358 264.872 267.723 265.2C268.089 265.528 268.311 265.986 268.342 266.476C267.853 266.499 267.374 266.328 267.008 266.001C266.643 265.673 266.421 265.215 266.389 264.725Z" fill="#F7A48B"/>
<path d="M272.796 261.595C274.185 262.242 275.502 263.033 276.725 263.956C277.144 264.246 277.586 264.501 278.048 264.717C277.512 264.908 276.927 264.908 276.391 264.717C275.617 264.463 274.902 264.059 274.285 263.527C273.668 262.995 273.162 262.346 272.796 261.618V261.595Z" fill="#F7A48B"/>
<path d="M295.703 255.336C290.497 259.509 283.375 261.146 283.375 261.146C277.295 257.559 274.878 254.293 274.878 254.293C271.755 252.206 271.899 247.165 271.899 247.165C269.057 246.404 267.339 245.239 266.396 244.119C265.521 243.208 265.005 242.01 264.945 240.746H292.61C291.538 248.033 295.703 255.336 295.703 255.336Z" fill="#F9B499"/>
<path d="M295.703 255.336C290.497 259.509 283.375 261.146 283.375 261.146C277.295 257.559 274.878 254.293 274.878 254.293C271.755 252.206 271.899 247.165 271.899 247.165C269.057 246.404 267.339 245.239 266.396 244.119C266.396 244.119 283.208 253.257 288.437 248.049C290.389 245.983 291.817 243.479 292.602 240.746C291.538 248.033 295.703 255.336 295.703 255.336Z" fill="#F7A48B"/>
<path d="M442.525 232.385L428.51 250.942L419.618 262.707L413.371 270.976C413.371 270.976 410.247 275.149 402.958 267.847C401.258 266.54 399.791 264.954 398.618 263.156C397.501 261.291 397.045 259.166 398.793 257.415L401.917 253.242C401.917 253.242 379.01 253.242 371.721 248.026C371.721 248.026 364.516 250.44 361.506 248.391C360.549 247.744 359.986 246.647 360.268 244.896C360.385 241.745 360.733 238.607 361.309 235.507C360.974 235.88 351.428 246.396 315.798 252.625H315.608C309.718 253.645 303.114 254.552 295.719 255.283C295.719 255.283 291.554 250.066 292.595 240.678C292.595 240.678 290.664 236.253 301.525 236.383C301.525 236.383 333.211 230.245 346.747 206.252L358.573 188.875C360.902 185.45 362.397 181.524 362.935 177.415C363.786 171.003 365.823 161.028 370.497 156.238C370.875 155.832 371.29 155.463 371.736 155.134C372.917 153.12 373.961 151.029 374.86 148.875C375.441 147.392 376.439 146.11 377.732 145.184C379.026 144.258 380.56 143.728 382.149 143.659C382.149 143.659 381.168 149.499 378.295 153.649C378.259 153.694 378.229 153.742 378.204 153.794C379.998 151.611 382.175 149.773 384.626 148.372C387.061 146.954 389.763 146.059 392.561 145.745C392.561 145.745 404.015 143.659 407.138 141.572C407.138 141.572 410.262 139.486 413.386 144.702C413.386 144.702 415.134 147.04 416.897 149.53C417.475 150.367 418.068 151.22 418.592 152.004C418.592 152.004 422.757 157.22 427.963 171.803C427.963 171.803 431.087 180.179 438.375 193.71L446.736 210.402C446.736 210.402 452.975 217.78 442.525 232.385Z" fill="#2F2E41"/>
<path opacity="0.2" d="M361.309 235.515C360.974 235.888 351.428 246.404 315.798 252.633C348.046 246.632 362.365 183.339 362.365 183.339C361.506 201.34 361.331 213.036 361.324 219.889V235.538L361.309 235.515Z" fill="black"/>
<path opacity="0.2" d="M418.577 152.058C406.082 149.971 392.546 159.36 392.546 159.36C383.311 167.774 382.194 161.005 382.111 158.066C382.108 157.561 381.964 157.067 381.696 156.641C381.427 156.214 381.044 155.871 380.591 155.652C372.185 151.844 367.541 200.045 367.541 200.045C365.458 189.613 370.467 165.315 370.467 165.315C371 162.331 371 159.276 370.467 156.291C370.845 155.886 371.26 155.516 371.706 155.187C372.887 153.174 373.93 151.082 374.83 148.928C375.411 147.445 376.408 146.163 377.702 145.237C378.996 144.311 380.53 143.782 382.118 143.712C382.118 143.712 381.138 149.552 378.265 153.702C378.229 153.747 378.198 153.795 378.174 153.847C379.968 151.664 382.144 149.827 384.596 148.425C387.03 147.007 389.732 146.113 392.531 145.798C392.531 145.798 403.984 143.712 407.108 141.626C407.108 141.626 410.232 139.539 413.355 144.755C413.355 144.755 415.103 147.093 416.867 149.583C417.459 150.42 418.052 151.273 418.577 152.058Z" fill="black"/>
<path opacity="0.2" d="M415.826 225.212C414.798 227.526 413.977 229.927 413.371 232.385L401.917 253.25C401.917 253.25 379.01 253.25 371.721 248.034C371.721 248.034 359.226 252.206 360.268 244.904C360.268 244.904 376.563 240.952 381.1 233.284C381.746 232.125 381.938 230.766 381.637 229.473C381.336 228.18 380.565 227.047 379.474 226.294C376.981 224.527 374.602 221.953 382.134 221.953C382.134 221.953 397.395 225.821 400.701 209.77C400.701 209.77 403.642 195.545 400.701 187.877C401.104 188.509 414.176 208.742 416.874 214.24C416.882 214.278 421.397 217.019 415.826 225.212Z" fill="black"/>
<path opacity="0.2" d="M428.502 250.958L413.37 270.984C413.37 270.984 410.247 275.157 402.958 267.855C401.258 266.547 399.79 264.961 398.618 263.164C398.618 263.164 416.562 262.189 428.502 250.958Z" fill="black"/>
<path d="M448.772 475.462C448.505 475.978 448.051 476.373 447.503 476.566C444.288 477.853 436.923 474.99 434.195 473.832L433.154 473.375C426.906 469.203 424.793 471.289 424.793 471.289C414.381 475.462 415.422 467.855 415.422 467.855V445.209C409.175 427.474 398.763 411.826 398.763 411.826C398.763 430.604 394.598 436.604 394.598 436.604V475.439C394.537 475.546 394.468 475.637 394.408 475.744C393.748 476.831 392.984 477.851 392.128 478.789C390.437 480.789 388.058 482.078 385.462 482.399C378.698 483.099 371.987 476.193 368.658 472.104C367.282 470.413 366.484 469.21 366.484 469.21L365.443 429.568C361.278 400.358 360.168 314.03 360.168 314.03C359.066 284.044 361.476 274.434 361.476 274.434V248.399C364.516 250.448 371.69 248.034 371.69 248.034C378.979 253.25 401.886 253.25 401.886 253.25L398.763 257.423C397.015 259.174 397.471 261.298 398.588 263.164C399.76 264.962 401.227 266.548 402.928 267.855C410.216 275.157 413.34 270.984 413.34 270.984L419.618 262.707C420.554 265.514 421.166 268.419 421.442 271.365C422.597 282.551 419.793 293.349 419.793 293.349C415.795 314.67 419.618 341.923 419.618 341.923C421.549 348.714 422.599 355.727 422.741 362.787C422.741 371.163 424.824 372.176 424.824 372.176C428.627 378.101 430.784 384.936 431.071 391.974L433.154 398.234C444.615 430.604 448.772 475.462 448.772 475.462Z" fill="#0BCA7A"/>
<path opacity="0.2" d="M421.442 271.373C412.861 272.789 408.985 284.401 408.985 284.401C386.899 286.343 384.216 273.071 384.216 273.071C379.77 262.684 367.959 258.603 361.506 257.156V248.399C364.546 250.448 371.721 248.034 371.721 248.034C379.01 253.25 401.917 253.25 401.917 253.25L398.793 257.423C397.045 259.174 397.501 261.298 398.618 263.164C399.791 264.962 401.258 266.548 402.958 267.855C410.247 275.157 413.371 270.984 413.371 270.984L419.618 262.707C420.555 265.516 421.167 268.424 421.442 271.373Z" fill="black"/>
<path d="M367.959 294.369L379.01 337.933C379.01 337.933 380.051 340.887 383.175 359.665C383.175 359.665 388.381 394.091 398.793 411.826" stroke="#630000" stroke-width="0.25" stroke-miterlimit="10"/>
<path opacity="0.2" d="M398.793 411.825C398.793 430.603 394.628 436.604 394.628 436.604V457.407C391.505 449.792 380.051 417.049 380.051 417.049C369.639 388.875 368.711 297.323 368.711 297.323C370.665 301.29 381.518 348.844 383.798 358.865C384.079 360.099 384.269 361.34 384.444 362.589C389.422 398.248 398.793 411.825 398.793 411.825Z" fill="black"/>
<path d="M433.154 473.375C430.6 472.416 427.666 472.614 424.793 473.375V471.274C424.793 471.274 426.906 469.203 433.154 473.375Z" fill="#F9B499"/>
<path d="M393.192 499.395L329.03 497.369C328.674 496.942 328.407 496.448 328.244 495.916C328.081 495.383 328.025 494.824 328.08 494.27C328.285 492.861 329.524 491.224 333.4 490.044C337.135 488.932 340.747 487.439 344.178 485.589L368.688 472.111C372.017 476.2 378.728 483.107 385.493 482.406C388.088 482.085 390.468 480.797 392.158 478.797C392.219 479.33 393.838 495.222 393.192 499.395Z" fill="#2F2E41"/>
<path opacity="0.2" d="M393.192 499.394L329.03 497.369C328.674 496.941 328.407 496.447 328.244 495.915C328.081 495.383 328.025 494.824 328.08 494.27C336.919 494.338 370.406 493.79 385.493 482.398C388.088 482.077 390.468 480.789 392.158 478.789C392.219 479.33 393.838 495.222 393.192 499.394Z" fill="black"/>
<path d="M407.123 141.633C405.101 142.989 399.576 144.337 395.936 145.113C393.959 145.54 392.546 145.806 392.546 145.806C386.903 146.492 381.753 149.368 378.204 153.817C380.137 150.726 381.47 147.298 382.133 143.712C383.175 142.669 383.349 136.676 383.349 136.676L395.669 119.718L402.206 117.632L405.854 127.531L406.948 130.501L407.123 141.633Z" fill="#F9B499"/>
<path d="M383.349 136.676C383.349 136.676 383.752 137.666 382.939 141.245C385.37 140.244 387.523 138.669 389.214 136.653C390.906 134.638 392.085 132.242 392.652 129.671C392.652 129.671 388.373 135.367 383.349 136.676Z" fill="#F7A48B"/>
<path d="M407.123 141.633C405.101 142.989 399.576 144.336 395.936 145.113C396.916 143.819 400.306 141.846 401.917 140.948C402.701 140.528 403.408 139.977 404.007 139.318C406.219 136.798 404.387 135.435 404.387 135.435C401.636 133.402 401.195 128.33 401.195 128.33L405.854 127.569L406.948 130.539L407.123 141.633Z" fill="#F7A48B"/>
<path d="M221.661 211.178C209.281 171.879 185.127 152.987 185.127 152.987L187.62 151.533C190.045 150.194 192.309 148.582 194.369 146.728C197.287 143.964 199.385 148.372 199.385 148.372C201.992 150.954 206.157 158.317 206.157 158.317C214.532 172.808 219.556 198.431 221.661 211.178Z" fill="#0BCA7A"/>
<path opacity="0.3" d="M221.661 211.178C209.281 171.879 185.127 152.987 185.127 152.987L187.62 151.533C190.045 150.194 192.309 148.582 194.369 146.728C197.287 143.964 199.385 148.372 199.385 148.372C201.992 150.954 206.157 158.317 206.157 158.317C214.532 172.808 219.556 198.431 221.661 211.178Z" fill="white"/>
<path d="M245.701 225.501C244.85 220.026 244.113 215.389 243.641 212.556C243.641 212.556 232.689 162.627 224.641 152.119L223.037 147.55C223.037 147.55 229.414 148.783 239.856 156.04C239.841 156.048 247.768 204.02 245.701 225.501Z" fill="#0BCA7A"/>
<path opacity="0.3" d="M245.701 225.501C244.85 220.026 244.113 215.389 243.641 212.556C243.641 212.556 232.689 162.627 224.641 152.119L223.037 147.55C223.037 147.55 229.414 148.783 239.856 156.04C239.841 156.048 247.768 204.02 245.701 225.501Z" fill="white"/>
<path d="M180.126 206.64C180.126 206.64 193.662 243.861 205.116 245.947L234.536 261.222C234.536 261.222 247.806 272.027 248.848 262.639L249.889 245.955C249.889 245.955 231.96 237.221 221.661 230.116C221.661 230.116 218.18 225.433 214.821 227.215C214.789 227.236 214.75 227.245 214.712 227.24C214.673 227.236 214.638 227.218 214.611 227.191C214.584 227.163 214.567 227.126 214.564 227.088C214.561 227.049 214.571 227.011 214.593 226.979C215.65 225.456 217.337 222.243 216.113 218.603C216.113 218.603 207.57 193.855 207.358 186.507" fill="#0BCA7A"/>
<path d="M208.604 193.566C210.611 199.536 212.655 206.229 214.555 212.275C215.224 214.346 215.87 216.425 216.63 218.45C217.18 219.915 217.233 221.521 216.782 223.019C216.372 224.472 215.741 225.854 214.913 227.116L214.525 226.629C217.39 225.936 220.172 227.725 221.662 230.078C220.035 228.075 217.345 226.522 214.73 227.261L213.97 227.497C215.148 225.441 216.25 223.156 216.167 220.742C216.157 220.063 216.005 219.394 215.718 218.778C212.808 210.527 210.439 202.095 208.627 193.535L208.604 193.566Z" fill="#0BCA7A"/>
<path opacity="0.3" d="M208.604 193.566C210.611 199.536 212.655 206.229 214.555 212.275C215.224 214.346 215.87 216.425 216.63 218.45C217.18 219.915 217.233 221.521 216.782 223.019C216.372 224.472 215.741 225.854 214.913 227.116L214.525 226.629C217.39 225.936 220.172 227.725 221.662 230.078C220.035 228.075 217.345 226.522 214.73 227.261L213.97 227.497C215.148 225.441 216.25 223.156 216.167 220.742C216.157 220.063 216.005 219.394 215.718 218.778C212.808 210.527 210.439 202.095 208.627 193.535L208.604 193.566Z" fill="black"/>
<path d="M221.248 143.801C230.265 141.971 235.303 129.247 232.5 115.381C229.697 101.516 220.115 91.7589 211.097 93.5889C202.079 95.4189 197.041 108.143 199.844 122.008C202.647 135.874 212.23 145.631 221.248 143.801Z" fill="#F9B499"/>
<path d="M195.585 121.158C195.585 121.158 186.374 112.416 193.662 104.07C193.662 104.07 193.259 101.984 190.858 104.07C190.858 104.07 190.539 99.8974 196.786 101.984C196.786 101.984 195.745 93.6076 205.146 90.5084C205.146 90.5084 203.064 93.6381 207.229 92.5949C207.229 92.5949 218.447 86.5945 226.305 87.3103C227.388 87.4069 228.427 87.7814 229.323 88.3976C230.219 89.0138 230.941 89.8509 231.42 90.8283C233.662 95.3971 237.326 104.984 229.285 105.936C228.098 103.864 226.789 101.865 225.363 99.9507C225.363 99.9507 226.967 105.966 209.114 106.149C208.696 106.147 208.283 106.232 207.901 106.4C207.518 106.568 207.175 106.815 206.894 107.124C206.218 107.885 205.648 109.218 206.187 111.373C206.187 111.373 207.229 114.502 204.105 115.546C204.105 115.546 205.815 123.381 203.923 126.206L195.585 121.158Z" fill="#2F2E41"/>
<path d="M203.192 129.767C204.699 128.427 204.219 125.418 202.119 123.046C200.019 120.674 197.095 119.836 195.587 121.176C194.08 122.515 194.56 125.524 196.66 127.897C198.76 130.269 201.685 131.106 203.192 129.767Z" fill="#F9B499"/>
<path d="M416.882 149.583C403.726 148.151 391.505 157.723 391.505 157.723C383.144 164.432 384.611 157.723 384.611 157.723V148.425C387.045 147.007 389.748 146.113 392.546 145.798C392.546 145.798 403.999 143.712 407.123 141.626C407.123 141.626 410.247 139.539 413.371 144.755C413.371 144.755 415.119 147.093 416.882 149.583Z" fill="#0BCA7A"/>
<path d="M382.133 143.712C382.133 143.712 381.153 149.552 378.28 153.702C378.244 153.747 378.213 153.795 378.189 153.847L378.105 153.961C378.105 153.961 373.408 158.431 370.505 156.291C370.883 155.886 371.297 155.516 371.744 155.187C372.924 153.174 373.968 151.082 374.867 148.928C375.447 147.449 376.441 146.169 377.73 145.243C379.02 144.318 380.549 143.786 382.133 143.712Z" fill="#0BCA7A"/>
<path d="M398.405 117.908C401.984 105.186 398.358 93.0294 390.306 90.7557C382.254 88.482 372.825 96.9522 369.247 109.674C365.668 122.397 369.294 134.553 377.346 136.827C385.398 139.1 394.826 130.63 398.405 117.908Z" fill="#F9B499"/>
<path d="M416.882 105.159C416.453 111.869 415.275 118.51 413.37 124.957V132.26C413.37 132.26 410.247 135.389 408.164 130.173C407.768 130.329 407.362 130.456 406.948 130.554C405.755 130.836 403.908 131.049 402.563 130.097C401.446 129.336 400.632 127.813 400.701 125.026C400.701 125.026 398.55 113.604 397.623 113.55L392.812 121.927C392.812 121.927 388.381 121.858 390.463 112.469C390.463 112.469 392.629 105.966 391.109 101.938C390.901 101.431 390.593 100.972 390.204 100.586C389.815 100.2 389.353 99.8969 388.845 99.6932C388.337 99.4895 387.793 99.3898 387.246 99.4C386.699 99.4102 386.16 99.5301 385.66 99.7525C383.623 100.59 380.104 101.481 377.353 99.1738C376.687 98.6105 376.124 97.9354 375.688 97.1788C375.688 97.1788 372.435 101.085 371.561 103.651C371.561 103.651 368.02 93.9349 373.644 88.4219C373.942 88.1347 374.323 87.9497 374.733 87.8936C375.143 87.8375 375.56 87.9132 375.924 88.1097C377.558 88.9777 381.153 90.1428 386.868 88.2772C387.469 88.0792 388.107 87.8355 388.761 87.569L389.118 87.4243C389.118 87.4243 398.824 82.2007 404.03 89.5108C403.999 89.4651 418.303 87.47 416.882 105.159Z" fill="#2F2E41"/>
<path opacity="0.2" d="M372.504 89.7163C372.504 89.7163 368.278 94.7648 371.561 103.59C371.561 103.59 373.082 99.486 374.495 98.6484C374.495 98.6484 371.212 96.2345 372.504 89.7163Z" fill="black"/>
<path opacity="0.2" d="M402.958 121.835C402.958 121.835 401.157 127.927 402.563 130.105C401.446 129.343 400.633 127.82 400.701 125.033C400.701 125.033 398.55 113.611 397.623 113.558L392.812 121.934C392.812 121.934 388.381 121.866 390.463 112.477C390.463 112.477 392.63 105.974 391.109 101.946C390.901 101.439 390.593 100.979 390.204 100.594C389.815 100.208 389.353 99.9046 388.845 99.7009C388.337 99.4972 387.794 99.3975 387.247 99.4077C386.7 99.4179 386.16 99.5378 385.66 99.7602C383.623 100.598 380.104 101.489 377.353 99.1815C382.483 98.8122 387.57 97.9866 392.554 96.7144C392.554 96.7144 394.902 100.522 393.732 110.147C393.732 110.147 393.595 113.528 397.76 112.484C397.752 112.416 405.041 110.329 402.958 121.835Z" fill="black"/>
<path opacity="0.2" d="M413.37 132.237C413.37 132.237 410.247 135.366 408.164 130.15C407.768 130.306 407.362 130.433 406.948 130.531C406.948 130.531 406.082 122.848 409.228 117.632C409.205 117.632 408.134 133.257 413.37 132.237Z" fill="black"/>
<path d="M400.792 119.845C401.301 116.716 399.872 113.878 397.602 113.508C395.331 113.138 393.079 115.376 392.571 118.505C392.062 121.635 393.491 124.472 395.761 124.842C398.032 125.212 400.284 122.975 400.792 119.845Z" fill="#F9B499"/>
<path d="M408.985 272.172L406.082 283.503C390.463 283.503 387.522 276.025 387.522 276.025L389.407 269.492C385.945 270.303 382.318 270.038 379.01 268.73C378.73 268.629 378.487 268.447 378.309 268.208C378.131 267.969 378.028 267.683 378.011 267.386C377.994 267.088 378.064 266.792 378.214 266.534C378.363 266.277 378.584 266.068 378.85 265.936C382.202 264.062 389.407 263.164 389.407 263.164C392.32 263.34 395.231 262.802 397.889 261.595C401.142 267.854 408.985 272.172 408.985 272.172Z" fill="#F9B499"/>
<path d="M408.985 272.172L406.082 283.503C390.463 283.503 387.522 276.025 387.522 276.025L389.407 269.492C385.945 270.303 382.318 270.038 379.01 268.73C379.01 268.73 387.682 269.873 390.631 267.817C390.631 267.817 389.422 276.193 396.711 278.287C396.711 278.287 403.087 279.886 403.285 276.764C403.296 276.344 403.207 275.928 403.025 275.551C402.842 275.173 402.572 274.845 402.236 274.594C400.382 273.124 395.647 268.708 396.156 262.258C396.759 262.062 397.351 261.831 397.927 261.565C401.142 267.855 408.985 272.172 408.985 272.172Z" fill="#F7A48B"/>
<path d="M252.663 470.839C247.099 478.736 233.229 476.474 233.229 476.474V475.918C233.585 475.781 233.932 475.623 234.27 475.446C234.27 475.446 240.518 466.057 250.93 470.23C251.473 470.522 252.057 470.728 252.663 470.839Z" fill="#F9B499"/>
<path d="M156.748 476.04C156.748 476.04 154.095 479.634 159.302 478.591C159.302 478.591 170.588 477.921 175.353 473.565C175.353 473.565 165.686 476.627 156.748 476.04Z" fill="#F9B499"/>
</svg>
