<?xml version="1.0" standalone="no"?>
<!DOCTYPE svg PUBLIC "-//W3C//DTD SVG 20010904//EN"
 "http://www.w3.org/TR/2001/REC-SVG-20010904/DTD/svg10.dtd">
<svg version="1.0" xmlns="http://www.w3.org/2000/svg"
 width="584.000000pt" height="584.000000pt" viewBox="0 0 584.000000 584.000000"
 preserveAspectRatio="xMidYMid meet">
<metadata>
Created by potrace 1.14, written by Peter Selinger 2001-2017
</metadata>
<g transform="translate(0.000000,584.000000) scale(0.100000,-0.100000)"
fill="#000000" stroke="none">
<path d="M2903 5763 c-6 -16 -26 -74 -45 -130 l-33 -103 -40 -1 c-125 -4 -213
-7 -239 -8 -27 -1 -26 -3 25 -38 30 -20 81 -57 113 -82 33 -25 63 -49 68 -52
5 -3 -10 -65 -33 -138 -23 -72 -39 -134 -36 -137 5 -5 32 13 174 113 l62 44
47 -33 c134 -95 154 -108 163 -108 5 0 11 -6 14 -12 2 -7 8 -10 12 -5 5 4 -10
64 -32 134 -23 70 -39 131 -37 137 3 6 54 46 115 90 60 43 107 81 105 84 -3 2
-54 6 -113 7 -59 2 -124 4 -143 4 -34 1 -35 2 -58 74 -37 115 -64 187 -71 187
-3 0 -11 -12 -18 -27z"/>
<path d="M1620 5465 c-6 -16 -21 -57 -31 -90 -11 -33 -28 -85 -40 -116 l-20
-56 -122 -1 c-67 0 -133 -1 -147 -1 l-25 -1 27 -25 c15 -14 30 -25 34 -25 7 0
109 -71 150 -105 l25 -20 -41 -120 c-22 -65 -40 -125 -40 -132 0 -15 29 1 148
81 46 31 87 56 92 56 4 0 59 -34 121 -75 62 -41 114 -73 117 -71 2 3 -15 64
-38 137 -24 73 -39 134 -34 136 10 3 135 92 167 118 9 8 21 15 26 15 5 0 14 7
21 15 13 16 17 15 -217 18 -47 0 -64 4 -68 16 -19 47 -79 220 -85 246 l-7 30
-13 -30z"/>
<path d="M4155 5418 c-11 -35 -20 -66 -21 -70 -1 -5 -2 -9 -3 -10 -1 -2 -12
-32 -24 -68 l-22 -64 -128 -2 c-70 0 -129 -3 -132 -6 -3 -3 42 -40 100 -83 58
-42 105 -81 105 -86 0 -4 -18 -65 -40 -135 -22 -70 -39 -128 -37 -130 3 -3 87
54 122 84 6 4 25 17 43 27 17 11 32 22 32 26 0 4 7 10 16 13 9 3 40 -11 76
-37 34 -23 82 -56 107 -74 25 -18 48 -28 49 -23 4 10 -40 162 -59 208 -5 13
-9 29 -9 36 0 11 152 136 166 136 3 0 14 9 26 20 16 15 18 20 7 21 -8 0 -61 2
-119 4 -143 4 -140 3 -145 18 -2 6 -21 67 -42 135 -20 67 -40 122 -43 122 -4
0 -15 -28 -25 -62z"/>
<path d="M659 4438 l-43 -136 -96 -2 c-162 -4 -189 -5 -194 -11 -3 -3 46 -41
109 -85 93 -65 113 -83 109 -99 -3 -11 -22 -71 -41 -133 -20 -62 -34 -115 -31
-117 5 -5 22 6 154 98 l81 57 84 -59 c46 -33 96 -69 111 -80 32 -26 53 -28 43
-3 -27 67 -76 236 -71 247 2 7 55 50 117 94 61 45 107 82 103 82 -5 1 -71 2
-147 4 -76 1 -142 6 -146 11 -4 5 -24 61 -45 124 -20 63 -40 121 -45 129 -6 9
-23 -29 -52 -121z"/>
<path d="M5090 4556 c0 -20 -78 -234 -91 -252 -5 -6 -67 -11 -161 -13 -84 -1
-154 -3 -155 -5 -2 -2 46 -36 106 -75 60 -40 117 -81 125 -90 15 -17 13 -28
-28 -144 -25 -70 -42 -128 -38 -130 4 -3 61 31 127 74 66 43 123 79 127 79 4
0 46 -26 95 -58 111 -73 163 -105 163 -99 0 2 -18 55 -39 118 -21 63 -41 124
-42 136 -3 20 16 36 126 108 l130 85 -70 1 c-172 2 -257 7 -265 15 -4 5 -26
63 -49 128 -40 118 -61 159 -61 122z"/>
<path d="M2010 3678 c0 -87 3 -158 8 -159 4 0 42 -2 85 -3 76 -1 95 5 91 32
-1 6 -2 16 -3 20 0 4 -26 7 -57 6 l-55 -2 3 42 3 41 49 0 c47 0 50 1 51 28 2
23 -2 27 -24 28 -66 2 -74 5 -81 25 -13 34 3 46 61 48 55 1 56 2 50 45 0 5
-41 9 -91 8 l-90 -1 0 -158z"/>
<path d="M2327 3832 c-3 -4 -7 -25 -11 -47 -12 -70 -57 -195 -75 -208 -14 -10
-18 -26 -17 -82 l1 -70 30 0 c31 0 31 -1 34 71 1 19 7 20 94 18 50 0 95 -2 99
-3 4 0 7 -16 6 -33 -1 -56 0 -60 30 -56 24 3 28 8 32 48 3 25 3 60 1 78 -3 27
-7 32 -22 27 -17 -6 -19 2 -21 127 l-3 133 -87 2 c-48 1 -89 -1 -91 -5z m113
-155 l0 -104 -57 1 c-32 1 -58 3 -57 6 0 3 8 30 17 60 9 30 21 74 27 98 10 38
14 42 40 42 l30 0 0 -103z"/>
<path d="M2604 3826 c-10 -26 -9 -306 1 -307 21 -2 77 0 79 3 2 2 33 54 70
116 37 61 69 112 70 112 2 0 2 -52 1 -115 0 -63 2 -115 7 -116 56 -8 53 -18
53 156 l0 160 -36 2 c-45 2 -48 -1 -128 -137 l-61 -105 0 123 0 122 -25 0
c-14 0 -28 -6 -31 -14z"/>
<path d="M2969 3836 c-1 -1 -2 -70 -3 -154 -1 -155 1 -165 37 -167 25 -2 33
20 31 82 -1 32 2 53 9 56 10 3 85 2 108 -2 4 -1 6 -24 5 -51 -1 -68 5 -83 37
-84 15 -1 28 1 28 4 1 3 3 75 3 161 l2 155 -33 2 -33 3 -1 -53 c-1 -29 -1 -58
0 -64 1 -8 -20 -11 -61 -10 l-63 1 -1 45 c-3 81 -2 79 -34 78 -16 -1 -30 -1
-31 -2z"/>
<path d="M3375 3830 c-3 -5 -8 -18 -10 -27 -3 -10 -25 -76 -50 -147 -26 -70
-43 -131 -40 -134 3 -4 17 -7 31 -8 18 -1 29 7 40 28 8 15 12 28 8 28 -4 0 -2
6 4 13 6 7 32 12 64 11 49 0 54 -2 63 -30 6 -16 13 -34 17 -40 11 -16 63 -10
62 7 -2 28 -97 294 -108 301 -16 11 -74 10 -81 -2z m56 -75 c2 -17 3 -24 11
-45 21 -53 18 -60 -24 -60 -33 0 -39 3 -34 18 2 9 10 36 17 60 12 42 28 56 30
27z"/>
<path d="M3674 3833 c-29 -5 -64 -45 -66 -74 -2 -47 2 -60 26 -83 l25 -22 -39
-60 c-46 -68 -49 -82 -17 -78 12 1 29 3 37 3 9 1 21 13 28 29 24 55 49 87 70
90 20 3 22 -1 23 -40 2 -89 0 -86 59 -79 6 1 10 61 10 159 l0 158 -67 0 c-38
0 -78 -1 -89 -3z m86 -93 c0 -22 -3 -40 -7 -41 -5 0 -16 -2 -25 -4 -17 -3 -58
28 -58 45 0 18 33 40 61 40 27 0 29 -2 29 -40z"/>
<path d="M350 3153 c-24 -71 -45 -130 -47 -132 -3 -4 -77 -7 -226 -10 -43 -1
-66 -5 -62 -11 3 -6 32 -27 63 -49 31 -21 80 -57 109 -80 48 -37 51 -43 43
-68 -50 -158 -72 -235 -67 -239 5 -5 86 41 97 56 3 3 33 25 67 49 43 30 68 41
81 37 11 -4 68 -40 126 -81 59 -41 106 -68 106 -61 0 8 -16 63 -35 122 -20 60
-37 118 -39 129 -2 15 18 35 83 83 47 34 100 73 116 87 l30 24 -70 2 c-76 2
-190 6 -216 8 -10 1 -23 26 -39 79 -13 42 -27 82 -30 87 -4 6 -12 29 -20 53
-7 23 -16 42 -20 42 -4 0 -26 -57 -50 -127z"/>
<path d="M5389 3153 c-23 -71 -44 -130 -46 -132 -4 -6 -47 -8 -190 -12 -57 -1
-103 -5 -103 -8 1 -3 48 -39 106 -80 67 -48 107 -83 110 -98 4 -14 -9 -67 -31
-133 -20 -61 -35 -116 -33 -121 2 -6 54 23 117 65 62 42 117 76 123 76 6 0 40
-21 77 -47 124 -87 152 -105 157 -100 3 3 -4 36 -16 74 -12 37 -30 96 -40 131
l-19 63 86 62 c47 34 100 74 117 88 l30 27 -104 2 c-136 3 -189 6 -193 11 -2
2 -24 61 -48 132 -24 70 -47 127 -51 127 -3 0 -25 -57 -49 -127z"/>
<path d="M1185 3263 c-19 -4 -20 -11 -18 -146 1 -78 2 -150 2 -160 1 -14 8
-18 34 -15 l32 3 0 67 -1 67 29 -1 c31 -1 34 -4 41 -40 11 -60 63 -101 130
-101 94 0 146 64 142 172 -6 116 -67 171 -172 154 -42 -7 -93 -54 -101 -94 -3
-16 -9 -30 -14 -30 -5 -1 -15 -2 -21 -3 -26 -4 -35 15 -33 64 3 54 -10 70 -50
63z m280 -59 c60 -24 54 -191 -8 -208 -54 -14 -86 20 -89 94 -3 90 37 137 97
114z"/>
<path d="M1646 3261 c-1 -4 -2 -76 -2 -161 l1 -155 32 -3 32 -3 3 57 3 57 44
3 c33 2 52 11 73 31 54 54 32 155 -37 168 -43 8 -146 12 -149 6z m135 -66 c13
-9 17 -44 5 -59 -6 -9 -26 -19 -43 -22 l-33 -6 0 44 c0 25 3 47 6 51 6 5 51 0
65 -8z"/>
<path d="M1928 3261 c0 -3 -2 -77 -3 -163 l-1 -158 41 0 41 0 72 122 72 122 0
-122 0 -122 30 0 30 0 0 159 c0 157 0 159 -22 163 -50 8 -63 -2 -113 -89 -27
-47 -60 -98 -71 -114 l-21 -29 1 114 2 114 -28 4 c-15 3 -29 2 -30 -1z"/>
<path d="M2355 3260 c-2 -3 -6 -23 -10 -45 -19 -109 -67 -231 -85 -220 -6 4
-10 -25 -10 -72 l0 -79 28 2 c15 1 30 3 33 3 3 1 6 19 6 42 0 22 5 44 10 47 6
4 51 6 101 4 l89 -3 -2 -45 c-3 -45 0 -48 40 -44 28 3 30 10 27 84 -3 60 -6
66 -25 66 -22 0 -22 2 -19 130 3 130 3 130 -20 131 -103 4 -160 3 -163 -1z
m113 -155 c2 -60 -1 -101 -8 -105 -8 -5 -27 -5 -96 -1 -8 1 -4 27 12 79 13 42
24 87 24 99 0 23 12 30 45 28 18 -2 20 -9 23 -100z"/>
<path d="M2641 3261 c-10 -6 -14 -115 -12 -278 l1 -43 39 0 c36 0 42 4 73 53
18 28 35 57 38 62 11 22 72 125 74 125 1 0 1 -53 1 -117 l0 -118 30 -3 30 -3
0 157 c0 146 -1 157 -19 164 -46 16 -63 0 -133 -116 -37 -63 -70 -114 -73
-114 -3 0 -4 51 -2 114 3 105 2 114 -16 118 -11 3 -25 2 -31 -1z"/>
<path d="M2998 3262 c-20 -4 -20 -2 -19 -92 0 -114 33 -139 154 -116 l37 7 0
-61 0 -60 35 0 35 0 0 149 c0 82 -2 156 -5 163 -4 10 -16 13 -35 10 -30 -4
-30 -4 -30 -73 0 -64 -2 -70 -24 -79 -23 -8 -83 -6 -94 4 -2 3 -5 37 -5 75 -1
73 -8 82 -49 73z"/>
<path d="M3337 3262 c-10 -2 -17 -13 -18 -25 -1 -25 -1 -278 0 -289 1 -5 41
-8 90 -8 79 0 89 2 94 19 7 29 -6 41 -44 40 -78 -3 -77 -4 -70 74 1 4 7 7 14
6 6 -1 30 -1 53 0 42 1 42 2 35 52 -1 3 -18 5 -38 6 -67 1 -70 2 -67 26 1 12
3 27 3 33 1 6 22 10 52 10 53 -2 76 16 60 43 -8 12 -122 21 -164 13z"/>
<path d="M3644 3254 c-47 -21 -63 -38 -79 -84 -29 -83 -2 -185 57 -216 36 -18
115 -22 145 -6 21 12 25 59 4 54 -97 -21 -141 4 -145 83 -2 27 2 62 8 77 14
36 63 54 108 39 36 -13 34 -14 43 21 5 21 3 27 -15 33 -41 13 -96 13 -126 -1z"/>
<path d="M3868 3262 c-16 -3 -18 -19 -18 -163 l0 -159 33 0 33 0 0 75 c-1 41
2 75 5 75 3 0 29 -34 58 -75 l52 -75 73 0 74 0 15 38 c15 37 15 37 71 37 l57
0 11 -37 11 -38 73 0 73 0 35 59 c56 91 84 89 81 -6 l-1 -53 33 0 c27 0 33 4
34 23 3 96 1 288 -4 293 -3 3 -37 6 -75 6 -67 0 -112 -16 -134 -47 -18 -24 -8
-86 17 -111 l25 -25 -38 -64 c-20 -35 -39 -64 -42 -65 -6 0 -43 100 -91 242
-21 63 -24 66 -56 70 -19 2 -40 -1 -48 -6 -7 -6 -35 -77 -61 -158 -27 -81 -52
-148 -55 -148 -5 0 -93 115 -112 146 -5 9 12 39 48 87 30 41 55 76 55 78 0 11
-79 -4 -83 -15 -12 -30 -91 -126 -96 -117 -4 6 -6 37 -4 70 2 62 -6 73 -49 63z
m733 -61 c1 -4 2 -23 3 -43 2 -34 0 -38 -21 -38 -14 0 -33 5 -44 10 -23 13
-25 55 -4 68 17 9 64 11 66 3z m-306 -121 c-5 -7 -71 -7 -69 0 1 3 9 32 19 65
l18 60 18 -59 c10 -33 16 -62 14 -66z"/>
<path d="M2058 2668 c-47 -27 -70 -74 -70 -147 -1 -94 41 -149 120 -158 57 -6
100 5 107 28 10 30 -4 38 -50 30 -54 -10 -91 9 -101 51 -12 50 -6 100 15 128
16 22 26 25 76 25 50 0 59 3 66 22 7 20 4 24 -29 33 -56 15 -93 12 -134 -12z"/>
<path d="M2340 2680 c-5 -3 -12 -28 -15 -55 -21 -164 -37 -221 -58 -208 -13 8
-26 -15 -20 -38 9 -31 67 -26 91 9 18 26 48 158 51 225 1 13 10 17 36 17 40 0
38 9 41 -135 1 -60 3 -115 3 -122 1 -15 59 -14 64 1 1 6 3 79 3 161 l-1 150
-93 0 c-51 0 -97 -2 -102 -5z"/>
<path d="M2586 2681 c-2 -3 21 -57 51 -119 49 -102 53 -114 38 -128 -8 -9 -31
-16 -50 -16 -30 0 -35 -3 -35 -23 0 -25 17 -35 62 -35 72 0 104 45 198 282
l19 46 -32 -2 c-34 -2 -41 -12 -89 -125 l-23 -53 -34 83 c-19 46 -35 86 -37
88 -6 6 -64 9 -68 2z"/>
<path d="M2887 2683 c-6 -5 37 -76 61 -101 33 -36 34 -51 4 -95 -16 -23 -41
-61 -56 -84 l-26 -43 32 4 c18 2 36 4 39 5 3 0 27 35 54 76 26 41 49 75 50 75
2 0 3 -28 3 -62 0 -98 -1 -95 32 -95 l29 0 3 76 3 76 52 -76 c45 -66 55 -75
82 -75 17 0 31 3 31 6 0 4 -23 42 -51 84 l-51 77 44 67 c25 37 46 72 46 77 1
6 -10 10 -25 10 -23 1 -36 -10 -74 -66 -26 -37 -49 -73 -52 -81 -3 -7 -6 24
-6 68 l-1 82 -30 -2 c-32 -1 -33 -4 -32 -103 1 -45 -11 -41 -44 14 -15 26 -36
57 -46 68 -18 19 -60 30 -71 18z"/>
<path d="M3328 2537 c-2 -81 -1 -154 2 -161 4 -10 26 -12 81 -11 86 3 123 20
135 63 21 77 -24 131 -113 134 -33 1 -35 4 -35 33 0 33 3 36 35 35 84 -5 97
-1 97 25 0 30 8 27 -107 29 l-92 2 -3 -149z m145 -44 c11 -7 8 -48 -5 -61 -7
-7 -25 -12 -40 -12 -21 0 -28 5 -29 20 -1 11 -2 26 -3 33 -5 31 37 42 77 20z"/>
<path d="M3651 2591 c-18 -53 -36 -105 -41 -116 -12 -27 -34 -99 -32 -105 1
-2 16 -4 34 -5 29 0 34 4 44 35 12 35 12 35 70 35 56 0 59 -1 68 -30 6 -16 11
-31 12 -33 3 -6 58 -10 66 -6 3 2 -17 68 -44 146 -28 79 -52 151 -55 160 -4
12 -16 16 -48 15 l-42 -1 -32 -95z m110 -80 c3 -10 -6 -14 -31 -14 -40 -1 -40
-2 -21 78 l14 60 18 -55 c9 -30 19 -61 20 -69z"/>
<path d="M2220 2108 c-89 -24 -128 -133 -86 -241 23 -58 54 -78 124 -80 72 -2
110 17 139 68 26 47 26 141 0 192 -28 54 -104 80 -177 61z m91 -63 c37 -14 48
-125 17 -174 -25 -40 -95 -37 -122 5 -32 48 -11 166 31 177 20 5 50 2 74 -8z"/>
<path d="M2999 2110 c-73 -20 -107 -71 -106 -160 0 -116 56 -171 166 -164 25
2 56 11 70 22 85 62 83 235 -4 283 -36 20 -90 28 -126 19z m99 -74 c19 -19 27
-110 12 -146 -16 -40 -42 -52 -86 -44 -29 5 -39 14 -50 40 -17 39 -12 117 7
140 27 33 89 38 117 10z"/>
<path d="M1800 1950 l0 -160 35 0 c33 0 34 2 33 33 0 17 0 76 1 130 l1 97 58
0 57 0 -1 -130 0 -130 33 0 33 0 1 80 c0 44 0 109 0 145 0 36 0 72 0 80 -1 13
-22 15 -126 15 l-125 0 0 -160z"/>
<path d="M2489 2108 c-1 -2 -2 -74 -3 -160 l-1 -158 30 0 31 0 -1 115 c-1 63
0 115 1 115 2 0 39 -113 49 -150 22 -82 25 -87 51 -84 15 1 30 6 34 11 4 4 23
54 41 110 18 56 35 100 37 98 2 -2 4 -51 3 -109 l-2 -106 33 0 34 0 -2 153
c-1 83 -2 155 -3 160 0 4 -21 7 -45 7 l-44 0 -28 -87 c-15 -49 -30 -92 -33
-98 -3 -5 -7 -19 -8 -29 -2 -11 -5 -22 -8 -24 -5 -6 -4 -9 -46 131 l-32 107
-44 0 c-23 0 -44 -1 -44 -2z"/>
<path d="M3259 2093 c-1 -23 -1 -215 0 -268 l1 -40 190 1 189 1 3 -46 c3 -40
6 -46 26 -47 30 -2 36 11 38 79 0 45 -3 60 -16 67 -10 5 -20 6 -24 3 -7 -7 -8
10 -7 160 l1 107 -35 0 -35 0 0 -133 0 -133 -47 1 -48 1 -2 119 c0 66 -2 126
-2 133 -1 9 -12 12 -33 10 l-33 -3 0 -130 0 -129 -47 -1 c-26 -1 -49 4 -50 9
-2 6 -3 66 -3 134 l1 122 -33 0 c-24 0 -33 -5 -34 -17z"/>
<path d="M3754 1950 c-1 -140 1 -160 15 -161 9 0 27 -2 39 -3 18 -2 30 7 48
35 13 21 24 43 24 49 0 5 4 10 9 10 5 0 11 8 15 18 3 9 15 33 27 52 12 19 28
46 36 60 12 23 13 16 13 -70 -2 -156 -4 -147 30 -152 29 -4 29 -4 32 46 2 28
2 102 0 164 l-3 113 -42 -3 c-41 -3 -42 -4 -103 -107 -34 -57 -66 -107 -71
-112 -5 -5 -9 37 -9 103 l1 113 -30 3 -30 3 -1 -161z"/>
<path d="M675 1968 c-16 -51 -30 -95 -31 -98 -13 -62 -29 -100 -43 -101 -9 -1
-54 -3 -101 -4 -142 -5 -180 -8 -180 -14 0 -3 26 -24 56 -46 31 -22 67 -49 79
-60 12 -11 39 -32 58 -47 l35 -27 -14 -48 c-8 -26 -16 -57 -18 -68 -2 -11 -14
-53 -26 -93 -12 -40 -20 -76 -17 -79 3 -3 58 34 121 81 l115 87 76 -60 c79
-63 165 -125 165 -118 0 2 -12 41 -26 88 -14 46 -27 91 -29 99 -2 8 -4 15 -5
15 -3 0 -13 51 -14 74 -1 24 55 76 194 182 l34 26 -60 2 c-32 1 -101 3 -151 3
l-93 1 -17 56 c-9 31 -17 58 -18 61 -3 16 -57 180 -58 180 -1 0 -16 -42 -32
-92z"/>
<path d="M5090 2038 c0 -13 -85 -247 -92 -254 -2 -1 -72 -4 -156 -5 -84 -1
-152 -5 -152 -9 0 -4 49 -40 110 -80 60 -40 115 -79 121 -86 9 -11 3 -38 -25
-116 -21 -57 -42 -114 -47 -127 -19 -45 -9 -41 169 77 l83 55 29 -22 c16 -11
34 -21 40 -21 5 0 10 -4 10 -10 0 -5 6 -10 13 -10 8 0 22 -9 32 -20 10 -11 22
-20 27 -20 5 0 30 -14 54 -31 25 -17 47 -29 50 -27 2 3 -12 51 -32 109 -60
174 -66 155 76 248 67 43 118 81 113 84 -7 4 -86 8 -255 11 l-58 1 -46 133
c-41 116 -64 159 -64 120z"/>
<path d="M1578 998 l-43 -133 -140 -2 c-77 -1 -141 -5 -142 -10 -2 -4 47 -44
107 -87 77 -55 109 -84 106 -95 -2 -9 -21 -69 -41 -135 -20 -65 -35 -120 -33
-122 4 -3 61 35 177 117 l54 39 36 -22 c20 -12 74 -48 120 -80 46 -32 86 -57
88 -55 1 2 -15 61 -37 131 -22 70 -40 132 -40 137 0 5 52 45 115 90 64 45 114
83 112 85 -1 2 -68 4 -147 6 l-145 3 -44 133 c-25 72 -48 132 -52 132 -4 0
-27 -60 -51 -132z"/>
<path d="M4145 1038 c-16 -51 -30 -99 -31 -107 -1 -7 -7 -25 -13 -40 l-11 -26
-131 -2 c-72 -1 -133 -4 -135 -6 -3 -2 45 -41 105 -86 l109 -83 -20 -61 c-10
-34 -21 -69 -22 -77 -2 -8 -12 -38 -21 -67 -19 -59 -17 -83 5 -62 23 21 120
92 167 122 l41 26 29 -22 c15 -12 30 -25 31 -29 2 -5 10 -8 17 -8 7 0 15 -3
17 -8 4 -10 110 -93 114 -89 5 4 -22 111 -49 197 -17 55 -21 78 -13 86 6 5 38
30 71 54 74 56 73 55 110 85 l30 25 -40 1 c-22 1 -84 2 -138 2 l-98 2 -42 132
c-22 73 -44 133 -47 133 -4 0 -20 -42 -35 -92z"/>
<path d="M2879 762 c-1 -7 -2 -15 -3 -19 -1 -7 -59 -194 -71 -230 -3 -7 -19
-13 -37 -14 -108 -2 -231 -9 -235 -12 -2 -2 22 -24 54 -48 32 -24 63 -47 68
-51 6 -4 27 -23 48 -41 l39 -34 -22 -74 c-12 -41 -28 -93 -36 -117 -29 -89
-22 -89 92 -2 122 91 102 92 234 -5 117 -85 112 -84 93 -23 -8 29 -17 60 -18
68 -2 8 -4 15 -5 15 -1 0 -3 7 -6 15 -2 8 -10 39 -19 69 -10 39 -12 58 -4 67
6 7 53 45 105 85 53 39 93 73 91 75 -4 4 -127 11 -229 13 -41 1 -48 4 -48 21
0 10 -4 29 -9 42 -6 13 -22 61 -36 108 -26 82 -44 118 -46 92z"/>
</g>
</svg>
