<svg width="20" height="20" viewBox="0 0 20 20" fill="none" xmlns="http://www.w3.org/2000/svg">
<g id="icon/bell">
<g id="Vector">
<path d="M8.33366 15C8.33366 15.9205 9.07985 16.6667 10.0003 16.6667C10.9208 16.6667 11.667 15.9205 11.667 15" fill="#f13737"/>
<path d="M8.33366 15C8.33366 15.9205 9.07985 16.6667 10.0003 16.6667C10.9208 16.6667 11.667 15.9205 11.667 15" stroke="#f13737" stroke-linecap="round" stroke-linejoin="round"/>
</g>
<path id="Vector_2" d="M15.0003 7.5C15.0003 8.88889 15.0003 10.2778 15.0003 11.6667C15.0003 13.3333 15.5559 14.4444 16.667 15H3.33366C4.44477 14.4444 5.00033 13.3333 5.00033 11.6667C5.00033 10.2778 5.00033 8.88889 5.00033 7.5C5.00033 4.73858 7.2389 2.5 10.0003 2.5C12.7617 2.5 15.0003 4.73858 15.0003 7.5Z" fill="#f13737" stroke="#f13737" stroke-linecap="round" stroke-linejoin="round"/>
</g>
</svg>
