<svg width="211" height="50" viewBox="0 0 211 50" fill="none" xmlns="http://www.w3.org/2000/svg">
<path fill-rule="evenodd" clip-rule="evenodd" d="M94.409 6.87954C95.6264 7.5654 96.5818 8.51753 97.2755 9.7349C97.9692 10.9523 98.3158 12.3285 98.3158 13.8629C98.3158 15.398 97.9692 16.7735 97.2755 17.9909C96.5818 19.2083 95.6264 20.1598 94.409 20.8463C93.1922 21.5327 91.8154 21.876 90.281 21.876C88.9089 21.876 87.6723 21.6391 86.5738 21.1672C85.4738 20.6954 84.555 20.009 83.8174 19.1085L86.0974 16.9836C87.1894 18.2087 88.5249 18.8211 90.1039 18.8211C91.2398 18.8211 92.2032 18.4889 92.9927 17.8248C93.7815 17.1614 94.2942 16.2681 94.5311 15.1465H88.244V12.402H94.4864C94.2351 11.3396 93.7186 10.4909 92.9369 9.8564C92.1547 9.22237 91.2102 8.90483 90.1039 8.90483C88.5249 8.90483 87.1894 9.5171 86.0974 10.7417L83.8174 8.61668C84.555 7.71706 85.4738 7.03044 86.5738 6.55867C87.6723 6.0869 88.9089 5.85059 90.281 5.85059C91.8154 5.85059 93.1922 6.19307 94.409 6.87954Z" fill="white"/>
<path fill-rule="evenodd" clip-rule="evenodd" d="M107.124 15.3682H104.645V21.61H101.082V6.11621H104.645V12.3802H107.213L111.286 6.11621H115.07L110.002 13.5978L115.226 21.61H111.153L107.124 15.3682Z" fill="white"/>
<path fill-rule="evenodd" clip-rule="evenodd" d="M119.886 20.847C118.609 20.1605 117.605 19.209 116.875 17.9917C116.145 16.7743 115.779 15.3988 115.779 13.8637C115.779 12.3293 116.145 10.9532 116.875 9.73565C117.605 8.51773 118.609 7.56614 119.886 6.88028C121.161 6.19381 122.597 5.85059 124.191 5.85059C125.533 5.85059 126.747 6.08684 127.831 6.55935C128.916 7.03133 129.827 7.70975 130.565 8.59585L128.264 10.7201C127.215 9.51053 125.917 8.90557 124.367 8.90557C123.408 8.90557 122.552 9.1156 121.8 9.53622C121.048 9.95683 120.461 10.5436 120.04 11.2957C119.62 12.0483 119.409 12.9043 119.409 13.8637C119.409 14.8232 119.62 15.6789 120.04 16.4311C120.461 17.1837 121.048 17.7705 121.8 18.1911C122.552 18.6111 123.408 18.8219 124.367 18.8219C125.917 18.8219 127.215 18.2095 128.264 16.9842L130.565 19.1093C129.827 20.0097 128.913 20.6961 127.821 21.1679C126.728 21.6398 125.511 21.8761 124.168 21.8761C122.589 21.8761 121.161 21.5329 119.886 20.847Z" fill="white"/>
<path fill-rule="evenodd" clip-rule="evenodd" d="M147.033 6.11621V21.6102H143.469V9.03799H136.475V21.6102H132.911V6.11621H147.033Z" fill="white"/>
<path fill-rule="evenodd" clip-rule="evenodd" d="M159.849 13.7191C160.409 13.2545 160.69 12.5944 160.69 11.7379C160.69 10.8676 160.409 10.1996 159.849 9.73488C159.288 9.2702 158.469 9.03725 157.392 9.03725H154.471V14.4162H157.392C158.469 14.4162 159.288 14.1838 159.849 13.7191ZM161.166 6.80194C162.177 7.25939 162.955 7.90847 163.501 8.74984C164.046 9.59052 164.32 10.5875 164.32 11.7379C164.32 12.8745 164.046 13.8668 163.501 14.7153C162.955 15.5639 162.177 16.213 161.166 16.6624C160.155 17.1134 158.964 17.3385 157.592 17.3385H154.471V21.6101H150.885V6.11621H157.592C158.964 6.11621 160.155 6.3447 161.166 6.80194Z" fill="white"/>
<path fill-rule="evenodd" clip-rule="evenodd" d="M178.685 18.7331V21.6108H166.688V6.11621H178.397V8.99394H170.251V12.3586H177.444V15.1472H170.251V18.7331H178.685Z" fill="white"/>
<path fill-rule="evenodd" clip-rule="evenodd" d="M184.583 20.847C183.307 20.1605 182.303 19.209 181.573 17.9917C180.843 16.7743 180.478 15.3988 180.478 13.8637C180.478 12.3293 180.843 10.9532 181.573 9.73565C182.303 8.51773 183.307 7.56614 184.583 6.88028C185.86 6.19381 187.295 5.85059 188.889 5.85059C190.231 5.85059 191.445 6.08684 192.529 6.55935C193.614 7.03133 194.525 7.70975 195.263 8.59585L192.961 10.7201C191.913 9.51053 190.615 8.90557 189.066 8.90557C188.106 8.90557 187.25 9.1156 186.498 9.53622C185.746 9.95683 185.159 10.5436 184.738 11.2957C184.318 12.0483 184.107 12.9043 184.107 13.8637C184.107 14.8232 184.318 15.6789 184.738 16.4311C185.159 17.1837 185.746 17.7705 186.498 18.1911C187.25 18.6111 188.106 18.8219 189.066 18.8219C190.615 18.8219 191.913 18.2095 192.961 16.9842L195.263 19.1093C194.525 20.0097 193.61 20.6961 192.519 21.1679C191.427 21.6398 190.209 21.8761 188.866 21.8761C187.287 21.8761 185.86 21.5329 184.583 20.847Z" fill="white"/>
<path fill-rule="evenodd" clip-rule="evenodd" d="M200.321 20.847C199.045 20.1605 198.041 19.209 197.311 17.9917C196.58 16.7743 196.215 15.3988 196.215 13.8637C196.215 12.3293 196.58 10.9532 197.311 9.73565C198.041 8.51773 199.045 7.56614 200.321 6.88028C201.597 6.19381 203.033 5.85059 204.627 5.85059C205.969 5.85059 207.183 6.08684 208.267 6.55935C209.352 7.03133 210.263 7.70975 211.001 8.59585L208.699 10.7201C207.651 9.51053 206.352 8.90557 204.803 8.90557C203.844 8.90557 202.988 9.1156 202.236 9.53622C201.483 9.95683 200.897 10.5436 200.476 11.2957C200.056 12.0483 199.845 12.9043 199.845 13.8637C199.845 14.8232 200.056 15.6789 200.476 16.4311C200.897 17.1837 201.483 17.7705 202.236 18.1911C202.988 18.6111 203.844 18.8219 204.803 18.8219C206.352 18.8219 207.651 18.2095 208.699 16.9842L211.001 19.1093C210.263 20.0097 209.348 20.6961 208.257 21.1679C207.164 21.6398 205.947 21.8761 204.604 21.8761C203.025 21.8761 201.597 21.5329 200.321 20.847Z" fill="white"/>
<path fill-rule="evenodd" clip-rule="evenodd" d="M92.4717 40.6895C93.3864 40.6895 94.0874 40.509 94.5744 40.1473C95.0612 39.7857 95.3048 39.2581 95.3048 38.5644C95.3048 37.2074 94.3605 36.5281 92.4717 36.5281H88.8858V40.6895H92.4717ZM85.3223 27.8516H97.8281V30.7069H88.8858V33.8945H93.1798C95.0542 33.8945 96.4814 34.2856 97.4625 35.0678C98.4444 35.8495 98.9353 36.9789 98.9353 38.4543C98.9353 40.0037 98.3893 41.2066 97.2972 42.0618C96.2046 42.9183 94.6629 43.3454 92.6712 43.3454H85.3223V27.8516Z" fill="white"/>
<path fill-rule="evenodd" clip-rule="evenodd" d="M110.887 37.3032L108.43 31.3712L105.974 37.3032H110.887ZM112.016 40.0253H104.823L103.45 43.3461H99.7754L106.682 27.8516H110.223L117.151 43.3461H113.389L112.016 40.0253Z" fill="white"/>
<path fill-rule="evenodd" clip-rule="evenodd" d="M133.419 27.8516V43.3454H129.834V36.9934H122.796V43.3454H119.21V27.8516H122.796V33.9607H129.834V27.8516H133.419Z" fill="white"/>
<path fill-rule="evenodd" clip-rule="evenodd" d="M143.291 37.1037H140.813V43.3456H137.249V27.8516H140.813V34.1157H143.381L147.453 27.8516H151.237L146.169 35.3331L151.393 43.3456H147.32L143.291 37.1037Z" fill="white"/>
<path fill-rule="evenodd" clip-rule="evenodd" d="M162.04 35.4546C162.601 34.9899 162.881 34.3297 162.881 33.4732C162.881 32.603 162.601 31.935 162.04 31.4702C161.48 31.0057 160.66 30.7733 159.584 30.7733H156.662V36.1515H159.584C160.66 36.1515 161.48 35.9191 162.04 35.4546ZM163.357 28.5375C164.368 28.9955 165.146 29.644 165.692 30.4852C166.238 31.3266 166.511 32.3228 166.511 33.4732C166.511 34.6099 166.238 35.6022 165.692 36.4508C165.146 37.2993 164.368 37.9484 163.357 38.3985C162.347 38.8487 161.155 39.0738 159.783 39.0738H156.662V43.3457H153.076V27.8516H159.783C161.155 27.8516 162.347 28.0806 163.357 28.5375Z" fill="white"/>
<path fill-rule="evenodd" clip-rule="evenodd" d="M178.973 39.9267C179.711 39.5061 180.29 38.9193 180.71 38.1672C181.131 37.4145 181.342 36.5588 181.342 35.5992C181.342 34.6404 181.131 33.7847 180.71 33.0318C180.29 32.2791 179.711 31.6924 178.973 31.2718C178.235 30.8517 177.409 30.6412 176.494 30.6412C175.579 30.6412 174.753 30.8517 174.015 31.2718C173.277 31.6924 172.698 32.2791 172.278 33.0318C171.857 33.7847 171.647 34.6404 171.647 35.5992C171.647 36.5588 171.857 37.4145 172.278 38.1672C172.698 38.9193 173.277 39.5061 174.015 39.9267C174.753 40.3474 175.579 40.5574 176.494 40.5574C177.409 40.5574 178.235 40.3474 178.973 39.9267ZM172.145 42.5715C170.854 41.8785 169.843 40.9229 169.112 39.7055C168.381 38.4881 168.017 37.1198 168.017 35.5992C168.017 34.0799 168.381 32.711 169.112 31.4935C169.843 30.2762 170.854 29.3207 172.145 28.627C173.435 27.9341 174.885 27.5869 176.494 27.5869C178.103 27.5869 179.549 27.9341 180.833 28.627C182.117 29.3207 183.126 30.2762 183.865 31.4935C184.602 32.711 184.972 34.0799 184.972 35.5992C184.972 37.1198 184.602 38.4881 183.865 39.7055C183.126 40.9229 182.117 41.8785 180.833 42.5715C179.549 43.2652 178.103 43.6122 176.494 43.6122C174.885 43.6122 173.435 43.2652 172.145 42.5715Z" fill="white"/>
<path fill-rule="evenodd" clip-rule="evenodd" d="M199.359 30.7734H194.401V43.3456H190.859V30.7734H185.923V27.8516H199.359V30.7734Z" fill="white"/>
<path fill-rule="evenodd" clip-rule="evenodd" d="M75.5987 25.0125C75.5987 37.8688 65.7289 48.4165 53.1561 49.4981C52.9362 49.5433 52.5478 49.5552 52.385 49.5617H52.3063H35.5511C34.7221 49.5617 34.0442 48.8838 34.0442 48.0541C34.0442 47.6387 34.2122 47.262 34.4865 46.9878C34.761 46.7134 35.1349 46.5449 35.5511 46.5449H50.9989H51.0043H51.0199C51.224 46.5449 51.4296 46.5415 51.631 46.5356C63.2397 46.2133 72.5515 36.7021 72.5515 25.0125C72.5515 13.4826 63.4871 4.07097 52.0955 3.51047C52.0865 3.51385 52.0805 3.51721 52.0805 3.51721H34.0743C33.2279 3.51721 32.5342 2.82372 32.5342 1.97709C32.5342 1.55499 32.7061 1.16917 32.9862 0.88899C33.2666 0.608672 33.6524 0.4375 34.0743 0.4375H50.7666C50.7758 0.4375 50.7871 0.437499 50.7969 0.440202C50.8717 0.437499 50.9446 0.4375 51.0199 0.4375C64.5923 0.4375 75.5987 11.4396 75.5987 25.0125Z" fill="white"/>
<path fill-rule="evenodd" clip-rule="evenodd" d="M20.6145 25.0142C20.6145 25.4376 20.4412 25.8227 20.163 26.1023C19.8834 26.3819 19.4976 26.5545 19.0736 26.5545H2.38267C1.5353 26.5545 0.841797 25.8616 0.841797 25.0142C0.841797 24.5909 1.01629 24.2051 1.29458 23.9268C1.57341 23.6472 1.95794 23.4746 2.38267 23.4746H19.0736C19.9207 23.4746 20.6145 24.167 20.6145 25.0142Z" fill="white"/>
<path fill-rule="evenodd" clip-rule="evenodd" d="M24.5848 16.2435C24.5848 17.0901 23.8913 17.783 23.0447 17.783H8.32047C7.47397 17.783 6.78027 17.0901 6.78027 16.2435C6.78027 15.3963 7.47397 14.7031 8.32047 14.7031H23.0447C23.8913 14.7031 24.5848 15.3963 24.5848 16.2435Z" fill="white"/>
<path fill-rule="evenodd" clip-rule="evenodd" d="M24.5848 33.7835C24.5848 34.6307 23.8913 35.3238 23.0447 35.3238H8.32047C7.47397 35.3238 6.78027 34.6307 6.78027 33.7835C6.78027 32.9363 7.47397 32.2432 8.32047 32.2432H23.0447C23.8913 32.2432 24.5848 32.9363 24.5848 33.7835Z" fill="white"/>
<path fill-rule="evenodd" clip-rule="evenodd" d="M27.9234 7.47467C27.9234 7.89846 27.7508 8.28236 27.4719 8.562C27.1923 8.84158 26.8084 9.01425 26.3838 9.01425H15.8374C14.9916 9.01425 14.2979 8.32184 14.2979 7.47467C14.2979 7.05067 14.4705 6.6654 14.7501 6.38583C15.0297 6.10754 15.4143 5.93359 15.8374 5.93359H26.3838C27.231 5.93359 27.9234 6.62729 27.9234 7.47467Z" fill="white"/>
<path fill-rule="evenodd" clip-rule="evenodd" d="M27.9234 42.5534C27.9234 42.9774 27.7508 43.3619 27.4719 43.6415C27.1923 43.9204 26.8084 44.0935 26.3838 44.0935H15.8374C14.9916 44.0935 14.2979 43.4006 14.2979 42.5534C14.2979 42.13 14.4705 41.7455 14.7501 41.4659C15.0297 41.1863 15.4143 41.0137 15.8374 41.0137H26.3838C27.231 41.0137 27.9234 41.7068 27.9234 42.5534Z" fill="white"/>
<path fill-rule="evenodd" clip-rule="evenodd" d="M32.5457 39.0467C32.5864 39.367 32.7669 39.5553 33.1075 39.556C33.4481 39.5574 33.7887 39.5614 34.128 39.5614C39.934 39.5581 45.7394 39.5547 51.5454 39.5523C53.6712 39.5516 55.7298 39.1808 57.658 38.2812C58.6077 37.8388 59.554 37.3302 60.3788 36.6928C62.891 34.753 64.8841 32.3878 65.8607 29.3078C66.4441 27.4637 66.6843 25.5685 66.5195 23.6233C66.1954 19.8136 64.6203 16.6262 61.7873 14.0785C59.4109 11.9424 56.6078 10.7151 53.4118 10.5209C51.5887 10.4099 49.755 10.4487 47.9268 10.4454C43.4254 10.4355 38.9246 10.4376 34.424 10.4355H34.3996C34.3636 10.4362 34.3248 10.4362 34.2843 10.4355H34.2114C33.3399 10.4389 32.9146 10.7328 32.7183 11.0825C32.717 11.0853 32.7156 11.0866 32.715 11.0893C32.6932 11.1353 32.6703 11.1825 32.6485 11.2311C32.5699 11.437 32.5561 11.651 32.5652 11.8275C32.5857 11.9634 32.608 12.098 32.6329 12.2325C32.6343 12.2345 32.6343 12.2352 32.6343 12.2352C32.875 13.4814 33.3823 14.6227 34.2164 15.6176C35.7436 17.4401 37.7249 18.3005 40.0808 18.3096C43.4941 18.3221 46.9074 18.3169 50.3201 18.3116C52.2896 18.3089 53.9821 19.0098 55.3287 20.4202C56.9189 22.0865 57.5804 24.088 57.1762 26.3916C56.7554 28.7903 55.4534 30.4893 53.117 31.2749C52.3965 31.5171 51.6063 31.6477 50.8458 31.6568C47.3983 31.6989 43.9497 31.6791 40.5016 31.6811C38.393 31.6818 36.6021 32.4351 35.0828 33.894C33.7395 35.1843 32.8298 36.6951 32.5601 38.5581C32.5372 38.719 32.5254 38.8865 32.5457 39.0467Z" fill="white"/>
<path fill-rule="evenodd" clip-rule="evenodd" d="M38.6885 22.8477V22.8609C38.6891 23.0302 38.7015 23.3794 38.7771 23.6931C38.8762 24.2437 39.0998 24.7575 39.3932 25.2404C40.5181 27.0886 42.1838 27.9732 44.3455 27.9613C46.5152 27.9488 48.684 27.9566 50.8545 27.9559H50.8976C50.935 27.9593 50.9752 27.9613 51.0157 27.9613C52.3172 27.966 52.2069 27.2997 52.2069 27.2997C52.2305 26.5917 52.0594 25.8869 51.739 25.2293C50.7317 23.168 49.0753 22.0707 46.7691 22.0431C44.3422 22.0136 41.9146 22.0307 39.4871 22.0273H39.2738C39.2299 22.0327 39.1834 22.0418 39.1346 22.0582C38.9305 22.1251 38.7101 22.303 38.6898 22.7571C38.6898 22.7571 38.6885 22.7906 38.6885 22.8477Z" fill="white"/>
</svg>
