<svg width="71" height="73" viewBox="0 0 71 73" fill="none" xmlns="http://www.w3.org/2000/svg">
<path fill-rule="evenodd" clip-rule="evenodd" d="M5.74038 2.32932C6.62278 0.348703 8.94369 -0.541605 10.9243 0.340762L55.8954 20.3755L57.7856 16.2173C58.4441 14.769 59.9114 13.8612 61.5012 13.9183C63.091 13.9756 64.4891 14.9865 65.0414 16.4783L69.2291 27.7852C69.9793 29.8105 68.9527 32.0613 66.9316 32.8227L55.6771 37.0628C54.1899 37.623 52.5122 37.2316 51.4265 36.0714C50.3406 34.9111 50.0613 33.2108 50.7189 31.7643L52.6462 27.524L7.72898 7.51319C5.74833 6.63083 4.85802 4.30994 5.74038 2.32932Z" fill="#FFEA30"/>
<path fill-rule="evenodd" clip-rule="evenodd" d="M5.40059 27.9458C4.01226 27.9458 2.6808 28.4973 1.69911 29.479C0.717419 30.4607 0.165909 31.7921 0.165909 33.1805V69.8232C0.165909 71.2685 1.33773 72.4406 2.78325 72.4406H15.8699C17.3155 72.4406 18.4873 71.2685 18.4873 69.8232V33.1805C18.4873 31.7921 17.9358 30.4607 16.9541 29.479C15.9724 28.4973 14.641 27.9458 13.2526 27.9458H5.40059ZM31.574 35.7978C30.1856 35.7978 28.8542 36.3493 27.8725 37.331C26.8908 38.3127 26.3393 39.6442 26.3393 41.0325V69.8232C26.3393 71.2685 27.5111 72.4406 28.9566 72.4406H42.0434C43.4889 72.4406 44.6607 71.2685 44.6607 69.8232V41.0325C44.6607 39.6442 44.1092 38.3127 43.1275 37.331C42.1458 36.3493 40.8144 35.7978 39.426 35.7978H31.574ZM54.0459 45.183C55.0275 44.2014 56.3592 43.6498 57.7474 43.6498H65.5994C66.9876 43.6498 68.3194 44.2014 69.3008 45.183C70.2824 46.1647 70.8341 47.4962 70.8341 48.8845V69.8232C70.8341 71.2685 69.662 72.4406 68.2168 72.4406H55.1301C53.6848 72.4406 52.5127 71.2685 52.5127 69.8232V48.8845C52.5127 47.4962 53.0644 46.1647 54.0459 45.183Z" fill="#222222"/>
</svg>
