<svg width="76" height="67" viewBox="0 0 76 67" fill="none" xmlns="http://www.w3.org/2000/svg">
<g clip-path="url(#clip0_214_200)">
<path d="M0 67V62.0501C0 61.2399 0.665499 60.577 1.47889 60.577H32.4764C33.2897 60.577 33.9552 61.2399 33.9552 62.0501V67H0Z" fill="#9F9F9F"/>
<path d="M29.0897 55.9807H4.85077C4.03401 55.9807 3.37189 56.6402 3.37189 57.4538V59.1038C3.37189 59.9174 4.03401 60.577 4.85077 60.577H29.0897C29.9065 60.577 30.5686 59.9174 30.5686 59.1038V57.4538C30.5686 56.6402 29.9065 55.9807 29.0897 55.9807Z" fill="white"/>
<path d="M34.0695 0.684913L34.3518 0.403655C34.8956 -0.138025 35.7635 -0.127606 36.2969 0.403657L47.9568 12.0185C48.5005 12.5602 48.4901 13.4248 47.9568 13.9561L47.6744 14.2373C47.1411 14.7686 46.2627 14.7686 45.7294 14.2373L34.0695 2.62246C33.5257 2.08078 33.5361 1.21618 34.0695 0.684913Z" fill="#9F9F9F"/>
<path d="M9.14587 25.5176L9.42822 25.2363C9.972 24.6946 10.84 24.7051 11.3733 25.2363L23.0332 36.8512C23.577 37.3929 23.5665 38.2575 23.0332 38.7887L22.7508 39.07C22.207 39.6117 21.3391 39.6013 20.8058 39.07L9.14587 27.4551C8.61255 26.9239 8.61255 26.0488 9.14587 25.5176Z" fill="#9F9F9F"/>
<path d="M73.2789 58.9418L47.7681 33.5295L37.2828 24.2485C40.4476 20.1383 44.7512 13.2733 44.7512 13.2733L35.0349 3.59457C35.0349 3.59457 24.6087 10.0913 21.7397 12.9492C18.8559 15.8219 12.3488 26.1931 12.3488 26.1931L22.065 35.8718C22.065 35.8718 28.9567 31.5702 33.0828 28.4323L42.3997 38.8771L67.9105 64.2894C68.4429 64.8345 69.3303 64.8345 69.8627 64.2894L73.2789 60.8864C73.8113 60.3413 73.8113 59.4721 73.2789 58.9418Z" fill="white"/>
<path d="M67.5505 64.3632L73.3543 58.5819C73.8981 58.0402 74.766 58.0506 75.2994 58.5819L75.5817 58.8631C76.115 59.3944 76.115 60.2694 75.5817 60.8007L69.7674 66.5925C69.2341 67.1237 68.3557 67.1237 67.8224 66.5925L67.54 66.3112C66.9963 65.7695 67.0067 64.9049 67.54 64.3737L67.5505 64.3632Z" fill="#9F9F9F"/>
<path d="M41.6455 38.5677L47.4575 32.7782C48.0047 32.2478 48.8773 32.2478 49.4097 32.7782L49.6907 33.0581C50.2231 33.5884 50.2231 34.4723 49.6907 35.0027L43.8786 40.7922C43.3462 41.3226 42.4589 41.3226 41.9265 40.7922L41.6455 40.5123C41.1131 39.9673 41.1131 39.0981 41.6455 38.5677Z" fill="#9F9F9F"/>
<path d="M30.763 3.98123L12.7346 21.94C12.1571 22.5153 12.1571 23.4481 12.7346 24.0234L24.2586 35.5028C24.8361 36.0781 25.7725 36.0781 26.3501 35.5028L44.3785 17.5441C44.956 16.9687 44.956 16.036 44.3785 15.4607L32.8545 3.98122C32.277 3.40591 31.3406 3.40591 30.763 3.98123Z" fill="#9F9F9F"/>
</g>
<defs>
<clipPath id="clip0_214_200">
<rect width="76" height="67" fill="white"/>
</clipPath>
</defs>
</svg>
