<svg width="70" height="71" viewBox="0 0 70 71" fill="none" xmlns="http://www.w3.org/2000/svg">
<g clip-path="url(#clip0_214_229)">
<path d="M60.431 17.3124H60.0909L59.5141 17.0463L50.6254 36.195H52.0156L59.6324 19.7966V36.195H60.8895V19.7966L68.5062 36.195H69.8965L61.0078 17.0463L60.431 17.3124Z" fill="white"/>
<path d="M69.9852 36.402C69.9852 36.402 69.9852 36.4315 69.9852 36.4463H70L69.9852 36.402Z" fill="white"/>
<path d="M50.5219 36.195C50.5219 39.6846 54.8848 42.5089 60.2683 42.5089C65.6518 42.5089 70.0148 39.6846 70.0148 36.195H50.5367H50.5219Z" fill="#9F9F9F"/>
<path d="M9.90915 17.3124H9.56898L8.99218 17.0463L0.103531 36.195H1.49377L9.1105 19.7966V36.195H10.3676V19.7966L17.9844 36.195H19.3746L10.486 17.0463L9.90915 17.3124Z" fill="white"/>
<path d="M19.4633 36.402C19.4633 36.402 19.4633 36.4315 19.4633 36.4463H19.4781L19.4633 36.402Z" fill="white"/>
<path d="M0 36.195C0 39.6846 4.36298 42.5089 9.74646 42.5089C15.1299 42.5089 19.4929 39.6846 19.4929 36.195H0Z" fill="#9F9F9F"/>
<path d="M49.25 66.2414L34.9926 61.0513L20.7353 66.2414C19.7591 66.5963 19.2267 67.7349 20.1437 68.2524C22.5248 69.5832 28.2781 70.5148 34.9926 70.5148C41.7072 70.5148 47.4604 69.5832 49.8415 68.2524C50.7437 67.7497 50.2113 66.5963 49.25 66.2414Z" fill="#9F9F9F"/>
<path d="M59.8986 16.5731C59.1739 16.6174 58.0942 16.6174 56.8223 16.4992C54.2785 16.2626 50.7881 15.5824 48.0224 14.0298C47.6822 13.8376 47.3273 13.6453 47.0906 13.4383L46.6913 13.1574L46.1885 12.7286C45.8483 12.4328 45.4934 12.1519 45.1532 11.8561C44.7687 11.5013 44.3102 11.2499 43.8813 10.9689C43.0087 10.4366 42.0917 10.0078 41.1895 9.72687C40.2873 9.41635 39.4148 9.2537 38.6013 9.1354C38.2168 9.07626 37.847 9.04668 37.4921 9.0319V2.96937C37.4921 1.609 36.3828 0.5 35.0222 0.5C33.6615 0.5 32.5523 1.609 32.5523 2.96937V9.04668C32.1973 9.06147 31.8276 9.09104 31.4431 9.15019C30.6296 9.26848 29.757 9.43114 28.8549 9.74166C27.9527 10.0374 27.0357 10.4514 26.1631 10.9837C25.7342 11.2795 25.2905 11.5308 24.8912 11.8709C24.551 12.1519 24.2109 12.4476 23.8559 12.7433L23.3531 13.1722L22.9537 13.4531C22.7023 13.6453 22.3474 13.8376 22.022 14.0446C19.2415 15.5824 15.7511 16.2774 13.2221 16.5139C11.9354 16.6322 10.8705 16.6322 10.1458 16.5879C10.0127 16.5879 9.89436 16.5583 9.77605 16.5435V18.2144C9.77605 18.2144 9.83521 18.2292 9.87957 18.244C10.693 18.4362 11.8466 18.6284 13.2369 18.7319C14.6271 18.8354 16.254 18.8502 18.0287 18.6876C19.7887 18.5249 21.6818 18.1996 23.5749 17.5342C24.0482 17.3568 24.5067 17.1941 25.0243 16.928L25.7786 16.5583L26.3554 16.2182L26.6364 16.0556L26.7695 15.9668H26.7843V15.952L26.8878 15.8781H26.9174L26.9766 15.8338L27.4202 15.5824C27.7013 15.3902 28.0266 15.3014 28.3224 15.1536C28.9288 14.917 29.5352 14.7543 30.112 14.6804C30.6888 14.5769 31.2656 14.5769 31.7832 14.5917C32.0494 14.5917 32.3157 14.6213 32.5523 14.6508V61.9977L23.782 65.1916C23.0129 65.4725 22.5988 66.3745 23.3087 66.7738C25.187 67.8236 29.7275 68.563 35.0222 68.563C40.3169 68.563 44.8574 67.8236 46.7357 66.7738C47.4456 66.3745 47.0315 65.4725 46.2624 65.1916L37.4921 61.9977V14.6065C37.7287 14.5769 37.9949 14.5621 38.2612 14.5473C38.7788 14.5473 39.3408 14.5473 39.9324 14.636C40.524 14.71 41.1156 14.8874 41.722 15.1092C42.0177 15.2571 42.3431 15.3458 42.6241 15.538L43.0678 15.7894L43.127 15.819H43.1566L43.2601 15.9077L43.2749 15.9225L43.408 16.0112L43.689 16.1738L44.2658 16.5139L45.0201 16.8836C45.5377 17.1498 45.9962 17.3124 46.4695 17.4899C48.3626 18.17 50.2557 18.4954 52.0156 18.6432C53.7756 18.8059 55.4025 18.7763 56.8075 18.6876C58.1978 18.5841 59.3514 18.3918 60.1648 18.1996C60.1944 18.1996 60.224 18.1848 60.2683 18.17V16.4992C60.15 16.4992 60.0317 16.5287 59.8986 16.5435V16.5731Z" fill="white"/>
<path d="M39.3704 12.4328C39.3704 10.0226 37.4181 8.07077 35.0074 8.07077C32.5967 8.07077 30.6444 10.0226 30.6444 12.4328C30.6444 14.8431 32.5967 16.7949 35.0074 16.7949C37.4181 16.7949 39.3704 14.8431 39.3704 12.4328Z" fill="#9F9F9F"/>
<path d="M62.6938 17.2829C62.6938 15.9373 61.6142 14.8578 60.2683 14.8578C58.9225 14.8578 57.8428 15.9373 57.8428 17.2829C57.8428 18.6284 58.9225 19.7079 60.2683 19.7079C61.6142 19.7079 62.6938 18.6284 62.6938 17.2829Z" fill="#9F9F9F"/>
<path d="M7.32094 17.2829C7.32094 15.9373 8.40059 14.8578 9.74646 14.8578C11.0923 14.8578 12.172 15.9373 12.172 17.2829C12.172 18.6284 11.0923 19.7079 9.74646 19.7079C8.40059 19.7079 7.32094 18.6284 7.32094 17.2829Z" fill="#9F9F9F"/>
</g>
<defs>
<clipPath id="clip0_214_229">
<rect width="70" height="70" fill="white" transform="translate(0 0.5)"/>
</clipPath>
</defs>
</svg>
