<svg width="195" height="36" viewBox="0 0 195 36" fill="none" xmlns="http://www.w3.org/2000/svg">
<g id="Vector">
<path d="M0 35.3213V34.791L1.01118 34.4198C1.68529 34.2077 2.12347 33.8895 2.32571 33.4652C2.56165 33.041 2.67962 32.4753 2.67962 31.7683V3.98038C2.67962 3.27331 2.56165 2.70765 2.32571 2.28341C2.08977 1.85917 1.63474 1.52331 0.960618 1.27583L0 0.851592V0.321289H12.2858C17.308 0.321289 20.9314 1.29351 23.1559 3.23796C25.4142 5.14705 26.5434 7.67483 26.5434 10.8213C26.5434 12.8364 26.0715 14.6925 25.1277 16.3895C24.2177 18.0511 22.7009 19.3768 20.5774 20.3667C18.454 21.3566 15.589 21.8516 11.9824 21.8516H10.2634V31.6092C10.2634 32.988 10.9207 33.8895 12.2352 34.3137L13.752 34.791V35.3213H0ZM10.2634 20.791H12.1847C13.8363 20.791 15.1845 20.5082 16.2294 19.9425C17.2743 19.3768 18.0495 18.3869 18.5551 16.9728C19.0607 15.5587 19.3135 13.5965 19.3135 11.0864C19.3135 8.54099 19.027 6.56119 18.454 5.14705C17.9147 3.73291 17.1057 2.76068 16.0272 2.23038C14.9486 1.66472 13.6003 1.38189 11.9824 1.38189H10.2634V20.791Z" fill="#222222"/>
<path d="M34.1314 35.3213V34.791L35.1426 34.4198C36.2886 34.0309 36.8616 33.0233 36.8616 31.397V4.24553C36.8616 3.53846 36.7773 2.9728 36.6088 2.54856C36.474 2.12432 36.0864 1.77078 35.446 1.48796L34.1314 0.851592V0.321289H43.8893L53.2427 25.988L62.0399 0.321289H72V0.851592L71.1911 1.16977C70.5506 1.41725 70.1125 1.77078 69.8765 2.23038C69.6406 2.65462 69.5226 3.22028 69.5226 3.92735V31.6622C69.5226 32.3693 69.6069 32.9172 69.7754 33.3061C69.9439 33.695 70.3484 34.0309 70.9888 34.3137L72 34.791V35.3213H59.4109V34.791L60.4726 34.3137C61.113 34.0309 61.5175 33.695 61.686 33.3061C61.8545 32.9172 61.9388 32.3693 61.9388 31.6622V19.7304L62.0399 4.56371L51.4731 35.3213H48.9452L37.9233 4.93493L38.075 18.1395V31.5031C38.075 32.2809 38.1761 32.9173 38.3784 33.4122C38.6143 33.8718 39.0525 34.2077 39.6929 34.4198L40.8052 34.791V35.3213H34.1314Z" fill="#222222"/>
<path d="M0 15.3213H72V29.5713H0V15.3213Z" fill="#FFEA30"/>
<path d="M11.4059 26.3579V26.2394L11.6325 26.1564C11.7835 26.109 11.8816 26.0379 11.9269 25.9431C11.9798 25.8482 12.0062 25.7218 12.0062 25.5637V19.3525C12.0062 19.1945 11.9798 19.0681 11.9269 18.9732C11.8741 18.8784 11.7721 18.8033 11.6211 18.748L11.4059 18.6532V18.5347H14.1581C15.2831 18.5347 16.0948 18.752 16.5931 19.1866C17.099 19.6133 17.3519 20.1783 17.3519 20.8816C17.3519 21.3321 17.2462 21.7469 17.0348 22.1262C16.831 22.4977 16.4912 22.794 16.0155 23.0153C15.5398 23.2365 14.898 23.3472 14.0901 23.3472H13.7051V25.5282C13.7051 25.8364 13.8523 26.0379 14.1468 26.1327L14.4865 26.2394V26.3579H11.4059ZM13.7051 23.1101H14.1354C14.5054 23.1101 14.8074 23.0469 15.0415 22.9204C15.2756 22.794 15.4492 22.5727 15.5625 22.2566C15.6757 21.9405 15.7324 21.502 15.7324 20.9409C15.7324 20.3719 15.6682 19.9294 15.5398 19.6133C15.419 19.2972 15.2378 19.0799 14.9962 18.9614C14.7546 18.8349 14.4526 18.7717 14.0901 18.7717H13.7051V23.1101Z" fill="#222222"/>
<path d="M18.4354 26.3579V26.2394L18.6732 26.1564C18.8242 26.1011 18.9224 26.03 18.9677 25.9431C19.013 25.8482 19.0357 25.7178 19.0357 25.5519V19.3525C19.0357 19.1945 19.013 19.072 18.9677 18.9851C18.9299 18.8903 18.8393 18.8152 18.6959 18.7599L18.4354 18.6532V18.5347H21.6745C22.5655 18.5347 23.2488 18.7125 23.7245 19.0681C24.2002 19.4158 24.438 19.9017 24.438 20.526C24.438 20.8737 24.3134 21.2214 24.0643 21.5691C23.8151 21.9168 23.4225 22.1855 22.8864 22.3752L24.4607 25.6467C24.5286 25.7811 24.6041 25.8917 24.6872 25.9786C24.7778 26.0576 24.8948 26.1288 25.0383 26.192L25.1855 26.2512V26.3579H23.1582L21.482 22.6241H20.7119V25.5519C20.7119 25.702 20.7345 25.8245 20.7798 25.9193C20.8251 26.0142 20.9195 26.0853 21.063 26.1327L21.3348 26.2394V26.3579H18.4354ZM20.7119 22.387H21.2555C21.7991 22.387 22.1917 22.2369 22.4334 21.9366C22.675 21.6284 22.7958 21.174 22.7958 20.5734C22.7958 19.965 22.6825 19.5145 22.456 19.2222C22.2295 18.9219 21.8482 18.7717 21.3121 18.7717H20.7119V22.387Z" fill="#222222"/>
<path d="M26.2353 26.3579V26.2394L26.5185 26.1327C26.6695 26.0695 26.7865 25.9944 26.8696 25.9075C26.9526 25.8127 27.0206 25.6823 27.0734 25.5163L29.4065 18.5109H30.3692L32.6683 25.5637C32.7287 25.7376 32.7967 25.8719 32.8722 25.9668C32.9477 26.0537 33.0647 26.1288 33.2233 26.192L33.3592 26.2394V26.3579H30.4825V26.2394L30.6524 26.1801C30.8109 26.1169 30.9053 26.03 30.9355 25.9193C30.9733 25.8008 30.9695 25.6625 30.9242 25.5045L30.3919 23.7976H27.8776L27.3339 25.4689C27.2811 25.6428 27.2622 25.7811 27.2773 25.8838C27.3 25.9865 27.3906 26.0695 27.5491 26.1327L27.7983 26.2394V26.3579H26.2353ZM27.9569 23.5605H30.3239L29.18 19.8741L27.9569 23.5605Z" fill="#222222"/>
<path d="M36.1805 26.3935L33.7569 19.3288C33.704 19.1708 33.6323 19.0483 33.5417 18.9614C33.4586 18.8665 33.3416 18.7954 33.1906 18.748L32.9187 18.6532V18.5347H36.1805V18.6532L35.8295 18.7599C35.6558 18.8073 35.5576 18.8903 35.535 19.0088C35.5199 19.1273 35.5388 19.2735 35.5916 19.4474L37.2678 24.651L38.9553 19.4355C39.0157 19.2538 39.0422 19.1036 39.0346 18.9851C39.0346 18.8665 38.9478 18.7836 38.7741 18.7362L38.4797 18.6532V18.5347H40.0653V18.6532L39.7595 18.748C39.616 18.7875 39.5141 18.8586 39.4537 18.9614C39.3933 19.0562 39.3366 19.1826 39.2838 19.3407L37.0187 26.3935H36.1805Z" fill="#222222"/>
<path d="M44.1526 26.5713C43.692 26.5713 43.2465 26.4844 42.8162 26.3105C42.3933 26.1367 42.012 25.8798 41.6723 25.54C41.3401 25.1923 41.0758 24.7617 40.8795 24.248C40.6832 23.7344 40.585 23.1338 40.585 22.4463C40.585 21.7667 40.6832 21.1701 40.8795 20.6564C41.0758 20.1428 41.3438 19.716 41.6836 19.3762C42.0234 19.0285 42.4047 18.7678 42.8275 18.5939C43.2579 18.4122 43.6996 18.3213 44.1526 18.3213C44.6132 18.3213 45.0549 18.4082 45.4777 18.5821C45.9081 18.748 46.2894 19.0048 46.6216 19.3525C46.9614 19.6923 47.2294 20.123 47.4257 20.6446C47.622 21.1582 47.7202 21.7588 47.7202 22.4463C47.7202 23.118 47.622 23.7146 47.4257 24.2362C47.2294 24.7498 46.9614 25.1805 46.6216 25.5282C46.2894 25.868 45.9081 26.1288 45.4777 26.3105C45.0549 26.4844 44.6132 26.5713 44.1526 26.5713ZM44.1526 26.3224C44.5679 26.3224 44.9039 26.2078 45.1606 25.9786C45.4173 25.7415 45.6023 25.3425 45.7155 24.7814C45.8364 24.2125 45.8968 23.4341 45.8968 22.4463C45.8968 21.4506 45.8364 20.6722 45.7155 20.1112C45.6023 19.5422 45.4173 19.1431 45.1606 18.914C44.9039 18.6769 44.5679 18.5584 44.1526 18.5584C43.7449 18.5584 43.4127 18.6769 43.1559 18.914C42.8992 19.1431 42.7105 19.5422 42.5896 20.1112C42.4764 20.6722 42.4198 21.4506 42.4198 22.4463C42.4198 23.4341 42.4764 24.2125 42.5896 24.7814C42.7105 25.3425 42.8992 25.7415 43.1559 25.9786C43.4127 26.2078 43.7449 26.3224 44.1526 26.3224Z" fill="#222222"/>
<path d="M52.1111 26.3579V26.2394L52.3376 26.1564C52.5943 26.0695 52.7227 25.8443 52.7227 25.4808V19.4118C52.7227 19.2538 52.7038 19.1273 52.6661 19.0325C52.6359 18.9377 52.549 18.8586 52.4056 18.7954L52.1111 18.6532V18.5347H54.297L56.3922 24.2717L58.3629 18.5347H60.5941V18.6532L60.4128 18.7243C60.2694 18.7796 60.1712 18.8586 60.1184 18.9614C60.0655 19.0562 60.0391 19.1826 60.0391 19.3407V25.54C60.0391 25.6981 60.058 25.8206 60.0957 25.9075C60.1335 25.9944 60.2241 26.0695 60.3675 26.1327L60.5941 26.2394V26.3579H57.774V26.2394L58.0118 26.1327C58.1553 26.0695 58.2459 25.9944 58.2836 25.9075C58.3214 25.8206 58.3402 25.6981 58.3402 25.54V22.873L58.3629 19.4829L55.9958 26.3579H55.4295L52.9605 19.5659L52.9945 22.5174V25.5045C52.9945 25.6783 53.0172 25.8206 53.0625 25.9312C53.1153 26.0339 53.2135 26.109 53.3569 26.1564L53.6061 26.2394V26.3579H52.1111Z" fill="#222222"/>
<path d="M84.2886 13.4941L85.4501 13.6736V14.1846H81V13.6736L82.1615 13.4941V5.61538L81 5.42894V4.92487H85.4501V5.42894L84.2886 5.61538V9.0334H86.8074C86.8884 7.60635 87.2958 6.54756 88.0296 5.85705C88.7679 5.16654 89.8349 4.82129 91.2304 4.82129C92.6935 4.82129 93.7965 5.21948 94.5393 6.01587C95.2866 6.81226 95.6602 7.98843 95.6602 9.54438C95.6602 11.1141 95.2843 12.3041 94.5325 13.1143C93.7807 13.9199 92.68 14.3227 91.2304 14.3227C89.8168 14.3227 88.7342 13.9429 87.9823 13.1834C87.235 12.4238 86.8389 11.2983 86.7939 9.80677H84.2886V13.4941ZM89.0358 9.54438C89.0358 11.0129 89.2068 12.0624 89.549 12.6931C89.8956 13.3192 90.4561 13.6322 91.2304 13.6322C92.0002 13.6322 92.5562 13.3192 92.8984 12.6931C93.245 12.0624 93.4183 11.0129 93.4183 9.54438C93.4183 8.0851 93.245 7.04933 92.8984 6.43708C92.5562 5.82483 92.0002 5.5187 91.2304 5.5187C90.4606 5.5187 89.9024 5.82483 89.5557 6.43708C89.2091 7.04473 89.0358 8.0805 89.0358 9.54438Z" fill="#222222"/>
<path d="M102.217 7.66619C102.217 6.92965 102.082 6.41637 101.812 6.12635C101.546 5.83174 101.076 5.68443 100.401 5.68443H99.8672V9.79296H100.428C101.053 9.79296 101.508 9.63184 101.792 9.3096C102.075 8.98737 102.217 8.43956 102.217 7.66619ZM99.8672 10.5525V13.4941L101.373 13.6805V14.1846H96.6596V13.6805L97.7333 13.4941V5.60847L96.5719 5.42894V4.92487H100.563C101.846 4.92487 102.805 5.14583 103.439 5.58776C104.074 6.02508 104.392 6.71329 104.392 7.65238C104.392 9.58581 103.289 10.5525 101.083 10.5525H99.8672Z" fill="#222222"/>
<path d="M105.026 14.1846V13.6736L106.188 13.4941V5.61538L105.026 5.42894V4.92487H109.476V5.42894L108.315 5.61538V11.6021L112.015 6.00897V5.61538L110.854 5.42894V4.92487H115.317V5.42894L114.149 5.61538V13.4941L115.317 13.6736V14.1846H110.854V13.6736L112.015 13.4941V7.32784L108.315 12.921V13.4941L109.476 13.6736V14.1846H105.026Z" fill="#222222"/>
<path d="M117.411 4.92487H124.704V5.42894L123.536 5.61538V13.4941L124.886 13.6805L124.65 17.2021H123.806L122.935 14.1846H117.613L116.715 17.2021H115.871L115.635 13.6805L116.985 13.5079C117.508 12.4583 117.915 11.2591 118.208 9.91035C118.5 8.56155 118.656 7.1322 118.674 5.62228L117.411 5.42894V4.92487ZM121.408 5.68443H119.497C119.488 7.08386 119.349 8.46948 119.079 9.8413C118.809 11.2085 118.435 12.4031 117.958 13.425H121.408V5.68443Z" fill="#222222"/>
<path d="M125.312 14.1846V13.6736L126.473 13.4941V5.61538L125.312 5.42894V4.92487H129.762V5.42894L128.6 5.61538V11.6021L132.301 6.00897V5.61538L131.139 5.42894V4.92487H135.603V5.42894L134.435 5.61538V13.4941L135.603 13.6736V14.1846H131.139V13.6736L132.301 13.4941V7.32784L128.6 12.921V13.4941L129.762 13.6736V14.1846H125.312Z" fill="#222222"/>
<path d="M136.974 5.61538L136.008 5.42894V4.92487H139.999V5.42894L139.101 5.61538V8.54314C139.101 9.0311 139.227 9.40858 139.479 9.67557C139.735 9.94257 140.084 10.0761 140.526 10.0761C141.025 10.0761 141.667 9.94257 142.45 9.67557V5.61538L141.349 5.42894V4.92487H145.752V5.42894L144.584 5.61538V13.4941L145.658 13.6805V14.1846H141.214V13.6805L142.45 13.4941V10.5387C141.442 10.9024 140.622 11.0842 139.992 11.0842C139.24 11.0842 138.651 10.976 138.223 10.7597C137.795 10.5433 137.48 10.228 137.277 9.81368C137.075 9.39477 136.974 8.86998 136.974 8.23931V5.61538Z" fill="#222222"/>
<path d="M146.232 13.6805L147.393 13.4941V5.60847L146.232 5.42894V4.92487H153.943V7.2795H153.329L153.113 5.7811C152.608 5.71665 151.879 5.68443 150.925 5.68443H149.52V9.08174H151.89L152.1 8.05978H152.701V10.9047H152.1L151.89 9.85511H149.52V13.425H151.229C152.39 13.425 153.151 13.3882 153.511 13.3146L153.896 11.6021H154.51L154.382 14.1846H146.232V13.6805Z" fill="#222222"/>
<path d="M160.723 14.3227C159.206 14.3227 158.022 13.9107 157.171 13.0867C156.32 12.2627 155.895 11.121 155.895 9.66176C155.895 8.07819 156.3 6.87671 157.11 6.0573C157.925 5.23329 159.127 4.82129 160.716 4.82129C161.765 4.82129 162.852 4.9755 163.978 5.28393L164.018 7.50737H163.411L163.222 6.16778C162.627 5.75348 161.936 5.54632 161.148 5.54632C160.104 5.54632 159.341 5.88007 158.859 6.54756C158.378 7.21045 158.137 8.24162 158.137 9.64105C158.137 10.9346 158.389 11.9197 158.893 12.5964C159.397 13.2731 160.131 13.6115 161.094 13.6115C161.603 13.6115 162.047 13.5424 162.425 13.4043C162.807 13.2662 163.107 13.1028 163.323 12.9141L163.539 11.3949H164.153L164.113 13.7427C163.708 13.9038 163.181 14.0419 162.533 14.157C161.884 14.2675 161.281 14.3227 160.723 14.3227Z" fill="#222222"/>
<path d="M174.931 4.92487V5.42894L173.823 5.60847L171.034 8.30836L174.411 13.4941L175.12 13.6805V14.1846H172.345L169.576 9.68938L168.739 10.3454V13.4941L170.042 13.6805V14.1846H165.45V13.6805L166.611 13.4941V5.60847L165.45 5.42894V4.92487H169.907V5.42894L168.739 5.60847V9.48223L172.662 5.60847L171.831 5.42894V4.92487H174.931Z" fill="#222222"/>
<path d="M178.138 13.6805V14.1846H175.383V13.6805L176.059 13.4941L179.28 4.84891H181.238L184.445 13.4941L185.134 13.6805V14.1846H181.103V13.6805L182.15 13.4941L181.285 11.098H177.807L176.977 13.4941L178.138 13.6805ZM179.577 6.24374L178.084 10.3385H181.029L179.577 6.24374Z" fill="#222222"/>
<path d="M186.498 7.51428C186.498 6.62582 186.825 5.97214 187.477 5.55323C188.135 5.13432 189.132 4.92487 190.469 4.92487H195V5.42894L193.839 5.60847V13.4941L194.912 13.6805V14.1846H190.543V13.6805L191.705 13.4941V10.2625H190.246L188.193 14.1846H185.263V13.6805L186.242 13.4941L188.166 10.0208C187.63 9.83669 187.219 9.52136 186.93 9.07483C186.642 8.6283 186.498 8.10812 186.498 7.51428ZM188.605 7.52809C188.605 8.2186 188.774 8.72037 189.112 9.0334C189.449 9.34643 189.987 9.50295 190.726 9.50295H191.705V5.68443H190.759C189.967 5.68443 189.409 5.82943 189.085 6.11945C188.765 6.40946 188.605 6.87901 188.605 7.52809Z" fill="#222222"/>
<path d="M90.4809 21.4234V21.9275L89.3734 22.1071L86.5845 24.8069L89.9609 29.9927L90.6699 30.1791V30.6832H87.8946L85.1259 26.188L84.2886 26.844V29.9927L85.5919 30.1791V30.6832H81V30.1791L82.1615 29.9927V22.1071L81 21.9275V21.4234H85.4568V21.9275L84.2886 22.1071V25.9808L88.2119 22.1071L87.3814 21.9275V21.4234H90.4809Z" fill="#222222"/>
<path d="M93.3643 26.043C93.3643 27.5114 93.5601 28.561 93.9518 29.1917C94.3479 29.8177 94.9737 30.1308 95.829 30.1308C96.6799 30.1308 97.3012 29.8154 97.6928 29.1848C98.089 28.5541 98.287 27.5068 98.287 26.043C98.287 24.5837 98.089 23.5479 97.6928 22.9357C97.3012 22.3234 96.6799 22.0173 95.829 22.0173C94.9737 22.0173 94.3479 22.3234 93.9518 22.9357C93.5601 23.5479 93.3643 24.5837 93.3643 26.043ZM91.1224 26.043C91.1224 22.8942 92.6913 21.3199 95.829 21.3199C97.3777 21.3199 98.5482 21.7204 99.3405 22.5214C100.133 23.3177 100.529 24.4916 100.529 26.043C100.529 27.6127 100.128 28.8027 99.327 29.6129C98.5256 30.4185 97.3597 30.8213 95.829 30.8213C94.3029 30.8213 93.137 30.4185 92.3311 29.6129C91.5253 28.8073 91.1224 27.6173 91.1224 26.043Z" fill="#222222"/>
<path d="M107.167 30.6832H106.796L103.453 22.8597V29.9927L104.668 30.1791V30.6832H101.447V30.1791L102.609 29.9927V22.1071L101.447 21.9275V21.4234H105.006L107.592 27.5137L110.233 21.4234H113.866V21.9275L112.704 22.1071V29.9927L113.866 30.1791V30.6832H109.362V30.1791L110.577 29.9927V22.8597L107.167 30.6832Z" fill="#222222"/>
<path d="M114.541 30.6832V30.1722L115.702 29.9927V22.114L114.541 21.9275V21.4234H124.758V21.9275L123.59 22.114V29.9927L124.758 30.1722V30.6832H120.294V30.1722L121.456 29.9927V22.183H117.83V29.9927L118.991 30.1722V30.6832H114.541Z" fill="#222222"/>
<path d="M127.925 30.1791V30.6832H125.17V30.1791L125.845 29.9927L129.066 21.3475H131.024L134.232 29.9927L134.921 30.1791V30.6832H130.889V30.1791L131.936 29.9927L131.072 27.5966H127.594L126.763 29.9927L127.925 30.1791ZM129.363 22.7423L127.871 26.837H130.815L129.363 22.7423Z" fill="#222222"/>
<path d="M135.265 30.6832V30.1722L136.427 29.9927V22.114L135.265 21.9275V21.4234H139.715V21.9275L138.554 22.114V25.5389H142.254V22.114L141.093 21.9275V21.4234H145.556V21.9275L144.388 22.114V29.9927L145.556 30.1722V30.6832H141.093V30.1722L142.254 29.9927V26.2984H138.554V29.9927L139.715 30.1722V30.6832H135.265Z" fill="#222222"/>
<path d="M146.029 30.6832V30.1722L147.191 29.9927V22.114L146.029 21.9275V21.4234H150.479V21.9275L149.318 22.114V28.1007L153.018 22.5075V22.114L151.857 21.9275V21.4234H156.32V21.9275L155.152 22.114V29.9927L156.32 30.1722V30.6832H151.857V30.1722L153.018 29.9927V23.8264L149.318 29.4196V29.9927L150.479 30.1722V30.6832H146.029Z" fill="#222222"/>
<path d="M157.813 24.0129C157.813 23.1244 158.139 22.4707 158.792 22.0518C159.449 21.6329 160.446 21.4234 161.783 21.4234H166.314V21.9275L165.153 22.1071V29.9927L166.227 30.1791V30.6832H161.857V30.1791L163.019 29.9927V26.7611H161.56L159.508 30.6832H156.577V30.1791L157.556 29.9927L159.481 26.5194C158.945 26.3353 158.533 26.0199 158.245 25.5734C157.957 25.1269 157.813 24.6067 157.813 24.0129ZM159.919 24.0267C159.919 24.7172 160.088 25.219 160.426 25.532C160.764 25.845 161.302 26.0015 162.04 26.0015H163.019V22.183H162.074C161.281 22.183 160.723 22.328 160.399 22.618C160.079 22.908 159.919 23.3776 159.919 24.0267Z" fill="#222222"/>
</g>
</svg>
