<svg width="118" height="118" viewBox="0 0 118 118" fill="none" xmlns="http://www.w3.org/2000/svg">
<circle cx="59" cy="59" r="59" fill="#7181AA" fill-opacity="0.6"/>
<path d="M42.7836 72.302C46.4874 72.302 49.6428 70.0799 50.7999 66.9922H34.7676C35.9243 70.0804 39.0797 72.302 42.7836 72.302Z" fill="#12123D"/>
<path d="M51.2725 64.393C51.2725 64.2584 51.219 64.1292 51.1238 64.034C51.0285 63.9387 50.8994 63.8852 50.7647 63.8852H50.5489L43.477 46.8735H50.0896C49.9664 46.4216 49.9664 45.945 50.0896 45.4932H39.7572C39.8848 45.9452 39.8792 46.4245 39.741 46.8735H42.0886L35.0166 63.8852H34.8008C34.6661 63.8852 34.5369 63.9387 34.4417 64.034C34.3465 64.1292 34.293 64.2584 34.293 64.393C34.2928 64.9258 34.3502 65.457 34.4642 65.9774H51.1013C51.2152 65.457 51.2726 64.9258 51.2725 64.393ZM36.1165 63.8852L42.7828 47.8485L49.449 63.8852H36.1165Z" fill="#12123D"/>
<path d="M75.2165 72.302C78.9204 72.302 82.0759 70.0799 83.233 66.9922H67.2002C68.3573 70.0804 71.5127 72.302 75.2165 72.302Z" fill="#12123D"/>
<path d="M83.1983 63.8852H82.9825L75.9105 46.8735H78.2581C78.1199 46.4245 78.1142 45.9452 78.2418 45.4932H67.9095C68.0327 45.945 68.0327 46.4216 67.9095 46.8735H74.5221L67.4502 63.8852H67.2344C67.0997 63.8852 66.9705 63.9387 66.8753 64.034C66.7801 64.1292 66.7266 64.2584 66.7266 64.393C66.7264 64.9258 66.7838 65.457 66.8978 65.9774H83.5349C83.6488 65.457 83.7062 64.9258 83.7061 64.393C83.7061 64.2584 83.6526 64.1292 83.5574 64.034C83.4621 63.9387 83.333 63.8852 83.1983 63.8852ZM68.55 63.8852L75.2163 47.8485L81.8825 63.8852H68.55Z" fill="#12123D"/>
<path d="M58.3096 39.833V43.5502H59.6903V39.833C59.2399 39.9663 58.7605 39.9663 58.3101 39.833H58.3096Z" fill="#12123D"/>
<path d="M58.9999 38.9178C59.2823 38.9178 59.5583 38.8341 59.7931 38.6772C60.0279 38.5203 60.2109 38.2974 60.3189 38.0365C60.427 37.7756 60.4552 37.4886 60.4002 37.2116C60.3451 36.9347 60.2091 36.6803 60.0094 36.4807C59.8098 36.281 59.5554 36.145 59.2785 36.0899C59.0015 36.0348 58.7145 36.0631 58.4536 36.1712C58.1927 36.2792 57.9697 36.4622 57.8129 36.697C57.656 36.9318 57.5723 37.2078 57.5723 37.4902C57.5727 37.8687 57.7232 38.2316 57.9909 38.4992C58.2585 38.7668 58.6214 38.9174 58.9999 38.9178Z" fill="#12123D"/>
<path d="M80.5936 47.5819C80.8759 47.5819 81.152 47.4982 81.3868 47.3413C81.6216 47.1845 81.8046 46.9615 81.9126 46.7006C82.0207 46.4398 82.049 46.1527 81.9939 45.8758C81.9388 45.5988 81.8029 45.3444 81.6032 45.1448C81.4036 44.9451 81.1492 44.8091 80.8722 44.754C80.5953 44.6989 80.3082 44.7272 80.0474 44.8352C79.7865 44.9433 79.5635 45.1263 79.4066 45.361C79.2498 45.5958 79.166 45.8719 79.166 46.1542C79.1664 46.5327 79.317 46.8956 79.5846 47.1632C79.8522 47.4309 80.2151 47.5814 80.5936 47.5819Z" fill="#12123D"/>
<path d="M52.6286 47.7981H65.3706C65.7991 47.7981 66.2101 47.6279 66.5132 47.3248C66.8162 47.0218 66.9864 46.6108 66.9864 46.1823C66.9864 45.7537 66.8162 45.3427 66.5132 45.0397C66.2101 44.7366 65.7991 44.5664 65.3706 44.5664H52.6286C52.2 44.5664 51.789 44.7366 51.486 45.0397C51.1829 45.3427 51.0127 45.7537 51.0127 46.1823C51.0127 46.6108 51.1829 47.0218 51.486 47.3248C51.789 47.6279 52.2 47.7981 52.6286 47.7981Z" fill="#12123D"/>
<path d="M52.29 77.383H53.8201C53.7508 77.3127 53.7034 77.2237 53.6839 77.127C53.6643 77.0302 53.6734 76.9299 53.71 76.8382C54.0766 75.922 54.7662 75.1342 55.7041 74.56C55.8189 74.4907 55.9565 74.4696 56.0868 74.5014C56.2171 74.5332 56.3296 74.6152 56.3996 74.7296C56.4696 74.844 56.4916 74.9814 56.4606 75.1119C56.4297 75.2424 56.3484 75.3554 56.2344 75.4262C55.4846 75.8852 54.9377 76.504 54.6529 77.2156C54.6273 77.2783 54.5893 77.3353 54.5412 77.383H65.7093C65.1886 74.5709 62.356 72.4404 58.9998 72.4404C55.6435 72.4404 52.811 74.5713 52.29 77.383Z" fill="#12123D"/>
<path d="M67.0576 78.3984H66.3201C66.3089 78.3992 66.2978 78.3998 66.2868 78.3998C66.2823 78.3998 66.2782 78.3986 66.2738 78.3984H50.942C50.2995 78.3992 49.6835 78.6547 49.2292 79.1091C48.7748 79.5634 48.5193 80.1794 48.5186 80.8219V81.9376H69.481V80.8219C69.4803 80.1794 69.2248 79.5634 68.7704 79.1091C68.3161 78.6547 67.7001 78.3992 67.0576 78.3984Z" fill="#12123D"/>
<path d="M37.4063 47.5819C37.6886 47.5819 37.9647 47.4981 38.1994 47.3412C38.4342 47.1844 38.6172 46.9614 38.7252 46.7005C38.8332 46.4396 38.8615 46.1526 38.8064 45.8756C38.7513 45.5987 38.6153 45.3443 38.4157 45.1447C38.216 44.945 37.9616 44.8091 37.6847 44.754C37.4077 44.6989 37.1207 44.7272 36.8598 44.8352C36.5989 44.9433 36.376 45.1263 36.2191 45.3611C36.0622 45.5958 35.9785 45.8719 35.9785 46.1542C35.9789 46.5328 36.1295 46.8957 36.3972 47.1633C36.6648 47.431 37.0277 47.5815 37.4063 47.5819Z" fill="#12123D"/>
<path d="M59.6908 71.4524V48.8135H58.3105V71.4525C58.5383 71.4346 58.7682 71.4243 59.0007 71.4243C59.2332 71.4243 59.4627 71.4346 59.6908 71.4524Z" fill="#12123D"/>
</svg>
