<svg width="169" height="163" viewBox="0 0 169 163" fill="none" xmlns="http://www.w3.org/2000/svg">
<g id="Frame" clip-path="url(#clip0_337_8546)">
<g id="Background Complete">
<g id="Group">
<path id="Vector" d="M70.8456 0.19101H19.9827V78.1004H70.8456V0.19101Z" fill="#DBDBDB"/>
<g id="Group_2">
<path id="Vector_2" d="M44.2326 3.31183H22.7549V37.9654H44.2326V3.31183Z" fill="white"/>
<path id="Vector_3" d="M68.0695 3.31183H46.5918V37.9654H68.0695V3.31183Z" fill="white"/>
<path id="Vector_4" d="M44.2326 40.326H22.7549V74.9796H44.2326V40.326Z" fill="white"/>
<path id="Vector_5" d="M68.0695 40.326H46.5918V74.9796H68.0695V40.326Z" fill="white"/>
</g>
<g id="Group_3">
<path id="Vector_6" d="M32.0312 0.19101H19.9827V111.654H32.0312V0.19101Z" fill="#EBEBEB"/>
<g id="Group_4">
<path id="Vector_7" d="M29.7447 5.49295L29.8364 17.5407L29.8708 29.5923L29.9358 53.6955L29.8708 77.7986L29.8364 89.8502L29.7447 101.902L29.6491 89.8502L29.6185 77.7986L29.5535 53.6955L29.6185 29.5923L29.6529 17.5407L29.7447 5.49295Z" fill="white"/>
<path id="Vector_8" d="M24.2117 8.28525L24.3035 19.0457L24.357 29.8062L24.4029 51.331L24.3608 72.8519L24.3073 83.6124L24.2117 94.3729L24.1199 83.6124L24.0664 72.8519L24.0205 51.331L24.0664 29.8062L24.1199 19.0457L24.2117 8.28525Z" fill="white"/>
<path id="Vector_9" d="M26.98 10.8254L27.0718 23.4271L27.1062 36.0249L27.1674 61.2282L27.1062 86.4276L27.0718 99.0293L26.98 111.627L26.8844 99.0293L26.85 86.4276L26.7888 61.2282L26.85 36.0249L26.8844 23.4271L26.98 10.8254Z" fill="white"/>
<path id="Vector_10" d="M22.1546 6.12704L22.2463 19.3131L22.2807 32.503L22.3457 58.879L22.2807 85.2549L22.2502 98.441L22.1546 111.627L22.0628 98.441L22.0284 85.2549L21.9634 58.879L22.0284 32.503L22.0628 19.3131L22.1546 6.12704Z" fill="white"/>
</g>
</g>
<g id="Group_5">
<path id="Vector_11" d="M58.7933 111.654H70.8418L70.8418 0.191002H58.7933L58.7933 111.654Z" fill="#EBEBEB"/>
<g id="Group_6">
<path id="Vector_12" d="M61.0799 5.49295L61.1716 17.5407L61.206 29.5923L61.271 53.6955L61.206 77.7986L61.1754 89.8502L61.0799 101.902L60.9881 89.8502L60.9537 77.7986L60.8887 53.6955L60.9537 29.5923L60.9881 17.5407L61.0799 5.49295Z" fill="white"/>
<path id="Vector_13" d="M66.6128 8.28525L66.7046 19.0457L66.7581 29.8062L66.804 51.331L66.7581 72.8519L66.7046 83.6124L66.6128 94.3729L66.5172 83.6124L66.4637 72.8519L66.4216 51.331L66.4637 29.8062L66.5172 19.0457L66.6128 8.28525Z" fill="white"/>
<path id="Vector_14" d="M63.8443 10.8254L63.9399 23.4271L63.9744 36.0249L64.0355 61.2282L63.9744 86.4276L63.9399 99.0293L63.8443 111.627L63.7526 99.0293L63.7182 86.4276L63.657 61.2282L63.7182 36.0249L63.7526 23.4271L63.8443 10.8254Z" fill="white"/>
<path id="Vector_15" d="M68.6699 6.12704L68.7617 19.3131L68.7961 32.503L68.8611 58.879L68.7961 85.2549L68.7617 98.441L68.6699 111.627L68.5744 98.441L68.5438 85.2549L68.4788 58.879L68.5438 32.503L68.5744 19.3131L68.6699 6.12704Z" fill="white"/>
</g>
</g>
</g>
<g id="Group_7">
<g id="Group_8">
<path id="Vector_16" d="M127.532 34.771C135.45 26.8618 135.45 14.0384 127.532 6.12924C119.615 -1.77996 106.779 -1.77996 98.8617 6.12923C90.9445 14.0384 90.9445 26.8618 98.8617 34.771C106.779 42.6802 119.615 42.6802 127.532 34.771Z" fill="#EBEBEB"/>
<path id="Vector_17" opacity="0.5" d="M119.372 39.7416C108.708 43.1489 97.2979 37.2702 93.8872 26.6205C90.4764 15.9669 96.3573 4.56855 107.018 1.16125C111.113 -0.148949 115.319 -0.0878316 119.143 1.08868C115.996 0.248314 112.577 0.275053 109.247 1.33697C99.9745 4.30116 94.8622 14.2098 97.8294 23.4729C100.793 32.736 110.715 37.8431 119.988 34.8789C129.26 31.9147 134.376 22.0023 131.409 12.743C130.61 10.2448 129.306 8.04842 127.643 6.234C129.807 8.42658 131.505 11.1463 132.507 14.2786C135.917 24.9321 130.036 36.3305 119.372 39.7378V39.7416Z" fill="#DBDBDB"/>
<path id="Vector_18" d="M105.473 18.7096C105.955 20.2108 105.125 21.8151 103.622 22.2926C102.12 22.7739 100.514 21.945 100.036 20.4438C99.5577 18.9426 100.384 17.3382 101.886 16.8608C103.389 16.3795 104.995 17.2084 105.473 18.7096Z" fill="#C7C7C7"/>
<path id="Vector_19" d="M123.915 12.8194C124.397 14.3206 123.567 15.9249 122.064 16.4024C120.561 16.8837 118.956 16.0548 118.478 14.5536C117.996 13.0524 118.826 11.4481 120.328 10.9706C121.831 10.4893 123.437 11.3182 123.915 12.8194Z" fill="#C7C7C7"/>
<g id="Group_9">
<path id="Vector_20" d="M115.809 14.5001C116.118 15.4704 116.065 16.4712 115.724 17.3535C115.273 18.5224 114.313 19.4888 113.021 19.9014C111.732 20.3139 110.39 20.0847 109.343 19.3933C108.555 18.87 107.928 18.0869 107.618 17.1167L115.812 14.5001H115.809Z" fill="#C7C7C7"/>
<path id="Vector_21" d="M115.724 17.3535C115.273 18.5224 114.313 19.4888 113.021 19.9014C111.732 20.3139 110.39 20.0847 109.343 19.3933C109.939 18.3964 110.922 17.5865 112.157 17.1931C113.392 16.7997 114.661 16.8875 115.724 17.3535Z" fill="#DBDBDB"/>
</g>
</g>
<g id="Group_10">
<path id="Vector_22" d="M160.006 63.9843C161.913 56.1562 157.107 48.2656 149.271 46.3602C141.435 44.4548 133.536 49.2561 131.629 57.0843C129.722 64.9124 134.528 72.803 142.364 74.7084C150.2 76.6138 158.099 71.8125 160.006 63.9843Z" fill="#EBEBEB"/>
<path id="Vector_23" opacity="0.5" d="M142.108 74.6396C134.308 72.596 129.643 64.6202 131.688 56.8277C133.734 49.0352 141.718 44.375 149.515 46.4186C152.512 47.2055 155.044 48.8633 156.913 51.0521C155.327 49.3255 153.239 48.023 150.799 47.3851C144.016 45.6088 137.076 49.6579 135.298 56.4343C133.52 63.2106 137.577 70.1436 144.356 71.9199C151.14 73.6961 158.083 69.6432 159.862 62.8707C160.339 61.0448 160.397 59.2036 160.087 57.4618C160.557 59.6315 160.534 61.9386 159.934 64.2305C157.888 72.023 149.905 76.6832 142.104 74.6396H142.108Z" fill="#DBDBDB"/>
<path id="Vector_24" d="M155.281 60.0287C154.994 61.125 153.87 61.782 152.769 61.4955C151.671 61.2091 151.014 60.086 151.3 58.9859C151.587 57.8896 152.711 57.2326 153.813 57.5191C154.91 57.8056 155.568 58.9286 155.281 60.0287Z" fill="#C7C7C7"/>
<path id="Vector_25" d="M141.791 56.4915C141.504 57.5878 140.38 58.2449 139.278 57.9584C138.181 57.6719 137.523 56.5488 137.81 55.4487C138.097 54.3524 139.221 53.6954 140.322 53.9819C141.42 54.2684 142.077 55.3914 141.791 56.4915Z" fill="#C7C7C7"/>
<path id="Vector_26" d="M143.179 55.9338C143.198 56.8506 143.427 57.7406 143.905 58.432C144.387 59.1234 145.129 59.5627 145.951 59.7842C146.765 60.0211 147.626 60.0058 148.39 59.6467C149.155 59.2915 149.82 58.6574 150.344 57.9049C150.077 58.7873 149.488 59.6047 148.643 60.1204C148.222 60.3801 147.733 60.5291 147.236 60.5864C146.738 60.6284 146.238 60.5711 145.763 60.4412C145.297 60.3037 144.838 60.1051 144.433 59.8186C144.031 59.5245 143.679 59.1463 143.45 58.7109C142.98 57.8361 142.919 56.8162 143.179 55.9338Z" fill="#C7C7C7"/>
</g>
</g>
<g id="Group_11">
<path id="Vector_27" d="M155.648 88.4483H121.907V135.092H155.648V88.4483Z" fill="#EBEBEB"/>
<path id="Vector_28" d="M157.284 86.7179H120.275V88.4483H157.284V86.7179Z" fill="#DBDBDB"/>
<path id="Vector_29" d="M168.924 86.7179H157.284V88.4483H168.924V86.7179Z" fill="#EBEBEB"/>
<path id="Vector_30" d="M167.081 88.4483H155.648V135.092H167.081V88.4483Z" fill="#DBDBDB"/>
<g id="Group_12">
<path id="Vector_31" d="M151.973 95.133H125.582V109.996H151.973V95.133Z" stroke="#C7C7C7" stroke-width="0.25" stroke-miterlimit="10"/>
<g id="Group_13">
<path id="Vector_32" d="M140.238 99.4609H135.084V102.421H140.238V99.4609Z" fill="#C7C7C7"/>
<path id="Vector_33" d="M141.76 99.6824H136.606V102.196H141.76V99.6824Z" stroke="#C7C7C7" stroke-width="0.25" stroke-miterlimit="10"/>
</g>
</g>
<g id="Group_14">
<path id="Vector_34" d="M151.973 113.911H125.582V128.774H151.973V113.911Z" stroke="#C7C7C7" stroke-width="0.25" stroke-miterlimit="10"/>
<g id="Group_15">
<path id="Vector_35" d="M140.238 118.239H135.084V121.2H140.238V118.239Z" fill="#C7C7C7"/>
<path id="Vector_36" d="M141.76 118.461H136.606V120.974H141.76V118.461Z" stroke="#C7C7C7" stroke-width="0.25" stroke-miterlimit="10"/>
</g>
</g>
</g>
<g id="Group_16">
<path id="Vector_37" d="M15.964 74.8879L10.9473 74.9948L8.40069 75.0368C7.54801 75.0559 6.69532 75.0521 5.84263 75.056H5.67439V74.8841L5.65527 70.6097V70.4187H5.84646L10.909 70.4416C12.5953 70.4416 14.2854 70.4836 15.9716 70.5027H16.0787V70.6058C16.071 71.3316 16.0443 72.0536 16.029 72.764L15.9754 74.8802L15.964 74.8879ZM15.964 74.8879L15.9104 72.7297C15.8913 72.0192 15.8684 71.3163 15.8607 70.6135L15.964 70.7166C14.2777 70.7357 12.5876 70.7777 10.9014 70.7777L5.83881 70.8007L6.03 70.6097L6.01088 74.8841L5.83881 74.7122C6.67238 74.7198 7.50595 74.7122 8.34334 74.7351L10.8593 74.7771L15.9678 74.8841L15.964 74.8879Z" fill="#EBEBEB"/>
<path id="Vector_38" d="M10.3164 80.2776L5.29973 80.3846L2.75315 80.4266C1.90046 80.4457 1.04778 80.4419 0.195091 80.4495H0.0230248V80.2776L0.00390625 76.0032V75.8123H0.195091L5.25767 75.8352C6.94393 75.8352 8.634 75.8772 10.3203 75.8963H10.4273V75.9994C10.4197 76.7252 10.3929 77.4471 10.3776 78.1576L10.3241 80.2738L10.3164 80.2776ZM10.3164 80.2776L10.2629 78.1194C10.2438 77.4089 10.2208 76.7061 10.2132 76.0032L10.3164 76.1064C8.63018 76.1255 6.9401 76.1675 5.25385 76.1675L0.191268 76.1904L0.382453 75.9994L0.363334 80.2738L0.191268 80.1019C1.02483 80.1096 1.8584 80.1019 2.69579 80.1248L5.21179 80.1669L10.3203 80.2738L10.3164 80.2776Z" fill="#EBEBEB"/>
<path id="Vector_39" d="M167.409 80.2776L162.393 80.3846L159.846 80.4266C158.993 80.4457 158.141 80.4419 157.288 80.4495H157.12V80.2776L157.101 76.0032V75.8123H157.292L162.354 75.8352C164.041 75.8352 165.731 75.8772 167.417 75.8963H167.524V75.9994C167.516 76.7252 167.49 77.4471 167.474 78.1576L167.421 80.2738L167.409 80.2776ZM167.409 80.2776L167.356 78.1194C167.337 77.4089 167.314 76.7061 167.306 76.0032L167.409 76.1064C165.723 76.1255 164.033 76.1675 162.347 76.1675L157.284 76.1904L157.475 75.9994L157.456 80.2738L157.284 80.1019C158.118 80.1096 158.951 80.1019 159.789 80.1248L162.305 80.1669L167.413 80.2738L167.409 80.2776Z" fill="#EBEBEB"/>
<path id="Vector_40" d="M161.762 4.46539L156.745 4.57234L154.199 4.61436C153.346 4.63346 152.493 4.62964 151.64 4.63728H151.472V4.46539L151.453 0.190992V0H151.644L156.707 0.022919C158.393 0.022919 160.083 0.0649372 161.769 0.0840364H161.877V0.187172C161.869 0.912941 161.842 1.63489 161.827 2.34538L161.773 4.46157L161.762 4.46539ZM161.762 4.46539L161.708 2.30718C161.689 1.59669 161.666 0.893841 161.659 0.190992L161.762 0.294127C160.076 0.313226 158.385 0.355245 156.699 0.355245L151.637 0.378164L151.828 0.187172L151.809 4.46157L151.637 4.28967C152.47 4.29731 153.304 4.28967 154.141 4.31259L156.657 4.35461L161.766 4.46157L161.762 4.46539Z" fill="#EBEBEB"/>
<path id="Vector_41" d="M167.409 9.85516L162.393 9.96212L159.846 10.0041C158.993 10.0232 158.141 10.0194 157.288 10.0232H157.12V9.85134L157.101 5.57695V5.38596H157.292L162.354 5.40887C164.041 5.40887 165.731 5.45089 167.417 5.46999H167.524V5.57313C167.516 6.2989 167.49 7.02085 167.474 7.73133L167.421 9.84752L167.409 9.85516ZM167.409 9.85516L167.356 7.69696C167.337 6.98647 167.314 6.28362 167.306 5.58077L167.409 5.6839C165.723 5.703 164.033 5.74502 162.347 5.74502L157.284 5.76794L157.475 5.57695L157.456 9.85134L157.284 9.67945C158.118 9.68709 158.951 9.67945 159.789 9.70237L162.305 9.74439L167.413 9.85134L167.409 9.85516Z" fill="#EBEBEB"/>
<path id="Vector_42" d="M15.964 4.46539L10.9473 4.57234L8.40069 4.61436C7.54801 4.63346 6.69532 4.62964 5.84263 4.63728H5.67439V4.46539L5.65527 0.190992V0H5.84646L10.909 0.022919C12.5953 0.022919 14.2854 0.0649372 15.9716 0.0840364H16.0787V0.187172C16.071 0.912941 16.0443 1.63489 16.029 2.34538L15.9754 4.46157L15.964 4.46539ZM15.964 4.46539L15.9104 2.30718C15.8913 1.59669 15.8684 0.893841 15.8607 0.190992L15.964 0.294127C14.2777 0.313226 12.5876 0.355245 10.9014 0.355245L5.83881 0.378164L6.03 0.187172L6.01088 4.46157L5.83881 4.28967C6.67238 4.29731 7.50595 4.28967 8.34334 4.31259L10.8593 4.35461L15.9678 4.46157L15.964 4.46539Z" fill="#EBEBEB"/>
</g>
</g>
<g id="Shadow">
<path id="Vector_43" d="M86.6261 163C111.082 163 130.908 160.127 130.908 156.583C130.908 153.038 111.082 150.165 86.6261 150.165C62.1696 150.165 42.3438 153.038 42.3438 156.583C42.3438 160.127 62.1696 163 86.6261 163Z" fill="#EBEBEB"/>
</g>
<g id="Floor">
<path id="Vector_44" d="M4.24805 135.092L24.8425 135.001L45.437 134.966L86.6259 134.905L127.811 134.966L148.405 135.001L169 135.092L148.405 135.188L127.811 135.222L86.6259 135.283L45.437 135.222L24.8425 135.188L4.24805 135.092Z" fill="#263238"/>
</g>
<g id="Plant">
<g id="Group_17">
<g id="Group_18">
<g id="Group_19">
<path id="Vector_45" d="M28.8116 104.587C28.4637 106.073 28.0928 107.532 28.0201 109.056C28.0622 109.133 28.0545 109.408 28.0086 109.331C28.001 109.576 27.6263 109.534 27.6263 109.289C27.6263 109.133 27.6339 108.972 27.6416 108.819C26.7659 107.735 25.5003 107.047 24.4717 106.107C23.642 105.343 23.0493 104.438 22.7358 103.346C21.8831 100.416 22.6822 97.3141 21.6575 94.3919C20.7742 91.8708 19.195 89.6821 17.8529 87.4016C16.4381 84.9875 15.3981 82.4511 15.291 79.6244C15.2069 77.4586 15.4669 74.5746 17.1149 72.955C18.8623 71.2323 21.0342 72.5234 22.3725 74.0589C26.2574 78.5129 28.0545 84.1395 28.781 89.8922C29.1825 93.0779 29.5993 96.2789 29.4999 99.4952C29.4464 101.222 29.1978 102.91 28.804 104.591L28.8116 104.587Z" fill="#FFC727"/>
<path id="Vector_46" d="M28.0391 110.225C28.2418 107.215 28.2265 104.201 27.9321 101.203C27.9359 101.191 27.9473 101.184 27.9473 101.168C27.9971 98.7313 28.1921 96.3018 28.0926 93.861C27.9894 91.21 27.5994 88.6087 27.0182 86.0227C27.0105 85.9921 26.9647 85.9997 26.9723 86.0303C27.4503 88.5552 27.7294 91.1298 27.8212 93.6967C27.8709 95.0757 27.8594 96.4546 27.7867 97.8298C27.7638 98.2767 27.7217 98.7274 27.6912 99.182C27.6912 99.182 27.6912 99.182 27.6912 99.1782C26.7085 92.3139 24.1695 85.8049 20.4299 79.9797C20.3802 79.8995 20.2388 79.9835 20.2885 80.0675C22.9842 84.4642 24.9725 89.2924 26.1999 94.3041C24.3339 90.8471 21.5121 88.0052 19.4167 84.6819C19.4052 84.6628 19.3746 84.6819 19.3861 84.701C21.2673 88.3986 24.3722 91.3131 26.3529 94.9573C26.697 96.4432 26.9761 97.9406 27.1864 99.4494C27.4732 101.52 27.607 103.602 27.6376 105.691C26.502 103.567 25.3205 101.535 24.3875 99.289C24.3645 99.2278 24.2766 99.2699 24.2957 99.331C25.0872 101.665 26.1502 104.178 27.6414 106.168C27.6491 107.647 27.607 109.125 27.5191 110.599C27.2858 114.538 26.6129 118.423 26.3032 122.349C26.2955 122.468 26.4599 122.483 26.4829 122.368C27.3011 118.407 27.7676 114.267 28.0391 110.229V110.225Z" fill="#263238"/>
<path id="Vector_47" d="M23.8524 79.8498C23.8409 79.8231 23.7988 79.8422 23.8103 79.8689C24.5292 81.8591 24.9383 83.8721 25.4583 85.9119C25.4813 86.0036 25.6151 85.9845 25.6075 85.889C25.3971 83.8186 24.6554 81.7559 23.8562 79.8498H23.8524Z" fill="#263238"/>
</g>
<g id="Group_20">
<path id="Vector_48" d="M42.1371 88.1885C41.6706 89.3574 41.0894 90.4881 40.4815 91.5882C39.1852 93.9412 37.8316 96.0956 37.5869 98.8344C37.476 100.057 37.4378 101.287 37.0669 102.463C36.7457 103.483 36.2218 104.427 35.6177 105.305C34.2106 107.349 32.4555 109.114 31.1516 111.234C29.798 113.438 28.7962 115.867 28.1844 118.38C28.1538 118.518 27.9359 118.48 27.9665 118.342C27.9703 118.331 27.9741 118.323 27.9741 118.312C27.9703 118.304 27.9627 118.296 27.9627 118.281C27.7562 112.406 28.2265 106.489 30.0198 100.863C30.8037 98.4027 31.7711 95.9542 32.8685 93.6165C33.8282 91.5767 35.025 89.6133 36.7113 88.0892C37.8049 87.1037 40.1794 85.2396 41.7356 86.2251C42.4851 86.6988 42.4277 87.4513 42.1333 88.1847L42.1371 88.1885Z" fill="#FFC727"/>
<path id="Vector_49" d="M36.2295 101.504C35.2201 103.227 34.0271 104.828 32.8111 106.409C32.2414 107.15 31.664 107.887 31.0981 108.632C30.8305 108.984 30.5284 109.335 30.2837 109.709C30.4404 109.091 30.5896 108.472 30.7463 107.857C31.5034 104.889 32.2338 101.894 33.3656 99.0407C34.4706 96.2522 35.9389 93.6318 37.4493 91.0458C37.4875 90.977 37.3805 90.9273 37.3384 90.9961C36.0957 93.0359 34.8339 95.0757 33.79 97.2263C33.205 98.4295 32.7155 99.6633 32.2835 100.924C32.792 98.227 33.4 95.6372 34.2871 93.0244C34.2947 93.0015 34.2603 92.9862 34.2527 93.0092C33.1706 95.5684 32.3905 98.4524 32.1726 101.226C32.1726 101.229 32.1726 101.233 32.1764 101.237C31.9202 102.001 31.687 102.769 31.469 103.544C30.5437 106.829 29.7292 110.149 28.976 113.483C28.9874 111.283 29.1289 109.121 29.5419 106.952C29.5495 106.902 29.4769 106.89 29.4654 106.94C28.9186 109.175 28.6739 111.528 28.8995 113.827C28.6127 115.095 28.3374 116.364 28.0659 117.632C27.4885 120.34 26.7773 123.094 26.4408 125.844C26.4332 125.917 26.5326 125.932 26.5479 125.864C26.9494 124.381 27.1941 122.846 27.523 121.345C27.8556 119.84 28.1959 118.338 28.5439 116.837C29.0563 114.652 29.5878 112.471 30.1345 110.294C30.4978 109.496 31.2014 108.789 31.729 108.117C32.3064 107.383 32.8876 106.646 33.4497 105.901C34.4974 104.511 35.461 103.067 36.2792 101.527C36.2984 101.493 36.2448 101.47 36.2257 101.504H36.2295Z" fill="#263238"/>
<path id="Vector_50" d="M36.4781 98.991C35.2048 100.626 34.0462 102.436 33.1361 104.297C33.1247 104.32 33.1629 104.346 33.1782 104.323C34.3024 102.563 35.4112 100.786 36.5316 99.0216C36.5507 98.991 36.501 98.9604 36.4781 98.9872V98.991Z" fill="#263238"/>
</g>
<g id="Group_21">
<path id="Vector_51" d="M11.4521 93.7578C12.213 95.068 13.0848 96.6418 12.7559 98.2156C12.5495 99.2125 11.8191 100.022 11.6853 101.038C11.3909 103.281 13.6277 104.763 15.249 105.825C19.2868 108.472 24.8235 110.829 25.5577 116.234C25.5845 116.425 25.9171 116.379 25.8942 116.192C25.8942 116.18 25.8904 116.169 25.8865 116.157C25.8942 116.146 25.9057 116.142 25.9057 116.127C26.4295 113.388 26.418 110.599 25.8292 107.872C25.225 105.087 24.0091 102.585 22.5752 100.137C20.1472 95.9962 17.5738 91.7562 13.8992 88.5858C12.8821 87.7072 10.7982 86.1296 9.9914 88.1121C9.20372 90.0373 10.5229 92.165 11.4559 93.7616L11.4521 93.7578Z" fill="#FFC727"/>
<path id="Vector_52" d="M15.1457 102.536C17.8223 105.431 22.0781 107.055 24.38 110.298C23.0149 105.328 20.7551 100.859 17.2832 96.9779C17.1952 96.8786 17.3329 96.7373 17.4323 96.829C19.9751 99.2698 21.8601 102.127 23.2329 105.221C22.6134 103.009 21.7493 100.92 20.736 98.8382C20.6977 98.758 20.8086 98.6931 20.8545 98.7695C22.1469 100.973 23.0073 103.449 23.5464 105.943C26.5824 113.285 26.8654 121.895 26.2268 129.634C26.2192 129.744 26.0509 129.748 26.0509 129.634C26.2268 123.533 26.1274 117.33 24.6629 111.375C24.6323 111.249 24.5979 111.127 24.5673 111.004C22.059 107.513 17.8223 105.897 15.0998 102.582C15.0731 102.551 15.1151 102.505 15.1457 102.536Z" fill="#263238"/>
<path id="Vector_53" d="M14.5264 100.049C15.9335 101.336 17.3138 102.654 18.721 103.941C18.7362 103.953 18.7171 103.98 18.7018 103.968C17.1685 102.933 15.6123 101.566 14.4422 100.133C14.3963 100.076 14.469 99.9956 14.5264 100.049Z" fill="#263238"/>
<path id="Vector_54" d="M14.3045 94.4721C15.5816 96.5157 16.9199 98.4333 18.5067 100.248C18.5258 100.271 18.4952 100.305 18.4723 100.282C16.7669 98.6396 15.2489 96.6533 14.228 94.5141C14.205 94.4645 14.2739 94.4225 14.3045 94.4683V94.4721Z" fill="#263238"/>
</g>
</g>
<g id="Group_22">
<g id="Group_23">
<path id="Vector_55" d="M20.6289 135.092H32.9374L31.2779 118.552H22.5255L20.6289 135.092Z" fill="#455A64"/>
<path id="Vector_56" d="M22.2158 121.242H31.5495L31.278 118.552H22.5255L22.2158 121.242Z" fill="#263238"/>
</g>
<path id="Vector_57" d="M21.0152 119.358H32.5513V116.719H21.0152V119.358Z" fill="#455A64"/>
</g>
</g>
</g>
<g id="Character">
<g id="Group_24">
<g id="Group_25">
<g id="Group_26">
<g id="Group_27">
<path id="Vector_58" d="M80.4083 117.441C80.4083 117.441 91.283 131.792 91.2906 131.8C93.386 134.535 95.1717 136.968 95.9785 138.312C95.9823 138.32 95.9899 138.324 95.9899 138.335C96.2958 138.843 96.4564 139.191 96.4335 139.332C96.4335 139.344 96.4335 139.351 96.4335 139.363C96.0396 140.536 74.6651 157.889 73.713 158.244C72.7648 158.603 71.6788 155.922 71.9694 154.589C72.2677 153.248 77.4756 142.95 77.4756 142.95L66.7424 128.503L80.4083 117.441Z" fill="#EB9481"/>
<path id="Vector_59" d="M89.0575 128.854C89.0575 128.854 91.2829 131.792 91.2905 131.8C93.3859 134.535 95.1716 136.968 95.9784 138.312C95.9822 138.32 95.9899 138.324 95.9899 138.335C96.2652 138.859 96.4258 139.218 96.4334 139.332C96.4334 139.344 96.4334 139.351 96.4334 139.363C96.0396 140.536 74.6651 157.889 73.713 158.244C72.7647 158.603 71.6788 155.922 71.9694 154.589C72.2676 153.248 77.4755 142.95 77.4755 142.95L75.1698 139.989L89.0575 128.851V128.854Z" fill="#EBEBEB"/>
<g id="Group_28">
<path id="Vector_60" d="M73.713 158.248C74.6651 157.893 96.0396 140.543 96.4335 139.363C96.5903 138.92 94.2425 135.658 91.2906 131.803C91.26 131.765 91.2294 131.723 91.1988 131.685L77.2844 142.724L77.4794 142.953C77.4794 142.953 72.2715 153.252 71.9733 154.593C71.6827 155.926 72.7686 158.607 73.7169 158.248H73.713Z" fill="#FFC727"/>
<g id="Group_29">
<path id="Vector_61" d="M73.2809 157.221C76.814 154.207 91.3402 142.384 95.0607 139.676C95.0913 139.653 95.1066 139.676 95.0798 139.699C91.6461 142.762 77.0205 154.466 73.3306 157.282C73.2541 157.343 73.2082 157.285 73.2809 157.224V157.221Z" fill="#263238"/>
<path id="Vector_62" d="M76.3474 143.935C77.5519 142.518 79.4599 141.33 81.3641 141.46C81.4367 141.464 81.4291 141.571 81.3717 141.594C79.6128 142.289 78.0795 143.068 76.4965 144.111C76.3856 144.183 76.2595 144.038 76.3436 143.935H76.3474Z" fill="#263238"/>
<path id="Vector_63" d="M75.8274 145.383C77.0318 143.966 78.9399 142.778 80.8441 142.908C80.9167 142.911 80.9091 143.018 80.8517 143.041C79.0928 143.737 77.5595 144.516 75.9765 145.559C75.8656 145.631 75.7394 145.486 75.8236 145.383H75.8274Z" fill="#263238"/>
<path id="Vector_64" d="M75.3037 146.831C76.5082 145.413 78.4162 144.225 80.3204 144.355C80.393 144.359 80.3854 144.466 80.328 144.489C78.5691 145.184 77.0358 145.963 75.4528 147.006C75.3419 147.079 75.2158 146.934 75.2999 146.831H75.3037Z" fill="#263238"/>
</g>
</g>
</g>
<g id="Group_30">
<path id="Vector_65" d="M90.4839 129.924L75.5906 142.388C75.5906 142.388 58.4489 120.52 54.587 109.484C51.8378 101.627 64.5439 62.3091 64.5439 62.3091L80.7794 61.209C80.7794 61.209 70.268 99.0789 71.4342 102.757C72.8567 107.238 90.4801 129.924 90.4801 129.924H90.4839Z" fill="#37474F"/>
<g id="Group_31">
<path id="Vector_66" d="M73.9309 138.809C76.2443 136.888 75.556 137.407 77.8923 135.512C79.0356 134.584 86.553 128.503 87.7727 127.827C87.7995 127.812 87.8301 127.854 87.811 127.877C86.878 128.912 79.2535 134.859 78.0911 135.765C75.7204 137.613 76.3781 137.056 73.9883 138.878C73.9424 138.912 73.8889 138.843 73.9348 138.809H73.9309Z" fill="#263238"/>
<path id="Vector_67" d="M85.536 127.22C82.7638 123.755 80.0528 120.237 77.4374 116.654C74.8411 113.094 72.2716 109.484 69.9391 105.744C69.4076 104.889 68.8991 104.003 68.597 103.04C68.2529 101.936 68.2949 100.828 68.4785 99.6977C68.8455 97.486 69.3044 95.2858 69.767 93.0932C70.7 88.6927 71.7592 84.3152 72.9484 79.9759C74.1337 75.6365 75.4605 71.3392 76.8638 67.0648C77.0359 66.5377 77.2118 66.0105 77.3877 65.4872C77.4144 65.407 77.2921 65.3803 77.2615 65.4567C75.6861 69.7387 74.279 74.0819 73.0172 78.467C71.7592 82.8293 70.6388 87.2297 69.6638 91.6646C69.1744 93.8915 68.7193 96.1261 68.2987 98.3645C68.0923 99.457 67.8475 100.576 67.9087 101.695C67.9623 102.677 68.2758 103.617 68.704 104.495C69.1629 105.443 69.7594 106.314 70.3444 107.188C70.9639 108.117 71.5871 109.041 72.218 109.962C73.4913 111.818 74.7914 113.655 76.1182 115.474C78.7566 119.076 81.4752 122.651 84.3889 126.039C84.7445 126.456 85.1039 126.868 85.4595 127.281C85.4939 127.319 85.5589 127.265 85.5283 127.223L85.536 127.22Z" fill="#263238"/>
</g>
<path id="Vector_68" d="M80.7831 61.209C80.7831 61.209 77.7165 72.256 75.0782 82.9974C72.1225 76.8818 67.0828 66.3582 65.3889 62.248L80.7831 61.209Z" fill="#263238"/>
</g>
</g>
<g id="Group_32">
<g id="Group_33">
<path id="Vector_69" d="M100.097 86.3897C100.097 86.3897 109.794 73.6582 109.801 73.6467C112.065 71.0492 114.095 68.8146 115.25 67.7565C115.254 67.7489 115.262 67.745 115.269 67.7412C115.705 67.3401 116.015 67.111 116.16 67.1071C116.172 67.1071 116.179 67.1033 116.191 67.1071C117.422 67.2561 138.712 84.7128 139.252 85.5722C139.795 86.4317 137.382 88.0284 136.013 88.0093C134.64 87.9864 123.498 84.9458 123.498 84.9458L113.17 97.6926L100.093 86.3935L100.097 86.3897Z" fill="#EB9481"/>
<path id="Vector_70" d="M116.164 67.1068C116.164 67.1068 116.179 67.0992 116.191 67.0992C117.422 67.252 138.712 84.7086 139.252 85.5681C139.795 86.4276 137.382 88.0243 136.013 88.009C134.636 87.9822 123.498 84.9455 123.498 84.9455L121.64 87.501C118.126 84.6628 111.729 79.4564 107.844 76.221C108.926 74.7007 109.798 73.654 109.801 73.6502C112.061 71.0527 114.092 68.8181 115.25 67.7639C115.258 67.7562 115.262 67.7486 115.273 67.7448C115.709 67.3437 116.019 67.1145 116.164 67.1107V67.1068Z" fill="#EBEBEB"/>
<g id="Group_34">
<path id="Vector_71" d="M139.252 85.5681C138.712 84.7087 117.422 67.252 116.191 67.103C115.724 67.0381 112.998 69.9908 109.805 73.6502C109.771 73.6884 109.74 73.7266 109.706 73.7648L123.314 85.1785L123.502 84.9417C123.502 84.9417 134.644 87.9823 136.017 88.0052C137.382 88.0243 139.795 86.4276 139.255 85.5681H139.252Z" fill="#FFC727"/>
<g id="Group_35">
<path id="Vector_72" d="M138.334 86.1946C134.671 83.3412 120.175 71.4806 116.772 68.3827C116.745 68.356 116.761 68.3369 116.791 68.3598C120.481 71.1101 134.881 83.0852 138.384 86.1373C138.456 86.2022 138.414 86.2557 138.334 86.1946Z" fill="#263238"/>
<path id="Vector_73" d="M124.687 85.847C123.058 84.9531 121.51 83.3182 121.257 81.4312C121.246 81.3587 121.353 81.3434 121.387 81.3969C122.42 82.9783 123.49 84.3267 124.832 85.6674C124.928 85.7629 124.809 85.9157 124.691 85.8508L124.687 85.847Z" fill="#263238"/>
<path id="Vector_74" d="M126.213 86.0685C124.584 85.1747 123.035 83.5398 122.783 81.6528C122.771 81.5802 122.878 81.5649 122.913 81.6184C123.945 83.1998 125.016 84.5482 126.358 85.889C126.454 85.9845 126.335 86.1373 126.217 86.0724L126.213 86.0685Z" fill="#263238"/>
<path id="Vector_75" d="M127.735 86.2901C126.106 85.3962 124.557 83.7614 124.305 81.8744C124.293 81.8018 124.4 81.7865 124.435 81.84C125.467 83.4214 126.538 84.7698 127.88 86.1106C127.976 86.206 127.857 86.3588 127.738 86.2939L127.735 86.2901Z" fill="#263238"/>
</g>
</g>
</g>
<g id="Group_36">
<path id="Vector_76" d="M64.8269 62.2748C64.8269 62.2748 64.8269 62.2786 64.8307 62.29C64.9225 62.6185 66.4176 67.8059 67.9012 72.2445C68.9794 75.4876 70.0577 78.3333 70.5854 78.5969C71.1819 78.8949 74.0535 79.9415 75.0132 80.2662C75.0132 80.2662 81.1962 101.623 86.3391 108.571C88.1018 110.951 96.1316 113.334 100.062 110.764C109.274 104.728 122.924 89.0327 122.924 89.0327L107.021 76.0491L95.7683 90.9655C92.977 85.7973 91.4666 75.3653 91.4666 75.3653C91.4666 75.3653 90.8319 65.0403 87.0503 60.7697L64.8307 62.2709L64.8269 62.2748Z" fill="#37474F"/>
<g id="Group_37">
<path id="Vector_77" d="M119.07 90.9273C116.676 89.1091 117.338 89.663 114.963 87.818C113.801 86.9165 106.173 80.9729 105.236 79.9415C105.217 79.9186 105.247 79.8804 105.274 79.8918C106.494 80.5679 114.019 86.6415 115.162 87.5697C117.502 89.4605 116.81 88.9448 119.127 90.8586C119.169 90.893 119.12 90.9617 119.074 90.9273H119.07Z" fill="#263238"/>
<path id="Vector_78" d="M86.5607 72.8137C86.0483 72.7182 85.5092 72.7144 84.993 72.6685C84.5762 72.6303 84.1594 72.5845 83.7426 72.5234C82.9626 72.405 82.1635 72.2025 81.502 71.7556C80.7563 71.2514 80.3396 70.4377 79.9419 69.6585C79.7048 69.1963 79.4639 68.7341 79.2192 68.2757C79.1007 68.0542 78.9821 67.8326 78.8598 67.6111C78.7183 67.3513 78.5271 67.0877 78.4162 66.8127C78.4009 66.7745 78.3359 66.7974 78.3551 66.8356C78.4468 67.0152 78.4965 67.2253 78.5692 67.4163C78.6533 67.6416 78.7374 67.867 78.8215 68.0924C78.9783 68.4934 79.1274 68.8984 79.2919 69.2956C79.5863 70.0099 79.8539 70.7624 80.3128 71.3927C81.1502 72.5463 82.5382 72.9397 83.9032 73.02C84.2933 73.0429 84.6871 73.0429 85.0809 73.0391C85.5666 73.0352 86.0828 73.039 86.5607 72.9512C86.6334 72.9359 86.6487 72.829 86.5684 72.8137H86.5607Z" fill="#263238"/>
<g id="Group_38">
<path id="Vector_79" d="M69.0481 77.959C71.0861 78.5091 73.0706 79.3494 74.9786 80.2433C75.0551 80.2776 75.0131 80.3922 74.9328 80.3655C72.9406 79.6665 70.9102 79.0056 68.9601 78.1958C68.8072 78.1309 68.8913 77.917 69.0481 77.959Z" fill="#263238"/>
<path id="Vector_80" d="M67.5684 64.75C67.5684 64.6813 67.6869 64.6583 67.6908 64.7309C67.8322 67.0266 68.1152 69.0397 68.4517 71.1712C68.6085 72.1605 69.7862 77.6152 71.4877 77.0957C71.7745 77.0079 71.9007 76.7137 71.916 76.2745C71.9351 75.7473 71.6942 75.117 71.5718 74.6014C71.3003 73.4631 71.0709 72.3171 70.8912 71.1597C70.5585 68.9977 70.4018 66.8242 70.5203 64.6392C70.5203 64.5667 70.6274 64.5667 70.6312 64.6392C70.8338 67.6493 71.1168 70.6478 71.7668 73.5968C72.0804 75.0139 72.9483 77.1225 71.4648 77.4433C69.9544 77.7718 68.7193 74.227 68.467 73.2491C67.7596 70.5256 67.5378 67.5538 67.5684 64.75Z" fill="#263238"/>
<path id="Vector_81" d="M71.4534 77.2485C71.6331 77.6076 71.786 77.9858 71.9199 78.3639C72.0231 78.658 72.1569 78.9751 72.1455 79.2921C72.1455 79.3533 72.0613 79.3647 72.0269 79.3265C71.8052 79.082 71.6981 78.7383 71.5643 78.4403C71.4075 78.0965 71.2469 77.7566 71.1016 77.4051C71.006 77.1721 71.3425 77.027 71.4572 77.2485H71.4534Z" fill="#263238"/>
</g>
<path id="Vector_82" d="M105.324 81.6337C102.88 85.1479 100.284 88.559 97.5463 91.8441C96.8045 92.7341 96.0513 93.605 95.2827 94.4721C92.7935 91.0534 91.5813 86.9241 90.6139 82.8293C90.3654 81.7788 90.1322 80.7246 89.8913 79.6703C89.6351 78.5434 89.3101 77.4204 89.1648 76.2706C89.0156 75.0827 89.0845 73.8718 88.9736 72.6762C88.8665 71.5149 88.6792 70.3652 88.4268 69.2307C87.8571 66.6637 86.9547 64.1618 85.8114 61.8049C85.7961 61.7744 85.7426 61.7973 85.7578 61.8316C86.6641 64.0204 87.4747 66.2474 88.0368 68.5584C88.3197 69.7272 88.5339 70.9114 88.6753 72.107C88.813 73.3103 88.7977 74.5135 88.878 75.7244C88.9545 76.8742 89.2642 77.9896 89.5204 79.1088C89.7613 80.1592 89.9945 81.2135 90.2354 82.2639C90.7172 84.3458 91.2334 86.4276 91.9408 88.4444C92.7246 90.679 93.7494 92.8411 95.1718 94.7281C95.2139 94.7854 95.3018 94.8083 95.3553 94.7472C98.1619 91.527 100.846 88.1885 103.328 84.701C104.035 83.7078 104.727 82.7032 105.408 81.691C105.446 81.6337 105.354 81.5878 105.32 81.6413L105.324 81.6337Z" fill="#263238"/>
<path id="Vector_83" d="M95.8638 90.8586C95.7643 91.0114 95.6802 91.1642 95.6037 91.3208C95.577 91.3437 95.5502 91.3628 95.5234 91.3857C95.4737 91.4239 95.4202 91.4621 95.3781 91.5118C95.294 91.6111 95.2214 91.7219 95.1602 91.8365C95.034 92.0733 95.0034 92.3292 94.9919 92.5928C94.9919 92.6042 95.0072 92.6004 95.0072 92.5928C95.0302 92.3445 95.1411 92.1077 95.2596 91.8899C95.317 91.783 95.3858 91.6837 95.4623 91.592C95.4852 91.5653 95.5043 91.5385 95.5234 91.5156C95.512 91.5462 95.4929 91.5729 95.4814 91.6073C95.382 91.8899 95.317 92.1841 95.2749 92.482C95.2328 92.7685 95.2558 93.0435 95.2902 93.33C95.3246 93.605 95.3361 93.9068 95.4279 94.1704C95.4279 94.1818 95.447 94.178 95.447 94.1704C95.4546 93.8877 95.4126 93.605 95.447 93.3224C95.4776 93.0473 95.5349 92.7723 95.5731 92.4973C95.6076 92.2299 95.6687 91.9625 95.7299 91.6989C95.7949 91.4277 95.8485 91.1527 95.9288 90.8853C95.9402 90.8509 95.8905 90.8357 95.8752 90.8624L95.8638 90.8586Z" fill="#263238"/>
</g>
</g>
</g>
</g>
<g id="Group_39">
<g id="Group_40">
<path id="Vector_84" d="M78.3552 36.3572C75.3536 38.5192 61.3283 44.2146 56.216 41.6362C51.0043 39.0082 45.8461 24.8939 44.8252 23.6715C42.0147 20.3177 54.1015 15.5658 55.2065 17.8921C57.0534 21.7769 60.9765 32.1554 62.7774 32.3807C66.5667 32.8506 70.0387 32.3578 75.9692 32.2891C80.1065 32.2394 81.6704 33.9698 78.3552 36.3572Z" fill="#EB9481"/>
<g id="Group_41">
<path id="Vector_85" d="M56.4759 20.4705C56.4759 20.4705 61.3932 31.5366 62.502 31.8536C64.3451 32.3769 74.3517 32.0331 77.946 32.0942C81.5402 32.1554 85.0007 35.3335 76.4891 38.5078C67.9814 41.682 60.7967 43.336 56.1814 42.2932C53.306 41.6438 45.4062 29.1912 45.4062 29.1912L56.4682 20.4705H56.4759Z" fill="#FFC727"/>
<path id="Vector_86" opacity="0.1" d="M56.4759 20.4705C56.4759 20.4705 61.3932 31.5366 62.502 31.8536C64.3451 32.3769 74.3517 32.0331 77.946 32.0942C81.5402 32.1554 85.0007 35.3335 76.4891 38.5078C67.9814 41.682 60.7967 43.336 56.1814 42.2932C53.306 41.6438 45.4062 29.1912 45.4062 29.1912L56.4682 20.4705H56.4759Z" fill="black"/>
<path id="Vector_87" d="M47.5553 31.2195C51.5013 27.5066 56.1853 24.2369 56.9616 23.6066C56.9998 23.576 57.0419 23.6448 56.9998 23.6715C56.2045 24.2483 51.2413 28.5991 47.5973 31.2921C47.5553 31.3226 47.517 31.2577 47.5514 31.2195H47.5553Z" fill="#263238"/>
<path id="Vector_88" opacity="0.1" d="M81.7772 34.623C81.6243 35.746 80.1904 37.125 76.4891 38.5039C67.9813 41.682 60.7966 43.3322 56.1852 42.2932C55.6116 42.1633 54.8354 41.5636 53.9636 40.6812C60.5213 39.2679 76.3323 35.8683 81.7772 34.623Z" fill="black"/>
</g>
<g id="Group_42">
<path id="Vector_89" d="M45.6015 24.9473C46.7868 25.8259 55.1607 20.906 55.3519 19.4009C55.3863 19.1183 55.3328 18.5835 55.2066 17.8921H55.2104C55.2104 17.8921 55.7993 14.565 57.2752 11.9752C58.5103 9.79788 60.5942 6.70381 59.4471 5.99332C57.7762 4.95815 54.6713 8.55261 53.0118 10.7261C52.423 9.36242 51.7882 8.24321 51.1803 7.72753C49.1575 6.01242 40.3477 14.057 40.8601 16.7003C41.3533 19.252 44.4123 24.0688 45.5977 24.9473H45.6015Z" fill="#EB9481"/>
<g id="Group_43">
<path id="Vector_90" d="M53.765 10.9897C53.2908 12.2808 52.0367 10.982 52.0367 10.982C52.0367 10.982 53.3903 13.2854 52.3846 14.4275C51.4134 15.5276 49.9527 13.9042 49.8495 13.7896C49.9183 13.9118 51.1075 16.0624 49.9795 17.1052C48.8056 18.1901 47.6203 16.3107 47.5438 16.1885C47.5744 16.326 47.9415 18.1366 46.9053 18.7363C45.1196 19.7638 44.049 15.1571 42.5959 14.3358C42.5959 14.3358 40.9212 16.6354 40.86 16.6927C40.86 16.6927 39.7511 12.3304 40.9709 10.4358C41.6133 9.43881 42.6724 9.8399 42.6724 9.8399C42.6724 9.8399 42.16 8.4724 43.0204 7.62057C43.4639 7.18511 44.5575 7.50598 44.5575 7.50598C44.5575 7.50598 44.1943 6.39441 45.0087 5.68392C45.6587 5.11476 46.6529 5.5273 46.6529 5.5273C46.6529 5.5273 46.7982 4.29732 47.6509 3.93061C49.3639 3.18956 54.7859 8.21265 53.7688 10.982L53.765 10.9897Z" fill="#EB9481"/>
<g id="Group_44">
<path id="Vector_91" d="M46.8172 5.57315C46.7981 5.55787 46.8172 5.52731 46.8364 5.53877C49.0235 6.7573 51.0501 8.76271 52.1131 11.0432C52.1475 11.1195 52.0404 11.2074 51.9869 11.131C50.4421 8.98808 48.9012 7.21186 46.8172 5.56933V5.57315Z" fill="#263238"/>
<path id="Vector_92" d="M44.5383 7.47541C44.5154 7.45631 44.546 7.41812 44.5728 7.43339C46.8173 8.70158 49.0388 11.024 49.9527 13.7972C49.9833 13.8927 49.9183 14.0073 49.8724 13.9042C49.1268 12.1051 46.4234 8.94605 44.5383 7.47541Z" fill="#263238"/>
<path id="Vector_93" d="M47.54 16.41C46.5612 13.7858 44.8367 11.7384 42.7642 9.88956C42.7375 9.86664 42.7757 9.82844 42.8025 9.84372C44.0643 10.474 45.2611 11.788 46.1061 12.8919C46.9168 13.9462 47.433 15.0616 47.6318 16.3756C47.6394 16.4253 47.5591 16.4673 47.54 16.41Z" fill="#263238"/>
</g>
<path id="Vector_94" d="M52.0826 10.9897C52.1247 11.0813 51.9488 11.0431 51.987 11.131C52.1515 11.513 52.9353 13.9042 52.205 14.4275C51.6161 14.8439 50.6487 14.3435 50.3543 14.0035L49.6087 13.1555L50.0102 14.2136C50.1861 14.6758 50.3084 15.1877 50.3237 15.6766C50.339 16.1655 50.2281 16.6583 49.9031 16.9601C49.5666 17.2809 49.1193 17.365 48.7254 17.1281C48.3278 16.9104 47.9874 16.5017 47.7427 16.0891L47.0583 14.9394L47.3298 16.2419C47.4024 16.5934 47.4368 16.983 47.4177 17.3459C47.3948 17.7087 47.3107 18.0716 47.108 18.3314C46.9092 18.5835 46.5727 18.7325 46.2744 18.6599C45.9609 18.5873 45.6665 18.3314 45.4103 18.0563C44.8979 17.4948 44.5002 16.8149 44.072 16.1617C43.8617 15.8332 43.6475 15.5009 43.4181 15.18C43.1849 14.8668 42.944 14.5345 42.5999 14.3396C42.921 14.565 43.1199 14.9164 43.3302 15.2411C43.5328 15.5735 43.7164 15.9172 43.9037 16.2648C44.2746 16.9524 44.657 17.6438 45.1694 18.2741C45.4332 18.5758 45.7276 18.8929 46.1827 19.0304C46.6492 19.1679 47.1501 18.9502 47.433 18.5911C47.7236 18.2282 47.8116 17.789 47.8498 17.3802C47.8766 16.9639 47.8498 16.5628 47.7695 16.1503L47.3527 16.3069C47.6395 16.7958 47.9798 17.2389 48.5036 17.5445C48.7598 17.6935 49.0925 17.7775 49.4137 17.7202C49.7349 17.6629 50.0025 17.5025 50.2243 17.2924C50.6755 16.8531 50.7864 16.2152 50.7596 15.669C50.729 15.1074 50.5952 14.5841 50.3926 14.0646L50.0522 14.2709C50.4423 14.6873 51.4632 15.3672 52.4535 14.8362C53.6427 13.9538 52.3579 11.4404 52.0903 11.0011L52.0826 10.9897Z" fill="#263238"/>
<path id="Vector_95" d="M52.0366 10.982C52.289 11.1463 52.5452 11.2838 52.7975 11.3526C53.0461 11.4213 53.2793 11.3717 53.4323 11.2227C53.589 11.0775 53.6732 10.814 53.7267 10.5428C53.7726 10.2677 53.8108 9.98124 53.8338 9.67947C53.9561 9.95832 54.0249 10.2601 54.0249 10.5695C54.0249 10.8751 53.9638 11.2265 53.6999 11.4977C53.5585 11.6238 53.3864 11.7078 53.2029 11.7269C53.0193 11.7422 52.8396 11.704 52.6905 11.6276C52.3922 11.4824 52.1781 11.2418 52.0366 10.9744V10.982Z" fill="#263238"/>
</g>
</g>
</g>
<g id="Group_45">
<path id="Vector_96" d="M89.0462 66.6599C88.9697 66.721 64.303 64.0051 64.0966 63.6728C63.8136 63.203 71.1627 37.6597 76.8065 32.4189C78.2175 31.1087 82.1215 31.6932 83.693 33.3854C91.4743 41.7737 89.3215 66.4384 89.0462 66.6599Z" fill="#EBEBEB"/>
<path id="Vector_97" d="M76.5925 32.4189L67.1173 66.9082L62.2727 63.436C62.2727 63.436 70.1878 41.09 72.4667 37.5337C74.7418 33.9774 76.5925 32.4189 76.5925 32.4189Z" fill="#FFC727"/>
<path id="Vector_98" opacity="0.1" d="M76.5925 32.4189L67.1173 66.9082L62.2727 63.436C62.2727 63.436 70.1878 41.09 72.4667 37.5337C74.7418 33.9774 76.5925 32.4189 76.5925 32.4189Z" fill="black"/>
<path id="Vector_99" d="M82.175 32.1707C82.175 32.1707 81.8003 45.4408 81.7888 48.5577C81.7774 51.6747 81.0662 68.6959 81.0662 68.6959L92.2887 66.6599C92.2887 66.6599 90.243 50.1583 89.528 46.3422C88.813 42.53 85.8114 33.2937 82.175 32.1707Z" fill="#FFC727"/>
<path id="Vector_100" opacity="0.1" d="M82.175 32.1707C82.175 32.1707 81.8003 45.4408 81.7888 48.5577C81.7774 51.6747 81.0662 68.6959 81.0662 68.6959L92.2887 66.6599C92.2887 66.6599 90.243 50.1583 89.528 46.3422C88.813 42.53 85.8114 33.2937 82.175 32.1707Z" fill="black"/>
</g>
<g id="Group_46">
<g id="Group_47">
<path id="Vector_101" d="M84.8325 39.6308C91.3557 46.3041 100.001 53.4433 104.811 52.4234C109.159 51.499 115.403 46.4072 122.224 40.9219C123.578 39.8332 114.543 29.7565 113.216 31.0591C110.604 33.6298 105.243 40.1923 103.244 40.9181C102.387 41.2275 92.7934 36.4412 86.5073 34.0462C78.8752 31.1393 82.2324 36.9722 84.8325 39.6308Z" fill="#EB9481"/>
<g id="Group_48">
<path id="Vector_102" d="M128.212 36.277C126.423 38.4275 120.213 42.4613 118.638 42.679C117.062 42.8968 111.702 33.9278 112.298 32.4113C112.895 30.8948 119.479 24.1146 122.274 23.5378C125.073 22.9649 130.063 34.0462 128.212 36.277Z" fill="#EB9481"/>
<g id="Group_49">
<path id="Vector_103" d="M118.148 25.2873C117.927 26.7541 119.785 26.1735 119.785 26.1735C119.785 26.1735 117.315 27.6518 117.674 29.2485C118.022 30.7879 120.24 30.0086 120.4 29.9551C120.27 30.0354 118.037 31.4525 118.561 33.0225C119.108 34.6535 121.2 33.4885 121.333 33.4121C121.234 33.5267 119.949 35.047 120.618 36.1471C121.773 38.0379 125.165 34.241 126.962 34.2143C126.962 34.2143 128.056 36.3534 128.082 36.4412C128.082 36.4412 130.686 33.7864 130.514 31.3685C130.422 30.0927 129.218 29.9246 129.218 29.9246C129.218 29.9246 130.411 28.897 130.036 27.648C129.841 27.0062 128.644 26.7465 128.644 26.7465C128.644 26.7465 129.566 25.8832 129.161 24.7945C128.843 23.9236 127.688 23.7976 127.688 23.7976C127.688 23.7976 128.186 22.5599 127.574 21.7769C126.339 20.1916 118.622 22.1398 118.148 25.2758V25.2873Z" fill="#EB9481"/>
<g id="Group_50">
<path id="Vector_104" d="M127.509 23.7594C127.535 23.7555 127.535 23.7173 127.509 23.7173C124.813 23.7403 121.861 24.5883 119.682 26.1926C119.609 26.2461 119.666 26.3836 119.754 26.3416C122.32 25.1154 124.694 24.233 127.512 23.7594H127.509Z" fill="#263238"/>
<path id="Vector_105" d="M128.679 26.7274C128.709 26.7236 128.702 26.6701 128.667 26.6739C125.891 26.7121 122.591 27.7587 120.293 29.9055C120.213 29.9781 120.217 30.1232 120.316 30.0468C121.953 28.7366 126.14 27.1437 128.679 26.7312V26.7274Z" fill="#263238"/>
<path id="Vector_106" d="M121.223 33.6183C123.505 31.6435 126.19 30.6007 129.103 29.9246C129.141 29.9169 129.126 29.8634 129.092 29.8634C127.578 29.8061 125.765 30.4288 124.396 31.0361C123.085 31.6168 122.018 32.3998 121.154 33.5419C121.119 33.5878 121.173 33.6642 121.223 33.6222V33.6183Z" fill="#263238"/>
</g>
<path id="Vector_107" d="M119.781 26.1735C119.334 26.5058 118.913 26.8687 118.538 27.2698C118.171 27.6709 117.835 28.1331 117.735 28.6335C117.689 28.8818 117.72 29.1339 117.842 29.3402C117.972 29.5502 118.152 29.7412 118.366 29.8596C118.791 30.1003 119.357 30.0621 119.812 29.8978L120.955 29.4777L120.029 30.2684C119.624 30.6122 119.246 31.0323 118.978 31.4907C118.71 31.9453 118.561 32.4686 118.714 32.9193C118.863 33.3968 119.246 33.7062 119.739 33.6833C120.224 33.6833 120.76 33.4694 121.207 33.2096L122.45 32.4801L121.521 33.5725C121.268 33.8667 121.035 34.2143 120.867 34.5695C120.699 34.9248 120.592 35.3106 120.649 35.6582C120.702 35.9981 120.947 36.3152 121.265 36.3992C121.601 36.4947 122.01 36.3992 122.393 36.277C123.165 36.0096 123.895 35.5741 124.637 35.1769C125.008 34.9744 125.379 34.772 125.761 34.5886C126.144 34.4129 126.541 34.2219 126.97 34.2181C126.549 34.2639 126.182 34.4931 125.815 34.6917C125.452 34.9018 125.1 35.131 124.744 35.3602C124.037 35.8186 123.318 36.2732 122.511 36.6017C122.106 36.7506 121.662 36.8996 121.165 36.7926C120.653 36.6781 120.293 36.2159 120.213 35.7346C120.129 35.2418 120.27 34.7796 120.446 34.3747C120.634 33.966 120.867 33.6031 121.157 33.2517L121.467 33.6107C120.943 33.924 120.393 34.1646 119.739 34.1875C119.418 34.1952 119.062 34.0997 118.791 33.8819C118.515 33.6642 118.347 33.3701 118.248 33.0607C118.049 32.4113 118.274 31.7505 118.58 31.2501C118.898 30.7344 119.295 30.3066 119.758 29.9246L119.972 30.2951C119.387 30.4861 118.733 30.4899 118.19 30.1538C117.923 29.9857 117.724 29.7489 117.578 29.4777C117.429 29.1988 117.406 28.8627 117.479 28.5685C117.636 27.9765 118.041 27.541 118.439 27.1552C118.852 26.7694 119.303 26.4409 119.785 26.162L119.781 26.1735Z" fill="#263238"/>
</g>
<g id="Group_51">
<path id="Vector_108" d="M113.216 31.0591C113.216 31.0591 116.592 19.6798 120.397 23.1788C121.529 24.2178 124.928 29.8329 123.811 30.5396C122.37 31.4487 120.511 29.3707 119.556 27.8772C119.556 27.8772 118.951 31.9071 116.019 32.3273C114.179 32.5908 113.216 31.0591 113.216 31.0591Z" fill="#EB9481"/>
<path id="Vector_109" d="M120.06 22.9075C120.565 23.2399 120.97 23.7059 121.356 24.1681C121.743 24.6379 122.083 25.1383 122.4 25.654C123.027 26.693 123.612 27.7396 124.06 28.8932C124.167 29.1835 124.262 29.4853 124.289 29.8291C124.301 30.001 124.289 30.192 124.22 30.3753C124.186 30.467 124.148 30.5434 124.071 30.6427C124.002 30.7229 123.926 30.7917 123.842 30.8413C123.517 31.0514 123.142 31.0858 122.802 31.0438C122.461 30.9865 122.156 30.8604 121.873 30.7C121.311 30.3791 120.859 29.936 120.458 29.47C120.049 29.004 119.708 28.4998 119.376 27.9879L119.762 27.9001C119.678 28.3699 119.544 28.8054 119.376 29.237C119.207 29.6687 119.001 30.0812 118.752 30.4708C118.5 30.8566 118.19 31.208 117.839 31.5022C117.487 31.8001 117.081 32.0255 116.649 32.163C117.055 31.9644 117.426 31.7046 117.739 31.3914C118.057 31.0782 118.309 30.7115 118.527 30.3295C118.745 29.9475 118.921 29.5388 119.055 29.1186C119.188 28.7022 119.295 28.263 119.345 27.8428L119.41 27.308L119.727 27.7549C120.072 28.2362 120.412 28.7213 120.813 29.1492C121.207 29.577 121.632 29.9895 122.121 30.2569C122.591 30.5243 123.18 30.6656 123.57 30.4135C123.934 30.2225 123.792 29.577 123.609 29.046C123.421 28.496 123.173 27.9497 122.92 27.4111C122.668 26.8687 122.412 26.3301 122.125 25.8068C121.54 24.7754 120.947 23.7173 120.056 22.8999L120.06 22.9075Z" fill="#263238"/>
</g>
</g>
</g>
<g id="Group_52">
<path id="Vector_110" d="M111.889 32.3502C111.889 32.3502 103.982 40.4062 102.827 40.3336C100.911 40.2114 89.2948 34.707 85.884 33.5611C82.4733 32.4151 78.8255 33.0912 84.2131 39.4474C90.2889 46.6173 97.0913 53.0079 104.123 53.0117C107.909 53.0117 119.712 44.7838 119.712 44.7838L111.889 32.3502Z" fill="#FFC727"/>
<path id="Vector_111" opacity="0.1" d="M111.889 32.3502C111.889 32.3502 103.982 40.4062 102.827 40.3336C100.911 40.2114 89.2948 34.707 85.884 33.5611C82.4733 32.4151 78.8255 33.0912 84.2131 39.4474C90.2889 46.6173 97.0913 53.0079 104.123 53.0117C107.909 53.0117 119.712 44.7838 119.712 44.7838L111.889 32.3502Z" fill="black"/>
<g id="Group_53">
<path id="Vector_112" d="M116.692 45.4637C114.218 40.6469 110.899 35.9981 110.379 35.1425C110.356 35.1005 110.291 35.1501 110.318 35.1883C110.872 35.9981 114.092 41.7584 116.627 45.5133C116.657 45.5554 116.715 45.5057 116.692 45.4599V45.4637Z" fill="#263238"/>
<path id="Vector_113" d="M89.2528 44.9022C89.0616 44.7303 88.9201 44.4973 88.7481 44.3063C88.5645 44.1038 88.3772 43.9014 88.1898 43.6989C87.8227 43.3093 87.4595 42.9197 87.0962 42.5262C86.3697 41.7432 85.605 41.0021 84.8555 40.242C84.8441 40.2305 84.8288 40.2496 84.8402 40.2611C85.5247 41.0862 86.1977 41.9151 86.9395 42.6943C86.9547 42.7096 86.9739 42.7287 86.9892 42.744C86.8439 42.6446 86.6986 42.5491 86.5533 42.4498C86.2512 42.2474 85.9529 42.0449 85.6509 41.8387C85.6317 41.8272 85.6126 41.8539 85.6279 41.8692C85.9071 42.0984 86.1938 42.3161 86.4959 42.5148C86.6489 42.6179 86.8018 42.7172 86.9624 42.8127C87.035 42.8547 87.1115 42.9006 87.1842 42.9426C87.4633 43.2329 87.7386 43.5232 88.0177 43.8097C88.2089 44.0083 88.4039 44.1993 88.5989 44.3903C88.794 44.5813 89.0348 44.7341 89.2107 44.9404C89.2337 44.9709 89.2796 44.9213 89.2528 44.8983V44.9022Z" fill="#263238"/>
</g>
</g>
</g>
<g id="Group_54">
<g id="Group_55">
<g id="Group_56">
<path id="Vector_114" d="M77.4182 37.0906C78.5882 37.3733 81.4713 35.6505 82.7905 33.9774C82.8823 33.8628 82.9129 32.4991 83.0276 30.8452C83.104 29.8405 83.2073 28.7251 83.3793 27.7129L76.7682 28.1827C76.7682 28.1827 77.032 30.4097 76.7261 32.1706C76.6993 32.3158 76.6611 32.4533 76.6114 32.5794C76.6076 32.5985 76.5961 32.6214 76.5923 32.6481C76.3284 33.4159 75.5828 36.6513 77.4144 37.0944L77.4182 37.0906Z" fill="#EB9481"/>
<path id="Vector_115" d="M76.6152 32.5755C76.6152 32.5755 76.5999 32.6137 76.5923 32.6405C76.7873 32.7016 77.0014 32.7512 77.2423 32.7856C80.8672 33.3128 82.4923 29.0689 82.9052 27.7434L76.772 28.1751C76.772 28.1751 77.0397 30.402 76.7338 32.163C76.7032 32.3081 76.6688 32.4418 76.6191 32.5679L76.6152 32.5755Z" fill="#263238"/>
</g>
<g id="Group_57">
<path id="Vector_116" d="M86.316 20.1229C86.4116 22.5065 83.5706 28.5723 81.6282 29.5808C78.8101 31.0438 75.0323 30.2645 73.9961 27.0712C72.9943 23.9771 76.8371 16.135 78.9287 15.3022C82.0106 14.0761 86.1784 16.601 86.316 20.1229Z" fill="#EB9481"/>
<g id="Group_58">
<path id="Vector_117" d="M80.9859 21.4216C80.8215 21.2956 80.6953 21.1542 80.5462 21.0167C80.378 20.8601 80.2288 20.7531 80.1753 20.5163C80.1485 20.3903 80.2479 20.2336 80.3665 20.1916C80.6456 20.0999 80.898 20.2413 81.1045 20.4246C81.3301 20.6194 81.4562 20.8295 81.5059 21.1275C81.5557 21.414 81.1962 21.5859 80.9821 21.4216H80.9859Z" fill="#A6A6A6"/>
<path id="Vector_118" d="M76.8983 19.6568C77.0971 19.7065 77.2883 19.718 77.4909 19.7485C77.7165 19.7791 77.8962 19.8287 78.1104 19.7256C78.2251 19.6683 78.2863 19.4926 78.2442 19.3742C78.141 19.0992 77.8733 18.9922 77.6018 18.9425C77.3074 18.8891 77.0665 18.9234 76.8027 19.0648C76.5465 19.2061 76.6382 19.5919 76.8983 19.6568Z" fill="#A6A6A6"/>
<path id="Vector_119" d="M78.6189 26.1124C78.4774 26.1659 78.3206 26.2575 78.1639 26.2041C78.0147 26.1544 77.8733 26.0169 77.7624 25.9099C77.7509 25.8985 77.7318 25.9099 77.7356 25.9252C77.7738 26.1315 77.9574 26.3263 78.1639 26.3759C78.3665 26.4256 78.5271 26.3034 78.6495 26.1506C78.6648 26.1277 78.638 26.1086 78.6189 26.1162V26.1124Z" fill="#263238"/>
<path id="Vector_120" d="M78.7147 24.6838C78.3285 24.9435 77.9002 24.9932 77.5025 24.9053C77.3228 24.8671 77.1469 24.7983 76.9863 24.7105C76.9519 24.6952 76.9213 24.6761 76.8946 24.657C76.864 24.6417 76.841 24.6265 76.8105 24.6035C76.7646 24.5768 76.7569 24.5233 76.7684 24.4737C76.7684 24.4737 76.7799 24.4431 76.7913 24.4316L76.8066 24.3934C76.9366 24.0688 77.1737 23.5989 77.1737 23.5989C77.0322 23.6066 76.321 23.618 76.4013 23.4576C77.0781 22.113 77.8314 20.6156 78.7873 19.4238C78.8179 19.3818 78.8829 19.4238 78.86 19.4659C78.2596 20.7837 77.4337 21.9869 76.8105 23.301C77.0322 23.3124 77.3993 23.3086 77.5637 23.385C77.602 23.4194 77.0858 24.2903 77.0361 24.4393C77.0361 24.4393 77.0361 24.4469 77.0322 24.4546C77.5408 24.7525 78.0149 24.764 78.6879 24.6303C78.73 24.6188 78.7491 24.6608 78.7108 24.6838H78.7147Z" fill="#263238"/>
<g id="Group_59">
<path id="Vector_121" d="M77.2424 24.6303C77.2424 24.6303 77.361 25.1345 77.6898 25.4363C77.8122 25.547 77.9575 25.6349 78.1372 25.6616C78.5043 25.7151 78.6457 25.4172 78.6954 25.1307C78.7375 24.8977 78.7184 24.6685 78.7184 24.6685C78.7184 24.6685 78.0416 24.913 77.2424 24.6265V24.6303Z" fill="#263238"/>
<path id="Vector_122" d="M77.6897 25.4363C77.8121 25.547 77.9574 25.6349 78.1371 25.6616C78.5042 25.7151 78.6456 25.4172 78.6953 25.1307C78.3244 25.0161 77.8694 25.1039 77.6897 25.4363Z" fill="#FF9BBC"/>
</g>
<path id="Vector_123" d="M80.4889 22.4301C80.508 22.3193 80.5042 22.197 80.4583 22.071C80.4124 21.9488 80.2977 21.8494 80.1753 21.8036C80.0492 21.7539 79.8886 21.7845 79.7853 21.8571C79.6821 21.9297 79.6056 22.0252 79.5521 22.1245C79.5177 22.1894 79.4909 22.2543 79.468 22.3193C79.4182 22.4606 79.3953 22.6096 79.4144 22.7547C79.445 22.6478 79.4871 22.5485 79.5368 22.4568C79.5827 22.3689 79.6362 22.2887 79.6936 22.2123C79.8121 22.0557 79.9689 21.9449 80.1103 22.0022C80.2595 22.0519 80.3283 22.2123 80.3245 22.411C80.3245 22.6058 80.2786 22.812 80.2327 23.0221C80.3589 22.8502 80.4545 22.6478 80.4889 22.4262V22.4301Z" fill="#263238"/>
<path id="Vector_124" d="M76.4777 20.5851C76.5427 20.4934 76.6345 20.4094 76.7568 20.3597C76.8792 20.3062 77.0283 20.3215 77.1468 20.375C77.2692 20.4323 77.361 20.5698 77.3801 20.6958C77.3992 20.8219 77.3801 20.9403 77.3495 21.0473C77.3266 21.116 77.2998 21.181 77.2654 21.2459C77.1966 21.3796 77.1048 21.498 76.9863 21.5859C77.0398 21.4904 77.0857 21.391 77.1163 21.2917C77.1468 21.1962 77.1698 21.1046 77.1851 21.0091C77.2157 20.8143 77.1851 20.6233 77.0474 20.566C76.906 20.4934 76.7454 20.5545 76.6039 20.6958C76.4662 20.8334 76.3439 21.0052 76.2253 21.1848C76.2636 20.9747 76.3439 20.7684 76.4777 20.5851Z" fill="#263238"/>
</g>
<g id="Group_60" opacity="0.2">
<path id="Vector_125" d="M80.2784 19.1221C80.0375 19.0571 79.7966 19.0037 79.5672 18.9082C79.3339 18.8089 79.1236 18.6675 78.8904 18.5758C78.4469 18.4001 77.9804 18.3772 77.4871 18.3619C77.445 18.3619 77.4412 18.3887 77.4871 18.3887C77.988 18.4192 78.4851 18.488 78.9363 18.7248C79.3148 18.9235 79.659 19.0877 80.0757 19.1794C80.9973 19.3818 81.8767 19.6989 82.5267 20.4132C82.5306 20.417 82.5382 20.4132 82.5344 20.4055C81.9532 19.7371 81.1273 19.3436 80.2822 19.1183L80.2784 19.1221Z" fill="black"/>
<path id="Vector_126" d="M80.5269 18.5071C80.3013 18.446 80.068 18.3963 79.8501 18.3047C79.6283 18.213 79.4295 18.0755 79.2077 17.9876C78.7871 17.8195 78.3435 17.7966 77.8771 17.7852C77.8388 17.7852 77.835 17.8081 77.8771 17.8119C78.3512 17.8386 78.8215 17.9074 79.2498 18.1289C79.6092 18.3161 79.9342 18.4727 80.3319 18.5606C81.2075 18.7516 82.0372 19.0533 82.6567 19.7295C82.6605 19.7333 82.6682 19.7295 82.6643 19.7256C82.1137 19.0915 81.3299 18.7172 80.5269 18.5033V18.5071Z" fill="black"/>
</g>
<path id="Vector_127" d="M77.0245 16.9524C78.7069 19.2787 82.588 18.0678 82.588 18.0678C82.6797 20.0656 84.4998 20.4858 84.4998 20.4858C84.4998 20.4858 83.5821 24.4126 84.5801 24.7602C86.102 25.2949 88.4191 20.3253 88.3044 19.145C88.1897 17.9647 86.9967 17.2427 86.9967 17.2427C86.9967 17.2427 87.1841 16.4253 86.5034 15.3748C85.754 14.2098 81.7926 13.9921 81.7926 13.9921C81.7926 13.9921 81.785 13.2395 81.3223 12.4297C81.0241 11.9179 80.4352 11.788 79.9267 12.0669C80.0108 12.3763 80.0299 12.7391 79.9573 13.1249C79.7393 14.2938 78.8369 13.9653 79.204 12.9683C79.3684 12.5252 79.6361 12.2273 79.9267 12.063C79.7164 11.2494 79.0663 10.7757 78.4966 10.9667C77.4642 11.3143 75.625 15.0119 77.0245 16.9486V16.9524Z" fill="#A6A6A6"/>
<g id="Group_61">
<path id="Vector_128" d="M79.0932 24.298C78.2405 23.7555 77.992 22.6211 78.535 21.7692C79.0779 20.9174 80.2136 20.6691 81.0663 21.2115C81.9189 21.7539 82.1675 22.8884 81.6245 23.7403C81.1657 24.4584 80.2824 24.7487 79.5062 24.4928C79.3647 24.4469 79.2271 24.382 79.0932 24.298ZM78.7414 21.9029C78.2711 22.6401 78.4891 23.6218 79.2271 24.0917C79.965 24.5615 80.9477 24.3438 81.418 23.6104C81.8884 22.8732 81.6704 21.8915 80.9324 21.4216C80.8177 21.349 80.6992 21.2917 80.5768 21.2535C79.9039 21.032 79.1391 21.2841 78.7414 21.9067V21.9029Z" fill="#455A64"/>
<path id="Vector_129" d="M75.5907 22.6554C74.91 22.3384 74.7036 21.3376 75.128 20.4208C75.3306 19.9854 75.648 19.6301 76.0189 19.4238C76.4013 19.2099 76.799 19.1794 77.1393 19.336C77.4757 19.4926 77.709 19.8173 77.7931 20.2489C77.8734 20.6653 77.8084 21.1351 77.6019 21.5706C77.1966 22.4377 76.3707 22.919 75.7054 22.6974C75.6671 22.686 75.6289 22.6707 75.5945 22.6516L75.5907 22.6554ZM76.1374 19.6378C75.8124 19.8173 75.5295 20.1343 75.3498 20.524C74.9789 21.3147 75.1356 22.1741 75.6939 22.4339C76.256 22.6974 77.0093 22.262 77.3801 21.4675C77.5637 21.0778 77.621 20.6615 77.5522 20.2948C77.4834 19.9433 77.2999 19.6798 77.036 19.5575C77.0093 19.5461 76.9787 19.5346 76.9481 19.5232C76.7034 19.4429 76.4204 19.4811 76.1374 19.6378Z" fill="#455A64"/>
<path id="Vector_130" d="M78.5006 21.9869L78.7224 21.8838C78.5694 21.5553 78.1182 21.0014 77.5103 21.2459L77.602 21.4713C78.145 21.2497 78.4853 21.9564 78.5006 21.9869Z" fill="#455A64"/>
<path id="Vector_131" d="M85.7006 25.8565L85.9453 25.845C85.9415 25.7304 85.8841 24.722 85.4291 24.4126C85.0009 24.1222 81.8922 23.0183 81.7622 22.9687L81.6819 23.1978C82.5728 23.5149 84.9626 24.3858 85.2953 24.6112C85.5974 24.8175 85.693 25.5776 85.7044 25.8526L85.7006 25.8565Z" fill="#455A64"/>
</g>
<g id="Group_62">
<path id="Vector_132" d="M83.5858 24.9588C83.5858 24.9588 85.6047 23.3163 86.3886 24.0917C87.1725 24.8671 85.2491 27.5334 84.0409 27.6288C82.8326 27.7243 82.7217 26.609 82.7217 26.609L83.5858 24.9588Z" fill="#EB9481"/>
<path id="Vector_133" d="M85.8189 24.8404C85.8189 24.8404 85.8342 24.8709 85.8189 24.8709C84.9662 24.9626 84.3582 25.5585 83.8688 26.2155C84.1785 25.9978 84.5303 25.929 84.8362 26.3072C84.8515 26.3263 84.8247 26.353 84.8056 26.3416C84.5112 26.185 84.2703 26.1773 83.9835 26.3683C83.7847 26.502 83.6164 26.7006 83.452 26.8725C83.3985 26.9298 83.2838 26.8572 83.3335 26.7885C83.3335 26.7847 83.3411 26.777 83.345 26.7732C83.6012 25.7915 84.7521 24.6417 85.8265 24.8404H85.8189Z" fill="#263238"/>
</g>
</g>
</g>
<g id="Group_63">
<path id="Vector_134" d="M76.558 32.4533L77.9728 36.4068L83.0048 31.6664L84.3163 33.3013C84.3163 33.3013 79.2766 40.9448 79.2613 40.5895L77.7854 37.1708L75.3765 39.4169L75.7932 33.5611L76.5618 32.4495L76.558 32.4533Z" fill="#EBEBEB"/>
<path id="Vector_135" d="M75.4185 36.51C75.5179 35.5474 75.5944 34.5733 75.7397 33.6145C75.7435 33.5802 75.7971 33.5687 75.8047 33.6069C75.9615 34.5466 75.5562 38.2327 75.5256 39.1189C75.5256 39.1189 75.5332 39.1113 75.5371 39.1075C75.6365 39.012 77.7663 37.1364 77.7854 37.167C78.1142 37.7132 79.1963 40.2038 79.269 40.4291C80.0643 39.2144 83.1118 34.8063 84.0448 33.6642C84.0716 33.6298 84.1213 33.6642 84.1022 33.6986C83.3909 34.9859 79.3531 40.9257 79.2958 40.9066C79.2537 40.9372 77.9078 37.8698 77.7548 37.293C77.3916 37.7056 75.235 39.8294 75.2312 39.6843C75.2197 38.714 75.3153 37.4688 75.4185 36.5062V36.51Z" fill="#263238"/>
</g>
</g>
</g>
</g>
</g>
<g id="Stars">
<g id="Group_64">
<path id="Vector_136" d="M98.4223 82.3938L96.8813 82.6803L96.5372 84.3038L96.1931 82.6803L94.6521 82.3938L96.1854 82.0195L96.5372 80.4839L96.889 82.0195L98.4223 82.3938Z" fill="#FFC727"/>
<path id="Vector_137" d="M72.1457 9.93158L70.6047 10.2143L70.2606 11.8377L69.9164 10.2143L68.3755 9.92777L69.9088 9.55342L70.2606 8.02167L70.6124 9.55342L72.1457 9.93158Z" fill="#FFC727"/>
<path id="Vector_138" d="M53.639 62.0723L52.098 62.3588L51.7539 63.9822L51.4098 62.3588L49.865 62.0723L51.4021 61.698L51.7539 60.1624L52.1057 61.698L53.639 62.0723Z" fill="#FFC727"/>
<path id="Vector_139" d="M97.4471 55.529L95.9061 55.8154L95.5582 57.4389L95.214 55.8154L93.6731 55.529L95.2102 55.1546L95.5582 53.6229L95.91 55.1546L97.4471 55.529Z" fill="#FFC727"/>
<path id="Vector_140" d="M117.376 49.1155L116.512 49.2759L116.321 50.1812L116.13 49.2759L115.266 49.1155L116.126 48.9054L116.321 48.0459L116.516 48.9054L117.376 49.1155Z" fill="#FFC727"/>
<path id="Vector_141" d="M63.9401 46.1283L63.0798 46.2849L62.8848 47.1941L62.6936 46.2849L61.8333 46.1245L62.6898 45.9182L62.8848 45.0588L63.0836 45.9182L63.9401 46.1283Z" fill="#FFC727"/>
<path id="Vector_142" d="M90.6486 15.9096L89.7883 16.07L89.5971 16.9792L89.4021 16.07L88.5417 15.9096L89.3983 15.6995L89.5971 14.8439L89.7921 15.6995L90.6486 15.9096Z" fill="#FFC727"/>
<path id="Vector_143" d="M110.757 63.7989L109.897 63.9593L109.702 64.8646L109.511 63.9593L108.647 63.7989L109.507 63.5888L109.702 62.7293L109.901 63.5888L110.757 63.7989Z" fill="#FFC727"/>
<path id="Vector_144" d="M103.745 65.5446L102.884 65.705L102.689 66.6103L102.498 65.705L101.638 65.5446L102.494 65.3345L102.689 64.4788L102.888 65.3345L103.745 65.5446Z" fill="#FFC727"/>
<path id="Vector_145" d="M103.745 29.3898L102.884 29.5503L102.689 30.4594L102.498 29.5503L101.638 29.3898L102.494 29.1797L102.689 28.3241L102.888 29.1797L103.745 29.3898Z" fill="#FFC727"/>
<path id="Vector_146" d="M66.3261 28.0911L65.4658 28.2477L65.2708 29.1568L65.0796 28.2477L64.2192 28.0911L65.0757 27.881L65.2708 27.0215L65.4696 27.881L66.3261 28.0911Z" fill="#FFC727"/>
<path id="Vector_147" d="M45.0929 27.1514L44.2287 27.3118L44.0375 28.2209L43.8463 27.3118L42.9822 27.1514L43.8425 26.9451L44.0375 26.0857L44.2325 26.9451L45.0929 27.1514Z" fill="#FFC727"/>
<path id="Vector_148" d="M56.6789 69.8495L55.8185 70.0099L55.6235 70.9191L55.4324 70.0099L54.572 69.8495L55.4285 69.6394L55.6235 68.7838L55.8224 69.6394L56.6789 69.8495Z" fill="#FFC727"/>
<path id="Vector_149" d="M100.189 69.6012C99.8675 69.6012 99.8675 70.1016 100.189 70.1016C100.51 70.1016 100.51 69.6012 100.189 69.6012Z" fill="#FFC727"/>
<path id="Vector_150" d="M103.986 34.5924C103.664 34.5924 103.664 35.0928 103.986 35.0928C104.307 35.0928 104.307 34.5924 103.986 34.5924Z" fill="#FFC727"/>
<path id="Vector_151" d="M60.0131 13.1746C59.6919 13.1746 59.6919 13.675 60.0131 13.675C60.3343 13.675 60.3343 13.1746 60.0131 13.1746Z" fill="#FFC727"/>
<path id="Vector_152" d="M40.9443 28.8932C40.6231 28.8932 40.6231 29.3936 40.9443 29.3936C41.2655 29.3936 41.2655 28.8932 40.9443 28.8932Z" fill="#FFC727"/>
<path id="Vector_153" d="M55.6235 53.6229C55.3023 53.6229 55.3023 54.1233 55.6235 54.1233C55.9447 54.1233 55.9447 53.6229 55.6235 53.6229Z" fill="#FFC727"/>
<path id="Vector_154" d="M48.2285 49.0543C48.0029 49.0543 47.9991 49.4057 48.2285 49.4057C48.4579 49.4057 48.4579 49.0543 48.2285 49.0543Z" fill="#FFC727"/>
<path id="Vector_155" d="M61.9785 19.2711C61.7529 19.2711 61.7491 19.6225 61.9785 19.6225C62.2079 19.6225 62.2079 19.2711 61.9785 19.2711Z" fill="#FFC727"/>
<path id="Vector_156" d="M67.217 44.0847C66.9914 44.0847 66.9876 44.4361 67.217 44.4361C67.4464 44.4361 67.4464 44.0847 67.217 44.0847Z" fill="#FFC727"/>
<path id="Vector_157" d="M50.9126 76.0605C50.687 76.0605 50.6832 76.412 50.9126 76.412C51.142 76.412 51.142 76.0605 50.9126 76.0605Z" fill="#FFC727"/>
<path id="Vector_158" d="M94.8775 72.0574C94.2619 72.0574 94.2619 73.0161 94.8775 73.0161C95.4931 73.0161 95.4931 72.0574 94.8775 72.0574Z" fill="#FFC727"/>
<path id="Vector_159" d="M123.674 44.5011C123.058 44.5011 123.058 45.4598 123.674 45.4598C124.289 45.4598 124.289 44.5011 123.674 44.5011Z" fill="#FFC727"/>
<path id="Vector_160" d="M75.3269 6.55484C74.7113 6.55484 74.7113 7.51362 75.3269 7.51362C75.9426 7.51362 75.9426 6.55484 75.3269 6.55484Z" fill="#FFC727"/>
<path id="Vector_161" d="M69.0484 25.6196C68.4328 25.6196 68.4328 26.5784 69.0484 26.5784C69.664 26.5784 69.664 25.6196 69.0484 25.6196Z" fill="#FFC727"/>
<path id="Vector_162" d="M53.1763 74.4371C52.5607 74.4371 52.5607 75.3959 53.1763 75.3959C53.7919 75.3959 53.7919 74.4371 53.1763 74.4371Z" fill="#FFC727"/>
</g>
</g>
</g>
<defs>
<clipPath id="clip0_337_8546">
<rect width="169" height="163" fill="white"/>
</clipPath>
</defs>
</svg>
