<svg width="32" height="32" viewBox="0 0 32 32" fill="none" xmlns="http://www.w3.org/2000/svg">
<g id="icon">
<path id="Vector" d="M16.0001 29.3337C23.3639 29.3337 29.3334 23.3641 29.3334 16.0003C29.3334 8.63653 23.3639 2.66699 16.0001 2.66699C8.63628 2.66699 2.66675 8.63653 2.66675 16.0003C2.66675 23.3641 8.63628 29.3337 16.0001 29.3337Z" fill="#9F9F9F" stroke="white" stroke-linecap="square"/>
<path id="Vector_2" d="M7.33325 26C10.4444 24.6667 12.4444 23.5556 13.3333 22.6667C14.6666 21.3333 10.6666 21.3333 10.6666 14.6667C10.6666 10.2222 12.4444 8 15.9999 8C19.5555 8 21.3333 10.2222 21.3333 14.6667C21.3333 21.3333 17.3333 21.3333 18.6666 22.6667C19.5555 23.5556 21.5555 24.6667 24.6666 26" stroke="white" stroke-linecap="round"/>
</g>
</svg>
