<svg width="44" height="42" viewBox="0 0 44 42" fill="none" xmlns="http://www.w3.org/2000/svg">
<path d="M20.6788 16.3882C19.7718 16.3882 19.0627 17.0908 19.0627 17.9851C19.0627 18.8794 19.7718 19.582 20.6788 19.582C21.5859 19.582 22.2949 18.8794 22.2949 17.9851C22.2949 17.1547 21.5859 16.3882 20.6788 16.3882Z" fill="#162E3C"/>
<path d="M31.5952 18.496C31.8507 18.1766 31.8507 17.7933 31.5952 17.5378C29.0721 14.344 25.0031 12.4277 20.6723 12.4277C16.3415 12.4277 12.2726 14.344 9.74949 17.5378C9.49399 17.8572 9.49399 18.2405 9.74949 18.496C12.2726 21.6898 16.3415 23.6061 20.6723 23.6061C25.0031 23.6061 29.0721 21.6898 31.5952 18.496ZM16.6673 17.985C16.6673 15.8132 18.475 13.9608 20.7362 13.9608C22.9974 13.9608 24.8051 15.7493 24.8051 17.985C24.8051 20.2206 22.9974 22.0092 20.7362 22.0092C18.475 22.0092 16.6673 20.2206 16.6673 17.985ZM29.9152 17.985C28.6888 19.3264 27.1366 20.4123 25.3928 21.1149C26.6831 19.2625 26.6831 16.7713 25.3928 14.9189C27.1366 15.5577 28.6888 16.6436 29.9152 17.985ZM11.4358 17.985C12.6622 16.6436 14.2144 15.5577 15.9583 14.855C14.668 16.7074 14.668 19.1986 15.9583 21.051C14.2144 20.4761 12.6622 19.3902 11.4358 17.985Z" fill="#162E3C"/>
<path d="M43.1633 39.7668H40.3846L43.489 36.7008C43.8148 36.3814 43.8148 35.8704 43.489 35.551L38.775 30.888L39.0305 30.6325C39.3562 30.3131 39.3562 29.8021 39.0305 29.4828L36.5074 26.9916C36.1816 26.6722 35.6706 26.6722 35.3448 26.9916L35.0829 27.2471L32.7578 24.9475C34.2461 22.4564 34.8913 19.5181 34.5655 16.6436C33.8565 9.6811 27.9735 4.18774 20.6724 4.18774C12.9178 4.18774 6.71545 10.3837 6.71545 17.985C6.71545 25.5863 12.9817 31.7823 20.6724 31.7823C20.9279 31.7823 24.0962 31.9739 27.6477 29.9299L29.9728 32.2294L29.647 32.5488C29.3213 32.8682 29.3213 33.3792 29.647 33.6986L32.1702 36.1898C32.4959 36.5091 33.0069 36.5091 33.3327 36.1898L33.5946 35.9343L37.4719 39.7668H10.8546C10.4011 39.7668 10.0179 40.1501 10.0179 40.5972C10.0179 41.0444 10.4075 41.4276 10.8546 41.4276H43.1633C43.6168 41.4276 44 41.0444 44 40.5972C44 40.0862 43.6104 39.7668 43.1633 39.7668ZM20.6788 30.2493C13.8313 30.2493 8.33791 24.7559 8.33791 18.0489C8.33791 11.3419 13.8951 5.84853 20.6788 5.84853C23.9748 5.84853 27.0728 7.12605 29.4043 9.4256C34.1184 14.0886 34.3164 21.8815 29.4043 26.7361C27.207 28.9079 24.109 30.2493 20.6788 30.2493ZM29.0147 29.0995C30.0495 28.333 31.0204 27.3748 31.8572 26.2889L33.9268 28.333L31.0843 31.1435L29.0147 29.0995ZM31.4036 33.1237C32.6939 31.8462 33.7287 30.8242 35.9261 28.6524L37.2803 29.9938C35.019 32.2294 34.0481 33.1876 32.7578 34.4651L31.4036 33.1237ZM37.606 31.9739L41.8091 36.1259L38.9666 38.9364L34.7635 34.7845L37.606 31.9739Z" fill="#162E3C"/>
<path d="M21.3878 37.3394C21.3878 36.8923 20.9982 36.509 20.5446 36.509H6.84317C6.38965 36.509 6 36.8923 6 37.3394C6 37.7866 6.38965 38.1698 6.84317 38.1698H20.6085C20.9982 38.1698 21.3814 37.7866 21.3814 37.3394H21.3878Z" fill="#162E3C"/>
<path d="M32.4443 23.3794C32.8162 22.7352 32.5737 21.859 31.9203 21.4818L12.1821 10.0859C11.5287 9.70872 10.6486 9.93677 10.2767 10.5809C9.90485 11.225 10.1474 12.1012 10.8007 12.4785L30.631 23.9275C31.1923 24.2515 32.0632 24.0182 32.4351 23.374L32.4443 23.3794Z" fill="#162E3C"/>
<path d="M39.1518 9.42578H36.699V11.0227H39.1518V9.42578Z" fill="#162E3C"/>
<path d="M41.6111 7.82886H39.1582V9.42576H41.6111V7.82886Z" fill="#162E3C"/>
<path d="M39.1518 12.6195H36.699V14.2164H39.1518V12.6195Z" fill="#162E3C"/>
<path d="M41.6111 11.0226H39.1582V12.6195H41.6111V11.0226Z" fill="#162E3C"/>
<path d="M39.1518 15.8134H36.699V17.4103H39.1518V15.8134Z" fill="#162E3C"/>
<path d="M41.6111 14.2164H39.1582V15.8133H41.6111V14.2164Z" fill="#162E3C"/>
<path d="M39.1518 19.0072H36.699V20.6041H39.1518V19.0072Z" fill="#162E3C"/>
<path d="M41.6111 17.4103H39.1582V19.0072H41.6111V17.4103Z" fill="#162E3C"/>
<path d="M39.1518 22.2009H36.699V23.7978H39.1518V22.2009Z" fill="#162E3C"/>
<path d="M41.6111 20.6041H39.1582V22.201H41.6111V20.6041Z" fill="#162E3C"/>
<path d="M2.45353 26.0948C3.84804 26.0948 4.97285 24.97 4.97285 23.6413C4.97285 22.3126 3.84804 21.1877 2.45353 21.1877C1.05903 21.1877 0 22.2468 0 23.5755C0 24.9042 1.12481 26.0948 2.45353 26.0948ZM2.45353 22.7796C2.92056 22.7796 3.31523 23.1743 3.31523 23.5755C3.31523 24.0425 2.92056 24.4372 2.45353 24.4372C1.98651 24.4372 1.59184 24.0425 1.59184 23.5755C1.65762 23.1085 2.05886 22.7796 2.45353 22.7796Z" fill="#162E3C"/>
<path d="M12.4802 5.18774C13.3214 5.18774 14 4.50008 14 3.68774C14 2.87541 13.3214 2.18774 12.4802 2.18774C11.6389 2.18774 11 2.8352 11 3.64753C11 4.45986 11.6786 5.18774 12.4802 5.18774ZM12.4802 3.16093C12.7619 3.16093 13 3.40222 13 3.64753C13 3.93305 12.7619 4.17434 12.4802 4.17434C12.1984 4.17434 11.9603 3.93305 11.9603 3.64753C12 3.36201 12.2421 3.16093 12.4802 3.16093Z" fill="#162E3C"/>
<path d="M36.9206 6.02886C38.5124 6.02886 39.8411 4.70014 39.8411 3.1083C39.8411 1.51647 38.5124 0.187744 36.9206 0.187744C35.3287 0.187744 34 1.51647 34 3.1083C34 4.70014 35.3287 6.02886 36.9206 6.02886ZM36.9206 1.85194C37.5849 1.85194 38.1835 2.38474 38.1835 3.11488C38.1835 3.77924 37.6507 4.37783 36.9206 4.37783C36.2562 4.37783 35.6576 3.84502 35.6576 3.11488C35.7234 2.45052 36.2562 1.85194 36.9206 1.85194Z" fill="#162E3C"/>
<path d="M33 10.0494C33 10.5165 33.3947 10.9111 33.8617 10.9111C34.3287 10.9111 34.7234 10.5165 34.7234 10.0494C34.7234 9.58242 34.3287 9.18774 33.8617 9.18774C33.3289 9.18774 33 9.58242 33 10.0494Z" fill="#162E3C"/>
<path d="M42 30.0494C42 30.5165 42.3947 30.9111 42.8617 30.9111C43.3287 30.9111 43.7234 30.5165 43.7234 30.0494C43.7234 29.5824 43.3287 29.1877 42.8617 29.1877C42.3289 29.1877 42 29.5824 42 30.0494Z" fill="#162E3C"/>
<path d="M12 33.0494C12 33.5165 12.3947 33.9111 12.8617 33.9111C13.3287 33.9111 13.7234 33.5165 13.7234 33.0494C13.7234 32.5824 13.3287 32.1877 12.8617 32.1877C12.3289 32.1877 12 32.5824 12 33.0494Z" fill="#162E3C"/>
<path d="M5 4.04944C5 4.51647 5.39467 4.91114 5.8617 4.91114C6.32872 4.91114 6.72339 4.51647 6.72339 4.04944C6.72339 3.58242 6.32872 3.18774 5.8617 3.18774C5.32889 3.18774 5 3.58242 5 4.04944Z" fill="#162E3C"/>
</svg>
