<svg width="38" height="39" viewBox="0 0 38 39" fill="none" xmlns="http://www.w3.org/2000/svg">
<path d="M37.9277 5.19583C37.801 4.88165 37.5412 4.68686 37.161 4.68686H33.7139V1.26858C33.7139 0.954405 33.5238 0.633942 33.2006 0.508271C32.8838 0.382599 32.5606 0.445434 32.3072 0.696778L28.6003 4.37268C28.4735 4.49835 28.3468 4.74969 28.3468 4.94448V8.80889L27.6434 9.69488C21.2561 3.93283 11.1619 3.93283 4.838 10.2667C-1.61267 16.6005 -1.61267 26.9936 4.838 33.3903C11.2887 39.787 21.7694 39.787 28.2201 33.3903C34.4806 27.1821 34.6707 17.2352 28.7967 10.7757L29.6268 9.9525H33.5238C33.7139 9.9525 33.9103 9.88967 34.1004 9.70116L37.8073 6.02526C37.9974 5.83675 38.0608 5.51629 37.9341 5.20211L37.9277 5.19583ZM32.1804 3.22906V5.19583L30.0703 7.28826V5.3215L32.1804 3.22906ZM27.0668 32.3095C21.2561 38.0716 11.7956 38.0716 5.92155 32.3095C0.11089 26.5475 0.11089 17.1661 5.92155 11.3412C11.5421 5.76763 20.6161 5.57913 26.4902 10.7694L24.2533 12.9875C19.653 8.9974 12.5623 9.12307 8.15204 13.5593C3.55167 18.1212 3.55167 25.5358 8.15204 30.0914C12.7524 34.6533 20.2296 34.6533 24.8236 30.0914C29.2339 25.718 29.424 18.6867 25.4003 14.1248L27.6371 11.9067C32.8775 17.7379 32.7507 26.6668 27.0605 32.3032L27.0668 32.3095ZM17.5492 22.8087C16.9726 23.3805 16.0791 23.3805 15.5025 22.8087C14.9259 22.2369 14.9259 21.3509 15.5025 20.7791C15.756 20.5278 16.1425 20.333 16.5227 20.333C17.1627 20.333 17.5429 20.7791 17.5429 20.7791C18.1195 21.3509 18.1195 22.2369 17.5429 22.8087H17.5492ZM18.0625 19.1957C16.9156 18.561 15.3821 18.6867 14.4189 19.7046C13.2023 20.9111 13.2023 22.8087 14.4189 23.9461C15.6356 25.1525 17.5492 25.1525 18.7025 23.9461C19.7227 22.9344 19.8494 21.4766 19.2157 20.333L21.3258 18.2406C23.1128 20.5215 22.9227 23.8141 20.8126 25.9694C18.5124 28.2503 14.7421 28.2503 12.3786 25.9694C10.0784 23.6884 10.0784 19.9497 12.3786 17.6059C14.552 15.4506 17.8724 15.325 20.1726 17.0969L18.0625 19.1894V19.1957ZM21.2561 15.9659C18.3159 13.6221 13.9754 13.7478 11.1619 16.4749C8.22174 19.3905 8.22174 24.1408 11.1619 27.0564C14.1021 29.972 18.8926 29.972 21.8328 27.0564C24.7729 24.1408 24.7096 19.9623 22.346 17.0467L24.2597 15.149C27.6434 19.0763 27.5801 25.096 23.7464 28.8975C19.786 32.8248 13.272 32.8876 9.3053 28.8975C5.34492 24.9703 5.34492 18.5045 9.3053 14.5772C13.1389 10.7757 19.2094 10.65 23.1698 14.0683L21.2561 15.9659ZM33.1373 8.42559H31.1539C31.4707 8.11141 32.9408 6.65362 33.264 6.33316H35.2473L33.1373 8.42559Z" fill="#162E3C"/>
<path d="M4.45145 6.52795C5.79481 6.52795 6.87837 5.45346 6.87837 4.12134C6.87837 2.78922 5.79481 1.71472 4.45145 1.71472C3.1081 1.71472 2.02454 2.78922 2.02454 4.12134C2.02454 5.45346 3.1081 6.52795 4.45145 6.52795ZM4.45145 3.36102C4.90135 3.36102 5.28155 3.74432 5.28155 4.18417C5.28155 4.62402 4.90135 5.00732 4.45145 5.00732C4.00156 5.00732 3.62136 4.63031 3.62136 4.18417C3.68473 3.73804 4.00789 3.36102 4.45145 3.36102Z" fill="#162E3C"/>
<path d="M32.8141 31.1093C31.7305 31.1093 30.8307 31.9952 30.8307 33.076C30.8307 34.1568 31.7242 35.0365 32.8141 35.0365C33.904 35.0365 34.7911 34.1505 34.7911 33.076C34.7911 32.0015 33.8977 31.1093 32.8141 31.1093ZM32.8141 33.453C32.624 33.453 32.4276 33.2645 32.4276 33.076C32.4276 32.8875 32.6177 32.6927 32.8141 32.6927C33.0105 32.6927 33.1943 32.8812 33.1943 33.076C33.1943 33.2708 33.0042 33.453 32.8141 33.453Z" fill="#162E3C"/>
<path d="M25.5967 4.18411C26.6803 4.18411 27.5801 3.29812 27.5801 2.21734C27.5801 1.13657 26.6866 0.187744 25.5967 0.187744C24.5068 0.187744 23.6133 1.07373 23.6133 2.15451C23.6133 3.23529 24.5068 4.18411 25.5967 4.18411ZM25.5967 1.77749C25.7868 1.77749 25.9769 1.966 25.9769 2.15451C25.9769 2.34302 25.7868 2.53781 25.5967 2.53781C25.4066 2.53781 25.2165 2.41214 25.2165 2.15451C25.2165 1.89688 25.4066 1.77749 25.5967 1.77749Z" fill="#162E3C"/>
<path d="M2.08791 8.87158C2.54414 8.87158 2.918 9.24231 2.918 9.69473C2.918 10.1472 2.54414 10.5179 2.08791 10.5179C1.63167 10.5179 1.25781 10.1472 1.25781 9.69473C1.25781 9.24231 1.63167 8.87158 2.08791 8.87158Z" fill="#162E3C"/>
<path d="M10.8388 3.36084C11.295 3.36084 11.6689 3.73157 11.6689 4.18399C11.6689 4.63641 11.295 5.00714 10.8388 5.00714C10.3825 5.00714 10.0087 4.63641 10.0087 4.18399C10.0087 3.73157 10.3825 3.36084 10.8388 3.36084Z" fill="#162E3C"/>
<path d="M34.7974 12.0385C35.2537 12.0385 35.6275 12.4092 35.6275 12.8616C35.6275 13.314 35.2537 13.6848 34.7974 13.6848C34.3412 13.6848 33.9673 13.314 33.9673 12.8616C33.9673 12.4092 34.3412 12.0385 34.7974 12.0385Z" fill="#162E3C"/>
<path d="M35.6276 26.2898C36.0838 26.2898 36.4577 26.6605 36.4577 27.1129C36.4577 27.5654 36.0838 27.9361 35.6276 27.9361C35.1713 27.9361 34.7975 27.5654 34.7975 27.1129C34.7975 26.6605 35.1713 26.2898 35.6276 26.2898Z" fill="#162E3C"/>
<path d="M3.68471 34.2133C4.14095 34.2133 4.5148 34.584 4.5148 35.0364C4.5148 35.4888 4.14095 35.8596 3.68471 35.8596C3.22847 35.8596 2.85461 35.4888 2.85461 35.0364C2.85461 34.584 3.22847 34.2133 3.68471 34.2133Z" fill="#162E3C"/>
</svg>
