<svg xmlns="http://www.w3.org/2000/svg" width="33" height="33" viewBox="0 0 33 33" fill="none">
  <path fill-rule="evenodd" clip-rule="evenodd" d="M32.5558 16.5C32.5558 25.4746 25.2804 32.75 16.3058 32.75C7.33116 32.75 0.0557861 25.4746 0.0557861 16.5C0.0557861 7.52537 7.33116 0.25 16.3058 0.25C25.2804 0.25 32.5558 7.52537 32.5558 16.5ZM22.8551 11.5757C23.331 12.0517 23.331 12.8233 22.8551 13.2993L14.7301 21.4243C14.2541 21.9002 13.4825 21.9002 13.0065 21.4243L9.7565 18.1743C9.28055 17.6983 9.28055 16.9267 9.7565 16.4507C10.2325 15.9748 11.0041 15.9748 11.4801 16.4507L13.8683 18.8389L17.4999 15.2073L21.1315 11.5757C21.6075 11.0998 22.3791 11.0998 22.8551 11.5757Z" fill="white"/>
</svg>