<svg width="39" height="40" viewBox="0 0 39 40" fill="none" xmlns="http://www.w3.org/2000/svg">
<path d="M19.4168 15.7772C19.2195 15.7115 18.9498 15.6457 18.8182 15.5141C18.7524 15.4484 18.6867 15.4484 18.6867 15.4484L18.292 16.2443C18.759 16.5074 19.2852 16.7113 19.7523 16.7113V17.3757H20.1469V16.7113C20.4758 16.7113 20.8771 16.5797 21.1402 16.3824C21.2718 16.3166 21.3375 16.1851 21.4691 15.9877C21.5349 15.8562 21.6006 15.6588 21.6006 15.4549C21.6006 14.9221 21.4033 14.5932 20.8705 14.3959C20.5416 14.2643 20.2061 14.1986 20.1404 14.1986V13.4026C20.2719 13.4026 20.3377 13.4684 20.4693 13.4684C20.6008 13.5342 20.7981 13.6 21.0021 13.6658C21.0459 13.7096 21.0898 13.7315 21.1336 13.7315L21.5283 12.9356C21.3967 12.8698 21.1994 12.7383 20.9297 12.6725C20.7324 12.6067 20.4627 12.5409 20.1996 12.4752V11.8766H19.8049V12.4752C19.2721 12.5409 18.8116 12.7383 18.6143 13.2711C18.4827 13.5342 18.4827 13.9355 18.5485 14.1986C18.6143 14.4617 18.8774 14.5932 19.0813 14.7314C19.4102 14.8629 19.7457 14.9287 19.8773 14.9945V15.7904C19.6799 15.8562 19.476 15.8562 19.4102 15.7904L19.4168 15.7772ZM20.0812 15.1787C20.2127 15.2444 20.3443 15.2444 20.4101 15.3102C20.4758 15.376 20.5416 15.4418 20.5416 15.5733C20.5416 15.7707 20.4101 15.8364 20.0746 15.9022V15.1721L20.0812 15.1787ZM19.4826 13.9881C19.4168 13.9223 19.4168 13.8565 19.4168 13.7907C19.4168 13.5934 19.5484 13.4618 19.8115 13.4618V14.192C19.6799 14.1262 19.5484 14.0604 19.4826 13.9947V13.9881Z" fill="#162E3C"/>
<path d="M31.487 20.0857C29.4282 20.0857 27.639 20.6843 26.4484 21.6775V21.3486C26.4484 20.7501 26.3169 20.2238 25.9814 19.691C26.58 18.632 26.58 17.4348 25.9814 16.3758C26.2445 15.843 26.4484 15.3168 26.4484 14.7182C26.4484 12.1331 23.5279 10.14 19.8837 10.14C16.2396 10.14 13.3191 12.1265 13.3191 14.7182C13.3191 15.3168 13.4506 15.843 13.7861 16.3758C13.1875 17.4348 13.1875 18.632 13.7861 19.691C13.1875 20.7501 13.1875 21.9472 13.7861 23.0063C13.4572 23.6048 13.3191 24.2692 13.3914 24.927C12.2008 23.9995 10.4051 23.4009 8.41856 23.4009C4.70209 23.4009 1.85388 25.3874 1.85388 27.9791C1.85388 28.5777 1.98544 29.1039 2.32091 29.6367C1.72233 30.6958 1.72233 31.8929 2.32091 32.952C2.0578 33.4848 1.85388 34.011 1.85388 34.6096C1.85388 37.1947 4.77444 39.1877 8.41856 39.1877C10.9379 39.1877 13.0625 38.2603 14.1873 36.8658C15.3121 38.2603 17.4368 39.1877 19.9561 39.1877C22.4754 39.1877 24.6658 38.2603 25.7249 36.8C26.8497 38.1945 28.9743 39.1877 31.5594 39.1877C35.2759 39.1877 38.1241 37.1947 38.1241 34.6096C38.1241 34.011 37.9925 33.4848 37.6571 32.952C38.2556 31.8929 38.2556 30.6958 37.6571 29.6367C38.2556 28.5777 38.2556 27.3805 37.6571 26.3215C37.9202 25.7887 38.1241 25.2625 38.1241 24.6639C38.0583 22.0788 35.2035 20.0857 31.4936 20.0857H31.487ZM36.0652 32.4192C36.0652 32.4849 35.9994 32.4849 35.9994 32.5507C35.2035 33.544 33.4801 34.2083 31.5594 34.2083C29.6387 34.2083 27.9087 33.4782 27.1128 32.5507C27.1128 32.4849 27.047 32.4849 27.047 32.4192C26.7839 32.0245 26.58 31.5575 26.7181 31.0904C29.3032 33.0769 33.9472 33.0769 36.5322 31.0904C36.4665 31.5575 36.3349 32.0179 36.0652 32.4192ZM3.89959 32.4849C3.89959 32.4192 3.83381 32.4192 3.83381 32.3534C3.5707 31.9521 3.36678 31.4917 3.50492 31.0246C6.09001 33.0112 10.734 33.0112 13.3191 31.0246C13.3848 31.4917 13.2533 31.9521 12.9902 32.3534C12.9902 32.4192 12.9244 32.4192 12.9244 32.4849C12.1285 33.4782 10.4051 34.1425 8.48434 34.1425C6.56361 34.1425 4.70209 33.4782 3.90617 32.4849H3.89959ZM24.7908 17.7637C24.8566 18.2308 24.725 18.6912 24.4619 19.0925C24.4619 19.1582 24.3961 19.1582 24.3961 19.224C23.6002 20.2173 21.8768 20.8816 19.9495 20.8816C18.0222 20.8816 16.3054 20.1515 15.5095 19.224C15.5095 19.1582 15.4437 19.1582 15.4437 19.0925C15.1806 18.6912 14.9767 18.2308 15.1148 17.7637C17.6341 19.8226 22.2781 19.7502 24.7974 17.7637H24.7908ZM36.3941 27.7094C36.4599 28.1764 36.3283 28.6369 36.0652 29.0381C36.0652 29.1039 35.9994 29.1039 35.9994 29.1697C35.2035 30.163 33.4801 30.8273 31.5594 30.8273C29.6387 30.8273 27.9087 30.0972 27.1128 29.1697C27.1128 29.1039 27.047 29.1039 27.047 29.0381C26.7839 28.6369 26.58 28.1764 26.7181 27.7094C26.7839 27.7094 26.9154 27.841 26.9812 27.9068C29.5005 29.6959 33.8814 29.6301 36.4007 27.7094H36.3941ZM15.4371 29.1697C15.4371 29.1039 15.3713 29.1039 15.3713 29.0381C15.1082 28.6369 14.9043 28.1764 15.0424 27.7094C17.6275 29.6959 22.2715 29.6959 24.8566 27.7094C24.9224 28.1764 24.7908 28.6369 24.5277 29.0381C24.5277 29.1039 24.4619 29.1039 24.4619 29.1697C23.666 30.163 21.9426 30.8273 20.0219 30.8273C17.963 30.8931 16.2396 30.163 15.4437 29.1697H15.4371ZM24.7908 21.079C24.8566 21.546 24.725 22.0064 24.4619 22.4077C24.4619 22.4735 24.3961 22.4735 24.3961 22.5392C23.6002 23.5325 21.8768 24.1969 19.9495 24.1969C18.0222 24.1969 16.3054 23.4667 15.5095 22.5392C15.5095 22.4735 15.4437 22.4735 15.4437 22.4077C15.1806 22.013 14.9767 21.546 15.1148 21.079C17.5683 23.0655 22.2123 23.0655 24.7974 21.079H24.7908ZM24.7908 24.3942C24.8566 24.8612 24.725 25.3217 24.4619 25.7229C24.4619 25.7887 24.3961 25.7887 24.3961 25.8545C23.6002 26.8477 21.8768 27.5121 19.9495 27.5121C18.0222 27.5121 16.3054 26.7819 15.5095 25.8545C15.5095 25.7887 15.4437 25.7887 15.4437 25.7229C15.1806 25.3217 14.9767 24.8612 15.1148 24.3942C17.5683 26.3807 22.2123 26.3807 24.7974 24.3942H24.7908ZM15.4371 32.4849C15.4371 32.4192 15.3713 32.4192 15.3713 32.3534C15.1082 31.9521 14.9043 31.4917 15.0424 31.0246C17.6275 33.0112 22.2715 33.0112 24.8566 31.0246C24.9224 31.4917 24.7908 31.9521 24.5277 32.3534C24.5277 32.4192 24.4619 32.4192 24.4619 32.4849C23.666 33.4782 21.9426 34.1425 20.0219 34.1425C17.963 34.2083 16.2396 33.4782 15.4437 32.4849H15.4371ZM31.487 21.7433C34.868 21.7433 37.5189 23.868 35.9994 25.7887C35.2035 26.8477 33.4143 27.5121 31.487 27.5121C29.5597 27.5121 27.7706 26.8477 26.9746 25.7887C26.7115 25.3874 26.58 25.0586 26.58 24.6639C26.58 23.072 28.8362 21.7433 31.487 21.7433ZM19.8837 11.7976C23.2647 11.7976 25.9156 13.9223 24.3961 15.843C23.6002 16.902 21.811 17.5664 19.8837 17.5664C19.4167 17.5664 18.9563 17.5006 18.4892 17.4348C17.1605 17.1717 15.9699 16.6389 15.3713 15.843C15.1082 15.4483 14.9767 15.1129 14.9767 14.7182C14.9767 13.1264 17.2329 11.7976 19.8837 11.7976ZM8.34621 25.0585C11.7272 25.0585 14.3781 27.1832 12.8586 29.1039C12.0627 30.163 10.2735 30.8273 8.34621 30.8273C6.4189 30.8273 4.62973 30.163 3.83381 29.1039C3.5707 28.7027 3.43914 28.3738 3.43914 27.9791C3.43914 26.3873 5.69534 25.0585 8.34621 25.0585ZM8.34621 37.5301C5.69534 37.5301 3.43914 36.2014 3.43914 34.6096V34.3465C6.02423 36.333 10.6682 36.333 13.2533 34.3465V34.6096C13.3191 36.2014 10.9971 37.5301 8.34621 37.5301ZM19.8837 37.5301C17.2329 37.5301 14.9767 36.2014 14.9767 34.6096V34.3465C17.5618 36.333 22.2057 36.333 24.7908 34.3465V34.6096C24.7908 36.2014 22.5346 37.5301 19.8837 37.5301ZM31.487 37.5301C28.8362 37.5301 26.58 36.2014 26.58 34.6096V34.3465C29.1651 36.333 33.809 36.333 36.3941 34.3465V34.6096C36.3941 36.2014 34.1379 37.5301 31.487 37.5301Z" fill="#162E3C"/>
<path d="M26.0473 9.14677L31.4214 13.3237C31.6845 13.521 32.1515 13.521 32.4146 13.3237L37.7887 9.14677C38.0518 8.94944 38.1834 8.54819 38.0518 8.2193C37.9203 7.8904 37.6506 7.68649 37.2559 7.68649H34.7366V1.91773C34.7366 1.4507 34.3353 1.05603 33.8749 1.05603H29.7637C29.2967 1.05603 28.902 1.4507 28.902 1.91773V7.68649H26.4485C26.1196 7.68649 25.7841 7.88383 25.6526 8.2193C25.6526 8.54819 25.7841 8.94944 26.0473 9.14677ZM29.8953 9.34411C30.3623 9.34411 30.757 8.94943 30.757 8.48241V2.71365H33.2105V8.48241C33.2105 8.94943 33.6052 9.34411 34.0722 9.34411H34.9339L32.0134 11.6003L29.027 9.34411H29.8887H29.8953Z" fill="#162E3C"/>
<path d="M6.74785 21.6118L12.1219 17.4348C12.3851 17.2375 12.5166 16.8363 12.3851 16.5074C12.2535 16.1785 11.9904 15.9746 11.5891 15.9746H9.1356V10.14C9.1356 9.67299 8.74094 9.27832 8.27391 9.27832H4.16276C3.69573 9.27832 3.30106 9.67299 3.30106 10.14V15.9746H0.847529C0.518637 15.9746 0.183167 16.1719 0.0516102 16.5074C-0.0799466 16.8363 0.0516112 17.2375 0.314725 17.4348L5.68882 21.6118C6.01771 21.8091 6.41896 21.8091 6.74785 21.6118ZM4.16276 17.6322C4.62979 17.6322 4.95868 17.2375 4.95868 16.7705V10.9359H7.47799V16.7705C7.47799 17.2375 7.87266 17.6322 8.33969 17.6322H9.20138L6.21504 19.8884L3.29448 17.6322H4.15618H4.16276Z" fill="#162E3C"/>
<path d="M6.61638 7.68661C8.01088 7.68661 9.13569 6.5618 9.13569 5.23307C9.13569 3.90435 8.01088 2.77954 6.61638 2.77954C5.22187 2.77954 4.16284 3.83857 4.16284 5.1673C4.16284 6.49602 5.28765 7.68661 6.61638 7.68661ZM6.61638 4.37138C7.0834 4.37138 7.47807 4.76605 7.47807 5.1673C7.47807 5.63432 7.0834 6.02899 6.61638 6.02899C6.14935 6.02899 5.75468 5.63432 5.75468 5.1673C5.82046 4.70027 6.22171 4.37138 6.61638 4.37138Z" fill="#162E3C"/>
<path d="M21.1402 6.02886C22.732 6.02886 24.0607 4.70014 24.0607 3.1083C24.0607 1.51647 22.732 0.187744 21.1402 0.187744C19.5483 0.187744 18.2196 1.51647 18.2196 3.1083C18.2196 4.70014 19.5483 6.02886 21.1402 6.02886ZM21.1402 1.85194C21.8045 1.85194 22.4031 2.38474 22.4031 3.11488C22.4031 3.77924 21.8703 4.37783 21.1402 4.37783C20.4758 4.37783 19.8772 3.84502 19.8772 3.11488C19.943 2.45052 20.4758 1.85194 21.1402 1.85194Z" fill="#162E3C"/>
<path d="M34.8682 14.317C34.8682 14.784 35.2628 15.1787 35.7299 15.1787C36.1969 15.1787 36.5916 14.784 36.5916 14.317C36.5916 13.85 36.1969 13.4553 35.7299 13.4553C35.1971 13.4553 34.8682 13.85 34.8682 14.317Z" fill="#162E3C"/>
<path d="M13.3191 9.34412C13.7861 9.34412 14.1808 8.94945 14.1808 8.48242C14.1808 8.0154 13.7861 7.62073 13.3191 7.62073C12.8521 7.62073 12.4574 8.02198 12.4574 8.48242C12.4574 8.94287 12.8586 9.34412 13.3191 9.34412Z" fill="#162E3C"/>
<path d="M2.50513 21.7433C2.50513 21.2763 2.11046 20.8816 1.64343 20.8816C1.17641 20.8816 0.781738 21.2763 0.781738 21.7433C0.781738 22.2103 1.17641 22.605 1.64343 22.605C2.11046 22.605 2.50513 22.2103 2.50513 21.7433Z" fill="#162E3C"/>
<path d="M14.115 3.50965C14.582 3.50965 14.9109 3.1084 14.9109 2.64795C14.9109 2.1875 14.5162 1.78625 14.115 1.78625C13.7137 1.78625 13.2533 2.18092 13.2533 2.64795C13.3191 3.18076 13.648 3.50965 14.115 3.50965Z" fill="#162E3C"/>
</svg>
