<svg width="38" height="38" viewBox="0 0 38 38" fill="none" xmlns="http://www.w3.org/2000/svg">
<path d="M21.5558 22.086C23.625 20.0168 23.625 16.7005 21.5558 14.6244C19.4865 12.5552 16.1703 12.5552 14.0942 14.6244C12.0249 16.6937 12.0249 20.0099 14.0942 22.086C16.1634 24.1621 19.4797 24.0868 21.5558 22.086ZM15.2727 20.8459C13.8886 19.4618 13.8886 17.2555 15.2727 15.8715C16.6567 14.4874 18.863 14.4874 20.2471 15.8715C21.6311 17.2555 21.6311 19.5303 20.2471 20.8459C18.9384 22.2299 16.6567 22.2299 15.2727 20.8459Z" fill="#162E3C"/>
<path d="M34.0602 10.8217L18.1709 3.77807C17.9654 3.70956 17.6845 3.70956 17.4789 3.77807L1.58961 10.8217C0.623512 11.2328 0 12.2058 0 13.2404V13.3774C0 14.2065 0.411108 15.0356 1.10314 15.522C1.79517 16.0085 2.69275 16.1455 3.52182 15.8646L4.35088 15.5906V32.1719H2.62423C2.13776 32.1719 1.72665 32.5898 1.72665 33.0695V35.6937H0.897583C0.411107 35.6937 0 36.1048 0 36.5913C0 37.0777 0.411107 37.4889 0.897583 37.4889H34.5398C35.0263 37.4889 35.4374 37.0777 35.4374 36.5913C35.4374 36.1048 35.0263 35.6937 34.5398 35.6937H33.6423V33.0695C33.6423 32.583 33.2312 32.1719 32.7447 32.1719H31.0865V15.3165L31.9841 15.6591C32.8132 16.0017 33.7108 15.8646 34.4713 15.385C35.1634 14.8985 35.643 14.0695 35.643 13.1719C35.5745 12.1373 35.0195 11.2397 34.0534 10.8217H34.0602ZM31.9841 35.6252H3.4533V33.8985H31.9156V35.6252H31.9841ZM6.07753 32.1719V14.9739L17.8215 10.76L29.3599 14.6998V32.1787H6.07753V32.1719ZM32.6076 14.0695L30.5316 13.2404C17.1295 8.68395 18.0956 9.02654 18.027 8.95802C17.8215 8.8895 17.6091 8.8895 17.4721 8.95802L5.03606 13.4459L2.8983 14.2065C2.27479 14.412 1.72665 14.0009 1.72665 13.3774V13.2404C1.72665 12.8978 1.9322 12.5484 2.28164 12.4113L17.8283 5.50472L33.3682 12.4113C33.7108 12.5484 33.9232 12.8978 33.9232 13.2404C33.8547 13.8639 33.2312 14.275 32.6145 14.0695H32.6076Z" fill="#162E3C"/>
<path d="M12.0934 25.2584H9.46912C8.98264 25.2584 8.57153 25.6764 8.57153 26.156C8.57153 26.6356 8.98949 26.9851 9.46912 26.9851H12.0934C12.5798 26.9851 12.9224 26.574 12.9224 26.156C12.9909 25.601 12.5798 25.2584 12.0934 25.2584Z" fill="#162E3C"/>
<path d="M25.9066 25.2584H15.5467C15.0602 25.2584 14.7177 25.6764 14.7177 26.156C14.7177 26.6356 15.1288 26.9851 15.5467 26.9851H25.9066C26.3931 26.9851 26.8042 26.574 26.8042 26.156C26.8042 25.601 26.3931 25.2584 25.9066 25.2584Z" fill="#162E3C"/>
<path d="M12.0934 27.8142H9.46912C8.98264 27.8142 8.57153 28.2322 8.57153 28.7118C8.57153 29.1914 8.98949 29.6094 9.46912 29.6094H12.0934C12.5798 29.6094 12.9224 29.1983 12.9224 28.7118C12.9909 28.2253 12.5798 27.8142 12.0934 27.8142Z" fill="#162E3C"/>
<path d="M25.9066 27.8142H15.5467C15.0602 27.8142 14.7177 28.2322 14.7177 28.7118C14.7177 29.1914 15.1288 29.6094 15.5467 29.6094H25.9066C26.3931 29.6094 26.8042 29.1983 26.8042 28.7118C26.8042 28.2253 26.3931 27.8142 25.9066 27.8142Z" fill="#162E3C"/>
<path d="M3.4533 7.99193C4.90588 7.99193 6.00902 6.82027 6.00902 5.43621C6.00902 4.05215 4.83736 2.88049 3.4533 2.88049C2.06924 2.88049 0.897583 4.05215 0.897583 5.43621C0.897583 6.82027 2.00072 7.99193 3.4533 7.99193ZM3.4533 4.53863C3.93978 4.53863 4.35088 4.94973 4.35088 5.43621C4.35088 5.92269 3.93292 6.26528 3.4533 6.26528C2.97367 6.26528 2.55572 5.84732 2.55572 5.43621C2.62423 4.88122 2.97367 4.53863 3.4533 4.53863Z" fill="#162E3C"/>
<path d="M34.9578 0.187744C33.2997 0.187744 31.9156 1.5718 31.9156 3.22994C31.9156 4.88807 33.2997 6.27213 34.9578 6.27213C36.616 6.27213 38 4.88807 38 3.22994C38 1.5718 36.6845 0.187744 34.9578 0.187744ZM34.9578 4.53863C34.2658 4.53863 33.6423 3.98363 33.6423 3.22308C33.6423 2.53105 34.1973 1.90754 34.9578 1.90754C35.6499 1.90754 36.2734 2.46254 36.2734 3.22308C36.2734 3.91511 35.7184 4.53863 34.9578 4.53863Z" fill="#162E3C"/>
<path d="M8.6333 3.64108C9.11978 3.64108 9.53088 3.22997 9.53088 2.81201C9.53088 2.32554 9.11292 1.91443 8.6333 1.91443C8.15368 1.91443 7.73572 2.32554 7.73572 2.81201C7.80424 3.29849 8.14682 3.64108 8.6333 3.64108Z" fill="#162E3C"/>
<path d="M26.8042 3.64108C27.2907 3.64108 27.7018 3.22997 27.7018 2.81201C27.7018 2.32554 27.2907 1.91443 26.8042 1.91443C26.3177 1.91443 25.9066 2.32554 25.9066 2.81201C25.9066 3.29849 26.3246 3.64108 26.8042 3.64108Z" fill="#162E3C"/>
<path d="M33.7108 20.9076C33.7108 21.3941 34.1288 21.8052 34.6084 21.8052C35.088 21.8052 35.506 21.3941 35.506 20.9076C35.506 20.4211 35.088 20.01 34.6084 20.01C34.0534 20.0785 33.7108 20.4211 33.7108 20.9076Z" fill="#162E3C"/>
<path d="M1.72669 26.9851C2.21316 26.9851 2.62427 26.574 2.62427 26.156C2.62427 25.6695 2.20631 25.2584 1.72669 25.2584C1.24706 25.2584 0.829102 25.6764 0.829102 26.156C0.897619 26.574 1.24706 26.9851 1.72669 26.9851Z" fill="#162E3C"/>
</svg>
