<svg width="38" height="39" viewBox="0 0 38 39" fill="none" xmlns="http://www.w3.org/2000/svg">
<path d="M32.6256 30.7316C32.0413 30.4593 31.5276 30.3912 31.4634 30.3912V29.0843C31.656 29.0843 31.7844 29.1523 31.9835 29.2204C32.3045 29.3565 32.632 29.4927 32.7604 29.6356C32.8246 29.7037 32.8888 29.7037 32.8888 29.7718L33.5374 28.4648C33.2805 28.3287 32.9531 28.1925 32.632 27.9815C32.311 27.8453 31.9193 27.7092 31.534 27.7092V26.7494H30.8855V27.7092C30.0443 27.7773 29.3316 28.1925 28.9463 29.0162C28.8179 29.2885 28.7537 29.5676 28.7537 29.9079C28.7537 30.6635 29.0105 31.14 29.7233 31.4872C30.2434 31.7595 30.7571 31.8956 30.9561 31.9705V33.2775C30.7635 33.2775 30.5002 33.2094 30.3076 33.1413C29.9865 33.0052 29.5948 32.869 29.338 32.658C29.2096 32.5899 29.1454 32.5219 29.1454 32.5219L28.4968 33.8969C29.2096 34.3802 30.0507 34.6525 30.8919 34.7206V35.8846H31.5404V34.6525C31.8615 34.6525 32.1247 34.5845 32.3816 34.5164C32.6384 34.4483 32.9017 34.3122 33.0943 34.176C33.287 34.0399 33.4796 33.7608 33.6144 33.5566C33.7429 33.2843 33.8071 33.0052 33.8071 32.5968C33.8071 32.2564 33.7429 31.9773 33.6786 31.7731C33.5502 31.3647 33.2227 31.0175 32.6448 30.7452L32.6256 30.7316ZM31.0717 30.2483C30.8791 30.1802 30.68 30.1121 30.6158 29.976C30.4874 29.9079 30.4874 29.7718 30.4874 29.5676C30.4874 29.2272 30.68 29.0162 31.1359 29.0162V30.2483H31.0717ZM31.4569 33.2026V32.0386C31.6496 32.1066 31.8486 32.1747 31.9771 32.3109C32.1055 32.3789 32.1697 32.5151 32.1697 32.7193C32.1697 32.9916 31.9771 33.2026 31.4569 33.2026Z" fill="#162E3C"/>
<path d="M9.64451 11.3719H20.9713C21.4272 11.3719 21.7483 10.9635 21.7483 10.4802V4.51027C21.7483 4.02696 21.363 3.61853 20.9713 3.61853H9.64451C9.18861 3.61853 8.80334 4.02696 8.80334 4.51027V10.4802C8.86756 11.0315 9.18861 11.3719 9.64451 11.3719ZM10.4857 5.40201H20.1944V9.65649H10.4857V5.40201Z" fill="#162E3C"/>
<path d="M9.64451 14.8028H25.0551C25.511 14.8028 25.8963 14.3943 25.8963 13.911C25.8963 13.4277 25.511 13.0193 25.0551 13.0193H9.64451C9.18861 13.0193 8.80334 13.4345 8.80334 13.911C8.86756 14.4624 9.18861 14.8028 9.64451 14.8028Z" fill="#162E3C"/>
<path d="M9.64451 18.2403H25.0551C25.511 18.2403 25.8963 17.8319 25.8963 17.4166C25.8963 16.9333 25.511 16.5249 25.0551 16.5249H9.64451C9.18861 16.5249 8.80334 16.9401 8.80334 17.4166C8.80334 17.8931 9.18861 18.2403 9.64451 18.2403Z" fill="#162E3C"/>
<path d="M9.64451 21.6712H25.0551C25.511 21.6712 25.8963 21.2627 25.8963 20.7794C25.8963 20.2961 25.511 19.8877 25.0551 19.8877H9.64451C9.18861 19.8877 8.80334 20.2961 8.80334 20.7794C8.86756 21.3308 9.18861 21.6712 9.64451 21.6712Z" fill="#162E3C"/>
<path d="M9.64451 25.102H25.0551C25.511 25.102 25.8963 24.6935 25.8963 24.2102C25.8963 23.7269 25.511 23.3185 25.0551 23.3185H9.64451C9.18861 23.3185 8.80334 23.7337 8.80334 24.2102C8.86756 24.7616 9.18861 25.102 9.64451 25.102Z" fill="#162E3C"/>
<path d="M16.9581 26.8175H9.64451C9.18861 26.8175 8.80334 27.2327 8.80334 27.7092C8.80334 28.1857 9.18861 28.5329 9.64451 28.5329H16.9581C17.414 28.5329 17.7351 28.1177 17.7351 27.7092C17.7351 27.2259 17.414 26.8175 16.9581 26.8175Z" fill="#162E3C"/>
<path d="M30.6864 24.2783V1.07948C30.6864 0.596176 30.3012 0.187744 29.8453 0.187744H6.4083C5.9524 0.187744 5.56714 0.596176 5.56714 1.07948V37.1099C5.56714 37.5932 5.95882 38.0016 6.4083 38.0016H29.9737C34.1153 39.0295 38.0001 35.6667 38.0001 31.208C38.0001 27.0897 34.6354 23.8631 30.6864 24.2783ZM7.24946 36.2862V1.97122H29.0683V24.7548C26.6733 25.7146 24.8625 28.2537 24.8625 31.2761C24.8625 33.1277 25.5753 34.9792 26.9365 36.3543H7.25588V36.2862H7.24946ZM31.3992 36.4223C30.9433 36.4223 30.558 36.3543 30.1021 36.2181H30.0379C29.261 36.0139 28.484 35.5306 27.8997 34.9111C25.9605 32.8554 25.9605 29.5607 27.8997 27.4981C28.484 26.8787 29.261 26.4022 30.0379 26.1912H30.1021C33.2741 25.2994 36.3177 27.7704 36.3177 31.2693C36.3819 34.0807 34.1795 36.4155 31.3992 36.4155V36.4223Z" fill="#162E3C"/>
<path d="M2.39507 25.1021C1.03379 25.1021 0 26.2661 0 27.7092C0 29.1523 1.09801 30.2483 2.39507 30.2483C3.75634 30.2483 4.85434 29.0842 4.85434 27.7092C4.79013 26.2661 3.69213 25.1021 2.39507 25.1021ZM2.39507 28.5329C1.93917 28.5329 1.61811 28.1176 1.61811 27.7092C1.61811 27.2259 2.00338 26.8175 2.39507 26.8175C2.85096 26.8175 3.23623 27.2327 3.23623 27.7092C3.17202 28.1925 2.84454 28.5329 2.39507 28.5329Z" fill="#162E3C"/>
<path d="M2.39507 0.255859C1.03379 0.255859 0 1.41989 0 2.86301C0 4.30613 1.09801 5.40208 2.39507 5.40208C3.75634 5.40208 4.85434 4.23806 4.85434 2.86301C4.79013 1.41989 3.69213 0.255859 2.39507 0.255859ZM2.39507 3.68668C1.93917 3.68668 1.61811 3.27144 1.61811 2.79494C1.61811 2.31843 2.00338 1.9032 2.39507 1.9032C2.85096 1.9032 3.23623 2.31163 3.23623 2.79494C3.17202 3.27824 2.84454 3.68668 2.39507 3.68668Z" fill="#162E3C"/>
<path d="M34.3721 16.518C35.926 16.518 37.223 15.143 37.223 13.4957C37.223 11.8483 35.926 10.4733 34.3721 10.4733C32.8182 10.4733 31.5211 11.8483 31.5211 13.4957C31.5211 15.143 32.754 16.518 34.3721 16.518ZM34.3721 12.2636C35.0206 12.2636 35.6049 12.8149 35.6049 13.5705C35.6049 14.2581 35.0848 14.8775 34.3721 14.8775C33.6593 14.8775 33.1392 14.3261 33.1392 13.5705C33.1392 12.8149 33.6593 12.2636 34.3721 12.2636Z" fill="#162E3C"/>
<path d="M33.9226 19.9557C33.9226 20.439 34.3079 20.8474 34.7638 20.8474C35.2197 20.8474 35.6049 20.439 35.6049 19.9557C35.6049 19.4724 35.2197 19.064 34.7638 19.064C34.3079 19.064 33.9226 19.4724 33.9226 19.9557Z" fill="#162E3C"/>
<path d="M33.1456 4.57849C33.5758 4.57849 33.9226 4.94608 33.9226 5.40216C33.9226 5.85824 33.5758 6.22583 33.1456 6.22583C32.7154 6.22583 32.3687 5.85824 32.3687 5.40216C32.3687 4.94608 32.7154 4.57849 33.1456 4.57849Z" fill="#162E3C"/>
<path d="M3.17197 10.4802C3.63429 10.4802 4.01314 10.8818 4.01314 11.372C4.01314 11.8621 3.63429 12.2637 3.17197 12.2637C2.70965 12.2637 2.33081 11.8621 2.33081 11.372C2.33081 10.8818 2.70965 10.4802 3.17197 10.4802Z" fill="#162E3C"/>
<path d="M3.17197 33.6792C2.71608 33.6792 2.33081 34.0944 2.33081 34.5709C2.33081 35.0474 2.71608 35.4627 3.17197 35.4627C3.62787 35.4627 4.01314 35.0474 4.01314 34.5709C4.01314 34.0944 3.62787 33.6792 3.17197 33.6792Z" fill="#162E3C"/>
</svg>
