<svg xmlns="http://www.w3.org/2000/svg" width="40" height="39" viewBox="0 0 40 39" fill="none">
  <path fill-rule="evenodd" clip-rule="evenodd" d="M5.68079 16.9271C5.68079 11.731 5.68079 9.13295 6.29425 8.25891C6.90771 7.38488 9.35056 6.54868 14.2363 4.87629L15.1671 4.55766C17.7139 3.68589 18.9873 3.25 20.3058 3.25C21.6243 3.25 22.8977 3.68589 25.4445 4.55767L26.3753 4.87629C31.261 6.54868 33.7039 7.38488 34.3173 8.25891C34.9308 9.13295 34.9308 11.731 34.9308 16.9271V19.486C34.9308 28.6478 28.0425 33.0939 23.7206 34.9818C22.5483 35.4939 21.9621 35.75 20.3058 35.75C18.6495 35.75 18.0633 35.4939 16.8909 34.9818C12.5691 33.0939 5.68079 28.6478 5.68079 19.486V16.9271ZM23.5558 14.625C23.5558 16.4199 22.1007 17.875 20.3058 17.875C18.5109 17.875 17.0558 16.4199 17.0558 14.625C17.0558 12.8301 18.5109 11.375 20.3058 11.375C22.1007 11.375 23.5558 12.8301 23.5558 14.625ZM20.3058 27.625C26.8058 27.625 26.8058 26.1699 26.8058 24.375C26.8058 22.5801 23.8956 21.125 20.3058 21.125C16.7159 21.125 13.8058 22.5801 13.8058 24.375C13.8058 26.1699 13.8058 27.625 20.3058 27.625Z" fill="white"/>
</svg>