<svg width="38" height="39" viewBox="0 0 38 39" fill="none" xmlns="http://www.w3.org/2000/svg">
<path d="M18.9738 19.8535C19.4443 19.8535 19.8298 20.2223 19.8298 20.6724C19.8298 21.1225 19.4443 21.4913 18.9738 21.4913C18.5034 21.4913 18.1179 21.1225 18.1179 20.6724C18.1179 20.2223 18.5034 19.8535 18.9738 19.8535Z" fill="#162E3C"/>
<path d="M18.1833 5.67603C18.6537 5.67603 19.0392 6.04484 19.0392 6.49491C19.0392 6.94498 18.6537 7.31379 18.1833 7.31379C17.7129 7.31379 17.3274 6.94498 17.3274 6.49491C17.3274 6.04484 17.7129 5.67603 18.1833 5.67603Z" fill="#162E3C"/>
<path d="M34.9814 0.187744H2.9663C1.31981 0.187744 0 1.45045 0 3.02571V20.9849C0 22.5602 1.31981 23.8229 2.9663 23.8229H3.29298V26.217C3.29298 26.6608 3.68501 27.0359 4.1489 27.0359H7.44188V27.8548H0.855914C0.392022 27.8548 0 28.2299 0 28.6737V37.3689C0 37.8127 0.392022 38.1877 0.855914 38.1877H25.5598C26.0237 38.1877 26.4158 37.8064 26.4158 37.3689V28.5424C26.4158 28.0986 26.0172 27.7235 25.5598 27.7235H9.08838V26.1483C9.08838 25.7044 8.69636 25.3294 8.23246 25.3294H4.93948V23.7541H13.1719V25.3919H12.3814C11.9175 25.3919 11.5254 25.767 11.5254 26.2108C11.5254 26.6546 11.9175 27.0297 12.3814 27.0297H25.5533C26.0172 27.0297 26.4092 26.6483 26.4092 26.2108C26.4092 25.7732 26.0107 25.3919 25.5533 25.3919H24.6974V23.8166H27.1998V37.2438C27.1998 37.6877 27.5918 38.0627 28.0557 38.0627H37.1441C37.608 38.0627 38 37.6877 38 37.2438V3.02571C37.9347 1.45045 36.6149 0.187744 34.9684 0.187744H34.9814ZM24.7693 36.425H1.71836V29.3675H24.7758V36.425H24.7693ZM18.8432 9.19548C18.5818 8.82041 18.118 8.68914 17.7259 8.94543L4.15543 16.8842V4.1509H33.7988V5.72616H20.6269C20.163 5.72616 19.771 6.10747 19.771 6.54504C19.771 6.98261 20.163 7.36392 20.6269 7.36392H33.7988V14.4838H28.0034C27.5395 14.4838 27.1475 14.8589 27.1475 15.3027V17.6969H6.26582L18.5818 10.5144C18.9739 10.0706 19.1111 9.57054 18.8432 9.18923V9.19548ZM28.8594 15.9403H36.3012V27.786H28.8594V15.9403ZM23.1293 25.3919H14.8968V23.8166H23.1293V25.3919ZM2.97283 22.2414C2.24759 22.2414 1.65303 21.6725 1.65303 20.9787V3.01946C1.65303 2.3256 2.24759 1.75675 2.97283 1.75675H34.988C35.7132 1.75675 36.3078 2.3256 36.3078 3.01946V14.3651H35.4519V3.33826C35.4519 2.89444 35.0598 2.51938 34.5959 2.51938H3.36486C2.90096 2.51938 2.50894 2.90069 2.50894 3.33826C2.50894 19.1596 2.50894 18.3407 2.50894 18.4032C2.57428 18.7783 2.90096 19.0971 3.29952 19.0971H27.1475V22.2476H2.9663L2.97283 22.2414ZM28.8594 36.425V29.3675H36.3012V36.4875H28.8594V36.425Z" fill="#162E3C"/>
<path d="M4.1554 30.949H2.50891V32.5242H4.1554V30.949Z" fill="#162E3C"/>
<path d="M4.1554 33.2806H2.50891V34.8559H4.1554V33.2806Z" fill="#162E3C"/>
<path d="M6.65784 30.949H5.01135V32.5242H6.65784V30.949Z" fill="#162E3C"/>
<path d="M6.65784 33.2806H5.01135V34.8559H6.65784V33.2806Z" fill="#162E3C"/>
<path d="M9.09486 30.949H7.44836V32.5242H9.09486V30.949Z" fill="#162E3C"/>
<path d="M16.5367 33.2806H7.44836V34.8559H16.5367V33.2806Z" fill="#162E3C"/>
<path d="M11.5973 30.949H9.95081V32.5242H11.5973V30.949Z" fill="#162E3C"/>
<path d="M14.0344 30.949H12.3879V32.5242H14.0344V30.949Z" fill="#162E3C"/>
<path d="M16.5368 30.949H14.8903V32.5242H16.5368V30.949Z" fill="#162E3C"/>
<path d="M18.9739 30.949H17.3274V32.5242H18.9739V30.949Z" fill="#162E3C"/>
<path d="M18.9739 33.2806H17.3274V34.8559H18.9739V33.2806Z" fill="#162E3C"/>
<path d="M21.4763 30.949H19.8298V32.5242H21.4763V30.949Z" fill="#162E3C"/>
<path d="M21.4763 33.2806H19.8298V34.8559H21.4763V33.2806Z" fill="#162E3C"/>
<path d="M23.9133 30.949H22.2668V32.5242H23.9133V30.949Z" fill="#162E3C"/>
<path d="M23.9133 33.2806H22.2668V34.8559H23.9133V33.2806Z" fill="#162E3C"/>
<path d="M33.7989 33.2806H31.2965C30.8326 33.2806 30.4406 33.6557 30.4406 34.0995C30.4406 34.5434 30.8326 34.9184 31.2965 34.9184H33.7989C34.2628 34.9184 34.6548 34.5371 34.6548 34.0995C34.6548 33.662 34.2628 33.2806 33.7989 33.2806Z" fill="#162E3C"/>
<path d="M33.7989 30.949H31.2965C30.8326 30.949 30.4406 31.3303 30.4406 31.7679C30.4406 32.2054 30.8326 32.5867 31.2965 32.5867H33.7989C34.2628 32.5867 34.6548 32.2117 34.6548 31.7679C34.6548 31.2615 34.2628 30.949 33.7989 30.949Z" fill="#162E3C"/>
<path d="M32.5443 21.4913C31.4271 21.4913 30.4993 22.3727 30.4993 23.4479C30.4993 24.5231 31.4205 25.4045 32.5443 25.4045C33.6681 25.4045 34.5894 24.5231 34.5894 23.4479C34.5894 22.3727 33.6681 21.4913 32.5443 21.4913ZM32.5443 23.823C32.3483 23.823 32.1523 23.6354 32.1523 23.4417C32.1523 23.2479 32.3483 23.0666 32.5443 23.0666C32.7403 23.0666 32.9363 23.2541 32.9363 23.4417C32.9363 23.6292 32.8057 23.823 32.5443 23.823Z" fill="#162E3C"/>
<path d="M14.9556 14.8152C15.2169 15.1965 15.6808 15.3215 16.0729 15.0652L22.7895 11.0958C23.1815 10.8458 23.3187 10.4019 23.0508 10.0269C22.7895 9.64557 22.3256 9.52055 21.9336 9.77684L15.2169 13.7462C14.8903 13.9338 14.753 14.4401 14.9556 14.8152Z" fill="#162E3C"/>
</svg>
