<svg width="38" height="41" viewBox="0 0 38 41" fill="none" xmlns="http://www.w3.org/2000/svg">
<path d="M19.401 2.74072C19.8822 2.74072 20.2765 3.13502 20.2765 3.61621C20.2765 4.09739 19.8822 4.49169 19.401 4.49169C18.9198 4.49169 18.5255 4.09739 18.5255 3.61621C18.5255 3.13502 18.9198 2.74072 19.401 2.74072Z" fill="#162E3C"/>
<path d="M19.401 17.9045C19.8822 17.9045 20.2765 18.2988 20.2765 18.78C20.2765 19.2612 19.8822 19.6555 19.401 19.6555C18.9198 19.6555 18.5255 19.2612 18.5255 18.78C18.5255 18.2988 18.9198 17.9045 19.401 17.9045Z" fill="#162E3C"/>
<path d="M34.6317 5.37378C35.1129 5.37378 35.5072 5.76808 35.5072 6.24926C35.5072 6.73045 35.1129 7.12475 34.6317 7.12475C34.1505 7.12475 33.7562 6.73045 33.7562 6.24926C33.7562 5.76808 34.1505 5.37378 34.6317 5.37378Z" fill="#162E3C"/>
<path d="M34.6317 10.4263C35.1129 10.4263 35.5072 10.8206 35.5072 11.3018C35.5072 11.7829 35.1129 12.1772 34.6317 12.1772C34.1505 12.1772 33.7562 11.7829 33.7562 11.3018C33.7562 10.8206 34.1505 10.4263 34.6317 10.4263Z" fill="#162E3C"/>
<path d="M27.8885 23.8993C28.3697 23.8993 28.764 24.2936 28.764 24.7748C28.764 25.256 28.3697 25.6503 27.8885 25.6503C27.4074 25.6503 27.0131 25.256 27.0131 24.7748C27.0131 24.2936 27.4074 23.8993 27.8885 23.8993Z" fill="#162E3C"/>
<path d="M11.0471 23.8993C11.5283 23.8993 11.9226 24.2936 11.9226 24.7748C11.9226 25.256 11.5283 25.6503 11.0471 25.6503C10.5659 25.6503 10.1716 25.256 10.1716 24.7748C10.1716 24.2936 10.5659 23.8993 11.0471 23.8993Z" fill="#162E3C"/>
<path d="M1.75097 26.3921C2.23215 26.3921 2.62646 26.7864 2.62646 27.2676C2.62646 27.7488 2.23215 28.1431 1.75097 28.1431C1.26979 28.1431 0.875488 27.7488 0.875488 27.2676C0.875488 26.7864 1.26979 26.3921 1.75097 26.3921Z" fill="#162E3C"/>
<path d="M4.31054 10.4263C4.79173 10.4263 5.18603 10.8206 5.18603 11.3018C5.18603 11.7829 4.79173 12.1772 4.31054 12.1772C3.82936 12.1772 3.43506 11.7829 3.43506 11.3018C3.43506 10.8206 3.82936 10.4263 4.31054 10.4263Z" fill="#162E3C"/>
<path d="M24.7274 4.96619C25.2086 4.96619 25.6029 5.36049 25.6029 5.84167C25.6029 6.32285 25.2086 6.71715 24.7274 6.71715C24.2462 6.71715 23.8519 6.32285 23.8519 5.84167C23.8519 5.36049 24.2462 4.96619 24.7274 4.96619Z" fill="#162E3C"/>
<path d="M14.0144 15.6791C14.4956 15.6791 14.8899 16.0734 14.8899 16.5546C14.8899 17.0357 14.4956 17.43 14.0144 17.43C13.5332 17.43 13.1389 17.0357 13.1389 16.5546C13.1389 16.0734 13.5332 15.6791 14.0144 15.6791Z" fill="#162E3C"/>
<path d="M26.9462 10.2926C27.4273 10.2926 27.8216 10.6869 27.8216 11.1681C27.8216 11.6493 27.4273 12.0436 26.9462 12.0436C26.465 12.0436 26.0707 11.6493 26.0707 11.1681C26.0707 10.6869 26.465 10.2926 26.9462 10.2926Z" fill="#162E3C"/>
<path d="M11.7889 10.2926C12.2701 10.2926 12.6644 10.6869 12.6644 11.1681C12.6644 11.6493 12.2701 12.0436 11.7889 12.0436C11.3078 12.0436 10.9135 11.6493 10.9135 11.1681C10.9135 10.6869 11.3078 10.2926 11.7889 10.2926Z" fill="#162E3C"/>
<path d="M14.0144 4.96619C14.4956 4.96619 14.8899 5.36049 14.8899 5.84167C14.8899 6.32285 14.4956 6.71715 14.0144 6.71715C13.5332 6.71715 13.1389 6.32285 13.1389 5.84167C13.1389 5.36049 13.5332 4.96619 14.0144 4.96619Z" fill="#162E3C"/>
<path d="M24.7274 15.6791C25.2086 15.6791 25.6029 16.0734 25.6029 16.5546C25.6029 17.0357 25.2086 17.43 24.7274 17.43C24.2462 17.43 23.8519 17.0357 23.8519 16.5546C23.8519 16.0734 24.2462 15.6791 24.7274 15.6791Z" fill="#162E3C"/>
<path d="M33.6895 31.8522C34.1639 31.3109 34.4981 30.5757 34.4981 29.7671C34.4981 27.9493 33.0145 26.4656 31.1967 26.4656C29.3789 26.4656 27.8952 27.9493 27.8952 29.7671C27.8952 30.5757 28.1625 31.3175 28.7039 31.8522C28.1625 32.1195 27.6947 32.5272 27.2871 32.9282C26.5452 31.1772 24.9279 29.7604 23.0433 29.3594C25.2019 27.2008 24.9948 23.6988 22.7092 21.7474C27.2202 20.3306 30.4548 16.1536 30.4548 11.2349C30.4548 5.17332 25.4693 0.187744 19.4077 0.187744C13.3462 0.187744 8.36057 5.17332 8.36057 11.2349C8.36057 16.1536 11.662 20.3974 16.1063 21.7474C13.7471 23.6988 13.6135 27.2074 15.7721 29.3594C13.8875 29.8339 12.2702 31.1772 11.5284 32.9282C11.1274 32.4537 10.6529 32.1195 10.1115 31.8522C10.586 31.3109 10.9202 30.5757 10.9202 29.7671C10.9202 27.9493 9.43655 26.4656 7.61875 26.4656C5.80096 26.4656 4.31731 27.9493 4.31731 29.7671C4.31731 30.5757 4.58463 31.3175 5.12596 31.8522C3.57549 32.6608 2.49951 34.2781 2.49951 36.0959V38.2546C2.49951 38.7291 2.9005 39.1301 3.375 39.1301H11.0539V40.0055C11.0539 40.48 11.4548 40.881 11.9293 40.881H27.0197C27.4942 40.881 27.8952 40.4734 27.8952 40.0055V39.1301H35.4404C35.9149 39.1301 36.3159 38.7291 36.3159 38.2546V36.0959C36.3159 34.2113 35.2399 32.594 33.6895 31.8522ZM31.1967 28.1498C32.0721 28.1498 32.814 28.8916 32.814 29.7671C32.814 30.6425 32.0721 31.3175 31.1967 31.3175C30.3212 31.3175 29.5794 30.5757 29.5794 29.7002C29.5794 28.8247 30.3212 28.1498 31.1967 28.1498ZM10.038 11.168C10.038 5.98198 14.215 1.80505 19.401 1.80505C24.5871 1.80505 28.764 5.98198 28.764 11.168C28.764 16.3541 24.5203 20.531 19.401 20.531C14.2818 20.531 10.038 16.3541 10.038 11.168ZM19.401 22.2219C21.2857 22.2219 22.8361 23.7723 22.8361 25.657C22.8361 27.5416 21.2857 29.0921 19.401 29.0921C17.5164 29.0921 15.9659 27.5416 15.9659 25.657C15.9659 23.7723 17.4496 22.2219 19.401 22.2219ZM7.61207 28.1498C8.48755 28.1498 9.22938 28.8916 9.22938 29.7671C9.22938 30.6425 8.48755 31.3175 7.61207 31.3175C6.73659 31.3175 5.99476 30.5757 5.99476 29.7002C5.99476 28.8247 6.73659 28.1498 7.61207 28.1498ZM10.2385 37.3791V36.3699C10.2385 35.8954 9.83753 35.4945 9.36304 35.4945C8.88854 35.4945 8.48755 35.9021 8.48755 36.3699V37.3791H6.53609V36.3699C6.53609 35.8954 6.13511 35.4945 5.66061 35.4945C5.18611 35.4945 4.78513 35.9021 4.78513 36.3699V37.3791H4.0433V36.0959C4.0433 34.4118 5.46012 32.995 7.14425 32.995H7.81925C9.50338 32.995 10.9202 34.4118 10.9202 36.0959V37.3791H10.2452H10.2385ZM26.0707 39.0632H23.4443V37.5128C23.4443 37.0383 23.0433 36.6373 22.5688 36.6373C22.0943 36.6373 21.6933 37.0383 21.6933 37.5128V39.0632H16.9082V37.5128C16.9082 37.0383 16.5073 36.6373 16.0328 36.6373C15.5583 36.6373 15.1573 37.0383 15.1573 37.5128V39.0632H12.5308V35.3608C12.5308 32.868 14.5491 30.8497 17.0419 30.8497H18.3919V34.9598C18.3919 35.4343 18.7929 35.8353 19.2674 35.8353C19.7419 35.8353 20.1428 35.4276 20.1428 34.9598V30.8497H21.4928C23.9856 30.8497 26.0106 32.868 26.0106 35.3608V38.2546L26.0774 39.0632H26.0707ZM34.6251 37.3791H33.8833V36.3699C33.8833 35.8954 33.4823 35.4945 33.0078 35.4945C32.5333 35.4945 32.1323 35.9021 32.1323 36.3699V37.3791H30.1808V36.3699C30.1808 35.8954 29.7799 35.4945 29.3054 35.4945C28.8309 35.4945 28.4299 35.9021 28.4299 36.3699V37.3791H27.688V36.0959C27.688 34.4118 29.1049 32.995 30.789 32.995H31.464C33.1481 32.995 34.5649 34.4118 34.5649 36.0959L34.6318 37.3791H34.6251Z" fill="#162E3C"/>
<path d="M22.836 10.4263H19.8019L16.701 7.32532C16.3668 6.99117 15.8255 6.99117 15.4913 7.32532C15.1572 7.65948 15.1572 8.20081 15.4913 8.54164L18.8596 11.9099C18.9933 12.0436 19.2606 12.1772 19.4678 12.1772H22.836C23.3105 12.1772 23.7115 11.7696 23.7115 11.3018C23.6447 10.8273 23.237 10.4263 22.836 10.4263Z" fill="#162E3C"/>
<path d="M5.11924 20.5311C5.11924 19.1142 3.97643 17.9714 2.55962 17.9714C1.14281 17.9714 0 19.1142 0 20.5311C0 21.9479 1.14281 23.0907 2.55962 23.0907C3.97643 23.0907 5.11924 21.9479 5.11924 20.5311ZM1.75097 20.5311C1.75097 20.0566 2.15195 19.6556 2.62645 19.6556C3.10095 19.6556 3.50193 20.0566 3.50193 20.5311C3.50193 21.0056 3.09427 21.4065 2.62645 21.4065C2.15864 21.4065 1.75097 20.9989 1.75097 20.5311Z" fill="#162E3C"/>
<path d="M4.3106 7.05796C5.72741 7.05796 6.87022 5.91515 6.87022 4.49834C6.87022 3.08153 5.72741 1.93872 4.3106 1.93872C2.89378 1.93872 1.75098 3.14836 1.75098 4.56517C1.75098 5.98199 2.89378 7.05796 4.3106 7.05796ZM4.3106 3.68969C4.7851 3.68969 5.18608 4.09736 5.18608 4.56517C5.18608 5.03299 4.7851 5.44066 4.3106 5.44066C3.8361 5.44066 3.43511 5.03299 3.43511 4.56517C3.43511 4.09736 3.8361 3.68969 4.3106 3.68969Z" fill="#162E3C"/>
<path d="M35.0327 16.3541C33.4154 16.3541 32.0654 17.7041 32.0654 19.3214C32.0654 20.9387 33.4154 22.2887 35.0327 22.2887C36.65 22.2887 38 20.9387 38 19.3214C38 17.7041 36.65 16.3541 35.0327 16.3541ZM35.0327 20.5311C34.3577 20.5311 33.7496 19.9897 33.7496 19.2479C33.7496 18.5061 34.2909 17.9647 35.0327 17.9647C35.7745 17.9647 36.3159 18.5061 36.3159 19.2479C36.3159 19.9897 35.7077 20.5311 35.0327 20.5311Z" fill="#162E3C"/>
</svg>
