<svg width="44" height="39" viewBox="0 0 44 39" fill="none" xmlns="http://www.w3.org/2000/svg">
<path d="M38.1013 0.187744C37.9655 0.187744 39.2693 0.187744 10.7618 0.187744C8.90794 0.187744 7.3936 1.6817 7.3936 3.5152V32.1042H3.88959C3.40744 32.1042 3 32.5116 3 32.9191C3 36.3144 5.2681 38.3517 8.22207 38.3517H28.9678C30.3395 38.2158 31.5754 37.7405 32.4718 36.8577C33.504 35.8391 34.054 34.5488 34.1219 32.987V6.57103H37.7618C39.8193 6.57103 40.9194 5.00916 40.9874 3.44729C41.1232 1.88543 40.1657 0.323559 38.1013 0.187744ZM8.28998 36.7219C6.43611 36.7219 5.13229 35.6354 4.85387 33.8019H22.9919C23.1277 34.8884 23.6099 35.907 24.2957 36.7219H8.28998ZM14.2658 26.9432C14.2658 24.3627 16.3981 22.2576 19.0058 22.2576C21.6134 22.2576 23.7457 24.3627 23.7457 26.9432C23.7457 29.5237 21.6134 31.6288 19.0058 31.6288C16.3981 31.6288 14.2658 29.5237 14.2658 26.9432ZM28.9678 36.7219H28.0782C26.428 36.5182 24.6421 35.4995 24.6421 32.987C24.6421 32.5116 24.2278 32.1721 23.7457 32.1721H22.6456C24.2957 31.0177 25.3279 29.1163 25.3279 27.0111C25.3279 23.48 22.4419 20.6278 18.8699 20.6278C15.298 20.6278 12.412 23.48 12.412 27.0111C12.412 29.1163 13.5121 31.0177 15.0875 32.1721H9.04375V3.5152C9.04375 2.63241 9.79752 1.88543 10.6939 1.88543H33.9114C32.8792 2.90404 32.3292 4.26218 32.3292 5.68824V32.9191C32.465 35.4995 30.5432 36.5182 28.961 36.7219H28.9678ZM37.8976 4.87335H34.3256C34.7399 3.24357 36.1795 1.95333 37.8976 1.88543H37.9655C38.9977 1.95333 39.3372 2.70032 39.3372 3.37939C39.3372 4.05846 38.9909 4.87335 37.8976 4.87335Z" fill="#162E3C"/>
<path d="M12.3441 5.89181H16.8803C17.3624 5.89181 17.7698 5.48437 17.7698 5.00902C17.7698 4.53367 17.3556 4.12622 16.8803 4.12622H12.3441C11.8619 4.12622 11.4545 4.53367 11.4545 5.00902C11.4545 5.48437 11.8687 5.89181 12.3441 5.89181Z" fill="#162E3C"/>
<path d="M19.5558 5.89181H21.3418C21.8239 5.89181 22.2313 5.48437 22.2313 5.00902C22.2313 4.53367 21.8171 4.12622 21.3418 4.12622H19.5558C19.0737 4.12622 18.6594 4.53367 18.6594 5.00902C18.6594 5.48437 19.0737 5.89181 19.5558 5.89181Z" fill="#162E3C"/>
<path d="M24.0173 5.89181H29.4431C29.9252 5.89181 30.3327 5.48437 30.3327 5.00902C30.3327 4.53367 29.9184 4.12622 29.4431 4.12622H24.0173C23.5351 4.12622 23.1277 4.53367 23.1277 5.00902C23.1956 5.48437 23.5419 5.89181 24.0173 5.89181Z" fill="#162E3C"/>
<path d="M12.3441 8.60812H21.3418C21.8239 8.60812 22.2314 8.20068 22.2314 7.72532C22.2314 7.24997 21.8171 6.84253 21.3418 6.84253H12.3441C11.8619 6.84253 11.4545 7.24997 11.4545 7.72532C11.4545 8.20068 11.8687 8.60812 12.3441 8.60812Z" fill="#162E3C"/>
<path d="M29.7215 12.0715H12.3441C11.8619 12.0715 11.4545 12.479 11.4545 12.9543C11.4545 13.4297 11.8687 13.8371 12.3441 13.8371H29.7215C30.2037 13.8371 30.6179 13.4297 30.6179 12.9543C30.55 12.479 30.1358 12.0715 29.7215 12.0715Z" fill="#162E3C"/>
<path d="M29.7215 14.6519H12.3441C11.8619 14.6519 11.4545 15.0593 11.4545 15.5347C11.4545 16.01 11.8687 16.4174 12.3441 16.4174H29.7215C30.2037 16.4174 30.6179 16.01 30.6179 15.5347C30.55 14.9914 30.1358 14.6519 29.7215 14.6519Z" fill="#162E3C"/>
<path d="M29.7215 17.1646H12.3441C11.8619 17.1646 11.4545 17.572 11.4545 18.0473C11.4545 18.5227 11.8687 18.9301 12.3441 18.9301H29.7215C30.2037 18.9301 30.6179 18.5227 30.6179 18.0473C30.55 17.572 30.1358 17.1646 29.7215 17.1646Z" fill="#162E3C"/>
<path d="M24.0173 8.60812H29.4431C29.9252 8.60812 30.3327 8.20068 30.3327 7.72532C30.3327 7.24997 29.9184 6.84253 29.4431 6.84253H24.0173C23.5351 6.84253 23.1277 7.24997 23.1277 7.72532C23.1277 8.20068 23.5419 8.60812 24.0173 8.60812Z" fill="#162E3C"/>
<path d="M12.3441 11.2568H16.8803C17.3624 11.2568 17.7698 10.8494 17.7698 10.374C17.7698 9.89865 17.3556 9.49121 16.8803 9.49121H12.3441C11.8619 9.49121 11.4545 9.89865 11.4545 10.374C11.4545 10.8494 11.8687 11.2568 12.3441 11.2568Z" fill="#162E3C"/>
<path d="M21.3418 9.55884H19.5558C19.0737 9.55884 18.6594 9.96628 18.6594 10.4416C18.6594 10.917 19.0737 11.3244 19.5558 11.3244H21.3418C21.8239 11.3244 22.2313 10.917 22.2313 10.4416C22.1634 9.89837 21.8171 9.55884 21.3418 9.55884Z" fill="#162E3C"/>
<path d="M24.0173 11.2568H29.4431C29.9252 11.2568 30.3327 10.8494 30.3327 10.374C30.3327 9.89865 29.9184 9.49121 29.4431 9.49121H24.0173C23.5351 9.49121 23.1277 9.89865 23.1277 10.374C23.1956 10.8494 23.5419 11.2568 24.0173 11.2568Z" fill="#162E3C"/>
<path d="M19.42 26.3999C18.7341 26.1282 18.3878 25.9245 18.3878 25.6529C18.3878 25.4492 18.5915 25.1775 19.1415 25.1775C19.7595 25.1775 20.1737 25.3813 20.3774 25.4492L20.6491 24.4985C20.3774 24.3627 20.0311 24.2268 19.4132 24.2268V23.4799H18.5236V24.2947C17.634 24.4985 17.0839 25.0417 17.0839 25.7887C17.0839 26.6036 17.7019 27.011 18.5983 27.3506C19.2162 27.5543 19.4879 27.758 19.4879 28.0976C19.4879 28.4371 19.1415 28.6408 18.6662 28.6408C18.1161 28.6408 17.634 28.4371 17.2945 28.3013L17.0228 29.252C17.3692 29.4557 17.8445 29.5915 18.4625 29.5915V30.3385H19.2162V29.5236C20.2484 29.3878 20.7306 28.7087 20.7306 27.9617C20.7985 27.2148 20.4589 26.7394 19.4267 26.3999H19.42Z" fill="#162E3C"/>
<path d="M28.8319 29.931H27.1139V31.6287H28.8319V29.931Z" fill="#162E3C"/>
<path d="M30.55 28.2333H28.8319V29.931H30.55V28.2333Z" fill="#162E3C"/>
<path d="M28.8319 26.5356H27.1139V28.2333H28.8319V26.5356Z" fill="#162E3C"/>
<path d="M30.55 24.838H28.8319V26.5357H30.55V24.838Z" fill="#162E3C"/>
<path d="M28.8319 23.1403H27.1139V24.8379H28.8319V23.1403Z" fill="#162E3C"/>
<path d="M30.55 21.4426H28.8319V23.1403H30.55V21.4426Z" fill="#162E3C"/>
<path d="M2.45353 31.0948C3.84804 31.0948 4.97285 29.97 4.97285 28.6413C4.97285 27.3126 3.84804 26.1877 2.45353 26.1877C1.05903 26.1877 0 27.2468 0 28.5755C0 29.9042 1.12481 31.0948 2.45353 31.0948ZM2.45353 27.7796C2.92056 27.7796 3.31523 28.1743 3.31523 28.5755C3.31523 29.0425 2.92056 29.4372 2.45353 29.4372C1.98651 29.4372 1.59184 29.0425 1.59184 28.5755C1.65762 28.1085 2.05886 27.7796 2.45353 27.7796Z" fill="#162E3C"/>
<path d="M40.9206 14.0289C42.5124 14.0289 43.8411 12.7001 43.8411 11.1083C43.8411 9.51647 42.5124 8.18774 40.9206 8.18774C39.3287 8.18774 38 9.51647 38 11.1083C38 12.7001 39.3287 14.0289 40.9206 14.0289ZM40.9206 9.85194C41.5849 9.85194 42.1835 10.3847 42.1835 11.1149C42.1835 11.7792 41.6507 12.3778 40.9206 12.3778C40.2562 12.3778 39.6576 11.845 39.6576 11.1149C39.7234 10.4505 40.2562 9.85194 40.9206 9.85194Z" fill="#162E3C"/>
<path d="M35 30.0494C35 30.5165 35.3947 30.9111 35.8617 30.9111C36.3287 30.9111 36.7234 30.5165 36.7234 30.0494C36.7234 29.5824 36.3287 29.1877 35.8617 29.1877C35.3289 29.1877 35 29.5824 35 30.0494Z" fill="#162E3C"/>
<path d="M5 18.0494C5 18.5165 5.39467 18.9111 5.8617 18.9111C6.32872 18.9111 6.72339 18.5165 6.72339 18.0494C6.72339 17.5824 6.32872 17.1877 5.8617 17.1877C5.32889 17.1877 5 17.5824 5 18.0494Z" fill="#162E3C"/>
</svg>
