<svg width="38" height="39" viewBox="0 0 38 39" fill="none" xmlns="http://www.w3.org/2000/svg">
<path d="M34.2751 4.5238H16.6023C14.5802 4.5238 12.94 6.31284 12.94 8.51841V15.7497H3.66227C1.6402 15.7497 0 17.5387 0 19.7443V27.317C0 29.5225 1.6402 31.3116 3.66227 31.3116H3.72488L2.52916 33.4489C2.21615 34.002 2.59176 34.7599 3.22405 34.7599C3.34926 34.7599 3.41186 34.7599 3.53707 34.6916L11.0494 31.3184H25.6297C27.6517 31.3184 29.2919 29.5294 29.2919 27.3238V21.1305L34.5318 23.4726C34.8448 23.6092 35.2267 23.5409 35.4145 23.2677C35.6649 22.9946 35.6649 22.5781 35.4771 22.2367L34.2751 20.1062H34.3377C36.3598 20.1062 38 18.3172 38 16.1116V8.5389C37.8748 6.33333 36.2346 4.54429 34.2751 4.54429V4.5238ZM27.6455 27.2419C27.6455 28.4778 26.7002 29.5157 25.5608 29.5157H10.7928C10.6675 29.5157 10.6049 29.5157 10.4797 29.584L5.11466 31.9944L5.80956 30.8268C6.12257 30.2737 5.74695 29.5157 5.11466 29.5157H3.59967C2.46656 29.5157 1.51499 28.4846 1.51499 27.2419V19.6692C1.51499 18.4332 2.4603 17.3953 3.59967 17.3953H25.5671C26.7002 17.3953 27.6517 18.4264 27.6517 19.6692V27.2419H27.6455ZM36.2909 16.0911C36.2909 17.3339 35.3456 18.365 34.2063 18.365H32.6913C32.059 18.365 31.6834 19.1229 31.9964 19.676L32.6913 20.8437L29.0916 19.2595C28.8412 17.3339 27.3262 15.818 25.4919 15.818H14.5114V8.51841C14.5114 7.28247 15.4567 6.24456 16.596 6.24456H34.2689C35.4082 6.24456 36.3535 7.27564 36.3535 8.51841V16.0911H36.2909Z" fill="#162E3C"/>
<path d="M4.73904 20.9053H14.2046C14.6491 20.9053 15.0247 20.4887 15.0247 20.0107C15.0247 19.5327 14.6428 19.1162 14.2046 19.1162H4.73904C4.29456 19.1162 3.91895 19.5327 3.91895 20.0107C3.91895 20.4887 4.30082 20.9053 4.73904 20.9053Z" fill="#162E3C"/>
<path d="M4.73904 24.3464H11.0494C11.4939 24.3464 11.8695 23.9299 11.8695 23.4519C11.8695 22.9739 11.4876 22.5574 11.0494 22.5574H4.73904C4.29456 22.5574 3.91895 22.9739 3.91895 23.4519C3.91895 23.9299 4.30082 24.3464 4.73904 24.3464Z" fill="#162E3C"/>
<path d="M24.4903 22.6257H13.4471C13.0026 22.6257 12.627 23.0423 12.627 23.5203C12.627 23.9982 13.0089 24.4148 13.4471 24.4148H24.4903C24.9348 24.4148 25.3104 23.9982 25.3104 23.5203C25.3104 23.0423 24.8659 22.6257 24.4903 22.6257Z" fill="#162E3C"/>
<path d="M18.1799 26.0673H4.73282C4.28834 26.0673 3.91272 26.477 3.91272 26.9618C3.91272 27.4466 4.2946 27.8563 4.73282 27.8563H18.1799C18.6182 27.8563 19 27.4398 19 26.9618C19 26.4838 18.5556 26.0673 18.1799 26.0673Z" fill="#162E3C"/>
<path d="M16.6023 19.1162C17.0531 19.1162 17.4224 19.5191 17.4224 20.0107C17.4224 20.5024 17.0531 20.9053 16.6023 20.9053C16.1516 20.9053 15.7822 20.5024 15.7822 20.0107C15.7822 19.5191 16.1516 19.1162 16.6023 19.1162Z" fill="#162E3C"/>
<path d="M18.9374 19.1162C19.3882 19.1162 19.7575 19.5191 19.7575 20.0107C19.7575 20.5024 19.3882 20.9053 18.9374 20.9053C18.4867 20.9053 18.1173 20.5024 18.1173 20.0107C18.1173 19.5191 18.4867 19.1162 18.9374 19.1162Z" fill="#162E3C"/>
<path d="M33.142 12.2332C33.5927 12.2332 33.9621 12.636 33.9621 13.1277C33.9621 13.6193 33.5927 14.0222 33.142 14.0222C32.6913 14.0222 32.3219 13.6193 32.3219 13.1277C32.3219 12.636 32.6913 12.2332 33.142 12.2332Z" fill="#162E3C"/>
<path d="M20.515 32.0627C20.9657 32.0627 21.3351 32.4656 21.3351 32.9573C21.3351 33.4489 20.9657 33.8518 20.515 33.8518C20.0642 33.8518 19.6949 33.4489 19.6949 32.9573C19.6949 32.4656 20.0642 32.0627 20.515 32.0627Z" fill="#162E3C"/>
<path d="M8.71433 34.6097C9.16507 34.6097 9.53442 35.0126 9.53442 35.5043C9.53442 35.9959 9.16507 36.3988 8.71433 36.3988C8.26358 36.3988 7.89423 35.9959 7.89423 35.5043C7.89423 35.0126 8.26358 34.6097 8.71433 34.6097Z" fill="#162E3C"/>
<path d="M8.71433 9.68616C9.16507 9.68616 9.53442 10.089 9.53442 10.5807C9.53442 11.0723 9.16507 11.4752 8.71433 11.4752C8.26358 11.4752 7.89423 11.0723 7.89423 10.5807C7.89423 10.089 8.26358 9.68616 8.71433 9.68616Z" fill="#162E3C"/>
<path d="M11.0494 0.187744C11.5002 0.187744 11.8695 0.590619 11.8695 1.08226C11.8695 1.57391 11.5002 1.97678 11.0494 1.97678C10.5987 1.97678 10.2293 1.57391 10.2293 1.08226C10.2293 0.590619 10.5987 0.187744 11.0494 0.187744Z" fill="#162E3C"/>
<path d="M23.6702 0.187744C24.1209 0.187744 24.4903 0.590619 24.4903 1.08226C24.4903 1.57391 24.1209 1.97678 23.6702 1.97678C23.2195 1.97678 22.8501 1.57391 22.8501 1.08226C22.8501 0.590619 23.2195 0.187744 23.6702 0.187744Z" fill="#162E3C"/>
<path d="M2.40396 12.2332C2.8547 12.2332 3.22406 12.636 3.22406 13.1277C3.22406 13.6193 2.8547 14.0222 2.40396 14.0222C1.95322 14.0222 1.58386 13.6193 1.58386 13.1277C1.58386 12.636 1.95322 12.2332 2.40396 12.2332Z" fill="#162E3C"/>
<path d="M20.515 25.9989C20.9657 25.9989 21.3351 26.4018 21.3351 26.8934C21.3351 27.3851 20.9657 27.7879 20.515 27.7879C20.0642 27.7879 19.6949 27.3851 19.6949 26.8934C19.6949 26.4018 20.0642 25.9989 20.515 25.9989Z" fill="#162E3C"/>
<path d="M18.1799 10.5807H23.7328C24.1773 10.5807 24.5529 10.171 24.5529 9.68615C24.5529 9.20133 24.1773 8.79163 23.7328 8.79163H18.1799C17.7354 8.79163 17.3598 9.20133 17.3598 9.68615C17.3598 10.171 17.7354 10.5807 18.1799 10.5807Z" fill="#162E3C"/>
<path d="M30.8069 12.3015H18.1862C17.7417 12.3015 17.3661 12.718 17.3661 13.196C17.3661 13.674 17.7417 14.0906 18.1862 14.0906H30.8069C31.2514 14.0906 31.627 13.674 31.627 13.196C31.5644 12.6429 31.1826 12.3015 30.8069 12.3015Z" fill="#162E3C"/>
<path d="M15.0247 32.9574C13.6975 32.9574 12.627 34.1251 12.627 35.5727C12.627 37.0203 13.6975 38.1879 15.0247 38.1879C16.3519 38.1879 17.4224 37.0203 17.4224 35.5727C17.4224 34.1251 16.2893 32.9574 15.0247 32.9574ZM15.0247 36.3989C14.5802 36.3989 14.2046 35.9824 14.2046 35.5044C14.2046 35.0264 14.5802 34.6099 15.0247 34.6099C15.4692 34.6099 15.7822 35.0264 15.7822 35.5044C15.7822 35.9824 15.4003 36.3989 15.0247 36.3989Z" fill="#162E3C"/>
<path d="M33.5176 27.795C32.4471 27.795 31.5582 28.7578 31.5582 29.9255C31.5582 31.0932 32.4409 32.0628 33.5176 32.0628C34.5944 32.0628 35.4709 31.1 35.4709 29.9255C35.5335 28.7578 34.5881 27.795 33.5176 27.795ZM33.5176 30.342C33.3298 30.342 33.1358 30.1372 33.1358 29.9255C33.1358 29.7138 33.3236 29.5158 33.5176 29.5158C33.7117 29.5158 33.8933 29.7206 33.8933 29.9255C33.9559 30.1304 33.768 30.342 33.5176 30.342Z" fill="#162E3C"/>
<path d="M5.93478 7.9651C7.44978 7.9651 8.71436 6.58577 8.71436 4.9333C8.71436 3.28082 7.44978 1.90149 5.93478 1.90149C4.41979 1.90149 3.15521 3.28082 3.15521 4.9333C3.15521 6.58577 4.41979 7.9651 5.93478 7.9651ZM5.93478 3.69736C6.56707 3.69736 7.1305 4.25046 7.1305 5.00841C7.1305 5.76636 6.62342 6.31946 5.93478 6.31946C5.24615 6.31946 4.73281 5.76636 4.73281 5.00841C4.73281 4.25046 5.23989 3.69736 5.93478 3.69736Z" fill="#162E3C"/>
</svg>
