<svg width="38" height="39" viewBox="0 0 38 39" fill="none" xmlns="http://www.w3.org/2000/svg">
<path d="M31.2856 23.8994L29.1312 26.1393L28.8171 25.7475C27.9943 24.892 26.7256 24.892 25.9028 25.7475C25.0799 26.603 25.0799 27.9221 25.9028 28.7776L28.5596 31.5399C28.8737 31.8664 29.3824 31.8664 29.7027 31.5399L34.1999 26.8642C35.0227 26.0087 35.0227 24.6896 34.1999 23.8341C33.4399 23.0439 32.1084 23.0439 31.2856 23.8994ZM33.1196 25.741L29.194 29.8224L27.0396 27.5825C26.8512 27.3866 26.8512 27.0536 27.0396 26.8576C27.228 26.6617 27.5484 26.6617 27.7368 26.8576L28.6224 27.7784C28.9365 28.1049 29.4452 28.1049 29.7593 27.7784L32.4161 25.0161C32.6046 24.8202 32.9249 24.8202 33.1133 25.0161C33.2389 25.2773 33.2389 25.545 33.1133 25.741H33.1196Z" fill="#162E3C"/>
<path d="M32.4225 19.4196C32.4225 6.11729 32.4225 6.77685 32.4225 6.64625C32.4225 6.58094 32.3597 6.45034 32.2969 6.38504L32.234 6.31973L32.1712 6.25443C26.2797 0.128976 26.6 0.462024 26.4744 0.39672C26.3488 0.331417 26.2231 0.266113 26.0284 0.266113H6.33123C5.88528 0.266113 5.50842 0.657934 5.50842 1.12159V37.3323C5.50842 37.7959 5.88528 38.1878 6.33123 38.1878H31.6625C32.1084 38.1878 32.4225 37.7959 32.4225 37.3323V34.57C35.5881 33.6492 37.9309 30.6191 37.9309 27.0013C37.9937 23.377 35.6509 20.3534 32.4225 19.4326V19.4196ZM26.914 3.02844L29.7656 5.99321H26.914V3.02844ZM30.9025 36.4768H7.09123V1.90523H25.2684V6.84216C25.2684 7.30581 25.6453 7.63233 26.0912 7.63233H30.8397V19.1518C26.5309 18.8906 22.9256 22.5084 22.9256 26.9882C22.9256 31.468 26.5372 35.0205 30.8397 34.8246V36.4703H30.9025V36.4768ZM30.4565 33.1855C27.1653 33.1855 24.5021 30.4232 24.5021 26.9948C24.5021 23.5663 27.159 20.804 30.4565 20.804C33.754 20.804 36.4109 23.5663 36.4109 26.9948C36.4109 30.4232 33.754 33.1855 30.4565 33.1855Z" fill="#162E3C"/>
<path d="M22.9257 5.19654C22.9257 4.73289 22.5488 4.40637 22.1028 4.40637H10.2632C9.81722 4.40637 9.50317 4.79819 9.50317 5.19654V9.278C9.50317 9.74165 9.88003 10.1335 10.2632 10.1335H22.1028C22.5488 10.1335 22.9257 9.73512 22.9257 9.278V5.19654ZM21.4057 8.48783H11.086V6.05202H21.4057V8.48783Z" fill="#162E3C"/>
<path d="M10.2568 13.4313H15.0053C15.4512 13.4313 15.8281 13.0329 15.8281 12.5758C15.8281 12.1187 15.4449 11.7203 15.0053 11.7203H10.2568C9.81088 11.7203 9.49683 12.1187 9.49683 12.5758C9.49683 13.0329 9.87369 13.4313 10.2568 13.4313Z" fill="#162E3C"/>
<path d="M10.2568 16.7225H18.9937C19.4396 16.7225 19.8165 16.3307 19.8165 15.8671C19.8165 15.4034 19.4396 15.0116 18.9937 15.0116H10.2568C9.81088 15.0116 9.49683 15.4034 9.49683 15.8671C9.49683 16.3307 9.87369 16.7225 10.2568 16.7225Z" fill="#162E3C"/>
<path d="M10.2568 20.0138H17.4109C17.8568 20.0138 18.2337 19.622 18.2337 19.1583C18.2337 18.6947 17.8568 18.3029 17.4109 18.3029H10.2568C9.81088 18.3029 9.49683 18.6947 9.49683 19.1583C9.49683 19.622 9.87369 20.0138 10.2568 20.0138Z" fill="#162E3C"/>
<path d="M21.4057 20.804H10.2632C9.81722 20.804 9.50317 21.2023 9.50317 21.6594C9.50317 22.1166 9.88003 22.5149 10.2632 22.5149H21.3428C21.7888 22.5149 22.1028 22.1166 22.1028 21.6594C22.1656 21.1958 21.7888 20.804 21.4057 20.804Z" fill="#162E3C"/>
<path d="M21.4057 23.3052H10.2632C9.81722 23.3052 9.50317 23.697 9.50317 24.1607C9.50317 24.6243 9.88003 25.0161 10.2632 25.0161H21.3428C21.7888 25.0161 22.1028 24.6243 22.1028 24.1607C22.1656 23.6317 21.7888 23.3052 21.4057 23.3052Z" fill="#162E3C"/>
<path d="M14.2515 32.3235H10.3259C9.87997 32.3235 9.56592 32.7153 9.56592 33.179C9.56592 33.6426 9.94278 34.0344 10.3259 34.0344H14.2515C14.6975 34.0344 15.0743 33.6426 15.0743 33.179C15.0115 32.7153 14.6975 32.3235 14.2515 32.3235Z" fill="#162E3C"/>
<path d="M2.34281 24.9508C1.01124 24.9508 0 26.0675 0 27.3866C0 28.771 1.07405 29.8877 2.34281 29.8877C3.61157 29.8877 4.74843 28.771 4.74843 27.3866C4.74843 26.0022 3.67438 24.9508 2.34281 24.9508ZM2.34281 28.2421C1.89686 28.2421 1.52 27.8503 1.52 27.3866C1.52 26.923 1.90314 26.5964 2.34281 26.5964C2.78248 26.5964 3.10281 26.9883 3.10281 27.3866C3.16562 27.8503 2.78876 28.2421 2.34281 28.2421Z" fill="#162E3C"/>
<path d="M35.2112 5.98668C36.7312 5.98668 38 4.66755 38 3.08721C38 1.50687 36.7312 0.187744 35.2112 0.187744C33.6912 0.187744 32.4225 1.50687 32.4225 3.08721C32.4225 4.66755 33.6912 5.98668 35.2112 5.98668ZM35.2112 1.90522C35.8456 1.90522 36.4172 2.43418 36.4172 3.15904C36.4172 3.81861 35.9084 4.41287 35.2112 4.41287C34.5769 4.41287 34.0053 3.88391 34.0053 3.15904C34.0053 2.43418 34.5769 1.90522 35.2112 1.90522Z" fill="#162E3C"/>
<path d="M3.16558 8.48781C3.61153 8.48781 3.98839 8.08946 3.98839 7.63233C3.98839 7.17521 3.60525 6.84216 3.16558 6.84216C2.72591 6.84216 2.34277 7.24051 2.34277 7.63233C2.34277 8.09599 2.72591 8.48781 3.16558 8.48781Z" fill="#162E3C"/>
<path d="M34.0054 11.7791C34.0054 12.2427 34.3885 12.6345 34.8282 12.6345C35.2678 12.6345 35.651 12.2362 35.651 11.7791C35.651 11.3219 35.2678 10.9236 34.8282 10.9236C34.3885 10.9236 34.0054 11.3154 34.0054 11.7791Z" fill="#162E3C"/>
<path d="M3.16565 20.8041C3.16565 21.2677 3.54251 21.6596 3.98846 21.6596C4.43441 21.6596 4.81127 21.2677 4.81127 20.8041C4.81127 20.3404 4.42813 19.9486 3.98846 19.9486C3.54251 20.0139 3.16565 20.3404 3.16565 20.8041Z" fill="#162E3C"/>
</svg>
