<svg width="38" height="39" viewBox="0 0 38 39" fill="none" xmlns="http://www.w3.org/2000/svg">
<path d="M35.3001 16.0868C35.3001 7.32528 28.1558 0.187744 19.401 0.187744C10.6462 0.187744 3.50195 7.33196 3.50195 16.0868C3.50195 26.2584 12.7981 29.7671 18.7327 37.8536C19.0668 38.3281 19.7418 38.3281 20.0827 37.8536C26.0106 29.7671 35.3134 26.2651 35.3134 16.0868H35.3001ZM19.401 35.9623C13.4063 28.3502 5.18609 25.0488 5.18609 16.0868C5.18609 8.26759 11.5885 1.87188 19.401 1.87188C27.2135 1.87188 33.6159 8.27427 33.6159 16.0868C33.6159 25.0488 25.3957 28.3502 19.401 35.9623Z" fill="#162E3C"/>
<path d="M35.4404 6.52332C35.9216 6.52332 36.3159 6.91762 36.3159 7.3988C36.3159 7.87998 35.9216 8.27428 35.4404 8.27428C34.9592 8.27428 34.5649 7.87998 34.5649 7.3988C34.5649 6.91762 34.9592 6.52332 35.4404 6.52332Z" fill="#162E3C"/>
<path d="M32.0721 0.662231C32.5533 0.662231 32.9476 1.05653 32.9476 1.53771C32.9476 2.0189 32.5533 2.4132 32.0721 2.4132C31.591 2.4132 31.1967 2.0189 31.1967 1.53771C31.1967 1.05653 31.591 0.662231 32.0721 0.662231Z" fill="#162E3C"/>
<path d="M27.0131 33.4762C27.4942 33.4762 27.8885 33.8705 27.8885 34.3517C27.8885 34.8329 27.4942 35.2272 27.0131 35.2272C26.5319 35.2272 26.1376 34.8329 26.1376 34.3517C26.1376 33.8705 26.5319 33.4762 27.0131 33.4762Z" fill="#162E3C"/>
<path d="M12.6644 35.1603C13.1456 35.1603 13.5399 35.5546 13.5399 36.0358C13.5399 36.5169 13.1456 36.9112 12.6644 36.9112C12.1832 36.9112 11.7889 36.5169 11.7889 36.0358C11.7889 35.5546 12.1832 35.1603 12.6644 35.1603Z" fill="#162E3C"/>
<path d="M7.61206 36.0358C8.09324 36.0358 8.48754 36.4301 8.48754 36.9112C8.48754 37.3924 8.09324 37.7867 7.61206 37.7867C7.13087 37.7867 6.73657 37.3924 6.73657 36.9112C6.73657 36.4301 7.13087 36.0358 7.61206 36.0358Z" fill="#162E3C"/>
<path d="M37.1245 24.2401C37.6057 24.2401 38 24.6344 38 25.1156C38 25.5968 37.6057 25.9911 37.1245 25.9911C36.6433 25.9911 36.249 25.5968 36.249 25.1156C36.249 24.6344 36.6433 24.2401 37.1245 24.2401Z" fill="#162E3C"/>
<path d="M0.875485 24.2401C1.35667 24.2401 1.75097 24.6344 1.75097 25.1156C1.75097 25.5968 1.35667 25.9911 0.875485 25.9911C0.394303 25.9911 0 25.5968 0 25.1156C0 24.6344 0.394303 24.2401 0.875485 24.2401Z" fill="#162E3C"/>
<path d="M19.401 4.90601C13.2726 4.90601 8.2135 9.89158 8.2135 16.0935C8.2135 22.2954 13.2659 27.281 19.401 27.281C25.536 27.281 30.5885 22.2954 30.5885 16.0935C30.5885 9.89158 25.536 4.90601 19.401 4.90601ZM15.2241 24.581V12.4512H21.1519V25.4565C19.1337 25.7906 17.0419 25.5233 15.2241 24.581ZM25.3289 23.505C24.5871 24.1132 23.7116 24.581 22.7693 24.9218V17.0358L25.3289 18.0449V23.505ZM27.013 21.8209V17.5103C27.013 17.1761 26.8125 16.8353 26.4717 16.7016L22.7693 15.2848V12.4579C23.2438 12.4579 23.6447 12.0569 23.6447 11.5824C23.6447 11.1079 23.2438 10.7069 22.7693 10.7069H13.4731C12.9986 10.7069 12.5976 11.1146 12.5976 11.5824C12.5976 12.0502 13.0053 12.4579 13.4731 12.4579V23.5117C11.2476 21.7607 9.90432 19.0675 9.90432 16.1002C9.90432 10.8473 14.1481 6.59682 19.4077 6.59682C24.6672 6.59682 28.911 10.8406 28.911 16.1002C28.911 18.2588 28.1692 20.2103 27.0264 21.8276L27.013 21.8209Z" fill="#162E3C"/>
<path d="M17.7169 13.3267H16.0327V15.8863H17.7169V13.3267Z" fill="#162E3C"/>
<path d="M20.2764 13.3267H18.5923V15.8863H20.2764V13.3267Z" fill="#162E3C"/>
<path d="M17.7169 16.6949H16.0327V19.2546H17.7169V16.6949Z" fill="#162E3C"/>
<path d="M20.2764 16.6949H18.5923V19.2546H20.2764V16.6949Z" fill="#162E3C"/>
<path d="M17.7169 20.0632H16.0327V22.6229H17.7169V20.0632Z" fill="#162E3C"/>
<path d="M20.2764 20.0632H18.5923V22.6229H20.2764V20.0632Z" fill="#162E3C"/>
<path d="M2.55962 30.1747C1.14281 30.1747 0 31.3175 0 32.7343C0 34.1511 1.14281 35.2939 2.55962 35.2939C3.97643 35.2939 5.11924 34.1511 5.11924 32.7343C5.11924 31.3175 3.97643 30.1747 2.55962 30.1747ZM2.55962 33.543C2.08512 33.543 1.68414 33.1353 1.68414 32.6675C1.68414 32.1997 2.0918 31.792 2.55962 31.792C3.02744 31.792 3.4351 32.1997 3.4351 32.6675C3.4351 33.1353 3.02744 33.543 2.55962 33.543Z" fill="#162E3C"/>
<path d="M4.2437 6.59019C5.66052 6.59019 6.80332 5.44738 6.80332 4.03057C6.80332 2.61375 5.66052 1.47095 4.2437 1.47095C2.82689 1.47095 1.68408 2.61375 1.68408 4.03057C1.68408 5.44738 2.82689 6.59019 4.2437 6.59019ZM4.2437 3.22192C4.7182 3.22192 5.11919 3.62958 5.11919 4.0974C5.11919 4.56521 4.7182 4.97288 4.2437 4.97288C3.7692 4.97288 3.36822 4.56521 3.36822 4.0974C3.43505 3.55607 3.7692 3.22192 4.2437 3.22192Z" fill="#162E3C"/>
<path d="M32.8807 28.4839C30.9961 28.4839 29.5125 29.9675 29.5125 31.8522C29.5125 33.7368 30.9961 35.2204 32.8807 35.2204C34.7654 35.2204 36.249 33.7368 36.249 31.8522C36.249 29.9675 34.7654 28.4839 32.8807 28.4839ZM32.8807 33.5363C31.9384 33.5363 31.1966 32.7945 31.1966 31.8522C31.1966 30.9098 31.9384 30.168 32.8807 30.168C33.823 30.168 34.5649 30.9098 34.5649 31.8522C34.5649 32.7945 33.823 33.5363 32.8807 33.5363Z" fill="#162E3C"/>
<path d="M37.1245 15.8195C36.65 15.8195 36.249 16.2204 36.249 16.6949V22.556C36.249 23.0305 36.65 23.4315 37.1245 23.4315C37.599 23.4315 38 23.0238 38 22.556V16.6281C37.9332 16.2204 37.5255 15.8195 37.1245 15.8195Z" fill="#162E3C"/>
<path d="M7.61206 29.2926C7.13756 29.2926 6.73657 29.6936 6.73657 30.1681V34.4118C6.73657 34.8863 7.14424 35.2873 7.61206 35.2873C8.07987 35.2873 8.48754 34.8863 8.48754 34.4118V30.1681C8.48754 29.6936 8.07987 29.2926 7.61206 29.2926Z" fill="#162E3C"/>
</svg>
