<svg xmlns="http://www.w3.org/2000/svg" width="40" height="39" viewBox="0 0 40 39" fill="none">
  <path d="M30.6357 2.62314C30.982 2.04597 31.7307 1.85881 32.3078 2.20511L31.6808 3.25018C32.3078 2.20511 32.3073 2.20478 32.3078 2.20511L32.3101 2.20647L32.3126 2.20802L32.3187 2.21168L32.3342 2.2213C32.3462 2.22873 32.3612 2.23822 32.3791 2.24979C32.4149 2.27291 32.4622 2.30439 32.5193 2.34442C32.6336 2.4244 32.788 2.53897 32.9688 2.6897C33.3297 2.99046 33.8017 3.43977 34.2718 4.05085C35.219 5.28217 36.1495 7.16212 36.1495 9.75018C36.1495 12.3382 35.219 14.2182 34.2718 15.4495C33.8017 16.0606 33.3297 16.5099 32.9688 16.8107C32.788 16.9614 32.6336 17.076 32.5193 17.1559C32.4622 17.196 32.4149 17.2275 32.3791 17.2506C32.3702 17.2564 32.362 17.2616 32.3545 17.2663C32.347 17.2711 32.3402 17.2753 32.3342 17.2791L32.3187 17.2887L32.3126 17.2924L32.3101 17.2939C32.3095 17.2942 32.3078 17.2953 31.6808 16.2502L32.3078 17.2953C31.7307 17.6416 30.982 17.4544 30.6357 16.8772C30.2909 16.3025 30.475 15.5577 31.0465 15.2095L31.0555 15.2038C31.0673 15.1961 31.0898 15.1812 31.1215 15.1591C31.185 15.1146 31.2846 15.0413 31.4084 14.9381C31.6568 14.7311 31.9973 14.4085 32.3398 13.9633C33.0176 13.0822 33.712 11.7121 33.712 9.75018C33.712 7.78825 33.0176 6.4182 32.3398 5.53702C31.9973 5.09185 31.6568 4.76928 31.4084 4.56223C31.2846 4.45906 31.185 4.38573 31.1215 4.3413C31.0898 4.31912 31.0673 4.30426 31.0555 4.2966L31.0465 4.29086C30.475 3.94266 30.2909 3.19789 30.6357 2.62314Z" fill="white"/>
  <path d="M17.0558 16.2502C20.6456 16.2502 23.5558 13.34 23.5558 9.75018C23.5558 6.16033 20.6456 3.25018 17.0558 3.25018C13.4659 3.25018 10.5558 6.16033 10.5558 9.75018C10.5558 13.34 13.4659 16.2502 17.0558 16.2502Z" fill="white"/>
  <path d="M4.05579 28.4377C4.05579 32.4763 4.05579 35.7502 17.0558 35.7502C30.0558 35.7502 30.0558 32.4763 30.0558 28.4377C30.0558 24.3991 24.2355 21.1252 17.0558 21.1252C9.87608 21.1252 4.05579 24.3991 4.05579 28.4377Z" fill="white"/>
  <path d="M29.0578 5.45511C28.4807 5.10881 27.732 5.29597 27.3857 5.87314L27.7891 7.53632L27.8017 7.54496C27.8207 7.55829 27.8568 7.58464 27.9045 7.62434C28.0006 7.70444 28.138 7.83404 28.2773 8.01514C28.5489 8.3682 28.837 8.92575 28.837 9.75018C28.837 10.5746 28.5489 11.1322 28.2773 11.4852C28.138 11.6663 28.0006 11.7959 27.9045 11.876C27.8568 11.9157 27.8207 11.9421 27.8017 11.9554L27.7891 11.964C27.2234 12.3142 27.0424 13.055 27.3857 13.6272C27.732 14.2044 28.4807 14.3916 29.0578 14.0453L28.4308 13.0002C29.0578 14.0453 29.0573 14.0456 29.0578 14.0453L29.06 14.0439L29.0623 14.0425L29.0675 14.0394L29.0796 14.0319L29.1108 14.0121C29.1347 13.9967 29.1646 13.9768 29.1995 13.9523C29.2693 13.9034 29.3602 13.8358 29.4649 13.7486C29.6735 13.5747 29.9424 13.3184 30.2093 12.9714C30.7502 12.2682 31.2745 11.2007 31.2745 9.75018C31.2745 8.29962 30.7502 7.23217 30.2093 6.52897C29.9424 6.18196 29.6735 5.92562 29.4649 5.7518C29.3602 5.66455 29.2693 5.59696 29.1995 5.54808C29.1646 5.52361 29.1347 5.50371 29.1108 5.48828L29.0796 5.46843L29.0675 5.46096L29.0623 5.45784L29.06 5.45643C29.0595 5.4561 29.0578 5.45511 28.4308 6.50018L29.0578 5.45511Z" fill="white"/>
</svg>