<svg width="38" height="39" viewBox="0 0 38 39" fill="none" xmlns="http://www.w3.org/2000/svg">
<path d="M33.9286 6.53232C33.9286 6.4681 33.8644 6.33967 33.8002 6.27545L33.736 6.21124L33.6717 6.14702C27.6482 0.123445 27.9757 0.450953 27.8472 0.386736C27.7188 0.322518 27.5904 0.258301 27.3913 0.258301H7.25278C6.79684 0.258301 6.47575 0.643605 6.47575 1.09955V33.4714C6.47575 33.921 6.86747 34.3127 7.25278 34.3127H24.2832V36.7722H4.01623V6.66076C4.01623 6.20481 3.63093 5.81951 3.17499 5.81951C2.71904 5.81951 2.33374 6.20481 2.33374 6.66076V37.4144C2.33374 37.8703 2.71904 38.2556 3.17499 38.2556H25.0602C25.5161 38.2556 25.9015 37.8639 25.9015 37.4144V34.1778H33.1516C33.6075 34.1778 33.9928 33.7925 33.9928 33.3366C33.9286 6.40389 33.9286 6.66076 33.9286 6.53232ZM28.2968 2.96827L31.2122 5.88373H28.2968V2.96827ZM8.02981 32.5596V1.80594H26.6143V6.66076C26.6143 7.1167 26.9996 7.43778 27.4555 7.43778H32.3103V32.5596H8.02981Z" fill="#162E3C"/>
<path d="M25.0538 4.26532C25.0538 3.80938 24.6621 3.42407 24.2125 3.42407H10.4893C10.0334 3.42407 9.64807 3.80938 9.64807 4.26532V9.12014C9.64807 9.57608 10.0398 9.96139 10.4893 9.96139H24.2125C24.6685 9.96139 25.0538 9.57608 25.0538 9.12014V4.26532ZM23.4355 8.27889H11.2599V5.04235H23.3649V8.27889H23.4291H23.4355Z" fill="#162E3C"/>
<path d="M22.5943 12.3571H10.4893C10.0334 12.3571 9.64807 12.7424 9.64807 13.1983C9.64807 13.6542 10.0398 14.0395 10.4893 14.0395H22.5943C23.0502 14.0395 23.4355 13.6542 23.4355 13.1983C23.4355 12.6781 23.0438 12.3571 22.5943 12.3571Z" fill="#162E3C"/>
<path d="M28.2967 12.3571H25.9014C25.4455 12.3571 25.0602 12.7424 25.0602 13.1983C25.0602 13.6542 25.4455 14.0395 25.9014 14.0395H28.2967C28.7527 14.0395 29.138 13.6542 29.138 13.1983C29.0738 12.6781 28.7462 12.3571 28.2967 12.3571Z" fill="#162E3C"/>
<path d="M22.5943 15.5936H10.4893C10.0334 15.5936 9.64807 15.9789 9.64807 16.4349C9.64807 16.8908 10.0398 17.2761 10.4893 17.2761H22.5943C23.0502 17.2761 23.4355 16.8908 23.4355 16.4349C23.4355 15.9147 23.0438 15.5936 22.5943 15.5936Z" fill="#162E3C"/>
<path d="M28.2967 15.5936H25.9014C25.4455 15.5936 25.0602 15.9789 25.0602 16.4349C25.0602 16.8908 25.4455 17.2761 25.9014 17.2761H28.2967C28.7527 17.2761 29.138 16.8908 29.138 16.4349C29.0738 15.9147 28.7462 15.5936 28.2967 15.5936Z" fill="#162E3C"/>
<path d="M22.5943 18.8298H10.4893C10.0334 18.8298 9.64807 19.2151 9.64807 19.6711C9.64807 20.127 10.0398 20.5123 10.4893 20.5123H22.5943C23.0502 20.5123 23.4355 20.127 23.4355 19.6711C23.4355 19.1509 23.0438 18.8298 22.5943 18.8298Z" fill="#162E3C"/>
<path d="M28.2967 18.8298H25.9014C25.4455 18.8298 25.0602 19.2151 25.0602 19.6711C25.0602 20.127 25.4455 20.5123 25.9014 20.5123H28.2967C28.7527 20.5123 29.138 20.127 29.138 19.6711C29.0738 19.1509 28.7462 18.8298 28.2967 18.8298Z" fill="#162E3C"/>
<path d="M22.5943 22.0664H10.4893C10.0334 22.0664 9.64807 22.4581 9.64807 22.9077C9.64807 23.3572 10.0398 23.7489 10.4893 23.7489H22.5943C23.0502 23.7489 23.4355 23.3636 23.4355 22.9077C23.4355 22.3875 23.0438 22.0664 22.5943 22.0664Z" fill="#162E3C"/>
<path d="M28.2967 22.0664H25.9014C25.4455 22.0664 25.0602 22.4581 25.0602 22.9077C25.0602 23.3572 25.4455 23.7489 25.9014 23.7489H28.2967C28.7527 23.7489 29.138 23.3636 29.138 22.9077C29.0738 22.3875 28.7462 22.0664 28.2967 22.0664Z" fill="#162E3C"/>
<path d="M22.5943 25.303H10.4893C10.0334 25.303 9.64807 25.6947 9.64807 26.1442C9.64807 26.5937 10.0398 26.9213 10.4893 26.9213H22.5943C23.0502 26.9213 23.4355 26.5359 23.4355 26.1442C23.4355 25.6241 23.0438 25.303 22.5943 25.303Z" fill="#162E3C"/>
<path d="M28.2967 25.303H25.9014C25.4455 25.303 25.0602 25.6947 25.0602 26.1442C25.0602 26.5937 25.4455 26.9213 25.9014 26.9213H28.2967C28.7527 26.9213 29.138 26.5359 29.138 26.1442C29.0738 25.6241 28.7462 25.303 28.2967 25.303Z" fill="#162E3C"/>
<path d="M22.5943 28.5396H10.4893C10.0334 28.5396 9.64807 28.9313 9.64807 29.3808C9.64807 29.8303 10.0398 30.222 10.4893 30.222H22.5943C23.0502 30.222 23.4355 29.8303 23.4355 29.3808C23.4355 28.8606 23.0438 28.5396 22.5943 28.5396Z" fill="#162E3C"/>
<path d="M28.2967 28.5396H25.9014C25.4455 28.5396 25.0602 28.9313 25.0602 29.3808C25.0602 29.8303 25.4455 30.222 25.9014 30.222H28.2967C28.7527 30.222 29.138 29.8303 29.138 29.3808C29.0738 28.8606 28.7462 28.5396 28.2967 28.5396Z" fill="#162E3C"/>
<path d="M2.39798 5.04256C3.75939 5.04256 4.8575 3.94445 4.8575 2.64726C4.8575 1.28586 3.75939 0.187744 2.39798 0.187744C1.03658 0.187744 0.0026802 1.28586 0.0026802 2.64726C-0.061537 3.94445 1.03658 5.04256 2.39798 5.04256ZM2.39798 1.80602C2.85392 1.80602 3.23923 2.19774 3.23923 2.64726C3.23923 3.09678 2.85392 3.48851 2.39798 3.48851C1.94204 3.48851 1.62095 3.09678 1.62095 2.64726C1.55674 2.19132 1.94204 1.80602 2.39798 1.80602Z" fill="#162E3C"/>
<path d="M35.9964 33.401C34.8983 33.401 33.9865 34.3065 33.9865 35.411C33.9865 36.5155 34.8919 37.4146 35.9964 37.4146C37.101 37.4146 38 36.5091 38 35.411C38 34.3129 37.0946 33.401 35.9964 33.401ZM35.9964 35.7963C35.8038 35.7963 35.6047 35.6037 35.6047 35.411C35.6047 35.2184 35.7974 35.0257 35.9964 35.0257C36.1955 35.0257 36.3817 35.2184 36.3817 35.411C36.3817 35.6037 36.1891 35.7963 35.9964 35.7963Z" fill="#162E3C"/>
<path d="M34.7699 28.5395C34.7699 28.9954 35.1552 29.3807 35.6111 29.3807C36.0671 29.3807 36.4524 28.989 36.4524 28.5395C36.4524 28.09 36.0671 27.6982 35.6111 27.6982C35.091 27.6982 34.7699 28.09 34.7699 28.5395Z" fill="#162E3C"/>
<path d="M34.7699 4.2655C35.2258 4.2655 35.6111 3.87377 35.6111 3.42425C35.6111 2.97473 35.2258 2.58301 34.7699 2.58301C34.314 2.58301 33.9286 2.97473 33.9286 3.42425C33.9286 3.87377 34.314 4.2655 34.7699 4.2655Z" fill="#162E3C"/>
<path d="M0.779713 19.6072C0.323771 19.6072 0.00268555 19.9925 0.00268555 20.4484C0.00268555 20.9044 0.39441 21.2897 0.779713 21.2897C1.23566 21.2897 1.62096 20.9044 1.62096 20.4484C1.55674 19.9925 1.23566 19.6072 0.779713 19.6072Z" fill="#162E3C"/>
<path d="M29.9151 35.7963C29.4592 35.7963 29.0739 36.188 29.0739 36.6375C29.0739 37.087 29.4592 37.4145 29.9151 37.4145C30.371 37.4145 30.7563 37.0292 30.7563 36.6375C30.6921 36.1816 30.371 35.7963 29.9151 35.7963Z" fill="#162E3C"/>
</svg>
