<svg width="38" height="41" viewBox="0 0 38 41" fill="none" xmlns="http://www.w3.org/2000/svg">
<path d="M12.4811 11.9433C12.9516 11.9433 13.2829 11.5457 13.2829 11.0752V7.73539C13.2829 7.2649 12.8853 6.86731 12.4811 6.86731C12.0769 6.86731 11.613 7.2649 11.613 7.73539V11.0752C11.6793 11.5457 12.0106 11.9433 12.4811 11.9433Z" fill="#162E3C"/>
<path d="M19.1607 11.9433C19.6312 11.9433 19.9625 11.5457 19.9625 11.0752V7.73539C19.9625 7.2649 19.5583 6.86731 19.1607 6.86731C18.6902 6.86731 18.2926 7.2649 18.2926 7.73539V11.0752C18.3589 11.5457 18.6902 11.9433 19.1607 11.9433Z" fill="#162E3C"/>
<path d="M15.821 11.9432C16.2914 11.9432 16.689 11.5457 16.689 11.0752V6.06549C16.689 5.595 16.2914 5.26367 15.821 5.26367C15.3505 5.26367 14.9529 5.66127 14.9529 6.06549V11.0752C15.0191 11.5457 15.3505 11.9432 15.821 11.9432Z" fill="#162E3C"/>
<path d="M36.2638 22.9036C34.9915 21.6313 32.9903 21.6313 31.718 22.9036L25.171 28.9801C24.7005 28.0458 23.7662 27.4428 22.6993 27.3102L7.33229 25.5741C7.06722 25.5741 6.79554 25.6403 6.663 25.8391L0.248496 32.2536C-0.082832 32.585 -0.082832 33.1217 0.248496 33.453L6.92807 40.1326C7.25939 40.4639 7.79615 40.4639 8.12747 40.1326L9.99616 38.2639L24.5613 38.8007C24.7601 38.8007 25.0318 38.7344 25.1644 38.5356L36.2572 27.4428C37.5295 26.1705 37.5295 24.103 36.2572 22.8969L36.2638 22.9036ZM35.0644 26.2434L24.2433 37.1308L10.0094 36.594L6.5371 33.1217C6.20577 32.7904 5.66902 32.7904 5.33769 33.1217C5.00636 33.453 5.00636 33.9898 5.33769 34.3211L8.47868 37.4621L7.54434 38.3965L1.99791 32.7838L7.47807 27.3036C23.1101 29.0398 22.5071 28.9735 22.58 28.9735C23.2493 29.0398 23.7794 29.5102 23.8523 30.1729C23.9186 30.9747 23.2493 31.7103 22.4475 31.7103L13.9655 31.306C13.495 31.306 13.0974 31.6374 13.0974 32.1079C13.0974 32.5783 13.4287 32.9759 13.8992 32.9759L22.3812 33.3735C23.8523 33.4398 25.118 32.4392 25.4559 31.0344C33.209 23.818 32.871 24.0831 32.871 24.0831C33.4741 23.4801 34.4747 23.4801 35.0777 24.0831C35.6807 24.6198 35.6807 25.6205 35.0777 26.2235L35.0644 26.2434Z" fill="#162E3C"/>
<path d="M16.8215 17.7613C16.351 17.5625 15.9534 17.4963 15.8871 17.4963V16.4956C16.0197 16.4956 16.1522 16.5619 16.2913 16.6282C16.4901 16.6944 16.7618 16.827 16.9606 16.8932C17.0269 16.9595 17.0932 16.9595 17.0932 16.9595L17.6299 15.9589C17.4311 15.8264 17.1594 15.6938 16.8944 15.6276C16.6293 15.495 16.2913 15.4288 15.96 15.4288V14.627H15.4233V15.3625C14.754 15.4288 14.151 15.7601 13.8196 16.3631C13.6208 16.7673 13.6208 17.2312 13.7534 17.5625C13.8859 17.8938 14.1576 18.0993 14.4889 18.2318C14.8865 18.4306 15.2907 18.4969 15.4895 18.5631V19.5637C15.2907 19.5637 15.1582 19.4975 14.9528 19.4312C14.6877 19.3649 14.3498 19.2324 14.151 19.0999C14.0847 19.0336 14.0184 19.0336 14.0184 18.9674L13.4817 20.0342C14.0184 20.4384 14.754 20.6372 15.4166 20.7035V21.5716H15.9534V20.7035C16.2185 20.7035 16.4239 20.6372 16.6227 20.571C16.8215 20.5047 17.0203 20.4384 17.2257 20.3059C17.4245 20.1734 17.557 20.0409 17.6299 19.8354C17.6962 19.6366 17.7624 19.3649 17.7624 19.0999C17.7624 18.8348 17.6962 18.6294 17.6299 18.4969C17.5636 18.2318 17.2986 17.9601 16.8281 17.7613H16.8215ZM15.5492 17.3637C15.3504 17.2975 15.2178 17.2975 15.145 17.1649C15.0787 17.0987 15.0124 16.9661 15.0124 16.8999C15.0124 16.6348 15.2112 16.5023 15.5492 16.5023V17.3704V17.3637ZM15.8805 19.7029V18.8348C16.0793 18.9011 16.2118 18.9674 16.2847 19.0336C16.4173 19.0999 16.4173 19.2324 16.4173 19.3649C16.4835 19.4975 16.2847 19.63 15.8805 19.6963V19.7029Z" fill="#162E3C"/>
<path d="M11.9444 14.2161C9.80402 16.3565 9.80402 19.8951 11.9444 22.0355C14.0848 24.1758 17.5571 24.1758 19.7637 22.0355C21.9041 19.8951 21.9041 16.3565 19.7637 14.2161C17.5571 12.0757 14.0848 12.0757 11.9444 14.2161ZM18.5577 20.8294C17.0866 22.3005 14.6149 22.3005 13.1438 20.8294C11.6727 19.3583 11.6727 16.8866 13.1438 15.4155C14.6149 13.9444 17.0866 13.9444 18.5577 15.4155C20.0288 16.8866 20.0288 19.3583 18.5577 20.8294Z" fill="#162E3C"/>
<path d="M26.0391 6.93361C26.5096 6.93361 26.9072 6.53602 26.9072 6.06553V2.72574C26.9072 2.25526 26.5096 1.85767 26.0391 1.85767C25.5686 1.85767 25.171 2.25526 25.171 2.72574V6.06553C25.171 6.53602 25.5686 6.93361 26.0391 6.93361Z" fill="#162E3C"/>
<path d="M32.7253 6.93361C33.1957 6.93361 33.5933 6.53602 33.5933 6.06553V2.72574C33.5933 2.25526 33.1957 1.85767 32.7253 1.85767C32.2548 1.85767 31.8572 2.25526 31.8572 2.72574V6.06553C31.8572 6.53602 32.2548 6.93361 32.7253 6.93361Z" fill="#162E3C"/>
<path d="M29.3788 6.93358C29.8493 6.93358 30.2469 6.53599 30.2469 6.0655V1.05582C30.2469 0.585339 29.8493 0.187744 29.3788 0.187744C28.9083 0.187744 28.5107 0.591965 28.5107 1.05582V6.0655C28.5107 6.53599 28.9083 6.93358 29.3788 6.93358Z" fill="#162E3C"/>
<path d="M28.5108 14.5541C28.2457 14.4879 27.9078 14.3553 27.709 14.2228C27.6427 14.1565 27.5764 14.1565 27.5764 14.0903L27.0397 15.1571C27.5764 15.5614 28.312 15.7602 28.9746 15.8264V16.6282H29.5114V15.7602C29.7764 15.7602 29.9819 15.6939 30.1807 15.6276C30.3795 15.5614 30.5783 15.4951 30.7837 15.3626C30.9825 15.23 31.0487 15.0975 31.1879 14.8921C31.3204 14.6933 31.3204 14.4216 31.3204 14.1565C31.3204 13.8915 31.2542 13.6861 31.1879 13.5535C31.0554 13.2885 30.7837 13.0168 30.3198 12.818C29.8493 12.6192 29.4517 12.5529 29.3855 12.5529V11.5523C29.518 11.5523 29.6505 11.6186 29.7831 11.6848C29.9819 11.7511 30.2536 11.8836 30.4524 11.9499C30.5186 12.0162 30.5849 12.0162 30.5849 12.0162L31.1216 11.0156C30.9228 10.883 30.6511 10.7505 30.3861 10.6842C30.121 10.5517 29.7831 10.4854 29.4517 10.4854V9.74988H28.915V10.4854C28.1794 10.5517 27.6427 10.883 27.3114 11.486C27.2451 11.6848 27.1788 11.8903 27.1788 12.1553C27.1788 12.6921 27.3776 13.0897 27.9806 13.3547C28.3849 13.5535 28.7825 13.6198 28.9813 13.6861V14.6204C28.915 14.6204 28.7162 14.5541 28.5108 14.5541ZM29.3788 13.7523C29.5776 13.8186 29.7102 13.8849 29.7764 13.9511C29.909 14.0174 29.909 14.1499 29.909 14.2824C29.909 14.5475 29.7102 14.6867 29.306 14.6867L29.3722 13.7523H29.3788ZM28.6433 12.1487C28.577 12.0824 28.5108 11.9499 28.5108 11.8836C28.5108 11.6186 28.7096 11.4794 29.0475 11.4131V12.3475C28.915 12.2812 28.7825 12.2812 28.6499 12.1487H28.6433Z" fill="#162E3C"/>
<path d="M33.2554 17.0258C35.3958 14.8854 35.3958 11.3469 33.2554 9.20648C31.1151 7.0661 27.6427 7.0661 25.4361 9.20648C23.2957 11.3469 23.2957 14.8854 25.4361 17.0258C27.6427 19.1662 31.1151 19.1662 33.2554 17.0258ZM26.6421 10.4125C28.1132 8.94142 30.5849 8.94142 32.056 10.4125C33.5271 11.8836 33.5271 14.3553 32.056 15.8264C30.5849 17.2975 28.1132 17.2975 26.6421 15.8264C25.171 14.3553 25.171 11.8836 26.6421 10.4125Z" fill="#162E3C"/>
<path d="M2.52138 23.6392C3.65452 23.6392 4.59549 22.7048 4.59549 21.5651C4.59549 20.4253 3.66115 19.491 2.52138 19.491C1.38161 19.491 0.447266 20.4253 0.447266 21.5651C0.447266 22.7048 1.38161 23.6392 2.52138 23.6392ZM2.52138 21.1675C2.72017 21.1675 2.9256 21.3663 2.9256 21.5651C2.9256 21.7639 2.7268 21.9693 2.52138 21.9693C2.31595 21.9693 2.12378 21.7705 2.12378 21.5651C2.12378 21.3 2.32258 21.1675 2.52138 21.1675Z" fill="#162E3C"/>
<path d="M35.9259 32.8567C34.7928 32.8567 33.8518 33.791 33.8518 34.9308C33.8518 36.0706 34.7862 37.0049 35.9259 37.0049C37.0657 37.0049 38 36.0706 38 34.9308C38 33.791 37.132 32.8567 35.9259 32.8567ZM35.9259 35.3284C35.7271 35.3284 35.5283 35.1296 35.5283 34.9242C35.5283 34.7188 35.7271 34.5266 35.9259 34.5266C36.1247 34.5266 36.3235 34.7254 36.3235 34.9242C36.3898 35.123 36.191 35.3284 35.9259 35.3284Z" fill="#162E3C"/>
<path d="M8.00159 7.80167C9.40642 7.80167 10.4733 6.66853 10.4733 5.32996C10.4733 3.92513 9.34016 2.79199 8.00159 2.79199C6.59676 2.79199 5.46362 3.92513 5.46362 5.32996C5.46362 6.73479 6.59676 7.80167 8.00159 7.80167ZM8.00159 4.46189C8.47208 4.46189 8.86967 4.85948 8.86967 5.32996C8.86967 5.80045 8.47208 6.13178 8.00159 6.13178C7.53111 6.13178 7.13351 5.73418 7.13351 5.32996C7.13351 4.79321 7.53111 4.46189 8.00159 4.46189Z" fill="#162E3C"/>
<path d="M2.12382 9.47153C2.5943 9.47153 2.99189 9.06731 2.99189 8.60345C2.99189 8.13959 2.58768 7.80164 2.12382 7.80164C1.65996 7.80164 1.25574 8.19923 1.25574 8.60345C1.322 9.07393 1.65996 9.47153 2.12382 9.47153Z" fill="#162E3C"/>
<path d="M24.7071 22.8374C25.1776 22.8374 25.5751 22.4331 25.5751 21.9693C25.5751 21.5054 25.1776 21.1012 24.7071 21.1012C24.2366 21.1012 23.839 21.5054 23.839 21.9693C23.839 22.4331 24.2366 22.8374 24.7071 22.8374Z" fill="#162E3C"/>
<path d="M6.33167 15.2897C6.33167 15.7602 6.72926 16.0915 7.19975 16.0915C7.67023 16.0915 8.06782 15.6939 8.06782 15.2897C8.06782 14.8192 7.67023 14.4216 7.19975 14.4216C6.66299 14.4879 6.33167 14.8192 6.33167 15.2897Z" fill="#162E3C"/>
<path d="M31.3867 36.1965C30.9162 36.1965 30.5848 36.5941 30.5848 37.0646C30.5848 37.5351 30.9891 37.9327 31.3867 37.9327C31.8571 37.9327 32.2547 37.5351 32.2547 37.0646C32.1885 36.5279 31.8571 36.1965 31.3867 36.1965Z" fill="#162E3C"/>
</svg>
