<svg xmlns="http://www.w3.org/2000/svg" width="40" height="39" viewBox="0 0 40 39" fill="none">
  <path d="M16.2433 3.25C14.8971 3.25 13.8058 4.34131 13.8058 5.6875V7.3125C13.8058 8.65869 14.8971 9.75 16.2433 9.75H24.3683C25.7145 9.75 26.8058 8.65869 26.8058 7.3125V5.6875C26.8058 4.34131 25.7145 3.25 24.3683 3.25H16.2433Z" fill="white"/>
  <path fill-rule="evenodd" clip-rule="evenodd" d="M11.3683 6.5595C9.32419 6.67419 8.03376 6.99991 7.10864 7.92503C5.68079 9.35289 5.68079 11.651 5.68079 16.2472V25.9972C5.68079 30.5934 5.68079 32.8915 7.10864 34.3193C8.53649 35.7472 10.8346 35.7472 15.4308 35.7472H25.1808C29.777 35.7472 32.0751 35.7472 33.5029 34.3193C34.9308 32.8915 34.9308 30.5934 34.9308 25.9972V16.2472C34.9308 11.651 34.9308 9.35289 33.5029 7.92503C32.5778 6.99991 31.2874 6.67419 29.2433 6.5595V7.3125C29.2433 10.0049 27.0607 12.1875 24.3683 12.1875H16.2433C13.5509 12.1875 11.3683 10.0049 11.3683 7.3125V6.5595ZM26.0124 20.391C26.5044 19.9317 26.531 19.1605 26.0718 18.6684C25.6125 18.1764 24.8413 18.1498 24.3492 18.609L18.2165 24.3329L16.2624 22.509C15.7703 22.0498 14.9991 22.0764 14.5398 22.5684C14.0806 23.0605 14.1071 23.8317 14.5992 24.291L17.3849 26.891C17.8532 27.328 18.5798 27.328 19.0481 26.891L26.0124 20.391Z" fill="white"/>
</svg>