<svg width="56" height="56" viewBox="0 0 56 56" fill="none" xmlns="http://www.w3.org/2000/svg">
<rect x="0.5" y="0.5" width="55" height="55" rx="27.5" fill="white"/>
<path d="M37 27.5C37.2761 27.5 37.5 27.7239 37.5 28C37.5 28.2761 37.2761 28.5 37 28.5V27.5ZM18.6464 28.3536C18.4512 28.1583 18.4512 27.8417 18.6464 27.6464L21.8284 24.4645C22.0237 24.2692 22.3403 24.2692 22.5355 24.4645C22.7308 24.6597 22.7308 24.9763 22.5355 25.1716L19.7071 28L22.5355 30.8284C22.7308 31.0237 22.7308 31.3403 22.5355 31.5355C22.3403 31.7308 22.0237 31.7308 21.8284 31.5355L18.6464 28.3536ZM37 28.5H19V27.5H37V28.5Z" fill="black"/>
<rect x="0.5" y="0.5" width="55" height="55" rx="27.5" stroke="#E2E2E2"/>
</svg>
