<svg width="18" height="18" viewBox="0 0 18 18" fill="none" xmlns="http://www.w3.org/2000/svg">
<path d="M8.5814 17.1628C3.85116 17.1628 0 13.3116 0 8.5814C0 3.85116 3.85116 0 8.5814 0C13.3116 0 17.1628 3.85116 17.1628 8.5814C17.1628 13.3116 13.3116 17.1628 8.5814 17.1628ZM8.5814 1.25581C4.53767 1.25581 1.25581 4.54605 1.25581 8.5814C1.25581 12.6167 4.53767 15.907 8.5814 15.907C12.6251 15.907 15.907 12.6167 15.907 8.5814C15.907 4.54605 12.6251 1.25581 8.5814 1.25581Z" fill="#3A3A3A"/>
<path d="M17.3715 17.9999C17.2125 17.9999 17.0534 17.9413 16.9278 17.8157L15.2534 16.1413C15.0106 15.8985 15.0106 15.4967 15.2534 15.2539C15.4962 15.0111 15.898 15.0111 16.1408 15.2539L17.8152 16.9283C18.058 17.1711 18.058 17.5729 17.8152 17.8157C17.6897 17.9413 17.5306 17.9999 17.3715 17.9999Z" fill="#3A3A3A"/>
</svg>
