<svg width="139" height="10" viewBox="0 0 139 10" fill="none" xmlns="http://www.w3.org/2000/svg">
<path d="M0 9.99346C0.0877155 9.57152 0.235735 8.87753 0.44406 7.91149C0.575633 7.30078 0.833297 6.71228 1.21705 6.14598C1.69949 5.45754 2.30801 4.90235 3.04263 4.4804C3.77725 4.05846 4.53379 3.84748 5.31227 3.84748H13.9961C14.2044 3.84748 14.3963 3.78086 14.5717 3.64761C14.7472 3.50326 14.8623 3.33115 14.9171 3.13129C14.9171 3.12018 14.9171 3.10908 14.9171 3.09797C14.9171 3.08687 14.9171 3.07577 14.9171 3.06466C14.95 2.93142 14.9445 2.80927 14.9007 2.69824C14.8568 2.57609 14.7801 2.48171 14.6704 2.41509C14.5717 2.33736 14.4566 2.2985 14.325 2.2985H1.62822C1.71593 1.84324 1.85847 1.1548 2.05583 0.233181C2.07776 0.133246 2.09421 0.0555192 2.10517 0H14.8184C15.6408 0 16.2932 0.299804 16.7756 0.899412C17.2361 1.49902 17.3786 2.22077 17.2032 3.06466C17.2032 3.09797 17.1977 3.12018 17.1868 3.13129C17.0004 3.96407 16.5508 4.67472 15.8381 5.26323C15.1254 5.85173 14.347 6.14598 13.5027 6.14598H4.81887C4.51187 6.14598 4.20486 6.22371 3.89786 6.37916C3.60182 6.53462 3.34415 6.75114 3.12486 7.02874C2.91654 7.29523 2.77948 7.58948 2.7137 7.91149C2.66984 8.11136 2.6205 8.33344 2.56568 8.57772C2.52182 8.81091 2.467 9.06629 2.40121 9.34389C2.34639 9.62149 2.30253 9.83801 2.26964 9.99346H0Z" fill="#2B2B2B"/>
<path d="M21.9491 9.99346C21.653 9.99346 21.209 9.99346 20.6169 9.99346C20.0248 9.99346 19.5808 9.99346 19.2847 9.99346C19.6466 9.54931 20.1619 8.92194 20.8307 8.11136C21.4995 7.30078 21.9436 6.7678 22.1629 6.51241C23.062 5.41313 24.0214 4.25277 25.0411 3.03135C25.8305 2.06532 26.7515 1.31581 27.8041 0.782821C28.8457 0.26094 29.9312 0 31.0605 0C32.1899 0 33.1657 0.26094 33.988 0.782821C34.8104 1.3047 35.4189 2.05421 35.8136 3.03135C35.9671 3.41999 36.2029 4.00294 36.5208 4.78021C36.8388 5.54637 37.0745 6.12377 37.228 6.51241C37.4473 7.02319 37.6118 7.42292 37.7214 7.71162C37.842 7.98922 37.9901 8.35009 38.1655 8.79425C38.3409 9.2273 38.5054 9.62704 38.6589 9.99346H35.9781C35.7149 9.34944 35.3202 8.38896 34.7939 7.11202C34.3115 5.9128 33.9277 4.95787 33.6427 4.24722C33.3795 3.6143 32.9848 3.13129 32.4585 2.79817C31.9432 2.46505 31.3182 2.2985 30.5836 2.2985C29.0705 2.2985 27.7767 2.94807 26.7022 4.24722C25.6605 5.50196 24.8711 6.45689 24.3339 7.11202C24.0597 7.43403 23.6595 7.91704 23.1332 8.56107C22.607 9.19399 22.2122 9.67145 21.9491 9.99346Z" fill="#2B2B2B"/>
<path d="M45.824 3.84748C46.7888 3.84748 48.2361 3.84748 50.1659 3.84748C52.1066 3.84748 53.5594 3.84748 54.5243 3.84748C54.7216 3.84748 54.908 3.78086 55.0834 3.64761C55.2589 3.50326 55.374 3.33115 55.4288 3.13129C55.4398 3.12018 55.4507 3.09797 55.4617 3.06466C55.5056 2.86479 55.4672 2.68713 55.3466 2.53168C55.226 2.37622 55.0615 2.2985 54.8532 2.2985H42.1564C42.2002 2.06532 42.2715 1.7211 42.3702 1.26584C42.4689 0.810581 42.5401 0.466362 42.584 0.233181C42.6059 0.133246 42.6224 0.0555192 42.6333 0H55.3466C56.1799 0 56.8268 0.299804 57.2873 0.899412C57.7588 1.52123 57.9068 2.24298 57.7313 3.06466C57.7313 3.09797 57.7204 3.12018 57.6985 3.13129C57.534 3.85304 57.1667 4.49151 56.5965 5.0467C56.0373 5.59079 55.3959 5.93501 54.6723 6.07936C54.7271 6.22371 54.8477 6.52351 55.0341 6.97877C55.2315 7.43403 55.3795 7.78935 55.4782 8.04474C55.4891 8.07805 55.7523 8.72763 56.2676 9.99346H53.5868C53.4881 9.74918 53.3456 9.40496 53.1592 8.96081C52.9837 8.50555 52.8631 8.2113 52.7974 8.07805C52.304 6.83442 52.0518 6.1904 52.0408 6.14598H45.347C44.8755 6.14598 44.4315 6.31809 44.0148 6.66231C43.5982 7.00653 43.3405 7.42292 43.2418 7.91149C42.9568 9.26616 42.8088 9.96015 42.7978 9.99346H40.5281C40.583 9.76028 40.6542 9.41607 40.742 8.96081C40.8406 8.49445 40.9174 8.14467 40.9722 7.91149C41.1038 7.26747 41.3614 6.67897 41.7452 6.14598C42.0522 5.69072 42.4195 5.29098 42.8471 4.94677C43.2857 4.60255 43.7627 4.33605 44.278 4.14729C44.7933 3.94742 45.3086 3.84748 45.824 3.84748Z" fill="#2B2B2B"/>
<path d="M73.8583 0C74.5272 0 75.1302 0.127694 75.6674 0.383083C76.2157 0.638471 76.6652 0.999346 77.0161 1.46571C77.7836 2.44285 78.0248 3.61985 77.7397 4.99673C77.4547 6.3514 76.72 7.52841 75.5359 8.52776C74.3627 9.5049 73.1018 9.99346 71.7532 9.99346H63.9903C63.3215 9.99346 62.713 9.86577 62.1647 9.61038C61.6165 9.34389 61.1615 8.98301 60.7997 8.52776C60.0431 7.55062 59.8074 6.37361 60.0925 4.99673C60.3775 3.63096 61.1122 2.45395 62.2963 1.46571C63.4586 0.488569 64.7195 0 66.079 0H73.8583ZM72.2301 7.69497C72.9757 7.69497 73.661 7.42848 74.2859 6.89549C74.9109 6.36251 75.3056 5.72959 75.4701 4.99673C75.6236 4.26388 75.492 3.63096 75.0754 3.09797C74.6697 2.56499 74.0995 2.2985 73.3649 2.2985H65.6021C64.8565 2.2985 64.1712 2.56499 63.5463 3.09797C62.9213 3.63096 62.5266 4.26388 62.3621 4.99673C62.2086 5.72959 62.3402 6.36251 62.7568 6.89549C63.1625 7.42848 63.7327 7.69497 64.4673 7.69497H72.2301Z" fill="#2B2B2B"/>
<path d="M82.5643 0C82.6958 0.322011 82.8932 0.805029 83.1563 1.44905C83.4195 2.08197 83.6114 2.55944 83.732 2.88145C83.9841 3.51437 84.3843 4.4693 84.9326 5.74624C85.1847 6.37916 85.5685 6.86218 86.0838 7.19529C86.5992 7.52841 87.2241 7.69497 87.9587 7.69497C89.4828 7.69497 90.7766 7.04539 91.8402 5.74624C92.3665 5.11332 93.1559 4.15839 94.2085 2.88145C94.4278 2.61496 94.806 2.1597 95.3433 1.51568C95.8915 0.860548 96.3082 0.355323 96.5932 0H99.2576C98.9835 0.333115 98.6765 0.705094 98.3366 1.11594C98.0077 1.51568 97.6623 1.93207 97.3005 2.36512C96.9386 2.79817 96.6316 3.17015 96.3794 3.48106C96.0834 3.83638 95.6174 4.40268 94.9815 5.17995C94.3455 5.95722 93.8576 6.55127 93.5177 6.96211C92.7173 7.92815 91.7908 8.67766 90.7382 9.21064C89.6966 9.73252 88.6166 9.99346 87.4982 9.99346C86.3579 9.99346 85.3766 9.73252 84.5543 9.21064C83.732 8.67766 83.1234 7.92815 82.7287 6.96211C82.6081 6.66231 82.4601 6.29588 82.2847 5.86283C82.1092 5.42978 81.9338 5.00784 81.7584 4.59699C81.5939 4.18615 81.4459 3.81417 81.3143 3.48106C81.2047 3.21456 81.0841 2.92586 80.9525 2.61496C80.8319 2.29294 80.7167 2.00424 80.6071 1.74886C80.5084 1.49347 80.3878 1.19922 80.2453 0.8661C80.1137 0.52188 79.9986 0.23318 79.8999 0H82.5643Z" fill="#2B2B2B"/>
<path d="M115.206 0C115.874 0 116.477 0.127694 117.015 0.383083C117.563 0.638471 118.012 0.999346 118.363 1.46571C119.131 2.44285 119.372 3.61985 119.087 4.99673C118.802 6.3514 118.067 7.52841 116.883 8.52776C115.71 9.5049 114.449 9.99346 113.1 9.99346H105.338C104.669 9.99346 104.06 9.86577 103.512 9.61038C102.964 9.34389 102.509 8.98301 102.147 8.52776C101.39 7.55062 101.155 6.37361 101.44 4.99673C101.725 3.63096 102.459 2.45395 103.644 1.46571C104.806 0.488569 106.067 0 107.426 0H115.206ZM113.577 7.69497C114.323 7.69497 115.008 7.42848 115.633 6.89549C116.258 6.36251 116.653 5.72959 116.817 4.99673C116.971 4.26388 116.839 3.63096 116.423 3.09797C116.017 2.56499 115.447 2.2985 114.712 2.2985H106.949C106.204 2.2985 105.519 2.56499 104.894 3.09797C104.269 3.63096 103.874 4.26388 103.709 4.99673C103.556 5.72959 103.687 6.36251 104.104 6.89549C104.51 7.42848 105.08 7.69497 105.815 7.69497H113.577Z" fill="#2B2B2B"/>
<path d="M124.092 7.69497C125.518 7.69497 127.661 7.69497 130.523 7.69497C133.385 7.69497 135.534 7.69497 136.97 7.69497C136.861 8.20574 136.702 8.97191 136.493 9.99346H123.599C122.853 9.99346 122.267 9.73252 121.839 9.21064C121.412 8.68876 121.264 8.05029 121.395 7.29523C121.406 7.18419 121.439 7.04539 121.494 6.87883C121.691 6.22371 122.08 5.65186 122.662 5.16329C123.232 4.68582 123.857 4.41378 124.536 4.34716H124.553C125.595 4.25833 126.817 4.15284 128.221 4.0307C129.635 3.90856 131.027 3.79196 132.398 3.68093C133.769 3.55878 134.997 3.44775 136.082 3.34781C136.225 3.33671 136.351 3.28119 136.46 3.18125C136.57 3.07021 136.636 2.94807 136.658 2.81483C136.691 2.67048 136.663 2.54833 136.575 2.4484C136.499 2.34846 136.395 2.2985 136.263 2.2985H123.385C123.583 1.32136 123.736 0.555193 123.846 0H136.74C137.485 0 138.072 0.26094 138.5 0.782821C138.927 1.31581 139.081 1.95428 138.96 2.69824C138.949 2.79817 138.916 2.93697 138.862 3.11463C138.664 3.75865 138.269 4.3305 137.677 4.83017C137.107 5.30764 136.482 5.57968 135.802 5.64631C131.778 5.99053 127.935 6.32364 124.273 6.64565H124.257C124.114 6.65676 123.988 6.71783 123.879 6.82887C123.769 6.9288 123.698 7.05094 123.665 7.19529C123.643 7.32854 123.67 7.44513 123.747 7.54507C123.835 7.645 123.95 7.69497 124.092 7.69497Z" fill="#2B2B2B"/>
</svg>
