<svg width="45" height="47" viewBox="0 0 45 47" fill="none" xmlns="http://www.w3.org/2000/svg">
<g clip-path="url(#clip0_222_410)">
<path d="M20.0455 17.8452L0.181818 36.4284C0.0606061 36.5338 0 36.6844 0 36.85C0 37.0157 0.0606061 37.1663 0.166667 37.2717L3.33333 40.4191C3.45455 40.5245 3.60606 40.5998 3.75758 40.5847C3.92424 40.5847 4.07576 40.5094 4.18182 40.404L22.8788 20.6613C23.0909 20.4354 23.0909 20.074 22.8788 19.8481L20.8788 17.8603C20.6515 17.6344 20.2879 17.6344 20.0606 17.8603L20.0455 17.8452Z" fill="#222222"/>
<path d="M39.1515 40.0125C39.0303 39.892 38.8636 39.8318 38.697 39.8318H19.0303C18.8636 39.8318 18.697 39.9071 18.5758 40.0125C18.4545 40.133 18.3939 40.2986 18.3939 40.4643V42.6479H16.1515V44.8315H12.7273V47.0151H45V44.8315H41.5758V42.6479H39.3333V40.4643C39.3333 40.2986 39.2727 40.133 39.1515 40.0125Z" fill="#222222"/>
<path d="M17.1212 11.8516L28.5455 23.2063L36.3636 15.4357C36.4394 15.3604 36.5303 15.3002 36.6061 15.24L25.1364 3.84009C25.0758 3.93044 25.0152 4.00574 24.9394 4.08104L17.1212 11.8516Z" fill="#222222"/>
<path d="M36.6212 15.2249C36.5303 15.2851 36.4545 15.3454 36.3788 15.4207L28.5606 23.1913L28.4545 23.2967C27.5152 24.2304 27.5152 25.7513 28.4545 26.685C29.3939 27.6187 30.9242 27.6187 31.8485 26.685L39.7879 18.794C40.7273 17.8603 40.7273 16.3544 39.7879 15.4207C38.9242 14.5623 37.5758 14.5021 36.6364 15.2249H36.6212Z" fill="#FFEA30"/>
<path d="M21.5455 0.707797L13.6061 8.59886C12.6667 9.53253 12.6667 11.0535 13.6061 11.9872C14.5455 12.9209 16.0606 12.9209 17 11.9872L17.1061 11.8818L24.9242 4.11119C25 4.0359 25.0606 3.94554 25.1212 3.87024C25.8333 2.93657 25.7727 1.59629 24.9242 0.737915C23.9848 -0.19576 22.4545 -0.19576 21.5151 0.737915L21.5455 0.707797Z" fill="#FFEA30"/>
</g>
<defs>
<clipPath id="clip0_222_410">
<rect width="45" height="47" fill="white"/>
</clipPath>
</defs>
</svg>
