<svg width="41" height="47" viewBox="0 0 41 47" fill="none" xmlns="http://www.w3.org/2000/svg">
<g clip-path="url(#clip0_222_427)">
<path d="M23.307 30.5852L23.8798 29.9464H22.7178L23.307 30.5852Z" fill="#222222"/>
<path d="M2.01318 2.01501V45.0014H26.2695V38.8745C26.2695 38.6124 26.384 38.3503 26.5641 38.1701C26.7441 37.9899 27.006 37.8752 27.2679 37.8752H33.6511V24.3273L24.6982 34.5005C24.3545 34.8937 23.8635 35.1067 23.3397 35.1231C22.8323 35.1231 22.3413 34.9101 21.9976 34.5333L17.7912 29.9464H5.67945V26.9648H26.4495V27.014L28.2172 24.999H5.67945V22.0175H29.8866V23.0987L33.6511 18.823V2.01501H2.01318ZM29.903 20.068H5.67945V17.0865H29.8866V20.068H29.903ZM29.903 15.1206H9.21478V12.1391H29.8866V15.1206H29.903Z" fill="#222222"/>
<path d="M33.6511 37.8588H27.2679C27.006 37.8588 26.7441 37.9735 26.5641 38.1537C26.384 38.3339 26.2695 38.596 26.2695 38.8581V44.985H2.01317V2.01499H33.6511V18.8393L35.6643 16.5622V0.999303C35.6643 0.737191 35.5497 0.475078 35.3697 0.294876C35.1896 0.114674 34.9277 0 34.6659 0H0.998403C0.736527 0 0.474651 0.114674 0.294611 0.294876C0.114571 0.475078 0 0.737191 0 0.999303V46.0007C0 46.2628 0.114571 46.5249 0.294611 46.7051C0.474651 46.8853 0.736527 47 0.998403 47H28.5118C28.7737 47 29.0355 46.9017 29.2156 46.7051L32.309 43.6253L35.3533 40.5619C35.5333 40.3817 35.6479 40.1196 35.6479 39.8574V22.0174L33.6347 24.2945V37.8425L33.6511 37.8588ZM28.2663 45.0178V39.8574H33.602L28.2663 45.0178Z" fill="#222123"/>
<path d="M28.2663 45.0342L33.6184 39.8738H28.2663V45.0342Z" fill="#222222"/>
<path d="M29.8866 12.1391H9.21478V15.1206H29.8866V12.1391Z" fill="#FFEA30"/>
<path d="M29.8866 17.0701H5.67944V20.0516H29.8866V17.0701Z" fill="#FFEA30"/>
<path d="M5.67944 22.0175V24.999H28.2172L29.8866 23.0987V22.0175H5.67944Z" fill="#FFEA30"/>
<path d="M5.67944 26.9648V29.9463H17.8076L17.0874 29.16L16.2036 28.1934C16.0563 28.0296 16.0236 27.7839 16.1381 27.6037C16.2363 27.4562 16.4 27.358 16.5637 27.358H16.6782L21.2774 28.5047C21.3757 28.5211 21.4575 28.5866 21.523 28.6521L22.7178 29.9463H23.8798L26.4495 27.0303V26.9812H5.67944V26.9648Z" fill="#FFEA30"/>
<path d="M40.8199 15.3991L38.8559 13.6626C38.7577 13.5807 38.6431 13.5316 38.5285 13.5316H38.4958C38.3649 13.5316 38.2339 13.5971 38.1521 13.6954L35.6643 16.5295L33.6511 18.8066L29.8866 23.0823L28.2172 24.9826L26.4495 26.9976L23.8798 29.9136L23.307 30.5525L22.7178 29.9136L21.5229 28.6194C21.5229 28.6194 21.3756 28.4883 21.2774 28.472L16.6782 27.3416H16.5637C16.3836 27.3416 16.2199 27.4235 16.1381 27.5709C16.0235 27.7675 16.0563 27.9969 16.2036 28.1607L17.0874 29.1272L17.8076 29.9136L22.014 34.5005C22.3577 34.8773 22.8487 35.0903 23.3561 35.0903C23.8798 35.0903 24.3708 34.8609 24.7146 34.4678L33.6674 24.2945L35.6806 22.0174L40.9018 16.0871C41.0818 15.8742 41.0655 15.5629 40.8527 15.3827L40.8199 15.3991Z" fill="#FFEA30"/>
</g>
<defs>
<clipPath id="clip0_222_427">
<rect width="41" height="47" fill="white"/>
</clipPath>
</defs>
</svg>
