<svg width="160" height="160" viewBox="0 0 160 160" fill="none" xmlns="http://www.w3.org/2000/svg">
<path d="M29.4635 31.2206C32.2326 29.9331 35.3548 27.6187 38.2545 24.7041C44.8723 18.0519 46.4438 12.395 45.3963 11.3528C45.1036 11.1299 44.7375 11.0259 44.3713 11.0616C43.5738 11.0616 42.3901 11.3428 40.8735 12.0478C38.1041 13.3353 34.9823 15.6494 32.0829 18.5644C25.466 25.2166 23.8932 30.8734 24.9404 31.9153C25.421 32.3931 27.0057 32.3631 29.4635 31.2206V31.2206Z" fill="#6A6ACF" fill-opacity="0.1"/>
<path d="M36.0473 49.0107C38.947 46.096 41.2448 42.962 42.518 40.1864C43.648 37.722 43.6692 36.1373 43.1892 35.6598C42.8967 35.4366 42.5305 35.3325 42.1642 35.3682C41.3667 35.3682 40.1826 35.6495 38.6661 36.3545C35.897 37.6417 32.775 39.956 29.8756 42.8707C23.2574 49.5229 21.6871 55.1798 22.733 56.2235C23.779 57.2673 29.4297 55.6629 36.0473 49.0107V49.0107Z" fill="#6A6ACF" fill-opacity="0.1"/>
<path d="M83.4707 68.5163C81.7303 70.3066 80.1329 71.7403 78.8525 72.8288L84.3097 78.1613C85.5722 76.9953 87.4803 75.2334 88.0975 74.6175C92.0453 70.6763 93.1954 69.4925 94.9782 66.765L89.5597 61.5625C88.0982 63.7572 87.0616 64.8238 84.1066 67.8606L83.4707 68.5163Z" fill="#6A6ACF" fill-opacity="0.1"/>
<path d="M46.1406 39.4434C45.9238 40.1381 45.6618 40.8178 45.3562 41.4784C43.9337 44.5809 41.4137 48.0346 38.2606 51.2043C35.1075 54.374 31.6669 56.9115 28.5731 58.3502C27.8055 58.7125 27.0104 59.0135 26.1953 59.2502C38.8169 70.2287 52.8219 83.228 66.9812 97.1105C69.0733 95.5486 71.6587 94.794 74.2625 94.9855C75.9358 93.6343 77.5251 92.1823 79.0216 90.6374L79.66 89.9812C82.7947 86.7596 83.5975 85.9334 85.0828 83.6268C71.1194 69.7952 58.1088 55.0336 46.1406 39.4434V39.4434ZM44.8841 66.7755C44.6071 67.0838 44.219 67.2694 43.8052 67.2914C43.3914 67.3135 42.9857 67.1703 42.6775 66.8934C41.8169 66.1198 40.9588 65.352 40.1031 64.5899C39.7937 64.3143 39.6064 63.927 39.5826 63.5133C39.5587 63.0995 39.7001 62.6933 39.9758 62.3838C40.2514 62.0744 40.6387 61.8871 41.0525 61.8633C41.4662 61.8394 41.8724 61.9808 42.1819 62.2565C43.0406 63.0217 43.9021 63.7925 44.7662 64.569C45.0745 64.846 45.2601 65.2341 45.2821 65.6479C45.3042 66.0617 45.161 66.4673 44.8841 66.7755V66.7755ZM67.1834 87.5677C66.8967 87.8669 66.5029 88.04 66.0887 88.0488C65.6744 88.0577 65.2736 87.9016 64.9744 87.6149C59.0603 81.9487 53.1853 76.4509 47.5147 71.2755C47.3615 71.1377 47.2371 70.9709 47.1487 70.7847C47.0602 70.5986 47.0095 70.3968 46.9993 70.191C46.9892 69.9851 47.0199 69.7793 47.0896 69.5854C47.1594 69.3915 47.2668 69.2133 47.4057 69.061C47.5446 68.9088 47.7123 68.7855 47.899 68.6983C48.0857 68.6112 48.2879 68.5618 48.4938 68.5531C48.6997 68.5443 48.9053 68.5764 49.0987 68.6475C49.2922 68.7185 49.4696 68.8272 49.6209 68.9671C55.3119 74.1609 61.2047 79.6762 67.1362 85.3599C67.4351 85.6466 67.608 86.0402 67.6168 86.4542C67.6257 86.8683 67.4698 87.2689 67.1834 87.568V87.5677Z" fill="#6A6ACF" fill-opacity="0.1"/>
<path d="M30.7832 34.0436C30.0165 34.4056 29.2223 34.7064 28.4082 34.9433C29.3472 35.7597 30.2927 36.5866 31.2448 37.4239C33.1172 35.8818 35.1665 34.5681 37.3495 33.5105C41.9238 31.3839 44.2491 32.2948 45.3938 33.4339L45.9145 33.9748C55.4934 46.7269 65.7713 58.9387 76.7007 70.5542C77.9445 69.502 79.5201 68.0948 81.232 66.3327L81.8701 65.6764C85.0054 62.4545 85.8076 61.6286 87.2932 59.3217C73.3298 45.4897 60.3196 30.7276 48.352 15.1367C48.1351 15.8315 47.8732 16.5113 47.5679 17.172C46.1451 20.2758 43.6245 23.7283 40.4723 26.8977C37.3201 30.067 33.8779 32.6048 30.7832 34.0436V34.0436Z" fill="#6A6ACF" fill-opacity="0.1"/>
<path d="M127.886 141.085C130.264 138.729 132.469 136.204 134.484 133.531C135.16 132.639 135.459 131.516 135.316 130.406C135.172 129.296 134.598 128.286 133.716 127.596C123.286 119.309 106.239 103.764 95.0744 93.252C93.2931 95.9129 91.9494 97.2901 88.0949 101.138C87.4784 101.753 86.1212 102.986 85.0309 103.977C84.7593 104.224 84.5058 104.454 84.2846 104.656C84.5862 107.389 83.8384 110.135 82.1924 112.338C97.3972 128.009 108.068 139.768 113.91 147.294C114.601 148.184 115.618 148.765 116.736 148.909C117.855 149.053 118.985 148.749 119.88 148.062C122.684 145.897 125.358 143.567 127.886 141.085V141.085Z" fill="#6A6ACF" fill-opacity="0.1"/>
<path d="M68.237 131.045L70.9092 133.957L73.6086 116.677C73.5773 116.677 73.5461 116.679 73.5149 116.679H73.5039C71.6054 116.681 69.74 116.183 68.0952 115.234L62.0508 131.471L65.5658 130.339C66.032 130.19 66.5312 130.177 67.0045 130.302C67.4778 130.427 67.9054 130.685 68.237 131.045Z" fill="#6A6ACF" fill-opacity="0.1"/>
<path d="M73.4773 98.0869C71.443 98.1163 69.5022 98.9461 68.0754 100.397C66.6485 101.847 65.8506 103.801 65.8545 105.836C65.8584 107.87 66.6637 109.822 68.096 111.267C69.5283 112.711 71.4722 113.534 73.5067 113.556H73.5145C74.5285 113.559 75.5331 113.361 76.4701 112.973C77.4071 112.585 78.2578 112.015 78.973 111.296C80.0529 110.211 80.787 108.83 81.0827 107.328C81.3784 105.826 81.2223 104.27 80.6343 102.856C80.0463 101.443 79.0526 100.236 77.7788 99.3864C76.505 98.5374 75.0081 98.0848 73.4773 98.0859V98.0869Z" fill="#6A6ACF" fill-opacity="0.1"/>
<path d="M135.928 103.278C125.501 94.9918 108.452 79.4462 97.2864 68.9355C95.5052 71.5965 94.1614 72.9734 90.3071 76.8209C89.6471 77.4799 87.7889 79.1959 86.4321 80.449L86.3721 80.5043C88.3592 82.4835 90.3637 84.4425 92.3858 86.3815C100.776 94.4171 116.089 108.604 127.989 118.776C128.725 118.101 129.432 117.428 130.099 116.768C132.477 114.412 134.682 111.888 136.697 109.214C137.374 108.322 137.673 107.199 137.529 106.088C137.385 104.978 136.81 103.968 135.928 103.278V103.278Z" fill="#6A6ACF" fill-opacity="0.1"/>
<path d="M85.8873 98.9235C89.835 94.9823 90.9849 93.7985 92.7677 91.071L87.3523 85.8691C85.8904 88.0638 84.8543 89.1304 81.8997 92.167L81.2622 92.8232C80.0276 94.0935 78.9898 95.0635 77.9883 95.9385C80.3579 97.0184 82.2616 98.9126 83.3534 101.277C84.3258 100.392 85.3955 99.4145 85.8873 98.9235V98.9235Z" fill="#6A6ACF" fill-opacity="0.1"/>
<path d="M48.6507 118.067L64.6613 112.119C63.5091 110.506 62.8211 108.608 62.6723 106.631L46.2207 109.191L49.1195 111.891C49.4775 112.226 49.7324 112.656 49.8542 113.13C49.976 113.605 49.9596 114.104 49.807 114.57L48.6507 118.067Z" fill="#6A6ACF" fill-opacity="0.1"/>
</svg>
