<svg width="377" height="244" fill="none" xmlns="http://www.w3.org/2000/svg"><g clip-path="url(#a)"><path d="m136.362 95.58 1.113 2.256c.06.12.175.202.306.224l2.488.36c.333.05.464.46.224.689l-1.801 1.759a.416.416 0 0 0-.115.36l.426 2.48a.404.404 0 0 1-.589.426l-2.227-1.174a.417.417 0 0 0-.377 0l-2.226 1.174c-.295.159-.644-.098-.59-.426l.426-2.48a.416.416 0 0 0-.115-.36l-1.801-1.76a.402.402 0 0 1 .224-.688l2.489-.36a.416.416 0 0 0 .305-.224l1.114-2.256c.147-.3.578-.3.726 0ZM361.348 31.667l1.113 2.256c.06.12.175.202.306.224l2.488.36c.333.05.464.46.224.689l-1.801 1.759a.416.416 0 0 0-.114.36l.425 2.48a.404.404 0 0 1-.589.426l-2.227-1.174a.415.415 0 0 0-.376 0l-2.227 1.175a.406.406 0 0 1-.589-.427l.425-2.48a.419.419 0 0 0-.114-.36l-1.801-1.76a.402.402 0 0 1 .223-.688l2.489-.36a.405.405 0 0 0 .306-.224l1.113-2.256c.147-.3.579-.3.726 0ZM138.965 8.97l-.279 1.404a.224.224 0 0 0 .061.207l.998 1.027a.23.23 0 0 1-.136.388l-1.419.17a.228.228 0 0 0-.175.12l-.666 1.267a.23.23 0 0 1-.414-.011l-.601-1.3a.217.217 0 0 0-.169-.131l-1.408-.246c-.185-.033-.256-.268-.115-.393l1.054-.973a.23.23 0 0 0 .071-.202l-.202-1.415a.229.229 0 0 1 .338-.235l1.25.7a.226.226 0 0 0 .213.005l1.282-.634c.169-.082.366.066.328.252h-.011ZM26.66 87.736l-.42 2.097c-.022.11.01.224.092.306l1.49 1.535a.343.343 0 0 1-.207.58l-2.123.25a.33.33 0 0 0-.262.18l-.999 1.89a.345.345 0 0 1-.616-.016l-.895-1.939a.353.353 0 0 0-.252-.197l-2.106-.365a.344.344 0 0 1-.175-.59l1.572-1.448a.348.348 0 0 0 .11-.3l-.306-2.115a.345.345 0 0 1 .507-.35l1.861 1.044c.098.055.218.06.322.011l1.916-.945a.342.342 0 0 1 .485.377l.006-.005Z" fill="#E0E0E0"/><path d="M238.286 179.415 214.42 244l22.464-.361 22.468-59.368-21.066-4.856ZM375.718 150.578l-11.876.541-3.427 30.935-14.037-29.062-20.995 10.844s13.109 31.454 20.018 41.428c0 0 10.184 14.646 23.888 8.948 11.968-4.976 6.429-63.64 6.429-63.64v.006ZM280.778 91.478l2.658 44.673c.453 7.599 2.669 18.666 14.632 17.399 10.298-1.88 12.345-11.915 11.919-19.005-.202-3.365-.366-6.167-.366-6.511 0 0 11.297-1.749 11.45-13.051.071-5.462-.693-16.726-1.501-26.909-.867-10.936-9.998-19.365-20.956-19.376h-1.092c-11.75.672-17.742 11.04-16.744 22.78Z" fill="#F5F5F5"/><path d="M309.622 128.033s-7.123.41-14.703-4.364c0 0 3.58 8.259 14.85 7.254l-.147-2.89ZM300.709 94.056c-.207.246-1.577-.71-3.46-.623-1.883.055-3.22 1.109-3.438.88-.104-.099.098-.536.677-1.011.573-.475 1.566-.95 2.739-.994 1.174-.044 2.183.36 2.767.786.601.432.814.847.715.956v.006ZM299.301 99.53c.028.808-.633 1.496-1.473 1.54-.841.044-1.545-.574-1.572-1.377-.027-.808.633-1.496 1.473-1.54.841-.044 1.545.573 1.572 1.376ZM306.363 106.811c-.011-.098 1.07-.284 2.822-.508.442-.044.862-.131.938-.437.104-.322-.081-.797-.294-1.316-.415-1.077-.852-2.202-1.31-3.382-1.817-4.812-3.127-8.767-2.936-8.838.196-.071 1.823 3.769 3.64 8.581.436 1.186.857 2.317 1.25 3.398.169.503.453 1.076.229 1.743-.12.333-.448.573-.731.65-.284.087-.535.093-.754.104-1.757.093-2.848.098-2.859 0l.005.005ZM300.737 88.096c-.191.415-1.692.055-3.504.098-1.812 0-3.307.4-3.504-.005-.087-.197.202-.574.83-.929.616-.355 1.582-.655 2.663-.672 1.086-.01 2.052.263 2.674.601.628.339.922.71.841.907ZM317.971 90.817c-.174.355-1.67.081-3.449.158-1.784.044-3.242.41-3.454.066-.093-.164.174-.492.775-.803.594-.317 1.528-.59 2.597-.623 1.07-.033 2.03.18 2.664.459.633.273.944.584.867.753v-.01Z" fill="#E0E0E0"/><path d="M281.695 99.846c-.191-.082-7.76-2.305-7.52 5.425.24 7.729 7.94 5.894 7.946 5.67.005-.224-.431-11.095-.431-11.095h.005Z" fill="#F5F5F5"/><path d="M279.671 108.089c-.033-.021-.131.099-.355.208a1.326 1.326 0 0 1-1.004.049c-.824-.273-1.55-1.551-1.632-2.939a4.453 4.453 0 0 1 .316-1.939c.219-.574.573-.978.983-1.065a.689.689 0 0 1 .807.344c.11.213.066.366.11.382.021.017.163-.136.087-.453a.858.858 0 0 0-.317-.475c-.191-.148-.464-.213-.747-.175-.595.06-1.114.623-1.37 1.24a4.54 4.54 0 0 0-.399 2.169c.099 1.556.939 2.988 2.063 3.277.546.126.994-.055 1.223-.24.235-.197.267-.372.24-.388l-.005.005ZM270.556 88.112c1.408-2.835 1.55-6.101 2.205-9.199.661-3.097 2.123-6.358 5.016-7.63l.071.02c2.592-1.266 5.877-1.518 8.202.176.257-4.043 3.537-7.468 7.368-8.779 3.831-1.305 10.14-1.147 13.993.093 2.98.956 5.954 3.147 9.605 6.413a38.54 38.54 0 0 1 4.274 4.48l4.153 10.253-2.516 5.714c-.148.388-.3.776-.491 1.158v-.027l-1.79 11.788c-.393-3.152-.956-14.175-1.348-17.327-4.89.142-9.447-1.514-12.978-4.9-1.867-1.792-3.395-4.092-5.785-5.064-3.084-1.262-6.555.07-9.611 1.387l.125-.13a14.173 14.173 0 0 0-4.12 3.452 44.01 44.01 0 0 1-.562 18.698c-.229.918-.901 2.824-1.757 3.229-1.681.792-2.271-.935-3.384-1.798-.813-.633-1.959-.639-3.198-.546-.868-1.868-1.856-5.053-2.691-7.844a7.02 7.02 0 0 1-3.214.448c.273-.82.546-1.64.824-2.453-.409.306-.841.617-1.337.727-.497.109-1.092-.039-1.354-.476-.338-.568.017-1.278.311-1.873l-.011.01Z" fill="#E0E0E0"/><path d="M317.906 93.531c-.208.246-1.577-.71-3.46-.622-1.883.054-3.22 1.109-3.439.88-.103-.105.099-.536.677-1.011.573-.476 1.567-.95 2.74-.995 1.173-.043 2.183.36 2.767.787.6.431.813.847.715.956v.005ZM315.303 99.174c.027.809-.633 1.497-1.474 1.541-.84.043-1.544-.574-1.572-1.377-.027-.808.633-1.497 1.474-1.54.84-.044 1.544.573 1.572 1.382v-.006ZM320.258 72.462c1.032 1.207 2.571 2.272 4.137 2.01.464-.076 1.648-.59 1.648-.59.568.3.551 2.196.202 2.737-.349.54-1.108 1.295-1.108 1.295 1.905.885 3.558.295 5.485-.546-.147 3.375-2.248 6.598-5.277 8.095-.966.48-2.162.776-3.1.246-.824-.47-1.212-1.437-1.507-2.338a42.415 42.415 0 0 1-1.997-10.259l1.512-.64.005-.01Z" fill="#E0E0E0"/><path d="m316.154 136.888-6.473-2.392-24.755-.732-5.741 1.562.747 14.012 12.995 8.292 12.601-.251 7.925-7.222 1.757-7.161.944-6.108Z" fill="#F5F5F5"/><path d="M242.729 158.351c1.844-3.802 3.612-6.855 5.179-9.27 3.094-4.752 7.82-8.199 13.338-9.39l20.771-5.638s1.414 14.023 15.696 14.023 14.572-12.985 14.572-12.985l26.152 9.571c.824.322 6.402 2.25 12.885 16.175 6.178 13.258 8.88 20.042 8.88 20.042l-24.668 6.637-1.643 22.812 1.457 33.317-75.15-.164-.507-35.141-.344-24.063-1.577 2.972-23.462-9.418s2.335-6.932 8.415-19.469l.006-.011Z" fill="#EBEBEB"/><path d="M258.992 171.822c-.109 0-.044 8.063.153 17.999.191 9.942.436 17.994.551 17.994.109 0 .044-8.062-.153-17.999-.191-9.937-.436-17.994-.551-17.994ZM307.013 113.099c.016.065-.415.245-1.157.245-.732 0-1.79-.245-2.702-.956a4.59 4.59 0 0 1-1.583-2.392c-.185-.721-.109-1.18-.043-1.186.082-.005.153.432.409 1.06.257.628.748 1.453 1.55 2.081.802.629 1.725.907 2.396 1 .677.098 1.113.06 1.13.142v.006Z" fill="#E0E0E0"/><path d="M375.03 132.699s1.413-3.502-.311-4.491c-1.725-.988-12.749-4.343-13.944-3.9-1.195.442-1.637 1.049-1.949 2.354-.311 1.306-.633 2.169-.633 2.169s-1.075-1.038-2.985-.038c0 0-1.992 1.049-2.27 1.928-.279.88.158 2.07.529 2.961.371.885 2.565 4.168 2.565 4.168s0 2.759 1.845 5.67c1.85 2.912 5.43 3.693 6.02 5.79l-.726 9.374 12.841 7.2s-.207-11.712-.436-16.847c-.23-5.14-.235-10.297.087-11.963.322-1.666-.109-4.113-.628-4.37l-.005-.005Z" fill="#F5F5F5"/><path d="M368.497 137.61s-.038-.028-.093-.093a1.684 1.684 0 0 1-.207-.323c-.147-.289-.3-.852.049-1.436l.033.12-1.583-.585.131-.125.464 1.294-.027-.043c.174.18.349.382.486.617.136.24.24.524.24.825.011.606-.377 1.212-.966 1.486a1.6 1.6 0 0 1-.972.131c-.338-.071-.616-.202-.911-.333a7.752 7.752 0 0 1-1.681-1.044 6.734 6.734 0 0 1-.971-.961l.092.054c-.758-.103-1.511-.371-2.046-.885a2.66 2.66 0 0 1-.835-1.879l.093.126c-.486-.153-.923-.361-1.294-.65a2.072 2.072 0 0 1-.464-.508c-.114-.224-.136-.443-.147-.65-.027-.82.098-1.513.191-2.087.098-.574.196-1.016.273-1.316.076-.301.125-.465.136-.459.011 0-.011.169-.06.475-.049.306-.125.754-.202 1.327-.071.568-.174 1.268-.131 2.049.011.191.044.393.126.546.103.164.251.311.42.443.338.256.769.458 1.217.59l.087.027v.098c.028.585.279 1.235.775 1.677.486.459 1.174.71 1.899.803h.055l.038.055c.262.322.584.628.928.907a7.798 7.798 0 0 0 1.621 1.01c.278.126.578.257.846.317.278.049.562.011.808-.104.496-.229.829-.743.824-1.245 0-.508-.317-.94-.639-1.284l-.016-.022v-.022c-.164-.464-.311-.901-.448-1.305l-.071-.208.202.082c.584.235 1.114.448 1.566.628l.088.033-.055.082c-.322.492-.224 1.027-.098 1.311.126.301.24.437.224.454h.005Z" fill="#E0E0E0"/><path d="M372.339 131.519s-.212-.006-.589-.071c-.377-.066-.917-.17-1.588-.301-.693-.142-1.479-.306-2.347-.481-.442-.092-.906-.191-1.381-.295-.48-.098-.971-.229-1.451-.163-.486.054-.852.387-1.076.792-.229.404-.36.863-.485 1.289-.24.863-.366 1.661-.464 2.332-.18 1.35-.257 2.191-.3 2.185-.022 0-.022-.213-.011-.595.016-.382.043-.934.109-1.617.071-.683.18-1.491.409-2.376.12-.437.24-.907.497-1.36.235-.448.704-.88 1.277-.934.562-.071 1.075.071 1.55.169.475.109.939.213 1.381.311.862.202 1.648.383 2.33.541.666.158 1.201.29 1.566.388.366.098.573.164.568.18l.005.006Z" fill="#E0E0E0"/><path d="M370.407 128.995s-.218-.022-.606-.109c-.442-.104-.987-.23-1.626-.383-.688-.158-1.501-.349-2.418-.519a24.556 24.556 0 0 0-1.435-.229c-.491-.06-1.015-.077-1.49.087-.48.164-.862.514-1.14.913-.284.398-.481.841-.644 1.272a21.704 21.704 0 0 0-.71 2.36c-.322 1.366-.415 2.24-.458 2.234-.017 0-.017-.224.016-.617.038-.393.109-.967.246-1.66.142-.694.349-1.519.66-2.404.158-.443.36-.907.66-1.344.295-.431.726-.83 1.277-1.016.546-.186 1.108-.158 1.616-.098.513.065.993.158 1.452.251.916.186 1.735.393 2.417.579.682.186 1.228.35 1.605.47.376.12.584.197.578.213ZM375.019 130.328c-.055.065-.65-.372-1.49-.667-.835-.306-1.572-.344-1.572-.431-.011-.071.775-.164 1.665.164.895.317 1.446.879 1.391.934h.006Z" fill="#E0E0E0"/><path d="M364.344 125.898c0 .054-.66-.028-1.697.038-.513.044-1.13.164-1.698.524-.584.344-.955 1.005-1.135 1.776a50.288 50.288 0 0 0-.78 4.031c-.164 1.038-.246 1.688-.289 1.683-.039 0-.022-.656.092-1.71.115-1.055.328-2.497.71-4.081.104-.393.24-.786.453-1.125.213-.344.507-.612.818-.803.628-.383 1.294-.486 1.823-.503.535-.016.966.033 1.261.071.295.038.453.077.453.093l-.011.006ZM370.14 127.378c-.022.076-.671-.022-1.452-.224-.78-.202-1.402-.421-1.381-.497.022-.077.672.022 1.452.224.781.202 1.403.426 1.381.497ZM359.891 135.097c.022.082-.835.327-1.692.983-.862.645-1.332 1.404-1.408 1.36-.066-.022.316-.901 1.233-1.589.912-.7 1.856-.831 1.861-.76l.006.006ZM358.133 133.332c.022.028-.125.181-.42.344a2.563 2.563 0 0 1-1.277.317 3.252 3.252 0 0 1-1.271-.306c-.301-.142-.47-.262-.453-.295.032-.093.78.279 1.73.312.955.022 1.648-.465 1.691-.377v.005ZM370.44 138.609c0 .055-.698.033-1.774.306a8.045 8.045 0 0 0-3.683 2.114 8.072 8.072 0 0 0-2.036 3.731c-.257 1.082-.218 1.781-.273 1.781-.016 0-.044-.175-.049-.486a6.82 6.82 0 0 1 .125-1.333 7.744 7.744 0 0 1 2.025-3.89c1.228-1.25 2.74-1.89 3.842-2.114a6.853 6.853 0 0 1 1.326-.153c.317 0 .492.022.492.039l.005.005ZM372.383 150.611c.006.032-.398.158-1.081.234a9.317 9.317 0 0 1-2.674-.098c-1.037-.191-1.932-.53-2.537-.847-.612-.311-.95-.573-.934-.6.044-.082 1.496.808 3.52 1.163 2.025.377 3.695.049 3.706.142v.006Z" fill="#E0E0E0"/><path d="m123.662 163.191 30.835 80.476-22.316.033-26.638-65.623 18.119-14.886ZM.819 139.603l10.91-3.72 3.443 33.525 20.744-18.104 12.852 15.553s-21.72 22.697-29.58 25.811c0 0-11.935 5.828-17.005-1.82-3.913-5.894-1.359-51.239-1.359-51.239l-.005-.006Z" fill="#F5F5F5"/><path d="M105.8 119.55c-.339-7.653-.683-15.345-2.205-22.85-1.528-7.506-3.422-14.82-8.176-20.824l-43.982 2.72c-1.643 6.802-3.296 13.772-2.532 20.726.742 6.752 3.744 13.252 3.323 20.031-.294 4.791-2.28 9.281-3.732 13.854-1.452 4.572-2.369 9.641-.557 14.082.458 1.12 1.113 2.207 2.128 2.863 1.25.797 2.822.819 4.3.808 17.59-.12 35.18-.672 52.742-1.655-.436-9.92-.873-19.835-1.315-29.755h.006Z" fill="#E0E0E0"/><path d="M62.701 67.66c4.077-2.272 9.022-2.638 13.6-1.759 4.585.88 8.863 2.917 12.924 5.223 2.276 1.294 4.546 2.715 6.194 4.752 3.002 3.72 5.992 9.844 6.32 14.613.262 3.856-1.13 13.536-2.734 17.054-1.468 3.229-8.448 5.736-11.898 6.561L55.093 77.46c1.087-4.108 3.897-7.735 7.608-9.8Z" fill="#E0E0E0"/><path d="m57.277 72.686 7.591-1.426c-4.071 9.937-5.01 32.596-7.297 43.095-2.838-4.048-9.447-16.382-9.141-21.315.306-4.933-.191-21.119 8.847-20.354Z" fill="#E0E0E0"/><path d="M53.063 88.866c.431-7.604 5.403-16.961 12.978-16.207l17.54 4.32c5.627 1.388 9.41 6.102 9.868 11.887.022.29.049-.065.044.153l-3.526 45.4-27.686 30.296 2.942-31.361c-.039-3.698-.066-6.642-.066-6.626 0 0-9.709-1.551-11.799-14.208-1.037-6.293-.775-15.208-.295-23.654Z" fill="#F5F5F5"/><path d="M57.828 99.13c-.028.858.682 1.59 1.577 1.629.895.043 1.637-.618 1.664-1.475.028-.858-.682-1.59-1.571-1.628-.895-.044-1.643.617-1.665 1.475h-.005ZM55.006 93.816c.202.212 1.425-.71 3.176-.716 1.747-.033 3.035.858 3.22.645.093-.093-.114-.476-.676-.88-.552-.404-1.49-.792-2.582-.781-1.086.01-2.003.42-2.527.83-.534.415-.714.798-.616.896l.005.005ZM72.983 99.005c-.027.858.683 1.59 1.578 1.628.895.044 1.637-.617 1.664-1.475.028-.858-.682-1.59-1.572-1.633-.895-.044-1.642.617-1.664 1.474l-.006.006ZM71.597 93.673c.202.213 1.43-.71 3.177-.715 1.746-.033 3.034.858 3.22.644.092-.092-.115-.475-.677-.88-.551-.403-1.49-.791-2.582-.78-1.086.01-2.003.42-2.526.83-.535.415-.716.803-.617.896l.005.005ZM66.249 107.456c.005-.099-1.08-.279-2.838-.497-.448-.044-.868-.132-.944-.432-.11-.322.076-.803.289-1.327.415-1.082.846-2.218 1.299-3.409 1.8-4.85 3.105-8.839 2.909-8.91-.197-.07-1.818 3.802-3.619 8.659a682.181 682.181 0 0 1-1.244 3.425c-.164.508-.453 1.087-.218 1.753.12.333.453.574.736.65.284.088.535.088.76.099 1.773.082 2.87.087 2.875-.017l-.005.006Z" fill="#E0E0E0"/><path d="M81.906 122.085s-4.044 8.734-16.722 7.631l-.027-2.983s8.345.481 16.75-4.648Z" fill="#EBEBEB"/><path d="M72.094 87.353c.174.475 1.915.24 3.967.475 2.058.192 3.711.782 3.984.355.12-.202-.169-.65-.84-1.108-.666-.454-1.725-.885-2.958-1.017-1.234-.125-2.358.077-3.1.383-.753.306-1.124.683-1.053.907v.005ZM55.53 88.462c.311.393 1.512-.022 2.958-.055 1.446-.076 2.674.252 2.953-.169.12-.202-.071-.6-.612-.972-.529-.372-1.413-.672-2.406-.634-.994.038-1.856.404-2.352.814-.508.41-.677.82-.54 1.016Z" fill="#E0E0E0"/><path d="M56.409 77.264c.758-1.912 2.838-3.076 4.89-3.196 2.052-.12 4.066.64 5.85 1.655 7.575 4.3 11.537 14.799 19.025 19.25 1.84 1.093 4.219.06 5.785 1.514 1.572 1.458 2.603 3.796 1.757 5.768.988-1.382 1.992-2.791 2.549-4.397.557-1.606.611-3.469-.251-4.938-.655-1.115-1.801-1.956-2.123-3.207-.284-1.098.142-2.256.082-3.387-.06-1.152-.611-2.223-1.184-3.223-2.964-5.14-7.013-9.778-12.209-12.64-3.394-1.868-7.264-2.95-11.133-2.78-3.87.163-7.723 1.622-10.533 4.287-1.654 1.568-3.39 3.19-2.51 5.294" fill="#E0E0E0"/><path d="M91.79 98.06c.131-.366 6.713-2.802 6.86 4.217.142 6.823-6.75 5.539-6.762 5.343-.016-.197-.093-9.56-.093-9.56h-.005Z" fill="#F5F5F5"/><path d="M93.946 105.003c.027-.022.12.082.322.169.196.088.534.142.89 0 .714-.278 1.298-1.431 1.314-2.665a3.982 3.982 0 0 0-.36-1.694c-.218-.497-.546-.841-.911-.896a.598.598 0 0 0-.693.339c-.088.191-.044.328-.077.339-.016.016-.147-.11-.098-.394a.756.756 0 0 1 .262-.431.9.9 0 0 1 .655-.186c.524.027 1.01.503 1.26 1.038a4.08 4.08 0 0 1 .448 1.895c-.022 1.377-.698 2.677-1.68 2.978-.476.136-.88 0-1.092-.159-.213-.164-.251-.317-.23-.328l-.01-.005ZM92.778 96.476c.12 1.863.223 3.829-.623 5.495-.845 1.666-3.007 2.808-4.633 1.896-1.326-.743-1.735-2.437-1.97-3.939-.682-4.343-1.015-8.735-1.736-13.066l8.967 9.614h-.005Z" fill="#E0E0E0"/><path d="M70.571 110.739c.666.857.879 2.043.557 3.075a3.44 3.44 0 0 1-2.2 2.218c-.409.131-.867.18-1.271.033-.715-.262-1.075-1.044-1.364-1.748l-.72-1.759c-.083-.197-.165-.421-.072-.617.098-.208.35-.285.568-.339 1.457-.366 2.914-.727 4.366-1.093" fill="#EBEBEB"/><path d="M67.75 115.846c0 .044.775.126 1.986-.267.59-.208 1.304-.639 1.73-1.432.218-.376.306-.906.257-1.36a3.952 3.952 0 0 0-.36-1.398 3.628 3.628 0 0 0-.836-1.131l-.114-.104-.147.055c-2.888 1.049-5.152 1.584-5.125 1.71.022.125 2.352-.208 5.3-1.224l-.263-.055c.284.268.53.601.704.978.338.781.48 1.688.147 2.311-.327.661-.91 1.071-1.44 1.305-1.086.454-1.867.514-1.845.612h.006Z" fill="#E0E0E0"/><path d="M98.923 136.293c-.682-.432-9.687-2.229-9.687-2.229l-21.677.749-7.756 1.496s-1.238 24.129-1.02 24.56c.218.432 10.315 8.626 10.746 9.058.425.431 21.088-6.709 21.088-6.709l13.458-24.647-5.152-2.278Z" fill="#F5F5F5"/><path d="M96.03 134.01c1.086-.011 13.137 3.201 17.039 8.352 5.359 7.08 14.386 17.715 14.386 17.715l-22.78 18.721-4.977 29.007s9.021 25.133 10.413 35.354c0 0-74.654.36-73.131 0 0 0 5.24-40.32 4.251-54.25-.987-13.93-.294-35.059-.294-35.059l9.447-16.366 14.184-2.092s-5.469 10.422 5.916 12.198c11.679 1.819 25.546-13.58 25.546-13.58Z" fill="#EBEBEB"/><path d="M62.778 135.638s-13.07 1.78-17.41 2.807c-4.338 1.022-21.3 19.409-21.3 19.409l17.496 18.715 7.51-15.754 13.704-25.172v-.005Z" fill="#EBEBEB"/><path d="M41.352 157.685c-.039 0-.099.595-.17 1.677a190.054 190.054 0 0 0-.223 4.583 516.17 516.17 0 0 0-.36 15.137c-.06 5.916-.033 11.269.038 15.148.038 1.939.081 3.507.125 4.588.05 1.082.093 1.683.131 1.683.038 0 .071-.601.093-1.683.016-1.19.033-2.731.06-4.588.033-3.977.082-9.281.13-15.137.077-5.856.143-11.155.192-15.137.016-1.857.027-3.398.038-4.589 0-1.081-.016-1.682-.06-1.688l.006.006Z" fill="#E0E0E0"/><path d="M1.048 117.939s-1.354-3.273.256-4.212c1.61-.945 11.92-4.174 13.044-3.769 1.124.404 1.539.966 1.844 2.19a18.5 18.5 0 0 0 .612 2.032s.998-.983 2.794-.06c0 0 1.872.967 2.145 1.792.273.819-.137 1.945-.475 2.775-.338.836-2.369 3.928-2.369 3.928s.022 2.583-1.686 5.326c-1.708 2.742-5.059 3.501-5.594 5.479l.759 8.784-11.985 6.85s.104-10.98.278-15.798c.175-4.818.142-9.653-.174-11.21-.317-1.556.07-3.856.556-4.102l-.005-.005Z" fill="#F5F5F5"/><path d="M7.21 122.489s.087-.142.201-.426c.115-.268.202-.77-.103-1.224l-.055-.082.087-.038c.426-.175.917-.377 1.463-.606l.202-.082-.071.207c-.12.377-.257.792-.398 1.229v.022l-.028.022c-.3.328-.595.732-.59 1.207 0 .47.317.945.781 1.153.23.104.497.142.753.093.246-.055.53-.18.786-.301a7.34 7.34 0 0 0 1.512-.956c.317-.262.622-.551.862-.857l.038-.049h.055c.677-.104 1.32-.345 1.768-.776a2.262 2.262 0 0 0 .704-1.573v-.099l.093-.027c.42-.131.819-.317 1.13-.563.158-.12.295-.262.387-.415.071-.142.104-.333.115-.508.033-.732-.066-1.387-.137-1.917a40.822 40.822 0 0 0-.196-1.24c-.05-.29-.07-.443-.054-.443.01 0 .06.148.136.426.07.284.17.7.267 1.235.093.535.213 1.185.197 1.956-.011.191-.027.398-.131.611-.11.186-.262.345-.437.487a3.817 3.817 0 0 1-1.206.622l.093-.125a2.503 2.503 0 0 1-.77 1.775c-.502.486-1.206.748-1.915.852l.093-.054a6.188 6.188 0 0 1-.906.906 7.367 7.367 0 0 1-1.572.995c-.279.125-.535.245-.857.316a1.5 1.5 0 0 1-.917-.12c-.557-.256-.922-.825-.922-1.393 0-.284.093-.551.218-.781.131-.224.29-.415.453-.584l-.027.043c.153-.431.295-.841.426-1.218l.13.126c-.55.207-1.047.399-1.479.562l.033-.12c.333.552.197 1.082.055 1.35-.071.142-.142.24-.191.305-.05.066-.082.093-.088.088l.011-.011Z" fill="#E0E0E0"/><path d="M3.564 116.808s.185-.082.53-.175c.343-.098.845-.224 1.467-.382.644-.159 1.38-.334 2.183-.53.415-.099.846-.197 1.294-.301.442-.098.927-.235 1.457-.175.546.05.988.454 1.211.874.24.427.36.864.475 1.273.224.825.333 1.59.404 2.229.07.639.098 1.158.115 1.513.016.361.01.557-.006.557-.044 0-.125-.786-.306-2.048a17.771 17.771 0 0 0-.452-2.18c-.12-.399-.246-.825-.464-1.202-.213-.376-.557-.682-1.01-.732-.447-.054-.906.066-1.353.164-.448.099-.88.197-1.294.284-.808.175-1.544.328-2.194.47-.627.131-1.135.23-1.484.29-.355.06-.551.087-.551.071h-.022Z" fill="#E0E0E0"/><path d="M5.354 114.432s.186-.093.54-.208a37.6 37.6 0 0 1 1.501-.453 37.173 37.173 0 0 1 2.26-.569c.43-.087.878-.18 1.359-.245.474-.061 1.004-.093 1.522.076.519.175.928.546 1.206.951.284.404.48.841.633 1.256.3.83.502 1.601.633 2.251.137.65.208 1.185.24 1.556.033.372.039.574.017.579-.044.006-.142-.808-.453-2.086a19.526 19.526 0 0 0-.682-2.202c-.153-.398-.344-.814-.612-1.185-.267-.372-.627-.688-1.07-.841-.447-.148-.933-.131-1.396-.071-.464.06-.917.147-1.343.229-.857.169-1.62.35-2.26.503-.594.142-1.102.267-1.522.366-.36.082-.562.12-.568.103l-.005-.01ZM1.043 115.715c-.055-.049.453-.59 1.293-.89.835-.312 1.572-.23 1.566-.159 0 .082-.687.132-1.468.427-.78.284-1.337.688-1.391.628v-.006Z" fill="#E0E0E0"/><path d="M11.013 111.482s.148-.055.426-.093a6.634 6.634 0 0 1 1.179-.077c.497.017 1.124.104 1.72.459.294.175.572.426.774.749.207.316.338.682.437 1.054.37 1.48.578 2.83.693 3.818.114.989.13 1.601.092 1.606-.043 0-.13-.601-.289-1.573a48.204 48.204 0 0 0-.77-3.775c-.18-.721-.529-1.333-1.074-1.649-.53-.334-1.108-.443-1.588-.481-.972-.055-1.589.027-1.594-.027l-.006-.011ZM5.594 112.913c-.022-.077.557-.295 1.288-.486s1.343-.29 1.364-.213c.022.076-.556.295-1.288.486-.73.191-1.342.289-1.364.213ZM15.26 120.069c0-.071.894.044 1.757.688.867.639 1.233 1.459 1.162 1.486-.07.044-.524-.661-1.337-1.256-.802-.607-1.61-.836-1.588-.918h.005ZM16.896 118.397c.044-.087.694.361 1.589.328.884-.044 1.582-.393 1.62-.3.033.043-.616.53-1.61.584a2.365 2.365 0 0 1-1.2-.289c-.278-.159-.41-.295-.393-.328l-.006.005ZM5.397 123.445s.164-.044.459-.044c.295 0 .726.027 1.25.131a7.202 7.202 0 0 1 3.623 1.95 7.199 7.199 0 0 1 1.932 3.639c.104.524.131.956.126 1.25 0 .295-.027.459-.05.459-.054 0-.027-.655-.272-1.666-.24-.999-.824-2.36-1.938-3.479a7.55 7.55 0 0 0-3.465-1.956c-1.004-.251-1.665-.23-1.66-.284h-.005ZM3.668 134.709c.01-.093 1.582.196 3.47-.17 1.894-.349 3.253-1.19 3.297-1.108.016.027-.295.278-.868.579a8.81 8.81 0 0 1-4.884.923c-.639-.071-1.02-.186-1.015-.219v-.005Z" fill="#E0E0E0"/><path d="M7.635 243.323c0-.077 79.232-.142 176.944-.142 97.711 0 176.96.065 176.96.142 0 .076-79.211.142-176.96.142-97.75 0-176.944-.066-176.944-.142Z" fill="#022749"/><path d="m46.394 11.706 1.114 2.257c.06.12.174.202.305.224l2.489.36c.333.05.464.459.224.688l-1.801 1.76a.418.418 0 0 0-.115.36l.426 2.48a.404.404 0 0 1-.59.426l-2.226-1.174a.416.416 0 0 0-.377 0l-2.227 1.174a.407.407 0 0 1-.589-.426l.426-2.48a.418.418 0 0 0-.115-.36l-1.8-1.76a.402.402 0 0 1 .223-.688l2.488-.36a.418.418 0 0 0 .306-.224l1.113-2.257c.148-.3.579-.3.726 0ZM18.113 42.505l-.278 1.404a.223.223 0 0 0 .06.207l.999 1.027a.23.23 0 0 1-.136.388l-1.42.17a.228.228 0 0 0-.174.12l-.666 1.267a.231.231 0 0 1-.415-.01l-.6-1.301a.22.22 0 0 0-.17-.131l-1.407-.246c-.186-.033-.257-.268-.115-.393l1.053-.973a.23.23 0 0 0 .071-.202l-.201-1.415a.23.23 0 0 1 .338-.235l1.25.7a.226.226 0 0 0 .213.005l1.282-.633c.17-.082.366.065.327.25h-.01ZM186.625 6.577l-.278 1.404a.226.226 0 0 0 .06.207l.999 1.027a.23.23 0 0 1-.137.388l-1.418.17a.228.228 0 0 0-.175.12l-.666 1.267a.231.231 0 0 1-.415-.01l-.6-1.3a.22.22 0 0 0-.169-.132l-1.408-.246c-.186-.033-.257-.267-.115-.393l1.053-.972a.228.228 0 0 0 .071-.203l-.202-1.414a.23.23 0 0 1 .339-.235l1.25.699a.224.224 0 0 0 .212.005l1.283-.633c.169-.082.366.065.327.251h-.011ZM337.122 55.331l-.279 1.404a.224.224 0 0 0 .061.208l.998 1.027a.23.23 0 0 1-.136.387l-1.419.17a.228.228 0 0 0-.175.12l-.666 1.267a.23.23 0 0 1-.414-.01l-.601-1.3a.217.217 0 0 0-.169-.132l-1.408-.246c-.185-.032-.256-.267-.115-.393l1.054-.972a.23.23 0 0 0 .071-.202l-.202-1.415a.229.229 0 0 1 .338-.235l1.25.7a.226.226 0 0 0 .213.005l1.282-.634c.169-.082.366.065.328.251h-.011ZM332.134 22.118l-.819.388a.153.153 0 0 0-.082.11l-.142.895c-.016.12-.163.164-.251.077l-.622-.656a.155.155 0 0 0-.125-.043l-.895.142a.148.148 0 0 1-.153-.213l.431-.798a.15.15 0 0 0 0-.137l-.409-.808a.145.145 0 0 1 .158-.208l.889.164a.146.146 0 0 0 .131-.038l.639-.64a.143.143 0 0 1 .245.083l.121.896c.005.049.038.087.076.109l.808.41c.109.054.103.207 0 .262v.005ZM62.576 49.453l-.819.388a.154.154 0 0 0-.082.11l-.142.895c-.016.12-.163.164-.25.077l-.623-.656a.16.16 0 0 0-.13-.043l-.896.142a.148.148 0 0 1-.153-.213l.432-.798a.15.15 0 0 0 0-.137l-.41-.808a.145.145 0 0 1 .159-.208l.89.164c.048.011.092-.005.13-.038l.639-.64a.143.143 0 0 1 .245.083l.12.896c.006.049.038.087.077.109l.807.41c.11.054.104.207 0 .262l.006.005ZM299.94 31.776l-.42 2.114a.35.35 0 0 0 .092.312l1.501 1.546a.345.345 0 0 1-.207.584l-2.14.251a.348.348 0 0 0-.267.18l-1.004 1.907a.348.348 0 0 1-.622-.016l-.901-1.956a.352.352 0 0 0-.256-.197l-2.123-.366a.345.345 0 0 1-.175-.595l1.583-1.464a.354.354 0 0 0 .109-.306l-.306-2.13a.346.346 0 0 1 .513-.35l1.878 1.054c.098.055.218.06.322.011l1.932-.95a.346.346 0 0 1 .491.377v-.006Z" fill="#15A9F3"/><path d="M46.629 210.732c1.73.082 3.34 1.044 4.464 2.36 1.124 1.317 1.801 2.961 2.227 4.644.824 3.25.24 7.057-.72 10.269-3.482-1.3-5.594-5.063-6.544-7.041-1.5-3.125-2.325-9.685.579-10.232M57.588 231.993c-1.086-1.6-1.08-3.807-.186-5.523.895-1.715 2.587-2.939 4.443-3.479.856-.252 1.85-.35 2.586.158.688.475.977 1.388.88 2.218-.1.83-.53 1.584-1.038 2.251-1.73 2.283-3.826 4.178-6.685 4.375Z" fill="#022749"/><path d="M57.833 242.809s-.065-.24-.147-.672l-.338-1.852c-.257-1.556-.666-3.763-.306-6.2.35-2.425 1.343-4.485 2.368-5.714a8.09 8.09 0 0 1 1.343-1.327c.175-.142.322-.229.42-.295.099-.066.153-.093.159-.087.038.043-.825.562-1.79 1.813-.977 1.229-1.922 3.261-2.265 5.643-.355 2.382.016 4.572.234 6.135.115.786.208 1.42.262 1.862.055.443.071.689.055.689l.005.005Z" fill="#022749"/><path d="M47.699 215.671s.054.087.136.267c.093.202.207.465.35.787.3.683.72 1.677 1.233 2.912 1.02 2.463 2.39 5.888 3.81 9.707a294.968 294.968 0 0 1 3.47 9.832c.42 1.268.753 2.295.971 3.01l.252.825c.054.191.076.29.07.29-.005 0-.049-.093-.114-.279a37.223 37.223 0 0 1-.29-.808c-.256-.732-.61-1.743-1.042-2.983a519.784 519.784 0 0 0-3.536-9.805 539.785 539.785 0 0 0-3.744-9.724c-.48-1.218-.879-2.218-1.163-2.939-.125-.328-.229-.595-.31-.803a2.238 2.238 0 0 1-.093-.284v-.005ZM53.767 235.604c-2.019-3.545-5.845-5.987-9.9-6.337-1.031-.087-2.28.071-2.756.994-.474.924.131 2.038.825 2.808 2.892 3.218 7.837 4.392 11.864 2.814" fill="#022749"/><path d="M45.407 232.059s.229 0 .649.032c.207.017.464.039.753.099.29.06.628.093.988.202.36.093.764.186 1.173.344.42.131.852.317 1.31.519.895.421 1.845.972 2.75 1.677a14.004 14.004 0 0 1 2.26 2.3c.295.399.573.781.791 1.163.24.372.42.743.584 1.076.18.328.284.656.399.929.12.273.19.519.245.721.12.399.175.623.159.628-.055.017-.29-.879-.96-2.201-.175-.328-.361-.688-.607-1.049-.223-.377-.502-.743-.797-1.131a14.492 14.492 0 0 0-2.237-2.245 15.051 15.051 0 0 0-2.69-1.666 12.94 12.94 0 0 0-1.283-.53c-.404-.158-.797-.262-1.152-.366-1.43-.382-2.357-.442-2.346-.497l.01-.005ZM293.751 201.271c1.784 1.207 2.881 3.278 3.225 5.408.344 2.131 0 4.327-.633 6.386-1.222 3.993-4.311 7.675-7.417 10.472-2.87-3.644-2.679-9.019-2.417-11.739.42-4.305 3.793-11.821 7.236-10.521M291.655 231.015c-.12-2.409 1.315-4.758 3.378-6.003 2.063-1.246 4.661-1.448 6.986-.825 1.075.29 2.194.83 2.652 1.846.426.951.142 2.114-.502 2.934-.644.819-1.593 1.344-2.559 1.726-3.324 1.311-6.779 1.967-9.955.328" fill="#022749"/><path d="M284.915 242.7s.082-.295.279-.814l.84-2.185c.731-1.825 1.73-4.441 3.689-6.801 1.943-2.354 4.334-3.906 6.222-4.545.939-.333 1.735-.486 2.292-.541.273-.038.491-.033.639-.038.147 0 .223 0 .223.011.011.071-1.244.06-3.078.77-1.833.677-4.153 2.223-6.063 4.54-1.921 2.305-2.942 4.883-3.722 6.686-.387.912-.699 1.65-.928 2.152-.229.503-.371.776-.387.77l-.006-.005Z" fill="#022749"/><path d="M291.688 207.22s0 .131-.027.371c-.033.274-.082.629-.137 1.066-.12.923-.316 2.256-.567 3.9a368.857 368.857 0 0 1-2.222 12.81 362.821 362.821 0 0 1-2.668 12.728 172.74 172.74 0 0 1-.912 3.835c-.109.426-.196.77-.267 1.038-.066.234-.104.36-.115.355-.011-.006.011-.131.055-.372.054-.273.125-.617.213-1.049.202-.945.48-2.256.818-3.851a638.713 638.713 0 0 0 2.582-12.739c.955-4.982 1.752-9.51 2.308-12.788.273-1.611.502-2.928.666-3.884.076-.431.142-.781.191-1.054.049-.24.077-.366.087-.366h-.005ZM285.254 232.386c.141-5.08-2.347-10.166-6.446-13.17-1.042-.765-2.472-1.404-3.574-.727-1.103.678-1.179 2.251-.939 3.529.999 5.305 5.506 9.762 10.817 10.691" fill="#022749"/><path d="M278.639 223.187s.251.148.671.454c.213.153.47.344.743.595.272.251.611.508.922.852.327.334.688.694 1.031 1.126.366.415.704.89 1.059 1.398a17.972 17.972 0 0 1 1.839 3.573c.491 1.343.775 2.682.923 3.911.054.617.109 1.202.087 1.753.016.552-.033 1.06-.071 1.525-.022.469-.12.879-.175 1.245a6.552 6.552 0 0 1-.202.929c-.131.502-.218.781-.234.775-.066-.016.262-1.125.398-2.966.027-.459.066-.967.033-1.508.005-.54-.055-1.119-.115-1.726a18.217 18.217 0 0 0-.927-3.84 18.341 18.341 0 0 0-1.791-3.523c-.343-.503-.671-.984-1.02-1.393-.328-.432-.677-.798-.988-1.137-1.277-1.333-2.221-1.999-2.183-2.048v.005Z" fill="#022749"/><path d="m125.081 60.865-7.553-.885a24.076 24.076 0 0 1-11.478 6.522c-13.005 3.201-26.141-4.763-29.34-17.78-3.197-13.018 4.754-26.167 17.765-29.368 13.005-3.2 26.142 4.758 29.34 17.781a24.151 24.151 0 0 1-1.392 15.64l.011-.011 2.652 8.095-.005.006Z" fill="#fff"/><path d="M125.081 60.865s-.066-.186-.186-.535c-.12-.361-.294-.875-.524-1.552-.458-1.366-1.135-3.376-2.008-5.987l.131.022-.011.01a.072.072 0 0 1-.104.012c-.027-.022-.032-.06-.021-.093 1.266-2.9 2.374-6.976 1.964-11.794a23.677 23.677 0 0 0-.606-3.693c-.371-1.24-.709-2.534-1.288-3.79a24.058 24.058 0 0 0-4.791-7.239 24.162 24.162 0 0 0-7.837-5.419 24.18 24.18 0 0 0-10.058-1.972c-7.106.082-14.6 3.737-19.096 10.155-2.276 3.262-3.793 7.003-4.24 10.81a24.565 24.565 0 0 0 1.112 11.04c1.163 3.448 3.133 6.469 5.485 8.889a24.193 24.193 0 0 0 16.575 7.32c.35 0 .693.01 1.037.01.344.011.682.011 1.015-.032.671-.06 1.332-.12 1.981-.175 1.277-.257 2.521-.437 3.673-.809a24.101 24.101 0 0 0 10.189-6.118.081.081 0 0 1 .06-.022c2.434.306 4.312.541 5.589.7l1.451.185c.328.044.502.071.502.071s-.152-.01-.474-.043c-.333-.033-.814-.088-1.436-.153-1.293-.142-3.192-.35-5.654-.618l.06-.022a24.159 24.159 0 0 1-10.227 6.233c-1.163.383-2.418.569-3.706.83-.655.06-1.32.12-1.997.186a7.13 7.13 0 0 1-1.026.039c-.344 0-.693-.006-1.048-.011a24.38 24.38 0 0 1-8.683-1.858 24.436 24.436 0 0 1-8.104-5.5c-2.39-2.453-4.394-5.512-5.573-9.003a24.814 24.814 0 0 1-1.14-11.187c.453-3.862 1.986-7.654 4.295-10.964.262-.42.584-.797.895-1.174l.939-1.137 1.037-1.038c.338-.35.682-.693 1.07-.988.376-.312.747-.617 1.118-.923.366-.317.791-.552 1.179-.83.404-.263.786-.552 1.2-.787.42-.224.841-.454 1.261-.678 3.373-1.753 7.068-2.67 10.675-2.726 3.608-.07 7.1.672 10.189 2.016a24.347 24.347 0 0 1 7.919 5.506 24.318 24.318 0 0 1 4.825 7.337c.584 1.267.922 2.578 1.288 3.835a24.43 24.43 0 0 1 .594 3.73 24.31 24.31 0 0 1-2.052 11.876l-.125-.076.011-.011a.072.072 0 0 1 .104-.01c.01.01.021.02.027.037.846 2.644 1.495 4.682 1.937 6.07.213.671.377 1.185.486 1.54.109.344.153.513.153.513l-.011-.005Z" fill="#022749"/><path d="m88.756 43.86 2.985-3.202 6.145 5.103 11.324-11.674 2.98 2.999-14.539 14.662-8.895-7.888Z" fill="#15A9F3"/><path d="M177.637 125.084c0 .076-1.43.114-3.182.082-1.757-.033-3.182-.126-3.182-.202 0-.077 1.425-.115 3.187-.082 1.758.032 3.182.125 3.177.202Z" fill="#022749"/><path d="M76.667 122.615s2.112 12.006 4.115 14.552c2.003 2.551 3.302 10.494 3.302 10.494l16.389-5.905-1.097-6.026.999-15.202s-5.605-9.369-5.392-9.046c.218.317-18.31 11.133-18.31 11.133h-.006Z" fill="#FFBF9D"/><path d="M84.073 147.683v-.017c-.016-.082-1.32-7.97-3.302-10.488-1.037-1.322-2.1-5.211-2.81-8.238a123.205 123.205 0 0 1-1.305-6.32v-.011h.006c.043-.027 4.639-2.709 9.168-5.408 7.92-4.714 9.13-5.599 9.136-5.703v-.022c.011-.005.017 0 .022.011v.011c.24.443 5.332 8.948 5.387 9.035v.006l-1 15.202 1.103 6.037h-.011l-16.405 5.916.011-.011Zm-7.39-25.063c.071.394 2.156 12.051 4.115 14.542 1.037 1.322 1.878 4.102 2.407 6.211.54 2.168.863 4.08.895 4.277l16.362-5.894-1.097-6.015.999-15.202c-.06-.104-1.392-2.327-2.702-4.523-.786-1.311-1.408-2.36-1.855-3.114-.268-.448-.47-.792-.612-1.027-.12-.202-.18-.306-.207-.355-.524.721-17.453 10.609-18.299 11.106l-.005-.006Z" fill="#FF9A6C"/><path d="M130.642 117.545s-8.465 2.6-9.774 11.521c-.606 4.124-6.784 42.172-6.784 42.172l-9.573-27.204-25.137 9.33s9.152 28.187 9.72 29.842c4.704 13.744 8.617 33.109 30 30.946 22.245-2.245 18.064-45.504 18.064-45.504l-6.521-51.103h.005Z" fill="#022749"/><path d="M217.381 8.51 66.008 138.694l1.29 1.504L218.673 10.013l-1.291-1.504Z" fill="#E0E0E0"/><path d="M67.297 140.204s.065-.076.196-.196c.131-.121.328-.301.584-.53.519-.459 1.288-1.136 2.292-2.027 2.014-1.759 4.983-4.348 8.803-7.68l32.341-28.051A41792.09 41792.09 0 0 1 218.29 9.581l-.06.825c-.404-.47-.846-.983-1.283-1.496h-.005l.824.054C138.424 77.193 73.071 133.092 66.046 138.746v-.082c.525.628.836 1.005 1.016 1.229.186.229.235.3.235.311 0 .011-.055-.043-.246-.251-.197-.219-.53-.59-1.086-1.213l-.038-.043.043-.039c6.637-6.096 71.696-62.35 151.032-130.579l.442-.382.382.442h.005c.442.52.879 1.033 1.283 1.503l.382.442-.442.382a41423.464 41423.464 0 0 1-107.415 92.062l-32.472 27.691c-3.826 3.239-6.795 5.757-8.809 7.462-1.004.841-1.768 1.48-2.286 1.911-.513.427-.775.634-.775.612Z" fill="#022749"/><path d="M94.524 102.528c.158.099 2.369 2.289 4.497 3.983 2.129 1.688 2.789 1.819 3.378 4.386.59 2.568 1.556 10.871 1.31 12.723-.245 1.857-6.582 13.897-6.582 13.897s-6.036 2.207-6.45-5.813c-.415-8.024 6.527-13.088 6.527-13.088l-.928-6.173s-3.362-3.212-3.744-5.79c-.376-2.573.78-4.868 1.992-4.125ZM81.115 118.299c-2.636-1.333-3.826.126-4.284.978-.459.852-.502 1.928-.257 2.846.24.918.743 1.699 1.294 2.387.764.951 1.724 1.786 2.86 1.868 1.135.077 2.51-1.344 2.652-2.698" fill="#FFBF9D"/><path d="M83.385 123.674s.011.066 0 .186c-.01.12-.043.3-.125.524a3.588 3.588 0 0 1-1.157 1.596c-.338.245-.764.508-1.299.508-.513-.006-1.042-.192-1.517-.487-.48-.3-.912-.704-1.305-1.158a8.448 8.448 0 0 1-1.075-1.524c-.616-1.131-.775-2.458-.42-3.54.355-1.076 1.19-1.868 2.041-2.043.852-.185 1.534.06 1.96.224.218.077.376.175.48.23.109.06.158.093.158.104-.01.021-.246-.088-.677-.23-.425-.131-1.097-.328-1.872-.131-.77.18-1.522.923-1.839 1.923-.316 1.01-.164 2.245.42 3.327.29.54.655 1.032 1.032 1.475.382.442.791.83 1.233 1.114.442.284.928.459 1.381.475.447.011.857-.207 1.179-.431a3.735 3.735 0 0 0 1.179-1.475c.18-.421.202-.678.229-.672l-.006.005Z" fill="#FF9A6C"/><path d="M84.564 113.071c-.726-.245-1.479-.442-2.243-.333-.764.109-1.55.585-1.937 1.393-.333.688-.339 1.508-.279 2.267.279 3.523 1.9 6.768 4.306 8.708.688.551 1.621.6 2.363.054.48-.355.95-.857 1.321-2.977" fill="#FFBF9D"/><path d="M88.095 122.188s0 .082-.016.235a7.123 7.123 0 0 1-.115.661c-.06.284-.142.634-.3 1.027-.147.383-.404.842-.851 1.147a2.02 2.02 0 0 1-1.703.339 2.164 2.164 0 0 1-.873-.47 10.746 10.746 0 0 1-.753-.677c-.983-.983-1.856-2.267-2.478-3.742-.633-1.475-.939-2.988-1.043-4.37-.049-.688-.021-1.377.197-1.978a2.551 2.551 0 0 1 1.108-1.338 2.76 2.76 0 0 1 1.375-.388c.426-.005.78.066 1.064.137.284.071.497.147.639.202.142.055.218.093.213.098-.006.022-.317-.082-.879-.196-.546-.104-1.446-.235-2.314.311a2.38 2.38 0 0 0-.988 1.246c-.19.557-.207 1.207-.158 1.879.115 1.354.42 2.835 1.042 4.277.612 1.442 1.457 2.698 2.407 3.671.24.24.48.464.726.672.235.213.497.355.775.431a1.804 1.804 0 0 0 1.523-.273c.42-.278.66-.677.824-1.043.163-.372.262-.71.338-.989.147-.557.213-.874.235-.869h.005Z" fill="#FF9A6C"/><path d="M89.35 110.395c-.79-.732-1.822-1.175-2.854-.962-1.031.213-2.008 1.186-2.188 2.409-.11.727.06 1.442.24 2.125a41.578 41.578 0 0 0 2.625 7.2c.267.557.557 1.131 1.015 1.469.731.552 1.768.372 2.532-.234.764-.607 1.283-1.486 1.6-3.273" fill="#FFBF9D"/><path d="M92.314 119.129s0 .088-.016.252a7.942 7.942 0 0 1-.137.71c-.076.306-.18.677-.37 1.087-.192.41-.481.852-.918 1.229-.43.371-1.031.694-1.735.677-.35-.005-.71-.12-1.015-.338-.306-.224-.535-.53-.726-.858-.704-1.322-1.332-2.819-1.91-4.43-.29-.803-.54-1.601-.77-2.376-.213-.776-.447-1.519-.54-2.273-.098-.754.054-1.519.42-2.092.36-.579.868-1 1.403-1.224a2.617 2.617 0 0 1 1.528-.142c.447.088.802.262 1.075.426.267.164.458.323.578.437.12.115.175.181.17.186-.017.022-.268-.229-.808-.524a3.495 3.495 0 0 0-1.048-.366 2.484 2.484 0 0 0-1.419.169 2.923 2.923 0 0 0-1.282 1.164c-.328.54-.464 1.229-.36 1.944.092.71.332 1.459.545 2.224.23.77.48 1.556.77 2.354.573 1.595 1.2 3.103 1.872 4.392.18.311.387.59.644.787.261.191.567.295.878.305.622.028 1.19-.251 1.6-.595.845-.699 1.129-1.611 1.315-2.19.174-.596.24-.94.261-.935h-.005Z" fill="#FF9A6C"/><path d="M95.223 111.099c.463 1.268.862 2.59.993 3.955.125 1.366-.087 2.819-.835 3.819-.748.999-2.09 1.409-3.084.699-.616-.443-1.015-1.218-1.342-1.989-.606-1.447-1.037-2.977-1.436-4.517-.201-.781-.403-1.579-.425-2.387-.022-.809.054-1.579.344-2.284.294-.726 1.839-1.966 3.263-.939 0 0 1.583 1.081 2.522 3.649v-.006Z" fill="#FFBF9D"/><path d="M95.223 111.099s-.175-.415-.557-1.12a8.987 8.987 0 0 0-.797-1.218c-.349-.437-.78-.95-1.37-1.316-.584-.377-1.43-.366-2.112.093-.332.218-.665.524-.835.89a4.682 4.682 0 0 0-.305 1.317c-.093.934.038 1.917.305 2.911.257 1 .535 2.038.874 3.081.349 1.033.698 2.059 1.227 2.923.268.42.612.792 1.037.977.426.192.906.203 1.332.06.884-.267 1.457-1.032 1.746-1.797.3-.77.377-1.562.377-2.272-.033-1.426-.36-2.562-.573-3.332-.11-.361-.197-.656-.267-.885-.06-.202-.093-.312-.082-.317.01 0 .054.098.136.295.082.196.191.491.322.874.246.765.606 1.895.666 3.359.016.727-.05 1.541-.355 2.36a3.8 3.8 0 0 1-.682 1.169c-.317.35-.726.645-1.206.792a2.13 2.13 0 0 1-1.523-.065c-.496-.219-.873-.634-1.162-1.076-.562-.913-.906-1.94-1.26-2.983a51.7 51.7 0 0 1-.874-3.103 11.441 11.441 0 0 1-.29-1.518 7.174 7.174 0 0 1 0-1.492c.05-.486.153-.956.334-1.387.212-.454.567-.76.938-.994a2.368 2.368 0 0 1 1.212-.383c.415-.011.813.115 1.13.317.627.415 1.042.934 1.391 1.393a8.397 8.397 0 0 1 1.135 2.12c.071.202.104.305.093.311l-.005.016Z" fill="#FF9A6C"/><path d="M96.276 112.443s.05.153.104.443c.06.333.136.748.224 1.256.185 1.131.43 2.655.72 4.458l.016.098-.098.038a7.593 7.593 0 0 0-2.117 1.213c-.677.541-1.288 1.223-1.84 1.988-1.992 2.518-2.363 5.479-2.505 7.517a15.074 15.074 0 0 0 .055 2.447c.06.574.153.885.12.89-.01 0-.038-.071-.082-.218a5.5 5.5 0 0 1-.153-.656 12.73 12.73 0 0 1-.141-2.469c.038-1.043.163-2.289.502-3.638.174-.672.392-1.371.747-2.054.355-.666.759-1.333 1.223-1.988.562-.781 1.195-1.481 1.894-2.038a7.68 7.68 0 0 1 2.204-1.234l-.082.136a13136.9 13136.9 0 0 0-.622-4.474c-.06-.508-.114-.928-.152-1.267-.033-.295-.044-.453-.028-.453l.011.005Z" fill="#FF9A6C"/><path d="M117.571 191.597s-.082-.279-.185-.792c-.104-.568-.24-1.295-.404-2.174-.338-1.89-.791-4.409-1.294-7.189a349.186 349.186 0 0 1-1.211-7.205 93.005 93.005 0 0 1-.317-2.191c-.065-.519-.092-.808-.076-.808.022 0 .082.278.186.792.103.568.24 1.294.403 2.174.339 1.89.792 4.408 1.294 7.189a340.31 340.31 0 0 1 1.211 7.205c.142.923.251 1.671.317 2.19.065.519.093.809.076.809Z" fill="#022749"/><path d="m80.678 152.878-2.45-8.353 22.769-7.232 2.079 7.188-22.398 8.397Z" fill="#E0E0E0"/><path d="M80.678 152.878s.038-.022.115-.055c.087-.033.196-.077.327-.131l1.261-.492c1.113-.426 2.696-1.032 4.677-1.797 3.984-1.513 9.556-3.627 15.969-6.058l-.082.169c-.66-2.278-1.364-4.692-2.085-7.183l.18.098c-.18.055-.371.12-.567.181l-22.218 7.008.066-.12c.731 2.584 1.326 4.66 1.74 6.113.197.71.355 1.267.464 1.671.05.18.088.328.12.437.028.099.039.153.039.159 0 0-.017-.039-.05-.132-.032-.109-.076-.245-.13-.415-.12-.393-.29-.939-.502-1.633l-1.861-6.14-.028-.093.093-.027c5.518-1.765 13.42-4.294 22.19-7.096.197-.06.388-.126.568-.18l.136-.044.039.142c.72 2.491 1.419 4.911 2.073 7.189l.033.125-.12.044c-6.467 2.398-12.088 4.479-16.105 5.971-1.976.726-3.564 1.305-4.672 1.71-.53.191-.944.338-1.244.447-.131.044-.235.082-.317.11a5.144 5.144 0 0 0-.103.033l-.006-.011Z" fill="#022749"/><path d="M114.084 171.232c4.208 7.697 6.112 16.929 6.211 25.702.011.765-.251 1.792-1.015 1.775-.688-.016-.961-.89-1.043-1.573-.982-8.281-3.176-17.617-4.153-25.898" fill="#022749" opacity=".3"/><path d="M276.936 46.301c-8.639-8.532-8.437-23.757-15.046-33.939-7.859-12.1-22.54-13.984-36.691-11.286a2.206 2.206 0 0 0-1.037.508l-45.887 39.96c-1.73 1.507-.3 4.32 1.938 3.818 9.872-2.19 22.321-1.743 28.936 5.238 6.729 7.102 11.973 26.833 17.425 35.043 8.651 13.023 18.49 22.059 35.938 23.408a2.194 2.194 0 0 0 1.725-.656l1.997-2.026c.044-.044.082-.088.12-.137 13.322-15.874 24.93-30.755 38.05-46.509 1.108-1.327.328-3.36-1.386-3.6-9.589-1.349-19.254-3.07-26.087-9.822h.005Z" fill="#15A9F3"/><path d="M238.968 84.813s-.016-.05-.038-.142c-.022-.115-.054-.257-.087-.431-.077-.4-.18-.956-.311-1.656-.066-.36-.137-.764-.219-1.202-.07-.442-.114-.923-.185-1.436-.115-1.033-.3-2.207-.355-3.518-.043-.656-.087-1.338-.131-2.054-.038-.716-.022-1.459-.038-2.229-.049-1.54.055-3.185.136-4.916.257-3.458.77-7.244 1.676-11.144a73.404 73.404 0 0 1 3.498-10.712c.704-1.584 1.348-3.103 2.085-4.458.36-.683.677-1.355 1.031-1.977.361-.617.704-1.213 1.037-1.776.633-1.147 1.327-2.114 1.894-2.982.289-.432.551-.841.808-1.202.267-.355.513-.677.731-.972.431-.569.775-1.016 1.021-1.344.109-.142.202-.252.273-.344a.53.53 0 0 1 .098-.11s-.022.05-.077.132c-.065.092-.147.213-.251.36-.234.333-.562.792-.977 1.371-.212.3-.453.628-.709.989-.251.366-.502.781-.786 1.213-.551.88-1.233 1.846-1.855 2.999-.322.568-.666 1.163-1.016 1.78-.349.623-.66 1.295-1.015 1.978-.726 1.355-1.353 2.873-2.052 4.452a75.835 75.835 0 0 0-3.465 10.68c-.901 3.883-1.419 7.653-1.692 11.094-.087 1.726-.202 3.365-.164 4.9.011.77-.016 1.508.022 2.223.038.71.076 1.393.109 2.049.038 1.306.213 2.48.311 3.512.06.514.099 1 .159 1.437.07.437.136.836.191 1.202.109.705.196 1.262.256 1.666.022.175.044.322.06.437a.633.633 0 0 1 .011.147l.016-.016Z" fill="#022749"/><path d="m288.828 74.407-11.853-6.49c-3.078-1.682-6.304-3.409-9.808-3.502-4.497-.12-8.83 2.683-10.985 6.638-2.156 3.955-2.244 8.865-.677 13.088 1.566 4.223 4.671 7.773 8.377 10.325 1.239.852 2.554 1.611 3.602 2.687 1.042 1.076 1.796 2.568 1.566 4.053l1.103.487 20.236-24.844-1.566-2.437.005-.005Z" fill="#022749" opacity=".3"/><path d="M228.168 3.278s-.104.125-.322.338c-.24.23-.562.547-.966.94-.846.808-2.074 1.972-3.613 3.392a511.4 511.4 0 0 1-12.17 10.904 511.896 511.896 0 0 1-12.509 10.515 329.371 329.371 0 0 1-3.864 3.098c-.447.344-.802.622-1.064.824-.246.186-.377.279-.382.273-.005-.005.115-.114.349-.316.257-.213.601-.503 1.032-.869.922-.765 2.216-1.84 3.809-3.168a824.722 824.722 0 0 0 12.454-10.576 825.308 825.308 0 0 0 12.22-10.838c1.533-1.387 2.783-2.518 3.672-3.327.421-.376.754-.677 1.005-.895.229-.203.354-.306.365-.3l-.016.005Z" fill="#022749"/><path d="m223.988 7.129-32.473 27.92c10.834-6.206 23.882-14.88 34.497-29.761-.163.18-1.861 1.666-2.024 1.846V7.13Z" fill="#022749" opacity=".3"/><path d="m209.208 155.844-12.388-59.04-4.841-7.692-32.156 10.396s-2.325 4.752-2.319 5.32l-12.356 8.456 5.07 65.088-4.371 20.064 1.697 44.881h69.239l-7.564-87.473h-.011Z" fill="#E0E0E0"/><path d="M154.142 106.647c-.813.541-23.969 11.117-23.969 11.117l5.987 95.126-4.421 30.575 19.396-.142s2.898-14.433 3.711-38.84c.813-24.401-.709-97.836-.709-97.836h.005ZM195.592 94.662s-2.822 101.84-1.201 108.893c1.627 7.052 9.185 39.768 9.185 39.768h41.996l-17.852-48.481 3.302-48.776-3.302-46.782-20.585-.541-11.538-4.075-.005-.006Z" fill="#022749"/><path d="M129.741 131.404s.017.071.033.208l.066.617c.049.557.12 1.355.213 2.371a875.118 875.118 0 0 1 1.588 21.697c.142 2.442.283 5.004.387 7.664.115 2.661.131 5.414.3 8.233.3 5.632.775 10.99 1.228 15.858.459 4.867.917 9.248 1.316 12.924.403 3.666.731 6.637.96 8.708.109 1.016.202 1.808.262 2.365.027.262.049.464.06.617.011.137.016.213.011.213 0 0-.016-.071-.038-.207-.022-.153-.055-.355-.088-.612-.076-.557-.18-1.349-.311-2.36-.262-2.054-.627-5.02-1.047-8.696a768.702 768.702 0 0 1-1.376-12.925c-.469-4.867-.949-10.226-1.25-15.869-.169-2.819-.185-5.577-.294-8.232a403.51 403.51 0 0 0-.371-7.659c-.279-4.884-.568-9.275-.819-12.968-.257-3.677-.464-6.659-.611-8.74l-.164-2.377c-.016-.262-.027-.464-.038-.617-.006-.142-.006-.213 0-.213h-.017ZM201.344 96.804s.022.038.06.12c.044.093.099.213.164.366.147.333.355.814.628 1.436.534 1.262 1.304 3.12 2.204 5.507a162.506 162.506 0 0 1 6.146 20.162l.027.115-.109.033c-1.163.36-2.429.748-3.722 1.147l-.011-.251c.873.207 1.67.71 2.276 1.387a6.314 6.314 0 0 1 1.32 2.398c.53 1.803.29 3.748-.109 5.605-.878 3.709-1.795 7.566-2.734 11.521-3.591 14.978-6.844 28.537-9.201 38.364-1.19 4.894-2.151 8.86-2.822 11.619-.338 1.36-.6 2.42-.78 3.157-.093.35-.159.623-.208.82-.049.185-.082.278-.082.278s.011-.098.055-.284c.044-.196.104-.469.18-.825.169-.737.415-1.802.731-3.168.65-2.759 1.583-6.735 2.735-11.641 2.335-9.833 5.561-23.396 9.119-38.38.939-3.955 1.856-7.806 2.74-11.516.398-1.841.633-3.742.125-5.468a6.013 6.013 0 0 0-1.26-2.294c-.579-.645-1.327-1.12-2.14-1.311l-.464-.109.459-.142 3.727-1.137-.087.148a167.735 167.735 0 0 0-6.042-20.168 190.336 190.336 0 0 0-2.139-5.528c-.256-.629-.453-1.11-.589-1.448-.06-.158-.109-.279-.148-.371-.032-.082-.049-.126-.043-.132l-.006-.01ZM153.252 203.549s-.016-.093-.038-.268c-.016-.191-.043-.447-.076-.786-.066-.705-.158-1.721-.278-3.026-.246-2.628-.606-6.43-1.092-11.122-.955-9.391-2.439-22.343-3.984-36.66-.404-3.824-.791-7.55-1.141-11.133-.169-1.781-.387-3.584.039-5.293a5.73 5.73 0 0 1 1.157-2.306c.551-.655 1.288-1.163 2.112-1.36l.049.257c-1.496.202-2.931.399-4.328.59l-.191.027.055-.186c2.297-7.533 4.207-13.82 5.555-18.239.677-2.191 1.212-3.917 1.578-5.108.185-.579.327-1.027.425-1.344.049-.142.088-.256.115-.344.027-.076.043-.115.043-.115s-.005.044-.027.121c-.022.087-.054.202-.093.349-.092.317-.223.77-.387 1.355-.355 1.196-.862 2.928-1.512 5.129a80606.69 80606.69 0 0 1-5.457 18.267l-.137-.158c1.392-.191 2.833-.393 4.323-.601l.049.257c-.764.18-1.447.655-1.97 1.278a5.46 5.46 0 0 0-1.097 2.202c-.41 1.649-.202 3.419-.028 5.205.366 3.579.753 7.304 1.146 11.128 1.545 14.318 2.997 27.275 3.902 36.671.459 4.698.792 8.5 1.005 11.133.098 1.305.174 2.327.223 3.031l.05.787c.01.18.005.268.005.268l.005-.006Z" fill="#022749"/><path d="m168.67 118.671 2.549 6.211h6.658l2.445-7.189-5.48-6.523-1.784.246-4.388 7.255Z" fill="#15A9F3"/><path d="M173.985 109.963s-.032.082-.114.224c-.098.164-.224.372-.371.623-.35.568-.819 1.344-1.397 2.294a235.04 235.04 0 0 0-4.59 7.894l-.104.191-.131-.175a118.914 118.914 0 0 1-1.795-2.48c-2.533-3.584-4.574-6.998-5.927-9.532a80.372 80.372 0 0 1-1.55-3.032c-.158-.339-.289-.617-.388-.841-.087-.192-.125-.295-.12-.301.011 0 .066.093.169.273.115.213.257.481.437.814.382.705.922 1.732 1.626 2.983a108.295 108.295 0 0 0 5.982 9.467c.6.857 1.206 1.682 1.79 2.48l-.235.016a165.203 165.203 0 0 1 4.677-7.855c.617-.967 1.119-1.732 1.474-2.256.164-.241.3-.437.409-.596.098-.136.148-.202.158-.196v.005ZM194.397 96.804s-.044.13-.153.371c-.126.262-.284.612-.486 1.043-.447.929-1.075 2.229-1.845 3.819l-6.177 12.542c-.983 1.977-1.932 3.878-2.795 5.621l-.082.169-.131-.131c-2.772-2.786-5.042-5.293-6.521-7.178a41.223 41.223 0 0 1-1.67-2.245c-.186-.267-.322-.48-.41-.622-.092-.143-.136-.219-.125-.224.005 0 .065.065.164.196.114.153.262.355.447.596.388.519.966 1.272 1.725 2.196 1.511 1.851 3.798 4.326 6.587 7.096l-.218.032c.862-1.748 1.806-3.649 2.783-5.626 2.434-4.873 4.639-9.281 6.249-12.51l1.926-3.774c.224-.426.399-.765.535-1.022.126-.23.197-.35.202-.35h-.005Z" fill="#022749"/><path d="M173.953 235.047c.404-.77 12.421-16.776 12.421-16.776l-8.661-91.893-3.76 108.674v-.005Z" fill="#022749" opacity=".3"/><path d="M171.344 124.882s-7.957 92.4-6.576 97.928l9.185 12.237 9.523-18.142c.208-.868-5.861-92.023-5.861-92.023h-6.271Z" fill="#15A9F3"/><path d="M207.304 212.814c0 .289 5.157 9.406 5.157 9.406l27.49-.147-6.096-9.33-26.551.071Z" fill="#022749"/><path d="M207.304 212.814s.038-.006.12-.011c.098 0 .218-.006.371-.011.349 0 .835-.011 1.457-.022 1.299-.011 3.16-.027 5.496-.055 4.737-.027 11.384-.065 19.107-.114h.071l.038.06c1.899 2.9 3.962 6.058 6.101 9.325l.142.218h-.524c-10.696.038-20.351.077-27.227.104h-.06l-.028-.049a446.578 446.578 0 0 1-3.793-6.889 79.047 79.047 0 0 1-.987-1.89 8.942 8.942 0 0 1-.235-.502c-.049-.126-.055-.186-.055-.181l.082.17c.066.12.153.284.262.486.246.442.59 1.065 1.032 1.863.922 1.628 2.237 3.955 3.874 6.844l-.087-.049 27.228-.191h.262l-.12.218c-2.134-3.272-4.192-6.429-6.091-9.335l.115.06c-7.685-.006-14.299-.011-19.014-.016-2.347-.011-4.224-.017-5.529-.022-.633-.006-1.13-.011-1.484-.011-.159 0-.29-.006-.388-.006-.087 0-.136 0-.136-.005v.011ZM178.417 115.464c.033.027-.377.546-1.037 1.382-.66.836-1.572 1.988-2.559 3.278-.988 1.289-1.856 2.474-2.489 3.337-.633.858-1.026 1.388-1.059 1.366-.033-.022.306-.59.895-1.48a64.97 64.97 0 0 1 2.429-3.393 64.108 64.108 0 0 1 2.63-3.234c.704-.803 1.163-1.278 1.19-1.251v-.005Z" fill="#022749"/><path d="M174.684 110.952s5.763 10.401 8.241 11.209c2.478.809 6.816-15.984 6.816-15.984l-6.92 13.608-8.137-8.833ZM195.592 196.022s12.972-42.412 15.739-54.354c2.767-11.941-.829-15.29-.829-15.29l2.559-1.551-7.678-17.694 5.048 17.295-3.722 1.142s2.925.218 3.689 4.523c.764 4.304-14.801 65.929-14.801 65.929h-.005Z" fill="#022749" opacity=".3"/><path d="M265.677 70.48s-1.44-1.388-3.984-.05c0 0-2.657 1.404-3.034 2.578-.376 1.175.213 2.77.71 3.955.491 1.186 3.427 5.572 3.427 5.572s0 3.687 2.467 7.571c2.466 3.89 6.609 3.999 7.395 6.807.786 2.808 1.069 3.649.611 5.577l-1.244 5.233 16.148 8.26s1.032-11.636.726-18.502c-.305-6.867-.316-13.755.115-15.984.431-2.223-.148-5.5-.841-5.845 0 0 1.889-4.676-.414-6.003-2.303-1.322-17.039-5.802-18.632-5.212-1.594.59-2.183 1.399-2.598 3.141-.415 1.743-.846 2.901-.846 2.901h-.006Z" fill="#FFBF9D"/><path d="M279.452 82.213s-.185-.159-.387-.563a1.948 1.948 0 0 1 .076-1.9l.033.12c-.606-.23-1.315-.492-2.112-.793l.131-.125c.191.53.393 1.114.617 1.731l-.028-.043c.235.24.459.513.644.819.18.317.317.688.311 1.082.011.792-.496 1.584-1.266 1.944a2.093 2.093 0 0 1-1.266.175 3.128 3.128 0 0 1-.617-.191c-.202-.071-.393-.158-.589-.246a10.562 10.562 0 0 1-2.238-1.387 8.67 8.67 0 0 1-1.293-1.273l.093.054c-1.01-.136-2.003-.491-2.713-1.169-.72-.666-1.08-1.59-1.108-2.48l.093.126c-.644-.202-1.222-.48-1.713-.863a2.649 2.649 0 0 1-.617-.672c-.148-.29-.175-.579-.191-.852-.038-1.093.125-2.016.245-2.78.131-.765.257-1.36.35-1.765.092-.404.158-.617.169-.617.011 0-.022.224-.093.633-.071.41-.175 1.005-.278 1.77-.099.76-.235 1.694-.186 2.743.017.256.06.53.175.748.142.224.344.426.567.606.459.35 1.032.617 1.638.803l.087.028v.098c.033.792.377 1.671 1.042 2.272.655.623 1.589.956 2.56 1.087h.055l.038.055c.349.437.786.847 1.244 1.224.682.551 1.414 1.01 2.178 1.354.191.088.382.17.573.246.191.082.382.137.567.18.377.072.77.011 1.108-.147.677-.311 1.135-1.016 1.13-1.704 0-.694-.431-1.279-.868-1.743l-.016-.022v-.022c-.219-.622-.415-1.207-.595-1.742l-.071-.208.202.082c.786.317 1.49.596 2.095.836l.088.038-.055.082a1.795 1.795 0 0 0-.289 1c0 .311.082.573.164.775.174.4.333.585.311.596h.005Z" fill="#FF9A6C"/><path d="M284.577 74.068s-.284-.022-.786-.115c-.551-.109-1.266-.251-2.117-.415l-3.133-.655c-.589-.126-1.206-.257-1.85-.4-.639-.136-1.299-.305-1.954-.218-.66.071-1.168.53-1.473 1.082-.312.552-.481 1.163-.65 1.737-.316 1.153-.486 2.223-.611 3.125-.12.901-.197 1.633-.251 2.141-.06.508-.098.787-.115.787-.022 0-.016-.284.006-.792.027-.508.065-1.246.163-2.158.099-.907.246-1.994.557-3.168.164-.585.327-1.208.66-1.803.17-.295.382-.585.666-.809.284-.229.644-.371 1.004-.42.737-.099 1.419.093 2.052.23l1.845.409c1.163.268 2.216.508 3.122.715.846.203 1.55.372 2.095.509.497.125.764.202.759.224l.011-.006Z" fill="#FF9A6C"/><path d="M282.001 70.703s-.289-.038-.802-.158c-.562-.137-1.294-.312-2.167-.525a73.776 73.776 0 0 0-3.231-.704 30.655 30.655 0 0 0-1.921-.312c-.66-.076-1.364-.104-2.014.12-.649.224-1.167.7-1.544 1.235-.382.54-.644 1.136-.862 1.71a27.194 27.194 0 0 0-.939 3.157 34.899 34.899 0 0 0-.431 2.185c-.087.52-.131.809-.153.809-.016 0-.011-.295.038-.82a24.044 24.044 0 0 1 1.234-5.419c.212-.59.48-1.207.878-1.78.393-.569.961-1.093 1.681-1.344.721-.246 1.463-.213 2.14-.131.682.087 1.32.213 1.937.333 1.228.246 2.314.524 3.225.765.912.245 1.643.458 2.151.611.502.153.78.252.775.268h.005ZM288.162 72.484c-.054.065-.84-.535-1.97-.934-1.129-.41-2.117-.443-2.117-.53-.011-.071 1.026-.17 2.21.262 1.184.42 1.927 1.153 1.877 1.202Z" fill="#FF9A6C"/><path d="M273.896 66.568s-.218.016-.616 0c-.393-.011-.961-.044-1.659.01-.688.055-1.523.214-2.287.7-.382.24-.726.568-.977.983-.256.415-.431.902-.562 1.415-.502 2.081-.819 4.004-1.032 5.397-.092.65-.174 1.202-.24 1.65-.054.388-.092.606-.114.606-.017 0-.017-.218 0-.617.022-.393.071-.967.153-1.666.163-1.404.453-3.338.955-5.44.136-.525.322-1.044.6-1.492a3.263 3.263 0 0 1 1.075-1.06c.83-.508 1.708-.645 2.412-.677a10.72 10.72 0 0 1 1.676.076c.393.05.606.087.606.104l.01.01ZM281.641 68.54c-.022.076-.884-.077-1.932-.344-1.048-.268-1.878-.547-1.861-.623.021-.076.884.076 1.932.344 1.047.268 1.877.546 1.861.623ZM267.953 78.859c.028.082-1.135.398-2.286 1.278-1.163.869-1.774 1.906-1.851 1.857-.065-.022.464-1.169 1.681-2.08 1.206-.924 2.456-1.12 2.456-1.055ZM265.601 76.499c.016.027-.18.218-.573.431a3.45 3.45 0 0 1-1.692.405c-.693-.017-1.282-.219-1.686-.388-.404-.18-.633-.328-.617-.36.033-.105 1.021.414 2.309.464 1.298.027 2.215-.645 2.259-.552ZM282.045 83.551c0 .06-.934.017-2.374.377-1.43.35-3.368 1.207-4.95 2.824-1.583 1.623-2.396 3.578-2.718 5.015-.333 1.448-.268 2.387-.328 2.382-.016 0-.043-.23-.049-.65 0-.421.038-1.033.18-1.776.273-1.475 1.081-3.501 2.713-5.173a10.37 10.37 0 0 1 5.108-2.824 9.202 9.202 0 0 1 1.768-.219c.42-.005.655.017.65.033v.011ZM284.642 99.584c.006.033-.54.186-1.446.284-.906.098-2.183.098-3.564-.147a13.243 13.243 0 0 1-3.389-1.11c-.818-.409-1.277-.748-1.255-.77.022-.038.513.235 1.343.59.824.356 2.003.77 3.356 1.017 1.348.24 2.598.273 3.498.224.901-.044 1.457-.132 1.463-.082l-.006-.006Z" fill="#FF9A6C"/><path d="M264.782 131.502 238.27 111.05s-5.01-11.865-10.55-11.772v48.268l24.357 14.569c2.063 1.448 11.587 7.249 20.515 8.904 4.852.901 11.832-1.038 14.392-5.26.736-1.219 2.859-6.501 3.05-8.047.77-6.184 2.287-53.354 2.287-53.354l-26.523-5.107-1.01 32.251h-.006Z" fill="#022749"/><path d="M267.942 161.263s-.076-.082-.207-.257c-.142-.202-.327-.453-.551-.765l-.393-.557c-.136-.207-.267-.448-.42-.694-.29-.502-.655-1.059-.966-1.726-.164-.328-.339-.672-.513-1.032-.175-.361-.322-.754-.491-1.147-.355-.787-.634-1.672-.945-2.59a33.772 33.772 0 0 1-1.244-6.189 34.15 34.15 0 0 1 .033-6.315c.131-.961.229-1.884.426-2.726.092-.42.158-.835.261-1.223.104-.388.208-.76.306-1.109.175-.716.426-1.333.617-1.885.098-.273.185-.53.278-.765.098-.224.191-.431.278-.622.159-.35.29-.634.393-.858.093-.197.148-.295.153-.289.011 0-.027.114-.103.316-.088.23-.202.519-.344.88-.077.191-.164.404-.251.628-.088.235-.164.492-.257.765-.174.552-.409 1.169-.573 1.884-.093.356-.185.727-.289 1.109-.098.388-.158.798-.24 1.219-.186.835-.279 1.753-.399 2.709a34.718 34.718 0 0 0-.011 6.26c.23 2.213.677 4.294 1.212 6.14.3.912.568 1.792.911 2.579.164.393.301.786.47 1.147.169.36.338.704.496 1.032.295.667.644 1.229.923 1.737.142.252.267.492.398.705.131.208.257.393.371.568.208.322.371.59.502.798.115.185.169.284.159.289l.01-.016ZM233.151 113.284v.213l-.028.618c-.032.557-.076 1.36-.131 2.376-.125 2.081-.311 5.064-.535 8.74-.48 7.391-1.146 17.579-1.877 28.832l-1.959 28.832c-.262 3.676-.48 6.659-.628 8.735-.082 1.016-.142 1.813-.185 2.376-.022.262-.044.464-.055.617-.016.137-.022.208-.027.208-.006 0 0-.071 0-.213.005-.153.016-.361.027-.618.033-.557.077-1.36.131-2.376.126-2.081.311-5.064.535-8.74.48-7.391 1.146-17.584 1.877-28.837.764-11.253 1.457-21.436 1.96-28.827.262-3.676.48-6.659.627-8.735.082-1.016.142-1.813.186-2.376.022-.262.043-.464.054-.617.017-.137.022-.208.028-.208Z" fill="#022749"/><path d="M264.859 155.199c-1.643-3.955-2.041-5.566-2.538-9.319-.496-3.758.202-9.467 1.654-12.968-4.836 6.926-6.358 16.792-3.105 24.587.414.994 1.086 2.098 2.155 2.169.939.06 1.747-.771 1.987-1.677.24-.907.202-1.918-.159-2.786l.006-.006Z" fill="#022749" opacity=".3"/><path d="M193.065 69.26c1.861-5.5 3.701-11.05 4.59-16.791.89-5.742.786-11.74-1.168-17.213-.294-.83-2.843-6.402-3.716-6.326-.628.055.922 5.239.595 5.78-3.084 5.156-3.984 11.39-3.575 17.382.409 5.992 1.588 11.395 3.274 17.163" fill="#022749"/><path d="m172.087 19.78-1.348.055c-13.551.563-24.407 11.439-24.936 25.002-.497 12.62-.879 26.57-.518 33.317.747 13.963 14.8 15.558 14.8 15.558.033 0 .06 5.888.06 5.888l13.901 9.26 18.261-19.655 1.61-42.106c.649-14.558-7.27-27.073-21.825-27.319h-.005Z" fill="#FFBF9D"/><path d="M160.085 93.717s8.82.153 17.95-6.129c0 0-3.94 10.685-17.917 10.002l-.033-3.873Z" fill="#FF9A6C"/><path d="M152.238 56.506c.005 1.054.906 1.917 2.002 1.933 1.097.011 1.987-.83 1.982-1.884-.006-1.054-.906-1.923-2.003-1.934-1.103-.01-1.987.83-1.981 1.885ZM149.023 50.89c.257.251 1.719-.929 3.87-1.016 2.139-.115 3.76.923 3.984.655.109-.12-.164-.579-.868-1.054-.693-.47-1.867-.907-3.204-.846-1.337.065-2.439.6-3.067 1.13-.638.536-.84 1.016-.715 1.126v.005ZM171.492 56.506c.005 1.054.906 1.917 2.003 1.933 1.097.017 1.986-.83 1.981-1.884-.006-1.054-.906-1.923-2.003-1.934-1.103-.016-1.987.83-1.981 1.885ZM170.067 50.519c.257.25 1.725-.93 3.87-1.017 2.139-.114 3.76.924 3.984.656.109-.12-.159-.579-.868-1.049-.693-.47-1.867-.907-3.204-.846-1.337.065-2.439.6-3.067 1.13-.638.536-.84 1.016-.715 1.126ZM163.054 67.333c0-.12-1.337-.3-3.509-.487-.551-.032-1.075-.12-1.179-.491-.147-.394.06-.989.301-1.639.458-1.35.944-2.759 1.446-4.24 2.003-6.035 3.433-10.99 3.187-11.066-.246-.077-2.068 4.752-4.071 10.788-.481 1.486-.939 2.907-1.381 4.267-.18.633-.508 1.354-.197 2.163.164.404.579.683.934.765.354.093.666.087.933.093 2.178.027 3.526-.017 3.531-.142l.005-.011ZM169.096 43.832c.316.536 2.374-.125 4.901-.284 2.527-.213 4.66.148 4.895-.431.098-.273-.349-.749-1.255-1.158-.901-.41-2.276-.7-3.793-.59-1.517.114-2.833.6-3.668 1.136-.84.535-1.217 1.07-1.075 1.327h-.005ZM148.663 44.58c.458.476 2.194-.076 4.295-.158 2.096-.142 3.891.224 4.284-.295.175-.251-.12-.732-.911-1.174-.781-.443-2.069-.781-3.515-.705-1.441.077-2.68.552-3.4 1.07-.731.52-.96 1.033-.759 1.263h.006Z" fill="#022749"/><path d="M193.196 57.494c.235-.114 9.475-3.234 9.562 6.326.087 9.565-9.524 7.68-9.54 7.407-.016-.273-.022-13.733-.022-13.733Z" fill="#FFBF9D"/><path d="M196.105 67.578c.044-.032.169.115.447.24a1.65 1.65 0 0 0 1.245.017c1.004-.382 1.839-1.994 1.872-3.714a5.569 5.569 0 0 0-.486-2.382c-.3-.7-.753-1.18-1.266-1.267a.845.845 0 0 0-.977.464c-.126.267-.066.459-.115.475-.027.022-.207-.158-.131-.552.039-.19.148-.415.371-.6.23-.192.563-.29.917-.252.737.044 1.408.716 1.752 1.464.388.754.622 1.683.601 2.66-.044 1.929-1.01 3.742-2.391 4.152-.671.18-1.233-.016-1.522-.24-.301-.235-.35-.448-.317-.465Z" fill="#FF9A6C"/><path d="M151.976 28.996c-1.545-.852 3.089-5.867 6.892-7.599 5.742-2.611 14.512-4.222 19.811-2.72 6.375 1.808 11.674 4.976 14.877 10.783 3.204 5.807 4.41 12.575 4.23 19.207-.055 2.02-.262 4.13-1.342 5.845-1.332 2.114-3.892 3.447-3.783 6.364.044 1.065-.262 2.141-.993 2.922-1.746 1.863-3.886.115-4.873-1.639-2.102-3.747-2.342-8.215-2.527-12.509-.131-3.048-.257-6.167.6-9.095.464-1.595 1.217-3.103 1.594-4.72.376-1.617.327-3.452-.682-4.774-.164-.213-.437-.487-.775-.787a9.966 9.966 0 0 0-9.889-1.88c-5.382 1.907-14.567 4.759-16.968 2.934-3.455-2.627-4.279-4.343-4.279-4.343l-1.899 2.01h.006ZM169.794 68.66c-.327-.022-.343 2.174-2.226 3.725-1.883 1.557-4.219 1.3-4.241 1.606-.032.137.519.427 1.507.46.966.038 2.385-.268 3.536-1.219 1.152-.95 1.648-2.223 1.725-3.124.087-.918-.153-1.464-.306-1.454l.005.006Z" fill="#022749"/><path d="M211.788 139.895v9.511l2.958-10.692" fill="#fff"/><path d="m223.487 135.001-10.821.139a.048.048 0 0 0-.028.006.064.064 0 0 0-.024.02l-.809.935a.037.037 0 0 0-.005.011.024.024 0 0 0 0 .012.088.088 0 0 0 .006.01c.003.002.006.003.009.002l6.38-.129c.011-.003.021.001.03.009a.055.055 0 0 1 .016.036.061.061 0 0 1-.007.04c-.006.012-.015.02-.026.022l-8.329 2.222c-.003.001-.006.002-.008.005l-2.852 3.302a.113.113 0 0 0-.007.115.07.07 0 0 0 .036.036.054.054 0 0 0 .046-.004l16.419-6.616a.078.078 0 0 0 .038-.04.121.121 0 0 0 .008-.063.095.095 0 0 0-.026-.054.052.052 0 0 0-.046-.016Z" fill="#fff"/><path d="M211.802 136.12v1.703l7.054-1.885-7.054.182Z" fill="#fff"/></g><defs><clipPath id="a"><path fill="#fff" d="M0 0h377v244H0z"/></clipPath></defs></svg>