<svg width="235" height="216" fill="none" xmlns="http://www.w3.org/2000/svg"><g clip-path="url(#a)"><path d="M26.6 50.134c.11 0 .206 5.251.206 11.729 0 6.477-.09 11.733-.206 11.733-.117 0-.207-5.251-.207-11.733 0-6.483.09-11.729.207-11.729ZM29.78 52.714c.111 0 .207 4.01.207 8.955 0 4.946-.09 8.956-.207 8.956-.116 0-.206-4.01-.206-8.956s.09-8.955.206-8.955ZM33.356 55.273c.112 0 .207 2.906.207 6.488 0 3.582-.09 6.487-.207 6.487-.116 0-.206-2.905-.206-6.487 0-3.582.09-6.488.206-6.488ZM36.479 57.477c.11 0 .206 1.618.206 3.617 0 2-.09 3.618-.206 3.618-.117 0-.207-1.618-.207-3.618 0-2 .09-3.617.207-3.617ZM39.23 59.242c.112 0 .207.89.207 1.985 0 1.094-.09 1.984-.206 1.984-.117 0-.207-.89-.207-1.984 0-1.094.09-1.985.206-1.985ZM42.352 57.125c.112 0 .207 1.618.207 3.618 0 2-.09 3.618-.207 3.618-.116 0-.206-1.618-.206-3.618 0-2 .09-3.618.206-3.618ZM45.29 54.215c.11 0 .206 3.043.206 6.793s-.09 6.792-.207 6.792c-.116 0-.206-3.042-.206-6.792s.09-6.793.206-6.793ZM8.054 55.273c.11 0 .206 2.906.206 6.488 0 3.582-.09 6.487-.206 6.487-.117 0-.207-2.905-.207-6.487 0-3.582.09-6.488.207-6.488ZM11.17 57.477c.111 0 .207 1.618.207 3.617 0 2-.09 3.618-.207 3.618-.116 0-.206-1.618-.206-3.618 0-2 .09-3.617.206-3.617ZM13.927 59.242c.111 0 .206.89.206 1.985 0 1.094-.09 1.984-.206 1.984-.116 0-.206-.89-.206-1.984 0-1.094.09-1.985.206-1.985ZM17.044 56.067c.111 0 .206 2.096.206 4.676s-.09 4.676-.206 4.676c-.116 0-.206-2.091-.206-4.676s.09-4.676.206-4.676ZM19.98 54.215c.112 0 .207 3.043.207 6.793s-.09 6.792-.207 6.792c-.116 0-.206-3.042-.206-6.792s.09-6.793.206-6.793ZM23.557 52.8c.112 0 .207 3.873.207 8.645 0 4.773-.09 8.65-.207 8.65-.116 0-.206-3.872-.206-8.65 0-4.778.09-8.645.206-8.645ZM4.715 64.36c-.111 0-.206-1.617-.206-3.617s.09-3.618.206-3.618c.116 0 .206 1.618.206 3.618 0 2-.09 3.618-.206 3.618ZM1.963 62.595c-.111 0-.206-.89-.206-1.984 0-1.094.09-1.984.206-1.984.116 0 .206.89.206 1.984 0 1.094-.09 1.984-.206 1.984ZM48.163 57.125c.111 0 .207 1.618.207 3.618 0 2-.09 3.618-.207 3.618-.116 0-.206-1.618-.206-3.618 0-2 .09-3.618.206-3.618ZM50.915 58.891c.111 0 .206.89.206 1.985 0 1.093-.09 1.984-.206 1.984-.116 0-.206-.89-.206-1.984 0-1.094.09-1.985.206-1.985ZM197.219 67.551c.169 0 .307 7.943.307 17.733 0 9.79-.138 17.737-.307 17.737-.17 0-.307-7.938-.307-17.737 0-9.8.137-17.733.307-17.733ZM202.023 71.444c.17 0 .307 6.06.307 13.54 0 7.48-.137 13.54-.307 13.54-.169 0-.306-6.06-.306-13.54 0-7.48.137-13.54.306-13.54ZM207.432 75.316c.169 0 .307 4.39.307 9.805 0 5.414-.138 9.805-.307 9.805-.17 0-.307-4.391-.307-9.805s.137-9.805.307-9.805ZM212.151 78.649c.17 0 .307 2.447.307 5.47 0 3.022-.137 5.47-.307 5.47-.169 0-.307-2.448-.307-5.47 0-3.023.138-5.47.307-5.47ZM216.31 81.315c.17 0 .307 1.343.307 3.002 0 1.659-.137 3.002-.307 3.002-.169 0-.307-1.343-.307-3.002 0-1.659.138-3.002.307-3.002ZM221.031 78.114c.169 0 .306 2.448.306 5.47 0 3.023-.137 5.47-.306 5.47-.17 0-.307-2.447-.307-5.47 0-3.022.137-5.47.307-5.47ZM225.47 73.713c.169 0 .307 4.6.307 10.273s-.138 10.273-.307 10.273c-.169 0-.307-4.6-.307-10.273s.138-10.273.307-10.273ZM169.174 75.316c.169 0 .307 4.391.307 9.805s-.138 9.805-.307 9.805c-.169 0-.307-4.391-.307-9.805s.138-9.805.307-9.805ZM173.894 78.649c.169 0 .306 2.447.306 5.47 0 3.022-.137 5.47-.306 5.47-.17 0-.307-2.448-.307-5.47 0-3.023.137-5.47.307-5.47ZM178.053 81.315c.169 0 .307 1.343.307 3.002 0 1.659-.138 3.002-.307 3.002-.17 0-.307-1.343-.307-3.002 0-1.659.137-3.002.307-3.002ZM182.773 76.517c.169 0 .307 3.165.307 7.067 0 3.903-.138 7.073-.307 7.073-.17 0-.307-3.165-.307-7.073 0-3.908.137-7.067.307-7.067ZM187.212 73.713c.169 0 .307 4.6.307 10.273s-.138 10.273-.307 10.273c-.169 0-.307-4.6-.307-10.273s.138-10.273.307-10.273ZM192.62 71.581c.169 0 .307 5.852.307 13.072 0 7.22-.138 13.071-.307 13.071-.169 0-.307-5.851-.307-13.071s.138-13.072.307-13.072ZM164.136 89.054c-.17 0-.307-2.447-.307-5.47 0-3.022.137-5.47.307-5.47.169 0 .307 2.448.307 5.47 0 3.023-.138 5.47-.307 5.47ZM159.972 86.388c-.17 0-.307-1.344-.307-3.002 0-1.659.137-3.002.307-3.002.169 0 .307 1.343.307 3.002 0 1.659-.138 3.002-.307 3.002ZM229.814 78.114c.17 0 .307 2.448.307 5.47 0 3.023-.137 5.47-.307 5.47-.169 0-.306-2.447-.306-5.47 0-3.022.137-5.47.306-5.47ZM233.974 80.786c.169 0 .307 1.343.307 3.002 0 1.659-.138 3.002-.307 3.002-.17 0-.307-1.344-.307-3.002 0-1.66.137-3.002.307-3.002Z" fill="#E0E0E0"/><path d="M207.786 36.325c-4.73 0-8.561-3.684-8.561-8.233V18.42c0-4.549 3.831-8.232 8.561-8.232 4.731 0 8.562 3.684 8.562 8.232v9.673c0 4.549-3.831 8.233-8.562 8.233Z" fill="#EBEBEB"/><path d="M207.787 41.342c-6.969 0-12.642-5.45-12.642-12.156h1.223c0 6.05 5.122 10.975 11.413 10.975 6.721-.005 11.414-4.518 11.414-10.975h1.222c0 7.149-5.196 12.146-12.636 12.156h.006Z" fill="#EBEBEB"/><path d="M208.395 40.741h-1.222v5.954h1.222V40.74Z" fill="#EBEBEB"/><path d="M215.258 45.845h-14.949v1.175h14.949v-1.175ZM195.166 15.575c-.45 0-1.132-.234-2.212-.677-1.825-.748-2.434-1.124-2.217-1.75l.085-.244.285-.143c.641-.274 2.26.362 2.577.494.318.127 1.921.809 2.154 1.445l.09.244-.122.28c-.132.24-.328.351-.635.351h-.005ZM200.055 9.408c-.386 0-.979-.417-2.212-2.025-1.46-1.903-1.386-2.366-1.36-2.519l.037-.239.429-.325.291.03c.159.026.64.092 2.101 2 1.709 2.228 1.508 2.65 1.1 2.94-.116.082-.233.148-.386.148v-.01ZM207.596 7.185l-.233-.194c-.116-.107-.465-.427-.439-2.671.026-2.244.386-2.56.503-2.661l.196-.173h.306c.376.03.889.071.858 2.854-.032 2.783-.545 2.814-.921 2.834l-.265.016-.005-.005ZM215.105 8.782l-.254-.198c-.54-.478-.053-1.15 1-2.504 1.058-1.348 1.593-1.984 2.228-1.618l.238.133.084.31c.148.697-.936 2.101-1.058 2.26-.122.157-1.222 1.54-1.958 1.602l-.275.02-.005-.005ZM220.644 15.483c-.338 0-.481-.152-.587-.335-.328-.555.307-1.028.609-1.257a12.28 12.28 0 0 1 1.391-.87c2.27-1.242 2.688-.962 2.921-.57.328.554-.307 1.028-.608 1.257-.355.264-.852.575-1.392.87-1.238.677-1.926.905-2.334.905ZM28.558 171.249c2.466-1.221 5.371-1.384 8.107-.946 1.47.234 3.005.656 4.005 1.719 1 1.064 1.19 2.931.043 3.842-.683.545-1.64.626-2.524.616-2.144-.026-4.52-.387-6.234.855-.979.707-1.624 1.882-2.794 2.228-1.143.341-2.434-.31-3.037-1.297-.603-.992-.624-2.229-.344-3.348 0 0 .296-2.438 2.783-3.669h-.005ZM22.912 160.767c1.508 2.071 4.44 1.384 5.794.122 1.36-1.261 1.931-3.093 2.455-4.844 1.196-3.989 2.397-8.176 1.508-12.242-.264-1.216-.735-2.427-1.624-3.327-.889-.901-2.254-1.44-3.503-1.12-1.476.377-2.397 1.766-3.059 3.089a28.242 28.242 0 0 0-3 12.522c-.005 2.015.238 4.131 1.424 5.795M18.769 163.734c1.635-1.868 1.947-4.595 1.217-6.935-.73-2.341-2.376-4.331-4.27-5.959a23.17 23.17 0 0 0-7.647-4.34c-1.105-.371-2.27-.667-3.439-.56-1.17.107-2.344.682-2.884 1.679-.804 1.476-.032 3.267.8 4.727a56.133 56.133 0 0 0 5.02 7.353c1.504 1.867 3.229 3.709 5.525 4.549 2.297.844 4.678.743 5.895-.784" fill="#EBEBEB"/><path d="M22.811 191.999c.027 0 .075-.336.138-.941.069-.687.159-1.547.26-2.57.126-1.079.29-2.366.603-3.765.312-1.394.799-2.911 1.423-4.447.646-1.527 1.44-2.911 2.36-4.02.915-1.114 1.984-1.918 2.984-2.386 1-.474 1.895-.667 2.514-.754.624-.061.973-.106.973-.137 0-.025-.349-.03-.989-.015a7.799 7.799 0 0 0-2.62.656c-1.058.453-2.185 1.267-3.148 2.407-.968 1.135-1.788 2.549-2.444 4.101-.635 1.562-1.117 3.089-1.413 4.518a29.888 29.888 0 0 0-.519 3.811 49.52 49.52 0 0 0-.132 2.585c-.016.611-.005.947.021.952l-.01.005Z" fill="#E0E0E0"/><path d="M22.991 190.02s.021-.153.026-.438v-1.247c0-1.083 0-2.651.059-4.589.1-3.872.444-8.04 1.116-13.917.635-5.525 1.487-11.952 2.381-16.134.19-.952.387-1.807.572-2.555.175-.753.323-1.399.465-1.923l.302-1.211c.064-.28.095-.427.08-.432-.016 0-.07.137-.16.407-.1.315-.222.712-.375 1.195-.17.519-.339 1.16-.534 1.908a52.388 52.388 0 0 0-.63 2.55c-.889 3.785-1.83 9.082-2.508 14.969-.672 5.887-.974 11.25-1 15.127a79.368 79.368 0 0 0 .069 4.595c.031.509.058.921.079 1.247.021.285.042.432.053.432l.005.016Z" fill="#E0E0E0"/><path d="M23.018 179.685c.026 0 .021-.463-.01-1.302-.048-.84-.17-2.051-.413-3.531a44.962 44.962 0 0 0-1.196-5.15c-.249-.875-.831-2.966-2.239-6.09-1.857-4.234-4.381-7.699-6.572-9.846-.513-.57-1.09-.982-1.545-1.384-.238-.193-.444-.387-.661-.539l-.598-.397c-.72-.473-1.127-.728-1.143-.702-.064.086 1.62 1.038 3.741 3.21 2.117 2.168 4.566 5.607 6.408 9.81a47.063 47.063 0 0 1 2.249 6.035 49.757 49.757 0 0 1 1.27 5.098c.28 1.471.444 2.667.54 3.501.079.829.137 1.292.164 1.292l.005-.005ZM12.626 197.922l1.08 14.191h18.959l1.079-14.191H12.626ZM36.003 192.324H10.795v5.592h25.208v-5.592Z" fill="#E0E0E0"/><path d="M10.795 211.573v1.547H35.59v-1.547H10.796Z" fill="#EBEBEB"/><path d="m13.144 215.852-1.164-2.732h22.706l-1.355 2.732H13.144Z" fill="#E0E0E0"/><path d="M33.395 202.557s-.027.046-.09.132c-.075.097-.17.214-.286.361-.27.331-.64.789-1.106 1.359l-.048.061-.047-.061c-.694-.921-1.62-2.157-2.715-3.608h.159c-.81 1.1-1.704 2.326-2.672 3.639l-.085.111-.095-.106c-.984-1.13-2.059-2.356-3.17-3.623h.185c-.053.066-.116.137-.174.208l-2.831 3.415-.095.112-.085-.117c-.963-1.308-1.863-2.534-2.672-3.639h.153a1217.838 1217.838 0 0 1-3.291 3.613l-.058.066-.043-.071c-.434-.702-.777-1.262-1.032-1.664-.105-.183-.195-.325-.264-.443-.058-.101-.085-.152-.08-.157 0 0 .043.046.112.142.079.112.174.255.29.428.265.397.625.946 1.08 1.633l-.1-.01c.841-.952 1.942-2.188 3.238-3.648l.08-.092.074.102c.82 1.099 1.724 2.32 2.698 3.623h-.18c.9-1.089 1.847-2.239 2.826-3.425.058-.071.122-.142.174-.208l.09-.107.09.107c1.112 1.272 2.175 2.503 3.16 3.633h-.18c.973-1.303 1.883-2.519 2.698-3.613l.08-.107.079.107c1.069 1.47 1.979 2.717 2.656 3.648h-.095c.481-.56.868-1.002 1.148-1.328.127-.137.228-.249.307-.341a.644.644 0 0 1 .117-.112v-.02ZM34.009 197.825c0 .061-4.752.112-10.61.112s-10.61-.051-10.61-.112c0-.061 4.752-.112 10.61-.112s10.61.051 10.61.112ZM34.966 213.273c0 .061-5.165.112-11.53.112-6.366 0-11.536-.051-11.536-.112 0-.061 5.165-.112 11.536-.112 6.37 0 11.53.051 11.53.112Z" fill="#F5F5F5"/><path d="M162.58 215.852H86.77c-9.16-.04-16.902-7.551-16.865-16.358l.81-183.603C70.752 7.073 78.213-.041 87.378 0l76.16.336c9.16.04 16.552 7.21 16.515 16.023l-.81 183.603c-.037 8.813-7.503 15.926-16.668 15.885l.005.005Z" fill="#022749"/><path d="m163.432 8.05-14.768-.067c-1.979-.01-3.593 1.598-3.604 3.588l-.01 2.574c-.011 1.99-1.619 3.598-3.604 3.587l-28.785-.127c-1.979-.01-3.577-1.628-3.572-3.623l.01-2.574a3.596 3.596 0 0 0-3.571-3.623l-5.191-.025-12.922-.056c-6.419-.031-11.647 4.95-11.673 11.127l-.788 179.213c-.027 6.172 5.148 11.194 11.567 11.219l76.012.336c6.418.031 11.646-4.951 11.673-11.123l.788-179.212c.027-6.167-5.148-11.189-11.567-11.22l.005.006Z" fill="#E0E0E0"/><path d="m163.433 8.05-14.769-.067c-1.979-.01-3.593 1.598-3.603 3.588l-.011 2.574c-.01 1.99-1.619 3.598-3.603 3.587l-28.786-.127c-1.979-.01-3.577-1.628-3.572-3.623l.011-2.574a3.598 3.598 0 0 0-3.572-3.623l-5.191-.025-12.922-.056c-6.418-.031-11.646 4.95-11.673 11.127l-.1 23.04h99.247l.1-22.612c.027-6.167-5.148-11.19-11.567-11.22l.011.01Z" fill="#15A9F3"/><path d="M83.17 34.132a.265.265 0 0 1-.2-.092l-2.022-2.305a.244.244 0 0 1 .01-.34l2.022-2.005c.1-.102.27-.102.376-.006a.25.25 0 0 1 .005.362l-1.852 1.837 1.863 2.132c.095.106.08.27-.032.356a.266.266 0 0 1-.17.06Z" fill="#fff"/><path d="M85.828 31.852h-4.594a.257.257 0 0 1-.264-.254c0-.143.116-.255.264-.255h4.594c.148 0 .264.112.264.255a.257.257 0 0 1-.264.254ZM133.89 31.72c0 .071-7.328.132-16.371.132-9.044 0-16.372-.06-16.372-.132 0-.071 7.328-.132 16.372-.132 9.043 0 16.371.06 16.371.132ZM125.001 35.093c0 .072-5.339.133-11.927.133-6.588 0-11.927-.061-11.927-.133 0-.07 5.339-.132 11.927-.132 6.588 0 11.927.061 11.927.132ZM164.544 29.588a.652.652 0 0 1-.667.641.652.652 0 0 1-.667-.641c0-.356.297-.641.667-.641.37 0 .667.285.667.641ZM164.544 31.725a.652.652 0 0 1-.667.641.652.652 0 0 1-.667-.64c0-.357.297-.642.667-.642.37 0 .667.285.667.641ZM163.877 34.498a.655.655 0 0 0 .667-.641.655.655 0 0 0-.667-.641.655.655 0 0 0-.667.641c0 .354.299.641.667.641ZM174.455 41.881H75.441v93.898h99.014V41.881Z" fill="#fff"/><path d="m145.997 169.545-.016-.306c-.01-.203-.005-.503-.042-.9a18.066 18.066 0 0 0-.561-3.409 18.064 18.064 0 0 0-.81-2.372 18.063 18.063 0 0 0-1.37-2.661 19.383 19.383 0 0 0-4.99-5.363 19.653 19.653 0 0 0-3.746-2.152 19.776 19.776 0 0 0-4.509-1.369 20.184 20.184 0 0 0-5.053-.264c-.873.051-1.746.188-2.63.356-.878.178-1.751.422-2.619.717-3.461 1.206-6.747 3.455-9.112 6.574a19.058 19.058 0 0 0-1.598 2.473c-.244.433-.445.88-.656 1.333-.191.458-.387.916-.54 1.394-.662 1.888-.99 3.908-1.005 5.949.005 1.022.09 2.035.254 3.032.158.997.423 1.969.746 2.916.153.473.349.936.539 1.394.212.453.418.9.657 1.333.476.865 1 1.699 1.598 2.473 2.365 3.119 5.656 5.368 9.111 6.574.868.295 1.741.539 2.62.717.878.168 1.757.306 2.63.351 1.741.133 3.444.021 5.058-.269a19.61 19.61 0 0 0 4.509-1.369 19.5 19.5 0 0 0 8.736-7.515 18.052 18.052 0 0 0 1.37-2.661c.36-.845.609-1.649.81-2.372.376-1.455.513-2.62.561-3.409.037-.391.032-.697.042-.9.005-.204.016-.306.016-.306v.306c-.011.203 0 .503-.032.9a17.82 17.82 0 0 1-1.338 5.801c-.355.85-.789 1.755-1.366 2.671a19.379 19.379 0 0 1-4.995 5.399 19.355 19.355 0 0 1-3.762 2.172c-1.392.611-2.91 1.1-4.535 1.384-1.619.29-3.333.408-5.085.275a20.755 20.755 0 0 1-2.646-.351 21.89 21.89 0 0 1-2.64-.722c-3.482-1.211-6.794-3.471-9.176-6.61a18.71 18.71 0 0 1-1.608-2.488c-.244-.433-.45-.891-.662-1.343-.19-.463-.386-.926-.545-1.405a17.955 17.955 0 0 1-.751-2.936 20.134 20.134 0 0 1-.259-3.053c.01-2.055.344-4.091 1.01-5.988.159-.479.355-.942.545-1.405.212-.453.418-.905.662-1.343a18.71 18.71 0 0 1 1.608-2.488c2.387-3.14 5.694-5.399 9.176-6.61a22.582 22.582 0 0 1 2.64-.722c.884-.168 1.768-.306 2.646-.351a20.435 20.435 0 0 1 5.085.274c1.625.285 3.143.774 4.535 1.384a19.41 19.41 0 0 1 3.762 2.173 19.297 19.297 0 0 1 4.995 5.399 17.855 17.855 0 0 1 1.366 2.671 17.88 17.88 0 0 1 1.338 5.8c.032.397.021.698.032.901v.316Z" fill="#15A9F3" opacity=".3"/><path d="m143.51 169.132-.016-.264c-.01-.173-.005-.438-.037-.774a15.826 15.826 0 0 0-2.365-7.281 16.718 16.718 0 0 0-4.302-4.625 16.868 16.868 0 0 0-3.233-1.857 17.019 17.019 0 0 0-3.889-1.181 17.643 17.643 0 0 0-4.361-.229c-.751.041-1.508.163-2.264.306-.757.157-1.514.366-2.26.62-2.984 1.038-5.815 2.977-7.858 5.669a15.603 15.603 0 0 0-1.375 2.132 14.833 14.833 0 0 0-1.032 2.35c-.572 1.629-.852 3.369-.863 5.129.011 1.761.291 3.506.863 5.129.275.814.624 1.603 1.032 2.351.407.748.862 1.465 1.375 2.132 2.043 2.692 4.879 4.63 7.858 5.668.746.255 1.503.463 2.26.621.756.142 1.513.265 2.264.305 1.503.112 2.974.016 4.361-.229a16.942 16.942 0 0 0 3.889-1.18 16.608 16.608 0 0 0 3.233-1.857 16.652 16.652 0 0 0 4.302-4.626 15.813 15.813 0 0 0 2.365-7.281c.032-.341.027-.6.037-.773.006-.173.016-.265.016-.265s.011.361-.026 1.043a15.87 15.87 0 0 1-.461 2.951 16.029 16.029 0 0 1-1.862 4.366 16.77 16.77 0 0 1-4.313 4.661 16.535 16.535 0 0 1-3.249 1.872 17.112 17.112 0 0 1-3.915 1.196 17.647 17.647 0 0 1-4.392.239 16.613 16.613 0 0 1-2.281-.305 19.233 19.233 0 0 1-2.275-.621c-3.006-1.043-5.863-2.997-7.922-5.709a15.517 15.517 0 0 1-1.391-2.152 14.996 14.996 0 0 1-1.043-2.371c-.577-1.639-.862-3.394-.873-5.17.011-1.776.296-3.531.873-5.169.281-.825.63-1.613 1.043-2.366a15.84 15.84 0 0 1 1.391-2.148c2.059-2.712 4.916-4.66 7.922-5.704a18.553 18.553 0 0 1 2.275-.62c.762-.143 1.524-.265 2.281-.306a17.615 17.615 0 0 1 4.392.24 16.8 16.8 0 0 1 3.91 1.195 17 17 0 0 1 3.249 1.873 16.676 16.676 0 0 1 4.312 4.661 16.03 16.03 0 0 1 1.863 4.365c.318 1.262.429 2.27.46 2.951.037.682.027 1.043.027 1.043l.005-.005Z" fill="#15A9F3"/><path d="M136.216 179.038c5.453-5.244 5.453-13.746 0-18.99-5.454-5.244-14.295-5.244-19.749 0-5.453 5.244-5.453 13.746 0 18.99 5.454 5.243 14.295 5.243 19.749 0Z" fill="#15A9F3"/><path d="M126.372 165.464h-.106c-.991 0-1.794.772-1.794 1.725v2.188c0 .952.803 1.725 1.794 1.725h.106c.99 0 1.793-.773 1.793-1.725v-2.188c0-.953-.803-1.725-1.793-1.725Z" fill="#FAFAFA"/><path d="M126.319 172.175c-1.503 0-2.72-1.175-2.72-2.615 0-.066.058-.122.127-.122s.127.056.127.122c0 1.307 1.106 2.371 2.466 2.371 1.45 0 2.466-.977 2.466-2.371 0-.066.058-.122.127-.122.068 0 .127.056.127.122 0 1.542-1.122 2.615-2.72 2.615Z" fill="#FAFAFA"/><path d="M126.445 172.053h-.259v1.282h.259v-1.282Z" fill="#fff"/><path d="M127.927 173.401h-3.223a.127.127 0 0 1-.127-.122c0-.066.059-.122.127-.122h3.223c.069 0 .127.056.127.122a.126.126 0 0 1-.127.122ZM123.614 166.492c-.016.03-.211-.036-.444-.128-.233-.096-.418-.183-.408-.218.011-.036.223 0 .455.101.239.097.408.214.392.25l.005-.005ZM124.651 165.164c-.031.02-.195-.148-.375-.382-.175-.229-.297-.438-.265-.458.032-.02.196.148.376.382.174.229.296.437.264.458ZM126.324 164.685c-.038 0-.064-.213-.064-.488 0-.27.037-.489.074-.484.037.006.064.219.064.489 0 .264-.037.483-.074.483ZM128.467 164.339c.031.021-.048.204-.201.397-.154.194-.313.316-.339.295-.026-.025.085-.183.233-.371.148-.188.275-.336.307-.316v-.005ZM129.911 166.013c.016.031-.153.158-.381.285-.227.127-.428.204-.45.173-.015-.03.154-.157.381-.285.228-.127.429-.203.45-.173Z" fill="#fff"/><path d="m152.987 168.7 1.519-1.847a.699.699 0 0 1 .539-.249h4.588c.381 0 .688.295.688.661v3.633a.674.674 0 0 1-.688.661h-4.514a.698.698 0 0 1-.518-.228l-1.598-1.792a.64.64 0 0 1-.016-.839ZM92.601 166.838c.212-.122.445-.219.677-.285l.138-.647 1.132-.02.164.641c.238.056.471.143.688.26l.572-.362.815.759-.355.559c.127.204.228.428.296.652l.672.132.021 1.089-.666.158a2.663 2.663 0 0 1-.27.661l.376.55-.789.783-.587-.341a3.017 3.017 0 0 1-.677.285l-.138.646-1.132.021-.164-.641a2.886 2.886 0 0 1-.688-.26l-.572.361-.815-.758.355-.565a2.777 2.777 0 0 1-.296-.651l-.672-.132-.022-1.089.667-.158c.058-.229.148-.448.27-.661l-.376-.55.789-.783.587.341v.005Zm.603 1.45a1.14 1.14 0 0 0 .032 1.653 1.246 1.246 0 0 0 1.714-.03 1.135 1.135 0 0 0-.031-1.649 1.248 1.248 0 0 0-1.715.031v-.005Z" fill="#022749"/><path d="m157.946 167.72-2.428 2.335.374.36 2.428-2.335-.374-.36Z" fill="#fff"/><path d="m156.069 167.713-.374.359 2.429 2.335.374-.36-2.429-2.334Z" fill="#fff"/><path d="M149.399 105.932H86.684c-3.48 0-6.302 2.713-6.302 6.06v.351c0 3.347 2.822 6.06 6.302 6.06H149.4c3.48 0 6.302-2.713 6.302-6.06v-.351c0-3.347-2.822-6.06-6.302-6.06Z" fill="#EBEBEB"/><path d="M174.713 123.109h-99.48v14.69h99.48v-14.69Z" fill="#F5F5F5"/><path d="M114.386 129.77h.492v2.895h1.863v.412h-2.35v-3.302l-.005-.005ZM117.143 129.795c0-.168.137-.295.317-.295s.318.127.318.29c0 .168-.132.301-.318.301-.185 0-.317-.128-.317-.296Zm.084.774h.471v2.503h-.471v-2.503ZM118.27 132.808l.196-.362c.222.153.571.26.915.26.439 0 .619-.127.619-.341 0-.56-1.645-.076-1.645-1.074 0-.447.418-.748 1.084-.748.339 0 .72.087.948.229l-.201.362a1.4 1.4 0 0 0-.752-.199c-.413 0-.614.148-.614.346 0 .59 1.651.107 1.651 1.084 0 .453-.434.743-1.122.743-.433 0-.857-.127-1.074-.295l-.005-.005ZM122.519 132.925c-.142.117-.359.173-.571.173-.524 0-.826-.28-.826-.784v-1.374h-.444v-.371h.444v-.55h.471v.55h.747v.371h-.747v1.354c0 .269.149.422.408.422.137 0 .27-.041.37-.117l.148.326ZM125.339 131.973h-2.111c.058.438.429.733.942.733.307 0 .561-.097.751-.3l.26.295c-.239.264-.593.407-1.027.407-.841 0-1.397-.534-1.397-1.277 0-.743.556-1.272 1.307-1.272.751 0 1.286.519 1.286 1.287 0 .036 0 .097-.011.137v-.01Zm-2.111-.325h1.667c-.048-.423-.376-.718-.836-.718-.461 0-.783.295-.836.718h.005ZM128.467 131.632v1.44h-.471v-1.389c0-.488-.254-.733-.704-.733-.503 0-.825.29-.825.83v1.287h-.471v-2.503h.449v.376c.191-.254.524-.402.937-.402.635 0 1.079.351 1.079 1.084l.006.01ZM129.255 129.795c0-.168.138-.295.318-.295s.317.127.317.29c0 .168-.132.301-.317.301-.186 0-.318-.128-.318-.296Zm.085.774h.471v2.503h-.471v-2.503ZM133.176 131.632v1.44h-.47v-1.389c0-.488-.254-.733-.704-.733-.503 0-.826.29-.826.83v1.287h-.471v-2.503h.45v.376c.191-.254.524-.402.937-.402.635 0 1.079.351 1.079 1.084l.005.01ZM136.552 130.569v2.162c0 .881-.466 1.283-1.349 1.283-.477 0-.958-.128-1.244-.372l.228-.351c.238.198.619.326 1 .326.614 0 .894-.275.894-.84v-.198c-.228.259-.566.386-.937.386-.751 0-1.322-.488-1.322-1.211 0-.722.571-1.211 1.322-1.211.387 0 .741.138.963.413v-.387h.445Zm-.46 1.185c0-.488-.376-.814-.895-.814-.518 0-.899.326-.899.814 0 .489.375.814.899.814s.895-.335.895-.814ZM137.224 132.777c0-.188.154-.32.333-.32.18 0 .323.132.323.32a.322.322 0 0 1-.323.326.33.33 0 0 1-.333-.326ZM138.34 132.777c0-.188.154-.32.333-.32.18 0 .323.132.323.32a.322.322 0 0 1-.323.326.33.33 0 0 1-.333-.326ZM139.451 132.777c0-.188.154-.32.334-.32.18 0 .323.132.323.32a.322.322 0 0 1-.323.326.33.33 0 0 1-.334-.326ZM91.875 110.45v3.302h-.492v-1.47H89.41v1.47h-.492v-3.302h.492v1.42h1.974v-1.42h.492ZM92.753 110.481c0-.168.138-.301.318-.301s.317.128.317.29c0 .168-.132.301-.317.301-.186 0-.318-.128-.318-.296v.006Zm.085.773h.47v2.503h-.47v-2.503ZM94.098 113.483c0-.168.138-.301.323-.301s.312.133.312.301a.3.3 0 0 1-.312.3c-.18 0-.323-.138-.323-.3Zm.042-3.033h.556l-.095 2.259h-.376l-.09-2.259h.005ZM95.315 113.462c0-.188.153-.32.333-.32.18 0 .323.132.323.32a.322.322 0 0 1-.323.326.33.33 0 0 1-.333-.326ZM96.426 113.462c0-.188.153-.32.333-.32.18 0 .323.132.323.32a.322.322 0 0 1-.323.326.33.33 0 0 1-.333-.326ZM97.542 113.462c0-.188.154-.32.334-.32.18 0 .322.132.322.32a.322.322 0 0 1-.322.326.33.33 0 0 1-.334-.326Z" fill="#022749"/><path d="M164.354 118.271c3.503 0 6.344-2.732 6.344-6.101 0-3.37-2.841-6.101-6.344-6.101-3.504 0-6.345 2.731-6.345 6.101 0 3.369 2.841 6.101 6.345 6.101Z" fill="#15A9F3"/><path d="M162.919 111.722v-1.705a.18.18 0 0 1 .264-.157l4.588 2.178a.176.176 0 0 1 0 .32l-4.588 2.117c-.122.056-.264-.031-.264-.158v-1.45a.17.17 0 0 1 .132-.168l1.683-.458-1.673-.341a.181.181 0 0 1-.148-.173l.006-.005Z" fill="#fff"/><path d="M169.761 49.295c.317-.25.132-.743-.275-.743H86.923c-1.249 0-2.26.972-2.26 2.172v15.647c0 1.2 1.011 2.172 2.26 2.172h75.435c1.249 0 2.26-.971 2.26-2.172V53.569c0-.127.058-.245.158-.326l4.99-3.953-.005.005Z" fill="#EBEBEB"/><path d="M151.31 56.47c0 .07-12.816.131-28.622.131s-28.627-.06-28.627-.132c0-.071 12.816-.132 28.627-.132 15.811 0 28.622.06 28.622.132ZM151.31 60.255c0 .07-12.816.132-28.622.132s-28.627-.061-28.627-.132c0-.072 12.816-.133 28.627-.133 15.811 0 28.622.062 28.622.133Z" fill="#022749"/><path d="M161.983 71.093h-57.254c-1.166 0-2.112.909-2.112 2.03v8.492c0 1.121.946 2.03 2.112 2.03h57.254c1.166 0 2.111-.909 2.111-2.03v-8.492c0-1.121-.945-2.03-2.111-2.03Z" fill="#EBEBEB"/><path d="M157.448 77.015c0 .072-10.837.133-24.204.133-13.366 0-24.203-.061-24.203-.133 0-.07 10.832-.132 24.203-.132 13.372 0 24.204.061 24.204.132Z" fill="#022749"/><path d="m37.12 193.709-8.318 10.517-4.085 10.146c-.297.732-1.17 1.068-1.91.738a1.36 1.36 0 0 1-.789-.982c-.519-2.748-2.365-12.874-1.715-13.611.757-.855 8.012-11.658 8.012-11.658l8.805 4.85Z" fill="#15A9F3"/><path d="m22.806 215.11-1.957-15.316-.344.453c-.297.392-.44.87-.403 1.353.106 1.293.477 4.849 1.879 12.502.08.443.391.824.82 1.002l.005.006ZM25.733 197.937a.806.806 0 0 1-.466.997c-.386.148-.889-.056-1.032-.432-.148-.377.095-.947.498-1.054.402-.107.973.168 1.02.565" fill="#fff" opacity=".6"/><path d="M23.79 208.663c.043.071.715-.311 1.604-.153.894.132 1.397.712 1.46.656.032-.02-.048-.198-.28-.417-.233-.219-.636-.442-1.128-.524-.492-.081-.952 0-1.243.132-.296.128-.434.275-.413.306ZM23.5 210.647c.015.082.634-.015 1.333.229.698.229 1.122.677 1.19.621.075-.031-.29-.631-1.09-.896-.793-.274-1.47-.02-1.433.046ZM23.696 205.798c.016.087.968-.071 2.08.219 1.121.27 1.873.85 1.93.778.064-.045-.65-.768-1.851-1.063-1.196-.305-2.186 0-2.16.066ZM25.95 202.399c-.021.087.783.265 1.603.799.83.519 1.317 1.155 1.392 1.109.068-.03-.334-.788-1.223-1.348-.883-.57-1.767-.631-1.767-.555l-.005-.005ZM28.31 199.25c-.011.086.873.157 1.693.788.83.611 1.122 1.42 1.206 1.384.037-.01.016-.229-.132-.549a2.91 2.91 0 0 0-.89-1.064 3.061 3.061 0 0 0-1.29-.565c-.36-.061-.588-.025-.588.011v-.005ZM30.431 199.428s.149-.117.323-.392a3.4 3.4 0 0 0 .466-1.293c.032-.284.095-.625-.106-.982a.582.582 0 0 0-.593-.264c-.233.046-.407.193-.54.361-.502.687-.391 1.766.334 2.417.735.641 1.788.707 2.545.341.185-.102.37-.254.423-.499.053-.239-.116-.473-.296-.554-.365-.184-.714-.148-1.01-.143a4.197 4.197 0 0 0-1.387.3c-.307.128-.46.234-.45.25.016.056.678-.331 1.842-.346.285.005.624 0 .878.147.122.072.19.183.164.3-.02.118-.148.235-.296.311-.63.295-1.593.229-2.201-.321-.614-.544-.71-1.491-.313-2.05.096-.133.233-.239.366-.265a.315.315 0 0 1 .328.143c.153.234.127.559.105.829-.121 1.114-.63 1.689-.571 1.71h-.01Z" fill="#022749"/><path d="m45.782 199.321.847 10.741s-11.091 3.653-11.139 5.653l21.743-.046-.603-16.791-10.848.443Z" fill="#15A9F3"/><path d="M53.306 208.902c.424.097.736.539.657.951-.08.413-.545.718-.974.631-.429-.086-.815-.61-.688-1.007.127-.402.699-.733 1.09-.55M57.233 215.669l-.064-1.694-20.991.748s-.693.295-.8 1.145l21.85-.199h.005Z" fill="#fff" opacity=".6"/><path d="M46.274 209.97c.005.102.54.128 1.074.438.545.295.83.728.926.682.095-.026-.084-.626-.74-.987-.651-.367-1.286-.219-1.26-.127v-.006ZM44.03 210.963c-.021.101.444.254.825.671.392.407.503.87.609.86.1.01.148-.59-.333-1.099-.477-.514-1.101-.534-1.101-.437v.005ZM42.845 213.634c.095.02.222-.499-.074-1.043-.291-.55-.8-.753-.842-.667-.058.087.28.372.514.83.248.447.296.875.402.885v-.005ZM46.364 207.503c.048.091.53-.066 1.133-.051.603 0 1.074.178 1.127.091.058-.076-.413-.437-1.122-.447-.71-.016-1.19.33-1.138.407Z" fill="#022749"/><path d="m45.951 201.448.148 1.913 10.673-.499-.058-1.73-10.763.316Z" fill="#022749" opacity=".3"/><path d="M46.232 205.33c0 .041.423.092 1.09-.046.333-.066.72-.188 1.122-.381.2-.097.407-.209.613-.341.096-.066.212-.133.318-.26.111-.112.17-.381.026-.544a.578.578 0 0 0-.476-.214c-.158 0-.29.036-.407.071-.238.066-.46.153-.667.25a3.838 3.838 0 0 0-.979.671c-.487.468-.64.855-.603.875.047.031.28-.295.778-.687.248-.193.566-.396.947-.564.19-.082.397-.153.619-.209.228-.066.423-.076.487.02.021.036.026.051-.021.117-.048.062-.138.123-.233.189a5.53 5.53 0 0 1-.561.336c-.37.193-.73.33-1.037.427-.614.188-1.021.234-1.021.29h.005Z" fill="#022749"/><path d="M46.375 205.472c.037.016.233-.361.243-1.022a3.4 3.4 0 0 0-.196-1.14 3.384 3.384 0 0 0-.301-.626c-.138-.203-.302-.473-.715-.504-.217 0-.386.168-.444.311-.064.142-.074.264-.095.386-.032.245-.016.484.026.703.085.442.291.804.508 1.063.444.524.894.631.9.595.031-.05-.344-.234-.694-.742a2.396 2.396 0 0 1-.386-.972 1.794 1.794 0 0 1 0-.606c.027-.224.106-.407.19-.387.106-.005.297.153.398.326a3.53 3.53 0 0 1 .545 1.593c.052.61-.043.997.015 1.012l.006.01Z" fill="#022749"/><path d="M38.75 107.417s-5.117 9.434-5.117 17.071c0 1.613 9.7 77.977 9.7 77.977l14.694-1.185-6.44-70.274 2.307-15.04-15.144-8.549Z" fill="#022749"/><path d="M71.467 115.777s-3.434 27.578-5.043 38.203c-1.688 11.123-5 13.224-5 13.224L34.866 199.88l-10.403-9.011 23.272-32.686s6.376-43.296 6.16-42.217c-.218 1.078 17.577-.189 17.577-.189h-.005Z" fill="#022749"/><path d="M60.905 167.667s-.08.122-.249.341c-.19.239-.444.549-.756.941-.678.84-1.625 2.015-2.79 3.45-2.349 2.956-5.555 6.996-9.106 11.464-3.55 4.483-6.783 8.528-9.18 11.418a209.505 209.505 0 0 1-2.863 3.399c-.334.376-.598.676-.8.905-.184.204-.285.311-.296.306-.005-.005.08-.122.25-.341.19-.239.444-.55.756-.942.677-.839 1.624-2.014 2.788-3.449 2.35-2.957 5.562-6.997 9.107-11.464 3.545-4.483 6.784-8.528 9.175-11.413a209.505 209.505 0 0 1 2.863-3.399c.334-.376.598-.677.8-.906.184-.203.285-.31.296-.305l.005-.005Z" fill="#022749"/><path d="M45.893 60.804s-5.138 2.967-6.678 5.597c-1.54 2.636-9.763 21.9-9.419 25.03.344 3.129 8.043 5.103 8.043 5.103l8.054-10.044-4.794-3.13 4.794-5.765V60.8v.005Z" fill="#15A9F3"/><path d="m54.19 58.245-8.297 2.56s-3.767 34.416-5.651 39.357c-1.884 4.94-2.403 10.705-2.403 10.705s1.07 9.622 12.716 10.94c11.646 1.318 20.906-5.322 20.906-5.322s6.97-16.98 9.022-31.471c2.053-14.491.635-22.76.635-22.76l-12.763-4.406-14.165.397Z" fill="#15A9F3"/><path d="M78.774 63.272c-.354.356-5.482 3.623-7.19 9.22-1.715 5.597-3.599 11.362-3.599 11.362l-6.678.824L65.075 99.5s8.048-.824 12.503-7.902c4.45-7.083 7.192-15.809 7.192-15.809s-.567-17.946-5.996-12.517Z" fill="#15A9F3"/><path d="M37.84 96.539s18.657 3.587 25.43-4.137l-1.963-6.554s-12.324 2.804-16.176 1.598l-7.292 9.093ZM63.599 84.398s2.836-6.1 3.212-6.177c.375-.081 5.852-1.928 5.852-1.928s.291.722 0 1.328l1.963.239s-.29 1.165-.963 1.328l.71.6s-.588.774-1.34 1.09c-.75.315-1.296 0-1.296 0s.249.437-.878 1.119c-1.127.681-3.048 1.689-3.048 1.689l-4.218.712h.006Z" fill="#FFBE9D"/><path d="m63.572 84.419.01-.026c.117-.25 2.847-6.106 3.223-6.187.37-.082 5.794-1.908 5.847-1.928h.01v.01c0 .005.286.722.006 1.318l1.963.239v.015c-.016.046-.296 1.145-.947 1.328l.698.595v.01s-.603.779-1.349 1.094c-.645.27-1.143.077-1.275.016.037.117.063.524-.9 1.104-1.116.677-3.032 1.679-3.053 1.69l-4.244.722h.01Zm9.08-8.111c-.302.102-5.477 1.847-5.837 1.923-.29.061-2.206 4.035-3.19 6.147l4.185-.707c.074-.036 1.948-1.023 3.048-1.684 1.1-.667.873-1.1.873-1.105l-.026-.046.047.026s.546.31 1.281 0c.693-.29 1.254-.982 1.323-1.074l-.72-.61h.027c.614-.153.91-1.17.947-1.308l-1.969-.239.011-.015c.265-.55.042-1.206 0-1.303v-.005Z" fill="#EB996E"/><path d="M72.488 77.641c.026.076-1.577.677-3.582 1.343-.498.173-.995.306-1.387.484-.397.178-.645.473-.82.748-.328.565-.45.977-.497.961-.027-.01.016-.427.312-1.058.153-.305.434-.677.878-.885.434-.214.916-.341 1.418-.52 2.006-.666 3.657-1.144 3.683-1.068l-.005-.005ZM73.763 79.188c.01.036-.36.193-.99.346-.63.163-1.513.3-2.45.544-.936.245-1.725.626-2.217 1.003-.497.371-.72.697-.762.671-.026-.01.133-.386.625-.824.481-.438 1.307-.875 2.275-1.124.968-.25 1.852-.357 2.487-.463.635-.102 1.021-.189 1.037-.148l-.005-.005ZM68.747 81.966c-.053-.05.466-.565 1.313-.855.846-.295 1.587-.213 1.576-.137 0 .086-.693.132-1.481.407-.789.265-1.36.651-1.413.585h.005Z" fill="#EB996E"/><path d="m61.878 86.27-15.63-4.202-4.657 4.88s15.906 11.987 23.176 11.794" fill="#FFBE9D"/><path d="M64.767 98.742s-.703.087-1.947-.132c-1.243-.209-2.995-.753-5.043-1.654-4.106-1.796-9.408-4.966-14.911-8.9-.46-.335-.916-.666-1.365-.997l-.127-.091.11-.117 4.663-4.875.058-.06.085.02 11.228 3.073 3.223.906c.354.106.635.188.852.254.195.061.29.097.29.102 0 .005-.105-.01-.301-.056-.222-.056-.508-.122-.868-.209-.783-.198-1.873-.483-3.243-.83-2.794-.737-6.7-1.77-11.26-2.97l.142-.041c-1.45 1.526-3.016 3.17-4.651 4.884l-.016-.208c.45.325.9.656 1.36.992 5.492 3.928 10.763 7.113 14.821 8.945 2.027.916 3.752 1.486 4.974 1.725.307.066.577.117.82.137.239.03.44.061.604.066.328.016.502.03.502.041v-.005Z" fill="#EB996E"/><path d="M72.112 69.139c.042.01-.048.468-.228 1.196-.18.727-.444 1.735-.751 2.839a93.606 93.606 0 0 1-.836 2.813c-.228.713-.392 1.156-.429 1.145-.037-.01.053-.468.228-1.195a86.75 86.75 0 0 1 .751-2.834 98.14 98.14 0 0 1 .836-2.814c.228-.718.392-1.155.429-1.145v-.005ZM71.388 89.247c-.053.01-.201-.743-.593-1.903-.206-.575-.497-1.251-1.01-1.872-.508-.61-1.26-1.186-2.186-1.328-.926-.127-1.836.152-2.667.295-.81.153-1.55.295-2.206.422-.318.056-.598.102-.81.204a.753.753 0 0 0-.407.397c-.122.31.053.478.026.488 0 .026-.238-.137-.132-.524.042-.178.2-.387.439-.509.238-.127.535-.188.841-.26.651-.142 1.387-.304 2.191-.477.82-.153 1.736-.453 2.767-.321 1.032.158 1.831.789 2.355 1.445.535.667.81 1.379.995 1.974.18.596.275 1.09.333 1.43.059.34.08.53.059.534l.005.005ZM73.679 85.996c-.085.046-.53-1.17-1.82-2.02-1.27-.86-2.588-.992-2.567-1.084 0-.035.333-.046.847.061.513.102 1.222.341 1.889.794.666.453 1.132 1.023 1.375 1.476.244.452.307.768.276.778v-.005ZM84.77 75.789s-.022.112-.09.316c-.08.234-.186.524-.313.885-.286.804-.683 1.908-1.164 3.251-.498 1.369-1.085 3.013-1.916 4.768-.873 1.735-1.815 3.638-3.005 5.556-1.19 1.913-2.651 3.552-4.196 4.793a17.983 17.983 0 0 1-4.514 2.707c-1.402.57-2.614.825-3.455.936-.424.051-.746.082-.974.087-.222.01-.339.01-.339 0 0-.03.466-.05 1.297-.193a15.515 15.515 0 0 0 3.386-1.008c2.736-1.145 6.213-3.638 8.54-7.464 1.176-1.893 2.133-3.801 3.012-5.516.836-1.735 1.444-3.363 1.968-4.727.519-1.364.942-2.468 1.249-3.226.148-.35.27-.64.365-.87.085-.198.138-.3.148-.295ZM79.939 63.659c.032.081-1.286.529-2.752 1.368-1.47.83-2.519 1.72-2.577 1.66-.053-.047.92-1.054 2.429-1.904 1.503-.86 2.89-1.196 2.905-1.124h-.005ZM45.28 76.079c-.08-.015.126-1.267.46-2.793.333-1.527.672-2.753.75-2.738.08.015-.126 1.267-.46 2.799-.333 1.526-.671 2.752-.75 2.737v-.005ZM67.16 103.006s-.297.168-.863.417c-.28.127-.63.28-1.043.433-.413.157-.873.346-1.402.514-1.048.366-2.323.722-3.757 1.048-1.44.305-3.037.57-4.73.717a39.265 39.265 0 0 1-4.79.092c-1.47-.077-2.793-.214-3.889-.397-.55-.076-1.042-.183-1.476-.27a13.867 13.867 0 0 1-1.1-.249c-.604-.153-.932-.249-.927-.265 0-.02.344.041.953.158.301.061.672.137 1.111.204.434.066.926.162 1.476.223 1.096.158 2.408.27 3.869.336 1.46.046 3.069.026 4.751-.112a42.108 42.108 0 0 0 4.7-.692 37.881 37.881 0 0 0 3.745-.982c.53-.152.995-.33 1.413-.468.418-.137.768-.275 1.053-.387.577-.218.9-.335.91-.315l-.005-.005ZM53.481 111.417c-.016.076-1.566-.224-3.407-.819-1.847-.591-3.27-1.242-3.239-1.313.032-.077 1.498.458 3.334 1.043 1.83.59 3.334 1.007 3.318 1.089h-.006Z" fill="#022749"/><path d="M59.958 97.862c-1.106-.448-2.164-1.048-3.35-1.221-1.439-.21-2.645.198-4.085.417-4.286.646-7.487.152-11.53-.016l-.217 1.196c1.778 1.333 4.016 1.76 6.276 1.72 2.048-.036 4.058-.677 6.106-.62 1.614.04 3.18.518 4.741.915 2.61.667 5.345 1.13 8.006.687 2.662-.443 5.255-1.933 6.371-4.3-3.54 2.356-8.344 2.835-12.313 1.227l-.005-.005ZM47.296 109.834c1.709 2.784 4.857 4.697 8.207 4.982.725.061 1.47.051 2.159-.168.693-.219 1.328-.672 1.63-1.308-.741-.529-1.657-.773-2.546-1.012-3.116-.825-6.233-1.649-9.35-2.468" fill="#022749" opacity=".3"/><path d="m42.258 86.825-6.032.214c-.603.02-1.164-.509-1.423-1.338L30.22 70.808c-.439-1.42.196-3.002 1.228-3.069l8.678-.524c.656-.04 1.26.57 1.492 1.501l3.106 12.594c.662 2.671-.582 5.444-2.466 5.51v.005Z" fill="#022749"/><path d="M38.01 80.587c-.678.672-4.456-2.28-5.572-2.055-1.111.218-1.789.84-1.17 1.292.62.453 2.18 1.959 2.424 2.59 0 0 .116-2.64-.18-2.213-.296.427-.794 1.109-.074 1.409.72.3-.392 2.63.143 2.92.534.29 2.402.911 2.783.927.201.01 1.609.539 2.905 1.043 1.46.564 3.08.6 4.561.102l.757-.255c1.18-.397 1.963-1.47 1.947-2.671l-.026-2.407.9-1.944-1.604-3.261-2.635-.845 1.016 3.028c-1.037.478-2.8.819-3.688.346-.895-.474-4.392-3.822-5.054-3.501-.661.32-1.248 1.089-.645 1.822.603.732 3.884 3.012 3.206 3.683" fill="#FFBE9D"/><path d="M24.542 190.722s.027-.056.09-.153c.074-.107.17-.254.291-.432.27-.392.656-.947 1.149-1.654 1.015-1.445 2.47-3.511 4.264-6.06 3.63-5.114 8.63-12.156 14.155-19.931 1.069-1.501 2.122-2.971 3.122-4.381l-.021.061c.704-8.141 1.328-15.315 1.773-20.475.232-2.559.423-4.615.55-6.055l.159-1.628c.02-.173.037-.315.047-.422.01-.097.021-.143.027-.143v.143c-.006.107-.016.249-.021.422-.027.387-.064.936-.117 1.633a4669.5 4669.5 0 0 1-.47 6.061c-.424 5.159-1.017 12.338-1.684 20.48v.035l-.02.031c-1 1.409-2.054 2.88-3.123 4.381-5.55 7.759-10.572 14.786-14.223 19.884-1.826 2.529-3.302 4.58-4.34 6.01-.507.697-.91 1.241-1.19 1.628-.132.173-.238.315-.317.417-.074.092-.111.143-.117.138l.016.01ZM55.556 125.369c.042.066-1.302.875-2.784 2.081-1.492 1.201-2.55 2.33-2.614 2.279-.026-.02.201-.336.63-.799a17.571 17.571 0 0 1 3.836-3.103c.55-.321.91-.489.926-.458h.006Z" fill="#022749"/><path d="M50.274 129.561c-.01.066-.825-.051-1.683-.554-.857-.499-1.344-1.14-1.285-1.181.058-.051.613.479 1.428.952.81.478 1.561.707 1.54.783ZM70.313 123.115c-.01.076-1.45-.092-3.233-.189-1.784-.096-3.233-.086-3.233-.163 0-.071 1.45-.203 3.249-.101 1.799.096 3.227.386 3.217.453ZM39.363 117.075c.01.03-.206.147-.593.239a4.072 4.072 0 0 1-1.555.036 3.916 3.916 0 0 1-1.45-.555c-.334-.219-.492-.402-.471-.422.048-.066.815.529 1.968.717 1.148.209 2.085-.097 2.106-.015h-.005Z" fill="#022749"/><path d="M83.452 74.42s-.143.102-.423.24c-.28.142-.704.31-1.244.478-.534.173-1.196.32-1.936.427-.747.092-1.572.132-2.434.076a13.36 13.36 0 0 1-2.403-.401c-.72-.204-1.35-.438-1.857-.682a8.254 8.254 0 0 1-1.159-.641c-.26-.173-.397-.275-.386-.29.026-.041.608.33 1.624.763.508.219 1.133.432 1.842.615.714.173 1.508.31 2.354.377.847.05 1.657.02 2.387-.056.73-.086 1.38-.214 1.915-.361 1.075-.29 1.699-.585 1.72-.54v-.005ZM42.374 72.095c.026-.071.688.091 1.518.148.831.06 1.514-.016 1.53.06.016.067-.672.265-1.545.204-.873-.056-1.53-.346-1.503-.412Z" fill="#fff"/><path d="M67.165 60.026c.25-.468.365-.987.35-1.512l-.635-19.777c.243-5.506-2.884-10.233-8.62-10.32l-.53.021c-5.333.224-9.598 4.35-9.8 9.48-.184 4.772-.322 10.049-.174 12.603.307 5.282 5.842 5.872 5.842 5.872l.18 2.06s-.429 3.572 3.879 4.783c3.307.932 6.937-1.073 8.44-2.05a3.09 3.09 0 0 0 1.063-1.165l.005.005Z" fill="#FFBE9D"/><path d="M53.555 56.393s3.52.056 7.107-2.326c0 0-1.524 3.873-7.027 3.628l-.085-1.297.005-.005Z" fill="#EB996E"/><path d="M51 42.191c0 .397.36.728.789.728.434 0 .783-.315.778-.712 0-.397-.36-.728-.789-.733-.434 0-.783.316-.778.712v.005ZM49.232 40.462c.1.096.677-.357 1.524-.387.841-.046 1.482.346 1.566.244.043-.046-.063-.219-.344-.397a2.202 2.202 0 0 0-1.259-.315c-.524.025-.958.229-1.206.432-.25.204-.334.382-.28.428v-.005ZM59.175 42.191c0 .397.36.728.789.728.434 0 .783-.315.778-.712 0-.397-.36-.728-.789-.728-.434 0-.783.316-.778.712ZM57.54 40.263c.1.097.677-.351 1.524-.387.841-.045 1.481.346 1.566.245.042-.046-.064-.22-.344-.397a2.202 2.202 0 0 0-1.26-.316c-.523.026-.957.23-1.206.433-.248.203-.328.386-.28.427v-.005ZM54.752 46.415c0-.046-.53-.112-1.382-.183-.217-.01-.423-.046-.465-.184-.059-.147.02-.376.116-.62.18-.51.37-1.043.566-1.608.783-2.285 1.344-4.162 1.244-4.188-.095-.03-.81 1.801-1.593 4.086-.19.565-.37 1.099-.54 1.613-.068.24-.2.514-.074.82.064.152.228.259.37.29.138.035.26.03.371.035.857.01 1.392-.01 1.392-.056l-.005-.005ZM57.18 37.088c.096.219.932.076 1.927.153 1 .056 1.81.3 1.931.096.053-.096-.095-.3-.428-.498-.328-.199-.852-.382-1.45-.423-.598-.035-1.138.077-1.492.235-.36.157-.535.335-.493.442l.006-.005ZM49.439 38.096c.159.178.73-.036 1.429-.077.698-.06 1.296.071 1.423-.127.053-.097-.048-.275-.312-.443-.265-.163-.699-.29-1.175-.254-.482.035-.889.219-1.122.417-.238.199-.312.392-.243.478v.005Z" fill="#022749"/><path d="M66.229 43.916c0-.819.698-1.49 1.55-1.45 1.027.051 2.196.565 2.217 2.6.043 3.618-3.74 2.916-3.751 2.81l-.016-3.965v.005Z" fill="#FFBE9D"/><path d="M67.05 46.506s.063.046.179.092a.672.672 0 0 0 .492 0c.397-.142.725-.753.736-1.41a1.986 1.986 0 0 0-.196-.9c-.117-.265-.296-.448-.498-.478a.343.343 0 0 0-.386.178c-.047.101-.026.173-.042.178-.01.01-.08-.061-.053-.209a.423.423 0 0 1 .143-.229.524.524 0 0 1 .36-.096c.29.015.555.27.693.554.153.285.243.636.238 1.008-.016.727-.397 1.414-.937 1.572-.264.071-.486 0-.598-.087-.116-.086-.137-.168-.127-.178l-.005.005Z" fill="#EB996E"/><path d="M47.941 37.77c-.053.733-1.026-1.74-.635-2.371-1.08.285-2.328-.504-2.481-1.572-.154-1.069.815-2.158 1.936-2.168-.402-.651-.254-1.567.328-2.071.202-.173.62-.32 1.112-.417-.016-.443.105-.89.317-1.287.46-.866 1.355-1.502 2.35-1.68a3.488 3.488 0 0 1 2.82.748c.635-.83 1.704-1.328 2.773-1.292 1.069.035 2.1.6 2.677 1.47.963-.564 2.249-.58 3.223-.035.619.346 1.095.9 1.354 1.542.926-.484 2.207-.336 2.921.432.297.316.498.717.836.987.392.316.916.417 1.365.651 1.382.718 1.71 2.784.614 3.867.519.407 1.048.83 1.403 1.374.354.545.518 1.252.254 1.842-.318.713-1.165 1.104-1.472 1.822-.142.33-.158.702-.296 1.033-.227.564-.73.905-1.323 1.13-.354 1.455-1.413 1.851-1.44 2.279-.311 4.498-2.237 1.887-3.2-7.597-.228-2.229.619-3.363-1.207-4.732-.26.26-.444.595-.672.885-1.063 1.349-3.455 1.43-4.614.158a2.705 2.705 0 0 1-2.027 1.247 2.77 2.77 0 0 1-2.249-.835c-.677.58-2.248 1.557-3.439.514 0 0-1.042 1.603-1.233 4.081l.005-.005Z" fill="#022749"/><path d="M54.514 48.231c.137.331.275.667.502.947.228.28.561.503.931.519.397.02.773-.209.995-.524.223-.316.297-.708.276-1.09-.016-.34-.18-.752-.535-.793-.148-.015-.291.035-.429.092-.619.244-1.243.483-1.862.727" fill="#EB996E"/><path d="M55.26 49.707c.01-.056.418.102.994-.117.28-.107.582-.32.752-.657.17-.33.2-.778.026-1.17a1.28 1.28 0 0 0-.164-.27c-.074-.076-.058-.07-.143-.06-.074.02-.2.076-.296.111-.106.041-.206.082-.307.123-.397.152-.762.29-1.063.401-.609.22-.995.336-1.017.296-.015-.041.334-.23.921-.504.291-.138.646-.295 1.037-.463.1-.04.201-.087.302-.133.111-.04.19-.091.339-.132a.43.43 0 0 1 .275.01c.1.041.159.102.206.158.085.107.159.219.212.341a1.635 1.635 0 0 1-.058 1.435 1.583 1.583 0 0 1-.948.738 1.54 1.54 0 0 1-.81.03c-.184-.046-.269-.107-.264-.127l.006-.01Z" fill="#022749"/><path d="m39.602 46.45-3.646-6.182a15.989 15.989 0 0 0 2.545-8.66c0-9.133-7.699-16.537-17.197-16.537S4.106 22.47 4.106 31.603s7.7 16.537 17.198 16.537c3.968 0 7.614-1.293 10.524-3.465h-.005l7.779 1.77v.005Z" fill="#FAFAFA"/><path d="M39.602 46.45c-.37-.081-2.831-.62-7.794-1.714l-.08-.016.048-.06h.005l.074.066a17.515 17.515 0 0 1-8.26 3.348c-.873.106-1.788.178-2.725.132-.471-.026-.947-.036-1.429-.077-.476-.07-.963-.137-1.455-.213a17.864 17.864 0 0 1-5.8-2.188 17.12 17.12 0 0 1-4.952-4.447c-1.376-1.842-2.418-4.02-2.905-6.391a16.27 16.27 0 0 1 .2-7.358c.652-2.447 1.869-4.838 3.689-6.803l.704-.742c.233-.25.508-.458.756-.687.265-.22.498-.463.778-.657l.826-.595c.27-.209.56-.377.857-.544.291-.168.582-.341.873-.51.307-.142.609-.284.915-.427.308-.137.604-.295.921-.397a18.214 18.214 0 0 1 7.71-1.14c2.55.179 4.985.88 7.08 2.01a17.233 17.233 0 0 1 5.233 4.3 16.598 16.598 0 0 1 2.932 5.363c.592 1.847.756 3.684.746 5.378a16.07 16.07 0 0 1-.841 4.646 16.644 16.644 0 0 1-1.726 3.562v-.051c2.302 3.963 3.43 5.902 3.604 6.207l-3.694-6.157-.015-.025.015-.025a16.726 16.726 0 0 0 1.694-3.547c.46-1.369.772-2.926.815-4.61 0-1.684-.164-3.5-.757-5.327a16.433 16.433 0 0 0-2.916-5.302 17.155 17.155 0 0 0-5.185-4.244c-2.07-1.114-4.482-1.806-7-1.979a18.037 18.037 0 0 0-7.62 1.13c-.318.096-.61.254-.91.391-.302.143-.604.28-.906.423-.285.168-.571.336-.862.504-.291.167-.582.33-.847.539l-.815.585c-.28.188-.513.433-.772.646-.249.23-.519.433-.746.677l-.694.733c-1.799 1.943-3 4.304-3.645 6.721a16.044 16.044 0 0 0-.207 7.271c.482 2.34 1.508 4.498 2.868 6.32a17.031 17.031 0 0 0 4.89 4.406 17.732 17.732 0 0 0 5.73 2.183c.487.071.969.142 1.44.214.476.04.947.05 1.412.076.932.046 1.836-.02 2.699-.122a17.586 17.586 0 0 0 4.683-1.267 17.636 17.636 0 0 0 3.524-2.02l.323-.234-.244.305h-.005l-.031-.071c4.942 1.155 7.397 1.725 7.767 1.811h.027Z" fill="#022749"/><path d="M16.457 31.598c0 .926-.783 1.68-1.746 1.68s-1.746-.754-1.746-1.68c0-.926.783-1.68 1.746-1.68s1.746.754 1.746 1.68ZM23.453 31.598c0 .926-.784 1.679-1.747 1.679-.963 0-1.746-.753-1.746-1.68 0-.925.783-1.678 1.746-1.678s1.747.753 1.747 1.679ZM30.422 30.758c.481.804.195 1.832-.64 2.295-.837.463-1.905.188-2.387-.616-.482-.803-.196-1.831.64-2.294.836-.463 1.905-.189 2.387.615ZM204.934 159.134v-6.213c-8.069 0-6.72-4.793-6.72-20.754 0-10.961.355-16.776-4.201-16.776-4.207 0-5.218 2.839-5.218 15.31 0 23.09 3.207 28.433 16.134 28.433h.005ZM213.347 178.378v-6.213c8.07 0 6.721-4.793 6.721-20.755 0-10.96-.355-16.776 4.201-16.776 4.207 0 5.217 2.84 5.217 15.311 0 23.09-3.206 28.433-16.133 28.433h-.006Z" fill="#022749"/><path d="m216.168 171.87 1.259 6.274-2.196.188-.328-6.243 1.265-.219Z" fill="#022749" opacity=".3"/><path d="M209.358 95.704c-6.387 0-5.916 8.035-5.916 17.875v78.257h11.827v-78.257c0-9.84.471-17.875-5.916-17.875h.005Z" fill="#022749"/><path d="M205.923 192.085s-.01-.086-.01-.249c0-.178 0-.422-.006-.733v-2.824c.016-2.462.037-6.009.069-10.38.085-8.777.206-20.877.333-34.248.164-13.372.313-25.477.424-34.254.031-2.188.058-4.178.19-5.918.132-1.74.365-3.231.662-4.427a17.49 17.49 0 0 1 .873-2.696c.121-.3.238-.524.307-.672.074-.153.116-.224.116-.224s-.026.082-.09.234c-.058.158-.164.377-.28.682-.233.6-.54 1.506-.815 2.702-.275 1.196-.487 2.681-.603 4.411-.117 1.735-.133 3.715-.149 5.908-.084 8.777-.206 20.882-.333 34.254-.164 13.366-.312 25.471-.423 34.243-.069 4.371-.122 7.918-.164 10.38a590.785 590.785 0 0 0-.059 2.824c-.01.311-.015.555-.021.733-.005.163-.016.249-.016.249l-.005.005ZM211.262 191.968s-.01-.086-.01-.249c0-.178 0-.422-.011-.733v-2.808l.048-10.335c.069-8.741.169-20.79.275-34.101.143-13.316.27-25.365.36-34.106.026-2.183.047-4.152-.032-5.882-.069-1.73-.227-3.216-.428-4.417a26.405 26.405 0 0 0-.598-2.742 26.09 26.09 0 0 0-.207-.702 2.635 2.635 0 0 1-.063-.245s.539 1.262.979 3.674c.217 1.206.396 2.692.476 4.427.095 1.735.09 3.709.074 5.892-.069 8.742-.169 20.79-.275 34.106-.143 13.311-.27 25.36-.36 34.102-.058 4.355-.111 7.881-.143 10.334-.021 1.211-.042 2.152-.053 2.808-.01.311-.016.555-.021.733-.005.163-.016.249-.016.249l.005-.005ZM215.395 178.276c-.084 0-.201-1.415-.264-3.165-.064-1.75-.048-3.175.037-3.175.085 0 .201 1.415.264 3.17.064 1.75.048 3.175-.037 3.175v-.005ZM224.581 134.706s.021.152.032.447c.01.321.021.748.032 1.288l.063 4.727c.021 4.019.053 9.52.09 15.595.016 3.043-.005 5.974-.566 8.584-.524 2.61-1.651 4.834-3.006 6.37-1.339 1.552-2.82 2.448-3.905 2.855-1.09.417-1.741.458-1.741.458-.01-.036.635-.117 1.699-.56 1.058-.433 2.492-1.338 3.788-2.88 1.313-1.526 2.398-3.709 2.9-6.294.54-2.58.556-5.485.54-8.528v-15.595c.016-1.975.026-3.582.032-4.727.01-.54.016-.967.026-1.288.011-.295.021-.447.027-.447l-.011-.005ZM203.436 152.682c.085 0 .148 1.598.148 3.572s-.068 3.572-.148 3.572c-.079 0-.148-1.598-.148-3.572s.069-3.572.148-3.572ZM193.7 115.401s.016.158.011.458c-.006.325-.011.763-.022 1.307-.037 1.166-.084 2.799-.143 4.804-.127 4.055-.365 9.662-.285 15.85.074 3.093.047 6.06.714 8.655.63 2.595 1.725 4.823 3.117 6.329 1.381 1.527 2.926 2.326 4.032 2.672 1.116.346 1.788.33 1.783.371 0 0-.667.056-1.815-.264-1.138-.316-2.73-1.105-4.159-2.641-1.439-1.522-2.572-3.781-3.228-6.406-.693-2.636-.672-5.628-.746-8.716-.085-6.198.191-11.805.371-15.86.1-2.005.179-3.639.238-4.804.031-.544.058-.982.079-1.307.021-.301.037-.453.048-.453l.005.005Z" fill="#022749"/><path d="m201.833 159.012.243-6.386 1.376.224-.01 6.259s-1.366-.077-1.604-.097h-.005Z" fill="#022749" opacity=".3"/><path d="M190.081 136.517c.011.081-.619.234-1.407.351-.789.112-1.44.142-1.45.061-.011-.081.619-.234 1.407-.351.789-.112 1.44-.142 1.45-.061ZM189.938 130.335c-.016.076-.667.02-1.46-.133-.789-.152-1.419-.335-1.397-.417.015-.076.666-.02 1.46.133.788.152 1.413.335 1.397.417ZM187.366 120.443c.027-.071.715.127 1.445.596.73.468 1.185.997 1.127 1.048-.058.061-.593-.362-1.296-.809-.699-.453-1.307-.764-1.276-.84v.005ZM191.509 114.124c.079-.031.397.559.709 1.318.318.758.508 1.399.434 1.429-.074.031-.397-.559-.709-1.318-.317-.758-.508-1.399-.434-1.429ZM197.389 114.546c.074.036-.286.809-.799 1.715-.513.911-.99 1.618-1.064 1.577-.074-.036.286-.809.799-1.72.514-.911.99-1.618 1.059-1.577l.005.005ZM199.367 121.954c.021.077-.534.296-1.243.484-.709.188-1.302.28-1.328.203-.022-.076.534-.295 1.243-.483.709-.188 1.302-.28 1.328-.204ZM196.082 129.923c-.064.056-.429-.24-.826-.657-.397-.417-.667-.799-.603-.855.063-.056.428.24.825.657.397.417.667.799.604.855ZM198.78 137.906c-.058.056-.582-.326-1.169-.86-.593-.534-1.022-1.012-.969-1.068.059-.056.582.325 1.17.859.592.535 1.021 1.013.968 1.069ZM190.795 141.325c.058.056-.407.565-1.042 1.135-.63.57-1.191.982-1.244.926-.053-.056.407-.565 1.042-1.135.63-.57 1.191-.982 1.244-.926ZM191.795 148.332c-.079-.026.016-.509.217-1.074.196-.57.424-1.007.498-.987.079.025-.016.509-.217 1.074-.196.57-.424 1.007-.498.982v.005ZM192.531 156.447c-.074-.03.212-.798.646-1.709.428-.911.841-1.623.915-1.593.074.031-.211.799-.645 1.71-.429.911-.842 1.623-.916 1.592ZM197.399 160.152c-.079-.016-.015-.733.143-1.603.159-.87.36-1.567.439-1.552.08.015.016.733-.142 1.603-.159.87-.36 1.567-.44 1.552ZM199.95 147.884c-.016.076-.64.01-1.387-.148-.746-.157-1.338-.351-1.322-.427.015-.076.64-.01 1.386.148.746.157 1.339.351 1.323.427ZM199.367 143.111c-.016.077-.539.051-1.169-.066-.63-.112-1.132-.27-1.117-.346.016-.076.54-.051 1.17.066.63.112 1.132.27 1.116.346Z" fill="#022749"/><path d="M193.69 115.737c.201 0 .323 2.467.159 6.431-.08 1.979-.217 4.335-.381 6.946-.159 2.61-.344 5.474-.413 8.466-.079 2.987.132 5.791.736 8.284.301 1.247.629 2.427 1.069 3.455a12.44 12.44 0 0 0 1.534 2.712 9.304 9.304 0 0 0 3.508 2.87c1.006.463 1.63.615 1.609.732-.011.082-.677.122-1.826-.208-1.132-.326-2.751-1.15-4.132-2.763a12.844 12.844 0 0 1-1.842-2.87c-.529-1.109-.915-2.325-1.27-3.618-.709-2.595-.973-5.576-.889-8.624.069-3.048.302-5.923.535-8.533.238-2.61.487-4.956.704-6.92.433-3.933.687-6.365.899-6.36Z" fill="#022749" opacity=".3"/><path d="M221.296 163.164c0 .081-.582.142-1.302.142-.72 0-1.302-.066-1.302-.142 0-.076.582-.143 1.302-.143.72 0 1.302.067 1.302.143ZM221.216 157.124c-.016.077-.582.026-1.259-.117-.678-.142-1.212-.32-1.191-.397.016-.076.582-.025 1.259.117.678.143 1.212.321 1.191.397ZM221.523 150.367c-.006.081-.683.092-1.503.026-.826-.067-1.487-.184-1.482-.265.005-.081.683-.092 1.503-.025.825.066 1.487.183 1.482.264ZM220.528 144.388c-.032.072-.561-.081-1.17-.346-.613-.264-1.084-.539-1.047-.61.031-.071.561.081 1.169.346.614.264 1.085.539 1.048.61ZM221.142 139.31c-.043.067-.625-.213-1.228-.712s-.979-1.002-.921-1.053c.064-.056.529.356 1.117.834.582.484 1.074.86 1.032.931ZM222.973 135.56c-.074.036-.376-.417-.672-1.002-.297-.59-.477-1.094-.403-1.13.075-.035.376.418.673 1.003.296.59.476 1.094.402 1.129ZM228.19 134.237c.064.051-.222.489-.561 1.023-.344.534-.613.982-.693.947-.074-.031.08-.545.434-1.1.355-.554.757-.926.82-.875v.005ZM230.635 140.857c.016.076-.604.265-1.397.326-.794.061-1.44-.031-1.434-.107 0-.081.635-.122 1.413-.183.772-.061 1.407-.117 1.423-.041l-.005.005ZM230.555 145.64c.037.071-.497.422-1.196.784-.698.361-1.296.6-1.339.529-.037-.071.498-.422 1.196-.784.699-.361 1.297-.6 1.339-.529ZM230.698 153.466c-.037.071-.529-.082-1.1-.346-.572-.265-1.006-.534-.969-.606.037-.071.53.082 1.101.346.572.265 1.005.535.968.606ZM230.243 157.781c.037.071-.365.325-.894.569-.529.245-.984.382-1.021.311-.037-.071.365-.326.894-.57.529-.244.984-.382 1.021-.31ZM229.037 166.909c-.063.056-.455-.265-.878-.712-.424-.448-.715-.855-.656-.906.063-.056.455.264.878.712.423.448.714.855.656.906ZM225.962 174.867c-.084.005-.206-.646-.418-1.425-.206-.783-.428-1.409-.349-1.445.074-.03.424.56.64 1.374.217.809.207 1.496.127 1.501v-.005ZM220.395 178.993c-.084-.005-.1-.636-.042-1.409s.175-1.394.254-1.389c.085.005.101.636.042 1.409-.058.774-.174 1.394-.254 1.389ZM220.062 169.723c-.047.066-.576-.194-1.19-.58-.614-.387-1.074-.753-1.027-.82.048-.066.577.194 1.191.58.614.387 1.074.754 1.026.82ZM227.185 155.364c-.053.061-.461-.189-.9-.55-.444-.366-.762-.712-.709-.773.053-.061.46.188.905.554.444.367.762.713.709.774l-.005-.005ZM223.221 145.584c.059.056-.307.494-.82.982-.508.484-.973.835-1.032.774-.058-.056.307-.494.821-.982.508-.484.973-.835 1.031-.774ZM227.56 137.896c.043.071-.312.336-.788.6-.476.26-.894.417-.937.351-.042-.071.313-.335.789-.6.476-.26.894-.417.936-.351ZM223.026 173.518c-.074.031-.302-.315-.508-.773-.207-.458-.307-.855-.233-.89.074-.031.301.315.508.773.206.458.307.855.233.89ZM204.839 121.751c0 .081-.73.107-1.614.061-.889-.046-1.603-.148-1.598-.224 0-.081.73-.107 1.614-.061.889.046 1.603.148 1.598.224ZM204.326 112.826c-.032.077-.704-.122-1.497-.437-.794-.316-1.413-.631-1.382-.703.032-.071.704.123 1.498.438s1.413.631 1.381.702ZM205.172 101.754c-.011.077-.783.01-1.614-.417-.836-.422-1.323-.997-1.264-1.048.063-.061.619.397 1.407.794.783.402 1.492.59 1.471.671ZM207.304 96.585c-.074.035-.465-.52-.873-1.242-.407-.728-.682-1.343-.608-1.384.074-.035.465.52.873 1.242.407.722.682 1.343.608 1.384ZM214.638 95.068c.064.051-.349.631-.92 1.298-.572.666-1.09 1.165-1.154 1.114-.063-.05.349-.63.921-1.297.571-.667 1.09-1.166 1.153-1.115ZM216.507 102.716c.048.066-.445.478-1.101.926-.656.448-1.227.758-1.275.692-.048-.066.445-.478 1.101-.926.656-.448 1.227-.758 1.275-.692ZM217.364 113.315c.021.076-.529.285-1.233.463-.704.178-1.286.264-1.307.188-.021-.076.529-.285 1.233-.463.704-.178 1.286-.265 1.307-.188ZM216.856 122.295c0 .082-.688.112-1.53.066-.841-.04-1.518-.142-1.518-.218 0-.082.688-.112 1.529-.066.841.04 1.519.142 1.519.218ZM217.025 131.388c.043.071-.608.488-1.449.941-.842.448-1.556.758-1.598.687-.043-.071.608-.488 1.449-.941.842-.448 1.556-.758 1.598-.687ZM203.981 135.805c-.016.076-.751-.005-1.64-.189-.889-.183-1.593-.391-1.577-.468.016-.076.751.005 1.64.188.889.184 1.593.392 1.577.469ZM204.299 143.727c.053.061-.508.59-1.249 1.18-.74.591-1.386 1.018-1.439.957-.053-.061.508-.59 1.249-1.18.741-.591 1.386-1.018 1.439-.957ZM204.49 167.377c-.053.061-.778-.438-1.62-1.109-.841-.672-1.481-1.272-1.428-1.333.053-.061.778.437 1.619 1.109.841.672 1.482 1.272 1.429 1.333ZM204.157 174.043c.053.061-.397.508-1.006 1.007-.608.494-1.143.845-1.196.784-.053-.061.397-.509 1.006-1.008.608-.493 1.143-.845 1.196-.783ZM216.332 159.205c.048.066-.519.55-1.265 1.089-.751.54-1.397.921-1.444.86-.048-.066.518-.549 1.264-1.089.752-.539 1.397-.921 1.445-.86ZM216.517 147.828c.053.056-.514.565-1.392.89-.878.331-1.651.326-1.656.25-.011-.082.714-.204 1.545-.519.831-.305 1.45-.687 1.503-.621ZM216.692 139.519c-.032.076-.625-.087-1.329-.351-.703-.27-1.243-.55-1.217-.621.032-.076.625.087 1.329.351.703.27 1.243.55 1.211.621h.006ZM217.348 181.66c.037.071-.657.458-1.546.86-.889.401-1.64.671-1.672.6-.037-.071.656-.458 1.545-.86.889-.402 1.641-.672 1.673-.6ZM204.167 128.935c-.053.062-.783-.478-1.624-1.195-.842-.723-1.477-1.354-1.424-1.41.053-.056.783.479 1.625 1.196.841.723 1.476 1.354 1.423 1.409ZM217.702 124.712c.048.066-.56.524-1.359 1.018-.794.493-1.477.839-1.519.773-.048-.066.561-.524 1.36-1.017.794-.494 1.476-.84 1.518-.774ZM203.818 106.965c-.011.081-.55.071-1.206-.021-.657-.091-1.175-.229-1.165-.305.011-.076.551-.071 1.207.02.656.092 1.175.229 1.164.306ZM216.686 107.616c.026.076-.482.32-1.132.544-.656.224-1.207.346-1.239.27-.026-.076.482-.321 1.133-.544.656-.224 1.206-.346 1.238-.27ZM209.93 127.002c.063.051-.339.636-.9 1.308-.561.671-1.069 1.18-1.138 1.129-.063-.051.339-.636.9-1.307.561-.672 1.069-1.181 1.138-1.13ZM209.913 118.525c-.042.061-.598-.254-1.042-.875-.445-.616-.561-1.226-.482-1.242.085-.025.313.509.731 1.079.407.575.846.972.793 1.038ZM209.744 106.476c.053.066-.418.499-.873 1.12-.466.615-.736 1.185-.821 1.16-.074-.021.085-.672.577-1.328.487-.662 1.074-1.013 1.117-.952ZM208.728 139.198c-.08-.025.047-.559.28-1.19.233-.631.487-1.12.566-1.089.08.025-.047.56-.28 1.191-.233.63-.487 1.119-.566 1.088ZM206.828 156.641c-.074.035-.555-.774-1.074-1.806-.518-1.033-.878-1.898-.804-1.929.074-.036.555.774 1.074 1.806.519 1.033.878 1.898.804 1.929ZM210.215 159.368c.074.036-.366.977-.974 2.096-.614 1.125-1.17 2-1.244 1.965-.074-.036.366-.977.974-2.097.614-1.119 1.169-2 1.244-1.964ZM210.056 177.96c-.074.036-.555-.732-1.074-1.719-.518-.987-.878-1.817-.804-1.852.074-.036.555.732 1.074 1.719.519.987.878 1.817.804 1.852ZM208.898 183.649c.069.046-.254.626-.72 1.303-.465.676-.905 1.185-.973 1.139-.069-.045.254-.625.719-1.302.466-.677.905-1.186.974-1.14Z" fill="#022749"/><path d="M211.591 97.42c.413 0 .752 21.074.752 47.07s-.339 47.076-.752 47.076-.751-21.07-.751-47.076.338-47.07.751-47.07ZM225.18 135.418c.206 0 .449 2.402.566 6.299.132 3.903.106 9.266.211 15.199.037 2.991-.137 5.892-.756 8.477-.312 1.292-.736 2.498-1.275 3.577-.54 1.053-1.053 1.989-1.641 2.844-.571.85-1.28 1.557-2 2.01a6.877 6.877 0 0 1-1.979.834c-1.127.285-1.767.285-1.789.204-.026-.107.577-.3 1.588-.733.503-.219 1.106-.504 1.683-.962.582-.452 1.121-1.078 1.592-1.898.477-.803.942-1.78 1.408-2.803a17.263 17.263 0 0 0 1.058-3.363c.508-2.453.64-5.241.609-8.182-.111-5.943.084-11.332.227-15.214.154-3.887.286-6.294.492-6.299l.006.01Z" fill="#022749" opacity=".3"/><path d="M230.693 189.943h-40.231v6.859h40.231v-6.859Z" fill="#15A9F3"/><path d="m193.462 195.439 4.895 20.49h23.975l5.35-20.49h-34.22Z" fill="#15A9F3"/><path d="M230.667 196.807c0 .077-9.075.138-20.267.138-11.191 0-20.266-.061-20.266-.138 0-.076 9.075-.137 20.266-.137 11.192 0 20.267.061 20.267.137ZM235 215.868c0 .071-52.608.132-117.492.132-64.885 0-117.503-.061-117.503-.132 0-.072 52.597-.133 117.503-.133 64.905 0 117.492.061 117.492.133ZM55.47 74.547v6.892l2.144-7.747" fill="#022749"/><path d="m63.947 71-7.841.102a.04.04 0 0 0-.02.004.05.05 0 0 0-.018.014l-.586.678a.015.015 0 0 0-.004.008v.009l.005.007a.008.008 0 0 0 .006.001l4.623-.094a.024.024 0 0 1 .022.007c.007.007.01.016.012.026a.05.05 0 0 1-.005.03.03.03 0 0 1-.02.015l-6.035 1.61a.009.009 0 0 0-.006.004l-2.066 2.393a.084.084 0 0 0-.006.083.052.052 0 0 0 .027.026c.01.004.022.003.033-.002l11.898-4.795a.053.053 0 0 0 .027-.029.084.084 0 0 0 .006-.045.069.069 0 0 0-.019-.04.039.039 0 0 0-.033-.012Z" fill="#022749"/><path d="M55.48 71.812v1.233l5.112-1.366-5.111.133Z" fill="#022749"/></g><defs><clipPath id="a"><path fill="#fff" d="M0 0h235v216H0z"/></clipPath></defs></svg>