<svg width="292" height="300" fill="none" xmlns="http://www.w3.org/2000/svg"><g clip-path="url(#a)"><path d="m145.304.406-4.321 2.91a2.32 2.32 0 0 0-.629 3.214l2.905 4.327a2.31 2.31 0 0 0 3.209.63l4.321-2.909a2.32 2.32 0 0 0 .629-3.214l-2.905-4.328a2.31 2.31 0 0 0-3.209-.63ZM18.285 69.55l-4.321 2.909a2.319 2.319 0 0 0-.63 3.214l2.905 4.328a2.31 2.31 0 0 0 3.21.63l4.32-2.91a2.318 2.318 0 0 0 .629-3.214l-2.904-4.327a2.31 2.31 0 0 0-3.21-.63Z" fill="#F5F5F5"/><path d="m194.53 24.236 1.53.34 4.327-3.73.644-2.934s2.402.381 1.281 4.16c-1.122 3.78-.603 2.864-.603 2.864s5.026 1.124 5.352 1.637c.235.374-.679 5.187-1.191 7.794-.263 1.311-1.364 2.344-2.7 2.372-.187 0-.381-.007-.554-.049-1.253-.277-7.449-2.662-7.449-2.662l-2.645-.583 2.022-9.209h-.014ZM190.321 22.468l-1.267 10.249 2.624.582 2.16-9.84-3.517-.991Z" fill="#E0E0E0"/><path d="m224.265 48.826 1.952 2.01a.928.928 0 0 0 .831.271l2.762-.471a.936.936 0 0 1 .983 1.366l-1.308 2.482a.932.932 0 0 0 0 .874l1.301 2.483a.937.937 0 0 1-.99 1.359l-2.762-.479a.928.928 0 0 0-.831.27l-1.959 2.005a.938.938 0 0 1-1.599-.52l-.402-2.774a.934.934 0 0 0-.512-.707l-2.506-1.242c-.699-.346-.692-1.338 0-1.685l2.513-1.241a.934.934 0 0 0 .512-.707l.409-2.774a.938.938 0 0 1 1.599-.52h.007ZM57.752 3.502l1.384 1.428c.153.16.374.23.589.195l1.96-.333c.54-.09.955.478.698.964l-.927 1.761a.65.65 0 0 0 0 .617l.92 1.762c.257.485-.159 1.06-.699.963l-1.959-.34a.681.681 0 0 0-.588.188l-1.385 1.421a.667.667 0 0 1-1.135-.367l-.284-1.97a.658.658 0 0 0-.36-.499l-1.78-.88a.667.667 0 0 1 0-1.193l1.78-.88a.683.683 0 0 0 .367-.5l.29-1.97a.665.665 0 0 1 1.136-.367h-.007Z" fill="#EBEBEB"/><path d="M11.783 37.037a4.583 4.583 0 0 0 3.912-3.322c.692-2.44-.7-4.972-3.109-5.658-2.402-.687-4.915.742-5.608 3.183a4.596 4.596 0 0 0 1.627 4.91C1.627 35.234 0 42.259 0 42.259l15.854 4.507s2.319-6.913-4.071-9.729ZM113.441 300c14.201 0 25.712-.872 25.712-1.949 0-1.076-11.511-1.948-25.712-1.948-14.2 0-25.712.872-25.712 1.948 0 1.077 11.512 1.949 25.712 1.949Z" fill="#E0E0E0"/><path d="M292 291.2c0 .097-64.807.18-144.726.18-79.92 0-144.74-.083-144.74-.18 0-.097 64.792-.18 144.74-.18 79.947 0 144.726.083 144.726.18ZM93.807 184.894s-54.699-58.672-61.144-66.356c-2.797-3.342-6.972-12.031-7.505-14.93-.803-4.355 1.246-8.765 5.13-10.894 8.64-4.743 30.289-11.116 84.281-11.116 45.485 0 65.991 5.264 75.212 10.222 4.992 2.683 7.533 8.411 6.231 13.931a24.934 24.934 0 0 1-5.947 11.206l-62.653 67.944-5.601 47.522h-19.772L93.8 184.901l.007-.007Z" fill="#022749"/><path d="M184.838 96.473c2.334.95 2.597 4.119.478 5.478-12.932 8.307-29.194 10.54-44.716 11.553-34.823 2.281-89.224.894-105.375-13.12-1.08-.943-.762-2.69.595-3.162 5.629-1.956 22.313-8.488 73.952-8.1 45.131.34 66.523 3.877 75.066 7.35ZM128.43 184.236s-.104.076-.312.194c-.249.132-.561.298-.935.492-.408.215-.906.472-1.516.714-.602.25-1.274.576-2.056.833-.388.138-.796.284-1.218.429-.423.146-.88.264-1.343.396-.921.291-1.939.499-2.998.735a42 42 0 0 1-7.034.742 41.505 41.505 0 0 1-7.054-.562c-1.067-.208-2.091-.388-3.019-.659-.464-.125-.921-.229-1.35-.36-.422-.139-.838-.271-1.225-.403-.79-.235-1.468-.54-2.077-.776a14.895 14.895 0 0 1-1.53-.68c-.38-.187-.693-.346-.949-.471-.214-.111-.325-.174-.318-.188 0-.013.125.028.353.118l.976.409c.415.188.935.41 1.55.618.61.215 1.296.506 2.085.721.394.118.803.243 1.225.374.429.132.879.222 1.35.34.928.257 1.939.416 2.998.617 2.132.333 4.5.548 6.992.527a43.712 43.712 0 0 0 6.978-.707c1.053-.229 2.064-.416 2.984-.693.464-.132.914-.236 1.336-.375.423-.139.824-.277 1.219-.409.782-.243 1.461-.541 2.063-.777a17.69 17.69 0 0 0 1.53-.659c.388-.173.706-.319.962-.429.222-.098.339-.139.346-.132l-.013.021Z" fill="#022749"/><path d="M189.989 98.24s-.104.098-.325.271c-.229.18-.554.43-.983.756l-1.607 1.221c-.671.437-1.44.943-2.298 1.505-1.751 1.102-3.974 2.329-6.639 3.564-2.693 1.186-5.802 2.441-9.367 3.453a101.093 101.093 0 0 1-11.797 2.691c-4.292.721-8.91 1.269-13.777 1.692-9.74.811-20.485 1.366-31.77 1.331a281.215 281.215 0 0 1-16.463-.478c-5.31-.305-10.433-.721-15.286-1.283-9.72-1.061-18.401-2.628-25.629-4.182-7.29-1.38-12.8-4.036-16.283-6.241-1.751-1.109-2.977-2.177-3.717-2.975-.354-.416-.63-.728-.769-.977a7.041 7.041 0 0 1-.221-.36c.027-.022.297.498 1.038 1.289.755.777 1.987 1.817 3.745 2.905 3.497 2.164 8.986 4.764 16.263 6.11 7.227 1.518 15.902 3.058 25.608 4.098 4.853.555 9.962.957 15.272 1.262a293.49 293.49 0 0 0 16.442.465c11.271.027 22.009-.513 31.736-1.304 4.867-.409 9.477-.95 13.756-1.657a102.587 102.587 0 0 0 11.769-2.642c3.558-.992 6.667-2.226 9.353-3.391 2.665-1.221 4.895-2.42 6.653-3.502.872-.555 1.641-1.047 2.312-1.477.637-.472 1.177-.867 1.62-1.193.429-.312.762-.555 1.004-.728.229-.16.346-.236.346-.236l.014.014ZM188.992 118.122s-.124.069-.374.187c-.263.125-.63.299-1.114.52-.997.458-2.437 1.117-4.293 1.97a766.9 766.9 0 0 0-3.108 1.414c-1.142.5-2.416.957-3.773 1.498-2.728 1.027-5.774 2.351-9.284 3.412-1.744.569-3.565 1.165-5.469 1.789-.942.333-1.939.576-2.942.846-1.004.271-2.029.541-3.067.818-1.039.278-2.098.562-3.178.846-.54.146-1.08.292-1.627.437-.554.118-1.108.236-1.675.354-2.25.472-4.563.957-6.93 1.456-9.533 1.727-20.146 3.01-31.341 3.232-11.194.131-21.849-.798-31.43-2.261-2.382-.437-4.708-.867-6.965-1.283-.568-.104-1.128-.208-1.682-.312-.554-.118-1.094-.263-1.641-.395-1.08-.264-2.146-.527-3.192-.784-1.045-.256-2.076-.506-3.087-.756-1.011-.256-2.008-.464-2.956-.783l-5.497-1.699c-3.531-.999-6.591-2.302-9.326-3.294-1.356-.527-2.637-.971-3.786-1.456-1.136-.513-2.174-.978-3.109-1.401-1.855-.839-3.302-1.498-4.3-1.949-.477-.222-.85-.395-1.114-.513-.249-.118-.374-.187-.374-.187s.132.049.388.153c.263.111.644.27 1.128.485 1.004.437 2.458 1.068 4.327 1.886.942.409 1.98.867 3.123 1.373 1.149.479 2.437.916 3.794 1.429 2.741.977 5.801 2.26 9.332 3.238 1.751.534 3.586 1.089 5.497 1.671.948.319 1.945.52 2.956.77 1.01.243 2.035.492 3.08.742 1.046.25 2.112.513 3.192.77.54.125 1.08.27 1.634.388.554.104 1.115.201 1.682.305 2.257.409 4.576.832 6.958 1.262 9.568 1.45 20.194 2.358 31.368 2.233 11.174-.222 21.759-1.491 31.279-3.197 2.367-.492 4.679-.97 6.923-1.435.56-.118 1.121-.229 1.668-.347.547-.145 1.087-.284 1.627-.43 1.073-.284 2.132-.561 3.171-.839 1.038-.277 2.063-.548 3.067-.811 1.003-.271 1.993-.506 2.942-.832 1.904-.61 3.724-1.2 5.469-1.762 3.51-1.04 6.563-2.35 9.291-3.356 1.357-.527 2.631-.978 3.78-1.463 1.135-.506 2.181-.964 3.115-1.38a745.273 745.273 0 0 1 4.32-1.9c.485-.208.859-.375 1.129-.486.256-.11.387-.152.387-.152l.007-.021Z" fill="#022749"/><path d="M104.898 232.423s-.021-.076-.049-.222c-.027-.159-.069-.374-.117-.651-.104-.59-.243-1.436-.43-2.525-.366-2.226-.9-5.443-1.571-9.5-1.322-8.148-3.178-19.638-5.358-33.077l.041.09c-5.158-5.631-10.786-11.823-16.505-18.439-6.445-7.448-12.371-14.729-17.501-21.552-2.575-3.405-4.93-6.713-7.103-9.82-2.132-3.141-4.181-6.026-5.746-8.862-1.572-2.829-2.582-5.645-2.852-8.217-.27-2.573.145-4.82.803-6.505.657-1.699 1.557-2.822 2.229-3.495.173-.159.325-.305.457-.437a10.2 10.2 0 0 1 .36-.277c.194-.153.297-.215.297-.215s-.09.09-.276.25c-.097.083-.208.18-.347.291l-.443.444c-.65.679-1.523 1.81-2.153 3.495-.63 1.671-1.024 3.897-.734 6.435.284 2.538 1.302 5.319 2.873 8.113 1.565 2.816 3.635 5.686 5.767 8.814 2.188 3.1 4.542 6.394 7.124 9.791 5.137 6.81 11.063 14.077 17.509 21.518 5.711 6.609 11.333 12.808 16.483 18.446l.035.035v.048c2.132 13.446 3.946 24.944 5.234 33.098.63 4.064 1.128 7.289 1.474 9.515.167 1.095.291 1.941.381 2.538.042.277.069.492.09.651.021.146.028.222.021.222h.007ZM179.272 87.513c0 .042-.353.014-.969.125a4.617 4.617 0 0 0-2.34 1.11c-.838.728-1.599 1.844-2.25 3.183a31.169 31.169 0 0 0-1.668 4.549c-.963 3.314-1.517 6.407-1.953 8.626-.187 1.068-.346 1.956-.47 2.649-.118.624-.194.971-.222.964-.028 0 0-.354.083-.985.076-.631.194-1.546.353-2.67.367-2.239.886-5.346 1.856-8.688a29.171 29.171 0 0 1 1.716-4.598c.679-1.352 1.482-2.496 2.382-3.232a4.567 4.567 0 0 1 3.219-1.067c.166.007.256.02.256.034h.007Z" fill="#022749"/><path d="M213.029 77.257s-6.563-11.407-9.858-10.762c-3.289.645-6.183 3.03-6.183 3.03l8.363 9.847 7.671-2.115h.007Z" fill="#FFBE9D"/><path d="m252.746 107.284-25.158-11.31-14.67-22.344-9.021 4.688 17.066 30.463 28.059 10.659 3.724-12.156Z" fill="#15A9F3"/><path d="M198.927 67.223a8.022 8.022 0 0 0 8.342-3.3c2.513-3.655 1.627-8.634-1.973-11.124-3.6-2.482-8.564-1.532-11.077 2.122a8.016 8.016 0 0 0-.048 9.05c-11.056-5.437-17.689 5.29-17.689 5.29l23.746 16.373s7.713-10.152-1.294-18.411h-.007ZM217.882 287.768l.672-6.29 11.444 1.151-.568 9.244-.734-.028c-3.268-.146-16.588-.978-18.692-1.851-2.347-.978 7.878-2.226 7.878-2.226Z" fill="#022749"/><path d="M229.624 291.616h-.208c-.173 0-.367-.014-.581-.021l-2.147-.124a223.045 223.045 0 0 1-7.075-.583 218.146 218.146 0 0 1-7.048-.818c-.837-.118-1.55-.222-2.132-.305-.215-.035-.401-.063-.575-.09-.131-.021-.2-.035-.2-.042 0 0 .069 0 .2.014.174.021.367.041.582.062.582.07 1.295.16 2.132.257a329.026 329.026 0 0 0 14.123 1.401c.845.069 1.565.124 2.146.166.215.021.409.035.582.049.132.013.201.02.201.027v.007Z" fill="#022749"/><path d="M213.742 290.354c-.041 0-.027-.513-.297-1.061-.263-.555-.679-.86-.644-.894.014-.035.491.235.775.832.291.589.201 1.137.166 1.123ZM217.39 288.939c-.034.021-.18-.201-.325-.492-.145-.291-.235-.534-.201-.555.035-.02.18.201.326.493.145.291.235.534.2.554ZM218.395 288.53s-.201-.118-.388-.319-.312-.388-.284-.416c.028-.027.201.118.388.319s.311.389.284.416ZM219.108 287.476c0 .042-.284.049-.623.014-.34-.028-.61-.09-.61-.125 0-.041.284-.048.624-.014.339.028.609.084.609.125ZM219.391 286.714c.007.034-.304.138-.706.131-.401-.007-.706-.131-.699-.166.014-.042.318.014.699.021.381.014.693-.028.699.014h.007Z" fill="#022749"/><path d="M217.093 287.872s-.298.02-.755-.084a4.249 4.249 0 0 1-.789-.256c-.145-.07-.291-.125-.443-.236a.431.431 0 0 1-.166-.257c-.021-.117.055-.235.145-.291.762-.305 1.44.18 1.676.576.131.208.18.402.194.527.013.132.007.208 0 .208-.028.007-.021-.305-.277-.68a1.353 1.353 0 0 0-.603-.485c-.256-.104-.637-.167-.907-.028-.131.076-.096.222.028.319.118.09.27.16.409.222.276.125.533.215.761.284.443.125.734.153.734.181h-.007Z" fill="#022749"/><path d="M216.892 287.885s-.103-.194-.034-.533a1.22 1.22 0 0 1 .263-.534c.152-.153.346-.368.664-.326.174.041.236.249.201.374a.835.835 0 0 1-.159.326c-.132.18-.277.319-.402.423-.263.208-.456.277-.463.264-.014-.021.166-.118.394-.34a2.51 2.51 0 0 0 .36-.423c.118-.153.222-.43.035-.486-.187-.034-.402.132-.533.271a1.145 1.145 0 0 0-.263.471c-.09.305-.035.507-.063.507v.006ZM229.707 288.371s-.333-.063-.873-.056c-.533 0-1.287.153-1.973.597a3.799 3.799 0 0 0-1.35 1.56c-.228.485-.284.825-.304.818-.007 0 0-.083.02-.235.028-.153.084-.368.194-.625a3.687 3.687 0 0 1 1.364-1.636 3.656 3.656 0 0 1 2.056-.576c.277.007.499.042.644.084.152.034.229.069.229.076l-.007-.007ZM228.98 283.343c.041 0-.021 1.089-.139 2.434-.118 1.339-.242 2.42-.284 2.42-.041 0 .021-1.088.139-2.434.117-1.338.242-2.42.284-2.42ZM223.809 290.049c0 .035-.776.09-1.738 0-.956-.083-1.717-.27-1.71-.312.007-.042.768.083 1.717.166.948.091 1.724.104 1.724.146h.007Z" fill="#022749"/><path d="M226.114 290.278s-.077.159-.174.326c-.096.166-.152.319-.193.312-.035 0-.042-.194.069-.389.111-.194.277-.284.298-.256v.007ZM227.097 289.279s-.063.146-.194.257c-.132.111-.263.18-.291.145-.028-.027.062-.145.194-.256.131-.111.263-.18.291-.146ZM228.384 288.912c-.013.041-.166.021-.346.062-.18.042-.311.125-.339.09-.028-.027.083-.18.312-.235.221-.056.394.041.38.076l-.007.007ZM229.298 288.766c.014.042-.062.09-.166.118-.104.028-.194.021-.201-.021-.014-.041.063-.09.166-.118.104-.027.194-.02.201.021Z" fill="#022749"/><path d="M177.465 78.186c-1.744-2.045-3.787-4.542-4.7-5.97-1.69-2.663-1.454-2.822-1.115-2.975.914-.41 3.15 4.563 3.275 3.204.131-1.366-3.427-5.75-2.458-6.144 1.267-.507 3.51 4.75 3.731 5.18.215.416.845.104.624-.27-.319-.542-3.517-6.318-2.285-6.831.685-.284 1.052 1.02 1.052 1.02s2.603 5.637 3.178 5.373c.588-.263-.831-3.626-1.392-4.729-.553-1.089-.263-1.803.409-1.657.464.097 2.243 3.418 2.769 4.521.526 1.103 1.918 4.14 2.43 2.053.519-2.088 1.682-3.51 2.25-3.669.575-.166.99.59.582 1.117-.333.423-.672 1.303-.9 1.976a5.359 5.359 0 0 0-.291 1.713c0 .506.021.95.041 1.352l.201 4.279-4.881 3.35-2.533-2.872.013-.02ZM234.878 209.179l-5.054 77.493-11.741-1.297s2.112-75.62 2.658-75.579c.554.042 14.137-.617 14.137-.617ZM260.41 206.96l13.21 76.827-10.433 1.588-18.284-74.761 15.507-3.654ZM243.345 75.059l.326 28.854a5.831 5.831 0 0 1-5.539 5.888 5.817 5.817 0 0 1-6.085-5.541l-.353-7.35s-5.234.853-6.279-2.92c-.665-2.406 0-19.645 0-19.645l17.937.714h-.007Z" fill="#FFBE9D"/><path d="m255.301 162.669 12.51 62.217-21.545 2.066-5.919-43.417-2.319 44.228-21.316-1.837 3.579-66.162 35.01 2.905ZM273.862 281.97l.747 9.313-12.032-.367.305-8.446 10.98-.5Z" fill="#022749"/><path d="M268.337 281.811c-.104 0-.083 1.643.042 3.647.124 2.011.311 3.634.408 3.627.104 0 .083-1.636-.042-3.647-.124-2.011-.311-3.634-.408-3.627Z" fill="#022749"/><path d="M262.577 289.446c0 .055.686.02 1.779-.049 1.233-.076 2.68-.166 4.286-.263a85.31 85.31 0 0 0 4.285-.375c1.094-.132 1.766-.256 1.759-.305 0-.055-.686-.021-1.78.049-1.232.076-2.679.166-4.285.263a85.31 85.31 0 0 0-4.285.375c-1.094.131-1.766.256-1.759.305Z" fill="#022749"/><path d="M254.609 139.487v15.346l1.682 12.739-36.54-3.384 1.565-25.484c.235-5.964.353-12.177.498-17.676-2.485-.943-25.601-9.709-27.186-9.93-1.676-.243-16.81-28.28-16.81-28.28-.477-3.363 8.627-5.52 8.627-5.52s14.136 21.359 15.334 22.559c1.198 1.199 23.331 5.083 23.331 5.083 3.863-.874 11.09-1.831 17.377-1.935 7.345-.118 13.513 5.485 14.123 12.815.443 5.326.145 12.947-2.008 23.66l.007.007Z" fill="#15A9F3"/><path d="M205.414 71.092a2.704 2.704 0 0 0-1.855 1.588 7.144 7.144 0 0 0-4.694-1.54c.124.979.803 1.804 1.571 2.414.776.61 1.655 1.061 2.437 1.664.776.604 1.468 1.408 1.62 2.386" fill="#FFBE9D"/><path d="M223.317 70.468c-1.406.153-2.223 1.859-1.904 3.239.318 1.38 1.426 2.434 2.568 3.266a3.611 3.611 0 0 0 1.219 3.28 3.613 3.613 0 0 0 3.434.645c-.506.374-.423 1.227.041 1.65.464.423 1.156.5 1.779.41.623-.09 1.219-.327 1.835-.43 1.398-.236 2.998.318 3.648 1.58.651 1.263-.083 3.128-1.488 3.315-.312.042-.637 0-.942.104-.775.257-1.003 1.366-.567 2.06.436.693 1.287 1.012 2.104 1.081-.879 1.159-.657 3.003.478 3.911 1.135.909 2.984.736 3.918-.38.603 1.955 3.081 3.064 4.943 2.225 1.863-.846 2.659-3.446 1.586-5.187 1.371-.61 2.395-1.962 2.603-3.446.215-1.491-.388-3.072-1.53-4.043.831-.707 1.675-1.429 2.271-2.344.595-.915.927-2.066.63-3.114-.298-1.054-1.35-1.914-2.43-1.76.56-.784.644-1.887.207-2.747a2.716 2.716 0 0 0-2.333-1.456c-.166-1.852-1.668-3.495-3.496-3.828-1.828-.333-3.807.686-4.617 2.358-.097-1.283-1.551-2.15-2.818-1.942-1.267.208-2.264 1.241-2.825 2.4.305-1.505-.851-3.156-2.367-3.37-1.524-.216-3.088 1.04-3.213 2.572.277-.687-.353-1.553-1.094-1.505-.74.049-1.246.992-.879 1.637" fill="#022749"/><path d="M232.808 86.147c.014-.055.201-.028.457-.139.242-.097.561-.374.595-.748.028-.375-.242-.7-.47-.833-.229-.145-.423-.152-.43-.208-.013-.041.201-.145.54-.027.312.104.748.499.72 1.095-.062.59-.553.909-.879.964-.353.063-.547-.07-.526-.11l-.007.006Z" fill="#EB996E"/><path d="m229.658 82.638.146 4.154c0 .18.013.36.103.513.153.257.52.333.797.208.276-.118.463-.388.56-.672.097-.285.111-.59.139-.888.111-1.435.408-2.857.872-4.216-.962-.375-2.181.152-2.561 1.116M231.645 124.634c-.034.09-3.074-.95-6.791-2.33-3.718-1.38-6.702-2.573-6.667-2.663.034-.09 3.074.95 6.791 2.33 3.718 1.38 6.702 2.572 6.667 2.663ZM232.801 107.505s.277.077.727.319c.45.243 1.073.652 1.745 1.283a9.508 9.508 0 0 1 1.931 2.573 9.124 9.124 0 0 1 .997 3.814 9.73 9.73 0 0 1-.651 3.89c-.45 1.137-1.059 2.067-1.689 2.739-.63.68-1.322 1.047-1.834 1.158a1.997 1.997 0 0 1-.596.056c-.138-.014-.207-.028-.2-.042 0-.034.29 0 .761-.145.471-.139 1.101-.52 1.682-1.193a9.135 9.135 0 0 0 1.565-2.691 9.747 9.747 0 0 0 .602-3.751 9.113 9.113 0 0 0-.934-3.676 9.871 9.871 0 0 0-1.814-2.538c-1.267-1.269-2.326-1.719-2.285-1.782l-.007-.014ZM232.317 107.741s-.429-.062-1.191-.243c-.817-.201-1.897-.464-3.205-.783-2.763-.694-6.466-1.63-10.565-2.663-4.105-1.012-7.816-1.935-10.578-2.614-1.309-.326-2.389-.597-3.206-.798-.754-.194-1.17-.312-1.163-.34.007-.027.43.049 1.198.202.768.152 1.869.388 3.233.686 2.728.603 6.48 1.477 10.606 2.517a482.31 482.31 0 0 1 10.544 2.767c1.301.368 2.375.673 3.178.902.747.222 1.156.353 1.156.381l-.007-.014ZM227.63 163.737s-.021-.132-.028-.381c0-.291-.014-.652-.021-1.096-.007-.957 0-2.337.014-4.043.035-3.411.152-8.127.374-13.328.228-5.201.526-9.909.782-13.307.132-1.699.243-3.079.34-4.029.048-.444.083-.804.11-1.096.028-.249.049-.381.063-.381.013 0 .013.132.007.381-.014.292-.028.652-.049 1.096-.055 1.006-.131 2.372-.221 4.036-.194 3.405-.45 8.106-.679 13.307a881.33 881.33 0 0 0-.478 13.314c-.055 1.665-.097 3.031-.131 4.036-.021.444-.035.805-.049 1.096-.013.25-.027.381-.041.381l.007.014Z" fill="#022749"/><path d="M237.322 103.303c.028.111-1.689.437-3.461 1.56-1.793 1.103-2.839 2.497-2.929 2.427-.083-.034.873-1.581 2.735-2.732 1.848-1.165 3.662-1.338 3.655-1.248v-.007Z" fill="#022749"/><path d="M244.681 103.171c0 .056-.983.091-2.568.174-1.586.083-3.78.222-6.189.471-2.41.25-4.584.562-6.155.805-1.572.242-2.541.409-2.555.353 0-.027.229-.097.665-.201a33.857 33.857 0 0 1 1.841-.402 68.018 68.018 0 0 1 6.162-.915 68.65 68.65 0 0 1 6.217-.368c.796-.007 1.44 0 1.89.014.443.014.692.042.692.062v.007ZM251.729 179.957c.02.097-4.023.978-9.028 1.962-5.005.985-9.076 1.706-9.097 1.609-.021-.097 4.022-.978 9.028-1.962 5.005-.985 9.076-1.706 9.097-1.609ZM218.851 225.933c-.097-.007 1.122-13.661 2.728-30.491 1.606-16.837 2.984-30.47 3.081-30.457.096.007-1.122 13.661-2.728 30.491s-2.984 30.464-3.081 30.457ZM220.887 226.196c-.097-.007.997-13.827 2.451-30.865 1.453-17.045 2.707-30.845 2.81-30.838.097.007-.997 13.827-2.45 30.872-1.454 17.039-2.707 30.845-2.811 30.838v-.007Z" fill="#022749"/><path d="M115.379 265.57a9.622 9.622 0 0 0 5.975-8.938c-.007-5.312-4.265-9.618-9.506-9.605-5.233.007-9.477 4.327-9.463 9.639a9.59 9.59 0 0 0 6.099 8.946c-14.58 2.177-13.832 17.267-13.832 17.267l34.518-.063s.692-15.256-13.784-17.246h-.007ZM86.04 81.557l-.776 1.047c-5.712 7.732.187 14.347 1.51 15.665l17.625-17.718c-.588-.576-2.264-2.08-4.569-3.058-3.842-1.63-7.553-1.117-11.028 1.526l-1.032.783.506-1.2c1.08-2.558.498-5.485-1.475-7.461-2.652-2.649-6.937-2.67-9.547-.049a6.648 6.648 0 0 0-1.938 4.771 6.822 6.822 0 0 0 2.014 4.792c2.001 1.997 4.95 2.552 7.519 1.422l1.19-.527v.007Z" fill="#15A9F3"/><path d="M161.39 37.002a4.586 4.586 0 0 0-4.957-1.31c-2.395.832-3.669 3.419-2.852 5.79.817 2.365 3.42 3.613 5.815 2.788a4.592 4.592 0 0 0 3.088-4.147c3.247 6.255 9.934 3.571 9.934 3.571l-5.386-15.602s-6.985 2.06-5.635 8.917l-.007-.007Z" fill="#022749"/><path d="m151.379 74.09-8.393-12.505a2.31 2.31 0 0 0-3.209-.63l-12.485 8.407a2.318 2.318 0 0 0-.629 3.214l8.393 12.506a2.31 2.31 0 0 0 3.209.63l12.485-8.407a2.32 2.32 0 0 0 .629-3.214ZM82.823 34.14l-5.594-3.236a2.31 2.31 0 0 0-3.159.848l-3.23 5.603a2.318 2.318 0 0 0 .847 3.164l5.594 3.235a2.31 2.31 0 0 0 3.159-.848l3.23-5.603a2.318 2.318 0 0 0-.847-3.164Z" fill="#15A9F3"/><path d="M120.308 54.013c-.865-2.316-2.492-6.574-2.866-6.754-.505-.243-5.033 1.324-5.033 1.324s.035.97-.92-2.566c-.956-3.536-3.047-2.663-3.047-2.663l.921 2.636-1.599 5.069-1.378.485 2.901 8.28 2.382-.84s6.071-1.143 7.193-1.539c.159-.055.318-.138.463-.235 1.046-.68 1.413-2.032.977-3.204l.006.007ZM102.198 52.21l4.008 8.73 2.354-.832-3.095-8.848-3.267.95ZM44.854 47.71l-1.987-2.865.298-.908-5.448-1.81-.52 1.574s-1.834 3.613-2.084 4.362a1.346 1.346 0 0 0-.062.333c-.069.811.492 1.546 1.267 1.789 1.544.478 4.41 1.338 4.646 1.22.332-.166 1.329-3.148 1.329-3.148s-.52-.367 1.696.548c2.215.922 2.596-.513 2.596-.513l-1.738-.576.007-.007ZM44.508 41.49l-6.127-1.416-.52 1.56 5.83 1.935.817-2.08ZM109.55 1.99s-.215-.256-.775-.45a1.872 1.872 0 0 0-1.067-.035 1.906 1.906 0 0 0-1.156.832c-.304.465-.297 1.116-.415 1.803-.097.686-.201 1.428-.312 2.233-.11.804-.235 1.657-.36 2.566a2.065 2.065 0 0 1-.734 1.269c-.193.166-.436.277-.657.388l-.672.333c-.907.45-1.862.929-2.852 1.421-.492.25-.997.5-1.51.756-.47.25-.83.721-.913 1.276-.097.541.062 1.144.464 1.553.2.208.429.354.727.486l.851.416c1.142.562 2.319 1.144 3.517 1.74.305.16.595.27.921.479.304.208.561.492.72.832.173.34.208.721.256 1.054.048.347.097.694.152 1.04.201 1.394.409 2.816.616 4.265a1.8 1.8 0 0 0 1.191 1.498 1.764 1.764 0 0 0 1.876-.458c1.053-1.082 2.126-2.177 3.206-3.287l.81-.832a2.184 2.184 0 0 1 1.059-.63c.401-.119.851-.056 1.205.02.373.062.747.132 1.121.194 1.489.257 2.949.506 4.389.756a1.733 1.733 0 0 0 1.71-.763 1.77 1.77 0 0 0 .104-1.844l-1.911-3.662c-.304-.61-.623-1.158-.913-1.796a2.117 2.117 0 0 1-.097-1.04c.041-.347.221-.673.367-.943.595-1.124 1.176-2.22 1.737-3.273.485-1.068 1.392-2.053.969-3.08a1.904 1.904 0 0 0-1.003-1.08 1.958 1.958 0 0 0-.713-.147c-.236.007-.492.056-.741.098-2.001.332-3.815.63-5.414.894a2.044 2.044 0 0 1-1.191-.215c-.36-.173-.609-.478-.838-.714-.477-.5-.913-.957-1.308-1.366-.768-.812-1.371-1.45-1.8-1.9-.194-.208-.346-.375-.464-.5-.104-.11-.152-.173-.145-.18 0 0 .062.049.173.153.125.118.284.277.485.478.436.444 1.059 1.061 1.848 1.859.401.409.845.853 1.329 1.345.249.25.478.52.803.673.319.159.699.228 1.08.18 1.593-.278 3.399-.597 5.393-.943.25-.042.499-.097.783-.111.277 0 .56.048.823.16.527.221.963.672 1.164 1.227a2.14 2.14 0 0 1-.153 1.754c-.27.513-.54 1.033-.817 1.56-.554 1.061-1.128 2.157-1.717 3.287-.339.534-.457 1.145-.249 1.727.249.555.596 1.158.9 1.747.623 1.193 1.267 2.414 1.918 3.655.367.673.332 1.56-.125 2.205-.429.652-1.26 1.04-2.049.916-1.44-.25-2.908-.5-4.403-.756-.374-.063-.748-.132-1.122-.194-.387-.077-.713-.118-1.059-.028-.339.09-.644.27-.886.534l-.81.832c-1.08 1.11-2.153 2.205-3.205 3.287-.561.603-1.489.832-2.25.54-.776-.256-1.343-.998-1.42-1.782-.207-1.449-.408-2.87-.609-4.264l-.145-1.04c-.056-.354-.076-.673-.222-.957a1.75 1.75 0 0 0-.609-.7c-.249-.16-.588-.306-.879-.458-1.205-.597-2.375-1.186-3.51-1.755-.284-.139-.568-.284-.845-.423-.277-.125-.588-.312-.81-.555-.47-.485-.644-1.185-.533-1.816.097-.638.533-1.193 1.073-1.477.52-.257 1.025-.507 1.523-.75.997-.485 1.953-.95 2.866-1.4.444-.236.942-.41 1.288-.68.353-.284.589-.693.658-1.116.138-.902.27-1.755.388-2.559.124-.797.235-1.54.339-2.226.124-.666.124-1.338.464-1.852.325-.499.817-.77 1.253-.86.436-.096.83-.041 1.114.07.284.11.478.25.589.354.111.11.166.166.159.166l.007-.014ZM47.18 66.647l1.953 2.011a.927.927 0 0 0 .83.27l2.763-.47a.936.936 0 0 1 .983 1.365L52.4 72.306a.93.93 0 0 0 0 .874l1.302 2.482a.938.938 0 0 1-.99 1.36l-2.762-.48a.927.927 0 0 0-.831.271l-1.96 2.004a.938.938 0 0 1-1.599-.52l-.401-2.773a.936.936 0 0 0-.512-.708l-2.506-1.241c-.7-.347-.693-1.338 0-1.685l2.513-1.234a.936.936 0 0 0 .512-.708l.408-2.774a.938.938 0 0 1 1.6-.52l.007-.007ZM126.546 95.086l.436 2.773a.94.94 0 0 0 .519.7l2.527 1.215c.7.339.713 1.331.021 1.685l-2.499 1.269a.936.936 0 0 0-.505.714l-.374 2.781c-.104.769-1.046 1.088-1.593.54l-1.98-1.983a.92.92 0 0 0-.83-.263l-2.756.506a.94.94 0 0 1-1.004-1.352l1.274-2.497a.947.947 0 0 0-.007-.874l-1.329-2.468c-.367-.687.208-1.498.969-1.373l2.763.444a.93.93 0 0 0 .823-.278l1.932-2.032c.533-.561 1.482-.263 1.606.5l.007-.007Z" fill="#022749"/><path d="M107.959 132.271V160l8.626-31.171" fill="#15A9F3"/><path d="m142.068 118.002-31.549.406a.167.167 0 0 0-.081.017.205.205 0 0 0-.07.059l-2.359 2.727a.07.07 0 0 0-.015.03.078.078 0 0 0 .002.037.05.05 0 0 0 .017.027.033.033 0 0 0 .026.008l18.6-.378a.094.094 0 0 1 .088.028.172.172 0 0 1 .048.103.205.205 0 0 1-.021.118.12.12 0 0 1-.077.064l-24.284 6.479c-.009.001-.016.006-.023.014l-8.314 9.627a.338.338 0 0 0-.022.334c.025.05.063.088.106.105a.15.15 0 0 0 .133-.01l47.871-19.291a.207.207 0 0 0 .109-.114.331.331 0 0 0 .024-.185.273.273 0 0 0-.075-.157.153.153 0 0 0-.134-.048Z" fill="#15A9F3"/><path d="M108 121.267v4.963l20.565-5.496-20.565.533Z" fill="#15A9F3"/></g><defs><clipPath id="a"><path fill="#fff" d="M0 0h292v300H0z"/></clipPath></defs></svg>