<svg width="290" height="182" fill="none" xmlns="http://www.w3.org/2000/svg"><g clip-path="url(#a)"><path d="M108.674 173.478c-2.275-5.231-6.499-9.579-11.653-11.999-5.153-2.419-16.658-1.297-16.658-1.297l-30.226-.06c.616 2.663 2.587 9.496 4.06 11.794 1.47 2.302 3.642 4.239 6.268 4.983 3.209.91 6.608-.03 9.938-.248 5.857-.378 11.592 1.519 17.232 3.147 5.64 1.632 11.622 3.02 17.327 1.632 1.62-.392 3.317-1.119 4.103-2.59.873-1.636.352-3.66-.391-5.362Z" fill="#E0E0E0"/><path d="M15.864 66.062s-3.438-.248-3.121 7.481c.317 7.73 1.102 11.851 1.102 11.851s-.1 1.715-1.424 1.38c-1.324-.335-3.816-2.006-5.045-.757-1.276 1.292-.82 3.277.869 5.614 1.693 2.337 5.214 7.59 5.531 8.069.313.466.434 1.345-.504 1.262-.938-.083-7.276-2.237-8.114.84-.838 3.077 4.945 8.809 5.566 9.449.62.64.655 1.04.404 1.427-.252.388-2.314-.539-4.142-1.075-1.828-.539-4.042-.84-4.377.975-.334 1.815 2.21 7.129 11.749 12.709l4.589 2.298 4.341-2.777c8.935-6.511 10.937-12.051 10.424-13.823-.516-1.771-2.687-1.249-4.45-.531-1.762.718-3.725 1.846-4.011 1.489-.291-.361-.296-.766.256-1.463.551-.696 5.735-6.98 4.593-9.957-1.142-2.977-7.233-.201-8.158-.022-.924.178-.89-.705-.625-1.206.27-.505 3.248-6.088 4.698-8.582 1.45-2.494 1.706-4.513.304-5.671-1.35-1.119-3.66.792-4.945 1.258-1.285.465-1.555-1.228-1.555-1.228s.374-4.178-.082-11.899c-.456-7.725-3.933-7.102-3.933-7.102" fill="#EBEBEB"/><path d="M16.138 72.986s.008.057.017.161c.009.113.022.27.035.475a687.47 687.47 0 0 1 .517 8.543c.312 5.675.681 13.518 1.059 22.179.378 8.665.725 16.508 1.007 22.183.143 2.833.26 5.127.343 6.72l.091 1.828c.009.204.013.361.018.474v.161s-.01-.057-.018-.161c-.009-.113-.021-.27-.035-.474-.03-.427-.069-1.041-.121-1.824a685.912 685.912 0 0 1-.395-6.72c-.313-5.675-.682-13.518-1.06-22.183-.377-8.66-.725-16.503-1.007-22.179-.143-2.833-.26-5.126-.343-6.72-.039-.787-.07-1.4-.09-1.827-.01-.205-.014-.362-.018-.475v-.16Z" fill="#E0E0E0"/><path d="M10.767 88.489s.109.078.287.24c.178.16.425.4.73.7.603.6 1.419 1.453 2.3 2.411.864.944 1.641 1.802 2.245 2.463.269.292.495.54.681.745.161.174.248.274.24.282-.01.01-.11-.074-.287-.235-.178-.16-.426-.4-.725-.705-.6-.609-1.403-1.47-2.284-2.428l-2.262-2.446c-.27-.292-.5-.535-.686-.74-.16-.174-.248-.278-.239-.287ZM17.7 95.178c-.034-.035 1.646-1.797 3.748-3.934 2.105-2.142 3.837-3.843 3.872-3.813.035.035-1.64 1.798-3.747 3.935-2.105 2.136-3.838 3.843-3.872 3.812ZM17.684 108.509s.108-.083.32-.205c.244-.139.544-.304.9-.505a77.452 77.452 0 0 0 5.783-3.555l.855-.575c.204-.135.317-.204.325-.191.01.013-.095.1-.286.248-.191.152-.473.365-.825.618a43.698 43.698 0 0 1-2.835 1.889 47.632 47.632 0 0 1-2.961 1.675c-.386.2-.703.353-.925.457-.221.105-.347.153-.351.144ZM10.081 103.843s.117.044.317.148c.2.105.482.266.834.462.699.396 1.658.957 2.709 1.584 1.055.627 2.001 1.205 2.683 1.632.343.213.617.387.803.513.187.127.287.196.282.209-.004.009-.117-.043-.317-.148-.2-.104-.482-.265-.833-.461-.7-.396-1.659-.957-2.71-1.584a145.806 145.806 0 0 1-2.682-1.632 27.09 27.09 0 0 1-.804-.514c-.186-.126-.286-.196-.282-.209ZM8.574 115.607s.148.061.404.196c.282.157.643.353 1.068.592.899.505 2.132 1.214 3.49 2.006 1.36.792 2.584 1.519 3.465 2.05l1.042.64c.243.152.374.244.37.257-.005.009-.148-.061-.404-.196-.283-.157-.643-.353-1.069-.592a273.774 273.774 0 0 1-3.49-2.006 288.1 288.1 0 0 1-3.465-2.05c-.416-.257-.764-.47-1.042-.64-.243-.152-.373-.244-.369-.257ZM18.213 121.143s.134-.104.4-.27c.29-.178.668-.404 1.115-.679.942-.574 2.24-1.375 3.647-2.293a130.203 130.203 0 0 0 3.569-2.416l1.072-.748c.256-.174.4-.266.404-.257.008.009-.122.122-.365.313-.243.192-.595.466-1.042.793a73.628 73.628 0 0 1-3.547 2.463 73.145 73.145 0 0 1-3.682 2.254 31.5 31.5 0 0 1-1.146.631c-.273.144-.425.218-.434.209h.009ZM25.108 129.082H12.413l4.146 31.44h4.407l4.142-31.44Z" fill="#E0E0E0"/><path d="M13.073 132.946s.013.044.07.114a.78.78 0 0 0 .308.217c.3.131.83.144 1.341-.165.513-.283.96-.84 1.646-1.088.682-.261 1.524-.213 2.336.048.82.252 1.528.67 2.175 1.057.647.383 1.237.727 1.767.949a4.98 4.98 0 0 0 1.302.379c.161.021.283.026.37.026.082 0 .13 0 .13-.009.008-.043-.717-.035-1.741-.527-.513-.235-1.09-.587-1.728-.979-.639-.396-1.368-.827-2.21-1.088-.834-.27-1.732-.318-2.466-.026a3.222 3.222 0 0 0-.93.575c-.26.213-.49.417-.724.565-.465.301-.951.314-1.238.214-.29-.101-.386-.275-.403-.257l-.005-.005ZM13.538 138.735s.1-.131.3-.34c.204-.2.534-.465 1.015-.644.478-.183 1.09-.291 1.767-.265.682.021 1.42.174 2.21.3.786.131 1.568.192 2.262.096a6.398 6.398 0 0 0 1.78-.509 5.34 5.34 0 0 0 1.068-.64c.235-.179.348-.296.339-.305-.022-.035-.512.405-1.468.81a6.445 6.445 0 0 1-1.745.452c-.677.083-1.424.022-2.205-.109-.782-.126-1.533-.274-2.236-.287-.704-.017-1.337.113-1.828.322-.495.205-.83.501-1.02.727a1.9 1.9 0 0 0-.191.283c-.04.07-.052.104-.048.109ZM23.671 141.834s-.113-.087-.351-.183a3.54 3.54 0 0 0-1.051-.226 6.638 6.638 0 0 0-1.59.091c-.59.096-1.228.261-1.892.4-.664.14-1.307.235-1.889.214a4.135 4.135 0 0 1-1.502-.327c-.816-.361-1.107-.883-1.137-.849-.009.005.047.135.212.331.165.196.448.444.864.649.413.204.947.352 1.555.383.607.035 1.267-.061 1.94-.2.673-.144 1.303-.314 1.885-.418a7.603 7.603 0 0 1 1.55-.135c.89.03 1.398.3 1.41.261l-.004.009ZM14.657 146.195c.005.034.452-.283 1.233-.127.382.07.808.261 1.29.483a4.925 4.925 0 0 0 1.676.462 4.986 4.986 0 0 0 3.034-.705c.348-.209.59-.431.756-.584.156-.165.234-.261.221-.269-.026-.031-.36.343-1.05.726-.682.379-1.75.74-2.944.627-1.203-.069-2.123-.788-2.957-.883-.408-.061-.746 0-.96.082-.212.083-.303.179-.299.188ZM15.365 152.231c0 .022.426.022 1.06-.209.638-.213 1.428-.705 2.348-1.071.465-.178.925-.287 1.35-.282.422 0 .8.104 1.086.248.582.291.751.705.786.679.008 0-.018-.109-.122-.27a1.717 1.717 0 0 0-.595-.54 2.472 2.472 0 0 0-1.15-.309c-.456-.013-.947.096-1.424.279-.955.383-1.72.887-2.332 1.127-.603.261-1.011.313-1.002.348h-.005ZM15.986 155.038c-.009.026.295.135.803.261s1.216.261 2.01.34a15.1 15.1 0 0 0 2.036.061c.521-.026.843-.074.838-.1 0-.061-1.285-.009-2.856-.166-1.572-.152-2.818-.457-2.836-.396h.005ZM252.568 75.955l-38.605 8.842 5.945 26.085 38.605-8.842-5.945-26.085Z" fill="#F5F5F5"/><path d="M252.766 76.229s-.087.156-.282.43c-.217.3-.504.697-.86 1.193-.781 1.058-1.875 2.533-3.217 4.343-2.766 3.674-6.551 8.705-10.75 14.276l-.087.117-.134-.065c-.1-.048-.213-.1-.321-.157l-16.268-7.916c-2.05-1.014-3.717-1.846-4.911-2.438-.551-.282-.994-.509-1.328-.678-.3-.157-.456-.249-.452-.257.005-.013.174.056.482.191.343.157.795.361 1.355.618 1.207.566 2.891 1.362 4.962 2.333 4.207 2.015 9.955 4.774 16.312 7.82.108.053.221.105.321.157l-.222.053c4.229-5.545 8.045-10.554 10.833-14.21 1.38-1.78 2.505-3.234 3.308-4.274.378-.479.682-.862.912-1.149.212-.261.325-.392.338-.387h.009Z" fill="#E0E0E0"/><path d="M220.105 111.155c-.087-.043 2.002-4.287 4.663-9.47 2.666-5.188 4.893-9.353 4.984-9.305.087.043-2.001 4.287-4.663 9.47-2.661 5.184-4.893 9.353-4.984 9.305ZM242.512 89.111c.06-.078 3.742 2.816 8.214 6.459 4.476 3.647 8.049 6.663 7.988 6.741-.061.079-3.738-2.816-8.214-6.458-4.472-3.643-8.049-6.663-7.988-6.737v-.005Z" fill="#E0E0E0"/><path d="M80.593 5.029 77.053 20.4l22.75 5.265 3.541-15.372-22.75-5.265Z" fill="#F5F5F5"/><path d="M103.381 10.502s-.087.06-.261.156c-.191.105-.447.24-.759.41-.686.357-1.646.857-2.822 1.475-2.41 1.236-5.71 2.929-9.365 4.8l-.078.04-.052-.07-.13-.165c-2.57-3.273-4.898-6.233-6.6-8.396l-1.98-2.559c-.221-.291-.395-.526-.53-.7a2.101 2.101 0 0 1-.173-.253c.004-.004.078.074.209.226.143.17.33.396.56.68L83.43 8.66c1.715 2.154 4.055 5.1 6.647 8.356.044.057.091.113.13.166l-.13-.031c3.665-1.85 6.977-3.525 9.395-4.744 1.19-.587 2.158-1.07 2.853-1.414l.781-.375c.178-.082.274-.126.278-.117h-.004Z" fill="#E0E0E0"/><path d="M77.09 20.603c-.035-.048 2.161-1.758 4.905-3.82 2.744-2.064 4.997-3.7 5.032-3.652.035.047-2.162 1.758-4.906 3.82-2.744 2.064-4.997 3.7-5.032 3.652ZM94.633 14.689c.052-.026 1.263 2.459 2.7 5.544 1.437 3.09 2.562 5.61 2.51 5.636-.052.027-1.264-2.459-2.7-5.544-1.438-3.086-2.562-5.61-2.506-5.636h-.004Z" fill="#E0E0E0"/><path d="m224.817 8.884-16.623 7.16 4.814 11.232 16.623-7.159-4.814-11.233Z" fill="#F5F5F5"/><path d="M224.92 8.979s-.026.078-.091.217c-.074.153-.169.353-.286.605-.265.54-.634 1.293-1.09 2.215-.942 1.88-2.232 4.453-3.656 7.303l-.03.061-.065-.017-.157-.044c-3.099-.861-5.908-1.645-7.962-2.215l-2.405-.688a45.242 45.242 0 0 0-.651-.195 1.992 1.992 0 0 1-.226-.079c0-.004.082.013.234.048.165.044.387.096.66.165.591.157 1.411.375 2.423.64 2.053.557 4.867 1.323 7.971 2.168.052.013.108.03.156.043l-.095.044c1.445-2.842 2.748-5.406 3.699-7.281l1.137-2.194c.13-.248.235-.444.317-.592.074-.135.113-.204.122-.2l-.005-.004Z" fill="#E0E0E0"/><path d="M213.111 27.37c-.044-.012.547-2.093 1.315-4.639.773-2.55 1.433-4.609 1.476-4.591.044.013-.547 2.089-1.319 4.64-.773 2.55-1.433 4.604-1.477 4.59h.005ZM221.368 15.616c.022-.04 1.911.957 4.22 2.224 2.31 1.27 4.164 2.328 4.142 2.367-.021.04-1.91-.957-4.22-2.224-2.31-1.266-4.163-2.328-4.142-2.367Z" fill="#E0E0E0"/><path d="M246.819 122.488a13.716 13.716 0 0 0-5.883-2.028c-.96-.1-2.01-.07-2.783.514-.165.121-.322.309-.287.509.026.148.152.257.274.348 2.392 1.832 6.013 2.063 8.679.657ZM246.667 122.323c-1.333-1.04-2.67-2.089-3.799-3.351-1.128-1.263-2.044-2.755-2.383-4.418-.104-.505-.135-1.079.187-1.475 3.026 2.372 5.405 5.436 5.991 9.244" fill="#15A9F3"/><path d="M246.789 122.466c-.23-1.662-.308-3.368.069-5 .382-1.632 1.268-3.195 2.657-4.126.526 1.227.3 2.637-.069 3.921a19.08 19.08 0 0 1-2.635 5.562M249.759 127.798c-1.802.217-3.374 1.171-4.715 2.393a8.947 8.947 0 0 0-2.696 4.644c1.767-.109 3.265-1.358 4.354-2.759 1.086-1.401 1.841-2.938 3.035-4.248M250.401 128.651c-1.45-3.582-.925-7.904 1.342-11.033 1.024 3.66.651 7.795-1.342 11.033ZM254.321 133.334a8.442 8.442 0 0 0-4.719 1.11 8.467 8.467 0 0 0-3.326 3.534c-.099.2-.186.452-.052.631.118.156.339.169.534.156 1.585-.104 2.992-1.057 4.151-2.145 1.159-1.088 2.171-2.346 3.451-3.286M254.199 133.077a15.056 15.056 0 0 1-.147-8.387c.295-1.079.79-2.215 1.784-2.724.087-.044.183-.083.274-.048.082.03.134.118.173.2.356.744.456 1.584.421 2.407-.034.823-.208 1.632-.377 2.437-.313 1.489-.482 3.09-1.294 4.374a8.323 8.323 0 0 0-.517.962c-.156.326-.156.44-.295.701M264.58 134.631c-.769-2.934.048-6.489 1.893-8.892.134-.178.317-.365.538-.348.339.03.426.483.413.827a16.103 16.103 0 0 1-2.84 8.413M265.519 135.271c3.555.927 7.632.026 10.589-2.159a8.536 8.536 0 0 0-5.731-.705c-1.915.439-3.665 1.297-4.858 2.864ZM266.304 133.316c1.992-3.255 5.809-5.379 9.612-5.57-.439 1.549-1.711 2.754-3.143 3.481-1.433.727-3.035 1.045-4.615 1.354-.613.117-1.455.252-1.854.735ZM264.78 123.842c.538-1.85 1.081-3.721 1.229-5.641.147-1.919-.126-3.93-1.121-5.579-1.858 3.608-2.049 7.821-.164 11.416M271.041 120.669c2.175-3.961 6.612-7.129 11.101-7.573-1.732 4.322-6.455 7.664-11.101 7.573ZM269.669 121.444c3.243.496 6.009 2.572 9.039 3.83.647.269 1.346.483 2.045.391.695-.091 1.381-.557 1.537-1.244.13-.571-.13-1.176-.538-1.593-.409-.418-.947-.679-1.485-.901-3.3-1.38-6.843-1.41-10.32-.575" fill="#15A9F3"/><path d="M267.793 123.724c.734.209.986.592 1.567 1.088a16.866 16.866 0 0 0 6.856 3.53c.26.065.603.091.733-.148.113-.209-.03-.457-.178-.644-1.055-1.323-2.557-2.224-4.137-2.816-1.58-.592-2.952-1.301-4.841-1.149M265.674 109.954c2.636 2.468 6.352 3.734 9.942 3.39.165-.017.343-.043.452-.161.252-.274-.052-.696-.343-.923-2.922-2.284-6.465-3.233-10.055-2.306" fill="#15A9F3"/><path d="M268.188 109.031c3.487-2.62 8.267-3.412 12.409-2.054-1.563 1.545-3.73 2.376-5.914 2.603-2.183.226-4.367-.014-6.495-.549ZM267.19 102.703c-.287-2.925-.1-5.236-.304-8.173-.018-.235-.065-.518-.287-.601-.304-.118-.56.257-.66.57-.868 2.707-.395 5.815 1.246 8.139" fill="#15A9F3"/><path d="M266.981 103.025c1.98-1.227 3.461-2.829 4.833-4.709.955-1.31 1.758-2.877 1.541-4.487-1.342-.026-2.614.714-3.486 1.736-.873 1.023-1.39 2.298-1.776 3.587-.387 1.288-.66 2.611-1.112 3.873ZM271.727 101.702a38.948 38.948 0 0 0 11.896-7.033c-1.42-.575-3.048-.23-4.468.344-3.247 1.314-5.896 3.53-7.489 6.654M268.314 104.627c2.197.239 4.429.396 6.604.03 2.14-.357 4.163-1.21 6.165-2.054.165-.07.347-.152.417-.318.078-.178-.005-.396-.152-.531-.143-.13-.339-.196-.526-.248-2.175-.609-4.524-.326-6.664.401-2.14.722-3.894 1.584-5.852 2.715M255.776 110.054c-1.498-3.034-1.402-6.568-.109-9.692.912 1.392 1.021 3.164.856 4.817-.165 1.659-.669 3.36-.704 5.027M249.789 107.025c-3.743-.07-7.481 1.527-10.02 4.278 1.866.296 3.79-.187 5.487-1.018 1.698-.832 3.209-1.998 4.702-3.156M245.768 105.676c-1.827-.148-3.59-.375-5.348.165-1.759.54-3.361 1.767-4.077 3.464 1.71.192 3.447-.235 5.014-.948 1.568-.714 2.996-1.702 4.411-2.681ZM251.725 105.741c-1.645-1.079-3.339-2.181-5.253-2.629-1.915-.448-4.138-.117-5.475 1.332 1.55.914 3.434 1.018 5.232 1.018 1.797 0 4.003-.021 5.7.579" fill="#15A9F3"/><path d="M251.734 105.828c-2.813-2.772-3.882-7.747-2.748-11.533a17.582 17.582 0 0 1 2.748 11.533ZM259.475 97.977c.529-1.237.903-2.538 1.38-3.796.478-1.257 1.068-2.498 1.967-3.499.899-1 2.145-1.745 3.486-1.81-.838 3.812-3.364 7.216-6.764 9.122M258.072 99.613c-.877-1.21-1.893-2.855-3.082-3.76-1.19-.906-2.744-1.454-4.194-1.106 1.48 2.65 4.272 4.518 7.281 4.866M258.355 98.077c-.578-1.467-1.155-2.947-1.39-4.51-.234-1.557-.091-3.224.704-4.582 1.545 2.929 2.04 6.071.764 9.122M259.488 88.99c.877-2.904 3.525-5.04 6.386-6.02.361-.122.743-.226 1.12-.17.378.057.747.318.825.693.104.491-.304.935-.686 1.262a21.743 21.743 0 0 1-7.65 4.234M259.518 86.613c.113-1.871.226-3.769.834-5.54.608-1.772 1.776-3.434 3.478-4.213.291 1.889-.543 3.769-1.546 5.397-1.003 1.627-2.214 3.16-2.813 4.974M259.475 87.901c-.725-2.115-.799-4.8-2.062-6.645-.882-1.289-2.297-2.168-3.057-3.53-.504 1.275-.352 2.742.178 4.008.53 1.267 1.402 2.355 2.336 3.356.933 1 1.736 1.754 2.605 2.811Z" fill="#15A9F3"/><path d="M259.488 150.185c-.057 0-.105-14.109-.109-31.509 0-17.405.039-31.51.096-31.51.056 0 .104 14.105.109 31.51 0 17.4-.039 31.509-.096 31.509Z" fill="#022749"/><path d="M271.787 107.926s-.187.082-.53.2c-.382.13-.868.296-1.454.492a82.45 82.45 0 0 0-4.745 1.78c-1.815.779-3.521 1.414-4.498 2.258a3.357 3.357 0 0 0-.903 1.197c-.139.331-.165.536-.183.531-.008 0-.004-.052.005-.148.017-.095.039-.235.104-.409.117-.348.391-.831.881-1.275.491-.448 1.173-.849 1.95-1.214a59.526 59.526 0 0 1 7.341-2.851c.621-.196 1.129-.335 1.476-.431.352-.091.547-.135.552-.122l.004-.008Z" fill="#022749"/><path d="M275.816 97.998s-.048.061-.147.157c-.122.113-.27.252-.452.427-.421.383-.99.9-1.685 1.536-1.454 1.301-3.429 3.059-5.613 5.009-2.193 1.954-4.086 3.821-5.397 5.227a73.274 73.274 0 0 0-1.528 1.689l-.408.466c-.096.104-.148.161-.152.156a.997.997 0 0 1 .121-.183c.087-.113.209-.282.378-.491.335-.423.838-1.019 1.481-1.737 1.289-1.436 3.169-3.325 5.366-5.283a687.377 687.377 0 0 1 5.653-4.966l1.728-1.489c.191-.16.351-.291.477-.396.109-.087.169-.135.174-.126l.004.004Z" fill="#022749"/><path d="M265.557 107.112c-.056-.026.4-1.084.856-2.424.46-1.341.677-2.468.734-2.459.052.004-.079 1.17-.543 2.524-.23.679-.482 1.271-.682 1.697-.2.422-.343.675-.369.662h.004ZM259.501 115.651s-.131-.131-.339-.392c-.23-.296-.521-.666-.864-1.11-.725-.94-1.732-2.241-2.857-3.66-1.124-1.423-2.162-2.698-2.909-3.621-.351-.439-.651-.805-.885-1.097-.209-.261-.317-.409-.304-.417.009-.009.139.121.365.365.225.244.542.605.933 1.053a116.099 116.099 0 0 1 5.774 7.29c.348.483.625.875.812 1.149.187.274.287.431.274.44Z" fill="#022749"/><path d="M256.805 112.182c-.035.035-.751-.818-1.129-2.119-.278-.919-.291-1.754-.256-2.137l.091.008c-.039.166-.069.248-.087.248-.017 0-.017-.095 0-.261l.092.009c.034.379.091 1.188.36 2.08.365 1.258.99 2.146.933 2.181l-.004-.009ZM253.323 107.791c-.026.03-.256-.266-.79-.462-.526-.204-1.32-.248-2.188-.174-.873.066-1.65.218-2.206.357-.556.14-.899.248-.907.218-.009-.026.312-.183.868-.357a10.032 10.032 0 0 1 2.227-.422c.882-.074 1.715-.009 2.258.244.551.243.751.587.733.591l.005.005ZM252.498 106.729c-.017.03-.46-.183-1.207-.44a12.589 12.589 0 0 0-3.013-.622 12.39 12.39 0 0 0-3.074.157c-.777.139-1.25.287-1.259.252 0-.013.109-.061.322-.135.208-.078.521-.17.911-.257a10.695 10.695 0 0 1 6.165.475c.374.148.669.283.864.391.196.109.304.17.296.183l-.005-.004ZM259.475 102.229c-.057.013-.448-1.363-.882-3.069-.434-1.71-.738-3.107-.686-3.12.057-.013.447 1.358.882 3.068.434 1.711.738 3.103.686 3.121Z" fill="#022749"/><path d="M259.531 102.229c-.061.021-.313-.897-.977-1.837-.647-.957-1.467-1.44-1.437-1.488.009-.022.239.06.556.287.317.222.712.596 1.05 1.084.686.974.86 1.949.812 1.954h-.004ZM259.488 142.665c-.022 0-.065-.34-.221-.94-.157-.601-.452-1.449-.942-2.442-.973-1.993-2.744-4.517-4.989-7.046-1.116-1.275-2.197-2.481-3.113-3.634-.92-1.149-1.676-2.246-2.227-3.216a15.886 15.886 0 0 1-1.124-2.39 10.313 10.313 0 0 1-.222-.683c-.043-.157-.065-.244-.056-.244.017-.004.121.322.351.897.23.574.608 1.393 1.173 2.341.564.953 1.324 2.033 2.249 3.173.92 1.14 2.001 2.337 3.121 3.617 2.253 2.537 4.02 5.092 4.967 7.12.477 1.01.755 1.876.886 2.485.065.305.108.544.125.709.022.161.027.249.022.249v.004ZM270.602 130.083s-.204.122-.582.326c-.373.209-.903.535-1.511 1.001a17.518 17.518 0 0 0-1.984 1.815 39.699 39.699 0 0 0-2.145 2.511c-1.463 1.841-2.835 3.469-3.651 4.77-.417.644-.72 1.188-.916 1.571-.2.379-.304.597-.321.588a.8.8 0 0 1 .052-.166c.043-.104.104-.261.195-.457.178-.396.465-.953.869-1.61.794-1.332 2.153-2.981 3.616-4.822.734-.918 1.459-1.776 2.171-2.516a15.919 15.919 0 0 1 2.032-1.797 10.89 10.89 0 0 1 1.558-.958c.191-.095.352-.156.456-.2a.605.605 0 0 1 .165-.056h-.004Z" fill="#022749"/><path d="M270.819 134.165c0 .03-.469.087-1.233.178-.76.101-1.815.227-2.922.575a8.828 8.828 0 0 0-2.613 1.375c-.604.466-.886.853-.916.832-.009-.009.047-.114.182-.283.13-.174.347-.405.643-.658.586-.509 1.51-1.088 2.644-1.458 1.133-.361 2.201-.465 2.969-.526.769-.057 1.242-.061 1.246-.035Z" fill="#022749"/><path d="M263.499 136.676c-.065-.035.491-.888.921-2.028.404-1.153.499-2.163.569-2.154.026 0 .026.257-.022.661a6.847 6.847 0 0 1-.361 1.558 7.88 7.88 0 0 1-.712 1.432c-.221.344-.373.544-.399.527l.004.004ZM274.201 119.12s-.065.043-.195.104l-.577.265c-.252.109-.56.249-.908.431-.347.179-.755.366-1.176.618-.213.122-.439.248-.673.383-.235.135-.465.292-.708.449-.495.3-.99.67-1.52 1.048a28.117 28.117 0 0 0-3.173 2.799 28.731 28.731 0 0 0-2.683 3.277c-.361.544-.712 1.053-.995 1.558-.143.253-.295.488-.421.727l-.36.688c-.239.431-.408.844-.577 1.201-.17.352-.3.666-.4.923-.1.239-.178.435-.243.587-.056.135-.091.205-.1.2-.009 0 .013-.074.061-.213.056-.161.121-.357.208-.605.087-.261.204-.583.369-.94.157-.361.322-.779.552-1.219.113-.222.23-.457.347-.696.122-.239.274-.483.412-.735.278-.514.63-1.032.986-1.58a27.272 27.272 0 0 1 2.692-3.312 27.245 27.245 0 0 1 3.208-2.808c.539-.378 1.038-.744 1.541-1.04.248-.152.482-.309.721-.439.239-.131.465-.253.682-.375.43-.248.842-.426 1.198-.596.352-.174.669-.3.925-.4l.595-.231c.134-.052.208-.074.212-.065v-.004Z" fill="#022749"/><path d="M265.405 125.03s.078-.344.482-.723c.395-.374 1.112-.722 1.95-.748.833-.022 1.558.213 2.049.4.495.196.786.353.777.379-.013.03-.321-.083-.821-.24-.499-.152-1.207-.356-1.997-.335-.786.026-1.467.327-1.862.653-.404.327-.547.631-.578.614ZM264.089 126.388c-.056-.031.439-.762.552-1.806.13-1.045-.187-1.868-.126-1.885.022-.009.134.183.23.527.095.339.161.84.096 1.384a3.692 3.692 0 0 1-.413 1.323c-.174.313-.326.474-.343.457h.004ZM249.767 144.684c.304 5.393 1.923 10.876 4.415 16.421h10.841c2.379-5.488 3.886-10.963 4.155-16.421h-19.411Z" fill="#022749"/><path d="M267.424 153.41c0 .057-3.569.101-7.971.101-4.403 0-7.972-.044-7.972-.101 0-.056 3.569-.1 7.972-.1 4.402 0 7.971.044 7.971.1ZM267.181 155.365c0 .056-3.347.1-7.472.1-4.124 0-7.472-.044-7.472-.1 0-.057 3.348-.101 7.472-.101 4.125 0 7.472.044 7.472.101Z" fill="#FAFAFA"/><path d="M219.171 47.87H64.881c-3.494 0-6.326 2.839-6.326 6.34v97.986c0 3.502 2.832 6.341 6.325 6.341h154.291c3.494 0 6.326-2.839 6.326-6.341V54.211c0-3.502-2.832-6.341-6.326-6.341Z" fill="#022749"/><path d="M52.03 151.387h180.865v1.936c0 4.274-3.46 7.747-7.728 7.747H59.757c-4.263 0-7.728-3.468-7.728-7.747v-1.936ZM220.548 52.265H63.035v93.455h157.513V52.265Z" fill="#022749"/><path d="m125.567 150.351 2.245 3.577h31.585l2.084-3.577h-35.914Z" fill="#022749"/><path d="M67.703 55.43h148.504c.785 0 1.419.64 1.419 1.423v87.144c0 .787-.638 1.423-1.419 1.423H67.703c-.786 0-1.42-.64-1.42-1.423V56.853c0-.788.638-1.424 1.42-1.424Z" fill="#EBEBEB"/><path d="M217.466 145.555H66.118l.165-83.401h151.183v83.401Z" fill="#FAFAFA"/><path d="M78.696 58.907c0 .67-.543 1.21-1.207 1.21a1.211 1.211 0 0 1-1.207-1.21c0-.666.543-1.21 1.207-1.21s1.207.544 1.207 1.21ZM71.367 58.907c0 .67-.543 1.21-1.207 1.21a1.211 1.211 0 0 1-1.207-1.21c0-.666.543-1.21 1.207-1.21s1.207.544 1.207 1.21ZM74.884 58.907c0 .67-.543 1.21-1.207 1.21a1.211 1.211 0 0 1-1.207-1.21c0-.666.542-1.21 1.207-1.21.664 0 1.207.544 1.207 1.21ZM224.06 150.351c0 .061-37.051.109-82.75.109-45.7 0-82.76-.048-82.76-.109s37.047-.109 82.76-.109c45.712 0 82.75.048 82.75.109Z" fill="#022749"/><path d="m114.743 94.734 61.577-.574 1.802 41.959-63.761-.457.382-40.928Z" fill="#15A9F3"/><path d="m114.743 94.734 29.093-23.697a3.342 3.342 0 0 1 4.229.004L176.32 94.16" fill="#15A9F3"/><path d="m114.743 94.734 29.093-23.697a3.342 3.342 0 0 1 4.229.004L176.32 94.16" fill="#022749" opacity=".3"/><path d="M114.361 135.662c-.078-.074 4.841-5.479 10.984-12.073 6.144-6.598 11.189-11.886 11.263-11.812.078.074-4.841 5.475-10.985 12.073-6.143 6.594-11.184 11.882-11.262 11.812ZM178.122 136.119c-.078.07-4.889-5.205-10.746-11.786-5.857-6.58-10.541-11.968-10.463-12.038.078-.069 4.889 5.205 10.745 11.786 5.857 6.576 10.542 11.969 10.464 12.038Z" fill="#022749"/><path d="m176.32 94.16-30.869 24.825-30.708-24.25" fill="#022749" opacity=".5"/><path d="m117.852 97.02-.139-19.277 53.918-.753.651 20.286-26.835 21.382-27.595-21.639Z" fill="#FAFAFA"/><path d="M117.852 97.02s.178.13.512.382c.335.261.829.64 1.472 1.136 1.289 1.001 3.174 2.468 5.579 4.343l20.093 15.699h-.113c7.728-6.167 16.897-13.483 26.822-21.4l-.043.091c-.126-3.869-.256-7.93-.387-12.06-.086-2.78-.178-5.527-.264-8.22l.112.108c-21.725.287-40.889.54-53.918.71l.07-.075c.026 6.063.048 10.877.065 14.18 0 1.65.004 2.92.009 3.786v.98c0 .222-.009.335-.009.335s-.009-.11-.013-.327c0-.222-.009-.548-.017-.97-.009-.862-.026-2.133-.044-3.778-.03-3.312-.078-8.134-.134-14.206v-.073h.069c13.025-.192 32.188-.475 53.914-.793h.108v.11c.087 2.693.174 5.44.265 8.22.13 4.13.261 8.191.386 12.06v.057l-.043.035-26.844 21.369-.056.048-.057-.044c-8.366-6.58-15.26-12.007-20.067-15.789a7132.747 7132.747 0 0 1-5.539-4.379l-1.446-1.149c-.326-.26-.486-.396-.486-.396l.004.01Z" fill="#022749"/><path d="M163.13 86.717c0 .061-8.244.183-18.412.266-10.173.083-18.417.1-18.417.039 0-.06 8.244-.183 18.417-.266 10.168-.082 18.417-.1 18.417-.039h-.005ZM163.139 92.162c0 .061-8.244.183-18.412.265-10.173.083-18.417.1-18.417.04 0-.061 8.244-.183 18.417-.266 10.168-.082 18.417-.1 18.417-.039h-.005ZM163.152 98.438c0 .06-8.245.183-18.413.265-10.172.083-18.417.1-18.417.04 0-.061 8.245-.183 18.417-.266 10.168-.083 18.417-.1 18.417-.04h-.004ZM163.165 104.714c0 .061-7.867.178-17.566.257-9.704.078-17.571.091-17.571.03s7.863-.178 17.571-.257c9.703-.078 17.57-.091 17.57-.03h-.004ZM156.283 110.237s-.074.017-.217.026c-.169.008-.373.017-.621.026-.573.013-1.341.035-2.279.056l-7.515.135c-2.935.057-5.592.074-7.52.07-.938-.004-1.706-.013-2.279-.013-.248-.004-.452-.013-.621-.017-.144-.005-.217-.014-.217-.022 0-.009.073-.018.217-.026.169-.009.373-.018.621-.026.573-.014 1.341-.035 2.279-.057l7.515-.135c2.935-.057 5.592-.074 7.515-.07.938.005 1.707.013 2.28.013.247.005.451.014.621.018.143.004.217.013.217.022h.004ZM149.35 115.546c0 .061-1.759.118-3.925.122-2.171.005-3.925-.043-3.925-.104s1.758-.118 3.925-.122c2.166-.004 3.925.043 3.925.104ZM290 160.7c0 .061-64.924.114-144.991.114C64.941 160.814 0 160.761 0 160.7c0-.061 64.91-.113 145.009-.113 80.097 0 144.991.052 144.991.113ZM156.619 76.82c.061.01.087.253.061.553-.03.3-.105.536-.166.531-.061-.004-.087-.252-.061-.552.031-.3.105-.536.166-.531ZM157.196 72.582c.06.008.039.491-.048 1.075-.087.583-.213 1.048-.274 1.04-.06-.009-.039-.488.048-1.075.087-.584.213-1.05.274-1.04ZM158.046 68.39c.061.013.009.492-.121 1.071-.126.575-.282 1.032-.343 1.018-.061-.013-.009-.491.121-1.07.126-.58.283-1.036.343-1.019ZM159.206 64.273c.06.018-.031.492-.2 1.058-.169.566-.356 1.01-.417.992-.061-.017.031-.492.2-1.057.169-.566.356-1.01.417-.993ZM160.695 60.265c.057.026-.074.487-.291 1.036-.217.548-.443.975-.499.953-.056-.022.07-.488.291-1.036.217-.553.443-.975.499-.953ZM162.545 56.413c.056.03-.118.479-.387 1.001-.269.522-.529.927-.586.901-.056-.026.117-.474.387-1.001.269-.527.529-.931.586-.9ZM164.776 52.766c.052.035-.174.461-.499.949-.313.5-.613.875-.665.844-.052-.03.161-.466.478-.966.33-.492.638-.862.69-.827h-.004ZM167.407 49.397c.048.044-.222.444-.595.897s-.721.788-.768.748c-.048-.039.217-.44.594-.896.378-.457.721-.792.769-.749ZM170.411 46.364c.039.048-.269.413-.699.818-.425.405-.807.697-.851.653-.043-.044.27-.41.699-.818.43-.41.812-.701.851-.653ZM173.772 43.727c.035.052-.321.374-.794.722-.473.348-.89.592-.929.54-.039-.048.317-.375.794-.723.478-.352.895-.592.929-.54ZM177.454 41.56c.026.056-.369.33-.886.608-.517.279-.959.466-.994.41-.03-.053.365-.327.886-.61s.963-.466.994-.409ZM181.404 39.949c.018.06-.412.27-.963.47-.552.2-1.016.318-1.042.257-.026-.057.408-.27.963-.47.556-.205 1.025-.318 1.042-.257ZM185.555 38.983c.009.06-.452.187-1.029.287-.573.122-1.051.17-1.064.109-.013-.061.443-.21 1.025-.331.582-.1 1.063-.126 1.072-.065h-.004ZM189.814 38.743c0 .061-.477.118-1.063.126-.586.01-1.064-.039-1.068-.1 0-.06.473-.117 1.063-.126.591-.009 1.073.04 1.068.1ZM194.051 39.244c-.013.06-.495.035-1.072-.057-.577-.096-1.042-.222-1.038-.283.009-.06.487-.035 1.073.057.586.096 1.046.222 1.033.283h.004ZM198.137 40.467c-.022.056-.491-.053-1.047-.244-.556-.191-.99-.396-.972-.457.017-.06.486.048 1.046.244s.994.4.973.457ZM201.936 42.408c-.035.052-.473-.14-.981-.431-.508-.292-.899-.575-.873-.627.026-.052.469.14.981.431.517.296.904.575.873.627ZM205.279 45.058c-.044.044-.439-.235-.877-.622-.439-.388-.764-.74-.73-.792.04-.048.43.226.877.622.448.392.773.744.73.792ZM207.388 47.495c-.052.035-.238-.126-.421-.36-.182-.236-.291-.462-.243-.501.048-.04.239.122.421.361.187.24.296.461.243.5ZM227.464 73.718c-.026.056-.486-.1-1.033-.357-.547-.253-.964-.505-.938-.562.026-.056.491.105 1.034.357.542.252.959.505.937.561ZM231.563 75.145c-.013.06-.495-.035-1.072-.209-.577-.178-1.025-.366-1.003-.427.022-.06.499.035 1.072.21.569.174 1.021.365 1.003.426ZM235.848 75.828c0 .061-.49.061-1.089-.004-.6-.065-1.077-.17-1.068-.23.008-.062.499-.062 1.089.004.591.065 1.068.17 1.068.23ZM240.181 75.693c.008.061-.474.148-1.073.196-.599.044-1.089.03-1.089-.03 0-.061.477-.148 1.072-.196.595-.044 1.081-.03 1.09.03ZM244.444 74.892c.018.062-.443.227-1.029.37-.59.127-1.077.166-1.09.105-.013-.065.456-.2 1.038-.327.578-.143 1.059-.208 1.077-.148h.004ZM248.473 73.29c.03.057-.391.306-.938.558-.547.252-1.012.41-1.033.353-.022-.057.399-.31.938-.557.542-.249 1.002-.405 1.033-.353ZM252.072 70.867c.039.048-.299.404-.781.77-.482.366-.92.592-.951.54-.035-.053.339-.362.816-.723.478-.36.873-.635.916-.587ZM255.024 67.69c.052.035-.191.465-.577.931-.387.466-.76.788-.803.744-.048-.043.252-.43.629-.888.378-.46.699-.827.751-.787ZM257.057 63.86c.056.022-.057.5-.304 1.053-.248.553-.525.962-.582.931-.056-.03.135-.478.374-1.022.243-.544.447-.984.507-.962h.005ZM257.86 59.603c.061 0 .113.492.048 1.097-.061.605-.213 1.08-.269 1.066-.061-.013-.013-.496.043-1.088.061-.592.113-1.075.174-1.075h.004ZM257.235 55.312c.056-.017.256.435.391 1.027.134.592.152 1.088.091 1.093-.061.008-.178-.466-.313-1.045-.13-.579-.23-1.058-.169-1.075ZM255.346 51.408c.048-.035.378.335.682.862.304.522.469.992.412 1.018-.056.026-.308-.387-.608-.905-.299-.514-.534-.94-.486-.975ZM252.333 48.305c.035-.052.469.191.925.587.46.397.76.793.712.836-.048.044-.412-.274-.86-.661-.447-.392-.811-.71-.777-.762ZM248.396 46.538c.013-.06.507-.013 1.085.178.577.192 1.003.449.977.5-.026.057-.482-.1-1.047-.286-.564-.187-1.024-.331-1.011-.392h-.004ZM244.092 46.608c-.017-.061.447-.24 1.051-.314.603-.078 1.098-.03 1.098.03 0 .066-.482.114-1.068.192-.586.074-1.063.153-1.081.092ZM240.35 48.71c-.043-.04.252-.444.742-.814.487-.37.951-.553.982-.5.03.056-.374.321-.843.678-.473.357-.829.675-.877.631l-.004.005ZM238.631 52.614c-.061 0-.083-.505.061-1.101.143-.597.399-1.032.455-1.006.061.026-.099.483-.234 1.058-.139.574-.217 1.049-.282 1.044v.005ZM239.478 56.835c-.052.03-.33-.387-.53-.966s-.239-1.075-.182-1.088c.065-.013.199.453.395 1.014.191.561.373 1.01.312 1.04h.005ZM242.317 60.073c-.035.053-.473-.182-.925-.587-.456-.405-.742-.814-.694-.853.047-.044.399.291.846.683.443.392.812.705.777.757h-.004ZM246.259 61.84c-.013.061-.503-.004-1.076-.2-.573-.196-.999-.448-.973-.505.026-.056.486.096 1.046.288.561.191 1.021.352 1.003.413v.004ZM250.566 62.254c0 .06-.482.143-1.085.126-.604-.013-1.09-.113-1.081-.174.004-.065.49-.065 1.085-.052.595.013 1.081.034 1.081.1ZM254.82 61.462c.022.056-.429.26-1.016.413-.586.153-1.076.187-1.085.126-.013-.06.456-.195 1.033-.343.578-.148 1.051-.253 1.068-.192v-.004Z" fill="#022749"/><path d="M258.758 59.656c.035.052-.373.326-.907.609s-.986.465-1.012.409c-.026-.057.382-.33.907-.61.526-.278.982-.46 1.012-.408ZM262.236 57.062c.044.047-.299.396-.768.779-.465.383-.873.652-.912.6-.035-.052.308-.4.769-.779.46-.378.868-.648.911-.6ZM265.197 53.88c.048.04-.226.44-.621.901-.391.461-.747.797-.79.753-.044-.044.23-.448.621-.9.386-.453.742-.793.79-.754ZM267.581 50.25c.056.03-.152.475-.46.993-.313.518-.604.91-.656.874-.052-.034.156-.478.46-.992.308-.513.599-.905.656-.875ZM269.343 46.273c.061.021-.069.491-.29 1.053-.218.566-.452.996-.513.966-.052-.022.087-.492.3-1.049.217-.557.443-.992.499-.97h.004ZM270.555 42.099c.06.013-.013.496-.165 1.083-.152.584-.322 1.045-.382 1.023-.061-.017.013-.5.165-1.084.152-.578.321-1.04.382-1.022ZM271.314 37.812c.061.009.039.496-.052 1.092-.091.596-.212 1.07-.278 1.058-.06-.013-.039-.5.053-1.093.091-.591.212-1.066.277-1.057ZM271.715 33.481c.061 0 .078.492.03 1.093-.043.6-.13 1.084-.196 1.075-.061-.005-.078-.496-.03-1.093.043-.596.131-1.079.196-1.075ZM271.853 29.134c.061 0 .105.487.092 1.088-.013.6-.07 1.088-.135 1.083-.061 0-.105-.491-.092-1.088.013-.6.07-1.088.135-1.083ZM271.823 24.781c.061 0 .122.484.13 1.088.009.601-.035 1.088-.096 1.088s-.122-.487-.13-1.088c-.009-.6.035-1.088.096-1.088ZM271.758 22.105c.061 0 .118.109.122.248 0 .14-.044.252-.105.252s-.117-.108-.122-.248c0-.139.044-.252.105-.252Z" fill="#022749"/><path d="m281.27 9.182-29.51 3.214 2.161 19.942 29.51-3.214-2.161-19.942Z" fill="#15A9F3"/><path d="M253.909 32.359v-.01l-2.162-19.95h.009l29.522-3.216v.009l2.163 19.95h-.009l-29.523 3.217Zm-2.14-19.942 2.158 19.92 29.488-3.212-2.158-19.92-29.488 3.212Z" fill="#022749"/><path d="M281.391 9.422s-.078.11-.247.296l-.743.81c-.673.718-1.615 1.72-2.774 2.95-2.379 2.495-5.635 5.911-9.243 9.693l-.078.078-.092-.06c-.069-.044-.147-.096-.225-.144-4.451-2.85-8.479-5.432-11.423-7.316l-3.443-2.242c-.386-.256-.695-.465-.929-.622-.213-.144-.321-.226-.313-.23.005-.01.122.056.343.187.239.143.56.339.955.578.851.527 2.037 1.267 3.491 2.172 2.957 1.867 6.999 4.426 11.466 7.25l.226.145-.169.021c3.629-3.76 6.907-7.155 9.299-9.636l2.835-2.894c.326-.322.582-.579.782-.774.182-.174.278-.266.286-.257l-.004-.005Z" fill="#022749"/><path d="M254.039 32.576c-.06-.043 1.863-3.016 4.294-6.646 2.436-3.63 4.459-6.537 4.52-6.493.061.043-1.863 3.016-4.294 6.646-2.436 3.625-4.459 6.537-4.52 6.493ZM272.635 18.122c.052-.052 2.539 2.425 5.552 5.528 3.014 3.103 5.414 5.662 5.362 5.714-.052.052-2.539-2.424-5.553-5.527-3.013-3.103-5.413-5.662-5.361-5.715ZM146.506 69.648c.061-.008.152.222.204.518.052.296.039.544-.021.557-.061.013-.152-.222-.204-.518-.052-.296-.039-.544.021-.557ZM145.811 65.405c.061-.009.187.457.282 1.044.096.588.122 1.071.061 1.08-.061.008-.187-.457-.282-1.045-.096-.587-.122-1.07-.061-1.08ZM145.191 61.148c.061-.008.178.462.261 1.05.082.587.099 1.07.034 1.078-.065.01-.178-.46-.26-1.048-.083-.588-.1-1.075-.035-1.08ZM144.705 56.87c.061-.004.16.47.226 1.058.06.592.06 1.075 0 1.083-.061.01-.161-.465-.226-1.057-.061-.592-.061-1.075 0-1.084ZM144.405 52.579c.061 0 .139.474.174 1.066.035.592.009 1.075-.052 1.08-.061.004-.14-.475-.174-1.067-.035-.592-.009-1.08.052-1.08ZM144.362 48.275c.061 0 .109.483.109 1.079 0 .592-.057 1.075-.118 1.075-.061 0-.109-.483-.109-1.08 0-.596.057-1.079.118-1.074ZM144.632 43.983c.061.009.074.492.021 1.08-.048.591-.139 1.066-.2 1.062-.061 0-.074-.488-.022-1.08.048-.592.139-1.07.201-1.062ZM145.274 39.731c.06.013.026.496-.074 1.08-.104.583-.235 1.048-.3 1.04-.061-.009-.026-.492.074-1.08.104-.587.239-1.053.3-1.04ZM146.371 35.57c.061.022-.03.497-.195 1.062-.169.566-.356 1.015-.413.997-.06-.017.027-.492.2-1.062.17-.57.356-1.018.413-.996h-.005ZM147.974 31.584c.056.026-.092.487-.33 1.031-.239.54-.478.962-.534.94-.057-.021.091-.483.33-1.031.238-.544.477-.966.534-.94ZM150.067 27.828c.052.035-.152.474-.456.98-.304.504-.595.891-.651.86-.057-.03.147-.47.455-.978.309-.51.6-.897.652-.862ZM152.641 24.39c.047.043-.218.448-.587.91-.369.46-.712.805-.759.765-.052-.039.212-.444.586-.91.373-.465.716-.809.76-.765ZM155.693 21.365c.039.048-.282.41-.716.81-.434.4-.825.687-.869.644-.043-.044.278-.405.717-.81.438-.405.829-.692.868-.644ZM159.201 18.893c.03.056-.347.357-.842.674-.495.318-.929.536-.964.483-.035-.052.343-.352.842-.674.504-.322.934-.54.964-.483ZM163.108 17.13c.017.061-.408.283-.959.496-.547.214-1.016.344-1.042.288-.026-.057.403-.279.959-.497.556-.217 1.02-.343 1.042-.287ZM166.243 16.356c.009.06-.217.156-.512.213-.291.056-.539.052-.552-.009-.013-.06.217-.157.513-.213.295-.057.542-.052.551.009Z" fill="#022749"/><path d="m143.15.014-7.846 20.34 30.103 11.67 7.846-20.342L143.15.014Z" fill="#15A9F3"/><path d="M165.414 32.04h-.009l-30.113-11.676v-.009L143.146 0h.009l30.113 11.677v.009l-7.854 20.35v.005Zm-30.096-11.69 30.083 11.66 7.836-20.32L143.155.026l-7.837 20.32v.005Z" fill="#022749"/><path d="M173.255 11.964s-.13.065-.386.161c-.282.105-.656.24-1.12.41l-4.147 1.462c-3.538 1.218-8.387 2.885-13.754 4.73l-.113.04-.06-.105c-.048-.078-.096-.165-.148-.252-2.878-4.98-5.483-9.488-7.389-12.783-.921-1.623-1.672-2.946-2.21-3.89-.243-.444-.439-.797-.586-1.067-.13-.244-.196-.374-.187-.383.009-.004.091.118.239.353.16.26.373.605.634 1.036.555.935 1.337 2.24 2.292 3.843 1.923 3.285 4.554 7.777 7.463 12.738.052.087.1.174.148.253l-.174-.065 13.785-4.649 4.176-1.375c.474-.148.851-.27 1.142-.361.261-.078.4-.118.404-.104l-.009.008Z" fill="#022749"/><path d="M135.305 20.638c-.039-.07 3.3-1.98 7.459-4.27 4.159-2.284 7.559-4.082 7.598-4.008.039.07-3.3 1.98-7.459 4.27-4.159 2.285-7.559 4.082-7.598 4.008ZM160.469 15.986c.078-.022 1.246 3.612 2.609 8.116 1.363 4.51 2.41 8.183 2.332 8.204-.078.022-1.246-3.612-2.61-8.116-1.363-4.505-2.409-8.178-2.331-8.204ZM133.864 74.414c.061 0 .092.252.07.552-.026.3-.096.54-.157.536-.061-.004-.092-.253-.07-.553.026-.3.096-.54.157-.535ZM133.972 69.988c.061 0 .114.496.109 1.105 0 .614-.052 1.11-.117 1.105-.061 0-.114-.496-.109-1.105 0-.61.052-1.105.117-1.105ZM133.672 65.57c.061-.008.157.483.213 1.093.057.609.052 1.11-.013 1.114-.061 0-.156-.483-.213-1.093-.056-.605-.052-1.105.013-1.114ZM132.94 61.205c.06-.013.204.461.321 1.066.117.6.165 1.097.1 1.11-.061.009-.209-.466-.322-1.066-.117-.596-.16-1.093-.099-1.11ZM131.737 56.944c.06-.022.256.435.438 1.023.182.587.282 1.075.221 1.092-.06.018-.256-.44-.438-1.023s-.282-1.07-.221-1.092ZM130.047 52.857c.057-.026.304.405.556.962.252.562.408 1.032.352 1.058-.057.022-.308-.41-.556-.962-.247-.557-.408-1.027-.352-1.058ZM127.855 49.014c.052-.034.365.357.69.875.313.527.521.98.469 1.014-.056.03-.351-.37-.66-.892-.325-.514-.551-.957-.499-.992v-.005ZM125.15 45.515c.048-.043.404.305.794.78.391.47.669.883.621.922-.048.04-.404-.309-.794-.78-.391-.465-.669-.878-.621-.922ZM121.981 42.438c.039-.048.443.248.895.657.456.414.79.78.742.827-.043.044-.443-.248-.894-.657-.452-.409-.786-.779-.743-.827ZM118.4 39.849c.03-.052.473.178.981.518s.894.657.855.709c-.035.052-.477-.183-.981-.518-.504-.34-.89-.653-.855-.71ZM114.466 37.842c.022-.056.495.105 1.051.361.555.257.985.51.955.566-.031.057-.499-.104-1.051-.36-.551-.258-.981-.51-.955-.567ZM110.254 36.506c.013-.06.504.018 1.094.179.591.16 1.055.34 1.038.396-.017.06-.508-.022-1.094-.179-.586-.156-1.051-.335-1.038-.396ZM105.878 35.945c0-.061.499-.087 1.111-.053.613.066 1.099.166 1.09.227-.009.06-.504.06-1.107 0-.603-.035-1.094-.113-1.094-.174ZM101.476 36.25c-.009-.062.473-.17 1.085-.244.608-.074 1.107-.079 1.112-.018 0 .061-.482.17-1.086.244-.603.07-1.098.078-1.111.017ZM97.213 37.385c-.022-.056.434-.256 1.02-.444.586-.187 1.072-.287 1.085-.226.018.061-.438.257-1.02.444-.577.183-1.064.287-1.085.226ZM93.235 39.305c-.034-.053.378-.336.916-.627.539-.292 1-.483 1.025-.427.026.057-.382.336-.916.627-.534.287-.994.479-1.025.427ZM89.71 41.964c-.044-.044.304-.4.777-.797.473-.396.886-.674.92-.622.04.052-.308.405-.777.797-.464.387-.877.665-.92.622ZM86.823 45.302c-.053-.035.186-.479.56-.966.377-.488.742-.827.79-.788.047.044-.239.444-.612.927-.37.479-.686.862-.739.827ZM85.212 48.179c-.056-.026 0-.266.135-.54.13-.274.282-.47.338-.44.057.031-.004.27-.134.54s-.282.466-.339.44ZM57.627 73.861c0-.06.23-.144.525-.178.295-.035.543-.013.552.047.013.061-.226.14-.526.179-.3.035-.547.017-.551-.048ZM53.328 73.374c.017-.061.495.039 1.077.16.581.122 1.059.223 1.05.288-.004.06-.503.06-1.098-.065-.595-.127-1.05-.327-1.03-.383ZM49.443 71.446c.034-.053.46.187.972.496.513.309.925.566.895.622-.027.057-.491-.113-1.012-.426-.521-.31-.89-.64-.855-.688v-.004ZM46.208 68.538c.048-.043.404.292.825.718.421.427.747.788.708.832-.04.047-.443-.244-.868-.675-.426-.43-.712-.835-.665-.875ZM43.655 65.013c.052-.03.365.348.69.849.326.5.552.935.504.975-.052.039-.36-.344-.69-.85-.33-.504-.556-.944-.504-.974ZM41.78 61.083c.056-.022.295.41.53.958.234.552.377 1.018.32 1.048-.056.026-.295-.4-.53-.957-.238-.557-.381-1.027-.32-1.049ZM40.534 56.905c.06-.013.234.444.386 1.027.152.579.226 1.066.165 1.084-.06.017-.234-.44-.386-1.027-.152-.584-.226-1.071-.165-1.084ZM39.778 52.61c.061-.01.187.465.274 1.061.091.596.113 1.084.052 1.097-.06.013-.182-.466-.273-1.062-.092-.596-.113-1.088-.053-1.097ZM39.361 48.266c.061 0 .153.479.2 1.08.049.6.04 1.092-.025 1.096-.061.004-.153-.474-.2-1.08-.049-.6-.04-1.092.025-1.096ZM39.18 45.002c.06 0 .126.239.139.54.013.3-.026.543-.087.548-.061 0-.127-.24-.14-.54-.013-.3.026-.544.087-.548Z" fill="#022749"/><path d="m55.526 18.621-36.1 1.7 1.153 24.393 36.1-1.7-1.153-24.393Z" fill="#15A9F3"/><path d="M20.562 44.723v-.013l-1.146-24.403h.013l36.113-1.706v.013l1.146 24.403h-.013l-36.113 1.706ZM19.438 20.33l1.146 24.372 36.078-1.706-1.146-24.372-36.078 1.706Z" fill="#022749"/><path d="M55.655 18.902s-.104.126-.321.339l-.964.931-3.586 3.382-11.952 11.09-.1.09-.109-.078-.264-.191-13.338-9.74a2707.265 2707.265 0 0 0-4.02-2.982l-1.081-.822c-.248-.191-.374-.296-.365-.305.009-.008.143.079.404.253l1.12.774 4.081 2.899 13.394 9.662.265.191-.209.013c4.69-4.3 8.922-8.177 12.018-11.015 1.524-1.38 2.77-2.498 3.66-3.303.417-.37.75-.662 1.003-.884.23-.2.356-.3.364-.291v-.013Z" fill="#022749"/><path d="M20.7 44.997c-.073-.056 2.489-3.525 5.714-7.755 3.226-4.226 5.9-7.608 5.974-7.556.074.057-2.483 3.526-5.713 7.756-3.226 4.226-5.9 7.608-5.974 7.555ZM44.371 28.82c.07-.06 2.91 3.134 6.34 7.13 3.433 3.999 6.16 7.285 6.09 7.346-.07.06-2.904-3.134-6.338-7.13-3.43-3.995-6.161-7.285-6.092-7.341v-.005Z" fill="#022749"/><path d="M84.035 105.258a.982.982 0 0 0-.751-1.101l-.968.065-3.46-1.206c-.647-.165-1.299.296-1.312.945-.017.997-.416 3.712-1.224 2.859-.017-.022-.04-.035-.056-.056-1.142-1.276-2.462-1.894-2.974-1.82-.5.07-.621.697-.248 1.028a.65.65 0 0 0 .204.143c.035.013.078.044.117.061.421.274.938.779 1.325 1.184.364.387.66.836.872 1.319.235.539.413 1.009.556 1.414l.052 3.19-1.38 14.915s-9.157-9.644-8.949-9.74l.526 15.011 5.548 4.604a6.967 6.967 0 0 0 8.271.462 7.004 7.004 0 0 0 3.152-5.967l-.321-19.285.225-2.528.79-5.497h.005ZM32.6 126.462l-10.02 23.001-7.932 16.591-5.891 1.984s-4.663 1.358-4.663 2.324c0 .966 1.228.749 1.228.749.226 1.445 2.223.627 3.617-.022 1.398-.648 4.498-.779 4.498-.779-.855.662-.582 1.68-.087 2.028.495.348 1.355-.074 1.94-.696.582-.623 2.085-.914 3.752-1.51 1.671-.597 1.945-2.847 1.945-2.847l20.07-33.89-8.46-6.929.003-.004Z" fill="#FFBE9D"/><path d="m65.874 134.809 2.523 3.343 5.466-12.156s-5.305-6.489-7.246-9.209c-1.923-2.699-3.365-3.169-3.365-3.169s-3.525-1.049-5.284-1.014l-8.709.523-8.843 3.869a12.222 12.222 0 0 0-5.323 4.495l-8.327 13.41 11.791 5.052 3.956 22.662c.76 3.399 1.42 6.607 4.55 8.174L68.93 149.72l-2.561-4.043-.491-10.863-.005-.005Z" fill="#15A9F3"/><path d="M44.966 130.653c.052.035-1.294 2.137-3.009 4.692-1.715 2.554-3.148 4.6-3.2 4.565-.052-.035 1.294-2.133 3.009-4.692 1.715-2.554 3.148-4.6 3.195-4.565h.005ZM63.3 152.17s-.2.135-.582.348c-.382.214-.937.509-1.628.866-1.38.718-3.304 1.68-5.453 2.694a165.07 165.07 0 0 1-5.544 2.499c-.716.304-1.298.548-1.702.705-.404.161-.63.243-.638.226-.004-.013.208-.122.603-.309.43-.2.995-.457 1.672-.77a531.243 531.243 0 0 0 5.514-2.56c2.145-1.014 4.076-1.954 5.474-2.633.674-.326 1.23-.596 1.659-.8.395-.188.612-.283.62-.27l.005.004ZM44.267 125.744c-.027.017-.313-.362-.769-.967-.46-.605-1.09-1.449-1.94-2.219-.852-.771-1.785-1.262-2.506-1.48-.716-.222-1.194-.218-1.194-.257 0-.013.118-.03.335-.026.217 0 .53.035.903.131.75.178 1.736.67 2.609 1.462.873.792 1.494 1.667 1.923 2.294.426.635.66 1.044.639 1.062ZM62.258 136.789s.013.083.009.24c0 .156 0 .392-.022.687-.03.597-.126 1.463-.347 2.512-.43 2.093-1.498 4.948-3.556 7.516-2.058 2.572-4.606 4.239-6.551 5.114-.973.444-1.798.727-2.37.888-.287.087-.513.13-.665.169a1.4 1.4 0 0 1-.234.044c-.005-.018.312-.109.877-.296a19.466 19.466 0 0 0 2.327-.949 18.769 18.769 0 0 0 6.443-5.109c2.031-2.538 3.108-5.345 3.577-7.412.239-1.036.36-1.893.417-2.485.06-.592.078-.923.1-.923l-.005.004Z" fill="#022749"/><path d="M40.081 148.714c-.039-.217 2.805-14.949 2.805-14.949l-4.285 6.45" fill="#022749" opacity=".3"/><path d="M65.315 120.669s.017.087.03.252c.013.192.026.431.048.727.035.662.078 1.571.135 2.677.108 2.289.26 5.401.425 8.835.165 3.451.295 6.58.36 8.843.035 1.132.057 2.05.061 2.681v.732c0 .165-.004.252-.013.256-.009 0-.017-.087-.03-.252-.013-.192-.026-.431-.048-.727-.035-.661-.078-1.571-.135-2.677-.108-2.289-.26-5.401-.425-8.839a503.146 503.146 0 0 1-.36-8.839c-.035-1.132-.057-2.05-.061-2.681v-.731c0-.166.004-.253.013-.257Z" fill="#022749"/><path d="M47.862 159.499c-.7-.583-.539-1.776.078-2.446.616-.67 1.532-.957 2.4-1.24 4.155-1.349 8.332-3.256 11.076-6.668.378-.47.734-.975 1.229-1.323.495-.348 1.167-.513 1.706-.235.838.44.873 1.658.52 2.538a4.85 4.85 0 0 1-2.291 2.506M65.405 123.285l2.427 14.114-1.893-2.498-.534-11.616Z" fill="#022749" opacity=".2"/><path d="m88.493 160.37-4.102 14.109 17.483 5.21c.395-1.706-7.654-7.76-7.654-7.76l3-8.931-8.727-2.624v-.004Z" fill="#15A9F3"/><path d="M89.04 169.553c-.364-.009-.712.304-.733.67-.022.366.29.722.655.735.365.013.795-.348.778-.713-.018-.366-.409-.766-.769-.692M84.39 174.475l.47-1.406 16.589 5.519s.677.57.425 1.097l-17.483-5.21Z" fill="#fff" opacity=".6"/><path d="M94.528 171.92c-.026.083-.465 0-.968.148-.504.135-.834.444-.899.388-.074-.04.204-.514.816-.684.608-.178 1.094.079 1.055.153l-.004-.005ZM96.139 173.226c-.004.087-.417.126-.816.4-.404.266-.595.636-.677.605-.083-.008.004-.531.503-.861.5-.34 1.012-.222.99-.144ZM96.53 175.737c-.082-.004-.074-.47.282-.87.356-.405.812-.47.83-.388.026.083-.309.262-.595.597-.296.33-.43.683-.517.666v-.005ZM94.988 169.81c-.06.065-.417-.166-.907-.279-.49-.122-.912-.07-.938-.157-.03-.078.43-.283 1.007-.143.578.135.899.526.838.579ZM95.188 167.603c-.009.035-.365-.013-.873-.266a4.336 4.336 0 0 1-1.259-.974c-.065-.074-.143-.157-.204-.288-.07-.117-.056-.361.095-.465a.486.486 0 0 1 .435-.083c.13.035.225.091.316.144a3.254 3.254 0 0 1 1.142 1.118c.296.496.339.857.304.866-.047.018-.165-.309-.486-.744a3.736 3.736 0 0 0-.651-.675 3.409 3.409 0 0 0-.456-.304c-.17-.105-.33-.153-.4-.083-.026.026-.03.039-.008.104.026.061.087.135.147.209.126.148.256.283.382.405.26.244.521.431.752.579.46.287.781.409.768.457h-.004Z" fill="#022749"/><path d="M95.04 167.694c-.034 0-.112-.352.022-.918a2.99 2.99 0 0 1 .404-.927c.104-.161.235-.318.382-.466.152-.143.347-.339.69-.278.174.043.278.222.296.352.021.135 0 .24-.005.348a2.089 2.089 0 0 1-.816 1.389c-.478.352-.864.348-.86.318-.017-.053.33-.127.721-.488a2.13 2.13 0 0 0 .521-.744c.065-.157.113-.331.135-.514.026-.196 0-.365-.074-.365-.087-.026-.278.069-.39.196-.135.13-.257.269-.357.409a3.215 3.215 0 0 0-.43.827c-.178.509-.178.853-.23.853l-.008.008Z" fill="#022749"/><path d="M106.446 139.362c.443 3.255-.668 6.924-1.841 9.992l-7.667 18.07-8.488-1.305s-1.771 1.976-4.033 2.729c-1.011.339-4.341.992-7.081-.984 0 0-3.877 5.414-9.977 7.051-6.1 1.636-15.334 2.541-19.806-4.614l21.287-20.559c.438.104 18.334-11.991 27.998-14.746 0 0 8.796-1.623 9.608 4.366Z" fill="#022749"/><path d="M87.816 166.049s.04-.026.113-.069c.091-.048.204-.109.347-.183.304-.161.76-.396 1.333-.714a21.76 21.76 0 0 0 2.028-1.253c.755-.536 1.58-1.215 2.296-2.137.726-.91 1.277-2.098 1.49-3.456.221-1.349.147-2.842-.183-4.348-.33-1.493-1.024-3.051-2.34-4.087-1.307-1.035-3.03-1.575-4.793-1.71a14.659 14.659 0 0 0-2.626.022c-.86.091-1.702.248-2.519.444-1.632.404-3.156.979-4.58 1.588-2.84 1.241-5.301 2.585-7.463 3.508-2.154.949-3.986 1.506-5.275 1.767-.321.074-.608.118-.86.157a9.19 9.19 0 0 1-.634.087c-.16.017-.29.026-.39.039-.087.009-.135.009-.135.004 0 0 .043-.013.13-.026.1-.017.226-.035.387-.061.169-.021.382-.056.63-.104.247-.048.533-.096.85-.179 1.276-.282 3.091-.861 5.227-1.827 2.15-.941 4.598-2.298 7.446-3.556 1.429-.618 2.961-1.201 4.61-1.611.826-.2 1.677-.356 2.55-.452a15.146 15.146 0 0 1 2.67-.022c1.793.139 3.555.688 4.91 1.763a6.215 6.215 0 0 1 1.597 1.945c.391.731.639 1.506.812 2.268.33 1.532.4 3.046.165 4.426-.225 1.379-.798 2.602-1.55 3.521-.738.931-1.58 1.61-2.353 2.141a20.97 20.97 0 0 1-2.058 1.227c-.581.309-1.042.527-1.354.675-.148.07-.265.122-.356.165-.083.035-.122.053-.126.048h.004Z" fill="#022749"/><path d="M93.139 142.334c.052.035-.743 1.336-1.78 2.907-1.033 1.571-1.915 2.821-1.967 2.786-.052-.035.743-1.336 1.78-2.908 1.033-1.571 1.915-2.82 1.967-2.785ZM87.017 164.613c.005.035-.59.161-1.54.4-.952.235-2.263.601-3.674 1.093a42.103 42.103 0 0 0-3.551 1.44c-.895.409-1.437.684-1.455.653-.008-.013.122-.1.356-.239.24-.144.586-.335 1.025-.557a29.325 29.325 0 0 1 3.547-1.51 29.305 29.305 0 0 1 3.712-1.036c.482-.1.877-.17 1.15-.205.274-.039.426-.052.43-.035v-.004ZM96.782 166.241c-.04.013-.14-.388-.5-.919a3.838 3.838 0 0 0-1.936-1.479c-.925-.301-1.84-.161-2.435.056-.604.218-.92.483-.942.448-.01-.008.06-.087.204-.204a3.04 3.04 0 0 1 .677-.396 3.693 3.693 0 0 1 2.561-.126 3.679 3.679 0 0 1 2.002 1.61c.17.287.269.54.317.718.052.179.06.283.047.283l.005.009ZM60.06 159.499s.057.139.11.405c.047.265.095.657.1 1.145 0 .966-.213 2.35-1.004 3.634-.781 1.292-1.984 2.076-2.908 2.367-.465.157-.86.205-1.13.218-.268.013-.42-.009-.42-.022-.005-.048.608-.013 1.498-.348.88-.322 2.014-1.093 2.77-2.337.76-1.236.994-2.577 1.033-3.521.039-.953-.092-1.541-.048-1.55v.009ZM50.487 169.261c-.047.039-.273-.157-.482-.453-.212-.296-.325-.574-.269-.609.052-.03.248.187.456.475.208.291.347.548.3.587h-.005ZM52.276 171.15c-.04.048-.287-.118-.548-.37-.26-.252-.434-.492-.39-.535.043-.044.29.122.547.37.256.248.43.487.39.535ZM54.382 172.678c-.03.056-.304-.061-.608-.262-.304-.2-.52-.4-.486-.452.039-.052.308.065.608.261s.516.396.486.453ZM56.77 173.709c-.018.061-.31.009-.652-.113-.343-.122-.6-.27-.573-.327.026-.056.317-.004.651.114.334.122.59.269.573.326ZM59.335 174.114c0 .061-.295.087-.66.052-.364-.035-.646-.109-.638-.174.009-.061.304-.087.66-.052.352.03.638.108.638.174ZM61.931 173.97c.01.061-.282.131-.642.157a2.8 2.8 0 0 1-.486-.005h.008c-.108-.008-.173-.03-.173-.056 0-.026.056-.061.156-.091h.009c.117-.031.286-.057.477-.07.352-.026.647.009.656.07l-.005-.005ZM64.49 173.509c.012.061-.261.17-.613.248-.352.074-.647.087-.66.026-.009-.061.265-.174.612-.248.348-.074.643-.087.66-.026ZM66.98 172.747c.023.057-.238.2-.58.314-.344.113-.635.161-.652.1-.017-.061.243-.201.582-.314.338-.113.63-.156.65-.1ZM69.373 171.729c.026.056-.217.222-.547.374-.33.148-.617.226-.639.165-.026-.056.222-.226.547-.374.326-.148.613-.222.639-.165ZM71.656 170.475c.035.053-.195.244-.503.427-.313.183-.59.283-.621.231-.03-.057.195-.244.504-.427.308-.178.586-.283.62-.231ZM73.806 169.004c.04.048-.169.261-.464.475-.296.213-.56.339-.595.287-.035-.052.174-.266.465-.474.29-.209.555-.34.594-.288ZM75.812 167.342c.043.048-.144.274-.417.513-.274.235-.526.392-.565.34-.039-.048.148-.279.417-.514.27-.235.525-.387.565-.339ZM77.704 165.549c.04.048-.138.283-.399.531-.26.248-.508.409-.551.365-.048-.048.134-.283.395-.531.265-.248.512-.413.551-.365h.004ZM79.763 163.943c.035.052-.174.265-.46.474-.291.209-.556.34-.595.292-.04-.048.17-.261.46-.475.295-.213.56-.344.595-.291ZM82.046 162.685c.026.057-.212.235-.534.392-.32.156-.603.243-.633.187-.03-.057.208-.231.534-.392.325-.161.612-.248.633-.187ZM84.53 161.906c.008.061-.26.183-.604.27-.343.087-.638.109-.66.048-.017-.061.252-.179.604-.27.352-.087.647-.109.66-.048ZM87.126 161.775c-.005.061-.3.083-.651.079-.356-.009-.647-.04-.652-.1 0-.061.287-.131.652-.127.364.005.655.087.646.148h.005ZM89.635 162.437c-.03.056-.308-.026-.638-.144-.335-.117-.6-.235-.586-.296.013-.061.317-.039.66.083.347.122.594.305.564.357ZM89.084 164.33c-.039-.052.156-.265.386-.527.23-.261.417-.478.474-.448.052.031-.057.318-.304.596-.248.279-.517.423-.556.375v.004ZM86.787 165.527c-.017-.061.23-.218.56-.353.326-.135.617-.2.647-.143.03.056-.222.213-.56.352-.339.14-.625.205-.647.144ZM84.304 166.323c-.022-.061.239-.2.582-.313.343-.113.634-.161.651-.1.017.061-.243.2-.582.313-.338.113-.634.161-.651.1ZM81.872 167.255c-.021-.057.23-.214.565-.344.334-.131.625-.192.647-.135.021.057-.23.213-.565.344-.334.13-.625.191-.647.135ZM79.472 168.273c-.026-.056.221-.217.555-.361.33-.144.621-.213.643-.157.026.057-.226.222-.556.361-.33.144-.616.214-.642.157ZM74.618 93.642s2.84-.858 6.612-5.075c3.773-4.217 5.297-9.562 5.796-9.575.5-.013 2.597-1.184 7.394 7.512 4.797 8.696 3.326 10.911 2.5 10.955-.824.043-6.516-1.097-9.972-.44-3.456.657-7.802 2.812-7.802 2.812l-4.528-6.19Z" fill="#022749"/><path d="m68.849 99.008 1.124 1.802.504.809a2.447 2.447 0 0 0 3.265.849l6.026-2.624-4.216-7.978-5.935 3.765a2.46 2.46 0 0 0-.768 3.377Z" fill="#022749"/><path d="m72.639 101.746 2.257 3.725.964-.348 6.83 4.77 1.536-3.665s-3.929-1.358-4.732-2.668c-.803-1.305-.013-1.675-.013-1.675l-1.94-1.906-4.902 1.767ZM94.095 86.696c2.561 4.713 3.794 8.991 2.761 9.557-1.033.566-3.946-2.803-6.503-7.516-2.558-4.713-3.795-8.992-2.762-9.557 1.034-.566 3.947 2.798 6.504 7.516ZM68.519 101.759l1.64-.653-1.184-1.902-1.199.879.743 1.676Z" fill="#022749"/><path d="m78.209 100.631-4.294 3.221-.643-1.062 4.937-2.159ZM68.974 99.204l1.186 1.902-.34.135-.989-1.928.143-.11ZM70.164 99.574c.03.052.842-.335 1.815-.866.972-.531 1.74-1.006 1.71-1.058-.03-.052-.842.335-1.814.866-.973.531-1.741 1.006-1.711 1.058ZM69.56 98.438c.03.052.765-.326 1.637-.84.877-.518 1.559-.975 1.528-1.027-.03-.052-.764.326-1.636.84-.873.518-1.559.975-1.528 1.027ZM70.907 100.762c.013.026.208-.035.516-.157.156-.061.339-.139.543-.226.2-.091.408-.213.63-.335.885-.496 1.554-.966 1.528-1.014-.03-.057-.756.335-1.633.822-.221.122-.42.253-.616.349-.196.095-.37.187-.513.261-.29.156-.464.265-.455.296v.004ZM89.532 85.947s2.392-1.745 4.016 1.55c1.624 3.294-.972 4.051-.972 4.051-1.207-1.597-2.228-3.46-3.044-5.6ZM86.566 82.095s.04.231.148.64c.109.41.27 1.006.482 1.732.135.357.278.745.434 1.162l.243.649.13.34c.048.113.105.221.157.339.217.452.443.931.677 1.423.06.122.117.248.178.374.056.126.135.244.204.366.143.244.287.492.43.744.147.252.29.5.43.744.074.122.134.248.217.361l.234.34c.313.448.612.88.899 1.293.074.1.139.204.217.304.078.096.156.187.23.279l.443.535c.287.344.551.662.794.958.522.548.96.975 1.26 1.275.3.296.473.457.486.444.009-.009-.14-.187-.426-.505-.29-.322-.703-.77-1.211-1.323a358.61 358.61 0 0 0-1.198-1.502c-.074-.091-.148-.187-.226-.278-.074-.096-.139-.2-.208-.305l-.886-1.292-.234-.34c-.079-.113-.144-.24-.213-.357-.14-.244-.282-.487-.426-.74a55.561 55.561 0 0 0-.43-.735c-.069-.122-.147-.24-.204-.366-.06-.126-.117-.248-.178-.37-.234-.487-.464-.957-.681-1.41-.052-.113-.113-.222-.16-.335l-.131-.335c-.087-.222-.17-.435-.252-.64a276.9 276.9 0 0 1-.456-1.149c-.23-.714-.412-1.293-.547-1.706-.134-.4-.213-.622-.226-.618v.004Z" fill="#022749"/><path d="M80.111 101.898a.737.737 0 0 1 .508.892c-.186.74-.49 1.902-.738 2.611-.078.231-.165.462-.326.645-.16.182-.408.304-.642.243-.248-.061-.417-.309-.46-.561-.044-.253.008-.509.06-.757.152-.688.435-1.728.678-2.573a.736.736 0 0 1 .92-.504v.004Z" fill="#FFBE9D"/><path d="M81.288 103.099a.737.737 0 0 1 .508.892c-.187.74-.49 1.902-.738 2.612-.078.23-.165.461-.326.644-.16.183-.408.304-.642.243-.248-.06-.417-.309-.46-.561-.044-.252.008-.509.06-.757a48.64 48.64 0 0 1 .678-2.572.736.736 0 0 1 .92-.505v.004Z" fill="#FFBE9D"/><path d="M82.42 103.822c.33.095.526.439.44.774-.162.64-.426 1.645-.64 2.263-.069.201-.142.401-.281.557-.14.157-.356.262-.56.214-.213-.053-.36-.266-.4-.483-.039-.218.009-.44.057-.658a44.22 44.22 0 0 1 .586-2.228.637.637 0 0 1 .794-.435l.005-.004Z" fill="#FFBE9D"/><path d="M83.71 103.965c.33.096.526.44.444.775-.161.644-.43 1.654-.643 2.272-.07.2-.143.4-.282.561-.14.157-.356.266-.56.213-.217-.052-.36-.269-.4-.487-.039-.218.009-.444.057-.662.134-.6.377-1.501.59-2.237a.643.643 0 0 1 .799-.439l-.004.004Z" fill="#FFBE9D"/><path d="M79.703 106.059c-.06-.018.083-.645.322-1.393.234-.749.477-1.345.534-1.323.06.017-.083.644-.322 1.393-.234.748-.477 1.344-.534 1.323ZM82.147 107.047c-.06-.022.13-.632.352-1.384.226-.753.4-1.363.46-1.354.06.013-.017.653-.243 1.414-.226.762-.512 1.345-.569 1.319v.005ZM80.936 106.89c-.06-.022.13-.631.352-1.384.226-.753.4-1.362.46-1.354.06.013-.017.653-.243 1.415-.226.761-.512 1.345-.569 1.318v.005Z" fill="#EB996E"/><path d="M102.995 70.083c.048.04-1.732 2.464-3.977 5.415-2.245 2.95-4.107 5.313-4.155 5.274-.047-.039 1.733-2.459 3.977-5.414 2.245-2.95 4.107-5.314 4.155-5.275ZM114.644 76.99c.026.057-3.717 1.854-8.362 4.013-4.646 2.163-8.432 3.865-8.458 3.808-.026-.056 3.717-1.854 8.362-4.017 4.641-2.159 8.432-3.865 8.458-3.808v.004ZM112.907 91.366c-.004.06-2.674-.144-5.961-.462-3.286-.317-5.944-.626-5.939-.687.004-.061 2.674.143 5.961.46 3.286.319 5.943.628 5.939.689Z" fill="#022749"/><path d="m44.458 99.426 2.948 16.799c.507 2.903 3.256 4.883 6.212 4.474 3.074-.426 5.188-3.264 4.69-6.284l-.478-2.89s4.124-1.123 3.694-5.271c-.208-2.002-.972-6.084-1.71-9.775-.825-4.13-4.824-6.872-9.03-6.193-4.338.749-7.2 4.883-6.322 9.144l-.005-.004Z" fill="#FFBE9D"/><path d="M57.834 111.529s-2.626.514-5.652-.914c0 0 1.64 2.838 5.787 1.989l-.135-1.075Z" fill="#EB996E"/><path d="M58.91 99.278c.049.313-.181.61-.507.661-.326.057-.634-.152-.682-.465a.592.592 0 0 1 .508-.662c.33-.056.634.153.682.466ZM59.05 98.272c-.065.088-.56-.195-1.203-.121-.647.065-1.08.448-1.159.378-.039-.03.022-.178.208-.348a1.677 1.677 0 0 1 1.885-.204c.217.126.3.26.264.3l.005-.005ZM52.846 100.009c.048.313-.182.609-.508.662-.33.056-.634-.153-.681-.466-.048-.314.182-.61.508-.662.33-.056.633.153.681.466ZM52.816 99.108c-.066.087-.56-.196-1.203-.122-.647.066-1.081.449-1.16.379-.038-.03.022-.178.21-.348a1.675 1.675 0 0 1 1.883-.205c.217.126.3.261.265.3l.005-.004ZM55.707 103.952c-.009-.035.386-.148 1.024-.304.161-.035.317-.088.33-.201.026-.122-.065-.291-.165-.47-.2-.374-.412-.77-.63-1.184-.88-1.688-1.54-3.08-1.47-3.116.069-.035.837 1.306 1.723 2.99.212.418.416.814.612 1.193.082.178.217.374.16.626a.417.417 0 0 1-.243.27c-.1.044-.195.057-.273.07-.651.109-1.055.157-1.064.122l-.004.004ZM53.862 104.605c.104-.017.187.675.842 1.097.656.426 1.394.261 1.411.357.013.043-.152.152-.464.195-.309.044-.769 0-1.173-.261-.399-.261-.603-.644-.66-.922-.06-.288 0-.466.048-.466h-.004ZM52.694 96.976c-.044.178-.7.17-1.442.348-.75.16-1.333.448-1.454.304-.052-.07.035-.243.26-.44.226-.195.595-.4 1.047-.5.447-.1.872-.078 1.163 0 .291.079.447.2.43.283l-.004.005ZM58.694 96.836c-.095.157-.56.057-1.094.114-.538.034-.977.208-1.098.07-.053-.07 0-.223.182-.38.178-.156.49-.309.86-.339.369-.03.703.065.903.192.204.126.286.27.243.343h.004Z" fill="#022749"/><path d="M59.831 89.377c-.556-.422-1.446-.4-1.906.122.378-.536.157-1.341-.369-1.741-.525-.4-1.259-.444-1.901-.275-.643.17-1.212.523-1.772.875.065-.252-.082-.522-.295-.674-.213-.153-.482-.21-.747-.235-1.08-.11-2.17.204-3.13.705-.96.5-2.053 1.297-2.896 1.971-.881.688-1.758 1.615-2.648 2.838a.215.215 0 0 0-.035.03c-.612.549-1.129 2.203-1.038 3.012.343 2.986 1.329 4.713 1.885 7.547.039.187.078.387.212.526.343.357.96.057 1.286-.322.79-.914 1.063-2.163 1.102-3.364.04-1.201-.13-2.398-.104-3.6v-.086c.009-.292.035-.605.087-.919.052-.195.56-1.91 2.206-2.189 1.745-.296 5.188 1.402 6.894 1.132 1.706-.27 1.793-1.476 1.793-1.476l1.003 2.046s.382-1.201.16-2.555c.417-.413.739-.922.847-1.493.126-.678-.095-1.444-.651-1.867l.017-.008Z" fill="#022749"/><path d="M46.094 101.21c-.073-.022-2.982-.513-2.561 2.307.421 2.82 3.204 1.823 3.2 1.741-.01-.083-.639-4.052-.639-4.052v.004Z" fill="#FFBE9D"/><path d="M45.7 104.318s-.044.043-.122.091a.503.503 0 0 1-.37.061c-.316-.065-.642-.5-.733-1.01a1.594 1.594 0 0 1 .035-.722c.056-.218.17-.383.317-.431a.253.253 0 0 1 .312.091c.052.074.04.131.057.135.009.005.056-.056.013-.169a.334.334 0 0 0-.14-.161.395.395 0 0 0-.286-.031c-.217.048-.386.274-.456.514a1.687 1.687 0 0 0-.056.814c.104.565.478 1.057.907 1.114a.542.542 0 0 0 .443-.14c.078-.082.083-.148.074-.152l.004-.004Z" fill="#EB996E"/><path d="M39.673 121.661s.078-.043.247-.039c.166 0 .417.087.643.318.23.222.4.618.373 1.07-.008.453-.182.94-.33 1.467-.147.518-.247 1.145.1 1.676.309.539.938.953 1.199 1.706.247.727.043 1.658-.63 2.184a2.021 2.021 0 0 1-1.172.457c-.439.018-.855-.104-1.255-.204-.4-.1-.807-.183-1.168-.074-.364.1-.634.396-.864.705-.234.313-.438.657-.742.927a1.475 1.475 0 0 1-1.099.405c-.781-.052-1.415-.566-1.732-1.154-.321-.596-.404-1.223-.443-1.775-.034-.557-.013-1.058-.026-1.493a6.958 6.958 0 0 0-.095-1.11c-.109-.605-.287-.905-.265-.914.004 0 .056.07.126.218s.156.374.226.679c.07.304.113.683.134 1.123.022.439.017.94.057 1.484.043.539.139 1.144.447 1.697.295.535.89.997 1.58 1.036.343.022.682-.109.942-.357.27-.244.47-.579.708-.901.234-.318.538-.666.981-.788.434-.126.881-.03 1.285.07.408.104.803.218 1.19.2a1.82 1.82 0 0 0 1.046-.405c.6-.465.786-1.297.573-1.949-.213-.666-.82-1.088-1.159-1.672a1.74 1.74 0 0 1-.247-.944c.008-.313.078-.605.156-.87.165-.531.338-.997.356-1.428.035-.427-.109-.788-.313-1.005-.2-.227-.425-.318-.582-.335-.156-.018-.243.004-.243-.005h-.004ZM40.867 152.122s.026.105.13.27c.1.161.317.374.673.47.348.1.838.078 1.238-.261.408-.322.699-.875.829-1.519.139-.648.113-1.388.239-2.185a3.53 3.53 0 0 1 .4-1.188c.212-.379.555-.727.998-.897.438-.178.929-.182 1.393-.126.47.053.934.157 1.407.218.473.065.95.07 1.415-.07a3.17 3.17 0 0 0 1.268-.705c.365-.335.643-.757.782-1.214a2.328 2.328 0 0 0-.026-1.388c-.283-.88-1.038-1.593-1.889-1.685-.85-.095-1.65.327-2.47.344a2.374 2.374 0 0 1-1.146-.257c-.34-.165-.63-.378-.9-.579-.533-.409-1.02-.77-1.519-.931-.495-.174-.964-.096-1.28.083-.326.174-.495.426-.556.605-.065.183-.057.291-.07.291 0 0-.026-.108.026-.304s.222-.47.556-.671c.165-.095.37-.178.608-.208.239-.031.495 0 .76.082.53.157 1.042.527 1.576.923.534.383 1.172.822 1.945.779.382-.013.772-.122 1.185-.218.408-.095.85-.2 1.32-.143.946.1 1.762.87 2.075 1.823.16.479.178 1.019.03 1.524a2.97 2.97 0 0 1-.842 1.314 3.405 3.405 0 0 1-1.363.757c-.5.148-1.025.144-1.507.07-.486-.065-.95-.17-1.402-.222-.452-.052-.903-.052-1.294.109-.395.148-.699.452-.903.8-.204.353-.321.74-.386 1.119-.13.766-.113 1.519-.265 2.189-.148.67-.465 1.249-.907 1.589-.439.357-.982.37-1.342.248a1.16 1.16 0 0 1-.69-.531c-.096-.183-.092-.292-.092-.292l-.004-.013ZM55.615 125.752s.07-.165.3-.404c.23-.236.646-.549 1.285-.653.62-.113 1.489.108 2.075.827.295.348.482.835.52 1.344.066.501.044 1.062.33 1.515.14.222.374.383.635.47.264.091.56.118.86.135.303.017.616.013.937.048.317.035.669.104.95.335.144.109.248.261.33.422.075.17.1.357.088.544-.035.37-.217.705-.452.984-.234.278-.53.513-.864.683-.326.165-.669.3-1.003.457-.334.152-.66.326-.925.57-.269.244-.451.566-.542.927-.178.736-.013 1.523-.052 2.355-.035.413-.122.835-.33 1.218-.2.379-.573.718-1.034.779-.46.074-.911-.13-1.246-.413a3.818 3.818 0 0 1-.829-1.014c-.217-.37-.421-.744-.669-1.071-.247-.326-.55-.605-.924-.722-.37-.127-.773-.07-1.138.074-.369.143-.712.357-1.055.565-.347.209-.69.427-1.08.566-.387.144-.791.205-1.195.196a3.728 3.728 0 0 1-2.175-.766c-.608-.457-1.05-1.123-1.19-1.841-.143-.705-.008-1.501.517-1.984.256-.244.578-.383.895-.462.316-.082.63-.122.933-.161.6-.074 1.18-.191 1.598-.544.416-.348.664-.831.85-1.292.183-.466.309-.927.465-1.35.157-.422.343-.805.586-1.109.248-.305.513-.536.76-.732.5-.387.955-.609 1.298-.631.348-.034.486.148.482.135-.004.026-.148-.139-.477-.091-.322.03-.769.261-1.246.653-.24.2-.5.435-.73.726-.23.296-.404.671-.551 1.089-.152.417-.27.879-.452 1.357-.186.47-.434.98-.881 1.363-.452.387-1.077.513-1.676.592-.595.087-1.259.152-1.72.587-.46.427-.59 1.153-.45 1.811.134.666.546 1.284 1.124 1.714a3.522 3.522 0 0 0 2.053.714 3.03 3.03 0 0 0 1.112-.187c.36-.131.694-.339 1.042-.548.343-.209.694-.431 1.09-.588.39-.157.86-.222 1.285-.078.43.135.772.457 1.033.796.265.344.473.727.686 1.093.213.361.469.696.777.953.308.257.69.426 1.068.365.378-.052.69-.322.873-.661.186-.34.273-.736.304-1.127.043-.779-.126-1.593.065-2.39.095-.396.308-.766.607-1.031.296-.27.643-.449.982-.605.338-.157.681-.287.998-.449.313-.156.586-.374.803-.631.217-.256.383-.557.413-.87a.972.972 0 0 0-.07-.448 1.053 1.053 0 0 0-.273-.357c-.235-.192-.547-.266-.851-.3-.308-.035-.62-.035-.93-.053-.307-.017-.616-.048-.906-.152-.287-.1-.556-.287-.712-.544-.318-.522-.278-1.097-.34-1.584a2.281 2.281 0 0 0-.477-1.284c-.547-.692-1.363-.918-1.967-.823a2.3 2.3 0 0 0-1.263.601c-.239.226-.321.383-.334.374v.013ZM48.308 118.406s-.273.313-.898.444c-.308.065-.69.087-1.107.008-.404-.087-.877-.265-1.186-.683-.295-.413-.39-.883-.425-1.297a3.64 3.64 0 0 1 .078-1.101c.139-.622.452-.914.46-.892.03.022-.212.326-.304.923a3.741 3.741 0 0 0-.026 1.048c.044.388.148.827.4 1.18.256.352.673.522 1.046.614.382.082.743.078 1.033.039.595-.083.908-.322.93-.288v.005ZM66.999 117.296s0 .043-.03.122a1.205 1.205 0 0 1-.17.313c-.174.253-.53.575-1.08.723-.27.069-.591.091-.917.021-.334-.069-.643-.278-.925-.496-.286-.213-.573-.465-.916-.561-.338-.105-.712.043-.925.365-.225.318-.351.705-.534 1.058a2.121 2.121 0 0 1-.768.875c-.634.418-1.385.426-1.902.209a2.102 2.102 0 0 1-.998-.836c-.16-.265-.187-.44-.178-.444.017-.009.074.152.252.392.173.235.486.553.98.735.483.183 1.16.157 1.729-.23.286-.192.52-.462.681-.801.174-.34.296-.731.547-1.093.126-.178.3-.343.517-.422a1.02 1.02 0 0 1 .651-.026c.413.126.7.396.982.61.277.221.547.409.842.478.29.074.581.061.833.005.513-.118.86-.396 1.047-.623.19-.226.251-.387.269-.378l.013.004ZM70.095 134.383s-.183-.096-.482-.314c-.295-.222-.72-.557-1.185-1.031a5.74 5.74 0 0 1-.69-.853 2.972 2.972 0 0 1-.435-1.197c-.056-.448-.017-.949.222-1.397.117-.222.286-.427.49-.588.204-.161.426-.283.643-.409.212-.126.42-.252.577-.418.16-.161.27-.361.334-.574.126-.431.092-.888.044-1.314-.052-.431-.113-.853-.091-1.254.03-.392.125-.796.403-1.04a2.298 2.298 0 0 1 1.463-.588c.396 0 .552.205.539.201-.013.017-.17-.144-.534-.114-.347.027-.89.183-1.355.614-.225.209-.308.566-.325.936-.018.374.047.783.108 1.218.057.436.1.919-.039 1.406-.07.244-.2.479-.382.67-.182.192-.408.327-.625.457-.443.249-.847.497-1.05.906-.213.396-.257.853-.21 1.266.088.853.6 1.484 1.03 1.967.898.958 1.58 1.424 1.55 1.458v-.008ZM61.016 143.017s.07-.013.204-.013c.135 0 .33.005.582.035.5.057 1.242.174 2.058.601.803.413 1.676 1.249 1.945 2.467.13.597.078 1.297-.27 1.885-.338.583-.915 1.071-1.632 1.223-.356.074-.733.03-1.055-.057-.32-.082-.625-.13-.903-.017-.278.104-.512.309-.699.54-.19.23-.338.491-.486.753-.282.517-.62 1.04-1.133 1.296a2.135 2.135 0 0 1-1.49.179 1.89 1.89 0 0 1-1.037-.679 2.113 2.113 0 0 1-.4-.844 1.686 1.686 0 0 1-.03-.588c.018-.135.04-.2.044-.2.026 0-.052.283.074.766.065.235.186.518.412.788.221.265.551.509.977.6.417.096.92.052 1.363-.187.452-.235.76-.709 1.038-1.232.282-.509.62-1.127 1.29-1.401.334-.139.716-.078 1.032.004.326.087.634.118.956.057.638-.135 1.176-.579 1.485-1.114.32-.536.373-1.171.256-1.732-.243-1.145-1.055-1.955-1.82-2.372-.777-.431-1.502-.57-1.992-.653-.495-.078-.773-.087-.773-.109l.004.004ZM52.884 157.393c-.048.008-.04-.405-.408-.897a2.168 2.168 0 0 0-.812-.657 1.835 1.835 0 0 0-1.237-.135c-.43.122-.782.414-1.003.74a2.189 2.189 0 0 0-.374.975c-.073.609.14.966.096.979-.013.004-.074-.074-.143-.239a1.77 1.77 0 0 1-.113-.758c.017-.326.121-.713.36-1.079.234-.366.62-.701 1.116-.84.5-.13 1.003-.03 1.385.165.386.196.677.479.85.753.179.275.261.531.279.71.021.178.008.278 0 .278l.004.005ZM54.278 163.725c-.022 0-.04-.204-.196-.535a2.281 2.281 0 0 0-1.042-1.071c-.56-.291-1.415-.304-2.118.161-.356.222-.6.596-.877.993-.144.195-.291.4-.495.565-.2.17-.474.288-.756.283-.582-.026-.994-.422-1.302-.783-.308-.37-.569-.749-.92-.962-.348-.222-.76-.261-1.125-.205-.37.057-.69.209-.951.396-.521.383-.808.845-1.003 1.154-.187.318-.282.5-.295.492-.013-.005.052-.201.221-.536.174-.326.443-.818.986-1.24a2.32 2.32 0 0 1 1.016-.453c.395-.069.864-.039 1.263.209.404.244.678.644.981.997.291.344.682.688 1.138.701.464.013.803-.375 1.068-.753.27-.379.543-.792.942-1.036.777-.501 1.706-.466 2.305-.126.613.33.916.831 1.051 1.179.07.174.096.322.113.418.009.1.013.148 0 .152h-.004ZM57.608 147.935c-.026.04-.425-.348-1.25-.552a3.96 3.96 0 0 0-1.464-.079 3.525 3.525 0 0 0-1.65.644 3.047 3.047 0 0 0-1.041 1.415 3.14 3.14 0 0 0-.157 1.445c.118.84.508 1.253.46 1.279-.008.009-.108-.087-.243-.291-.139-.2-.29-.531-.373-.966a3.193 3.193 0 0 1 .117-1.537 3.143 3.143 0 0 1 1.103-1.527c.547-.409 1.181-.605 1.758-.671a3.863 3.863 0 0 1 1.529.131c.42.126.733.3.929.448.195.148.286.248.278.257l.004.004Z" fill="#FAFAFA"/><path d="M141.988 126.078V134l2.465-8.906" fill="#022749"/><path d="m151.734 122-9.014.117a.045.045 0 0 0-.023.004.055.055 0 0 0-.02.017l-.674.78a.022.022 0 0 0-.005.008l.001.01c.001.004.003.007.005.008a.01.01 0 0 0 .007.003l5.315-.109a.031.031 0 0 1 .025.008.049.049 0 0 1 .013.03.056.056 0 0 1-.006.034.032.032 0 0 1-.022.018l-6.938 1.851c-.002 0-.005.002-.006.004l-2.376 2.751a.088.088 0 0 0-.016.046.09.09 0 0 0 .01.049.058.058 0 0 0 .03.03.042.042 0 0 0 .038-.003l13.677-5.511a.064.064 0 0 0 .032-.033c.007-.016.009-.035.007-.053a.083.083 0 0 0-.022-.045.045.045 0 0 0-.038-.014Z" fill="#022749"/><path d="M142 122.933v1.418l5.875-1.57-5.875.152Z" fill="#022749"/></g><defs><clipPath id="a"><path fill="#fff" d="M0 0h290v182H0z"/></clipPath></defs></svg>