<svg width="325" height="295" fill="none" xmlns="http://www.w3.org/2000/svg"><g clip-path="url(#a)"><path d="M228.111.014h-43.793v45.69h43.793V.014Z" fill="#E0E0E0"/><path d="M225.146.014h-43.793v45.69h43.793V.014Z" fill="#FAFAFA"/><path d="M225.16 45.718h-43.822V0h43.822v45.718Zm-43.793-.029h43.772V.03h-43.772v45.66Z" fill="#E0E0E0"/><path d="M219.257 6.157h-32.022V39.56h32.022V6.157Z" fill="#FAFAFA"/><path d="M187.235 39.788s-.277.377-.788.916a97.102 97.102 0 0 1-4.129 4.07c-.547.504-.901.802-.923.773-.028-.028.277-.376.788-.916a88.455 88.455 0 0 1 2.043-2.066 96.922 96.922 0 0 1 2.094-2.01c.546-.504.894-.795.922-.767h-.007ZM219.256 39.703s.376.277.916.788c.539.512 1.27 1.229 2.064 2.038.795.81 1.498 1.548 2.001 2.095.504.547.802.902.774.923-.029.029-.376-.276-.916-.788a85.963 85.963 0 0 1-2.064-2.045 95.74 95.74 0 0 1-2.008-2.095c-.504-.547-.795-.895-.767-.923v.007ZM219.171 6.242s.277-.376.788-.923a84.522 84.522 0 0 1 2.036-2.067 96.936 96.936 0 0 1 2.093-2.002c.547-.504.901-.803.923-.774.028.028-.277.376-.788.916a86.562 86.562 0 0 1-2.043 2.066 97.03 97.03 0 0 1-2.094 2.01c-.546.504-.894.795-.922.767l.007.007ZM187.149 6.327s-.376-.277-.915-.788a98.105 98.105 0 0 1-4.066-4.133c-.503-.547-.801-.902-.773-.923.028-.029.376.277.915.788.54.511 1.27 1.236 2.065 2.045a98.29 98.29 0 0 1 2.008 2.095c.504.547.795.895.766.923v-.007Z" fill="#E0E0E0"/><path d="M219.171 39.561v-.632c0-.419-.007-1.023-.014-1.804-.007-1.583-.021-3.884-.035-6.81-.015-5.851-.036-14.188-.064-24.165l.12.12c-9.323 0-20.271.015-31.929.022l.142-.142c-.007 12.263-.014 23.732-.022 33.404l-.12-.12c9.572.028 17.533.049 23.124.063 2.788.014 4.988.021 6.492.029.745 0 1.32.014 1.717.014h.603-.574c-.398 0-.958.007-1.696.014-1.504.007-3.69.021-6.464.028-5.605.015-13.602.036-23.202.064h-.121v-.12c0-9.672-.014-21.148-.021-33.405V5.98h.142c11.665 0 22.606.014 31.929.022h.121v.12c-.028 10.013-.05 18.378-.064 24.244-.014 2.911-.028 5.205-.035 6.782 0 .774-.015 1.363-.015 1.782v.604l-.014.028Z" fill="#E0E0E0"/><path d="M208.592 17.512h-10.686v10.694h10.686V17.512Z" fill="#EBEBEB"/><path d="M77.49 18.89H15.914v64.237h61.574V18.89Z" fill="#E0E0E0"/><path d="M73.317 18.89H11.743v64.237h61.574V18.89Z" fill="#FAFAFA"/><path d="M73.339 83.148H11.722v-64.28h61.61v64.273l.007.007Zm-61.575-.035h61.54V18.911h-61.54v64.202Z" fill="#E0E0E0"/><path d="M65.044 27.524h-45.02v46.968h45.02V27.524Z" fill="#FAFAFA"/><path d="M20.023 74.805c.036.042-.39.532-1.114 1.292-.716.76-1.731 1.79-2.86 2.904a130.421 130.421 0 0 1-2.944 2.82c-.766.703-1.263 1.122-1.298 1.086-.036-.042.383-.525 1.107-1.285.716-.76 1.731-1.79 2.866-2.912a115.666 115.666 0 0 1 2.945-2.819c.766-.703 1.263-1.122 1.298-1.08v-.007ZM65.044 74.69c.043-.035.532.392 1.291 1.116.76.717 1.788 1.733 2.902 2.862a130.627 130.627 0 0 1 2.817 2.947c.703.767 1.121 1.264 1.086 1.3-.043.035-.525-.384-1.284-1.109-.76-.717-1.788-1.732-2.91-2.869a115.612 115.612 0 0 1-2.817-2.947c-.702-.766-1.12-1.264-1.078-1.3h-.007ZM64.916 27.652c-.035-.042.39-.532 1.114-1.292.717-.76 1.731-1.79 2.86-2.905a130.008 130.008 0 0 1 2.944-2.819c.766-.703 1.263-1.122 1.299-1.086.035.042-.383.525-1.107 1.285-.717.76-1.731 1.79-2.867 2.912a115.666 115.666 0 0 1-2.944 2.819c-.767.703-1.263 1.122-1.299 1.08v.006ZM19.896 27.766c-.043.035-.532-.39-1.291-1.115-.76-.717-1.789-1.733-2.903-2.862a130.39 130.39 0 0 1-2.816-2.947c-.703-.767-1.121-1.264-1.086-1.3.035-.035.525.384 1.284 1.108a140.638 140.638 0 0 1 5.726 5.816c.703.767 1.121 1.264 1.079 1.3h.007Z" fill="#E0E0E0"/><path d="M64.916 74.492s0-.078-.007-.227c0-.163 0-.377-.007-.653 0-.59-.014-1.435-.021-2.536-.007-2.222-.029-5.46-.043-9.572l-.085-33.972.17.17c-13.105.007-28.495.014-44.893.028l.199-.198c-.007 17.241-.021 33.368-.028 46.967l-.17-.17 32.504.085c3.923.021 7.01.035 9.131.043 1.05.007 1.852.014 2.413.02.262 0 .468.008.624.008.142 0 .213 0 .22.007 0 0-.064 0-.198.007-.15 0-.348 0-.604.007-.553 0-1.348.014-2.384.022-2.114.007-5.187.028-9.089.042-7.876.022-19.115.05-32.618.085h-.17v-.17c-.007-13.599-.021-29.726-.029-46.968v-.198h.2c16.397.007 31.787.02 44.892.028h.177v.17c-.035 14.075-.063 25.835-.085 34.086-.02 4.09-.035 7.315-.042 9.53a473.699 473.699 0 0 1-.022 2.5c0 .27-.007.483-.007.639 0 .142 0 .213-.007.206l-.021.014Z" fill="#E0E0E0"/><path d="M50.044 43.488H35.023v15.033h15.021V43.488Z" fill="#EBEBEB"/><path d="M307.942 37.303h-64.377v67.163h64.377V37.303Z" fill="#E0E0E0"/><path d="M303.579 37.303h-64.377v67.163h64.377V37.303Z" fill="#FAFAFA"/><path d="M303.6 104.488h-64.419V37.282H303.6v67.206Zm-64.377-.043h64.342v-67.12h-64.342v67.127-.007Z" fill="#E0E0E0"/><path d="M294.93 46.336h-47.072V95.44h47.072V46.336Z" fill="#FAFAFA"/><path d="M247.859 95.767c.035.043-.412.561-1.164 1.35-.752.795-1.809 1.867-2.994 3.032a143.633 143.633 0 0 1-3.073 2.947c-.801.738-1.319 1.172-1.362 1.136-.043-.043.404-.554 1.157-1.349a123.91 123.91 0 0 1 3.001-3.04 128.512 128.512 0 0 1 3.079-2.954c.802-.738 1.32-1.171 1.356-1.129v.007ZM294.929 95.647c.043-.036.561.412 1.349 1.164.794.753 1.866 1.811 3.029 2.997a139.935 139.935 0 0 1 2.945 3.075c.738.802 1.171 1.321 1.135 1.363-.042.043-.553-.404-1.348-1.157a124.376 124.376 0 0 1-3.037-3.004 126.716 126.716 0 0 1-2.952-3.082c-.737-.802-1.17-1.32-1.128-1.356h.007ZM294.802 46.464c-.036-.043.411-.561 1.163-1.35.753-.795 1.81-1.867 2.995-3.032a141.204 141.204 0 0 1 3.072-2.947c.802-.738 1.32-1.172 1.362-1.136.043.042-.404.554-1.156 1.349-.752.795-1.81 1.868-3.002 3.04a126.64 126.64 0 0 1-3.079 2.954c-.802.738-1.32 1.171-1.355 1.129v-.007ZM247.731 46.584c-.043.036-.561-.412-1.349-1.164a136.16 136.16 0 0 1-3.036-2.997 141.1 141.1 0 0 1-2.945-3.075c-.738-.802-1.171-1.32-1.135-1.363.042-.043.553.404 1.348 1.157s1.866 1.81 3.037 3.004c1.17 1.186 2.213 2.28 2.951 3.082s1.171 1.32 1.129 1.356Z" fill="#E0E0E0"/><path d="M294.802 95.44s0-.084-.007-.24c0-.171 0-.391-.007-.69 0-.617-.015-1.498-.022-2.648-.014-2.33-.028-5.71-.049-10.006-.022-8.6-.057-20.856-.093-35.527l.185.184c-13.701.007-29.794.014-46.937.029l.206-.206c-.014 18.023-.021 34.888-.028 49.105l-.178-.178c14.064.036 25.778.071 33.988.093 4.101.02 7.329.035 9.55.05 1.093.006 1.937.013 2.526.02.277 0 .49.008.653.008.149 0 .227 0 .227.007 0 0-.064 0-.206.007-.156 0-.362 0-.631.007-.582 0-1.412.014-2.491.021-2.206.014-5.421.029-9.508.05-8.237.021-19.988.057-34.1.092h-.178v-.177c-.007-14.224-.021-31.082-.028-49.105v-.206h.206c17.142.007 33.235.021 46.936.028H295v.185c-.035 14.72-.07 27.013-.092 35.64-.021 4.283-.035 7.649-.049 9.971-.008 1.136-.015 2.01-.022 2.613 0 .284-.007.505-.007.668 0 .149 0 .22-.007.22l-.021-.014Z" fill="#E0E0E0"/><path d="M279.249 63.024H263.54v15.722h15.709V63.024Z" fill="#EBEBEB"/><path d="M14.993 262.022v32.893H116.06v-32.893H14.993Z" fill="#F5F5F5"/><path d="M10.757 252.826v9.196h108.837v-9.196H10.757Z" fill="#E0E0E0"/><path d="M65.18 294.915h50.881v-32.893h3.533v-9.196H63.058v8.344l2.121 33.745ZM49.633 267.326H29.134v4.95h20.499v-4.95Z" fill="#E0E0E0"/><path d="M52.812 278.468H26.495v10.453h26.317v-10.453Z" fill="#fff"/><path d="M157.001 199.225s-1.66-7.214-8.351-6.852c-6.691.362-8.316.362-11.211 0-2.895-.362-7.372-3.842-8.635-2.756-1.263 1.087-.561 3.438 1.795 5.532 2.348 2.095 6.386 3.515 6.386 3.515l-8.55 1.47s-7.706-4.111-9.515-3.387c-1.81.724-1.668 2.727-1.668 2.727s-3.2-1.442-4.101-.17c-.901 1.264-1.121 2.116-.22 2.833 0 0-.596-.589-2.256-.099-1.419.419-1.299 3.039 0 3.742l.44.256s12.112 6.987 12.488 7.037c2.143.284 15.198-.27 21.925-.582a6.873 6.873 0 0 1 6.137 3.209l10.828 17.178 12.225-14.096-17.724-19.549.007-.008Z" fill="#FFBE9D"/><path d="M135.027 203.167c0 .042-.731.198-1.98.44-1.249.234-3.016.554-5.066.902h-.05l-.05-.014c-.858-.391-1.78-.817-2.738-1.257a4498.387 4498.387 0 0 0-6.535-3.025c-.774-.37-1.434-.682-1.973-.938-.461-.227-.709-.369-.702-.39.007-.022.284.071.759.262l2.015.831c.873.377 1.873.81 2.973 1.278l3.605 1.648c.957.447 1.88.873 2.731 1.271l-.106-.014c2.058-.327 3.831-.597 5.087-.767 1.263-.178 2.008-.263 2.015-.22l.015-.007ZM132.032 206.384c.036.106-1.384.468-2.739 1.562-1.376 1.079-2.043 2.372-2.143 2.315-.092-.022.462-1.463 1.916-2.606 1.441-1.158 2.973-1.364 2.973-1.271h-.007ZM145.904 196.271c.043 0 .078.441.312 1.151a6.046 6.046 0 0 0 1.646 2.542l.249.22-.327.064a17.407 17.407 0 0 0-3.32.987 17.515 17.515 0 0 0-4.662 2.862c-1.072.916-1.639 1.591-1.689 1.548-.021-.014.107-.199.355-.511.255-.313.638-.746 1.156-1.236 1.036-.98 2.661-2.173 4.691-3.011a16.015 16.015 0 0 1 3.405-.973l-.085.284a5.696 5.696 0 0 1-1.61-2.727c-.185-.752-.149-1.207-.121-1.207v.007ZM137.893 198.317c.035.106-2.037.766-4.662 1.256a40.035 40.035 0 0 1-3.377.498c-.873.085-1.412.106-1.419.056-.015-.106 2.121-.426 4.725-.916l3.335-.66c.852-.171 1.384-.277 1.398-.227v-.007ZM126.512 207.79c-.028.049-.78-.299-2.029-.81-1.242-.518-2.98-1.172-4.91-1.868-1.937-.696-3.683-1.342-4.924-1.874-1.242-.526-1.987-.916-1.966-.959.021-.05.802.249 2.065.717 1.376.49 3.072 1.101 4.952 1.776 1.938.695 3.669 1.391 4.896 1.974 1.221.575 1.944 1.008 1.923 1.051l-.007-.007Z" fill="#EB996E"/><path d="M129.592 207.498c.035.093-1.093.554-2.569.696-1.476.149-2.668-.085-2.654-.177.014-.107 1.185-.043 2.618-.192 1.434-.135 2.576-.433 2.605-.327Z" fill="#EB996E"/><path d="M197.012 166.013s-10.813 6.228-13.084 25.259c-1.177 9.921-5.499 28.37-5.499 28.37l-8.876-9.992-13.425 15.388s14.511 30.99 22.741 39.448c8.231 8.45 24.451 11.057 24.451 11.057l3.264-51.797-9.572-57.726v-.007Z" fill="#15A9F3"/><path d="m279.064 157.456-24.997-4.382-31.866 1.584s-26.537 10.964-25.189 11.355l-5.172 51.271 12.821 24.769-3.164 52.755h87.927l-4.591-36.685-5.755-44.205 10.92 34.221 1.654 46.669h24.479c2.583-20.324 3.399-48.558 3.399-48.558l-19.981-65.317c-2.775-9.076-8.756-16.887-16.923-21.716-1.405-.831-2.639-1.449-3.569-1.768l.007.007Z" fill="#15A9F3"/><path d="M196.729 191.883s.028.085.063.263c.036.191.086.447.142.774.121.703.291 1.697.511 2.968a851.414 851.414 0 0 1 1.774 10.936c.71 4.623 1.518 10.14 2.285 16.276.759 6.142 1.483 12.91 1.894 20.04.036.66.071 1.32.107 1.938v.014c-.376 13.841-.795 26.275-1.185 35.244-.199 4.488-.376 8.11-.532 10.609a451.776 451.776 0 0 0-.192 2.876c-.028.313-.043.561-.064.746-.014.17-.028.255-.035.255 0 0-.007-.085 0-.255 0-.185.014-.433.028-.746.028-.682.071-1.64.128-2.876.099-2.521.241-6.135.411-10.609.32-8.976.703-21.41 1.072-35.244v.015c-.036-.611-.071-1.271-.107-1.932-.411-7.122-1.121-13.883-1.859-20.018a645.575 645.575 0 0 0-2.206-16.283c-.696-4.609-1.263-8.344-1.654-10.958-.191-1.278-.34-2.279-.447-2.982a43.63 43.63 0 0 0-.106-.774c-.021-.178-.028-.263-.021-.27l-.007-.007ZM273.43 194.659s-.042-.106-.078-.326a93.933 93.933 0 0 0-.156-.952c-.035-.213-.064-.44-.106-.689-.029-.255-.036-.525-.057-.823-.029-.59-.107-1.272-.064-2.017.007-.377.014-.767.028-1.172.015-.412.078-.831.114-1.271.057-.881.248-1.804.426-2.777a30.139 30.139 0 0 1 2.036-6.1 30.508 30.508 0 0 1 3.37-5.482c.639-.76 1.221-1.498 1.852-2.109.312-.312.596-.632.901-.902.306-.27.604-.525.88-.774.547-.511 1.114-.887 1.59-1.242.241-.171.461-.341.667-.483l.596-.362.83-.49c.191-.107.291-.157.298-.15 0 .015-.085.086-.263.213-.213.15-.475.327-.787.547-.178.121-.369.249-.575.384-.206.149-.412.326-.646.504-.454.369-1.007.76-1.539 1.278-.277.249-.561.511-.859.781-.298.277-.568.597-.873.909-.617.611-1.185 1.349-1.809 2.109a31.85 31.85 0 0 0-3.307 5.426 31.271 31.271 0 0 0-2.036 6.022c-.177.958-.383 1.874-.454 2.741-.043.433-.114.852-.135 1.249-.014.405-.035.789-.05 1.165-.056.739 0 1.413.015 2.003.014.291.007.568.028.823.028.249.05.476.071.689.035.377.064.696.085.952.014.22.021.333 0 .341l.007-.015ZM290.005 248.146s-.071-.142-.163-.426c-.106-.32-.234-.724-.397-1.236-.348-1.122-.837-2.663-1.426-4.552-1.199-3.841-2.853-9.153-4.754-14.99-1.902-5.838-3.662-11.121-5.081-14.877-.738-1.868-1.454-3.331-1.894-4.368-.22-.518-.39-.923-.497-1.2-.106-.277-.156-.426-.142-.433.014 0 .085.135.213.398.142.305.327.688.554 1.171.475 1.016 1.234 2.464 2.008 4.332 1.49 3.75 3.285 9.019 5.186 14.863a554.024 554.024 0 0 1 4.648 15.026 299.178 299.178 0 0 1 1.313 4.581c.134.511.248.93.333 1.249.071.292.106.441.092.448l.007.014ZM308.439 246.513c-.021.064-.95-.213-2.49-.448a23.9 23.9 0 0 0-6.053-.142 23.648 23.648 0 0 0-5.882 1.442c-1.447.568-2.299 1.037-2.334.973-.014-.022.191-.157.568-.384.376-.227.943-.518 1.667-.838 1.44-.639 3.541-1.299 5.939-1.569 2.398-.256 4.598-.064 6.137.248.774.157 1.391.313 1.81.455.418.135.645.227.638.248v.015ZM197.771 242.898s-.248-.348-.659-.987a43.702 43.702 0 0 0-1.93-2.592c-1.696-2.144-4.187-4.985-6.947-8.117-2.767-3.124-5.272-5.965-7.039-8.052a157.071 157.071 0 0 1-2.064-2.5c-.476-.597-.731-.937-.71-.959.021-.014.312.291.823.859.554.618 1.277 1.435 2.15 2.422 1.859 2.088 4.357 4.886 7.124 7.982 2.767 3.131 5.229 6.007 6.883 8.202a28.646 28.646 0 0 1 1.844 2.677c.199.327.327.604.419.781.092.178.135.277.121.284h-.015Z" fill="#022749"/><path d="M202.653 275.543c.404-14.338 1.142-27.567-.156-41.727-.582 12.569-5.151 27.276-9.756 38.978l9.912 2.741v.008ZM279.085 213.925s-4.079-9.132-3.803-9.132c-.404 17.093 3.073 36.699 9.458 52.556l-5.655-43.424Z" fill="#022749" opacity=".3"/><path d="M267.867 262.356s-.163.12-.489.312c-.355.206-.837.483-1.433.831a302.672 302.672 0 0 0-5.23 3.146c-2.199 1.342-4.81 2.954-7.776 4.637-2.973 1.662-6.322 3.394-10.033 4.743-3.718 1.307-7.422 2.209-10.871 2.216-1.717 0-3.356-.227-4.817-.682a11.446 11.446 0 0 1-3.761-1.974c-2.036-1.654-3.051-3.636-3.37-5.042a7.19 7.19 0 0 1-.22-1.654c.007-.384.021-.583.035-.583.057 0-.057.817.327 2.195.354 1.37 1.383 3.288 3.398 4.871a11.407 11.407 0 0 0 3.683 1.882c1.433.426 3.037.646 4.725.632 3.385-.028 7.06-.923 10.75-2.223 3.683-1.342 7.017-3.053 9.998-4.694 2.972-1.661 5.591-3.252 7.812-4.566 2.213-1.321 4.03-2.35 5.293-3.046.617-.327 1.107-.582 1.469-.774.34-.171.518-.256.525-.249l-.015.022Z" fill="#022749"/><path d="M267.761 241.556s-.071.447-.277 1.236c-.092.397-.227.88-.411 1.427-.185.547-.369 1.186-.653 1.86-.262.682-.56 1.428-.936 2.195-.348.788-.795 1.59-1.249 2.443a39.832 39.832 0 0 1-3.548 5.184 39.58 39.58 0 0 1-4.385 4.495c-.745.617-1.44 1.214-2.15 1.704-.681.525-1.355.959-1.965 1.349-.603.412-1.192.717-1.696 1.001a13.84 13.84 0 0 1-1.32.682c-.738.348-1.149.533-1.156.511-.015-.021.376-.248 1.092-.639a17.65 17.65 0 0 0 1.285-.738c.489-.306 1.064-.625 1.653-1.044a29.755 29.755 0 0 0 1.93-1.378c.688-.497 1.376-1.1 2.107-1.718a41.467 41.467 0 0 0 4.321-4.474 42.412 42.412 0 0 0 3.541-5.113c.461-.838.915-1.626 1.27-2.4.39-.76.695-1.491.972-2.159.298-.66.497-1.285.702-1.825.206-.54.355-1.015.469-1.399.241-.774.39-1.2.411-1.193l-.007-.007Z" fill="#022749"/><path d="M197.991 208.805c-.021.099-3.718-.632-8.252-1.633-4.541-1.002-8.195-1.896-8.173-1.996.021-.099 3.718.632 8.252 1.634 4.534 1.001 8.195 1.896 8.173 1.995ZM197.992 204.644c-.007.049-.901-.043-2.335-.263-1.433-.22-3.406-.568-5.584-.987-2.114-.419-4.03-.788-5.556-1.094-1.419-.284-2.298-.468-2.291-.518.007-.05.901.043 2.334.263 1.433.22 3.406.568 5.584.987 2.115.412 4.03.788 5.556 1.093 1.419.284 2.299.469 2.292.519ZM304.657 200.369s.029-.014.085-.014c-.028.078-.063.028-.106.042h-.057v-.071h.305l-.213.078c-1.312.483-6.797 2.344-13.282 4.815-3.697 1.427-7.046 2.713-9.551 3.678-1.178.448-2.15.824-2.895 1.108-.688.256-1.071.391-1.078.362-.007-.021.355-.198 1.029-.497.667-.298 1.646-.717 2.852-1.221a310.816 310.816 0 0 1 9.515-3.778c6.485-2.471 12.027-4.218 13.389-4.538v.078l-.071-.007v-.071h.057c.043.022.078-.028.106.057-.056-.007-.085-.014-.085-.021ZM304.076 195.781c.035.1-6.195 2.28-13.915 4.872-7.719 2.599-13.999 4.623-14.034 4.523-.036-.099 6.194-2.279 13.914-4.871 7.713-2.592 13.999-4.623 14.028-4.524h.007ZM256.614 153.607s.036.199.064.575c.043.377.057.938.043 1.655-.036 1.434-.32 3.529-1.256 5.944-.958 2.386-2.618 5.084-5.265 7.271-2.618 2.209-6.265 3.693-10.203 3.949-3.945.227-7.748-.803-10.608-2.678-2.895-1.853-4.867-4.331-6.109-6.582-1.221-2.28-1.76-4.325-1.973-5.745-.099-.71-.156-1.264-.156-1.648-.014-.376-.014-.575 0-.575s.043.199.078.568c.029.376.107.923.227 1.626.256 1.399.823 3.409 2.058 5.639 1.249 2.201 3.221 4.623 6.06 6.419 2.816 1.818 6.542 2.819 10.409 2.592 3.86-.248 7.436-1.69 10.011-3.842 2.604-2.13 4.265-4.772 5.237-7.108.958-2.365 1.277-4.431 1.355-5.851.035-.711.05-1.264.028-1.641 0-.376 0-.575.007-.575l-.007.007ZM170.171 211.127s-.114.256-.377.689a38.948 38.948 0 0 1-1.163 1.782 67.164 67.164 0 0 1-4.257 5.568 68.815 68.815 0 0 1-4.797 5.113 47.52 47.52 0 0 1-1.561 1.434c-.383.327-.596.497-.617.483-.014-.021.17-.227.518-.582.404-.419.901-.923 1.476-1.52a110.326 110.326 0 0 0 4.697-5.17c1.759-2.08 3.264-4.04 4.328-5.482.49-.667.908-1.243 1.256-1.711.298-.405.468-.618.489-.604h.008Z" fill="#FAFAFA"/><path d="M250.328 264.358c-3.584 2.038-8.416 2.365-12.73 2.478-.816.022-1.66.015-2.398-.319-.738-.334-1.362-1.079-1.291-1.896.085-.973 1.057-1.605 1.965-1.981 3.484-1.442 7.394-1.364 11.055-2.28 6.237-1.569 12.594-6.022 17.448-10.24-3.704 6.249-7.77 10.474-14.049 14.238Z" fill="#022749" opacity=".3"/><path d="M236.91 170.394c-8.373-.667-14.808-7.704-14.737-16.112.035-3.991.078-7.18.078-7.18s-12.85-2.002-13.006-14.856c-.156-12.853 2.064-42.373 2.064-42.373a44.599 44.599 0 0 1 44.858 5.646l1.901 1.47-3.909 58.507c-.596 8.912-8.351 15.616-17.249 14.905v-.007Z" fill="#FFBE9D"/><path d="M222.23 146.918s8.117.66 16.745-4.765c0 0-3.959 9.253-16.774 8.095l.029-3.33Z" fill="#EB996E"/><path d="M256.486 110.297c.22-.093 8.827-2.614 8.543 6.178-.284 8.791-9.039 6.696-9.047 6.44 0-.255.504-12.618.504-12.618Z" fill="#FFBE9D"/><path d="M258.778 119.67c.043-.028.149.114.405.242.248.12.681.22 1.142.056.937-.312 1.767-1.761 1.859-3.344a5.036 5.036 0 0 0-.355-2.209c-.248-.653-.646-1.115-1.114-1.214a.78.78 0 0 0-.915.391c-.128.241-.078.419-.121.433-.028.021-.184-.157-.099-.512a.981.981 0 0 1 .362-.539c.213-.164.532-.242.851-.199.674.071 1.263.71 1.554 1.413.326.703.504 1.569.454 2.464-.113 1.768-1.071 3.395-2.355 3.721-.625.142-1.136-.064-1.391-.277-.263-.227-.305-.426-.277-.44v.014Z" fill="#EB996E"/><path d="M215.978 110.488c-.036.966.759 1.797 1.767 1.854 1.007.057 1.859-.689 1.887-1.655.035-.966-.759-1.796-1.767-1.853-1.007-.057-1.859.689-1.894 1.654h.007ZM213.743 107.96c.227.242 1.618-.788 3.59-.781 1.973-.021 3.42.994 3.633.753.107-.107-.128-.54-.759-1.001-.617-.455-1.682-.902-2.909-.895-1.228 0-2.264.461-2.86.923-.61.469-.816.902-.702 1.008l.007-.007ZM234.93 110.914c-.036.966.759 1.797 1.767 1.854 1.007.057 1.859-.689 1.887-1.655.036-.966-.759-1.796-1.767-1.853-1.007-.057-1.859.689-1.894 1.654h.007ZM233.149 108.322c.227.242 1.618-.788 3.59-.781 1.973-.021 3.42.994 3.633.753.107-.107-.127-.54-.759-1.001-.617-.455-1.682-.902-2.909-.895-1.228 0-2.263.462-2.859.923-.604.469-.809.902-.703 1.009l.007-.008ZM225.982 122.972c.008-.113-1.22-.326-3.207-.582-.503-.05-.979-.149-1.064-.497-.121-.362.092-.909.334-1.498.475-1.222.972-2.5 1.49-3.842 2.071-5.468 3.569-9.963 3.349-10.048-.22-.079-2.079 4.282-4.151 9.757l-1.426 3.863c-.192.575-.518 1.221-.263 1.981.135.376.504.653.83.738.327.1.603.107.859.121 2.001.107 3.242.114 3.249 0v.007ZM232.638 100.582c.192.54 2.164.284 4.485.561 2.32.234 4.186.909 4.498.433.135-.227-.191-.738-.943-1.257-.746-.518-1.945-1.015-3.335-1.164-1.391-.15-2.661.07-3.506.412-.851.34-1.277.766-1.192 1.022l-.007-.007ZM214.474 102.244c.348.447 1.71-.014 3.342-.036 1.632-.078 3.023.298 3.335-.17.142-.227-.078-.675-.681-1.101-.596-.426-1.597-.767-2.718-.738-1.121.035-2.1.44-2.668.901-.575.462-.766.924-.617 1.144h.007Z" fill="#022749"/><path d="M205.058 81.757c-.134-1.591.455-3.302 1.753-4.24 1.298-.937 3.306-.873 4.357.327-.604-2.145 1.149-4.623 3.37-4.765 2.093-.135 3.881 1.449 5.903 2.003 1.973.54 4.094.07 5.996-.697 1.902-.766 3.675-1.825 5.598-2.528 4.016-1.47 8.607-1.285 12.488.505 3.881 1.782 7.018 5.148 8.522 9.153 2.81-.88 6.003.547 7.734 2.933 1.731 2.379 2.178 5.51 1.831 8.436-.235 1.974-.802 3.885-1.469 5.766 0 .164.014.327.014.49-.135 7.066-.929 15.368-3.945 15.417-5.251.078-4.002-9.821-4.002-9.821-6.443-2.492-4.044-12.157-5.655-13.62-1.611-1.463-4.981-4.871-18.477 2.031-5.236 2.677-12.204 2.6-16.007 1.733-.113-.022-.227-.043-.333-.071a.294.294 0 0 1-.078-.014c-.043-.008-.071-.036-.114-.043-1.213-.32-2.384-.788-3.462-1.47-1.221-.774-2.335-1.825-2.853-3.174-.518-1.35-.326-3.04.738-4.027-.993-1.25-1.774-2.734-1.916-4.324h.007Z" fill="#022749"/><path d="M224.308 129.051c.312.781.625 1.584 1.143 2.244.518.667 1.277 1.193 2.121 1.228.894.043 1.76-.49 2.264-1.235.503-.746.674-1.676.631-2.571-.035-.809-.404-1.782-1.213-1.875-.334-.042-.667.093-.979.221-1.412.575-2.824 1.143-4.236 1.718" fill="#EB996E"/><path d="M226.004 132.538c.021-.135.951.248 2.257-.277.631-.256 1.326-.76 1.71-1.555.383-.782.454-1.847.056-2.777a2.897 2.897 0 0 0-.369-.632c-.17-.178-.134-.17-.319-.142-.17.05-.454.177-.681.27-.234.099-.468.191-.695.284-.909.369-1.732.689-2.42.944-1.391.519-2.263.789-2.306.696-.043-.099.766-.54 2.093-1.186.667-.319 1.469-.696 2.356-1.093.227-.1.454-.206.688-.306.248-.099.433-.213.773-.319a.974.974 0 0 1 .632.021c.227.092.362.242.468.369.192.256.355.512.476.803a4.002 4.002 0 0 1-.128 3.394 3.598 3.598 0 0 1-2.15 1.74 3.435 3.435 0 0 1-1.838.071c-.418-.114-.617-.256-.603-.298v-.007ZM247.986 89.916c-.05 0 .135-.561 0-1.555-.121-.98-.674-2.407-2.008-3.608-1.292-1.235-3.42-1.967-5.783-1.91-2.377.021-4.903.803-7.514 1.683-1.313.433-2.604.845-3.888 1.13a20.12 20.12 0 0 1-3.754.454 20.449 20.449 0 0 1-6.329-.831c-1.745-.533-3.079-1.179-3.959-1.683a10.76 10.76 0 0 1-.994-.618c-.22-.15-.333-.234-.326-.241.021-.036.49.277 1.391.731a22.356 22.356 0 0 0 3.966 1.555c1.731.469 3.867.831 6.244.739a19.968 19.968 0 0 0 3.683-.469c1.263-.284 2.54-.696 3.852-1.129 2.604-.88 5.187-1.669 7.628-1.669 2.427-.042 4.648.753 5.967 2.067 1.356 1.27 1.888 2.776 1.973 3.792.085 1.03-.156 1.57-.156 1.57l.007-.008ZM257.969 111.639s-.071-.086-.17-.27a10.241 10.241 0 0 1-.398-.817 16.525 16.525 0 0 1-1.021-3.195 17.781 17.781 0 0 1-.334-4.971c.121-1.889.703-3.885 1.15-5.972.454-2.081.56-4.155.014-5.909a5.943 5.943 0 0 0-1.228-2.236 4.562 4.562 0 0 0-1.845-1.215c-1.305-.461-2.483-.255-3.171.078-.688.355-.958.725-.987.69 0 0 .22-.413.916-.825.695-.39 1.93-.653 3.32-.206a4.72 4.72 0 0 1 1.994 1.257c.575.625 1.043 1.435 1.334 2.344.596 1.825.49 3.984.029 6.093-.447 2.116-1.036 4.076-1.171 5.922a18.082 18.082 0 0 0 .248 4.886 19.52 19.52 0 0 0 .894 3.195c.277.739.461 1.129.433 1.144l-.007.007Z" fill="#022749"/><path d="M249.221 88.88s-.007-.178 0-.52c.014-.376.035-.866.056-1.476.015-1.271.057-3.153-.596-5.34-.333-1.08-.872-2.223-1.717-3.246-.837-1.022-2.008-1.91-3.441-2.28-1.433-.39-3.037-.255-4.598.193-1.568.44-3.079 1.228-4.598 2.087-1.518.86-3.001 1.733-4.555 2.344-1.561.596-3.165.916-4.697.944a14.909 14.909 0 0 1-4.3-.525 16.373 16.373 0 0 1-3.491-1.442c-2.008-1.157-3.342-2.52-4.129-3.53a9.864 9.864 0 0 1-.838-1.22c-.177-.292-.262-.448-.248-.455.014 0 .121.135.312.412.192.277.468.689.887 1.172.816.972 2.157 2.279 4.151 3.387 1 .532 2.157 1.015 3.441 1.37 1.292.348 2.718.526 4.208.483a13.919 13.919 0 0 0 4.569-.937c1.519-.604 2.987-1.47 4.513-2.33 1.518-.859 3.065-1.661 4.683-2.108 1.604-.448 3.278-.59 4.789-.17 1.519.397 2.746 1.348 3.598 2.414.865 1.072 1.405 2.25 1.731 3.366.632 2.244.539 4.147.483 5.418-.036.639-.086 1.136-.128 1.477-.043.334-.071.511-.078.511h-.007ZM325 294.815c0 .1-72.111.185-161.038.185-88.928 0-161.053-.085-161.053-.185 0-.099 72.09-.184 161.053-.184 88.962 0 161.038.085 161.038.184Z" fill="#022749"/><path d="M126.093 265.665c1.369 1.931 4.009 1.278 5.229.085 1.221-1.193 1.725-2.912 2.186-4.559 1.057-3.75 2.121-7.684 1.298-11.497-.248-1.136-.681-2.272-1.483-3.117-.802-.838-2.036-1.335-3.164-1.037-1.327.362-2.15 1.669-2.739 2.918a27.432 27.432 0 0 0-2.64 11.767c0 1.896.242 3.877 1.313 5.433" fill="#15A9F3"/><path d="M126.093 265.665c1.369 1.931 4.009 1.278 5.229.085 1.221-1.193 1.725-2.912 2.186-4.559 1.057-3.75 2.121-7.684 1.298-11.497-.248-1.136-.681-2.272-1.483-3.117-.802-.838-2.036-1.335-3.164-1.037-1.327.362-2.15 1.669-2.739 2.918a27.432 27.432 0 0 0-2.64 11.767c0 1.896.242 3.877 1.313 5.433" fill="#022749" opacity=".2"/><path d="M131.237 275.472c2.214-1.158 4.832-1.328 7.302-.931 1.326.213 2.71.604 3.618 1.591.909.994 1.086 2.741.057 3.607-.61.512-1.476.597-2.27.59-1.93-.014-4.08-.341-5.613.831-.88.667-1.455 1.775-2.505 2.109-1.029.326-2.192-.277-2.746-1.2-.553-.931-.574-2.088-.326-3.139 0 0 .255-2.287 2.491-3.458h-.008ZM122.375 268.47c1.469-1.761 1.731-4.318 1.064-6.512s-2.164-4.055-3.881-5.567a20.797 20.797 0 0 0-6.918-4.034c-1-.348-2.05-.618-3.101-.511-1.05.106-2.107.653-2.589 1.59-.717 1.392-.015 3.068.745 4.432a52.3 52.3 0 0 0 4.569 6.874c1.37 1.746 2.931 3.465 5.002 4.239 2.072.781 4.222.675 5.308-.767" fill="#15A9F3"/><path d="M126.164 294.972s.064-.313.121-.881c.056-.646.135-1.449.22-2.407.106-1.016.248-2.223.518-3.537.269-1.313.702-2.734 1.256-4.175.574-1.435 1.277-2.741 2.107-3.785.823-1.051 1.774-1.811 2.675-2.251a7.463 7.463 0 0 1 2.263-.718c.561-.063.88-.106.88-.134 0-.029-.312-.029-.894-.008a6.81 6.81 0 0 0-2.356.632c-.95.427-1.965 1.201-2.824 2.273-.865 1.065-1.596 2.4-2.185 3.863a25.474 25.474 0 0 0-1.249 4.246 28.67 28.67 0 0 0-.447 3.58 51.737 51.737 0 0 0-.106 2.421c-.007.575 0 .888.021.895v-.014Z" fill="#022749"/><path d="M126.32 293.111s.022-.142.022-.412c0-.305 0-.696-.007-1.172-.008-1.015-.015-2.485.028-4.303.071-3.636.355-8.649.922-14.167.575-5.518 1.356-10.481 2.072-14.046.17-.895.341-1.697.497-2.4.156-.703.284-1.314.411-1.804.107-.462.199-.838.27-1.143.057-.263.078-.398.071-.405-.014 0-.057.128-.142.383-.085.299-.199.668-.333 1.122-.149.49-.298 1.094-.469 1.797a57.553 57.553 0 0 0-.553 2.393c-.781 3.558-1.604 8.529-2.178 14.061-.575 5.524-.816 10.559-.824 14.202a75.934 75.934 0 0 0 .086 4.31c.028.476.056.867.078 1.172.021.27.042.405.049.405v.007Z" fill="#022749"/><path d="M126.292 283.411s.021-.433-.014-1.222a34.708 34.708 0 0 0-.391-3.316 43.647 43.647 0 0 0-1.107-4.822 42.292 42.292 0 0 0-2.05-5.702c-1.696-3.962-3.988-7.201-5.982-9.203-.468-.533-.986-.916-1.405-1.293-.212-.177-.404-.362-.596-.504-.191-.135-.376-.255-.546-.369-.653-.44-1.022-.675-1.036-.653-.057.078 1.462.965 3.392 2.989 1.916 2.024 4.151 5.241 5.832 9.168a46.082 46.082 0 0 1 2.065 5.653 47.72 47.72 0 0 1 1.171 4.779c.262 1.377.411 2.499.503 3.28.079.782.135 1.215.157 1.215h.007Z" fill="#022749"/><path d="m139.83 184.235-30.099-1.278v-30.131h30.099v31.409Z" fill="#15A9F3"/><path d="M151.772 144.205h-30.106v30.131h30.106v-30.131Z" fill="#15A9F3"/><path d="m139.831 182.957 11.941-8.621v-30.131l-11.941 8.621v30.131ZM109.731 152.826l11.935-8.621h30.106l-11.942 8.621h-30.099Z" fill="#15A9F3"/><path d="m139.831 184.235 11.941-9.899v-30.131l-11.941 8.621v31.409Z" fill="#15A9F3"/><path opacity=".3" d="m109.731 152.826 11.935-8.621h30.106l-11.942 8.621h-30.099Z" fill="#fff"/><path opacity=".4" d="m139.831 184.235 11.941-9.899v-30.131l-11.941 8.621v31.409Z" fill="#022749"/><path d="M155.979 175.486c.1 0 .185.795.185 1.775-.149.299-.043.086-.071.149h-.007l-.022.022-.035.028-.071.057-.142.106c-.085.064-.177.121-.269.192-.178.121-.334.227-.476.313-.277.17-.461.248-.489.213-.029-.043.099-.199.333-.419a9.05 9.05 0 0 1 .426-.37c.092-.078.177-.142.255-.213l.142-.106.071-.057.036-.028.021-.014h.007v-.008c-.036.064.071-.149-.071.15 0-.98.085-1.776.184-1.776l-.007-.014ZM155.979 167.873c.1 0 .185.853.185 1.904s-.085 1.903-.185 1.903c-.099 0-.184-.852-.184-1.903 0-1.051.085-1.904.184-1.904ZM155.979 160.261c.1 0 .185.852.185 1.903 0 1.051-.085 1.903-.185 1.903-.099 0-.184-.852-.184-1.903 0-1.051.085-1.903.184-1.903ZM155.979 152.648c.1 0 .185.853.185 1.904s-.085 1.903-.185 1.903c-.099 0-.184-.852-.184-1.903 0-1.051.085-1.904.184-1.904ZM155.979 145.036c.1 0 .185.852.185 1.903 0 1.051-.085 1.903-.185 1.903-.099 0-.184-.852-.184-1.903 0-1.051.085-1.903.184-1.903ZM154.206 139.454c0-.099.794-.184 1.773-.184.369.369.1.099.185.184v.355c0 .107-.007.213-.014.334a5.733 5.733 0 0 1-.043.561c-.035.32-.078.518-.128.518-.049 0-.099-.198-.127-.518a32.006 32.006 0 0 1-.043-.561c0-.121-.007-.227-.014-.334V139.447c.085.085-.185-.184.184.185-.979 0-1.773-.085-1.773-.185v.007ZM147.401 139.454c0-.099.759-.184 1.703-.184.943 0 1.703.085 1.703.184 0 .1-.76.185-1.703.185-.944 0-1.703-.085-1.703-.185ZM140.596 139.454c0-.099.759-.184 1.703-.184.944 0 1.703.085 1.703.184 0 .1-.759.185-1.703.185-.944 0-1.703-.085-1.703-.185ZM133.792 139.454c0-.099.759-.184 1.703-.184.944 0 1.703.085 1.703.184 0 .1-.759.185-1.703.185-.944 0-1.703-.085-1.703-.185ZM126.987 139.454c0-.099.76-.184 1.703-.184.944 0 1.703.085 1.703.184 0 .1-.759.185-1.703.185-.943 0-1.703-.085-1.703-.185ZM120.325 139.852c-.036-.043.113-.234.383-.504l.028-.029h.064a9.548 9.548 0 0 1 1.078-.049c.937 0 1.703.085 1.703.184 0 .1-.759.185-1.703.185-.411 0-.794-.014-1.078-.043l.092-.035c-.312.22-.532.334-.567.284v.007ZM115.088 144.198c-.064-.078.469-.632 1.192-1.229.724-.603 1.363-1.022 1.426-.944.064.078-.468.632-1.192 1.228-.723.604-1.362 1.023-1.426.945ZM109.852 148.551c-.064-.078.468-.632 1.192-1.229.724-.603 1.362-1.022 1.426-.944.064.078-.468.632-1.192 1.229-.724.603-1.362 1.022-1.426.944ZM105.85 153.628c-.099 0-.177-.795-.17-1.775.134-.284.035-.078.064-.142h.007l.014-.021.035-.029.071-.056.135-.114c.085-.064.17-.135.263-.206.17-.128.326-.241.461-.327.269-.177.454-.27.482-.234.036.043-.092.199-.319.433-.114.114-.248.249-.412.391-.092.078-.17.149-.248.22l-.135.113-.071.057-.035.029-.014.014h-.007v.014l.063-.142c-.007.98-.099 1.775-.198 1.775h.014ZM105.779 160.673c-.099 0-.177-.788-.17-1.761.007-.973.099-1.761.199-1.761.099 0 .177.788.17 1.761-.007.973-.1 1.761-.199 1.761ZM105.708 167.717c-.099 0-.178-.788-.17-1.761.007-.973.099-1.761.198-1.761.1 0 .178.788.171 1.761-.008.973-.1 1.761-.199 1.761ZM105.644 174.762c-.099 0-.178-.789-.17-1.761.007-.973.099-1.762.198-1.762.1 0 .178.789.171 1.762-.008.972-.1 1.761-.199 1.761ZM105.573 181.806c-.099 0-.177-.788-.17-1.761.007-.973.099-1.761.198-1.761.1 0 .178.788.171 1.761-.007.973-.1 1.761-.199 1.761ZM107.297 187.132c0 .099-.794.17-1.773.156-.362-.376-.1-.106-.185-.184v-.363l.021-.333c.015-.213.029-.405.043-.561.035-.32.085-.519.135-.519.049 0 .092.199.127.519.015.163.029.355.036.568 0 .121 0 .227.007.334V187.097c-.078-.079.184.191-.184-.178.979.014 1.773.114 1.773.213ZM114.017 187.246c0 .099-.752.17-1.682.156-.929-.014-1.681-.114-1.674-.213 0-.1.752-.171 1.681-.156.93.014 1.682.113 1.675.213ZM120.736 187.352c0 .1-.752.171-1.682.156-.929-.014-1.681-.113-1.674-.213 0-.099.752-.17 1.682-.156.929.014 1.681.114 1.674.213ZM127.463 187.466c0 .099-.752.17-1.682.156-.929-.014-1.682-.114-1.675-.213 0-.099.753-.17 1.682-.156.93.014 1.682.113 1.675.213ZM134.182 187.572c0 .1-.752.171-1.682.157-.929-.015-1.681-.114-1.674-.213 0-.1.752-.171 1.681-.157.93.014 1.682.114 1.675.213ZM140.902 187.686c0 .099-.753.17-1.682.156-.93-.014-1.682-.113-1.675-.213 0-.099.753-.17 1.682-.156.93.014 1.682.114 1.675.213ZM146.521 184.426c.064.079-.49.604-1.227 1.165-.738.561-1.391.952-1.455.866-.064-.078.49-.603 1.228-1.164.737-.561 1.39-.952 1.454-.867ZM151.885 180.365c.064.078-.489.603-1.227 1.164-.738.561-1.391.952-1.455.867-.064-.079.49-.604 1.228-1.165s1.39-.952 1.454-.866ZM147.805 137.004c.1.022.092.426-.014.909-.106.476-.277.845-.376.824-.099-.021-.092-.426.014-.909.107-.476.277-.845.376-.824ZM149.437 129.782c.1.022 0 .853-.227 1.847s-.489 1.789-.589 1.761c-.099-.029 0-.852.227-1.846.228-.995.49-1.79.589-1.762ZM151.062 122.56c.099.022 0 .853-.227 1.847s-.49 1.789-.589 1.761c-.099-.021 0-.852.227-1.846.227-.995.49-1.79.589-1.762ZM152.687 115.338c.099.022 0 .853-.227 1.847s-.49 1.789-.589 1.761c-.099-.021 0-.852.227-1.846.227-.995.49-1.79.589-1.762ZM154.319 108.124c.099.021 0 .852-.227 1.846-.227.994-.49 1.789-.589 1.761-.1-.021 0-.852.227-1.846.227-.994.489-1.79.589-1.761ZM155.944 100.902c.099.021 0 .852-.227 1.846-.227.994-.49 1.789-.589 1.761-.1-.021 0-.852.227-1.846.227-.994.489-1.79.589-1.761ZM157.15 95.561c.099.022.092.427-.014.91-.107.475-.277.844-.376.823-.1-.021-.093-.426.014-.909.106-.476.277-.845.376-.824Z" fill="#15A9F3"/><path d="M119.998 137.871c.092-.043.341.27.561.71.22.44.326.831.234.873-.092.043-.341-.27-.561-.71-.22-.44-.326-.831-.234-.873ZM116.891 131.686c.092-.043.511.61.943 1.462.433.853.703 1.584.611 1.627-.093.042-.511-.611-.944-1.463-.433-.852-.703-1.584-.61-1.626ZM113.783 125.507c.092-.042.511.611.943 1.463.433.852.703 1.584.611 1.626-.093.043-.511-.61-.944-1.462-.433-.853-.703-1.584-.61-1.627ZM110.668 119.322c.092-.042.511.611.944 1.463.432.852.702 1.584.61 1.626-.092.043-.511-.61-.944-1.463-.433-.852-.702-1.583-.61-1.626ZM107.56 113.137c.092-.043.511.611.944 1.463.433.852.702 1.584.61 1.626-.092.043-.511-.611-.944-1.463-.433-.852-.702-1.583-.61-1.626ZM104.452 106.959c.092-.043.511.611.944 1.463.433.852.702 1.583.61 1.626-.092.043-.511-.611-.944-1.463-.432-.852-.702-1.583-.61-1.626ZM101.337 100.774c.093-.043.511.61.944 1.463.433.852.703 1.583.61 1.626-.092.042-.511-.611-.943-1.463-.433-.852-.703-1.584-.611-1.626ZM98.23 94.596c.092-.043.51.61.943 1.463.433.852.703 1.583.61 1.626-.092.042-.51-.61-.943-1.463-.433-.852-.703-1.584-.61-1.626ZM95.88 89.916c.093-.043.342.27.562.71.22.44.326.831.234.874-.093.042-.341-.27-.56-.71-.22-.44-.327-.831-.235-.874ZM64.434 148.608c-.007.099-.411.156-.901.113-.49-.035-.88-.149-.873-.255.007-.1.412-.156.901-.114.49.036.88.149.873.256ZM71.65 149.176c-.007.099-.823.121-1.817.042-.993-.078-1.795-.227-1.787-.326.007-.1.822-.121 1.816-.043.993.078 1.795.227 1.788.327ZM78.859 149.737c-.007.099-.823.121-1.816.043-.994-.079-1.796-.228-1.789-.327.007-.1.823-.121 1.817-.043.993.078 1.795.227 1.788.327ZM86.068 150.305c-.007.099-.823.121-1.817.043-.993-.079-1.795-.228-1.788-.327.008-.099.824-.121 1.817-.043s1.795.228 1.788.327ZM93.284 150.873c-.007.1-.823.121-1.816.043-.994-.078-1.795-.228-1.788-.327.007-.099.823-.121 1.816-.043.994.079 1.795.228 1.788.327ZM100.493 151.434c-.007.1-.823.121-1.816.043-.994-.078-1.795-.228-1.788-.327.007-.099.823-.121 1.816-.043.993.079 1.795.228 1.788.327ZM105.864 151.853c-.007.099-.411.156-.901.114-.489-.036-.88-.149-.873-.256.008-.099.412-.156.902-.114.489.036.879.15.872.256Z" fill="#15A9F3"/><path d="M111.629 70.512c3.89-16.824-6.583-33.618-23.393-37.511-16.81-3.894-33.59 6.589-37.48 23.412-3.891 16.824 6.583 33.618 23.392 37.511 16.81 3.893 33.591-6.589 37.481-23.412Z" fill="#fff"/><path d="M112.435 63.47s-.022-.17-.043-.503c-.021-.348-.05-.838-.092-1.484a87.421 87.421 0 0 1-.064-1.094c-.043-.398-.128-.83-.199-1.307-.078-.468-.156-.98-.241-1.52-.064-.546-.27-1.1-.404-1.704-.547-2.414-1.675-5.269-3.456-8.294a31.088 31.088 0 0 0-7.911-8.834c-.44-.334-.894-.667-1.348-1.001-.476-.313-.973-.597-1.462-.895-.504-.284-.98-.632-1.519-.88-.532-.256-1.071-.512-1.617-.774-.27-.128-.547-.256-.823-.391-.284-.107-.575-.206-.866-.313-.575-.212-1.164-.425-1.753-.639-.596-.198-1.213-.326-1.83-.49-.625-.142-1.235-.362-1.88-.426-1.285-.184-2.583-.447-3.931-.454-.667-.021-1.349-.085-2.03-.078l-2.057.106c-.348.022-.696.022-1.036.064-.348.05-.689.107-1.036.156-.689.114-1.398.2-2.093.341-1.37.377-2.796.654-4.144 1.215-1.39.447-2.703 1.136-4.052 1.782-.652.355-1.284.774-1.937 1.158-.319.206-.66.376-.958.603l-.915.689c-1.263.866-2.37 1.953-3.526 2.997-.525.575-1.05 1.157-1.583 1.74l-.397.44-.355.476-.71.951-.716.959-.624 1.022-.625 1.03-.312.518-.263.547c-.347.725-.702 1.456-1.057 2.194-.276.767-.56 1.534-.844 2.301a33.08 33.08 0 0 0-1.604 9.807c.043 3.373.59 6.69 1.604 9.807.284.774.56 1.54.844 2.3.355.732.703 1.464 1.057 2.195l.263.547.312.518.625 1.03.624 1.022.717.96.71.95.354.477.397.44c.532.582 1.058 1.164 1.583 1.74 1.156 1.043 2.263 2.13 3.526 2.996l.915.69c.306.226.646.404.958.61.653.383 1.277.802 1.937 1.157 1.349.647 2.661 1.335 4.052 1.783 1.348.568 2.774.845 4.144 1.214.695.142 1.397.227 2.093.34.347.058.695.108 1.036.157.347.043.695.043 1.036.064l2.057.107c.681.007 1.356-.057 2.03-.079 1.348-.007 2.646-.27 3.93-.454.646-.064 1.263-.284 1.88-.426.618-.17 1.235-.291 1.831-.49.59-.213 1.171-.426 1.753-.64.29-.106.575-.212.866-.312.276-.127.546-.262.823-.39.546-.263 1.078-.519 1.618-.774.539-.242 1.014-.59 1.518-.88.49-.306.993-.59 1.462-.895.454-.341.9-.675 1.348-1.002a31.087 31.087 0 0 0 7.911-8.834c1.781-3.025 2.909-5.88 3.456-8.294.142-.604.34-1.157.404-1.704.085-.54.163-1.051.241-1.52.071-.469.156-.909.199-1.307.021-.404.043-.766.064-1.093.042-.646.071-1.136.092-1.484.021-.334.043-.505.043-.505v.505c-.015.348-.036.845-.057 1.49-.014.328-.029.697-.05 1.102-.035.404-.113.838-.177 1.313-.071.476-.142.987-.227 1.534-.057.547-.256 1.108-.39 1.719-.533 2.428-1.647 5.311-3.421 8.365a31.147 31.147 0 0 1-7.932 8.94c-.447.334-.894.675-1.355 1.016-.476.312-.98.604-1.47.909-.503.291-.985.639-1.525.888-.539.262-1.078.525-1.625.788-.276.128-.553.263-.83.397-.29.107-.575.214-.873.32-.581.213-1.17.433-1.766.646-.596.199-1.228.334-1.845.504-.624.142-1.242.37-1.902.434-1.298.184-2.61.461-3.966.468-.674.029-1.362.093-2.043.086-.689-.036-1.384-.072-2.08-.1-.347-.021-.702-.021-1.05-.064-.347-.05-.695-.106-1.05-.156-.702-.114-1.412-.199-2.114-.341-1.39-.376-2.824-.653-4.194-1.221-1.412-.448-2.738-1.144-4.1-1.797-.668-.362-1.3-.774-1.96-1.165-.318-.206-.666-.383-.971-.61l-.93-.69c-1.277-.873-2.398-1.973-3.569-3.031-.532-.583-1.064-1.172-1.596-1.761l-.405-.44-.362-.477-.723-.965-.724-.966-.631-1.037-.632-1.044-.32-.525-.269-.547c-.355-.739-.71-1.477-1.071-2.216-.284-.774-.568-1.548-.852-2.329a33.664 33.664 0 0 1-1.625-9.927 33.387 33.387 0 0 1 1.625-9.92c.284-.782.568-1.556.852-2.33.355-.746.716-1.484 1.071-2.216l.27-.546.32-.526.63-1.044.632-1.036.724-.966.716-.966.362-.476.405-.44c.532-.59 1.071-1.179 1.596-1.761 1.171-1.058 2.292-2.152 3.57-3.025l.922-.69c.305-.234.652-.404.972-.61.66-.39 1.291-.81 1.958-1.165 1.362-.653 2.69-1.349 4.101-1.796 1.37-.568 2.803-.845 4.194-1.222.702-.142 1.412-.227 2.114-.34.348-.05.703-.107 1.05-.157.348-.042.703-.042 1.05-.064.696-.035 1.391-.07 2.08-.099.688-.007 1.369.057 2.043.085 1.362.014 2.668.284 3.966.469.653.07 1.27.291 1.902.433.624.17 1.248.298 1.844.504.597.22 1.186.434 1.767.647.291.106.582.212.873.32.277.134.553.262.83.397.547.262 1.093.525 1.625.788.54.248 1.022.604 1.526.888.496.305.993.596 1.468.909l1.356 1.015a31.068 31.068 0 0 1 7.932 8.94c1.774 3.054 2.888 5.937 3.42 8.366.135.61.334 1.164.391 1.718.078.547.156 1.058.227 1.534.063.476.142.91.177 1.314.014.405.035.767.05 1.1.021.647.042 1.144.056 1.492.015.334 0 .504 0 .504l.015-.078Z" fill="#15A9F3"/><path d="M82.662 52.002s.1-.035.291-.064a3.8 3.8 0 0 1 .844-.02c.724.049 1.838.347 2.803 1.292.965.901 1.689 2.556 1.313 4.331a4.639 4.639 0 0 1-1.334 2.415c-.688.689-1.64 1.15-2.661 1.3-1.022.127-2.065-.065-2.91-.547a4.655 4.655 0 0 1-1.93-1.975c-.836-1.605-.58-3.394.114-4.523.689-1.165 1.675-1.747 2.363-1.988a3.25 3.25 0 0 1 .823-.206c.192-.022.291-.029.291-.015.007.043-.397.078-1.064.363a4.555 4.555 0 0 0-2.186 1.988c-.624 1.086-.83 2.755-.035 4.24a4.4 4.4 0 0 0 1.802 1.817c.788.44 1.746.618 2.69.497a4.43 4.43 0 0 0 2.462-1.193 4.325 4.325 0 0 0 1.248-2.23c.37-1.64-.27-3.195-1.163-4.076a4.537 4.537 0 0 0-2.64-1.334c-.71-.093-1.114-.022-1.12-.064v-.008Z" fill="#022749"/><path d="M84.4 46.13s-.028-.043-.07-.142c-.05-.114-.107-.263-.185-.455-.17-.426-.404-1.03-.71-1.803l.064.035-4.221.61.078-.084c-.064.78-.135 1.647-.213 2.57v.064l-.064.028c-.795.334-1.604.796-2.37 1.4l-.057.042-.07-.028c-.731-.334-1.526-.69-2.35-1.058l.157-.043-2.576 3.409v-.185c.511.61 1.079 1.285 1.66 1.974l.057.071-.035.085a10.407 10.407 0 0 0-.696 2.656l-.014.092-.092.036c-.745.284-1.575.59-2.412.909l.106-.178c.184 1.328.376 2.763.582 4.233l-.156-.15c.802.072 1.674.15 2.568.22h.107l.042.107c.327.796.795 1.612 1.377 2.365l.064.085-.043.1c-.333.738-.702 1.54-1.064 2.35l-.057-.22c1.078.817 2.228 1.697 3.399 2.585h-.227c.624-.519 1.298-1.087 1.98-1.655l.084-.07.107.042c.802.334 1.71.582 2.64.696l.148.12v.008l.007.028.015.035.028.079.057.149.113.305.227.604.447 1.207-.198-.12c1.426-.193 2.838-.384 4.229-.576l-.156.163c.078-.866.149-1.718.227-2.57v-.107l.113-.042a10.3 10.3 0 0 0 2.363-1.378l.085-.064.1.043c.794.362 1.575.717 2.348 1.072l-.213.057c.887-1.158 1.746-2.294 2.59-3.395v.213c-.553-.674-1.107-1.335-1.646-1.98l-.064-.08.035-.091c.362-.867.59-1.761.703-2.65l.014-.099.092-.035c.83-.305 1.632-.604 2.42-.895l-.1.163-.56-4.232.128.12c-.901-.084-1.753-.162-2.569-.233h-.078l-.028-.079a10.156 10.156 0 0 0-1.377-2.379l-.042-.056.028-.064c.39-.852.745-1.62 1.079-2.344l.035.135-3.377-2.606h.106c-.795.654-1.448 1.186-1.994 1.64l-.028.022-.036-.014a11.106 11.106 0 0 0-1.994-.625c-.212-.043-.376-.078-.51-.1-.121-.021-.17-.035-.17-.035s.063 0 .17.007c.113.014.283.028.51.07.455.079 1.143.228 2.023.576h-.064c.54-.447 1.178-1.001 1.958-1.669l.05-.042.057.042c.965.725 2.093 1.57 3.413 2.564l.07.05-.035.078c-.326.731-.674 1.498-1.057 2.35l-.014-.128a10.474 10.474 0 0 1 1.426 2.429l-.114-.078 2.569.22h.113l.014.12c.185 1.336.377 2.742.582 4.233l.014.12-.113.043c-.78.299-1.582.597-2.413.91l.1-.128c-.114.916-.348 1.839-.717 2.733l-.028-.17c.546.646 1.1 1.307 1.66 1.974l.085.107-.085.106c-.837 1.108-1.696 2.237-2.576 3.402l-.085.113-.127-.056c-.774-.348-1.554-.71-2.349-1.066l.184-.02a10.733 10.733 0 0 1-2.44 1.427l.113-.15c-.07.845-.149 1.705-.227 2.571l-.014.15-.142.02c-1.39.192-2.795.384-4.229.576l-.149.02-.05-.134a224.05 224.05 0 0 1-.447-1.207l-.227-.604-.113-.305-.057-.15-.028-.077-.014-.036v-.021l-.008-.007v-.007c.299.234.086.063.15.12a10.52 10.52 0 0 1-2.732-.724l.191-.028c-.68.568-1.355 1.136-1.98 1.654l-.113.093-.113-.093c-1.171-.887-2.32-1.768-3.392-2.585l-.114-.085.057-.135c.37-.81.738-1.612 1.072-2.35l.021.184a10.386 10.386 0 0 1-1.42-2.45l.15.107-2.569-.227-.135-.015-.02-.134c-.2-1.47-.391-2.905-.568-4.233l-.015-.128.121-.042c.844-.313 1.667-.618 2.42-.895l-.1.128c.12-.98.39-1.918.731-2.727l.021.156c-.574-.696-1.142-1.37-1.653-1.981l-.078-.092.071-.093c.908-1.186 1.774-2.322 2.597-3.387l.064-.085.092.042c.823.377 1.61.746 2.342 1.08l-.128.014a10.407 10.407 0 0 1 2.434-1.406l-.064.092c.085-.923.17-1.79.24-2.57v-.079l.079-.007c1.717-.22 3.143-.397 4.229-.54h.05l.014.036c.276.774.49 1.37.638 1.797.064.191.121.348.163.468.036.107.05.164.05.17l.021-.013Z" fill="#022749"/><path fill-rule="evenodd" clip-rule="evenodd" d="M76.915 71.247a5.774 5.774 0 0 1 1.483.39l1.093-.916 1.873 1.428-.59 1.292c.313.405.576.845.774 1.328l1.42.128.319 2.336-1.334.497a5.792 5.792 0 0 1-.39 1.484l.915 1.094-1.426 1.875-1.299-.59a5.746 5.746 0 0 1-1.327.774l-.127 1.42-2.335.32-.497-1.335a5.78 5.78 0 0 1-1.483-.39l-1.092.916-1.873-1.428.588-1.3a5.753 5.753 0 0 1-.773-1.327l-1.419-.128-.32-2.336 1.335-.497a5.788 5.788 0 0 1 .39-1.485l-.915-1.093 1.426-1.875 1.298.59a5.75 5.75 0 0 1 1.327-.775l.128-1.42 2.334-.32.497 1.336v.007Zm-.958 3.245a2.53 2.53 0 0 0 .681 5.013 2.53 2.53 0 0 0-.681-5.013Z" fill="#15A9F3"/><path d="M188.677 88.676c12.201-12.21 12.201-32.008 0-44.218-12.2-12.21-31.981-12.21-44.182 0-12.2 12.21-12.2 32.007 0 44.218 12.201 12.21 31.982 12.21 44.182 0Z" fill="#fff"/><path d="M197.828 66.567s-.021-.17-.042-.504c-.022-.348-.05-.838-.093-1.484a88.909 88.909 0 0 1-.063-1.094c-.043-.398-.128-.83-.199-1.306-.078-.47-.156-.98-.241-1.52-.064-.547-.27-1.1-.405-1.704-.546-2.415-1.674-5.27-3.455-8.295a31.076 31.076 0 0 0-7.912-8.834c-.44-.333-.894-.667-1.348-1-.475-.313-.972-.597-1.462-.896-.503-.284-.979-.632-1.518-.88-.532-.256-1.071-.511-1.618-.774-.269-.128-.546-.256-.823-.39-.284-.107-.575-.207-.865-.313-.575-.213-1.164-.426-1.753-.64-.596-.198-1.213-.326-1.831-.49-.624-.141-1.234-.362-1.88-.425-1.284-.185-2.583-.448-3.931-.455-.667-.021-1.348-.092-2.029-.078l-2.058.107c-.348.02-.695.02-1.036.063-.347.05-.688.107-1.036.157-.688.113-1.397.198-2.093.34-1.369.377-2.795.654-4.144 1.215-1.39.447-2.703 1.136-4.051 1.782-.653.355-1.284.774-1.937 1.158-.319.206-.66.376-.958.603l-.915.69c-1.263.865-2.37 1.952-3.527 2.996-.525.575-1.05 1.157-1.582 1.74l-.397.44-.355.476-.71.951-.716.959-.625 1.023-.624 1.03-.312.518-.263.546c-.348.732-.702 1.456-1.057 2.195-.277.767-.561 1.534-.844 2.3a33.084 33.084 0 0 0-1.604 9.807c.043 3.373.589 6.69 1.604 9.807.283.774.56 1.541.844 2.3.355.732.702 1.464 1.057 2.195l.263.547.312.518.624 1.03.625 1.023.716.958.71.952.355.476.397.44c.532.582 1.057 1.165 1.582 1.74 1.157 1.044 2.264 2.13 3.527 2.997l.915.688c.305.228.646.405.958.611.653.383 1.277.802 1.937 1.157 1.348.647 2.661 1.336 4.051 1.783 1.349.568 2.775.845 4.144 1.214.696.142 1.398.228 2.093.341.348.057.696.107 1.036.156.348.043.696.043 1.036.064l2.058.107c.681.007 1.355-.057 2.029-.078 1.348-.007 2.647-.27 3.931-.455.646-.064 1.263-.284 1.88-.426.618-.17 1.235-.291 1.831-.49.589-.213 1.171-.426 1.753-.639.29-.106.574-.213.865-.313.277-.127.547-.262.823-.39.547-.263 1.079-.518 1.618-.774.539-.242 1.015-.59 1.518-.88.49-.306.994-.59 1.462-.895.454-.341.901-.675 1.348-1.002a31.078 31.078 0 0 0 7.912-8.834c1.781-3.025 2.909-5.88 3.455-8.294.142-.603.341-1.157.405-1.704.085-.54.163-1.051.241-1.52.071-.469.156-.909.199-1.306.021-.405.042-.767.063-1.094.043-.646.071-1.136.093-1.484.021-.334.042-.504.042-.504v.504c-.014.348-.035.845-.057 1.491-.014.327-.028.696-.049 1.1-.036.406-.114.839-.178 1.315-.071.475-.142.987-.227 1.533-.056.547-.255 1.108-.39 1.719-.532 2.428-1.646 5.312-3.42 8.365a31.15 31.15 0 0 1-7.933 8.94c-.447.334-.894.675-1.355 1.016-.475.313-.979.604-1.469.909-.503.291-.986.64-1.525.888-.539.262-1.079.525-1.625.788-.277.128-.553.263-.83.398l-.873.32c-.582.212-1.171.432-1.767.645-.596.2-1.227.334-1.845.504-.624.143-1.241.37-1.901.434-1.299.184-2.611.461-3.966.468-.675.029-1.363.093-2.044.086-.688-.036-1.384-.071-2.079-.1-.348-.021-.702-.021-1.05-.064-.348-.05-.695-.106-1.05-.156-.703-.114-1.412-.199-2.115-.34-1.39-.377-2.824-.654-4.193-1.222-1.412-.448-2.739-1.144-4.101-1.797-.667-.362-1.299-.774-1.959-1.164-.319-.206-.667-.384-.972-.611l-.929-.689c-1.277-.873-2.398-1.974-3.569-3.032-.532-.582-1.064-1.172-1.597-1.761l-.404-.44-.362-.476-.724-.966-.723-.966-.632-1.037-.631-1.044-.32-.525-.269-.547c-.355-.738-.71-1.477-1.072-2.215-.284-.774-.567-1.548-.851-2.33a33.671 33.671 0 0 1-1.625-9.927 33.397 33.397 0 0 1 1.625-9.92c.284-.782.567-1.556.851-2.33.355-.745.717-1.484 1.072-2.215l.269-.547.32-.526.631-1.044.632-1.036.723-.966.717-.966.362-.476.404-.44c.532-.59 1.072-1.179 1.597-1.761 1.171-1.058 2.292-2.152 3.569-3.025l.922-.689c.305-.234.653-.405.972-.61.66-.391 1.292-.81 1.959-1.165 1.362-.654 2.689-1.35 4.101-1.797 1.369-.568 2.802-.845 4.193-1.221.703-.142 1.412-.228 2.115-.341.347-.05.702-.107 1.05-.157.347-.042.702-.042 1.05-.063.695-.036 1.391-.071 2.079-.1.688-.007 1.369.057 2.043.085 1.363.015 2.668.285 3.967.47.652.07 1.27.29 1.901.432.625.17 1.249.298 1.845.505.596.22 1.185.433 1.767.646l.873.32c.276.134.553.262.83.397.546.263 1.092.525 1.625.788.539.249 1.021.604 1.525.888.497.305.994.596 1.469.909l1.355 1.015a31.06 31.06 0 0 1 7.933 8.94c1.774 3.054 2.888 5.937 3.42 8.366.135.604.333 1.165.39 1.719.078.546.156 1.058.227 1.533.064.476.142.91.178 1.314.014.405.035.767.049 1.1.022.647.043 1.144.057 1.492.007.334 0 .504 0 .504l.014-.078Z" fill="#15A9F3"/><path d="M180.002 73.225c3.58-7.918.067-17.241-7.845-20.823-7.912-3.582-17.227-.067-20.806 7.852-3.579 7.918-.067 17.241 7.845 20.823 7.912 3.582 17.227.067 20.806-7.852Z" fill="#F5F5F5"/><path d="M149.977 65.7s.014.086.014.256V67.25c.007.199.043.419.057.66.042.476.085 1.03.227 1.64.199 1.23.674 2.692 1.476 4.261a15.599 15.599 0 0 0 3.682 4.673c1.675 1.434 3.825 2.706 6.358 3.323 2.519.604 5.392.71 8.195-.149.71-.177 1.391-.483 2.079-.76.66-.34 1.355-.653 1.98-1.1.66-.39 1.249-.895 1.859-1.385.56-.547 1.142-1.072 1.639-1.697 1.007-1.222 1.908-2.592 2.497-4.133a16.57 16.57 0 0 0 1.121-4.843 16.923 16.923 0 0 0-.475-4.95c-.383-1.598-1.1-3.082-1.937-4.424-.404-.689-.915-1.285-1.398-1.903-.546-.561-1.057-1.136-1.66-1.612-.561-.518-1.206-.923-1.824-1.35-.652-.368-1.284-.752-1.965-1.022-2.668-1.221-5.535-1.491-8.11-1.221-2.59.284-4.889 1.264-6.734 2.464a15.638 15.638 0 0 0-4.257 4.147c-.993 1.456-1.66 2.84-2.015 4.034-.22.582-.334 1.129-.44 1.59-.05.235-.114.448-.149.646-.028.2-.05.384-.071.547-.043.313-.078.554-.106.739-.029.163-.043.255-.05.248-.007-.007 0-.085.014-.255.014-.185.043-.433.071-.746.014-.163.035-.348.057-.554.028-.199.085-.419.127-.653.1-.476.199-1.023.412-1.612.341-1.207.993-2.62 1.987-4.105 1-1.477 2.405-2.996 4.285-4.253 1.866-1.243 4.201-2.251 6.84-2.55 2.626-.29 5.549-.02 8.281 1.215.695.277 1.341.667 2.008 1.044.624.433 1.291.845 1.866 1.377.617.483 1.142 1.073 1.703 1.648.497.625 1.022 1.242 1.44 1.938.859 1.37 1.59 2.89 1.987 4.524.411 1.626.582 3.344.49 5.07a16.963 16.963 0 0 1-1.15 4.957c-.603 1.57-1.525 2.975-2.561 4.225-.504.64-1.107 1.179-1.675 1.733-.624.497-1.227 1.008-1.902 1.413-.638.454-1.348.767-2.029 1.122-.709.284-1.405.59-2.128.767-2.867.873-5.805.745-8.366.12-2.583-.646-4.761-1.952-6.45-3.422a15.665 15.665 0 0 1-3.689-4.772c-.788-1.598-1.249-3.09-1.434-4.332-.134-.618-.163-1.172-.198-1.655-.015-.241-.043-.461-.043-.667 0-.199.014-.384.014-.554.014-.313.022-.561.029-.753.007-.17.014-.255.021-.255v.014Z" fill="#022749"/><path d="M172.803 67.213s-.199.029-.553.036c-.391.007-.909.021-1.526.028-1.298.022-3.101.029-5.144.036h-.1V66.19c0-2.28.015-4.346.029-5.838.014-.717.021-1.313.035-1.768.015-.419.029-.646.043-.646.014 0 .028.234.042.646.008.455.022 1.051.036 1.768.021 1.492.028 3.558.028 5.838v1.022l-.099-.1c2.036 0 3.846.015 5.144.036.625.015 1.135.022 1.526.029.362.014.553.021.553.035h-.014ZM165.629 53.579c.057 0 .099.59.099 1.32 0 .732-.042 1.322-.099 1.322s-.099-.59-.099-1.321c0-.732.042-1.321.099-1.321ZM172.788 55.702c.043.043-.34.483-.851.994-.511.512-.951.888-.993.852-.043-.035.34-.482.851-.994.511-.51.951-.887.993-.852ZM176.982 60.282c.028.05-.476.349-1.086.725-.61.37-1.107.674-1.142.632-.036-.043.419-.426 1.036-.803.617-.376 1.163-.596 1.192-.546v-.008ZM179.437 67.078c0 .057-.809.1-1.802.1-.994 0-1.802-.043-1.802-.1 0-.056.808-.099 1.802-.099.993 0 1.802.043 1.802.1ZM154.461 66.837c0 .057-.759.1-1.703.1-.944 0-1.703-.043-1.703-.1 0-.057.759-.1 1.703-.1.944 0 1.703.043 1.703.1ZM156.228 71.9c.036.043-.539.568-1.284 1.165-.745.603-1.377 1.05-1.412 1.008-.036-.042.539-.568 1.284-1.164.745-.597 1.377-1.052 1.412-1.009ZM160.584 75.813c.05.035-.383.689-.872 1.52-.497.823-.873 1.512-.93 1.484-.049-.021.249-.753.752-1.59.504-.839 1.008-1.443 1.05-1.414ZM165.629 80.855c-.057 0-.099-.81-.099-1.804s.042-1.804.099-1.804.099.81.099 1.804-.042 1.804-.099 1.804ZM173.392 78.455c-.028.042-.731-.363-1.483-1.016-.752-.653-1.249-1.3-1.213-1.335.042-.043.603.533 1.341 1.179s1.383 1.122 1.348 1.172h.007ZM177.032 74.528c-.043.042-.575-.434-1.192-1.051-.618-.618-1.086-1.15-1.051-1.193.043-.043.575.433 1.193 1.05.617.618 1.085 1.151 1.05 1.194ZM156.065 61.994c-.043.042-.511-.37-1.05-.909-.539-.54-.951-1.016-.908-1.051.042-.043.51.37 1.05.909.539.54.95 1.015.908 1.05ZM160.563 57.25c-.043.043-.504-.355-1.036-.887-.532-.533-.929-.995-.894-1.03.043-.043.504.355 1.036.888.532.532.929.994.894 1.03Z" fill="#022749"/><path d="M180.769 61.222c4.212-1.732 6.224-6.553 4.494-10.768a8.242 8.242 0 0 0-10.759-4.498c-4.212 1.731-6.224 6.552-4.494 10.768a8.242 8.242 0 0 0 10.759 4.498Z" fill="#15A9F3"/><path d="M181.586 51.008c.036.036-.347.54-1.007 1.321-.66.788-1.589 1.853-2.632 3.018-.291.32-.568.632-.838.93l-.12.135-.135-.12c-.937-.846-1.746-1.591-2.313-2.138-.568-.547-.894-.888-.866-.923.028-.036.404.248 1.015.746.61.497 1.447 1.214 2.398 2.045l-.255.014c.269-.298.546-.61.83-.937a140.072 140.072 0 0 1 2.71-2.947c.71-.746 1.164-1.18 1.206-1.15l.007.006Z" fill="#FAFAFA"/><path d="M102.884 189.475c-.071-.078.468-.667 1.192-1.327.731-.654 1.377-1.13 1.441-1.051.071.078-.469.667-1.192 1.327-.731.654-1.377 1.122-1.441 1.051ZM97.605 194.226c-.071-.078.468-.667 1.192-1.328.73-.653 1.376-1.129 1.44-1.051.071.078-.468.668-1.192 1.328-.73.654-1.376 1.129-1.44 1.051ZM92.333 198.977c-.071-.078.468-.668 1.192-1.328.73-.653 1.376-1.129 1.44-1.051.071.078-.468.668-1.192 1.328-.73.653-1.376 1.129-1.44 1.051ZM87.054 203.728c-.07-.078.468-.668 1.192-1.328.731-.654 1.377-1.129 1.44-1.051.071.078-.468.667-1.192 1.328-.73.653-1.376 1.129-1.44 1.051ZM81.782 208.471c-.07-.078.469-.667 1.192-1.328.731-.653 1.377-1.129 1.44-1.051.072.078-.468.668-1.192 1.328-.73.654-1.376 1.122-1.44 1.051Z" fill="#15A9F3"/><path d="M93.068 241.015c3.975-16.804-6.413-33.651-23.203-37.629-16.79-3.979-33.623 6.418-37.598 23.222-3.976 16.803 6.413 33.651 23.203 37.629 16.79 3.978 33.623-6.418 37.598-23.222Z" fill="#fff"/><path d="M93.908 233.816s-.021-.171-.042-.505c-.022-.348-.05-.837-.093-1.484a89.63 89.63 0 0 1-.063-1.093c-.043-.398-.128-.831-.2-1.307-.077-.469-.155-.98-.24-1.52-.064-.546-.27-1.1-.405-1.704-.546-2.414-1.674-5.269-3.455-8.294a31.081 31.081 0 0 0-7.912-8.834c-.44-.334-.894-.668-1.348-1.001-.475-.313-.972-.597-1.462-.895-.503-.284-.979-.632-1.518-.881-.532-.255-1.071-.511-1.618-.774-.27-.128-.546-.255-.823-.39-.284-.107-.575-.206-.865-.313-.575-.213-1.164-.426-1.753-.639-.596-.199-1.213-.327-1.83-.49-.625-.142-1.235-.362-1.88-.426-1.285-.185-2.584-.447-3.932-.454-.667-.022-1.348-.093-2.03-.079l-2.057.107c-.347.021-.695.021-1.036.064-.347.05-.688.106-1.036.156-.688.114-1.397.199-2.093.341-1.37.376-2.795.653-4.143 1.214-1.391.448-2.704 1.137-4.052 1.783-.653.355-1.284.774-1.937 1.157-.32.206-.66.377-.958.604l-.915.689c-1.263.866-2.37 1.953-3.527 2.996-.525.576-1.05 1.158-1.582 1.74l-.397.44-.355.476-.71.952-.716.958-.625 1.023-.624 1.03-.312.518-.263.547c-.347.731-.702 1.456-1.057 2.194-.277.767-.56 1.534-.844 2.301a33.08 33.08 0 0 0-1.604 9.807 33.085 33.085 0 0 0 1.604 9.807c.283.774.56 1.541.844 2.3.355.732.702 1.463 1.057 2.195l.263.547.312.518.624 1.03.625 1.022.716.959.71.951.355.476.397.441c.532.582 1.057 1.164 1.582 1.739 1.157 1.044 2.264 2.131 3.527 2.997l.915.689c.305.227.646.405.958.611.653.383 1.277.802 1.937 1.157 1.348.646 2.66 1.335 4.052 1.782 1.348.569 2.774.846 4.143 1.215.696.142 1.398.227 2.093.341.348.056.696.106 1.036.156.348.042.696.042 1.036.064l2.058.106c.681.007 1.355-.056 2.03-.078 1.347-.007 2.646-.27 3.93-.454.646-.064 1.263-.284 1.88-.426.618-.171 1.235-.291 1.831-.49.589-.213 1.17-.426 1.753-.639.29-.107.574-.213.865-.313.277-.128.547-.263.823-.39.547-.263 1.079-.519 1.618-.775.54-.241 1.015-.589 1.519-.88.49-.305.993-.589 1.461-.895.454-.341.901-.674 1.348-1.001a31.081 31.081 0 0 0 7.912-8.834c1.78-3.025 2.909-5.88 3.455-8.294.142-.604.34-1.158.405-1.705.085-.539.163-1.051.24-1.519.072-.469.157-.909.2-1.307.02-.405.042-.767.063-1.094.043-.646.071-1.136.093-1.484.021-.333.042-.504.042-.504v.504c-.014.348-.035.845-.056 1.492-.015.326-.029.696-.05 1.1-.036.405-.114.838-.178 1.314-.07.476-.141.987-.227 1.534-.056.547-.255 1.108-.39 1.718-.532 2.429-1.646 5.312-3.42 8.366a31.163 31.163 0 0 1-7.933 8.94c-.447.334-.894.675-1.355 1.016-.475.312-.979.603-1.469.909-.503.291-.986.639-1.525.887a268.98 268.98 0 0 1-2.455 1.186c-.291.107-.575.213-.873.32-.582.213-1.17.433-1.767.646-.596.199-1.227.334-1.844.504-.625.142-1.242.369-1.902.433-1.299.185-2.611.462-3.966.469-.674.028-1.363.092-2.044.085-.688-.035-1.383-.071-2.079-.099-.347-.022-.702-.022-1.05-.064-.348-.05-.695-.107-1.05-.156-.703-.114-1.412-.199-2.114-.341-1.391-.377-2.825-.654-4.194-1.222-1.412-.447-2.739-1.143-4.101-1.796-.667-.362-1.299-.774-1.959-1.165-.319-.206-.666-.383-.971-.611l-.93-.688c-1.277-.874-2.398-1.975-3.57-3.033a350.49 350.49 0 0 1-1.596-1.761l-.404-.44-.362-.476-.724-.966-.723-.965-.632-1.037-.631-1.044-.32-.525-.27-.547c-.354-.739-.709-1.477-1.07-2.216-.285-.774-.568-1.548-.852-2.329a33.665 33.665 0 0 1-1.625-9.928 33.388 33.388 0 0 1 1.625-9.92c.284-.781.568-1.555.851-2.329.355-.746.717-1.484 1.072-2.216l.27-.547.319-.525.631-1.044.632-1.037.723-.966.717-.965.362-.476.404-.44c.532-.59 1.072-1.179 1.597-1.762 1.17-1.058 2.292-2.151 3.569-3.025l.922-.689c.305-.234.653-.404.972-.61.66-.391 1.292-.81 1.959-1.165 1.362-.653 2.689-1.349 4.1-1.796 1.37-.569 2.804-.845 4.194-1.222.703-.142 1.412-.227 2.115-.341.347-.049.702-.106 1.05-.156.347-.043.702-.043 1.05-.064.695-.035 1.39-.071 2.079-.099.688-.007 1.37.057 2.043.085 1.363.014 2.668.284 3.967.469.653.071 1.27.291 1.901.433.625.17 1.25.298 1.845.504.596.22 1.185.433 1.767.646l.873.32c.276.135.553.263.83.397.546.263 1.093.526 1.625.789.539.248 1.022.603 1.525.887.497.306.994.597 1.469.909l1.355 1.016a31.057 31.057 0 0 1 7.933 8.94c1.774 3.054 2.888 5.937 3.42 8.366.135.603.333 1.164.39 1.718.078.547.156 1.058.227 1.534.064.476.142.909.178 1.314.014.404.035.767.05 1.1.02.647.042 1.144.056 1.492.014.333 0 .504 0 .504l.014-.078Z" fill="#15A9F3"/><path d="M78.341 247.812s-.206.029-.603.043c-.433.007-1.007.021-1.731.035-1.54.015-3.704.036-6.358.064-5.4.014-12.8.036-20.967.057H46.986v-.199c.022-7.84.043-14.87.064-19.983.029-2.506.05-4.552.064-6.007l.036-1.627c.014-.369.028-.568.035-.568.007 0 .028.192.035.568l.036 1.627c.014 1.455.035 3.493.064 6.007.014 5.12.035 12.151.064 19.983l-.199-.199h1.497l20.967.057c2.654.029 4.81.05 6.358.064.724.014 1.298.029 1.731.036.397.014.603.028.603.042Z" fill="#022749"/><path d="M74.879 226.466s-.313.334-.93.888c-.674.589-1.56 1.37-2.632 2.307a871.138 871.138 0 0 1-8.77 7.506l-.518.441-.135.113-.128-.12-3.902-3.629h.241c-2.299 1.903-4.271 3.529-5.733 4.736-.674.54-1.228.98-1.66 1.328-.39.306-.61.462-.625.448-.014-.014.178-.206.546-.54.42-.369.951-.838 1.597-1.413 1.433-1.236 3.377-2.897 5.64-4.836l.122-.107.12.114c1.22 1.122 2.54 2.336 3.917 3.607h-.263l.518-.447a1082.02 1082.02 0 0 1 8.848-7.421c1.107-.902 2.015-1.647 2.71-2.215.646-.519 1.015-.789 1.03-.774l.007.014Z" fill="#022749"/><path d="M74.879 232.999c-.05 0-.1-.739-.135-1.946a198.842 198.842 0 0 1-.064-4.736l.199.199h-.334c-1.937 0-3.69-.022-4.96-.057-1.27-.036-2.057-.085-2.057-.142 0-.057.787-.107 2.057-.142 1.27-.036 3.023-.057 4.96-.057h.532v.199c0 1.86-.028 3.536-.064 4.736-.035 1.207-.085 1.946-.134 1.946Z" fill="#022749"/><path d="M61.758 153.747c4.136-16.765-6.09-33.711-22.842-37.851-16.75-4.139-33.683 6.095-37.819 22.86-4.136 16.765 6.09 33.711 22.841 37.851 16.751 4.139 33.684-6.096 37.82-22.86Z" fill="#fff"/><path d="M62.667 146.25s-.021-.17-.043-.504c-.02-.348-.05-.838-.092-1.484a87.901 87.901 0 0 1-.064-1.094c-.042-.397-.127-.831-.198-1.306-.078-.469-.156-.98-.242-1.52-.063-.547-.27-1.101-.404-1.704-.546-2.415-1.675-5.269-3.456-8.295a31.096 31.096 0 0 0-7.91-8.834c-.44-.333-.895-.667-1.349-1.001-.475-.312-.972-.596-1.462-.895-.504-.284-.979-.632-1.518-.88-.532-.256-1.072-.511-1.618-.774-.27-.128-.546-.256-.823-.391-.284-.106-.575-.206-.866-.312-.574-.213-1.163-.426-1.752-.639-.596-.199-1.213-.327-1.83-.49-.625-.142-1.235-.362-1.881-.426-1.284-.185-2.583-.448-3.931-.455-.667-.021-1.348-.085-2.03-.078l-2.057.107c-.348.021-.695.021-1.036.063-.348.05-.688.107-1.036.157-.688.113-1.398.199-2.093.341-1.37.376-2.796.653-4.144 1.214-1.39.447-2.703 1.136-4.051 1.782-.653.355-1.284.774-1.937 1.158-.32.206-.66.376-.958.603l-.915.689c-1.264.867-2.37 1.953-3.527 2.997-.525.575-1.05 1.157-1.582 1.74l-.398.44-.354.476-.71.951-.717.959-.624 1.023-.624 1.029-.313.519-.262.546c-.348.732-.702 1.456-1.057 2.195-.277.767-.56 1.534-.845 2.301a33.074 33.074 0 0 0-1.603 9.806c.042 3.373.589 6.69 1.603 9.807.284.767.56 1.541.845 2.301.355.731.702 1.463 1.057 2.194l.262.547.313.518.624 1.03.624 1.023.717.958.71.952.354.476.398.44c.532.582 1.057 1.165 1.582 1.74 1.157 1.044 2.263 2.13 3.526 2.997l.916.688c.305.228.646.405.958.611.652.384 1.277.803 1.937 1.158 1.348.646 2.66 1.335 4.051 1.782 1.348.568 2.775.845 4.144 1.214.695.142 1.398.228 2.093.341.348.057.696.107 1.036.156.348.043.695.043 1.036.064l2.058.107c.68.007 1.355-.057 2.029-.078 1.348-.007 2.647-.27 3.93-.455.647-.064 1.264-.284 1.881-.426.617-.17 1.235-.291 1.83-.49.59-.213 1.172-.426 1.753-.639.291-.106.575-.213.866-.312.277-.128.546-.263.823-.391.547-.263 1.079-.518 1.618-.774.54-.241 1.014-.589 1.518-.881.49-.305.994-.589 1.462-.894.454-.341.901-.675 1.348-1.002a31.083 31.083 0 0 0 7.912-8.834c1.78-3.025 2.909-5.879 3.455-8.294.142-.603.34-1.157.404-1.704.086-.54.164-1.051.242-1.52.07-.468.156-.909.198-1.306.022-.405.043-.767.064-1.094.043-.646.071-1.136.093-1.484.02-.334.042-.504.042-.504v.504c-.014.348-.035.845-.057 1.491-.014.327-.028.696-.05 1.101-.035.405-.113.838-.177 1.314-.07.475-.142.987-.227 1.533-.057.547-.255 1.108-.39 1.719-.532 2.429-1.646 5.312-3.42 8.365a31.152 31.152 0 0 1-7.933 8.941c-.447.333-.894.674-1.355 1.015-.475.313-.98.604-1.469.909-.504.291-.986.639-1.525.888-.54.263-1.079.525-1.625.788-.277.128-.554.263-.83.398-.291.106-.575.213-.873.319-.582.213-1.17.433-1.767.646-.596.199-1.227.334-1.845.505-.624.142-1.241.369-1.901.433-1.299.184-2.611.461-3.967.468-.674.029-1.362.093-2.043.086-.688-.036-1.384-.071-2.079-.1-.348-.021-.703-.021-1.05-.064-.348-.049-.695-.106-1.05-.156-.703-.113-1.412-.199-2.115-.341-1.39-.376-2.824-.653-4.193-1.221-1.412-.448-2.739-1.143-4.101-1.797-.667-.362-1.299-.774-1.959-1.164-.319-.206-.667-.384-.972-.611l-.93-.689c-1.276-.873-2.397-1.974-3.568-3.032-.532-.582-1.065-1.172-1.597-1.761l-.404-.44-.362-.476-.724-.966-.724-.966-.631-1.037-.632-1.043-.319-.526-.27-.547c-.354-.738-.709-1.477-1.07-2.215a747.05 747.05 0 0 1-.852-2.33A33.66 33.66 0 0 1-.014 146.3a33.39 33.39 0 0 1 1.625-9.921c.284-.781.567-1.555.851-2.329.355-.745.717-1.484 1.072-2.215l.27-.547.318-.526.632-1.044.631-1.036.724-.966.717-.966.362-.476.404-.44c.532-.589 1.072-1.179 1.597-1.761 1.17-1.058 2.291-2.152 3.569-3.025l.922-.689c.305-.234.653-.405.972-.611.66-.39 1.292-.809 1.958-1.164 1.363-.654 2.69-1.35 4.102-1.797 1.37-.568 2.802-.845 4.193-1.221.703-.142 1.412-.228 2.114-.341.348-.05.703-.107 1.05-.156.348-.043.703-.043 1.05-.064.696-.036 1.392-.071 2.08-.1.688-.007 1.37.057 2.043.085 1.363.015 2.668.285 3.967.469.652.071 1.27.291 1.901.433.625.171 1.249.299 1.845.505.596.22 1.185.433 1.767.646l.872.319c.277.135.554.263.83.398.547.263 1.093.525 1.626.788.539.249 1.021.604 1.525.888.497.305.993.596 1.469.909.454.341.908.682 1.355 1.015a31.062 31.062 0 0 1 7.933 8.941c1.774 3.053 2.888 5.936 3.42 8.365.134.604.333 1.165.39 1.719.078.546.156 1.058.227 1.533.064.476.142.909.177 1.314.015.405.036.767.05 1.101.021.646.043 1.143.057 1.491.007.334 0 .504 0 .504l.014-.078Z" fill="#15A9F3"/><path d="m32.235 132.651 3.384 6.867c.128.263.376.44.66.483l7.571 1.101c.724.106 1.008.994.49 1.505l-5.478 5.34a.888.888 0 0 0-.256.782l1.292 7.541c.12.717-.632 1.271-1.277.93l-6.77-3.565a.878.878 0 0 0-.815 0l-6.77 3.565c-.645.341-1.397-.206-1.277-.93l1.292-7.541a.874.874 0 0 0-.256-.782l-5.477-5.34a.882.882 0 0 1 .49-1.505l7.57-1.101a.877.877 0 0 0 .66-.483l3.384-6.867a.878.878 0 0 1 1.576 0h.007Z" fill="#FAFAFA"/><path d="M32.235 132.651s-.043-.071-.142-.177a.863.863 0 0 0-.589-.27.838.838 0 0 0-.83.547c-.192.404-.412.859-.66 1.37-.504 1.037-1.114 2.301-1.816 3.757-.178.369-.362.745-.554 1.136-.1.199-.192.398-.29.604a.978.978 0 0 1-.59.468c-.944.164-1.887.291-2.902.448-1.014.149-2.072.312-3.179.475-.546.086-1.107.171-1.681.256-.497.085-.745.774-.398 1.165 1.725 1.676 3.562 3.465 5.5 5.354.297.234.44.724.333 1.079-.057.341-.114.675-.17 1.023-.114.682-.235 1.378-.355 2.074-.241 1.399-.483 2.826-.731 4.282a.718.718 0 0 0 .305.781c.128.078.277.12.419.106.149-.007.27-.078.447-.17.66-.348 1.334-.703 2-1.058 1.349-.71 2.711-1.428 4.095-2.159l.525-.277c.213-.106.461-.135.688-.085.248.057.405.177.575.255l.51.27c.682.362 1.363.718 2.037 1.073 1.341.703 2.668 1.399 3.966 2.087.27.128.604.043.795-.177a.617.617 0 0 0 .17-.391c.015-.135-.028-.305-.056-.49l-.362-2.116c-.234-1.399-.468-2.769-.696-4.104-.056-.334-.113-.668-.17-.995-.092-.376.1-.823.376-1.036.476-.462.944-.916 1.398-1.364a3147.019 3147.019 0 0 1 3.96-3.834c.418-.327.333-.995-.093-1.222-.192-.114-.49-.114-.76-.163-.269-.043-.538-.078-.801-.121-.532-.078-1.05-.156-1.554-.234-1.015-.149-1.98-.299-2.888-.433-.454-.071-.9-.135-1.327-.199-.22-.043-.411-.05-.645-.114a.962.962 0 0 1-.532-.426c-.71-1.463-1.32-2.727-1.831-3.764a672.64 672.64 0 0 0-1.135-2.379c-.121-.262-.213-.468-.284-.624-.064-.142-.092-.214-.085-.221 0 0 .05.064.12.199.078.156.185.355.32.611.283.561.688 1.349 1.199 2.35.518 1.03 1.15 2.28 1.873 3.721.092.15.248.27.426.327.17.05.411.064.617.1.433.056.873.12 1.334.184l2.895.405c.504.071 1.029.142 1.554.22.262.036.532.078.801.114.263.057.547.028.852.191a1.037 1.037 0 0 1 .163 1.683c-.411.405-.837.824-1.27 1.243-.858.845-1.753 1.719-2.668 2.613-.461.448-.922.902-1.398 1.364-.24.199-.333.454-.276.738l.17.995c.234 1.335.468 2.705.71 4.104.12.696.24 1.406.369 2.116.02.171.078.355.063.59-.02.22-.113.433-.262.596-.284.334-.802.462-1.206.27l-3.995-2.095c-.674-.355-1.355-.71-2.036-1.072l-.511-.27c-.178-.085-.341-.199-.483-.22a.647.647 0 0 0-.447.057l-.51.27c-1.384.724-2.747 1.448-4.095 2.151-.674.355-1.34.703-2.008 1.051-.149.078-.362.199-.589.213a1.031 1.031 0 0 1-.646-.163c-.39-.22-.574-.746-.468-1.15.249-1.456.497-2.884.738-4.275.12-.696.241-1.392.355-2.074.057-.341.12-.682.177-1.023.078-.312 0-.575-.234-.774-1.937-1.903-3.775-3.706-5.499-5.404a1.029 1.029 0 0 1-.163-.994.998.998 0 0 1 .738-.653c.582-.085 1.15-.171 1.703-.249l3.186-.447c1.007-.142 1.965-.284 2.873-.412a.765.765 0 0 0 .454-.355c.1-.199.2-.391.291-.589a968.965 968.965 0 0 0 2.44-4.865c.257-.511.49-.958.69-1.356.184-.44.63-.611.936-.568.32.028.518.199.61.319.1.121.114.206.114.206Z" fill="#022749"/><path d="M61.758 153.747c4.136-16.765-6.09-33.711-22.842-37.851-16.75-4.139-33.683 6.095-37.819 22.86-4.136 16.765 6.09 33.711 22.841 37.851 16.751 4.139 33.684-6.096 37.82-22.86Z" fill="#fff"/><path d="M62.667 146.25s-.021-.17-.043-.504c-.02-.348-.05-.838-.092-1.484a87.901 87.901 0 0 1-.064-1.094c-.042-.397-.127-.831-.198-1.306-.078-.469-.156-.98-.242-1.52-.063-.547-.27-1.101-.404-1.704-.546-2.415-1.675-5.269-3.456-8.295a31.096 31.096 0 0 0-7.91-8.834c-.44-.333-.895-.667-1.349-1.001-.475-.312-.972-.596-1.462-.895-.504-.284-.979-.632-1.518-.88-.532-.256-1.072-.511-1.618-.774-.27-.128-.546-.256-.823-.391-.284-.106-.575-.206-.866-.312-.574-.213-1.163-.426-1.752-.639-.596-.199-1.213-.327-1.83-.49-.625-.142-1.235-.362-1.881-.426-1.284-.185-2.583-.448-3.931-.455-.667-.021-1.348-.085-2.03-.078l-2.057.107c-.348.021-.695.021-1.036.063-.348.05-.688.107-1.036.157-.688.113-1.398.199-2.093.341-1.37.376-2.796.653-4.144 1.214-1.39.447-2.703 1.136-4.051 1.782-.653.355-1.284.774-1.937 1.158-.32.206-.66.376-.958.603l-.915.689c-1.264.867-2.37 1.953-3.527 2.997-.525.575-1.05 1.157-1.582 1.74l-.398.44-.354.476-.71.951-.717.959-.624 1.023-.624 1.029-.313.519-.262.546c-.348.732-.702 1.456-1.057 2.195-.277.767-.56 1.534-.845 2.301a33.074 33.074 0 0 0-1.603 9.806c.042 3.373.589 6.69 1.603 9.807.284.767.56 1.541.845 2.301.355.731.702 1.463 1.057 2.194l.262.547.313.518.624 1.03.624 1.023.717.958.71.952.354.476.398.44c.532.582 1.057 1.165 1.582 1.74 1.157 1.044 2.263 2.13 3.526 2.997l.916.688c.305.228.646.405.958.611.652.384 1.277.803 1.937 1.158 1.348.646 2.66 1.335 4.051 1.782 1.348.568 2.775.845 4.144 1.214.695.142 1.398.228 2.093.341.348.057.696.107 1.036.156.348.043.695.043 1.036.064l2.058.107c.68.007 1.355-.057 2.029-.078 1.348-.007 2.647-.27 3.93-.455.647-.064 1.264-.284 1.881-.426.617-.17 1.235-.291 1.83-.49.59-.213 1.172-.426 1.753-.639.291-.106.575-.213.866-.312.277-.128.546-.263.823-.391.547-.263 1.079-.518 1.618-.774.54-.241 1.014-.589 1.518-.881.49-.305.994-.589 1.462-.894.454-.341.901-.675 1.348-1.002a31.083 31.083 0 0 0 7.912-8.834c1.78-3.025 2.909-5.879 3.455-8.294.142-.603.34-1.157.404-1.704.086-.54.164-1.051.242-1.52.07-.468.156-.909.198-1.306.022-.405.043-.767.064-1.094.043-.646.071-1.136.093-1.484.02-.334.042-.504.042-.504v.504c-.014.348-.035.845-.057 1.491-.014.327-.028.696-.05 1.101-.035.405-.113.838-.177 1.314-.07.475-.142.987-.227 1.533-.057.547-.255 1.108-.39 1.719-.532 2.429-1.646 5.312-3.42 8.365a31.152 31.152 0 0 1-7.933 8.941c-.447.333-.894.674-1.355 1.015-.475.313-.98.604-1.469.909-.504.291-.986.639-1.525.888-.54.263-1.079.525-1.625.788-.277.128-.554.263-.83.398-.291.106-.575.213-.873.319-.582.213-1.17.433-1.767.646-.596.199-1.227.334-1.845.505-.624.142-1.241.369-1.901.433-1.299.184-2.611.461-3.967.468-.674.029-1.362.093-2.043.086-.688-.036-1.384-.071-2.079-.1-.348-.021-.703-.021-1.05-.064-.348-.049-.695-.106-1.05-.156-.703-.113-1.412-.199-2.115-.341-1.39-.376-2.824-.653-4.193-1.221-1.412-.448-2.739-1.143-4.101-1.797-.667-.362-1.299-.774-1.959-1.164-.319-.206-.667-.384-.972-.611l-.93-.689c-1.276-.873-2.397-1.974-3.568-3.032-.532-.582-1.065-1.172-1.597-1.761l-.404-.44-.362-.476-.724-.966-.724-.966-.631-1.037-.632-1.043-.319-.526-.27-.547c-.354-.738-.709-1.477-1.07-2.215a747.05 747.05 0 0 1-.852-2.33A33.66 33.66 0 0 1-.014 146.3a33.39 33.39 0 0 1 1.625-9.921c.284-.781.567-1.555.851-2.329.355-.745.717-1.484 1.072-2.215l.27-.547.318-.526.632-1.044.631-1.036.724-.966.717-.966.362-.476.404-.44c.532-.589 1.072-1.179 1.597-1.761 1.17-1.058 2.291-2.152 3.569-3.025l.922-.689c.305-.234.653-.405.972-.611.66-.39 1.292-.809 1.958-1.164 1.363-.654 2.69-1.35 4.102-1.797 1.37-.568 2.802-.845 4.193-1.221.703-.142 1.412-.228 2.114-.341.348-.05.703-.107 1.05-.156.348-.043.703-.043 1.05-.064.696-.036 1.392-.071 2.08-.1.688-.007 1.37.057 2.043.085 1.363.015 2.668.285 3.967.469.652.071 1.27.291 1.901.433.625.171 1.249.299 1.845.505.596.22 1.185.433 1.767.646l.872.319c.277.135.554.263.83.398.547.263 1.093.525 1.626.788.539.249 1.021.604 1.525.888.497.305.993.596 1.469.909.454.341.908.682 1.355 1.015a31.062 31.062 0 0 1 7.933 8.941c1.774 3.053 2.888 5.936 3.42 8.365.134.604.333 1.165.39 1.719.078.546.156 1.058.227 1.533.064.476.142.909.177 1.314.015.405.036.767.05 1.101.021.646.043 1.143.057 1.491.007.334 0 .504 0 .504l.014-.078Z" fill="#15A9F3"/><path d="m32.235 132.651 3.384 6.867c.128.263.376.44.66.483l7.571 1.101c.724.106 1.008.994.49 1.505l-5.478 5.34a.888.888 0 0 0-.256.782l1.292 7.541c.12.717-.632 1.271-1.277.93l-6.77-3.565a.878.878 0 0 0-.815 0l-6.77 3.565c-.645.341-1.397-.206-1.277-.93l1.292-7.541a.874.874 0 0 0-.256-.782l-5.477-5.34a.882.882 0 0 1 .49-1.505l7.57-1.101a.877.877 0 0 0 .66-.483l3.384-6.867a.878.878 0 0 1 1.576 0h.007Z" fill="#FAFAFA"/><path d="M32.235 132.651s-.043-.071-.142-.177a.863.863 0 0 0-.589-.27.838.838 0 0 0-.83.547c-.192.404-.412.859-.66 1.37-.504 1.037-1.114 2.301-1.816 3.757-.178.369-.362.745-.554 1.136-.1.199-.192.398-.29.604a.978.978 0 0 1-.59.468c-.944.164-1.887.291-2.902.448-1.014.149-2.072.312-3.179.475-.546.086-1.107.171-1.681.256-.497.085-.745.774-.398 1.165 1.725 1.676 3.562 3.465 5.5 5.354.297.234.44.724.333 1.079-.057.341-.114.675-.17 1.023-.114.682-.235 1.378-.355 2.074-.241 1.399-.483 2.826-.731 4.282a.718.718 0 0 0 .305.781c.128.078.277.12.419.106.149-.007.27-.078.447-.17.66-.348 1.334-.703 2-1.058 1.349-.71 2.711-1.428 4.095-2.159l.525-.277c.213-.106.461-.135.688-.085.248.057.405.177.575.255l.51.27c.682.362 1.363.718 2.037 1.073 1.341.703 2.668 1.399 3.966 2.087.27.128.604.043.795-.177a.617.617 0 0 0 .17-.391c.015-.135-.028-.305-.056-.49l-.362-2.116c-.234-1.399-.468-2.769-.696-4.104-.056-.334-.113-.668-.17-.995-.092-.376.1-.823.376-1.036.476-.462.944-.916 1.398-1.364a3147.019 3147.019 0 0 1 3.96-3.834c.418-.327.333-.995-.093-1.222-.192-.114-.49-.114-.76-.163-.269-.043-.538-.078-.801-.121-.532-.078-1.05-.156-1.554-.234-1.015-.149-1.98-.299-2.888-.433-.454-.071-.9-.135-1.327-.199-.22-.043-.411-.05-.645-.114a.962.962 0 0 1-.532-.426c-.71-1.463-1.32-2.727-1.831-3.764a672.64 672.64 0 0 0-1.135-2.379c-.121-.262-.213-.468-.284-.624-.064-.142-.092-.214-.085-.221 0 0 .05.064.12.199.078.156.185.355.32.611.283.561.688 1.349 1.199 2.35.518 1.03 1.15 2.28 1.873 3.721.092.15.248.27.426.327.17.05.411.064.617.1.433.056.873.12 1.334.184l2.895.405c.504.071 1.029.142 1.554.22.262.036.532.078.801.114.263.057.547.028.852.191a1.037 1.037 0 0 1 .163 1.683c-.411.405-.837.824-1.27 1.243-.858.845-1.753 1.719-2.668 2.613-.461.448-.922.902-1.398 1.364-.24.199-.333.454-.276.738l.17.995c.234 1.335.468 2.705.71 4.104.12.696.24 1.406.369 2.116.02.171.078.355.063.59-.02.22-.113.433-.262.596-.284.334-.802.462-1.206.27l-3.995-2.095c-.674-.355-1.355-.71-2.036-1.072l-.511-.27c-.178-.085-.341-.199-.483-.22a.647.647 0 0 0-.447.057l-.51.27c-1.384.724-2.747 1.448-4.095 2.151-.674.355-1.34.703-2.008 1.051-.149.078-.362.199-.589.213a1.031 1.031 0 0 1-.646-.163c-.39-.22-.574-.746-.468-1.15.249-1.456.497-2.884.738-4.275.12-.696.241-1.392.355-2.074.057-.341.12-.682.177-1.023.078-.312 0-.575-.234-.774-1.937-1.903-3.775-3.706-5.499-5.404a1.029 1.029 0 0 1-.163-.994.998.998 0 0 1 .738-.653c.582-.085 1.15-.171 1.703-.249l3.186-.447c1.007-.142 1.965-.284 2.873-.412a.765.765 0 0 0 .454-.355c.1-.199.2-.391.291-.589a968.965 968.965 0 0 0 2.44-4.865c.257-.511.49-.958.69-1.356.184-.44.63-.611.936-.568.32.028.518.199.61.319.1.121.114.206.114.206ZM121.626 165.729v9.19l2.858-10.33" fill="#022749"/><path d="m132.929 161.001-10.455.134a.066.066 0 0 0-.027.006.08.08 0 0 0-.023.019l-.781.904c-.003.003-.005.006-.005.01a.024.024 0 0 0 0 .012.015.015 0 0 0 .006.009c.002.002.006.003.009.003l6.163-.125c.011-.003.021.001.03.009.008.008.014.02.015.034a.064.064 0 0 1-.007.039.036.036 0 0 1-.025.021l-8.048 2.147c-.002.001-.005.002-.007.005l-2.755 3.19a.11.11 0 0 0-.008.111.072.072 0 0 0 .036.035.047.047 0 0 0 .043-.003l15.864-6.393a.069.069 0 0 0 .037-.038c.008-.019.011-.04.008-.061a.094.094 0 0 0-.025-.053.052.052 0 0 0-.045-.015Z" fill="#022749"/><path d="M121.64 162.083v1.644l6.814-1.821-6.814.177ZM235.096 210.276v16.081l5.002-18.077" fill="#022749"/><path d="m254.876 202.001-18.296.236a.087.087 0 0 0-.047.01.114.114 0 0 0-.04.033l-1.369 1.582a.037.037 0 0 0-.008.018.038.038 0 0 0 .001.021.034.034 0 0 0 .01.016.02.02 0 0 0 .015.004l10.787-.219a.056.056 0 0 1 .051.016.104.104 0 0 1 .027.06.116.116 0 0 1-.012.069.07.07 0 0 1-.044.037l-14.084 3.757a.02.02 0 0 0-.013.008l-4.821 5.583a.186.186 0 0 0-.033.094.198.198 0 0 0 .02.1.119.119 0 0 0 .062.061c.025.01.052.008.076-.006l27.762-11.188a.119.119 0 0 0 .064-.066c.014-.032.019-.07.014-.107a.163.163 0 0 0-.044-.091.091.091 0 0 0-.078-.028Z" fill="#022749"/><path d="M235.119 203.894v2.879l11.926-3.188-11.926.309Z" fill="#022749"/></g><defs><clipPath id="a"><path fill="#fff" d="M0 0h325v295H0z"/></clipPath></defs></svg>