<svg width="352" height="230" fill="none" xmlns="http://www.w3.org/2000/svg"><g clip-path="url(#a)"><path d="m292.762 20.387 41.977-5.828-3.855 41.813-38.122-35.985Z" fill="#F5F5F5"/><path d="m324.328 42.913-17.363-16.39-66.378 70.116 17.364 16.39 66.377-70.115ZM330.864 75.897 352 72.962l-1.941 21.06-19.195-18.125Z" fill="#F5F5F5"/><path d="m346.767 87.237-8.742-8.252-33.425 35.307 8.742 8.252 33.425-35.307ZM29.963 102.737l21.131-2.934-1.935 21.058-19.196-18.124Z" fill="#F5F5F5"/><path d="m45.854 114.089-8.742-8.252-33.425 35.307 8.742 8.252 33.425-35.307ZM98.72 139.425l-17.364-16.39L.015 208.957l17.363 16.39 81.342-85.922ZM61.508 45.982c1.811 12.462-6.855 24.04-19.366 25.854C29.63 73.649 18.02 65.02 16.204 52.554c-1.816-12.461 6.856-24.04 19.367-25.853 12.51-1.814 24.121 6.815 25.937 19.281Z" fill="#F5F5F5"/><path d="M56.117 46.768c1.382 9.496-5.226 18.32-14.761 19.7-9.531 1.385-18.384-5.193-19.765-14.694-1.382-9.496 5.226-18.32 14.761-19.705 9.536-1.385 18.384 5.192 19.765 14.694v.005Z" fill="#EBEBEB"/><path d="M56.034 46.225c-.103.02-.29-.728-.76-2.004-.477-1.271-1.273-3.095-2.758-4.996a17.834 17.834 0 0 0-2.743-2.8 17.272 17.272 0 0 0-3.813-2.351c-.72-.326-1.48-.615-2.271-.837a15.961 15.961 0 0 0-2.468-.522 16.715 16.715 0 0 0-2.608-.15c-.885.02-1.78.108-2.68.258-.895.166-1.77.393-2.608.677-.838.284-1.635.646-2.396 1.038-.76.393-1.469.853-2.136 1.344a17.407 17.407 0 0 0-4.615 5.09 18.175 18.175 0 0 0-1.61 3.569c-.74 2.294-.859 4.278-.869 5.637 0 1.364.083 2.128-.02 2.144-.078.015-.337-.718-.502-2.119-.156-1.39-.182-3.471.48-5.93a17.724 17.724 0 0 1 1.553-3.855 17.892 17.892 0 0 1 2.856-3.839 17.437 17.437 0 0 1 1.95-1.72 16.941 16.941 0 0 1 2.288-1.473 17.861 17.861 0 0 1 2.581-1.142 20.03 20.03 0 0 1 2.81-.738 19.704 19.704 0 0 1 2.892-.274c.957-.02 1.899.057 2.815.186.916.124 1.806.34 2.654.6.854.252 1.66.578 2.427.945a17.542 17.542 0 0 1 4.004 2.624 17.451 17.451 0 0 1 2.784 3.085c1.47 2.082 2.163 4.045 2.5 5.399.33 1.369.335 2.144.258 2.16l.005-.006Z" fill="#E0E0E0"/><path d="m42.302 59.27.48 2.997-2.68.43-.465-2.915c-2.68.264-5.355-.16-7.01-1.074l.946-3.498c1.5.775 3.544 1.188 5.5 1.07l-.72-4.47c-3.088-.248-6.57-.702-7.18-4.53-.456-2.837 1.215-5.601 5.37-6.759l-.476-2.97 2.68-.43.466 2.915c2.033-.16 4.077.062 5.696.76l-.812 3.502c-1.49-.558-2.954-.79-4.32-.739l.73 4.547c3.083.217 6.513.687 7.114 4.459.444 2.784-1.206 5.512-5.33 6.696l.01.01Zm-4.574-11.397-.61-3.797c-1.367.548-1.806 1.416-1.667 2.3.15.934 1.035 1.317 2.277 1.503v-.006Zm5.64 5.71c-.15-.936-1.01-1.323-2.225-1.54l.59 3.694c1.293-.506 1.769-1.297 1.635-2.155Z" fill="#E0E0E0"/><path d="M342.195 178.892c1.811 12.462-6.856 24.04-19.367 25.854-12.511 1.813-24.121-6.815-25.937-19.282-1.816-12.462 6.855-24.04 19.366-25.853 12.511-1.814 24.122 6.814 25.938 19.281Z" fill="#F5F5F5"/><path d="M336.809 179.673c1.381 9.496-5.226 18.32-14.762 19.705-9.531 1.384-18.383-5.193-19.765-14.694-1.381-9.496 5.226-18.321 14.762-19.705 9.535-1.385 18.383 5.192 19.765 14.694Z" fill="#EBEBEB"/><path d="M336.726 179.135c-.103.021-.29-.728-.755-2.004-.476-1.271-1.273-3.095-2.758-4.997a17.897 17.897 0 0 0-2.742-2.8 17.3 17.3 0 0 0-3.814-2.351 16.165 16.165 0 0 0-2.271-.837 15.983 15.983 0 0 0-2.468-.521 16.647 16.647 0 0 0-2.608-.15c-.885.02-1.78.108-2.68.258-.895.165-1.769.393-2.608.677-.838.284-1.635.646-2.395 1.038-.761.393-1.47.853-2.137 1.344a16.563 16.563 0 0 0-1.847 1.57 17.585 17.585 0 0 0-2.768 3.519 18.136 18.136 0 0 0-1.609 3.57c-.74 2.294-.859 4.278-.87 5.637 0 1.364.083 2.128-.02 2.144-.078.015-.337-.718-.502-2.119-.155-1.389-.181-3.472.481-5.931a17.726 17.726 0 0 1 1.552-3.854 17.912 17.912 0 0 1 2.856-3.839 17.449 17.449 0 0 1 1.951-1.72 16.869 16.869 0 0 1 2.287-1.473 17.81 17.81 0 0 1 2.582-1.142c.905-.31 1.842-.558 2.809-.738a19.518 19.518 0 0 1 2.892-.274 17.43 17.43 0 0 1 2.815.186c.916.124 1.806.341 2.654.599.854.253 1.661.579 2.427.946a17.544 17.544 0 0 1 4.005 2.624 17.412 17.412 0 0 1 2.783 3.085c1.47 2.082 2.163 4.045 2.499 5.399.331 1.369.337 2.149.259 2.159v-.005Z" fill="#E0E0E0"/><path d="m322.994 192.176.481 2.996-2.68.429-.466-2.914c-2.68.264-5.355-.16-7.01-1.075l.946-3.497c1.501.775 3.545 1.188 5.5 1.069l-.719-4.469c-3.089-.248-6.571-.703-7.181-4.531-.456-2.836 1.216-5.601 5.37-6.758l-.476-2.971 2.68-.428.466 2.913c2.034-.16 4.077.062 5.697.76l-.813 3.503c-1.49-.558-2.954-.791-4.32-.739l.73 4.547c3.083.217 6.514.687 7.114 4.458.445 2.785-1.206 5.518-5.329 6.696l.01.011Zm-4.574-11.398-.61-3.797c-1.366.547-1.806 1.415-1.666 2.299.15.935 1.034 1.317 2.276 1.503v-.005Zm5.64 5.709c-.15-.935-1.009-1.322-2.225-1.539l.59 3.694c1.293-.507 1.769-1.297 1.635-2.155Z" fill="#E0E0E0"/><path d="M350.67 229.866c0 .072-78.391.134-175.068.134S.518 229.938.518 229.866c0-.073 78.376-.135 175.084-.135s175.068.062 175.068.135Z" fill="#022749"/><path d="M319.88 179.554h-42.846v8.628h42.846v-8.628Z" fill="#15A9F3"/><path d="M279.792 179.693c.103 0 .186 1.876.186 4.185 0 2.31-.083 4.185-.186 4.185-.104 0-.187-1.87-.187-4.185 0-2.315.083-4.185.187-4.185ZM283.765 179.693c.104 0 .187 1.876.187 4.185 0 2.31-.083 4.185-.187 4.185-.103 0-.186-1.87-.186-4.185 0-2.315.083-4.185.186-4.185ZM287.687 179.693c.104 0 .187 1.876.187 4.185 0 2.31-.083 4.185-.187 4.185-.103 0-.186-1.87-.186-4.185 0-2.315.083-4.185.186-4.185ZM291.593 179.693c.104 0 .187 1.876.187 4.185 0 2.31-.083 4.185-.187 4.185-.103 0-.186-1.87-.186-4.185 0-2.315.083-4.185.186-4.185ZM295.501 179.693c.103 0 .186 1.876.186 4.185 0 2.31-.083 4.185-.186 4.185-.104 0-.187-1.87-.187-4.185 0-2.315.083-4.185.187-4.185ZM299.407 179.693c.103 0 .186 1.876.186 4.185 0 2.31-.083 4.185-.186 4.185-.104 0-.186-1.87-.186-4.185 0-2.315.082-4.185.186-4.185ZM303.308 179.693c.104 0 .187 1.876.187 4.185 0 2.31-.083 4.185-.187 4.185-.103 0-.186-1.87-.186-4.185 0-2.315.083-4.185.186-4.185ZM307.215 179.693c.103 0 .186 1.876.186 4.185 0 2.31-.083 4.185-.186 4.185-.104 0-.187-1.87-.187-4.185 0-2.315.083-4.185.187-4.185ZM311.121 179.693c.103 0 .186 1.876.186 4.185 0 2.31-.083 4.185-.186 4.185-.104 0-.186-1.87-.186-4.185 0-2.315.082-4.185.186-4.185ZM315.027 179.693c.104 0 .186 1.876.186 4.185 0 2.31-.082 4.185-.186 4.185-.103 0-.186-1.87-.186-4.185 0-2.315.083-4.185.186-4.185ZM318.933 179.693c.104 0 .187 1.876.187 4.185 0 2.31-.083 4.185-.187 4.185-.103 0-.186-1.87-.186-4.185 0-2.315.083-4.185.186-4.185Z" fill="#022749"/><path d="M277.723 179.559c13.375 1.813 28.126 1.875 41.475.01l-41.475-.01Z" fill="#022749" opacity=".3"/><path d="M319.896 179.579c0 .104-9.578.186-21.385.186-11.807 0-21.384-.082-21.384-.186 0-.103 9.572-.186 21.384-.186 11.813 0 21.385.083 21.385.186Z" fill="#022749"/><path d="M320.842 188.037h-42.846v8.628h42.846v-8.628Z" fill="#15A9F3"/><path d="M280.754 188.182c.103 0 .186 1.875.186 4.185 0 2.309-.083 4.185-.186 4.185-.104 0-.187-1.871-.187-4.185 0-2.315.083-4.185.187-4.185ZM284.727 188.182c.104 0 .187 1.875.187 4.185 0 2.309-.083 4.185-.187 4.185-.103 0-.186-1.871-.186-4.185 0-2.315.083-4.185.186-4.185ZM288.649 188.182c.104 0 .186 1.875.186 4.185 0 2.309-.082 4.185-.186 4.185-.103 0-.186-1.871-.186-4.185 0-2.315.083-4.185.186-4.185ZM292.555 188.182c.104 0 .187 1.875.187 4.185 0 2.309-.083 4.185-.187 4.185-.103 0-.186-1.871-.186-4.185 0-2.315.083-4.185.186-4.185ZM296.463 188.182c.103 0 .186 1.875.186 4.185 0 2.309-.083 4.185-.186 4.185-.104 0-.187-1.871-.187-4.185 0-2.315.083-4.185.187-4.185ZM300.369 188.182c.103 0 .186 1.875.186 4.185 0 2.309-.083 4.185-.186 4.185-.104 0-.186-1.871-.186-4.185 0-2.315.082-4.185.186-4.185ZM304.27 188.182c.104 0 .186 1.875.186 4.185 0 2.309-.082 4.185-.186 4.185-.103 0-.186-1.871-.186-4.185 0-2.315.083-4.185.186-4.185ZM308.176 188.182c.104 0 .187 1.875.187 4.185 0 2.309-.083 4.185-.187 4.185-.103 0-.186-1.871-.186-4.185 0-2.315.083-4.185.186-4.185ZM312.083 188.182c.103 0 .186 1.875.186 4.185 0 2.309-.083 4.185-.186 4.185-.104 0-.187-1.871-.187-4.185 0-2.315.083-4.185.187-4.185ZM315.989 188.182c.103 0 .186 1.875.186 4.185 0 2.309-.083 4.185-.186 4.185s-.186-1.871-.186-4.185c0-2.315.083-4.185.186-4.185ZM319.895 188.182c.104 0 .187 1.875.187 4.185 0 2.309-.083 4.185-.187 4.185-.103 0-.186-1.871-.186-4.185 0-2.315.083-4.185.186-4.185Z" fill="#022749"/><path d="M278.685 188.042c13.374 1.814 28.126 1.876 41.475.011l-41.475-.011Z" fill="#022749" opacity=".3"/><path d="M320.857 188.063c0 .103-9.577.186-21.384.186s-21.384-.083-21.384-.186 9.572-.186 21.384-.186c11.812 0 21.384.083 21.384.186Z" fill="#022749"/><path d="M316.776 196.386H273.93v8.628h42.846v-8.628Z" fill="#15A9F3"/><path d="M276.682 196.526c.104 0 .187 1.875.187 4.185 0 2.309-.083 4.185-.187 4.185-.103 0-.186-1.871-.186-4.185 0-2.315.083-4.185.186-4.185ZM280.656 196.526c.103 0 .186 1.875.186 4.185 0 2.309-.083 4.185-.186 4.185s-.186-1.871-.186-4.185c0-2.315.083-4.185.186-4.185ZM284.583 196.526c.103 0 .186 1.875.186 4.185 0 2.309-.083 4.185-.186 4.185-.104 0-.187-1.871-.187-4.185 0-2.315.083-4.185.187-4.185ZM288.489 196.526c.103 0 .186 1.875.186 4.185 0 2.309-.083 4.185-.186 4.185s-.186-1.871-.186-4.185c0-2.315.083-4.185.186-4.185ZM292.396 196.526c.104 0 .186 1.875.186 4.185 0 2.309-.082 4.185-.186 4.185-.103 0-.186-1.871-.186-4.185 0-2.315.083-4.185.186-4.185ZM296.297 196.526c.103 0 .186 1.875.186 4.185 0 2.309-.083 4.185-.186 4.185-.104 0-.187-1.871-.187-4.185 0-2.315.083-4.185.187-4.185ZM300.204 196.526c.103 0 .186 1.875.186 4.185 0 2.309-.083 4.185-.186 4.185-.104 0-.186-1.871-.186-4.185 0-2.315.082-4.185.186-4.185ZM304.11 196.526c.104 0 .186 1.875.186 4.185 0 2.309-.082 4.185-.186 4.185-.103 0-.186-1.871-.186-4.185 0-2.315.083-4.185.186-4.185ZM308.016 196.526c.104 0 .187 1.875.187 4.185 0 2.309-.083 4.185-.187 4.185-.103 0-.186-1.871-.186-4.185 0-2.315.083-4.185.186-4.185ZM311.923 196.526c.103 0 .186 1.875.186 4.185 0 2.309-.083 4.185-.186 4.185-.104 0-.187-1.871-.187-4.185 0-2.315.083-4.185.187-4.185ZM315.824 196.526c.103 0 .186 1.875.186 4.185 0 2.309-.083 4.185-.186 4.185s-.186-1.871-.186-4.185c0-2.315.083-4.185.186-4.185Z" fill="#022749"/><path d="M274.618 196.392c13.375 1.813 28.126 1.875 41.475.01l-41.475-.01Z" fill="#022749" opacity=".3"/><path d="M316.786 196.412c0 .104-9.577.186-21.384.186s-21.384-.082-21.384-.186c0-.103 9.572-.186 21.384-.186 11.812 0 21.384.083 21.384.186Z" fill="#022749"/><path d="M321.794 204.947h-42.846v8.298h42.846v-8.298Z" fill="#15A9F3"/><path d="M281.706 205.087c.103 0 .186 1.803.186 4.025 0 2.221-.083 4.024-.186 4.024-.104 0-.186-1.803-.186-4.024 0-2.222.082-4.025.186-4.025ZM285.675 205.087c.103 0 .186 1.803.186 4.025 0 2.221-.083 4.024-.186 4.024-.104 0-.187-1.803-.187-4.024 0-2.222.083-4.025.187-4.025ZM289.601 205.087c.104 0 .187 1.803.187 4.025 0 2.221-.083 4.024-.187 4.024-.103 0-.186-1.803-.186-4.024 0-2.222.083-4.025.186-4.025ZM293.508 205.087c.103 0 .186 1.803.186 4.025 0 2.221-.083 4.024-.186 4.024-.104 0-.187-1.803-.187-4.024 0-2.222.083-4.025.187-4.025ZM297.415 205.087c.103 0 .186 1.803.186 4.025 0 2.221-.083 4.024-.186 4.024-.104 0-.186-1.803-.186-4.024 0-2.222.082-4.025.186-4.025ZM301.321 205.087c.104 0 .186 1.803.186 4.025 0 2.221-.082 4.024-.186 4.024-.103 0-.186-1.803-.186-4.024 0-2.222.083-4.025.186-4.025ZM305.222 205.087c.104 0 .187 1.803.187 4.025 0 2.221-.083 4.024-.187 4.024-.103 0-.186-1.803-.186-4.024 0-2.222.083-4.025.186-4.025ZM309.129 205.087c.103 0 .186 1.803.186 4.025 0 2.221-.083 4.024-.186 4.024-.104 0-.187-1.803-.187-4.024 0-2.222.083-4.025.187-4.025ZM313.035 205.087c.103 0 .186 1.803.186 4.025 0 2.221-.083 4.024-.186 4.024-.104 0-.186-1.803-.186-4.024 0-2.222.082-4.025.186-4.025ZM316.941 205.087c.104 0 .186 1.803.186 4.025 0 2.221-.082 4.024-.186 4.024-.103 0-.186-1.803-.186-4.024 0-2.222.083-4.025.186-4.025ZM320.843 205.087c.103 0 .186 1.803.186 4.025 0 2.221-.083 4.024-.186 4.024-.104 0-.187-1.803-.187-4.024 0-2.222.083-4.025.187-4.025Z" fill="#022749"/><path d="M279.637 204.958c13.375 2.319 28.126 2.397 41.475.01l-41.475-.01Z" fill="#022749" opacity=".3"/><path d="M321.805 204.973c0 .104-9.577.186-21.385.186-11.807 0-21.384-.082-21.384-.186 0-.103 9.572-.186 21.384-.186 11.813 0 21.385.083 21.385.186Z" fill="#022749"/><path d="M319.042 213.25h-42.847v8.298h42.847v-8.298Z" fill="#15A9F3"/><path d="M278.948 213.389c.103 0 .186 1.804.186 4.025 0 2.222-.083 4.025-.186 4.025-.104 0-.186-1.803-.186-4.025 0-2.221.082-4.025.186-4.025ZM282.922 213.389c.103 0 .186 1.804.186 4.025 0 2.222-.083 4.025-.186 4.025-.104 0-.187-1.803-.187-4.025 0-2.221.083-4.025.187-4.025ZM286.848 213.389c.104 0 .187 1.804.187 4.025 0 2.222-.083 4.025-.187 4.025-.103 0-.186-1.803-.186-4.025 0-2.221.083-4.025.186-4.025ZM290.755 213.389c.103 0 .186 1.804.186 4.025 0 2.222-.083 4.025-.186 4.025-.104 0-.187-1.803-.187-4.025 0-2.221.083-4.025.187-4.025ZM294.656 213.389c.103 0 .186 1.804.186 4.025 0 2.222-.083 4.025-.186 4.025s-.186-1.803-.186-4.025c0-2.221.083-4.025.186-4.025ZM298.562 213.389c.104 0 .187 1.804.187 4.025 0 2.222-.083 4.025-.187 4.025-.103 0-.186-1.803-.186-4.025 0-2.221.083-4.025.186-4.025ZM302.469 213.389c.104 0 .187 1.804.187 4.025 0 2.222-.083 4.025-.187 4.025-.103 0-.186-1.803-.186-4.025 0-2.221.083-4.025.186-4.025ZM306.376 213.389c.103 0 .186 1.804.186 4.025 0 2.222-.083 4.025-.186 4.025-.104 0-.187-1.803-.187-4.025 0-2.221.083-4.025.187-4.025ZM310.277 213.389c.104 0 .186 1.804.186 4.025 0 2.222-.082 4.025-.186 4.025-.103 0-.186-1.803-.186-4.025 0-2.221.083-4.025.186-4.025ZM314.183 213.389c.104 0 .187 1.804.187 4.025 0 2.222-.083 4.025-.187 4.025-.103 0-.186-1.803-.186-4.025 0-2.221.083-4.025.186-4.025ZM318.09 213.389c.103 0 .186 1.804.186 4.025 0 2.222-.083 4.025-.186 4.025-.104 0-.187-1.803-.187-4.025 0-2.221.083-4.025.187-4.025Z" fill="#022749"/><path d="M276.884 213.26c13.375 2.625 28.126 2.713 41.475.011l-41.475-.011Z" fill="#022749" opacity=".3"/><path d="M319.052 213.276c0 .103-9.577.186-21.385.186-11.807 0-21.384-.083-21.384-.186s9.572-.186 21.384-.186c11.813 0 21.385.083 21.385.186Z" fill="#022749"/><path d="M321.489 221.434h-42.846v8.297h42.846v-8.297Z" fill="#15A9F3"/><path d="M281.395 221.573c.104 0 .186 1.803.186 4.025 0 2.222-.082 4.025-.186 4.025-.103 0-.186-1.803-.186-4.025 0-2.222.083-4.025.186-4.025ZM285.369 221.573c.103 0 .186 1.803.186 4.025 0 2.222-.083 4.025-.186 4.025-.104 0-.186-1.803-.186-4.025 0-2.222.082-4.025.186-4.025ZM289.296 221.573c.103 0 .186 1.803.186 4.025 0 2.222-.083 4.025-.186 4.025-.104 0-.187-1.803-.187-4.025 0-2.222.083-4.025.187-4.025ZM293.202 221.573c.103 0 .186 1.803.186 4.025 0 2.222-.083 4.025-.186 4.025-.104 0-.186-1.803-.186-4.025 0-2.222.082-4.025.186-4.025ZM297.103 221.573c.104 0 .187 1.803.187 4.025 0 2.222-.083 4.025-.187 4.025-.103 0-.186-1.803-.186-4.025 0-2.222.083-4.025.186-4.025ZM301.01 221.573c.103 0 .186 1.803.186 4.025 0 2.222-.083 4.025-.186 4.025-.104 0-.187-1.803-.187-4.025 0-2.222.083-4.025.187-4.025ZM304.917 221.573c.103 0 .186 1.803.186 4.025 0 2.222-.083 4.025-.186 4.025-.104 0-.187-1.803-.187-4.025 0-2.222.083-4.025.187-4.025ZM308.823 221.573c.103 0 .186 1.803.186 4.025 0 2.222-.083 4.025-.186 4.025-.104 0-.186-1.803-.186-4.025 0-2.222.082-4.025.186-4.025ZM312.729 221.573c.104 0 .187 1.803.187 4.025 0 2.222-.083 4.025-.187 4.025-.103 0-.186-1.803-.186-4.025 0-2.222.083-4.025.186-4.025ZM316.631 221.573c.103 0 .186 1.803.186 4.025 0 2.222-.083 4.025-.186 4.025-.104 0-.187-1.803-.187-4.025 0-2.222.083-4.025.187-4.025ZM320.537 221.573c.103 0 .186 1.803.186 4.025 0 2.222-.083 4.025-.186 4.025-.104 0-.186-1.803-.186-4.025 0-2.222.082-4.025.186-4.025Z" fill="#022749"/><path d="M279.331 221.444c13.375 2.32 28.126 2.397 41.475.011l-41.475-.011Z" fill="#022749" opacity=".3"/><path d="M321.499 221.46c0 .103-9.577.186-21.384.186s-21.385-.083-21.385-.186c0-.104 9.572-.186 21.385-.186 11.812 0 21.384.082 21.384.186Z" fill="#022749"/><path d="M278.643 229.731s.01-.046.015-.139c0-.109.006-.248.011-.419.005-.387.015-.924.026-1.612.01-1.426.025-3.466.041-6.008v-.093h-.093c-.745 0-1.532-.006-2.36-.011l.104.104c.005-2.423.015-5.229.026-8.303l-.13.129h2.882v-.134c0-2.563 0-5.348.011-8.236v-.139H274.017l.14.139c0-3.069-.005-6.019-.01-8.788l-.135.134c1.407 0 2.763-.005 4.067-.005h.124v-.124c-.01-3.002-.021-5.714-.026-8.044v-.098H277.029l.093.093c.01-2.671.015-4.821.02-6.314 0-.723-.005-1.292-.005-1.695 0-.18-.005-.325-.01-.439 0-.098-.005-.15-.011-.15 0 0-.01.052-.015.15 0 .114-.01.259-.016.439-.01.403-.025.972-.041 1.695l-.109 6.314v.093H278.079l-.098-.099c-.006 2.336-.016 5.043-.026 8.045l.124-.124c-1.304 0-2.66 0-4.067-.005h-.134v.134c0 2.764 0 5.714-.011 8.788v.14H279.026l-.14-.14c0 2.888.005 5.668.01 8.236l.135-.135h-2.882v.13c.01 3.074.015 5.879.026 8.302v.104h.103c.828 0 1.62-.006 2.36-.011l-.093-.093c.015 2.542.031 4.583.041 6.009.01.687.021 1.23.026 1.612.005.17.01.31.01.418 0 .093.01.14.016.14l.005.01Z" fill="#022749"/><path d="M316.373 154.609h-42.847v8.298h42.847v-8.298Z" fill="#15A9F3"/><path d="M276.279 154.749c.104 0 .186 1.803.186 4.025 0 2.221-.082 4.025-.186 4.025-.103 0-.186-1.804-.186-4.025 0-2.222.083-4.025.186-4.025ZM280.253 154.749c.103 0 .186 1.803.186 4.025 0 2.221-.083 4.025-.186 4.025-.104 0-.187-1.804-.187-4.025 0-2.222.083-4.025.187-4.025ZM284.179 154.749c.104 0 .187 1.803.187 4.025 0 2.221-.083 4.025-.187 4.025-.103 0-.186-1.804-.186-4.025 0-2.222.083-4.025.186-4.025ZM288.081 154.749c.103 0 .186 1.803.186 4.025 0 2.221-.083 4.025-.186 4.025-.104 0-.186-1.804-.186-4.025 0-2.222.082-4.025.186-4.025ZM291.987 154.749c.104 0 .186 1.803.186 4.025 0 2.221-.082 4.025-.186 4.025-.103 0-.186-1.804-.186-4.025 0-2.222.083-4.025.186-4.025ZM295.893 154.749c.104 0 .187 1.803.187 4.025 0 2.221-.083 4.025-.187 4.025-.103 0-.186-1.804-.186-4.025 0-2.222.083-4.025.186-4.025ZM299.801 154.749c.103 0 .186 1.803.186 4.025 0 2.221-.083 4.025-.186 4.025-.104 0-.187-1.804-.187-4.025 0-2.222.083-4.025.187-4.025ZM303.707 154.749c.103 0 .186 1.803.186 4.025 0 2.221-.083 4.025-.186 4.025-.104 0-.186-1.804-.186-4.025 0-2.222.082-4.025.186-4.025ZM307.608 154.749c.104 0 .186 1.803.186 4.025 0 2.221-.082 4.025-.186 4.025-.103 0-.186-1.804-.186-4.025 0-2.222.083-4.025.186-4.025ZM311.514 154.749c.104 0 .187 1.803.187 4.025 0 2.221-.083 4.025-.187 4.025-.103 0-.186-1.804-.186-4.025 0-2.222.083-4.025.186-4.025ZM315.421 154.749c.103 0 .186 1.803.186 4.025 0 2.221-.083 4.025-.186 4.025-.104 0-.187-1.804-.187-4.025 0-2.222.083-4.025.187-4.025Z" fill="#022749"/><path d="M274.215 154.62c13.375 2.32 28.126 2.397 41.475.01l-41.475-.01Z" fill="#022749" opacity=".3"/><path d="M316.383 154.635c0 .104-9.577.186-21.384.186-11.808 0-21.385-.082-21.385-.186 0-.103 9.572-.186 21.385-.186 11.812 0 21.384.083 21.384.186Z" fill="#022749"/><path d="M313.615 162.912h-42.846v8.298h42.846v-8.298Z" fill="#15A9F3"/><path d="M273.526 163.052c.104 0 .186 1.803.186 4.024 0 2.222-.082 4.025-.186 4.025-.103 0-.186-1.803-.186-4.025 0-2.221.083-4.024.186-4.024ZM277.495 163.052c.103 0 .186 1.803.186 4.024 0 2.222-.083 4.025-.186 4.025-.104 0-.186-1.803-.186-4.025 0-2.221.082-4.024.186-4.024ZM281.422 163.052c.103 0 .186 1.803.186 4.024 0 2.222-.083 4.025-.186 4.025-.104 0-.187-1.803-.187-4.025 0-2.221.083-4.024.187-4.024ZM285.328 163.052c.103 0 .186 1.803.186 4.024 0 2.222-.083 4.025-.186 4.025-.104 0-.186-1.803-.186-4.025 0-2.221.082-4.024.186-4.024ZM289.235 163.052c.104 0 .186 1.803.186 4.024 0 2.222-.082 4.025-.186 4.025-.103 0-.186-1.803-.186-4.025 0-2.221.083-4.024.186-4.024ZM293.141 163.052c.104 0 .187 1.803.187 4.024 0 2.222-.083 4.025-.187 4.025-.103 0-.186-1.803-.186-4.025 0-2.221.083-4.024.186-4.024ZM297.043 163.052c.103 0 .186 1.803.186 4.024 0 2.222-.083 4.025-.186 4.025-.104 0-.187-1.803-.187-4.025 0-2.221.083-4.024.187-4.024ZM300.949 163.052c.103 0 .186 1.803.186 4.024 0 2.222-.083 4.025-.186 4.025s-.186-1.803-.186-4.025c0-2.221.083-4.024.186-4.024ZM304.855 163.052c.104 0 .186 1.803.186 4.024 0 2.222-.082 4.025-.186 4.025-.103 0-.186-1.803-.186-4.025 0-2.221.083-4.024.186-4.024ZM308.761 163.052c.104 0 .187 1.803.187 4.024 0 2.222-.083 4.025-.187 4.025-.103 0-.186-1.803-.186-4.025 0-2.221.083-4.024.186-4.024ZM312.663 163.052c.103 0 .186 1.803.186 4.024 0 2.222-.083 4.025-.186 4.025-.104 0-.186-1.803-.186-4.025 0-2.221.082-4.024.186-4.024Z" fill="#022749"/><path d="M271.457 162.922c13.375 2.625 28.126 2.713 41.475.016l-41.475-.016Z" fill="#022749" opacity=".3"/><path d="M313.625 162.938c0 .103-9.577.186-21.384.186s-21.385-.083-21.385-.186 9.572-.186 21.385-.186c11.812 0 21.384.083 21.384.186Z" fill="#022749"/><path d="M316.062 171.096h-42.846v8.298h42.846v-8.298Z" fill="#15A9F3"/><path d="M275.973 171.236c.104 0 .187 1.803.187 4.024 0 2.222-.083 4.025-.187 4.025-.103 0-.186-1.803-.186-4.025 0-2.221.083-4.024.186-4.024ZM279.942 171.236c.104 0 .186 1.803.186 4.024 0 2.222-.082 4.025-.186 4.025-.103 0-.186-1.803-.186-4.025 0-2.221.083-4.024.186-4.024ZM283.869 171.236c.103 0 .186 1.803.186 4.024 0 2.222-.083 4.025-.186 4.025-.104 0-.186-1.803-.186-4.025 0-2.221.082-4.024.186-4.024ZM287.775 171.236c.104 0 .186 1.803.186 4.024 0 2.222-.082 4.025-.186 4.025-.103 0-.186-1.803-.186-4.025 0-2.221.083-4.024.186-4.024ZM291.682 171.236c.104 0 .187 1.803.187 4.024 0 2.222-.083 4.025-.187 4.025-.103 0-.186-1.803-.186-4.025 0-2.221.083-4.024.186-4.024ZM295.589 171.236c.103 0 .186 1.803.186 4.024 0 2.222-.083 4.025-.186 4.025-.104 0-.187-1.803-.187-4.025 0-2.221.083-4.024.187-4.024ZM299.49 171.236c.103 0 .186 1.803.186 4.024 0 2.222-.083 4.025-.186 4.025s-.186-1.803-.186-4.025c0-2.221.083-4.024.186-4.024ZM303.396 171.236c.104 0 .186 1.803.186 4.024 0 2.222-.082 4.025-.186 4.025-.103 0-.186-1.803-.186-4.025 0-2.221.083-4.024.186-4.024ZM307.302 171.236c.104 0 .187 1.803.187 4.024 0 2.222-.083 4.025-.187 4.025-.103 0-.186-1.803-.186-4.025 0-2.221.083-4.024.186-4.024ZM311.209 171.236c.103 0 .186 1.803.186 4.024 0 2.222-.083 4.025-.186 4.025-.104 0-.187-1.803-.187-4.025 0-2.221.083-4.024.187-4.024ZM315.115 171.236c.103 0 .186 1.803.186 4.024 0 2.222-.083 4.025-.186 4.025s-.186-1.803-.186-4.025c0-2.221.083-4.024.186-4.024Z" fill="#022749"/><path d="M273.904 171.106c13.375 2.32 28.126 2.398 41.475.011l-41.475-.011Z" fill="#022749" opacity=".3"/><path d="M316.077 171.122c0 .103-9.577.186-21.384.186s-21.384-.083-21.384-.186 9.572-.186 21.384-.186c11.812 0 21.384.083 21.384.186Z" fill="#022749"/><path d="M309.615 138.206h-42.846v8.297h42.846v-8.297Z" fill="#15A9F3"/><path d="M269.521 138.345c.104 0 .187 1.803.187 4.025 0 2.222-.083 4.025-.187 4.025-.103 0-.186-1.803-.186-4.025 0-2.222.083-4.025.186-4.025ZM273.495 138.345c.103 0 .186 1.803.186 4.025 0 2.222-.083 4.025-.186 4.025-.104 0-.186-1.803-.186-4.025 0-2.222.082-4.025.186-4.025ZM277.422 138.345c.103 0 .186 1.803.186 4.025 0 2.221-.083 4.025-.186 4.025-.104 0-.187-1.804-.187-4.025 0-2.222.083-4.025.187-4.025ZM281.323 138.345c.103 0 .186 1.803.186 4.025 0 2.222-.083 4.025-.186 4.025-.104 0-.186-1.803-.186-4.025 0-2.222.082-4.025.186-4.025ZM285.229 138.345c.104 0 .187 1.803.187 4.025 0 2.221-.083 4.025-.187 4.025-.103 0-.186-1.804-.186-4.025 0-2.222.083-4.025.186-4.025ZM289.135 138.345c.104 0 .187 1.803.187 4.025 0 2.221-.083 4.025-.187 4.025-.103 0-.186-1.804-.186-4.025 0-2.222.083-4.025.186-4.025ZM293.043 138.345c.103 0 .186 1.803.186 4.025 0 2.221-.083 4.025-.186 4.025-.104 0-.187-1.804-.187-4.025 0-2.222.083-4.025.187-4.025ZM296.949 138.345c.103 0 .186 1.803.186 4.025 0 2.221-.083 4.025-.186 4.025-.104 0-.186-1.804-.186-4.025 0-2.222.082-4.025.186-4.025ZM300.85 138.345c.104 0 .187 1.803.187 4.025 0 2.221-.083 4.025-.187 4.025-.103 0-.186-1.804-.186-4.025 0-2.222.083-4.025.186-4.025ZM304.757 138.345c.103 0 .186 1.803.186 4.025 0 2.221-.083 4.025-.186 4.025-.104 0-.187-1.804-.187-4.025 0-2.222.083-4.025.187-4.025ZM308.663 138.345c.103 0 .186 1.803.186 4.025 0 2.222-.083 4.025-.186 4.025-.104 0-.186-1.803-.186-4.025 0-2.222.082-4.025.186-4.025Z" fill="#022749"/><path d="M267.457 138.216c13.375 2.625 28.126 2.712 41.475.015l-41.475-.015Z" fill="#022749" opacity=".3"/><path d="M309.625 138.231c0 .104-9.577.186-21.384.186s-21.385-.082-21.385-.186c0-.103 9.572-.186 21.385-.186 11.812 0 21.384.083 21.384.186Z" fill="#022749"/><path d="M312.062 146.389h-42.846v8.298h42.846v-8.298Z" fill="#15A9F3"/><path d="M271.968 146.529c.104 0 .187 1.803.187 4.025 0 2.221-.083 4.025-.187 4.025-.103 0-.186-1.804-.186-4.025 0-2.222.083-4.025.186-4.025ZM275.942 146.529c.104 0 .186 1.803.186 4.025 0 2.221-.082 4.025-.186 4.025-.103 0-.186-1.804-.186-4.025 0-2.222.083-4.025.186-4.025ZM279.869 146.529c.103 0 .186 1.803.186 4.025 0 2.221-.083 4.024-.186 4.024-.104 0-.186-1.803-.186-4.024 0-2.222.082-4.025.186-4.025ZM283.775 146.529c.104 0 .186 1.803.186 4.025 0 2.221-.082 4.024-.186 4.024-.103 0-.186-1.803-.186-4.024 0-2.222.083-4.025.186-4.025ZM287.676 146.529c.104 0 .187 1.803.187 4.025 0 2.221-.083 4.024-.187 4.024-.103 0-.186-1.803-.186-4.024 0-2.222.083-4.025.186-4.025ZM291.583 146.529c.103 0 .186 1.803.186 4.025 0 2.221-.083 4.024-.186 4.024-.104 0-.187-1.803-.187-4.024 0-2.222.083-4.025.187-4.025ZM295.49 146.529c.103 0 .186 1.803.186 4.025 0 2.221-.083 4.024-.186 4.024-.104 0-.186-1.803-.186-4.024 0-2.222.082-4.025.186-4.025ZM299.396 146.529c.104 0 .187 1.803.187 4.025 0 2.221-.083 4.024-.187 4.024-.103 0-.186-1.803-.186-4.024 0-2.222.083-4.025.186-4.025ZM303.298 146.529c.103 0 .186 1.803.186 4.025 0 2.221-.083 4.024-.186 4.024-.104 0-.187-1.803-.187-4.024 0-2.222.083-4.025.187-4.025ZM307.204 146.529c.103 0 .186 1.803.186 4.025 0 2.221-.083 4.024-.186 4.024-.104 0-.186-1.803-.186-4.024 0-2.222.082-4.025.186-4.025ZM311.11 146.529c.104 0 .186 1.803.186 4.025 0 2.221-.082 4.025-.186 4.025-.103 0-.186-1.804-.186-4.025 0-2.222.083-4.025.186-4.025Z" fill="#022749"/><path d="M269.904 146.4c13.375 2.32 28.126 2.397 41.475.01l-41.475-.01Z" fill="#022749" opacity=".3"/><path d="M312.072 146.415c0 .104-9.577.186-21.384.186s-21.384-.082-21.384-.186c0-.103 9.572-.186 21.384-.186 11.812 0 21.384.083 21.384.186Z" fill="#022749"/><path d="M34.035 188.249H76.88v-8.628H34.035v8.628Z" fill="#15A9F3"/><path d="M74.129 179.765c-.104 0-.187 1.876-.187 4.185 0 2.31.083 4.185.187 4.185.103 0 .186-1.87.186-4.185 0-2.314-.083-4.185-.186-4.185ZM70.155 179.765c-.103 0-.186 1.876-.186 4.185 0 2.31.083 4.185.186 4.185s.186-1.87.186-4.185c0-2.314-.082-4.185-.186-4.185ZM66.227 179.765c-.103 0-.186 1.876-.186 4.185 0 2.31.083 4.185.186 4.185.104 0 .186-1.87.186-4.185 0-2.314-.082-4.185-.186-4.185ZM62.321 179.765c-.103 0-.186 1.876-.186 4.185 0 2.31.083 4.185.186 4.185.104 0 .186-1.87.186-4.185 0-2.314-.082-4.185-.186-4.185ZM58.415 179.765c-.104 0-.187 1.876-.187 4.185 0 2.31.083 4.185.187 4.185.103 0 .186-1.87.186-4.185 0-2.314-.083-4.185-.186-4.185ZM54.513 179.765c-.103 0-.186 1.876-.186 4.185 0 2.31.083 4.185.186 4.185.104 0 .187-1.87.187-4.185 0-2.314-.083-4.185-.187-4.185ZM50.607 179.765c-.103 0-.186 1.876-.186 4.185 0 2.31.083 4.185.186 4.185.104 0 .186-1.87.186-4.185 0-2.314-.082-4.185-.186-4.185ZM46.7 179.765c-.103 0-.185 1.876-.185 4.185 0 2.31.082 4.185.186 4.185.103 0 .186-1.87.186-4.185 0-2.314-.083-4.185-.186-4.185ZM42.795 179.765c-.104 0-.187 1.876-.187 4.185 0 2.31.083 4.185.187 4.185.103 0 .186-1.87.186-4.185 0-2.314-.083-4.185-.186-4.185ZM38.888 179.765c-.103 0-.186 1.876-.186 4.185 0 2.31.083 4.185.186 4.185.104 0 .187-1.87.187-4.185 0-2.314-.083-4.185-.187-4.185ZM34.987 179.765c-.103 0-.186 1.876-.186 4.185 0 2.31.083 4.185.186 4.185s.186-1.87.186-4.185c0-2.314-.083-4.185-.186-4.185Z" fill="#022749"/><path d="M76.193 179.631c-13.375 1.814-28.126 1.876-41.475.01l41.475-.01Z" fill="#022749" opacity=".3"/><path d="M34.024 179.647c0 .103 9.578.186 21.385.186 11.807 0 21.384-.083 21.384-.186 0-.104-9.572-.186-21.384-.186-11.813 0-21.385.082-21.385.186Z" fill="#022749"/><path d="M33.073 196.732h42.846v-8.628H33.073v8.628Z" fill="#15A9F3"/><path d="M73.167 188.249c-.104 0-.186 1.875-.186 4.185 0 2.309.082 4.185.186 4.185.103 0 .186-1.87.186-4.185 0-2.315-.083-4.185-.186-4.185ZM69.193 188.249c-.103 0-.186 1.875-.186 4.185 0 2.309.083 4.185.186 4.185.104 0 .186-1.87.186-4.185 0-2.315-.082-4.185-.186-4.185ZM65.265 188.249c-.103 0-.186 1.875-.186 4.185 0 2.309.083 4.185.186 4.185.104 0 .187-1.87.187-4.185 0-2.315-.083-4.185-.187-4.185ZM61.36 188.249c-.104 0-.187 1.875-.187 4.185 0 2.309.083 4.185.186 4.185.104 0 .186-1.87.186-4.185 0-2.315-.082-4.185-.186-4.185ZM57.453 188.249c-.104 0-.186 1.875-.186 4.185 0 2.309.082 4.185.186 4.185.103 0 .186-1.87.186-4.185 0-2.315-.083-4.185-.186-4.185ZM53.551 188.249c-.103 0-.186 1.875-.186 4.185 0 2.309.083 4.185.186 4.185.104 0 .187-1.87.187-4.185 0-2.315-.083-4.185-.187-4.185ZM49.645 188.249c-.103 0-.186 1.875-.186 4.185 0 2.309.083 4.185.186 4.185.104 0 .186-1.87.186-4.185 0-2.315-.082-4.185-.186-4.185ZM45.739 188.249c-.103 0-.186 1.875-.186 4.185 0 2.309.083 4.185.186 4.185.104 0 .186-1.87.186-4.185 0-2.315-.082-4.185-.186-4.185ZM41.833 188.249c-.104 0-.186 1.875-.186 4.185 0 2.309.082 4.185.186 4.185.103 0 .186-1.87.186-4.185 0-2.315-.083-4.185-.186-4.185ZM37.926 188.249c-.103 0-.186 1.875-.186 4.185 0 2.309.083 4.185.186 4.185.104 0 .187-1.87.187-4.185 0-2.315-.083-4.185-.187-4.185ZM34.025 188.249c-.103 0-.186 1.875-.186 4.185 0 2.309.083 4.185.186 4.185.104 0 .186-1.87.186-4.185 0-2.315-.082-4.185-.186-4.185Z" fill="#022749"/><path d="M75.23 188.115c-13.374 1.813-28.125 1.875-41.474.01l41.475-.01Z" fill="#022749" opacity=".3"/><path d="M33.063 188.13c0 .103 9.577.186 21.384.186s21.384-.083 21.384-.186-9.572-.186-21.384-.186c-11.813 0-21.385.083-21.385.186Z" fill="#022749"/><path d="M37.14 205.082h42.845v-8.629H37.14v8.629Z" fill="#15A9F3"/><path d="M77.233 196.598c-.103 0-.186 1.876-.186 4.185 0 2.31.083 4.185.186 4.185.104 0 .186-1.87.186-4.185 0-2.315-.082-4.185-.186-4.185ZM73.26 196.598c-.104 0-.187 1.876-.187 4.185 0 2.31.083 4.185.187 4.185.103 0 .186-1.87.186-4.185 0-2.315-.083-4.185-.186-4.185ZM69.332 196.598c-.104 0-.186 1.876-.186 4.185 0 2.31.082 4.185.186 4.185.103 0 .186-1.87.186-4.185 0-2.315-.083-4.185-.186-4.185ZM65.425 196.598c-.103 0-.186 1.876-.186 4.185 0 2.31.083 4.185.186 4.185.104 0 .187-1.87.187-4.185 0-2.315-.083-4.185-.186-4.185ZM61.524 196.598c-.103 0-.186 1.876-.186 4.185 0 2.31.083 4.185.186 4.185.104 0 .186-1.87.186-4.185 0-2.315-.082-4.185-.186-4.185ZM57.618 196.598c-.104 0-.186 1.876-.186 4.185 0 2.31.082 4.185.186 4.185.103 0 .186-1.87.186-4.185 0-2.315-.083-4.185-.186-4.185ZM53.712 196.598c-.104 0-.187 1.876-.187 4.185 0 2.31.083 4.185.187 4.185.103 0 .186-1.87.186-4.185 0-2.315-.083-4.185-.186-4.185ZM49.805 196.598c-.103 0-.186 1.876-.186 4.185 0 2.31.083 4.185.186 4.185.104 0 .187-1.87.187-4.185 0-2.315-.083-4.185-.187-4.185ZM45.9 196.598c-.104 0-.187 1.876-.187 4.185 0 2.31.083 4.185.186 4.185.104 0 .186-1.87.186-4.185 0-2.315-.082-4.185-.186-4.185ZM41.998 196.598c-.104 0-.186 1.876-.186 4.185 0 2.31.082 4.185.186 4.185.103 0 .186-1.87.186-4.185 0-2.315-.083-4.185-.186-4.185ZM38.092 196.598c-.104 0-.187 1.876-.187 4.185 0 2.31.083 4.185.187 4.185.103 0 .186-1.87.186-4.185 0-2.315-.083-4.185-.186-4.185Z" fill="#022749"/><path d="M79.297 196.464c-13.375 1.813-28.126 1.875-41.475.01l41.475-.01Z" fill="#022749" opacity=".3"/><path d="M37.129 196.479c0 .104 9.577.186 21.384.186s21.384-.082 21.384-.186c0-.103-9.572-.186-21.384-.186-11.812 0-21.384.083-21.384.186Z" fill="#022749"/><path d="M32.12 213.312h42.847v-8.298H32.12v8.298Z" fill="#15A9F3"/><path d="M72.215 205.154c-.104 0-.187 1.803-.187 4.025 0 2.221.083 4.024.187 4.024.103 0 .186-1.803.186-4.024 0-2.222-.083-4.025-.186-4.025ZM68.241 205.154c-.103 0-.186 1.803-.186 4.025 0 2.221.082 4.024.186 4.024.103 0 .186-1.803.186-4.024 0-2.222-.083-4.025-.186-4.025ZM64.313 205.154c-.103 0-.186 1.803-.186 4.025 0 2.221.083 4.024.186 4.024.104 0 .186-1.803.186-4.024 0-2.222-.082-4.025-.186-4.025ZM60.407 205.154c-.103 0-.186 1.803-.186 4.025 0 2.221.083 4.024.186 4.024s.186-1.803.186-4.024c0-2.222-.083-4.025-.186-4.025ZM56.5 205.154c-.103 0-.185 1.803-.185 4.025 0 2.221.082 4.024.186 4.024.103 0 .186-1.803.186-4.024 0-2.222-.083-4.025-.186-4.025ZM52.6 205.154c-.104 0-.187 1.803-.187 4.025 0 2.221.083 4.024.186 4.024.104 0 .187-1.803.187-4.024 0-2.222-.083-4.025-.187-4.025ZM48.693 205.154c-.103 0-.186 1.803-.186 4.025 0 2.221.083 4.024.186 4.024.104 0 .186-1.803.186-4.024 0-2.222-.082-4.025-.186-4.025ZM44.787 205.154c-.104 0-.186 1.803-.186 4.025 0 2.221.082 4.024.186 4.024.103 0 .186-1.803.186-4.024 0-2.222-.083-4.025-.186-4.025ZM40.88 205.154c-.103 0-.186 1.803-.186 4.025 0 2.221.083 4.024.187 4.024.103 0 .186-1.803.186-4.024 0-2.222-.083-4.025-.186-4.025ZM36.98 205.154c-.104 0-.187 1.803-.187 4.025 0 2.221.083 4.024.186 4.024.104 0 .187-1.803.187-4.024 0-2.222-.083-4.025-.187-4.025ZM33.073 205.154c-.104 0-.186 1.803-.186 4.025 0 2.221.082 4.024.186 4.024.103 0 .186-1.803.186-4.024 0-2.222-.083-4.025-.186-4.025Z" fill="#022749"/><path d="M74.279 205.025c-13.375 2.32-28.126 2.397-41.475.01l41.475-.01Z" fill="#022749" opacity=".3"/><path d="M32.11 205.045c0 .104 9.578.186 21.385.186 11.807 0 21.384-.082 21.384-.186 0-.103-9.572-.186-21.384-.186-11.813 0-21.385.083-21.385.186Z" fill="#022749"/><path d="M34.878 221.615h42.847v-8.298H34.878v8.298Z" fill="#15A9F3"/><path d="M74.968 213.457c-.104 0-.187 1.803-.187 4.024 0 2.222.083 4.025.186 4.025.104 0 .187-1.803.187-4.025 0-2.221-.083-4.024-.186-4.024ZM70.994 213.457c-.104 0-.186 1.803-.186 4.024 0 2.222.082 4.025.186 4.025.103 0 .186-1.803.186-4.025 0-2.221-.083-4.024-.186-4.024ZM67.072 213.457c-.103 0-.186 1.803-.186 4.024 0 2.222.083 4.025.186 4.025s.186-1.803.186-4.025c0-2.221-.082-4.024-.186-4.024ZM63.165 213.457c-.104 0-.187 1.803-.187 4.024 0 2.222.083 4.025.187 4.025.103 0 .186-1.803.186-4.025 0-2.221-.083-4.024-.186-4.024ZM59.258 213.457c-.103 0-.186 1.803-.186 4.024 0 2.222.083 4.025.186 4.025.104 0 .187-1.803.187-4.025 0-2.221-.083-4.024-.187-4.024ZM55.352 213.457c-.103 0-.186 1.803-.186 4.024 0 2.222.083 4.025.186 4.025.104 0 .187-1.803.187-4.025 0-2.221-.083-4.024-.187-4.024ZM51.446 213.457c-.103 0-.186 1.803-.186 4.024 0 2.222.083 4.025.186 4.025.104 0 .186-1.803.186-4.025 0-2.221-.082-4.024-.186-4.024ZM47.545 213.457c-.104 0-.187 1.803-.187 4.024 0 2.222.083 4.025.187 4.025.103 0 .186-1.803.186-4.025 0-2.221-.083-4.024-.186-4.024ZM43.638 213.457c-.103 0-.186 1.803-.186 4.024 0 2.222.083 4.025.186 4.025.104 0 .187-1.803.187-4.025 0-2.221-.083-4.024-.187-4.024ZM39.732 213.457c-.103 0-.186 1.803-.186 4.024 0 2.222.083 4.025.186 4.025.104 0 .186-1.803.186-4.025 0-2.221-.082-4.024-.186-4.024ZM35.826 213.457c-.104 0-.186 1.803-.186 4.024 0 2.222.082 4.025.186 4.025.103 0 .186-1.803.186-4.025 0-2.221-.083-4.024-.186-4.024Z" fill="#022749"/><path d="M77.032 213.327c-13.375 2.625-28.126 2.713-41.475.011l41.475-.011Z" fill="#022749" opacity=".3"/><path d="M34.863 213.348c0 .103 9.577.186 21.385.186 11.807 0 21.384-.083 21.384-.186s-9.572-.186-21.384-.186c-11.813 0-21.385.083-21.385.186Z" fill="#022749"/><path d="M32.431 229.798h42.846v-8.297H32.431v8.297Z" fill="#15A9F3"/><path d="M72.52 221.64c-.103 0-.186 1.804-.186 4.025 0 2.222.083 4.025.186 4.025.104 0 .187-1.803.187-4.025 0-2.221-.083-4.025-.187-4.025ZM68.547 221.64c-.104 0-.187 1.804-.187 4.025 0 2.222.083 4.025.187 4.025.103 0 .186-1.803.186-4.025 0-2.221-.083-4.025-.186-4.025ZM64.619 221.64c-.104 0-.186 1.804-.186 4.025 0 2.222.082 4.025.186 4.025.103 0 .186-1.803.186-4.025 0-2.221-.083-4.025-.186-4.025ZM60.718 221.64c-.104 0-.187 1.804-.187 4.025 0 2.222.083 4.025.187 4.025.103 0 .186-1.803.186-4.025 0-2.221-.083-4.025-.187-4.025ZM56.811 221.64c-.103 0-.186 1.804-.186 4.025 0 2.222.083 4.025.186 4.025.104 0 .187-1.803.187-4.025 0-2.221-.083-4.025-.187-4.025ZM52.905 221.64c-.104 0-.186 1.804-.186 4.025 0 2.222.082 4.025.186 4.025.103 0 .186-1.803.186-4.025 0-2.221-.083-4.025-.186-4.025ZM48.999 221.64c-.104 0-.187 1.804-.187 4.025 0 2.222.083 4.025.187 4.025.103 0 .186-1.803.186-4.025 0-2.221-.083-4.025-.186-4.025ZM45.093 221.64c-.104 0-.187 1.804-.187 4.025 0 2.222.083 4.025.187 4.025.103 0 .186-1.803.186-4.025 0-2.221-.083-4.025-.187-4.025ZM41.191 221.64c-.103 0-.186 1.804-.186 4.025 0 2.222.083 4.025.186 4.025.104 0 .186-1.803.186-4.025 0-2.221-.082-4.025-.186-4.025ZM37.285 221.64c-.104 0-.186 1.804-.186 4.025 0 2.222.082 4.025.186 4.025.103 0 .186-1.803.186-4.025 0-2.221-.083-4.025-.186-4.025ZM33.379 221.64c-.104 0-.187 1.804-.187 4.025 0 2.222.083 4.025.187 4.025.103 0 .186-1.803.186-4.025 0-2.221-.083-4.025-.186-4.025Z" fill="#022749"/><path d="M74.584 221.511c-13.374 2.32-28.126 2.398-41.475.011l41.475-.011Z" fill="#022749" opacity=".3"/><path d="M32.416 221.532c0 .103 9.577.186 21.384.186 11.808 0 21.385-.083 21.385-.186s-9.572-.186-21.385-.186c-11.812 0-21.384.083-21.384.186Z" fill="#022749"/><path d="M75.272 229.804s-.01-.047-.015-.14c0-.108-.006-.248-.01-.418l-.027-1.612c-.01-1.426-.025-3.467-.04-6.009v-.093h.092c.745 0 1.532-.005 2.36-.01l-.104.103c-.005-2.423-.016-5.229-.026-8.303l.13.129h-2.883v-.134c0-2.562 0-5.347-.01-8.235v-.14H79.898l-.14.14c0-3.069.005-6.019.005-8.789l.135.135c-1.408 0-2.763-.006-4.067-.006h-.124v-.124c.01-3.001.02-5.714.026-8.044v-.098H76.88l-.093.093c-.01-2.671-.015-4.82-.02-6.314 0-.723.005-1.291.005-1.694 0-.181.005-.326.01-.439 0-.099.005-.15.01-.15s.01.051.016.15c0 .113.01.258.015.439.01.403.026.971.042 1.694l.108 6.314v.093h-1.143l.098-.098c.005 2.335.016 5.042.026 8.044l-.124-.124c1.304 0 2.66 0 4.067-.005h.134v.134c0 2.764 0 5.715.01 8.789v.139H74.885l.14-.139c0 2.888-.005 5.667-.01 8.235l-.13-.134h2.883v.129c-.011 3.074-.016 5.88-.027 8.303v.103h-.103c-.828 0-1.62-.005-2.36-.01l.094-.093c-.016 2.542-.032 4.582-.042 6.008-.01.688-.02 1.23-.026 1.612-.005.171-.01.31-.01.419 0 .093-.01.139-.016.139l-.005.011Z" fill="#022749"/><path d="M271.787 91.986H82.744c-4.164 0-7.539 3.37-7.539 7.527v119.735c0 4.158 3.375 7.528 7.539 7.528h189.043c4.164 0 7.539-3.37 7.539-7.528V99.513c0-4.157-3.375-7.528-7.539-7.528Z" fill="#022749"/><path d="M67.227 218.07H288.38v2.909c0 4.903-3.989 8.887-8.899 8.887H76.126c-4.91 0-8.9-3.984-8.9-8.887v-2.909Z" fill="#022749"/><path d="m157.146 216.81 2.743 4.355h38.619l2.545-4.355h-43.907Z" fill="#022749"/><path d="M277.577 216.81c0 .072-45.304.134-101.178.134-55.875 0-101.189-.057-101.189-.134 0-.078 45.293-.135 101.189-.135 55.895 0 101.178.057 101.178.135Z" fill="#022749"/><path d="M269.511 210.966H84.451l.202-109.768h184.858v109.768Z" fill="#FAFAFA"/><path d="M269.511 210.966c0-.842-.042-42.484-.104-109.769l.104.104c-49.826.01-114.46.021-184.858.031l.134-.135v.083c-.072 38.842-.145 75.933-.207 109.686l-.124-.124 185.055.124-185.055.124h-.124v-.124c.057-33.753.119-70.838.186-109.686V101.063h.135c70.398.011 135.037.021 184.858.031h.103v.103c-.062 67.29-.103 108.927-.103 109.769Z" fill="#022749"/><path d="M265.485 187.365c0 .073-39.333.135-87.845.135-48.511 0-87.855-.062-87.855-.135 0-.072 39.328-.134 87.855-.134 48.528 0 87.845.062 87.845.134ZM265.485 169.437c0 .073-39.333.135-87.845.135-48.511 0-87.855-.062-87.855-.135 0-.072 39.328-.134 87.855-.134 48.528 0 87.845.062 87.845.134ZM265.485 205.293c0 .073-39.333.135-87.845.135-48.511 0-87.855-.062-87.855-.135 0-.072 39.328-.134 87.855-.134 48.528 0 87.845.062 87.845.134ZM265.485 151.51c0 .072-39.333.134-87.845.134-48.511 0-87.855-.062-87.855-.134 0-.073 39.328-.135 87.855-.135 48.528 0 87.845.062 87.845.135ZM265.485 133.582c0 .072-39.333.134-87.845.134-48.511 0-87.855-.062-87.855-.134 0-.073 39.328-.135 87.855-.135 48.528 0 87.845.062 87.845.135ZM265.485 115.654c0 .072-39.333.134-87.845.134-48.511 0-87.855-.062-87.855-.134 0-.073 39.328-.135 87.855-.135 48.528 0 87.845.062 87.845.135Z" fill="#E0E0E0"/><path d="m181.573 189.665-.176-.099-42.66-23.74-33.222 22.919-.295-.429 33.486-23.094 42.763 23.792 67.506-73.531.383.346-67.785 73.836Z" fill="#022749"/><path d="M199.491 182.809c.289 8.344-6.245 15.344-14.601 15.634-8.357.294-15.367-6.236-15.657-14.58-.29-8.344 6.245-15.345 14.601-15.634 8.356-.295 15.367 6.236 15.657 14.58Z" fill="#15A9F3"/><path d="M183.834 168.229c-8.356.294-14.891 7.29-14.601 15.634 0 0 10.648.103 13.054-4.263 2.406-4.366 1.547-11.377 1.547-11.377v.006Z" fill="#fff" opacity=".1"/><path d="M195.615 182.7c.223 6.345-4.744 11.666-11.098 11.888-6.354.223-11.683-4.737-11.905-11.082-.223-6.344 4.744-11.666 11.098-11.888 6.354-.222 11.683 4.738 11.905 11.082Z" fill="#15A9F3"/><path d="M195.615 182.7c.223 6.345-4.744 11.666-11.098 11.888-6.354.223-11.683-4.737-11.905-11.082-.223-6.344 4.744-11.666 11.098-11.888 6.354-.222 11.683 4.738 11.905 11.082Z" fill="#022749" opacity=".2"/><path d="M195.957 183.17c.217 6.257-4.682 11.506-10.948 11.728-6.266.217-11.523-4.675-11.745-10.932-.218-6.257 4.682-11.506 10.948-11.728 6.266-.217 11.523 4.676 11.745 10.932Z" fill="#15A9F3"/><path d="M195.957 183.17c.217 6.257-4.682 11.506-10.948 11.728-6.266.217-11.523-4.675-11.745-10.932-.218-6.257 4.682-11.506 10.948-11.728 6.266-.217 11.523 4.676 11.745 10.932Z" fill="#fff" opacity=".2"/><path d="m185.029 182.566-.104-2.899h.016a5.987 5.987 0 0 1 1.557.346c.44.207.74.429.74.429l.036-.093.414-1.059.093-.243-.538-.527-.243.119c-.647-.294-1.376-.516-2.126-.532l-.057-1.596-.513-.383.016.398-.683.026.057 1.622c-2.235.295-3.255 1.607-3.203 3.074.073 1.995 1.801 2.454 3.41 2.785l.098 2.873c-1.097-.062-2.188-.439-2.913-.992l-.595 1.472c.771.62 2.153 1.033 3.565 1.07l.041 1.203-.558.031.574.362 1.18-.041-.057-1.607c2.25-.31 3.285-1.612 3.234-3.074-.073-1.994-1.827-2.439-3.436-2.769l-.005.005Zm-1.19-.259c-.844-.217-1.475-.511-1.496-1.198-.02-.631.394-1.163 1.408-1.359l.088 2.557Zm1.34 4.542-.088-2.542c.869.212 1.516.522 1.542 1.224.02.62-.409 1.121-1.454 1.318Z" fill="#15A9F3"/><path d="m185.029 182.566-.104-2.899h.016a5.987 5.987 0 0 1 1.557.346c.44.207.74.429.74.429l.036-.093.414-1.059.093-.243-.538-.527-.243.119c-.647-.294-1.376-.516-2.126-.532l-.057-1.596-.513-.383.016.398-.683.026.057 1.622c-2.235.295-3.255 1.607-3.203 3.074.073 1.995 1.801 2.454 3.41 2.785l.098 2.873c-1.097-.062-2.188-.439-2.913-.992l-.595 1.472c.771.62 2.153 1.033 3.565 1.07l.041 1.203-.558.031.574.362 1.18-.041-.057-1.607c2.25-.31 3.285-1.612 3.234-3.074-.073-1.994-1.827-2.439-3.436-2.769l-.005.005Zm-1.19-.259c-.844-.217-1.475-.511-1.496-1.198-.02-.631.394-1.163 1.408-1.359l.088 2.557Zm1.34 4.542-.088-2.542c.869.212 1.516.522 1.542 1.224.02.62-.409 1.121-1.454 1.318Z" fill="#022749" opacity=".3"/><path d="m184.729 188.037.057 1.607-1.18.041-.057-1.596c-1.412-.036-2.794-.45-3.565-1.07l.595-1.472c.725.548 1.816.93 2.913.992l-.098-2.873c-1.609-.33-3.342-.79-3.41-2.785-.051-1.467.968-2.779 3.203-3.074l-.057-1.622 1.18-.041.057 1.596c1.066.021 2.157.3 2.949.775l-.538 1.473a5.911 5.911 0 0 0-2.36-.693l.104 2.904c1.609.331 3.368.775 3.441 2.769.051 1.468-.983 2.769-3.234 3.074v-.005Zm-1.397-6.107-.088-2.557c-1.014.191-1.428.723-1.407 1.359.025.687.652.981 1.495 1.198Zm2.794 3.224c-.026-.702-.668-1.012-1.542-1.224l.088 2.542c1.045-.197 1.475-.698 1.454-1.318Z" fill="#15A9F3"/><path d="M181.009 182.049s-.166-.083-.347-.32a1.831 1.831 0 0 1-.362-1.075c0-.455.186-.847.362-1.075.181-.232.341-.33.347-.32.015.016-.125.129-.28.367a1.906 1.906 0 0 0-.315 1.028c0 .429.16.796.315 1.028.155.238.295.352.28.367ZM183.426 177.559c-.031 0-.062-.211-.073-.47-.01-.258.011-.475.042-.475.031 0 .062.212.072.47.01.258-.01.475-.041.475ZM184.74 171.287s-.135.005-.373 0c-.119-.005-.264-.01-.434-.005-.171 0-.362 0-.575.015-.212.011-.445.021-.693.052-.248.021-.512.067-.786.109a12.7 12.7 0 0 0-1.765.444c-.61.207-1.179.455-1.676.708-.248.134-.481.253-.693.387a8.734 8.734 0 0 0-.585.372c-.181.114-.326.233-.466.336-.139.098-.248.191-.341.264-.187.149-.29.227-.295.222-.005-.005.088-.098.264-.259.088-.082.196-.175.331-.279.134-.103.279-.227.455-.351.176-.124.368-.258.58-.387.212-.14.445-.264.693-.403a12.745 12.745 0 0 1 1.687-.724 11.868 11.868 0 0 1 1.785-.439c.279-.041.543-.083.797-.098.248-.026.486-.036.698-.041.212-.011.409 0 .574 0 .171 0 .316.015.435.025.238.021.367.037.367.047l.016.005Z" fill="#fff"/><path d="M212.386 196.59c4.017-.039 7.243-3.322 7.204-7.334-.038-4.012-3.326-7.232-7.344-7.194-4.017.039-7.243 3.322-7.204 7.334.038 4.011 3.326 7.232 7.344 7.194Z" fill="#15A9F3"/><path d="M212.048 182.08c-4.015.14-7.156 3.503-7.016 7.512 0 0 5.117.052 6.271-2.046 1.159-2.097.74-5.466.74-5.466h.005Z" fill="#fff" opacity=".1"/><path d="M217.707 189.034a5.518 5.518 0 0 1-5.329 5.709 5.52 5.52 0 1 1-.388-11.03c3.053-.109 5.614 2.278 5.717 5.321Z" fill="#15A9F3"/><path d="M217.707 189.034a5.518 5.518 0 0 1-5.329 5.709 5.52 5.52 0 1 1-.388-11.03c3.053-.109 5.614 2.278 5.717 5.321Z" fill="#022749" opacity=".2"/><path d="M217.874 189.256a5.45 5.45 0 0 1-5.262 5.632 5.45 5.45 0 0 1-5.64-5.254 5.45 5.45 0 0 1 5.262-5.632 5.451 5.451 0 0 1 5.64 5.254Z" fill="#15A9F3"/><path d="M217.874 189.256a5.45 5.45 0 0 1-5.262 5.632 5.45 5.45 0 0 1-5.64-5.254 5.45 5.45 0 0 1 5.262-5.632 5.451 5.451 0 0 1 5.64 5.254Z" fill="#fff" opacity=".2"/><path d="m212.621 188.967-.046-1.395h.005c.243.021.497.078.75.165.212.099.357.207.357.207l.016-.041.196-.512.047-.119-.259-.253-.119.057a2.722 2.722 0 0 0-1.019-.258l-.026-.765-.243-.186v.191l-.321.011.026.78c-1.076.139-1.563.775-1.542 1.477.031.961.864 1.178 1.64 1.339l.047 1.379c-.528-.031-1.051-.212-1.402-.475l-.285.708c.373.299 1.035.496 1.713.511l.02.579-.269.015.274.176.564-.021-.025-.775c1.081-.15 1.578-.775 1.552-1.477-.031-.961-.88-1.173-1.651-1.333v.015Zm-.569-.124c-.403-.103-.709-.243-.719-.573-.01-.305.186-.558.678-.651l.041 1.229v-.005Zm.642 2.18-.042-1.219c.419.103.73.253.74.589.011.295-.196.537-.698.63Z" fill="#15A9F3"/><path d="m212.621 188.967-.046-1.395h.005c.243.021.497.078.75.165.212.099.357.207.357.207l.016-.041.196-.512.047-.119-.259-.253-.119.057a2.722 2.722 0 0 0-1.019-.258l-.026-.765-.243-.186v.191l-.321.011.026.78c-1.076.139-1.563.775-1.542 1.477.031.961.864 1.178 1.64 1.339l.047 1.379c-.528-.031-1.051-.212-1.402-.475l-.285.708c.373.299 1.035.496 1.713.511l.02.579-.269.015.274.176.564-.021-.025-.775c1.081-.15 1.578-.775 1.552-1.477-.031-.961-.88-1.173-1.651-1.333v.015Zm-.569-.124c-.403-.103-.709-.243-.719-.573-.01-.305.186-.558.678-.651l.041 1.229v-.005Zm.642 2.18-.042-1.219c.419.103.73.253.74.589.011.295-.196.537-.698.63Z" fill="#022749" opacity=".3"/><path d="m212.482 191.597.026.775-.569.021-.026-.765c-.678-.016-1.345-.217-1.713-.512l.285-.707c.346.263.874.444 1.402.475l-.047-1.38c-.776-.16-1.604-.377-1.64-1.338-.026-.702.466-1.338 1.542-1.477l-.026-.78.569-.021.026.764c.512.011 1.035.145 1.418.372l-.259.708a2.908 2.908 0 0 0-1.133-.336l.047 1.395c.776.161 1.619.372 1.65 1.333.026.703-.471 1.328-1.552 1.478v-.005Zm-.673-2.935-.041-1.229c-.486.093-.688.346-.678.651.01.33.316.47.719.573v.005Zm1.34 1.55c-.01-.336-.32-.485-.74-.589l.042 1.22c.502-.093.709-.336.698-.631Z" fill="#15A9F3"/><path d="M210.692 188.719s-.078-.041-.165-.155a.85.85 0 0 1 0-1.033.492.492 0 0 1 .165-.155c.005.005-.062.062-.134.176a.93.93 0 0 0-.15.495c0 .207.077.383.15.496.072.114.139.171.134.176ZM211.851 186.565s-.031-.098-.037-.228c0-.124 0-.227.021-.227.016 0 .031.098.036.227 0 .124 0 .228-.02.228ZM212.487 183.547h-.383c-.083 0-.171 0-.274.006-.104 0-.212.01-.331.025-.119.011-.243.031-.378.052a6.035 6.035 0 0 0-.848.212 5.858 5.858 0 0 0-1.139.527 5.501 5.501 0 0 0-.279.181c-.088.057-.155.113-.223.16-.067.046-.119.093-.165.129-.088.072-.14.109-.14.109s.042-.047.129-.124c.042-.042.094-.088.161-.135.062-.051.134-.108.217-.165.083-.062.176-.124.28-.186.098-.067.217-.129.331-.191.243-.124.512-.248.812-.346.3-.099.59-.166.859-.212.134-.021.264-.042.383-.047.119-.01.233-.015.336-.02.104-.006.197 0 .274 0 .083 0 .15.005.207.01.114.01.176.015.176.021l-.005-.006Z" fill="#fff"/><path d="M105.37 194.692a5.889 5.889 0 0 0 5.893-5.885 5.889 5.889 0 0 0-5.893-5.885 5.89 5.89 0 0 0-5.893 5.885 5.89 5.89 0 0 0 5.893 5.885ZM138.737 171.153a5.889 5.889 0 0 0 5.893-5.885 5.889 5.889 0 0 0-5.893-5.885 5.889 5.889 0 0 0-5.893 5.885 5.889 5.889 0 0 0 5.893 5.885ZM248.246 121.538a5.888 5.888 0 0 0 5.893-5.884 5.889 5.889 0 0 0-5.893-5.885 5.889 5.889 0 0 0-5.893 5.885 5.888 5.888 0 0 0 5.893 5.884Z" fill="#15A9F3"/><path d="M172.637 52.518a21.66 21.66 0 0 1 5.324-2.31l1.097-5.259 8.899-.155 1.283 5.218a21.836 21.836 0 0 1 5.402 2.124l4.502-2.945 6.405 6.174-2.789 4.593a21.614 21.614 0 0 1 2.313 5.316l5.267 1.096.155 8.886-5.225 1.281a21.876 21.876 0 0 1-2.127 5.394l2.949 4.495-6.183 6.397-4.599-2.785a21.657 21.657 0 0 1-5.324 2.31l-1.097 5.259-8.9.155-1.283-5.219a21.92 21.92 0 0 1-5.402-2.123l-4.501 2.945-6.405-6.174 2.788-4.593a21.57 21.57 0 0 1-2.312-5.317l-5.268-1.095-.155-8.886 5.226-1.282a21.835 21.835 0 0 1 2.126-5.394l-2.949-4.495 6.183-6.396 4.6 2.785Zm4.745 11.842a9.523 9.523 0 0 0 .238 13.485c3.792 3.657 9.841 3.554 13.504-.238 3.663-3.787 3.56-9.827-.238-13.485-3.793-3.658-9.841-3.55-13.504.238ZM203.878 17.375a12.622 12.622 0 0 1 3.11-1.348l.641-3.074 5.2-.093.75 3.048c1.092.269 2.153.682 3.157 1.24l2.628-1.72 3.741 3.606-1.63 2.681a12.58 12.58 0 0 1 1.35 3.105l3.079.64.093 5.193-3.053.75a12.758 12.758 0 0 1-1.241 3.151l1.723 2.625-3.612 3.735-2.685-1.628a12.619 12.619 0 0 1-3.11 1.349l-.641 3.074-5.2.093-.751-3.048a12.782 12.782 0 0 1-3.156-1.24l-2.628 1.72-3.741-3.606 1.63-2.681a12.622 12.622 0 0 1-1.351-3.106l-3.078-.64-.093-5.192 3.052-.75c.269-1.09.683-2.149 1.242-3.151l-1.723-2.625 3.612-3.735 2.685 1.627Zm2.773 6.918a5.556 5.556 0 0 0 .14 7.874 5.576 5.576 0 0 0 7.885-.14 5.557 5.557 0 0 0-.139-7.873 5.577 5.577 0 0 0-7.886.14Z" fill="#E0E0E0"/><path d="M182.498 23.25c1.821-.424 3.327-1.974 3.689-4.036.471-2.702-1.205-5.249-3.741-5.688-2.535-.44-4.972 1.39-5.443 4.092-.362 2.082.554 4.06 2.153 5.063-7.254-.129-8.232 7.6-8.232 7.6l16.712 2.904s1.697-7.693-5.133-9.936h-.005Z" fill="#022749"/><path d="M239.423 38.284c1.159-1.162 1.563-3.012.875-4.717-.906-2.232-3.338-3.353-5.433-2.506-2.096.848-3.058 3.343-2.152 5.57.698 1.72 2.302 2.77 3.958 2.774-5.469 3.266-2.603 9.476-2.603 9.476l13.804-5.58s-2.312-6.52-8.444-5.027l-.005.01Z" fill="#15A9F3"/><path d="m235.169 59.403-4.504-1.029-2.031 8.87 4.504 1.028 2.031-8.87ZM227.79 61.373l-4.504-1.028-1.234 5.39 4.504 1.028 1.234-5.39ZM242.676 56.314l-4.504-1.028-3.076 13.433 4.504 1.028 3.076-13.433Z" fill="#022749"/><path d="m136.543 75.597 32.721 52.348 7.3 29.026h11.311v-80.5l-51.332-.874Z" fill="#15A9F3"/><path d="M180.176 76.47v80.501h11.31l7.296-29.026 32.725-52.348-51.331.873Z" fill="#15A9F3"/><path d="M230.322 81.658h-92.393a5.197 5.197 0 0 1-5.2-5.193 5.197 5.197 0 0 1 5.2-5.192h92.393c2.872 0 5.2 2.325 5.2 5.192a5.196 5.196 0 0 1-5.2 5.193Z" fill="#15A9F3"/><path d="M231.507 81.844c0 .072-20.986.134-46.871.134-25.886 0-46.877-.062-46.877-.134 0-.073 20.981-.135 46.877-.135s46.871.062 46.871.135Z" fill="#022749"/><path d="m147.036 83.182 29.616 44.2 3.746 29.589h2.158l.403-29.786-18.761-44.003h-17.162Z" fill="#fff" opacity=".2"/><path d="M193.219 127.945c0 .072-5.246.134-11.714.134-6.467 0-11.719-.062-11.719-.134 0-.073 5.247-.135 11.719-.135 6.473 0 11.714.062 11.714.135Z" fill="#022749"/><path d="M84.88 89.934c-.155.13-1.511 1.938-1.9 3.013-.392 1.074-.211 2.79-.2 3.797.015 1.002.527 1.214.992 1.178.466-.036.249-2.201.249-2.201s1.03 5.947 2.033 5.678c1.004-.264.781-.171.781-.171s.052 1.411.963 1.24c.91-.17.58-1.136.58-1.136s.946.392 1.215-.584c.27-.977.156-4.138.156-4.138l1.733-1.602-.274-3.896s-1.48-.03-1.5-1.503c-.022-1.473 1.753-8.716 1.753-8.716l.993-4.733-6.684-1.58-.89 15.354ZM134.805 129.061c-.212.46-5.547 13.428-5.547 13.428l-6.115-1.902 3.218-14.089 8.444 2.568v-.005Z" fill="#FFBF9D"/><path d="M123.68 137.513s3.798 4.971 7.089 2.713l.165 1.643-.45 11.185c-.031.724-.574 1.364-1.298 1.416a1.396 1.396 0 0 1-1.335-.713c-1.413-2.526-6.556-11.852-6.183-12.782l.817-2.527a1.354 1.354 0 0 1 1.19-.93l.005-.005Z" fill="#022749"/><path d="m128.922 154.465-6.985-14.374-.171.553c-.238.584-.051.904.114 1.375.492 1.4 2.039 4.675 5.93 11.723.227.408.646.681 1.112.718v.005ZM123.985 138.919c.259.325.213.857-.103 1.126-.316.274-.854.232-1.118-.093-.263-.32-.227-.961.114-1.194.347-.232.973-.149 1.154.228" fill="#fff" opacity=".6"/><path d="M127.685 147.831c.062.057.569-.537 1.459-.667.89-.155 1.558.248 1.599.176.021-.031-.114-.181-.409-.32-.289-.14-.745-.233-1.236-.155-.492.077-.895.31-1.128.532-.238.222-.316.408-.285.429v.005ZM128.083 149.867c.047.077.595-.223 1.335-.207.74 0 1.283.305 1.33.227.057-.057-.487-.527-1.33-.527-.838-.01-1.392.45-1.335.507ZM126.64 145.051c.041.083.89-.377 2.039-.459 1.148-.099 2.054.227 2.08.144.041-.062-.875-.542-2.106-.444-1.232.088-2.065.703-2.013.759ZM127.39 141.838c.01.088.828.01 1.78.263.957.243 1.63.708 1.681.636.057-.052-.579-.667-1.604-.93-1.024-.274-1.878-.047-1.857.026v.005Z" fill="#022749"/><path d="M129.713 142.241s.067-.176.078-.512c.01-.33-.031-.826-.254-1.395-.119-.268-.233-.615-.59-.837a.566.566 0 0 0-.646.052c-.181.155-.259.372-.29.589-.088.863.559 1.788 1.516 2.025a2.301 2.301 0 0 0 2.385-.93c.109-.181.192-.413.114-.656-.078-.243-.342-.367-.543-.356-.409.01-.694.217-.952.361a4.093 4.093 0 0 0-1.056.946c-.202.263-.279.434-.264.444.042.041.425-.625 1.428-1.209.254-.129.544-.3.839-.294.144 0 .258.072.294.191.042.113-.01.284-.098.423-.398.574-1.268.982-2.08.786-.807-.191-1.371-1.003-1.309-1.7.016-.165.083-.331.181-.419a.305.305 0 0 1 .357-.031c.254.14.399.445.512.698.456 1.064.306 1.829.368 1.824h.01Z" fill="#022749"/><path d="M129.806 127.671c.14.486 4.621 13.769 4.621 13.769l-5.868 2.568-6.814-12.751 8.066-3.591-.005.005Z" fill="#FFBF9D"/><path d="M126.95 141.342s6.126 1.271 7.135-2.589l1.201 1.132 7 8.742c.456.568.461 1.405-.052 1.916a1.412 1.412 0 0 1-1.474.336c-2.727-.987-12.728-4.665-13.059-5.611l-1.04-2.443a1.339 1.339 0 0 1 .289-1.483Z" fill="#022749"/><path d="m142.038 150.709-14.71-6.288.233.532c.202.599.554.713.988.966 1.289.739 4.61 2.201 12.175 4.976.44.16.936.093 1.314-.186ZM128.104 142.199c.409.078.725.507.663.92-.063.413-.497.734-.906.661-.409-.072-.802-.573-.693-.976.108-.403.636-.754 1.019-.584" fill="#fff" opacity=".6"/><path d="M136.75 146.508c.087 0 .077-.775.667-1.457.569-.697 1.34-.826 1.319-.914 0-.036-.207-.062-.517.026-.31.088-.714.315-1.035.692a2.176 2.176 0 0 0-.502 1.142c-.031.32.031.516.068.511ZM138.385 147.79c.083.025.305-.558.869-1.029.554-.485 1.169-.609 1.154-.697.01-.078-.714-.078-1.35.47-.642.543-.756 1.25-.678 1.256h.005ZM134.138 145.093c.082.031.424-.868 1.236-1.68.802-.821 1.702-1.167 1.666-1.255-.01-.077-1.019.16-1.883 1.044-.875.873-1.102 1.88-1.025 1.891h.006ZM132.59 142.179c.067.062.631-.532 1.516-.966.88-.445 1.697-.533 1.687-.62.005-.078-.875-.124-1.822.351-.952.465-1.448 1.193-1.381 1.235Z" fill="#022749"/><path d="M134.614 140.959s-.063-.18-.275-.439a3.584 3.584 0 0 0-1.102-.888c-.264-.13-.579-.31-.993-.243a.566.566 0 0 0-.455.46c-.037.237.051.449.17.63.502.708 1.594.987 2.473.537a2.289 2.289 0 0 0 1.19-2.263c-.041-.206-.124-.439-.341-.568-.217-.134-.502-.057-.642.083-.3.279-.382.614-.481.893a4.162 4.162 0 0 0-.176 1.406c.021.336.078.511.093.511.063 0-.093-.749.285-1.844.103-.264.212-.584.44-.77.108-.093.243-.114.352-.047.103.062.181.223.201.388.073.692-.31 1.571-1.055 1.953-.735.382-1.697.139-2.106-.429-.098-.139-.155-.305-.134-.434.015-.129.113-.227.248-.258.279-.062.59.077.848.191 1.046.506 1.434 1.183 1.475 1.137l-.015-.006ZM95.218 93.587c.238 0 14.798 10.829 15.615 11.935.812 1.106 1.49 8.985 4.155 16.28 2.664 7.295 10.881 17.69 10.881 17.69l7.306-2.423s-6.929-30.824-8.522-35.82c-1.594-4.996-5.867-13.304-5.867-13.304l-3.177-4.257-.652-7.171-20.05.227c-.238 0-3.621 6.33-2.685 12.157.47 2.955 2.996 4.686 2.996 4.686Z" fill="#022749"/><path d="M140.206 89.857c-1.842-5.632-13.53-13.165-13.53-13.165l-1.961-.392-11.755.175s.466 5.415.471 5.653c0 .237 5.784 12.983 5.784 12.983l7.415 4.831 1.298 1.416s-1.666 5.977-2.074 10.632c-.409 4.656.279 18.647.279 18.647l8.082 1.234s6.064-21.374 6.731-24.887c.668-3.518 1.102-11.496-.734-17.127h-.006Z" fill="#022749"/><path d="M108.645 79.322s.175.005.486.078c.305.072.745.196 1.273.403.264.103.548.222.848.367.295.134.626.315.926.537.306.217.611.45.947.666.166.104.337.212.518.29.088.036.181.067.264.077a.31.31 0 0 0 .217-.051c.315-.212.564-.569.843-.868.3-.305.626-.507.916-.75a10.77 10.77 0 0 1 1.651-1.1c.496-.274.91-.46 1.2-.579.29-.119.46-.165.466-.15.015.042-.621.316-1.573.894-.476.295-1.035.651-1.594 1.132-.274.237-.61.46-.874.733-.269.29-.497.641-.895.915a.57.57 0 0 1-.389.088 1.345 1.345 0 0 1-.336-.099 4.007 4.007 0 0 1-.553-.315c-.342-.227-.652-.47-.947-.687a4.692 4.692 0 0 0-.88-.537c-.29-.15-.569-.28-.823-.388-1.024-.439-1.697-.614-1.686-.656h-.005Z" fill="#022749"/><path d="M133.174 137.064s-.02-.047-.046-.145c-.031-.114-.067-.253-.114-.434-.098-.398-.238-.956-.419-1.663-.357-1.468-.869-3.555-1.501-6.128-1.272-5.172-3.006-12.327-5.055-20.196-1.04-3.927-2.023-7.683-3.13-11.015-.538-1.659-1.449-3.09-2.199-4.459a227.35 227.35 0 0 0-2.188-3.766c-1.366-2.274-2.468-4.118-3.25-5.41-.377-.625-.672-1.116-.885-1.472-.093-.16-.165-.285-.227-.388-.052-.088-.073-.134-.067-.134 0 0 .036.036.093.124.062.098.145.217.248.372.223.346.533.832.926 1.447.797 1.26 1.94 3.09 3.322 5.368a213.363 213.363 0 0 1 2.22 3.75c.393.682.786 1.385 1.19 2.124.408.728.76 1.53 1.05 2.366 1.128 3.348 2.116 7.099 3.156 11.031 2.049 7.869 3.756 15.029 4.983 20.217.595 2.583 1.076 4.681 1.417 6.148l.368 1.674c.036.181.067.325.088.439.02.098.026.15.02.15Z" fill="#022749"/><path d="m146.357 46.034-4.351 3.28 3.855 4.573 3.952-4.159-3.456-3.694Z" fill="#FFBF9D"/><path d="M148.712 50.276c1.241-.44 1.805-.796 2.716-.884.978-.098 1.977-.258 2.83-.749.854-.49 1.532-1.39 1.496-2.366-.026-.692-.399-1.333-.89-1.824-.492-.49-1.097-.847-1.697-1.199l-2.675-.139-4.119 4.118 2.339 3.043Z" fill="#FFBF9D"/><path d="M154.305 34.074a8.32 8.32 0 0 1 1.986-.863l.409-1.964 3.327-.056.481 1.947c.699.17 1.376.434 2.018.79l1.682-1.1 2.39 2.31-1.04 1.715c.378.63.668 1.297.864 1.984l1.966.408.057 3.322-1.95.48a8.095 8.095 0 0 1-.792 2.016l1.102 1.679-2.313 2.392-1.718-1.038a8.328 8.328 0 0 1-1.986.862l-.409 1.964-3.327.056-.481-1.947a8.093 8.093 0 0 1-2.018-.79l-1.682 1.1-2.39-2.31 1.04-1.715a8.27 8.27 0 0 1-.864-1.984l-1.966-.408-.057-3.322 1.95-.48a8.093 8.093 0 0 1 .792-2.016l-1.102-1.679 2.313-2.392 1.718 1.039Zm1.774 4.422a3.556 3.556 0 0 0 .088 5.037 3.57 3.57 0 0 0 5.045-.087 3.556 3.556 0 0 0-.088-5.038 3.57 3.57 0 0 0-5.045.088Z" fill="#EBEBEB"/><path d="M150.719 41.188c-1.542.78-3.844 3.787-4.967 5.337l1.676 1.917a4.6 4.6 0 0 0 3.565-1.235c.937-.894 1.47-2.635 1.402-3.932 3.307.052 4.393-1.286 4.14-2.247-1.728-.057-5.371-.062-5.811.16h-.005Z" fill="#FFBF9D"/><path d="M152.199 43.306s.191.377.124 1.039c-.057.65-.404 1.55-1.123 2.263-.719.707-1.568 1.08-2.178 1.276-.616.196-1.014.237-1.025.206-.01-.041.373-.15.957-.387.58-.238 1.377-.625 2.055-1.292.672-.666 1.024-1.488 1.122-2.097.109-.615.016-1.008.062-1.013l.006.005Z" fill="#FF9A6C"/><path d="m141.39 48.555-6.897 4.258s-2.416-4.831-4.838-11.176c-2.654-6.944-6.002-6.897-6.002-6.897l-1.614 15.494 2.339 5.952s3.513 6.428 5.282 7.197c6.225 2.702 16.826-8.762 16.826-8.762l-5.091-6.07-.005.004Z" fill="#15A9F3"/><path d="M128.072 50.989c.637-4.025.782-10.592-1.428-14.126-.471-.754-2.292-2.154-3.13-2.454-2.204-.79-7.228-1.994-7.435-2.195-.248-.243-8.874.015-11.533.103-.342.01-.222.036-.222.036l-6.39 2.63a2.603 2.603 0 0 0-1.5 2.676l1.893 15.37s.704 5.384.791 6.764c.088 1.38-.78 3.4-.78 3.4-.689 1.704-2.536 7.03-3.762 10.59-.575 1.67.652 3.406 2.416 3.431l28.633-.599c1.454.02 2.127-.041 1.801-1.457-.73-3.141-2.023-3.55-2.272-5.87-.321-2.97.652-11.763.719-11.97.068-.207 1.366-1.127 2.189-6.324l.01-.005Z" fill="#15A9F3"/><path d="M97.442 35.282s-6.059 2.429-7.099 11.574c-1.04 9.144-3.337 17.473-3.756 21.839-.42 4.36-.813 5.89-.813 5.89l6.882 1.627 4.222-14.1 1.573-8.189 1.185-6.582-2.184-12.053-.01-.005Z" fill="#15A9F3"/><path d="M123.783 40.883s.197.18.492.558c.3.377.698.945 1.133 1.69.864 1.477 1.79 3.73 2.069 6.354.28 2.625-.144 5.022-.677 6.65a14.464 14.464 0 0 1-.751 1.89c-.212.43-.346.657-.362.652-.02-.01.088-.254.269-.693.181-.439.425-1.085.663-1.901.481-1.622.869-3.983.595-6.561a17.2 17.2 0 0 0-1.967-6.288 18.63 18.63 0 0 0-1.05-1.72c-.269-.393-.424-.61-.409-.62l-.005-.011ZM96.138 45.14c.073-.015.745 2.454 1.5 5.518.756 3.07 1.31 5.565 1.237 5.585-.072.016-.745-2.454-1.5-5.518-.756-3.063-1.31-5.564-1.237-5.585ZM123.467 72.26s-.3.082-.854.18c-.553.104-1.355.228-2.354.362a80.255 80.255 0 0 1-15.682.532 55.792 55.792 0 0 1-2.37-.201c-.559-.062-.864-.104-.864-.124 0-.02.31-.01.874.02.606.031 1.408.068 2.375.12 2.002.087 4.776.144 7.839.04 3.058-.103 5.821-.346 7.813-.568.962-.113 1.759-.206 2.359-.279.559-.067.869-.098.869-.077l-.005-.005ZM118.573 6.319c2.395.051 4.45 3.611 4.093 5.61-.176.972-.616 2.088.17 2.811.782.713 2.422.656 3.162 1.39 0 0 .952.946.848 2.175-.103 1.23.093 2.862 1.071 3.296l-4.863 1.736c-.502-.506-.704-1.307-1.206-1.813.574.532 1.128 2.428-1.475 2.64l-1.619-1.426c-4.424 1.131-9.075 2.542-12.614.62" fill="#022749"/><path d="M96.03 16.946c.32-.92.843-1.767 1.065-2.717.476-2.036-.476-4.36.554-6.185.735-1.296 2.25-1.911 3.684-2.32 1.433-.413 2.804-.656 3.886-1.679.791-.749 1.257-1.798 2.049-2.552C108.395.418 110.036.077 111.593.01c1.599-.067 3.249.12 4.672.848 1.423.733 2.592 2.077 2.82 3.658.109.77 0 1.575.228 2.32.253.82.879 1.467 1.262 2.231.802 1.623.311 3.782-1.117 4.893L108.22 27.9c-2.324.826-4.843-2.119-6.592-3.855-1.749-1.73-6.406-4.79-5.593-7.109l-.005.01Z" fill="#022749"/><path d="M119.194 12.167c-.393-3.219-2.763-7.062-5.971-6.535l-9.924 3.12c-.973.16-1.495.935-1.826.79l2.292 23.044 7.424 4.82 4.233-5.069s-.316-3.161-.311-3.146c0 0 4.098-.925 4.642-6.36.269-2.702-.119-7.088-.554-10.669l-.005.005Z" fill="#FFBF9D"/><path d="M111.2 17.51c.036.361-.249.692-.626.733a.667.667 0 0 1-.751-.584c-.036-.361.249-.692.626-.733.383-.042.714.217.751.584ZM118.035 16.605c.036.362-.249.693-.626.734a.667.667 0 0 1-.751-.584c-.036-.361.249-.692.626-.733.383-.042.714.216.751.583ZM118.557 14.627c-.078.123-.714-.295-1.521-.192-.807.088-1.335.641-1.438.538-.052-.047.015-.264.243-.512a1.862 1.862 0 0 1 1.133-.573c.502-.057.957.103 1.231.294.28.191.393.388.352.444ZM111.174 15.298c-.099.114-.72-.356-1.589-.336-.864.005-1.49.496-1.588.388-.047-.052.046-.253.321-.476.269-.222.724-.439 1.267-.449.538-.01.999.196 1.268.408.274.212.367.413.321.465ZM114.081 20.423c-.005-.04.451-.15 1.196-.289.191-.03.367-.077.393-.212.036-.14-.057-.34-.161-.558l-.646-1.415c-.901-2.015-1.563-3.674-1.48-3.71.083-.036.88 1.566 1.775 3.58l.621 1.421c.082.212.222.45.139.74a.463.463 0 0 1-.295.294c-.119.046-.227.051-.32.062-.751.082-1.222.113-1.227.072l.005.015Z" fill="#022749"/><path d="M115.106 29.196s-3.616.445-7.336-1.508c0 0 2.043 3.838 7.414 3.022l-.078-1.519v.005Z" fill="#FF9A6C"/><path d="M113.875 22.237a1.354 1.354 0 0 0-1.232-.429c-.321.052-.636.227-.817.501-.181.274-.202.651-.011.889.218.268.642.31.989.191.352-.119.641-.372.921-.62a.787.787 0 0 0 .201-.232c.047-.093.052-.207-.015-.28" fill="#15A9F3"/><path d="M111.925 21.064c.119-.015.17.79.895 1.328.724.537 1.578.393 1.593.506.016.052-.181.17-.543.197a2.015 2.015 0 0 1-1.324-.378c-.44-.325-.652-.785-.699-1.116-.052-.335.026-.542.083-.537h-.005ZM111.154 12.772c-.062.206-.813.155-1.677.31-.869.14-1.562.434-1.686.258-.057-.083.057-.279.331-.49.269-.213.709-.424 1.231-.512a2.86 2.86 0 0 1 1.33.077c.326.109.497.259.471.357ZM118.33 11.945c-.14.176-.735.036-1.444.067-.703.01-1.293.186-1.443.02-.068-.082.02-.257.269-.433.248-.176.672-.33 1.154-.346.486-.016.915.114 1.169.274.259.16.352.33.29.413l.005.005Z" fill="#022749"/><path d="M92.837 15.908c.512-.94-.47-1.99.31-2.857.715-.79 2.593-.817 3.265-1.623.523-.63.549-.795.564-1.384.021-.739.363-3.85 4.905-4.474l.626 2.826a9.59 9.59 0 0 1 .87-.352 49.492 49.492 0 0 1 11.476-2.686c.471.81 0 1.89-.745 2.459-.745.568-1.692.78-2.577 1.09-.885.31-1.795.801-2.173 1.659-.404.909-.098 2.004-.455 2.934-.611 1.602-2.877 2.077-3.477 3.684-.456 1.214.227 2.526.383 3.813a4.735 4.735 0 0 1-1.48 3.978c-.854.78-2.313 2.201-2.411 1.917l-12.154-7.61c-.699-1.705 2.37-2.077 3.073-3.364v-.01Z" fill="#022749"/><path d="M102.357 26.267s.399-.052 1.046-.357a5.252 5.252 0 0 0 2.209-2.02 5.26 5.26 0 0 0 .683-1.974 5.369 5.369 0 0 0-.217-2.381c-.125-.403-.28-.806-.378-1.225-.098-.418-.14-.862-.036-1.291.093-.43.377-.801.765-1.034.388-.242.849-.377 1.304-.558.45-.17.916-.397 1.232-.79.31-.393.434-.884.46-1.344.073-.92-.083-1.818.228-2.583l.057-.14.077-.128c.047-.088.109-.166.171-.238a1.9 1.9 0 0 1 .445-.372c.326-.202.693-.33 1.045-.434.709-.207 1.408-.372 1.956-.723a4.245 4.245 0 0 0 1.806-2.367c.108-.34.129-.62.15-.806a2.046 2.046 0 0 0 0-.284c-.026 0 0 .398-.212 1.075a4.224 4.224 0 0 1-1.801 2.278c-.533.331-1.211.486-1.935.693a4.428 4.428 0 0 0-1.087.444 2.372 2.372 0 0 0-.481.398 1.854 1.854 0 0 0-.186.258l-.083.14-.062.15c-.336.82-.171 1.74-.248 2.63-.031.443-.15.893-.43 1.25-.279.35-.714.568-1.159.733-.445.176-.915.31-1.329.569-.207.129-.399.289-.544.485a1.844 1.844 0 0 0-.3.656c-.108.465-.062.935.042 1.37.103.433.258.836.388 1.234a5.216 5.216 0 0 1-.414 4.242 5.286 5.286 0 0 1-2.132 2.02 5.397 5.397 0 0 1-.745.32c-.176.057-.269.088-.269.099l-.016.005ZM118.035 6.587s.285-.093.823-.144a3.896 3.896 0 0 1 2.183.434 3.833 3.833 0 0 1 1.93 2.583c.129.615.129 1.281.072 1.968-.025.347-.062.693-.098 1.054-.031.362-.041.734.042 1.111.077.372.294.744.646.925.347.186.73.191 1.077.196.351 0 .682 0 .993.083.31.088.6.227.843.418.497.373.818.91.916 1.452.104.548.042 1.075-.015 1.55-.062.476-.125.915-.125 1.302 0 .388.042.724.119.987.078.264.182.455.264.568.037.062.078.104.099.13.025.025.036.04.041.04.021-.01-.202-.232-.336-.753a3.478 3.478 0 0 1-.088-.967c.01-.382.083-.806.15-1.286.062-.475.134-1.018.031-1.591a2.532 2.532 0 0 0-.963-1.555 2.625 2.625 0 0 0-.9-.45c-.336-.093-.693-.093-1.04-.093-.341 0-.698-.015-.993-.176-.3-.155-.487-.465-.559-.81-.145-.698.026-1.422.057-2.114.052-.692.052-1.38-.088-2.015a3.951 3.951 0 0 0-2.028-2.66 3.889 3.889 0 0 0-2.251-.393 3.285 3.285 0 0 0-.611.134c-.134.047-.207.078-.201.083l.01-.01Z" fill="#022749"/><path d="M95.456 22.686s-.01-.03-.032-.082c-.02-.057-.056-.135-.082-.243a2.225 2.225 0 0 1-.042-.982c.073-.418.285-.93.735-1.348.222-.207.507-.372.843-.465.332-.093.704-.124 1.076-.253.187-.062.373-.16.523-.305.155-.14.27-.326.352-.527.16-.403.181-.863.16-1.318-.026-.454-.083-.925-.015-1.4.036-.232.103-.47.227-.677.135-.196.295-.392.513-.516.424-.274.941-.393 1.459-.522.517-.13 1.071-.253 1.547-.574.238-.155.445-.377.59-.625.145-.253.227-.537.284-.821.109-.574.109-1.163.218-1.736.206-1.152 1.071-2.103 2.1-2.485.512-.202 1.066-.212 1.599-.264.269-.026.538-.062.792-.15.253-.082.496-.211.683-.403.377-.382.512-.899.677-1.343.156-.46.399-.858.699-1.193a3.553 3.553 0 0 1 2.183-1.116 3.236 3.236 0 0 1 1.987.428 3.7 3.7 0 0 1 1.144 1.06c.243.356.372.671.439.888.042.109.052.191.073.248a.678.678 0 0 0 .026.083s-.016-.119-.078-.341a3.186 3.186 0 0 0-.424-.904 3.684 3.684 0 0 0-1.144-1.085 3.272 3.272 0 0 0-2.028-.455 3.591 3.591 0 0 0-2.24 1.132c-.311.34-.564.76-.725 1.219-.165.45-.3.95-.657 1.307-.352.362-.89.47-1.417.517-.528.051-1.092.062-1.63.268-1.061.393-1.951 1.37-2.168 2.563-.109.589-.114 1.178-.217 1.736a2.603 2.603 0 0 1-.275.79 1.725 1.725 0 0 1-.553.59c-.926.599-2.106.526-3.001 1.095-.228.134-.399.34-.543.553-.135.222-.208.47-.239.713-.067.49-.005.966.021 1.415.026.45 0 .894-.145 1.281a1.38 1.38 0 0 1-.326.502 1.38 1.38 0 0 1-.496.289c-.362.13-.735.16-1.071.258a2.14 2.14 0 0 0-.864.486 2.435 2.435 0 0 0-.735 1.385c-.073.434-.01.775.062.992.031.113.072.19.093.242.026.052.036.078.041.078v.015ZM110.626 52.73v9.189l2.858-10.33" fill="#022749"/><path d="m121.929 48-10.455.135a.054.054 0 0 0-.027.006.079.079 0 0 0-.023.02l-.781.903a.013.013 0 0 0-.005.01.024.024 0 0 0 0 .012.016.016 0 0 0 .006.01l.009.002 6.163-.126a.033.033 0 0 1 .03.01c.008.008.014.02.015.034a.065.065 0 0 1-.007.04.04.04 0 0 1-.025.02l-8.048 2.147a.014.014 0 0 0-.007.005l-2.755 3.19a.105.105 0 0 0-.019.054.12.12 0 0 0 .011.057.072.072 0 0 0 .036.035.048.048 0 0 0 .043-.003l15.864-6.393a.068.068 0 0 0 .037-.038c.008-.019.011-.04.008-.061a.09.09 0 0 0-.025-.053.053.053 0 0 0-.045-.015Z" fill="#022749"/><path d="M110.64 49.083v1.644l6.814-1.821-6.814.177Z" fill="#022749"/></g><defs><clipPath id="a"><path fill="#fff" d="M0 0h352v230H0z"/></clipPath></defs></svg>