<svg width="272" height="260" fill="none" xmlns="http://www.w3.org/2000/svg"><g clip-path="url(#a)"><path d="m15.508 111.608 19.014 6.744-4.799 2.786-13.285 7.604-4.276 2.457 3.346-19.591Z" fill="#EBEBEB"/><path d="m98.297 216.148 11.844-5.378-25.776-44-11.621 10.349-20.437-35.895-11.245 7.628-18.296-33.033-6.722 2.839 22.342 44.548 12.68-11.003 19.26 40.06 11.504-12.499 16.467 36.384Z" fill="#EBEBEB"/><path d="M269.024 165.768c-1.347 8.983-9.722 15.162-18.708 13.813-8.986-1.355-15.179-9.725-13.832-18.707 1.347-8.977 9.721-15.162 18.707-13.813 8.987 1.355 15.18 9.725 13.833 18.707Z" fill="#F5F5F5"/><path d="M265.154 165.185c-1.029 6.845-7.41 11.557-14.256 10.526-6.845-1.031-11.568-7.416-10.538-14.254 1.029-6.845 7.41-11.557 14.255-10.526 6.846 1.031 11.568 7.416 10.539 14.254Z" fill="#EBEBEB"/><path d="M265.207 164.797c-.076-.006-.047-.56-.105-1.544a13.574 13.574 0 0 0-.859-4.023 12.469 12.469 0 0 0-3.441-4.918 12.184 12.184 0 0 0-2.975-1.932 12.39 12.39 0 0 0-1.765-.648c-.611-.171-1.246-.3-1.899-.377-.653-.071-1.3-.094-1.935-.076-.635.023-1.259.106-1.864.217a11.53 11.53 0 0 0-1.753.483c-.559.195-1.094.436-1.594.701a12.324 12.324 0 0 0-2.634 1.856 12.886 12.886 0 0 0-1.853 2.132 13.275 13.275 0 0 0-1.77 3.711c-.283.942-.383 1.484-.459 1.478-.059 0-.082-.565.094-1.566.182-.99.6-2.433 1.565-3.994a12.6 12.6 0 0 1 1.87-2.338 12.87 12.87 0 0 1 4.463-2.84c.6-.223 1.23-.412 1.882-.541.653-.13 1.324-.224 2.012-.254.688-.029 1.388 0 2.087.077.7.088 1.383.23 2.047.412.665.189 1.294.436 1.9.713.605.277 1.17.612 1.699.966a12.715 12.715 0 0 1 3.682 3.799c.57.919.988 1.844 1.276 2.71.576 1.743.647 3.239.594 4.246-.059 1.014-.218 1.55-.27 1.544l.005.006Z" fill="#E0E0E0"/><path d="m253.045 170.94-.294 2.168-1.935-.265.288-2.109c-1.9-.377-3.652-1.225-4.605-2.203l1.382-2.215c.87.849 2.188 1.561 3.564 1.885l.435-3.234c-2.076-.812-4.375-1.855-3.999-4.623.276-2.05 2.006-3.611 5.105-3.546l.288-2.15 1.935.265-.288 2.109c1.435.312 2.793.889 3.764 1.714l-1.288 2.25c-.912-.695-1.871-1.161-2.823-1.408l-.447 3.293c2.076.795 4.34 1.831 3.969 4.559-.27 2.014-1.976 3.557-5.057 3.51h.006Zm-.777-8.818.371-2.75c-1.053.094-1.535.601-1.623 1.237-.094.677.441 1.125 1.252 1.508v.005Zm2.694 5.119c.094-.677-.418-1.119-1.212-1.526l-.358 2.669c.994-.083 1.488-.524 1.57-1.149v.006Z" fill="#E0E0E0"/><path d="M257.085 36.325c-1.176 7.822-8.468 13.205-16.296 12.027-7.828-1.178-13.221-8.476-12.05-16.292 1.17-7.822 8.468-13.206 16.296-12.028 7.828 1.178 13.221 8.476 12.05 16.293Z" fill="#F5F5F5"/><path d="M253.715 35.818c-.893 5.96-6.451 10.066-12.42 9.165-5.964-.895-10.075-6.456-9.181-12.416.894-5.961 6.458-10.067 12.421-9.166 5.964.896 10.074 6.456 9.18 12.417Z" fill="#EBEBEB"/><path d="M253.763 35.476c-.065-.006-.041-.489-.088-1.343-.053-.848-.2-2.09-.747-3.504-.271-.701-.641-1.45-1.135-2.18a10.992 10.992 0 0 0-3.07-3.022 10.475 10.475 0 0 0-1.388-.765c-.488-.218-1-.418-1.535-.566a11.708 11.708 0 0 0-1.653-.33c-.564-.064-1.129-.082-1.682-.064a10.45 10.45 0 0 0-3.146.606c-.488.171-.953.377-1.388.607a11.173 11.173 0 0 0-2.299 1.614c-.647.6-1.182 1.237-1.612 1.855a11.448 11.448 0 0 0-1.541 3.234c-.247.819-.335 1.296-.4 1.284-.047 0-.07-.495.083-1.36.159-.86.523-2.12 1.364-3.476a11.16 11.16 0 0 1 1.629-2.032 11.267 11.267 0 0 1 3.894-2.474c.523-.194 1.07-.359 1.634-.47a11.421 11.421 0 0 1 1.753-.219c.6-.023 1.206 0 1.817.065.612.076 1.206.2 1.782.36a10.88 10.88 0 0 1 1.653.624c.529.241 1.017.53 1.482.842a11.22 11.22 0 0 1 3.211 3.31 11 11 0 0 1 1.111 2.362c.5 1.52.565 2.822.518 3.7-.053.883-.188 1.348-.235 1.342h-.012Z" fill="#E0E0E0"/><path d="m243.17 40.83-.252 1.891-1.682-.23.247-1.837c-1.653-.33-3.182-1.066-4.011-1.92l1.205-1.932c.759.736 1.906 1.36 3.106 1.637l.382-2.815c-1.806-.707-3.811-1.614-3.482-4.03.241-1.784 1.747-3.145 4.446-3.086l.253-1.873 1.682.23-.247 1.838c1.247.27 2.429.777 3.276 1.49l-1.123 1.961c-.794-.607-1.629-1.013-2.459-1.225l-.388 2.869c1.812.689 3.776 1.596 3.458 3.97-.235 1.755-1.723 3.098-4.411 3.057v.005Zm-.676-7.68.324-2.392c-.918.083-1.341.524-1.412 1.078-.082.59.382.978 1.094 1.314h-.006Zm2.347 4.459c.082-.59-.365-.978-1.053-1.332l-.318 2.327c.865-.07 1.294-.46 1.371-1.001v.006Z" fill="#E0E0E0"/><path d="M88.886 18.13c3.458 12.74-4.075 25.887-16.825 29.357-12.75 3.469-25.895-4.041-29.353-16.782-3.458-12.74 4.076-25.887 16.826-29.357 12.75-3.475 25.894 4.04 29.352 16.782Z" fill="#F5F5F5"/><path d="M83.394 19.626c2.635 9.707-3.105 19.726-12.82 22.37-9.716 2.645-19.732-3.08-22.367-12.787-2.634-9.713 3.105-19.726 12.821-22.371 9.716-2.645 19.731 3.08 22.366 12.788Z" fill="#EBEBEB"/><path d="M83.24 19.078c-.105.035-.387-.719-1.04-1.991-.653-1.26-1.712-3.057-3.494-4.848a18.558 18.558 0 0 0-3.199-2.568 18.456 18.456 0 0 0-4.252-1.967 16.526 16.526 0 0 0-2.464-.583 17.448 17.448 0 0 0-2.629-.236 17.872 17.872 0 0 0-2.729.17c-.917.136-1.835.337-2.746.608-.906.282-1.782.63-2.617 1.036-.835.4-1.618.878-2.359 1.384a17.292 17.292 0 0 0-2.046 1.667 16.98 16.98 0 0 0-1.718 1.868 18.36 18.36 0 0 0-2.422 4.01 18.996 18.996 0 0 0-1.218 3.924c-.476 2.48-.353 4.565-.188 5.978.17 1.42.359 2.203.253 2.233-.077.023-.441-.707-.788-2.138-.336-1.426-.624-3.588-.253-6.232.188-1.32.54-2.745 1.123-4.206.594-1.455 1.394-2.95 2.482-4.359a17.706 17.706 0 0 1 1.805-2.038 17.848 17.848 0 0 1 2.188-1.82 18.72 18.72 0 0 1 2.535-1.514c.9-.441 1.84-.818 2.823-1.125a19.623 19.623 0 0 1 2.964-.648 18.424 18.424 0 0 1 2.946-.164 17.18 17.18 0 0 1 2.83.288 18.663 18.663 0 0 1 7.122 2.898c1.299.884 2.387 1.873 3.28 2.857a16.923 16.923 0 0 1 3.276 5.307c.512 1.384.624 2.191.542 2.215l-.006-.006Z" fill="#E0E0E0"/><path d="m70.643 34.387.876 3.057-2.723.783-.852-2.974c-2.747.612-5.576.512-7.41-.23l.54-3.764c1.653.618 3.83.79 5.846.418l-1.311-4.559c-3.235.136-6.905.1-8.028-3.805-.83-2.892.553-5.979 4.723-7.71l-.87-3.028 2.722-.783.853 2.974c2.094-.424 4.234-.453 6.01.07l-.4 3.753c-1.617-.389-3.17-.448-4.575-.218l1.335 4.642c3.229-.16 6.846-.107 7.945 3.74.818 2.839-.552 5.89-4.681 7.64v-.006Zm-6.187-11.28-1.111-3.876c-1.353.742-1.694 1.702-1.435 2.603.276.955 1.24 1.237 2.552 1.273h-.006Zm6.575 5.23c-.276-.954-1.211-1.248-2.505-1.32l1.082 3.77c1.276-.694 1.67-1.572 1.423-2.45Z" fill="#E0E0E0"/><path d="M35.657 58.53c-1.535 8.112-9.363 13.442-17.479 11.899-8.121-1.543-13.456-9.366-11.92-17.482 1.534-8.111 9.362-13.442 17.478-11.899 8.122 1.544 13.456 9.366 11.92 17.483Z" fill="#F5F5F5"/><path d="M32.157 57.865c-1.17 6.185-7.133 10.243-13.32 9.071C12.65 65.764 8.58 59.797 9.75 53.612c1.17-6.184 7.134-10.243 13.321-9.07 6.187 1.172 10.257 7.138 9.086 13.323Z" fill="#EBEBEB"/><path d="M32.223 57.512c-.071-.012-.024-.513-.042-1.408-.023-.89-.129-2.191-.64-3.687a11.763 11.763 0 0 0-1.1-2.321 11.512 11.512 0 0 0-1.853-2.274 11.488 11.488 0 0 0-1.223-1.007 10.9 10.9 0 0 0-1.417-.854 10.73 10.73 0 0 0-1.582-.648 12.5 12.5 0 0 0-1.712-.412 11.823 11.823 0 0 0-1.753-.136c-.582 0-1.146.053-1.705.136-.553.082-1.094.218-1.606.377-.517.159-1.005.359-1.476.577a11.549 11.549 0 0 0-2.458 1.59c-.7.601-1.282 1.243-1.753 1.873a12.06 12.06 0 0 0-1.735 3.31c-.288.843-.4 1.338-.47 1.326-.053-.006-.053-.518.141-1.42.2-.895.63-2.19 1.559-3.575a11.277 11.277 0 0 1 1.782-2.056 11.679 11.679 0 0 1 4.152-2.426c.552-.183 1.129-.33 1.729-.424.6-.095 1.211-.16 1.835-.16.623 0 1.258.048 1.893.142.635.106 1.253.253 1.847.448.594.194 1.159.441 1.7.712.54.271 1.04.595 1.511.937.47.341.906.712 1.3 1.101a11.717 11.717 0 0 1 1.917 2.48c.488.854.83 1.708 1.065 2.503.464 1.602.476 2.969.394 3.882-.089.919-.248 1.402-.3 1.396v.018Z" fill="#E0E0E0"/><path d="m20.954 62.672-.34 1.961-1.748-.306.336-1.909c-1.712-.406-3.276-1.237-4.105-2.161l1.335-1.968c.758.801 1.935 1.49 3.176 1.838l.511-2.922c-1.858-.813-3.91-1.837-3.476-4.34.324-1.856 1.947-3.21 4.764-3.046l.341-1.944 1.747.306-.335 1.909c1.293.336 2.505.907 3.358 1.685l-1.247 2.002a7.197 7.197 0 0 0-2.517-1.378l-.518 2.974c1.859.796 3.876 1.815 3.447 4.283-.318 1.82-1.918 3.163-4.723 3.016h-.006Zm-.4-8.04.436-2.486c-.965.047-1.418.489-1.518 1.066-.106.612.359 1.036 1.088 1.413l-.006.006Zm2.27 4.741c.106-.613-.34-1.03-1.046-1.425l-.424 2.415c.906-.042 1.37-.43 1.47-.99Z" fill="#E0E0E0"/><path d="m269.336 190.596-14.285-.518 2.435 3.086 6.775 8.482 2.181 2.733 2.894-13.783Z" fill="#F5F5F5"/><path d="m187.566 237.877-6.405-6.638 28.441-22.266 4.964 9.855 22.812-18.319 5.423 7.964 20.654-16.999 3.693 3.628-26.317 23.526-5.499-10.562-23.113 21.37-4.334-11.238-20.319 19.679Z" fill="#F5F5F5"/><path d="m242.177 63.22-19.084 10.178 5.528 2.19 15.291 5.938 4.922 1.92-6.657-20.227Z" fill="#E0E0E0"/><path d="m171.034 187.215-13.403-3.811 20.331-50.745 13.956 9.119 15.961-41.303 13.132 6.291 14.144-37.927 7.569 1.938-16.596 50.773-15.197-9.636-14.044 45.526-14.179-11.41-11.674 41.185Z" fill="#E0E0E0"/><path d="M270.047 259.347c0 .082-60.457.153-135.017.153S0 259.429 0 259.347c0-.083 60.446-.153 135.03-.153 74.583 0 135.017.07 135.017.153Z" fill="#022749"/><path d="M157.113 259.206h14.509v-23.779h-14.509v23.779ZM215.612 259.2h14.509v-40.343h-14.509V259.2ZM244.864 259.206h14.509v-14.655h-14.509v14.655ZM186.365 259.206h14.509v-35.077h-14.509v35.077ZM127.866 259.2h14.509v-43.706h-14.509V259.2ZM98.62 259.2h14.509v-56.223H98.62V259.2ZM69.362 259.2H83.87v-70.159H69.362V259.2ZM40.114 259.206h14.509v-89.061H40.114v89.061ZM10.863 259.206H25.37V142.131H10.863v117.075Z" fill="#15A9F3"/><path d="M234.014 243.443c-4.617-9.041-14.397-15.191-24.536-15.438 6.152-6.815 7.363-17.359 3.817-25.829-3.546-8.47-11.356-14.784-20.113-17.512-8.757-2.727-18.349-2.085-27.077.737 1.012-6.627-5.598-13.236-12.215-12.205 2.588-1.79 3.47-5.649 1.918-8.388-1.547-2.739-5.305-3.964-8.169-2.662l.388-48.553H119.21l.388 48.553c-2.864-1.302-6.617-.077-8.169 2.662-1.547 2.739-.665 6.598 1.917 8.388-6.61-1.031-13.226 5.584-12.215 12.205-8.727-2.822-18.32-3.458-27.076-.737-8.757 2.722-16.567 9.042-20.114 17.512-3.546 8.47-2.335 19.014 3.817 25.829-10.133.241-19.92 6.397-24.536 15.438-2.681 5.254-2.928 13.012 2.282 15.757h196.222c5.211-2.745 4.964-10.509 2.282-15.757h.006Z" fill="#EBEBEB"/><path d="M35.51 259.206s-.235-.136-.7-.425c-.452-.288-1.088-.818-1.74-1.655-.636-.854-1.218-2.079-1.524-3.622-.317-1.543-.305-3.393.06-5.413.358-2.027 1.187-4.206 2.505-6.35 1.3-2.156 3.034-4.318 5.24-6.303 2.205-1.967 4.852-3.811 7.968-5.142.389-.165.783-.33 1.177-.5l1.229-.43c.406-.154.83-.277 1.258-.389.43-.112.853-.248 1.294-.348a30.05 30.05 0 0 1 5.487-.712l-.064.153c-1.794-2.003-3.259-4.442-4.282-7.157-1-2.721-1.535-5.731-1.54-8.835.023-3.104.546-6.315 1.758-9.389.6-1.538 1.34-3.046 2.252-4.471a28.22 28.22 0 0 1 3.094-4.106c4.646-5.171 11.28-9.041 18.766-10.508 3.735-.766 7.651-.96 11.598-.683 3.946.306 7.927 1.101 11.838 2.35l-.176.153c-.235-1.567-.053-3.21.506-4.741.552-1.538 1.458-2.963 2.617-4.171a11.95 11.95 0 0 1 4.169-2.833c1.588-.636 3.359-.895 5.082-.624l-.106.259c-2.5-1.732-3.535-5.466-2.064-8.376 1.482-2.892 5.381-4.3 8.457-2.927l-.206.135c-.124-15.462-.259-31.766-.394-48.553v-.153H148.192v.153c-.135 16.746-.271 32.997-.394 48.553l-.206-.135c3.017-1.349 6.851-.024 8.398 2.815 1.529 2.857.588 6.68-2.005 8.488l-.106-.259c1.705-.265 3.452-.018 5.028.601 1.576.618 2.988 1.59 4.152 2.78 1.165 1.19 2.088 2.609 2.658 4.152.577 1.544.777 3.222.53 4.836l-.177-.153c3.905-1.249 7.887-2.044 11.833-2.35 3.946-.277 7.857-.088 11.586.677 7.48 1.461 14.108 5.325 18.755 10.479a27.863 27.863 0 0 1 3.099 4.1 26.127 26.127 0 0 1 2.258 4.464c.629 1.526 1.018 3.116 1.341 4.683.282 1.579.424 3.152.435 4.707 0 3.104-.535 6.114-1.529 8.847-1.017 2.727-2.487 5.171-4.293 7.186l-.065-.153c1.9.076 3.741.312 5.493.712.441.101.865.23 1.294.348.429.112.853.236 1.259.389.411.141.823.288 1.229.43.394.17.788.335 1.182.5 3.123 1.331 5.763 3.181 7.969 5.148 2.199 1.985 3.94 4.147 5.234 6.303 1.317 2.144 2.146 4.329 2.499 6.35.371 2.02.371 3.87.053 5.407-.306 1.543-.888 2.762-1.523 3.616-.659.837-1.288 1.361-1.741 1.656-.458.282-.7.424-.7.424s.23-.153.683-.442c.447-.295 1.07-.825 1.711-1.661.623-.854 1.194-2.068 1.488-3.605.306-1.531.294-3.369-.076-5.372-.359-2.014-1.188-4.17-2.506-6.308-1.3-2.144-3.034-4.294-5.228-6.262-2.2-1.955-4.834-3.787-7.94-5.106-.388-.165-.782-.33-1.176-.495a191.91 191.91 0 0 0-1.223-.424 11.406 11.406 0 0 0-1.253-.383c-.423-.112-.852-.242-1.288-.342a29.825 29.825 0 0 0-5.457-.701h-.2l.129-.153c1.782-1.997 3.235-4.429 4.24-7.127.982-2.71 1.512-5.696 1.506-8.777a27.576 27.576 0 0 0-.441-4.671c-.318-1.555-.706-3.127-1.335-4.641-.606-1.52-1.335-3.016-2.241-4.43a27.442 27.442 0 0 0-3.076-4.064c-4.616-5.113-11.197-8.941-18.631-10.384-3.705-.76-7.592-.943-11.515-.666-3.923.306-7.881 1.102-11.768 2.344l-.212.071.035-.218c.236-1.567.042-3.192-.523-4.694a11.537 11.537 0 0 0-2.599-4.053c-1.141-1.16-2.523-2.109-4.058-2.709-1.529-.601-3.229-.843-4.882-.583l-.617.094.511-.36c2.471-1.714 3.376-5.407 1.918-8.11-1.465-2.698-5.164-3.976-8.022-2.686l-.212.094v-.23c.124-15.55.253-31.801.382-48.553l.153.153h-28.817l.153-.153c.129 16.787.259 33.085.382 48.553v.23l-.206-.094c-2.911-1.314-6.675.047-8.074 2.792-1.406 2.756-.406 6.367 1.97 8.004l.517.36-.617-.094c-1.67-.26-3.388-.012-4.934.606a11.755 11.755 0 0 0-4.07 2.763c-2.276 2.338-3.523 5.619-3.052 8.676l.035.218-.212-.071c-3.887-1.248-7.845-2.038-11.774-2.344-3.922-.277-7.822-.088-11.527.666-7.433 1.449-14.026 5.289-18.643 10.414a27.742 27.742 0 0 0-3.075 4.07 25.455 25.455 0 0 0-2.235 4.435c-1.206 3.045-1.73 6.232-1.759 9.307 0 3.08.53 6.061 1.518 8.764 1.005 2.698 2.458 5.113 4.228 7.104l.13.147h-.2a30.882 30.882 0 0 0-5.452.707c-.435.094-.859.23-1.282.342-.424.112-.847.229-1.253.383-.412.141-.817.282-1.217.424-.394.165-.782.33-1.17.494-3.106 1.32-5.74 3.146-7.94 5.101a28.168 28.168 0 0 0-5.234 6.256c-1.318 2.132-2.153 4.294-2.511 6.308-.377 2.009-.389 3.847-.083 5.378.294 1.537.865 2.757 1.488 3.611.647.842 1.27 1.366 1.717 1.667.453.288.682.442.682.442h.012Z" fill="#022749"/><path d="M96.232 47.039 132.53 4.723l34.875 42.316h-13.609v69.004h-42.249V47.109l-15.315-.07ZM268.608 115.79l-25.695 7.91 6.24 3.947 17.284 10.767 5.564 3.481-3.393-26.105Z" fill="#15A9F3"/><path d="m152.656 249.716-15.479-7.745 36.721-56.859 14.915 14.319 29.17-46.409 14.561 10.697 26.165-42.746 8.798 4.117-32.175 57.766-16.296-15.244-27.824 51.993-14.65-17.158-23.906 47.269Z" fill="#15A9F3"/><path d="M167.81 235.061c-3.522-2.338-8.08-2.591-12.226-1.773-1.371.271-2.888.625-4.088-.094-1.188-.713-1.593-2.203-2.07-3.505-2.423-6.667-9.068-11.238-16.061-12.404-6.987-1.167-12.603-.607-18.937 2.574-3.782 1.896-7.687 4.547-11.004 9.501-.952 1.419-2.675 4.311-2.675 4.311-1.265.937-2.941.996-4.494 1.249-6.41 1.043-11.938 6.261-13.361 12.605l88.839-1.443c1.67-3.888-.4-8.676-3.923-11.015v-.006Z" fill="#022749" opacity=".3"/><path d="M78.024 253.333c2.776-9.849 13.727-16.611 23.76-14.673 2.117-10.72 12.38-19.231 23.289-19.314 10.909-.082 21.301 8.264 23.583 18.949 6.028-1.39 12.515-2.427 18.267-.153 5.757 2.274 10.162 9.03 7.78 14.749" fill="#EBEBEB"/><path d="M174.709 252.885s.012-.059.047-.171l.153-.488c.071-.212.165-.478.212-.813.053-.33.159-.701.159-1.143.147-1.714-.259-4.394-2.141-7.057a14.4 14.4 0 0 0-3.811-3.693c-1.599-1.101-3.611-1.808-5.804-2.232-2.2-.401-4.594-.454-7.087-.218-2.494.23-5.081.736-7.751 1.349l-.136.029-.029-.135c-.953-4.235-3.241-8.517-6.793-11.898-3.522-3.376-8.227-5.944-13.444-6.692-3.246-.453-6.546-.2-9.551.766a25.3 25.3 0 0 0-8.104 4.306c-2.346 1.861-4.299 4.064-5.763 6.444a22.721 22.721 0 0 0-2.959 7.427l-.023.124-.124-.024c-2.24-.424-4.452-.394-6.498-.082-1.03.124-2.006.412-2.953.665-.464.165-.923.324-1.37.478-.453.141-.87.377-1.294.553-.858.348-1.611.837-2.376 1.243-.358.242-.711.477-1.058.707-.17.118-.341.23-.512.347-.165.124-.317.254-.476.377-.312.254-.618.495-.918.737-.294.241-.552.518-.823.765-.259.26-.53.495-.764.749-.23.265-.453.518-.67.771a20.606 20.606 0 0 0-3.253 5.195c-.288.648-.43 1.178-.565 1.52a7.67 7.67 0 0 1-.2.518s.194-.736.688-2.067a20.225 20.225 0 0 1 3.211-5.26l.67-.778c.236-.259.507-.5.765-.759.27-.254.53-.531.824-.778.3-.241.605-.495.917-.748.159-.124.312-.259.477-.383.17-.118.34-.235.517-.353.347-.236.7-.477 1.059-.719.764-.412 1.523-.913 2.387-1.266.43-.183.847-.419 1.306-.566.453-.159.918-.324 1.382-.489.959-.259 1.94-.553 2.982-.683 2.07-.324 4.31-.359 6.587.065l-.153.1c.5-2.539 1.493-5.113 2.976-7.522 1.476-2.409 3.452-4.641 5.816-6.526a25.628 25.628 0 0 1 8.198-4.371c3.041-.983 6.387-1.243 9.68-.783 5.287.76 10.051 3.363 13.603 6.779 3.588 3.423 5.899 7.764 6.858 12.052l-.165-.106c2.676-.613 5.275-1.113 7.792-1.337 2.512-.23 4.929-.171 7.152.241 2.211.436 4.252 1.167 5.869 2.292a14.531 14.531 0 0 1 3.835 3.763c1.882 2.704 2.27 5.425 2.093 7.157-.011.442-.117.819-.182 1.149-.053.33-.153.595-.235.813-.077.206-.136.365-.177.483a1.884 1.884 0 0 1-.064.159l.011.017Z" fill="#022749"/><path d="M119.393 101.706c.376 23.661-18.443 43.217-41.956 43.594-23.513.383-42.95-18.56-43.326-42.215-.376-23.662 18.443-43.217 41.956-43.594 23.512-.377 42.949 18.56 43.326 42.215Zm-63.034 1.019c.182 11.31 9.475 20.369 20.72 20.186 11.244-.182 20.242-9.53 20.06-20.845-.183-11.31-9.475-20.369-20.72-20.186-11.244.182-20.242 9.53-20.06 20.845Z" fill="#E0E0E0"/><path d="M119.392 101.706c.377 23.661-18.443 43.217-41.955 43.594l-.359-22.389c11.245-.182 20.243-9.53 20.06-20.845-.182-11.31-9.474-20.369-20.719-20.186l-.358-22.39c23.512-.376 42.949 18.561 43.325 42.216h.006Z" fill="#022749"/><path d="m77.143 145.606-.365-22.978h.294c11.08-.182 19.949-9.4 19.772-20.551a20.15 20.15 0 0 0-6.122-14.195 19.909 19.909 0 0 0-14.297-5.702h-.294l-.364-22.978h.294c11.456-.188 22.3 4.135 30.552 12.175 8.251 8.04 12.891 18.808 13.079 30.329.383 23.82-18.572 43.511-42.25 43.894h-.293l-.006.006Zm.23-22.4.346 21.805c23.213-.536 41.75-19.891 41.374-43.293-.183-11.362-4.764-21.988-12.898-29.917-8.069-7.857-18.654-12.116-29.834-12.016l.347 21.806c5.392-.006 10.52 2.068 14.42 5.867a20.715 20.715 0 0 1 6.299 14.608c.182 11.374-8.793 20.798-20.055 21.14Z" fill="#022749"/><path d="M81.265 148.752c-27.511.441-49.454-20.94-49.895-48.618l26.036-.419c.211 13.236 10.268 21.565 23.418 21.352l.441 27.685Z" fill="#15A9F3"/><path d="M46.326 100.581c.165.112-2.294 3.982-5.499 8.629-3.2 4.654-5.928 8.335-6.099 8.217-.164-.112 2.294-3.976 5.5-8.635 3.199-4.653 5.928-8.335 6.092-8.217l.006.006ZM57.64 102.766c.166.112-3.475 5.69-8.127 12.458-4.658 6.768-8.563 12.164-8.727 12.046-.165-.112 3.475-5.69 8.133-12.458 4.652-6.768 8.563-12.157 8.728-12.046h-.006ZM63.151 114.358c.165.112-3.111 5.166-7.316 11.28-4.21 6.12-7.751 10.98-7.916 10.868-.165-.112 3.111-5.166 7.322-11.28 4.205-6.114 7.751-10.979 7.916-10.868h-.006ZM72.738 120.773c.165.112-3.111 5.166-7.316 11.28-4.211 6.12-7.751 10.979-7.916 10.867-.165-.112 3.111-5.165 7.322-11.28 4.205-6.114 7.751-10.979 7.916-10.867h-.006ZM80.948 128.913c.165.112-2.511 4.294-5.981 9.336-3.47 5.042-6.416 9.036-6.58 8.924-.166-.112 2.51-4.294 5.98-9.336 3.47-5.042 6.41-9.036 6.581-8.918v-.006Z" fill="#022749"/><path d="M216.729 20.009s2.57-5.926 2.694-6.857c.123-.925-.136-2.986-.8-3.552-.665-.565-1.523-.677-2.117-.288 0 0-.095-1.296-1.406-1.543-1.311-.248-1.276.971-1.276.971s.059-.9-.894-1.142c-.465-.118-1 .147-1 .147s-1.253-1.12-2.094-.424c-.835.695.13 11.492.13 11.492l6.763 1.19v.006Z" fill="#FFBF9D"/><path d="M209.796 17.582s-2.294-3.959-2.282-5.037c.011-1.077 1.299-3.522 2.017-3.828.717-.306 3.552-.948 3.552-.948s1.159 1.09-.553 2.167l-1.976 1.113s3.152 1.055 3.053 4.283" fill="#FFBF9D"/><path d="M213.601 15.332c-.053 0 .017-.572-.294-1.49a4.334 4.334 0 0 0-.924-1.456 5.219 5.219 0 0 0-1.876-1.213l-.259-.1.242-.136c.623-.359 1.293-.742 2.005-1.148.329-.206.641-.495.77-.848.13-.354-.005-.778-.282-1.055l.135.036c-.488.118-.993.235-1.517.359-.406.1-.8.2-1.194.312-.194.053-.388.112-.57.171-.094.03-.188.065-.265.1a1.15 1.15 0 0 0-.206.147c-.529.519-.899 1.208-1.205 1.844a8.668 8.668 0 0 0-.383.966c-.088.318-.176.642-.123.925.123.6.376 1.16.588 1.655.447.995.859 1.779 1.135 2.327.276.547.429.848.412.86-.018.011-.206-.271-.518-.802a31.153 31.153 0 0 1-1.223-2.29c-.229-.501-.494-1.043-.641-1.703-.065-.36.023-.707.118-1.043.094-.335.229-.671.382-1.007.317-.665.664-1.355 1.258-1.95.077-.07.165-.14.277-.194.1-.047.194-.082.294-.112.194-.065.388-.124.588-.182.394-.112.794-.212 1.2-.318.523-.124 1.035-.248 1.523-.36l.082-.017.059.058c.353.354.529.896.359 1.373-.177.465-.541.766-.9.995-.718.4-1.4.778-2.029 1.131l-.024-.235a5.34 5.34 0 0 1 1.947 1.313c.476.519.759 1.072.918 1.55.064.24.129.453.141.647.029.195.047.354.035.49 0 .264-.012.405-.029.405l-.006-.005Z" fill="#FF9A6C"/><path d="M213.589 8.8a10.265 10.265 0 0 0-.341 3.534c.03.4.1.83.383 1.125.264.276.682.377 1.064.306.382-.07.712-.289.982-.566" fill="#FFBF9D"/><path d="M215.677 13.2s-.188.406-.847.641a1.318 1.318 0 0 1-1.182-.176c-.412-.307-.523-.86-.553-1.343-.165-2.003.429-3.558.494-3.523.094.018-.347 1.567-.188 3.5.029.476.129.918.423 1.148.289.23.671.259.953.188.582-.153.865-.483.9-.436Z" fill="#FF9A6C"/><path d="M211.059 10.932c-.2.512-.129.742-.094 1.29.03.553.365 1.125.9 1.254.447.106 1.023-.489 1.288-1.113" fill="#FFBF9D"/><path d="M213.153 12.363c.036.012-.017.295-.276.666-.135.182-.312.394-.612.536a.712.712 0 0 1-.541.023 1.096 1.096 0 0 1-.458-.294 1.58 1.58 0 0 1-.43-.913c-.023-.313-.029-.542-.023-.778.029-.465.217-.695.241-.683.047.018-.053.277-.024.683l.088.736c.048.254.165.53.365.737.1.1.218.182.341.223a.44.44 0 0 0 .335 0c.224-.088.412-.264.547-.412.283-.306.4-.548.441-.53l.006.006Z" fill="#FF9A6C"/><path d="M216.718 9.382a6.062 6.062 0 0 0-1.37 2.474c-.13.483-.177 1.072.194 1.408.388.354 1.011.224 1.458-.053a2.925 2.925 0 0 0 1.306-1.908" fill="#FFBF9D"/><path d="M218.299 11.297c.03 0 .042.506-.376 1.172a2.874 2.874 0 0 1-.988.937 1.733 1.733 0 0 1-.812.217c-.3.006-.652-.135-.835-.43-.188-.294-.2-.624-.17-.907.029-.288.111-.547.194-.783.17-.477.382-.884.594-1.207.423-.643.794-.937.817-.914.036.036-.276.383-.629 1.025a6.686 6.686 0 0 0-.512 1.184c-.07.23-.141.477-.164.725-.024.247 0 .512.129.707.265.418.87.335 1.264.13.412-.213.73-.525.941-.814.436-.583.506-1.06.559-1.048l-.012.006Z" fill="#FF9A6C"/><path d="M184.795 57.96s3.187-3.446 4.446-4.218c1.259-.772 9.551-10.673 10.427-13.277.876-2.603 9.01-23.52 8.845-23.237-.141.236 10.327 2.215 10.327 2.215s-7.792 24.12-8.745 26.883c-1.717 5-10.227 15.126-15.079 21.2-2.064 2.585-4.922 10.867-4.922 10.867l-5.299-20.428v-.006Z" fill="#022749"/><path d="M192.399 70.947c-.041 0-.171-.712-.3-1.89a48.453 48.453 0 0 1-.288-4.607c-.03-1.802.035-3.44.129-4.617.094-1.179.2-1.903.235-1.897.048 0 .018.73-.023 1.908a99.055 99.055 0 0 0-.041 4.6c.029 1.797.117 3.423.2 4.595.076 1.178.129 1.903.088 1.908ZM139.846 193.889l-4.481 9.147-.571 2.238s2.988 13.595 1.123 14.932l-13.338-21.564 3.435-2.168 4.269-9.141 9.563 6.556Z" fill="#022749"/><path d="m122.573 198.642 1.688-.972 12.156 21.034s.2 1.208-.505 1.496l-13.339-21.564v.006ZM135.112 205.557c-.1.059-.47-.442-1.111-.76-.636-.335-1.23-.335-1.253-.453-.041-.112.653-.324 1.423.076.77.395 1.047 1.102.941 1.137ZM135.623 208.373c-.082.082-.535-.265-1.176-.36-.641-.112-1.152.077-1.211-.029-.077-.088.458-.524 1.258-.389.8.13 1.224.719 1.129.784v-.006ZM133.859 211.253c-.082-.082.324-.542 1.041-.607.712-.076 1.235.289 1.176.383-.047.112-.535-.029-1.117.041-.588.053-1.023.283-1.1.183ZM185.536 126.592c-.441 1.043-22.942 35.542-27.559 39.377-4.617 3.834-20.372 35.3-20.372 35.3s-12.874-6.255-13.162-5.572c-.288.683 9.028-22.212 14.585-31.613 5.558-9.401 8.151-13.035 8.151-13.035l11.057-29.522s.229-9.725 1.652-13.512c1.424-3.782 5.581-7.069 5.581-7.069l20.067 25.652v-.006Z" fill="#022749"/><path d="m165.264 168.284-11.962.86s-3.076 13.135-5.27 13.518l-2.629-24.445 18.579-2.15 1.282 12.211v.006Z" fill="#022749"/><path d="M153.49 161.475c-.171-.46-.712-.731-1.153-.572-.441.159-.7.731-.535 1.196.165.465.8.807 1.223.601.418-.212.694-.902.424-1.308" fill="#E0E0E0"/><path d="m145.397 158.223 1.882-.141 1.818 23.484s-.33 1.137-1.071 1.096l-2.629-24.445v.006ZM153.461 169.526c-.112.006-.23-.583-.653-1.13-.412-.56-.935-.807-.9-.925.012-.112.706-.006 1.211.665.512.666.453 1.402.347 1.39h-.005ZM152.731 172.201c-.106.041-.353-.454-.877-.807-.511-.371-1.041-.413-1.046-.536-.03-.112.623-.265 1.264.188.641.448.765 1.143.659 1.155ZM149.985 173.974c-.035-.106.512-.336 1.164-.095.653.236.959.772.871.831-.088.076-.459-.248-.994-.436-.535-.2-1.012-.183-1.035-.3h-.006ZM156.166 169.008c-.106-.041-.012-.601-.13-1.272-.106-.672-.376-1.172-.282-1.249.076-.076.547.389.676 1.178.13.789-.164 1.39-.264 1.343Z" fill="#022749"/><path d="M154.79 117.551s-.036 11.492 5.175 15.379c5.211 3.882 23.277 18.484 23.277 18.484l-28.846 4.936 2.152 13.394s38.939-3.934 43.702-5.531c4.764-1.596 8.193-9.671 4.464-15.285-1.876-2.821-21.26-30.417-21.26-30.417l-.582-7.41-24.436 1.549-3.658 4.895.012.006Z" fill="#022749"/><path d="M156.554 169.75s-.023-.076-.053-.235c-.029-.171-.076-.401-.129-.695-.106-.631-.265-1.52-.459-2.663-.388-2.332-.941-5.672-1.623-9.789l-.018-.112.112-.018c6.934-1.196 16.191-2.798 26.336-4.547.858-.147 1.705-.295 2.499-.43l-.07.271a1426.323 1426.323 0 0 0-11.451-9.377c-1.77-1.414-3.446-2.751-5.011-4.006-1.57-1.243-3.075-2.356-4.322-3.528-2.506-2.327-4.146-4.565-5.14-6.179-.5-.807-.829-1.467-1.041-1.914a8.533 8.533 0 0 1-.224-.519c-.047-.117-.064-.182-.058-.182.005 0 .035.059.088.171.059.111.135.282.253.506a23.96 23.96 0 0 0 1.082 1.879c1.017 1.585 2.676 3.793 5.181 6.085 1.247 1.148 2.752 2.244 4.334 3.487a541.81 541.81 0 0 1 5.035 3.987 971.01 971.01 0 0 1 11.474 9.354l.258.212-.329.059-2.5.43c-10.15 1.726-19.413 3.293-26.347 4.471l.094-.13c.641 4.118 1.165 7.463 1.524 9.802.17 1.148.305 2.044.399 2.674.042.294.071.524.095.695.017.159.029.241.023.241h-.012Z" fill="#022749"/><path d="M191.029 152.244c-.03.089-1.712-.406-3.858-.63-2.141-.235-3.894-.1-3.9-.194 0-.041.43-.124 1.147-.171a16.445 16.445 0 0 1 2.788.065c1.088.118 2.052.33 2.741.524.688.2 1.093.371 1.082.406ZM173.216 21.11c.324-1.066 1.388-1.855 2.494-1.85 1.076-1.23 3.046-1.555 4.458-.724a3.294 3.294 0 0 1 3.152-.636c1.064.353 1.917 1.296 2.17 2.397 1.07-.377 2.364.006 3.058.913s.741 2.262.106 3.21c1.27.177 2.311 1.414 2.27 2.704-.041 1.29-1.159 2.456-2.441 2.545l-14.244-5.614c-.917-.624-1.358-1.885-1.029-2.95l.006.005Z" fill="#022749"/><path d="M188.93 29.963c-1.494-5.637-7.04-9.183-12.738-8.146l-.565.1c-6.04 1.473-6.94 7.486-5.299 13.53l4.676 22.724 11.233 6.68 1.352-4.96-.012-8.093s5.705-1.985 4.705-7.91c-.482-2.863-1.952-8.677-3.346-13.92l-.006-.005Z" fill="#FFBF9D"/><path d="M187.619 51.78s-3.705.908-8.104-.865c0 0 2.299 4.252 8.057 2.656l.041-1.785.006-.005Z" fill="#FF9A6C"/><path d="M188.207 35.535c.094.442-.195.89-.653 1.002-.459.106-.906-.16-1-.607-.094-.442.194-.89.653-1.002.458-.105.905.16 1.005.607h-.005ZM188.312 33.38c-.082.129-.806-.23-1.706-.065-.905.153-1.482.742-1.599.648-.059-.042.012-.26.264-.525.247-.265.694-.553 1.253-.654.565-.1 1.07.024 1.382.189.318.165.447.348.406.406ZM180.326 37.314c.094.442-.194.89-.653 1.001-.459.112-.906-.159-1-.606-.094-.442.194-.89.653-1.002a.817.817 0 0 1 1.006.607h-.006ZM179.662 34.822c-.083.13-.806-.23-1.706-.064-.9.153-1.482.742-1.6.648-.058-.042.012-.26.265-.525.247-.265.694-.553 1.253-.653.564-.1 1.07.023 1.382.188.317.165.447.348.406.407ZM183.854 41.013c-.012-.053.529-.253 1.418-.53.223-.065.435-.153.446-.318.024-.177-.117-.412-.276-.66l-1-1.643c-1.399-2.344-2.464-4.288-2.37-4.341.094-.053 1.306 1.796 2.711 4.14.341.578.665 1.131.977 1.662.135.247.341.518.282.89a.582.582 0 0 1-.318.405c-.141.071-.27.1-.382.124-.906.218-1.47.324-1.482.271h-.006ZM181.313 42.126c.147-.035.324.949 1.288 1.497.965.547 1.988.247 2.018.388.023.06-.2.236-.636.324a2.453 2.453 0 0 1-1.676-.265c-.588-.336-.911-.872-1.017-1.266-.112-.407-.047-.672.023-.678ZM179.202 32.225c-.065.253-.882.182-1.823.371-.947.165-1.694.53-1.829.312-.065-.106.059-.347.353-.607a2.88 2.88 0 0 1 1.335-.624c.564-.106 1.094-.035 1.447.106.358.141.547.324.517.448v-.006ZM187.66 30.923c-.1.242-.771.2-1.506.383-.741.16-1.317.5-1.517.324-.088-.088-.047-.318.176-.577.218-.265.624-.542 1.13-.66.505-.118.993-.053 1.305.088.312.142.453.324.412.442Z" fill="#022749"/><path d="M187.871 27.36s-2.217-3.423-4.146-3.965c-2.335-.653-2.829 1.885-4.975 1.68-2.147-.207-4.382-.837-6.181 1.136-1.971 2.162-.677 3.187-.341 5.837 1.352 10.738-.03 14.101-1.483 9.189-.158-.536-1.752-.701-2.393-2.975-.835-2.956-1.612-6.585-1.335-8.84.235-1.903 1.029-3.329 2.605-5.031 2.488-2.686 6.44-3.452 9.175-3.67 2.734-.218 8.486 1.956 9.08 6.639h-.006Z" fill="#022749"/><path d="M171.828 40.872c-.2-.907-1.112-1.485-2-1.231-1.076.306-2.182 1.154-1.694 3.416.859 4.017 4.688 2.327 4.67 2.209-.012-.077-.6-2.715-.976-4.394Z" fill="#FFBF9D"/><path d="M171.61 43.947s-.059.064-.165.14a.709.709 0 0 1-.518.124c-.452-.064-.952-.66-1.129-1.384a2.318 2.318 0 0 1-.017-1.042c.058-.318.205-.566.405-.648.2-.094.377 0 .453.106.077.1.071.188.094.188.012.006.071-.088 0-.247a.467.467 0 0 0-.211-.218.533.533 0 0 0-.406-.018c-.306.089-.518.43-.594.778-.088.353-.1.766 0 1.172.2.807.77 1.473 1.388 1.52a.77.77 0 0 0 .611-.242c.1-.123.106-.218.089-.224v-.005Z" fill="#FF9A6C"/><path d="M169.746 33.161c.588.265 1.205.53 1.841.483.641-.053 1.293-.547 1.282-1.19 0-.288-.13-.606.011-.854.171-.3.589-.288.936-.318 1.188-.088 2.234-1.136 2.323-2.332.376.395 1.07.247 1.464-.124.4-.377.6-.907.876-1.378.277-.471.706-.925 1.253-.942.306-.012.612.117.906.035.517-.142.664-.813.647-1.355-.018-.542-.065-1.166.329-1.537.365-.342.929-.283 1.429-.3.5-.018 1.106-.248 1.141-.749.018-.265-.135-.506-.312-.7-.805-.878-2.246-1.073-3.246-.437-.635-1.266-2.064-2.079-3.464-1.973-1.4.106-2.694 1.12-3.129 2.462a3.689 3.689 0 0 0-3.352-.265 3.718 3.718 0 0 0-2.129 2.615c-1.023-.082-2.064.501-2.541 1.42-.47.919-.347 2.115.306 2.91-.647.548-1.135 1.378-.994 2.22.136.843 1.1 1.526 1.859 1.16-.206.714.217 1.55.911 1.797.694.248 1.547-.123 1.835-.807" fill="#022749"/><path d="M166.894 32.066s-.012.353.388.73c.2.177.511.342.894.336a1.4 1.4 0 0 0 1.082-.542h-.177c.259.318.588.624.983.866.252.153.529.277.811.324.282.059.582.012.823-.07.5-.148.894-.507 1.036-.878.152-.371.164-.69.17-.902 0-.212-.012-.33-.029-.33-.018 0-.03.118-.065.324-.035.207-.071.513-.229.837-.277.648-1.459 1.172-2.4.495a3.934 3.934 0 0 1-.935-.807l-.094-.106-.082.112c-.23.312-.589.47-.912.489a1.2 1.2 0 0 1-.794-.254c-.388-.312-.447-.642-.482-.624h.012ZM172.798 21.452s.112.011.3.053c.188.047.476.153.717.418l.065.07.041-.082a5.074 5.074 0 0 1 1.653-1.938 3.863 3.863 0 0 1 1.517-.636 3.302 3.302 0 0 1 1.788.183c.459.176.864.453 1.188.783.317.336.547.73.664 1.137l.036.124.117-.053a2.278 2.278 0 0 1 1.706-.1c.506.17.864.506 1.088.818.453.654.429 1.166.464 1.155.012 0 .024-.118-.011-.342a2.36 2.36 0 0 0-1.488-1.808 2.414 2.414 0 0 0-1.859.076l.153.071a2.933 2.933 0 0 0-.705-1.243 3.56 3.56 0 0 0-1.271-.842 3.412 3.412 0 0 0-1.911-.183 4.123 4.123 0 0 0-1.594.69 5 5 0 0 0-1.652 2.05l.105-.019a1.406 1.406 0 0 0-.799-.4c-.206-.024-.318 0-.318.012l.006.006Z" fill="#022749"/><path d="M179.503 119.642c.565.053 2.47.725 4.952-3.87 2.482-4.594 4.863-21.611 4.863-21.611l-9.815 25.481ZM190.212 87.57l.282-16.464-3.305-12.605s-2.317-3.622-4.834-5.466c-2.999-2.191-5.475-2.686-5.475-2.686l-3.782-.919-.406 3.146 10.986 12.628 6.534 22.366Z" fill="#E0E0E0"/><path d="M172.74 50.52s9.045.777 13.426 11.721c2.353 5.879 3.782 21.653 4.052 24.11.277 2.461-.641 8.11-2.323 15.72-.329 1.479-1.505 5.372-4.734 14.797-3.452 10.084-6.205 17.529-6.205 17.529l-28.923-11.209 14.385-25.275s-.758-7.781-.723-8.53c.276-5.783-.847-9.047 1.064-20.173a27.667 27.667 0 0 1 3.441-9.419c1.817-3.069 3.17-3.982 6.257-6.296l.277-2.987.006.012Z" fill="#022749"/><path d="m175.857 119.571.759-6.114-13.785-5.601-2.518 5.837 15.544 5.878Z" fill="#022749"/><path d="M175.857 119.571s-.112-.053-.312-.135c-.229-.089-.517-.206-.882-.354-.794-.312-1.888-.742-3.252-1.272-2.776-1.072-6.622-2.55-11.045-4.253l.088.201c.677-1.567 1.394-3.228 2.141-4.948l.382-.89-.205.083c5.422 2.179 10.286 4.141 13.808 5.554l-.064-.112c-.206 1.862-.371 3.37-.494 4.453-.053.513-.094.919-.13 1.232a3.85 3.85 0 0 0-.035.447c0 .012.029-.129.071-.394.047-.301.099-.701.176-1.196.153-1.096.365-2.621.623-4.506l.012-.083-.076-.029c-3.517-1.443-8.363-3.428-13.774-5.649l-.141-.059-.059.142-.382.889c-.741 1.72-1.459 3.387-2.129 4.948l-.065.147.147.053c4.488 1.661 8.387 3.11 11.21 4.159 1.358.494 2.452.895 3.24 1.178.353.123.635.223.859.306.194.065.294.1.288.088Z" fill="#022749"/><path d="M187.284 104.121s-.006.053-.035.159l-.141.46c-.136.424-.324 1.007-.565 1.749l-2.135 6.409c-1.835 5.425-4.364 12.876-7.151 21.11a41.49 41.49 0 0 0-.153.448l-.053.153-.147-.059c-7.993-3.116-15.209-5.931-20.455-7.975-2.587-1.025-4.693-1.856-6.169-2.445l-1.67-.677c-.176-.077-.318-.135-.429-.183-.094-.041-.147-.064-.141-.07 0 0 .052.011.152.041.118.041.259.094.441.153.406.153.971.359 1.688.624 1.488.566 3.6 1.367 6.205 2.351 5.252 2.02 12.48 4.806 20.484 7.887l-.2.094c.047-.141.1-.295.153-.448 2.823-8.223 5.375-15.668 7.233-21.081l2.229-6.379c.265-.736.471-1.314.618-1.732.07-.182.123-.33.17-.447.042-.101.065-.154.065-.148l.006.006Z" fill="#022749"/><path d="M144.769 136.4s3.422-11.156 6.328-11.91c2.905-.754 6.757-.878 7.439 1.019.682 1.896 1.235 4.671 1.118 7.474-.118 2.804-1.147 6.921-1.147 6.921l-2.97-.918s2.323-11.327 1.723-13.183c-.6-1.855-5.534-1.402-6.434.519-.9 1.926-3.758 10.785-3.758 10.785l-2.294-.707h-.005Z" fill="#022749"/><path d="M131.125 150.43c1.041-4.671 3.475-14.943 4.546-19.461a2.358 2.358 0 0 1 2.746-1.767l27.871 5.525a2.357 2.357 0 0 1 1.864 2.692l-3.146 19.402a2.353 2.353 0 0 1-2.753 1.938l-29.258-5.495a2.362 2.362 0 0 1-1.864-2.828l-.006-.006Z" fill="#022749"/><path d="M165.282 141.878s-.006.07-.035.206c-.029.147-.065.353-.118.624-.106.56-.264 1.367-.47 2.409-.418 2.109-1.018 5.154-1.759 8.906l-.141.713a1.373 1.373 0 0 1-.306.707c-.17.2-.411.353-.676.418-.265.077-.553.018-.8-.035-1.023-.2-2.088-.407-3.187-.619-2.206-.43-4.558-.883-7.034-1.366l-7.775-1.514c-1.347-.265-2.717-.53-4.111-.801-.694-.136-1.399-.271-2.105-.412l-.529-.106c-.171-.036-.359-.053-.547-.142a1.33 1.33 0 0 1-.765-1.384c.03-.171.065-.312.094-.465l.194-.913.388-1.809c.253-1.195.506-2.379.759-3.54.5-2.326.976-4.571 1.441-6.72l.023-.101.1.024a364.94 364.94 0 0 0 19.637 4.441c2.429.477 4.364.837 5.693 1.084.659.124 1.171.218 1.523.283.165.029.295.059.389.076a.76.76 0 0 1 .123.03s-.047 0-.141-.018c-.1-.018-.229-.035-.394-.059a104.42 104.42 0 0 0-1.517-.241c-1.33-.224-3.27-.566-5.705-1.025a331.95 331.95 0 0 1-19.66-4.365l.123-.076c-.459 2.15-.935 4.4-1.429 6.72-.247 1.161-.5 2.345-.753 3.54-.129.601-.259 1.202-.388 1.809-.065.3-.129.606-.194.913-.065.312-.153.595-.071.877.077.324.318.601.618.737.147.07.317.088.5.129l.529.106c.706.136 1.406.277 2.105.413 1.394.27 2.765.541 4.111.806 2.694.531 5.293 1.037 7.775 1.526 2.476.489 4.829.948 7.034 1.384 1.1.218 2.164.424 3.187.631.259.058.494.106.73.041.235-.053.441-.189.594-.365.158-.183.235-.395.276-.637.047-.241.1-.477.147-.706.771-3.729 1.4-6.751 1.835-8.848l.506-2.42c.059-.271.106-.483.135-.631.029-.141.053-.218.053-.218l-.012-.017Z" fill="#022749"/><path d="M154.896 152.739s.171.03.5.03a2.524 2.524 0 0 0 1.335-.436c.517-.342.976-1.007 1.07-1.903.171-.877.365-1.873.582-2.974.106-.554.224-1.131.342-1.732.152-.589.129-1.231-.171-1.802a2.354 2.354 0 0 0-1.488-1.202c-.676-.147-1.394-.283-2.117-.43-2.911-.583-6.105-1.225-9.463-1.897a2.337 2.337 0 0 0-2.199.731 2.368 2.368 0 0 0-.547 1.042l-.247 1.196c-.159.795-.318 1.573-.471 2.333-.076.382-.153.759-.229 1.131-.071.371-.171.748-.194 1.095a2.361 2.361 0 0 0 .77 1.867 2.3 2.3 0 0 0 .859.501c.312.094.653.147.97.218 1.294.265 2.494.512 3.594.736 2.187.454 3.958.825 5.204 1.084.6.13 1.077.23 1.412.306.153.036.27.065.364.083.083.017.124.035.124.035s-.041 0-.129-.012c-.095-.017-.218-.035-.371-.064-.341-.065-.812-.154-1.417-.266-1.247-.241-3.023-.589-5.217-1.019-1.1-.217-2.305-.453-3.599-.712-.323-.071-.647-.112-.994-.212a2.44 2.44 0 0 1-.923-.536 2.52 2.52 0 0 1-.835-2.015c.023-.394.123-.748.194-1.125.076-.371.147-.748.223-1.131.153-.76.306-1.543.465-2.332l.247-1.202c.1-.418.294-.819.594-1.137.576-.659 1.523-.972 2.399-.795 3.352.677 6.552 1.325 9.457 1.914.729.154 1.429.283 2.129.442a2.548 2.548 0 0 1 1.6 1.302c.317.607.335 1.325.17 1.914l-.353 1.726c-.229 1.096-.429 2.091-.611 2.969-.047.218-.089.43-.147.636a2.534 2.534 0 0 1-.994 1.313 2.483 2.483 0 0 1-1.382.413 1.833 1.833 0 0 1-.5-.071l-.006-.012Z" fill="#022749"/><path d="M135.583 150.76c7.781 4.1 16.785 5.855 25.536 4.966l-25.536-4.966Z" fill="#022749" opacity=".3"/><path d="m153.09 144.941-3.287-.66a.955.955 0 0 1-.747-1.119.953.953 0 0 1 1.117-.748l3.288.659a.956.956 0 0 1 .747 1.12.954.954 0 0 1-1.118.748Z" fill="#E0E0E0"/><path d="M158.312 121.986s.847 1.308 1.047 2.103c.2.795.071 3.988.071 3.988s-.688.347-1.247-1.508c-.559-1.855-.629-2.727-.629-2.727l.752-1.856h.006Z" fill="#FFBF9D"/><path d="m158.224 127.906.136-5.837-2.247-4.312-7.128-.135-.253 7.074s1.047 3.033 1.547 3.611c.5.571 1.5.147 1.5.147.541.842 2.017.536 2.017.536.729.866 1.853.053 1.853.053s.988.907 1.446.848c.159-.018.324-.141.477-.306a2.486 2.486 0 0 0 .658-1.667l-.006-.012Z" fill="#FFBF9D"/><path d="M151.226 126.928c.07-.023.235.289.37.695.141.407.194.76.129.778-.064.023-.235-.289-.37-.695-.141-.407-.194-.76-.129-.778ZM153.078 126.846c.071-.012.194.489.371 1.084.176.6.341 1.077.276 1.113-.065.029-.341-.418-.523-1.037-.183-.618-.194-1.148-.124-1.16ZM155.184 127.034c.07 0 .129.442.229.984.1.536.206.972.135 1.001-.064.024-.288-.388-.388-.954-.106-.565-.047-1.031.024-1.031ZM158.272 123.901c.07 0 .118.995.1 2.22-.018 1.225-.088 2.215-.159 2.215-.071 0-.118-.995-.1-2.221.018-1.225.088-2.214.159-2.214ZM151.126 125.756s-.024.112-.153.189a.807.807 0 0 1-.565.088.804.804 0 0 1-.482-.306c-.082-.124-.094-.218-.065-.23.059-.035.259.218.6.289.335.076.624-.077.665-.018v-.012ZM153.278 126.109s-.041.112-.188.177a.98.98 0 0 1-.606.065.99.99 0 0 1-.535-.295c-.106-.117-.129-.217-.106-.235.059-.041.3.206.688.277.389.088.7-.047.741.011h.006ZM157.395 125.679c.024-.029.165.16 0 .407-.164.224-.488.383-.87.418a1.534 1.534 0 0 1-.929-.212c-.206-.135-.288-.271-.265-.289.041-.058.506.313 1.17.248.318-.03.618-.153.753-.277.141-.135.112-.277.141-.289v-.006Z" fill="#FF9A6C"/><path d="M179.59 70.776c-2.799 2.922-20.184 20.016-20.184 20.016s-1.011 27.619-1.511 27.743c-.506.123-10.498-.701-10.498-.701s-1.399-29.28-.235-32.62c1.165-3.34 16.038-22.866 16.355-23.273.324-.406 2.029-3.393 7.716-4.86 6.664-1.713 9.457 1.485 10.58 4.772.965 2.827-.876 7.221-1.77 8.405a4.833 4.833 0 0 1-.453.53v-.011Z" fill="#022749"/><path d="M179.59 70.776s.083-.111.253-.323c.183-.2.406-.542.653-1.014a14.773 14.773 0 0 0 1.417-4.4c.142-.99.194-2.138-.211-3.292-.412-1.143-1.053-2.35-2.1-3.31-.517-.484-1.153-.872-1.841-1.173-.694-.306-1.47-.447-2.264-.536-1.611-.117-3.317.171-5.034.678-1.711.518-3.458 1.307-4.97 2.544-.764.619-1.405 1.36-1.993 2.215l-1.888 2.497c-2.547 3.4-5.258 7.045-8.034 10.927-1.388 1.944-2.799 3.94-4.169 6.031-.677 1.049-1.376 2.11-1.918 3.234-.058.142-.141.283-.188.424l-.094.454c-.076.3-.106.618-.129.936l-.088.96-.042.972c-.188 5.19-.035 10.58.112 16.093.13 4.476.3 8.864.494 13.123l-.141-.141c1.811.141 3.599.282 5.369.424.883.065 1.759.123 2.635.182.435.024.871.053 1.3.077l.647.029h.453c0 .012.094-.023-.012.024-.03.041 0-.018 0-.018.159-.801.2-1.684.276-2.521.059-.848.112-1.684.171-2.521.094-1.667.182-3.304.27-4.912.324-6.432.565-12.37.771-17.665v-.047l.035-.036c6.216-6.131 11.274-11.12 14.779-14.584 1.753-1.72 3.117-3.057 4.052-3.97.459-.448.818-.79 1.065-1.03.241-.23.37-.342.37-.342s-.111.13-.347.365c-.241.247-.588.595-1.035 1.054-.923.925-2.276 2.28-4.005 4.017-3.493 3.482-8.527 8.494-14.714 14.661l.035-.076c-.188 5.29-.418 11.232-.729 17.665-.088 1.608-.171 3.245-.265 4.918-.053.836-.112 1.673-.165 2.521-.076.854-.105 1.69-.282 2.58-.023.047 0 .047-.065.129-.047.053-.111.071-.111.065h-.047l-.189.012h-.329l-.653-.035c-.435-.024-.87-.053-1.305-.077-.871-.059-1.753-.124-2.635-.183-1.77-.135-3.558-.276-5.369-.418l-.136-.012v-.135a673.981 673.981 0 0 1-.505-13.123c-.147-5.514-.295-10.903-.106-16.11l.047-.972.088-.972c.023-.324.059-.648.141-.972l.1-.483c.053-.153.129-.3.194-.448.565-1.172 1.265-2.226 1.947-3.28 1.376-2.091 2.793-4.094 4.187-6.038a582.047 582.047 0 0 1 8.057-10.915c.641-.848 1.276-1.678 1.894-2.497.306-.395.594-.837.941-1.208.341-.382.711-.718 1.094-1.042 1.552-1.26 3.328-2.05 5.057-2.574 1.735-.513 3.47-.795 5.117-.666.812.1 1.611.242 2.323.566.712.312 1.359.712 1.888 1.213 1.07.995 1.717 2.227 2.123 3.387.406 1.19.341 2.362.194 3.357a14.66 14.66 0 0 1-1.476 4.412c-.253.471-.488.807-.682 1.002-.183.206-.277.306-.277.306l-.006.017Z" fill="#022749"/><path d="M189.447 83.423s-.052-.112-.117-.33c-.077-.247-.171-.566-.288-.96-.247-.878-.594-2.085-1.018-3.57-.847-3.068-2.005-7.274-3.305-12.004l-.018-.065.036-.059c.329-.506.67-1.048 1.023-1.59l.265-.412.111.235c-.664-.065-1.323-.123-1.946-.182l-.1-.012-.03-.094a34.112 34.112 0 0 0-1.211-3.24c-.441-1.019-.923-1.98-1.512-2.786-.582-.801-1.44-1.284-2.199-1.743a33.245 33.245 0 0 0-2.205-1.137c-1.371-.648-2.5-1.114-3.276-1.438-.365-.153-.659-.276-.894-.37a2.485 2.485 0 0 1-.306-.142c0-.012.118.023.324.088.211.071.517.177.911.324.788.295 1.929.737 3.317 1.355.694.318 1.447.677 2.241 1.113.77.454 1.658.931 2.299 1.785.624.837 1.112 1.808 1.565 2.833.452 1.031.864 2.12 1.235 3.27l-.13-.107c.629.06 1.282.118 1.947.183l.253.023-.136.212-.264.413c-.353.548-.7 1.084-1.023 1.59l.017-.123c1.265 4.735 2.388 8.953 3.211 12.027.388 1.496.7 2.716.929 3.6.095.4.177.724.236.977.053.224.07.342.064.342l-.006-.006Z" fill="#022749"/><path d="M187.419 65.823c-3.411 2.014-6.181 2.003-11.874 1.52-3.947-.336-7.405-1.467-11.363-1.59-5.704-.178-9.98 1.566-15.179 3.928l-3.828 4.535 7.192 2.18s6.899-3.929 15.75-3.446c8.845.483 17.102-1.926 20.031-4.164l1.006-2.798-.383-1.455-1.211-.112-.141 1.408v-.006Z" fill="#15A9F3"/><path d="M187.419 65.823s0-.13.017-.365c.018-.248.047-.595.083-1.049v-.035h.041c.341.03.747.059 1.211.1h.036l.011.035c.118.424.247.913.394 1.455V66c-.288.82-.617 1.756-.988 2.804v.024l-.029.012c-.776.6-1.735 1.09-2.788 1.537-1.058.448-2.217.86-3.481 1.207-2.517.707-5.405 1.231-8.575 1.45-1.582.094-3.235.147-4.94.058-1.694-.07-3.44-.053-5.228.165-1.782.207-3.6.583-5.405 1.125-1.8.542-3.623 1.225-5.34 2.144l-.059.03-.059-.018-4.211-1.272c-.999-.306-1.999-.607-2.981-.901l-.224-.065.153-.177c1.306-1.543 2.582-3.057 3.835-4.535l.023-.024.03-.012c2.564-1.16 5.081-2.256 7.621-2.968 2.535-.725 5.07-1.031 7.464-.955 2.399.06 4.622.501 6.68.884 2.059.4 3.97.695 5.735.813 1.758.141 3.346.247 4.734.2 1.388-.035 2.564-.236 3.493-.518.929-.277 1.606-.607 2.064-.825l.506-.265c.118-.059.177-.088.183-.088l-.159.106c-.112.064-.277.17-.506.294-.453.236-1.123.583-2.058.878-.93.3-2.124.518-3.517.565-1.4.06-2.994-.03-4.752-.159-1.765-.106-3.699-.394-5.758-.777-2.058-.371-4.275-.801-6.645-.848-2.37-.065-4.87.247-7.375.966-2.512.712-5.017 1.802-7.575 2.968l.053-.04-3.829 4.54-.07-.247c.982.3 1.982.6 2.981.901 1.441.436 2.87.872 4.211 1.278l-.117.012c1.758-.936 3.581-1.62 5.404-2.167a31.917 31.917 0 0 1 5.452-1.125c1.8-.213 3.576-.224 5.275-.154 1.694.095 3.335.048 4.911-.04 3.146-.207 6.028-.713 8.534-1.397a28.673 28.673 0 0 0 3.463-1.172c1.047-.442 2-.913 2.765-1.49l-.03.035c.382-1.042.724-1.979 1.023-2.792V66c-.141-.541-.264-1.03-.37-1.46l.041.035c-.464-.047-.87-.088-1.211-.124l.041-.035-.124 1.054a4.471 4.471 0 0 1-.053.348l-.011.006ZM173.944 102.578c-.029.082-2.629-.778-5.799-1.92-3.175-1.137-5.728-2.127-5.698-2.21.029-.082 2.623.778 5.804 1.921 3.176 1.137 5.728 2.126 5.699 2.209h-.006Z" fill="#022749"/><path d="m177.761 83.957.188 5.292 1.435-6.008" fill="#fff"/><path d="m184.175 81.002-6.019.291a.028.028 0 0 0-.015.004.033.033 0 0 0-.013.011l-.432.537a.038.038 0 0 0-.003.006l.001.007c0 .002.002.004.003.005.002.001.004.002.005.001l3.548-.198a.018.018 0 0 1 .017.005.032.032 0 0 1 .01.02.043.043 0 0 1-.003.022c-.004.007-.009.011-.015.013l-4.591 1.4-.004.004-1.522 1.894a.063.063 0 0 0-.01.03.07.07 0 0 0 .008.033c.005.01.013.017.021.02a.029.029 0 0 0 .025-.003l9.007-4.007a.038.038 0 0 0 .02-.022.06.06 0 0 0 .004-.035.057.057 0 0 0-.016-.03.03.03 0 0 0-.026-.008Z" fill="#fff"/><path d="m177.695 81.856.034.947 3.888-1.188-3.922.24Z" fill="#fff"/></g><defs><clipPath id="a"><path fill="#fff" transform="translate(0 .5)" d="M0 0h272v259H0z"/></clipPath></defs></svg>