<svg width="321" height="200" fill="none" xmlns="http://www.w3.org/2000/svg"><g clip-path="url(#a)"><path d="M54.472 197.775c13.48-8.984 16.77-25.98 16.48-41.304-.048-2.561.276-5.253-.92-7.51-1.2-2.262-4.055-3.837-6.393-2.793-1.94.865-2.817 3.059-3.92 4.871a15.138 15.138 0 0 1-6.176 5.64c-1.665.821-3.717 1.304-5.333.396-2.222-1.252-2.435-4.301-2.382-6.843.102-4.741.209-9.477.31-14.217.058-2.542.107-5.137-.663-7.563-.764-2.426-2.502-4.693-4.946-5.408-2.444-.715-5.503.638-6.06 3.117-.232 1.034-.034 2.112-.12 3.165-.088 1.054-.606 2.214-1.627 2.494-1.036.28-2.057-.454-2.817-1.208-2.623-2.61-4.38-5.944-6.016-9.259-1.64-3.315-3.223-6.708-5.6-9.545-2.37-2.836-5.681-5.108-9.374-5.369-3.693-.261-7.667 1.929-8.654 5.49-.992 3.571 1.075 7.239 3.34 10.178A57.01 57.01 0 0 0 15.42 133.55c.803.58 1.674 1.208 1.974 2.155.533 1.701-1.123 3.364-2.831 3.895-1.936.604-4.017.373-6.035.58-2.019.203-4.211 1.044-5 2.91-1.099 2.585 1.065 5.339 3.209 7.157a49.537 49.537 0 0 0 14.476 8.524c1.887.715 3.877 1.344 5.387 2.682 1.51 1.339 2.4 3.639 1.447 5.413-.954 1.778-3.335 2.319-5.32 1.923-1.984-.391-3.745-1.484-5.628-2.218-3.528-1.373-8.112-1.199-10.43 1.788-1.524 1.962-1.699 4.726-.978 7.104.717 2.377 2.217 4.441 3.814 6.345 5.58 6.659 12.777 12.057 20.962 14.991 8.184 2.933 15.792 3.808 24.015.985" fill="#EBEBEB"/><path d="M50.567 188.124c-2.169-7.761-5.261-16.078-8.8-24.665-.89-2.146-1.776-4.263-2.642-6.35-.871-2.083-1.737-4.147-2.71-6.113-1.926-3.944-4.085-7.592-6.244-10.99-2.158-3.402-4.331-6.553-6.383-9.486-2.062-2.929-4.032-5.625-5.934-8.003a91.487 91.487 0 0 0-9.82-10.564 82.824 82.824 0 0 0-2.943-2.595c-.334-.28-.595-.493-.784-.652-.179-.145-.276-.213-.276-.213s.083.087.252.242l.76.681c.668.599 1.655 1.479 2.89 2.648a95.616 95.616 0 0 1 9.708 10.622c1.888 2.388 3.843 5.084 5.89 8.018 2.043 2.938 4.201 6.094 6.345 9.491 2.144 3.397 4.288 7.036 6.205 10.965.963 1.962 1.82 4.011 2.696 6.099.866 2.087 1.747 4.204 2.642 6.345 3.533 8.582 6.63 16.88 8.814 24.617" fill="#E0E0E0"/><path d="M36.323 150.957c.024 0 .116-.382.252-1.083.14-.7.314-1.72.513-2.986.397-2.528.827-6.036 1.297-9.907.47-3.871.958-7.365 1.408-9.878.223-1.256.412-2.271.557-2.972.14-.7.203-1.092.179-1.097-.024-.004-.14.372-.324 1.064a49.964 49.964 0 0 0-.678 2.957c-.523 2.508-1.06 6.007-1.525 9.883-.46 3.837-.87 7.306-1.18 9.916-.16 1.213-.29 2.223-.393 3.001-.092.71-.13 1.102-.101 1.107l-.005-.005Z" fill="#E0E0E0"/><path d="M3.237 144.351s.116.034.34.063c.27.029.59.058.982.096.851.082 2.08.198 3.6.392 3.035.357 7.212 1.01 11.786 1.928 4.573.928 8.673 1.947 11.615 2.774 1.476.401 2.657.763 3.48 1.005.373.111.687.203.944.275.218.058.334.083.339.073 0-.015-.102-.063-.315-.145-.252-.097-.556-.208-.924-.343-.809-.29-1.98-.686-3.451-1.126-2.933-.894-7.032-1.957-11.616-2.89-4.583-.923-8.78-1.532-11.829-1.822a61.722 61.722 0 0 0-3.62-.271 70.843 70.843 0 0 1-.987-.029c-.228 0-.344 0-.344.02ZM50.208 187.506s.087-.131.223-.402c.15-.304.344-.695.58-1.179a136.991 136.991 0 0 0 2.01-4.388c1.65-3.726 3.774-8.94 6.044-14.72 2.27-5.784 4.351-11.008 5.939-14.753.784-1.837 1.427-3.34 1.897-4.432.208-.493.377-.894.513-1.208.111-.275.17-.425.155-.43-.01-.005-.087.13-.228.401l-.58 1.179a139.086 139.086 0 0 0-2.009 4.388c-1.65 3.726-3.775 8.94-6.045 14.725s-4.351 11.004-5.934 14.754c-.784 1.836-1.427 3.339-1.897 4.431-.208.493-.377.894-.513 1.208-.111.276-.17.426-.155.43v-.004Z" fill="#E0E0E0"/><path d="M6.335 172.844s.145.072.436.174l1.278.434c1.156.387 2.753.919 4.704 1.566 3.969 1.324 9.428 3.224 15.454 5.335 6.03 2.112 11.504 3.973 15.502 5.234 1.999.633 3.615 1.126 4.743 1.45.532.15.963.27 1.297.367.3.077.455.116.46.102 0-.015-.146-.073-.436-.174-.329-.112-.75-.257-1.278-.435-1.156-.387-2.749-.914-4.704-1.566-3.969-1.324-9.428-3.223-15.459-5.34-6.025-2.112-11.504-3.972-15.497-5.234a191.702 191.702 0 0 0-4.743-1.449c-.532-.15-.963-.271-1.297-.368-.3-.077-.455-.116-.46-.101v.005Z" fill="#E0E0E0"/><path d="m261.842 99.299-15.688 39.827 59.174 23.239 15.688-39.828-59.174-23.238Z" fill="#EBEBEB"/><path d="M321 123.073s-.257.126-.76.314c-.557.198-1.297.464-2.217.793-1.994.686-4.772 1.648-8.189 2.822-6.989 2.353-16.552 5.567-27.152 9.133l-.222.078-.117-.203c-.092-.155-.188-.324-.285-.493l-14.413-25.168c-1.796-3.194-3.262-5.794-4.313-7.66-.474-.87-.856-1.57-1.147-2.097-.256-.483-.382-.74-.367-.75.014-.009.179.228.464.692.315.512.726 1.194 1.239 2.044 1.089 1.841 2.609 4.412 4.472 7.568 3.756 6.466 8.886 15.309 14.559 25.086.096.169.193.338.285.493l-.344-.131c10.619-3.499 20.202-6.664 27.205-8.969l8.248-2.653c.934-.29 1.684-.517 2.25-.691.518-.155.789-.222.799-.203l.005-.005Z" fill="#E0E0E0"/><path d="M246.136 139.668c-.077-.14 6.525-3.852 14.738-8.293 8.218-4.441 14.941-7.925 15.018-7.785.077.14-6.524 3.852-14.742 8.293-8.214 4.436-14.941 7.925-15.014 7.785ZM295.76 130.815c.155-.044 2.415 7.099 5.053 15.957 2.637 8.863 4.656 16.078 4.501 16.126-.155.044-2.415-7.099-5.053-15.962-2.638-8.858-4.651-16.078-4.501-16.121Z" fill="#E0E0E0"/><path d="m305.838 47.784-34.874 15.163 10.235 23.47 34.874-15.163-10.235-23.47Z" fill="#EBEBEB"/><path d="M306.069 47.994s-.054.16-.189.455c-.15.319-.353.744-.6 1.27-.552 1.131-1.322 2.712-2.265 4.654l-7.614 15.33-.062.125-.136-.039-.329-.087c-6.529-1.773-12.439-3.382-16.761-4.557a1739.69 1739.69 0 0 1-5.067-1.42c-.571-.17-1.026-.3-1.374-.402-.315-.096-.475-.15-.475-.164 0-.01.174.024.489.097.349.087.813.198 1.389.338 1.239.319 2.972.763 5.097 1.314 4.326 1.15 10.246 2.721 16.784 4.46.112.03.228.064.329.088l-.198.087c3.005-5.964 5.721-11.352 7.705-15.286.987-1.918 1.791-3.484 2.367-4.605.271-.517.493-.928.658-1.242.155-.28.237-.43.252-.42v.004Z" fill="#E0E0E0"/><path d="M281.429 86.63c-.092-.028 1.127-4.382 2.725-9.732 1.597-5.35 2.962-9.66 3.054-9.636.091.029-1.128 4.383-2.725 9.733-1.597 5.344-2.962 9.66-3.054 9.63v.006ZM298.673 61.927c.044-.083 4.032 1.981 8.896 4.615 4.869 2.633 8.779 4.837 8.736 4.92-.044.081-4.027-1.982-8.901-4.616-4.869-2.633-8.779-4.837-8.736-4.92h.005Z" fill="#E0E0E0"/><path d="M314.97 197.992c0 .068-69.971.126-156.266.126-86.295 0-156.28-.058-156.28-.126 0-.067 69.956-.125 156.28-.125s156.266.058 156.266.125ZM258.774 54.64H58.669c-3.895 0-7.052 3.151-7.052 7.04v127.357c0 3.889 3.157 7.042 7.052 7.042h200.105c3.894 0 7.051-3.153 7.051-7.042V61.68c0-3.889-3.157-7.04-7.051-7.04Z" fill="#022749"/><path d="M42.658 185.616h232.077v3.774c0 4.746-3.857 8.602-8.615 8.602H51.273c-4.753 0-8.615-3.851-8.615-8.602v-3.774ZM259.475 60.26H57.366V179.7h202.109V60.259Z" fill="#022749"/><path d="m137.603 185.616 2.879 4.572h40.525l2.676-4.572h-46.08Z" fill="#022749"/><path d="M63.112 64.3h191.03c.876 0 1.583.71 1.583 1.58v111.854c0 .875-.712 1.58-1.583 1.58H63.112c-.876 0-1.583-.71-1.583-1.58V65.88c0-.875.712-1.58 1.583-1.58Z" fill="#EBEBEB"/><path d="M255.729 72.727h-194.2V179.32h194.2V72.727Z" fill="#EBEBEB"/><path d="M77.457 68.74c0 .856-.692 1.547-1.549 1.547a1.546 1.546 0 1 1 0-3.093c.857 0 1.549.691 1.549 1.547ZM68.058 68.74c0 .856-.692 1.547-1.549 1.547a1.546 1.546 0 1 1 0-3.093c.852 0 1.55.691 1.55 1.547ZM72.569 68.74c0 .856-.692 1.547-1.549 1.547a1.546 1.546 0 1 1 0-3.093c.857 0 1.549.691 1.549 1.547ZM263.981 185.616c0 .077-47.542.14-106.177.14-58.635 0-106.187-.063-106.187-.14 0-.077 47.533-.14 106.187-.14 58.655 0 106.177.063 106.177.14Z" fill="#022749"/><path d="M51.573 187.172s-.058-.029-.164-.097c-.112-.072-.266-.178-.474-.314-.209-.14-.47-.319-.775-.526-.305-.213-.673-.445-1.05-.759-.387-.305-.818-.643-1.292-1.02-.47-.382-.944-.841-1.481-1.319-1.056-.971-2.193-2.18-3.374-3.624-2.337-2.895-4.724-6.872-6.374-11.918-1.617-5.035-2.512-11.114-2.008-17.769.256-3.32.793-6.79 1.805-10.288.997-3.499 2.41-7.056 4.472-10.41a32.609 32.609 0 0 1 1.674-2.46c.63-.778 1.259-1.56 1.898-2.348.672-.759 1.374-1.498 2.071-2.262.712-.744 1.481-1.44 2.227-2.174 3.068-2.837 6.524-5.427 10.226-7.815 7.415-4.789 15.793-8.751 24.417-12.879 8.6-4.204 17.661-8.239 26.954-12.318 37.213-16.276 71.276-30.136 96.086-39.762a1213.746 1213.746 0 0 1 29.518-11.047c3.504-1.247 6.244-2.175 8.092-2.813.925-.314 1.631-.556 2.111-.715.237-.077.416-.135.542-.179.121-.038.184-.053.184-.053s-.059.03-.175.077c-.121.049-.3.111-.532.203-.474.174-1.176.43-2.096.764-1.844.667-4.564 1.643-8.058 2.904-6.979 2.58-17.075 6.316-29.456 11.193-24.77 9.708-58.804 23.621-96.013 39.892-9.293 4.079-18.343 8.105-26.944 12.304-8.63 4.122-16.997 8.066-24.378 12.821-3.688 2.373-7.125 4.939-10.178 7.751-.741.725-1.51 1.416-2.217 2.151-.692.754-1.39 1.488-2.057 2.237-.634.783-1.263 1.556-1.883 2.325a31.89 31.89 0 0 0-1.655 2.421c-2.042 3.305-3.45 6.828-4.453 10.293-1.016 3.47-1.558 6.915-1.824 10.211-.523 6.606.339 12.647 1.921 17.658 1.612 5.017 3.96 8.984 6.258 11.879 1.162 1.445 2.285 2.658 3.32 3.634.528.478.997.947 1.462 1.329.47.382.89.725 1.273 1.034.372.319.73.561 1.03.773.3.218.557.397.76.546l.46.334c.102.077.15.116.15.121v.014Z" fill="#022749"/><path d="m238.727 16.4 8.958 7.417-.827 8.5 7.342-4.078 7.821 5.548 29.15-18.693-52.444 1.305Z" fill="#15A9F3"/><path d="m247.685 23.817 42.697-8.703-38.346 11.588-5.179 5.616.828-8.5Z" fill="#022749" opacity=".5"/><path d="m252.036 26.702 2.164 1.537-7.343 4.079 5.179-5.616Z" fill="#022749" opacity=".8"/><path d="m117.766 128.102-46.558 4.411 2.977 31.333 46.559-4.41-2.978-31.334Z" fill="#fff"/><path d="M120.745 159.443s-.034-.203-.072-.58c-.044-.396-.102-.947-.18-1.662l-.643-6.312c-.542-5.451-1.312-13.26-2.256-22.766l.189.155c-12.855 1.227-29.025 2.778-46.55 4.451-.048.048.368-.445.194-.232v.058l.01.067.014.131.024.261.049.522.096 1.043c.068.696.131 1.387.199 2.074.13 1.377.261 2.744.387 4.102.257 2.716.508 5.389.76 8.013l1.418 15.063-.218-.179 33.516-3.078c4.1-.368 7.352-.657 9.598-.856 1.103-.091 1.96-.169 2.56-.217.281-.019.499-.039.668-.053.15-.01.227-.015.232-.01 0 0-.067.015-.208.034-.16.019-.372.043-.643.072-.591.063-1.433.15-2.517.261-2.236.223-5.469.551-9.544.957-8.243.807-19.897 1.943-33.628 3.282l-.198.019-.02-.198c-.46-4.775-.944-9.815-1.442-15.059-.252-2.624-.503-5.296-.765-8.012l-.392-4.103c-.067-.691-.13-1.382-.198-2.073l-.097-1.044-.048-.522-.025-.261-.014-.13v-.068l-.01-.034v-.024c-.174.208.237-.295.199-.241 17.53-1.643 33.705-3.161 46.559-4.369l.175-.015.014.174c.871 9.559 1.583 17.412 2.081 22.892.237 2.702.426 4.818.552 6.283.058.7.102 1.246.135 1.633.029.367.034.546.034.546l.005.005Z" fill="#022749"/><path d="M117.764 128.109s-.111.169-.358.464c-.276.323-.644.749-1.099 1.275l-4.104 4.654c-3.533 3.943-8.378 9.351-13.775 15.382l-.12.135-.155-.096c-.392-.252-.814-.517-1.24-.788-7.1-4.547-13.527-8.665-18.226-11.671-2.29-1.493-4.158-2.706-5.498-3.58-.615-.411-1.109-.74-1.481-.991-.334-.232-.509-.358-.504-.372.01-.015.199.092.547.295.387.231.89.541 1.525.923 1.355.84 3.247 2.02 5.57 3.464a38868.95 38868.95 0 0 0 18.295 11.565c.426.27.847.541 1.24.787l-.277.039a22437.98 22437.98 0 0 1 13.876-15.29c1.757-1.904 3.185-3.455 4.206-4.567.479-.507.862-.913 1.157-1.222.266-.276.411-.416.426-.406h-.005Z" fill="#022749"/><path d="m216.186 82.841-6.29 22.225 33.026 9.318 6.29-22.224-33.026-9.319Z" fill="#fff"/><path d="M242.928 114.389s.034-.145.101-.416c.078-.28.184-.676.32-1.184.285-1.043.706-2.556 1.239-4.489 1.079-3.871 2.623-9.419 4.506-16.17l.087.155c-9.119-2.566-20.594-5.79-33.028-9.288-.043.024.368-.208.194-.107v.044l-.019.048-.024.092-.054.184-.106.372-.208.74c-.141.492-.276.98-.417 1.468l-.822 2.91-1.612 5.682a10814.33 10814.33 0 0 1-3.035 10.68l-.101-.178c9.699 2.769 17.927 5.117 23.744 6.775l6.795 1.957c.78.227 1.385.406 1.81.532.199.058.354.106.47.14.106.034.16.053.165.053 0 0-.049-.01-.151-.034a20.645 20.645 0 0 1-.459-.121c-.421-.116-1.022-.275-1.791-.488-1.588-.44-3.886-1.073-6.786-1.875l-23.875-6.664-.14-.039.039-.14c.953-3.387 1.965-6.963 3.015-10.684.527-1.861 1.06-3.755 1.607-5.684l.823-2.909c.14-.488.275-.98.416-1.469l.208-.74.106-.371.054-.184.024-.092.014-.048v-.024l.01-.01c-.174.092.242-.145.198-.116 12.429 3.518 23.9 6.77 33.013 9.351l.121.034-.034.12c-1.945 6.771-3.542 12.329-4.66 16.214-.557 1.909-.993 3.407-1.293 4.441-.145.498-.261.88-.343 1.155-.078.256-.121.382-.121.382v-.005Z" fill="#022749"/><path d="M249.219 92.164s-.121.087-.368.222c-.276.15-.639.343-1.089.585-.982.512-2.357 1.223-4.046 2.097-3.465 1.764-8.218 4.18-13.508 6.872l-.121.063-.082-.111c-.203-.276-.421-.57-.639-.87l-9.365-12.816c-1.171-1.628-2.125-2.953-2.807-3.905l-.751-1.072c-.169-.247-.251-.382-.242-.387.01-.005.112.116.296.348.203.26.464.604.798 1.034.702.938 1.685 2.242 2.89 3.847 2.434 3.29 5.764 7.79 9.442 12.758.218.299.436.594.639.87l-.198-.049c5.314-2.658 10.076-5.045 13.556-6.785 1.709-.836 3.098-1.522 4.09-2.01l1.118-.532c.256-.115.392-.173.397-.164l-.01.005Z" fill="#022749"/><path d="M75.047 77.54s2.275-1.84 5.808 3.683c3.528 5.524 4.975 8.766 4.975 8.766s.9 1.14 1.66.266c.76-.874 1.69-3.242 3.151-2.977 1.515.28 2.164 1.875 2.115 4.32-.048 2.446.049 7.805.058 8.288.01.474.349 1.146.964.634.614-.513 3.988-5.084 6.064-3.36 2.076 1.73.823 8.521.702 9.265-.121.744.048 1.039.411 1.189.363.145 1.35-1.498 2.367-2.76 1.011-1.261 2.41-2.546 3.523-1.449 1.113 1.097 1.917 6.021-2.028 14.531l-2.086 3.823-4.375.178c-9.39-.183-13.474-3.059-13.973-4.542-.498-1.479 1.268-2.17 2.846-2.528 1.578-.357 3.495-.526 3.519-.913.029-.391-.165-.677-.89-.889-.727-.218-7.386-2.064-8.035-4.688-.648-2.619 4.946-3.648 5.677-3.972.731-.324.276-.923-.145-1.141-.43-.222-5.217-2.653-7.439-3.682-2.221-1.03-3.378-2.31-2.967-3.794.397-1.43 2.938-1.227 4.061-1.527 1.123-.3.489-1.609.489-1.609s-2.285-2.72-5.711-8.307c-3.427-5.587-.702-6.843-.702-6.843" fill="#15A9F3"/><path d="M78.217 82.48s.02.043.068.12l.203.348c.184.31.455.754.799 1.33.697 1.15 1.713 2.812 2.981 4.856 2.531 4.093 6.079 9.718 10.019 15.918 3.94 6.201 7.501 11.821 10.052 15.9 1.273 2.034 2.304 3.687 3.02 4.832.353.566.629 1.005.823 1.315.092.145.164.256.218.338.048.077.077.111.077.111s-.019-.043-.068-.121l-.203-.348c-.184-.309-.455-.754-.799-1.329a536.887 536.887 0 0 0-2.981-4.856c-2.531-4.094-6.079-9.719-10.018-15.924a3240.91 3240.91 0 0 1-10.053-15.894c-1.273-2.034-2.304-3.687-3.02-4.833l-.823-1.314c-.092-.145-.164-.256-.218-.338-.048-.078-.077-.111-.077-.111Z" fill="#022749"/><path d="M89.48 90.642s-.039.106-.083.304c-.043.198-.101.484-.169.841-.13.71-.285 1.701-.435 2.793a524.363 524.363 0 0 1-.49 3.644c-.028.198-.038.31-.028.314.01 0 .038-.106.087-.304.043-.198.101-.483.164-.841.126-.715.267-1.701.416-2.793.15-1.073.286-2.045.393-2.794l.12-.845c.03-.198.04-.314.03-.314l-.005-.005ZM87.887 98.654c.01-.038-2.018-.45-4.52-.913-2.507-.464-4.54-.807-4.55-.769-.01.04 2.019.45 4.52.914 2.503.464 4.54.807 4.55.768ZM94.364 107.904s-.117 0-.325.014l-.871.087a75.97 75.97 0 0 1-2.875.232 68.877 68.877 0 0 1-2.884.106c-.344.005-.64.015-.876.02-.209.005-.32.014-.32.024s.116.019.32.034c.208.009.508.024.876.029a38.77 38.77 0 0 0 5.77-.339c.367-.048.662-.096.865-.13.203-.034.315-.063.315-.073l.005-.004ZM97.403 100.974s-.063.087-.15.256-.208.42-.353.725a134.1 134.1 0 0 0-1.123 2.416c-.431.947-.813 1.807-1.085 2.436-.135.314-.241.57-.314.744-.073.179-.106.275-.097.28.01 0 .063-.087.15-.256s.208-.416.353-.725c.296-.614.693-1.469 1.123-2.416.431-.947.814-1.807 1.08-2.436.135-.314.242-.57.314-.744.073-.179.107-.275.097-.28h.005ZM104.159 108.416s-.078.116-.184.333c-.121.247-.276.556-.46.928-.382.788-.9 1.88-1.462 3.088a296.941 296.941 0 0 0-1.423 3.108c-.164.381-.305.695-.416.947-.097.227-.145.353-.135.357.009 0 .077-.116.184-.333.121-.247.275-.556.459-.928.383-.788.901-1.88 1.462-3.088a287.1 287.1 0 0 0 1.423-3.107c.164-.382.305-.696.416-.947.097-.228.145-.353.136-.358ZM100.122 116.936s-.145-.005-.406.009c-.29.02-.663.039-1.108.068-.935.058-2.227.135-3.655.179-1.427.048-2.725.053-3.659.053h-1.108c-.261 0-.407.01-.407.019 0 .01.146.024.407.039.261.014.639.034 1.108.043a62.746 62.746 0 0 0 7.328-.231c.47-.044.847-.083 1.103-.116.262-.034.402-.054.402-.063h-.005Z" fill="#022749"/><path d="M244.302 121.13c-1.626-.749-3.562-.633-5.222.039-1.66.672-3.069 1.856-4.259 3.194-2.304 2.586-3.586 6.355-4.23 9.752 3.818.469 7.55-1.976 9.365-3.334 2.87-2.146 6.747-7.771 4.346-9.651ZM223.684 135.449c1.824-.821 3.015-2.764 3.155-4.76.141-1.991-.692-3.987-2.032-5.465-.62-.687-1.443-1.31-2.367-1.262-.862.044-1.612.691-1.975 1.479-.363.783-.392 1.682-.305 2.542.291 2.948 1.113 5.746 3.524 7.466Z" fill="#15A9F3"/><path d="M218.67 145.066s.193-.179.479-.546c.29-.367.697-.904 1.181-1.585.953-1.363 2.26-3.306 3.136-5.732.876-2.43.954-4.847.581-6.494a8.093 8.093 0 0 0-.629-1.89c-.208-.42-.358-.633-.378-.623-.072.033.47.937.741 2.561.29 1.614.174 3.943-.678 6.311-.856 2.368-2.105 4.311-3.001 5.707-.909 1.392-1.481 2.252-1.432 2.286v.005Z" fill="#022749"/><path d="M240.856 125.079s-.358.232-.968.71c-.605.478-1.471 1.179-2.536 2.063a282.11 282.11 0 0 0-8.141 7.066 275.828 275.828 0 0 0-7.86 7.374 111.04 111.04 0 0 0-2.308 2.31c-.538.556-.823.87-.804.889.02.02.344-.261.91-.778.615-.57 1.423-1.319 2.396-2.218a728.95 728.95 0 0 1 7.932-7.287 640.916 640.916 0 0 1 8.059-7.143c.997-.875 1.824-1.599 2.454-2.155.576-.512.885-.807.871-.827l-.005-.004Z" fill="#022749"/><path d="M225.881 140.664c3.495-2.359 8.16-2.881 12.09-1.349 1.002.392 2.086 1.107 2.106 2.18.019 1.073-1.05 1.827-2.047 2.228-4.158 1.662-9.283.488-12.303-2.813" fill="#15A9F3"/><path d="M235.378 141.263c.009-.024-.213-.135-.625-.309a5.358 5.358 0 0 0-.769-.281c-.305-.092-.649-.217-1.046-.29-.784-.193-1.737-.314-2.802-.352a16.26 16.26 0 0 0-3.451.318 16.22 16.22 0 0 0-3.286 1.102c-.958.464-1.786.962-2.425 1.455-.334.227-.595.478-.842.686a5.991 5.991 0 0 0-.59.566c-.305.328-.465.517-.446.536.054.053.736-.667 2.033-1.566.644-.454 1.467-.918 2.41-1.353a17.459 17.459 0 0 1 3.214-1.049 17.236 17.236 0 0 1 3.364-.338c1.04.015 1.979.106 2.754.261 1.553.295 2.468.681 2.492.609l.015.005Z" fill="#022749"/><path d="M222.669 35.44H100.345v133.924h122.324V35.439Z" fill="#FAFAFA"/><path d="M222.664 169.359c0-.952-.044-53.892-.112-133.924l.112.11c-35.869 0-77.763.01-122.309.015h-.014l.126-.125c-.005 49.277-.015 95.303-.02 133.924l-.106-.106 122.323.106c-.905 0-48.762.044-122.323.107h-.107v-.107c-.005-38.621-.009-84.642-.019-133.924v-.126h.14l122.309.014h.111v.112c-.068 80.032-.111 132.972-.111 133.924Z" fill="#022749"/><path d="M189.584 141.659H142.84c-3.878 0-7.023 3.139-7.023 7.012v1.421c0 3.873 3.145 7.012 7.023 7.012h46.744c3.878 0 7.022-3.139 7.022-7.012v-1.421c0-3.873-3.144-7.012-7.022-7.012Z" fill="#15A9F3"/><path d="M189.584 141.659H142.84c-3.878 0-7.023 3.139-7.023 7.012v1.421c0 3.873 3.145 7.012 7.023 7.012h46.744c3.878 0 7.022-3.139 7.022-7.012v-1.421c0-3.873-3.144-7.012-7.022-7.012Z" fill="url(#b)" opacity=".5"/><path d="M184.482 141.659h-46.744c-3.878 0-7.022 3.139-7.022 7.012v1.421c0 3.873 3.144 7.012 7.022 7.012h46.744c3.879 0 7.023-3.139 7.023-7.012v-1.421c0-3.873-3.144-7.012-7.023-7.012Z" fill="#15A9F3"/><path d="m147.491 150.382.208-.459c.257.208.663.353 1.06.353.499 0 .712-.179.712-.416 0-.691-1.907-.237-1.907-1.425 0-.518.411-.957 1.292-.957.382 0 .789.101 1.065.285l-.189.464a1.793 1.793 0 0 0-.886-.252c-.493 0-.697.194-.697.435 0 .682 1.903.237 1.903 1.411 0 .513-.417.952-1.298.952-.498 0-.997-.154-1.263-.386v-.005ZM150.613 149.328v-1.807h.596v1.783c0 .657.295.943.813.943s.808-.286.808-.943v-1.783h.586v1.807c0 .933-.528 1.44-1.399 1.44s-1.404-.507-1.404-1.44ZM157.103 149.855c0 .551-.43.87-1.253.87h-1.592v-3.199h1.5c.769 0 1.181.324 1.181.831 0 .329-.165.57-.412.706a.79.79 0 0 1 .576.797v-.005Zm-2.25-1.865v.884h.842c.411 0 .644-.145.644-.44 0-.294-.233-.444-.644-.444h-.842Zm1.65 1.807c0-.319-.242-.459-.692-.459h-.963v.923h.963c.45 0 .692-.14.692-.464ZM157.471 150.382l.208-.459c.256.208.663.353 1.06.353.498 0 .711-.179.711-.416 0-.691-1.907-.237-1.907-1.425 0-.518.412-.957 1.293-.957.382 0 .788.101 1.064.285l-.188.464a1.796 1.796 0 0 0-.886-.252c-.494 0-.697.194-.697.435 0 .682 1.902.237 1.902 1.411 0 .513-.416.952-1.297.952-.499 0-.997-.154-1.263-.386v-.005ZM160.395 149.121c0-.957.73-1.648 1.718-1.648.522 0 .973.188 1.268.536l-.383.363a1.124 1.124 0 0 0-.856-.377c-.663 0-1.142.464-1.142 1.126 0 .662.479 1.126 1.142 1.126.334 0 .624-.121.856-.382l.383.367c-.3.348-.746.537-1.273.537-.983 0-1.713-.691-1.713-1.648ZM166.052 150.72l-.653-.937h-.847v.933h-.596v-3.2h1.317c.842 0 1.365.43 1.365 1.141 0 .483-.247.841-.683 1.01l.736 1.053h-.639Zm-.808-2.696h-.697v1.276h.697c.522 0 .793-.237.793-.638s-.271-.638-.793-.638ZM167.305 147.521h.596v3.199h-.596v-3.199ZM171.613 149.855c0 .551-.431.87-1.253.87h-1.593v-3.199h1.501c.769 0 1.181.324 1.181.831 0 .329-.165.57-.412.706a.79.79 0 0 1 .576.797v-.005Zm-2.25-1.865v.884h.842c.411 0 .643-.145.643-.44 0-.294-.232-.444-.643-.444h-.842Zm1.65 1.807c0-.319-.242-.459-.692-.459h-.963v.923h.963c.45 0 .692-.14.692-.464ZM174.657 150.222v.498h-2.405v-3.199h2.338v.498h-1.743v.831h1.549v.488h-1.549v.884h1.81Z" fill="#FAFAFA"/><path d="M197.099 131.361c0 .068-15.555.126-34.74.126-19.186 0-34.746-.058-34.746-.126s15.551-.126 34.746-.126 34.74.058 34.74.126ZM207.97 135.556c0 .067-20.425.125-45.611.125-25.187 0-45.616-.058-45.616-.125 0-.068 20.419-.126 45.616-.126 25.196 0 45.611.058 45.611.126Z" fill="#022749"/><path d="M106.095 40.649a1.036 1.036 0 0 1-2.072 0 1.036 1.036 0 0 1 2.072 0ZM108.51 41.683a1.035 1.035 0 1 0 .002-2.07 1.035 1.035 0 0 0-.002 2.07ZM113.002 40.649a1.036 1.036 0 0 1-2.071 0 1.036 1.036 0 0 1 2.071 0Z" fill="#E0E0E0"/><path d="m213.564 62.304 2.014-7.244s.726-2.943.9-3.63c.227-.908-.411-1.193-.789-.575-.145.237-1.733 3.233-1.733 3.233s1.268-4.905 1.317-5.084c.411-1.6-.581-1.435-.871-.865-.3.59-2.096 5.418-2.096 5.418 1.689-6.307 1.162-6.863.687-6.964-.474-.102-1.96 5.669-1.96 5.669s-.537-.986-1.524-1.668c-1.525-1.048-4.071 0-4.192.715-.121.716.784.919.784.919 1.912-1.233 3.872.26 3.669 2.083-.198 1.821-2.512 1.57-2.798.27-.629-2.846-1.611-1.918-1.611-1.918l.982 6.272-1.04 3.156" fill="#FFBE9D"/><path d="m141.111 91.826 43.486-.29 1.196 29.522-45.03-.445.348-28.787Z" fill="#022749"/><path d="M141.111 91.826 163.2 74.003l21.397 17.533M140.763 120.613c-.054-.053 3.431-3.842 7.777-8.471 4.351-4.63 7.923-8.341 7.976-8.288.054.053-3.426 3.842-7.782 8.471-4.351 4.63-7.923 8.337-7.976 8.288h.005ZM185.793 121.058c-.053.048-3.446-3.673-7.565-8.307-4.123-4.64-7.419-8.438-7.366-8.491.053-.048 3.441 3.673 7.57 8.312 4.123 4.639 7.419 8.438 7.366 8.486h-.005Z" fill="#022749"/><path d="m184.597 91.536-21.847 17.407-21.639-17.117" fill="#022749"/><path d="M112.053 58.558h.145l-.58-1.947-1.864-7.423c-.179-.672.199-1.368.876-1.619l1.341-.043 4.593-2.146c.866-.319 1.825.222 1.936 1.107.169 1.362 1.099 5.03 2.086 3.745.024-.03.048-.053.073-.082 1.389-1.91 3.121-2.943 3.833-2.914.697.029.953.87.484 1.372a.86.86 0 0 1-.262.227c-.048.024-.101.068-.15.102-.537.435-1.181 1.203-1.65 1.812a6.22 6.22 0 0 0-1.012 1.933 29.945 29.945 0 0 0-.566 2.015l.358 3.789" fill="#FFBE9D"/><path d="M124.303 24.929s-5.368-1.025-13.078-8.022C103.52 9.919 99.721.447 98.806.518c-.92.073-4.98-1.672-12.138 15.112-7.158 16.783-4.042 20.548-2.527 20.475 1.515-.072 11.742-3.233 18.203-2.687 6.457.551 14.829 3.664 14.829 3.664l7.134-12.154h-.004Z" fill="#022749"/><path d="m135.889 33.642-1.723 3.503-.769 1.57a4.523 4.523 0 0 1-5.828 2.166l-11.543-3.654 6.224-15.362 11.592 5.755a4.509 4.509 0 0 1 2.047 6.027v-.005Z" fill="#022749"/><path d="m129.457 39.359-3.441 7.23-1.835-.455-11.62 9.998-3.509-6.403s6.945-3.223 8.174-5.76c1.23-2.542-.29-3.064-.29-3.064l3.204-3.847 9.322 2.305-.005-.004ZM87.292 15.916c-3.804 9.09-5.266 17.136-3.267 17.972 1.999.836 6.708-5.857 10.512-14.947 3.804-9.09 5.266-17.136 3.267-17.972-1.999-.836-6.708 5.857-10.512 14.947ZM137.012 38.605l-3.127-.885 1.815-3.692 2.367 1.373-1.055 3.204Z" fill="#022749"/><path d="m119.037 38.373 8.48 5.064.977-2.058-9.457-3.006ZM135.7 34.028l-1.815 3.692.644.184 1.457-3.711-.286-.165ZM133.591 34.927c-.044.102-1.607-.454-3.49-1.242-1.887-.788-3.383-1.508-3.339-1.609.043-.102 1.607.454 3.489 1.242 1.888.788 3.378 1.508 3.34 1.61ZM134.481 32.733c-.049.102-1.462-.45-3.161-1.227-1.703-.778-3.044-1.489-2.995-1.59.043-.102 1.461.45 3.16 1.227 1.699.778 3.044 1.489 2.996 1.59ZM132.453 37.232c-.014.053-.387-.019-.977-.183a36 36 0 0 1-1.036-.31c-.387-.125-.789-.314-1.22-.497-1.718-.74-3.034-1.47-2.996-1.561.049-.111 1.448.464 3.151 1.198.426.179.823.377 1.196.522.372.14.711.27.992.382.561.232.905.401.89.454v-.005ZM95.51 13.688s-4.72-2.74-7.076 3.586c-2.357 6.326 2.546 7.215 2.546 7.215 1.907-3.146 3.426-6.732 4.525-10.801h.005ZM100.229 6.096c.029 0-.024.43-.15 1.199-.126.768-.3 1.884-.561 3.252-.18.676-.373 1.416-.576 2.208-.107.397-.213.807-.325 1.228-.058.212-.11.425-.169.643-.063.217-.145.425-.223.647-.31.87-.634 1.783-.968 2.726-.082.236-.169.473-.256.715-.082.242-.203.469-.305.71l-.649 1.44c-.217.484-.435.967-.648 1.436-.111.232-.203.473-.33.696-.125.222-.246.444-.367.667-.489.879-.958 1.725-1.409 2.532-.116.198-.217.406-.338.594l-.368.556c-.242.362-.48.715-.707 1.058l-1.277 1.895c-.857 1.097-1.573 1.962-2.067 2.566-.499.599-.784.923-.803.903-.02-.014.222-.372.682-1 .48-.638 1.147-1.537 1.97-2.643.377-.585.784-1.223 1.224-1.91.223-.342.45-.695.688-1.058.116-.183.237-.367.358-.555.116-.189.218-.392.329-.595.44-.807.9-1.652 1.374-2.527.121-.218.242-.44.363-.662.126-.223.213-.464.325-.696.212-.469.425-.947.643-1.43.218-.484.436-.957.644-1.426.102-.237.223-.464.305-.7.087-.238.174-.475.256-.711l.988-2.702c.077-.217.164-.425.227-.638.058-.212.121-.425.18-.637.115-.416.232-.822.343-1.218l.62-2.185.682-3.213c.169-.759.271-1.18.3-1.175l-.005.01Z" fill="#022749"/><path d="m128.097 75.168-4.796-18.204-11.993.319 3.731 25.404c.479 5.529 3.737 9.148 9.22 10.028 3.291.527 6.853-2.605 9.496-4.63 1.723-1.324 2.033-1.063 3.809-2.677l7.724-5.577.189.914h-.048l1.311 15.527 16.001 12.545 19.084-15.266-.436-6.601c.048-.005.092-.097-.005-.097l-.493-7.486 9.776 11.197a11.155 11.155 0 0 0 10.053 4.814 11.163 11.163 0 0 0 9.568-7.1l5.038-25.593-11.054-2.372-5.179 18.44-12.351-14.173c-7.12-9.264-15.439-8.481-15.439-8.481l-15.333-.271h-.034c-.455.024-9.021.285-14.829 6.48l-13.015 12.865.005-.005Z" fill="#15A9F3"/><path d="M210.24 86.96s-.189-.262-.668-.547c-.47-.285-1.292-.512-2.275-.338-.982.17-2.023.807-3.064 1.633-.527.406-1.074.856-1.689 1.257-.614.396-1.316.758-2.1.903-.784.155-1.568.083-2.285-.062-.721-.15-1.393-.372-2.027-.59-.635-.217-1.23-.43-1.801-.58a8.695 8.695 0 0 0-1.612-.27c-.997-.073-1.81.116-2.303.367-.504.246-.726.478-.741.454-.005-.005.049-.063.16-.164.053-.053.126-.111.218-.174.087-.068.193-.136.324-.203.498-.29 1.331-.508 2.357-.46.513.025 1.07.107 1.65.247.586.145 1.191.353 1.82.566 1.254.406 2.696.903 4.191.623.741-.135 1.409-.478 2.014-.865.605-.387 1.152-.826 1.684-1.232 1.055-.817 2.139-1.47 3.175-1.624 1.031-.16 1.883.111 2.357.43.242.155.392.329.494.44.087.12.13.188.126.193l-.005-.005ZM212.669 73.07s-.13.126-.416.262c-.286.135-.731.28-1.302.328-.566.049-1.249 0-1.979-.179-.731-.169-1.496-.464-2.295-.763-.798-.295-1.563-.56-2.279-.682-.716-.12-1.379-.11-1.917-.004-1.094.203-1.597.749-1.621.7-.01-.01.102-.15.358-.338a3.435 3.435 0 0 1 1.229-.536c.557-.13 1.244-.16 1.99-.049.745.111 1.529.372 2.328.672.798.3 1.553.594 2.26.773.706.179 1.365.251 1.912.227 1.108-.043 1.708-.459 1.727-.41h.005ZM114.478 78.986s.068-.063.232-.112a1.28 1.28 0 0 1 .731.03c.305.096.658.304.953.662.296.352.518.821.77 1.314.242.498.586.996 1.07 1.42.479.43 1.103.755 1.79.987 1.389.463 3.035.492 4.714.227 1.685-.247 3.296-.59 4.797-.575 1.505-.024 2.845.43 3.794 1.048.968.614 1.51 1.416 1.728 2.006.223.594.203.957.203.957-.034.004-.048-.348-.295-.919-.242-.56-.789-1.319-1.738-1.894-.934-.585-2.231-1.005-3.697-.971-1.472 0-3.064.343-4.763.594-1.689.27-3.392.237-4.82-.256-.712-.246-1.355-.594-1.854-1.053a4.658 4.658 0 0 1-1.094-1.499c-.242-.507-.45-.966-.716-1.31a2.046 2.046 0 0 0-.876-.656c-.59-.213-.929.024-.929-.015v.015ZM124.975 64.222c-.029.048-.537-.56-1.689-.875a5.553 5.553 0 0 0-2.052-.135c-.774.087-1.602.348-2.434.7-.833.358-1.602.764-2.318 1.117-.712.353-1.37.643-1.941.841a7.726 7.726 0 0 1-1.384.353c-.334.048-.523.048-.523.034-.005-.044.74-.116 1.849-.556a21.53 21.53 0 0 0 1.902-.884c.701-.363 1.476-.778 2.323-1.141.847-.362 1.703-.623 2.512-.7a5.352 5.352 0 0 1 2.124.193c.586.183 1.012.449 1.273.667.262.217.373.372.363.381l-.005.005Z" fill="#FAFAFA"/><path d="M160.021 106.681c6.214-3.595 13.406-7.814 16.992-14.029 2.294-3.972 3.432-8.723 3.877-13.29l.934 14.184-19.083 15.266-2.72-2.131Z" fill="#022749" opacity=".3"/><path d="M143.918 59.762c-1.466 5.441-4.273 10.129-8.532 13.83-1.026.895-2.144 1.726-3.432 2.165-1.287.44-2.783.445-3.949-.26l.092-.324 9.67-9.564 6.147-5.847h.004Z" fill="#022749" opacity=".2"/><path d="M129.331 82.774c-.039-.014.116-.44.247-1.145a8.383 8.383 0 0 0 .024-2.788 8.239 8.239 0 0 0-.919-2.634c-.354-.628-.639-.981-.605-1.005.019-.02.358.294.755.918.401.618.827 1.566 1.016 2.682a7.274 7.274 0 0 1-.097 2.866c-.179.715-.397 1.12-.421 1.111v-.005ZM126.558 80.339c-.063-.049.779-.928 1.152-2.33.397-1.391.131-2.58.208-2.59.029-.005.136.276.194.764.058.483.038 1.17-.16 1.894a5.137 5.137 0 0 1-.837 1.706c-.3.387-.538.575-.557.556ZM144.562 70.35c.068-.005.465 3.847.886 8.602.421 4.76.706 8.621.634 8.626-.068.005-.465-3.847-.886-8.602-.421-4.755-.707-8.621-.634-8.626ZM170.402 55.543s.044.087.102.26c.068.175.135.436.213.779.14.681.213 1.715-.049 2.953-.271 1.217-.9 2.653-2.11 3.822-1.19 1.18-3 1.938-4.932 1.986-1.931.039-3.775-.642-5.019-1.768-1.258-1.117-1.95-2.518-2.274-3.726-.315-1.223-.286-2.257-.175-2.948.059-.343.117-.61.175-.783.053-.174.082-.266.092-.266.029.01-.092.377-.17 1.063a7.67 7.67 0 0 0 .252 2.885c.339 1.175 1.031 2.533 2.255 3.596 1.205 1.077 2.987 1.725 4.86 1.691 1.868-.048 3.62-.773 4.777-1.904 1.176-1.121 1.81-2.508 2.095-3.692.276-1.203.232-2.218.121-2.895-.106-.681-.247-1.043-.218-1.053h.005ZM198.518 84.659c-.068 0-.179-1.358-.078-3.035.092-1.677.359-3.015.421-3.006.073.01-.077 1.353-.169 3.02-.097 1.663-.097 3.016-.174 3.021ZM200.463 85.534c-.029.01-.198-.363-.411-.986a21.05 21.05 0 0 1-.673-2.489 20.799 20.799 0 0 1-.368-2.552c-.053-.657-.043-1.068-.01-1.068.078-.004.218 1.615.63 3.572.401 1.957.91 3.499.842 3.528l-.01-.005ZM180.89 85.814c-.067 0-.227-2.72-.353-6.08-.126-3.363-.174-6.088-.102-6.088.068 0 .228 2.72.354 6.079.125 3.359.174 6.089.101 6.089Z" fill="#022749"/><path d="M163.544 64.58a6.854 6.854 0 0 1-6.727-6.568c-.111-2.648-.203-5.079-.203-5.079s-5.552-.59-5.886-6.084c-.333-5.5.005-18.175.005-18.175a19.19 19.19 0 0 1 19.355 1.483l.847.59-.402 27.087a6.855 6.855 0 0 1-6.989 6.746Z" fill="#FFBE9D"/><path d="M156.599 52.856s3.494.116 7.081-2.387c0 0-1.506 4.04-7.028 3.813l-.058-1.426h.005Z" fill="#EB996E"/><path d="M170.533 36.478c.092-.043 3.732-1.3 3.795 2.465.063 3.765-3.737 3.054-3.746 2.943-.01-.111-.049-5.408-.049-5.408Z" fill="#FFBE9D"/><path d="M171.709 40.441s.068.044.179.092a.66.66 0 0 0 .494 0c.397-.155.721-.788.726-1.47 0-.342-.073-.666-.199-.937-.121-.275-.3-.464-.503-.497a.336.336 0 0 0-.387.188c-.049.106-.024.179-.044.188-.01.01-.082-.062-.053-.217a.406.406 0 0 1 .145-.237.479.479 0 0 1 .363-.101c.291.014.557.28.697.57.155.295.252.662.247 1.044-.01.759-.387 1.474-.929 1.643-.267.072-.489 0-.605-.092-.117-.092-.141-.174-.126-.184l-.005.01Z" fill="#EB996E"/><path d="M153.366 36.99c-.015.416.324.769.76.793.435.024.798-.295.813-.71.014-.416-.324-.769-.76-.793-.436-.024-.799.295-.813.71ZM152.408 36.208c.096.101.692-.338 1.543-.338.847-.01 1.467.425 1.559.323.043-.043-.053-.232-.324-.43a2.167 2.167 0 0 0-1.249-.386c-.528 0-.973.198-1.229.396-.262.198-.349.386-.3.43v.005ZM161.507 37.087c-.015.416.324.769.759.793.436.024.799-.295.814-.71.014-.416-.325-.769-.76-.793-.436-.024-.799.295-.813.71Z" fill="#022749"/><path d="M160.742 36.362c.096.102.696-.338 1.543-.338.847-.01 1.467.425 1.559.324.043-.044-.053-.232-.324-.43a2.167 2.167 0 0 0-1.249-.387c-.528 0-.973.198-1.229.397-.262.198-.349.386-.3.43v.004ZM157.663 42.64c0-.048-.522-.14-1.374-.246-.218-.025-.421-.068-.46-.213-.053-.155.039-.392.145-.643l.639-1.648c.891-2.344 1.534-4.267 1.437-4.306-.096-.034-.89 1.837-1.781 4.18-.213.58-.416 1.131-.614 1.658-.083.247-.223.522-.112.846.059.16.218.28.359.314.14.043.261.043.367.053.862.048 1.394.048 1.394 0v.005ZM160.161 43.225c-.135-.01-.14.908-.929 1.56-.784.653-1.766.552-1.776.682-.015.058.218.179.634.188.407.015.997-.116 1.481-.517.479-.4.687-.932.716-1.31.034-.381-.067-.613-.13-.603h.004ZM160.519 33.047c.082.232.929.121 1.926.242.997.101 1.801.391 1.931.184.058-.097-.082-.315-.406-.537-.32-.222-.833-.435-1.433-.502-.595-.063-1.142.029-1.505.178-.363.145-.547.329-.513.435ZM152.722 33.758c.15.193.731-.01 1.437-.015.702-.034 1.298.13 1.433-.072.058-.097-.034-.29-.295-.474-.257-.184-.683-.329-1.167-.314-.484.014-.9.188-1.147.387-.246.198-.329.396-.261.488Z" fill="#022749"/><path d="M147.921 25.04c-.058-.682.194-1.416.75-1.817.557-.401 1.419-.377 1.873.14-.261-.918.494-1.982 1.448-2.04.9-.058 1.665.624 2.536.86.847.233 1.757.03 2.575-.294.817-.329 1.577-.783 2.405-1.083a7.155 7.155 0 0 1 5.363.213 7.124 7.124 0 0 1 3.658 3.92c1.206-.378 2.575.236 3.321 1.256.745 1.02.934 2.358.789 3.614-.102.846-.344 1.668-.63 2.47 0 .072.005.14.005.213-.058 3.03-.402 6.582-1.694 6.606-2.255.034-1.718-4.21-1.718-4.21-2.768-1.067-1.737-5.209-2.43-5.837-.692-.628-2.139-2.088-7.932.87-2.251 1.15-5.242 1.111-6.873.744l-.145-.03c-.01 0-.024 0-.034-.004-.019 0-.029-.015-.048-.02a5.29 5.29 0 0 1-1.486-.628c-.523-.333-1.002-.778-1.225-1.358-.222-.58-.14-1.3.315-1.725-.426-.536-.765-1.17-.823-1.85v-.01ZM160.072 81.207v12.06l3.752-13.557" fill="#022749"/><path d="m174.907 75-13.722.178a.066.066 0 0 0-.035.007.097.097 0 0 0-.031.025l-1.026 1.187a.027.027 0 0 0-.006.013.028.028 0 0 0 .001.016c.001.005.004.009.007.012a.016.016 0 0 0 .012.003l8.09-.165a.041.041 0 0 1 .038.013c.011.01.018.026.02.044a.082.082 0 0 1-.009.052.052.052 0 0 1-.033.028l-10.562 2.818a.014.014 0 0 0-.01.006l-3.616 4.187a.136.136 0 0 0-.025.07.156.156 0 0 0 .015.075.09.09 0 0 0 .046.046.066.066 0 0 0 .058-.004l20.821-8.39a.093.093 0 0 0 .048-.05.145.145 0 0 0 .01-.08.12.12 0 0 0-.032-.07.07.07 0 0 0-.059-.02Z" fill="#022749"/><path d="M160.091 76.42v2.16l8.944-2.391-8.944.232Z" fill="#022749"/></g><defs><linearGradient id="b" x1="135.817" y1="149.382" x2="196.606" y2="149.382" gradientUnits="userSpaceOnUse"><stop stop-color="#00D2FF"/><stop offset="1" stop-color="#3A7BD5"/></linearGradient><clipPath id="a"><path fill="#fff" transform="translate(0 .5)" d="M0 0h321v199H0z"/></clipPath></defs></svg>