<svg width="303" height="287" fill="none" xmlns="http://www.w3.org/2000/svg"><g clip-path="url(#a)"><path d="M276.303 196.533V217l6.367-23.007" fill="#EBEBEB"/><path d="m301.479 186.001-23.286.3a.115.115 0 0 0-.06.013.15.15 0 0 0-.052.043l-1.741 2.013a.057.057 0 0 0-.011.022.061.061 0 0 0 .001.027.044.044 0 0 0 .013.021.027.027 0 0 0 .019.005l13.729-.279a.072.072 0 0 1 .065.021.132.132 0 0 1 .035.076.15.15 0 0 1-.016.087.086.086 0 0 1-.056.047l-17.924 4.782a.03.03 0 0 0-.017.011l-6.136 7.106a.224.224 0 0 0-.041.119.245.245 0 0 0 .024.127.155.155 0 0 0 .079.077.108.108 0 0 0 .097-.007l35.334-14.239a.159.159 0 0 0 .081-.084.25.25 0 0 0 .017-.136.207.207 0 0 0-.055-.116.118.118 0 0 0-.099-.036Z" fill="#EBEBEB"/><path d="M276.333 188.411v3.663l15.179-4.056-15.179.393ZM121.963 267.163v17.804l5.538-20.014" fill="#EBEBEB"/><path d="m143.863 258.001-20.256.261a.11.11 0 0 0-.097.049l-1.515 1.751a.044.044 0 0 0-.01.019.059.059 0 0 0 .001.023c.003.008.006.014.012.018.005.004.01.006.016.005l11.943-.243a.06.06 0 0 1 .056.018c.017.016.027.04.031.067a.127.127 0 0 1-.014.075.073.073 0 0 1-.049.041l-15.592 4.16a.024.024 0 0 0-.015.009l-5.338 6.182a.195.195 0 0 0-.035.103.205.205 0 0 0 .021.111c.016.033.04.056.068.068a.095.095 0 0 0 .085-.007l30.737-12.386a.138.138 0 0 0 .07-.074.213.213 0 0 0 .016-.118.182.182 0 0 0-.049-.101.097.097 0 0 0-.086-.031Z" fill="#EBEBEB"/><path d="M121.989 260.097v3.187l13.204-3.529-13.204.342ZM41.448 243.441l-7.064-4.856s-4.08 5.926-10.314 1.794c-3.236-2.146-3.456-5.381-3.024-7.453.499-2.405 2.2-4.365 4.44-5.375 2.558-1.149 6.42-1.142 10.6 2.97l10.958-15.917-6.985-4.803-6.42 9.327s-11.536-4.205-18.96 6.583c-7.103 10.323.506 19.092 4.473 21.816 3.03 2.086 13.863 8.457 22.303-4.092l-.007.006ZM42.235 206.472l7.084 4.873 4.555-6.617-7.085-4.872-4.554 6.616ZM71.56 262.965l3.747-.989s-.83-3.149 2.426-4.066c1.695-.478 2.864.405 3.449 1.163.678.883.85 2.039.532 3.109-.36 1.215-1.502 2.537-4.147 2.756l2.233 8.45 3.708-.976-1.31-4.949s4.845-2.717 3.337-8.444c-1.449-5.48-6.699-5.46-8.806-4.902-1.608.425-6.99 2.258-5.177 8.855l.007-.007ZM84.03 274.132l-3.766.993.927 3.513 3.766-.993-.928-3.513Z" fill="#EBEBEB"/><path d="M133.856 26.26a24.801 24.801 0 0 1 6.074-2.637l1.249-6.012 10.162-.18 1.462 5.966a25.09 25.09 0 0 1 6.167 2.425l5.137-3.369 7.31 7.056-3.183 5.248a24.708 24.708 0 0 1 2.638 6.078l6.014 1.249.18 10.157-5.968 1.462a25.05 25.05 0 0 1-2.426 6.164l3.363 5.135-7.058 7.308-5.25-3.182a24.78 24.78 0 0 1-6.074 2.637l-1.249 6.012-10.161.18-1.462-5.966a25.06 25.06 0 0 1-6.167-2.425l-5.137 3.368-7.311-7.055 3.184-5.248a24.777 24.777 0 0 1-2.639-6.072l-6.014-1.248-.179-10.158 5.967-1.461a25.05 25.05 0 0 1 2.426-6.165l-3.369-5.135 7.057-7.307 5.25 3.182.007-.007Zm5.416 13.532c-4.18 4.331-4.06 11.227.273 15.412 4.333 4.178 11.231 4.059 15.417-.273 4.181-4.33 4.061-11.226-.272-15.411-4.333-4.179-11.231-4.06-15.418.272Z" fill="#F5F5F5"/><path d="M91.297 5.089A14.32 14.32 0 0 1 94.8 3.567l.718-3.46 5.855-.1.844 3.434c1.229.299 2.419.77 3.549 1.395l2.957-1.94 4.213 4.066-1.834 3.023a14.332 14.332 0 0 1 1.522 3.5l3.462.718.1 5.852-3.436.844a14.353 14.353 0 0 1-1.395 3.547l1.94 2.957-4.067 4.211-3.024-1.833a14.323 14.323 0 0 1-3.502 1.521l-.718 3.461-5.855.1-.844-3.435a14.344 14.344 0 0 1-3.548-1.395l-2.958 1.94-4.213-4.066 1.834-3.022a14.305 14.305 0 0 1-1.522-3.501l-3.462-.718-.1-5.852 3.436-.844c.3-1.229.771-2.418 1.396-3.547l-1.94-2.956 4.066-4.212 3.024 1.834Zm3.117 7.792a6.28 6.28 0 0 0 .153 8.875c2.492 2.405 6.473 2.338 8.878-.153 2.406-2.49 2.34-6.47-.153-8.875-2.492-2.405-6.472-2.338-8.878.153ZM278.111 113.709a14.31 14.31 0 0 1 3.503-1.521l.717-3.461 5.855-.1.844 3.435a14.09 14.09 0 0 1 3.549 1.395l2.957-1.94 4.214 4.066-1.835 3.022a14.262 14.262 0 0 1 1.522 3.501l3.463.717.099 5.853-3.436.844a14.077 14.077 0 0 1-1.395 3.547l1.94 2.956-4.067 4.212-3.023-1.834a14.351 14.351 0 0 1-3.503 1.522l-.724 3.461-5.855.099-.844-3.434a14.375 14.375 0 0 1-3.549-1.395l-2.957 1.94-4.213-4.066 1.834-3.022a14.354 14.354 0 0 1-1.522-3.501l-3.462-.718-.1-5.852 3.436-.844a14.346 14.346 0 0 1 1.395-3.547l-1.94-2.957 4.067-4.211 3.024 1.833h.006Zm3.117 7.793a6.28 6.28 0 0 0 .153 8.875c2.492 2.404 6.473 2.338 8.879-.153 2.405-2.491 2.339-6.47-.153-8.875-2.492-2.405-6.473-2.339-8.879.153Z" fill="#EBEBEB"/><path d="M293.869 286.827c0 .093-63.014.173-140.734.173s-140.747-.08-140.747-.173c0-.093 63-.172 140.747-.172 77.747 0 140.734.079 140.734.172ZM263.219 286.349l-94.381-.053c-11.35 0-20.548-9.207-20.548-20.554l.047-236.52c0-11.352 9.21-20.553 20.568-20.546l94.381.053c11.35.007 20.548 9.207 20.548 20.554l-.047 236.519c0 11.353-9.21 20.554-20.568 20.547Z" fill="#022749"/><path d="m263.192 17.093-18.295-.014c-2.452 0-4.446 2.08-4.446 4.644v3.315c0 2.564-1.994 4.643-4.446 4.643l-35.667-.02c-2.452 0-4.446-2.079-4.439-4.643v-3.315c0-2.564-1.987-4.644-4.439-4.644h-6.433l-16.016-.013c-7.955 0-14.408 6.437-14.408 14.389l-.046 230.859c0 7.946 6.439 14.389 14.387 14.396l94.189.053c7.954 0 14.401-6.437 14.407-14.389l.047-230.86c0-7.944-6.44-14.388-14.388-14.395l-.007-.006Z" fill="#fff"/><path d="M277.574 65.62V31.23c-.14-7.825-6.519-14.123-14.381-14.13l-18.296-.013c-2.452 0-4.445 2.08-4.445 4.643v3.315c0 2.564-1.994 4.644-4.446 4.644l-35.667-.02c-2.453 0-4.446-2.08-4.44-4.644V21.71c0-2.564-1.987-4.643-4.439-4.643h-6.433l-16.016-.013c-7.955 0-14.407 6.437-14.407 14.389v34.291h122.977v-.1l-.007-.013Z" fill="#EBEBEB"/><path d="M179.671 112.261c8.232 0 14.906-6.656 14.906-14.867 0-8.211-6.674-14.867-14.906-14.867-8.233 0-14.906 6.656-14.906 14.867 0 8.211 6.673 14.867 14.906 14.867Z" fill="#E0E0E0"/><path d="m172.713 101.114 3.901-.332 9.529 1.607 1.124 7.168-.16.837c-4.605 2.558-9.762 2.491-14.128.326l-.273-9.599" fill="#022749"/><path d="M184.11 102.277s3.004-.592 4.945 2.172c1.189 1.694 1.774 2.816 1.774 2.816-1.548 1.688-2.811 2.97-4.971 3.714l-1.748-8.702ZM172.713 101.114s-2.579.312-3.582 2.511c-1.004 2.199-1.23 2.89-1.23 2.89 1.336 1.601 3.031 3.501 5.111 4.211 0 0 .472-5.533.538-7.101.067-1.714.14-2.564-.837-2.511ZM175.072 87.03c1.395-1.7 3.263-2.677 5.462-2.71 1.243-.02 1.755.24 2.645.479.891.239 1.702.717 2.233 1.474.631.897 1.163 1.9 1.283 2.99.126 1.122.246 2.245.159 3.368-.086 1.123-.392 2.252-1.056 3.168l-2.865.499c-1.581.053-3.19.106-4.731-.253-1.542-.358-3.037-1.189-3.868-2.537-1.15-1.874-.671-4.777.724-6.47l.014-.007Z" fill="#022749"/><path d="M172.294 95.328c.073-.645.412-1.276.97-1.608.558-.332 1.343-.299 1.808.16l.452.538c.704.299 1.149 1.102 1.063 1.86-.086.757-.671 1.428-1.402 1.654-.731.226-1.575.007-2.133-.512a2.508 2.508 0 0 1-.751-2.085l-.007-.007Z" fill="#022749"/><path d="M172.866 97.254s-.18-.192-.153-.571c.027-.365.292-.844.658-1.282a3.85 3.85 0 0 1 1.15-.917c.338-.18.564-.246.558-.265 0-.014-.246.02-.605.179a3.378 3.378 0 0 0-1.209.917 3.384 3.384 0 0 0-.466.704c-.113.232-.186.465-.186.67a.83.83 0 0 0 .127.452c.066.093.119.127.126.12v-.007Z" fill="#022749"/><path d="m182.921 101.765-.013-2.65s2.339-.26 2.983-3.242c.319-1.488.379-3.946.366-5.96-.013-1.813-1.562-4.284-3.808-4.29l-.997-.114-3.821 1.515c-.552.027-.99.472-1.01 1.023l-.113 12.761 1.748 2.452c1.448 2.032 4.658 1.016 4.671-1.482l-.006-.013Z" fill="#FFBE9D"/><path d="M181.392 95.168a.613.613 0 0 1 .219-.392.65.65 0 0 1 .791-.046c.239.166.379.505.332.817a.78.78 0 0 1-.565.326h-.106a.669.669 0 0 1-.479-.193.625.625 0 0 1-.186-.525l-.006.013Z" fill="#EB996E"/><path d="M184.868 91.986c0 .206-.18.372-.392.372a.369.369 0 0 1-.379-.372c0-.206.179-.372.392-.372a.37.37 0 0 1 .379.372ZM185.505 91.023c-.053.047-.332-.186-.751-.206-.418-.026-.731.173-.777.113-.02-.026.033-.113.172-.2.14-.086.366-.172.625-.152.259.013.472.126.592.226.119.106.159.2.139.22ZM182.887 94.179s.259-.053.685-.087c.106 0 .206-.02.232-.093.027-.073-.006-.192-.053-.319-.086-.265-.173-.538-.272-.823-.373-1.176-.638-2.14-.592-2.153.047-.013.392.924.764 2.1.087.292.173.564.26.83.033.126.093.266.033.418a.256.256 0 0 1-.186.146c-.067.02-.127.014-.18.014-.425 0-.684-.014-.684-.04l-.007.007Z" fill="#022749"/><path d="M182.9 99.114s-2.04.02-3.987-1.295c0 0 .964 2.146 4.001 2.033l-.014-.73v-.008Z" fill="#EB996E"/><path d="M181.645 94.398c.066 0 .046.452.412.79.365.346.857.32.857.379 0 .027-.113.08-.319.073-.199 0-.485-.086-.711-.292a.995.995 0 0 1-.319-.665c-.007-.192.047-.299.08-.292v.007ZM185.419 89.455c-.073.1-.392.014-.765.02-.372 0-.691.093-.764 0-.033-.046.013-.146.146-.239a1.12 1.12 0 0 1 .618-.18c.26 0 .486.074.619.167.139.093.186.186.152.232h-.006ZM180.302 91.96c-.014.206.152.379.365.398a.373.373 0 0 0 .405-.338c.014-.206-.152-.379-.365-.399-.213-.013-.399.14-.405.339ZM179.79 90.877c.047.053.346-.16.764-.153.419 0 .718.22.764.173.02-.02-.026-.113-.159-.213-.133-.1-.352-.199-.611-.199-.26 0-.479.086-.605.186-.133.093-.173.186-.153.213v-.007ZM179.551 89.98c.08.093.406 0 .791 0 .386-.013.711.073.791-.02.033-.046-.013-.146-.16-.232a1.196 1.196 0 0 0-.638-.166 1.15 1.15 0 0 0-.631.18c-.139.092-.186.192-.153.238Z" fill="#022749"/><path d="M177.132 93.102c.013-.225-.219-.77-.438-.817-.592-.126-1.662-.132-1.755 1.369-.126 2.053 1.967 1.754 1.974 1.7 0-.046.179-1.474.219-2.252Z" fill="#FFBE9D"/><path d="M176.395 94.564s-.04.02-.1.046a.375.375 0 0 1-.266-.013c-.212-.093-.372-.452-.359-.817 0-.186.054-.365.133-.505.074-.146.173-.246.286-.259a.18.18 0 0 1 .206.113c.027.06.007.1.02.106 0 0 .047-.033.033-.12 0-.04-.026-.092-.073-.132a.304.304 0 0 0-.192-.067c-.16 0-.313.14-.393.293-.093.16-.152.352-.159.564-.013.412.173.818.472.917a.384.384 0 0 0 .332-.033c.067-.047.08-.093.073-.093h-.013Z" fill="#EB996E"/><path d="m176.607 92.292.525.538c2.259-2.159 6.672-7.56 6.426-7.234 0 0-1.548-.638-3.23-.352-1.681.285-4.864 1.122-4.818 3.102.047 1.973 1.097 3.946 1.097 3.946Z" fill="#022749"/><path d="M173.616 91.84s.007-.04.033-.12c.027-.079.067-.185.14-.325.146-.272.418-.638.857-.963.439-.339 1.043-.611 1.735-.83.691-.226 1.462-.399 2.226-.725a10.038 10.038 0 0 0 2.033-1.135 10.401 10.401 0 0 0 2.267-2.233c.086-.112.152-.212.206-.285.046-.067.073-.1.079-.093 0 0-.02.04-.059.106a9.226 9.226 0 0 1-1.004 1.302 9.908 9.908 0 0 1-3.489 2.438c-.771.332-1.555.505-2.239.718-.685.212-1.283.471-1.715.797a3.184 3.184 0 0 0-.871.923c-.152.26-.199.425-.206.425h.007Z" fill="#022749"/><path d="M174.214 92.16s-.019-.167.08-.453c.093-.279.339-.657.771-.97.432-.318 1.043-.518 1.721-.67.678-.147 1.409-.34 2.134-.678a8.943 8.943 0 0 0 1.9-1.17c.538-.431.97-.876 1.303-1.281.339-.399.565-.758.724-.997.073-.12.126-.212.173-.285.04-.067.066-.1.066-.1s-.013.04-.046.106c-.04.08-.093.18-.16.3-.153.252-.372.617-.704 1.022-.332.412-.764.87-1.303 1.309a8.63 8.63 0 0 1-1.92 1.189c-.731.339-1.482.531-2.16.678-.671.146-1.276.332-1.695.637-.425.293-.671.651-.777.924-.113.265-.107.438-.12.431l.013.007ZM173.012 110.72c-.04 0-.067-.877-.067-1.967 0-1.089.034-1.966.067-1.966s.066.877.066 1.966c0 1.09-.033 1.967-.066 1.967ZM187.12 110.447s0-.265.02-.697c.02-.425.047-1.023-.059-1.667-.107-.645-.326-1.196-.479-1.601-.159-.399-.259-.651-.239-.658.013-.007.146.226.332.618.18.392.412.956.525 1.614.106.658.067 1.262.02 1.694-.046.432-.106.691-.12.691v.006Z" fill="#022749"/><path d="M258.847 116.273h-50.799a4.564 4.564 0 0 1-4.566-4.563V90.385l-5.602-4.969h60.967a4.564 4.564 0 0 1 4.565 4.564v21.73a4.564 4.564 0 0 1-4.565 4.563Z" fill="#EBEBEB"/><path d="M255.364 119.728c0 .093-2.425.173-5.416.173-2.99 0-5.423-.08-5.423-.173 0-.093 2.426-.173 5.423-.173s5.416.08 5.416.173Z" fill="#E0E0E0"/><path d="M257.604 120.153c-.06-.007-.087-.02-.12-.053l-1.05-1.096a.167.167 0 0 1 0-.233c.067-.06.173-.06.233 0l.93.977 2.04-2.073c.067-.066.173-.066.233 0a.162.162 0 0 1 0 .233l-2.16 2.192s-.073.046-.12.046l.014.007ZM259.105 120.12h-.199c-.093-.007-.166-.087-.159-.173 0-.093.093-.159.172-.159h.12l2.107-2.139a.159.159 0 0 1 .232 0 .159.159 0 0 1 0 .232l-2.16 2.192s-.073.047-.119.047h.006Z" fill="#15A9F3"/><path d="M255.364 203.211c0 .093-2.425.173-5.416.173-2.99 0-5.423-.08-5.423-.173 0-.093 2.426-.173 5.423-.173s5.416.08 5.416.173Z" fill="#E0E0E0"/><path d="M257.604 203.636a.167.167 0 0 1-.12-.053l-1.05-1.096a.166.166 0 0 1 0-.232c.067-.06.173-.06.233 0l.93.969 2.04-2.072a.16.16 0 0 1 .233 0 .16.16 0 0 1 0 .232l-2.16 2.192s-.073.054-.12.054l.014.006ZM259.105 203.603h-.199c-.093-.007-.166-.086-.159-.173 0-.093.073-.179.172-.159h.12l2.107-2.139a.159.159 0 0 1 .232 0c.067.066.067.173 0 .232l-2.16 2.193s-.073.053-.119.053l.006-.007Z" fill="#15A9F3"/><path d="M258.195 91.521c0 .093-11.091.173-24.768.173-13.676 0-24.775-.08-24.775-.173 0-.093 11.092-.172 24.775-.172 13.683 0 24.768.08 24.768.172ZM258.195 95.162c0 .093-11.091.172-24.768.172-13.676 0-24.775-.08-24.775-.172 0-.093 11.092-.173 24.775-.173 13.683 0 24.768.08 24.768.173ZM258.195 98.796c0 .092-11.091.172-24.768.172-13.676 0-24.775-.08-24.775-.172 0-.094 11.092-.173 24.775-.173 13.683 0 24.768.08 24.768.172Z" fill="#fff"/><path d="M179.671 204.978c8.232 0 14.906-6.656 14.906-14.867 0-8.211-6.674-14.867-14.906-14.867-8.233 0-14.906 6.656-14.906 14.867 0 8.211 6.673 14.867 14.906 14.867Z" fill="#E0E0E0"/><path d="m172.713 193.831 3.901-.332 9.529 1.608 1.124 7.167-.16.837c-4.605 2.558-9.762 2.492-14.128.326l-.273-9.599" fill="#022749"/><path d="M184.11 194.994s3.004-.592 4.945 2.172c1.189 1.694 1.774 2.817 1.774 2.817-1.548 1.687-2.811 2.969-4.971 3.713l-1.748-8.702ZM172.713 193.831s-2.579.312-3.582 2.511c-1.004 2.199-1.23 2.89-1.23 2.89 1.336 1.601 3.031 3.501 5.111 4.212 0 0 .472-5.534.538-7.102.067-1.714.14-2.564-.837-2.511ZM175.072 179.748c1.395-1.701 3.263-2.677 5.462-2.711 1.243-.019 1.755.24 2.645.479.891.239 1.702.717 2.233 1.475.631.896 1.163 1.899 1.283 2.989.126 1.123.246 2.245.159 3.368-.086 1.123-.392 2.252-1.056 3.169l-2.865.498c-1.581.053-3.19.106-4.731-.253-1.542-.358-3.037-1.189-3.868-2.537-1.15-1.874-.671-4.777.724-6.471l.014-.006Z" fill="#022749"/><path d="M172.294 188.045c.073-.644.412-1.275.97-1.608.558-.332 1.343-.299 1.808.16l.452.538c.704.299 1.149 1.103 1.063 1.86-.086.757-.671 1.428-1.402 1.654-.731.226-1.575.007-2.133-.511a2.508 2.508 0 0 1-.751-2.086l-.007-.007Z" fill="#022749"/><path d="M172.866 189.971s-.18-.192-.153-.571c.027-.365.292-.843.658-1.282a3.863 3.863 0 0 1 1.15-.917c.338-.179.564-.245.558-.265 0-.014-.246.02-.605.179a3.445 3.445 0 0 0-1.209.917 3.376 3.376 0 0 0-.466.704c-.113.232-.186.465-.186.671 0 .206.067.359.127.452.066.093.119.126.126.119v-.007Z" fill="#022749"/><path d="m182.934 194.721-.014-2.65s2.339-.259 2.984-3.242c.319-1.488.379-3.946.366-5.959-.014-1.813-1.562-4.285-3.808-4.291l-.997-.113-3.821 1.514a1.063 1.063 0 0 0-1.011 1.023l-.112 12.762 1.747 2.451c1.449 2.033 4.659 1.016 4.672-1.481l-.006-.014Z" fill="#FFBE9D"/><path d="M181.392 187.886a.611.611 0 0 1 .219-.392.65.65 0 0 1 .791-.047c.239.166.379.505.332.817a.781.781 0 0 1-.565.326h-.106a.668.668 0 0 1-.479-.193.625.625 0 0 1-.186-.525l-.006.014Z" fill="#EB996E"/><path d="M184.868 184.956c0 .206-.18.372-.392.372a.369.369 0 0 1-.379-.372c0-.206.179-.372.392-.372a.37.37 0 0 1 .379.372ZM185.505 183.993c-.053.046-.332-.186-.751-.206-.418-.027-.731.173-.777.113-.02-.027.033-.113.172-.2.14-.086.366-.172.625-.152.259.013.472.126.592.226.119.106.159.199.139.219ZM182.887 187.142s.259-.054.685-.087c.106 0 .206-.02.232-.093.027-.073-.006-.192-.053-.319-.086-.265-.173-.538-.272-.823-.373-1.176-.638-2.139-.592-2.153.047-.013.392.924.764 2.099.087.293.173.565.26.831.033.119.093.266.033.418a.255.255 0 0 1-.186.146c-.067.02-.127.014-.18.014-.425 0-.684-.014-.684-.04l-.007.007Z" fill="#022749"/><path d="M182.9 192.077s-2.04.02-3.987-1.295c0 0 .964 2.146 4.001 2.033l-.014-.731v-.007Z" fill="#EB996E"/><path d="M181.645 187.361c.066 0 .046.452.412.79.365.346.857.319.857.379 0 .027-.113.08-.319.073-.199 0-.485-.086-.711-.292a.998.998 0 0 1-.319-.665c-.007-.192.047-.299.08-.292v.007ZM185.419 182.425c-.073.1-.392.013-.765.02-.372 0-.691.093-.764 0-.033-.047.013-.146.146-.239a1.12 1.12 0 0 1 .618-.18c.26 0 .486.073.619.166.139.093.186.186.152.233h-.006ZM180.302 184.929c-.014.206.152.379.365.399a.374.374 0 0 0 .405-.339c.014-.206-.152-.378-.365-.398-.213-.014-.399.139-.405.338ZM179.79 183.847c.047.053.346-.16.764-.153.419 0 .718.219.764.173.02-.02-.026-.113-.159-.213a1.041 1.041 0 0 0-.611-.199c-.26 0-.479.086-.605.186-.133.093-.173.186-.153.212v-.006ZM179.551 182.95c.08.093.406 0 .791 0 .386-.014.711.073.791-.02.033-.047-.013-.146-.16-.233a1.196 1.196 0 0 0-.638-.166c-.265 0-.498.087-.631.18-.139.093-.186.192-.153.239Z" fill="#022749"/><path d="M177.132 185.813c.013-.226-.219-.771-.438-.817-.592-.126-1.662-.133-1.755 1.368-.126 2.053 1.967 1.754 1.974 1.701 0-.047.179-1.475.219-2.252Z" fill="#FFBE9D"/><path d="M176.395 187.281s-.04.02-.1.047a.377.377 0 0 1-.266-.014c-.212-.093-.372-.451-.359-.817 0-.186.054-.365.133-.505.074-.146.173-.245.286-.259a.18.18 0 0 1 .206.113c.027.06.007.1.02.106 0 0 .047-.033.033-.119 0-.04-.026-.093-.073-.133a.303.303 0 0 0-.192-.066c-.16 0-.313.139-.393.292a1.196 1.196 0 0 0-.159.565c-.013.411.173.817.472.916a.38.38 0 0 0 .332-.033c.067-.046.08-.093.073-.093h-.013Z" fill="#EB996E"/><path d="m176.607 185.009.525.538c2.259-2.159 6.672-7.56 6.426-7.234 0 0-1.548-.638-3.23-.352-1.681.286-4.864 1.123-4.818 3.102.047 1.973 1.097 3.946 1.097 3.946Z" fill="#022749"/><path d="M173.616 184.551s.007-.04.033-.12a2.16 2.16 0 0 1 .14-.325c.146-.273.418-.638.857-.964.439-.338 1.043-.611 1.735-.83.691-.226 1.462-.399 2.226-.724a10 10 0 0 0 2.033-1.136 10.428 10.428 0 0 0 2.267-2.232c.086-.113.152-.213.206-.286.046-.066.073-.099.079-.093 0 0-.02.04-.059.107a9.34 9.34 0 0 1-1.004 1.302 9.922 9.922 0 0 1-3.489 2.438c-.771.332-1.555.504-2.239.717-.685.213-1.283.472-1.715.797a3.187 3.187 0 0 0-.871.924c-.152.259-.199.425-.206.425h.007Z" fill="#022749"/><path d="M174.214 184.876s-.019-.166.08-.451c.093-.279.339-.658.771-.97.432-.319 1.043-.518 1.721-.671.678-.146 1.409-.339 2.134-.678a8.926 8.926 0 0 0 1.9-1.169c.538-.432.97-.877 1.303-1.282.339-.399.565-.757.724-.997.073-.119.126-.212.173-.285.04-.067.066-.1.066-.1s-.013.04-.046.106c-.04.08-.093.18-.16.299-.153.253-.372.618-.704 1.023a8.843 8.843 0 0 1-3.223 2.498c-.731.339-1.482.532-2.16.678-.671.146-1.276.332-1.695.637-.425.293-.671.651-.777.924-.113.266-.107.438-.12.432l.013.006ZM173.012 203.43c-.04 0-.067-.877-.067-1.966s.034-1.966.067-1.966.066.877.066 1.966-.033 1.966-.066 1.966ZM187.12 203.158s0-.266.02-.698c.02-.425.047-1.023-.059-1.667-.107-.644-.326-1.196-.479-1.601-.159-.399-.259-.651-.239-.658.013-.006.146.226.332.618.18.392.412.957.525 1.614.106.658.067 1.263.02 1.694-.046.432-.106.691-.12.691v.007Z" fill="#022749"/><path d="M258.847 198.853h-50.799a4.564 4.564 0 0 1-4.566-4.564v-11.186l-5.602-4.969h60.967a4.564 4.564 0 0 1 4.565 4.563v11.592a4.564 4.564 0 0 1-4.565 4.564Z" fill="#EBEBEB"/><path d="M258.195 184.239c0 .093-11.091.172-24.768.172-13.676 0-24.775-.079-24.775-.172 0-.093 11.092-.173 24.775-.173 13.683 0 24.768.08 24.768.173ZM258.195 187.872c0 .093-11.091.173-24.768.173-13.676 0-24.775-.08-24.775-.173 0-.093 11.092-.172 24.775-.172 13.683 0 24.768.079 24.768.172ZM258.195 191.513c0 .093-11.091.172-24.768.172-13.676 0-24.775-.079-24.775-.172 0-.093 11.092-.173 24.775-.173 13.683 0 24.768.08 24.768.173ZM258.195 102.436c0 .093-11.091.173-24.768.173-13.676 0-24.775-.08-24.775-.173 0-.093 11.092-.173 24.775-.173 13.683 0 24.768.08 24.768.173ZM258.195 106.07c0 .093-11.091.172-24.768.172-13.676 0-24.775-.079-24.775-.172 0-.093 11.092-.173 24.775-.173 13.683 0 24.768.08 24.768.173ZM258.195 110.447c0 .093-11.091.173-24.768.173-13.676 0-24.775-.08-24.775-.173 0-.093 11.092-.172 24.775-.172 13.683 0 24.768.079 24.768.172Z" fill="#fff"/><path d="M208.918 47.225c0-1.448 1.116-2.49 2.612-2.49.83 0 1.528.305 1.98.85l-.718.657c-.325-.372-.731-.564-1.209-.564-.904 0-1.542.63-1.542 1.54 0 .911.638 1.542 1.542 1.542.478 0 .884-.193 1.209-.571l.718.657c-.452.558-1.15.857-1.987.857-1.495 0-2.605-1.036-2.605-2.49v.012ZM217.969 47.518v2.119h-1.07v-1.953c0-.598-.272-.87-.751-.87-.518 0-.884.319-.884.996v1.827h-1.07v-5.102h1.07v1.787c.286-.286.705-.438 1.177-.438.87 0 1.535.511 1.535 1.634h-.007ZM222.209 47.524v2.113h-1.004v-.458c-.199.338-.584.518-1.129.518-.864 0-1.383-.479-1.383-1.123s.459-1.11 1.589-1.11h.85c0-.458-.272-.73-.85-.73-.392 0-.798.133-1.064.345l-.385-.75c.405-.286 1.003-.445 1.595-.445 1.13 0 1.781.524 1.781 1.64Zm-1.07.944v-.379h-.738c-.498 0-.658.186-.658.432 0 .266.226.445.605.445.359 0 .665-.166.791-.505v.007ZM225.559 49.45c-.22.16-.545.233-.871.233-.87 0-1.382-.445-1.382-1.328v-1.521h-.572v-.824h.572v-.897h1.07v.897h.924v.824h-.924v1.508c0 .318.173.485.458.485.16 0 .319-.047.432-.14l.286.757.007.007ZM244.525 54.64c0 .092-11.324.172-25.294.172-13.969 0-25.299-.08-25.299-.173 0-.093 11.324-.173 25.299-.173 13.976 0 25.294.08 25.294.173ZM266.941 47.225a1.176 1.176 0 1 0 0-2.35 1.176 1.176 0 0 0 0 2.35ZM268.117 49.477c0 .652-.525 1.176-1.176 1.176a1.174 1.174 0 0 1-1.176-1.175c0-.651.525-1.176 1.176-1.176.651 0 1.176.525 1.176 1.175ZM268.117 52.912c0 .651-.525 1.176-1.176 1.176a1.174 1.174 0 0 1-1.176-1.176c0-.651.525-1.176 1.176-1.176.651 0 1.176.525 1.176 1.176ZM171.284 50.035a.328.328 0 0 1-.2-.066l-3.117-2.285a.313.313 0 0 1-.132-.273c0-.106.053-.205.139-.265l3.117-2.246a.337.337 0 0 1 .465.074.337.337 0 0 1-.073.465l-2.745 1.98 2.752 2.012a.337.337 0 0 1 .073.465.337.337 0 0 1-.266.133l-.013.006Z" fill="#022749"/><path d="M252.62 161.739c8.232 0 14.906-6.657 14.906-14.868s-6.674-14.867-14.906-14.867-14.906 6.656-14.906 14.867c0 8.211 6.674 14.868 14.906 14.868Z" fill="#E0E0E0"/><path d="M256.7 155.653h-7.835a1.01 1.01 0 1 1 0-2.019h7.835a1.01 1.01 0 1 1 0 2.019ZM253.231 137.199h-.691v3.481h.691v-3.481Z" fill="#022749"/><path d="M242.718 151.116a2.02 2.02 0 1 0 0-4.04 2.02 2.02 0 0 0 0 4.04ZM263.146 150.983a2.02 2.02 0 1 0 .002-4.04 2.02 2.02 0 0 0-.002 4.04Z" fill="#15A9F3"/><path d="M253.185 139.949s8.227-.099 9.529 7.022c1.303 7.121-5.655 7.254-7.655 7.394-.911.059-2.851.066-4.559.04-3.795-.067-6.473-.798-7.384-4.318a6.739 6.739 0 0 1-.206-1.263c-.239-3.853 2.373-9.067 10.281-8.875h-.006Z" fill="#15A9F3"/><path d="m247.217 150.797 11.955.186a2.266 2.266 0 0 0 2.306-2.232 2.27 2.27 0 0 0-2.233-2.305l-11.955-.186a2.266 2.266 0 0 0-2.306 2.232 2.266 2.266 0 0 0 2.233 2.305Z" fill="#022749"/><path d="M256.686 148.506a.73.73 0 1 0 1.43-.288.73.73 0 0 0-1.43.288ZM248.333 148.373a.729.729 0 1 0 1.429-.287.729.729 0 0 0-1.429.287Z" fill="#fff"/><path d="M254.015 137.133c0 .624-.505 1.136-1.136 1.136a1.132 1.132 0 0 1-1.137-1.136c0-.631.505-1.136 1.137-1.136.631 0 1.136.505 1.136 1.136Z" fill="#15A9F3"/><path d="M254.593 148.173s.053.054.073.173c.02.12.02.299-.046.505-.06.206-.193.445-.399.644a1.414 1.414 0 0 1-.858.406 1.438 1.438 0 0 1-.917-.246 1.492 1.492 0 0 1-.511-.565 1.11 1.11 0 0 1-.133-.491c0-.12.02-.186.04-.186.053 0 .066.252.285.558.107.152.266.312.472.431.206.12.465.2.731.18.266-.027.505-.146.691-.306.18-.159.313-.345.386-.511.159-.339.126-.598.179-.598l.007.006Z" fill="#fff"/><path d="M262.694 146.745s.027.06.067.173c.02.06.04.126.06.212.02.087.046.18.066.286.047.213.08.465.106.751.02.285.02.598-.006.93a6.978 6.978 0 0 1-.153.917 6.22 6.22 0 0 1-.233.724 3.084 3.084 0 0 1-.119.265c-.033.08-.067.146-.1.2-.06.106-.093.166-.093.159 0 0 .02-.066.073-.173.027-.053.06-.119.087-.199.033-.08.073-.166.106-.266a5.38 5.38 0 0 0 .219-.717 5.93 5.93 0 0 0 .146-.91c.027-.326.027-.638.014-.924a6.29 6.29 0 0 0-.093-.744c-.014-.106-.04-.199-.06-.285-.02-.087-.033-.153-.053-.213-.034-.119-.047-.179-.04-.186h.006ZM243.203 146.785s-.027.06-.067.173a2.553 2.553 0 0 0-.059.212c-.02.087-.047.18-.067.286-.046.213-.08.465-.106.751-.02.285-.02.597.006.93.034.332.087.637.153.916.073.279.153.525.233.724.04.1.08.186.12.266.033.08.066.146.099.199.06.107.093.167.093.16 0 0-.02-.067-.073-.173-.026-.053-.06-.119-.086-.199-.033-.08-.073-.166-.107-.266a5.693 5.693 0 0 1-.219-.717 7.243 7.243 0 0 1-.153-.91 7.405 7.405 0 0 1-.013-.924 6.29 6.29 0 0 1 .093-.744c.013-.106.04-.199.06-.285.02-.087.033-.153.053-.213.033-.12.047-.179.04-.179v-.007Z" fill="#022749"/><path d="M244.983 159.639s2.439-2.385 7.556-2.385c5.118 0 7.729 2.385 7.729 2.385s-7.124 4.81-15.285 0Z" fill="#15A9F3"/><path d="M171.051 162.031h50.799a4.564 4.564 0 0 0 4.565-4.564v-14.734l5.603-4.969h-60.967a4.564 4.564 0 0 0-4.566 4.563v15.14a4.565 4.565 0 0 0 4.566 4.564Z" fill="#EBEBEB"/><path d="M219.604 144.965c0 .093-10.46.173-23.366.173-12.906 0-23.366-.08-23.366-.173 0-.093 10.46-.173 23.366-.173 12.906 0 23.366.08 23.366.173ZM219.604 148.904c0 .093-10.46.173-23.366.173-12.906 0-23.366-.08-23.366-.173 0-.093 10.46-.173 23.366-.173 12.906 0 23.366.08 23.366.173ZM219.604 152.85c0 .093-10.46.173-23.366.173-12.906 0-23.366-.08-23.366-.173 0-.093 10.46-.173 23.366-.173 12.906 0 23.366.08 23.366.173ZM219.604 156.796c0 .093-10.46.173-23.366.173-12.906 0-23.366-.08-23.366-.173 0-.093 10.46-.173 23.366-.173 12.906 0 23.366.08 23.366.173Z" fill="#fff"/><path d="M252.62 244.292c8.232 0 14.906-6.656 14.906-14.867 0-8.211-6.674-14.868-14.906-14.868s-14.906 6.657-14.906 14.868 6.674 14.867 14.906 14.867Z" fill="#E0E0E0"/><path d="M256.7 238.213h-7.835a1.01 1.01 0 1 1 0-2.019h7.835a1.01 1.01 0 1 1 0 2.019ZM253.231 219.759h-.691v3.481h.691v-3.481Z" fill="#022749"/><path d="M242.718 233.676a2.02 2.02 0 1 0 0-4.04 2.02 2.02 0 0 0 0 4.04ZM263.146 233.543a2.02 2.02 0 1 0 .002-4.04 2.02 2.02 0 0 0-.002 4.04Z" fill="#15A9F3"/><path d="M253.185 222.509s8.227-.099 9.529 7.022c1.303 7.121-5.655 7.254-7.655 7.394-.911.059-2.851.066-4.559.039-3.795-.066-6.473-.797-7.384-4.318a6.715 6.715 0 0 1-.206-1.262c-.239-3.853 2.373-9.067 10.281-8.875h-.006Z" fill="#15A9F3"/><path d="m247.217 233.357 11.955.186a2.266 2.266 0 0 0 2.306-2.232 2.27 2.27 0 0 0-2.233-2.305l-11.955-.186a2.266 2.266 0 0 0-2.306 2.232 2.266 2.266 0 0 0 2.233 2.305Z" fill="#022749"/><path d="M256.686 231.065a.73.73 0 0 0 1.429-.285.727.727 0 1 0-1.429.285ZM248.333 230.933a.729.729 0 1 0 1.429-.287.729.729 0 0 0-1.429.287Z" fill="#fff"/><path d="M254.015 219.686c0 .624-.505 1.136-1.136 1.136a1.132 1.132 0 0 1-1.137-1.136c0-.631.505-1.136 1.137-1.136.631 0 1.136.505 1.136 1.136Z" fill="#15A9F3"/><path d="M254.593 230.733s.053.053.073.173c.02.12.02.299-.046.505-.06.206-.193.445-.399.644a1.407 1.407 0 0 1-.858.405 1.432 1.432 0 0 1-.917-.245 1.492 1.492 0 0 1-.511-.565 1.11 1.11 0 0 1-.133-.492c0-.119.02-.186.04-.186.053 0 .066.253.285.558.107.153.266.313.472.432.206.12.465.2.731.18.266-.027.505-.147.691-.306.18-.159.313-.345.386-.511.159-.339.126-.598.179-.598l.007.006Z" fill="#fff"/><path d="M262.694 229.305s.027.06.067.173c.02.06.04.126.06.212.02.087.046.18.066.286.047.213.08.465.106.751.02.285.02.598-.006.93a6.962 6.962 0 0 1-.153.916 6.242 6.242 0 0 1-.233.725 3.084 3.084 0 0 1-.119.265c-.033.08-.067.146-.1.2-.06.106-.093.166-.093.159 0 0 .02-.066.073-.173.027-.053.06-.119.087-.199.033-.08.073-.166.106-.266a5.38 5.38 0 0 0 .219-.717 5.93 5.93 0 0 0 .146-.91c.027-.326.027-.638.014-.924a6.29 6.29 0 0 0-.093-.744c-.014-.106-.04-.199-.06-.285-.02-.087-.033-.153-.053-.213-.034-.12-.047-.179-.04-.186h.006ZM243.203 229.345s-.027.06-.067.173a2.553 2.553 0 0 0-.059.212c-.02.087-.047.18-.067.286-.046.212-.08.465-.106.751-.02.285-.02.597.006.93.034.332.087.637.153.916.073.279.153.525.233.724.04.1.08.186.12.266.033.08.066.146.099.199.06.107.093.166.093.16 0 0-.02-.067-.073-.173-.026-.053-.06-.119-.086-.199-.033-.08-.073-.166-.107-.273a5.693 5.693 0 0 1-.219-.717 7.243 7.243 0 0 1-.153-.91 7.392 7.392 0 0 1-.013-.923c.02-.286.053-.539.093-.745.013-.106.04-.199.06-.285.02-.087.033-.153.053-.213.033-.119.047-.179.04-.186v.007Z" fill="#022749"/><path d="M244.983 242.193s2.439-2.385 7.556-2.385c5.118 0 7.729 2.385 7.729 2.385s-7.124 4.809-15.285 0Z" fill="#15A9F3"/><path d="M171.051 244.584h50.799a4.564 4.564 0 0 0 4.565-4.564v-14.734l5.603-4.969h-60.967a4.565 4.565 0 0 0-4.566 4.564v15.139a4.564 4.564 0 0 0 4.566 4.564ZM171.051 267.629h50.799a4.564 4.564 0 0 0 4.565-4.564v-4.883l5.603-4.969h-60.967a4.565 4.565 0 0 0-4.566 4.564v5.288a4.565 4.565 0 0 0 4.566 4.564Z" fill="#EBEBEB"/><path d="M219.604 227.518c0 .093-10.46.173-23.366.173-12.906 0-23.366-.08-23.366-.173 0-.093 10.46-.173 23.366-.173 12.906 0 23.366.08 23.366.173ZM219.604 231.464c0 .093-10.46.173-23.366.173-12.906 0-23.366-.08-23.366-.173 0-.093 10.46-.173 23.366-.173 12.906 0 23.366.08 23.366.173ZM219.604 235.41c0 .093-10.46.173-23.366.173-12.906 0-23.366-.08-23.366-.173 0-.093 10.46-.173 23.366-.173 12.906 0 23.366.08 23.366.173ZM219.604 239.356c0 .093-10.46.173-23.366.173-12.906 0-23.366-.08-23.366-.173 0-.093 10.46-.173 23.366-.173 12.906 0 23.366.08 23.366.173ZM219.744 260.627c0 .093-10.354.173-23.12.173-12.766 0-23.12-.08-23.12-.173 0-.093 10.354-.173 23.12-.173 12.766 0 23.12.08 23.12.173Z" fill="#fff"/><path d="M49.749 251.008c1.8.365 3.336 1.634 4.3 3.195.963 1.561 1.408 3.395 1.588 5.222.339 3.534-.89 7.44-2.42 10.642-3.448-1.927-5.05-6.211-5.728-8.437-1.07-3.521-.87-10.522 2.26-10.629M57.81 275.056c-.878-1.854-.519-4.165.697-5.82 1.217-1.654 3.19-2.657 5.224-2.929.943-.126 2-.067 2.691.584.645.605.798 1.615.559 2.465-.24.857-.811 1.574-1.45 2.192-2.186 2.113-4.691 3.76-7.721 3.508Z" fill="#022749"/><path d="M56.314 286.435s-.033-.259-.047-.73c-.013-.519-.033-1.19-.053-1.993-.02-1.668-.093-4.053.685-6.544.758-2.484 2.133-4.484 3.41-5.6.63-.571 1.209-.95 1.627-1.169.206-.12.38-.186.492-.239.113-.053.173-.073.18-.067.033.054-.957.452-2.167 1.608-1.223 1.129-2.539 3.102-3.29 5.547-.757 2.438-.717 4.796-.75 6.47 0 .844-.014 1.522-.027 1.993-.013.472-.04.731-.053.731l-.007-.007Z" fill="#022749"/><path d="M50.068 256.362s.04.1.1.299c.06.226.139.518.239.877.206.764.485 1.873.824 3.249.677 2.75 1.555 6.556 2.432 10.788a308.332 308.332 0 0 1 2.053 10.868c.24 1.395.42 2.524.532 3.308.053.372.093.671.126.904.027.206.034.318.027.318-.007 0-.033-.106-.08-.305-.046-.233-.106-.525-.173-.897-.152-.81-.359-1.926-.611-3.295a549.685 549.685 0 0 0-2.127-10.848 611.442 611.442 0 0 0-2.352-10.795 627.747 627.747 0 0 0-.744-3.268c-.08-.366-.147-.658-.193-.891-.04-.205-.06-.312-.053-.312ZM53.218 278.225c-1.549-4.039-5.164-7.221-9.364-8.245-1.07-.259-2.406-.298-3.05.598-.645.891-.193 2.153.412 3.076 2.512 3.84 7.516 5.873 11.995 4.869" fill="#022749"/><path d="M45.017 273.156s.246.033.67.139c.214.054.48.113.779.226.298.107.644.2 1.003.372.365.16.77.319 1.176.552.419.206.844.471 1.29.75.87.585 1.78 1.316 2.611 2.206a14.716 14.716 0 0 1 2 2.77c.246.465.479.91.645 1.348.193.426.32.844.439 1.223.133.372.192.731.272 1.036.08.306.113.578.146.797.06.439.087.685.067.685-.06.006-.16-.97-.651-2.458-.133-.372-.266-.778-.466-1.196a13.277 13.277 0 0 0-.65-1.315 15.521 15.521 0 0 0-1.981-2.711 15.877 15.877 0 0 0-2.559-2.185 13.622 13.622 0 0 0-1.256-.764c-.398-.233-.79-.406-1.15-.572-1.442-.631-2.399-.843-2.385-.896v-.007Z" fill="#022749"/><path d="m66.137 78.494-2.46-7.666a26.525 26.525 0 0 0 3.948-13.95c0-14.708-11.928-26.632-26.642-26.632-14.713 0-26.642 11.924-26.642 26.632 0 14.708 11.929 26.632 26.642 26.632a26.532 26.532 0 0 0 16.308-5.58v.013l8.852.551h-.006Z" fill="#FAFAFA"/><path d="M66.137 78.494s-.18 0-.558-.02c-.392-.02-.95-.046-1.682-.086-1.515-.086-3.734-.206-6.625-.365-.04 0-.073-.04-.073-.08 0-.013.006-.033.013-.04v-.013l.113.106a26.68 26.68 0 0 1-16.156 5.64c-1.428-.06-2.917-.066-4.419-.352A26.603 26.603 0 0 1 19.677 73.1a26.862 26.862 0 0 1-4.85-10.363c-.898-3.866-.885-8.071.105-12.137.133-.505.26-1.016.393-1.528.152-.505.352-.99.531-1.494.2-.492.333-1.01.585-1.482.233-.478.465-.963.698-1.441.213-.492.505-.944.784-1.402l.844-1.382.97-1.302.485-.65c.167-.213.36-.406.539-.612 2.93-3.328 6.585-5.939 10.586-7.42a27.183 27.183 0 0 1 12.235-1.674c4.027.385 7.808 1.713 11.038 3.64a27.03 27.03 0 0 1 7.955 7.228 26.637 26.637 0 0 1 4.213 8.775c.439 1.482.625 2.963.824 4.391.06 1.435.18 2.824.08 4.159a26.605 26.605 0 0 1-3.947 12.462v-.06c.79 2.505 1.389 4.425 1.8 5.74.2.638.346 1.123.452 1.461.1.326.147.485.147.485s-.067-.172-.173-.504c-.113-.34-.28-.83-.492-1.475l-1.86-5.667c-.007-.02 0-.04.006-.06a26.511 26.511 0 0 0 3.848-12.395c.1-1.322-.027-2.698-.093-4.12-.2-1.408-.392-2.882-.831-4.344a26.543 26.543 0 0 0-4.2-8.676 26.716 26.716 0 0 0-7.882-7.134c-3.196-1.894-6.931-3.202-10.905-3.58a26.992 26.992 0 0 0-12.082 1.66c-3.947 1.461-7.563 4.039-10.453 7.327-.18.2-.373.392-.532.605l-.479.644-.963 1.282-.83 1.362c-.28.452-.566.897-.772 1.382-.232.478-.458.95-.684 1.421-.253.465-.38.977-.578 1.462-.173.492-.373.976-.525 1.475-.127.505-.26 1.003-.386 1.508-.983 4.012-.997 8.164-.113 11.984a26.694 26.694 0 0 0 4.778 10.243 26.593 26.593 0 0 0 7.875 6.936 26.47 26.47 0 0 0 8.998 3.182c1.49.292 2.965.299 4.38.365 1.416 0 2.785-.12 4.087-.339 5.23-.843 9.25-3.089 11.975-5.175a.075.075 0 0 1 .107.014.08.08 0 0 1 0 .093v.013l-.067-.12c2.865.2 5.07.352 6.566.452l1.701.12c.386.026.585.046.585.046l-.013.013Z" fill="#022749"/><path d="M33.474 56.865a2.702 2.702 0 0 1-2.705 2.703 2.702 2.702 0 0 1-2.704-2.703 2.702 2.702 0 0 1 2.704-2.704 2.702 2.702 0 0 1 2.705 2.704ZM44.3 56.865a2.702 2.702 0 0 1-2.705 2.703 2.702 2.702 0 0 1-2.704-2.703 2.702 2.702 0 0 1 2.704-2.704 2.702 2.702 0 0 1 2.705 2.704ZM55.106 55.516a2.705 2.705 0 1 1-4.686 2.702 2.705 2.705 0 0 1 4.686-2.702Z" fill="#022749"/><path d="m56.182 176.373-28.025-2.923-11.822-26.898-9.211 2.405s6.805 28.426 14.414 32.824c7.61 4.404 33.64 5.201 33.64 5.201l1.004-10.609Z" fill="#15A9F3"/><path d="M71.07 190.022c4.555-5.123 4.093-12.966-1.032-17.519-5.124-4.553-12.97-4.091-17.525 1.031-4.555 5.123-4.093 12.966 1.032 17.519 5.124 4.553 12.97 4.091 17.525-1.031Z" fill="#022749"/><path d="M61.791 194.203a12.37 12.37 0 0 1-8.792-3.64 12.349 12.349 0 0 1-3.642-8.789A12.36 12.36 0 0 1 53 172.985a12.358 12.358 0 0 1 8.792-3.64 12.37 12.37 0 0 1 8.793 3.64 12.349 12.349 0 0 1 3.641 8.789 12.36 12.36 0 0 1-3.641 8.789 12.358 12.358 0 0 1-8.793 3.64Zm0-24.818a12.32 12.32 0 0 0-8.765 3.627 12.313 12.313 0 0 0-3.629 8.762c0 3.308 1.29 6.424 3.629 8.762a12.32 12.32 0 0 0 8.765 3.627 12.32 12.32 0 0 0 8.766-3.627 12.313 12.313 0 0 0 3.628-8.762c0-3.308-1.289-6.424-3.628-8.762a12.32 12.32 0 0 0-8.766-3.627ZM25.687 183.915c5-1.2 8.08-6.224 6.88-11.222-1.2-4.999-6.227-8.078-11.227-6.878-5 1.2-8.08 6.225-6.88 11.223 1.201 4.998 6.227 8.077 11.227 6.877ZM16.44 148.734a7.604 7.604 0 0 0 0-10.757 7.612 7.612 0 0 0-10.762 0 7.604 7.604 0 0 0 0 10.757 7.612 7.612 0 0 0 10.761 0Z" fill="#022749"/><path d="m22.917 139.238-6.255 5.28-2.26-2.674 6.256-5.281a1.631 1.631 0 0 1 2.294.194l.154.182a1.63 1.63 0 0 1-.193 2.294l.004.005ZM14.96 129.553v7.945a.231.231 0 0 1-.233.233h-3.03a.232.232 0 0 1-.233-.233v-7.945a1.63 1.63 0 0 1 1.628-1.628h.24a1.63 1.63 0 0 1 1.628 1.628ZM9.318 129.582l1.736 7.753a.231.231 0 0 1-.177.278l-2.957.661a.231.231 0 0 1-.278-.176l-1.735-7.753a1.63 1.63 0 0 1 1.234-1.944l.233-.052a1.63 1.63 0 0 1 1.944 1.233ZM3.25 131.52l3.975 6.881a.23.23 0 0 1-.085.317l-2.625 1.515a.232.232 0 0 1-.318-.085l-3.974-6.881a1.63 1.63 0 0 1 .596-2.223l.207-.12a1.631 1.631 0 0 1 2.225.596Z" fill="#022749"/><path d="m177.834 246.028 8.378-3.562-24.176-56.822-8.378 3.562 24.176 56.822Z" fill="#15A9F3"/><path d="M163.245 191.08c4.431-5.229 3.783-13.059-1.448-17.489-5.231-4.43-13.065-3.783-17.496 1.447-4.432 5.229-3.784 13.059 1.447 17.489 5.232 4.43 13.065 3.782 17.497-1.447Z" fill="#022749"/><path d="M153.787 195.505c-1.23 0-2.473-.186-3.682-.558a12.348 12.348 0 0 1-7.324-6.065 12.359 12.359 0 0 1-.89-9.466 12.35 12.35 0 0 1 6.067-7.321 12.369 12.369 0 0 1 9.47-.89 12.348 12.348 0 0 1 7.324 6.065 12.359 12.359 0 0 1 .89 9.466 12.346 12.346 0 0 1-6.067 7.321 12.398 12.398 0 0 1-5.795 1.448h.007Zm-.034-24.832c-1.993 0-3.967.485-5.775 1.442a12.304 12.304 0 0 0-6.054 7.307 12.31 12.31 0 0 0 .884 9.447 12.305 12.305 0 0 0 7.31 6.052c3.163.976 6.52.664 9.45-.884a12.3 12.3 0 0 0 6.054-7.307 12.341 12.341 0 0 0-.883-9.447 12.31 12.31 0 0 0-7.311-6.052 12.444 12.444 0 0 0-3.668-.558h-.007ZM178.908 220.155a9.307 9.307 0 0 0-6.478-11.459c-4.954-1.377-10.087 1.523-11.464 6.475-1.376 4.952 1.524 10.083 6.478 11.459 4.955 1.376 10.087-1.523 11.464-6.475ZM191.188 244.219a7.6 7.6 0 0 0-9.623-4.803c-3.987 1.328-6.14 5.64-4.805 9.619a7.6 7.6 0 0 0 9.623 4.803c3.987-1.329 6.141-5.64 4.805-9.619Z" fill="#022749"/><path d="m174.018 254.292 4.261-6.989 2.991 1.822-4.261 6.989a1.632 1.632 0 0 1-2.238.543l-.204-.125a1.629 1.629 0 0 1-.543-2.236l-.006-.004ZM184.64 260.953l-2.517-7.536a.23.23 0 0 1 .147-.294l2.874-.959a.231.231 0 0 1 .295.147l2.516 7.536a1.629 1.629 0 0 1-1.028 2.059l-.227.076a1.631 1.631 0 0 1-2.06-1.029ZM189.975 259.146l-4.102-6.805a.233.233 0 0 1 .079-.32l2.596-1.563a.231.231 0 0 1 .319.079l4.102 6.806a1.63 1.63 0 0 1-.554 2.234l-.205.123a1.631 1.631 0 0 1-2.235-.554ZM195.121 255.382l-5.949-5.269a.23.23 0 0 1-.02-.328l2.01-2.267a.23.23 0 0 1 .328-.02l5.949 5.269c.672.594.734 1.626.139 2.297l-.158.179a1.632 1.632 0 0 1-2.299.139Z" fill="#022749"/><path d="M58.076 168.873s.897 87.111 49.802 88.818c48.905 1.707 50.959-88.193 50.959-88.818 0 0-5.775-12.994-50.38-12.482-44.606.511-50.38 12.482-50.38 12.482Z" fill="#15A9F3"/><path d="M85.55 153.534h41.335a4.884 4.884 0 0 0 4.885-4.882v-.711a4.884 4.884 0 0 0-4.885-4.883H85.549a4.884 4.884 0 0 0-4.884 4.883v.711a4.883 4.883 0 0 0 4.884 4.882ZM104.443 76.07h3.569V58.034h-3.569V76.07Z" fill="#022749"/><path d="M160.806 129.761c5.635-1.338 9.117-6.99 7.778-12.622-1.339-5.633-6.993-9.114-12.628-7.775-5.634 1.339-9.116 6.99-7.777 12.623 1.339 5.632 6.993 9.113 12.627 7.774ZM54.834 129.079c5.648-1.281 9.189-6.896 7.907-12.542-1.28-5.646-6.898-9.185-12.546-7.904-5.648 1.281-9.189 6.896-7.907 12.542 1.28 5.646 6.898 9.185 12.546 7.904Z" fill="#15A9F3"/><path d="M104.15 72.157s-42.638-.512-49.39 36.404c-6.752 36.915 29.307 37.606 39.68 38.304 4.706.319 14.767.352 23.646.192 19.657-.338 33.54-4.145 38.272-22.373a34.697 34.697 0 0 0 1.063-6.531c1.25-19.975-12.281-46.986-53.264-46.003l-.007.007Z" fill="#15A9F3"/><path d="m135.079 128.384-61.944.97c-6.493.099-11.836-5.076-11.942-11.566-.1-6.49 5.077-11.831 11.57-11.938l61.944-.969c6.492-.1 11.835 5.075 11.942 11.565.099 6.49-5.078 11.831-11.57 11.938Z" fill="#022749"/><path d="M85.987 116.499a3.772 3.772 0 0 1-7.403-1.448 3.772 3.772 0 0 1 7.403 1.448ZM129.264 115.808a3.771 3.771 0 1 1-7.404-1.448 3.771 3.771 0 0 1 7.404 1.448Z" fill="#fff"/><path d="M123.037 203.464c-.678 9.287-8.759 16.262-18.043 15.584-9.29-.677-16.268-8.755-15.59-18.042.678-9.287 8.759-16.263 18.049-15.585 9.291.678 16.269 8.756 15.591 18.043h-.007Z" fill="#022749"/><path d="M118.478 203.131c-.492 6.763-6.38 11.852-13.151 11.353-6.766-.491-11.856-6.377-11.358-13.146.492-6.763 6.38-11.851 13.152-11.353 6.765.491 11.856 6.377 11.357 13.146Z" fill="#fff"/><path d="M110.385 61.828a5.877 5.877 0 0 0 0-8.315 5.882 5.882 0 0 0-8.317 0 5.877 5.877 0 0 0 0 8.315 5.882 5.882 0 0 0 8.317 0Z" fill="#15A9F3"/><path d="M96.84 114.759c.28.033.14 1.348.964 3.102a7.9 7.9 0 0 0 2 2.631c.937.81 2.18 1.428 3.542 1.574 1.369.106 2.705-.279 3.775-.903a7.73 7.73 0 0 0 2.445-2.226c1.13-1.574 1.23-2.896 1.509-2.876.106 0 .226.332.226.956 0 .625-.18 1.535-.685 2.545-.505 1.009-1.382 2.099-2.651 2.943-1.25.85-2.951 1.428-4.778 1.275-1.821-.186-3.39-1.056-4.466-2.119-1.09-1.063-1.761-2.292-2.074-3.375-.319-1.089-.332-2.019-.212-2.63.113-.612.285-.924.392-.904l.013.007Z" fill="#fff"/><path d="M153.607 131.971c-.06-.033.704-1.196 1.435-3.288.758-2.08 1.416-5.096 1.728-8.464.339-3.374.286-6.45.199-8.669a108.09 108.09 0 0 0-.152-2.63c-.047-.618-.06-.964-.034-.97.027 0 .08.338.167.956.093.618.179 1.515.265 2.631.147 2.225.24 5.321-.099 8.716-.319 3.394-1.024 6.43-1.841 8.516a16.104 16.104 0 0 1-1.13 2.398c-.326.532-.518.824-.538.811v-.007ZM54.86 107.352s-.054.345-.213.95c-.08.299-.18.671-.266 1.103-.093.431-.22.916-.3 1.468a32.074 32.074 0 0 0-.464 3.873 36.184 36.184 0 0 0 .066 4.769 35.93 35.93 0 0 0 .77 4.71c.353 1.422.745 2.691 1.144 3.727.18.525.385.983.552 1.395.16.412.319.757.458 1.036.26.565.392.884.372.897-.02.013-.193-.286-.492-.837a11.848 11.848 0 0 1-.511-1.016c-.186-.406-.412-.857-.605-1.382-.432-1.036-.85-2.305-1.223-3.74a33.081 33.081 0 0 1-.81-4.757 32.664 32.664 0 0 1-.04-4.822c.113-1.482.305-2.804.544-3.9.1-.551.24-1.036.353-1.468.106-.432.22-.797.325-1.096.2-.591.32-.917.34-.91ZM57.87 168.793s.087.02.26.074c.179.059.425.146.737.252.665.232 1.615.571 2.831.996.618.22 1.296.465 2.047.731.75.253 1.581.485 2.465.764 1.775.525 3.775 1.209 6.048 1.747 1.13.293 2.313.591 3.542.91 1.236.313 2.539.545 3.881.831 2.672.611 5.576 1.029 8.62 1.521 6.107.83 12.872 1.395 19.983 1.428 7.117-.026 13.882-.598 19.99-1.428 3.043-.492 5.941-.91 8.619-1.521 1.342-.293 2.645-.518 3.881-.831 1.23-.319 2.412-.617 3.542-.91 2.273-.531 4.267-1.215 6.048-1.74.884-.273 1.714-.512 2.465-.764.745-.266 1.429-.512 2.047-.731 1.216-.432 2.167-.764 2.831-.996.312-.107.558-.193.738-.253.166-.053.252-.08.259-.073.007.007-.08.04-.246.106-.179.073-.419.166-.731.286-.658.246-1.608.605-2.811 1.063-.611.226-1.296.485-2.034.757-.751.259-1.575.505-2.458.791-1.775.544-3.769 1.242-6.041 1.793-1.13.299-2.313.612-3.549.93-1.236.319-2.539.558-3.881.851-2.678.624-5.582 1.056-8.633 1.554-6.12.85-12.899 1.428-20.036 1.455-7.131-.033-13.916-.611-20.03-1.461-3.05-.505-5.955-.93-8.633-1.562-1.342-.299-2.645-.538-3.88-.85-1.23-.325-2.42-.638-3.55-.93-2.272-.551-4.266-1.249-6.04-1.794-.884-.285-1.708-.531-2.46-.79-.744-.279-1.422-.532-2.033-.757-1.21-.459-2.153-.811-2.811-1.063-.306-.12-.552-.213-.731-.286a1.7 1.7 0 0 1-.246-.106v.006Z" fill="#022749"/><path d="M58.076 168.873s5.775-11.977 50.381-12.482c44.605-.512 50.38 12.482 50.38 12.482s-44.991 22.181-100.754 0h-.007Z" fill="#022749" opacity=".3"/><path d="M98.754 74.92s-.053.014-.153.027c-.12.013-.272.026-.451.04-.4.04-.984.053-1.735.146-1.502.133-3.668.432-6.293 1.043a46.058 46.058 0 0 0-8.925 3.082 45.752 45.752 0 0 0-9.776 6.139 45.977 45.977 0 0 0-7.882 8.43 46.66 46.66 0 0 0-4.725 8.17c-1.096 2.458-1.8 4.531-2.22 5.979-.232.718-.352 1.289-.471 1.674-.053.173-.093.319-.127.432-.033.1-.046.146-.053.146 0 0 0-.053.02-.153.027-.119.053-.265.093-.445.093-.385.2-.963.406-1.694.378-1.461 1.05-3.554 2.126-6.038 1.07-2.485 2.605-5.341 4.692-8.257a45.734 45.734 0 0 1 7.922-8.517 45.567 45.567 0 0 1 9.862-6.158c3.263-1.488 6.36-2.458 9.005-3.036 2.644-.584 4.824-.844 6.333-.937.75-.066 1.342-.06 1.741-.08h.452c.1 0 .153 0 .153.007h.006ZM57.033 126.059c-.04.013-.299-.479-.604-1.329a18.397 18.397 0 0 1-.864-3.408 18.913 18.913 0 0 1-.22-3.514c.034-.903.127-1.448.173-1.448.106 0-.04 2.225.386 4.909.412 2.684 1.236 4.75 1.13 4.79ZM45.848 122.624s-.153-.106-.359-.359a6.064 6.064 0 0 1-.75-1.162c-.546-1.03-1.01-2.664-.778-4.464a7.727 7.727 0 0 1 1.914-4.112 6.354 6.354 0 0 1 1.03-.924c.266-.186.425-.272.438-.252.04.046-.558.458-1.282 1.335-.725.87-1.529 2.279-1.755 3.993-.226 1.714.186 3.288.652 4.311.465 1.036.943 1.588.89 1.628v.006ZM106.623 53.57c-.014.066-.605-.153-1.562-.04-.93.1-2.273.637-3.07 1.86-.778 1.235-.711 2.677-.412 3.567.292.917.737 1.369.684 1.408-.013.014-.139-.08-.319-.292a3.585 3.585 0 0 1-.598-1.03c-.379-.916-.505-2.477.352-3.832.877-1.342 2.346-1.874 3.343-1.914.505-.026.917.034 1.183.113.272.08.405.153.399.166v-.006ZM164.539 114.566c-.073.08-1.109-.91-2.671-1.654-1.555-.764-2.971-.963-2.951-1.069 0-.087 1.482-.034 3.104.757 1.621.777 2.585 1.913 2.518 1.966ZM73.415 230.866s-.034-.04-.087-.126c-.06-.106-.133-.233-.219-.392-.2-.372-.465-.884-.804-1.521-.173-.332-.366-.704-.572-1.11-.192-.412-.398-.863-.624-1.342-.452-.963-.964-2.059-1.456-3.308-.252-.618-.518-1.269-.797-1.946l-.791-2.139c-.572-1.468-1.057-3.083-1.622-4.757a148.732 148.732 0 0 1-2.963-11.127 175.84 175.84 0 0 1-2.08-11.326c-.492-3.508-.878-6.67-1.09-9.34a110.998 110.998 0 0 1-.273-3.601 67.64 67.64 0 0 1-.146-2.724c-.027-.724-.04-1.295-.06-1.72v-.445c0-.1 0-.153.007-.153 0 0 .013.053.026.153.014.119.027.266.04.445.033.425.073.996.12 1.72.04.744.113 1.661.206 2.717.086 1.057.18 2.266.325 3.594.246 2.664.658 5.82 1.163 9.314.545 3.494 1.23 7.314 2.1 11.3a163.973 163.973 0 0 0 2.925 11.107c.558 1.674 1.03 3.288 1.588 4.756.266.738.525 1.455.77 2.139.273.678.526 1.329.778 1.947.479 1.249.97 2.351 1.402 3.321.213.485.412.937.599 1.356.199.405.378.777.544 1.116.313.651.565 1.169.751 1.547.074.166.133.299.187.406.04.093.06.139.053.146v-.007ZM47.377 176.712c-.007.093-2.18.02-4.858-.173-2.678-.192-4.838-.425-4.831-.518.006-.093 2.18-.02 4.857.173 2.672.192 4.838.425 4.832.518ZM22.376 162.522c-.086.047-1.216-1.88-2.532-4.304-1.316-2.425-2.306-4.425-2.226-4.471.086-.047 1.216 1.88 2.532 4.305 1.316 2.424 2.306 4.424 2.226 4.47ZM96.973 251.812s-.279-.014-.777-.093c-.498-.073-1.21-.246-2.08-.505-.87-.253-1.88-.638-2.964-1.136a24.574 24.574 0 0 1-3.363-1.953 24.628 24.628 0 0 1-2.977-2.505 21.867 21.867 0 0 1-2.073-2.404c-.539-.724-.938-1.342-1.177-1.787-.246-.439-.372-.691-.352-.698.053-.033.612.93 1.721 2.338a24.748 24.748 0 0 0 2.107 2.326c.85.817 1.84 1.66 2.95 2.444a27.069 27.069 0 0 0 3.303 1.953c1.064.512 2.054.91 2.898 1.196 1.695.571 2.798.764 2.784.83v-.006ZM107.174 221.081s-.16.027-.465.046c-.306 0-.758.074-1.343.04-1.169 0-2.864-.192-4.871-.79-1.004-.293-2.067-.731-3.177-1.276-1.083-.584-2.226-1.255-3.302-2.132-2.174-1.714-4.194-4.112-5.496-7.048a18.761 18.761 0 0 1-1.403-8.829c.093-1.382.386-2.677.698-3.866.359-1.176.764-2.252 1.236-3.189.93-1.873 1.954-3.242 2.751-4.099.373-.451.731-.737.944-.956.226-.213.346-.319.352-.306.027.027-.445.472-1.196 1.349-.757.877-1.74 2.252-2.631 4.118-.452.93-.838 2-1.177 3.162-.299 1.176-.571 2.452-.658 3.814-.212 2.717.166 5.766 1.403 8.669 1.276 2.876 3.25 5.241 5.376 6.935 1.056.87 2.173 1.541 3.236 2.126 1.084.545 2.127.99 3.117 1.295 1.974.625 3.649.844 4.805.89 1.156.047 1.801.014 1.801.047ZM26.715 168.767c-.026.053-.511-.193-1.355-.385-.838-.193-2.04-.266-3.316.033-1.276.312-2.313.923-2.971 1.475-.658.551-.984.989-1.03.956-.027-.013.226-.518.87-1.136.639-.618 1.715-1.302 3.05-1.627 1.337-.319 2.606-.2 3.456.066.858.259 1.31.591 1.29.618h.006ZM124.845 102.715c0 .093-8.161.173-18.222.173-10.062 0-18.223-.08-18.223-.173 0-.093 8.161-.173 18.223-.173 10.061 0 18.222.08 18.222.173ZM93.75 144.254s-.107.027-.306.053c-.246.02-.538.047-.89.08-.386.033-.858.066-1.41.073-.551.013-1.176.046-1.867.02-1.389 0-3.037-.1-4.865-.292a54.133 54.133 0 0 1-5.88-1.017 54.635 54.635 0 0 1-5.716-1.714 48.126 48.126 0 0 1-4.48-1.906c-.63-.293-1.176-.598-1.66-.857a21.14 21.14 0 0 1-1.23-.691c-.3-.186-.552-.339-.764-.465-.173-.106-.26-.173-.253-.18.007-.006.106.034.286.12l.79.405c.34.186.758.406 1.257.638.492.239 1.043.531 1.681.804a54.083 54.083 0 0 0 4.486 1.827 58.422 58.422 0 0 0 5.689 1.68c2.046.479 4.027.804 5.834 1.037 1.808.212 3.45.332 4.832.365.69.04 1.316.02 1.86.027.552.006 1.024 0 1.41-.014.352 0 .644-.006.89-.013.206 0 .312.007.312.02h-.007ZM146.795 174.194s-.053.033-.159.073l-.479.18-1.847.657c-.804.293-1.788.625-2.951.97-1.163.346-2.472.777-3.947 1.149-.738.193-1.509.399-2.313.612-.804.212-1.655.378-2.525.584-1.741.425-3.629.758-5.609 1.13a129.92 129.92 0 0 1-13.026 1.534 127.67 127.67 0 0 1-13.111.073c-2.014-.126-3.928-.226-5.709-.432-.89-.093-1.754-.159-2.579-.272-.824-.113-1.614-.219-2.372-.326-1.515-.186-2.864-.451-4.06-.657a55.165 55.165 0 0 1-3.044-.598c-.81-.179-1.449-.326-1.914-.425-.2-.047-.366-.087-.499-.12-.112-.026-.166-.046-.166-.053 0-.007.06 0 .173.02.133.02.3.053.505.086.465.087 1.11.206 1.927.366.838.166 1.855.365 3.05.538 1.197.186 2.546.438 4.061.604.758.093 1.549.2 2.366.299.824.1 1.688.16 2.579.253 1.78.192 3.688.279 5.695.398 4.02.16 8.446.173 13.078-.099 4.632-.299 9.025-.851 12.993-1.502 1.98-.365 3.861-.684 5.602-1.096.87-.199 1.721-.359 2.525-.564.804-.206 1.575-.399 2.313-.592 1.482-.352 2.791-.77 3.954-1.096a64.957 64.957 0 0 0 2.964-.91 511.44 511.44 0 0 0 1.867-.598l.492-.146c.113-.033.166-.046.173-.04h-.007Z" fill="#fff"/><path d="M104.204 201.321v10.337l3.216-11.621" fill="#022749"/><path d="m116.921 196.001-11.762.151a.067.067 0 0 0-.031.007.083.083 0 0 0-.026.021l-.879 1.017a.024.024 0 0 0-.006.011c-.001.005 0 .01.001.014s.003.008.006.01c.003.003.007.004.01.003l6.934-.141a.035.035 0 0 1 .033.011c.01.009.016.023.018.038a.073.073 0 0 1-.008.044.046.046 0 0 1-.028.024l-9.054 2.415a.016.016 0 0 0-.008.006l-3.1 3.589a.125.125 0 0 0-.008.124c.01.019.023.033.04.039a.054.054 0 0 0 .049-.003l17.847-7.192a.079.079 0 0 0 .041-.043.134.134 0 0 0 .009-.069.11.11 0 0 0-.028-.058.057.057 0 0 0-.05-.018Z" fill="#022749"/><path d="M104.219 197.218v1.85l7.667-2.049-7.667.199Z" fill="#022749"/></g><defs><clipPath id="a"><path fill="#fff" d="M0 0h303v287H0z"/></clipPath></defs></svg>