<svg width="370" height="224" fill="none" xmlns="http://www.w3.org/2000/svg"><g clip-path="url(#a)"><path d="M10.437 136.01s-5.08.91-1.77 11.997c3.311 11.087 5.968 16.761 5.968 16.761s.485 2.523-1.563 2.523c-2.047 0-6.277-1.493-7.6.769-1.378 2.344.016 5.053 3.332 7.811s10.361 9.07 10.998 9.647c.62.562 1.127 1.788-.267 2.012-1.393.223-11.38-.551-11.466 4.213-.082 4.764 10.421 10.934 11.553 11.632 1.138.697 1.334 1.27 1.111 1.924-.223.654-3.555.076-6.403-.027-2.847-.104-6.174.272-5.989 3.03.18 2.753 5.837 9.506 21.73 14.068l7.503 1.63 5.276-5.631c10.562-12.738 11.428-21.508 10.029-23.884-1.4-2.377-4.361-.818-6.654.877-2.297 1.695-4.72 4.05-5.276 3.636-.55-.414-.713-.998-.163-2.213.544-1.216 5.75-12.237 2.995-16.129-2.755-3.891-10.569 2.388-11.843 2.987-1.28.6-1.551-.697-1.35-1.509.202-.834 2.467-10.024 3.654-14.172 1.186-4.154.81-7.173-1.65-8.334-2.369-1.123-5.02 2.502-6.714 3.657-1.693 1.156-2.711-1.204-2.711-1.204s-1.002-6.187-4.508-17.214c-3.512-11.021-8.325-8.835-8.325-8.835" fill="#EBEBEB"/><path d="M36.773 222.599c-2.548-8.105-5.973-19.333-9.713-31.744-3.74-12.412-7.133-23.645-9.637-31.761-1.252-4.05-2.265-7.331-2.973-9.61-.348-1.128-.615-2.006-.806-2.616-.087-.289-.152-.518-.201-.682-.044-.152-.06-.234-.06-.234s.033.076.087.229c.054.164.13.387.229.676.196.605.484 1.483.854 2.6.736 2.256 1.78 5.532 3.055 9.588 2.548 8.105 5.973 19.333 9.713 31.739 3.74 12.416 7.138 23.65 9.637 31.766" fill="#E0E0E0"/><path d="M11.309 170.393s.185.071.5.24c.317.169.763.425 1.313.746 1.1.649 2.597 1.581 4.225 2.644l4.165 2.736c.496.322.92.6 1.263.823.3.191.463.311.452.322-.01.016-.185-.071-.506-.235a36.145 36.145 0 0 1-1.312-.752c-1.095-.659-2.575-1.613-4.209-2.671-1.606-1.041-3.06-1.978-4.181-2.703-.496-.322-.92-.594-1.27-.818-.299-.196-.457-.31-.451-.327l.01-.005ZM23.837 177.517c-.066-.038 1.72-3.211 3.985-7.086 2.265-3.875 4.155-6.993 4.214-6.955.066.038-1.72 3.21-3.985 7.086-2.265 3.875-4.154 6.993-4.214 6.955ZM28.72 196.839s.126-.158.387-.414c.305-.289.675-.643 1.116-1.063.942-.899 2.238-2.142 3.621-3.57a127.63 127.63 0 0 0 3.463-3.723c.403-.452.751-.834 1.029-1.144.245-.267.387-.415.403-.404.016.011-.103.18-.321.469-.224.289-.55.703-.97 1.205a69.62 69.62 0 0 1-7.095 7.304c-.489.43-.886.774-1.175 1.002-.283.229-.446.349-.457.338ZM15.975 192.893s.19.016.517.098.8.207 1.377.365c1.16.317 2.761.774 4.52 1.298 1.758.523 3.348 1.008 4.497 1.368.572.18 1.034.332 1.356.441.315.109.49.18.484.197 0 .016-.19-.017-.517-.099-.327-.081-.8-.207-1.378-.365-1.16-.316-2.76-.774-4.519-1.297a234.626 234.626 0 0 1-4.497-1.368 65.558 65.558 0 0 1-1.356-.442c-.316-.109-.49-.18-.484-.196ZM18.12 210.499s.24.032.659.136c.468.12 1.062.278 1.77.463 1.486.398 3.539.971 5.804 1.614 2.265.643 4.306 1.242 5.782 1.689.697.218 1.285.398 1.742.54.408.131.637.218.632.234 0 .017-.24-.032-.66-.136-.467-.12-1.06-.278-1.769-.458-1.486-.398-3.539-.97-5.804-1.613a376.122 376.122 0 0 1-5.782-1.69c-.697-.218-1.285-.398-1.742-.539-.409-.131-.637-.218-.632-.235v-.005ZM34.144 214.952s.157-.202.479-.534c.359-.365.816-.834 1.366-1.401a215.06 215.06 0 0 0 4.449-4.671 221.77 221.77 0 0 0 4.29-4.819c.517-.594.947-1.09 1.28-1.477.304-.349.479-.534.495-.523.016.011-.136.218-.414.589-.277.37-.697.894-1.22 1.531a112.29 112.29 0 0 1-8.744 9.506 64.644 64.644 0 0 1-1.426 1.341c-.343.311-.54.474-.55.463l-.005-.005ZM252.623 22.653l-22.084-11.414a3.902 3.902 0 0 1-4.361 1.248l-11.88 23.046a3.894 3.894 0 0 1 1.916 3.58l8.222 4.252a3.89 3.89 0 0 1 3.8-.125 3.911 3.911 0 0 1 2.096 3.178l8.38 4.328a3.898 3.898 0 0 1 3.479-1.92l11.483-22.265a3.918 3.918 0 0 1-1.051-3.903v-.005Z" fill="#E0E0E0"/><path d="m250.87 24.41-20.974-10.837a1.459 1.459 0 0 0-1.966.628l-10.825 20.997a1.461 1.461 0 0 0 .627 1.968l20.974 10.837c.716.37 1.596.089 1.966-.628l10.826-20.997a1.462 1.462 0 0 0-.628-1.968Z" fill="#F5F5F5"/><path d="M239.256 48.364c-.31 0-.62-.077-.903-.224l-6.175-3.188a.267.267 0 0 1-.114-.366.267.267 0 0 1 .365-.114l6.174 3.188c.343.175.73.208 1.094.093.365-.114.665-.37.839-.708l10.595-20.555a1.45 1.45 0 0 0 .093-1.095 1.425 1.425 0 0 0-.708-.84l-20.532-10.607a1.44 1.44 0 0 0-1.938.616L217.45 35.12a1.444 1.444 0 0 0 .616 1.94l6.539 3.38c.136.07.185.234.114.365a.267.267 0 0 1-.365.114l-6.539-3.38a1.986 1.986 0 0 1-.849-2.67l10.595-20.555a1.977 1.977 0 0 1 2.668-.85l20.532 10.607a1.99 1.99 0 0 1 .855 2.676L241.02 47.301a1.99 1.99 0 0 1-1.159.98 1.917 1.917 0 0 1-.605.093v-.01Z" fill="#EBEBEB"/><path d="M227.583 27.373c.676-1.308 2.162-1.755 3.507-1.063.648.338 1.121.856 1.296 1.494l-.452.147c-.175-.556-.534-.948-1.046-1.21-1.078-.556-2.292-.185-2.836.872-.545 1.057-.142 2.268.931 2.823.511.262 1.034.333 1.595.148l.147.452c-.615.229-1.318.147-1.971-.19-1.334-.693-1.835-2.165-1.16-3.473h-.011ZM236.399 31.041c-.49.949-1.47 1.167-2.603.584l-1.198-.616-.724 1.406-.474-.245 2.298-4.459 1.666.861c1.133.584 1.525 1.516 1.029 2.47h.006Zm-.469-.245c.365-.714.109-1.363-.784-1.826l-1.181-.61-1.149 2.23 1.182.61c.892.457 1.573.294 1.932-.404ZM236.877 32.59l1.318-2.557.474.245-1.307 2.535c-.545 1.057-.3 1.799.566 2.246.871.452 1.617.223 2.162-.834l1.306-2.535.458.234-1.318 2.557c-.659 1.28-1.688 1.586-2.831.997-1.138-.588-1.492-1.608-.833-2.889h.005Z" fill="#E0E0E0"/><path d="m356.203 52.855.975 17.333-4.715 7.626-4.617 59.232-6.169-.36 5.308-58.42-3.038-8.88 3.387-17.114 8.869.583Z" fill="#EBEBEB"/><path d="m356.851 139.515-.403 6.066s-2.456.829-2.521 3.096c-.065 2.268 2.009 3.816 2.009 3.816l-5.341 60.153c-.534 6.034-5.897 10.46-11.913 9.844l-3.207-.327c-5.886-.599-10.203-5.81-9.713-11.708l4.998-60.066s2.537-1.237 2.118-3.843c-.419-2.605-1.928-3.297-1.928-3.297l.61-5.756a4.042 4.042 0 0 1 4.334-3.609l17.227 1.336a4.042 4.042 0 0 1 3.724 4.3l.006-.005Z" fill="#E0E0E0"/><path d="m343.794 213.066 4.65-55.913a2.043 2.043 0 1 1 4.073.338l-4.65 55.913a2.046 2.046 0 0 1-2.205 1.87 2.046 2.046 0 0 1-1.868-2.208ZM336.422 212.456l4.65-55.913a2.043 2.043 0 1 1 4.072.338l-4.649 55.912a2.044 2.044 0 1 1-4.073-.337ZM328.522 211.796l4.649-55.913a2.045 2.045 0 1 1 4.073.338l-4.65 55.913a2.044 2.044 0 0 1-2.205 1.87 2.045 2.045 0 0 1-1.867-2.208Z" fill="#F5F5F5"/><path d="M356.454 145.581c-.006.077-5.717-.392-12.746-1.046-7.035-.654-12.73-1.248-12.725-1.33.006-.076 5.712.392 12.752 1.047 7.034.654 12.73 1.248 12.719 1.329ZM355.936 152.542c-.006.076-5.646-.349-12.594-.959-6.953-.605-12.577-1.161-12.571-1.238.005-.076 5.646.349 12.599.96 6.947.605 12.577 1.161 12.571 1.237h-.005ZM333.999 150.242c-.043-.022.136-.371.327-.96a7.351 7.351 0 0 0 .338-2.371 7.231 7.231 0 0 0-.469-2.349c-.223-.578-.419-.916-.375-.937.027-.017.283.283.56.861.278.572.539 1.439.567 2.42a6.125 6.125 0 0 1-.43 2.447c-.245.594-.491.905-.512.889h-.006ZM336.515 150.144c-.082-.017.191-1.347.289-3.004.109-1.657.011-3.008.092-3.014.071-.011.3 1.346.191 3.036-.104 1.684-.507 3.003-.572 2.987v-.005ZM338.703 150.536c-.076-.005 0-1.406.175-3.123.174-1.717.375-3.102.457-3.091.076.006 0 1.407-.174 3.124-.175 1.717-.376 3.101-.458 3.09ZM341.682 150.667c-.076 0-.12-1.374 0-3.058.12-1.684.354-3.036.43-3.03.082.01-.033 1.368-.147 3.046-.12 1.679-.202 3.042-.283 3.036v.006ZM344.214 150.623c-.065.028-.447-1.253-.261-2.856.168-1.608.822-2.769.882-2.731.081.033-.436 1.21-.599 2.764-.18 1.548.065 2.812-.022 2.823ZM347.475 151.468c-.06.033-.561-1.379-.408-3.178.136-1.804.849-3.112.904-3.074.081.033-.496 1.352-.621 3.096-.147 1.739.218 3.134.131 3.156h-.006ZM350.029 150.405c-.06.033-.506-1.101-.272-2.545.218-1.445.991-2.393 1.034-2.338.077.043-.55 1.013-.756 2.381-.224 1.369.076 2.48-.011 2.502h.005Z" fill="#EBEBEB"/><path d="M353.371 152.417s-.332-.246-.675-.802a5.186 5.186 0 0 1-.746-2.425 5.165 5.165 0 0 1 .507-2.486c.288-.588.571-.883.598-.861.039.027-.179.36-.413.943a5.771 5.771 0 0 0-.403 2.393 5.89 5.89 0 0 0 .637 2.344c.288.561.539.872.501.899l-.006-.005ZM77.859 14.537l5.167-.3L92.462 0l24.833 16.494L92.32 54.19 64.274 35.571l8.108-12.231 3.201 2.125 3.566-5.374-3.452-2.29 2.162-3.264Z" fill="#EBEBEB"/><path d="M93 46.21c-.043.066-4.655-2.92-10.301-6.671-5.646-3.75-10.192-6.84-10.149-6.906.044-.065 4.655 2.922 10.302 6.672 5.646 3.75 10.186 6.84 10.143 6.906H93ZM82.988 28.316l1.209-.763c.272.73.877 1.515 1.623 2.011.854.567 1.388.513 1.644.131.773-1.166-3.376-2.769-1.846-5.08.702-1.057 2.14-1.373 3.91-.196.783.518 1.459 1.237 1.796 1.984l-1.17.801c-.36-.714-.85-1.27-1.4-1.635-.855-.567-1.394-.463-1.655-.07-.762 1.15 3.381 2.757 1.868 5.047-.692 1.04-2.14 1.357-3.92.18-.986-.655-1.787-1.609-2.059-2.404v-.006ZM92.865 26.79l2.826 1.875c2.037 1.352 2.62 3.505 1.367 5.39-1.253 1.887-3.458 2.186-5.494.835l-2.826-1.875 4.127-6.23v.005Zm-.588 6.873c1.236.818 2.532.622 3.327-.572.79-1.194.468-2.47-.768-3.287l-1.317-.872-2.56 3.865 1.318.872v-.006Z" fill="#E0E0E0"/><path d="m94.124 4.733-1.243-.825-5.352 8.075 1.243.826 5.352-8.076ZM96.297 6.18l-1.243-.826-5.352 8.076 1.243.825 5.352-8.075ZM98.467 7.616l-1.243-.825-5.352 8.076 1.243.825 5.352-8.076ZM100.639 9.063l-1.243-.826-5.352 8.076 1.243.826 5.352-8.076ZM102.812 10.504l-1.244-.826-5.351 8.076 1.243.826 5.352-8.076ZM104.987 11.946l-1.243-.825-5.351 8.075 1.243.826 5.351-8.076ZM107.159 13.393l-1.243-.826-5.352 8.076 1.244.825 5.351-8.075ZM109.329 14.83l-1.243-.826-5.352 8.075 1.244.826 5.351-8.076ZM111.502 16.276l-1.243-.826-5.352 8.076 1.243.826 5.352-8.076ZM113.674 17.717l-1.243-.826-5.352 8.076 1.243.826 5.352-8.076Z" fill="#fff" opacity=".4"/><path d="M370 222.779c0 .076-82.711.142-184.717.142-102.006 0-184.733-.066-184.733-.142 0-.076 82.694-.142 184.733-.142s184.717.066 184.717.142Z" fill="#022749"/><path d="m319.941 29.145-65.723-.038c-7.911 0-14.325 6.41-14.325 14.33l-.033 164.952c0 7.915 6.403 14.33 14.309 14.336l65.723.038c7.911 0 14.325-6.41 14.325-14.33l.033-164.953c0-7.914-6.403-14.33-14.309-14.335Zm-32.935 29.471a1.17 1.17 0 0 1-1.171-1.172 1.17 1.17 0 1 1 2.342 0 1.17 1.17 0 0 1-1.171 1.172Zm.049-4.72a4.763 4.763 0 0 1-4.759-4.764 4.76 4.76 0 1 1 9.518 0 4.76 4.76 0 0 1-4.759 4.764Z" fill="#022749"/><path d="M290.529 68.319c0 1.57-.022 2.84-.049 2.84-.028 0-.049-1.27-.049-2.84 0-1.57.021-2.84.049-2.84.027 0 .049 1.27.049 2.84Z" fill="#022749"/><path d="M319.876 35.413h-12.741l-37.214-.027h-4.481l-11.151-.011c-5.537 0-10.029 4.491-10.035 10.034l-.032 161.007c0 5.544 4.486 10.035 10.018 10.04l65.592.038c5.537 0 10.029-4.491 10.035-10.034l.032-161.007c0-5.543-4.486-10.035-10.018-10.04h-.005Zm-32.864 23.203a1.17 1.17 0 0 1-1.171-1.172 1.17 1.17 0 1 1 2.341 0c0 .65-.522 1.172-1.17 1.172Zm.049-4.72a4.762 4.762 0 0 1-4.759-4.764 4.76 4.76 0 1 1 9.517 0 4.76 4.76 0 0 1-4.758 4.764Z" fill="#022749"/><path d="M327.117 196.055h-80.179V81.52h80.179v114.535Zm-79.634-.546h79.09V82.065h-79.09v113.444ZM320.66 211.082s.092-.011.283-.027c.093-.006.212-.017.348-.022.137-.022.294-.049.474-.076.36-.066.795-.191 1.296-.393a6.763 6.763 0 0 0 1.574-.976 6.203 6.203 0 0 0 1.464-1.815 6.243 6.243 0 0 0 .713-2.692c.006-2.039-.032-4.388-.049-7.004l.082.081c-16.176.011-43.029.033-73.4.06h-6.229l.142-.141c.011 1.466.016 2.921.027 4.366 0 .725.011 1.444.011 2.158s.065 1.406.278 2.077a6.2 6.2 0 0 0 2.433 3.248c1.149.769 2.51 1.085 3.877 1.025 5.494 0 10.775.006 15.795.011 10.046.011 19.046.022 26.587.033 7.535.016 13.606.032 17.804.043 2.091.011 3.708.022 4.818.028.545.005.964.011 1.253.011.283 0 .424.016.424.016s-.141.011-.424.016c-.289 0-.708.006-1.253.011l-4.818.027c-4.198.011-10.269.028-17.804.044-7.541.011-16.541.022-26.587.033-5.02 0-10.307.005-15.795.011-1.377.065-2.837-.268-4.029-1.069a6.482 6.482 0 0 1-2.548-3.396c-.223-.692-.294-1.438-.294-2.158 0-.719-.011-1.439-.016-2.158-.011-1.445-.022-2.9-.028-4.366v-.142h6.371c30.37.027 57.223.049 73.4.06h.081v.082c0 2.621.033 4.96.011 7.009a6.267 6.267 0 0 1-.746 2.736 6.258 6.258 0 0 1-1.502 1.832 6.813 6.813 0 0 1-1.607.97 6.328 6.328 0 0 1-1.312.371c-.18.027-.343.049-.479.065-.136 0-.25.011-.348.011-.186.005-.284 0-.284 0h.006ZM294.215 53.487s.038-.207.098-.6c.054-.392.119-.98.13-1.733a17.426 17.426 0 0 0-.168-2.747c-.153-1.057-.409-2.262-.948-3.5-.533-1.215-1.394-2.5-2.766-3.264-1.366-.78-3.158-.84-4.856-.43a7.272 7.272 0 0 0-2.434 1.128 6.768 6.768 0 0 0-1.873 2.07c-.485.824-.773 1.778-.991 2.748a14.93 14.93 0 0 0-.343 3.009 13.524 13.524 0 0 0 .283 3.014c.201.976.561 1.897.947 2.785.795 1.766 1.819 3.347 2.875 4.791.528.72 1.062 1.418 1.585 2.077.522.638 1.121 1.265 1.867 1.4.365.06.724-.043 1.024-.26.299-.208.555-.486.778-.764.452-.572.79-1.194 1.127-1.782 1.34-2.355 2.303-4.328 2.87-5.729.283-.703.484-1.253.604-1.635.06-.174.104-.316.142-.43.032-.099.054-.148.054-.148s0 .055-.027.153-.06.25-.114.441c-.109.387-.289.949-.561 1.657-.539 1.423-1.476 3.418-2.799 5.789-.332.589-.664 1.226-1.132 1.82a4.171 4.171 0 0 1-.823.818c-.315.24-.767.382-1.192.305-.86-.163-1.481-.834-2.02-1.477a80.608 80.608 0 0 1-1.601-2.082c-1.061-1.444-2.101-3.041-2.918-4.83-.397-.893-.768-1.836-.969-2.839a13.796 13.796 0 0 1-.289-3.074c.011-1.047.136-2.071.354-3.069.109-.496.245-.986.409-1.46.152-.475.364-.938.62-1.369a7.117 7.117 0 0 1 1.955-2.147 7.392 7.392 0 0 1 2.532-1.161c1.753-.415 3.604-.344 5.036.48 1.437.812 2.309 2.147 2.837 3.395.533 1.265.784 2.486.92 3.554.136 1.074.152 2.011.12 2.769a11.456 11.456 0 0 1-.185 1.739c-.044.196-.077.343-.104.441a.558.558 0 0 1-.049.147h-.005Z" fill="#022749"/><path d="M320.072 38.585s.261-.005.773.033a6.7 6.7 0 0 1 2.167.616c.457.201.926.512 1.41.888.468.398.937.889 1.345 1.494.408.605.735 1.33.936 2.147.213.818.207 1.723.207 2.655l.049 31.613v.11h-.108c-19.667.076-45.186.174-72.987.277-2.276.006-4.535.017-6.642.022h-.142V45.42a6.937 6.937 0 0 1 1.851-4.742 6.937 6.937 0 0 1 4.465-2.185c13.165-.055 24.942 0 34.819 0 9.871.016 17.837.032 23.336.043 2.744.011 4.873.022 6.321.027.719.006 1.263.011 1.639.011.37 0 .561.017.561.017s-.191.01-.561.016c-.376 0-.926.005-1.639.01-1.448.006-3.577.017-6.321.028-5.499.011-13.465.027-23.336.044-9.877.016-21.659.038-34.797.06a6.667 6.667 0 0 0-6.071 6.677v32.878l-.142-.142c2.108-.005 4.367-.016 6.643-.021 27.801-.082 53.325-.159 72.986-.213l-.109.109c.022-13.278.038-24.097.049-31.614.006-.937.017-1.826-.185-2.627a6.62 6.62 0 0 0-.909-2.12 7.207 7.207 0 0 0-1.318-1.483c-.479-.376-.936-.687-1.388-.894a7.02 7.02 0 0 0-2.145-.638c-.251-.032-.447-.032-.572-.043l-.196-.017.011-.016ZM311.872 120.372h-76.051a2.817 2.817 0 0 0-2.815 2.818v96.09a2.817 2.817 0 0 0 2.815 2.818h76.051a2.817 2.817 0 0 0 2.815-2.818v-96.09a2.817 2.817 0 0 0-2.815-2.818Z" fill="#022749"/><path d="M314.693 128.81c0 .076-18.322.142-40.917.142-22.596 0-40.922-.066-40.922-.142 0-.076 18.315-.142 40.922-.142 22.606 0 40.917.066 40.917.142Z" fill="#022749"/><path d="M255.868 128.695c-.076 0-.141-1.837-.141-4.099 0-2.262.065-4.098.141-4.098.076 0 .142 1.836.142 4.098 0 2.262-.066 4.099-.142 4.099ZM286.778 128.81c-.076 0-.141-1.783-.141-3.979 0-2.197.065-3.979.141-3.979.077 0 .142 1.782.142 3.979 0 2.196-.065 3.979-.142 3.979Z" fill="#022749"/><path d="M298.173 120.372h-2.112v6.661h2.112v-6.661ZM301.456 120.372h-2.112v6.661h2.112v-6.661ZM304.718 120.372h-2.113v6.661h2.113v-6.661ZM278.899 156.592l-10.187 15.61h6.615l-4.481 13.676 12.801-17.731h-6.822l2.074-11.555Z" fill="#E0E0E0"/><path d="M276.182 195.199c-13.198 0-23.935-10.749-23.935-23.961 0-13.213 10.737-23.961 23.935-23.961 13.198 0 23.935 10.748 23.935 23.961 0 13.212-10.737 23.961-23.935 23.961Zm0-47.383c-12.899 0-23.39 10.504-23.39 23.416 0 12.913 10.491 23.416 23.39 23.416 12.898 0 23.39-10.503 23.39-23.416 0-12.912-10.492-23.416-23.39-23.416Z" fill="#E0E0E0"/><path d="M251.768 41.823h-12.74c-1.71-.011-3.093 1.439-3.093 3.227v2.316c0 1.788-1.388 3.238-3.098 3.238l-24.839-.017c-1.709 0-3.092-1.45-3.092-3.237v-2.317c0-1.788-1.383-3.237-3.093-3.237h-4.481l-11.15-.011c-5.538 0-10.03 4.491-10.035 10.034v29.472l6.795 7.048v41.288h-6.811l-.017 83.199c0 5.543 4.487 10.035 10.019 10.04l65.592.038c5.537 0 10.029-4.491 10.034-10.034l.033-161.007c0-5.543-4.486-10.035-10.018-10.04h-.006Zm-66.986 5.532a1.849 1.849 0 0 1 0 3.696 1.849 1.849 0 0 1 0-3.696Zm-1.535 34.825a1.133 1.133 0 1 1 0-2.266 1.133 1.133 0 0 1 0 2.266Zm5.325 131.502a2.41 2.41 0 1 1-4.062-2.595 2.41 2.41 0 0 1 4.062 2.595Zm38.113-143.756h-13.002V56.91h13.002v13.016Zm26.613 144.388a2.403 2.403 0 0 1-3.326.736 2.41 2.41 0 0 1-.735-3.33 2.403 2.403 0 0 1 3.326-.736 2.41 2.41 0 0 1 .735 3.33Zm1.47-146.257a1.728 1.728 0 0 1 0-3.456 1.727 1.727 0 0 1 0 3.456Z" fill="#15A9F3"/><path d="M217.325 50.593h-1.465v3.674h1.465v-3.674ZM220.902 50.593h-1.464v3.674h1.464v-3.674ZM224.479 50.593h-1.464v3.674h1.464v-3.674Z" fill="#F5F5F5"/><path d="M199.613 41.785h-10.285v24.544h10.285V41.785ZM251.3 60.262h-17.32v25.793h17.32V60.262ZM230.066 103.628h-6.762v6.77h6.762v-6.77ZM203.027 92.923h-4.53v4.535h4.53v-4.535ZM203.027 86.42h-4.53v4.535h4.53V86.42ZM205.379 79.918h-9.239v4.534h9.239v-4.534ZM213.683 99.55h-9.844v19.116h9.844V99.551Z" fill="#022749" opacity=".3"/><path d="m233.981 86.055 10.018 13.496v9.56h-13.928v1.287h12.572v64.383h8.663V86.055h-17.325ZM196.14 79.918l13.083-3.947 8.211 2.84v23.285l-3.752 6.65V81.051l-4.922-2.829-3.381 1.696h-9.239Z" fill="#022749" opacity=".1"/><path d="M254.703 186.674h-12.038v1.553h12.038v-1.553ZM254.703 190.397h-12.038v1.553h12.038v-1.553Z" fill="#F5F5F5"/><path d="M216.252 169.128h-23.216v33.702h23.216v-33.702Z" fill="#022749" opacity=".3"/><path d="M196.303 167.929c.076 0 .141.24.141.54 0 .3-.065.539-.141.539-.077 0-.142-.239-.142-.539 0-.3.065-.54.142-.54ZM200.746 167.929c.076 0 .142.24.142.54 0 .3-.066.539-.142.539-.076 0-.142-.239-.142-.539 0-.3.066-.54.142-.54ZM205.183 167.929c.076 0 .141.24.141.54 0 .3-.065.539-.141.539-.077 0-.142-.239-.142-.539 0-.3.065-.54.142-.54ZM209.62 167.929c.076 0 .142.24.142.54 0 .3-.066.539-.142.539-.076 0-.141-.239-.141-.539 0-.3.065-.54.141-.54ZM214.058 167.929c.076 0 .141.24.141.54 0 .3-.065.539-.141.539-.077 0-.142-.239-.142-.539 0-.3.065-.54.142-.54ZM196.303 202.971c.076 0 .141.24.141.54 0 .3-.065.54-.141.54-.077 0-.142-.24-.142-.54 0-.3.065-.54.142-.54ZM200.746 202.971c.076 0 .142.24.142.54 0 .3-.066.54-.142.54-.076 0-.142-.24-.142-.54 0-.3.066-.54.142-.54ZM205.183 202.971c.076 0 .141.24.141.54 0 .3-.065.54-.141.54-.077 0-.142-.24-.142-.54 0-.3.065-.54.142-.54ZM209.62 202.971c.076 0 .142.24.142.54 0 .3-.066.54-.142.54-.076 0-.141-.24-.141-.54 0-.3.065-.54.141-.54ZM214.058 202.971c.076 0 .141.24.141.54 0 .3-.065.54-.141.54-.077 0-.142-.24-.142-.54 0-.3.065-.54.142-.54Z" fill="#fff"/><path d="M228.079 161.394h-8.902v12.923h8.902v-12.923Z" fill="#022749" opacity=".3"/><path d="M220.429 160.931c.076 0 .141.092.141.207 0 .114-.065.207-.141.207-.077 0-.142-.093-.142-.207 0-.115.065-.207.142-.207ZM222.133 160.931c.076 0 .141.092.141.207 0 .114-.065.207-.141.207-.076 0-.142-.093-.142-.207 0-.115.066-.207.142-.207ZM223.832 160.931c.076 0 .142.092.142.207 0 .114-.066.207-.142.207-.076 0-.142-.093-.142-.207 0-.115.066-.207.142-.207ZM225.536 160.931c.076 0 .142.092.142.207 0 .114-.066.207-.142.207-.076 0-.141-.093-.141-.207 0-.115.065-.207.141-.207ZM227.234 160.931c.077 0 .142.092.142.207 0 .114-.065.207-.142.207-.076 0-.141-.093-.141-.207 0-.115.065-.207.141-.207ZM220.429 174.366c.076 0 .141.093.141.207 0 .115-.065.208-.141.208-.077 0-.142-.093-.142-.208 0-.114.065-.207.142-.207ZM222.133 174.366c.076 0 .141.093.141.207 0 .115-.065.208-.141.208-.076 0-.142-.093-.142-.208 0-.114.066-.207.142-.207ZM223.832 174.366c.076 0 .142.093.142.207 0 .115-.066.208-.142.208-.076 0-.142-.093-.142-.208 0-.114.066-.207.142-.207ZM225.536 174.366c.076 0 .142.093.142.207 0 .115-.066.208-.142.208-.076 0-.141-.093-.141-.208 0-.114.065-.207.141-.207ZM227.234 174.366c.077 0 .142.093.142.207 0 .115-.065.208-.142.208-.076 0-.141-.093-.141-.208 0-.114.065-.207.141-.207Z" fill="#fff"/><path d="M176.125 162.364h35.919v1.69h-35.93l.011-1.69ZM224.986 99.55a.84.84 0 1 1-1.68 0 .84.84 0 0 1 1.68 0ZM220.015 107.852a.84.84 0 1 1-1.679 0 .84.84 0 0 1 1.679 0ZM218.338 113.57a.842.842 0 0 1 .779-.9.843.843 0 0 1 .119 1.679.841.841 0 0 1-.898-.779ZM199.613 66.329h-10.285v.501h10.285v-.501ZM190.744 51.329h-1.416v5.178h1.416v-5.178ZM197.174 101.148h-.871v35.582h.871v-35.582Z" fill="#F5F5F5"/><path d="M242.665 187.453v9.915l-17.129 15.022h-15.915l6.626-9.56h-23.211l13.296 11.975h21.746l17.527-15.676 9.098-7.953v-4.502l-12.038.779Z" fill="#022749" opacity=".1"/><path d="m170.822 222.904-65.723-.038c-7.906 0-14.309-6.421-14.309-14.335l.033-164.953c0-7.92 6.414-14.335 14.325-14.33l65.723.038c7.905 0 14.308 6.421 14.308 14.336l-.032 164.953c0 7.919-6.414 14.335-14.325 14.329Z" fill="#022749"/><path d="M170.8 35.118h-12.741c-1.71-.01-3.093 1.44-3.093 3.227v2.317c0 1.788-1.388 3.238-3.098 3.238l-24.838-.017c-1.71 0-3.093-1.45-3.093-3.238V38.33c0-1.788-1.383-3.238-3.093-3.238h-4.48l-11.151-.01c-5.537 0-10.03 4.49-10.035 10.034l-.032 161.007c0 5.543 4.486 10.034 10.018 10.04l65.592.038c5.537 0 10.029-4.491 10.035-10.035l.032-161.006c0-5.544-4.486-10.035-10.018-10.04h-.005Z" fill="#EBEBEB"/><path d="M111.022 41.692h-12.74c-1.71-.005-3.093 1.439-3.093 3.227v2.316c0 1.788-1.388 3.238-3.098 3.238l-24.839-.016c-1.71 0-3.092-1.45-3.092-3.238v-2.316c0-1.788-1.383-3.238-3.093-3.238h-4.48l-11.152-.011c-5.537 0-10.029 4.491-10.034 10.034l-.033 161.007c0 5.544 4.487 10.035 10.018 10.04l65.593.039c5.537 0 10.029-4.492 10.034-10.035l.033-161.007c0-5.543-4.486-10.035-10.018-10.04h-.006Z" fill="#fff"/><path d="M111.023 41.692s.114 0 .343.01c.228.023.571 0 1.018.077.887.104 2.243.393 3.762 1.303.768.436 1.546 1.057 2.287 1.853a10.08 10.08 0 0 1 1.911 2.998c.495 1.194.762 2.59.751 4.077 0 1.483 0 3.058.006 4.731.005 13.376.022 32.726.032 56.638 0 23.912.011 52.386.017 84v15.044c-.011 1.019-.076 2.071-.387 3.063-.288.992-.697 1.962-1.279 2.829a10.834 10.834 0 0 1-2.091 2.322c-1.628 1.308-3.675 2.148-5.793 2.251-2.102.06-4.193.016-6.3.027-4.214 0-8.472 0-12.768-.005-8.591 0-17.335-.011-26.205-.011-4.437 0-8.907 0-13.405-.005h-6.767c-2.271.114-4.629-.486-6.529-1.805-1.91-1.313-3.316-3.292-3.974-5.494-.354-1.095-.42-2.267-.42-3.396V195.39c0-8.885 0-17.639.006-26.245l.016-49.612c.006-15.807.017-30.835.022-44.892 0-7.031.01-13.817.01-20.347v-2.436c.006-.404.033-.813.055-1.216.071-.398.104-.807.207-1.194a10.277 10.277 0 0 1 2.107-4.251 10.497 10.497 0 0 1 3.719-2.786c1.41-.637 2.962-.86 4.46-.844 2.983 0 5.901.005 8.738.01h6.261a3.223 3.223 0 0 1 1.977.551c.566.398 1.002.97 1.225 1.614.256.643.196 1.34.201 1.983v.976c0 .327-.01.649.033.96.082.62.343 1.215.746 1.678.397.47.947.807 1.53.954.294.077.593.093.904.087h4.546c4.742.006 9.158.011 13.22.022 2.03 0 3.974.006 5.831.011.457-.005.931.022 1.367-.016.44-.05.86-.202 1.225-.43a3.18 3.18 0 0 0 1.404-2.023c.093-.403.077-.812.077-1.221v-1.2c0-.392-.022-.784.054-1.171a3.45 3.45 0 0 1 .376-1.074 3.16 3.16 0 0 1 1.6-1.417c.66-.289 1.362-.202 1.993-.213 2.57.006 4.748.011 6.507.017 1.758.005 3.098.01 4.002.016.903 0 1.361.017 1.361.017s-.463.01-1.361.016c-.904 0-2.244.005-4.002.01-1.759 0-3.937.006-6.507.012-.637.016-1.323-.066-1.96.212a3.096 3.096 0 0 0-1.552 1.38 3.46 3.46 0 0 0-.364 1.046c-.071.37-.044.757-.05 1.155v1.2c0 .403.017.822-.075 1.242a3.293 3.293 0 0 1-1.454 2.099c-.381.24-.817.398-1.274.452-.463.038-.915.011-1.378.022H67.438a3.683 3.683 0 0 1-.942-.093 3.143 3.143 0 0 1-1.623-1.003 3.331 3.331 0 0 1-.79-1.766c-.043-.332-.032-.66-.032-.98v-.977c-.01-.654.05-1.313-.196-1.924a3.155 3.155 0 0 0-1.16-1.526 3.005 3.005 0 0 0-1.873-.517h-15c-1.48-.017-2.989.207-4.377.833a10.191 10.191 0 0 0-3.643 2.731 10.123 10.123 0 0 0-2.063 4.164c-.104.382-.13.78-.202 1.172-.021.398-.049.79-.054 1.194v160.342c0 1.123.065 2.246.408 3.314.637 2.137 2.01 4.066 3.866 5.342 1.857 1.286 4.116 1.869 6.37 1.755h6.768c4.497 0 8.967.005 13.405.011a194610.305 194610.305 0 0 1 38.973.027c2.107-.011 4.214.032 6.283-.027 2.064-.099 4.046-.916 5.635-2.186a10.782 10.782 0 0 0 2.037-2.257c.566-.845.964-1.788 1.247-2.752.299-.971.364-1.979.375-2.993v-15.044c.017-31.613.033-60.088.049-84 .022-23.912.044-43.261.055-56.637 0-1.674 0-3.249.005-4.731.017-1.477-.245-2.857-.729-4.045a9.911 9.911 0 0 0-1.884-2.981c-.73-.796-1.503-1.418-2.265-1.854a9.505 9.505 0 0 0-3.735-1.319c-.441-.087-.784-.065-1.013-.092-.229-.017-.343-.028-.343-.028l.033-.005Z" fill="#022749"/><path d="M112.961 57.951c0 .044-1.655.093-3.702.11-2.047.016-3.702 0-3.702-.05 0-.043 1.655-.092 3.702-.109 2.042-.016 3.702 0 3.702.05ZM112.978 59.848c0 .044-1.655.093-3.702.11-2.048.016-3.703 0-3.703-.05 0-.044 1.655-.093 3.703-.109 2.041-.016 3.702 0 3.702.05ZM112.994 61.745c0 .044-1.656.093-3.703.109-2.047.016-3.702 0-3.702-.05 0-.043 1.655-.092 3.702-.108 2.042-.016 3.703 0 3.703.049ZM45.632 63.909s.054-.006.152-.011c.12 0 .261-.01.43-.016.403-.011.931-.022 1.58-.038l-.044.043-.017-1.15c0-.213-.016-.414 0-.66a.614.614 0 0 1 .529-.49c.255 0 .479-.016.756 0 .283.033.529.31.518.61l.016 1.674-.07-.071c.642-.006 1.306-.011 1.992-.022l-.076.076c-.006-.806-.017-1.635-.022-2.485v-.632c0-.197-.12-.327-.278-.475-.294-.288-.588-.577-.87-.86-.284-.284-.567-.562-.84-.83a28.06 28.06 0 0 0-.408-.403c-.141-.136-.25-.272-.414-.31a.524.524 0 0 0-.457.087c-.12.103-.25.245-.37.365-.245.245-.485.49-.713.725-.452.469-.92.894-1.258 1.297-.142.224-.093.496-.098.747v.703c0 .43 0 .807-.006 1.134 0 .289-.005.529-.005.725 0 .169-.005.256-.01.261 0 0-.012-.076-.017-.24-.006-.19-.011-.43-.022-.713-.005-.328-.016-.709-.027-1.145 0-.224-.011-.463-.011-.72 0-.125 0-.256-.006-.392 0-.142.033-.289.11-.42.37-.452.81-.855 1.262-1.335.23-.235.469-.48.708-.73.126-.126.234-.251.387-.382a.662.662 0 0 1 .577-.114c.212.049.349.223.48.343.135.13.271.267.407.403l.844.829.872.855c.07.077.152.137.223.24a.618.618 0 0 1 .103.338c0 .213 0 .425.006.638l.016 2.486v.076h-.076c-.686 0-1.356.01-1.993.01h-.07v-.07c0-.578-.006-1.14-.012-1.673a.483.483 0 0 0-.402-.486c-.23-.01-.502 0-.725 0a.493.493 0 0 0-.43.387c-.022.202 0 .436-.01.638v1.194h-.044c-.66 0-1.198-.011-1.606-.011-.164 0-.3 0-.42-.006-.092 0-.141 0-.136-.005l-.005.01Z" fill="#022749"/><path d="M107.211 73.927H48.016a5.366 5.366 0 0 0-5.363 5.37v1.994a5.366 5.366 0 0 0 5.363 5.369h59.195a5.366 5.366 0 0 0 5.363-5.369v-1.995a5.366 5.366 0 0 0-5.363-5.369Z" fill="#F5F5F5"/><path d="M107.212 86.66s.136-.016.402-.033a6.068 6.068 0 0 0 1.155-.223 5.501 5.501 0 0 0 1.682-.889 5.265 5.265 0 0 0 1.595-2.022c.196-.447.36-.943.42-1.483.07-.534.049-1.111.049-1.716-.011-.6.027-1.232-.082-1.865a5.325 5.325 0 0 0-.691-1.864c-.708-1.177-1.977-2.17-3.529-2.453-.767-.147-1.589-.076-2.428-.092h-2.586c-14.13.01-33.632.022-55.171.038a5.232 5.232 0 0 0-3.561 1.406 5.261 5.261 0 0 0-1.655 3.401c-.044.633-.011 1.303-.022 1.952-.017.66.016 1.28.196 1.891a5.286 5.286 0 0 0 2.167 2.965 5.123 5.123 0 0 0 1.693.725c.6.142 1.209.142 1.84.136H59.56c9.333.011 17.74.022 24.807.028 7.056.016 12.767.032 16.72.043 1.971.011 3.501.017 4.547.022.511.006.909.011 1.181.011.267 0 .403.011.403.011s-.136.01-.403.01c-.272 0-.67.006-1.181.012-1.046.005-2.576.016-4.547.022-3.958.01-9.664.021-16.72.043-7.062.006-15.469.017-24.806.027H48.685c-.615 0-1.268.006-1.894-.141a5.335 5.335 0 0 1-1.775-.758 5.538 5.538 0 0 1-2.276-3.112c-.19-.632-.223-1.32-.207-1.962.01-.655-.022-1.298.022-1.974a5.498 5.498 0 0 1 5.472-5.042c21.539.017 41.047.028 55.171.039h2.586c.839.016 1.661-.05 2.461.103 1.595.3 2.897 1.325 3.621 2.54.365.61.599 1.27.702 1.919.109.654.065 1.292.071 1.886 0 .6.016 1.177-.06 1.728a5.244 5.244 0 0 1-.441 1.51 5.354 5.354 0 0 1-1.639 2.044 5.42 5.42 0 0 1-1.715.872c-.506.136-.898.19-1.165.201-.267.011-.403.006-.403.006l-.005.038Z" fill="#022749"/><path d="M108.289 79.994s-.021-.207-.119-.55a2.308 2.308 0 0 0-.844-1.21 2.215 2.215 0 0 0-2.08-.295c-.773.267-1.438 1.09-1.432 2.055-.011.96.659 1.782 1.432 2.055.778.294 1.59.087 2.08-.295.511-.376.746-.872.844-1.21.098-.343.098-.55.119-.55.011 0 .017.049.017.147 0 .098 0 .245-.044.425-.071.36-.294.905-.833 1.33-.517.43-1.405.687-2.276.37-.866-.283-1.617-1.204-1.606-2.278-.011-1.079.746-1.995 1.606-2.278a2.402 2.402 0 0 1 2.276.37c.539.431.762.97.833 1.33.038.186.049.328.044.426 0 .098-.011.147-.017.147v.01Z" fill="#022749"/><path d="M109.558 83.967c-.055.05-.556-.414-1.127-1.03-.572-.616-.991-1.155-.937-1.204.054-.05.555.414 1.127 1.03.572.616.991 1.155.937 1.204Z" fill="#022749"/><path d="M52.094 79.024h-1.246v-.328h2.869v.328H52.47v3.226h-.376v-3.226ZM56.281 81.03H54.05c.038.555.468.926 1.05.926.327 0 .616-.114.817-.349l.202.235c-.24.283-.61.436-1.03.436-.832 0-1.398-.567-1.398-1.363s.555-1.357 1.3-1.357c.747 0 1.291.556 1.291 1.357v.114Zm-2.232-.268h1.89c-.044-.523-.426-.888-.948-.888-.523 0-.899.365-.942.888ZM58.644 82.25l-.844-1.117-.85 1.117h-.402l1.056-1.368-1.002-1.297h.403l.8 1.047.8-1.047h.398l-1.001 1.297 1.067 1.368h-.425ZM61.057 82.087c-.142.125-.354.185-.561.185-.5 0-.779-.283-.779-.78V79.88h-.479v-.305h.48v-.583h.359v.583h.811v.305h-.811v1.592c0 .316.163.485.463.485a.597.597 0 0 0 .397-.136l.125.256-.005.01Z" fill="#E0E0E0"/><path d="M60.91 97.245H45.605v15.322H60.91V97.245Z" fill="#15A9F3"/><path d="M60.91 97.245H45.605v15.322H60.91V97.245Z" fill="#022749" opacity=".4"/><path d="M90.349 98.788c0 .07-5.118.13-11.428.13-6.31 0-11.429-.06-11.429-.13 0-.071 5.118-.131 11.429-.131 6.31 0 11.428.06 11.428.13Z" fill="#15A9F3"/><path d="M108.578 103.481c0 .071-9.196.13-20.543.13s-20.543-.059-20.543-.13c0-.071 9.196-.131 20.543-.131s20.543.06 20.543.131ZM108.093 106.838c0 .071-9.092.131-20.297.131-11.206 0-20.304-.06-20.304-.131 0-.071 9.087-.131 20.303-.131 11.217 0 20.298.06 20.298.131ZM91.465 110.038c0 .071-5.368.131-11.984.131-6.615 0-11.989-.06-11.989-.131 0-.071 5.369-.131 11.99-.131 6.62 0 11.983.06 11.983.131Z" fill="#022749"/><path d="M60.91 122.667H45.605v15.322H60.91v-15.322ZM90.349 124.313c0 .071-5.118.131-11.428.131-6.31 0-11.429-.06-11.429-.131 0-.071 5.118-.131 11.429-.131 6.31 0 11.428.06 11.428.131Z" fill="#15A9F3"/><path d="M108.578 129.011c0 .071-9.196.131-20.543.131s-20.543-.06-20.543-.131c0-.07 9.196-.13 20.543-.13s20.543.06 20.543.13ZM108.093 132.364c0 .071-9.092.13-20.297.13-11.206 0-20.304-.059-20.304-.13 0-.071 9.087-.131 20.303-.131 11.217 0 20.298.06 20.298.131ZM91.465 135.563c0 .071-5.368.131-11.984.131-6.615 0-11.989-.06-11.989-.131 0-.071 5.369-.131 11.99-.131 6.62 0 11.983.06 11.983.131Z" fill="#022749"/><path d="M60.91 148.192H45.605v15.322H60.91v-15.322ZM90.349 149.838c0 .071-5.118.131-11.428.131-6.31 0-11.429-.06-11.429-.131 0-.07 5.118-.13 11.429-.13 6.31 0 11.428.06 11.428.13Z" fill="#15A9F3"/><path d="M108.578 154.537c0 .071-9.196.131-20.543.131s-20.543-.06-20.543-.131c0-.071 9.196-.131 20.543-.131s20.543.06 20.543.131ZM108.093 157.889c0 .071-9.092.131-20.297.131-11.206 0-20.304-.06-20.304-.131 0-.071 9.087-.131 20.303-.131 11.217 0 20.298.06 20.298.131ZM91.465 161.089c0 .07-5.368.13-11.984.13-6.615 0-11.989-.06-11.989-.13 0-.071 5.369-.131 11.99-.131 6.62 0 11.983.06 11.983.131Z" fill="#022749"/><path d="M60.91 173.718H45.605v15.322H60.91v-15.322Z" fill="#15A9F3"/><path d="M90.349 175.364c0 .071-5.118.131-11.428.131-6.31 0-11.429-.06-11.429-.131 0-.071 5.118-.131 11.429-.131 6.31 0 11.428.06 11.428.131ZM108.578 180.062c0 .071-9.196.131-20.543.131s-20.543-.06-20.543-.131c0-.071 9.196-.131 20.543-.131s20.543.06 20.543.131ZM108.093 183.414c0 .071-9.092.131-20.297.131-11.206 0-20.304-.06-20.304-.131 0-.07 9.087-.13 20.303-.13 11.217 0 20.298.06 20.298.13ZM91.465 186.614c0 .071-5.368.131-11.984.131-6.615 0-11.989-.06-11.989-.131 0-.071 5.369-.131 11.99-.131 6.62 0 11.983.06 11.983.131Z" fill="#022749"/><path d="M60.91 199.243H45.605v15.322H60.91v-15.322ZM90.349 200.889c0 .071-5.118.131-11.428.131-6.31 0-11.429-.06-11.429-.131 0-.071 5.118-.131 11.429-.131 6.31 0 11.428.06 11.428.131Z" fill="#E0E0E0"/><path d="M108.578 205.588c0 .071-9.196.131-20.543.131s-20.543-.06-20.543-.131c0-.071 9.196-.131 20.543-.131s20.543.06 20.543.131ZM108.093 208.94c0 .071-9.092.131-20.297.131-11.206 0-20.304-.06-20.304-.131 0-.071 9.087-.131 20.303-.131 11.217 0 20.298.06 20.298.131ZM91.465 212.139c0 .071-5.368.131-11.984.131-6.615 0-11.989-.06-11.989-.131 0-.07 5.369-.13 11.99-.13 6.62 0 11.983.06 11.983.13Z" fill="#EBEBEB"/><path d="M60.91 173.718H45.605v15.322H60.91v-15.322ZM60.91 122.667H45.605v15.322H60.91v-15.322Z" fill="#022749" opacity=".3"/><path d="m64.04 77.585-17.885 9.953-12.632-18.636.033-.584c.016-.321.038-.675.082-1.073.049-.464.174-.916.37-1.341.24-.513.582-1.183.882-1.494.37-.381.098-1.013-.37-.932-.469.082-1.514 1.112-2.097 2.731-.582 1.619-1.437-.916-1.764-1.837-.326-.916-1.47-3.706-1.829-3.82-.528-.17-.811.375-.463 1.286.354.92 1.198 3.711.713 3.875-.479.158-2.08-4.535-2.08-4.535s-.18-1.063-.75-.894c-1.024.305 1.04 5.162 1.246 5.62.147.316-.381.512-.517.163-.142-.36-1.487-4.725-2.537-4.426-.806.23 1.66 4.012 1.442 5.086-.217 1.074-1.579-3.069-2.34-2.818-.284.092-.48.202.636 2.458.545 1.096 1.356 2.998 2.401 4.66l12.49 24.441a6.686 6.686 0 0 0 8.68 3.069l16.518-7.31-.228-13.626v-.016Z" fill="#FFBE9D"/><path d="M31.367 70.766s-.196-.115-.37-.414a2.623 2.623 0 0 1-.327-1.309 2.622 2.622 0 0 1 .354-1.297c.18-.3.354-.43.381-.409.07.044-.452.72-.452 1.712-.022.992.485 1.673.414 1.717Z" fill="#EB996E"/><path d="m3.086 73.66 22.095 7.647a1.766 1.766 0 0 0 2.254-1.1l5.804-16.805a1.769 1.769 0 0 0-1.1-2.257l-19.203-6.644a2.166 2.166 0 0 0-1.65.098l-3.544 1.723a2.168 2.168 0 0 0-1.111 1.27L2.052 71.578a1.654 1.654 0 0 0 1.029 2.077l.005.005Z" fill="#15A9F3"/><path d="m10.438 58.583-4.7 13.61c-.183.53.098 1.106.626 1.29l17.898 6.193a1.012 1.012 0 0 0 1.288-.627l4.7-13.61a1.014 1.014 0 0 0-.627-1.29l-17.897-6.193a1.012 1.012 0 0 0-1.288.627Z" fill="#EBEBEB"/><path d="M17.302 59.886c.076.028-1.067 3.521-2.548 7.811-1.48 4.29-2.744 7.745-2.815 7.718-.076-.027 1.067-3.52 2.548-7.81 1.481-4.29 2.744-7.746 2.815-7.719Z" fill="#15A9F3"/><path d="M13.464 70.777s.07-.006.196.022l-.027.081c-.452-.098-1.748-.501-3.261-1.024-1.884-.654-3.393-1.243-3.37-1.314.026-.076 1.573.392 3.462 1.046 1.514.524 2.788 1.009 3.201 1.21l-.027.082c-.12-.054-.174-.092-.168-.103h-.006ZM15.86 64.448c-.028.077-1.536-.381-3.371-1.019-1.835-.638-3.305-1.21-3.278-1.286.028-.076 1.536.381 3.37 1.02 1.835.637 3.306 1.21 3.278 1.285ZM24.8 62.524c.076.028-1.062 3.516-2.543 7.79-1.475 4.278-2.733 7.723-2.809 7.696-.076-.028 1.062-3.516 2.543-7.79 1.475-4.278 2.733-7.723 2.81-7.696Z" fill="#15A9F3"/><path d="M29.172 69.278c-.027.076-1.389-.333-3.044-.905-1.655-.572-2.978-1.096-2.95-1.172.026-.076 1.388.333 3.043.905 1.655.572 2.978 1.096 2.95 1.172ZM27.424 75.835c-.027.076-1.492-.365-3.272-.981-1.78-.616-3.207-1.177-3.18-1.254.027-.076 1.492.365 3.272.981 1.78.616 3.207 1.178 3.18 1.248v.006Z" fill="#15A9F3"/><path d="M.784 69.452c-.109-1.133.691-1.27.691-1.27s-.087-.425.11-1.046c.195-.622.8-.736.8-.736s.021-.91.288-1.292c.267-.376 1.557-.578 1.557-.578v.932l-.168.3s.767 1.864 1.17.709c.566-1.625 1.628-2.65 2.096-2.731.469-.082.74.55.37.932-.299.31-.642.981-.881 1.493a4.134 4.134 0 0 0-.37 1.341c-.039.398-.066.758-.082 1.074l-.033.583L18.964 87.8l17.886-9.953 6.642 10.727-22.928 10.21a6.69 6.69 0 0 1-8.678-3.07L1.072 73.344s-1.29-2.158-1.045-3.069c.185-.692.757-.823.757-.823Z" fill="#FFBE9D"/><path d="M26.755 83.477s-.163.136-.49.332c-.327.196-.8.474-1.388.812a300.726 300.726 0 0 1-4.628 2.595l-1.155.632.033-.027a4.8 4.8 0 0 0-1.181 2.044 4.817 4.817 0 0 0-.153 1.902c.136 1.085.506 1.668.463 1.69-.011.005-.114-.13-.25-.403a4.593 4.593 0 0 1-.393-1.26 4.856 4.856 0 0 1 .099-1.99 4.95 4.95 0 0 1 1.22-2.174l.015-.016.017-.011a325.7 325.7 0 0 1 5.82-3.161 60.662 60.662 0 0 1 1.432-.736c.343-.17.534-.251.545-.235l-.006.006ZM2.929 67.686c-.05.06-.349-.12-.512-.496-.169-.376-.098-.72-.022-.714.082 0 .142.289.283.6.137.316.31.55.256.61H2.93ZM2.02 69.703c-.06.049-.354-.224-.529-.67-.18-.447-.152-.85-.076-.85.082-.006.174.343.338.746.158.409.326.73.267.78v-.006ZM1.18 70.782c-.054.05-.331-.18-.462-.594-.13-.414-.038-.763.033-.752.081.005.12.316.234.67.109.355.256.627.196.682v-.006Z" fill="#EB996E"/><path d="m92.789 219.018-18.463-94.531h.021c-.032-.147-.07-.278-.103-.414v-.016c-2.799-11.109-5.01-13.834-5.01-13.834l-27.266.747c-2.14 3.848-2.412 13.087-2.412 13.087-.294 1.134 3.909 93.021 3.909 93.021l11.303-.033 3.087-87.14 24.387 89.277 10.552-.153-.005-.011Z" fill="#022749"/><path d="M65.064 126.946c.022.087-3.011.954-6.779 1.929-3.767.976-6.838 1.695-6.86 1.603-.022-.087 3.01-.954 6.779-1.93 3.767-.975 6.838-1.695 6.86-1.602Z" fill="#022749"/><path d="m44.521 217.04-1.786 5.963 10.552-.126.517-5.837h-9.283Z" fill="#15A9F3"/><path d="M53.489 221.874c0 .044-.588.098-1.535.12-.948.027-2.26.017-3.708-.016-1.383-.044-2.63-.087-3.703-.12-.947-.038-1.535-.071-1.535-.12 0-.044.588-.093 1.535-.114.948-.022 2.26-.017 3.708.021 1.378.044 2.63.082 3.703.115.947.038 1.535.065 1.535.114Z" fill="#022749"/><path d="M48.964 217.388c.093 0 .115 1.003.044 2.23-.066 1.226-.196 2.213-.289 2.207-.092 0-.114-1.003-.043-2.229.065-1.227.196-2.213.288-2.208Z" fill="#022749"/><path d="m42.735 223.003 10.552-.126.087-1.003-10.464-.136-.175 1.145" fill="#fff" opacity=".6"/><path d="m92.653 220.343-.022-1.325-10.394.153-.044 3.603.648.038c2.875.136 14.62.512 16.536-.033 2.134-.61-6.719-2.436-6.719-2.436h-.005Z" fill="#15A9F3"/><path d="M85.967 222.686c-.153-.806-.643-1.559-1.345-2.06a3.726 3.726 0 0 0-2.44-.698l.017 2.709 3.762.049h.006Z" fill="#fff" opacity=".6"/><path d="M96.981 221.373s3.104.823 2.723 1.297c-.382.474-12.267.512-17.51.104l.016-.218 13.862.065s.305-1.226.91-1.248Z" fill="#fff" opacity=".6"/><path d="M82.046 222.55s.06.011.18.016c.152.011.321.017.511.028.512.016 1.15.043 1.895.071 1.596.049 3.806.087 6.245.081 2.44-.005 4.65-.054 6.245-.114.746-.033 1.378-.06 1.89-.076.19-.011.36-.022.511-.028.12-.005.18-.016.18-.016s-.06-.005-.18 0c-.152 0-.32 0-.517.005-.511.011-1.148.028-1.889.044a336.3 336.3 0 0 1-6.245.076c-2.44 0-4.644-.021-6.245-.049a414.78 414.78 0 0 1-1.895-.032h-.517c-.12 0-.18 0-.18.005l.011-.011Z" fill="#022749"/><path d="M96.067 222.774c.038 0 .065-.415.348-.84.272-.43.664-.648.642-.676-.005-.027-.451.153-.745.616-.3.458-.273.911-.24.905l-.005-.005ZM92.985 221.335c.027.016.174-.148.326-.371.153-.223.25-.42.218-.436-.027-.016-.174.147-.326.371-.153.223-.25.419-.218.436ZM92.14 220.926s.186-.076.365-.229c.18-.153.305-.294.278-.316-.022-.022-.185.076-.365.229-.18.152-.305.294-.278.316ZM91.602 220.01c0 .033.245.06.544.066.3 0 .544-.022.544-.055s-.245-.06-.544-.06c-.3 0-.544.022-.544.055v-.006ZM91.41 219.367c-.01.027.256.142.61.163.354.028.632-.049.626-.081-.005-.033-.283-.017-.615-.038-.337-.022-.604-.077-.615-.044h-.005Z" fill="#022749"/><path d="M93.333 220.49s.256.043.67-.006c.207-.021.446-.071.713-.147.13-.043.267-.076.408-.158.066-.044.136-.098.164-.196.027-.093-.028-.196-.104-.251-.642-.305-1.28.033-1.513.338-.131.158-.191.311-.218.414-.027.109-.022.169-.017.169.022.006.044-.245.3-.534.125-.142.321-.278.566-.349.234-.065.572-.081.795.049.109.071.065.191-.049.257-.109.065-.25.109-.376.152-.25.082-.49.136-.686.169-.397.066-.653.071-.653.087v.006Z" fill="#022749"/><path d="M93.507 220.517s.11-.153.077-.431a.955.955 0 0 0-.185-.452c-.12-.136-.273-.327-.561-.316-.153.016-.229.185-.202.289.011.109.066.201.115.278.098.152.212.278.32.376.213.191.377.261.387.251.011-.017-.136-.109-.32-.306a2.42 2.42 0 0 1-.284-.37c-.093-.131-.158-.365.011-.398.169-.017.338.142.441.261.103.137.163.278.19.404.055.251-.01.414.017.419l-.006-.005ZM82.237 219.901s.299-.027.767.022a3.539 3.539 0 0 1 1.683.638c.566.414.898.964 1.056 1.373.163.414.18.692.201.692.006 0 .011-.07 0-.196a2.193 2.193 0 0 0-.12-.523 2.98 2.98 0 0 0-1.067-1.439 3.324 3.324 0 0 0-2.325-.611.697.697 0 0 0-.206.044h.01ZM87.268 221.738c0 .033.675.131 1.519.136.844.006 1.524-.087 1.519-.12 0-.032-.68.006-1.52 0-.838 0-1.518-.054-1.518-.016Z" fill="#022749"/><path d="M85.226 221.738s.054.136.125.278c.07.142.109.272.147.272.032 0 .054-.152-.033-.321-.082-.169-.218-.256-.24-.229ZM84.452 220.85s.044.125.153.223c.108.104.217.164.24.142.026-.022-.044-.126-.153-.224-.11-.103-.218-.163-.24-.141ZM83.353 220.446c.006.033.147.033.3.082.152.044.26.125.288.104.027-.017-.06-.159-.25-.213-.19-.06-.349 0-.338.033v-.006ZM82.564 220.261c-.011.033.049.082.136.109.087.033.169.033.18 0 .01-.033-.05-.082-.136-.109-.088-.033-.17-.033-.18 0Z" fill="#022749"/><path d="m69.012 86.605-2.962 15.431c6.18 8.607 6.74 15.992 6.74 15.992l-33.24 3.892c0-6.028 4.384-15.774 4.384-15.774l-2.832-15.267-9.539 4.148-5.09-12.466c-.126.327 7.072-4.295 12.685-7.277 2.663-1.411 4.465-2.692 7.476-2.698h14.047s.768.055 1.895.371c0 0 7.007-.376 7.007 6.372 0 3.14-.571 7.271-.571 7.271" fill="#15A9F3"/><path d="M52.694 102.963c-.071-.027.152-.807.506-1.733.354-.933.697-1.663.768-1.636.07.028-.153.807-.507 1.734-.353.932-.697 1.662-.767 1.635ZM53.227 108.904c-.06.055-.599-.452-1.203-1.128-.605-.676-1.051-1.265-.991-1.319.06-.055.599.452 1.203 1.128.604.676 1.05 1.265.99 1.319ZM59.995 103.715c.01.076-.686.251-1.557.387-.871.136-1.59.185-1.601.109-.01-.076.686-.251 1.557-.387.871-.136 1.59-.185 1.601-.109ZM60.632 98.608c-.071.027-.458-.78-.855-1.804-.398-1.025-.665-1.875-.594-1.908.071-.027.458.78.855 1.804.398 1.025.664 1.875.594 1.908ZM65.581 97.436c.06.049-.343.697-.909 1.45-.566.752-1.078 1.33-1.138 1.281-.06-.049.343-.698.91-1.45.566-.752 1.078-1.33 1.137-1.281ZM65.206 106.756c-.07.039-.517-.637-1.002-1.515-.484-.872-.822-1.613-.751-1.651.07-.039.517.637 1.002 1.515.484.872.822 1.613.75 1.651ZM60.153 111.182c-.071.039-.474-.539-.904-1.297-.43-.757-.724-1.401-.654-1.439.066-.038.474.54.904 1.297.43.758.724 1.401.654 1.439ZM55.71 116.121c-.033.076-.735-.164-1.617-.382-.883-.223-1.612-.338-1.607-.42 0-.076.768-.081 1.677.142.91.224 1.58.589 1.547.654v.006ZM65.227 113.406c.055.06-.539.665-1.252 1.417-.713.753-1.285 1.379-1.345 1.33-.06-.049.414-.757 1.138-1.52s1.405-1.281 1.46-1.221v-.006ZM69.62 115.897c-.075-.011-.026-.747.11-1.635.136-.894.31-1.608.386-1.597.077.011.028.747-.109 1.635-.136.894-.31 1.608-.386 1.597ZM46.154 114.436c.076.017-.049.938-.278 2.061-.228 1.123-.479 2.017-.555 2.006-.076-.017.05-.938.278-2.061.229-1.123.479-2.016.555-2.006ZM47.782 109.994c-.049.066-.773-.42-1.677-.976-.903-.561-1.66-.986-1.622-1.062.033-.071.855.25 1.775.817.92.567 1.573 1.156 1.53 1.216l-.006.005ZM48.545 101.339c.054.054-.37.561-.953 1.122-.583.567-1.094.976-1.149.922-.054-.055.37-.562.953-1.123.583-.567 1.094-.976 1.149-.921ZM46.215 96.378c-.055.055-.572-.397-1.144-1.002-.577-.611-.996-1.145-.936-1.2.054-.054.571.398 1.143 1.003.577.61.996 1.145.937 1.2ZM53.423 93.02c.044.06-.539.524-1.383.862-.838.343-1.579.425-1.59.354-.016-.081.67-.278 1.487-.616.811-.327 1.448-.67 1.492-.6h-.006ZM64.144 91.44c-.065-.043.267-.66.648-1.433.386-.769.68-1.407.757-1.38.07.028-.104.72-.501 1.505-.392.79-.839 1.346-.904 1.303v.005ZM55.906 88.219c.071-.044.463.496.991 1.123.523.627.986 1.112.937 1.171-.05.06-.61-.343-1.15-.992-.544-.643-.843-1.264-.778-1.302ZM38.39 87.085c.072.033-.135.654-.467 1.395-.327.736-.654 1.309-.725 1.281-.07-.032.137-.654.469-1.395.326-.736.653-1.308.724-1.28ZM32.935 88.431c-.071.033-.501-.8-.959-1.864-.457-1.063-.767-1.946-.696-1.973.07-.033.5.801.958 1.864.457 1.058.768 1.946.697 1.973ZM36.267 82.169c-.027.07-.746-.153-1.6-.502-.855-.349-1.52-.692-1.492-.763.027-.07.746.153 1.6.502.855.348 1.52.692 1.492.763ZM41.472 75.143c.049.06-.55.67-1.345 1.373-.795.698-1.48 1.216-1.535 1.156-.05-.06.55-.67 1.345-1.374.794-.698 1.48-1.215 1.535-1.155Z" fill="#FAFAFA"/><path d="M48.197 46.238c-2.76 1.254-3.872 4.311-4.144 7.118-.272 2.807.017 5.73-1.067 8.362-.91 2.213-2.782 4.235-2.575 6.606.158 1.771 1.47 3.33 1.715 5.09.468 3.413-3.153 6.47-2.494 9.861.3 1.553 3.692 5.358 5.118 6.274l7.574-1.292 1.018-3.483.724 3.314 6.735-.883.349-3.685 1.36 3.249 2.663.43c1.835.039 3.697-.615 4.89-1.864 1.192-1.248 1.65-3.09 1.012-4.66-.887-2.186-3.61-3.592-4.029-5.887-.38-2.07 1.307-4.126.773-6.175-.593-2.279-3.642-3.483-4.377-5.729-.888-2.692 1.944-5.57.844-8.198-.648-1.548-2.51-2.523-3.011-4.115-.343-1.09.027-2.262-.223-3.374-.43-1.918-2.587-3.161-4.688-3.597-2.581-.534-5.39-.18-7.601 1.1-2.21 1.276-3.762 3.49-3.964 5.877" fill="#022749"/><path d="M52.324 44.286c2.521-.964 5.461-.757 7.824.551 2.363 1.308 4.1 3.69 4.628 6.34.425 2.136.11 4.452 1.04 6.42 1.007 2.142 3.376 3.614 3.735 5.952.349 2.262-1.34 4.317-1.688 6.58-.364 2.354.74 4.73.474 7.096-.267 2.344-1.998 4.459-4.241 5.178-2.244.72-4.884 0-6.458-1.75" fill="#022749"/><path d="M55.836 62.35s-.174.114-.523.229c-.348.114-.866.24-1.524.283a8.16 8.16 0 0 1-2.293-.201c-.854-.186-1.736-.55-2.646-.949-.909-.403-1.753-.845-2.472-1.33-.718-.485-1.306-1.019-1.72-1.531a4.557 4.557 0 0 1-.757-1.358c-.093-.36-.125-.556-.109-.56.022 0 .087.184.212.522.153.322.382.79.806 1.27.42.48 1.002.981 1.71 1.445.713.463 1.54.894 2.445 1.292.903.392 1.764.757 2.591.948a8.526 8.526 0 0 0 2.222.256c1.285-.027 2.036-.365 2.052-.305l.006-.011ZM55.939 60.404s-.218.022-.599-.033a6.788 6.788 0 0 1-1.579-.414c-1.296-.48-2.95-1.553-4.312-3.172-1.35-1.619-2.341-3.243-3.05-4.415a37.253 37.253 0 0 1-.8-1.412c-.18-.338-.272-.534-.255-.54.016-.01.141.164.348.486.24.376.534.828.877 1.362.751 1.14 1.764 2.747 3.098 4.339 1.334 1.586 2.923 2.655 4.176 3.172 1.252.529 2.112.573 2.101.633l-.005-.006ZM57.73 61.647c.027-.011.153.3.517.768a4.416 4.416 0 0 0 2.031 1.407 4.304 4.304 0 0 0 1.688.218 3.671 3.671 0 0 0 1.813-.665c1.127-.769 1.998-2.268 1.824-3.865-.201-1.591-1.394-2.85-2.668-3.336a3.689 3.689 0 0 0-1.916-.223 4.17 4.17 0 0 0-1.59.6 4.46 4.46 0 0 0-1.65 1.836c-.25.54-.3.878-.327.867-.01 0 0-.087.028-.24.021-.158.081-.387.201-.67.223-.562.719-1.346 1.639-1.962a4.368 4.368 0 0 1 1.666-.665 3.943 3.943 0 0 1 2.047.212c1.361.507 2.64 1.826 2.859 3.548.185 1.723-.752 3.304-1.96 4.11a3.947 3.947 0 0 1-1.944.682 4.354 4.354 0 0 1-1.77-.262c-1.04-.382-1.704-1.036-2.047-1.526a2.896 2.896 0 0 1-.348-.605c-.06-.147-.093-.224-.082-.23h-.01Z" fill="#022749"/><path d="M59.407 63.533c-.011.027-.381-.077-.871-.447a3.808 3.808 0 0 1-1.323-1.962 3.857 3.857 0 0 1 .098-2.371c.217-.578.484-.862.506-.84.038.022-.158.344-.316.905a4.128 4.128 0 0 0-.016 2.23 4.14 4.14 0 0 0 1.181 1.89c.43.393.763.562.74.606v-.011Z" fill="#15A9F3"/><path d="M64.803 53.738c.07-.027.278.654.038 1.46-.234.813-.773 1.27-.822 1.21-.066-.054.337-.555.55-1.291.223-.73.152-1.368.234-1.379ZM65.408 58.17s-.185.484-.74 1.1a6.199 6.199 0 0 1-5.903 1.886c-.811-.18-1.258-.441-1.241-.468.016-.044.484.147 1.28.272a6.844 6.844 0 0 0 3.081-.229 6.778 6.778 0 0 0 2.64-1.602c.572-.562.845-.992.888-.965l-.005.005ZM58.465 84.272s-.06-.049-.158-.157a5.821 5.821 0 0 1-.386-.502c-.316-.452-.703-1.161-1.018-2.099-.31-.937-.534-2.103-.583-3.412-.054-1.308.076-2.736.278-4.218.201-1.483.44-2.884.582-4.165.142-1.28.185-2.442.136-3.412-.049-.97-.18-1.75-.305-2.278-.12-.529-.212-.818-.19-.829.01 0 .044.066.093.202.054.136.125.338.2.6.159.528.322 1.313.398 2.294.077.981.055 2.159-.076 3.45-.125 1.292-.36 2.699-.56 4.176-.202 1.477-.333 2.889-.295 4.17.033 1.28.229 2.43.512 3.357.566 1.87 1.427 2.785 1.367 2.818l.005.005ZM67.929 80.762s-.066.028-.202.05c-.13.021-.332.038-.588.032-.512-.01-1.263-.142-2.08-.578-.811-.425-1.682-1.16-2.352-2.175-.686-1.008-1.192-2.256-1.59-3.58a41.091 41.091 0 0 1-1.453-6.94c-.104-.899-.164-1.635-.186-2.141-.027-.507-.021-.79 0-.79.022 0 .055.277.115.779.06.501.147 1.232.277 2.126.262 1.787.73 4.245 1.53 6.884.398 1.313.888 2.534 1.536 3.52.642.993 1.459 1.707 2.232 2.143.773.441 1.497.6 1.993.643.495.044.778 0 .778.033l-.01-.006Z" fill="#022749"/><path d="M350.72 203.811c.931 1.33 2.739.888 3.577.076.839-.812 1.192-1.989 1.514-3.112.735-2.567 1.481-5.255.931-7.866-.164-.779-.458-1.558-1.002-2.136-.55-.578-1.388-.921-2.162-.72-.909.24-1.481 1.134-1.889 1.984a18.81 18.81 0 0 0-1.851 8.046c0 1.297.147 2.654.876 3.728" fill="#15A9F3"/><path d="M350.72 203.811c.931 1.33 2.739.888 3.577.076.839-.812 1.192-1.989 1.514-3.112.735-2.567 1.481-5.255.931-7.866-.164-.779-.458-1.558-1.002-2.136-.55-.578-1.388-.921-2.162-.72-.909.24-1.481 1.134-1.889 1.984a18.81 18.81 0 0 0-1.851 8.046c0 1.297.147 2.654.876 3.728" fill="#022749" opacity=".2"/><path d="M354.211 210.548c1.519-.785 3.315-.889 5.003-.611.909.153 1.857.42 2.472 1.107.615.681.735 1.886.027 2.469-.424.349-1.012.403-1.557.398-1.323-.016-2.788-.251-3.849.55-.605.453-1.002 1.21-1.726 1.434-.708.218-1.503-.196-1.873-.834-.376-.638-.387-1.434-.213-2.153 0 0 .186-1.564 1.716-2.355v-.005ZM348.167 205.724c1.012-1.199 1.203-2.949.751-4.453-.452-1.505-1.465-2.786-2.635-3.827a14.134 14.134 0 0 0-4.721-2.79c-.68-.24-1.404-.431-2.123-.36-.719.071-1.443.436-1.781 1.079-.495.949-.021 2.099.496 3.036a36.16 36.16 0 0 0 3.098 4.726c.931 1.199 1.993 2.382 3.408 2.927 1.416.54 2.886.48 3.637-.507" fill="#15A9F3"/><path d="M350.938 222.953c.043-.441-.098-.665-.038-1.324a24.15 24.15 0 0 1 .37-2.42c.191-.899.49-1.87.877-2.856.397-.981.887-1.87 1.459-2.584.566-.714 1.225-1.232 1.84-1.531a5.133 5.133 0 0 1 1.552-.486c.386-.038.599-.07.599-.087 0-.016-.218-.022-.61-.011a4.76 4.76 0 0 0-1.617.42c-.653.289-1.35.818-1.944 1.548-.599.73-1.105 1.641-1.508 2.638-.392 1.003-.692 1.984-.871 2.905-.185.916-.267 1.75-.321 2.453-.055.703.043.905.032 1.297" fill="#022749"/><path d="M350.775 222.616s.016-.099.016-.278v-.802c0-.697 0-1.706.038-2.948.06-2.486.278-5.925.692-9.697.414-3.777.969-7.173 1.47-9.61.12-.61.24-1.161.354-1.64.109-.485.201-.9.289-1.238l.185-.779c.038-.18.06-.273.049-.278-.011 0-.044.087-.098.262-.06.201-.136.457-.234.768-.104.333-.207.747-.333 1.227-.125.479-.256 1.03-.386 1.635-.55 2.436-1.127 5.837-1.547 9.62-.413 3.783-.598 7.228-.615 9.724a49.88 49.88 0 0 0 .044 2.954c.022.327.038.589.049.802.016.185.027.278.032.278h-.005Z" fill="#022749"/><path d="M350.791 215.971s.017-.3-.005-.839a23.794 23.794 0 0 0-.256-2.273 30.211 30.211 0 0 0-.735-3.309 29.334 29.334 0 0 0-1.383-3.913c-1.149-2.72-2.706-4.949-4.056-6.328-.316-.366-.67-.633-.953-.889-.147-.125-.278-.245-.408-.343-.131-.093-.256-.175-.371-.256-.446-.306-.697-.469-.702-.453-.038.055.996.665 2.308 2.06 1.307 1.396 2.821 3.603 3.959 6.301a30.668 30.668 0 0 1 1.388 3.881 32.1 32.1 0 0 1 1.116 5.522c.049.534.087.828.104.828l-.006.011ZM211.294 134.592V161l8.215-29.686" fill="#022749"/><path d="m243.779 121.001-30.046.388a.152.152 0 0 0-.078.016.192.192 0 0 0-.066.056l-2.247 2.597a.06.06 0 0 0-.014.029.078.078 0 0 0 .001.034.057.057 0 0 0 .017.027.029.029 0 0 0 .025.007l17.714-.36a.093.093 0 0 1 .084.027c.024.023.04.058.045.098a.185.185 0 0 1-.02.112.111.111 0 0 1-.073.061l-23.128 6.17a.036.036 0 0 0-.021.014l-7.918 9.169a.322.322 0 0 0-.022.318c.025.048.06.083.102.1a.147.147 0 0 0 .126-.009l45.591-18.373a.204.204 0 0 0 .105-.109.326.326 0 0 0 .022-.176.267.267 0 0 0-.071-.15.154.154 0 0 0-.128-.046Z" fill="#022749"/><path d="M211.333 124.111v4.727l19.585-5.235-19.585.508Z" fill="#022749"/></g><defs><clipPath id="a"><path fill="#fff" d="M0 0h370v224H0z"/></clipPath></defs></svg>