<svg width="198" height="208" fill="none" xmlns="http://www.w3.org/2000/svg"><g clip-path="url(#a)"><path d="M54.486 5.09H15.513v68.807h38.973V5.09Z" fill="#E0E0E0"/><path d="M53.187 5.09H14.214v68.807h38.973V5.09Z" fill="#EBEBEB"/><path d="M51.531 6.484H15.874v66.014H51.53V6.484Z" fill="#FAFAFA"/><path d="M44.588 15.06H22.664v48.858h21.924V15.06Z" fill="#EBEBEB"/><path d="M22.664 46.632c-.053-4.565 3.795-9.022 8.035-9.656 2.022-.305 4.17.123 6.055-.7 3.368-1.474 4.443-6.25 7.833-7.663l.154 35.315H22.66V46.636l.005-.004ZM198 7.668h-37.379v41.556H198V7.668Z" fill="#E0E0E0"/><path d="M195.469 7.668H158.09v41.556h37.379V7.668Z" fill="#FAFAFA"/><path d="M195.477 49.233h-37.401V7.653h37.401v41.58Zm-37.379-.023h37.357V7.677h-37.357V49.21Z" fill="#E0E0E0"/><path d="M190.444 13.252h-27.331v30.383h27.331V13.253Z" fill="#FAFAFA"/><path d="M163.114 43.837c.022.029-.238.343-.674.836a70.202 70.202 0 0 1-1.739 1.879 78.786 78.786 0 0 1-1.784 1.822c-.466.456-.766.728-.788.7-.022-.024.234-.343.67-.831a74.695 74.695 0 0 1 1.739-1.884 79.342 79.342 0 0 1 1.788-1.827c.466-.455.766-.723.788-.7v.005ZM190.444 43.762c.027-.023.322.254.784.719a69.868 69.868 0 0 1 1.761 1.855 81.022 81.022 0 0 1 1.709 1.902c.427.498.682.817.656.84-.022.024-.322-.249-.78-.714a77.144 77.144 0 0 1-1.765-1.854 81.35 81.35 0 0 1-1.713-1.907c-.427-.498-.678-.817-.656-.84h.004ZM190.369 13.331c-.022-.028.238-.342.674-.835a70.202 70.202 0 0 1 1.739-1.879 78.772 78.772 0 0 1 1.784-1.822c.466-.456.766-.728.788-.7.022.024-.233.343-.669.831a86.777 86.777 0 0 1-1.74 1.884 81.738 81.738 0 0 1-1.787 1.826c-.467.456-.767.724-.789.7v-.005ZM163.038 13.407c-.026.023-.321-.254-.783-.719a68.095 68.095 0 0 1-1.762-1.855 80.67 80.67 0 0 1-1.708-1.902c-.427-.498-.683-.817-.656-.84.022-.024.321.248.779.713a74.943 74.943 0 0 1 1.766 1.855 81.35 81.35 0 0 1 1.713 1.907c.427.498.678.817.656.84h-.005Z" fill="#E0E0E0"/><path d="M190.37 43.636s0-.052-.005-.146c0-.103 0-.244-.004-.423 0-.38-.009-.93-.014-1.639-.004-1.437-.017-3.531-.026-6.194l-.053-21.978.106.113c-7.957.005-17.3.01-27.252.019l.119-.127c-.004 11.153-.013 21.583-.017 30.384l-.106-.113 19.735.057c2.382.014 4.254.023 5.544.028.634.005 1.127.01 1.466.014.163 0 .286.005.379.005.083 0 .132 0 .132.004 0 0-.04 0-.119.005-.088 0-.211 0-.37.005-.334 0-.819.009-1.449.014-1.281.004-3.148.018-5.521.028l-19.801.056h-.106v-.112c-.005-8.801-.009-19.231-.018-30.384v-.127h.119c9.951.005 19.295.01 27.252.019h.105v.112l-.052 22.053c-.014 2.649-.022 4.734-.027 6.166-.004.7-.009 1.245-.013 1.62 0 .174-.004.31-.004.414 0 .094 0 .136-.005.136l.005-.01Z" fill="#E0E0E0"/><path d="M181.339 23.578h-9.119v9.726h9.119v-9.726Z" fill="#EBEBEB"/><path d="M141.551 202.402c-.775-.709-2.51-2.963-1.172-5.579.489-.958 1.533-1.437 2.471-1.859.942-.423 1.933-.789 2.712-1.499 1.471-1.333 1.876-3.55 2.849-5.33 1.118-2.042 3.21-3.573 5.42-3.465 2.528.122 4.641 2.324 5.597 4.837.955 2.512.991 5.302 1.008 8.016.009 1.498-.053 3.193-1.083 4.203-.951.934-2.387.944-3.677.902l-13.821-.451" fill="#F5F5F5"/><path d="M167.988 161.861h-36.353l6.547 41.645c.287 1.817 1.519 3.221 3.105 3.705.039.014.083.024.127.038.11.028.212.07.322.089.238.051.489.08.74.089 0 .014 0 .028.004.038l.176-.029h16.204c.304 0 .603-.032.889-.093 1.916-.315 3.444-1.954 3.677-4.072l3.157-28.693.141-1.142h-.018l1.251-11.364.022-.216.009.005Zm-6.856 26.566h-3.73l.375-12.088h4.324l-.969 12.088Zm1.33-12.088h3.571l-1.33 12.088h-3.21l.969-12.088Zm-10.66 25.486-.225-10.501h5.372l-.326 10.501h-4.821Zm-5.808-10.501h5.222l.224 10.501h-4.68l-.766-10.501Zm.405 10.501h-4.377c-.414-2.837-.956-6.519-1.541-10.501h5.156l.766 10.501h-.004Zm-.617-13.398-.88-12.088h5.988l.26 12.088h-5.368Zm5.729 0-.26-12.088h6.165l-.375 12.088H151.511Zm-.322-14.986-.242-11.191h6.905l-.348 11.191h-6.315Zm-.361 0h-6.138l-.814-11.191h6.71l.242 11.191Zm-6.499 0h-6.494c-.229-1.545-.45-3.01-.643-4.325-.678-4.527-.934-6.227-1.075-6.866h7.398l.814 11.191Zm.212 2.898.88 12.088h-5.372c-.18-1.226-.365-2.466-.546-3.71-.422-2.856-.841-5.706-1.237-8.378h6.275Zm-4.853 12.088h-3.509l-1.902-12.088h3.624c.554 3.733 1.166 7.894 1.783 12.088h.004Zm.427 2.897c.533 3.635 1.062 7.218 1.542 10.501h-3.369l-1.651-10.501h3.478Zm16.869 10.501.326-10.501h3.589l-.841 10.501h-3.074Zm.885-28.384.348-11.191h5.011l-.898 11.191h-4.465.004Zm-22.091-11.191c.145.808.806 5.213 1.695 11.191h-3.65l-1.761-11.191h3.716Zm27.454 39.575h-2.809l.841-10.501h3.122l-1.154 10.501Zm3.122-28.384h-3.659l.898-11.191h3.994l-1.233 11.191Z" fill="#E0E0E0"/><path d="m184.596 30.172-.96-1.611c-8.097-13.572-22.408-21.536-37.3-20.193a36.76 36.76 0 0 0-5.693.967c-13.496 3.405-25.076 14.605-29.687 28.721-2.712 8.303-3.324 17.803-8.652 24.467-6.935 8.67-18.987 9.21-29.594 9.101-10.607-.112-22.672.465-29.568 9.167-4.32 5.453-5.574 13.088-5.072 20.245 1.325 18.949 14.055 35.625 29.986 43.698 15.93 8.072 34.499 8.406 51.676 4.306 24.059-5.743 46.754-20.531 60.126-42.885 13.373-22.349 16.27-52.451 4.742-75.983h-.004Z" fill="#F5F5F5"/><path d="M188.678 207.878c0 .066-42.24.122-94.334.122C42.249 208 0 207.944 0 207.878s42.231-.122 94.344-.122c52.112 0 94.334.056 94.334.122ZM138.16 157.005l-49.977-.033c-6.01 0-10.88-5.203-10.88-11.614l.026-133.628C77.33 5.315 82.208.121 88.22.121l49.976.033c6.01 0 10.88 5.203 10.88 11.614l-.026 133.633c0 6.415-4.879 11.613-10.894 11.608l.005-.004Z" fill="#022749"/><path d="M138.147 4.878h-9.692c-1.299-.004-2.351 1.17-2.351 2.616v1.874c0 1.451-1.052 2.625-2.356 2.62l-18.89-.014c-1.299 0-2.351-1.174-2.351-2.625V7.475c0-1.45-1.052-2.625-2.351-2.625h-3.408l-8.48-.01c-4.215 0-7.627 3.64-7.632 8.13l-.022 130.435c0 4.489 3.408 8.129 7.622 8.133l49.88.033c4.21 0 7.626-3.639 7.631-8.129l.022-130.435c0-4.49-3.408-8.129-7.622-8.133v.004Z" fill="#FAFAFA"/><path d="M129.481 9.11h-.555v.826h.555V9.11ZM130.383 8.739h-.555v1.197h.555V8.74ZM131.286 8.461h-.555v1.475h.555V8.461ZM132.184 7.93h-.555v2.01h.555V7.93ZM140.361 9.978h-2.778c-.11 0-.198-.094-.198-.211V8.292c0-.117.088-.21.198-.21h2.783s.026.004.035.013c.009.01.013.024.013.038v.483h.3c.026 0 .052.024.052.057v.709c0 .028-.022.056-.052.056h-.3v.484c0 .028-.022.056-.053.056Zm-.052-1.789h-2.73c-.053 0-.097.047-.097.103v1.475c0 .056.044.103.097.103h2.73v-.483c0-.029.022-.057.052-.057h.3v-.6h-.3c-.026 0-.052-.024-.052-.057v-.484Z" fill="#022749"/><path d="M137.711 9.626V8.43h2.373v1.197h-2.373ZM134.835 9.866c0-.118-.093-.216-.203-.216-.11 0-.202.098-.202.216 0 .117.092.216.202.216.11 0 .203-.099.203-.216ZM133.94 9.344l.26.277a.594.594 0 0 1 .432-.192c.167 0 .321.075.431.192l.26-.277a.95.95 0 0 0-.691-.305.952.952 0 0 0-.692.305Z" fill="#022749"/><path d="M134.632 8.42c-.431 0-.819.187-1.101.488l.26.277c.216-.23.515-.371.841-.371.326 0 .625.14.841.37l.26-.276a1.512 1.512 0 0 0-1.101-.489Z" fill="#022749"/><path d="m133.108 8.457.26.277a1.724 1.724 0 0 1 1.264-.559c.493 0 .938.216 1.264.559l.259-.277a2.08 2.08 0 0 0-1.523-.676c-.595 0-1.132.258-1.524.676ZM116.527 21.104h-3.356c-.231 0-.418.2-.418.446v2.427c0 .247.187.447.418.447h3.356c.231 0 .418-.2.418-.447V21.55c0-.247-.187-.447-.418-.447Z" fill="#022749"/><path d="M113.678 21.324h-.441v-.554c0-.99.692-1.738 1.612-1.738.92 0 1.611.747 1.611 1.738v.352h-.44v-.352c0-.732-.493-1.268-1.171-1.268s-1.171.53-1.171 1.268v.554Z" fill="#022749"/><path d="M81.138 103.38c-.009-8.411 4.588-16.648 11.528-20.65 4.861-2.803 10.488-3.55 15.873-4.864 5.386-1.32 10.969-3.499 14.298-8.2 4.5-6.354 3.641-15.384 6.886-22.555 2.937-6.481 9.401-10.97 16.147-11.21v109.185c0 3.668-2.787 6.64-6.226 6.64H87.36c-3.439 0-6.226-2.972-6.226-6.64V103.38h.004Z" fill="#EBEBEB"/><path d="M92.15 46.51c0-4.048 1.99-6.462 4.751-6.462s4.769 2.414 4.769 6.462-2.008 6.466-4.769 6.466c-2.76 0-4.75-2.414-4.75-6.466Zm8.256 0c0-3.396-1.43-5.265-3.505-5.265-2.073 0-3.509 1.87-3.509 5.265 0 3.395 1.431 5.264 3.51 5.264 2.078 0 3.504-1.869 3.504-5.264ZM112.018 46.401c0 4.321-2.215 6.575-5.447 6.575-1.074 0-2.078-.202-2.827-.69l.493-1.052c.612.437 1.431.601 2.316.601 2.572 0 4.223-1.761 4.223-5.213 0-.29-.018-.653-.053-1.033-.594 1.4-1.99 2.18-3.641 2.18-2.365 0-4.02-1.49-4.02-3.814 0-2.325 1.752-3.903 4.068-3.903 3.166 0 4.888 2.344 4.888 6.354v-.005Zm-1.687-2.521c0-1.4-1.087-2.724-3.148-2.724-1.722 0-2.911 1.07-2.911 2.761 0 1.69 1.158 2.743 2.995 2.743 1.836 0 3.064-1.198 3.064-2.78ZM113.806 44.222c0-.563.409-.981.902-.981.493 0 .921.418.921.981 0 .564-.428 1-.921 1-.493 0-.902-.436-.902-1Zm0 7.735c0-.563.409-.982.902-.982.493 0 .921.419.921.982 0 .564-.428 1-.921 1-.493 0-.902-.436-.902-1ZM125.536 51.703v1.16h-8.362v-.925l4.954-5.175c1.343-1.418 1.598-2.268 1.598-3.142 0-1.47-.969-2.38-2.792-2.38-1.395 0-2.47.455-3.249 1.418l-.868-.799c.921-1.16 2.4-1.817 4.223-1.817 2.417 0 3.95 1.306 3.95 3.433 0 1.216-.357 2.306-1.96 3.977l-4.051 4.25h6.557ZM126.997 46.51c0-4.048 1.99-6.462 4.751-6.462s4.769 2.413 4.769 6.462c0 4.048-2.008 6.466-4.769 6.466s-4.751-2.414-4.751-6.466Zm8.256 0c0-3.396-1.431-5.265-3.505-5.265s-3.509 1.87-3.509 5.265c0 3.395 1.431 5.264 3.509 5.264s3.505-1.87 3.505-5.264Z" fill="#022749"/><path d="M101.265 30.368c.999-4.955-1.958-9.835-6.603-10.9-4.646-1.065-9.222 2.089-10.22 7.043-.999 4.955 1.958 9.835 6.604 10.9 4.645 1.065 9.221-2.089 10.219-7.043Z" fill="#E0E0E0"/><path d="M46.194 101.44c-.62-.474-1.387-.667-2.078-1.014-.692-.348-1.36-.954-1.427-1.766-.092-1.197 1.15-2.104 1.224-3.306.102-1.69-2.043-2.616-2.36-4.278-.26-1.38.837-2.682.793-4.09-.049-1.405-1.19-2.457-1.709-3.748-1.21-2.996 1.026-6.861-.67-9.58-.453-.733-1.14-1.259-1.72-1.879-.582-.62-1.084-1.432-1.018-2.305l-3.179-1.54c-1.066-1.738-3.479-1.804-5.297-1.062-1.819.742-3.413 2.076-5.302 2.569-.916.24-.783-1.207-1.708-1.005-1.215.263-2.712 1.78-3.056 3.038-.37 1.348-.63 2.841-1.079 4.166-.497 1.46-1.968 2.484-2.104 4.029-.159 1.808 1.59 3.278 1.594 5.09 0 1.954-2.017 3.696-1.374 5.523.37 1.043 1.497 1.602 1.889 2.64.541 1.427-.537 2.99-.436 4.531.097 1.517 1.294 2.658 2.426 3.583 4.337 3.537 9.128 6.481 14.288 8.374 2.233.817 4.584 1.441 6.936 1.216 2.35-.226 4.715-1.428 5.948-3.574 1.013-1.766 1-4.395-.576-5.602l-.005-.01Z" fill="#022749"/><path d="M37.106 68.628c-.577-2.451-2.462-4.499-4.747-5.165-2.285-.667-4.883.08-6.548 1.878-.678.733-1.215 1.63-2.016 2.207-.907.648-1.04.46-2.052.883-1.013.428-2.875 3.442-2.84 4.602l-.506 5.1c.04 1.193 1.479 1.865 2.54 1.48 1.061-.39 1.761-1.447 2.325-2.48.56-1.033 1.088-2.155 2.003-2.841 1.52-1.141 3.58-.747 5.399-.352 1.818.399 3.928.68 5.345-.597 1.224-1.099 1.489-3.057 1.101-4.715h-.004Z" fill="#022749"/><path d="M38.106 75.907c-.203-3.32-2.272-7.387-5.372-7.03l-9.679 2.635c-.942.108-1.65.967-1.629 1.977l1.088 24.899-.066.014s3.936 8.899 10.334 6.753c1.268-.428.12-3.781.37-5.307l.066.01c0-.184.004-.348.009-.522.211-1.756.04-3.418.04-3.418.017-2.01.017-2.837.017-2.818 0 0 3.976-.714 4.787-6.246.405-2.752.264-7.265.04-10.951l-.005.004Z" fill="#FFBE9D"/><path d="M37.304 80.171a.693.693 0 0 1-.638.719.65.65 0 0 1-.687-.639.692.692 0 0 1 .638-.718.65.65 0 0 1 .687.638ZM37.19 78.255c-.084.094-.586-.305-1.303-.3-.714-.01-1.242.385-1.317.296-.04-.043.044-.207.273-.385a1.714 1.714 0 0 1 1.052-.348c.445 0 .824.174 1.04.352.22.179.295.348.255.39v-.005ZM30.537 80.406a.693.693 0 0 1-.639.719.65.65 0 0 1-.686-.639.693.693 0 0 1 .638-.719.65.65 0 0 1 .687.64ZM30.154 78.415c-.084.094-.59-.305-1.304-.3-.713-.01-1.241.385-1.316.29-.04-.042.044-.206.273-.384a1.713 1.713 0 0 1 1.052-.348c.445 0 .824.174 1.04.357.22.178.294.347.255.39v-.005ZM32.765 84.07c0-.043.44-.128 1.162-.226.185-.019.357-.061.388-.193.044-.14-.036-.352-.124-.577l-.541-1.484c-.753-2.114-1.304-3.851-1.224-3.88.079-.032.757 1.654 1.51 3.767.18.521.356 1.019.52 1.493.07.221.189.475.096.766a.473.473 0 0 1-.3.286c-.118.038-.22.042-.307.047-.727.042-1.176.047-1.18 0Z" fill="#022749"/><path d="M33.28 93.105s-3.488.248-6.953-1.959c0 0 1.695 3.795 6.882 3.269l.066-1.306.005-.004ZM32.465 85.91a1.257 1.257 0 0 0-1.158-.507 1.155 1.155 0 0 0-.81.465c-.19.272-.23.653-.053.91.194.292.599.358.938.25.343-.104.634-.343.916-.583a.873.873 0 0 0 .202-.225c.049-.09.057-.211 0-.286" fill="#EB996E"/><path d="M30.66 84.605c.114-.01.119.821.784 1.408s1.492.493 1.501.61c.009.053-.185.16-.533.175a1.853 1.853 0 0 1-1.25-.46 1.84 1.84 0 0 1-.608-1.18c-.03-.347.058-.553.11-.549l-.004-.004ZM30.475 77.077c-.07.206-.784.112-1.625.22-.84.094-1.519.357-1.629.17-.048-.09.066-.287.34-.489a2.623 2.623 0 0 1 1.206-.456c.502-.06.964.024 1.272.155.308.132.462.296.436.395v.005ZM36.926 76.048c-.128.174-.621-.005-1.211-.014-.595-.028-1.097.117-1.21-.06-.054-.09.026-.264.246-.428.215-.165.577-.3.986-.287.41.014.762.17.969.348.211.178.277.357.224.441h-.004Z" fill="#022749"/><path d="m32.562 67.464-.44-.601a31.55 31.55 0 0 0-8.728 2.376c-1.114.484-2.245 1.061-3.007 2.057-1.053 1.366-1.22 3.254-1.339 5.015-.453 6.716-.832 13.628 1.15 20.02.475-.817 1.409-1.184 2.293-1.367.886-.183 1.815-.244 2.62-.68.881-.48 1.524-1.4 1.77-2.424.247-1.024.11-2.132-.32-3.08-.48-1.067-1.34-2.09-1.133-3.25.22-1.217 1.528-1.912 1.837-3.104.528-2.062-2.184-3.912-1.634-5.97.203-.76.823-1.314 1.488-1.662.66-.352 1.387-.55 2.061-.882 2.237-1.109 3.668-3.837 3.382-6.448Z" fill="#022749"/><path d="m58.748 109.644-6.068 10.069s.674 1.193 2.136 1.127c1.457-.066 3.465-3.954 3.707-4.743.238-.789-.088-1.545.132-2.066.22-.522.132-1.963.132-1.963-.03.084 1.312-1.837-.035-2.424h-.004Z" fill="#FFBE9D"/><path d="m51.002 119.708 3.161-13.332c.097-.399.34-.742.674-.944l4.593-2.794a.607.607 0 0 1 .823.188.71.71 0 0 1 .101.558l-3.346 14.032-6.002 2.287-.004.005Z" fill="#022749"/><path d="m49.408 130.04 7.34-14.46-2.76-3.818-10.33 8.359 2.703 7.946 3.047 1.973Z" fill="#15A9F3"/><path d="M56.836 118.713s.097-.202.141-.597c.049-.39.022-.981-.154-1.672l-.009-.033.018-.032c.114-.212.172-.484.084-.742-.08-.259-.278-.503-.511-.681l-.08-.061.053-.09c.26-.413.538-.859.833-1.324.07-.117.163-.239.194-.343a.503.503 0 0 0-.027-.347c-.097-.235-.3-.456-.515-.62l-.101-.08.083-.103c.225-.273.476-.545.727-.822.436-.498.858-.986 1.21-1.489.168-.253.34-.507.45-.765.062-.127.097-.263.11-.381.009-.122-.044-.192-.11-.206h-.027v-.005c-.105-.033-.273.009-.413.07-.146.057-.287.132-.423.202-.269.151-.52.315-.749.47-.462.319-.854.62-1.18.869-.3.235-.546.427-.748.587-.176.136-.269.206-.278.197-.009-.009.075-.099.238-.249.163-.155.405-.371.718-.634.312-.263.7-.582 1.158-.916.229-.164.48-.338.753-.497.136-.08.282-.16.44-.221.159-.056.326-.136.55-.08h-.026c.211.009.33.258.308.427a1.504 1.504 0 0 1-.123.47c-.119.291-.29.549-.467.812-.357.522-.784 1.015-1.224 1.517-.255.277-.506.55-.726.817l-.022-.183c.246.198.466.418.594.728a.756.756 0 0 1 .026.512c-.061.174-.145.268-.22.395-.3.464-.585.906-.854 1.319l-.026-.145c.273.211.48.479.572.798.097.319.018.653-.119.883l.009-.066c.163.723.163 1.324.088 1.728a1.772 1.772 0 0 1-.136.446c-.053.094-.08.141-.089.137Z" fill="#EB996E"/><path d="M60.254 102.83s-.128.118-.38.287c-.25.169-.616.408-1.074.695-.475.296-1.017.634-1.607 1.005-.303.188-.625.385-.955.587-.33.197-.687.39-.96.671-.277.273-.388.672-.484 1.057-.097.394-.19.77-.278 1.136-.176.709-.339 1.353-.48 1.921-.14.545-.26.986-.343 1.292-.088.305-.141.469-.159.464-.013 0 .009-.178.07-.488.062-.31.155-.756.274-1.31.127-.568.273-1.221.436-1.935.083-.366.171-.747.264-1.141.092-.39.215-.845.541-1.174.317-.32.678-.507 1.013-.705l.96-.573 1.63-.958c.466-.272.845-.483 1.109-.629.264-.145.414-.216.422-.202Z" fill="#022749"/><path d="M57.211 107.385c-.114.292-.128.559-.03.606.096.043.268-.155.382-.446.115-.291.128-.559.031-.606-.097-.042-.269.155-.383.446Z" fill="#fff"/><path d="M34.35 99.303c3.187 1.226 5.785 3.753 7.23 7.026l9.854 22.358 8.49 3.673-7.478 2.296-6.657-5.208-11.44-30.145Z" fill="#15A9F3"/><path d="m52.446 134.651-3.575 2.94-17.842-19.573-10.198-19.65 1.18-3.653 7.886 3.504 2.823 4.452.63-5.65.506.766.823 2.381s7.745 6.87 9.414 12.317c1.396 4.546.96 13.943 1.806 16.493l6.547 5.673Z" fill="#FAFAFA"/><path d="M18.92 98.12c-.119.38-7.626 3.597-7.983 6.401-.357 2.803 5.394 24.481 5.394 24.481l9.12 8.594h23.42l-7.428-14.835a37.737 37.737 0 0 0-6.01-8.716c-2.198-2.377-4.862-5.316-6.231-7.073-1.484-1.902-7.776-10.777-7.776-10.777l-2.502 1.925h-.004Z" fill="#15A9F3"/><path d="M23.623 99.008c.013-.029.52.216 1.325.634a159.072 159.072 0 0 1 4.51 2.456l-.16.112a11.283 11.283 0 0 1 .15-2.615c.115-.634.238-.996.256-.991.026.01-.049.38-.124 1.014a13.675 13.675 0 0 0-.066 2.578l.014.207-.172-.094c-.432-.235-.899-.493-1.383-.756a165.432 165.432 0 0 1-3.1-1.752c-.788-.46-1.268-.76-1.25-.789v-.004ZM41.672 118.778s-.146-.22-.375-.634l-.955-1.77c-.802-1.494-1.92-3.56-3.18-5.819a427.874 427.874 0 0 0-3.284-5.752c-.41-.705-.749-1.292-1.004-1.738-.233-.413-.357-.643-.343-.653.013-.009.162.207.418.601.26.395.625.977 1.065 1.696a163.307 163.307 0 0 1 3.347 5.72 168.725 168.725 0 0 1 3.126 5.856c.383.76.687 1.376.894 1.808.203.432.308.671.295.681l-.004.004Z" fill="#022749"/><path d="M38.066 133.886c1.36.244 2.756.493 4.112.216 1.356-.277 2.686-1.188 3.109-2.588.132-.437.19-.939.506-1.249.524-.517 1.356-.197 2.07-.268.792-.075 1.47-.681 1.884-1.408.414-.728.603-1.569.788-2.391.093-.408.185-.826.141-1.244-.044-.418-.25-.841-.607-1.01-.538-.258-1.14.117-1.62.484-3.862 2.968-7.38 6.401-10.89 9.829" fill="#022749" opacity=".3"/><path d="M46.815 117.341s1.343-3.287 2.06-3.743c.718-.455 4.276-2.672 4.276-2.672l-.458 1.808 3.479-2.578c.427-.305 2.915-2.714 3.355-1.775.317.676-1.713 2.461-1.986 2.855-.678.991-.453.902-.453.902s.735.474.365 1.174-.995 1.559-.995 1.559.969.366.405 1.71c0 0 .255.723.097 1.723-.159 1-1.858 2.907-1.858 2.907l-8.472 4.302-3.417-6.185 3.598-1.996.004.009Z" fill="#FFBE9D"/><path d="m27.084 111.161 5.434 12.37 12.047-5.584s5.002 3.109 4.306 6.509l-10.854 9.51c-2.056 1.798-4.711 2.625-7.353 2.277-2.836-.371-5.372-2.052-6.944-4.597l-7.855-12.75-4.395-7.66c-1.405-2.451-1.405-5.607.185-7.927.436-.634.951-1.164 1.55-1.554 1.96-1.273 7.79-1.827 13.875 9.397l.004.009Z" fill="#15A9F3"/><path d="M53.808 111.875c.03.052-.762.634-1.77 1.301-1.009.662-1.85 1.16-1.88 1.103-.032-.051.761-.634 1.77-1.3 1.008-.663 1.849-1.16 1.88-1.104ZM57.197 111.762c.04.047-.67.86-1.58 1.822-.916.958-1.691 1.7-1.731 1.658-.044-.042.665-.859 1.58-1.822.917-.963 1.692-1.705 1.731-1.658ZM56.745 114.547c.044.042-.287.535-.74 1.104-.454.568-.859 1-.907.958-.049-.043.286-.536.74-1.104.453-.568.858-1 .907-.958ZM56.903 116.426c.044.042-.141.347-.379.713-.238.362-.444.658-.497.625-.053-.028.075-.38.321-.756.247-.376.51-.62.555-.582Z" fill="#EB996E"/><path d="M36.168 135.196s.018-.023.057-.056c.044-.043.102-.09.172-.155l.682-.587c.612-.517 1.493-1.259 2.603-2.198 2.259-1.888 5.464-4.569 9.286-7.768l-.04.08c0-.629-.105-1.277-.343-1.892a8.049 8.049 0 0 0-1-1.743 13.033 13.033 0 0 0-3.082-2.822h.102a4676.522 4676.522 0 0 1-12.048 5.593l-.097.047-.048-.098c-1.598-3.353-3.073-6.514-4.57-9.257a129.389 129.389 0 0 0-2.176-3.836c-.695-1.184-1.33-2.287-1.977-3.236-1.264-1.925-2.686-3.104-3.751-3.71a8.79 8.79 0 0 0-.714-.399 7.816 7.816 0 0 0-.532-.263 15.01 15.01 0 0 0-.33-.155.545.545 0 0 1-.11-.061s.642.197 1.72.803c.538.305 1.176.728 1.841 1.338.67.602 1.339 1.405 1.995 2.353.66.949 1.303 2.052 2.004 3.231a121.13 121.13 0 0 1 2.197 3.827c1.514 2.743 2.998 5.899 4.601 9.252l-.145-.057c1.871-.868 3.817-1.77 5.808-2.695 2.148-.996 4.244-1.963 6.24-2.888l.052-.024.048.033a13.17 13.17 0 0 1 3.136 2.884c.418.563.77 1.164 1.025 1.798.247.644.357 1.325.348 1.987v.047l-.04.033c-3.843 3.169-7.067 5.823-9.339 7.696-1.127.921-2.016 1.649-2.637 2.151-.3.24-.533.428-.7.564-.075.056-.132.103-.18.141-.04.033-.062.047-.067.042h.009Z" fill="#022749"/><path d="M31.787 127.419c-.061-.028.269-.911.458-2.057.198-1.141.176-2.094.247-2.099.057-.009.184.963-.018 2.142-.198 1.178-.634 2.042-.687 2.009v.005Z" fill="#022749"/><path d="m98.069 163.753 6.31 8.43s10.154-4.011 11.461-2.574l-14.887 13.633-10.334-12.703 7.45-6.786Z" fill="#15A9F3"/><path d="M99.223 175.709c-.22.348-.141.874.176 1.128a.742.742 0 0 0 1.048-.174c.224-.343.15-.982-.194-1.188-.339-.212-.929-.08-1.07.31M100.958 183.247l-.996-1.325 14.646-12.576s.911-.3 1.237.268l-14.887 13.633Z" fill="#fff" opacity=".6"/><path d="M104.555 171.882c.062.08-.273.446-.431 1.024-.172.573-.084 1.075-.176 1.108-.08.047-.344-.516-.141-1.211.193-.695.709-1.005.753-.921h-.005ZM106.673 171.14c.079.061-.132.479-.115 1.033 0 .554.225.968.15 1.029-.057.075-.475-.334-.484-1.024-.014-.69.387-1.113.449-1.043v.005ZM109.165 172.324c-.053.075-.467-.216-.621-.813-.159-.596.048-1.075.132-1.038.093.028.053.456.189.944.124.489.366.836.3.911v-.004ZM102.917 170.13c.026.099-.392.296-.779.705-.397.399-.595.836-.687.808-.088-.019-.005-.592.458-1.062.458-.474.999-.54 1.012-.446l-.004-.005Z" fill="#022749"/><path d="m99.32 165.425 1.126 1.503-7.375 6.626-1.066-1.301 7.314-6.828Z" fill="#022749" opacity=".3"/><path d="M101.618 168.454c.027.033-.22.343-.748.681a4.292 4.292 0 0 1-1.612.61c-.105.014-.224.043-.374.019-.145-.009-.357-.169-.366-.38a.582.582 0 0 1 .177-.47c.105-.103.215-.164.312-.216a3.315 3.315 0 0 1 1.673-.404c.621.024.974.207.96.244-.013.057-.374-.032-.955.01a3.58 3.58 0 0 0-.987.211 3.95 3.95 0 0 0-.541.249c-.194.099-.33.221-.308.334.008.042.017.056.088.075.07.014.171 0 .277-.014a5.075 5.075 0 0 0 1.546-.489c.528-.263.827-.498.858-.455v-.005Z" fill="#022749"/><path d="M101.609 168.651c-.017.038-.383-.108-.814-.587a3.506 3.506 0 0 1-.797-1.62c-.04-.235-.101-.545.154-.836.141-.141.365-.131.489-.061.136.061.22.146.312.221.177.159.322.347.432.535.224.381.321.78.343 1.113.04.676-.189 1.047-.215 1.029-.058-.019.079-.4-.018-.996a2.557 2.557 0 0 0-.365-.963 2.275 2.275 0 0 0-.384-.446c-.158-.145-.33-.23-.374-.16-.075.066-.097.31-.053.498.04.212.093.414.163.601.137.371.317.686.493.926.357.483.665.704.634.751v-.005Z" fill="#022749"/><path d="m91.213 189.737-.392 11.026s10.378 4.128 10.493 6.176l-20.079-.043-.048-17.211 10.026.052Z" fill="#15A9F3"/><path d="M84.617 199.824c-.387.113-.656.578-.568.996.088.418.533.713.92.61.392-.103.732-.653.6-1.056-.133-.404-.67-.724-1.027-.522M81.24 206.901l.057-1.733 19.229.691s.894.418.792 1.089l-20.078-.042v-.005Z" fill="#fff" opacity=".6"/><path d="M91.147 200.66c0 .103-.493.15-.978.488-.493.324-.74.775-.832.733-.092-.019.057-.643.647-1.038.59-.399 1.18-.272 1.159-.178l.004-.005ZM93.252 201.594c.022.104-.401.278-.736.719-.348.432-.431.911-.528.906-.093.014-.159-.596.264-1.136.418-.545.995-.587 1-.489ZM94.44 204.281c-.087.023-.224-.503.027-1.071.251-.573.713-.798.753-.714.057.085-.242.395-.445.864-.211.47-.242.907-.339.921h.005ZM90.975 198.133c-.04.094-.489-.051-1.044-.009-.555.028-.986.226-1.039.136-.057-.075.366-.46 1.017-.498.652-.042 1.114.292 1.066.376v-.005Z" fill="#022749"/><path d="m91.134 191.925-.066 1.963-9.867-.117-.01-1.771 9.943-.075Z" fill="#022749" opacity=".3"/><path d="M91.014 195.908c0 .042-.387.108-1.003-.01a4.208 4.208 0 0 1-1.053-.347 4.4 4.4 0 0 1-.577-.329c-.092-.066-.202-.127-.303-.254-.11-.108-.172-.385-.044-.554a.532.532 0 0 1 .431-.239c.15-.005.269.028.379.056a3.475 3.475 0 0 1 1.55.883c.466.46.625.85.59.873-.044.033-.269-.291-.744-.676a4.054 4.054 0 0 0-.894-.54 4.15 4.15 0 0 0-.577-.192c-.212-.062-.392-.062-.45.037-.021.038-.021.052.023.122a.912.912 0 0 0 .224.183c.177.122.357.23.529.324.348.188.682.315.973.4.577.173.95.201.95.258l-.004.005Z" fill="#022749"/><path d="M90.887 196.058c-.035.014-.229-.357-.264-1.038a3.628 3.628 0 0 1 .14-1.174c.063-.216.146-.437.256-.653.12-.211.264-.493.643-.54.198-.009.361.16.418.301.066.145.08.267.102.394.035.249.03.493 0 .723a2.566 2.566 0 0 1-.432 1.109c-.392.554-.801.676-.81.643-.03-.052.308-.254.612-.784a2.58 2.58 0 0 0 .321-1.005 2.268 2.268 0 0 0-.017-.62c-.031-.226-.11-.413-.19-.39-.1 0-.268.169-.352.352-.101.193-.185.39-.25.583-.128.385-.181.756-.199 1.07-.026.63.075 1.019.022 1.038v-.009ZM81.033 137.596l19.868 28.158-9.291 8.514-9.568-13.342-1.009-23.33Z" fill="#022749"/><path d="M38.969 138.939s31.963-10.383 34.891-10.257c2.928.132 8.485 11.407 8.485 11.407l-8.974-.347c-2.302 6.025-6.556 12.224-11.347 18.474l-18.348-.911-4.707-18.371v.005Z" fill="#022749"/><path d="M65.093 130.735c.018.065-3.267 1.164-7.335 2.451-4.073 1.291-7.385 2.282-7.402 2.221-.018-.065 3.267-1.164 7.34-2.451 4.069-1.292 7.384-2.282 7.402-2.221h-.005ZM72.522 139.563h8.973c4.478 0 8.468 3.015 9.956 7.519.7 2.122 1.008 4.367.907 6.612l-.7 38.936H79.576l-.216-12.445-1.528-23.659-10.458.469-5.926-.394 11.074-17.047v.009Z" fill="#022749"/><path d="M72.79 139.371s-.044.296-.167.822c-.11.53-.335 1.277-.634 2.197-.33.907-.736 1.982-1.334 3.1a25.42 25.42 0 0 1-2.184 3.466c-1.753 2.31-3.585 4.151-4.88 5.503-.633.649-1.157 1.189-1.55 1.588-.369.371-.576.573-.59.563-.012-.014.177-.235.525-.629.348-.394.863-.953 1.497-1.644 1.268-1.385 3.078-3.24 4.817-5.532 1.735-2.296 2.893-4.682 3.545-6.476.317-.901.563-1.639.7-2.16.15-.516.237-.803.255-.798Z" fill="#022749"/><path d="M83.768 139.826c0 .038-.626-.023-1.63-.084a49.202 49.202 0 0 0-3.927-.071 73.642 73.642 0 0 0-3.928.202c-1.004.075-1.63.127-1.63.09 0-.019.15-.052.432-.099a27.59 27.59 0 0 1 1.185-.164 40.491 40.491 0 0 1 3.94-.273 33.184 33.184 0 0 1 3.946.141c.502.052.907.108 1.189.155.277.047.431.085.431.099l-.008.004ZM79.527 185.52s-.018-.113-.031-.324c-.013-.24-.026-.545-.049-.93-.035-.836-.083-2.001-.145-3.428-.119-2.893-.282-6.89-.542-11.299-.26-4.41-.568-8.397-.792-11.285a992.18 992.18 0 0 1-.26-3.419c-.026-.385-.044-.695-.061-.93-.014-.211-.014-.324-.005-.324.009 0 .026.108.053.32l.106.925c.083.836.193 1.991.334 3.414.264 2.883.595 6.87.859 11.285.26 4.414.396 8.41.475 11.308.031 1.428.053 2.592.07 3.428 0 .385 0 .695.005.935 0 .211-.004.324-.013.324h-.004ZM92.38 152.196c.062 0 .023 8.923-.096 19.926-.115 11.007-.26 19.925-.326 19.925-.062 0-.022-8.922.097-19.925.114-11.003.26-19.926.325-19.921v-.005Z" fill="#022749"/><path d="M82.521 150.74c.022.075-1.237.413-2.576 1.296-1.347.874-2.201 1.916-2.25 1.865-.022-.019.163-.306.529-.709a8.61 8.61 0 0 1 1.602-1.362 8.082 8.082 0 0 1 1.868-.907c.501-.164.823-.211.832-.183h-.005Z" fill="#022749"/><path d="M61.447 156.615c2.435.479 5.113-.315 7.2-1.705 2.087-1.39 3.632-3.63 4.227-6.123.269-1.123.348-2.283.612-3.405.264-1.123.748-2.245 1.633-2.945 1.022-.812 3.54-1.329 4.29-2.413 0-.165-2.982.206-3.986.263-1.092.065-2.919.356-2.88.22 0 0-.73 2.729-1.052 3.32-2.18 3.987-6.957 9.843-10.044 12.793" fill="#022749" opacity=".3"/><path d="m11.633 184.177 3.4 23.701H18.4l-1.66-23.612-5.108-.089ZM71.425 184.266v23.612h3.558l1.325-23.701-4.883.089Z" fill="#022749"/><path d="M11.03 110.926s-4.76.202-6.217 2.33c-2.567 3.752-1.127 7.006-1.268 8.115-.141 1.108 8.088 62.801 8.088 62.801h3.39l61.285.601 2.941-7.627-1.413-20.62-16.384.08s-6.711-20.541-12.576-21.917c-3.972-.93-13.302-.601-18.916-.291-2.8.155-5.47-1.297-6.993-3.804l-11.932-19.672-.005.004Z" fill="#022749"/><path d="M65.348 181.753s-.34.047-.99.08c-.652.019-1.612.052-2.854.066-2.483.038-6.094.047-10.585.042-8.987-.009-21.51-.084-35.675-.216h-.093l-.017-.094c-.256-1.291-.516-2.62-.784-3.973-.256-1.352-.511-2.728-.77-4.113a468.752 468.752 0 0 1-5.848-43.172c-.489-5.56-.78-10.064-.965-13.182-.079-1.554-.14-2.761-.185-3.588l-.04-.934c-.008-.212-.004-.32-.004-.32s.014.108.031.32c.013.216.035.526.066.934.053.827.128 2.034.23 3.588.21 3.114.528 7.617 1.034 13.173 1.013 11.106 2.84 26.42 5.914 43.138.26 1.386.52 2.762.77 4.109.264 1.348.524 2.677.78 3.969l-.11-.094c14.156.117 26.679.22 35.67.296 4.487.014 8.093.023 10.585.028 1.238-.01 2.198-.014 2.854-.024.326 0 .572-.023.735-.028.167-.009.251-.005.251-.005Z" fill="#022749"/><path d="M64.702 184.665s0-.103.026-.296c.03-.216.07-.493.115-.831.057-.362.123-.803.176-1.32.057-.516.14-1.099.185-1.751.057-.648.119-1.362.145-2.128.048-.765.048-1.587.061-2.446a55.613 55.613 0 0 0-.308-5.598 58.513 58.513 0 0 0-.907-5.523 57.709 57.709 0 0 0-1.149-4.414c-.176-.625-.374-1.179-.528-1.667a27.431 27.431 0 0 0-.428-1.249c-.11-.325-.202-.583-.273-.789-.061-.184-.088-.278-.079-.282.009 0 .049.089.123.263.08.202.185.455.313.775.137.338.3.751.467 1.239.167.489.379 1.038.564 1.663.4 1.24.819 2.733 1.202 4.419.37 1.686.704 3.56.929 5.546.211 1.986.29 3.893.29 5.626-.017.864-.026 1.691-.083 2.456a38.18 38.18 0 0 1-.172 2.137c-.053.653-.15 1.235-.22 1.751-.066.517-.146.954-.212 1.315a79.15 79.15 0 0 0-.158.827c-.04.188-.062.286-.07.286l-.01-.009ZM19.792 140.47s.08-.085.247-.221c.185-.15.431-.352.74-.601l.537-.432c.207-.146.436-.287.682-.446.498-.31 1.04-.7 1.704-1.015.326-.169.665-.347 1.022-.53.352-.188.744-.324 1.14-.498.397-.16.802-.352 1.233-.498l1.334-.451c1.836-.568 3.893-1.07 6.086-1.347 2.188-.296 4.293-.433 6.204-.4.955-.018 1.862.066 2.712.099.846.084 1.638.141 2.352.249a28.74 28.74 0 0 1 3.364.657c.37.108.669.198.898.263.202.061.308.099.308.108 0 .01-.114-.014-.321-.061-.23-.056-.529-.127-.903-.22a33.49 33.49 0 0 0-3.364-.578c-.713-.099-1.502-.146-2.347-.221-.846-.023-1.748-.098-2.7-.075-1.901-.019-3.997.127-6.172.418-2.18.277-4.228.77-6.055 1.324-.453.151-.898.296-1.325.437-.432.141-.833.329-1.229.484-.392.169-.784.3-1.136.483l-1.021.512c-.665.301-1.211.681-1.709.977-.247.155-.48.291-.691.427l-.546.414c-.317.235-.568.422-.762.563-.176.127-.273.193-.277.183l-.005-.004Z" fill="#022749"/><path d="M56.216 143.809s-.009.051-.044.155c-.03.098-.075.253-.15.446a6.346 6.346 0 0 1-.902 1.54c-.48.601-1.19 1.24-2.118 1.775-.471.259-.991.493-1.559.691a9.673 9.673 0 0 1-1.854.403c-1.325.151-2.787.038-4.32-.258-1.532-.291-3.134-.765-4.825-1.197-1.691-.423-3.497-.803-5.381-.761a9.753 9.753 0 0 0-2.818.46c-.925.296-1.805.789-2.611 1.414-1.616 1.253-2.823 2.949-3.827 4.644-1.008 1.709-1.805 3.466-2.655 5.095-.84 1.63-1.73 3.147-2.756 4.405-1.013 1.264-2.175 2.259-3.39 2.856-1.212.591-2.414.859-3.47.873-1.057.014-1.964-.211-2.642-.526-.348-.145-.621-.343-.868-.498a9.627 9.627 0 0 1-.563-.483c-.128-.146-.23-.259-.304-.343-.066-.08-.102-.118-.097-.122 0 0 .044.033.114.103.08.08.185.188.317.324.146.132.344.282.568.46.247.146.52.338.864.475.673.295 1.567.507 2.606.479 1.04-.024 2.22-.306 3.404-.893 1.184-.591 2.316-1.578 3.316-2.831 1.003-1.25 1.88-2.752 2.712-4.382.84-1.625 1.638-3.391 2.646-5.114 1.009-1.714 2.224-3.433 3.88-4.715.823-.634 1.726-1.141 2.681-1.446a9.915 9.915 0 0 1 2.884-.47c1.92-.042 3.738.348 5.438.78 1.695.441 3.294.92 4.813 1.216 1.519.305 2.963.427 4.267.286a9.712 9.712 0 0 0 1.827-.38 10.01 10.01 0 0 0 1.545-.662c.92-.517 1.625-1.132 2.11-1.714.968-1.193 1.118-2.104 1.162-2.076v-.009ZM78.611 173.85s-.066.019-.194.051l-.567.123c-.251.042-.542.183-.899.295-.18.052-.352.165-.55.254-.194.099-.405.188-.608.329-.85.493-1.788 1.272-2.805 2.263-1.021.982-2.113 2.193-3.452 3.381-.674.587-1.409 1.179-2.263 1.639-.414.259-.88.428-1.343.62-.242.071-.484.136-.727.207-.242.08-.502.089-.757.141a8.673 8.673 0 0 1-3.175-.174c-1.074-.244-2.13-.7-3.157-1.254-2.056-1.122-3.993-2.7-5.847-4.494-1.845-1.789-3.739-3.682-5.94-5.227-1.101-.77-2.26-1.423-3.474-1.845a9.371 9.371 0 0 0-3.708-.55c-1.233.075-2.422.418-3.523.902-1.105.484-2.126 1.094-3.104 1.733-1.946 1.282-3.716 2.653-5.517 3.7-1.805 1.033-3.61 1.752-5.302 2.184a21.233 21.233 0 0 1-8.18.526c-1.93-.272-2.955-.639-2.955-.639s.066.01.194.038c.136.033.325.075.568.131a21.562 21.562 0 0 0 10.334-.225c1.678-.442 3.46-1.16 5.249-2.193 1.783-1.047 3.544-2.419 5.5-3.715.977-.643 2.011-1.263 3.13-1.756 1.118-.493 2.33-.846 3.593-.925a9.58 9.58 0 0 1 3.791.554c1.237.432 2.413 1.094 3.527 1.874 2.228 1.563 4.121 3.465 5.966 5.255 1.841 1.784 3.76 3.357 5.79 4.47 1.013.55 2.053 1.001 3.105 1.245a8.635 8.635 0 0 0 3.104.183c.247-.047.502-.056.74-.132.238-.065.475-.136.713-.202.454-.187.907-.347 1.317-.601.84-.45 1.572-1.028 2.241-1.606 1.334-1.169 2.435-2.371 3.47-3.348 1.026-.982 1.981-1.756 2.849-2.245.207-.141.422-.225.62-.324.199-.089.375-.197.56-.249.36-.108.656-.244.911-.277l.577-.098c.128-.019.198-.024.198-.024v.005ZM17.33 122.554s-.017.216-.118.592a8.203 8.203 0 0 1-.59 1.535c-.595 1.24-1.788 2.827-3.589 3.832-1.805 1.005-3.707 1.142-5.002.954a7.385 7.385 0 0 1-1.515-.362c-.347-.127-.528-.221-.523-.235.013-.051.77.291 2.06.423a8.38 8.38 0 0 0 4.879-1c1.752-.977 2.932-2.503 3.553-3.696.639-1.202.806-2.062.85-2.043h-.004ZM155.13 60.847H71.883c-1.688 0-3.056 1.459-3.056 3.259V88.14c0 1.8 1.368 3.259 3.056 3.259h83.247c1.688 0 3.056-1.46 3.056-3.26V64.107c0-1.8-1.368-3.26-3.056-3.26Z" fill="#fff"/><path d="M155.126 91.4s.202.004.59-.075c.378-.085.96-.287 1.514-.86.273-.282.533-.657.705-1.122.18-.47.238-1.014.216-1.615 0-1.198-.005-2.583-.009-4.138-.005-3.113-.013-6.922-.018-11.346 0-2.212-.004-4.574-.009-7.081-.017-.625.058-1.273-.105-1.879a3.237 3.237 0 0 0-.942-1.592 2.855 2.855 0 0 0-1.669-.746c-.621-.029-1.277-.005-1.929-.015l-81.579.038c-.48 0-.955.131-1.378.366-.422.24-.784.592-1.056 1.005a3.286 3.286 0 0 0-.49 1.414c-.039.497-.013 1.042-.021 1.559v21.461c0 .493-.005.996.004 1.48.018.474.137.943.344 1.361.418.836 1.202 1.451 2.07 1.611.426.08.888.042 1.342.052H84.67c13.804.01 26.234.018 36.674.028 10.436.014 18.886.028 24.724.038l6.724.023c.766.005 1.352.01 1.748.014.392 0 .594.014.594.014s-.202.01-.594.014c-.396 0-.982.005-1.748.014l-6.724.024c-5.843.01-14.288.023-24.724.037-10.44.01-22.87.015-36.674.029H72.707c-.454-.01-.908.032-1.384-.057-.937-.169-1.774-.831-2.228-1.728a3.572 3.572 0 0 1-.37-1.465c-.013-.503 0-.991-.004-1.489V65.313c.009-.53-.022-1.038.022-1.587.062-.54.242-1.071.529-1.522a3.372 3.372 0 0 1 1.14-1.085c.458-.253.973-.39 1.488-.394l81.579.037c.656.01 1.29-.014 1.942.02a3.029 3.029 0 0 1 1.752.788c.48.441.832 1.033.987 1.672.088.315.105.653.11.972v.949c0 2.507-.005 4.874-.009 7.081-.009 4.424-.013 8.233-.018 11.346 0 1.555-.009 2.94-.009 4.138.018.596-.044 1.169-.229 1.638a3.28 3.28 0 0 1-.726 1.137 2.964 2.964 0 0 1-1.541.845 2.357 2.357 0 0 1-.445.047h-.15l-.017.005Z" fill="#022749"/><path d="M151.753 67.116a.106.106 0 0 1-.079-.037.123.123 0 0 1 0-.165l2.202-2.25a.11.11 0 0 1 .154 0 .124.124 0 0 1 0 .165l-2.202 2.25s-.048.033-.075.033v.004Z" fill="#022749"/><path d="M153.942 67.126a.094.094 0 0 1-.075-.033l-2.18-2.269a.119.119 0 0 1 0-.164.102.102 0 0 1 .154 0l2.18 2.268a.119.119 0 0 1 0 .165.106.106 0 0 1-.079.037v-.004Z" fill="#022749"/><path d="m88.082 82.06-.898-1.358a5.066 5.066 0 0 1-.832-2.794V74.86c0-2.489-1.718-4.555-3.959-4.917v-1.456c0-.37-.282-.671-.63-.671-.347 0-.63.3-.63.671v1.433c-2.32.29-4.116 2.39-4.116 4.945v3.16a5.06 5.06 0 0 1-.969 2.996l-.77 1.048h12.804v-.01ZM81.006 84.276c.691.31 1.541.15 2.096-.385.242-.235.422-.536.528-.864l-3.73-.029c.186.564.59 1.048 1.106 1.278Z" fill="#15A9F3"/><path d="M138.354 71.169c0 .066-10.009.122-22.355.122-12.347 0-22.356-.056-22.356-.122s10.009-.122 22.356-.122c12.346 0 22.355.056 22.355.122Z" fill="#022749"/><path d="M148.891 76.94c0 .066-12.369.123-27.622.123s-27.626-.057-27.626-.123c0-.065 12.365-.122 27.626-.122 15.262 0 27.622.057 27.622.123ZM148.891 80.397c0 .066-12.369.122-27.622.122s-27.626-.056-27.626-.122 12.365-.122 27.626-.122c15.262 0 27.622.056 27.622.122Z" fill="#E0E0E0"/><path d="M140.833 96.166H85.551c-1.688 0-3.056 1.46-3.056 3.26v14.473c0 1.8 1.368 3.259 3.056 3.259h55.282c1.688 0 3.056-1.459 3.056-3.259V99.426c0-1.8-1.368-3.26-3.056-3.26Z" fill="#FAFAFA"/><path d="M140.833 117.163s.137-.005.401-.042c.26-.038.66-.132 1.109-.414a3.198 3.198 0 0 0 1.255-1.498c.15-.366.247-.798.251-1.263v-1.498c-.004-2.118-.013-4.71-.017-7.716 0-1.503-.005-3.113-.009-4.818 0-.427.009-.855-.097-1.268a3.191 3.191 0 0 0-.533-1.16c-.497-.7-1.303-1.174-2.171-1.221l-55.463.023c-.651.01-1.303.23-1.81.663a3.14 3.14 0 0 0-1.043 1.695 3.976 3.976 0 0 0-.097 1.028V113.2c0 .334-.009.681.013 1.001.031.324.106.638.225.934.242.587.647 1.104 1.158 1.432a2.874 2.874 0 0 0 1.708.475h7.209c9.387.009 17.837.018 24.939.028 7.094.014 12.836.028 16.812.037l4.571.024c.519.005.915.009 1.188.014.269 0 .405.014.405.014s-.136.009-.405.014c-.273 0-.669.005-1.188.014l-4.571.024c-3.976.009-9.718.023-16.812.037-7.098.01-15.552.014-24.94.029h-7.208a3.081 3.081 0 0 1-1.822-.508 3.344 3.344 0 0 1-1.247-1.54 3.87 3.87 0 0 1-.242-1.005c-.026-.352-.013-.681-.017-1.019V99.679a4.173 4.173 0 0 1 .1-1.09 3.39 3.39 0 0 1 1.124-1.826 3.03 3.03 0 0 1 1.95-.714c21.66.019 41.272.033 55.477.047.911.052 1.757.559 2.28 1.296.265.366.454.784.555 1.221.11.437.102.888.097 1.306 0 1.704-.004 3.31-.009 4.818-.008 3.005-.013 5.598-.017 7.716 0 .53-.005 1.028-.009 1.498-.009.474-.11.915-.269 1.291a3.22 3.22 0 0 1-1.29 1.512 2.667 2.667 0 0 1-1.127.395c-.269.028-.405.018-.405.018l-.009-.004Z" fill="#022749"/><path d="M139.468 100.515a.105.105 0 0 1-.079-.038.122.122 0 0 1 0-.164l1.515-1.545a.11.11 0 0 1 .154 0 .124.124 0 0 1 0 .165l-1.515 1.544s-.049.033-.075.033v.005Z" fill="#022749"/><path d="M140.974 100.52a.097.097 0 0 1-.075-.033l-1.497-1.56a.119.119 0 0 1 0-.164.102.102 0 0 1 .154 0l1.497 1.559a.12.12 0 0 1 0 .165.108.108 0 0 1-.079.037v-.004ZM95.726 110.743l-.616-.934a3.477 3.477 0 0 1-.573-1.921v-2.095c0-1.709-1.18-3.127-2.72-3.381v-1c0-.254-.194-.46-.432-.46s-.432.206-.432.46v.986c-1.594.197-2.831 1.644-2.831 3.395v2.17c0 .747-.233 1.47-.665 2.057l-.528.723h8.797ZM90.86 112.265a1.332 1.332 0 0 0 1.44-.263c.168-.16.291-.367.366-.597l-2.563-.018c.128.385.406.718.762.878h-.004ZM130.265 103.262c0 .066-6.878.122-15.358.122-8.481 0-15.363-.056-15.363-.122s6.878-.122 15.363-.122 15.358.056 15.358.122Z" fill="#022749"/><path d="M137.504 107.226c0 .066-8.498.122-18.978.122-10.479 0-18.982-.056-18.982-.122s8.498-.122 18.982-.122 18.978.056 18.978.122ZM137.504 109.602c0 .066-8.498.122-18.978.122-10.479 0-18.982-.056-18.982-.122s8.498-.122 18.982-.122 18.978.056 18.978.122Z" fill="#E0E0E0"/><path d="M140.599 120.427h-54.82c-1.688 0-3.056 1.459-3.056 3.259v14.313c0 1.8 1.368 3.26 3.055 3.26H140.6c1.687 0 3.056-1.46 3.056-3.26v-14.313c0-1.8-1.369-3.259-3.056-3.259Z" fill="#FAFAFA"/><path d="M140.599 141.263s.137-.004.401-.042c.26-.038.656-.131 1.101-.409.44-.272.946-.741 1.25-1.479.154-.366.255-.789.264-1.249V136.6c-.004-2.104-.013-4.673-.017-7.655 0-1.493-.005-3.085-.009-4.78 0-.428.009-.846-.097-1.259a3.28 3.28 0 0 0-.524-1.15c-.493-.695-1.286-1.174-2.144-1.231-14.091.005-33.544.014-55.032.024-1.303-.019-2.536.991-2.844 2.329-.088.333-.106.662-.102 1.019v13.422c0 .333-.008.676.013.99.036.32.106.634.22.93a3.104 3.104 0 0 0 1.146 1.428 2.829 2.829 0 0 0 1.69.484h7.151c9.313.009 17.697.018 24.742.028 7.041.014 12.738.028 16.679.037l4.536.024c.515.005.907.009 1.18.014.264 0 .4.014.4.014s-.136.009-.4.014c-.273 0-.665.005-1.18.014l-4.536.024c-3.945.009-9.643.023-16.679.037-7.045.01-15.429.014-24.742.028h-7.15a3.054 3.054 0 0 1-1.806-.516 3.362 3.362 0 0 1-1.233-1.536 3.837 3.837 0 0 1-.238-1c-.022-.352-.013-.676-.017-1.014v-13.422c-.005-.347.013-.733.11-1.08.33-1.442 1.66-2.531 3.064-2.513 21.493.019 40.95.038 55.045.047.907.062 1.739.569 2.255 1.301.259.362.449.78.55 1.212.11.432.101.878.097 1.296 0 1.691-.004 3.287-.009 4.781-.009 2.982-.013 5.55-.017 7.654 0 .526-.005 1.019-.009 1.489-.014.47-.119.906-.278 1.277a3.211 3.211 0 0 1-1.29 1.494 2.79 2.79 0 0 1-1.123.39c-.264.028-.4.018-.4.018h-.018Z" fill="#022749"/><path d="M139.269 124.742a.108.108 0 0 1-.079-.037.124.124 0 0 1 0-.165l1.501-1.535c.044-.043.115-.043.154 0a.122.122 0 0 1 0 .164l-1.501 1.536s-.049.032-.075.032v.005Z" fill="#022749"/><path d="M140.762 124.747c-.027 0-.058-.009-.075-.033l-1.484-1.545a.118.118 0 0 1 0-.164.102.102 0 0 1 .154 0l1.484 1.545a.118.118 0 0 1 0 .164.105.105 0 0 1-.079.038v-.005Z" fill="#022749"/><path d="m95.854 134.891-.612-.925a3.464 3.464 0 0 1-.568-1.907v-2.08c0-1.7-1.172-3.105-2.7-3.354v-.99c0-.254-.193-.456-.427-.456-.237 0-.427.207-.427.456v.976c-1.58.198-2.81 1.63-2.81 3.372v2.156a3.46 3.46 0 0 1-.66 2.043l-.528.713h8.732v-.004ZM91.028 136.403a1.309 1.309 0 0 0 1.426-.263c.163-.16.287-.366.361-.592l-2.545-.019c.124.385.401.714.753.874h.005Z" fill="#E0E0E0"/><path d="M130.132 127.466c0 .066-6.825.122-15.243.122-8.419 0-15.245-.056-15.245-.122s6.826-.122 15.245-.122c8.418 0 15.243.056 15.243.122Z" fill="#022749"/><path d="M137.319 131.401c0 .066-8.433.123-18.837.123-10.405 0-18.838-.057-18.838-.123 0-.065 8.433-.122 18.838-.122 10.404 0 18.837.057 18.837.122ZM137.319 133.759c0 .066-8.433.122-18.837.122-10.405 0-18.838-.056-18.838-.122s8.433-.122 18.838-.122c10.404 0 18.837.056 18.837.122Z" fill="#E0E0E0"/><path d="M185.693 114.575c-4.557 2.517-8.053 6.857-10.568 11.628-2.514 4.776-4.134 10.012-5.737 15.215l-1.405 26.825c5.306-9.623 9.56-20.936 10.713-32.033-1.175-.112-2.351-.225-3.531-.333 2.365-.385 4.355-2.212 5.619-4.382 1.263-2.169 1.915-4.668 2.549-7.128-1.435.225-2.871.455-4.306.681 3.373-2.4 5.816-6.237 6.666-10.468v-.005Z" fill="#022749"/><path d="M185.693 114.575c-4.557 2.517-8.053 6.857-10.568 11.628-2.514 4.776-4.134 10.012-5.737 15.215l-1.405 26.825c5.306-9.623 9.56-20.936 10.713-32.033-1.175-.112-2.351-.225-3.531-.333 2.365-.385 4.355-2.212 5.619-4.382 1.263-2.169 1.915-4.668 2.549-7.128-1.435.225-2.871.455-4.306.681 3.373-2.4 5.816-6.237 6.666-10.468v-.005Z" fill="#15A9F3"/><path d="M185.693 114.575c-4.557 2.517-8.053 6.857-10.568 11.628-2.514 4.776-4.134 10.012-5.737 15.215l-1.405 26.825c5.306-9.623 9.56-20.936 10.713-32.033-1.175-.112-2.351-.225-3.531-.333 2.365-.385 4.355-2.212 5.619-4.382 1.263-2.169 1.915-4.668 2.549-7.128-1.435.225-2.871.455-4.306.681 3.373-2.4 5.816-6.237 6.666-10.468v-.005Z" fill="#022749" opacity=".3"/><path d="M167.199 174.526s-11.514-14.694-11.378-28.726h4.65s-5.05-3.541-4.65-5.528c.401-1.981.533-9.495.533-9.495l4.254 1.132s-3.188-1.7-3.589-4.391c-.401-2.691.929-15.164.929-15.164s5.183 5.809 6.777 11.764c1.594 5.95 5.781 12.895 4.553 31.036-1.229 18.142-2.074 19.372-2.074 19.372h-.005ZM173.034 175.911s12.475-8.861 15.244-20.17l-3.738-1.084s4.786-1.672 4.874-3.358c.084-1.691 1.519-7.758 1.519-7.758l-3.65-.08s2.911-.625 3.787-2.696c.872-2.07 2.364-12.407 2.364-12.407s-5.358 3.461-7.859 7.876c-2.501 4.414-7.292 9.021-10.027 23.889-2.734 14.868-2.509 15.793-2.509 15.793l-.005-.005Z" fill="#15A9F3"/><path d="M161.093 125.17s.017.051.044.15c.026.117.061.263.101.451.088.418.211 1 .37 1.742.158.756.348 1.686.55 2.766.207 1.08.445 2.311.678 3.672a296.153 296.153 0 0 1 1.55 9.609 361.76 361.76 0 0 1 1.502 11.829c.453 4.208.801 8.228 1.07 11.886.251 3.658.44 6.96.546 9.731.066 1.385.092 2.639.123 3.742.035 1.104.053 2.053.057 2.827.005.761.014 1.362.014 1.785v.465c0 .103-.005.16-.009.16 0 0-.009-.052-.018-.16-.004-.118-.013-.273-.022-.465-.013-.427-.035-1.024-.061-1.785-.022-.774-.053-1.723-.097-2.822-.044-1.099-.084-2.353-.163-3.738-.124-2.771-.33-6.067-.595-9.721a403.594 403.594 0 0 0-1.087-11.872 411.804 411.804 0 0 0-1.48-11.825c-.524-3.625-1.026-6.884-1.497-9.608-.224-1.367-.449-2.597-.643-3.677a175.316 175.316 0 0 0-.506-2.775c-.137-.747-.247-1.334-.322-1.752-.03-.188-.057-.338-.079-.456a.587.587 0 0 1-.017-.159h-.009Z" fill="#022749"/><path d="M165.601 183.524s-10.537-12.75-13.808-20.457l2.47-1.127c-1.792.315-3.624-.507-5.011-1.751-1.387-1.245-2.408-2.884-3.408-4.499l3.254-.587c-2.959-.888-5.566-3.039-7.107-5.87 3.84.671 7.314 2.921 10.176 5.734 2.316 2.277 4.28 4.916 6.165 7.617a26.073 26.073 0 0 1 2.395 4.198c1.77 3.903 4.883 12.06 4.879 16.742h-.005Z" fill="#15A9F3"/><path d="M188.445 135.778s-.013.047-.048.132a12.4 12.4 0 0 0-.159.371c-.154.343-.365.817-.638 1.418a330.422 330.422 0 0 0-2.33 5.217 297.14 297.14 0 0 0-7.005 17.526 302.351 302.351 0 0 0-5.874 17.996 351.416 351.416 0 0 0-1.568 5.527c-.18.639-.317 1.141-.418 1.508-.048.159-.084.286-.114.389a.473.473 0 0 1-.049.132s0-.047.022-.136c.022-.104.053-.235.093-.395.092-.366.215-.873.374-1.521.326-1.32.837-3.217 1.493-5.556a264.504 264.504 0 0 1 5.808-18.038c2.523-6.945 5.098-13.107 7.08-17.511a187.482 187.482 0 0 1 3.078-6.58c.075-.145.136-.263.18-.361.044-.08.066-.122.071-.118h.004ZM166.495 188.985s-.026-.079-.053-.234c-.031-.184-.061-.409-.105-.677a63.415 63.415 0 0 0-.414-2.479 53.551 53.551 0 0 0-.811-3.63 56.494 56.494 0 0 0-1.325-4.34 55.98 55.98 0 0 0-1.695-4.193 54.453 54.453 0 0 0-1.643-3.292 53.922 53.922 0 0 0-1.224-2.151c-.136-.23-.246-.423-.339-.582-.075-.137-.11-.207-.105-.212.008-.004.057.057.145.183.101.151.229.334.379.555.33.483.775 1.202 1.294 2.113a44.55 44.55 0 0 1 1.695 3.282 51.83 51.83 0 0 1 1.722 4.208c.537 1.526.969 3.01 1.317 4.372a48.57 48.57 0 0 1 .761 3.659 36.41 36.41 0 0 1 .339 2.498c.022.272.044.498.062.686.009.155.013.239 0 .239v-.005Z" fill="#022749"/><path d="M180.401 185.989h-23.06v5.016h23.06v-5.016ZM159.538 191.005l2.492 16.873h13.932l2.325-16.873h-18.749Z" fill="#022749"/><path d="M178.982 191.005c0 .07-4.363.131-9.74.131-5.376 0-9.744-.061-9.744-.131 0-.071 4.359-.132 9.744-.132 5.386 0 9.74.061 9.74.132Z" fill="#022749"/><path d="m43.539 66.374.48-6.067c-1.977-1.404-3.633-3.386-4.699-5.861-3.073-7.105-.163-15.52 6.5-18.799 6.662-3.277 14.552-.173 17.626 6.932 3.073 7.105.163 15.52-6.5 18.798a12.464 12.464 0 0 1-8.546.935h.009l-4.866 4.058-.004.004Z" fill="#fff"/><path d="M43.539 66.374c.233-.192 1.779-1.46 4.887-4.02l.049-.042-.057-.033h-.005l-.026.075a12.8 12.8 0 0 0 3.17.376 12.48 12.48 0 0 0 3.743-.62 11.5 11.5 0 0 0 1.955-.836c.321-.183.652-.352.977-.55.313-.22.63-.44.947-.666a13.937 13.937 0 0 0 3.329-3.7 14.827 14.827 0 0 0 1.977-5.171 15.033 15.033 0 0 0-.11-5.974 14.876 14.876 0 0 0-2.616-5.654c-1.281-1.676-2.937-3.118-4.874-4.02l-.744-.338c-.247-.112-.51-.178-.762-.272-.255-.08-.506-.188-.766-.24l-.78-.178c-.255-.07-.519-.099-.783-.127a45.48 45.48 0 0 0-.784-.094c-.264-.005-.524-.01-.784-.019-.26 0-.52-.023-.78.01a12.92 12.92 0 0 0-5.79 1.775 13.435 13.435 0 0 0-4.288 4.006 14.853 14.853 0 0 0-2.224 5.147 15.282 15.282 0 0 0-.25 5.184c.206 1.644.708 3.128 1.285 4.443a14.192 14.192 0 0 0 2.153 3.325 13.55 13.55 0 0 0 2.409 2.174l-.018-.038-.44 6.073c.026-.296.19-2.189.52-6.063v-.024l-.018-.014a13.654 13.654 0 0 1-2.378-2.174 14.092 14.092 0 0 1-2.122-3.306c-.568-1.31-1.061-2.78-1.26-4.41a15.103 15.103 0 0 1 .265-5.133 14.688 14.688 0 0 1 2.21-5.09 13.23 13.23 0 0 1 4.245-3.954 12.774 12.774 0 0 1 5.724-1.747c.255-.033.51-.01.77-.01.256.005.516.01.775.019.256.033.516.061.775.094.26.028.52.056.775.127l.77.173c.26.052.503.16.758.24.251.09.511.155.753.268l.736.333c1.915.892 3.549 2.315 4.817 3.968a14.72 14.72 0 0 1 2.589 5.584c.449 1.986.453 4.02.114 5.903a14.74 14.74 0 0 1-1.946 5.114 13.83 13.83 0 0 1-3.29 3.672c-.316.226-.629.447-.937.663-.322.197-.647.366-.964.55-.634.356-1.295.619-1.933.835-1.29.432-2.554.606-3.712.63a12.957 12.957 0 0 1-3.153-.353l-.026.08h.004l-.004-.07c-3.083 2.601-4.61 3.893-4.84 4.09l-.017.01Z" fill="#022749"/><path d="m49.5 41.292.414 8.247c.035.676.533 1.216 1.167 1.263.665.051 1.25-.465 1.33-1.174l.933-8.27c.07-.625-.387-1.179-.982-1.174l-1.884.01c-.564 0-1.009.506-.978 1.103v-.005ZM53.103 54.944c-.33 1.052-1.396 1.625-2.383 1.272-.986-.352-1.523-1.488-1.197-2.54.33-1.052 1.396-1.625 2.382-1.278.986.353 1.523 1.49 1.198 2.541v.005Z" fill="#15A9F3"/><path d="M36.977 159.155V175l4.93-17.812" fill="#fff" fill-opacity=".3"/><path d="m56.468 151.001-18.028.232a.096.096 0 0 0-.047.01.12.12 0 0 0-.04.033l-1.348 1.559a.032.032 0 0 0-.008.017.044.044 0 0 0 0 .021.038.038 0 0 0 .01.016.02.02 0 0 0 .016.004l10.628-.216a.054.054 0 0 1 .05.016.097.097 0 0 1 .027.059.117.117 0 0 1-.011.068.07.07 0 0 1-.044.036l-13.877 3.702a.024.024 0 0 0-.013.008l-4.75 5.502a.19.19 0 0 0-.013.19c.014.029.035.05.06.06.025.01.052.008.076-.005l27.355-11.024a.121.121 0 0 0 .063-.065.193.193 0 0 0 .013-.106.16.16 0 0 0-.043-.09.092.092 0 0 0-.076-.027Z" fill="#fff" fill-opacity=".3"/><path d="M37.002 152.866v2.837l11.751-3.141-11.751.304Z" fill="#fff" fill-opacity=".3"/></g><defs><clipPath id="a"><path fill="#fff" transform="translate(0 .121)" d="M0 0h198v207.879H0z"/></clipPath></defs></svg>