<svg width="255" height="253" fill="none" xmlns="http://www.w3.org/2000/svg"><g clip-path="url(#a)"><path d="m48.584 114.869 2.19 4.448a.765.765 0 0 0 .58.42l4.901.711c.633.089.882.864.426 1.314l-3.545 3.459a.751.751 0 0 0-.22.681l.835 4.886a.768.768 0 0 1-1.112.811l-4.387-2.304a.769.769 0 0 0-.716 0l-4.386 2.304a.767.767 0 0 1-1.113-.811l.835-4.886a.784.784 0 0 0-.219-.681l-3.546-3.459a.77.77 0 0 1 .427-1.314l4.9-.711a.775.775 0 0 0 .58-.42l2.19-4.448a.768.768 0 0 1 1.38 0ZM28.536 89.18l1.515 3.073c.077.16.225.266.403.29l3.392.492c.438.065.61.598.296.906l-2.457 2.392a.539.539 0 0 0-.154.474l.58 3.382a.532.532 0 0 1-.77.562l-3.036-1.593a.528.528 0 0 0-.497 0l-3.036 1.593a.53.53 0 0 1-.77-.562l.58-3.382a.544.544 0 0 0-.154-.474l-2.456-2.392a.531.531 0 0 1 .296-.906l3.392-.492a.54.54 0 0 0 .402-.29l1.515-3.073a.53.53 0 0 1 .953 0h.006ZM230.045 119.577l1.053 2.132c.054.107.16.184.278.201l2.35.344c.302.041.421.414.208.628l-1.699 1.658a.369.369 0 0 0-.107.326l.403 2.339a.369.369 0 0 1-.533.391l-2.101-1.108a.356.356 0 0 0-.344 0l-2.101 1.108a.368.368 0 0 1-.533-.391l.403-2.339a.369.369 0 0 0-.107-.326l-1.698-1.658a.367.367 0 0 1 .207-.628l2.35-.344a.374.374 0 0 0 .278-.201l1.053-2.132a.371.371 0 0 1 .663 0h-.023ZM205.747 109.764l1.734 3.518a.617.617 0 0 0 .456.332l3.877.562a.608.608 0 0 1 .337 1.037l-2.805 2.736a.633.633 0 0 0-.178.539l.663 3.861a.607.607 0 0 1-.882.639l-3.468-1.824a.61.61 0 0 0-.569 0l-3.468 1.824a.607.607 0 0 1-.882-.639l.663-3.861a.599.599 0 0 0-.178-.539l-2.805-2.736a.608.608 0 0 1 .337-1.037l3.877-.562a.617.617 0 0 0 .456-.332l1.734-3.518a.608.608 0 0 1 1.089 0h.012ZM28.986 152.717l1.249 2.534c.065.131.19.219.331.243l2.8.409a.437.437 0 0 1 .243.746l-2.025 1.972a.453.453 0 0 0-.124.391l.48 2.789a.439.439 0 0 1-.64.462l-2.504-1.315a.452.452 0 0 0-.408 0l-2.504 1.315a.441.441 0 0 1-.639-.462l.48-2.789a.453.453 0 0 0-.125-.391l-2.024-1.972a.436.436 0 0 1 .242-.746l2.8-.409a.452.452 0 0 0 .332-.243l1.249-2.534a.44.44 0 0 1 .787 0ZM88.558 12.608l-6.795.036.183 33.826 6.795-.036-.183-33.826Z" fill="#E0E0E0"/><path d="m40.501 12.702-17.597.095.101 18.672 17.597-.095-.1-18.672Z" fill="#EBEBEB"/><path d="m58.009 12.607-17.597.096.1 18.671 17.598-.095-.101-18.672Z" fill="#F5F5F5"/><path d="M22.93 17.956c11.69.094 23.416.03 35.107-.16.242 0 .236-.373 0-.373a1445.64 1445.64 0 0 0-35.106.213c-.208 0-.208.32 0 .32Z" fill="#E0E0E0"/><path d="m43.903 31.06-31.968.173.082 15.219 31.968-.173-.082-15.22Z" fill="#EBEBEB"/><path d="m75.718 30.887-31.969.173.082 15.22 31.969-.173-.082-15.22Z" fill="#F5F5F5"/><path d="M11.956 35.467c21.238.243 42.546.024 63.784-.314.243 0 .237-.373 0-.373-21.237-.113-42.546-.1-63.784.367-.207 0-.207.32 0 .32ZM123.845 46.452H0v5.454h123.845v-5.454Z" fill="#E0E0E0"/><path d="M25.304 49.076h-5.026v18.6h5.026v-18.6ZM100.352 49.076h-5.025v18.6h5.025v-18.6Z" fill="#E0E0E0"/><path d="M95.183-.007 88.388.03l.252 46.523 6.795-.037-.252-46.523Z" fill="#EBEBEB"/><path d="m105.802 8.653-10.56.057.204 37.7 10.56-.058-.204-37.699Z" fill="#F5F5F5"/><path d="M105.733 15.924c0 .101-2.362.184-5.28.184s-5.28-.083-5.28-.184c0-.1 2.362-.183 5.28-.183s5.28.083 5.28.183ZM105.733 14.337c0 .1-2.362.184-5.28.184s-5.28-.083-5.28-.184c0-.1 2.362-.183 5.28-.183s5.28.082 5.28.183ZM105.733 40.684c0 .1-2.362.184-5.28.184s-5.28-.083-5.28-.184c0-.1 2.362-.183 5.28-.183s5.28.083 5.28.183ZM105.733 39.103c0 .1-2.362.184-5.28.184s-5.28-.083-5.28-.184c0-.1 2.362-.184 5.28-.184s5.28.083 5.28.184ZM100.624 35.65c-.101 0-.184-3.801-.184-8.492 0-4.69.083-8.492.184-8.492.101 0 .183 3.802.183 8.492 0 4.69-.082 8.492-.183 8.492Z" fill="#E0E0E0"/><path d="M117.334 17.92h-11.489v28.455h11.489V17.92Z" fill="#EBEBEB"/><path d="M93.64 7.941a1.956 1.956 0 0 1-1.953 1.955 1.956 1.956 0 0 1-1.954-1.955c0-1.077.876-1.954 1.954-1.954 1.077 0 1.953.877 1.953 1.954ZM92.296 13.319H91.09v27.673h1.207V13.32Z" fill="#E0E0E0"/><path d="M253.722 23.137H170.18v74.778h83.542V23.136Z" fill="#FAFAFA"/><path d="M253.728 97.915s-.012-.48-.024-1.386c0-.918-.012-2.257-.024-4.01-.011-3.511-.029-8.64-.047-15.178-.024-13.063-.059-31.736-.095-54.204l.19.19c-24.061.012-52.775.023-83.536.035h-.006l.225-.225c-.012 27.206-.018 52.807-.03 74.778l-.195-.196c24.925.041 45.784.077 60.422.1l17.041.054c1.965.012 3.48.018 4.51.024a53.038 53.038 0 0 1 1.569.023s-.124.006-.379.012c-.266 0-.645.006-1.142.012-1.024 0-2.522.012-4.475.024l-17 .053c-14.673.024-35.573.06-60.552.1h-.195v-.195c-.006-21.97-.018-47.571-.03-74.777v-.225h.231c30.761.012 59.475.024 83.536.036h.189v.19c-.041 22.52-.077 41.228-.1 54.322-.024 6.52-.036 11.636-.048 15.136l-.023 3.968c-.006.894-.024 1.344-.024 1.344l.012-.005Z" fill="#E0E0E0"/><path d="M202.214 36.42c0 .125-4.398.225-9.82.225-5.422 0-9.82-.1-9.82-.225 0-.124 4.398-.225 9.82-.225 5.422 0 9.82.101 9.82.225ZM237.617 42.034c0 .125-12.081.226-26.98.226-14.898 0-26.979-.101-26.979-.226 0-.124 12.081-.225 26.979-.225 14.899 0 26.98.101 26.98.225ZM186.238 51.545h-3.521v3.524h3.521v-3.524ZM194.904 51.545h-3.522v3.524h3.522v-3.524ZM203.729 51.385h-3.522v3.524h3.522v-3.524ZM212.229 51.545h-3.522v3.524h3.522v-3.524ZM220.895 51.545h-3.522v3.524h3.522v-3.524ZM229.56 51.545h-3.522v3.524h3.522v-3.524Z" fill="#E0E0E0"/><path d="M238.22 51.545h-3.522v3.524h3.522v-3.524ZM186.238 59.03h-3.521v3.524h3.521v-3.523Z" fill="#EBEBEB"/><path d="M194.904 59.03h-3.522v3.524h3.522v-3.523Z" fill="#E0E0E0"/><path d="M203.569 59.03h-3.521v3.524h3.521v-3.523Z" fill="#EBEBEB"/><path d="M212.229 59.03h-3.522v3.524h3.522v-3.523ZM220.895 59.03h-3.522v3.524h3.522v-3.523ZM229.72 58.87h-3.522v3.524h3.522v-3.523ZM238.22 59.03h-3.522v3.524h3.522v-3.523ZM186.238 66.522h-3.521v3.523h3.521v-3.523ZM195.064 66.362h-3.522v3.524h3.522v-3.524ZM203.569 66.522h-3.521v3.523h3.521v-3.523Z" fill="#E0E0E0"/><path d="M212.229 66.522h-3.522v3.523h3.522v-3.523Z" fill="#EBEBEB"/><path d="M220.895 66.522h-3.522v3.523h3.522v-3.523ZM229.56 66.522h-3.522v3.523h3.522v-3.523ZM238.22 66.522h-3.522v3.523h3.522v-3.523ZM186.238 74.007h-3.521v3.524h3.521v-3.524ZM194.904 74.007h-3.522v3.524h3.522v-3.524ZM203.569 74.007h-3.521v3.524h3.521v-3.524ZM212.389 73.847h-3.522v3.524h3.522v-3.524ZM220.895 74.007h-3.522v3.524h3.522v-3.524Z" fill="#E0E0E0"/><path d="M229.56 74.007h-3.522v3.524h3.522v-3.524Z" fill="#EBEBEB"/><path d="M238.22 74.007h-3.522v3.524h3.522v-3.524ZM186.238 81.493h-3.521v3.523h3.521v-3.523Z" fill="#E0E0E0"/><path d="M194.904 81.493h-3.522v3.523h3.522v-3.523Z" fill="#EBEBEB"/><path d="M203.569 81.493h-3.521v3.523h3.521v-3.523ZM212.229 81.493h-3.522v3.523h3.522v-3.523ZM220.895 81.493h-3.522v3.523h3.522v-3.523ZM229.72 81.333h-3.522v3.523h3.522v-3.523ZM238.22 81.493h-3.522v3.523h3.522v-3.523Z" fill="#E0E0E0"/><path d="M11.021 213.968v21.775H7.387v2.363h3.634v14.574h67.921v-13.259h-5.03v-2.89h5.03v-4.335h2.238v-1.972h-2.658v-16.262H11.021v.006Z" fill="#EBEBEB"/><path d="M60.907 214.027v38.404h18.035v-13.259h-5.03v-2.647l5.03.095v-4.335h2.28l-.042-2.239-2.658-.065v-16.013l-17.615.059Z" fill="#E0E0E0"/><path d="M62.191 237.792c0 .136-12.288.243-27.446.243-15.16 0-27.453-.107-27.453-.243s12.288-.243 27.453-.243c15.164 0 27.447.107 27.447.243ZM62.191 235.577c0 .137-12.288.243-27.446.243-15.16 0-27.453-.106-27.453-.243 0-.136 12.288-.242 27.453-.242 15.164 0 27.447.106 27.447.242ZM65.719 229.626c0 .136-12.288.243-27.447.243-15.159 0-27.453-.107-27.453-.243s12.288-.243 27.453-.243 27.447.107 27.447.243ZM66.057 245.846c0 .136-12.288.243-27.447.243-15.159 0-27.453-.107-27.453-.243s12.288-.243 27.453-.243 27.447.107 27.447.243Z" fill="#E0E0E0"/><path d="M19.835 177.684v20.638H16.39v2.239h3.445v13.81h64.37v-12.567h-4.771v-2.736h4.77v-4.104h2.12v-1.865h-2.516V177.69H19.835v-.006Z" fill="#F5F5F5"/><path d="M67.11 177.743v36.397h17.094v-12.567H79.44v-2.505l4.764.083v-4.104h2.16l-.04-2.12-2.516-.059v-15.184l-16.698.059Z" fill="#E0E0E0"/><path d="M68.33 200.265c0 .124-11.65.23-26.015.23s-26.014-.1-26.014-.23c0-.131 11.643-.231 26.014-.231 14.372 0 26.014.1 26.014.231ZM68.33 198.168c0 .124-11.65.231-26.015.231s-26.014-.101-26.014-.231 11.643-.231 26.014-.231c14.372 0 26.014.101 26.014.231ZM71.667 192.524c0 .125-11.648.231-26.014.231s-26.014-.1-26.014-.231c0-.13 11.643-.231 26.014-.231 14.372 0 26.014.101 26.014.231ZM71.993 207.898c0 .124-11.648.231-26.014.231s-26.014-.101-26.014-.231 11.642-.231 26.014-.231c14.371 0 26.014.101 26.014.231Z" fill="#E0E0E0"/><path d="M216.23 186.674c-3.522-1.819-7.665-2.055-11.577-1.41-2.102.349-4.292.977-5.718 2.552-1.427 1.582-1.699 4.353-.06 5.709.977.806 2.339.93 3.605.918 3.06-.035 6.458-.574 8.903 1.268 1.396 1.048 2.32 2.795 3.989 3.316 1.634.503 3.474-.456 4.339-1.931.864-1.474.893-3.316.491-4.974 0 0-.426-3.619-3.972-5.448ZM224.292 171.099c-2.154 3.073-6.339 2.055-8.275.177-1.941-1.877-2.758-4.601-3.504-7.195-1.705-5.928-3.427-12.152-2.154-18.186.378-1.807 1.053-3.607 2.32-4.945 1.267-1.339 3.22-2.138 5.002-1.664 2.107.556 3.421 2.623 4.368 4.589a43.262 43.262 0 0 1 4.279 18.607c.012 2.997-.343 6.141-2.03 8.617M230.205 175.511c-2.338-2.778-2.782-6.823-1.74-10.299 1.042-3.476 3.392-6.437 6.097-8.847a32.862 32.862 0 0 1 10.92-6.449c1.581-.557 3.244-.995 4.913-.835 1.669.16 3.344 1.012 4.12 2.493 1.148 2.191.047 4.85-1.142 7.023a82.957 82.957 0 0 1-7.174 10.926c-2.149 2.772-4.611 5.508-7.891 6.763-3.273 1.256-6.676 1.108-8.416-1.166" fill="#EBEBEB"/><path d="M224.44 217.503c-.041 0-.106-.497-.195-1.397-.101-1.019-.225-2.298-.373-3.814-.177-1.605-.414-3.518-.858-5.596-.444-2.073-1.143-4.323-2.03-6.603-.924-2.268-2.054-4.329-3.368-5.976-1.308-1.658-2.83-2.854-4.262-3.547a12.017 12.017 0 0 0-3.587-1.119c-.894-.089-1.391-.16-1.391-.201 0-.042.497-.048 1.415-.024.905.059 2.237.29 3.74.977 1.51.669 3.126 1.883 4.493 3.577 1.385 1.682 2.551 3.79 3.492 6.094.912 2.321 1.593 4.595 2.019 6.709.426 2.114.615 4.051.746 5.668.118 1.622.165 2.931.189 3.837.018.906.012 1.41-.03 1.41v.005Z" fill="#E0E0E0"/><path d="M224.18 214.566s-.03-.225-.036-.651v-1.854c0-1.611 0-3.938-.082-6.816-.142-5.75-.64-11.945-1.593-20.674-.905-8.208-2.119-17.76-3.403-23.972a97.471 97.471 0 0 0-.811-3.796c-.249-1.113-.462-2.079-.669-2.854-.177-.735-.32-1.327-.432-1.801-.095-.414-.13-.633-.112-.639.017 0 .094.201.224.61.143.467.32 1.054.539 1.776.237.77.485 1.729.764 2.837.29 1.107.597 2.375.899 3.784 1.267 5.626 2.611 13.49 3.581 22.243.959 8.747 1.391 16.712 1.427 22.48a122.13 122.13 0 0 1-.101 6.828c-.047.752-.083 1.368-.112 1.854-.03.426-.059.645-.077.645h-.006Z" fill="#E0E0E0"/><path d="M224.138 199.204c-.041 0-.035-.686.012-1.936.071-1.244.243-3.044.592-5.247.373-2.197.894-4.809 1.705-7.651.355-1.297 1.183-4.406 3.196-9.049 2.652-6.295 6.256-11.435 9.387-14.627.734-.847 1.551-1.457 2.208-2.055.338-.285.64-.575.941-.8l.859-.592c1.03-.705 1.61-1.078 1.627-1.042.095.124-2.308 1.54-5.344 4.767-3.019 3.222-6.523 8.332-9.151 14.574a70.846 70.846 0 0 0-3.214 8.966c-.841 2.813-1.397 5.395-1.818 7.574a72.104 72.104 0 0 0-.769 5.2c-.113 1.237-.195 1.918-.237 1.918h.006ZM238.977 226.304l-1.539 21.088h-27.074l-1.539-21.088h30.152ZM241.594 217.989h-36v8.315h36v-8.315Z" fill="#E0E0E0"/><path d="M241.594 246.586v2.304h-35.408v-2.304h35.408Z" fill="#EBEBEB"/><path d="m238.243 252.947 1.657-4.057h-32.424l1.935 4.057h28.832Z" fill="#E0E0E0"/><path d="M209.328 233.197s.036.071.124.195c.107.142.243.32.403.539.385.492.912 1.167 1.574 2.02l.071.088.066-.094c.994-1.374 2.314-3.204 3.877-5.366h-.225l3.817 5.407.119.172.136-.16a3179.69 3179.69 0 0 0 4.522-5.389h-.26c.077.095.165.201.248.308 1.403 1.759 2.765 3.464 4.049 5.075l.136.172.124-.178c1.374-1.942 2.658-3.76 3.818-5.407l-.219.012c1.882 2.144 3.475 3.962 4.7 5.36l.083.094.065-.106c.621-1.043 1.113-1.872 1.474-2.476.154-.266.278-.485.379-.657.082-.148.124-.231.112-.237-.006 0-.059.065-.16.207-.112.166-.248.373-.42.634-.379.592-.894 1.409-1.545 2.428l.148-.012c-1.207-1.415-2.776-3.251-4.629-5.424l-.118-.137-.107.148c-1.172 1.635-2.468 3.447-3.853 5.378h.261a1063.692 1063.692 0 0 0-4.037-5.087c-.083-.107-.172-.214-.249-.314l-.13-.16-.13.16c-1.581 1.895-3.108 3.719-4.511 5.395l.255.012c-1.391-1.943-2.687-3.755-3.853-5.378l-.113-.16-.112.16-3.794 5.419h.136c-.693-.835-1.243-1.492-1.64-1.972-.177-.207-.325-.373-.438-.509-.101-.113-.154-.172-.16-.166l.006.006ZM208.446 226.161c0 .095 6.784.166 15.153.166 8.37 0 15.153-.077 15.153-.166 0-.088-6.783-.165-15.153-.165-8.369 0-15.153.077-15.153.165ZM207.079 249.115c0 .095 7.375.166 16.467.166 9.092 0 16.467-.077 16.467-.166 0-.089-7.369-.166-16.467-.166-9.098 0-16.467.077-16.467.166Z" fill="#F5F5F5"/><path d="M247.53 252.846c0 .083-52.49.154-117.227.154s-117.24-.071-117.24-.154 52.48-.154 117.24-.154c64.76 0 117.227.071 117.227.154ZM140.648 32.72c.255-4.448 2.99-7.19 6.819-9.458 3.836-2.274 8.802-2.5 12.827-.58 2.687 1.278 5.043 3.47 8.002 3.849 4.866.627 9.471-3.885 14.248-2.754 2.829.669 4.978 3.494 4.871 6.401-.106 2.902-2.468 5.567-5.339 6.017 3.184.462 4.99 4.495 3.812 7.492-1.178 2.996-4.522 4.737-7.742 4.808-3.22.071-6.316-1.243-9.098-2.86-2.788-1.617-5.386-3.56-8.287-4.95-2.906-1.393-6.244-2.204-9.358-1.375-4.214 1.12-7.197 5.1-8.298 9.322-1.101 4.222-.628 8.681.029 12.992.657 4.312 1.486 8.664 1.078 13.005-.048.51-.16 1.096-.61 1.338-.645.356-1.391-.254-1.865-.817a64.112 64.112 0 0 1-12.027-21.799c-1.468-4.625-2.279-9.12-.515-13.638 1.764-4.519 7.713-8.818 11.453-6.982" fill="#022749"/><path d="m136.547 54.228 7.12 43.965c1.332 8.208 6.665 16.143 19.539 13.449 10.998-3.18 10.181-11.098 8.749-20.852 0 0 12.098-3.15 11.015-15.456-.521-5.946-2.599-18.11-4.605-29.09-2.155-11.796-13.01-19.944-24.931-18.748l-1.184.118c-12.708 2.032-18.083 13.964-15.698 26.62l-.005-.006Z" fill="#FFBF9D"/><path d="M171.954 90.784s-7.7 1.232-16.473-3.12c0 0 4.825 9.143 16.97 6.804l-.497-3.684Z" fill="#FF9A6C"/><path d="M174.198 58.55c.124.925-.55 1.795-1.515 1.943-.959.148-1.841-.48-1.965-1.403-.125-.924.55-1.795 1.509-1.943.959-.148 1.841.48 1.971 1.404ZM176.329 52.534c-.196.249-1.622-.598-3.51-.403-1.889.166-3.179 1.28-3.404 1.066-.112-.094.071-.527.628-1.03.55-.498 1.521-1.025 2.699-1.137 1.178-.113 2.207.219 2.823.61.627.385.864.782.769.894h-.005ZM156.506 59.682c.124.924-.551 1.794-1.515 1.942-.959.148-1.841-.48-1.966-1.403-.124-.924.551-1.794 1.51-1.942.959-.149 1.841.48 1.971 1.403ZM157.808 54.755c-.195.249-1.622-.598-3.51-.403-1.888.166-3.179 1.28-3.404 1.066-.112-.095.065-.527.628-1.024.55-.498 1.521-1.025 2.693-1.137 1.178-.113 2.208.225 2.823.61.622.385.865.781.77.894v-.006ZM166.065 68.073c-.018-.106 1.136-.426 3.013-.864.479-.1.923-.243.97-.58.077-.362-.177-.86-.467-1.398-.568-1.12-1.166-2.298-1.794-3.53-2.503-5.027-4.368-9.185-4.167-9.285.202-.101 2.398 3.896 4.907 8.93.604 1.244 1.184 2.422 1.74 3.56.237.526.616 1.118.438 1.865-.094.373-.42.669-.722.787-.302.125-.568.16-.805.196-1.906.296-3.089.426-3.107.313l-.006.007ZM157.553 47.3c-.136.532-2.042.479-4.232.97-2.196.444-3.918 1.273-4.262.841-.153-.207.107-.722.782-1.29.663-.57 1.758-1.156 3.078-1.44 1.314-.278 2.551-.19 3.391.06.847.248 1.297.61 1.243.858ZM175.085 47.14c-.29.461-1.633.147-3.202.283-1.568.083-2.859.58-3.208.16-.154-.207.012-.657.545-1.119.526-.462 1.45-.888 2.527-.965 1.077-.077 2.048.219 2.634.604.598.385.823.811.698 1.03l.006.006Z" fill="#022749"/><path d="M138.464 63.23c-.219-.072-8.695-1.647-7.582 6.727 1.113 8.38 9.287 5.53 9.269 5.288-.018-.243-1.693-12.016-1.693-12.016h.006Z" fill="#FFBF9D"/><path d="M137.18 72.408c-.042-.023-.13.125-.361.267a1.466 1.466 0 0 1-1.089.166c-.93-.208-1.859-1.516-2.102-3.02a4.85 4.85 0 0 1 .131-2.144c.171-.646.515-1.126.947-1.268a.747.747 0 0 1 .911.285c.142.219.113.39.16.402.024.018.16-.166.047-.503a.98.98 0 0 0-.396-.48 1.103 1.103 0 0 0-.835-.106c-.639.13-1.142.8-1.349 1.504a5.043 5.043 0 0 0-.196 2.404c.278 1.682 1.35 3.145 2.611 3.334.609.077 1.077-.165 1.302-.396.231-.243.248-.433.219-.445Z" fill="#FF9A6C"/><path d="M177.364 34.774c-1.337-2.304-3.48-4.039-5.753-5.425-4.907-2.984-10.719-4.565-16.443-4.08-5.724.486-11.306 3.121-15.041 7.486-2.989 3.494-4.717 7.965-5.268 12.53-.55 4.567.03 9.221 1.291 13.639.55 1.942 1.296 3.938 2.829 5.253.959.817 2.504 1.267 3.421.402.539-.509.675-1.302.782-2.037.964-6.644 1.858-13.78-1.143-19.791 1.397-2.256 3.072-4.394 5.25-5.904 2.185-1.51 4.925-2.334 7.53-1.812 3.859.775 6.534 4.187 9.778 6.425 4.635 3.192 10.855 3.95 16.123 1.966l-3.35-8.646-.006-.006Z" fill="#022749"/><path d="M167.728 73.178c-.136.788-.272 1.593-.627 2.31-.355.716-.953 1.356-1.728 1.557-.823.213-1.735-.112-2.344-.704-.61-.598-.947-1.428-1.084-2.268-.124-.764.036-1.736.764-1.978.302-.101.633-.048.953.011 1.426.255 2.847.516 4.274.776" fill="#FF9A6C"/><path d="M166.835 76.75c-.048-.12-.835.414-2.155.177-.639-.113-1.379-.45-1.888-1.114a3.233 3.233 0 0 1-.592-2.564c.041-.23.13-.456.219-.663.124-.195.095-.183.272-.195.172.011.456.077.681.118.237.041.474.089.704.13a91.64 91.64 0 0 0 2.433.409c1.391.213 2.261.296 2.279.195.018-.094-.817-.355-2.178-.692a91.259 91.259 0 0 0-2.403-.563c-.231-.047-.462-.1-.699-.154-.248-.047-.444-.113-.781-.148a.958.958 0 0 0-.58.136c-.19.13-.29.296-.361.432a3.479 3.479 0 0 0-.284.841 3.78 3.78 0 0 0 .781 3.127c.669.8 1.598 1.137 2.338 1.196a3.277 3.277 0 0 0 1.722-.29c.367-.183.527-.355.504-.39l-.012.011ZM185.349 25.482s.077.184.166.551c.059.373.148.93.053 1.652-.136 1.416-.965 3.536-3.037 5.147-2.059 1.634-5.315 2.291-8.671 1.782-3.398-.468-6.795-2.102-10.352-3.565-3.54-1.463-7.198-2.452-10.465-1.854-3.268.557-5.801 2.434-7.464 4.276a17.637 17.637 0 0 0-3.191 4.998c-.538 1.31-.722 2.073-.775 2.061-.018 0 .018-.195.106-.562.071-.368.243-.895.474-1.576a16.65 16.65 0 0 1 3.102-5.175c1.669-1.913 4.255-3.903 7.665-4.513 3.415-.652 7.191.367 10.761 1.842 3.581 1.48 6.925 3.097 10.222 3.57 3.255.528 6.381-.076 8.364-1.586 2.012-1.499 2.864-3.506 3.06-4.868.213-1.392-.083-2.168-.012-2.174l-.006-.006ZM130.372 51.006c-.059 0-.059-.912.326-2.315.367-1.398 1.166-3.287 2.539-5.046a14.374 14.374 0 0 1 2.178-2.244c.74-.616 1.545-1.072 2.297-1.208.752-.142 1.379.006 1.746.195.379.196.515.39.491.415-.023.083-.799-.58-2.16-.231-1.314.337-2.794 1.753-4.126 3.41a16.821 16.821 0 0 0-2.604 4.821c-.468 1.339-.604 2.215-.698 2.203h.011ZM132.593 58.255c-.06-.012.017-.918.473-2.31.45-1.386 1.356-3.233 2.794-4.956 1.444-1.718 3.101-2.938 4.386-3.63 1.284-.7 2.166-.93 2.184-.877.036.083-.781.444-1.989 1.208a18.405 18.405 0 0 0-4.161 3.648 18.488 18.488 0 0 0-2.853 4.743c-.539 1.321-.746 2.191-.84 2.174h.006ZM177.696 105.696s8.98 11.589 11.14 15.942 17.645 52.445 17.645 52.445l-6.718 2.825-22.067-71.212Z" fill="#022749"/><path d="M141.572 94.847v-5.81l32.62 10.613 8.743 13.999 6.736 19.549-18.882-28.396-29.217-9.955Z" fill="#EBEBEB"/><path d="M139.631 100.431s-13.845 16.57-13.543 27.336c.296 10.607 14.673 75.056 14.673 75.056l-3.48 11.518-3.771 38.387h78.422l-5.457-78.645c-.87-.053-17.195-45.072-17.195-45.072l-18.243-25.346-30.039-10.832-1.367 7.592v.006Z" fill="#022749"/><path d="M199.396 155.352s5.487-.219 8.352 1.06c2.864 1.279 5.285.64 7.316 4.607 2.024 3.968 4.392 5.757 4.889 11.767.497 6.011-5.99 19.934-10.276 21.888-4.285 1.954-10.275-39.328-10.275-39.328l-.006.006Z" fill="#022749"/><path d="M138.044 154.807s32.064 30.114 36.142 32.992c4.078 2.878 4.682 21.088 9.707 21.437 5.025.344 21.303-11.702 21.303-11.702l-48.235-45.463-18.917 2.736Z" fill="#000" opacity=".3"/><path d="M183.195 181.77s-6.973 8.93-7.772 11.163c-.799 2.239-1.574 3.725-.722 4.471.853.746 1.593.835 2.445.509 1.136-.432 6.742-7.828 6.742-7.828s-7.435 10.606-7.772 12.436c-.337 1.842 1.119 2.718 2.823 2.398 1.705-.32 4.949-5.116 4.949-5.116s-4.599 5.329-3.629 6.235c.971.907 2.09 1.013 3.368.374 1.279-.64 4.528-4.851 4.528-4.851s-2.237 2.399-1.012 2.985c1.225.586 1.332.652 2.397-.237 1.066-.882 10.465-10.091 10.465-10.091l-5.936-4.056-10.868-8.398-.006.006Z" fill="#FFBF9D"/><path d="M186.054 187.224c.036.03-.396.592-1.095 1.499-.751.983-1.686 2.197-2.716 3.541a85.214 85.214 0 0 1-2.824 3.47c-.752.865-1.249 1.368-1.278 1.344-.036-.029.402-.586 1.112-1.48.758-.977 1.705-2.185 2.747-3.524 1.065-1.379 2.048-2.617 2.794-3.488.74-.876 1.231-1.385 1.26-1.356v-.006ZM190.991 191.5c.065.053-1.599 2.126-3.718 4.631-2.119 2.499-3.888 4.483-3.954 4.43-.065-.054 1.599-2.126 3.718-4.631 2.119-2.499 3.889-4.483 3.954-4.43ZM194.957 194.183c.065.059-1.681 2.066-3.895 4.483-2.214 2.422-4.061 4.334-4.126 4.275-.065-.059 1.681-2.067 3.895-4.483 2.214-2.422 4.061-4.335 4.126-4.275Z" fill="#FF9A6C"/><path d="M143.875 110.742c4.504-.954 10.222-1.357 14.578 1.113l23.789 21.473s33.532 37.634 34.846 39.737c1.314 2.096 3.084 14.485-1.995 20.798-5.078 6.313-10.784 3.885-17.301 2.398-5.162-1.178-41.215-27.679-56.03-38.688-5.126-3.808-8.885-9.197-10.536-15.368-.989-3.701-1.64-7.989-1.196-12.235" fill="#022749"/><path d="M130.03 129.964s-.006.208-.041.616c-.03.409-.06 1.019-.071 1.812-.012 1.593.106 3.956.698 6.935.302 1.486.693 3.127 1.302 4.868.604 1.741 1.468 3.559 2.593 5.383a28.47 28.47 0 0 0 4.309 5.348c1.722 1.729 3.865 3.18 6.037 4.808 8.731 6.438 19.149 14.083 30.874 22.344a598.627 598.627 0 0 0 9.062 6.254c3.114 2.09 6.304 4.222 9.672 6.176.847.474 1.699.96 2.599 1.333.438.195.899.302 1.391.414l1.444.35c1.924.479 3.865.971 5.854 1.16 1.977.172 4.055-.047 5.807-1.06 1.758-.971 3.231-2.487 4.291-4.222 1.711-2.961 2.338-6.402 2.45-9.73.06-1.676 0-3.346-.207-4.986-.1-.823-.237-1.635-.408-2.434-.207-.782-.373-1.611-.799-2.268-.971-1.279-2.072-2.517-3.108-3.743-1.059-1.22-2.107-2.434-3.149-3.636-2.095-2.393-4.161-4.75-6.185-7.059-8.145-9.203-15.662-17.707-22.303-25.21l.012.012c-9.832-8.901-17.941-16.244-23.76-21.509l.012.012c-2.113-1.185-4.262-1.599-6.091-1.777-1.84-.16-3.409-.071-4.664.042-1.255.124-2.196.284-2.829.391-.314.059-.545.1-.716.13a2.57 2.57 0 0 1-.243.035s.32-.077.947-.207c.633-.118 1.575-.29 2.829-.426 1.255-.125 2.824-.231 4.682-.077 1.841.166 4.013.574 6.156 1.764h.006l.006.012c5.836 5.247 13.963 12.567 23.824 21.438v.012a5661.7 5661.7 0 0 1 22.345 25.18c2.024 2.31 4.09 4.661 6.191 7.059l3.155 3.636c1.048 1.238 2.125 2.44 3.137 3.773.13.165.201.379.302.562.083.196.142.397.213.592.136.397.225.806.326 1.209.177.811.313 1.634.414 2.469.207 1.658.272 3.346.207 5.034-.118 3.363-.746 6.846-2.498 9.878-1.095 1.788-2.586 3.322-4.409 4.335-1.817 1.048-3.972 1.267-5.979 1.095-2.024-.189-3.977-.693-5.901-1.166l-1.444-.35c-.474-.106-.977-.231-1.439-.432-.923-.385-1.775-.871-2.628-1.35-3.385-1.967-6.57-4.104-9.683-6.195a599.296 599.296 0 0 1-9.062-6.265c-11.72-8.273-22.12-15.942-30.839-22.397-2.16-1.629-4.315-3.092-6.043-4.845a28.72 28.72 0 0 1-4.315-5.395c-1.125-1.847-1.989-3.677-2.587-5.43-.604-1.753-.988-3.399-1.278-4.892-.574-2.984-.675-5.359-.645-6.958.041-1.599.171-2.434.171-2.434l.006-.018ZM190.345 131.771s-.047-.024-.136-.089c-.101-.071-.225-.166-.379-.279-.325-.254-.829-.604-1.426-1.125-1.22-.995-2.901-2.54-4.907-4.512-2.007-1.972-4.327-4.389-6.961-7.012-1.326-1.297-2.723-2.665-4.244-3.991-1.515-1.333-3.125-2.671-4.913-3.844-.716-.521-1.503-.918-2.231-1.362l-.101-.059.024-.107c.124-.539.242-1.072.361-1.593l.1.178c-7.221-2.274-13.608-4.288-18.219-5.738-2.273-.729-4.102-1.315-5.392-1.73-.616-.201-1.095-.361-1.45-.479l-.373-.13a.427.427 0 0 1-.124-.054s.047 0 .13.024c.1.03.225.059.385.106.355.107.846.249 1.468.427 1.296.391 3.137.953 5.421 1.64 4.617 1.427 11.01 3.405 18.249 5.638l.136.041-.03.137c-.118.521-.236 1.054-.361 1.593l-.077-.172c.74.45 1.534.853 2.256 1.374 1.805 1.184 3.427 2.528 4.942 3.873 1.527 1.338 2.918 2.712 4.244 4.015 2.628 2.635 4.931 5.069 6.919 7.059 1.983 1.99 3.635 3.559 4.83 4.578.581.533 1.072.894 1.386 1.166.147.125.266.225.361.302a.705.705 0 0 1 .118.113l-.006.012Z" fill="#022749"/><path d="M202.119 156.015c-.012.042-.261-.42-.669-1.214-.42-.841-1.006-1.995-1.711-3.405a1341.948 1341.948 0 0 1-5.528-11.287 1253.924 1253.924 0 0 1-5.434-11.335c-.669-1.427-1.213-2.6-1.61-3.452-.171-.385-.313-.699-.42-.948-.095-.219-.136-.332-.13-.338.012 0 .071.101.183.314.125.243.284.545.474.918l1.699 3.411c1.426 2.926 3.368 6.899 5.516 11.294l5.446 11.328 1.627 3.447c.379.811.586 1.285.563 1.261l-.006.006ZM146.698 220.98s.077 0 .213.006l.61.041c.55.047 1.331.107 2.344.19 2.048.177 4.989.432 8.653.746 7.346.657 17.568 1.569 29.175 2.605l-.159.19c-.604-2.446-1.237-4.998-1.883-7.604-.296-1.196-.586-2.375-.876-3.529l.131.118c-13.04-1.516-24.624-2.86-32.668-3.79l.101-.053c-1.918 3.399-3.398 6.147-4.363 8.054-.479.953-.834 1.699-1.041 2.22a3.874 3.874 0 0 0-.208.598c-.035.137-.017.202-.029.214-.024.011-.03-.308.183-.829.196-.528.527-1.286.995-2.245.935-1.925 2.385-4.69 4.285-8.107l.036-.059h.065c8.05.918 19.639 2.226 32.679 3.695l.107.012.023.106c.284 1.155.58 2.34.876 3.53l1.883 7.604.053.207-.213-.018c-11.637-1.089-21.889-2.049-29.246-2.736-3.653-.355-6.582-.633-8.619-.835-.994-.1-1.769-.177-2.308-.237-.249-.029-.444-.047-.592-.065-.13-.017-.201-.023-.195-.029h-.012Z" fill="#022749"/><path d="m147.758 221.074 1.402 3.654 38.516 2.298v-2.298l-39.918-3.654Z" fill="#000" opacity=".3"/><path d="M94.8 37.439c-.119-2.06-1.83-3.784-3.794-4.406-1.966-.622-4.12-.308-6.073.343-4.268 1.416-7.855 4.324-11.336 7.166-5.404 4.418-10.654 10.476-12.714 17.144-1.556 5.022-2.006 8.303-.408 13.645 1.414 4.725 2.533 9.303 2.25 13.253-.445 6.248-1.203 7.716-2.807 13.846-1.006 3.837 2.41 13.857 2.41 13.857l21.598-8.267c7.713-3.624 24.31-10.387 24.31-10.387L94.8 37.439Z" fill="#022749"/><path d="M82.654 110.706c.035-5.253.083-8.913.083-8.877 0 0-9.43-2.18-11.33-15.634-.947-6.692-1.438-17.334-.722-26.27.645-8.042 6.15-17.831 14.153-16.842l24.931 6.763c2.433.302 3.244 2.374 3.155 4.826l.183 1.149-1.829 38.416.788 16.339c-.32 7.302-7.541 13.94-14.834 14.272-8.073.367-14.632-6.058-14.578-14.142Z" fill="#FFBF9D"/><path d="M76.332 70.644c-.047.906.681 1.7 1.628 1.764.947.066 1.752-.61 1.8-1.522.047-.906-.681-1.7-1.628-1.764-.947-.066-1.752.616-1.8 1.522ZM74.07 65.977c.208.225 1.528-.717 3.38-.675 1.853.012 3.19.989 3.398.764.1-.1-.112-.51-.692-.948-.575-.438-1.563-.87-2.717-.888-1.154-.012-2.131.397-2.693.817-.575.427-.776.83-.675.93ZM93.658 70.436c-.048.906.68 1.7 1.627 1.765.948.065 1.752-.61 1.8-1.522.047-.906-.68-1.7-1.628-1.765-.947-.065-1.752.616-1.8 1.522ZM91.823 65.93c.207.23 1.533-.717 3.38-.675 1.846.011 3.19.989 3.397.764.1-.101-.106-.51-.692-.948-.575-.438-1.563-.876-2.717-.888-1.155-.012-2.131.396-2.694.817-.574.426-.775.829-.674.93ZM84.394 79.935c.012-.106-1.137-.326-2.995-.592-.474-.06-.918-.16-.995-.48-.106-.343.101-.852.338-1.397.462-1.137.953-2.328 1.462-3.577 2.03-5.093 3.51-9.286 3.303-9.369-.207-.077-2.019 3.986-4.049 9.079a909.793 909.793 0 0 0-1.403 3.6c-.19.533-.509 1.137-.278 1.854.118.355.462.616.764.705.302.1.568.106.799.124 1.876.136 3.036.16 3.048.06l.006-.007Z" fill="#022749"/><path d="M82.737 101.835s9.015.734 18.047-4.489c0 0-4.694 9.392-18.1 7.906l.053-3.423v.006Z" fill="#FF9A6C"/><path d="M91.23 59.38c.22.491 2.043.124 4.233.237 2.19.07 3.977.586 4.238.112.112-.225-.225-.675-.965-1.113-.734-.438-1.882-.823-3.196-.876-1.309-.054-2.486.236-3.256.61-.775.373-1.148.799-1.053 1.03ZM73.55 60.197c.379.427 1.894.018 3.711.03 1.817-.042 3.344.337 3.705-.095.16-.213-.076-.634-.74-1.048-.656-.409-1.757-.752-3-.74-1.25.011-2.333.373-2.972.793-.65.42-.864.853-.698 1.06h-.006Z" fill="#022749"/><path d="M84.831 84.501c.42-.776 1.96-1.877 3.587-1.646h.13c.77.059 1.534.527 1.806 1.25.249.663.053 1.438-.385 1.99-.444.55-1.1.9-1.781 1.083-.882.237-1.877.213-2.635-.296-.757-.51-1.154-1.587-.722-2.387v.006Z" fill="#FF9A6C"/><path d="M90.01 81.694c-.088-.018-.206.468-.55 1.155-.337.687-.953 1.575-1.894 2.233-.947.657-1.995.923-2.752 1-.764.083-1.255.018-1.273.113-.017.07.456.29 1.29.314.823.03 2.019-.19 3.084-.93a5.257 5.257 0 0 0 1.948-2.564c.266-.794.225-1.315.154-1.32h-.006ZM70.342 75.429 67.56 64.177c-2.498-3.447-.545-9.073 1.225-12.94 1.77-3.873 5.144-6.834 8.897-8.835 3.752-2.002 7.901-3.133 12.033-4.152-1.533 5.016-5.392 9.86-9.915 12.52 0 0-6.848 4.684-8.085 10.203-1.35 6.034-1.38 14.456-1.38 14.456h.007Z" fill="#022749"/><path d="m85.945 45.357 19.574 11.767s.604 8.918 4.173 17.612c3.611-3.092 5.842 2.866 6.926-1.712.059-.237-.995 9.606-4.777 9.914l-.622 10.7 18.669-4.589s-1.006-12.975-4.19-20.84c-1.983-4.89-3.031-8.995-4.984-13.898-1.48-3.713-4.108-9.262-6.085-11.898-4.244-5.673-19.942-5.922-19.942-5.922-6.919 1.635-2.26.853-8.09 4.933L84.6 46.778" fill="#022749"/><path d="M109.686 74.659c-.012-2.831 3.013-4.88 5.582-3.607 1.409.699 2.545 2.203 2.586 5.206.113 8-8.097 6.472-8.115 6.242-.011-.143-.035-4.53-.047-7.841h-.006Z" fill="#FFBF9D"/><path d="M112.184 79.432c.036-.024.142.095.385.201.237.1.639.166 1.06.006.858-.326 1.562-1.676 1.586-3.12a4.488 4.488 0 0 0-.426-1.99c-.255-.58-.645-.984-1.083-1.055a.733.733 0 0 0-.835.397c-.107.225-.053.385-.095.397-.023.018-.177-.13-.118-.462a.858.858 0 0 1 .314-.503c.195-.16.479-.243.781-.214.627.036 1.201.593 1.503 1.22a4.66 4.66 0 0 1 .521 2.227c-.029 1.61-.852 3.133-2.024 3.488-.574.154-1.054-.006-1.302-.195-.255-.196-.302-.373-.273-.385l.006-.012Z" fill="#FF9A6C"/><path d="M95.28 36.456s-.102.183-.338.48c-.243.29-.61.692-1.09 1.172-.947.96-2.314 2.215-3.83 3.595a226.963 226.963 0 0 0-3.847 3.565c-.97.93-1.544 1.528-1.58 1.498-.018-.012.113-.178.35-.468.236-.29.609-.693 1.07-1.178.93-.971 2.274-2.256 3.795-3.642 1.486-1.35 2.83-2.565 3.889-3.524.994-.9 1.539-1.522 1.574-1.492l.006-.006ZM73.503 43.237s.165-.237.52-.616c.356-.38.9-.906 1.628-1.487 1.45-1.16 3.7-2.523 6.47-3.257 1.373-.367 2.806-.456 4.013-.053 1.202.379 2.119 1.214 2.492 2.102.379.889.29 1.712.112 2.203-.082.255-.195.427-.272.545-.083.112-.13.166-.142.16-.03-.018.166-.243.296-.735.136-.48.178-1.255-.201-2.078-.367-.817-1.237-1.575-2.374-1.925-1.142-.367-2.504-.278-3.847.077-2.717.723-4.943 2.032-6.41 3.133-1.474 1.107-2.238 1.972-2.28 1.93h-.005ZM69.022 51.29s.166-.219.51-.574a53.32 53.32 0 0 1 1.491-1.474c1.284-1.209 3.113-2.879 5.493-4.217 1.19-.645 2.391-1.19 3.575-1.38 1.178-.207 2.309-.012 3.09.468.787.462 1.23 1.096 1.42 1.563.09.237.136.427.148.557.012.13.012.202 0 .202-.03 0-.053-.273-.26-.711-.213-.432-.657-1.007-1.42-1.421-.752-.42-1.812-.587-2.937-.373-1.13.195-2.302.734-3.474 1.373-2.338 1.315-4.173 2.944-5.493 4.104-.622.557-1.142 1.03-1.557 1.398-.367.331-.58.503-.598.491l.012-.005ZM115.883 83.281a2.794 2.794 0 0 1-2.699 2.89 2.794 2.794 0 0 1-2.889-2.7 2.794 2.794 0 0 1 2.699-2.89 2.794 2.794 0 0 1 2.889 2.7Z" fill="#022749"/><path d="M64.607 163.27c-.67.45-8.05 2.238-9.838 6.934-1.787 4.697-11.282 14.249-4.41 23.57l14.254-7.906V163.27h-.006Z" fill="#15A9F3"/><path d="M50.354 193.798v-.012c-1.255-1.694-2.042-3.512-2.332-5.407-.26-1.664-.16-3.375.301-5.235.847-3.381 2.77-6.538 4.315-9.073.918-1.51 1.717-2.812 2.12-3.873 1.461-3.843 6.664-5.744 8.884-6.555.491-.178.84-.308.965-.391l.023-.018v22.634h-.005l-14.266 7.918-.005.012Zm14.24-30.499c-.141.083-.484.208-.946.379-2.214.812-7.405 2.707-8.867 6.538-.408 1.066-1.201 2.369-2.119 3.879-1.545 2.535-3.463 5.685-4.309 9.061-.462 1.853-.562 3.559-.302 5.223.296 1.883 1.072 3.695 2.314 5.383l14.236-7.9v-22.563h-.006Z" fill="#022749"/><path d="m81.05 124.321 1.166-16.12 29.335-12.247 1.041 6.017-19.983 10.174-11.56 12.176Z" fill="#E0E0E0"/><path d="M112.593 98.424s-17.97 7.272-25.943 14.378c-7.5 6.686-23.085 33.022-24.754 40.205-1.669 7.183-1.343 27.058-1.343 27.058l-.042 20.999c0 .497-12.856 33.578-10.518 51.616h73.296s2.172-25.387-2.841-35.248c-5.008-9.854-5.174-7.852-5.174-7.852s3.007-3.34 2.67-6.349c-.331-3.008-2.172-5.513-2.172-5.513l12.856-40.092s1.338-20.212-2.172-33.744c-3.285-12.684-4.511-11.968-8.619-16.024-.088-.089.054.112 0 0l-3.734-3.068-1.516-6.378.006.012Z" fill="#15A9F3"/><path d="M64.607 220.98c-.23-.865 5.552-11.128 5.552-11.128l33.129 5.567 2.309 9.315-40.984-3.748-.006-.006Z" fill="#15A9F3"/><path d="M64.607 220.98s.077 0 .213.006l.61.041c.55.047 1.337.107 2.343.19 2.049.177 4.996.432 8.66.746l29.163 2.605-.159.19c-.563-2.256-1.149-4.625-1.741-7.035l-.562-2.28.124.112a446684.46 446684.46 0 0 1-33.117-5.614l.107-.053c-1.918 3.399-3.398 6.141-4.363 8.054-.48.953-.834 1.705-1.041 2.22a3.82 3.82 0 0 0-.208.599c-.035.136-.017.201-.03.213-.023.012-.029-.308.184-.829.196-.527.533-1.285.995-2.251.935-1.93 2.385-4.69 4.28-8.101l.035-.065.07.012c8.145 1.356 19.924 3.316 33.136 5.513l.1.018.024.101c.184.74.373 1.51.562 2.28.598 2.41 1.184 4.779 1.741 7.035l.053.207-.213-.018c-11.62-1.089-21.871-2.049-29.235-2.736a7656.57 7656.57 0 0 0-8.63-.835c-.994-.1-1.77-.177-2.314-.236-.249-.03-.45-.048-.592-.066-.13-.017-.201-.023-.195-.029v.006Z" fill="#022749"/><path d="m57.492 205.055.74 6.005c5.286 3.743 12.755 3.032 18.402-.13s9.844-8.356 13.72-13.544c11.744-15.722 21.978-32.701 28.957-51.047-18.207 21.87-43.434 36.995-61.82 58.716Z" fill="#000" opacity=".3"/><path d="M116.672 115.39c6.149 4.898 11.512 20.224 1.988 33.471 0 0-41.61 56.485-48.5 60.991-6.89 4.507-16.166 1.854-18.817-4.773-2.652-6.627-1.593-12.993 2.119-17.499 3.71-4.507 28.092-47.465 28.092-47.465s5.564-19.91 15.034-25.696" fill="#15A9F3"/><path d="M96.594 114.419s-.142.107-.426.302c-.29.184-.699.498-1.231.918-1.048.859-2.469 2.286-4.008 4.382-3.066 4.187-6.546 11.027-9.269 20.117v.012l-.012.012c-5.35 9.422-12.033 21.153-19.805 34.318-1.96 3.281-3.966 6.668-6.132 10.073-.563.841-1.078 1.712-1.705 2.535-.302.421-.61.829-.917 1.226-.308.403-.58.835-.847 1.273-.527.877-.947 1.818-1.308 2.783-.325.978-.586 1.99-.734 3.027a17.739 17.739 0 0 0 .267 6.289c.118.521.242 1.042.408 1.551.142.516.337 1.019.52 1.522.184.504.445.972.67 1.457l.438.675c.142.225.29.45.473.652a11.549 11.549 0 0 0 5.292 3.654c2.072.698 4.338.923 6.534.562a13.458 13.458 0 0 0 5.612-2.292c1.58-1.255 2.93-2.807 4.291-4.293 2.687-3.014 5.22-6.088 7.689-9.132 4.925-6.088 9.56-12.051 13.951-17.754a1968.245 1968.245 0 0 0 12.365-16.268 9642.15 9642.15 0 0 0 5.552-7.414c.888-1.19 1.758-2.357 2.605-3.5.84-1.149 1.716-2.239 2.415-3.399 1.545-2.233 2.551-4.643 3.309-6.959.159-.586.319-1.172.479-1.741.16-.574.213-1.155.326-1.723.242-1.131.254-2.25.349-3.322a27.509 27.509 0 0 0-1.847-10.826c-1.107-2.83-2.474-4.802-3.51-6.011-.266-.296-.479-.58-.698-.787-.219-.207-.409-.379-.563-.521-.302-.279-.45-.433-.45-.433s.16.131.468.409c.154.136.343.308.574.509.225.202.444.486.716.782 1.054 1.202 2.445 3.162 3.575 6.005a27.402 27.402 0 0 1 1.906 10.879c-.094 1.077-.1 2.209-.343 3.346-.106.568-.166 1.16-.32 1.735-.153.574-.313 1.16-.473 1.759-.758 2.333-1.764 4.767-3.309 7.023-.704 1.173-1.58 2.262-2.415 3.417l-2.598 3.506a6676.447 6676.447 0 0 1-5.541 7.42 1841.306 1841.306 0 0 1-12.34 16.286c-4.387 5.709-9.016 11.678-13.94 17.772-2.469 3.044-5.002 6.123-7.695 9.143a82.493 82.493 0 0 1-2.072 2.239c-.722.728-1.432 1.462-2.267 2.096a13.768 13.768 0 0 1-5.741 2.351c-2.25.367-4.564.142-6.683-.58a11.862 11.862 0 0 1-5.434-3.755 4.203 4.203 0 0 1-.49-.669l-.45-.693c-.232-.497-.504-.989-.693-1.498-.184-.515-.385-1.019-.527-1.546a15.71 15.71 0 0 1-.409-1.575 18.085 18.085 0 0 1-.266-6.402 16.95 16.95 0 0 1 .752-3.079c.367-.989.799-1.948 1.337-2.837.273-.444.551-.882.865-1.297.32-.408.627-.823.917-1.231.61-.8 1.137-1.676 1.693-2.511 2.16-3.4 4.173-6.781 6.138-10.056 7.79-13.153 14.49-24.866 19.87-34.277l-.011.024c2.758-9.108 6.274-15.948 9.376-20.129 1.562-2.084 3-3.511 4.06-4.358.539-.415.953-.723 1.249-.9.29-.19.444-.279.444-.279l-.006.006Z" fill="#022749"/><path d="M78.244 158.141s-1.071-2.807-3.208-3.174c-2.137-.373-6.28.024-6.28.024s-1.823 1.374-1.806 3.257c.018 1.883.385 3.204.385 3.204s-1.497-2.02-3.468-.107c-1.972 1.913-3.7 5.792-3.7 5.792s-2.622.841-3.622 2.114-1.587 3.334-1.587 3.334-2.148 1.309-1.811 4.098c.337 2.789 2.782 3.962 2.782 3.962s7.813 5.762 8.772 5.022c.959-.746 2.912-1.925.095-4.412-2.812-2.487-4.576-4.063-4.576-4.063l1.326-2.043s7.648 5.259 8.879 5.01c1.225-.254 3.315-.296 2.462-2.185-.858-1.889-8.014-7.396-8.014-7.396l.846-2.956s8.27 5.609 9.625 4.708c1.355-.894 2.563-1.314 1.19-3.162-1.374-1.848-7.352-6.26-7.352-6.26l2.45-2.285s5.771.983 6.618-2.476l-.006-.006Z" fill="#FFBF9D"/><path d="m114.108 104.802-.207.065c-.154.041-.355.095-.61.16-.532.142-1.32.349-2.332.633-2.018.575-4.936 1.434-8.417 2.825-.87.35-1.77.735-2.693 1.179-.462.219-.93.444-1.397.699-.23.124-.473.242-.704.384-.22.149-.456.279-.67.451-1.74 1.326-3.32 3.097-4.96 4.944-3.243 3.749-6.552 8.096-9.937 12.703a502.093 502.093 0 0 0-9.323 13.188 458.094 458.094 0 0 0-3.936 5.845c-1.22 1.842-2.32 3.571-3.143 5.253-1.663 3.358-2.646 6.242-3.297 8.238a93.926 93.926 0 0 0-.704 2.309c-.072.255-.13.45-.172.604-.042.137-.06.208-.065.202 0 0 .006-.071.035-.213.036-.154.083-.356.148-.61.136-.539.35-1.327.651-2.328.616-2.007 1.569-4.909 3.214-8.296.811-1.7 1.912-3.453 3.126-5.295a387.506 387.506 0 0 1 3.912-5.868 465.494 465.494 0 0 1 9.305-13.207c3.392-4.619 6.712-8.96 9.974-12.708 1.651-1.854 3.237-3.619 5.025-4.969.219-.171.468-.308.698-.462.237-.142.48-.254.717-.385.467-.254.94-.479 1.408-.698.93-.439 1.841-.824 2.711-1.167a77.093 77.093 0 0 1 8.465-2.736c1.012-.272 1.811-.456 2.349-.58.261-.054.462-.101.616-.131.136-.029.213-.035.213-.035v.006ZM109.456 206.027s-.337-.166-.917-.516a41.565 41.565 0 0 1-2.398-1.575 56.512 56.512 0 0 1-7.245-6.082c-2.622-2.611-4.723-5.235-6.12-7.219a41.702 41.702 0 0 1-1.586-2.386c-.355-.581-.539-.9-.521-.912.018-.012.237.29.621.847.38.556.947 1.356 1.664 2.327a65.344 65.344 0 0 0 6.156 7.124 64.271 64.271 0 0 0 7.156 6.123c.97.717 1.769 1.28 2.332 1.653.556.379.864.598.852.616h.006Z" fill="#022749"/><path d="m65.673 221.074 1 3.654 37.515-.13-38.515-3.524Z" fill="#000" opacity=".3"/><path d="M154.788 136.895v9.511l2.958-10.692" fill="#fff"/><path d="m166.487 132.001-10.821.139a.048.048 0 0 0-.028.006.064.064 0 0 0-.024.02l-.809.935a.037.037 0 0 0-.005.011.024.024 0 0 0 0 .012.088.088 0 0 0 .006.01c.003.002.006.003.009.002l6.38-.129c.011-.003.021.001.03.009a.055.055 0 0 1 .016.036.061.061 0 0 1-.007.04c-.006.012-.015.02-.026.022l-8.329 2.222c-.003.001-.006.002-.008.005l-2.852 3.302a.113.113 0 0 0-.007.115.07.07 0 0 0 .036.036.054.054 0 0 0 .046-.004l16.419-6.616a.078.078 0 0 0 .038-.04.121.121 0 0 0 .008-.063.095.095 0 0 0-.026-.054.052.052 0 0 0-.046-.016Z" fill="#fff"/><path d="M154.802 133.12v1.703l7.054-1.885-7.054.182Z" fill="#fff"/><path d="M100.788 136.895v9.511l2.958-10.692" fill="#022749"/><path d="m112.487 132.001-10.821.139a.048.048 0 0 0-.028.006.064.064 0 0 0-.024.02l-.809.935a.037.037 0 0 0-.005.011.024.024 0 0 0 0 .012.088.088 0 0 0 .006.01c.003.002.006.003.009.002l6.38-.129c.011-.003.021.001.03.009a.055.055 0 0 1 .016.036.061.061 0 0 1-.007.04c-.006.012-.015.02-.026.022l-8.33 2.222c-.002.001-.005.002-.007.005l-2.852 3.302a.119.119 0 0 0-.008.115c.01.017.022.03.037.036.015.006.031.004.046-.004l16.419-6.616a.078.078 0 0 0 .038-.04.121.121 0 0 0 .008-.063.095.095 0 0 0-.026-.054.052.052 0 0 0-.046-.016Z" fill="#022749"/><path d="M100.802 133.12v1.703l7.054-1.885-7.054.182Z" fill="#022749"/></g><defs><clipPath id="a"><path fill="#fff" d="M0 0h255v253H0z"/></clipPath></defs></svg>