<svg width="281" height="288" fill="none" xmlns="http://www.w3.org/2000/svg"><g clip-path="url(#a)"><path d="M254.013 186.234s-3.995-2.453-8.453 7.051c-4.459 9.503-6.087 14.959-6.087 14.959s-1.196 2.002-2.586.763c-1.39-1.233-3.356-4.805-5.623-4.079-2.348.757-3.043 3.428-2.46 7.301.582 3.873 1.546 12.406 1.628 13.182.081.757-.314 1.89-1.397 1.201-1.083-.688-7.388-7.257-10.325-4.079-2.937 3.179.457 13.702.808 14.859.35 1.158.137 1.664-.407 1.971-.545.306-2.455-2.096-4.327-3.892-1.872-1.795-4.352-3.547-5.892-1.57-1.541 1.977-1.791 9.967 6.23 22.667l4.101 5.643 6.982-.619c14.865-2.234 20.757-7.652 21.239-10.104.482-2.453-2.461-3.191-5.047-3.429-2.586-.237-5.654-.112-5.779-.725-.125-.614.119-1.108 1.227-1.596 1.102-.494 11.296-4.811 11.785-9.109.482-4.298-8.61-4.774-9.837-5.143-1.228-.369-.633-1.408 0-1.839.638-.444 7.733-5.293 11.045-7.389 3.312-2.096 4.884-4.367 3.92-6.638-.927-2.19-4.916-1.345-6.763-1.583-1.841-.244-1.108-2.452-1.108-2.452s3.062-4.793 7.351-14.378c4.283-9.584-.307-11.017-.307-11.017" fill="#EBEBEB"/><path d="M218.146 263.5c3.175-7.026 9.03-19.42 13.995-30.087 4.965-10.661 9.455-20.321 12.667-27.334 1.597-3.504 2.893-6.338 3.795-8.309.444-.976.795-1.733 1.033-2.258.119-.25.206-.444.275-.582.063-.131.101-.194.101-.194s-.025.069-.082.207c-.062.144-.144.337-.257.594-.231.526-.563 1.295-.995 2.277a755.727 755.727 0 0 1-3.732 8.334c-3.175 7.026-7.639 16.698-12.611 27.359-4.972 10.667-10.845 23.048-14.051 30.062" fill="#E0E0E0"/><path d="M233.813 210.033s.081.163.194.469c.113.307.257.751.438 1.302.351 1.101.802 2.64 1.265 4.348l1.171 4.367c.144.525.263.963.363 1.32.088.313.132.488.113.494-.013 0-.081-.163-.194-.463a34.05 34.05 0 0 1-.432-1.301c-.345-1.108-.77-2.653-1.234-4.355-.463-1.676-.883-3.197-1.202-4.36-.144-.526-.269-.964-.369-1.32-.088-.313-.126-.488-.113-.495v-.006ZM238.002 222.433c-.019-.056 3.112-1.12 6.994-2.377 3.882-1.258 7.044-2.228 7.063-2.171.019.056-3.112 1.12-6.994 2.377-3.882 1.258-7.044 2.227-7.057 2.171h-.006ZM229.637 238.468s.181-.031.513-.037c.376-.013.845-.025 1.403-.044 1.183-.038 2.811-.094 4.615-.225 1.797-.125 3.425-.294 4.596-.426.551-.062 1.02-.112 1.39-.156.331-.038.513-.05.513-.031 0 .012-.175.056-.501.118-.325.063-.795.138-1.384.226a64.85 64.85 0 0 1-9.229.657c-.595 0-1.071-.013-1.403-.025-.332-.013-.513-.032-.513-.044v-.013ZM223.374 228.083s.113.125.288.381l.714 1.083a278.973 278.973 0 0 1 4.502 7.257c.257.438.476.813.652 1.12.15.269.225.419.212.425-.012.007-.112-.125-.288-.381l-.713-1.083a288.85 288.85 0 0 1-2.28-3.61 215.414 215.414 0 0 1-2.223-3.647c-.256-.438-.475-.813-.651-1.12-.15-.269-.225-.419-.213-.425ZM214.19 241.302s.137.169.363.488c.238.363.544.826.914 1.383a498.331 498.331 0 0 1 5.861 9.247c.344.576.632 1.051.858 1.42.2.338.3.526.288.538-.013.006-.138-.169-.364-.488-.238-.363-.544-.826-.914-1.382a498.331 498.331 0 0 1-2.955-4.605 405.443 405.443 0 0 1-2.906-4.636c-.344-.576-.632-1.051-.857-1.42-.201-.338-.301-.526-.288-.538v-.007ZM222.366 254.009s.232-.037.651-.069c.458-.031 1.052-.069 1.772-.119 1.497-.1 3.563-.244 5.842-.469 2.28-.225 4.333-.475 5.824-.675.714-.094 1.308-.169 1.759-.232.42-.05.645-.075.651-.063 0 .013-.225.063-.638.144-.414.082-1.015.182-1.753.301-1.484.231-3.545.513-5.824.738a99.95 99.95 0 0 1-5.854.407c-.752.031-1.359.043-1.779.05-.419 0-.651 0-.651-.019v.006ZM47.694 139.699c1.033-.432 1.772-1.502 1.779-2.753.006-1.645-1.24-2.984-2.787-2.991-1.546-.006-2.799 1.321-2.805 2.966 0 1.27.733 2.346 1.785 2.784-4.302.651-4.108 5.318-4.108 5.318l10.175.044s.232-4.724-4.032-5.368h-.007Z" fill="#E0E0E0"/><path d="M60.944 140.093s-.013-.075-.025-.225c-.013-.169-.031-.388-.05-.664-.013-.15-.019-.312-.032-.488-.018-.181-.062-.375-.093-.581-.07-.426-.132-.914-.301-1.446-.25-1.082-.764-2.358-1.565-3.71a13.877 13.877 0 0 0-3.557-3.941c-1.578-1.183-3.569-2.184-5.86-2.59-2.28-.388-4.853-.319-7.302.613-.626.2-1.208.507-1.81.794-.57.345-1.17.664-1.702 1.095-.564.388-1.059.87-1.578 1.339-.47.519-.958 1.02-1.36 1.608-.826 1.145-1.546 2.421-1.984 3.823a14.84 14.84 0 0 0-.714 4.379c.019 1.508.263 2.984.714 4.38.438 1.401 1.158 2.677 1.985 3.822.4.588.895 1.095 1.359 1.608.52.469 1.008.951 1.578 1.339.532.432 1.133.751 1.703 1.095.6.288 1.19.594 1.81.794 2.448.933 5.021 1.001 7.3.614 2.298-.407 4.283-1.408 5.861-2.591a13.93 13.93 0 0 0 3.55-3.941c.802-1.351 1.31-2.628 1.566-3.71.163-.532.232-1.02.3-1.445.032-.213.075-.407.094-.582.013-.182.025-.344.032-.488.018-.282.037-.501.05-.663.012-.151.025-.226.025-.226s.006.075 0 .226c0 .169-.013.388-.02.669 0 .15-.012.313-.018.494-.012.182-.05.376-.075.588-.056.426-.113.92-.27 1.464-.23 1.095-.732 2.39-1.527 3.773a14.081 14.081 0 0 1-3.57 4.035c-1.596 1.214-3.612 2.246-5.948 2.672-2.323.413-4.946.344-7.45-.594-.64-.201-1.24-.514-1.854-.808-.583-.35-1.203-.675-1.741-1.113-.576-.394-1.083-.889-1.616-1.364-.482-.526-.983-1.045-1.396-1.646-.845-1.169-1.584-2.477-2.035-3.91a15.112 15.112 0 0 1-.733-4.479c.02-1.539.27-3.053.733-4.48.451-1.433 1.19-2.74 2.035-3.91.413-.601.914-1.114 1.396-1.646.527-.475 1.034-.969 1.616-1.363.545-.438 1.158-.764 1.74-1.114.614-.294 1.215-.607 1.854-.807 2.505-.945 5.135-1.007 7.451-.595 2.336.426 4.358 1.458 5.949 2.672a14.003 14.003 0 0 1 3.569 4.035c.795 1.377 1.296 2.678 1.528 3.773.156.538.213 1.032.269 1.464.025.213.063.407.075.588 0 .181.013.344.019.494.006.282.012.501.019.67v.225l.006-.025ZM87.537 126.642c.025.087-6.149 1.908-13.788 4.073-7.645 2.164-13.857 3.847-13.882 3.76-.025-.088 6.15-1.909 13.795-4.073 7.639-2.165 13.856-3.848 13.881-3.76h-.006Z" fill="#E0E0E0"/><path d="M203.926 179.277c1.441-.601 2.461-2.084 2.474-3.836.006-2.289-1.722-4.154-3.87-4.16-2.148-.013-3.895 1.839-3.907 4.129-.006 1.764 1.02 3.266 2.479 3.867-5.986.901-5.716 7.401-5.716 7.401l14.151.062s.325-6.569-5.611-7.463Z" fill="#EBEBEB"/><path d="M222.36 179.821s-.019-.106-.031-.313c-.013-.219-.038-.532-.063-.926-.012-.206-.025-.432-.044-.682-.025-.25-.081-.519-.125-.813-.094-.588-.181-1.27-.407-2.015-.344-1.507-1.052-3.284-2.166-5.174a19.378 19.378 0 0 0-4.947-5.505c-2.198-1.652-4.972-3.053-8.171-3.617-.802-.112-1.616-.275-2.455-.281-.419-.013-.839-.056-1.265-.05-.425.025-.851.044-1.283.069-.213.012-.432.012-.645.044l-.645.1c-.432.068-.871.125-1.303.212-.857.232-1.74.407-2.586.757-.87.276-1.69.707-2.529 1.114-.407.219-.802.482-1.209.719-.413.232-.789.52-1.171.808-.789.538-1.477 1.213-2.197 1.87-.652.72-1.34 1.427-1.898 2.246-1.152 1.602-2.16 3.379-2.767 5.337a20.755 20.755 0 0 0-1.002 6.106c.025 2.102.369 4.167.995 6.113.608 1.958 1.616 3.735 2.768 5.336.564.82 1.246 1.527 1.897 2.246.72.651 1.409 1.327 2.198 1.871.382.288.758.576 1.171.807.407.238.795.501 1.208.72.84.4 1.66.832 2.53 1.113.845.351 1.728.526 2.586.757.432.088.871.138 1.303.213l.645.1c.212.031.432.025.644.044.433.025.858.044 1.284.069.426.006.845-.032 1.265-.05.839 0 1.653-.169 2.454-.282 3.2-.569 5.974-1.971 8.172-3.616a19.362 19.362 0 0 0 4.946-5.506c1.115-1.883 1.823-3.666 2.167-5.174.225-.744.313-1.426.407-2.014.044-.294.1-.563.125-.814.013-.25.031-.475.044-.682.025-.394.05-.707.063-.925.018-.207.031-.313.031-.313v.319c-.006.225-.019.532-.031.932-.007.206-.019.432-.025.688-.019.25-.069.526-.113.82-.082.594-.163 1.282-.382 2.027-.332 1.52-1.027 3.322-2.135 5.236a19.527 19.527 0 0 1-4.966 5.594c-2.216 1.683-5.015 3.115-8.259 3.703-.814.119-1.634.288-2.486.294-.425.019-.851.057-1.283.05-.432-.018-.864-.043-1.303-.062-.219-.013-.438-.013-.657-.044l-.658-.1c-.438-.069-.882-.119-1.327-.213-.87-.231-1.772-.406-2.63-.763-.883-.282-1.715-.713-2.573-1.126-.414-.225-.814-.488-1.228-.732-.419-.232-.801-.526-1.189-.82-.802-.55-1.503-1.232-2.236-1.895-.663-.732-1.358-1.452-1.934-2.278-1.178-1.626-2.198-3.434-2.818-5.424a20.85 20.85 0 0 1-1.015-6.213 20.854 20.854 0 0 1 1.021-6.212c.62-1.99 1.647-3.798 2.818-5.418.57-.832 1.271-1.546 1.935-2.278.732-.663 1.434-1.345 2.235-1.895.388-.294.77-.582 1.19-.814.413-.244.814-.506 1.227-.732.852-.406 1.684-.844 2.567-1.126.858-.356 1.76-.531 2.63-.763.438-.088.889-.144 1.327-.213l.658-.1c.219-.031.438-.025.657-.044.439-.018.871-.043 1.303-.062.432 0 .858.037 1.283.05.852.006 1.672.175 2.486.294 3.244.588 6.049 2.021 8.259 3.698a19.511 19.511 0 0 1 4.966 5.593c1.108 1.914 1.803 3.716 2.135 5.236.219.751.3 1.439.382 2.027.037.294.087.57.113.82.012.25.018.482.025.688.012.401.025.707.031.932v.319l.006-.012Z" fill="#EBEBEB"/><path d="M192.086 163.385c-.076.05-2.53-3.391-5.486-7.689-2.955-4.298-5.291-7.82-5.215-7.87.075-.05 2.529 3.391 5.485 7.689 2.955 4.298 5.291 7.82 5.216 7.87ZM237.759 39.64c1.033-.431 1.772-1.501 1.778-2.752.006-1.646-1.24-2.985-2.786-2.99-1.547-.007-2.799 1.32-2.806 2.965 0 1.27.733 2.346 1.785 2.784-4.302.65-4.108 5.318-4.108 5.318l10.175.043s.232-4.723-4.032-5.368h-.006Z" fill="#E0E0E0"/><path d="M251.014 40.035s-.012-.075-.025-.226c-.012-.169-.031-.387-.05-.663-.012-.15-.019-.313-.031-.488-.019-.181-.063-.375-.094-.582-.069-.425-.132-.913-.301-1.445-.25-1.082-.764-2.358-1.565-3.71a13.868 13.868 0 0 0-3.557-3.941c-1.578-1.183-3.569-2.184-5.86-2.59-2.28-.389-4.853-.32-7.301.613-.627.2-1.209.506-1.81.794-.57.344-1.171.663-1.703 1.095-.564.388-1.058.87-1.578 1.339-.47.52-.958 1.02-1.359 1.608-.826 1.145-1.546 2.42-1.985 3.822a14.848 14.848 0 0 0-.714 4.38c.019 1.508.263 2.984.714 4.38.439 1.4 1.159 2.677 1.985 3.822.401.588.896 1.095 1.359 1.608.52.47 1.008.95 1.578 1.339.532.431 1.133.75 1.703 1.095.601.287 1.19.594 1.81.794 2.448.932 5.021 1.001 7.301.613 2.298-.406 4.282-1.407 5.86-2.59a13.923 13.923 0 0 0 3.551-3.941c.801-1.352 1.308-2.628 1.565-3.71.163-.532.232-1.02.301-1.446.031-.212.075-.406.094-.582.012-.18.025-.344.031-.488.019-.281.037-.5.05-.663.012-.15.025-.225.025-.225s.006.075 0 .225c0 .17-.013.388-.019.67 0 .15-.012.313-.019.494-.012.181-.05.375-.075.588-.056.425-.112.92-.269 1.464-.232 1.095-.733 2.39-1.528 3.773a14.071 14.071 0 0 1-3.569 4.035c-1.597 1.214-3.613 2.246-5.948 2.672-2.323.406-4.947.344-7.452-.595-.638-.2-1.239-.513-1.853-.807-.582-.35-1.202-.676-1.741-1.114-.576-.394-1.083-.888-1.615-1.363-.482-.526-.983-1.045-1.397-1.646-.845-1.17-1.584-2.477-2.035-3.91a15.133 15.133 0 0 1-.732-4.48c.019-1.539.269-3.053.732-4.48.451-1.432 1.19-2.74 2.035-3.91.414-.6.915-1.113 1.397-1.645.526-.475 1.033-.97 1.615-1.364.545-.438 1.159-.763 1.741-1.113.614-.294 1.215-.607 1.853-.808 2.505-.944 5.135-1.007 7.452-.594 2.335.426 4.358 1.458 5.948 2.672a13.99 13.99 0 0 1 3.569 4.035c.795 1.376 1.296 2.678 1.528 3.773.157.538.213 1.032.269 1.464.025.212.063.406.075.588 0 .181.013.344.019.494.006.282.013.5.019.67v.225l.006-.025Z" fill="#E0E0E0"/><path d="M226.988 49.632c.057.069-13.049 10.855-29.266 24.087-16.224 13.239-29.423 23.906-29.48 23.837-.056-.07 13.049-10.855 29.273-24.087 16.218-13.232 29.417-23.906 29.473-23.837Z" fill="#E0E0E0"/><path d="M98.651 25.294c1.44-.6 2.461-2.083 2.473-3.835.007-2.29-1.722-4.154-3.87-4.16-2.147-.013-3.894 1.84-3.907 4.13-.006 1.763 1.021 3.265 2.48 3.866-5.986.9-5.717 7.4-5.717 7.4l14.151.063s.326-6.569-5.61-7.464Z" fill="#EBEBEB"/><path d="M117.092 25.845s-.019-.106-.032-.313c-.012-.219-.037-.532-.062-.926-.013-.206-.025-.431-.044-.682-.025-.25-.082-.519-.125-.813-.094-.588-.182-1.27-.407-2.015-.345-1.507-1.052-3.284-2.167-5.174a19.37 19.37 0 0 0-4.947-5.505c-2.197-1.652-4.971-3.053-8.171-3.616-.801-.113-1.615-.276-2.454-.282-.42-.012-.84-.056-1.265-.05-.426.025-.852.044-1.284.069-.213.012-.432.012-.645.044l-.645.1c-.432.069-.87.125-1.302.213-.858.231-1.74.406-2.586.757-.87.275-1.69.707-2.53 1.113-.407.22-.801.482-1.208.72-.414.231-.79.519-1.171.807-.79.538-1.478 1.213-2.198 1.87-.651.72-1.34 1.427-1.897 2.246-1.152 1.602-2.16 3.379-2.768 5.337a20.786 20.786 0 0 0-1.002 6.106c.025 2.102.37 4.167.996 6.113.607 1.958 1.615 3.735 2.767 5.337.564.82 1.247 1.526 1.898 2.246.72.65 1.409 1.326 2.197 1.87.382.288.758.576 1.171.807.407.238.796.5 1.209.72.839.4 1.66.832 2.53 1.113.845.35 1.728.526 2.586.758.432.087.87.137 1.302.212l.645.1c.213.032.432.025.645.044.432.025.858.044 1.284.069.425.006.845-.031 1.264-.05.84 0 1.653-.17 2.455-.282 3.2-.569 5.973-1.97 8.171-3.616a19.384 19.384 0 0 0 4.947-5.506c1.114-1.883 1.822-3.666 2.166-5.174.226-.744.313-1.426.407-2.014.044-.294.101-.563.126-.813.012-.25.031-.476.043-.682.025-.395.051-.707.063-.926.019-.207.031-.313.031-.313v.319c-.006.225-.018.532-.031.932-.006.207-.019.432-.025.688-.019.25-.069.526-.113.82-.081.594-.163 1.282-.382 2.027-.332 1.52-1.027 3.322-2.135 5.237a19.515 19.515 0 0 1-4.965 5.593c-2.217 1.683-5.016 3.116-8.259 3.697-.814.12-1.635.288-2.486.294-.426.02-.852.057-1.284.05-.432-.018-.864-.043-1.302-.062-.22-.013-.438-.013-.658-.044l-.657-.1c-.438-.069-.883-.125-1.328-.213-.87-.231-1.771-.406-2.63-.763-.882-.282-1.715-.713-2.573-1.126-.413-.225-.814-.488-1.227-.732-.42-.232-.802-.526-1.19-.82-.801-.55-1.503-1.232-2.235-1.895-.664-.732-1.359-1.452-1.935-2.278-1.177-1.626-2.198-3.434-2.818-5.424a20.851 20.851 0 0 1-1.014-6.213 20.858 20.858 0 0 1 1.02-6.212c.62-1.99 1.647-3.798 2.818-5.418.57-.832 1.271-1.546 1.935-2.278.733-.663 1.434-1.345 2.235-1.895.389-.294.77-.582 1.19-.814.413-.244.814-.506 1.227-.732.852-.406 1.685-.844 2.568-1.126.858-.356 1.76-.532 2.63-.763.438-.088.889-.138 1.327-.213l.657-.1c.22-.031.439-.025.658-.044.438-.018.87-.043 1.302-.062.432 0 .858.037 1.284.05.852.006 1.672.175 2.486.294 3.243.588 6.048 2.02 8.259 3.697a19.515 19.515 0 0 1 4.965 5.594c1.108 1.914 1.803 3.716 2.135 5.236.219.751.301 1.44.382 2.027.038.294.088.57.113.82.013.25.019.482.025.688.013.4.025.707.031.932v.32l.007-.007Z" fill="#EBEBEB"/><path d="M113.998 80.707c-.087.025-2.498-8.102-5.385-18.15-2.886-10.047-5.159-18.218-5.071-18.243.087-.025 2.498 8.102 5.384 18.15 2.887 10.047 5.16 18.212 5.072 18.237v.006Z" fill="#E0E0E0"/><path d="M281 263.525c0 .088-62.91.163-140.496.163-77.587 0-140.51-.075-140.51-.163 0-.088 62.898-.163 140.51-.163s140.496.075 140.496.163ZM176.244 47.642s.069.132.05.388c-.012.257-.075.638-.181 1.114-.213.95-.614 2.309-1.152 3.966-1.084 3.316-2.73 7.833-4.628 12.795a643.496 643.496 0 0 1-4.996 12.656c-.658 1.577-1.19 2.872-1.578 3.81l-.445 1.027c-.106.231-.169.356-.175.35-.013 0 .031-.132.119-.376.1-.275.231-.619.388-1.05.363-.945.87-2.253 1.484-3.848 1.271-3.279 2.999-7.752 4.909-12.688 1.897-4.962 3.582-9.466 4.715-12.75.57-1.646.996-2.985 1.246-3.923.125-.47.207-.839.238-1.089.038-.25 0-.382.019-.388l-.013.006Z" fill="#022749"/><path d="M205.055 35.943c5.578-13.061-.497-28.168-13.569-33.742-13.073-5.574-28.192.496-33.771 13.557-5.578 13.062.497 28.17 13.569 33.743 13.073 5.574 28.192-.496 33.771-13.558Z" fill="#fff"/><path d="M198.235 36.744c.313-2.084 1.403-3.992 1.728-6.075.351-2.221-.194-4.48-.789-6.65-1.114-4.055-2.492-8.19-5.303-11.319-2.812-3.128-7.395-5.017-11.34-3.54l-4.151 3.603c-2.893.745-4.678 3.623-5.755 6.406-1.077 2.785-1.815 5.825-3.838 8.015-1.271 1.383-3.106 2.54-3.319 4.404-.2 1.783 1.203 3.704.326 5.275-.67 1.195-2.354 1.476-3.106 2.627-.839 1.29.495 4.524.495 4.524s10.82 12.325 28.596 5.349c3.72-1.464 5.636-3.19 8.36-5.969-1.547-1.814-2.261-4.304-1.904-6.657v.007Z" fill="#022749"/><path d="m166.596 47.136 8.503-2.465 13.994-.72 8.548 2.008s-6.462 5.838-17.038 5.587c-8.184-.194-14.007-4.404-14.007-4.404M172.394 11.005c2.692-2.922 5.071-3.579 7.833-3.829 4.189-.375 8.735.688 11.897 3.454 2.905 2.54 4.314 6.469 4.489 10.323.063 1.357-.444 2.621-.92 3.891-.476 1.276-2.092 2.816-3.344 3.354-1.252.538-1.722.093-2.667-.883-.576-.6-.871-1.407-1.159-2.19-1.208-3.303-2.63-6.587-4.896-9.284-2.267-2.696-5.485-4.748-9.004-4.917" fill="#15A9F3"/><path d="M170.171 18.363c-.507-2.616.351-5.456 2.223-7.358 1.409-1.426 3.312-2.302 5.26-2.778 2.623-.644 5.485-.594 7.914.576 2.43 1.17 4.333 3.59 4.471 6.281.063 1.22-.225 2.478.106 3.66.144.513.401 1.045.232 1.552-.156.463-.651.744-1.14.776-.488.03-.964-.144-1.402-.357-1.49-.726-2.699-1.92-3.876-3.09" fill="#022749"/><path d="m188.668 15.553-11.653-3.597c-3.763-.6-6.518 3.923-6.957 7.702-.488 4.198-.914 9.347-.582 12.512.67 6.376 5.479 7.433 5.479 7.433 0-.013-.013 1.489-.038 3.253-.068 4.58 4.252 8.108 8.673 6.895.1-.025.194-.056.294-.082a7.027 7.027 0 0 0 4.978-6.256l1.678-25.495a2.232 2.232 0 0 0-1.872-2.358v-.007Z" fill="#FFBE9D"/><path d="M171.586 24.125c-.038.425.294.813.739.857.444.05.839-.263.876-.688.038-.426-.294-.814-.738-.858-.445-.05-.84.263-.877.689ZM171.041 22.392c.094.112.733-.313 1.609-.263.871.037 1.491.52 1.591.413.05-.044-.044-.244-.313-.457-.263-.219-.72-.438-1.265-.463-.545-.025-1.014.15-1.284.344-.281.194-.382.375-.331.426h-.007ZM179.97 24.6c-.038.425.294.813.739.857.444.05.839-.263.876-.688.038-.425-.294-.813-.739-.857-.444-.05-.839.263-.876.688ZM179.613 23.005c.094.112.733-.313 1.609-.263.871.037 1.491.52 1.591.413.05-.044-.044-.244-.313-.457-.263-.219-.72-.438-1.265-.463-.545-.025-1.014.15-1.284.344-.275.194-.382.376-.332.426h-.006ZM176.107 29.305c.006-.05-.532-.17-1.402-.332-.22-.037-.433-.087-.458-.244-.043-.162.063-.4.182-.65.238-.526.488-1.083.745-1.665 1.04-2.365 1.81-4.317 1.716-4.36-.094-.044-1.021 1.845-2.06 4.21-.251.582-.495 1.139-.72 1.67-.101.251-.257.526-.163.87.05.17.206.3.351.345.137.05.263.062.375.075.883.093 1.434.125 1.44.075l-.006.006Z" fill="#022749"/><path d="M174.961 39.597s4.239.494 8.591-1.815c0 0-2.305 4.392-8.604 3.473l.019-1.658h-.006ZM176.364 31.432c.338-.4.895-.594 1.44-.507.375.063.751.263.964.582.213.32.238.763.012 1.045-.25.319-.751.37-1.158.231-.413-.137-.751-.431-1.083-.725-.088-.082-.182-.163-.238-.27-.056-.106-.056-.243.019-.325" fill="#EB996E"/><path d="M178.643 30.043c-.144-.019-.194.932-1.04 1.558-.845.632-1.847.476-1.866.607-.018.056.213.194.639.231a2.375 2.375 0 0 0 1.553-.45c.513-.388.758-.926.808-1.314.056-.394-.038-.632-.101-.632h.007ZM179.607 20.358c.075.244.951.175 1.966.35 1.02.157 1.828.501 1.978.295.069-.1-.068-.332-.388-.576-.319-.244-.833-.494-1.446-.594-.614-.1-1.177-.031-1.559.1-.382.131-.583.306-.551.425ZM171.492 18.594c.144.206.757.031 1.477.063.727 0 1.328.2 1.478 0 .069-.1-.019-.3-.275-.501-.257-.2-.689-.375-1.184-.388-.494-.012-.939.144-1.202.338-.269.188-.363.388-.301.488h.007Z" fill="#022749"/><path d="M188.192 28.404c.025-.47.626-1.552 1.096-1.602 1.252-.131 3.487.088 3.343 3.241-.2 4.31-4.489 3.222-4.489 3.097 0-.094-.038-3.116.05-4.742v.006Z" fill="#FFBE9D"/><path d="M189.538 31.576s.075.056.194.119a.75.75 0 0 0 .564.037c.463-.143.882-.85.939-1.626a2.428 2.428 0 0 0-.163-1.083c-.119-.319-.313-.55-.538-.6a.38.38 0 0 0-.451.187c-.063.12-.038.207-.063.213-.012.013-.088-.075-.044-.25a.49.49 0 0 1 .182-.263.585.585 0 0 1 .419-.094c.332.038.62.357.752.707.156.35.238.776.206 1.214-.068.87-.551 1.658-1.183 1.814a.822.822 0 0 1-.683-.144c-.131-.112-.144-.212-.131-.218v-.013Z" fill="#EB996E"/><path d="M176.464 11.174c.219 2.102 1.697 4.023 3.669 4.78 1.052.406 2.348.588 2.924 1.558.589.994.107 2.34.645 3.36.745 1.413 3.062 1.513 3.588 3.021.232.657.031 1.414.276 2.065.325.87 1.402 1.307 2.31 1.088.908-.219 1.616-.957 2.016-1.795.401-.839.539-1.777.658-2.697.225-1.814.369-3.678-.063-5.455-.901-3.73-5.829-9.147-9.668-9.147" fill="#022749"/><path d="M207.114 25.845s-.019-.144-.038-.42c-.019-.287-.044-.694-.075-1.22-.019-.268-.031-.568-.056-.9-.038-.332-.107-.688-.163-1.076-.063-.388-.125-.807-.2-1.251-.057-.45-.22-.908-.338-1.402-.451-1.983-1.384-4.335-2.85-6.82a25.518 25.518 0 0 0-6.518-7.263c-.363-.269-.732-.544-1.108-.826-.388-.256-.802-.488-1.202-.738-.414-.238-.808-.52-1.246-.72l-1.328-.638-.676-.319-.708-.256c-.475-.175-.958-.35-1.44-.526-.488-.162-1.002-.263-1.509-.4-.513-.119-1.014-.294-1.546-.35-1.059-.15-2.129-.37-3.238-.376-.551-.019-1.108-.075-1.665-.062-.557.03-1.127.056-1.691.087-.282.019-.57.019-.858.056l-.851.132c-.57.094-1.146.162-1.722.281-1.127.307-2.298.538-3.413 1.001-1.146.37-2.229.933-3.337 1.464-.539.294-1.058.632-1.591.951-.263.17-.538.313-.789.5l-.751.564c-1.039.713-1.947 1.608-2.899 2.465l-1.302 1.433-.326.356-.294.388-.583.782-.588.788-.514.839-.513.845-.257.425-.219.444c-.288.6-.576 1.201-.87 1.802-.232.626-.464 1.257-.695 1.89a27.335 27.335 0 0 0-1.322 8.064c.038 2.771.483 5.5 1.315 8.064l.695 1.896c.288.6.583 1.201.871 1.802l.219.444.257.425.513.845.514.839.588.788.589.782.294.388.326.356 1.302 1.433c.952.857 1.86 1.752 2.899 2.465l.751.563c.251.188.526.332.789.5.533.32 1.052.657 1.591.952 1.108.531 2.191 1.1 3.337 1.464 1.115.463 2.286.694 3.413 1 .57.12 1.152.188 1.722.282l.851.131c.282.038.57.038.858.057.57.031 1.134.056 1.691.087.557.007 1.114-.043 1.665-.062 1.109 0 2.179-.225 3.238-.376.532-.056 1.039-.237 1.546-.35.507-.137 1.021-.244 1.509-.406.482-.176.965-.35 1.44-.526.238-.088.476-.175.708-.257l.676-.319c.451-.212.889-.425 1.328-.638.444-.2.832-.488 1.246-.72.407-.25.814-.481 1.202-.738.376-.275.745-.55 1.108-.825a25.519 25.519 0 0 0 6.518-7.264c1.466-2.49 2.399-4.836 2.85-6.82.112-.494.281-.95.338-1.4.069-.445.137-.864.2-1.252.056-.388.125-.745.163-1.076.019-.332.037-.632.056-.901.031-.526.063-.932.075-1.22.019-.275.038-.42.038-.42v.42c-.013.288-.025.694-.044 1.226l-.038.9c-.031.332-.093.69-.15 1.083-.056.388-.119.814-.181 1.258-.051.45-.213.913-.326 1.414-.438 2.002-1.353 4.367-2.818 6.882a25.58 25.58 0 0 1-6.537 7.351c-.369.275-.739.557-1.114.838-.395.257-.802.495-1.215.751-.42.238-.814.526-1.259.732-.444.213-.889.432-1.34.65-.225.107-.45.22-.682.326l-.714.263c-.482.175-.964.356-1.453.532-.494.162-1.008.269-1.521.413-.52.118-1.027.3-1.566.356-1.07.157-2.147.376-3.268.388-.557.019-1.121.075-1.684.069-.564-.025-1.14-.056-1.71-.081-.288-.02-.576-.02-.864-.057l-.864-.131c-.576-.094-1.165-.163-1.741-.282-1.146-.306-2.329-.538-3.456-1.007-1.165-.369-2.254-.938-3.381-1.476-.545-.294-1.071-.639-1.616-.958-.263-.169-.551-.312-.801-.506l-.764-.57c-1.052-.72-1.973-1.62-2.943-2.49l-1.315-1.445-.332-.363-.301-.394-.594-.795-.595-.794-.52-.851-.52-.857-.263-.432-.219-.45c-.294-.607-.588-1.214-.883-1.827-.231-.638-.469-1.276-.701-1.915a27.455 27.455 0 0 1-1.334-8.164 27.62 27.62 0 0 1 1.34-8.165c.238-.638.47-1.282.702-1.914.294-.613.588-1.22.882-1.827l.22-.45.263-.432.519-.857.52-.851.595-.795.595-.794.3-.394.332-.363 1.315-1.446c.964-.87 1.885-1.77 2.937-2.49l.764-.569c.25-.188.538-.338.801-.507.539-.319 1.065-.663 1.616-.957 1.12-.538 2.216-1.107 3.381-1.476 1.127-.47 2.31-.701 3.456-1.008.583-.119 1.165-.187 1.741-.281l.864-.132c.288-.037.576-.037.864-.056.576-.031 1.146-.056 1.71-.081.563-.007 1.127.05 1.684.069 1.121.012 2.204.231 3.268.387.539.057 1.046.238 1.566.357.513.138 1.027.25 1.521.413.489.181.977.357 1.453.532l.714.263c.225.106.457.219.682.325.451.219.896.432 1.34.65.445.207.839.495 1.259.733.407.25.82.488 1.215.75.375.282.745.563 1.114.839a25.67 25.67 0 0 1 6.537 7.35c1.465 2.516 2.38 4.88 2.818 6.883.113.5.275.957.326 1.414.068.45.125.87.181 1.257.05.388.119.751.15 1.083l.038.9c.019.532.038.94.044 1.227.006.275 0 .42 0 .42Z" fill="#022749"/><path d="M60.3 250.293c.475-1.852-.74-3.704-2.098-5.049-1.36-1.339-2.987-2.546-3.695-4.317-1.145-2.872.395-6.594-1.559-8.997-1.152-1.414-3.218-1.883-4.239-3.391-.538-.788-.707-1.764-.92-2.696a27.4 27.4 0 0 0-6.813-12.732 23.72 23.72 0 0 0 2.674 12.269c.795 1.508 1.766 2.978 2.029 4.661.425 2.734-1.102 5.549-.426 8.233.77 3.066 4.22 5.124 4.383 8.284.138 2.671-2.192 5.017-2.016 7.683.075 1.138.6 2.189 1.19 3.165 2.066 3.435 5.102 5.8 9.705 5.719l5.635.2-3.845-13.032H60.3Z" fill="#15A9F3"/><path d="M60.3 250.293c.475-1.852-.74-3.704-2.098-5.049-1.36-1.339-2.987-2.546-3.695-4.317-1.145-2.872.395-6.594-1.559-8.997-1.152-1.414-3.218-1.883-4.239-3.391-.538-.788-.707-1.764-.92-2.696a27.4 27.4 0 0 0-6.813-12.732 23.72 23.72 0 0 0 2.674 12.269c.795 1.508 1.766 2.978 2.029 4.661.425 2.734-1.102 5.549-.426 8.233.77 3.066 4.22 5.124 4.383 8.284.138 2.671-2.192 5.017-2.016 7.683.075 1.138.6 2.189 1.19 3.165 2.066 3.435 5.102 5.8 9.705 5.719l5.635.2-3.845-13.032H60.3Z" fill="#022749" opacity=".3"/><path d="M65.284 263.475s.538.125 1.553-.031a9.223 9.223 0 0 0 1.828-.463c.701-.257 1.496-.62 2.26-1.239.37-.319.733-.713.933-1.239.194-.519.232-1.095.263-1.683.032-.588.032-1.201.132-1.82.094-.62.338-1.233.689-1.808.663-1.164 1.765-2.272 2.122-3.854.389-1.558.107-3.241-.15-4.937-.263-1.689-.513-3.528.132-5.293.607-1.758 1.84-3.353 2.46-5.336.614-2.009.326-4.161.457-6.288.057-1.07.263-2.14.733-3.128.457-.995 1.09-1.94 1.584-2.984 1.002-2.121 1.177-4.524 1.453-6.882.131-1.189.27-2.39.407-3.598.131-1.22.244-2.427.626-3.604.344-1.182.852-2.321 1.346-3.484.245-.588.501-1.17.651-1.821.113-.663.144-1.282.182-1.939a22.586 22.586 0 0 0-.15-3.898c-.15-1.301-.388-2.59-.526-3.892-.006-.075-.019-.156-.025-.225l-.031-.256-.232.112a8.727 8.727 0 0 0-3.037 2.559c-.808 1.051-1.396 2.227-1.866 3.435-.94 2.421-1.277 4.955-1.753 7.376-.464 2.421-1.077 4.799-2.317 6.813-.62 1.001-1.365 1.921-2.016 2.897-.651.97-1.228 2.04-1.397 3.21-.331 2.383.984 4.473.708 6.581-.1 1.051-.513 2.027-1.027 2.922-.513.901-1.114 1.733-1.684 2.571-.57.839-1.115 1.69-1.516 2.597a8.26 8.26 0 0 0-.695 2.821c-.137 1.902.132 3.704-.006 5.4-.113 1.701-.714 3.247-1.39 4.629-.682 1.383-1.44 2.641-2.072 3.854-.32.607-.614 1.202-.852 1.796-.257.594-.382 1.201-.495 1.783a11.146 11.146 0 0 0-.044 3.216c.245 1.927.965 3.316 1.616 4.098.15.206.32.356.457.494.132.144.263.238.37.313.212.156.319.225.319.225.025-.031-.464-.288-1.09-1.076-.62-.782-1.308-2.165-1.528-4.073a11.315 11.315 0 0 1 .07-3.166c.118-.569.244-1.163.5-1.739.238-.582.539-1.17.858-1.771.639-1.201 1.409-2.452 2.104-3.847.689-1.389 1.315-2.96 1.44-4.711.15-1.74-.113-3.548.031-5.4a7.813 7.813 0 0 1 .683-2.727c.388-.882.927-1.715 1.496-2.547.57-.832 1.178-1.67 1.704-2.59.526-.913.97-1.933 1.077-3.04.269-2.246-1.034-4.355-.695-6.57.162-1.095.707-2.114 1.352-3.072.645-.957 1.396-1.876 2.029-2.902 1.283-2.071 1.903-4.493 2.367-6.926.482-2.434.82-4.943 1.74-7.314.464-1.176 1.034-2.334 1.816-3.341.77-1.02 1.754-1.877 2.906-2.452l-.257-.144c.006.069.019.15.025.225.144 1.32.376 2.609.526 3.891.156 1.283.213 2.566.15 3.842-.037.625-.075 1.289-.175 1.877-.138.594-.388 1.176-.633 1.758-.494 1.157-1.001 2.315-1.358 3.522-.395 1.201-.501 2.459-.633 3.66-.131 1.214-.269 2.415-.4 3.604-.27 2.365-.445 4.73-1.41 6.782-.475 1.019-1.108 1.964-1.577 2.99-.482 1.026-.701 2.159-.758 3.241-.125 2.171.163 4.298-.426 6.225-.582 1.915-1.816 3.516-2.435 5.331-.664 1.833-.389 3.735-.12 5.424.27 1.695.545 3.347.182 4.842-.325 1.514-1.396 2.609-2.072 3.804-.351.595-.608 1.239-.702 1.883-.1.645-.094 1.258-.119 1.846-.031.582-.062 1.151-.238 1.639-.175.488-.52.87-.876 1.183-.74.606-1.522.982-2.21 1.245a9.517 9.517 0 0 1-1.804.488c-.5.087-.889.1-1.146.112-.257-.012-.394 0-.394 0v-.006Z" fill="#022749"/><path d="M83.091 197.132s-.025.057-.056.169c-.031.138-.075.301-.125.507-.113.444-.245 1.114-.457 1.952-.22.832-.733 1.777-1.171 2.941a41.767 41.767 0 0 0-1.34 3.991c-.432 1.502-.814 3.172-1.209 4.955-.413 1.783-.82 3.698-1.803 5.499-.464.914-.983 1.84-1.397 2.853-.425 1.014-.65 2.121-.814 3.229a65.32 65.32 0 0 1-1.214 6.813c-1.127 4.617-2.204 9.009-3.187 13.013-1.002 3.992-1.91 7.583-2.674 10.611-.739 3.003-1.346 5.443-1.772 7.164-.194.825-.35 1.476-.463 1.952a22.09 22.09 0 0 1-.113.506c-.025.113-.031.175-.025.175 0 0 .025-.056.062-.168.038-.132.088-.301.144-.501.132-.469.307-1.114.533-1.933.45-1.714 1.096-4.142 1.884-7.132.783-3.022 1.716-6.613 2.75-10.592.989-4.005 2.078-8.403 3.218-13.014.532-2.315.951-4.623 1.214-6.838.157-1.101.376-2.171.783-3.153.4-.989.908-1.908 1.371-2.834.99-1.84 1.403-3.81 1.797-5.587.389-1.79.752-3.454 1.165-4.955a43.27 43.27 0 0 1 1.284-3.992c.413-1.157.908-2.115 1.114-2.978.194-.857.3-1.52.388-1.971.038-.206.063-.375.088-.513.019-.119.025-.175.019-.175l.006.006Z" fill="#022749"/><path d="M66.28 263.494c3.681-2.184 4.74-8.822 3.2-12.82-1.535-3.991-4.227-7.645-4.64-11.905-.32-3.273.75-6.632-.007-9.835-1.027-4.317-5.247-7.665-5.203-12.1.025-2.49 1.446-4.837 1.333-7.32-.137-3.053-2.485-5.475-3.932-8.165-2.223-4.117-2.367-8.978-3.13-13.595-.758-4.617-2.518-9.553-6.613-11.825-.607 3.917-1.634 6.601-1.315 11.906.12 1.909 2.33 5.556 2.636 9.729.182 2.496.307 4.999.457 7.495.15 2.434.307 4.905 1.178 7.182.67 1.746 1.74 3.329 2.241 5.124.933 3.385-.294 7.051.464 10.486.638 2.903 2.648 5.406 3.062 8.352.576 4.142-2.104 8.44-.733 12.394.682 1.959 2.292 3.535 2.755 5.556.357 1.57-.031 3.235.288 4.811.52 2.54 5.366 4.517 7.959 4.355" fill="#15A9F3"/><path d="M48.308 179.821s0 .075.02.219c.018.163.05.375.08.644.082.563.182 1.395.37 2.472.207 1.082.764 2.296 1.209 3.76.47 1.464.939 3.147 1.352 5.036.42 1.889.77 3.979 1.14 6.225.382 2.234.77 4.699 1.884 7.039.514 1.176 1.096 2.352 1.528 3.603.445 1.252.651 2.59.777 3.973a79.542 79.542 0 0 0 1.077 8.571c1.127 5.806 2.204 11.331 3.18 16.367 1.034 5.011 1.96 9.528 2.743 13.332.789 3.773 1.428 6.839 1.878 8.978.226 1.039.401 1.858.526 2.44.063.263.107.469.144.632.038.144.057.213.063.213 0 0 0-.075-.025-.219-.031-.163-.063-.376-.113-.638-.112-.582-.263-1.408-.463-2.453-.42-2.152-1.02-5.218-1.766-9.003-.757-3.804-1.66-8.327-2.66-13.345-.971-5.03-2.036-10.56-3.15-16.36a80.428 80.428 0 0 1-1.084-8.54c-.131-1.389-.344-2.772-.801-4.054-.451-1.283-1.033-2.465-1.553-3.629-1.108-2.308-1.497-4.711-1.897-6.951-.382-2.246-.752-4.335-1.19-6.231a53.553 53.553 0 0 0-1.409-5.043c-.47-1.47-1.04-2.677-1.265-3.728-.206-1.058-.332-1.896-.438-2.453l-.119-.638c-.031-.144-.044-.219-.05-.213l.012-.006Z" fill="#022749"/><path d="M211.772 231.711c1.628.301 3.031 1.421 3.92 2.809.896 1.389 1.321 3.035 1.509 4.674.363 3.178-.682 6.707-2.01 9.616-3.13-1.677-4.646-5.506-5.291-7.501-1.02-3.147-.951-9.46 1.866-9.598M219.399 253.227c-.82-1.652-.532-3.741.539-5.249 1.07-1.508 2.83-2.44 4.658-2.715.846-.125 1.797-.094 2.43.481.588.538.745 1.439.544 2.209-.2.769-.707 1.433-1.271 1.996-1.934 1.939-4.164 3.453-6.894 3.278" fill="#15A9F3"/><path d="M218.24 263.487s-.031-.231-.05-.656c-.018-.47-.05-1.07-.081-1.79-.044-1.501-.144-3.647.513-5.9.645-2.246 1.848-4.066 2.981-5.092a7.616 7.616 0 0 1 1.446-1.083c.182-.112.338-.175.439-.225.1-.05.156-.069.162-.062.032.043-.851.425-1.928 1.482-1.083 1.039-2.242 2.835-2.874 5.043-.645 2.209-.57 4.329-.57 5.831.006.757.013 1.37 0 1.796-.006.425-.019.656-.038.656Z" fill="#022749"/><path d="M212.142 236.522s.037.094.094.27c.062.206.137.462.231.788.194.682.47 1.677.795 2.909a273.161 273.161 0 0 1 2.355 9.666 291.795 291.795 0 0 1 2.016 9.748c.232 1.251.413 2.264.532 2.971.05.332.094.601.132.807.025.188.037.282.031.288a1.89 1.89 0 0 1-.075-.275l-.169-.801c-.15-.726-.351-1.727-.601-2.953a462.32 462.32 0 0 0-4.377-19.407 717.612 717.612 0 0 1-.72-2.928 78.133 78.133 0 0 0-.188-.801 1.783 1.783 0 0 1-.05-.282h-.006Z" fill="#022749"/><path d="M215.323 256.149c-1.453-3.61-4.759-6.419-8.56-7.27-.97-.219-2.166-.232-2.736.582-.57.813-.138 1.939.42 2.765 2.323 3.416 6.856 5.162 10.876 4.192" fill="#15A9F3"/><path d="M207.859 251.713s.219.025.607.113c.194.043.432.093.702.187.269.094.582.169.914.319.332.138.695.276 1.071.476.381.175.77.413 1.17.657a13.524 13.524 0 0 1 2.386 1.946 13.402 13.402 0 0 1 1.847 2.465c.226.419.445.813.601 1.201.182.381.301.757.414 1.095.125.337.181.657.256.926.075.275.113.513.144.713.063.394.088.613.069.613-.05.012-.163-.87-.626-2.202-.125-.332-.25-.695-.438-1.07-.163-.382-.382-.77-.608-1.176a13.597 13.597 0 0 0-1.828-2.409 14.253 14.253 0 0 0-2.336-1.927 13.08 13.08 0 0 0-1.145-.669c-.364-.207-.72-.351-1.046-.495-1.309-.544-2.173-.725-2.16-.769l.006.006ZM211.096 109.831c.025.087-7.013 2.039-15.717 4.354-8.703 2.321-15.779 4.129-15.804 4.042-.025-.088 7.013-2.033 15.717-4.355 8.703-2.314 15.779-4.129 15.804-4.041Z" fill="#022749"/><path d="M269.024 111.018c4.054-17.562-6.907-35.083-24.483-39.134-17.577-4.051-35.112 6.901-39.166 24.463-4.055 17.562 6.907 35.082 24.483 39.133 17.576 4.052 35.111-6.901 39.166-24.462Z" fill="#fff"/><path d="M269.854 103.674s-.019-.181-.044-.525c-.019-.357-.056-.876-.094-1.552-.018-.344-.044-.719-.062-1.138-.044-.419-.132-.87-.207-1.364-.075-.494-.163-1.02-.25-1.59a5.04 5.04 0 0 0-.188-.869c-.075-.294-.157-.6-.238-.913-.57-2.522-1.753-5.506-3.613-8.665a32.43 32.43 0 0 0-8.278-9.229c-.463-.344-.933-.694-1.409-1.044-.494-.326-1.014-.62-1.528-.939-.526-.3-1.02-.663-1.584-.92-.557-.269-1.121-.538-1.69-.807-.288-.137-.57-.275-.858-.406-.301-.107-.601-.22-.902-.332-.607-.219-1.215-.444-1.828-.67-.62-.206-1.271-.337-1.916-.512-.651-.15-1.29-.376-1.966-.445-1.347-.194-2.705-.469-4.114-.475-.702-.025-1.409-.094-2.123-.081l-2.154.112c-.363.025-.726.025-1.083.069l-1.083.169c-.727.119-1.459.206-2.186.357-1.434.388-2.924.681-4.333 1.27-.357.131-.72.262-1.077.394-.181.069-.363.131-.538.2l-.52.25c-.695.338-1.396.676-2.097 1.014-.689.369-1.347.807-2.023 1.207-.332.213-.689.394-1.002.632l-.958.713c-1.321.908-2.479 2.04-3.688 3.129-.551.6-1.102 1.207-1.653 1.82l-.413.457-.376.494-.745.995-.745 1-.658 1.07-.651 1.077-.325.538c-.101.188-.182.382-.276.57-.369.763-.733 1.526-1.102 2.29l-.883 2.401a34.815 34.815 0 0 0-1.678 10.248 34.453 34.453 0 0 0 1.678 10.248c.294.808.589 1.608.883 2.409.369.77.739 1.533 1.102 2.29l.276.569.325.538.651 1.076.658 1.07.745 1.001.745.995.376.494.413.457 1.653 1.821c1.209 1.095 2.367 2.227 3.688 3.134l.958.713c.32.238.67.42 1.002.632.683.401 1.34.839 2.023 1.208.701.338 1.402.675 2.097 1.013l.52.25c.175.076.363.138.538.201.364.131.72.262 1.077.394 1.415.588 2.899.882 4.34 1.27.726.15 1.465.238 2.185.357l1.083.168c.363.05.726.044 1.09.069l2.154.113c.713.012 1.421-.056 2.122-.081 1.409-.007 2.768-.288 4.114-.476.676-.069 1.321-.3 1.966-.444.645-.175 1.296-.307 1.916-.513.614-.225 1.228-.444 1.829-.67.3-.112.601-.219.901-.331.288-.138.576-.275.858-.407.57-.275 1.134-.544 1.691-.807.563-.256 1.058-.619 1.584-.92.513-.319 1.033-.613 1.528-.938.476-.35.945-.701 1.409-1.045a32.377 32.377 0 0 0 8.271-9.228c1.86-3.16 3.037-6.144 3.613-8.665.081-.313.163-.62.238-.914.081-.294.15-.581.188-.869.088-.57.175-1.095.25-1.589.075-.495.163-.945.207-1.364.025-.419.044-.801.063-1.139.043-.676.075-1.189.094-1.551.025-.351.043-.526.043-.526s0 .181-.012.532c-.013.356-.038.876-.063 1.551-.012.344-.031.726-.05 1.145-.037.419-.119.876-.188 1.37-.075.495-.15 1.026-.238 1.596-.031.288-.1.575-.181.869l-.232.92c-.557 2.54-1.722 5.537-3.575 8.728a32.623 32.623 0 0 1-8.291 9.322c-.463.35-.939.701-1.415 1.057-.494.325-1.02.626-1.54.951-.526.3-1.027.67-1.597.926-.563.269-1.127.544-1.697.82l-.864.413c-.3.112-.601.219-.908.331-.607.225-1.221.451-1.841.676-.626.206-1.283.344-1.928.519-.658.15-1.303.382-1.985.457-1.353.194-2.724.475-4.145.488-.708.025-1.422.094-2.135.087-.72-.037-1.441-.068-2.173-.106-.363-.025-.733-.019-1.096-.069a58.795 58.795 0 0 0-1.096-.162c-.732-.119-1.471-.207-2.21-.357-1.446-.388-2.949-.682-4.377-1.276-.363-.132-.726-.263-1.089-.401-.182-.069-.364-.131-.545-.206l-.526-.25c-.701-.338-1.409-.676-2.123-1.02-.695-.376-1.359-.814-2.047-1.22-.338-.213-.695-.401-1.015-.638l-.964-.72c-1.334-.913-2.505-2.058-3.726-3.159a424.93 424.93 0 0 0-1.671-1.833l-.42-.463-.376-.501-.751-1.007-.758-1.008-.663-1.076-.664-1.088-.332-.545-.282-.575c-.369-.77-.745-1.539-1.114-2.315-.295-.807-.595-1.614-.889-2.427a34.915 34.915 0 0 1-1.691-10.355c.044-3.56.626-7.057 1.697-10.348.3-.813.595-1.62.889-2.427.376-.776.745-1.546 1.115-2.315.093-.194.181-.388.281-.576l.332-.544.658-1.089.663-1.076.758-1.007.751-1.007.376-.5.42-.464c.557-.613 1.114-1.226 1.671-1.833 1.221-1.101 2.392-2.246 3.726-3.16l.964-.719c.32-.244.677-.425 1.015-.638.688-.407 1.352-.845 2.047-1.214.714-.344 1.422-.682 2.123-1.02l.526-.25c.181-.075.363-.137.545-.206.363-.132.726-.263 1.089-.4 1.428-.595 2.931-.883 4.377-1.277.733-.15 1.478-.238 2.21-.357l1.096-.168c.363-.05.733-.044 1.096-.07.726-.037 1.453-.068 2.173-.106.72-.012 1.434.063 2.135.088 1.421.012 2.792.294 4.145.488.682.075 1.327.306 1.985.457.651.175 1.302.312 1.928.519.62.225 1.234.45 1.841.676.307.112.608.225.908.331.295.132.576.275.864.413l1.697.82c.57.256 1.071.625 1.597.926.52.319 1.039.619 1.54.95.476.357.946.714 1.415 1.058a32.459 32.459 0 0 1 8.291 9.322c1.859 3.19 3.024 6.194 3.575 8.728.081.312.157.619.232.92.081.293.15.587.181.869.082.57.163 1.101.238 1.595.069.495.151.951.188 1.37.019.42.038.801.05 1.145.025.676.05 1.195.063 1.552.012.35.012.532.012.532l-.006.018Z" fill="#022749"/><path d="M212.88 125.472s4.132-4.555 5.191-5.08c1.058-.526 10.419-3.035 10.419-3.035l14.859-.876 15.854 6.82s2.054 1.495 2.361 2.427c.344.526-23.369 23.962-48.684-.256ZM222.229 78.224c2.517-.676 5.04 1.639 7.614 1.226 1.565-.25 2.78-1.452 4.189-2.178 2.104-1.082 5.034-1.17 7.107-.03 2.072 1.144 3.394 2.333 3.606 4.685 1.96-1.038 5.085 1.49 6.093 3.854 1.014 2.371.657 4.768-.05 7.245a34.007 34.007 0 0 1-6.03 11.768c-.244.307-.626.645-.977.463-.244-.125-.313-.431-.344-.7-.288-2.296.081-4.618.357-6.92.275-2.296.451-4.674-.201-6.894-.651-2.221-2.304-4.286-4.564-4.812-1.666-.388-3.432.1-4.947.883-1.522.788-2.868 1.864-4.32 2.765-1.453.907-3.075 1.652-4.784 1.67-1.71.02-3.519-.85-4.196-2.42-.676-1.571.213-3.742 1.904-4.042-1.534-.195-2.83-1.565-2.937-3.104-.106-1.539.99-3.078 2.48-3.478v.019Z" fill="#022749"/><path d="m247.175 93.614-3.35 25.745c-.57 4.38-4.69 7.389-9.042 6.607a7.725 7.725 0 0 1-6.287-8.609c.257-1.939.464-3.553.476-3.754 0 0-6.481-1.47-6.111-8.02.182-3.166 1.077-9.654 1.96-15.516.945-6.294 6.581-10.799 12.936-10.36l.633.043c6.787.87 9.836 7.114 8.785 13.864Z" fill="#FFBE9D"/><path d="M228.96 113.51s4.113.619 8.703-1.834c0 0-2.342 4.568-8.835 3.529l.132-1.695Z" fill="#EB996E"/><path d="M226.405 94.772c-.05.494.325.944.839 1.007.513.063.97-.282 1.021-.776.05-.494-.326-.945-.833-1.007-.514-.063-.971.281-1.021.776h-.006ZM226.004 93.376c.107.132.852-.344 1.86-.275 1.008.056 1.709.626 1.828.513.057-.05-.044-.281-.35-.538-.301-.256-.827-.52-1.453-.557-.626-.037-1.171.157-1.49.37-.326.219-.445.431-.395.487ZM235.904 95.673c-.05.494.325.944.839 1.007.513.062.97-.282 1.021-.776.05-.494-.326-.945-.833-1.007-.514-.063-.971.281-1.021.776h-.006ZM235.885 94.246c.106.132.852-.344 1.86-.275 1.008.056 1.709.626 1.828.513.056-.05-.044-.282-.351-.538-.3-.257-.826-.52-1.452-.557-.626-.037-1.171.156-1.49.37-.326.218-.445.43-.395.487ZM231.721 101.453c.006-.056-.607-.206-1.615-.406-.257-.044-.495-.113-.526-.288-.051-.188.081-.457.225-.751.282-.607.582-1.239.895-1.902 1.246-2.709 2.173-4.948 2.06-4.998-.112-.05-1.208 2.108-2.454 4.817-.301.67-.589 1.308-.864 1.914-.119.288-.307.607-.201 1.001a.67.67 0 0 0 .395.407c.163.063.307.075.432.094 1.014.125 1.647.175 1.659.119l-.006-.007ZM234.633 102.354c-.163-.018-.238 1.07-1.228 1.783-.989.714-2.141.513-2.16.664-.019.068.244.231.733.275a2.745 2.745 0 0 0 1.803-.488c.601-.438.889-1.051.958-1.495.075-.451-.031-.732-.106-.732v-.007ZM235.897 90.292c.082.282 1.096.22 2.267.444 1.177.2 2.104.613 2.279.376.075-.113-.069-.382-.438-.67-.363-.287-.952-.582-1.659-.713-.702-.125-1.359-.056-1.804.088-.444.144-.676.344-.645.475ZM226.581 90.492c.162.238.87.05 1.703.1.833.02 1.528.263 1.709.032.082-.113-.019-.35-.307-.582-.288-.238-.782-.45-1.358-.47-.576-.018-1.084.15-1.39.364-.314.212-.426.444-.351.556h-.006Z" fill="#022749"/><path d="M246.305 98.425c.113-.037 4.59-1.02 4.139 3.441-.451 4.461-4.847 3.091-4.84 2.96 0-.132.701-6.407.701-6.407v.006Z" fill="#FFBE9D"/><path d="M247.144 103.274s.075.063.2.138a.809.809 0 0 0 .582.069c.489-.126.965-.833 1.065-1.633.05-.407.006-.801-.107-1.133-.106-.338-.294-.588-.526-.657a.393.393 0 0 0-.482.169c-.075.119-.05.213-.075.219-.013.013-.088-.081-.031-.263a.466.466 0 0 1 .206-.262.59.59 0 0 1 .445-.07c.344.057.62.408.745.777.144.369.2.819.144 1.27-.119.894-.664 1.689-1.327 1.814-.326.05-.576-.069-.702-.188-.125-.125-.137-.225-.125-.231l-.012-.019Z" fill="#EB996E"/><path d="M223.531 88.615c2.83.964 6.124.463 8.535-1.313 1.684-1.24 3.049-3.097 5.09-3.573 1.372-.319 2.843.075 4.027.838 1.183.764 2.11 1.871 2.886 3.047-1.496 3.241-.901 7.007-.275 10.517.069.388.156.807.45 1.07.501.444 1.315.182 1.81-.269.795-.72 1.152-1.795 1.415-2.834.595-2.365.827-4.849.457-7.257-.369-2.415-1.365-4.755-3.012-6.563-2.053-2.253-5.065-3.56-8.115-3.723-3.049-.163-6.111.776-8.666 2.44-1.183.776-2.297 1.727-2.967 2.978" fill="#022749"/><path d="M220.238 79.669s-.037.137.013.388c.05.25.2.625.563.963.363.344.939.595 1.634.676.345.037.721.056 1.115.006.395-.05.814-.169 1.177-.45.351-.276.651-.707.645-1.227 0-.525-.388-.994-.87-1.207a1.724 1.724 0 0 0-.795-.156 1.444 1.444 0 0 0-.796.293c-.469.345-.732.927-.776 1.52-.044.601.188 1.22.595 1.69.407.475.958.82 1.559 1.032 1.215.426 2.598.288 3.857-.15 1.271-.431 2.392-1.107 3.45-1.764 1.058-.657 2.085-1.283 3.137-1.708 1.046-.432 2.129-.632 3.131-.538a6.377 6.377 0 0 1 2.63.87c1.478.888 2.304 2.083 2.786 2.903.244.419.401.757.501.988.107.231.157.357.163.35 0 0 0-.031-.025-.093a8.797 8.797 0 0 0-.57-1.289c-.463-.839-1.271-2.071-2.78-2.997a6.508 6.508 0 0 0-2.693-.92c-1.033-.106-2.154.094-3.224.532-1.077.432-2.11 1.064-3.175 1.714-1.058.657-2.166 1.314-3.406 1.74-1.227.425-2.555.556-3.713.156-.57-.2-1.09-.526-1.465-.964-.376-.438-.589-.994-.551-1.539.031-.544.275-1.07.688-1.376.401-.32.965-.325 1.397-.125.438.194.776.6.776 1.045.006.444-.25.844-.57 1.1-.325.257-.72.382-1.096.432-.375.05-.745.044-1.083.007-.676-.063-1.24-.294-1.59-.613a1.853 1.853 0 0 1-.576-.914c-.063-.244-.044-.382-.057-.382l-.006.007ZM251.37 89.698c-.012-.05-.52.219-1.39.263a3.993 3.993 0 0 1-1.49-.257c-.539-.2-1.096-.526-1.622-.926-1.052-.82-1.603-1.965-1.81-2.803-.212-.85-.156-1.407-.2-1.407-.012 0-.037.137-.05.387-.006.25.006.614.1 1.058.176.87.72 2.083 1.829 2.94.551.413 1.12.745 1.69.939a3.83 3.83 0 0 0 1.566.225c.45-.038.807-.144 1.039-.238.232-.094.351-.169.344-.175l-.006-.006ZM250.951 92.92c0-.044-.533.037-1.378-.07a6.356 6.356 0 0 1-3.018-1.22 6.317 6.317 0 0 1-1.972-2.59c-.32-.781-.382-1.313-.426-1.307-.013 0-.013.138.025.376.031.237.106.581.257.988a5.958 5.958 0 0 0 1.985 2.71 6.032 6.032 0 0 0 3.137 1.2c.432.032.782.02 1.027-.012.237-.032.369-.063.369-.075h-.006Z" fill="#022749"/><path d="M238.935 98.757c.056.019.118-.025.137-.088.019-.062-.019-.131-.075-.144-.056-.012-.119.025-.138.088-.018.063.019.131.076.144ZM237.044 98.188c.056.018.125-.032.144-.107.019-.075-.012-.15-.069-.162-.056-.02-.125.03-.144.106-.019.075.013.15.069.163ZM235.748 98.063c.062.012.125-.057.144-.157.018-.1-.013-.188-.076-.2-.062-.013-.125.056-.144.156-.018.1.013.188.076.2ZM237.908 99.896c.063 0 .113-.025.113-.063 0-.037-.044-.075-.107-.081-.062 0-.112.025-.112.062 0 .038.044.075.106.082ZM236.174 99.364c.062.012.119-.038.131-.107.013-.068-.031-.13-.087-.143-.063-.013-.119.037-.132.106-.012.069.031.131.088.144ZM227.069 97.637c.056.019.119-.025.138-.094.018-.069-.013-.131-.076-.15-.056-.019-.119.025-.137.094-.019.069.012.131.075.15ZM225.767 97.424c.062.013.119-.043.131-.119.013-.075-.025-.143-.087-.156-.063-.012-.119.044-.132.119-.012.075.025.144.088.156ZM228.222 97.75c.056.019.118-.013.131-.063.013-.05-.025-.106-.081-.125-.057-.019-.119.013-.132.063-.012.05.025.106.082.125ZM227.163 98.988c.056.032.125 0 .156-.062.032-.063.019-.138-.037-.163-.057-.031-.126 0-.157.063-.031.062-.019.137.038.162ZM226.061 98.688c.063-.012.1-.062.088-.112-.013-.05-.069-.082-.125-.07-.063.013-.101.063-.088.113.013.05.069.082.125.07Z" fill="#EB996E"/><path d="M248.846 104.613c-.043.006.169.394.05 1.026a1.484 1.484 0 0 1-.551.901c-.319.244-.795.382-1.227.231-.438-.15-.751-.544-.808-.926-.062-.394.101-.763.257-1.032.32-.563.727-.713.708-.738 0-.031-.464.075-.839.657-.182.275-.389.663-.326 1.145.063.469.426.932.939 1.107.526.182 1.077 0 1.428-.281.369-.288.538-.701.582-1.039a1.836 1.836 0 0 0-.069-.795c-.062-.175-.125-.262-.137-.256h-.007Z" fill="#022749"/><path d="M248.891 103.856s-.17.044-.27.288a.691.691 0 0 0-.012.456.664.664 0 0 0 .394.407c.207.069.42.019.564-.094a.495.495 0 0 0 .194-.425c-.019-.275-.2-.363-.213-.338-.025.025.081.131.056.332a.363.363 0 0 1-.162.262.425.425 0 0 1-.37.05.463.463 0 0 1-.275-.269.57.57 0 0 1-.032-.331c.044-.2.144-.307.119-.332l.007-.006Z" fill="#022749"/><path d="m142.325 257.269 1.979 16.11 5.241 12.294a1.663 1.663 0 0 1-2.493 2.008c-2.799-1.996-13.049-9.372-13.124-10.561-.094-1.376-3.732-19.051-3.732-19.051l12.135-.8h-.006Z" fill="#15A9F3"/><path d="m148.555 287.894-14.789-11.862.1.681c.087.589.376 1.127.82 1.521 1.196 1.051 4.558 3.872 12.31 9.453a1.67 1.67 0 0 0 1.559.207ZM136.308 270.37c.444.219.664.807.463 1.257-.2.451-.801.682-1.246.469-.444-.212-.732-.913-.482-1.339.251-.425.971-.656 1.353-.344" fill="#fff" opacity=".6"/><path d="M143.859 281.412c.1.031.338-.863 1.227-1.451.871-.62 1.791-.52 1.797-.626.007-.044-.213-.138-.595-.138s-.914.132-1.402.463a2.57 2.57 0 0 0-.939 1.145c-.138.357-.132.601-.088.607ZM145.318 283.395c.088.057.526-.538 1.321-.901.789-.375 1.528-.325 1.541-.431.031-.088-.789-.319-1.691.106-.908.413-1.265 1.189-1.171 1.22v.006ZM141.323 278.966c.088.062.758-.857 1.947-1.527 1.177-.688 2.317-.794 2.305-.901.012-.087-1.215-.137-2.48.595-1.271.719-1.853 1.802-1.772 1.833ZM140.315 274.117c.056.088.889-.413 2.041-.619 1.146-.226 2.104-.069 2.123-.169.031-.088-.958-.419-2.192-.182-1.233.232-2.035.901-1.972.97ZM139.614 269.406c.062.088.876-.582 2.103-.701 1.228-.15 2.167.319 2.211.226.019-.038-.182-.213-.589-.376-.401-.162-1.002-.275-1.665-.206a3.607 3.607 0 0 0-1.578.563c-.357.244-.52.463-.489.494h.007ZM141.561 267.811s.025-.226-.069-.613a4.318 4.318 0 0 0-.714-1.521c-.219-.275-.457-.632-.933-.776a.667.667 0 0 0-.726.257c-.156.231-.182.507-.15.763.163 1.02 1.183 1.877 2.354 1.852a2.74 2.74 0 0 0 2.448-1.795c.069-.244.094-.532-.068-.789-.163-.256-.508-.319-.733-.244-.47.144-.726.457-.977.707a4.762 4.762 0 0 0-.914 1.408c-.15.369-.188.582-.169.588.062.031.288-.851 1.258-1.821.245-.225.533-.513.871-.594.163-.044.319 0 .401.131.081.119.075.326.012.52-.282.776-1.146 1.514-2.141 1.533-.983.025-1.879-.726-2.023-1.546-.031-.2-.006-.406.082-.538a.352.352 0 0 1 .4-.144c.332.082.589.388.802.645.851 1.082.914 2.002.983 1.977h.006Z" fill="#022749"/><path d="m131.868 267.504 11.578-1.195-.345-2.715-11.778 1.207.545 2.703Z" fill="#022749" opacity=".3"/><path d="m129.977 140.593.038.213-20.219 1.264s-6.105 24.3-1.728 33.816c4.377 9.516 15.316 48.468 15.316 48.468l7.771 41.392 13.744-1.902-1.71-20.271c1.415-3.441 8.472-20.646 9.33-23.499.952-3.172 2.755-37.175 2.905-49.544.17-14.102.476-31.87.476-31.87l-25.916 1.927-.007.006Z" fill="#022749"/><path d="M137.817 158.906s.019.075.038.213c.019.156.037.369.069.631l.238 2.434c.2 2.134.488 5.187.845 8.947.714 7.558 1.797 17.987 2.761 29.53.47 5.775.833 11.286 1.083 16.298.251 5.011.37 9.535.42 13.332.038 3.798.038 6.87-.013 8.991-.025 1.044-.037 1.864-.05 2.446-.006.263-.018.475-.025.638a1.04 1.04 0 0 1-.018.219s-.013-.075-.013-.219c0-.163 0-.369-.012-.638 0-.582 0-1.402-.007-2.446.013-2.121-.019-5.193-.087-8.985a399.41 399.41 0 0 0-.495-13.319 598.787 598.787 0 0 0-1.108-16.286c-.958-11.537-2.01-21.972-2.668-29.536a725.304 725.304 0 0 1-.745-8.959c-.075-1.045-.131-1.858-.175-2.44a20.475 20.475 0 0 0-.038-.632 1.012 1.012 0 0 1 0-.219ZM137.804 158.824c-.025.088-1.064-.137-2.323-.494-1.259-.363-2.26-.726-2.235-.807.025-.087 1.064.138 2.323.494 1.258.363 2.26.726 2.235.807ZM138.242 152.449c-.087.013-.526-2.652-.976-5.95-.451-3.297-.739-5.981-.652-5.993.088-.013.526 2.653.977 5.95.451 3.297.739 5.981.651 5.993ZM138.237 141.275c-.038-.018.275-.294.826-.106a.938.938 0 0 1 .614.745c.056.375-.107.838-.532 1.057a.997.997 0 0 1-1.159-.257c-.275-.3-.238-.732-.094-.963.138-.25.345-.376.489-.407.15-.037.231-.012.231.006.019.044-.338.082-.513.501-.081.2-.081.469.113.663.181.194.526.294.789.163.269-.132.407-.463.375-.732-.018-.275-.213-.469-.407-.57-.407-.2-.72-.05-.732-.1Z" fill="#022749"/><path d="m122.82 78.68 17.063-1.332 6.593 4.748-4.126 39.253 5.46 19.244h-30.544l-3.932-35.373 9.486-26.54Z" fill="#FAFAFA"/><path d="m124.58 83.103.25-6.794h-2.291l-1.891 3.072-6.168 2.603c-.557.556-6.18 3.172-8.791 6.156-2.618 2.984-15.88 38.633-14.94 43.113.707 3.403 8.202 9.434 12.585 12.512l-.068.614s-.032.494-.038 1.257c-.013 1.652.106 4.548 1.002 6.338 1.309 2.615 6.913 12.319 6.913 12.319l15.315 10.266s3.739-12.875 4.296-18.106c.557-5.23 0-54.868 0-54.868s-5.592-15.11-6.162-18.475l-.012-.007ZM174.967 123.113s-8.485-23.93-11.158-31.394c-2.674-7.464-7.251-8.115-7.251-8.115l-9.8-4.085-.87-2.71h-6.462s3.425 3.31 3.795 5.738c.369 2.427-3.92 14.37-3.92 14.37s-1.497 25.383 0 32.29c1.496 6.907 14.758 37.888 14.758 37.888s2.43-2.239 3.864-6.344c1.434-4.104 1.559-11.386 0-19.407a127.85 127.85 0 0 1-.439-2.377c.301.137.608.25.915.319 6.123 1.408 8.196 2.884 14.414-2.415 6.211-5.299 2.16-13.745 2.16-13.745l-.006-.013Z" fill="#15A9F3"/><path d="M120.585 84.718c.013.05-.826.275-2.16.713a41.608 41.608 0 0 0-5.072 2.052 41.975 41.975 0 0 0-4.746 2.721c-1.171.776-1.866 1.296-1.897 1.258-.013-.019.144-.169.444-.425.301-.257.752-.607 1.321-1.026 1.14-.832 2.799-1.877 4.734-2.822 1.941-.938 3.788-1.595 5.147-1.977a20.19 20.19 0 0 1 1.622-.407c.388-.081.601-.112.607-.087ZM157.403 89.817c-.032.037-.545-.338-1.39-.92a40.82 40.82 0 0 0-3.4-2.102 41.5 41.5 0 0 0-3.601-1.74c-.945-.4-1.54-.631-1.521-.675.012-.038.632.112 1.609.463.97.35 2.292.907 3.675 1.664a26.099 26.099 0 0 1 3.382 2.202c.814.632 1.277 1.076 1.252 1.108h-.006ZM122.082 140.093s.012.238-.019.676a4.799 4.799 0 0 1-.107.788c-.062.3-.112.657-.244 1.026a8.851 8.851 0 0 1-.432 1.201c-.163.432-.407.857-.651 1.314a13.78 13.78 0 0 1-2.06 2.653 13.305 13.305 0 0 1-2.699 2.002c-.463.231-.895.469-1.334.619a8.59 8.59 0 0 1-1.214.401c-.37.118-.727.162-1.034.219a4.517 4.517 0 0 1-.788.087c-.439.025-.677.025-.677 0-.006-.069.965-.087 2.43-.532a9.4 9.4 0 0 0 1.171-.431c.419-.157.839-.401 1.29-.632a13.926 13.926 0 0 0 2.617-1.977 14.173 14.173 0 0 0 2.035-2.572c.244-.444.495-.857.664-1.27.2-.406.338-.801.457-1.163.476-1.458.513-2.428.588-2.415l.007.006ZM107.461 97.637c-.088.019-.551-1.79-1.033-4.029-.483-2.246-.802-4.08-.714-4.098.087-.019.551 1.783 1.033 4.03.482 2.245.801 4.078.714 4.097ZM160.334 88.615c.075.07-1.215 1.358-2.292 3.304-1.096 1.933-1.515 3.71-1.615 3.678-.038-.006.012-.462.212-1.176.201-.713.564-1.676 1.115-2.665a12.586 12.586 0 0 1 1.691-2.346c.501-.544.864-.826.889-.8v.005ZM170.164 123.263s-.25-.231-.657-.682c-.201-.225-.451-.507-.752-.807-.3-.306-.632-.669-1.027-1.038-.77-.764-1.747-1.615-2.867-2.497a38.64 38.64 0 0 0-3.858-2.602 38.467 38.467 0 0 0-4.176-2.052 36.141 36.141 0 0 0-3.594-1.245c-.52-.163-.996-.269-1.415-.376-.42-.112-.783-.188-1.077-.25-.595-.125-.921-.207-.921-.232 0-.025.338.019.94.107.3.044.67.1 1.095.194.426.094.908.181 1.434.331 1.058.263 2.298.664 3.651 1.189 1.34.538 2.78 1.214 4.233 2.046a34.18 34.18 0 0 1 3.882 2.646c1.127.908 2.091 1.783 2.849 2.572.394.381.714.757 1.002 1.076.294.319.526.607.713.851.376.481.576.75.564.763l-.019.006Z" fill="#022749"/><path d="M155.543 100.603c.088-.013.501 2.859.921 6.412.419 3.554.682 6.444.595 6.451-.088.012-.501-2.859-.921-6.413-.419-3.554-.682-6.444-.595-6.45ZM157.603 139.004s-.288-.144-.782-.456a19.908 19.908 0 0 1-1.973-1.483c-.789-.682-1.697-1.552-2.504-2.678-.821-1.12-1.528-2.484-2.06-3.992-.27-.75-.489-1.495-.67-2.227-.176-.738-.263-1.451-.401-2.121-.25-1.332-.726-2.483-1.446-3.215-.695-.751-1.453-1.133-1.96-1.396-.533-.225-.827-.35-.821-.375 0-.019.32.063.871.256.532.226 1.327.589 2.079 1.352.776.744 1.302 1.958 1.571 3.309.144.676.244 1.396.414 2.109.181.713.4 1.458.67 2.196.525 1.483 1.208 2.822 1.997 3.929.776 1.114 1.653 1.989 2.411 2.684.764.694 1.44 1.195 1.897 1.551.47.345.72.545.707.564v-.007Z" fill="#022749"/><path d="M114.487 138.86s-6.794 2.922-4.584 6.507c1.522 2.465 4.671 4.674 4.671 4.674 3.175-1.821 5.41-3.729 6.963-7.252l-7.05-3.929Z" fill="#FFBE9D"/><path d="M103.328 143.772s.438.306 1.328.725a11.04 11.04 0 0 0 4.057.995l-.1.088c.175-1.22.751-2.572 1.759-3.773s2.38-2.277 4.052-3.072h-.013c.382-.231.733-.588.989-1.001.238-.413.483-.907.407-1.357-.094-.476-.388-.92-.738-1.321a7.385 7.385 0 0 0-1.203-1.088l-.018-.013-.013-.012c-.639-.745-1.259-1.558-1.778-2.446-.52-.895-1.015-1.79-1.66-2.622-.269-.356-.557-.694-.839-1.038-.288-.357-.544-.72-.795-1.076a68.68 68.68 0 0 1-1.434-2.171l-.019-.032v-.037c-.118-1.583-.206-3.11-.144-4.599.088-1.464.17-2.871.245-4.204.162-2.659.306-5.024.425-7.013.132-1.952.232-3.529.307-4.649.038-.519.075-.938.1-1.251.025-.282.044-.432.057-.432.012 0 .012.15 0 .438-.013.313-.025.726-.044 1.251-.05 1.12-.125 2.697-.213 4.655-.1 1.99-.219 4.355-.357 7.014-.069 1.332-.144 2.74-.225 4.204-.057 1.451.037 2.984.156 4.554l-.025-.068c.457.713.933 1.439 1.428 2.158.25.357.507.72.783 1.057.281.338.576.689.851 1.052.658.844 1.171 1.776 1.678 2.652.514.876 1.115 1.664 1.747 2.409l-.031-.025c.463.344.883.719 1.252 1.145.363.419.695.894.808 1.47.044.282 0 .607-.1.845a4.025 4.025 0 0 1-.351.719 3.42 3.42 0 0 1-1.102 1.101h-.012c-1.616.757-2.987 1.808-3.977 2.966-.995 1.163-1.565 2.465-1.753 3.641l-.012.088h-.088a10.907 10.907 0 0 1-4.101-1.102 7.611 7.611 0 0 1-.971-.581c-.206-.151-.313-.232-.307-.244h-.006Z" fill="#022749"/><path d="M107.448 124.846c-.013.056-.445-.037-1.146-.056a7.195 7.195 0 0 0-2.661.463 7.187 7.187 0 0 0-2.298 1.414c-.513.475-.776.826-.82.794-.032-.019.169-.425.657-.957.489-.532 1.303-1.157 2.348-1.558 1.046-.394 2.073-.463 2.787-.388.72.075 1.139.251 1.127.282l.006.006ZM129.182 131.553s-.068-.181-.162-.532c-.101-.381-.238-.895-.407-1.539a162.278 162.278 0 0 1-1.365-5.693c-.52-2.415-1.102-5.312-1.447-8.565-.35-3.254-.482-6.876 0-10.636.188-1.877.789-3.691.42-5.4-.376-1.707-1.678-2.952-2.542-4.341-1.823-2.753-2.718-5.656-3.069-8.108-.357-2.466-.2-4.493.013-5.857.125-.681.225-1.207.326-1.557.093-.35.144-.538.156-.532.013 0-.019.194-.094.55-.081.357-.163.883-.269 1.564a20.444 20.444 0 0 0 .088 5.8c.375 2.421 1.277 5.274 3.086 7.977.433.682.971 1.326 1.459 2.033.489.707.952 1.496 1.146 2.403.389 1.833-.225 3.66-.407 5.512-.482 3.722-.363 7.326-.031 10.56.326 3.241.883 6.132 1.378 8.547.5 2.415.958 4.36 1.264 5.712.144.65.263 1.17.351 1.551.075.357.113.545.1.545l.006.006ZM145.895 76.81s.05.08.119.237c.062.163.169.4.262.714.207.625.451 1.557.608 2.734a18.68 18.68 0 0 1 .081 4.16c-.15 1.552-.532 3.303-1.471 4.874-.896 1.564-1.872 2.997-2.179 4.498-.307 1.495.056 2.897.094 4.086.069 1.195-.157 2.171-.482 2.759-.157.294-.326.5-.451.625-.126.125-.201.175-.207.169-.025-.025.263-.263.539-.851.281-.582.463-1.526.369-2.69-.044-.582-.144-1.22-.213-1.914-.069-.689-.106-1.458.056-2.246.307-1.59 1.309-3.053 2.192-4.599.908-1.533 1.284-3.216 1.453-4.748.163-1.54.106-2.94-.013-4.105a18.07 18.07 0 0 0-.501-2.727c-.163-.639-.288-.983-.256-.989v.013ZM127.516 170.536s-.112-.025-.313-.106c-.231-.094-.519-.213-.864-.357-.745-.319-1.828-.788-3.143-1.395-2.624-1.226-6.262-3.003-9.843-5.655-3.582-2.653-6.237-5.794-7.671-8.328-.732-1.263-1.208-2.346-1.477-3.115-.151-.376-.226-.689-.295-.889-.062-.206-.087-.313-.075-.319.025-.006.182.413.489 1.158a22.75 22.75 0 0 0 1.559 3.04c1.471 2.484 4.12 5.556 7.67 8.184 3.55 2.627 7.151 4.429 9.749 5.712 1.278.613 2.323 1.113 3.1 1.489.338.162.613.3.839.413.188.1.288.15.282.162l-.007.006ZM158.918 148.802s.031.231.025.644c0 .413-.037 1.014-.113 1.752a22.768 22.768 0 0 1-1.371 5.618c-.82 2.121-1.903 3.885-2.805 5.062-.451.588-.839 1.044-1.133 1.338-.288.301-.457.457-.47.438-.044-.037.576-.713 1.421-1.914a24.056 24.056 0 0 0 2.693-5.043 26.535 26.535 0 0 0 1.446-5.53c.213-1.452.263-2.365.32-2.365h-.013ZM127.072 150.866c.025.057-.494.107-.82.745-.15.3-.232.732-.063 1.126.163.394.639.651 1.14.626.507-.019.958-.319 1.083-.726.138-.407.013-.832-.163-1.114-.375-.6-.901-.607-.882-.663 0-.012.119-.044.331.006.213.05.501.213.739.526.226.313.414.801.257 1.339-.15.544-.739.938-1.352.957-.614.038-1.234-.3-1.434-.832-.207-.519-.063-1.026.131-1.351.207-.338.482-.526.689-.595.207-.075.332-.05.332-.037l.012-.007ZM128.13 141.826c.025.056-.495.106-.82.744-.151.301-.232.732-.063 1.127.163.394.639.65 1.14.625.507-.019.958-.319 1.083-.726.138-.406.012-.832-.163-1.113-.376-.601-.902-.607-.883-.663 0-.013.119-.044.332.006.213.05.501.213.739.525.225.313.413.801.257 1.339-.151.545-.739.939-1.353.958-.613.037-1.233-.301-1.434-.833-.206-.519-.062-1.026.132-1.351.206-.338.482-.525.689-.594.206-.075.331-.05.331-.038l.013-.006Z" fill="#022749"/><path d="m106.922 124.22.263.151c-1.452-1.083-3.393-1.489-5.159-1.083a6.37 6.37 0 0 0-4.164 3.229c-.313.6-.488 1.407-.019 1.883.37.369.99.356 1.46.131.469-.225.832-.619 1.208-.976a10.354 10.354 0 0 1 6.962-2.796M122.263 91.994c.382 3.61 2.223 6.425 1.822 9.872-.401 3.448-1.615 6.77-1.985 10.223-.469 4.386.438 8.841 2.06 12.945 1.622 4.104 3.983 7.126 6.412 10.811-3.031-9.547-5.228-18.951-4.771-28.636.119-2.465 1.083-5.443.613-7.864-.626-3.247-3.099-4.655-4.151-7.345M138.743 120.955c.082 1.326 1.672 2.746 3.006 2.777 1.327.025 2.761-.25 3.913.42 1.534.894 1.772 2.953 2.023 4.711.582 4.079 2.329 8.233 5.742 10.554.657.444 1.402.826 2.197.82.796-.006 1.628-.501 1.797-1.277 0 0-1.797-1.551-2.849-2.239-2.248-1.464-3.249-4.317-4.013-6.889-.539-1.82-.889-3.772-1.747-5.468-1.678-3.334-4.145-3.741-10.069-3.403" fill="#022749" opacity=".3"/><path d="M131.273 38.846s-3.494-.951-6.192 0c-2.699.95-10.639 15.234-13.024 16.98-2.38 1.745-3.814 5.393-1.747 8.57 2.066 3.173 4.765 2.222 4.126 4.918-.632 2.697-1.271 6.032 2.379 6.032 3.651 0 8.097-1.114 8.579-2.221.476-1.114 15.879 3.49 18.265 3.172 2.379-.32 6.036-2.309 5.873-3.854-.156-1.546 7.307-1.546 6.669-6.463 0 0 1.822-5.08.037-6.982 0 0 5.36-7.458-1.465-7.933-6.831-.476-6.274-7.252-10.801-11.425-1.747-1.614-8.416-6.03-12.705-.794h.006Z" fill="#022749"/><path d="M123.384 51.621c-.169-6.362 5.047-11.637 11.609-11.586 6.187.043 11.177 5.074 11.49 11.136.276 5.318.432 10.673.213 12.588-.664 5.78-4.339 7.683-5.811 8.22-.332.126-1.233.207-1.59.22 0 0-.038.018-.038.043l.639 6.776c.15 4.41-4.533 5.118-6.806 5.456-3.526.525-8.046-.732-8.284-5.156l-1.428-27.697h.006Z" fill="#FFBE9D"/><path d="M143.721 55.075c.038.488-.344.92-.864.97-.513.05-.97-.307-1.008-.795-.037-.488.345-.92.864-.97.52-.05.971.307 1.008.795ZM144.967 52.61c-.112.125-.851-.363-1.859-.32-1.015.032-1.735.576-1.847.458-.057-.05.05-.276.363-.52.306-.244.839-.488 1.471-.513.633-.025 1.171.182 1.49.407.32.219.439.438.382.494v-.006ZM134.035 55.325c.037.488-.344.92-.864.97-.514.05-.971-.307-1.008-.795-.038-.488.344-.92.864-.97.52-.05.97.307 1.008.795ZM135.018 53.204c-.113.125-.851-.363-1.86-.319-1.014.032-1.734.576-1.847.457-.056-.05.05-.275.363-.52.307-.243.84-.487 1.472-.512.632-.025 1.171.181 1.49.406.32.22.438.438.382.495v-.007ZM139.038 60.424c-.006-.056.62-.188 1.634-.356.257-.038.501-.1.533-.276.05-.187-.069-.456-.207-.744-.269-.607-.557-1.239-.858-1.902-1.19-2.71-2.066-4.943-1.953-4.986.112-.044 1.164 2.114 2.36 4.823.288.67.564 1.308.827 1.915.112.281.294.606.181.988a.638.638 0 0 1-.407.388c-.163.056-.307.063-.438.081-1.027.094-1.659.126-1.666.07h-.006Z" fill="#022749"/><path d="M139.264 72.205s-3.895.475-8.923-2.209c0 0 1.778 5.012 9.098 4.036l-.169-1.827h-.006ZM138.725 62.84c-.388-.458-1.039-.69-1.666-.602-.438.063-.87.294-1.12.651-.251.363-.282.863-.025 1.189.288.369.864.432 1.346.275.476-.156.876-.482 1.258-.813.107-.088.213-.188.276-.307.063-.119.069-.275-.019-.369" fill="#EB996E"/><path d="M136.089 61.237c.163-.018.22 1.064 1.196 1.79.977.732 2.142.563 2.161.713.018.069-.251.219-.746.257a2.78 2.78 0 0 1-1.797-.532c-.594-.444-.87-1.064-.933-1.502-.062-.45.05-.72.126-.72l-.007-.006ZM135.394 51.446c-.088.276-1.102.188-2.286.376-1.183.168-2.129.55-2.298.312-.075-.112.082-.375.457-.65.37-.276.971-.55 1.685-.657.707-.106 1.371-.025 1.809.131.445.157.677.357.639.488h-.006ZM144.504 50.59c-.169.23-.877.024-1.716.05-.839 0-1.54.212-1.715-.013-.075-.113.025-.344.325-.57.295-.225.802-.419 1.378-.425.576 0 1.089.175 1.39.4.307.22.413.45.344.563l-.006-.006Z" fill="#022749"/><path d="M127.147 40.854c-2.592 1.827-4.233 4.767-4.696 7.864l-2.805 1.608 3.068 23.83-.407.483c1.747.131 4.032-1.42 5.266-2.666a6.18 6.18 0 0 0 1.747-4.786c-.201-2.465-1.898-4.817-1.322-7.22.376-1.57 1.666-2.802 2.06-4.373.295-1.188.044-2.358-.369-3.535a16.733 16.733 0 0 0 3.763-4.073c-.169.539-.332 1.07-.501 1.608 4.415-.807 8.197-4.273 9.336-8.533-3.982-3.635-10.751-3.322-15.153-.213l.013.006ZM142.356 40.88l-.056.187c.012.012.025.019.037.031l.019-.219Z" fill="#022749"/><path d="M109.533 60.862s.132-.056.382-.131c.288-.082.651-.188 1.108-.32.483-.143 1.052-.356 1.729-.581.657-.27 1.421-.532 2.229-.92 3.25-1.433 7.526-4.123 11.095-8.252 1.916-2.202 3.438-4.548 4.515-6.757l.213-.438.062.482c.063.463.126.913.182 1.351l-.213-.1c2.611-1.583 4.026-3.866 4.696-5.487.676-1.651.739-2.703.795-2.69.007 0 0 .063-.006.188a8.406 8.406 0 0 1-.069.544c-.081.476-.238 1.17-.557 2.015a11.592 11.592 0 0 1-4.702 5.668l-.182.113-.031-.22c-.063-.437-.126-.888-.194-1.345l.281.044c-1.077 2.24-2.598 4.617-4.539 6.838-3.607 4.173-7.952 6.857-11.252 8.246-.821.376-1.591.632-2.261.883-.682.206-1.265.406-1.753.531-.463.107-.833.194-1.127.263-.257.056-.395.081-.395.069l-.006.006ZM134.749 48.537c-.038-.038.463-.532 1.183-1.395a20.309 20.309 0 0 0 2.411-3.66 19.637 19.637 0 0 0 1.528-4.104c.276-1.089.376-1.783.426-1.777.025 0 .019.181 0 .494-.019.32-.088.776-.194 1.333a16.643 16.643 0 0 1-1.466 4.198c-.795 1.558-1.753 2.828-2.523 3.66-.388.419-.714.744-.958.944-.244.207-.382.313-.394.3l-.013.007Z" fill="#022749"/><path d="M148.443 113.459a10.297 10.297 0 0 1-.72-3.735c0-.769-.025-1.564-.282-2.283-.257-.726-1.077-1.402-1.822-1.22l-.269 5.649 3.093 1.589Z" fill="#FFBE9D"/><path d="m145.895 100.477-.921 19.477a.839.839 0 0 1-.751.794l-9.881 1.026a.839.839 0 0 1-.927-.851l.338-18.825a.838.838 0 0 1 .708-.813l10.469-1.677a.843.843 0 0 1 .977.869h-.012Z" fill="#022749"/><path d="M139.032 104.438c.088-.25.301-.576.714-.507.157-.006.488.175.545.444a.73.73 0 0 1-.251.713.671.671 0 0 1-.751.044.625.625 0 0 1-.257-.694Z" fill="#FAFAFA"/><path d="M141.586 108.192c.226.018 5.673 1.82 5.673 1.82l3.062 2.353s1.203 1.451.827 4.066c-.37 2.615-1.484 3.692-4.264 4.868h-5.604l-3.119-1.827a1.745 1.745 0 0 1-.839-1.764l.019-.119-.394-.47a.958.958 0 0 1-.119-1.057.963.963 0 0 1 1.296-.413l3.475 1.783 2.185-.056.207-.751-3.4-1.132-4.483-2.459a1.186 1.186 0 0 1-.445-1.658 1.19 1.19 0 0 1 1.453-.488l4.057 1.589 4.145 1.095-.851-1.439-5.091-2.646s-.614-1.552 2.217-1.289l-.007-.006Z" fill="#FFBE9D"/><path d="M150.322 112.365c-.05.068-1.453-.914-3.162-2.221l.05.025c-.069-.019-.138-.044-.207-.069-2.141-.701-3.857-1.333-3.826-1.42.025-.088 1.785.413 3.932 1.113.069.025.144.044.207.069h.025l.019.025c1.703 1.314 3.018 2.409 2.962 2.478ZM145.262 119.359c.012.038-.42.232-1.152.451-.72.206-1.854.438-3.006 0-.563-.207-1.045-.488-1.49-.726-.407-.225-.795-.444-1.165-.651-.657-.381-1.058-.632-1.033-.675.019-.038.457.144 1.14.469.382.188.782.381 1.196.588.451.225.933.488 1.459.682 1.052.413 2.11.231 2.836.087.739-.156 1.196-.275 1.209-.225h.006Z" fill="#EB996E"/><path d="M94.863 98.8c-.05.076-5.886-3.447-13.036-7.876-7.157-4.43-12.912-8.077-12.868-8.152.05-.075 5.886 3.447 13.037 7.877 7.15 4.423 12.911 8.077 12.867 8.152Z" fill="#022749"/><path d="M42.021 96.736c18.422 0 33.356-14.921 33.356-33.328 0-18.406-14.934-33.327-33.356-33.327-18.421 0-33.355 14.921-33.355 33.327 0 18.407 14.934 33.328 33.355 33.328Z" fill="#fff"/><path d="M46.737 42.43c-1.565-1.7-3.845-2.727-6.161-2.752a8.62 8.62 0 0 0-6.23 2.596c-1.547 1.602-2.518 3.86-4.509 4.862-1.922.97-4.433.556-6.117 1.901-2.993 2.39-.802 7.902-3.532 10.586-1.503 1.477-4.252 1.796-4.84 3.817-.608 2.09 1.76 4.048 1.534 6.212-.138 1.29-1.152 2.29-1.672 3.479-.945 2.158.063 4.967 2.16 6.043.714.363 1.528.551 2.148 1.058 1.346 1.101 1.24 3.153 1.891 4.761.852 2.09 3.244 3.435 5.473 3.066.72-.12 1.44-.395 2.154-.25 1.747.343 2.391 2.877 4.145 3.178 1.14.194 2.185-.676 2.88-1.602.695-.926 1.277-2.008 2.298-2.565 1.271-.695 2.824-.37 4.245-.119 1.259.219 2.555.37 3.807.106 1.253-.263 2.461-.982 3.037-2.12.501-.995.514-2.247 1.278-3.047.745-.782 1.978-.87 3.037-.651 1.058.219 2.06.688 3.13.844a5.464 5.464 0 0 0 4.584-1.539 5.475 5.475 0 0 0 1.496-4.598c-.125-.8-.426-1.614-.206-2.39.294-1.07 1.421-1.645 2.241-2.39 2.142-1.94 2.135-5.756-.012-7.689-.783-.707-1.86-1.289-2.042-2.334-.231-1.351 1.221-2.49 1.203-3.86-.02-1.501-1.71-2.358-3.162-2.753-1.453-.394-3.175-.87-3.67-2.29-.256-.725-.106-1.532-.332-2.27-.313-1.052-1.308-1.746-2.316-2.172-1.008-.425-1.603-.963-2.53-1.545-1.34-.844-1.835-2.909-3-3.985-1.164-1.076-3.105-.907-4.345.087" fill="#022749"/><path d="M21.089 89.21s2.724-10.017 14.439-11.806c11.722-1.783 12.642-2.152 12.642-2.152s14.27-2.628 17.714 11.393c0 0-5.14 7.213-19.267 9.766-14.295 2.584-25.528-7.207-25.528-7.207v.006Z" fill="#15A9F3"/><path d="M31.727 54.28c-.582-5.8 3.82-10.973 9.819-11.374 5.654-.375 10.557 3.88 11.258 9.397.613 4.837 1.12 9.723 1.052 11.487-.213 5.324-3.444 7.314-4.746 7.908-.301.132-1.115.275-1.44.313 0 0-.038.019-.032.044l1.046 6.15c.438 4.023-1.935 7.532-6.03 8.008-4.108.476-7.226-2.684-7.74-6.713l-3.187-25.207v-.013Z" fill="#FFBE9D"/><path d="M51.526 55.463c.069.444-.257.863-.727.945-.47.08-.907-.213-.976-.657-.07-.445.256-.864.72-.945.47-.081.908.213.977.657h.006ZM51.514 53.924c-.094.125-.802-.276-1.722-.163-.92.094-1.54.638-1.66.544-.056-.043.032-.256.301-.5a2.357 2.357 0 0 1 1.309-.57c.576-.062 1.083.088 1.39.27.307.181.432.369.382.425v-.006ZM42.479 56.808c.069.444-.257.863-.726.945-.47.081-.908-.213-.977-.657-.07-.444.256-.864.72-.945.47-.081.908.213.977.657h.006ZM42.466 55.213c-.093.118-.801-.276-1.721-.163-.92.094-1.54.638-1.66.544-.056-.044.025-.256.3-.5a2.357 2.357 0 0 1 1.31-.57c.575-.062 1.083.088 1.39.27.306.18.431.369.381.425v-.006ZM46.63 61.263c-.013-.05.551-.213 1.465-.438.232-.05.451-.126.47-.288.037-.175-.094-.413-.238-.67-.288-.531-.595-1.094-.908-1.676-1.271-2.397-2.223-4.374-2.123-4.424.1-.05 1.209 1.852 2.48 4.248.307.589.601 1.158.883 1.696.119.25.313.532.231.895a.586.586 0 0 1-.344.381c-.144.063-.276.082-.394.1-.927.157-1.51.232-1.522.182v-.006Z" fill="#022749"/><path d="M47.632 72.005s-3.525.7-8.303-1.408c0 0 1.966 4.46 8.585 3.066l-.282-1.658Z" fill="#EB996E"/><path d="M42.685 53.298c-.063.257-.996.244-2.066.5-1.071.232-1.91.645-2.08.439-.074-.1.05-.35.37-.626.32-.282.852-.57 1.49-.713.64-.144 1.246-.113 1.66 0 .42.112.638.281.613.4h.013ZM50.95 51.903c-.137.225-.8.088-1.565.163-.77.05-1.396.3-1.571.106-.075-.094 0-.313.257-.544.256-.225.7-.438 1.227-.482.526-.044 1.008.087 1.296.269.294.181.413.382.35.488h.007Z" fill="#022749"/><path d="M48.327 43.175c-.689 4.042-3.951 7.552-7.99 8.603.12-.5.232-1.001.35-1.502-1.852 3.379-5.052 6.025-8.765 7.245-2.424-4.285-1.315-10.185 2.51-13.332 3.826-3.147 10.013-3.892 13.895-.807" fill="#022749"/><path d="M36.023 54.925c-.927 1.677-.545 3.716.038 5.524.588 1.808 1.358 3.648 1.146 5.53-.2 1.746-1.24 3.33-1.472 5.069-.388 2.934 1.553 5.662 2.292 8.54.958 3.697-.207 7.814-2.993 10.573-.282.281-.633.57-1.046.55-.476-.025-.833-.463-.92-.9-.088-.439.018-.895.069-1.34.488-4.21-3.739-7.707-4.258-11.918-.338-2.74.933-5.405 1.19-8.152.319-3.453-.984-6.844-1.34-10.298-.126-1.182-.132-2.402.3-3.51.432-1.113 1.371-2.102 2.599-2.377 1.227-.27 2.686.363 3.03 1.508" fill="#022749"/><path d="M75.377 63.408s-.019-.181-.044-.538c-.025-.362-.056-.894-.094-1.582-.019-.35-.044-.739-.069-1.164-.044-.426-.131-.889-.206-1.395-.082-.5-.163-1.045-.257-1.62a6.607 6.607 0 0 0-.188-.89c-.081-.3-.163-.612-.244-.931-.582-2.578-1.79-5.625-3.688-8.853a33.145 33.145 0 0 0-8.453-9.428c-.476-.35-.952-.707-1.434-1.07-.507-.332-1.04-.632-1.56-.958-.538-.306-1.045-.675-1.621-.938-.57-.275-1.146-.55-1.722-.826-.294-.138-.582-.281-.877-.413a9302.4 9302.4 0 0 0-.92-.338c-.62-.225-1.24-.45-1.872-.682-.633-.212-1.303-.344-1.96-.525-.664-.15-1.315-.382-2.01-.457-1.371-.194-2.761-.475-4.202-.488-.713-.025-1.44-.094-2.166-.081l-2.198.112c-.37.026-.739.026-1.108.07l-1.108.168c-.74.125-1.49.207-2.236.363-1.465.4-2.986.695-4.427 1.295-.363.132-.732.27-1.102.407-.181.069-.37.131-.55.206l-.533.257c-.714.344-1.428.688-2.148 1.032-.701.382-1.371.82-2.066 1.233-.338.219-.701.4-1.027.65l-.977.732c-1.352.926-2.53 2.084-3.763 3.197-.557.613-1.12 1.233-1.69 1.858l-.426.47-.382.506-.758 1.014-.764 1.02-.67 1.088-.67 1.102-.332.55c-.1.188-.188.388-.281.582-.376.776-.752 1.558-1.127 2.34a535.5 535.5 0 0 0-.902 2.459 35.433 35.433 0 0 0-1.716 10.46c.05 3.598.626 7.139 1.71 10.467l.901 2.459c.376.782.752 1.564 1.127 2.34l.282.582.332.55.67 1.101.67 1.089.764 1.02.758 1.013.381.507.426.47 1.69 1.857c1.234 1.114 2.418 2.271 3.77 3.197l.977.732c.326.244.689.432 1.027.651.695.413 1.365.85 2.066 1.233.72.344 1.434.694 2.148 1.032l.532.256c.182.075.37.138.551.207l1.102.406c1.447.601 2.962.901 4.427 1.296.745.156 1.497.237 2.236.362l1.108.17c.37.05.739.043 1.108.068l2.198.113c.726.012 1.446-.056 2.166-.082 1.44-.006 2.825-.294 4.202-.488.695-.068 1.346-.306 2.01-.456.657-.182 1.321-.313 1.96-.526.626-.231 1.252-.457 1.872-.682l.92-.338c.295-.137.59-.275.877-.419.582-.281 1.159-.557 1.722-.826.576-.262 1.083-.632 1.622-.938.526-.325 1.058-.626 1.559-.957.482-.363.964-.72 1.434-1.07a33.023 33.023 0 0 0 8.447-9.428c1.897-3.229 3.105-6.276 3.688-8.853.081-.32.162-.632.244-.932.088-.3.156-.595.188-.889.094-.575.175-1.12.257-1.62.075-.5.162-.964.206-1.395.025-.426.044-.82.069-1.164.044-.688.075-1.22.094-1.583.025-.357.044-.538.044-.538s0 .181-.013.538c-.012.37-.037.895-.062 1.583-.013.35-.032.738-.05 1.17-.038.425-.126.894-.195 1.395-.075.507-.156 1.051-.244 1.633-.031.294-.1.588-.181.888-.076.3-.157.613-.238.939-.57 2.59-1.76 5.656-3.657 8.909a33.254 33.254 0 0 1-8.466 9.516c-.476.356-.958.72-1.446 1.082-.507.338-1.04.644-1.572.97-.538.306-1.052.682-1.628.95l-1.734.84c-.294.137-.589.28-.883.418l-.927.338c-.62.225-1.252.457-1.885.688-.638.213-1.308.35-1.972.532-.67.157-1.327.388-2.029.463-1.383.2-2.786.488-4.233.5-.72.026-1.452.1-2.185.088l-2.216-.112c-.37-.025-.745-.025-1.121-.07l-1.115-.168c-.745-.119-1.503-.207-2.254-.363-1.478-.4-3.012-.694-4.47-1.301-.37-.138-.74-.27-1.115-.407-.188-.069-.376-.131-.558-.206l-.538-.257c-.72-.344-1.44-.694-2.166-1.038-.708-.382-1.39-.826-2.092-1.246-.344-.219-.707-.406-1.04-.65l-.989-.738c-1.365-.933-2.554-2.103-3.807-3.229-.563-.62-1.133-1.245-1.703-1.87l-.426-.47-.388-.506-.77-1.026-.77-1.033-.676-1.1-.677-1.108-.338-.557-.288-.588c-.375-.782-.757-1.57-1.14-2.365-.3-.826-.607-1.652-.907-2.484a35.535 35.535 0 0 1-1.728-10.567c.05-3.635.638-7.207 1.734-10.567.307-.832.607-1.658.908-2.477.382-.789.764-1.577 1.14-2.36.093-.193.187-.393.288-.587l.338-.557.676-1.107.676-1.102.77-1.032.77-1.026.389-.507.425-.469 1.704-1.87c1.246-1.127 2.442-2.29 3.807-3.223l.989-.738c.326-.244.695-.431 1.033-.65.701-.413 1.378-.858 2.085-1.245.727-.35 1.447-.695 2.167-1.039l.538-.256c.182-.076.37-.138.558-.207.369-.138.745-.269 1.114-.407 1.459-.607 2.993-.9 4.47-1.301.752-.156 1.51-.238 2.255-.363l1.115-.169c.369-.05.745-.044 1.12-.069l2.217-.112c.733-.013 1.459.062 2.185.087 1.453.013 2.85.3 4.233.5.695.076 1.359.314 2.029.464.663.181 1.333.319 1.972.532.633.231 1.259.463 1.885.688.313.113.62.225.927.338.3.131.588.281.883.419l1.734.838c.576.263 1.09.638 1.628.951.526.326 1.064.632 1.572.97.488.363.97.726 1.446 1.082a33.16 33.16 0 0 1 8.466 9.516c1.897 3.254 3.087 6.32 3.656 8.916.082.319.163.632.238.938.082.3.15.6.182.889.088.581.169 1.126.244 1.632.069.507.157.97.194 1.402.019.432.038.82.05 1.17.025.688.05 1.22.063 1.589.013.357.013.538.013.538l.012.012Z" fill="#022749"/><path d="M46.893 63.302a46.376 46.376 0 0 0-1.615-.063c-.213 0-.432 0-.62.094-.263.138-.401.445-.432.745-.088.794.488 1.608 1.264 1.79.777.18 1.654-.301 1.923-1.052" fill="#EB996E"/><path d="M46.975 65.486s-.25.35-.933.475c-.37.031-.733-.1-1.127-.3-.188-.107-.407-.257-.526-.507a1.921 1.921 0 0 1-.194-.732 2.392 2.392 0 0 1 .062-.738c.032-.113.05-.263.194-.382.113-.081.176-.063.232-.081l.17-.013c.425-.018.788-.018 1.107-.025.627 0 1.021.019 1.021.063s-.382.106-1.008.169l-1.096.093-.15.02-.063.012s-.006.025-.019-.013c0-.019-.012-.037-.025-.05l-.018-.025c.025.038-.063-.094.056.088 0 0-.063.106-.081.212a2.476 2.476 0 0 0-.05.651c.018.22.068.432.156.613.069.163.225.288.388.388.332.188.695.338.958.326.583-.044.927-.3.946-.245ZM113.324 107.398V114l2.053-7.422" fill="#022749"/><path d="m121.445 104-7.512.097a.043.043 0 0 0-.019.004.055.055 0 0 0-.017.014l-.561.65c-.002.001-.003.004-.004.007v.008a.018.018 0 0 0 .005.007.01.01 0 0 0 .006.002l4.428-.09c.008-.002.015.001.021.006.006.006.01.015.012.025a.052.052 0 0 1-.005.028c-.005.008-.011.014-.019.015l-5.782 1.543a.005.005 0 0 0-.005.003l-1.98 2.293a.075.075 0 0 0-.013.038.082.082 0 0 0 .008.041.05.05 0 0 0 .025.025.04.04 0 0 0 .032-.002l11.398-4.594a.05.05 0 0 0 .026-.027.082.082 0 0 0 .006-.044.072.072 0 0 0-.018-.037.04.04 0 0 0-.032-.012Z" fill="#022749"/><path d="M113.334 104.778v1.181l4.896-1.308-4.896.127Z" fill="#022749"/></g><defs><clipPath id="a"><path fill="#fff" d="M0 0h281v288H0z"/></clipPath></defs></svg>