<svg width="281" height="292" fill="none" xmlns="http://www.w3.org/2000/svg"><g clip-path="url(#a)"><path d="M170.024 284.501c0 1.724-10.973 3.121-24.513 3.121-13.54 0-24.513-1.397-24.513-3.121 0-1.723 10.973-3.12 24.513-3.12 13.54 0 24.513 1.397 24.513 3.12Z" fill="#E0E0E0"/><path d="M97.26 82.523a26.645 26.645 0 0 1 6.486-2.819l1.334-6.422 10.847-.19 1.56 6.367a26.394 26.394 0 0 1 6.582 2.592l5.48-3.592 7.808 7.536-3.398 5.605a26.634 26.634 0 0 1 2.819 6.486l6.424 1.334.189 10.845-6.367 1.56a26.443 26.443 0 0 1-2.593 6.58l3.593 5.486-7.538 7.807-5.606-3.397a26.666 26.666 0 0 1-6.487 2.818l-1.333 6.423-10.848.189-1.56-6.373a26.508 26.508 0 0 1-6.581-2.592l-5.487 3.592-7.808-7.536 3.398-5.605a26.652 26.652 0 0 1-2.82-6.486l-6.423-1.334-.189-10.845 6.367-1.56a26.483 26.483 0 0 1 2.593-6.58l-3.593-5.486 7.538-7.807 5.606 3.397.006.007Zm5.781 14.45c-4.467 4.623-4.335 11.99.29 16.456 4.624 4.467 11.992 4.335 16.459-.289 4.467-4.624 4.335-11.99-.289-16.457-4.625-4.466-11.993-4.334-16.46.29Z" fill="#F5F5F5"/><path d="M161.077 101.452a20.297 20.297 0 0 1 5.286-1.07l2.019-4.573 8.117 1.585.151 4.995c1.604.78 3.12 1.774 4.498 2.976l4.663-1.806 4.618 6.863-3.423 3.636a20.29 20.29 0 0 1 1.07 5.285l4.574 2.019-1.586 8.115-4.995.151a20.325 20.325 0 0 1-2.976 4.492l1.805 4.661-6.858 4.618-3.636-3.422a20.336 20.336 0 0 1-5.286 1.069l-2.019 4.573-8.117-1.585-.151-4.995a20.439 20.439 0 0 1-4.498-2.975l-4.663 1.805-4.618-6.857 3.423-3.636a20.29 20.29 0 0 1-1.07-5.284l-4.574-2.02 1.586-8.115 4.995-.151a20.296 20.296 0 0 1 2.976-4.491l-1.805-4.662 6.858-4.617 3.636 3.428v-.012Zm2.014 11.694a8.876 8.876 0 0 0-2.404 12.318c2.737 4.064 8.255 5.139 12.32 2.403 4.064-2.737 5.14-8.254 2.403-12.318-2.737-4.063-8.255-5.139-12.319-2.403Z" fill="#EBEBEB"/><path d="M189.523 13.884s.05.031.151.113c.094.075.233.195.422.333.377.29.943.699 1.724 1.152.78.453 1.78.93 3.001 1.302a13.32 13.32 0 0 0 4.284.566c1.611-.038 3.354-.346 5.235-.63 1.875-.295 3.933-.452 6.066-.194 2.133.252 4.335.85 6.436 1.868a18.395 18.395 0 0 1 5.738 4.328 18.654 18.654 0 0 1 3.65 6.197 17.489 17.489 0 0 1 .981 6.624c-.075 2.145-.377 4.158-.434 6.046-.076 1.893.157 3.66.673 5.183a13.862 13.862 0 0 0 1.976 3.844 13.672 13.672 0 0 0 2.215 2.41c.333.301.667.528.937.741.289.195.529.365.73.491.195.12.352.214.466.277l.157.1s-.057-.025-.164-.081l-.472-.264c-.207-.12-.446-.283-.742-.472-.277-.208-.617-.434-.956-.736a13.857 13.857 0 0 1-2.259-2.403 13.825 13.825 0 0 1-2.02-3.863c-.535-1.535-.774-3.328-.711-5.234.044-1.906.34-3.925.415-6.052a17.336 17.336 0 0 0-.987-6.548 18.505 18.505 0 0 0-3.612-6.121c-1.623-1.837-3.593-3.271-5.675-4.284a20.021 20.021 0 0 0-6.368-1.862c-2.114-.258-4.146-.114-6.021.176-1.875.277-3.63.579-5.254.604a13.324 13.324 0 0 1-4.322-.598 14.195 14.195 0 0 1-3.008-1.346 14.28 14.28 0 0 1-1.711-1.19 7 7 0 0 1-.409-.351c-.088-.082-.138-.126-.132-.126Z" fill="#E0E0E0"/><path d="M200.288 0s.774.66 2.007 2.038c.61.692 1.334 1.56 2.045 2.661.711 1.095 1.435 2.435 1.806 4.058.094.402.157.824.195 1.258.025.434.025.874.019 1.327-.019.9-.032 1.83-.051 2.8-.044 1.931-.107 4-.069 6.171a19.67 19.67 0 0 0 1.284 6.63c.837 2.196 2.12 4.329 3.875 6.103a16.113 16.113 0 0 0 6.097 3.856c2.221.774 4.537 1.006 6.682.704 2.146-.289 4.128-.924 6.04-1.264.957-.17 1.894-.277 2.8-.264a13.51 13.51 0 0 1 2.58.283c1.617.346 3.007.962 4.134 1.623 1.132.673 2 1.409 2.642 2.07a12.267 12.267 0 0 1 1.359 1.629c.126.195.227.352.302.465.069.107.095.164.095.164s-.044-.05-.114-.151l-.314-.447c-.29-.39-.73-.95-1.384-1.591a12.892 12.892 0 0 0-2.643-2.026 13.883 13.883 0 0 0-4.102-1.579 13.189 13.189 0 0 0-2.548-.264c-.894 0-1.819.1-2.769.277-1.9.34-3.876.981-6.046 1.283-2.171.315-4.524.082-6.777-.698a16.23 16.23 0 0 1-6.185-3.907c-1.78-1.799-3.076-3.957-3.919-6.177a20 20 0 0 1-1.284-6.706c-.031-2.177.038-4.247.088-6.178.025-.969.044-1.9.063-2.8.013-.446.013-.886-.012-1.314a8.776 8.776 0 0 0-.183-1.233c-.359-1.598-1.063-2.925-1.762-4.026a22.896 22.896 0 0 0-2.007-2.674c-.597-.698-1.095-1.208-1.428-1.56-.164-.17-.289-.296-.384-.396a1.52 1.52 0 0 1-.126-.139L200.288 0Z" fill="#E0E0E0"/><path d="M206.278 10.619c.044.038-1.214 1.617-2.812 3.529-1.598 1.912-2.932 3.428-2.976 3.39-.044-.037 1.214-1.616 2.812-3.528 1.598-1.913 2.932-3.429 2.976-3.391ZM205.202 6.612c.044.044-2.152 2.334-4.907 5.127-2.75 2.786-5.015 5.013-5.059 4.976-.044-.044 2.152-2.334 4.908-5.127 2.749-2.787 5.014-5.014 5.058-4.976ZM202.956 2.894c.044.044-2.624 2.774-5.952 6.102-3.328 3.328-6.059 5.995-6.103 5.95-.044-.043 2.624-2.773 5.952-6.101s6.059-5.995 6.103-5.951ZM226.846 31.68c.038.044-1.516 1.447-3.473 3.127-1.957 1.686-3.574 3.013-3.612 2.963-.037-.044 1.517-1.447 3.474-3.127 1.956-1.68 3.573-3.013 3.611-2.963ZM224.77 26.176s-.12.157-.359.403c-.239.251-.598.61-1.044 1.044a104.038 104.038 0 0 1-7.324 6.435c-.491.39-.887.699-1.17.906-.277.208-.441.321-.447.309-.006-.013.132-.145.396-.372l1.127-.956c.95-.805 2.265-1.919 3.693-3.177a247.925 247.925 0 0 0 3.624-3.252c.434-.396.805-.73 1.095-.994.258-.233.409-.359.421-.346h-.012ZM221.586 21.942s-.151.151-.453.403c-.333.27-.761.623-1.277 1.044-1.082.88-2.561 2.108-4.159 3.51a131.638 131.638 0 0 0-4.014 3.674c-.485.46-.887.843-1.196 1.139-.283.27-.446.409-.459.402-.012-.006.132-.176.396-.459.265-.29.661-.692 1.152-1.182a83.081 83.081 0 0 1 3.983-3.724 88.34 88.34 0 0 1 4.203-3.467 47.69 47.69 0 0 1 1.321-.987c.314-.227.497-.346.503-.334v-.019ZM216.32 19.08s-.107.132-.327.34c-.258.232-.567.522-.938.861-.793.724-1.887 1.73-3.07 2.87a200.168 200.168 0 0 0-3.002 2.937c-.358.352-.66.654-.906.9-.213.207-.339.32-.352.308-.012-.013.094-.139.29-.371.195-.227.49-.554.855-.944a79.436 79.436 0 0 1 2.964-2.988 76.078 76.078 0 0 1 3.12-2.825c.409-.352.749-.629.982-.811.239-.189.371-.283.384-.27v-.007ZM212.243 16.822c.037.044-1.246 1.302-2.863 2.812-1.623 1.51-2.97 2.698-3.014 2.654-.038-.044 1.24-1.302 2.863-2.812 1.623-1.51 2.97-2.698 3.014-2.654ZM234.699 36.166s-.095.12-.29.308c-.233.22-.509.478-.837.78-.755.692-1.717 1.585-2.781 2.567a891.033 891.033 0 0 1-2.762 2.585c-.327.302-.61.566-.843.78-.201.183-.314.277-.327.264-.013-.012.088-.125.271-.327.182-.2.453-.484.792-.83.68-.692 1.636-1.63 2.718-2.636a93.945 93.945 0 0 1 2.825-2.522c.372-.315.674-.567.888-.73.213-.17.333-.258.346-.245v.006ZM239.833 38.103c.038.044-2.53 2.504-5.745 5.498-3.215 2.995-5.851 5.385-5.889 5.341-.038-.044 2.529-2.503 5.745-5.498 3.208-2.994 5.845-5.385 5.889-5.34ZM243.368 40.079c.044.044-2.724 2.843-6.184 6.259-3.461 3.416-6.292 6.152-6.336 6.108-.044-.044 2.724-2.843 6.185-6.265 3.454-3.416 6.291-6.153 6.335-6.109v.007ZM248.257 225.273s.038-.088.12-.257c.018-.044.044-.089.069-.139.025-.05.038-.113.063-.182.044-.132.1-.283.126-.459.018-.089.037-.183.05-.284.006-.1.012-.207.025-.32.013-.114.006-.227 0-.353-.006-.119 0-.251-.025-.383-.044-.529-.201-1.126-.441-1.774-.471-1.303-1.352-2.768-2.567-4.31-1.208-1.547-2.774-3.158-4.63-4.8-1.857-1.635-4.021-3.277-6.45-4.875a66.33 66.33 0 0 0-8.097-4.536 54.374 54.374 0 0 0-4.637-1.925 41.118 41.118 0 0 0-5.021-1.484c-1.737-.378-3.536-.648-5.373-.585-.913.038-1.838.157-2.712.465-.434.158-.85.365-1.227.636a3.811 3.811 0 0 0-.938 1.019 3.833 3.833 0 0 0-.44 1.308c-.05.46-.038.925.038 1.384.144.912.497 1.781.9 2.598.83 1.636 1.944 3.083 3.114 4.417a39.595 39.595 0 0 0 3.731 3.673 55.417 55.417 0 0 0 3.932 3.121 66.011 66.011 0 0 0 7.89 4.888c2.574 1.352 5.059 2.447 7.393 3.277 2.328.83 4.499 1.415 6.437 1.724 1.938.314 3.649.371 5.014.157.68-.107 1.278-.264 1.769-.478.125-.044.232-.113.346-.164.107-.056.213-.107.308-.17l.27-.176c.082-.063.151-.125.221-.182.144-.113.251-.233.339-.334.044-.05.095-.094.126-.138.032-.05.063-.088.088-.126.107-.151.164-.226.164-.226s-.05.082-.157.239c-.026.038-.057.082-.088.132l-.126.145c-.095.1-.195.226-.34.339-.069.057-.139.126-.22.189-.088.057-.176.113-.271.176-.094.069-.195.12-.308.176-.113.051-.22.126-.346.17-.491.22-1.089.378-1.775.491-1.371.22-3.089.17-5.033-.139-1.944-.301-4.121-.887-6.455-1.711-2.335-.824-4.826-1.918-7.406-3.271a65.128 65.128 0 0 1-7.909-4.881 57.485 57.485 0 0 1-3.945-3.127 40.345 40.345 0 0 1-3.737-3.68c-1.177-1.34-2.29-2.793-3.127-4.441-.409-.825-.761-1.699-.912-2.63a5.043 5.043 0 0 1-.038-1.415c.069-.472.214-.931.453-1.353.251-.409.585-.761.962-1.051.391-.276.812-.49 1.259-.647.887-.321 1.824-.435 2.743-.472 1.85-.063 3.662.207 5.398.585 1.743.39 3.423.899 5.034 1.491a57.288 57.288 0 0 1 4.643 1.931 66.326 66.326 0 0 1 8.104 4.548c2.429 1.604 4.6 3.253 6.449 4.894 1.85 1.642 3.417 3.265 4.625 4.819 1.208 1.554 2.089 3.026 2.561 4.335.232.654.383 1.251.427 1.786.019.132.013.264.019.384 0 .126.007.239 0 .352-.006.113-.019.22-.025.321-.012.101-.038.195-.056.283-.026.183-.089.333-.133.466-.025.063-.044.125-.062.182l-.07.138c-.088.164-.132.252-.132.252l.019-.013Z" fill="#E0E0E0"/><path d="M251.667 208.181s-.031-.094-.081-.27c-.013-.044-.026-.094-.044-.151a1.282 1.282 0 0 0-.076-.176c-.057-.126-.113-.277-.214-.428-.05-.076-.094-.164-.151-.245a31.519 31.519 0 0 0-.195-.252c-.063-.094-.145-.176-.233-.264-.088-.088-.17-.189-.27-.271-.39-.365-.9-.711-1.51-1.031-1.221-.655-2.85-1.164-4.788-1.51-1.932-.352-4.178-.51-6.651-.503-2.473.012-5.184.226-8.06.654a65.906 65.906 0 0 0-9.06 2 55.536 55.536 0 0 0-4.744 1.648 40.41 40.41 0 0 0-4.731 2.234c-1.548.874-3.071 1.874-4.398 3.139-.655.635-1.271 1.34-1.712 2.151-.22.409-.39.843-.491 1.29-.088.453-.1.925-.018 1.384.1.453.289.881.547 1.271.27.377.591.717.95 1.006.717.585 1.554 1 2.403 1.34 1.712.667 3.505 1.007 5.267 1.227 1.768.207 3.517.283 5.228.258a54.122 54.122 0 0 0 5.015-.29 66.273 66.273 0 0 0 9.142-1.604c2.825-.704 5.405-1.541 7.701-2.472 2.29-.931 4.297-1.938 5.952-3.001 1.655-1.057 2.97-2.151 3.845-3.221.434-.534.78-1.05 1-1.535.063-.119.101-.239.145-.352.044-.113.088-.22.113-.333.031-.107.057-.214.082-.309.019-.1.031-.195.044-.283.037-.176.031-.339.031-.478v-.189a5.23 5.23 0 0 0-.019-.157 22.28 22.28 0 0 0-.031-.283s.019.094.044.277l.019.157v.189c0 .138 0 .302-.025.478-.013.088-.026.189-.044.289-.026.101-.051.202-.082.315-.025.113-.069.22-.113.333-.051.114-.082.239-.145.359-.22.491-.56 1.006-.994 1.547-.875 1.082-2.19 2.183-3.845 3.246-1.654 1.07-3.661 2.083-5.958 3.02-2.29.937-4.882 1.78-7.707 2.491a65.26 65.26 0 0 1-9.155 1.617c-1.63.17-3.31.27-5.021.289a41.018 41.018 0 0 1-5.241-.258c-1.768-.22-3.568-.559-5.292-1.233-.855-.339-1.698-.761-2.435-1.352a5.218 5.218 0 0 1-.968-1.032 3.75 3.75 0 0 1-.56-1.308 3.84 3.84 0 0 1 .018-1.422c.107-.466.284-.906.504-1.321.447-.83 1.069-1.535 1.73-2.183 1.334-1.277 2.869-2.284 4.417-3.158a40.921 40.921 0 0 1 4.744-2.239 55.437 55.437 0 0 1 4.75-1.649 65.25 65.25 0 0 1 9.079-1.994c2.882-.421 5.594-.635 8.073-.642 2.479-.006 4.719.164 6.657.516 1.938.353 3.573.868 4.794 1.529.61.333 1.126.679 1.51 1.051.107.081.183.188.271.276.088.088.17.176.232.271.07.088.133.176.195.258.057.088.101.17.151.251.101.151.158.309.208.434.025.063.05.12.069.177.013.056.025.107.038.151.05.182.069.276.069.276h.025Z" fill="#E0E0E0"/><path d="M239.096 190.24s-.088-.031-.264-.101a5.063 5.063 0 0 0-.145-.056c-.056-.019-.119-.032-.182-.051-.132-.031-.289-.081-.472-.094a3.128 3.128 0 0 0-.289-.031h-.321c-.113 0-.227.006-.353.018-.119.019-.251.019-.377.051-.529.082-1.114.277-1.743.56-1.265.56-2.668 1.541-4.121 2.856-1.46 1.315-2.964 2.988-4.467 4.944-1.504 1.963-2.995 4.234-4.423 6.769a66.109 66.109 0 0 0-3.971 8.386 55.594 55.594 0 0 0-1.604 4.756 40.316 40.316 0 0 0-1.133 5.108c-.258 1.755-.402 3.573-.207 5.397.1.906.283 1.825.654 2.674.189.421.428.824.717 1.183a3.74 3.74 0 0 0 1.076.861c.422.202.875.315 1.34.346.466.019.925-.031 1.378-.132.9-.207 1.743-.616 2.53-1.075 1.573-.944 2.944-2.152 4.196-3.41a40.765 40.765 0 0 0 3.411-3.97 56.614 56.614 0 0 0 2.843-4.139 64.759 64.759 0 0 0 4.329-8.209c1.171-2.661 2.095-5.215 2.762-7.6.667-2.384 1.101-4.586 1.278-6.542.176-1.957.119-3.661-.189-5.014-.151-.673-.352-1.258-.598-1.73-.05-.119-.132-.226-.189-.333-.063-.107-.119-.208-.195-.296-.069-.088-.132-.176-.195-.258a5.834 5.834 0 0 0-.201-.207c-.12-.139-.252-.233-.359-.321-.056-.044-.1-.082-.151-.12-.05-.031-.094-.056-.132-.082-.157-.094-.239-.151-.239-.151s.082.044.246.139c.037.025.088.05.138.082.05.031.094.075.151.113.107.088.239.182.365.314.063.063.132.133.201.208.063.082.126.164.195.258.076.088.132.189.195.296.063.107.139.213.195.333.252.472.453 1.063.611 1.736.314 1.353.377 3.07.207 5.027-.17 1.962-.597 4.17-1.264 6.555-.661 2.384-1.586 4.944-2.756 7.611a65.154 65.154 0 0 1-4.329 8.223 56.411 56.411 0 0 1-2.844 4.145 39.353 39.353 0 0 1-3.416 3.982c-1.252 1.265-2.63 2.479-4.216 3.429-.793.465-1.642.88-2.561 1.088a5.274 5.274 0 0 1-1.409.138 3.914 3.914 0 0 1-1.378-.358 3.823 3.823 0 0 1-1.114-.887 5.183 5.183 0 0 1-.736-1.208c-.377-.862-.56-1.787-.66-2.705-.195-1.837-.044-3.668.213-5.429a39.543 39.543 0 0 1 1.139-5.121 55.158 55.158 0 0 1 1.611-4.762 66.166 66.166 0 0 1 3.983-8.398c1.434-2.535 2.925-4.806 4.442-6.769 1.51-1.963 3.02-3.63 4.486-4.944 1.466-1.315 2.875-2.29 4.146-2.85.636-.277 1.227-.472 1.756-.554.132-.031.258-.031.383-.044.12-.012.24-.025.353-.019h.321c.1.007.195.025.289.038.183.013.34.063.472.101.069.019.132.031.182.05.051.025.101.044.145.063l.258.113.006.019ZM205.888 227.438a.894.894 0 0 1 .245 1.245.894.894 0 0 1-1.245.245.893.893 0 0 1-.246-1.245.895.895 0 0 1 1.246-.245ZM250.201 190.265a.9.9 0 0 1-.704 1.057.901.901 0 0 1-1.057-.705.9.9 0 0 1 .704-1.056.9.9 0 0 1 1.057.704ZM212.029 229.23a.23.23 0 1 1-.453.088.23.23 0 0 1 .182-.27.23.23 0 0 1 .271.182ZM211.909 203.589a.23.23 0 1 1-.27-.182.229.229 0 0 1 .27.182ZM249.245 208.659a.23.23 0 0 1-.182.271.23.23 0 1 1-.088-.453.23.23 0 0 1 .27.182ZM250.29 197.6a.23.23 0 1 1-.453.088.228.228 0 0 1 .182-.27.23.23 0 0 1 .271.182Z" fill="#E0E0E0"/><path d="M232.194 212.019a4.366 4.366 0 0 1-3.441 5.139 4.373 4.373 0 0 1-5.141-3.441 4.367 4.367 0 0 1 3.442-5.139 4.371 4.371 0 0 1 5.14 3.441Z" fill="#E0E0E0"/><path d="M199.59 72.854a38.88 38.88 0 0 0-8.576-13.374c-6.493-6.625-13.886-12.494-22.248-16.602-8.368-4.114-22.009-7.763-31.944-7.712-5.128-.195-7.72.125-12.388 1.925-2.92 1.126-5.367 3.724-5.569 6.8-.188 2.85 1.573 6.354 3.927 8.014 10.117 7.128 17.78 7.505 27.596 10.644 9.809 3.14 19.907 7.788 25.198 16.52 2.869 4.737 4.512 10.795 9.495 13.311 4.832 2.435 11.206.07 14.163-4.41 2.957-4.478 2.258-10.109.346-15.116Z" fill="#F5F5F5"/><path d="M65.064 162.366s-.245.144-.73.408c-.484.271-1.22.642-2.152 1.196a79.443 79.443 0 0 0-7.915 5.152 81.888 81.888 0 0 0-11.168 9.902 81.776 81.776 0 0 0-5.977 7.152 53.012 53.012 0 0 0-5.43 8.908c-.761 1.661-1.466 3.403-2.02 5.234-.534 1.837-.937 3.755-1.12 5.743a21.936 21.936 0 0 0 .321 6.065c.176 1.019.504 2.013.83 3.013.378.981.813 1.956 1.354 2.881 2.126 3.731 5.486 6.863 9.456 9.128 3.977 2.277 8.57 3.655 13.333 4.448 2.39.396 4.826.667 7.305.855 1.239.107 2.485.145 3.737.202 1.252.056 2.516.107 3.781.163 1.265.082 2.542.05 3.826.05 1.283 0 2.573-.006 3.863-.012 1.296.025 2.592-.082 3.9-.132 1.31-.063 2.618-.12 3.933-.183 10.533-.635 21.367-2.315 32.271-4.844 21.833-5.07 41.784-12.971 59.351-21.168 8.796-4.07 17.032-8.323 23.966-13.456 3.466-2.554 6.568-5.36 9.223-8.348.328-.377.661-.749.982-1.12.321-.371.61-.774.919-1.151.302-.384.604-.767.899-1.151.277-.397.554-.793.825-1.189a27.222 27.222 0 0 0 2.812-4.85c1.491-3.328 2.341-6.794 2.202-10.085-.138-3.277-1.39-6.328-3.485-8.341-2.077-2.045-4.707-3.07-7.135-3.523-2.454-.453-4.757-.34-6.77 0-2.02.34-3.769.868-5.26 1.384a67.31 67.31 0 0 0-3.725 1.447c-.988.428-1.743.749-2.259.969-.51.22-.774.327-.774.327s.252-.126.755-.359c.503-.226 1.252-.572 2.246-1 .994-.428 2.228-.95 3.719-1.478 1.491-.529 3.24-1.07 5.272-1.422 2.02-.359 4.348-.478 6.821-.032 2.447.453 5.115 1.479 7.235 3.548 2.14 2.039 3.423 5.146 3.568 8.468.151 3.334-.705 6.838-2.202 10.191a27.316 27.316 0 0 1-2.819 4.888c-.277.396-.547.793-.824 1.195-.302.384-.598.768-.906 1.158-.309.383-.598.786-.925 1.163-.327.372-.655.749-.988 1.127-2.662 3.007-5.776 5.825-9.255 8.398-6.953 5.165-15.201 9.436-23.997 13.512-17.574 8.222-37.544 16.136-59.402 21.219-21.814 5.102-43.47 6.53-62.742 3.869-4.788-.805-9.413-2.189-13.427-4.498-4.001-2.283-7.399-5.454-9.55-9.241a19.265 19.265 0 0 1-1.366-2.925c-.334-1.013-.66-2.02-.837-3.058a22.19 22.19 0 0 1-.315-6.133c.19-2.007.598-3.938 1.14-5.788.56-1.843 1.276-3.592 2.044-5.265a52.746 52.746 0 0 1 5.474-8.933 80.077 80.077 0 0 1 6.015-7.153 80.444 80.444 0 0 1 11.225-9.876 76.591 76.591 0 0 1 7.959-5.102c1.887-1.057 2.913-1.541 2.913-1.541v-.006Z" fill="#E0E0E0"/><path d="m247.785 106.673-7.877 28.963-23.915 6.612c-.774.213-1.252 1.056-1.089 1.931l26.162-6.731.924-.29 31.019-8.304 3.442-13.732 4.473-16.105c.328-.981-.484-1.981-1.396-1.73l-30.912 8.486c-.403.114-.717.453-.831.9Z" fill="#EBEBEB"/><path d="m249.396 107.61-7.167 26.371 28.1-7.712 6.292-25.994-27.225 7.335Z" fill="#FAFAFA"/><path d="M279.528 97.287s0 .05-.025.151c-.025.12-.057.264-.101.447-.101.409-.233.981-.409 1.705-.377 1.503-.906 3.648-1.573 6.309-1.365 5.373-3.259 12.821-5.405 21.232l-.025.094-.094.025c-1.441.39-2.957.799-4.499 1.214-9.45 2.523-18.001 4.8-24.217 6.461-3.083.805-5.587 1.46-7.349 1.919-.849.214-1.523.383-2.001.509l-.522.126a.879.879 0 0 1-.183.032.76.76 0 0 1 .17-.063c.133-.038.302-.095.516-.158.478-.138 1.139-.327 1.989-.566 1.749-.484 4.247-1.176 7.323-2.019 6.21-1.68 14.755-3.995 24.192-6.555 1.542-.415 3.058-.824 4.499-1.208l-.113.113c2.183-8.404 4.115-15.84 5.505-21.206a3741.17 3741.17 0 0 0 1.667-6.285c.196-.717.353-1.283.466-1.692.05-.176.094-.32.126-.434.031-.1.05-.145.05-.145l.013-.006Z" fill="#E0E0E0"/><path d="M66.418 218.746c5.66-3.318 7.556-10.595 4.237-16.253-3.319-5.658-10.597-7.555-16.256-4.237-5.659 3.318-7.556 10.595-4.237 16.254 3.319 5.658 10.597 7.555 16.256 4.236Z" fill="#EBEBEB"/><path d="M56.4 208.905a1.938 1.938 0 1 1-1.83-3.416 1.938 1.938 0 0 1 1.83 3.416ZM60.03 203.841a1.122 1.122 0 0 1-1.522-.459 1.122 1.122 0 0 1 .46-1.523 1.122 1.122 0 0 1 1.522.459 1.13 1.13 0 0 1-.46 1.529v-.006Z" fill="#fff" opacity=".3"/><path d="M52.405 199.72c-.157.145-13.628-4.233-14.226-.924-.598 3.308 9.362 10.543 20.55 15.267 11.186 4.725 23.43 7.958 24.474 4.718 1.045-3.239-10.929-10.216-10.929-10.216l-.125 1.667s7.405 4.127 6.908 6.958c-.503 2.831-9.658.434-19.794-4.441-10.136-4.876-18.385-10.412-17.428-12.475.956-2.057 9.337.748 9.337.748l1.233-1.302Z" fill="#E0E0E0"/><path d="M64.68 198.789c-.056.139-1.038-.245-2.68-.402-1.623-.164-3.958 0-6.166 1.126-2.209 1.132-3.719 2.925-4.537 4.334-.836 1.422-1.1 2.441-1.245 2.403-.101-.012-.07-1.113.666-2.711a10.22 10.22 0 0 1 1.706-2.548 10.583 10.583 0 0 1 2.988-2.302c1.208-.611 2.46-.95 3.618-1.07a10.197 10.197 0 0 1 3.064.12c1.724.339 2.636.956 2.586 1.05Z" fill="#fff" opacity=".3"/><path d="m47.604 20.678.61 2.818a3.26 3.26 0 0 1-.944 3.058l-18.913 17.91c-2.296 2.176-1.856 5.944.875 7.536l11.954 6.951c2.92 1.699 6.644.082 7.406-3.208l5.832-25.283a3.251 3.251 0 0 1 2.29-2.403l2.41-.68-11.527-6.7h.007Z" fill="#F5F5F5"/><path d="M51.165 40.582a8.53 8.53 0 0 1-3.536-2.158c-.944-.962-1.642-2.139-2.536-3.151-.893-1.013-2.076-1.888-3.422-1.944l-11.798 11.55c-1.9 1.862-1.503 5.02.793 6.353l10.715 6.228c2.297 1.334 5.229.126 5.914-2.44l3.87-14.438Z" fill="#E0E0E0"/><path d="M32.824 50.704c-.025.038-.302-.07-.648-.466-.333-.396-.667-1.126-.673-2.07 0-.465.07-.987.264-1.51a6.341 6.341 0 0 1 .818-1.528c.698-.994 1.63-1.875 2.548-2.837 3.731-3.819 6.89-6.781 7.053-6.618.164.164-2.724 3.385-6.455 7.203-.925.963-1.862 1.824-2.53 2.705-.333.44-.603.887-.792 1.328a3.989 3.989 0 0 0-.315 1.276c-.063.818.139 1.466.353 1.869.22.403.415.598.377.648Z" fill="#fff" opacity=".3"/><path d="M49.636 42.368s-.164 0-.46-.037a13.98 13.98 0 0 1-1.239-.208c-.516-.113-1.139-.277-1.774-.604a4.977 4.977 0 0 1-.925-.622 5.683 5.683 0 0 1-.805-.881c-.491-.654-.875-1.321-1.284-1.881-.403-.56-.85-1.013-1.27-1.315a3.168 3.168 0 0 0-1.114-.522c-.284-.063-.453-.063-.453-.076 0 0 .037-.006.12-.012.08 0 .194 0 .345.025.296.05.724.182 1.164.484.447.302.906.749 1.328 1.322.421.566.811 1.233 1.29 1.874.245.315.497.61.78.856.283.245.585.446.887.61.61.327 1.214.497 1.724.629.51.126.931.201 1.227.258.29.056.453.088.447.1h.012Z" fill="#FAFAFA"/><path d="M72.431 17.551c-.195-1.252-1.025-2.315-1.95-3.19-1.605-1.522-3.618-2.673-5.808-2.975a8.722 8.722 0 0 0-6.606 1.85c-1.825 1.484-2.85 3.51-3.008 5.857-.213 1.478 1.334 2.73 2.826 2.812 1.49.081 2.894-.642 4.24-1.303 1.34-.66 2.819-1.29 4.291-1.019 1.491.277 2.895 1.466 4.348 1.038 1.22-.358 1.862-1.811 1.667-3.063v-.007ZM82.297 15.104c-.088-1.164-.988-3.007-3.127-2.743-.881-.019-1.831 1.089-2.064 1.944-.226.856.113 1.812.787 2.384.673.573 1.623.774 2.491.585 1.032-.22 1.995-1.126 1.913-2.176v.006Z" fill="#F5F5F5"/><path d="m.453 109.133-.327.874a2.055 2.055 0 0 0 .107 1.667l17.806 34.065c.264.509.736.887 1.29 1.032l1.006.27c.227.063.466.082.698.063l20.789-1.636a2.056 2.056 0 0 0 1.894-1.937 2.104 2.104 0 0 0-.24-1.088l-18.85-35.185a2.068 2.068 0 0 0-1.976-1.082L2.228 107.78c-.799.063-1.491.585-1.768 1.334l-.006.019Z" fill="#E0E0E0"/><path d="m1.755 108.648 18.889 35.304 21.404-1.679-18.743-35.317-21.55 1.692Z" fill="#FAFAFA"/><path d="M22.82 135.435a3.177 3.177 0 0 1 4.166 1.673 3.176 3.176 0 0 1-1.674 4.164 3.171 3.171 0 0 1-4.165-1.673 3.17 3.17 0 0 1 1.674-4.164Z" fill="#E0E0E0"/><path d="m24.104 136.869-.088.572c-.013.07.031.139.094.17l.107.044s.195.051.132.227c-.044.126-.365.912-.365.912s-.081.207-.239.138l-.157-.063a.148.148 0 0 0-.151.038l-.403.503a.129.129 0 0 0 .013.177l.145.144s.056.044.094.057a.53.53 0 0 0 .302.006c.189-.056.749-.453 1.107-1.485.34-.987.02-1.358-.056-1.453a.457.457 0 0 0-.264-.125h-.12a.155.155 0 0 0-.151.132v.006Z" fill="#fff"/><path d="M31.132 139.473a3.17 3.17 0 0 1-.353-4.472 3.172 3.172 0 1 1 4.826 4.12 3.17 3.17 0 0 1-4.473.352Z" fill="#E0E0E0"/><path d="m31.85 137.693.553-.176a.15.15 0 0 0 .107-.157v-.12s-.05-.195.138-.22c.132-.019.982-.076.982-.076s.22-.018.233.158l.012.17c0 .056.044.106.1.119l.63.138a.14.14 0 0 0 .157-.088l.063-.195c.013-.037.013-.075.013-.113a.542.542 0 0 0-.126-.277c-.132-.144-.736-.471-1.818-.327-1.032.132-1.227.585-1.278.698a.475.475 0 0 0 0 .296c.013.025.032.063.057.107a.148.148 0 0 0 .183.076l-.007-.013Z" fill="#fff"/><path d="M21.99 121.834c.799-.56 1.038-1.686.497-2.894-.717-1.579-2.504-2.686-3.99-2.478-1.484.213-2.107 1.66-1.39 3.239.554 1.214 1.743 2.145 2.939 2.416-3.838 1.227-1.586 5.681-1.586 5.681l10.526-.825s-2.617-5.12-6.99-5.139h-.006ZM34.423 130.553c.012.163-3.775.598-8.463.969-4.687.371-8.5.534-8.513.365-.012-.164 3.775-.598 8.47-.969 4.686-.371 8.5-.535 8.512-.365h-.006ZM39.443 251.242l.693 1.145a7.875 7.875 0 0 0 3.246 2.988l1.196.591-1.146.692a7.874 7.874 0 0 0-2.988 3.246l-.592 1.196-.692-1.145a7.86 7.86 0 0 0-3.246-2.988l-1.196-.592 1.145-.692a7.874 7.874 0 0 0 2.989-3.246l.591-1.195ZM261.376 26.176l.692 1.145a7.873 7.873 0 0 0 3.246 2.988l1.196.591-1.145.692a7.87 7.87 0 0 0-2.989 3.246l-.591 1.196-.693-1.145a7.867 7.867 0 0 0-3.246-2.988l-1.196-.592 1.146-.692a7.874 7.874 0 0 0 2.988-3.246l.592-1.195ZM269.259 43.947l.598.994a6.807 6.807 0 0 0 2.819 2.599l1.044.515-.994.598a6.842 6.842 0 0 0-2.598 2.818l-.516 1.045-.598-.994a6.8 6.8 0 0 0-2.819-2.599l-1.044-.515.994-.598a6.807 6.807 0 0 0 2.599-2.818l.515-1.044ZM26.143 238.302l.49.811a5.557 5.557 0 0 0 2.297 2.114l.85.421-.812.491a5.551 5.551 0 0 0-2.114 2.296l-.422.85-.49-.812a5.557 5.557 0 0 0-2.297-2.114l-.85-.421.812-.491a5.551 5.551 0 0 0 2.114-2.296l.422-.849ZM234.289 247.191l.491.811a5.554 5.554 0 0 0 2.296 2.114l.85.421-.812.491a5.554 5.554 0 0 0-2.114 2.296l-.421.849-.491-.811a5.562 5.562 0 0 0-2.297-2.114l-.849-.421.812-.491a5.554 5.554 0 0 0 2.114-2.296l.421-.849ZM20.07 15.243l.492.811a5.553 5.553 0 0 0 2.296 2.114l.85.421-.812.491a5.554 5.554 0 0 0-2.114 2.296l-.422.85-.49-.812a5.554 5.554 0 0 0-2.297-2.114l-.85-.421.812-.491a5.553 5.553 0 0 0 2.114-2.296l.422-.85ZM261.923 163.328l.491.812a5.551 5.551 0 0 0 2.296 2.113l.85.422-.812.49a5.562 5.562 0 0 0-2.114 2.297l-.422.849-.49-.812a5.553 5.553 0 0 0-2.297-2.113l-.849-.422.811-.491a5.547 5.547 0 0 0 2.114-2.296l.422-.849ZM18 73.703l.491.811a5.554 5.554 0 0 0 2.297 2.114l.85.422-.812.49a5.553 5.553 0 0 0-2.114 2.296l-.422.85-.49-.812a5.553 5.553 0 0 0-2.297-2.113l-.85-.422.812-.49a5.554 5.554 0 0 0 2.114-2.297l.422-.849Z" fill="#EBEBEB"/><path d="M270.21 279.293c0 .088-55.834.163-124.686.163-68.851 0-124.698-.075-124.698-.163 0-.089 55.821-.164 124.698-.164s124.686.075 124.686.164Z" fill="#022749"/><path d="m51.184 84.039.453.755a5.168 5.168 0 0 0 2.14 1.969l.786.39-.755.453a5.167 5.167 0 0 0-1.97 2.139l-.39.786-.453-.755a5.166 5.166 0 0 0-2.139-1.969l-.786-.39.755-.453a5.168 5.168 0 0 0 1.97-2.139l.39-.786ZM214.502 166.889l.453.754a5.157 5.157 0 0 0 2.139 1.969l.786.391-.755.452a5.17 5.17 0 0 0-1.969 2.139l-.39.787-.453-.755a5.17 5.17 0 0 0-2.139-1.969l-.787-.39.755-.453a5.172 5.172 0 0 0 1.97-2.139l.39-.786ZM125.793 11.305l.453.755a5.165 5.165 0 0 0 2.139 1.968l.786.39-.755.453a5.167 5.167 0 0 0-1.969 2.14l-.39.786-.453-.755a5.17 5.17 0 0 0-2.139-1.97l-.787-.39.755-.452a5.17 5.17 0 0 0 1.97-2.14l.39-.785ZM231.993 82.397l.453.755a5.17 5.17 0 0 0 2.139 1.969l.787.39-.755.453a5.168 5.168 0 0 0-1.97 2.139l-.39.786-.453-.755a5.163 5.163 0 0 0-2.139-1.969l-.787-.39.755-.453a5.17 5.17 0 0 0 1.97-2.139l.39-.786ZM68.386 113.109l.334.547a3.776 3.776 0 0 0 1.56 1.434l.579.283-.547.334a3.771 3.771 0 0 0-1.435 1.56l-.283.579-.334-.548a3.776 3.776 0 0 0-1.56-1.434l-.579-.283.547-.334a3.771 3.771 0 0 0 1.435-1.56l.283-.578ZM83.436 183.61l.333.547a3.777 3.777 0 0 0 1.56 1.434l.58.283-.548.334a3.771 3.771 0 0 0-1.434 1.56l-.283.578-.334-.547a3.776 3.776 0 0 0-1.56-1.434l-.58-.283.548-.334a3.77 3.77 0 0 0 1.435-1.56l.283-.578ZM227.054 61.046l.333.547a3.77 3.77 0 0 0 1.56 1.434l.579.284-.547.333a3.772 3.772 0 0 0-1.435 1.56l-.283.579-.333-.547a3.773 3.773 0 0 0-1.561-1.435l-.578-.283.547-.333a3.772 3.772 0 0 0 1.435-1.56l.283-.58ZM38.928 98.237l.333.547a3.775 3.775 0 0 0 1.56 1.435l.58.283-.548.333a3.771 3.771 0 0 0-1.435 1.56l-.283.579-.333-.547a3.772 3.772 0 0 0-1.56-1.435l-.58-.283.548-.333a3.772 3.772 0 0 0 1.434-1.56l.284-.579ZM242.966 64.43l.189.315c.214.352.522.642.893.824l.327.164-.314.188a2.162 2.162 0 0 0-.824.894l-.164.327-.189-.315a2.171 2.171 0 0 0-.893-.824l-.327-.163.314-.19c.353-.213.642-.521.824-.893l.164-.327ZM231.2 154.999l.189.315c.214.352.522.641.893.824l.327.163-.314.189a2.173 2.173 0 0 0-.825.893l-.163.327-.189-.314a2.164 2.164 0 0 0-.893-.824l-.328-.164.315-.189c.352-.213.642-.522.824-.893l.164-.327ZM149.84 4.234l.189.314c.214.353.522.642.894.824l.327.164-.315.189a2.176 2.176 0 0 0-.824.893l-.164.327-.188-.315a2.174 2.174 0 0 0-.894-.824l-.327-.163.315-.189c.352-.214.641-.522.824-.893l.163-.327ZM113.8 20.294l.189.315c.214.352.522.641.894.824l.327.163-.315.189a2.17 2.17 0 0 0-.824.893l-.164.328-.188-.315a2.174 2.174 0 0 0-.894-.824l-.327-.164.315-.188c.352-.214.641-.523.824-.894l.163-.327ZM87.463 191.876l.189.314c.214.352.522.642.893.824l.327.164-.314.189a2.166 2.166 0 0 0-.824.893l-.164.327-.189-.315a2.177 2.177 0 0 0-.893-.824l-.327-.163.314-.189c.353-.214.642-.522.825-.893l.163-.327Z" fill="#15A9F3"/><path d="m180.041 238.314-78.006-.182c-3.234-.006-5.851-2.284-5.845-5.083 0-2.799 2.63-5.058 5.864-5.052l78.006.183c3.234.006 5.852 2.283 5.845 5.083-.006 2.799-2.63 5.064-5.864 5.051ZM180.041 226.01l-78.006-.183c-3.234-.006-5.851-2.283-5.845-5.083 0-2.799 2.63-5.058 5.864-5.051l78.006.182c3.234.006 5.852 2.284 5.845 5.083-.006 2.799-2.63 5.064-5.864 5.052ZM176.908 240.151l-71.425-.163a5.36 5.36 0 1 0-.025 10.719l7.84.019 10.356 19.816a6.904 6.904 0 0 0 6.084 3.699l25.52.057a6.89 6.89 0 0 0 6.134-3.731l10.155-19.709 5.33.013a5.36 5.36 0 1 0 .025-10.72h.006ZM201.44 157.069h.006l-.572.861c-.384.567-.957 1.403-1.699 2.504-.378.548-.793 1.164-1.259 1.843-.453.686-.899 1.472-1.415 2.303-.504.837-1.051 1.736-1.636 2.705-.598.956-1.114 2.044-1.73 3.164-.302.56-.611 1.139-.925 1.736l-.485.906c-.144.315-.295.629-.446.95-.604 1.284-1.234 2.636-1.901 4.052-.591 1.446-1.208 2.95-1.849 4.523a266.56 266.56 0 0 0-1.762 4.988c-1.082 3.498-2.158 7.285-2.92 11.393-.755 4.101-1.346 8.524-1.27 13.179v.107h-.101c-22.644.013-50.933.025-83.273.044h-.132l-.012-.132c-.768-9.292-3.31-18.891-7.513-28.151-2.095-4.637-4.58-9.191-7.405-13.633a107.26 107.26 0 0 0-4.499-6.548c-1.56-2.158-3.328-4.19-5.059-6.285l-.207-.251h.333l-.126.251c-7.493-9.618-13.08-21.401-15.534-34.228-.34-1.598-.548-3.221-.793-4.844-.1-.811-.176-1.636-.27-2.453l-.126-1.227-.082-1.233c-.044-.824-.12-1.648-.145-2.479-.019-.83-.038-1.66-.05-2.491-.038-.83.025-1.661.031-2.497.025-.831.032-1.667.076-2.504.384-6.674 1.56-13.38 3.586-19.885C66.121 65.11 78.73 49.345 94.31 39.626a82.798 82.798 0 0 1 12.099-6.291c4.153-1.755 8.444-3.07 12.741-4.07 8.607-2.02 17.359-2.479 25.759-1.73 4.196.415 8.324 1.088 12.307 2.095a86.636 86.636 0 0 1 11.526 3.85 89.156 89.156 0 0 1 10.514 5.366c3.297 2.044 6.424 4.24 9.331 6.611 5.776 4.788 10.752 10.141 14.754 15.847 4.058 5.668 7.141 11.657 9.444 17.602.617 1.471 1.063 2.988 1.579 4.453.485 1.479.862 2.97 1.29 4.43.334 1.477.699 2.93.988 4.384.132.73.258 1.447.384 2.164.126.717.264 1.428.34 2.145.792 5.693.968 11.135.666 16.186a80.471 80.471 0 0 1-5.624 25.251c-1.309 3.316-2.756 6.14-4.04 8.569a88.716 88.716 0 0 1-3.592 5.938c-.529.774-.995 1.46-1.397 2.045-.422.566-.78 1.044-1.064 1.428-.56.748-.811 1.082-.88 1.17.063-.088.308-.422.843-1.17.283-.39.635-.881 1.057-1.454.396-.591.855-1.277 1.384-2.057a91.004 91.004 0 0 0 3.567-5.945c1.271-2.428 2.706-5.252 4.002-8.568a80.54 80.54 0 0 0 5.556-25.219 81.808 81.808 0 0 0-.692-16.149c-.076-.71-.214-1.422-.34-2.139-.126-.717-.258-1.434-.39-2.157-.29-1.447-.655-2.894-.988-4.366-.428-1.454-.805-2.938-1.29-4.41-.516-1.466-.963-2.976-1.579-4.441-2.303-5.926-5.386-11.89-9.438-17.54-3.995-5.68-8.953-11.014-14.717-15.783-2.9-2.359-6.021-4.548-9.305-6.586a89.11 89.11 0 0 0-10.482-5.341 86.349 86.349 0 0 0-11.489-3.831c-3.977-1.007-8.085-1.674-12.263-2.082-8.368-.743-17.089-.277-25.658 1.736-4.285 1-8.551 2.308-12.691 4.057a82.725 82.725 0 0 0-12.049 6.266c-15.515 9.688-28.068 25.39-33.888 43.941-2.02 6.48-3.19 13.16-3.573 19.804-.044.83-.05 1.66-.076 2.491-.006.83-.07 1.661-.031 2.485.018.83.037 1.654.05 2.478.019.824.094 1.648.145 2.466l.075 1.233.126 1.227c.088.818.164 1.629.264 2.441.246 1.616.453 3.233.793 4.825 2.441 12.776 8.003 24.515 15.465 34.096l.195.252h-.32l.125-.252c1.718 2.082 3.486 4.114 5.06 6.291a107.52 107.52 0 0 1 4.51 6.567c2.825 4.454 5.323 9.021 7.418 13.67 4.216 9.292 6.764 18.929 7.525 28.252l-.144-.132c32.346.019 60.628.032 83.272.044l-.1.107c-.07-4.693.528-9.109 1.296-13.223.774-4.121 1.862-7.908 2.951-11.405.604-1.73 1.189-3.404 1.78-4.995.648-1.573 1.265-3.083 1.863-4.53.667-1.415 1.302-2.761 1.912-4.045l.447-.95c.164-.308.327-.604.484-.905.321-.592.63-1.171.932-1.737.623-1.113 1.145-2.202 1.743-3.158.591-.962 1.138-1.862 1.648-2.698.516-.831.969-1.617 1.428-2.297.466-.679.894-1.289 1.271-1.837.755-1.094 1.334-1.925 1.724-2.491.39-.56.598-.843.598-.843h-.006l.006.007Z" fill="#022749"/><path d="M68.147 135.001s-.032-.057-.07-.177c-.043-.138-.106-.314-.182-.528-.157-.491-.383-1.176-.667-2.051a168.95 168.95 0 0 1-.471-1.484c-.158-.548-.296-1.152-.46-1.793-.308-1.296-.736-2.756-1-4.41-.151-.824-.315-1.686-.478-2.586-.164-.899-.246-1.849-.378-2.824-.296-1.95-.39-4.058-.541-6.272a87.893 87.893 0 0 1 .654-14.394 87.77 87.77 0 0 1 3.21-14.047c.729-2.095 1.383-4.095 2.189-5.9.39-.906.723-1.8 1.12-2.624.402-.824.786-1.61 1.151-2.365.698-1.523 1.498-2.819 2.14-3.982.333-.58.622-1.12.924-1.61.309-.479.598-.913.856-1.303.51-.767.906-1.371 1.19-1.8.131-.188.232-.345.314-.465.075-.1.113-.157.12-.15 0 0-.026.062-.089.17-.075.125-.17.282-.29.477-.27.44-.654 1.05-1.138 1.83-.252.397-.529.838-.83 1.316-.29.49-.573 1.038-.9 1.616-.63 1.17-1.41 2.466-2.096 3.995-.358.755-.736 1.541-1.132 2.365-.39.825-.717 1.718-1.095 2.624-.793 1.799-1.434 3.8-2.152 5.888-1.308 4.215-2.454 8.952-3.17 14.003-.661 5.058-.812 9.921-.68 14.337.138 2.202.226 4.303.503 6.247.126.975.201 1.918.359 2.818.157.9.314 1.761.459 2.579.252 1.655.66 3.114.95 4.41.157.648.283 1.252.434 1.799.164.541.315 1.038.447 1.491.258.881.46 1.573.61 2.07.063.22.114.402.151.541.032.119.044.189.038.189ZM92.176 50.345c.057.07-1.881 1.837-4.329 3.95-2.454 2.115-4.486 3.775-4.543 3.706-.056-.069 1.882-1.837 4.33-3.95 2.447-2.114 4.485-3.775 4.542-3.706ZM202.302 144.128s.012-.05.056-.144c.051-.107.114-.246.189-.409.183-.378.434-.893.749-1.548.163-.339.346-.711.547-1.113.195-.409.384-.868.598-1.353.415-.975.937-2.063 1.397-3.321.239-.623.491-1.277.755-1.95.258-.68.478-1.403.736-2.145.528-1.479.963-3.096 1.447-4.794a89.468 89.468 0 0 0 2.177-11.254 89.52 89.52 0 0 0 .573-11.45c-.07-1.761-.101-3.434-.265-5-.069-.78-.113-1.536-.201-2.26-.094-.723-.182-1.415-.264-2.075-.145-1.328-.39-2.51-.56-3.554-.095-.523-.17-1.007-.258-1.454-.095-.44-.189-.843-.264-1.214l-.359-1.68c-.032-.175-.063-.32-.088-.44-.019-.1-.025-.15-.019-.15.006 0 .025.05.05.144.032.113.069.258.12.434.101.409.245.963.421 1.667.088.365.189.768.296 1.208.101.447.183.931.283 1.453.189 1.044.453 2.227.611 3.554.094.661.188 1.36.289 2.083.094.723.145 1.484.22 2.264.176 1.567.22 3.246.296 5.014a86.748 86.748 0 0 1-.547 11.493 86.39 86.39 0 0 1-2.209 11.292c-.497 1.699-.944 3.322-1.485 4.8-.264.743-.491 1.466-.755 2.145-.27.68-.528 1.328-.774 1.951-.472 1.251-1.006 2.34-1.441 3.309-.226.484-.421.937-.622 1.339-.208.403-.403.768-.573 1.101l-.805 1.523c-.088.157-.158.289-.214.39-.051.088-.076.132-.082.126l-.025.018Z" fill="#022749"/><path d="M176.215 67.117c-4.303-2.467-8.802-4.712-13.64-5.782-.68-.15-1.378-.276-2.064-.17-.686.107-1.365.485-1.667 1.108-.416.861-.013 1.887.516 2.686 1.164 1.755 2.906 3.038 4.662 4.202 4.807 3.19 9.979 5.788 15.132 8.373-.655-3.667-1.938-6.825-2.926-10.418M209.216 76.597c1.403 4.756 3.102 9.486 5.858 13.607.384.579.805 1.151 1.372 1.554.566.396 1.321.597 1.975.352.894-.334 1.315-1.359 1.485-2.296.371-2.076 0-4.202-.465-6.26-1.271-5.624-3.209-11.078-5.141-16.513-2.064 3.101-3.316 6.272-5.084 9.55" fill="#15A9F3"/><path d="M176.153 67.022s.34 32.932 18.825 33.58c18.485.642 19.259-33.34 19.259-33.58 0 0-2.183-4.913-19.039-4.718-16.856.195-19.039 4.718-19.039 4.718h-.006Z" fill="#15A9F3"/><path d="M200.71 80.1a6.37 6.37 0 0 1-6.82 5.889 6.37 6.37 0 1 1 .931-12.707 6.37 6.37 0 0 1 5.889 6.819Z" fill="#022749"/><path d="M198.986 79.975a4.639 4.639 0 0 1-4.971 4.29 4.638 4.638 0 0 1-4.291-4.97 4.64 4.64 0 0 1 4.971-4.29 4.638 4.638 0 0 1 4.291 4.97Z" fill="#fff"/><path d="M176.077 66.99s.032.007.094.032c.07.025.164.057.277.094.252.089.611.214 1.07.378.233.082.491.176.774.277.283.094.598.182.931.29.673.2 1.428.458 2.284.66.428.107.875.226 1.34.346.466.12.963.207 1.466.314 1.013.233 2.108.39 3.259.579 2.309.315 4.864.528 7.557.541a58.208 58.208 0 0 0 7.556-.541c1.152-.189 2.246-.346 3.259-.572.504-.107 1.001-.196 1.466-.315.466-.12.913-.233 1.341-.346.855-.201 1.617-.46 2.284-.66.333-.107.648-.196.931-.29.283-.1.541-.195.774-.277.459-.163.818-.29 1.069-.377.12-.038.214-.07.277-.095.063-.018.095-.031.095-.025 0 0-.032.02-.095.038-.069.025-.157.063-.277.107-.251.094-.604.226-1.063.403-.233.088-.491.182-.768.289-.283.1-.597.189-.931.302-.667.208-1.422.472-2.284.68-.428.113-.874.232-1.34.352-.466.12-.963.207-1.466.32-1.013.24-2.108.397-3.259.592a56.33 56.33 0 0 1-7.575.547 57.262 57.262 0 0 1-7.57-.553c-1.151-.19-2.252-.353-3.259-.592-.509-.113-1-.201-1.466-.32-.465-.12-.912-.24-1.34-.353-.856-.208-1.611-.472-2.284-.68-.333-.106-.648-.2-.931-.301l-.768-.29c-.459-.17-.811-.308-1.063-.402-.113-.044-.208-.082-.277-.107a16.493 16.493 0 0 1-.094-.038l.006-.006Z" fill="#022749"/><path d="M176.153 67.022s2.183-4.53 19.039-4.718c16.856-.195 19.039 4.718 19.039 4.718s-17.007 8.386-38.085 0h.007Z" fill="#022749" opacity=".3"/><path d="M181.948 90.455s-.013-.012-.032-.05c-.025-.038-.05-.088-.082-.15-.075-.146-.176-.334-.302-.58-.063-.126-.138-.264-.214-.421-.075-.157-.151-.327-.239-.51-.169-.365-.365-.78-.547-1.252a85.675 85.675 0 0 0-.302-.736 44.523 44.523 0 0 0-.302-.805c-.214-.553-.396-1.164-.617-1.799a55.41 55.41 0 0 1-1.12-4.209 65.187 65.187 0 0 1-.786-4.284c-.183-1.327-.334-2.522-.409-3.529-.05-.503-.076-.962-.101-1.358a54.298 54.298 0 0 1-.056-1.032c-.007-.277-.019-.49-.019-.654v-.227s0 .019.012.057c0 .044.007.1.013.17.013.157.025.377.044.648.019.283.044.629.076 1.025a67.319 67.319 0 0 0 .56 4.882c.207 1.32.465 2.768.792 4.271.34 1.503.718 2.919 1.108 4.202.214.636.39 1.246.604 1.8.1.276.195.547.289.811.101.258.201.503.296.736.182.472.365.887.528 1.252.082.182.158.352.227.51l.207.42.284.586c.025.063.05.113.069.15.012.039.025.057.019.057v.02ZM190.857 98.376s-.107 0-.296-.038a7.391 7.391 0 0 1-.786-.189 8.054 8.054 0 0 1-1.12-.428 9.279 9.279 0 0 1-1.271-.736 9.096 9.096 0 0 1-1.126-.943 8.364 8.364 0 0 1-.787-.906 8.31 8.31 0 0 1-.447-.673c-.094-.164-.138-.258-.132-.265.019-.012.233.353.648.881.208.264.478.566.793.88.321.31.698.63 1.114.926.421.295.849.534 1.245.736.403.195.774.346 1.095.453.642.213 1.057.289 1.051.314l.019-.013ZM194.707 86.756s-.063.013-.176.02c-.113 0-.289.024-.51.012a6.62 6.62 0 0 1-1.843-.296 7.87 7.87 0 0 1-1.202-.484c-.409-.22-.843-.472-1.246-.805a7.035 7.035 0 0 1-2.076-2.668 7.048 7.048 0 0 1-.528-3.34 7.719 7.719 0 0 1 .264-1.46c.138-.446.289-.849.465-1.207.353-.711.736-1.227 1.039-1.548.138-.17.276-.277.358-.359a.555.555 0 0 1 .132-.113c.013.013-.17.176-.453.51-.289.333-.654.849-.994 1.554-.17.352-.314.754-.447 1.195a7.792 7.792 0 0 0-.245 1.44 7.023 7.023 0 0 0 .529 3.278 7.04 7.04 0 0 0 2.032 2.623c.396.327.818.579 1.22.805.409.208.806.378 1.177.491a6.92 6.92 0 0 0 1.818.334c.434.018.68 0 .68.018h.006Z" fill="#fff"/><path d="M193.915 32.775s-16.114-.195-18.668 13.764c-2.548 13.953 11.08 14.218 14.999 14.482 1.781.12 5.581.132 8.935.075 7.431-.126 12.678-1.566 14.465-8.455.207-.805.346-1.629.403-2.466.471-7.555-4.644-17.765-20.134-17.394v-.006Z" fill="#15A9F3"/><path d="m205.605 54.032-23.412.365a4.441 4.441 0 1 1-.138-8.883l23.411-.365a4.442 4.442 0 1 1 .139 8.883Z" fill="#022749"/><path d="M187.05 49.54a1.426 1.426 0 1 1-2.801-.547 1.426 1.426 0 0 1 2.801.547ZM203.409 49.276a1.425 1.425 0 1 1-2.8-.548 1.426 1.426 0 1 1 2.8.548ZM191.146 48.88c.107.012.051.51.365 1.17.151.327.403.692.755.994.353.308.825.54 1.34.59a2.49 2.49 0 0 0 1.429-.339c.402-.239.717-.547.925-.843.427-.597.465-1.094.572-1.088.044 0 .082.126.082.365 0 .233-.069.578-.258.962a2.938 2.938 0 0 1-1 1.114 2.838 2.838 0 0 1-1.806.484 2.874 2.874 0 0 1-1.686-.799 2.895 2.895 0 0 1-.781-1.277c-.119-.409-.125-.761-.081-.994.044-.233.107-.346.151-.34h-.007ZM191.876 33.82s-.019 0-.057.012c-.044 0-.1.006-.169.012-.151.013-.372.02-.655.057-.566.05-1.384.164-2.378.396a17.358 17.358 0 0 0-7.066 3.485 17.342 17.342 0 0 0-2.982 3.19 17.639 17.639 0 0 0-2.624 5.347c-.088.27-.132.49-.176.63-.019.062-.032.119-.05.163l-.019.056s0-.018.006-.056c.006-.044.019-.1.038-.17.038-.145.075-.365.151-.642a17 17 0 0 1 2.579-5.404c.787-1.1 1.794-2.22 2.995-3.22a16.945 16.945 0 0 1 3.731-2.328 16.548 16.548 0 0 1 3.404-1.145c1.001-.22 1.825-.32 2.397-.352.284-.025.51-.025.661-.032h.227-.013ZM176.103 53.151s-.114-.183-.227-.503a6.985 6.985 0 0 1-.327-1.29 6.965 6.965 0 0 1-.082-1.327c.013-.34.05-.548.063-.548.044 0-.019.843.145 1.856.157 1.013.465 1.8.428 1.812ZM201.735 44.331c0 .038-3.083.063-6.889.063-3.807 0-6.89-.031-6.89-.063 0-.031 3.083-.063 6.89-.063 3.806 0 6.889.032 6.889.063ZM189.982 60.033s-.038.013-.113.019c-.095.006-.202.019-.334.031a6.08 6.08 0 0 1-.534.026c-.208 0-.447.018-.705.006-.522 0-1.145-.038-1.837-.113a20.335 20.335 0 0 1-2.221-.384 21.108 21.108 0 0 1-2.159-.648 18.714 18.714 0 0 1-1.692-.724c-.239-.106-.447-.226-.629-.32-.183-.095-.34-.189-.466-.265l-.289-.176c-.063-.044-.101-.063-.095-.069.007-.006.038.013.107.044.082.044.183.094.302.151.126.07.29.151.472.24.189.087.397.2.636.301.472.22 1.044.46 1.692.692.648.227 1.378.447 2.152.636.774.182 1.523.302 2.208.39.686.081 1.303.125 1.825.138.258.012.497.006.705.012H189.875c.076 0 .12 0 .12.007l-.013.006ZM209.688 69.029s-.019.013-.063.025c-.05.019-.107.038-.182.07-.17.062-.403.144-.698.25-.303.108-.674.24-1.114.366-.441.132-.931.296-1.491.434-.277.075-.573.15-.875.233-.302.081-.623.144-.956.22-.661.157-1.372.283-2.121.428a48.952 48.952 0 0 1-4.92.578c-1.755.101-3.435.095-4.958.026-.761-.05-1.485-.089-2.158-.164-.34-.038-.661-.063-.975-.1-.308-.045-.61-.082-.894-.12-.572-.07-1.082-.17-1.535-.246a22.038 22.038 0 0 1-1.151-.226c-.308-.07-.548-.12-.724-.164-.075-.018-.138-.031-.188-.044a1.16 1.16 0 0 1-.063-.019s.025 0 .063.007c.05.006.113.019.188.031.176.032.422.082.73.139.315.063.705.138 1.152.2.453.07.962.165 1.535.227.283.038.585.076.893.114.308.037.636.063.975.094.674.075 1.397.107 2.152.151 1.517.063 3.19.063 4.946-.038a50.73 50.73 0 0 0 4.907-.566c.749-.138 1.46-.258 2.121-.415.327-.076.648-.138.956-.214l.875-.22c.559-.132 1.057-.29 1.497-.415.44-.12.818-.246 1.12-.346.302-.095.535-.17.705-.227.075-.025.138-.038.182-.056.044-.013.063-.02.063-.013h.006Z" fill="#fff"/><path d="m56.589 177.319.044 8.725s14.49-8.203 10.237-16.01l-10.281 7.285ZM58.005 157.163s-10.426-3.818-18.354 3.278l8.13 4.586 10.224-7.864Z" fill="#15A9F3"/><path d="M47.774 165.027c.334.434 8.815 12.292 8.815 12.292l22.16-15.702c3.87-2.743 4.562-8.21 1.498-11.827a8.098 8.098 0 0 0-11.118-1.189l-21.355 16.432v-.006Z" fill="#F5F5F5"/><path d="M47.774 165.027s.057-.051.176-.151c.139-.107.321-.258.554-.441.51-.396 1.233-.969 2.165-1.698 1.912-1.485 4.65-3.618 8.028-6.247 1.705-1.321 3.567-2.768 5.568-4.316 1-.773 2.039-1.579 3.108-2.403.535-.415 1.076-.83 1.63-1.258.566-.409 1.17-.811 1.844-1.076.327-.157.679-.245 1.025-.371.359-.075.711-.182 1.082-.214.73-.113 1.492-.1 2.24 0a8.22 8.22 0 0 1 4.184 1.856c.617.491 1.12 1.12 1.58 1.774.434.673.78 1.409 1.019 2.189a8.365 8.365 0 0 1-.057 4.876c-.497 1.516-1.416 2.887-2.636 3.856-1.233.944-2.473 1.774-3.68 2.642-2.423 1.711-4.764 3.366-6.997 4.945-4.468 3.151-8.513 6.007-11.955 8.429l-.1.07-.07-.095c-2.699-3.812-4.889-6.901-6.417-9.059-.743-1.05-1.315-1.874-1.724-2.453a69.34 69.34 0 0 1-.44-.635c-.095-.145-.146-.214-.14-.214 0 0 .064.075.17.22.114.157.271.365.473.635.421.573 1.019 1.391 1.786 2.441 1.542 2.126 3.75 5.171 6.481 8.927l-.164-.025c3.43-2.441 7.462-5.31 11.917-8.487 2.234-1.585 4.568-3.246 6.984-4.957 1.196-.868 2.466-1.711 3.662-2.629 1.177-.931 2.057-2.246 2.536-3.706a8.04 8.04 0 0 0 .056-4.686 8.21 8.21 0 0 0-.981-2.101c-.44-.629-.925-1.233-1.517-1.705a7.854 7.854 0 0 0-4.02-1.793c-.724-.094-1.447-.113-2.158 0-.359.031-.699.132-1.045.201-.333.113-.673.202-.987.353-1.297.522-2.316 1.484-3.398 2.277-1.063.811-2.095 1.604-3.096 2.371-2 1.529-3.863 2.951-5.568 4.253-3.41 2.592-6.172 4.693-8.104 6.159-.956.717-1.699 1.283-2.22 1.679l-.586.434c-.132.101-.208.151-.214.145l.006-.012Z" fill="#022749"/><path d="m58.395 164.347-13.849 9.958s.598 1.523.976 1.366c.32-.133 10.746-7.235 14.131-9.537a1.084 1.084 0 0 0 .176-1.642 1.09 1.09 0 0 0-1.434-.139v-.006Z" fill="#15A9F3"/><path d="M72.765 158.1a4.629 4.629 0 0 1-4.322 4.92 4.629 4.629 0 0 1-4.92-4.322 4.627 4.627 0 0 1 4.322-4.919 4.627 4.627 0 0 1 4.92 4.321Z" fill="#fff"/><path d="M72.765 158.1c-.037 0-.044-.409-.276-1.101a4.588 4.588 0 0 0-1.85-2.359 4.52 4.52 0 0 0-1.95-.704c-.743-.076-1.574 0-2.341.358a4.41 4.41 0 0 0-1.97 1.699c-.503.767-.748 1.724-.698 2.692.07.969.44 1.888 1.038 2.586a4.44 4.44 0 0 0 2.17 1.428c.806.252 1.637.226 2.366.057a4.44 4.44 0 0 0 1.844-.95 4.6 4.6 0 0 0 1.529-2.58c.145-.71.094-1.126.132-1.126.013 0 .025.101.038.296.019.195.012.484-.05.856a4.616 4.616 0 0 1-1.504 2.723 4.713 4.713 0 0 1-1.926 1.032c-.767.189-1.648.233-2.51-.031a4.662 4.662 0 0 1-2.328-1.51c-.642-.742-1.038-1.724-1.114-2.762-.056-1.038.214-2.063.749-2.881a4.73 4.73 0 0 1 2.114-1.799c.824-.371 1.699-.44 2.485-.352a4.613 4.613 0 0 1 2.045.78 4.605 4.605 0 0 1 1.844 2.51c.107.358.15.648.157.843.013.195.013.295 0 .295h.006Z" fill="#022749"/><path d="M79.787 160.736c7.443-6.957 6.115-15.016 6.115-15.016-10.01-2.629-16.767 2.881-16.767 2.881 6.663.938 10.23 4.97 10.652 12.141v-.006Z" fill="#15A9F3"/><path d="m158.844 131.119 2.567 23.76 15.302 5.102.623 7.398-21.6-1.447s-6.657.164-8.104-8.605l-.352-23.05 11.564-3.152v-.006Z" fill="#FFBE9D"/><path d="M190.605 167.253c-.283.321-.736.46-1.145.315a1.384 1.384 0 0 1-.245-.12c-.541-.346-.17-1.528-.17-1.528l-2.699-1.208s-4.291 1.397-6.009 2.617-4.712-.925-4.712-.925l.434-6.316 6.43-3.321s-.39.195.195-.585c.591-.787 2.133-.019 2.133-.019.371-.365 1.472-.239 1.472-.239l4.417 1.73a3.216 3.216 0 0 1 1.9 2.038l1.12 3.554s.441 2.466.139 2.932c-.453.704-1.221.321-1.221.321s-.604 1.384-.994 1.333c-.39-.05-1.057-.566-1.057-.566l.012-.013Z" fill="#FFBE9D"/><path d="M181.595 166.624s.114-.037.328-.132c.239-.107.541-.239.924-.409a34.156 34.156 0 0 1 3.536-1.27h-.069c.806.358 1.712.773 2.693 1.22l-.063-.145c-.069.227-.113.46-.132.705-.013.239 0 .509.138.761.076.126.208.22.328.271.119.063.251.113.39.125.277.032.566-.044.805-.201.057-.038.113-.088.164-.132l.037-.038.019-.019v-.012h.013c.038 0-.346.031-.183.019l.082.063c.107.075.214.151.327.226.114.069.233.138.359.201.063.032.132.057.201.076.07.019.151.044.277.019.189-.069.283-.189.378-.302.088-.113.17-.233.245-.352.145-.24.271-.491.39-.749l-.195.069c.346.164.806.189 1.145-.082.158-.125.302-.295.346-.516.044-.201.044-.383.044-.572-.012-.742-.119-1.478-.239-2.233v-.019c-.188-.604-.39-1.246-.597-1.9-.126-.403-.252-.805-.378-1.201-.132-.39-.226-.812-.453-1.189a3.113 3.113 0 0 0-.843-.95c-.334-.265-.743-.409-1.095-.548-1.466-.566-2.863-1.107-4.165-1.616h-.019l-.019-.007a4.329 4.329 0 0 0-.805 0c-.264.032-.541.076-.774.283h.17c-.428-.333-.988-.484-1.485-.314-.497.17-.812.566-1.026.962l.051-.05c-1.844.944-3.354 1.717-4.43 2.271-.497.264-.899.472-1.195.635-.271.151-.415.233-.409.239 0 .013.157-.056.44-.182.309-.145.718-.34 1.227-.579 1.089-.528 2.611-1.27 4.474-2.183l.031-.012.019-.038c.195-.346.497-.711.9-.83.402-.139.887 0 1.246.27l.088.069.081-.075c.139-.126.384-.183.623-.208.239-.025.497-.019.749.007h-.031c1.302.503 2.692 1.056 4.158 1.629.372.145.724.277 1.026.516.308.226.566.522.761.862.202.333.29.729.422 1.126.126.396.252.799.377 1.201.208.648.409 1.29.598 1.9v-.019c.12.736.22 1.472.239 2.183 0 .176 0 .352-.038.503-.018.132-.119.258-.239.353-.226.188-.572.176-.836.056l-.139-.063-.056.132a7.051 7.051 0 0 1-.372.718c-.132.213-.308.471-.453.528-.006 0-.056 0-.119-.019-.057-.013-.113-.038-.17-.063-.113-.05-.22-.113-.334-.176a5.254 5.254 0 0 1-.314-.214l-.076-.056c.164-.013-.22.018-.182.018l-.006.007-.013.012-.031.032c-.045.037-.082.075-.133.107a.93.93 0 0 1-.622.163.812.812 0 0 1-.309-.1.433.433 0 0 1-.226-.177c-.195-.352-.101-.861 0-1.258l.025-.107-.095-.037c-.987-.434-1.9-.831-2.705-1.189l-.038-.013-.031.013a28.042 28.042 0 0 0-3.53 1.365c-.396.188-.705.346-.906.459a2.627 2.627 0 0 0-.302.182h.006Z" fill="#EB996E"/><path d="M185.176 157.968s.465.378 1.346.824a15.3 15.3 0 0 0 3.681 1.265l-.126-.145c.019.245.038.503.069.761.214 1.73.812 3.209 1.366 4.19.276.497.541.868.729 1.12.196.251.315.377.334.365.044-.032-.371-.592-.868-1.586a12.97 12.97 0 0 1-1.252-4.126c-.032-.252-.051-.504-.07-.743v-.119l-.125-.025a17.885 17.885 0 0 1-3.656-1.152c-.893-.383-1.409-.673-1.435-.635l.007.006Z" fill="#EB996E"/><path d="M188.793 161.762c-.075 0-.113 1.327.453 2.849.554 1.529 1.441 2.523 1.492 2.473.075-.057-.674-1.101-1.202-2.58-.541-1.465-.648-2.749-.743-2.742Z" fill="#EB996E"/><path d="M175.216 164.335s.037.05.119.119c.088.076.22.176.403.289.365.233.944.529 1.736.68a5.132 5.132 0 0 0 2.826-.252 5.344 5.344 0 0 0 2.705-2.346l-.195.063a12.032 12.032 0 0 0 4.518 1.163c.415.019.836.044 1.264-.075.195-.057.441-.164.573-.384a.863.863 0 0 0 .1-.679.87.87 0 0 0-.409-.535c-.163-.088-.327-.182-.49-.27a48.474 48.474 0 0 0-3.511-1.718 42.506 42.506 0 0 0-2.441-.987c-.586-.214-.913-.309-.925-.29-.007.019.308.157.874.403.573.245 1.391.604 2.397 1.069a57.835 57.835 0 0 1 3.461 1.774c.157.088.321.183.484.271a.555.555 0 0 1 .265.352.565.565 0 0 1-.063.44c-.082.132-.22.195-.403.252-.352.101-.755.082-1.158.057a12.072 12.072 0 0 1-4.41-1.126l-.126-.063-.069.125a5.174 5.174 0 0 1-2.542 2.259 4.975 4.975 0 0 1-2.699.302 5.293 5.293 0 0 1-1.718-.585c-.378-.202-.566-.346-.579-.327l.013.019Z" fill="#EB996E"/><path d="M193.676 253.123s.044-.214-.019-.591a3.918 3.918 0 0 0-.598-1.51c-.1-.145-.195-.296-.358-.434-.151-.139-.416-.246-.673-.151a.491.491 0 0 0-.296.295.626.626 0 0 0 .012.403c.082.239.208.409.315.604.233.39.422.78.724 1.22.151.227.484.409.792.359.302-.038.548-.183.768-.34a6.598 6.598 0 0 0 1.573-1.617c.126-.195.277-.396.333-.666.057-.265-.044-.604-.339-.724-.302-.107-.548.044-.718.164-.339.283-.547.572-.755.855a5.81 5.81 0 0 0-.742 1.435c-.12.358-.151.572-.126.578.063.025.264-.811 1.07-1.862.201-.251.446-.553.723-.767.139-.101.321-.164.428-.113.113.037.176.207.138.371-.037.17-.163.352-.295.534-.132.183-.277.365-.428.548a6.724 6.724 0 0 1-1.076.981c-.195.138-.403.252-.604.277-.195.025-.352-.057-.485-.22-.245-.359-.484-.806-.71-1.17-.107-.195-.24-.378-.296-.541-.063-.17-.025-.277.088-.328.27-.113.535.195.717.453.761 1.082.755 1.976.824 1.957h.013Z" fill="#022749"/><path d="m178.311 253.651-7.626 16.526-12.307-5.687 7.89-20.451 12.043 9.612Z" fill="#FFBE9D"/><path d="m172.126 269.076-4.454 8.499s11.407 11.789 10.337 14.425l-26.816-12.852 7.368-17.042 13.572 6.97h-.007Z" fill="#15A9F3"/><path d="M159.939 272.436c-.585-.107-1.227.302-1.359.887-.132.585.283 1.233.868 1.352.585.12 1.365-.352 1.428-.943.063-.592-.459-1.334-1.057-1.309" fill="#E0E0E0"/><path d="m151.193 279.142 1.114-2.139 25.293 13.122s.944 1.095.409 1.869l-26.816-12.852Z" fill="#fff" opacity=".6"/><path d="M168.169 277.644c-.07.132-.749-.125-1.599-.012-.849.088-1.453.497-1.547.39-.107-.082.459-.774 1.491-.887 1.025-.126 1.743.409 1.655.516v-.007ZM170.427 280.154c-.031.139-.704.095-1.415.434-.717.321-1.12.862-1.246.799-.132-.037.145-.849 1.038-1.258.887-.415 1.686-.1 1.63.025h-.007ZM170.409 284.281c-.133-.031 0-.767.679-1.327.673-.56 1.428-.547 1.435-.409.025.145-.56.34-1.114.799-.56.453-.862.988-1 .937ZM169.452 274.367c-.113.094-.629-.378-1.39-.68-.755-.32-1.454-.346-1.466-.49-.032-.132.761-.346 1.661.025.899.365 1.315 1.076 1.195 1.145ZM174.637 266.868l20.102-50.301s-.453-8.581-2.032-11.292c-1.579-2.711-49.473-18.52-49.473-18.52s-12.2-2.938-20.329 0c-8.135 2.938-14.232 13.097-13.099 18.747 1.132 5.649 6.323 10.222 6.323 10.222l34.794.617 19.196 7.001-12.93 37.04 17.454 6.486h-.006Z" fill="#022749"/><path d="m192.518 232.495.453 18.193-13.552.334-1.951-21.836 15.05 3.309Z" fill="#FFBE9D"/><path d="m193.783 249.065-.246 9.587s15.44 5.549 15.642 8.386l-29.735.302-.913-18.545 15.252.264v.006Z" fill="#15A9F3"/><path d="M184.326 257.457c-.573.164-.963.812-.824 1.397.138.579.799.981 1.378.83.578-.151 1.069-.918.868-1.478-.201-.56-1.001-.994-1.529-.705" fill="#E0E0E0"/><path d="m179.443 267.34.057-2.409 28.489.61s1.328.56 1.19 1.497l-29.736.302Z" fill="#fff" opacity=".6"/><path d="M194.015 258.495c0 .145-.73.22-1.441.692-.723.453-1.082 1.088-1.22 1.032-.132-.025.075-.9.944-1.453.862-.566 1.742-.403 1.711-.271h.006ZM197.143 259.753c.031.139-.592.397-1.076 1.013-.504.604-.623 1.271-.768 1.265-.138.025-.245-.824.378-1.586.61-.761 1.466-.83 1.472-.692h-.006ZM198.955 263.471c-.133.032-.34-.692.025-1.491.358-.799 1.038-1.119 1.101-1 .082.12-.353.547-.642 1.208-.302.654-.34 1.264-.484 1.283ZM193.713 254.998c-.056.132-.73-.063-1.547 0-.825.05-1.46.327-1.536.207-.088-.107.535-.648 1.498-.711.969-.069 1.655.384 1.579.504h.006ZM184.609 181.98s8.123-.648 9.023 8.159c.906 8.807 1.793 49.918 1.793 49.918l-18.976 1.579-2.939-42.01-30.27-12.877s35.946-5.901 41.369-4.775v.006Z" fill="#022749"/><path d="M151.137 170.091s4.926 13.814 3.989 15.355c-.938 1.542-13.61 7.877-13.61 7.877l-31.71 12.179s-3.26-5.178-3.26-13.136c0-7.958 11.03-22.269 11.03-22.269h33.561v-.006Z" fill="#022749"/><path d="M141.737 186.044s.05.032.151.082c.113.056.264.119.453.207.415.189 1.007.447 1.755.781 1.554.679 3.794 1.654 6.594 2.868 5.656 2.435 13.584 5.844 22.758 9.795l-.101-.145c.289 4.152.598 8.631.919 13.267.774 10.84 1.485 20.836 2.044 28.743l.013.145.145-.013c5.769-.509 10.507-.924 13.823-1.214l3.807-.352c.421-.044.748-.076.994-.101.226-.025.339-.044.339-.05 0-.006-.119 0-.339.006-.246.013-.573.038-1.001.063-.893.063-2.177.157-3.813.277-3.315.264-8.059.635-13.835 1.088l.151.132c-.541-7.907-1.227-17.903-1.976-28.742-.327-4.637-.642-9.116-.937-13.268v-.107l-.101-.037c-9.193-3.901-17.139-7.273-22.808-9.682a2733.179 2733.179 0 0 0-6.632-2.78c-.761-.315-1.352-.554-1.78-.73-.189-.076-.34-.132-.46-.183-.107-.037-.157-.056-.163-.05ZM116.519 187.428s.327-.063.887-.245l2.385-.768c2.013-.641 4.807-1.528 7.991-2.019 3.183-.491 6.121-.34 8.179.107 2.064.428 3.253 1.019 3.278.95.006-.019-.277-.183-.824-.415a14.344 14.344 0 0 0-2.397-.774c-2.07-.516-5.065-.711-8.287-.214-3.221.497-6.021 1.428-8.016 2.132-1 .353-1.799.661-2.353.875-.553.22-.849.352-.843.371Z" fill="#022749"/><path d="M120.999 180.143c.006.057 1.063-.151 2.774-.012.856.056 1.869.188 3.001.321 1.133.132 2.372.289 3.656.528 2.573.459 4.794 1.359 6.216 2.302 1.435.931 2.108 1.787 2.152 1.737.013-.013-.132-.239-.459-.598a9.174 9.174 0 0 0-1.554-1.346c-1.416-1.026-3.681-1.982-6.286-2.447-1.302-.246-2.548-.39-3.681-.504-1.132-.113-2.158-.22-3.026-.245-.868-.031-1.573.019-2.051.094-.478.076-.736.151-.736.177l-.006-.007ZM135.004 69.13c-3.649-.623-6.858.786-9.935 2.843-3.077 2.057-5.392 5.159-6.732 8.612-1.41 3.636-1.749 7.725-.667 11.468 1.082 3.743 3.649 7.096 7.122 8.864 4.744 2.409 10.816 1.573 15.063-1.642 4.247-3.208 6.676-8.518 6.877-13.833.138-3.662-.736-7.41-2.781-10.456-2.045-3.044-5.317-5.315-8.947-5.85" fill="#022749"/><path d="M124.629 81.535c.535-1.397.327-2.957.535-4.435.466-3.259 3.089-5.87 6.128-7.14 2.825-1.183 6.273-.925 9.677.176 2.334.755 4.53 2.07 6.084 3.963 2.064 2.517 2.794 6.065 1.882 9.191l-16.667-2.428c-1.561 1.29-3.159 2.604-5.053 3.322-.554.213-1.151.37-1.743.276-.585-.094-1.157-.49-1.296-1.07-.151-.628.22-1.251.453-1.855Z" fill="#022749"/><path d="m141.327 74.741-14.553 3.082a2.716 2.716 0 0 0-2.535 2.662l.176 31.485a9.763 9.763 0 0 0 2.051 5.938l1.391 1.787c3.164 4.083 9.576 3.668 11.992-.893.17-.321.283-.598.333-.824.051-.283.126-.472.139-.711l.277-3.07c.144-2.806.163-5.649.163-5.624 0 0 5.959-.755 7.481-8.423.761-3.813.812-10.116.686-15.275-.113-4.642-2.957-10.442-7.594-10.134h-.007Z" fill="#FFBE9D"/><path d="M146.468 91.305c0 .522-.447.956-.994.962-.548.006-.988-.409-.988-.93 0-.523.447-.957.994-.963.547-.007.988.409.988.93ZM147.43 88.096c-.125.126-.855-.459-1.919-.497-1.063-.056-1.868.466-1.975.328-.057-.063.082-.29.428-.523a2.706 2.706 0 0 1 1.591-.421c.661.031 1.215.295 1.523.56.315.264.422.503.359.56l-.007-.007ZM136.627 90.795c0 .522-.446.956-.994.963-.547.006-.987-.41-.987-.931 0-.523.446-.957.994-.963.547-.006.987.409.987.931ZM137.307 87.832c-.126.126-.856-.46-1.925-.497-1.063-.056-1.869.466-1.976.327-.056-.063.076-.29.428-.522a2.71 2.71 0 0 1 1.592-.421c.661.031 1.214.295 1.523.56.314.264.421.503.358.56v-.007ZM140.51 95.935c0-.063.667-.151 1.743-.246.27-.018.534-.063.585-.245.069-.195-.032-.49-.151-.812-.233-.666-.472-1.37-.724-2.1-1-2.995-1.717-5.448-1.598-5.486.12-.038 1.032 2.352 2.032 5.347.239.736.472 1.44.692 2.114.089.314.252.673.101 1.075a.676.676 0 0 1-.465.378c-.177.044-.328.044-.466.044-1.082.019-1.756 0-1.756-.063l.007-.006Z" fill="#022749"/><path d="M140.755 108.573s-5.21.132-10.231-3.158c0 0 2.391 5.441 10.149 5.02l.088-1.862h-.006ZM139.956 98.489c-.365-.522-1.026-.824-1.693-.78-.465.031-.937.239-1.233.604-.296.364-.377.9-.132 1.264.271.415.868.535 1.384.409.516-.126.963-.44 1.391-.761a1.2 1.2 0 0 0 .314-.302c.076-.126.101-.29.013-.397" fill="#EB996E"/><path d="M137.345 96.551c.176 0 .132 1.151 1.088 2.013.956.862 2.196.78 2.196.944.012.075-.283.214-.805.207-.51 0-1.253-.195-1.838-.723-.585-.528-.818-1.208-.837-1.686-.025-.484.114-.767.196-.755ZM137.251 84.674c-.114.283-1.177.107-2.429.208-1.258.075-2.278.402-2.435.138-.069-.126.12-.39.535-.654.415-.264 1.069-.503 1.824-.56.756-.05 1.435.094 1.882.296.453.201.673.44.623.572ZM147.298 83.422c-.195.233-.918-.044-1.805-.094-.881-.076-1.636.1-1.8-.164-.069-.126.057-.365.39-.578.334-.214.875-.384 1.485-.34.604.044 1.12.283 1.422.54.302.259.396.517.308.63v.006Z" fill="#022749"/><path d="M121.961 79.29c1.51-4.43 8.098-10.469 12.76-10.047l7.368 4.617c-.504 2.53-2.511 4.706-4.99 5.404-1.327.377-2.913.453-3.724 1.573-.825 1.138-.39 2.837-1.158 4.013-1.063 1.636-3.888 1.498-4.694 3.272-.352.773-.195 1.71-.566 2.478-.491 1.026-3.133 2.284-4.209 1.919-1.076-.365-1.045-2.208-1.378-3.177-.573-1.66-.309-2.51-.088-3.429.516-2.17-.038-4.51.679-6.624Z" fill="#022749"/><path d="M125.925 93.5c.019-.572-.591-1.956-1.158-2.07-1.51-.295-4.247-.276-4.416 3.567-.24 5.259 5.096 4.416 5.109 4.266.012-.12.39-3.781.465-5.77v.007Z" fill="#FFBE9D"/><path d="M123.943 97.2s-.094.062-.251.125a.896.896 0 0 1-.686-.019c-.547-.226-.975-1.132-.956-2.082.006-.478.132-.931.314-1.302.176-.378.441-.636.724-.673a.465.465 0 0 1 .528.276c.063.151.025.252.051.264.012.013.119-.081.081-.301a.59.59 0 0 0-.195-.34.692.692 0 0 0-.503-.157c-.409.012-.786.364-.994.773a3.086 3.086 0 0 0-.384 1.454c-.012 1.063.485 2.075 1.233 2.333.365.114.68.02.843-.1.17-.12.202-.24.183-.252h.012Z" fill="#EB996E"/><path d="M120.835 77.924c.019-1.648-2.039-2.724-3.643-3.095-1.605-.371-3.297.113-4.744.906-.843.465-1.693 1.12-1.888 2.063-.188.944.718 2.07 1.624 1.73-1.731.592-2.605 2.9-1.706 4.486.9 1.591 3.329 2.025 4.726.849a6.99 6.99 0 0 1-2.737 3.737c2.705.383 5.581-.768 7.267-2.926 1.686-2.151 2.12-5.221 1.095-7.756l.006.006Z" fill="#022749"/><path d="M117.179 86.29c-.038 0-.176-.59-.195-1.578-.019-.988.126-2.36.604-3.8.485-1.434 1.202-2.617 1.818-3.39.611-.774 1.089-1.164 1.114-1.14.094.07-1.667 1.819-2.598 4.643-.969 2.813-.623 5.272-.743 5.266Z" fill="#15A9F3"/><path d="M140.56 72.269c.484 2.145 3.743 4.888 5.171 6.555 2.725 3.183 3.266 4.24 3.241 11.355 1.29-2.46 2.271-4.863 2.177-7.637-.101-2.775-1.12-5.549-3.046-7.543-1.925-1.994-4.788-3.127-7.537-2.73" fill="#022749"/><path d="M162.877 130.811s-5.675-9.455-7.248-11.368c-1.479-1.792-3.379-2.849-4.643-3.403a9.615 9.615 0 0 0-2.209-.654l-8.154-1.806s-.013 5.568-5.852 5.914c-5.832.346-10.746-7.782-10.746-7.782s-9.425 1.459-11.678 2.617c-2.252 1.157-5.801 2.636-7.751 12.399l-1.372 9.55 16.252 1.503 1.554 24.144 8.06 5.612s22.342 5.806 23.77 6.19c1.429.383 1.901-35.946 1.901-35.946s5.738-3.711 8.116-6.964v-.006Z" fill="#15A9F3"/><path d="M152.181 126.753s.132.239.314.699c.189.453.422 1.126.686 1.962.529 1.674 1.108 4.045 1.441 6.713.321 2.667.333 5.108.22 6.863-.05.874-.119 1.585-.195 2.07-.069.484-.113.754-.138.748-.025 0-.019-.277.012-.761.032-.491.063-1.195.088-2.07.051-1.749 0-4.164-.314-6.813a47.513 47.513 0 0 0-1.334-6.687 50.569 50.569 0 0 0-.585-1.988c-.145-.465-.214-.729-.195-.736Z" fill="#022749"/><path d="m151.489 166.304-30.597-6.662-1.416-21.867-13.609-1.258s.503 14.947 1.025 19.394c.755 6.392 4.53 15.111 6.745 16.853 2.209 1.743 39.223.956 39.223.956l-1.371-7.423v.007Z" fill="#FFBE9D"/><path d="M168.86 170.267c-.213.428-.66.704-1.138.66a1.02 1.02 0 0 1-.296-.063c-.68-.22-.61-1.597-.61-1.597l-3.241-.529s-4.215 2.718-5.719 4.523c-1.497 1.799-5.329.34-5.329.34l-1.328-6.907 5.971-5.398s-.365.321.044-.686c.409-1.006 2.29-.629 2.29-.629.29-.497 1.517-.679 1.517-.679l5.235.604a3.598 3.598 0 0 1 2.623 1.648l2.215 3.504s1.17 2.523.982 3.108c-.284.887-1.221.685-1.221.685s-.258 1.661-.692 1.718c-.434.056-1.296-.309-1.296-.309l-.007.007Z" fill="#FFBE9D"/><path d="M157.718 165.303c0 .057.705-.006 1.818.038 1.114.057 2.662.252 4.272.799.806.27 1.548.598 2.202.944.636.358 1.29.648 1.498 1.107a.635.635 0 0 1-.057.623.923.923 0 0 1-.396.333c-.277.113-.453.038-.459.069-.013.006.163.145.503.057a.96.96 0 0 0 .503-.346.831.831 0 0 0 .126-.818c-.113-.308-.371-.541-.654-.736a10.485 10.485 0 0 0-.919-.554 13.677 13.677 0 0 0-6.613-1.704c-1.138.012-1.83.163-1.824.195v-.007Z" fill="#EB996E"/><path d="M157.347 168.637c0 .101 2.139.013 4.756.164 2.618.145 4.725.472 4.744.377.007-.044-.509-.182-1.365-.333a29.448 29.448 0 0 0-3.36-.377 28.344 28.344 0 0 0-3.379 0c-.862.05-1.396.132-1.39.176l-.006-.007ZM168.829 170.128s.038-.195.063-.56c.019-.358.044-.88 0-1.534a7.003 7.003 0 0 0-.145-1.064 3.118 3.118 0 0 0-.516-1.138c-.472-.711-1.126-1.453-1.963-2.007-.83-.547-1.661-1.013-2.504-1.264-.837-.252-1.617-.315-2.259-.346-.648-.026-1.17-.007-1.529 0-.358.012-.559.031-.559.056 0 .057.799.082 2.076.176.635.057 1.39.145 2.183.403.787.252 1.604.717 2.404 1.245.805.542 1.415 1.215 1.9 1.907.503.66.597 1.415.679 2.05.126 1.265.095 2.07.164 2.07l.006.006Z" fill="#EB996E"/><path d="M161.267 160.636c0 .05.78.069 2.032.213 1.202.183 3.133.271 4.228 1.932 1.189 1.509 2.202 2.938 2.643 4.108.465 1.163.427 1.962.497 1.956.018 0 .05-.195.031-.554a5.307 5.307 0 0 0-.302-1.484c-.403-1.233-1.409-2.712-2.605-4.234-.302-.384-.635-.742-1.019-1.025-.384-.29-.824-.46-1.233-.579-.825-.233-1.586-.302-2.221-.352-1.271-.088-2.058-.019-2.058.019h.007Z" fill="#EB996E"/><path d="M158.995 172.148s.113-.076.308-.239l.875-.705a37.478 37.478 0 0 1 3.442-2.372l-.076.013c.969.164 2.058.352 3.24.554l-.113-.139c-.006.264.007.522.063.793.057.264.139.547.365.78.12.113.289.182.428.195.145.038.302.05.453.025.308-.044.598-.207.805-.447a1.25 1.25 0 0 0 .139-.188l.031-.051.013-.025v-.012h.006c.044-.019-.365.132-.189.069h.007l.1.044c.139.057.277.101.422.151.144.044.289.082.447.113.075.013.157.025.239.025.081 0 .176 0 .302-.056.182-.132.245-.283.314-.428a3.8 3.8 0 0 0 .164-.447c.088-.302.157-.604.207-.918l-.188.132c.421.075.918-.025 1.208-.409.132-.176.239-.396.22-.654-.013-.227-.063-.428-.113-.629-.227-.793-.548-1.56-.894-2.334v-.019c-.377-.598-.774-1.227-1.183-1.868-.251-.397-.503-.793-.748-1.183-.252-.378-.472-.805-.818-1.145a3.498 3.498 0 0 0-1.177-.78c-.434-.189-.912-.233-1.334-.277-1.736-.195-3.391-.384-4.933-.554h-.037a4.59 4.59 0 0 0-.869.227c-.27.107-.56.233-.748.528l.182-.056c-.554-.227-1.195-.233-1.68.094-.484.321-.711.837-.83 1.327l.037-.069c-1.711 1.542-3.114 2.8-4.114 3.699-.46.428-.831.768-1.108 1.019-.251.239-.377.365-.371.378.006.006.151-.101.415-.321l1.152-.969c1.019-.88 2.441-2.107 4.184-3.617l.025-.025.012-.044c.107-.428.334-.9.737-1.151.39-.265.956-.258 1.415-.063l.114.05.069-.107c.113-.176.358-.308.61-.396a4.17 4.17 0 0 1 .805-.208h-.037c1.547.183 3.196.378 4.932.585.441.051.856.088 1.253.258.39.157.755.403 1.063.711.308.296.516.698.774 1.095.245.39.497.786.749 1.182.402.642.805 1.271 1.182 1.869l-.012-.019c.34.755.66 1.522.881 2.277.05.189.1.384.107.554.018.151-.057.308-.158.446-.188.264-.566.353-.887.296l-.163-.025-.026.157c-.05.296-.113.598-.195.874-.075.265-.195.592-.339.699-.007 0-.063.019-.133.012-.062 0-.132-.012-.195-.019a3.52 3.52 0 0 1-.409-.1c-.132-.044-.27-.088-.396-.139l-.094-.037c.17-.063-.233.081-.195.069v.012l-.013.019-.025.044a1.033 1.033 0 0 1-.73.504.89.89 0 0 1-.359-.019.53.53 0 0 1-.295-.126c-.309-.321-.353-.893-.353-1.353v-.119l-.113-.019c-1.183-.182-2.278-.359-3.246-.51h-.045l-.031.013a31.784 31.784 0 0 0-3.404 2.466c-.377.315-.654.572-.843.749-.182.176-.277.276-.271.283h-.006Z" fill="#EB996E"/><path d="m202.371 150.161-40.299.327c-1.309 0-2.555.63-2.75 1.919l-4.404 29.366h-20.757a1.208 1.208 0 1 0 0 2.415h66.297l4.53-30.994a2.641 2.641 0 0 0-2.617-3.039v.006Z" fill="#E0E0E0"/><path d="M202.371 150.161s.22-.025.635.057c.403.094 1.038.34 1.542 1.019.251.333.44.774.497 1.283.063.516-.082 1.064-.151 1.655-.17 1.189-.365 2.554-.579 4.089l-3.737 25.943-.013.107h-.107c-17.158.013-39.701.025-64.321.038h-1.731c-.264.012-.641 0-.918-.176a1.397 1.397 0 0 1-.623-.73 1.379 1.379 0 0 1 .623-1.673c.277-.17.641-.183.906-.17h20.517l-.157.132c1.586-10.518 3.064-20.332 4.392-29.133.044-.56.296-1.157.742-1.535.441-.39.994-.591 1.542-.679.56-.088 1.095-.038 1.623-.057.535 0 1.057-.006 1.579-.012l6.066-.038c3.901-.025 7.506-.05 10.784-.069 6.543-.032 11.759-.063 15.352-.082 1.787 0 3.165 0 4.109-.006h1.063c.239 0 .359.012.359.012s-.12.013-.359.019c-.245 0-.598.013-1.057.025l-4.109.057c-3.592.038-8.808.1-15.352.17-3.278.031-6.883.069-10.784.107l-6.065.056c-.523 0-1.051.013-1.58.013-.528.019-1.076-.025-1.585.056-.51.082-1.019.277-1.403.623-.397.346-.604.824-.655 1.378-1.315 8.801-2.774 18.614-4.347 29.139l-.019.132H134.4c-.302-.006-.522 0-.749.132-.44.233-.66.805-.478 1.277.082.233.252.434.472.554.227.126.453.138.755.132h1.73c24.62.012 47.164.025 64.322.038l-.126.107 3.844-25.925c.233-1.535.434-2.9.617-4.083.069-.591.226-1.138.163-1.635a2.553 2.553 0 0 0-.465-1.252 2.609 2.609 0 0 0-1.491-1.025c-.409-.101-.629-.082-.629-.095l.006.025Z" fill="#022749"/><path d="M177.983 166.807a2.527 2.527 0 0 0 2.523 2.522 2.526 2.526 0 0 0 2.523-2.522 2.527 2.527 0 0 0-2.523-2.523 2.527 2.527 0 0 0-2.523 2.523Z" fill="#fff"/><path d="M156.547 183.924c.057.013 1.341-7.467 2.863-16.702 1.523-9.235 2.718-16.727 2.662-16.734-.057-.006-1.341 7.468-2.863 16.703-1.523 9.234-2.718 16.727-2.662 16.733ZM135.626 137.729v9.19l2.858-10.33" fill="#022749"/><path d="m146.929 133.001-10.455.134a.066.066 0 0 0-.027.006.08.08 0 0 0-.023.019l-.781.904c-.003.003-.005.006-.005.01a.024.024 0 0 0 0 .012.015.015 0 0 0 .006.009c.002.002.006.003.009.003l6.163-.125c.011-.003.021.001.03.009.008.008.014.02.015.034a.064.064 0 0 1-.007.039.036.036 0 0 1-.025.021l-8.048 2.147c-.002.001-.005.002-.007.005l-2.755 3.19a.11.11 0 0 0-.008.111.072.072 0 0 0 .036.035.047.047 0 0 0 .043-.003l15.864-6.393a.069.069 0 0 0 .037-.038c.008-.019.011-.04.008-.061a.094.094 0 0 0-.025-.053.052.052 0 0 0-.045-.015Z" fill="#022749"/><path d="M135.64 134.083v1.644l6.814-1.821-6.814.177ZM193.735 79.773v3.446l1.072-3.873" fill="#022749"/><path d="m197.974 78-3.921.05c-.004 0-.007.001-.01.003a.039.039 0 0 0-.009.007l-.293.34c-.001 0-.002.001-.002.003v.004l.002.004h.004l2.311-.046c.004-.001.008 0 .011.003a.025.025 0 0 1 .006.013c.001.005 0 .01-.003.015-.002.004-.005.007-.009.008l-3.018.805-.003.001-1.033 1.197a.043.043 0 0 0-.007.02.05.05 0 0 0 .004.021c.003.007.008.011.013.014a.02.02 0 0 0 .017-.002l5.949-2.397a.026.026 0 0 0 .014-.014.044.044 0 0 0 .003-.023.04.04 0 0 0-.01-.02c-.005-.005-.011-.007-.016-.006Z" fill="#022749"/><path d="M193.74 78.406v.617l2.555-.683-2.555.066Z" fill="#022749"/></g><defs><clipPath id="a"><path fill="#fff" d="M0 0h281v292H0z"/></clipPath></defs></svg>