<svg width="311" height="275" fill="none" xmlns="http://www.w3.org/2000/svg"><g clip-path="url(#a)"><path d="M132.382 38.51H16.385v103.739h115.997V38.509Z" fill="#FAFAFA"/><path d="M132.383 142.256s-.02-.668-.027-1.924c-.007-1.276-.02-3.133-.033-5.557-.014-4.87-.04-11.991-.067-21.062-.034-18.13-.08-44.028-.134-75.196l.261.26c-33.405.013-73.272.027-115.985.047h-.013l.307-.307c-.013 37.741-.026 73.259-.04 103.739l-.274-.274c34.608.06 63.569.107 83.896.141 10.171.033 18.183.053 23.662.073 2.733.013 4.832.027 6.262.033.701.007 1.236.014 1.617.014.361 0 .554.013.554.013s-.173.013-.528.013c-.367 0-.895.007-1.583.014-1.424.007-3.502.02-6.208.033-5.466.02-13.458.04-23.602.074-20.374.033-49.395.08-84.076.14h-.274v-.274c-.014-30.48-.027-65.998-.04-103.74v-.307h.32c42.714.02 82.58.034 115.985.047h.26v.26c-.053 31.243-.1 57.2-.133 75.364-.027 9.044-.054 16.145-.067 21.001-.014 2.405-.02 4.249-.034 5.511a77.845 77.845 0 0 1-.026 1.871l.02-.007Z" fill="#E0E0E0"/><path d="M60.862 56.947c0 .173-6.108.307-13.639.307-7.53 0-13.638-.14-13.638-.307 0-.168 6.1-.308 13.639-.308 7.537 0 13.638.14 13.638.307ZM110.011 64.735c0 .174-16.773.308-37.461.308-20.689 0-37.461-.14-37.461-.308 0-.167 16.772-.307 37.46-.307 20.69 0 37.462.14 37.462.307ZM38.677 77.928h-4.885v4.883h4.885v-4.883ZM50.705 77.928H45.82v4.883h4.885v-4.883ZM62.954 77.708H58.07v4.883h4.885v-4.883ZM74.762 77.928h-4.885v4.883h4.885v-4.883ZM86.796 77.928H81.91v4.883h4.885v-4.883ZM98.824 77.928H93.94v4.883h4.885v-4.883Z" fill="#E0E0E0"/><path d="M110.853 77.928h-4.885v4.883h4.885v-4.883ZM38.677 88.316h-4.885v4.883h4.885v-4.883Z" fill="#EBEBEB"/><path d="M50.705 88.316H45.82v4.883h4.885v-4.883Z" fill="#E0E0E0"/><path d="M62.733 88.316H57.85v4.883h4.884v-4.883Z" fill="#EBEBEB"/><path d="M74.762 88.316h-4.885v4.883h4.885v-4.883ZM86.796 88.316H81.91v4.883h4.885v-4.883ZM99.045 88.095H94.16v4.883h4.885v-4.883ZM110.853 88.316h-4.885v4.883h4.885v-4.883ZM38.677 98.703h-4.885v4.883h4.885v-4.883ZM50.926 98.476H46.04v4.883h4.885v-4.883ZM62.733 98.703H57.85v4.883h4.884v-4.883Z" fill="#E0E0E0"/><path d="M74.762 98.703h-4.885v4.883h4.885v-4.883Z" fill="#EBEBEB"/><path d="M86.796 98.703H81.91v4.883h4.885v-4.883ZM98.824 98.703H93.94v4.883h4.885v-4.883ZM110.853 98.703h-4.885v4.883h4.885v-4.883ZM38.677 109.084h-4.885v4.883h4.885v-4.883ZM50.705 109.084H45.82v4.883h4.885v-4.883ZM62.733 109.084H57.85v4.883h4.884v-4.883ZM74.988 108.863h-4.885v4.883h4.885v-4.883ZM86.796 109.084H81.91v4.883h4.885v-4.883Z" fill="#E0E0E0"/><path d="M98.824 109.084H93.94v4.883h4.885v-4.883Z" fill="#EBEBEB"/><path d="M110.853 109.084h-4.885v4.883h4.885v-4.883ZM38.677 119.471h-4.885v4.883h4.885v-4.883Z" fill="#E0E0E0"/><path d="M50.705 119.471H45.82v4.883h4.885v-4.883Z" fill="#EBEBEB"/><path d="M62.733 119.471H57.85v4.883h4.884v-4.883ZM74.762 119.471h-4.885v4.883h4.885v-4.883ZM86.796 119.471H81.91v4.883h4.885v-4.883ZM99.045 119.25H94.16v4.883h4.885v-4.883ZM110.853 119.471h-4.885v4.883h4.885v-4.883ZM263.372 13.812l-7.457.04.201 37.08 7.457-.04-.201-37.08Z" fill="#E0E0E0"/><path d="m210.638 13.91-19.305.105.111 20.467 19.305-.105-.111-20.467Z" fill="#EBEBEB"/><path d="m229.855 13.806-19.305.105.111 20.467 19.304-.105-.11-20.467Z" fill="#F5F5F5"/><path d="M191.367 19.68c12.83.106 25.686.032 38.516-.181.261 0 .261-.408 0-.408-12.83-.073-25.686-.006-38.516.234-.228 0-.228.347 0 .354Z" fill="#E0E0E0"/><path d="m214.376 34.043-35.075.19.09 16.68 35.075-.19-.09-16.68Z" fill="#EBEBEB"/><path d="m249.282 33.854-35.075.19.09 16.68 35.075-.19-.09-16.68Z" fill="#F5F5F5"/><path d="M179.326 38.877c23.301.26 46.682.027 69.977-.347.26 0 .26-.408 0-.408-23.302-.12-46.683-.106-69.977.401-.228 0-.228.348 0 .354ZM302.092 50.921H166.208V56.9h135.884V50.92Z" fill="#E0E0E0"/><path d="M193.966 53.794h-5.513v20.394h5.513V53.794ZM276.318 53.794h-5.519v20.394h5.519V53.794Z" fill="#E0E0E0"/><path d="m270.648-.015-7.458.04.276 50.994 7.458-.04-.276-50.994Z" fill="#EBEBEB"/><path d="m282.286 9.481-11.58.063.224 41.328 11.58-.063-.224-41.328Z" fill="#F5F5F5"/><path d="M282.212 17.455c0 .113-2.593.2-5.793.2-3.201 0-5.794-.087-5.794-.2 0-.114 2.593-.2 5.794-.2 3.2 0 5.793.086 5.793.2ZM282.212 15.718c0 .114-2.593.2-5.793.2-3.201 0-5.794-.086-5.794-.2 0-.114 2.593-.2 5.794-.2 3.2 0 5.793.086 5.793.2ZM282.212 44.602c0 .114-2.593.2-5.793.2-3.201 0-5.794-.086-5.794-.2 0-.114 2.593-.2 5.794-.2 3.2 0 5.793.086 5.793.2ZM282.212 42.865c0 .114-2.593.2-5.793.2-3.201 0-5.794-.086-5.794-.2 0-.113 2.593-.2 5.794-.2 3.2 0 5.793.087 5.793.2ZM276.606 39.078c-.114 0-.201-4.169-.201-9.312 0-5.144.087-9.312.201-9.312.113 0 .2 4.168.2 9.312 0 5.143-.087 9.312-.2 9.312Z" fill="#E0E0E0"/><path d="M294.948 19.639h-12.609v31.195h12.609V19.64Z" fill="#EBEBEB"/><path d="M268.948 8.704a2.147 2.147 0 0 1-2.145 2.144 2.147 2.147 0 0 1-2.145-2.144c0-1.182.962-2.144 2.145-2.144s2.145.962 2.145 2.144ZM267.465 14.596h-1.323v30.34h1.323v-30.34Z" fill="#E0E0E0"/><path d="M38.51 208.181c3.495-1.804 7.617-2.038 11.5-1.397 2.085.348 4.263.969 5.68 2.532 1.416 1.563 1.69 4.322.06 5.671-.969.802-2.325.922-3.582.909-3.04-.034-6.408-.568-8.84 1.256-1.384 1.042-2.306 2.779-3.963 3.286-1.617.501-3.448-.454-4.31-1.917-.862-1.463-.889-3.286-.488-4.936 0 0 .421-3.594 3.943-5.411v.007ZM30.498 192.716c2.138 3.053 6.295 2.044 8.22.181 1.924-1.864 2.739-4.563 3.48-7.141 1.698-5.885 3.402-12.057 2.146-18.049-.375-1.791-1.05-3.581-2.306-4.91-1.256-1.329-3.194-2.118-4.965-1.65-2.098.554-3.394 2.605-4.337 4.556a43.1 43.1 0 0 0-4.256 18.463c-.014 2.973.34 6.092 2.018 8.55ZM24.624 197.098c2.319-2.752 2.76-6.773 1.73-10.22-1.035-3.453-3.367-6.386-6.053-8.784a32.626 32.626 0 0 0-10.846-6.399c-1.57-.555-3.22-.989-4.878-.829-1.657.161-3.32 1.002-4.096 2.479-1.143 2.177-.047 4.816 1.136 6.967a82.603 82.603 0 0 0 7.123 10.841c2.139 2.752 4.585 5.465 7.839 6.714 3.254 1.242 6.635 1.095 8.36-1.156" fill="#15A9F3"/><path d="M30.357 238.775c.04 0 .107-.495.194-1.39.1-1.008.22-2.278.368-3.787.173-1.59.407-3.487.848-5.551.441-2.058 1.13-4.289 2.018-6.553.916-2.252 2.038-4.296 3.348-5.932 1.303-1.643 2.813-2.832 4.23-3.52a11.799 11.799 0 0 1 3.562-1.109c.888-.094 1.383-.161 1.383-.201 0-.04-.495-.047-1.403-.02-.903.06-2.226.287-3.716.969-1.497.661-3.1 1.87-4.464 3.547-1.376 1.67-2.532 3.761-3.468 6.052-.902 2.304-1.583 4.556-2.004 6.66-.421 2.097-.615 4.014-.742 5.624a72.962 72.962 0 0 0-.187 3.808c-.02.902-.007 1.396.027 1.403h.006Z" fill="#022749"/><path d="M30.618 235.856s.034-.221.04-.642v-1.843c0-1.597 0-3.908.08-6.767.141-5.712.636-11.857 1.584-20.514.902-8.143 2.105-17.629 3.382-23.788.274-1.402.548-2.665.808-3.767.247-1.109.461-2.064.662-2.832l.427-1.791c.094-.414.134-.628.114-.634-.02 0-.094.2-.22.601-.14.461-.315 1.049-.535 1.763-.24.769-.481 1.717-.755 2.819a79.563 79.563 0 0 0-.889 3.761c-1.263 5.585-2.593 13.394-3.555 22.077-.949 8.684-1.383 16.587-1.417 22.311-.033 2.859.027 5.177.1 6.781.047.748.08 1.356.114 1.837.034.42.06.641.08.641l-.02-.013Z" fill="#022749"/><path d="M30.652 220.612c.04 0 .033-.681-.013-1.924a54.46 54.46 0 0 0-.588-5.21c-.368-2.185-.882-4.776-1.698-7.589-.354-1.289-1.176-4.375-3.174-8.984-2.633-6.246-6.214-11.349-9.322-14.516-.728-.841-1.543-1.443-2.191-2.037-.335-.287-.635-.568-.936-.795-.307-.207-.588-.408-.848-.588-1.023-.701-1.598-1.069-1.618-1.035-.093.127 2.292 1.529 5.306 4.736 3 3.199 6.482 8.27 9.095 14.462a71.101 71.101 0 0 1 3.194 8.898c.835 2.785 1.383 5.357 1.804 7.514a79.19 79.19 0 0 1 .768 5.157c.114 1.23.194 1.904.234 1.904l-.013.007ZM15.91 247.505l1.53 20.929h26.897l1.53-20.929H15.91Z" fill="#022749"/><path d="M49.074 239.256H13.317v8.249h35.757v-8.249ZM13.317 267.632v2.291h35.169v-2.291H13.317ZM16.646 273.945l-1.65-4.022h32.208l-1.925 4.022H16.646Z" fill="#022749"/><path d="M45.366 254.346s-.034.066-.127.193c-.107.141-.241.314-.401.535-.381.487-.91 1.162-1.564 2.004l-.067.087-.067-.094c-.982-1.363-2.298-3.18-3.849-5.324h.22c-1.142 1.623-2.418 3.427-3.788 5.364l-.12.167-.134-.16c-1.397-1.664-2.92-3.467-4.497-5.344h.26c-.08.093-.16.2-.247.307-1.396 1.75-2.74 3.44-4.016 5.037l-.133.167-.12-.174c-1.364-1.93-2.64-3.734-3.79-5.364l.221.013-4.67 5.318-.081.093-.06-.107c-.615-1.035-1.11-1.857-1.464-2.458l-.374-.654c-.08-.147-.12-.228-.114-.234.007 0 .06.067.154.207.107.167.247.374.415.628.374.588.888 1.396 1.536 2.411l-.147-.013c1.197-1.403 2.754-3.227 4.598-5.384l.113-.134.107.147c1.163 1.623 2.446 3.42 3.823 5.337h-.261c1.27-1.609 2.62-3.3 4.01-5.05.086-.107.166-.213.247-.307l.127-.16.133.16 4.484 5.357h-.254c1.383-1.917 2.673-3.714 3.829-5.33l.114-.154.107.154c1.516 2.164 2.806 4.001 3.768 5.377h-.133c.688-.828 1.23-1.483 1.63-1.957.174-.207.32-.374.434-.508.1-.113.154-.167.16-.16l-.012.007Z" fill="#E0E0E0"/><path d="M46.241 247.365c0 .094-6.742.167-15.048.167-8.306 0-15.055-.073-15.055-.167 0-.093 6.735-.167 15.055-.167s15.048.074 15.048.167ZM47.598 270.144c0 .093-7.323.167-16.358.167-9.034 0-16.358-.074-16.358-.167 0-.094 7.324-.167 16.358-.167 9.035 0 16.358.073 16.358.167ZM231.521 185.649h62.499c5.58 0 10.11 4.529 10.11 10.107v78.569h-82.713v-78.569c0-5.578 4.531-10.107 10.11-10.107h-.006Z" fill="#022749"/><path d="M297.167 186.103c.093 0 .174 19.74.174 44.088 0 24.348-.081 44.088-.174 44.088-.094 0-.174-19.74-.174-44.088 0-24.348.08-44.088.174-44.088ZM256.42 89.391c7.577 10.802 11.994 23.787 12.569 36.967.387 8.884-.809 18.35 3.408 26.185 6.054 11.236 19.145 10.848 23.154 22.966 1.744 5.27-1.47 16.86-2.339 22.344-.982 6.233 2.827 11.463 1.844 17.689-.902 5.711-5.178 9.786-10.31 12.445-4.571 2.364-8.794 2.424-13.545.46-9.055-3.747-16.592-7.702-23.047-15.076-9.062-10.354-11.795-24.689-13.345-38.363a336.457 336.457 0 0 1 2.051-90.68" fill="#022749"/><path d="M275.791 229.71s.101-.033.294-.074c.194-.046.488-.093.856-.2.741-.2 1.837-.554 3.127-1.249 1.283-.695 2.8-1.717 4.13-3.313.655-.795 1.256-1.75 1.617-2.866.341-1.116.494-2.371.568-3.674.127-2.619-.268-5.484-.869-8.51-.581-3.033-1.37-6.266-1.564-9.766-.093-1.744-.013-3.561.381-5.358.375-1.803 1.023-3.56 1.698-5.33.681-1.77 1.396-3.554 1.911-5.424.488-1.871.788-3.855.461-5.812-.287-1.964-1.089-3.794-2.165-5.397-1.076-1.61-2.419-3.006-3.789-4.295-2.76-2.579-5.747-4.703-8.299-7.095-5.152-4.742-8.621-10.14-10.812-14.923-1.096-2.398-1.932-4.642-2.486-6.659-.321-.996-.501-1.958-.735-2.826-.174-.882-.328-1.683-.468-2.405-.214-1.456-.368-2.592-.408-3.367-.026-.374-.053-.668-.066-.881-.014-.201-.014-.301-.014-.301s.02.1.047.301c.027.213.06.501.1.875.067.775.241 1.897.475 3.353.147.721.314 1.523.501 2.391.24.862.427 1.817.755 2.806.575 2.004 1.423 4.235 2.526 6.613 2.212 4.743 5.68 10.094 10.805 14.79 2.539 2.364 5.533 4.489 8.32 7.08 1.383 1.296 2.746 2.706 3.842 4.349 1.102 1.637 1.931 3.52 2.225 5.544.341 2.018.027 4.055-.474 5.952-.528 1.897-1.25 3.694-1.932 5.458-.675 1.763-1.323 3.507-1.69 5.277-.388 1.763-.468 3.547-.381 5.27.18 3.461.955 6.687 1.523 9.733.582 3.039.976 5.932.829 8.577-.08 1.323-.241 2.572-.601 3.727-.375 1.149-1.003 2.118-1.678 2.92-1.369 1.616-2.913 2.625-4.216 3.306a13.176 13.176 0 0 1-3.174 1.196c-.755.18-1.163.207-1.163.207h-.007Z" fill="#022749"/><path d="m151.374 253.577 32.068-15.223s12.489-60.621 14.848-65.17c2.359-4.549 12.236-8.483 12.236-8.483l-1.651 82.083-2.927 18.931-45.225 4.282-9.342-16.42h-.007Z" fill="#15A9F3"/><path d="M124.004 267.939c-.174-.006-1.07.555-.321 1.958.748 1.409 6.174 6.065 7.771 4.442 1.597-1.624-.842-3.601-.842-3.601l-6.608-2.799Z" fill="#FFBE9D"/><path d="M130.846 270.805s6.555.828 9.081 1.784c2.74 1.042 6.081.334 8.326-1.189 2.246-1.524 3.555-2.9 3.555-2.9l8.366-.133s4.017-4.162 1.631-10.361c-.414-1.082-.862-1.937-1.918-3.266-.996-1.076-2.566-1.944-5.272-2.412l-9.937 2.145s-15.396-1.103-18.135.193c0 0-3.442 2.038-4.504 2.893-.401.32-1.617 4.241.882 6.272 0 0-2.179 1.73-1.003 3.287l.568.688s-1.463 1.897-.715 2.725c.755.828 7.344 4.683 9.696 3.768 2.359-.922.408-3.1-.628-3.501" fill="#FFBE9D"/><path d="M124.578 260.458s.294.093.816.294c.521.2 1.269.481 2.218.781.475.154.996.301 1.557.454.561.154 1.176.274 1.811.481.628.208 1.31.508 1.804 1.089.475.561.795 1.403.481 2.198-.153.394-.467.688-.815.875-.354.18-.728.267-1.096.307-.741.067-1.43-.02-2.091-.113-1.317-.201-2.459-.555-3.395-.889a35.678 35.678 0 0 1-2.198-.868c-.515-.221-.789-.354-.782-.367.006-.021.301.08.822.273.521.187 1.276.475 2.218.782.942.307 2.078.635 3.375.822.641.08 1.336.16 2.025.093.34-.04.688-.12.995-.28.301-.161.562-.415.688-.735.261-.655 0-1.41-.434-1.924-.434-.521-1.076-.815-1.677-1.022-.615-.207-1.23-.334-1.791-.501a28.707 28.707 0 0 1-3.755-1.349c-.508-.228-.782-.375-.776-.388v-.013Z" fill="#EB996E"/><path d="M125.166 255.715s.294.094.808.294c.515.2 1.263.488 2.206.795.935.314 2.064.654 3.334.955.628.16 1.35.287 1.945.788.294.247.514.608.568 1.009.06.394-.007.802-.167 1.169-.328.748-1.023 1.229-1.718 1.463-.701.24-1.43.254-2.091.167-1.33-.201-2.419-.675-3.362-.975-.902-.314-1.65-.575-2.218-.775-.521-.187-.809-.301-.802-.321 0-.02.301.06.835.221.575.18 1.33.414 2.246.694.948.274 2.058.728 3.334.909.635.08 1.316.06 1.971-.167.642-.221 1.263-.662 1.551-1.316.3-.648.2-1.443-.328-1.864-.508-.434-1.203-.581-1.831-.741a36.35 36.35 0 0 1-3.341-1.016 30.533 30.533 0 0 1-2.178-.882c-.508-.233-.775-.374-.769-.394l.007-.013Z" fill="#EB996E"/><path d="M128.327 257.071c-.08 0-.12-.601-.301-1.316-.167-.715-.4-1.269-.334-1.309.061-.034.421.487.602 1.242.18.755.1 1.383.033 1.383Z" fill="#EB996E"/><path d="m151.467 257.265-5.847-2.251s-16.231-7.575-16.505-7.161c-.274.407-1.156.367-.962 2.344.193 1.978 9.649 5.966 9.949 6.654.301.688-.2 4.148 3.295 6.633 3.495 2.485 6.014 2.538 6.014 2.538" fill="#FFBE9D"/><path d="M147.411 266.015s-.047.007-.14 0c-.094 0-.228-.013-.408-.04a8.315 8.315 0 0 1-1.517-.367 13.26 13.26 0 0 1-2.265-.989c-.842-.467-1.791-1.028-2.693-1.863-.902-.829-1.637-2.018-1.992-3.414-.187-.695-.253-1.449-.347-2.184a1.35 1.35 0 0 0-.06-.254c-.02-.053-.08-.1-.154-.154a6.683 6.683 0 0 0-.474-.307c-.334-.194-.682-.381-1.029-.568-1.41-.748-2.907-1.509-4.417-2.378a26.254 26.254 0 0 1-2.252-1.423 8.127 8.127 0 0 1-1.056-.881 3.067 3.067 0 0 1-.448-.561c-.053-.114-.113-.228-.133-.368-.027-.133-.02-.24-.034-.361-.02-.467 0-.968.247-1.409.127-.22.335-.387.515-.514.093-.067.174-.127.227-.194.02-.013-.013 0 .054-.054.073-.046.086-.033.113-.033.06 0 .074 0 .114.007.06.013.12.026.174.04.882.274 1.683.621 2.492.955 1.604.675 3.134 1.356 4.597 2.011a544.855 544.855 0 0 1 7.712 3.547c.548.254 1.069.514 1.563.721.508.201.983.388 1.43.561.889.354 1.651.655 2.286.909.608.247 1.096.441 1.443.581.154.067.274.114.374.16.081.04.127.06.121.06 0 0-.047-.006-.134-.033-.1-.033-.227-.08-.381-.134-.354-.127-.842-.307-1.463-.534-.642-.24-1.417-.528-2.306-.862-.447-.167-.929-.354-1.436-.541-.508-.207-1.023-.461-1.577-.708-2.206-.995-4.825-2.184-7.738-3.493a247.595 247.595 0 0 0-4.598-1.998c-.802-.327-1.624-.681-2.459-.942-.053-.013-.1-.026-.154-.033-.013 0-.053-.007-.053 0 0-.007 0 .02-.007-.02-.02-.054 0-.04-.013-.067 0-.007-.014-.013-.02-.02.187.127.047.04.087.074l-.014.02c-.087.113-.193.187-.28.253-.187.134-.341.254-.441.435-.208.354-.234.815-.214 1.255.013.241.027.421.133.602.107.18.248.354.401.507.308.314.662.588 1.023.855.721.515 1.477.976 2.225 1.41 1.503.868 2.994 1.63 4.404 2.385.354.193.701.38 1.035.581.167.1.334.2.495.327.073.06.174.134.227.261.04.106.06.207.074.3.093.768.147 1.483.327 2.164.341 1.356 1.036 2.519 1.904 3.334.862.821 1.811 1.396 2.633 1.87.835.468 1.591.795 2.225 1.022.635.221 1.143.341 1.491.408.173.033.307.053.401.066.086.014.133.02.133.02h.027ZM129.509 266.777s.234.027.622.18c.387.154.935.421 1.53.882.294.234.601.508.882.855.267.347.541.815.474 1.37-.073.554-.548.995-1.082 1.169-.555.187-1.15.1-1.704-.054-2.179-.661-4.07-1.463-5.379-2.158a16.062 16.062 0 0 1-1.511-.895c-.347-.233-.528-.374-.514-.387.013-.02.214.093.568.301.361.2.882.487 1.543.814 1.324.648 3.221 1.417 5.366 2.071.528.147 1.076.221 1.544.06.468-.147.855-.514.915-.948.067-.441-.153-.862-.401-1.189-.253-.334-.554-.608-.828-.849-1.129-.935-2.058-1.162-2.032-1.215l.007-.007Z" fill="#EB996E"/><path d="M205.714 265.735c-5.252-17.709-9.883-40.514-15.136-58.222-1.917 16.345.482 37.928 3.495 54.114.354 1.897.515 3.754 1.985 5.003l9.656-.895Z" fill="#022749" opacity=".3"/><path d="M197.114 253.577c-.073.014-.294-1.155-1.002-2.925-.347-.889-.862-1.904-1.503-2.98a23.196 23.196 0 0 0-2.466-3.253 23.322 23.322 0 0 0-3.061-2.705c-1.029-.728-2.004-1.309-2.86-1.724-1.71-.841-2.866-1.149-2.84-1.215 0-.02.294.046.816.193.26.067.574.167.928.308.355.14.776.28 1.203.494.882.387 1.885.962 2.94 1.683a21.658 21.658 0 0 1 3.134 2.726 21.406 21.406 0 0 1 2.486 3.32c.642 1.102 1.136 2.144 1.464 3.052.187.448.294.869.407 1.236.121.368.187.688.241.949.107.527.153.821.133.828l-.02.013Z" fill="#022749"/><path d="M207.124 163.872s-16.799 37.508-16.799 44.395c0 6.887 12.59 54.736 12.59 54.736-.121 1.897-.608 11.436-.608 11.436l70.558.24 1.076-15.163-5.507-14.449 5.5-40.841s3.702-23.714 4.029-30.347c.415-8.297-27.711-17.916-26.943-19.065l-4.858-6.499-27.818 22.578-5.493-15.871-6.589 6.225.862 2.625Z" fill="#15A9F3"/><path d="M253.333 173.852c-7.638 12.919-21.611 36.459-21.611 36.459l-25.045 28.544s-1.637 14.509 1.637 18.951c3.274 4.449 8.894 7.488 8.894 7.488s6.616 0 15.009-7.021c8.399-7.02 31.567-36.031 31.567-36.031l7.958-9.593s9.489-23.299 7.718-35.163c-.681-4.569-2.633-6.473-5.225-8.57-6.529-5.264-16.632-2.285-20.896 4.936h-.006Z" fill="#15A9F3"/><path d="M274.689 204.547s-.034.093-.114.267c-.094.187-.214.441-.367.761a66.062 66.062 0 0 1-1.537 2.866c-1.384 2.465-3.529 5.952-6.342 10.147a301.346 301.346 0 0 1-4.704 6.793c-1.711 2.432-3.696 4.91-5.319 7.823-1.658 2.885-3.088 6.092-4.858 9.278-1.771 3.18-3.863 6.339-6.362 9.292-2.506 2.946-5.339 5.511-8.44 7.455-3.087 1.957-6.455 3.226-9.769 3.781-3.314.574-6.582.387-9.462-.401-1.45-.381-2.787-.962-4.003-1.624a18.16 18.16 0 0 1-3.294-2.231 14.752 14.752 0 0 1-2.486-2.632c-.702-.908-1.216-1.863-1.644-2.778-.822-1.851-1.169-3.567-1.343-4.97a23.087 23.087 0 0 1-.114-3.253c.02-.361.04-.642.047-.849.014-.187.02-.287.027-.287 0 0 .007.1.007.287 0 .207-.007.488-.014.842-.013.741.014 1.837.181 3.233.193 1.389.561 3.093 1.39 4.91.434.895.948 1.837 1.643 2.725a14.619 14.619 0 0 0 2.466 2.572c.956.815 2.058 1.543 3.268 2.184 1.209.648 2.519 1.209 3.949 1.583 2.847.762 6.068.936 9.335.361 3.274-.561 6.589-1.81 9.636-3.754 3.06-1.924 5.867-4.469 8.353-7.395 2.479-2.932 4.564-6.072 6.335-9.231 1.77-3.16 3.2-6.373 4.878-9.272 1.637-2.933 3.648-5.418 5.359-7.829a326.548 326.548 0 0 0 4.738-6.76c2.833-4.175 5.011-7.635 6.428-10.073a74.109 74.109 0 0 0 1.59-2.833c.167-.314.301-.561.401-.741.094-.167.141-.254.147-.247h-.006Z" fill="#022749"/><path d="M205.421 237.566c.026.053-.355.267-.816.781a4.218 4.218 0 0 0-1.069 2.385c-.093 1.035.254 1.964.608 2.538.361.588.695.875.662.915-.02.034-.428-.193-.862-.781a4.038 4.038 0 0 1-.755-2.706 4.023 4.023 0 0 1 1.236-2.525c.535-.501.976-.641.989-.607h.007ZM210.024 245.147s.141.02.395.094c.127.033.28.087.467.127.194.033.408.073.649.12.975.16 2.439.14 4.129-.381 1.684-.541 3.562-1.576 5.319-3.126 1.758-1.55 3.335-3.621 4.985-5.778 1.644-2.171 3.301-4.208 5.132-5.738.909-.762 1.798-1.436 2.546-2.165.742-.721 1.337-1.502 1.671-2.304.628-1.643.207-3.193-.388-3.941-.614-.775-1.236-.855-1.209-.902 0-.013.14.02.387.114.241.113.595.307.923.708.654.768 1.142 2.364.507 4.114-.34.855-.949 1.67-1.697 2.419-.748.754-1.644 1.442-2.539 2.204-1.791 1.516-3.422 3.534-5.065 5.705-1.651 2.164-3.248 4.241-5.045 5.811-1.798 1.563-3.729 2.599-5.46 3.12-1.737.507-3.241.487-4.223.28-.241-.053-.455-.107-.648-.153-.187-.054-.341-.121-.461-.161-.248-.093-.375-.147-.368-.16l-.007-.007ZM256.733 169.884s-.087.147-.28.401c-.214.281-.502.648-.856 1.116-.761.948-1.811 2.364-3.087 4.128-2.532 3.54-5.78 8.617-8.914 14.475-3.147 5.852-5.76 11.283-7.758 15.157a194.196 194.196 0 0 1-2.399 4.576l-.682 1.229c-.16.281-.247.421-.26.414-.014 0 .06-.16.193-.447.161-.321.361-.735.622-1.256l2.299-4.623c1.937-3.901 4.51-9.352 7.671-15.217 3.141-5.871 6.428-10.941 9.021-14.455 1.303-1.75 2.386-3.146 3.181-4.068.374-.448.675-.802.909-1.076.207-.24.327-.367.334-.36l.006.006Z" fill="#022749"/><path d="M204.592 243.985c3.261 1.764 6.836 1.576 10.471.862a16.283 16.283 0 0 0 9.355-5.591c-.635 3.173-1.991 6.279-4.31 8.537-2.319 2.257-5.667 3.573-8.854 2.992-3.181-.581-6.395-3.574-6.662-6.8ZM235.397 224.713c2.051 3.14 2.779 7.108 1.984 10.768 2.76-4.221 3.408-9.572 2.666-14.562-.741-4.99-2.773-9.692-5.031-14.208 0 0-2.493 4.202-2.513 4.669-.12 2.425.775 7.001 1.243 9.386 1.256 1.182 1.851 3.026 1.517 4.716M215.631 261.466c6.642 5.177 16.492 5.418 23.762 1.169 6.996-4.094 11.306-11.469 15.302-18.516 6.188-10.915 13.746-24.416 18.17-36.159 0 0-12.396 16.907-16.131 24.195-2.82 5.497-4.985 9.125-8.454 14.235-6.976 10.274-19.605 16.419-32.001 15.584" fill="#022749" opacity=".3"/><path d="M202.306 274.439s-.013-.074-.013-.207c0-.161 0-.361.013-.608.02-.568.047-1.343.087-2.318.094-2.031.227-4.883.381-8.31v.047a732.58 732.58 0 0 1-4.05-14.115c-1.924-6.96-3.548-13.293-4.644-17.895a199.233 199.233 0 0 1-1.236-5.465c-.127-.621-.227-1.122-.307-1.489-.067-.341-.094-.521-.081-.528.014 0 .067.174.154.508.094.367.214.861.368 1.476.327 1.316.781 3.166 1.343 5.437a832.066 832.066 0 0 0 4.738 17.863c1.45 5.25 2.833 10.113 3.996 14.128v.046c-.208 3.427-.381 6.273-.502 8.304-.066.968-.12 1.743-.16 2.311-.02.247-.04.441-.053.608-.014.14-.027.207-.034.207ZM272.891 168.515c-.02.053-.722-.194-1.878-.481a22.246 22.246 0 0 0-4.604-.635 22.238 22.238 0 0 0-4.637.361c-1.176.221-1.891.421-1.905.368-.006-.02.167-.101.481-.214.315-.12.789-.254 1.377-.401 1.176-.287 2.847-.521 4.698-.468 1.851.061 3.501.395 4.657.749.582.173 1.036.34 1.35.481.307.133.475.22.468.24h-.007ZM250.545 156.197s-.053.127-.18.348c-.147.253-.341.567-.568.955-.501.828-1.243 2.01-2.185 3.46a192.376 192.376 0 0 1-7.792 11.042 193.421 193.421 0 0 1-7.11 8.804l-.14.167-.094-.2c-.969-2.125-1.77-3.888-2.358-5.164-.261-.588-.468-1.069-.629-1.436-.14-.334-.207-.508-.193-.514.013 0 .107.16.274.481l.701 1.402c.608 1.263 1.45 3.006 2.466 5.117l-.234-.033a249.823 249.823 0 0 0 7.043-8.831 248.186 248.186 0 0 0 7.865-10.969c.942-1.402 1.718-2.558 2.279-3.4.254-.374.461-.681.621-.922.147-.207.228-.314.241-.307h-.007ZM266.783 263.911c-.093-.013.214-3.48.682-7.742.474-4.268.935-7.715 1.029-7.708.094.013-.214 3.48-.682 7.742-.474 4.268-.935 7.715-1.029 7.702v.006ZM218.424 263.003c.093-.014.454 2.598.795 5.818.347 3.226.548 5.845.448 5.858-.094.014-.455-2.598-.796-5.818-.34-3.226-.547-5.845-.447-5.858Z" fill="#022749"/><path d="M254.114 186.704c-.086-.554-.855-.855-1.296-.514l-.047.04c-.414.374-.26 1.183.268 1.37.527.187 1.162-.341 1.069-.889l.006-.007ZM247.145 169.731c-.087-.555-.856-.855-1.297-.515l-.046.04c-.415.375-.261 1.183.267 1.37.528.187 1.163-.341 1.069-.889l.007-.006ZM231.153 183.398c-.086-.555-.855-.855-1.296-.514l-.047.04c-.414.374-.26 1.182.268 1.369.527.187 1.162-.341 1.069-.888l.006-.007ZM213.866 176.538c-.087-.555-.855-.855-1.296-.515l-.047.04c-.414.374-.26 1.183.267 1.37.528.187 1.163-.341 1.07-.889l.006-.006ZM210.813 169.771c-.087-.555-.856-.855-1.297-.515l-.047.041c-.414.374-.26 1.182.268 1.369.528.187 1.162-.341 1.069-.888l.007-.007ZM212.136 161.949c-.087-.555-.855-.855-1.297-.515l-.046.04c-.415.374-.261 1.183.267 1.37.528.187 1.163-.341 1.069-.889l.007-.006ZM202.567 172.703c-.087-.554-.856-.855-1.297-.514l-.047.04c-.414.374-.26 1.182.268 1.369.528.187 1.162-.34 1.069-.888l.007-.007ZM224.738 175.803c-.086-.555-.855-.855-1.296-.515l-.047.041c-.414.374-.26 1.182.268 1.369.527.187 1.162-.341 1.069-.889l.006-.006ZM205.968 189.744c-.087-.555-.855-.855-1.296-.515l-.047.041c-.415.374-.261 1.182.267 1.369.528.187 1.163-.341 1.069-.888l.007-.007ZM188.781 229.837c-.086-.555-.855-.855-1.296-.514l-.047.04c-.414.374-.26 1.182.268 1.369.527.187 1.162-.341 1.069-.888l.006-.007ZM194.915 206.711c-.087-.555-.855-.855-1.296-.514l-.047.04c-.414.374-.261 1.182.267 1.369.528.187 1.163-.341 1.069-.888l.007-.007ZM240.108 166.11c-.087-.554-.856-.855-1.297-.514l-.047.04c-.414.374-.26 1.182.268 1.369.528.187 1.162-.34 1.069-.888l.007-.007ZM261.685 212.155c-.087-.554-.856-.855-1.297-.514l-.046.04c-.415.374-.261 1.182.267 1.369.528.187 1.163-.34 1.069-.888l.007-.007ZM270.085 172.53c-.087-.555-.855-.855-1.296-.515l-.047.04c-.414.374-.261 1.183.267 1.37.528.187 1.163-.341 1.069-.889l.007-.006ZM266.783 198.481c-.087-.554-.855-.855-1.296-.514l-.047.04c-.414.374-.26 1.182.267 1.369.528.187 1.163-.34 1.07-.888l.006-.007ZM247.94 217.218c-.087-.554-.856-.855-1.297-.514l-.047.04c-.414.374-.26 1.183.268 1.37.528.187 1.162-.341 1.069-.889l.007-.007ZM248.734 201.621c-.086-.555-.855-.855-1.296-.515l-.047.041c-.414.374-.26 1.182.268 1.369.528.187 1.162-.341 1.069-.889l.006-.006ZM260.102 172.663c-.087-.554-.856-.855-1.297-.514l-.046.04c-.415.374-.261 1.182.267 1.369.528.187 1.163-.34 1.069-.888l.007-.007ZM244.792 157.553c-.087-.554-.855-.855-1.296-.514l-.047.04c-.414.374-.261 1.182.267 1.369.528.187 1.163-.34 1.069-.888l.007-.007ZM244.237 181.915c-.086-.554-.855-.855-1.296-.514l-.047.04c-.414.374-.26 1.182.268 1.369.527.187 1.162-.341 1.069-.888l.006-.007ZM224.698 256.229c-.087-.554-.855-.855-1.296-.514l-.047.04c-.414.374-.26 1.182.268 1.369.527.188 1.162-.34 1.069-.888l.006-.007ZM202.279 244.005c-.086-.554-.855-.855-1.296-.514l-.047.04c-.414.374-.26 1.182.268 1.369.527.187 1.162-.34 1.069-.888l.006-.007ZM184.15 249.997c-.086-.554-.855-.855-1.296-.514l-.047.04c-.414.374-.26 1.182.268 1.369.528.187 1.162-.341 1.069-.888l.006-.007ZM182.213 260.318c-.087-.555-.855-.856-1.296-.515l-.047.04c-.414.374-.261 1.183.267 1.37.528.187 1.163-.341 1.069-.889l.007-.006ZM199.205 263.778c-.087-.555-.855-.855-1.296-.515l-.047.04c-.414.375-.261 1.183.267 1.37.528.187 1.163-.341 1.07-.889l.006-.006ZM193.525 240.665c-.086-.554-.855-.855-1.296-.514l-.047.04c-.414.374-.26 1.182.268 1.369.528.187 1.162-.34 1.069-.888l.006-.007ZM214.374 246.537c-.087-.555-.855-.855-1.296-.515l-.047.04c-.414.375-.261 1.183.267 1.37.528.187 1.163-.341 1.069-.889l.007-.006ZM263.937 240.625c-.087-.554-.856-.855-1.297-.514l-.047.04c-.414.374-.26 1.182.268 1.369.528.187 1.163-.341 1.069-.888l.007-.007ZM233.272 270.003c-.087-.554-.856-.855-1.297-.514l-.047.04c-.414.374-.26 1.182.268 1.37.528.187 1.162-.341 1.069-.889l.007-.007ZM246.349 253.651c-.087-.555-.856-.855-1.297-.514l-.046.04c-.415.374-.261 1.182.267 1.369.528.187 1.163-.341 1.069-.888l.007-.007ZM254.12 266.951c-.087-.555-.855-.855-1.296-.515l-.047.04c-.414.374-.261 1.183.267 1.37.528.187 1.163-.341 1.07-.889l.006-.006ZM232.503 197.299c-.087-.555-.855-.855-1.296-.514l-.047.04c-.414.374-.261 1.182.267 1.369.528.187 1.163-.341 1.069-.888l.007-.007ZM250.091 231.253c-.087-.554-.855-.855-1.296-.514l-.047.04c-.415.374-.261 1.182.267 1.369.528.187 1.163-.341 1.069-.888l.007-.007ZM244.392 244.112c-.087-.554-.856-.855-1.297-.514l-.046.04c-.415.374-.261 1.182.267 1.369.528.187 1.163-.341 1.069-.888l.007-.007ZM263.149 254.439c-.087-.554-.856-.855-1.297-.514l-.047.04c-.414.374-.26 1.182.268 1.369.528.187 1.162-.34 1.069-.888l.007-.007ZM211.821 269.355c-.086-.554-.855-.855-1.296-.514l-.047.04c-.414.374-.26 1.183.268 1.37.527.187 1.162-.341 1.069-.889l.006-.007ZM169.055 265.454c-.087-.554-.856-.855-1.297-.514l-.046.04c-.415.374-.261 1.182.267 1.369.528.188 1.163-.34 1.069-.888l.007-.007ZM206.717 258.434c-.087-.555-.855-.855-1.296-.515l-.047.04c-.415.375-.261 1.183.267 1.37.528.187 1.163-.341 1.069-.889l.007-.006ZM170.639 250.792c-.087-.555-.856-.855-1.297-.514l-.046.04c-.415.374-.261 1.182.267 1.369.528.187 1.163-.341 1.069-.888l.007-.007ZM230.92 226.544c-.087-.555-.855-.855-1.296-.515l-.047.04c-.414.374-.261 1.183.267 1.37.528.187 1.163-.341 1.069-.889l.007-.006ZM218.304 189.744c-.087-.555-.856-.855-1.297-.515l-.046.041c-.415.374-.261 1.182.267 1.369.528.187 1.163-.341 1.069-.888l.007-.007ZM215.15 221.661c-.087-.555-.856-.855-1.297-.515l-.047.04c-.414.374-.26 1.183.268 1.37.528.187 1.162-.341 1.069-.889l.007-.006ZM210.018 211.247c-.087-.555-.856-.855-1.297-.515l-.046.04c-.415.374-.261 1.183.267 1.37.528.187 1.163-.341 1.069-.889l.007-.006ZM232.717 243.972c-.087-.555-.855-.855-1.296-.515l-.047.04c-.415.374-.261 1.183.267 1.37.528.187 1.163-.341 1.069-.889l.007-.006ZM216.713 237.546c-.087-.555-.855-.855-1.296-.515l-.047.04c-.414.374-.261 1.183.267 1.37.528.187 1.163-.341 1.069-.889l.007-.006ZM223.563 202.309c-.087-.555-.856-.855-1.297-.515l-.047.041c-.414.374-.26 1.182.268 1.369.528.187 1.162-.341 1.069-.888l.007-.007ZM199.205 227.258c-.087-.554-.855-.855-1.296-.514l-.047.04c-.414.374-.261 1.183.267 1.37.528.187 1.163-.341 1.07-.889l.006-.007ZM236.8 215.809c-.087-.554-.855-.855-1.296-.514l-.047.04c-.415.374-.261 1.182.267 1.369.528.187 1.163-.341 1.069-.888l.007-.007ZM271.675 185.91c-.087-.555-.855-.855-1.296-.515l-.047.04c-.415.374-.261 1.183.267 1.37.528.187 1.163-.341 1.069-.889l.007-.006ZM257.515 163.278c-.087-.555-.856-.855-1.297-.514l-.046.04c-.415.374-.261 1.182.267 1.369.528.187 1.163-.341 1.069-.888l.007-.007ZM230.078 166.11c-.087-.554-.855-.855-1.296-.514l-.047.04c-.414.374-.26 1.182.267 1.369.528.187 1.163-.34 1.07-.888l.006-.007Z" fill="#fff"/><path d="M202.086 84.849c-5.266 3.346-7.364 10.36-6.362 14.508.508 2.091 1.457 4.196 1.042 6.3-.36 1.823-1.67 3.28-2.652 4.856-3.275 5.264-2.693 12.625 1.363 17.314 4.056 4.683 11.259 6.32 16.939 3.835" fill="#022749"/><path d="M198.972 112.23c-12.804-28.15 17.647-42.291 34.266-37.602 15.617 4.41 22.279 12.178 24.845 22.619 2.573 10.447 2.446 21.756-1.651 31.709-2.018 4.903-5.653 9.887-10.925 10.501" fill="#022749"/><path d="M213.973 180.973c-.221-13.447-.374-31.923-.381-31.85 0 0-11.567-1.917-13.959-17-1.19-7.502-.816-19.8-.181-29.853.568-9.051 6.569-20.153 15.59-19.198l28.166 7.114a5.308 5.308 0 0 1 4.751 5.384l-1.838 58.236" fill="#FFBE9D"/><path d="M204.484 111.482c-.046 1.015.775 1.89 1.831 1.964 1.056.066 1.958-.695 2.005-1.711.047-1.015-.775-1.89-1.831-1.963-1.062-.067-1.958.694-2.005 1.71ZM224.477 111.482c-.046 1.015.776 1.89 1.831 1.964 1.056.066 1.958-.695 2.005-1.711.047-1.015-.775-1.89-1.831-1.963-1.062-.067-1.958.694-2.005 1.71ZM202.399 107.968c.234.26 1.731-.775 3.815-.701 2.079.046 3.569 1.169 3.809.921.114-.106-.113-.574-.762-1.075-.641-.501-1.737-1.009-3.033-1.049-1.297-.033-2.406.408-3.047.875-.655.468-.889.915-.776 1.036l-.006-.007ZM222.165 108.462c.241.254 1.704-.841 3.782-.841 2.078-.034 3.615 1.028 3.836.774.107-.113-.134-.567-.802-1.048-.655-.481-1.777-.942-3.074-.935-1.296.013-2.385.494-3.014.988-.634.494-.855.949-.735 1.062h.007ZM215.028 124.494c.007-.12-1.283-.341-3.381-.608-.534-.053-1.036-.16-1.123-.521-.126-.387.101-.955.355-1.576.501-1.289 1.022-2.632 1.57-4.048 2.185-5.765 3.762-10.501 3.528-10.588-.234-.087-2.192 4.516-4.377 10.28-.528 1.423-1.029 2.773-1.503 4.075-.201.601-.548 1.289-.274 2.084.14.394.534.688.875.775.341.107.642.107.902.127 2.112.114 3.422.12 3.428 0Z" fill="#022749"/><path d="M213.592 149.13s10.15.654 20.207-5.391c0 0-5.105 10.494-20.207 9.085v-3.694Z" fill="#EB996E"/><path d="M221.651 105.503c.207.568 2.285.301 4.724.595 2.453.247 4.417.961 4.745.454.147-.241-.201-.775-.996-1.323-.788-.548-2.051-1.069-3.515-1.229-1.463-.16-2.806.074-3.702.434-.895.361-1.35.809-1.263 1.076l.007-.007ZM202.88 102.738c.368.474 1.804-.02 3.528-.041 1.724-.086 3.188.321 3.522-.173.147-.241-.08-.715-.722-1.163-.628-.447-1.684-.808-2.866-.774-1.183.04-2.212.467-2.814.948-.608.488-.808.975-.648 1.203Z" fill="#022749"/><path d="M245.36 115.429c.22-.106 8.079-3.58 8.165 5.451.094 9.032-8.994 7.261-9.014 7.001-.02-.261.849-12.452.849-12.452Z" fill="#FFBE9D"/><path d="M247.237 124.427c.04-.026.161.107.428.227.26.114.708.194 1.176.014.949-.361 1.737-1.884 1.764-3.514a5.302 5.302 0 0 0-.461-2.251c-.281-.655-.715-1.116-1.196-1.196a.796.796 0 0 0-.922.441c-.121.254-.06.434-.107.448-.027.02-.194-.147-.127-.521a.99.99 0 0 1 .347-.568c.214-.18.535-.274.869-.241.695.041 1.33.675 1.657 1.383.368.708.588 1.59.568 2.512-.04 1.817-.955 3.534-2.258 3.921-.635.174-1.163-.013-1.444-.227-.28-.221-.334-.421-.301-.441l.007.013Z" fill="#EB996E"/><path d="M212.029 78.616c-5.025 2.599-7.097 12.873-5.012 18.136 2.079 5.257 7.685 7.829 13.211 9.038 5.526 1.209 10.946 1.356 16.392-.16.381 3.661 2.579 7.428 6.134 8.39 4.711 1.283 9.456-3.033 10.498-7.795 1.049-4.763-.521-9.666-2.071-14.296" fill="#022749"/><path d="M251.889 111.388s-.228.261-.695.661c-.475.395-1.163.956-2.085 1.57-.922.608-2.078 1.283-3.515 1.697-1.41.407-3.147.554-4.791-.067-1.644-.628-2.86-1.87-3.629-3.133-.775-1.282-1.129-2.592-1.303-3.687a13.405 13.405 0 0 1-.14-2.619c.027-.614.087-.955.12-.955.1 0-.007 1.37.388 3.5.214 1.056.588 2.305 1.343 3.501.748 1.182 1.898 2.331 3.408 2.899 1.503.574 3.12.461 4.477.093 1.37-.367 2.512-.988 3.441-1.549 1.845-1.156 2.927-1.991 2.981-1.918v.007Z" fill="#022749"/><path d="M215.644 130.292c.301.769.615 1.55 1.123 2.198.508.648 1.249 1.169 2.078 1.202.882.041 1.724-.481 2.218-1.209.488-.728.655-1.643.615-2.518-.033-.795-.401-1.743-1.189-1.837-.328-.04-.655.087-.963.214-1.383.561-2.766 1.122-4.156 1.683" fill="#EB996E"/><path d="M217.301 133.712c.02-.126.936.241 2.219-.273.621-.248 1.303-.742 1.677-1.523a3.34 3.34 0 0 0 .054-2.719 3.205 3.205 0 0 0-.361-.621c-.167-.174-.134-.167-.314-.141-.167.047-.441.174-.669.261-.233.093-.461.187-.681.28-.889.361-1.697.675-2.372.929-1.364.508-2.219.775-2.266.681-.04-.093.749-.534 2.059-1.162a106.62 106.62 0 0 1 2.986-1.376c.241-.1.428-.207.762-.314a.929.929 0 0 1 .615.02c.221.087.354.24.461.361.187.247.348.501.468.788a3.9 3.9 0 0 1-.127 3.32c-.508.948-1.377 1.483-2.112 1.703-.748.227-1.39.174-1.797.067-.415-.107-.608-.247-.588-.294l-.014.013ZM255.49 109.244c-.928-.067-8.386.902-7.798 14.763.548 12.952 9.636 10.1 12.536 5.223 2.747-4.616 4.337-19.352-4.738-19.986Z" fill="#022749"/><path d="M260.101 110.88s-.02-.126-.033-.367c-.014-.267-.027-.621-.047-1.055l-.114-3.948c-.066-3.407-.16-8.136-.274-13.6l.168.166h-3.849l.173-.18c.027 1.035.06 2.124.087 3.226.127 5.204.247 10.047.348 14.102v.12l-.114.027c-1.731.407-3.101 1.409-3.963 2.551-.882 1.143-1.316 2.352-1.583 3.347a14.057 14.057 0 0 0-.408 2.365c-.027.274-.04.487-.047.634-.006.141-.013.221-.02.221-.006 0-.02-.074-.026-.221a9.357 9.357 0 0 1 0-.634c.02-.555.086-1.383.334-2.405.247-1.015.668-2.258 1.557-3.447.868-1.189 2.292-2.258 4.083-2.692l-.114.147c-.114-4.055-.254-8.898-.408-14.101-.026-1.102-.06-2.191-.087-3.227v-.18h4.19v.167c.06 5.464.114 10.194.147 13.6 0 1.657.007 2.993.014 3.948 0 .434-.007.788-.014 1.056 0 .24-.013.367-.026.367l.026.013Z" fill="#022749"/><path d="M255.49 91.916s-3.902-9.131-13.197-13.634c-4.504-2.184-7.872-3.306-11.14-4.128 0 0 5.426-1.29 14.2 2.619 3.989 1.776 8.006 4.081 10.665 7.548 1.691 2.198 3.796 6.5 3.789 7.602h-4.317v-.007Z" fill="#022749"/><path d="M231.421 202.442s.054-.066.167-.18c.114-.12.288-.287.508-.521a24.76 24.76 0 0 0 1.804-2.138c.742-.968 1.564-2.224 2.439-3.74.869-1.517 1.778-3.3 2.76-5.298a280.99 280.99 0 0 0 10.191-23.192c.294-.775.594-1.563.902-2.352.3-.795.608-1.609 1.075-2.364.455-.762 1.123-1.43 1.938-1.844.408-.207.862-.367 1.357-.347.247.02.501.1.708.26.214.154.341.381.448.601l.02.047-.013.054c-.067.307-.161.614-.361.888a1.429 1.429 0 0 1-.836.548c-.668.133-1.303-.074-1.864-.341-1.209-.501-1.924-1.93-1.65-3.24a2.618 2.618 0 0 1 1.082-1.63 3.042 3.042 0 0 1 1.898-.541c.661.04 1.383.314 1.751.969.187.321.167.795-.067 1.089-.221.3-.528.481-.849.621-1.129.448-2.486.053-3.201-.908a2.343 2.343 0 0 1-.434-1.684 2.89 2.89 0 0 1 .695-1.576 2.394 2.394 0 0 1 1.503-.829c.582-.06 1.203.107 1.624.562.214.22.328.541.321.855 0 .32-.16.621-.388.821a1.884 1.884 0 0 1-1.637.441c-.594-.127-1.022-.574-1.303-1.049-.274-.481-.414-1.015-.488-1.543-.133-1.042-.12-2.137.355-3.113.253-.474.608-.908 1.136-1.122.521-.207 1.095-.153 1.59.054.474.207.956.641.976 1.235.04.582-.361 1.096-.849 1.303-.481.227-1.069.24-1.537-.02-.468-.254-.789-.701-.949-1.169-.174-.468-.167-1.009-.093-1.463a6.72 6.72 0 0 1 .307-1.389c.154-.448.428-.889.808-1.183a3.337 3.337 0 0 1 1.257-.628c.22-.046.481-.093.735-.006.24.08.441.22.608.387.167.167.301.367.394.595.094.22.127.494.02.741-.2.508-.762.675-1.196.661-.461 0-.895-.173-1.256-.42-.715-.508-1.176-1.29-1.343-2.105-.181-.808-.087-1.663.28-2.378.194-.347.428-.681.749-.915.314-.24.688-.394 1.069-.461.381-.06.788-.033 1.136.161.341.193.595.554.615.948.026.795-.588 1.416-1.257 1.603-.721.187-1.41-.2-1.817-.681a2.945 2.945 0 0 1-.688-1.71c-.061-1.216.421-2.238.654-3.2.274-.962.522-1.837.742-2.632.448-1.57.802-2.785 1.043-3.634l.28-.941c.067-.214.107-.321.107-.321s-.02.113-.073.327c-.061.227-.141.548-.248.955l-.975 3.654c-.214.795-.455 1.677-.715 2.639-.227.969-.688 1.997-.622 3.14a2.73 2.73 0 0 0 .649 1.589c.374.441 1.009.775 1.603.608.582-.153 1.123-.741 1.083-1.369-.014-.307-.221-.601-.495-.755-.28-.16-.635-.18-.975-.127-.341.06-.675.2-.956.421-.281.207-.501.514-.675.835-.334.655-.421 1.449-.247 2.204.154.755.588 1.477 1.236 1.931.328.22.695.374 1.096.367.388.007.802-.14.922-.481.134-.32-.08-.741-.354-1.015a1.3 1.3 0 0 0-.494-.314c-.167-.06-.375-.027-.582.013-.815.214-1.59.768-1.851 1.624a6.097 6.097 0 0 0-.287 1.322c-.074.468-.074.895.08 1.323.147.414.421.795.802.995.374.207.855.2 1.25.013.4-.18.694-.567.661-.995-.013-.427-.374-.775-.788-.955-.421-.174-.916-.214-1.337-.047-.414.16-.748.555-.962.969-.428.868-.448 1.924-.314 2.919.073.501.2.995.448 1.423.24.421.621.795 1.075.881.455.094.989-.04 1.33-.354.361-.3.361-.861.047-1.195-.314-.348-.849-.501-1.33-.448-.488.06-.949.334-1.283.715-.675.755-.869 1.997-.24 2.826.601.828 1.831 1.182 2.793.788.267-.114.534-.281.695-.501a.662.662 0 0 0 .047-.722c-.268-.494-.883-.748-1.471-.781-1.182-.08-2.419.735-2.626 1.897-.234 1.149.381 2.418 1.464 2.859.521.254 1.116.427 1.637.321.541-.101.835-.622.935-1.169l.014.1c-.154-.381-.475-.628-.869-.655-.394-.02-.809.114-1.183.307-.762.388-1.376 1.002-1.811 1.717-.447.722-.748 1.516-1.049 2.311-.307.795-.608 1.577-.902 2.358a260.308 260.308 0 0 1-3.608 8.818 264.602 264.602 0 0 1-6.689 14.362c-.996 1.99-1.918 3.774-2.807 5.29-.889 1.517-1.737 2.759-2.492 3.728-1.511 1.93-2.566 2.772-2.566 2.772l.033-.074Z" fill="#fff"/><path d="M263.589 102.744c-.06.014.027-.948-.608-2.471-.615-1.497-2.138-3.527-4.798-4.803-1.323-.621-2.907-1.016-4.624-1.13-1.724-.113-3.575.054-5.486.422-3.829.701-7.852 2.358-12.356 3.032-2.258.294-4.49.281-6.615-.006-2.125-.3-4.116-.902-5.947-1.61-3.642-1.503-6.582-3.6-8.661-5.718-2.091-2.111-3.441-4.135-4.196-5.611a7.946 7.946 0 0 1-.495-.982c-.126-.288-.233-.535-.327-.742-.08-.187-.14-.334-.194-.454-.04-.107-.06-.16-.053-.16 0 0 .033.046.087.147.06.12.133.26.227.44.1.2.214.441.354.722.134.287.294.615.521.962.782 1.45 2.159 3.433 4.25 5.498 2.085 2.077 5.005 4.128 8.607 5.597 1.811.695 3.775 1.283 5.874 1.57 2.098.28 4.296.294 6.522 0 4.443-.668 8.473-2.311 12.348-3.006 1.932-.36 3.809-.521 5.567-.394 1.751.127 3.361.541 4.711 1.196 2.706 1.336 4.223 3.433 4.818 4.97.32.774.401 1.422.467 1.857.007.2.014.367.021.494v.167l-.014.013Z" fill="#022749"/><path d="M253.506 88.349s-.167.04-.481.087c-.314.04-.782.113-1.376.214-1.19.2-2.9.574-4.999 1.102-2.098.52-4.61 1.149-7.47 1.45-2.854.3-6.041.273-9.322-.201a39.454 39.454 0 0 1-9.001-2.418c-2.667-1.076-4.945-2.311-6.756-3.507-.895-.608-1.704-1.17-2.379-1.704-.662-.547-1.256-.995-1.697-1.41-.421-.393-.762-.714-1.016-.954-.227-.22-.347-.341-.341-.348.007-.006.141.094.388.3.267.228.621.529 1.056.903.454.4 1.055.828 1.73 1.362.682.515 1.497 1.063 2.393 1.65 3.615 2.312 9.141 4.863 15.676 5.792 3.254.474 6.402.508 9.235.227 2.833-.274 5.339-.875 7.451-1.37 2.105-.494 3.829-.834 5.032-.995.601-.08 1.069-.133 1.39-.153.32-.02.487-.027.487-.014v-.013ZM254.495 133.105s-.093-.014-.26-.074a3.91 3.91 0 0 1-.695-.361c-.575-.36-1.337-1.028-1.958-2.084-.628-1.048-1.043-2.471-1.203-4.068-.154-1.59-.154-3.346 0-5.183.154-1.831.461-3.568.855-5.111.388-1.543.856-2.925 1.49-3.968.629-1.048 1.39-1.723 1.965-2.07.287-.181.528-.288.695-.354.167-.06.261-.08.261-.074.013.027-.341.154-.882.535-.542.38-1.25 1.055-1.831 2.084-.588 1.028-1.023 2.384-1.39 3.921a33.125 33.125 0 0 0-.822 5.057c-.147 1.81-.154 3.553-.02 5.123.14 1.563.514 2.946 1.096 3.975a6.392 6.392 0 0 0 1.817 2.097c.535.388.896.515.876.548l.006.007ZM224.446 131.051l-6.859 1.345a1.904 1.904 0 0 0-1.503 2.235l.051.255a1.904 1.904 0 0 0 2.235 1.502l6.859-1.345a1.904 1.904 0 0 0 1.502-2.235l-.05-.256a1.904 1.904 0 0 0-2.235-1.501Z" fill="#022749"/><path d="m225.754 132.063 31.707-9.94a1.497 1.497 0 0 1 1.871.968 1.487 1.487 0 0 1-1.035 1.897l-32.423 8.758-.12-1.683Z" fill="#022749"/><path d="M249.189 127.694s.367-.154 1.049-.368c.741-.227 1.717-.521 2.9-.881 1.216-.374 2.713-.769 4.29-1.29.381-.147.755-.347 1.036-.641a1.6 1.6 0 0 0 .447-1.102.96.96 0 0 0-.655-.908c-.394-.134-.868-.074-1.323.04-3.688 1.182-7.016 2.257-9.509 3.059-1.176.367-2.151.668-2.893.895-.688.201-1.069.307-1.076.281-.007-.02.361-.167 1.036-.414.735-.254 1.697-.595 2.86-1.002 2.426-.822 5.753-1.964 9.495-3.16.482-.12 1.009-.2 1.524-.027.521.167.889.702.882 1.229 0 .515-.214.996-.548 1.343-.341.341-.755.554-1.163.708-1.637.521-3.1.875-4.336 1.229-1.19.314-2.179.575-2.927.775-.695.174-1.083.261-1.089.241v-.007ZM197.348 103.412c1.083 3.808-2.786 7.074-4.15 10.795-1.316 3.594-.193 7.622 1.43 11.095 1.624 3.474 3.762 6.761 4.591 10.501 2.052 9.219-6.288 19.152-4.698 28.457.582 3.393 1.945 6.927 3.128 10.16 1.182 3.226 1.102 6.186 0 9.439-1.804 5.33-4.865 7.842-7.017 13.046-1.102 2.658-1.015 5.638-.962 8.51.054 2.872.033 5.878-1.243 8.457-1.283 2.578-4.21 4.569-6.989 3.821 2.906 3.42 8.279 4.442 12.241 2.331 3.656-1.95 5.7-5.905 7.451-9.659 8.473-18.176 12.957-19.713 12.723-39.766a65629.3 65629.3 0 0 0-.254-21.376s-3.174-.848-5.005-2.111c-9.468-6.533-9.809-18.169-9.736-27.187" fill="#022749"/><path d="M216.286 164.26v7.568s-5.821 29.693-7.571 46.185c-1.744 16.493-2.045 20.848-2.045 20.848s4.176 6.513 12.91-4.549c8.734-11.062 10.291-12.805 13.779-12.999 0 0-4.27-46.379-4.076-48.122.194-1.744 1.55-3.3 1.55-3.3l-14.561-5.624.014-.007Z" fill="#FFBE9D"/><path d="M227.74 147.179s-9.509 12.612-10.291 14.362a83.626 83.626 0 0 0-1.163 2.719l14.561 5.624 14.173-15.524 5.239-13.781-1.55-16.299s-3.108-.193-3.689 2.525c-.581 2.719-.388 5.237-.388 5.237l-4.35-3.493-7.01-2.138s-1.65 2.719 1.07 4.075c2.719 1.356 3.494 1.356 3.494 1.356l2.446 4.269-1.069 4.782-4.952-4.642a2.84 2.84 0 0 0-3.615-.227l-3.2 2.324-3.001-1.342-5.82 5.117-2.332 2.137s1.55 2.913 4.657 1.55l3.108-1.356 3.688 2.719-.006.006Z" fill="#FFBE9D"/><path d="M216.286 166.812s-.014-.134 0-.401c.006-.267.033-.668.093-1.183.067-.521.167-1.162.361-1.903.214-.735.461-1.604 1.023-2.445 2.178-3.34 5.606-7.989 9.876-13.768l.027.174a1264.82 1264.82 0 0 0-3.696-2.712l.134.013c-.628.274-1.27.555-1.918.842-.655.274-1.296.621-2.045.795-.735.167-1.57.114-2.272-.261-.715-.354-1.289-.928-1.71-1.629l-.06-.094.086-.08c2.506-2.351 5.286-4.723 8.146-7.261l.087-.074.1.06c.802.475 1.691.996 2.586 1.523h-.173c.995-.647 2.004-1.315 3.027-1.983.521-.334 1.002-.675 1.57-1.016a1.878 1.878 0 0 1 1.945.174c1.924 1.623 3.889 3.286 5.893 4.976l-.28.094c.32-1.436.668-2.993 1.015-4.569l.02.12c-.775-1.349-1.603-2.805-2.445-4.268l.153.086c-.461-.053-.808-.187-1.209-.327-.381-.14-.762-.3-1.143-.467-.381-.167-.755-.355-1.136-.535-.187-.093-.381-.214-.568-.327-.167-.147-.361-.261-.501-.441a2.467 2.467 0 0 1-.675-1.784c.014-.648.207-1.255.515-1.817l.067-.12.133.04 7.003 2.138h.034l.026.033c1.47 1.183 2.921 2.345 4.351 3.494l-.274.147a20.732 20.732 0 0 1 .367-5.164c.147-.855.655-1.703 1.417-2.151.748-.461 1.61-.641 2.472-.621h.14l.014.147c.548 5.792 1.062 11.256 1.537 16.299v.034l-.007.033c-1.944 5.077-3.702 9.686-5.266 13.767v.02l-.026.014c-4.658 5.07-8.407 9.151-11.006 11.97a734.039 734.039 0 0 1-2.987 3.22c-.334.361-.595.634-.782.828-.174.187-.274.274-.274.274s.08-.107.247-.301c.181-.2.428-.48.756-.855.681-.754 1.663-1.85 2.94-3.266 2.572-2.839 6.294-6.947 10.925-12.044l-.026.04c1.55-4.088 3.294-8.704 5.218-13.787v.066a8311.38 8311.38 0 0 1-1.577-16.299l.154.147c-.775-.013-1.604.154-2.272.575-.681.407-1.123 1.135-1.263 1.937a20.673 20.673 0 0 0-.361 5.07l.02.381-.294-.241c-1.43-1.149-2.88-2.311-4.35-3.493l.06.033-7.009-2.131.2-.073a3.65 3.65 0 0 0-.468 1.643 2.124 2.124 0 0 0 .582 1.543c.12.16.3.261.447.388.174.1.341.207.528.3.375.187.749.368 1.123.535.735.32 1.523.661 2.205.768l.114.02.04.073c.842 1.463 1.67 2.919 2.445 4.269l.034.06-.013.067a1293.08 1293.08 0 0 0-1.023 4.569l-.06.274-.214-.181c-1.998-1.69-3.956-3.346-5.867-4.97a1.562 1.562 0 0 0-1.604-.14c-.501.294-1.029.668-1.537.989-1.022.668-2.031 1.336-3.027 1.984l-.086.053-.087-.053c-.896-.535-1.785-1.056-2.58-1.53l.187-.02c-2.86 2.532-5.653 4.896-8.159 7.241l.034-.174c.374.628.929 1.196 1.577 1.51.648.341 1.396.394 2.085.24.688-.153 1.336-.501 1.998-.774.654-.288 1.296-.562 1.924-.835l.067-.034.06.047c1.29.955 2.533 1.877 3.682 2.725l.1.074-.073.1c-4.297 5.758-7.758 10.387-9.957 13.694-.554.815-.815 1.677-1.036 2.398a14.39 14.39 0 0 0-.394 1.884c-.073.514-.107.908-.127 1.175-.02.268-.033.401-.033.401l-.02.014Z" fill="#EB996E"/><path d="M234.301 150.105c-.066-.013.187-1.029.294-2.685.034-.822-.013-1.824-.461-2.806-.441-.982-1.316-1.83-2.318-2.605a57.556 57.556 0 0 0-5.386-3.667l-1.704-1.002c-.401-.234-.628-.374-.615-.394.013-.02.254.073.675.273.427.201 1.029.508 1.764.909a44.133 44.133 0 0 1 5.479 3.607c1.016.782 1.932 1.683 2.399 2.746.461 1.062.481 2.117.415 2.952-.074.848-.221 1.51-.328 1.971-.113.454-.187.701-.214.701ZM244.492 144.046c-.053-.013.087-.674.247-1.743.161-1.069.314-2.565.301-4.215a27.959 27.959 0 0 0-.368-4.209c-.173-1.068-.327-1.73-.274-1.743.041-.013.274.628.522 1.697a20.7 20.7 0 0 1 .474 4.255 20.418 20.418 0 0 1-.407 4.262c-.221 1.075-.448 1.716-.488 1.703l-.007-.007Z" fill="#EB996E"/><path d="m179.6 94.555-6.963-12.271a32.682 32.682 0 0 0 4.865-17.188c0-18.13-14.701-32.825-32.837-32.825-18.136 0-32.837 14.696-32.837 32.825 0 18.13 14.701 32.825 32.837 32.825a32.7 32.7 0 0 0 20.093-6.873l-.013.013 14.855 3.494Z" fill="#fff"/><path d="M179.6 94.555c-.609-.14-5.373-1.236-14.875-3.414l-.134-.026.08-.107.014-.014.12.12a33.483 33.483 0 0 1-6.756 4.069c-2.639 1.168-5.666 2.124-9.001 2.565-1.664.213-3.408.347-5.199.26-.895-.053-1.804-.073-2.719-.147-.909-.14-1.838-.28-2.773-.42a33.266 33.266 0 0 1-11.06-4.343 33.105 33.105 0 0 1-9.448-8.824c-2.626-3.647-4.618-7.976-5.547-12.672a33.501 33.501 0 0 1 .388-14.595c1.243-4.85 3.562-9.593 7.036-13.494l1.343-1.476c.442-.494.969-.902 1.444-1.356.501-.428.949-.915 1.49-1.296.528-.394 1.049-.788 1.577-1.176.508-.414 1.069-.741 1.631-1.075.554-.34 1.109-.675 1.663-1.009.582-.28 1.163-.568 1.744-.848.582-.267 1.15-.588 1.758-.782a33.485 33.485 0 0 1 14.714-2.258c4.858.348 9.516 1.744 13.505 3.988a33.335 33.335 0 0 1 9.984 8.524 33.414 33.414 0 0 1 5.599 10.641c1.136 3.667 1.444 7.308 1.43 10.675a32.543 32.543 0 0 1-1.603 9.218 33.241 33.241 0 0 1-3.288 7.06v-.086c4.424 7.896 6.602 11.79 6.896 12.311-.294-.514-2.526-4.389-7.036-12.231l-.027-.04.027-.04a33.358 33.358 0 0 0 3.234-7.04 32.433 32.433 0 0 0 1.557-9.159c0-3.347-.314-6.954-1.45-10.588a33.055 33.055 0 0 0-5.573-10.534 33.157 33.157 0 0 0-9.904-8.43c-3.955-2.218-8.56-3.594-13.371-3.935a33.297 33.297 0 0 0-14.56 2.245c-.609.194-1.163.508-1.745.775-.574.28-1.149.554-1.724.835l-1.643 1.002c-.555.327-1.11.661-1.611 1.069-.521.387-1.036.774-1.557 1.162-.534.374-.975.862-1.47 1.282-.474.448-.996.855-1.43 1.343l-1.323 1.456c-3.435 3.861-5.733 8.55-6.963 13.347a33.113 33.113 0 0 0-.394 14.442c.915 4.656 2.88 8.938 5.479 12.552a32.957 32.957 0 0 0 9.349 8.75 32.984 32.984 0 0 0 10.952 4.329c.929.14 1.844.287 2.746.42.909.08 1.811.1 2.7.154 1.778.094 3.502-.04 5.159-.247 3.314-.427 6.321-1.37 8.947-2.518a33.78 33.78 0 0 0 6.736-4.008l.528-.401-.401.521-.013.013-.047-.133a25588.07 25588.07 0 0 1 14.835 3.58l-.02.014Z" fill="#022749"/><path d="M137.548 65.09a2.669 2.669 0 0 1-2.666 2.665 2.669 2.669 0 0 1-2.666-2.666 2.669 2.669 0 0 1 2.666-2.665 2.669 2.669 0 0 1 2.666 2.665ZM148.213 65.09a2.669 2.669 0 0 1-2.666 2.665 2.669 2.669 0 0 1-2.666-2.666 2.669 2.669 0 0 1 2.666-2.665 2.669 2.669 0 0 1 2.666 2.665ZM158.858 63.76a2.666 2.666 0 1 1-4.619 2.663 2.666 2.666 0 0 1 4.619-2.663ZM311 274.519c0 .094-67.932.174-151.708.174-83.775 0-151.728-.08-151.728-.174 0-.093 67.92-.174 151.728-.174 83.809 0 151.708.081 151.708.174Z" fill="#022749"/><path d="M225.14 274.679s4.53-7.735 14.293-8.069c9.763-.334 14.641 8.069 14.641 8.069H225.14Z" fill="#022749"/><path d="M243.85 274.439c-.073 0-.087-.575-.287-1.456a9.608 9.608 0 0 0-1.39-3.213 9.52 9.52 0 0 0-2.479-2.479c-.748-.507-1.276-.734-1.25-.801.014-.04.588.087 1.41.548.822.454 1.851 1.302 2.667 2.491.808 1.196 1.216 2.472 1.336 3.4.127.935.033 1.517-.013 1.51h.006ZM219.099 274.325v-.06a3.752 3.752 0 0 0-3.749-3.687h-83.088a3.746 3.746 0 0 0-3.748 3.747h90.585ZM60.033 128.829c0 1.751 1.31 106.065 1.31 106.065l77.508 18.643h6.408l-4.076-145.636h-5.827L60.04 128.829h-.007Z" fill="#022749"/><path d="m76.425 230.525-24.023 44.014H74.36c-3.929-.394 34.768 0 34.768 0l-34.768-9.218 10.872-24.683-.928-10.113h-7.879Z" fill="#022749"/><path d="m76.96 238.648-2.6-82.023 23.602-2.265 2.907 87.581-8.426.427-15.483-3.72Z" fill="#022749"/><path d="M104.17 245.194s-.006-.127-.013-.381c0-.26-.007-.634-.013-1.122 0-1.002-.014-2.465-.027-4.355-.014-3.814-.027-9.352-.047-16.313-.013-13.941-.04-33.56-.06-56.312l.167.167c-8.734 0-18.13 0-27.845.007l.174-.174v3.788c-.014 22.184-.02 42.838-.027 60.039v.04l-.02.034c-7.23 13.246-13.224 24.235-17.42 31.923l-4.879 8.891c-.561 1.016-.996 1.797-1.29 2.332-.294.527-.454.794-.454.794s.134-.28.414-.815c.288-.541.709-1.329 1.257-2.351 1.109-2.064 2.74-5.083 4.804-8.931 4.17-7.702 10.13-18.71 17.314-31.984l-.02.067c-.007-17.207-.02-37.855-.027-60.039v-3.961h.174c9.716 0 19.111 0 27.845.006h.167v.167c-.027 22.752-.047 42.371-.06 56.312-.02 6.961-.04 12.505-.047 16.313-.013 1.897-.02 3.36-.027 4.355 0 .488-.013.862-.013 1.122a4.2 4.2 0 0 1-.013.381h-.014Z" fill="#022749"/><path d="M85.232 240.638c.087.04-3.254 7.762-7.464 17.255-4.21 9.492-7.698 17.154-7.785 17.114-.087-.04 3.254-7.762 7.464-17.255 4.21-9.485 7.698-17.147 7.785-17.114ZM138.851 253.531s-.014-.127-.02-.374c0-.261-.014-.628-.02-1.103-.014-.982-.027-2.404-.054-4.235-.027-3.674-.113-8.998-.24-15.571-.248-13.146-.842-31.295-1.571-51.342-.728-20.053-1.283-38.209-1.47-51.362-.1-6.573-.14-11.897-.127-15.571 0-1.83.014-3.253.014-4.235 0-.474.006-.842.013-1.102 0-.247.013-.374.013-.374s.014.127.02.374c0 .26.014.628.02 1.102.014.982.027 2.405.054 4.235.027 3.674.113 8.998.24 15.565.248 13.146.842 31.295 1.571 51.355.728 20.046 1.283 38.203 1.47 51.349.1 6.573.14 11.897.127 15.571 0 1.83-.014 3.253-.014 4.235 0 .474-.006.841-.013 1.102 0 .247-.013.374-.013.374v.007ZM99.94 166.09c.094 0 .174 17.448.174 38.964s-.08 38.964-.174 38.964c-.093 0-.173-17.441-.173-38.964 0-21.522.08-38.964.173-38.964ZM58.182 267.665s-.127-.153-.334-.467c-.107-.167-.234-.354-.38-.581a6.298 6.298 0 0 1-.482-.815c-.721-1.229-1.543-3.153-2.118-5.645-.568-2.491-.762-5.571-.414-8.931.38-3.353 1.283-7 2.893-10.554a21.6 21.6 0 0 1 3.027-4.816c.28-.368.575-.715.882-1.043.307-.334.602-.668.909-.982.641-.607 1.25-1.229 1.911-1.756 1.27-1.116 2.62-2.004 3.882-2.813.662-.36 1.277-.741 1.905-1.048.635-.288 1.223-.615 1.824-.835 2.366-.962 4.404-1.43 5.827-1.55.708-.12 1.263-.074 1.637-.1.374-.007.575 0 .575 0s-.194.033-.568.06c-.374.047-.929.027-1.624.167-1.41.16-3.415.661-5.747 1.643-.594.221-1.169.555-1.797.842-.615.307-1.23.688-1.878 1.055-1.25.808-2.572 1.697-3.822 2.812-.655.528-1.25 1.143-1.885 1.751-.3.314-.594.648-.895.975-.307.321-.595.675-.869 1.035-1.149 1.403-2.185 3-2.98 4.75a35.735 35.735 0 0 0-2.893 10.447c-.368 3.327-.2 6.373.334 8.844.534 2.472 1.316 4.389 1.998 5.632.147.32.3.594.447.828.134.227.254.427.355.594.187.321.287.495.274.501h.006Z" fill="#022749"/><path d="M90.63 173.912V199l7.804-28.202" fill="#15A9F3"/><path d="m121.49 161.001-28.544.368a.147.147 0 0 0-.073.016.172.172 0 0 0-.064.053l-2.134 2.468a.05.05 0 0 0-.013.027.065.065 0 0 0 0 .032c.004.011.01.02.017.025a.031.031 0 0 0 .023.008l16.829-.343a.086.086 0 0 1 .079.025.156.156 0 0 1 .043.094.176.176 0 0 1-.019.107.106.106 0 0 1-.069.058L85.594 169.8a.033.033 0 0 0-.02.013l-7.523 8.711a.306.306 0 0 0-.02.302.196.196 0 0 0 .096.095.14.14 0 0 0 .12-.009l43.311-17.454a.193.193 0 0 0 .1-.104.3.3 0 0 0 .021-.166.246.246 0 0 0-.067-.143.146.146 0 0 0-.122-.044Z" fill="#15A9F3"/><path d="M90.667 163.955v4.491l18.606-4.973-18.606.482Z" fill="#15A9F3"/></g><defs><clipPath id="a"><path fill="#fff" d="M0 0h311v275H0z"/></clipPath></defs></svg>