<svg width="310" height="306" fill="none" xmlns="http://www.w3.org/2000/svg"><g clip-path="url(#a)"><path d="M45.22 153.934c-60.293 34.786-60.286 91.189 0 125.976 60.295 34.787 158.045 34.787 218.339 0 60.293-34.787 60.287-91.19 0-125.976-60.294-34.787-158.044-34.787-218.338 0Z" fill="#FAFAFA"/><path d="M53.665 256.545c7.012 4.091 7.012 10.722 0 14.813-7.012 4.091-18.375 4.091-25.387 0-7.011-4.091-7.011-10.722 0-14.813 7.012-4.091 18.375-4.091 25.387 0Z" fill="#E0E0E0"/><path d="m150.602 225.757-10.59-6.11c-.555-.323-1.459-.323-2.014 0l-36.644 21.141-53.909-31.105-5.638 3.253 53.909 31.105-41.338 23.847c-.555.323-.555.844 0 1.161l10.59 6.11c.555.323 1.46.323 2.014 0l83.62-48.241c.555-.323.555-.844 0-1.161ZM275.654 269.57c13.06-7.535 13.06-19.749 0-27.284s-34.227-7.535-47.287 0c-13.06 7.535-13.06 19.749 0 27.284 13.06 7.536 34.227 7.536 47.287 0Z" fill="#E0E0E0"/><path d="M177.019 281.276c28.465 0 51.54-13.315 51.54-29.739s-23.075-29.739-51.54-29.739c-28.464 0-51.539 13.315-51.539 29.739s23.075 29.739 51.539 29.739Z" fill="#E0E0E0"/><path d="M117.215 215.167v-1.861l-33.092 19.135 1.578.931 31.514-18.205ZM75.949 89.237c.165.099.25.29.211.481L48.74 211.36l-.786 3.451a2.054 2.054 0 0 1-1.096-.217c-.006-.007-.013-.007-.026-.014l-1.836-1.062a.453.453 0 0 1-.211-.482L72.931 88.168a.442.442 0 0 1 .654-.284l2.357 1.36.007-.007Z" fill="#022749"/><path d="M79.388 87.58 51.103 213.035a.749.749 0 0 1-.35.475l-1.842 1.063c-.264.158-.607.231-.957.231l.786-3.451L76.226 89.395l3.156-1.821.006.006ZM82.544 256.657v3.629c-.37 0-.74-.079-1.016-.231-.007-.006-.014-.006-.027-.013l-1.71-.983c-.277-.165-.41-.383-.41-.587V149.533l3.15 1.821v105.31l.013-.007ZM85.707 149.533v108.893l-.007.079c-.006.204-.158.396-.416.547l-1.696.984c-.278.171-.66.25-1.03.25V151.347l3.156-1.814h-.007ZM123.46 236.684a2.18 2.18 0 0 1-.983-.284l-1.757-1.016a.887.887 0 0 1-.429-.607l-18.804-98.006 3.156 1.821 18.137 94.562.674 3.53h.006ZM126.609 234.843v.013c0 .218-.145.429-.435.594l-1.605.93-.079.047c-.284.165-.66.25-1.03.25l-.674-3.53-18.137-94.561 3.163-1.815 18.771 97.927s.006.013.006.026l.027.119h-.007Z" fill="#022749"/><path d="m84.611 237.621 35.753-20.627v-3.642l-35.753 20.633v3.636Z" fill="#022749"/><path d="M40.223 181.785v1.313c0 .641.449 1.426 1.01 1.742l10.59 6.111c.555.323 1.46.323 2.014 0l83.62-48.241c.555-.324 1.011-1.102 1.011-1.742v-1.313c0-.64-.449-1.426-1.011-1.742l-10.59-6.11c-.555-.324-1.459-.324-2.014 0l-83.62 48.24c-.555.324-1.01 1.102-1.01 1.742Z" fill="#15A9F3"/><path opacity=".4" d="m41.225 181.205 10.59 6.11c.556.323 1.46.323 2.015 0l83.62-48.241c.555-.323.555-.845 0-1.161l-10.59-6.11c-.555-.324-1.459-.324-2.014 0l-83.62 48.24c-.555.324-.555.845 0 1.162Z" fill="#fff"/><path opacity=".1" d="M52.82 187.559v3.636c-.363 0-.726-.086-1.004-.238l-10.59-6.11c-.561-.323-1.01-1.108-1.01-1.742v-1.313c0-.567.343-1.234.805-1.603-.35.316-.277.745.205 1.022l10.59 6.11c.271.159.647.238 1.004.238Z" fill="#022749"/><path d="m49.248 183.066-2.945-1.696c-.93-.535-1.73-1.834-1.789-2.903l-7.27-125.752c-.059-1.07.641-2.37 1.566-2.904l77.717-44.856c.931-.534 2.43-.534 3.361 0l2.945 1.696c.931.535 1.73 1.835 1.789 2.904l7.269 125.752c.06 1.068-.64 2.368-1.564 2.903l-77.718 44.849c-.931.535-2.43.535-3.36 0v.007Z" fill="#E0E0E0"/><path d="M124.582 9.27c-.178-.85-.904-1.154-1.756-.672L45.108 53.447c-.468.27-.878.739-1.155 1.267l-6.306-3.636c.291-.528.7-.99 1.163-1.267l77.717-44.856c.925-.534 2.43-.534 3.354-.006l2.965 1.709c.845.495 1.578 1.61 1.736 2.613Z" fill="#F0F0F0"/><path d="m43.543 56.344 7.27 125.752c.06 1.069.865 1.504 1.789.963l77.718-44.849c.931-.535 1.631-1.835 1.565-2.904l-7.27-125.752c-.059-1.068-.865-1.504-1.789-.963l-77.718 44.85c-.93.534-1.63 1.834-1.565 2.903Z" fill="#FAFAFA"/><path d="M123.592 9.139c.198 0 .244.29.251.462l7.269 125.752c.047.778-.508 1.801-1.181 2.19l-77.718 44.85c-.192.112-.317.125-.377.125-.198 0-.244-.29-.25-.462l-7.27-125.752c-.046-.779.508-1.801 1.182-2.19l77.724-44.85c.192-.112.317-.125.377-.125m0-.779a1.54 1.54 0 0 0-.766.231l-77.718 44.85c-.93.534-1.63 1.834-1.565 2.903l7.27 125.752c.046.758.462 1.194 1.03 1.194.23 0 .495-.073.765-.231l77.718-44.849c.931-.535 1.631-1.835 1.565-2.904L124.629 9.554c-.046-.758-.462-1.194-1.03-1.194Z" fill="#E0E0E0"/><path d="M99.355 23.576v3.88c0 .448-.317.996-.707 1.22l-23.432 13.54c-.39.225-1.023.225-1.413 0l-.766-.442c-.39-.224-.706-.772-.706-1.22v-2.825l-6.306-3.635-3.149 1.814v-4.691c0-.449.31-.996.7-1.22l23.432-13.54c.39-.225 1.023-.225 1.413 0l10.22 5.898c.39.225.707.772.707 1.221h.007Z" fill="#022749"/><path d="M99.355 23.583v3.873c0 .449-.317.99-.707 1.214L75.216 42.216a1.547 1.547 0 0 1-.706.165v-5.496c.257 0 .515-.06.706-.172L98.65 23.167c.343-.191.382-.502.125-.72.337.258.58.727.58 1.136Z" fill="#022749"/><path d="m63.582 30.814 10.22 5.9c.39.224 1.024.224 1.414 0l23.432-13.54c.39-.225.39-.588 0-.812l-10.22-5.9c-.39-.223-1.024-.223-1.414 0l-23.432 13.54c-.39.225-.39.588 0 .812Z" fill="#022749"/><path d="m66.09 115.307-9.302 5.364-.561-10.438 9.296-5.371.568 10.445ZM79.262 107.705l-9.296 5.365-.825-15.236 9.296-5.364.825 15.235ZM92.434 100.104l-9.296 5.365-1.367-25.22 9.303-5.37 1.36 25.225ZM105.614 92.503l-9.303 5.364-1.13-20.93 9.297-5.364 1.136 20.93ZM118.785 84.901l-9.303 5.365-2.35-43.47 9.303-5.365 2.35 43.47Z" fill="#15A9F3"/><path d="m116.362 53.44-1.519-8.67-6.616 7.99 2.054.172c-5.414 16.899-25.631 44.15-47.96 58.798 22.329-11.428 42.922-34.126 52.179-58.442l1.862.159v-.007Z" fill="#15A9F3"/><path opacity=".7" d="m116.362 53.44-1.519-8.67-6.616 7.99 2.054.172c-5.414 16.899-25.631 44.15-47.96 58.798 22.329-11.428 42.922-34.126 52.179-58.442l1.862.159v-.007Z" fill="#fff"/><path d="M76.741 67.046 55.6 79.246c-.561.324-1.05 0-1.09-.725-.04-.726.383-1.577.945-1.9l21.14-12.201c.562-.323 1.05 0 1.09.726.04.726-.383 1.577-.944 1.9Z" fill="#022749"/><path d="M54.76 83.608a.402.402 0 0 1-.336-.191.386.386 0 0 1 .139-.528L86.63 64.387a.387.387 0 0 1 .39.666L54.952 83.555a.398.398 0 0 1-.191.053ZM72.218 121.041a.385.385 0 0 1-.198-.719l32.068-18.502a.386.386 0 1 1 .39.666l-32.069 18.502a.398.398 0 0 1-.191.053ZM54.946 87a.402.402 0 0 1-.337-.192.386.386 0 0 1 .138-.528l27.07-15.618a.387.387 0 0 1 .39.666l-27.07 15.619a.398.398 0 0 1-.191.053Z" fill="#E0E0E0"/><path d="m71.993 132.456-13.41 7.74c-.356.204-.666 0-.692-.462-.027-.462.244-1.003.6-1.208l13.41-7.739c.356-.205.667 0 .693.461.027.462-.244 1.003-.6 1.208Z" fill="#022749"/><path d="M58.049 144.234a.248.248 0 0 1-.119-.462l20.342-11.738a.241.241 0 0 1 .337.092.248.248 0 0 1-.093.337l-20.342 11.738a.27.27 0 0 1-.125.033ZM58.168 146.385a.248.248 0 0 1-.119-.462l17.173-9.91a.241.241 0 0 1 .337.092.246.246 0 0 1-.093.336l-17.173 9.911a.27.27 0 0 1-.125.033ZM58.287 148.536a.248.248 0 0 1-.119-.462l20.342-11.738a.241.241 0 0 1 .337.092.248.248 0 0 1-.092.337l-20.342 11.738a.271.271 0 0 1-.126.033ZM58.4 150.687a.248.248 0 0 1-.119-.462l17.173-9.91a.247.247 0 0 1 .244.429l-17.173 9.91a.27.27 0 0 1-.126.033ZM58.517 152.838a.248.248 0 0 1-.119-.462l20.343-11.738a.242.242 0 0 1 .337.092.248.248 0 0 1-.093.337l-20.342 11.738a.27.27 0 0 1-.126.033ZM58.63 154.989a.247.247 0 0 1-.119-.461l17.173-9.911a.241.241 0 0 1 .337.092.248.248 0 0 1-.093.337l-17.173 9.91a.27.27 0 0 1-.125.033ZM58.888 159.641a.248.248 0 0 1-.119-.462l20.342-11.738a.242.242 0 0 1 .337.092.248.248 0 0 1-.093.337l-20.342 11.738a.271.271 0 0 1-.125.033ZM59 161.786a.243.243 0 0 1-.211-.126.247.247 0 0 1 .092-.336l17.173-9.911a.243.243 0 0 1 .337.093.247.247 0 0 1-.093.336l-17.173 9.911a.271.271 0 0 1-.125.033ZM59.118 163.937a.243.243 0 0 1-.211-.126.247.247 0 0 1 .092-.336l20.342-11.739a.242.242 0 0 1 .337.093.247.247 0 0 1-.092.336l-20.343 11.739a.27.27 0 0 1-.125.033ZM59.23 166.088a.248.248 0 0 1-.119-.462l17.174-9.911a.242.242 0 0 1 .336.093.247.247 0 0 1-.092.336l-17.173 9.911a.27.27 0 0 1-.126.033ZM59.35 168.239a.248.248 0 0 1-.119-.462l20.342-11.738a.241.241 0 0 1 .337.092.247.247 0 0 1-.093.336l-20.342 11.739a.271.271 0 0 1-.126.033ZM59.469 170.39a.248.248 0 0 1-.119-.462l17.173-9.911a.242.242 0 0 1 .337.093.247.247 0 0 1-.093.336l-17.173 9.911a.27.27 0 0 1-.125.033Z" fill="#E0E0E0"/><path d="m93.438 133.221-1.34-11.316c.898-.574 1.789-1.016 2.66-1.293l-.184 1.735-1.136 10.881v-.007Z" fill="#15A9F3"/><path opacity=".7" d="m93.438 133.221-1.34-11.316c.898-.574 1.789-1.016 2.66-1.293l-.184 1.735-1.136 10.881v-.007Z" fill="#fff"/><path d="m93.795 135.016.264-2.507 1.261-12.062c1.994-.515 3.85-.251 5.381.772 1.149.765 2.06 1.907 2.714 3.405l-3.579 3.873-6.034 6.519h-.007Z" fill="#15A9F3"/><path opacity=".3" d="m93.795 135.016.264-2.507 1.261-12.062c1.994-.515 3.85-.251 5.381.772 1.149.765 2.06 1.907 2.714 3.405l-3.579 3.873-6.034 6.519h-.007Z" fill="#fff"/><path d="M86.17 150.423c-4.61-3.081-5.098-12.134-1.09-20.184 1.67-3.352 3.948-6.156 6.45-7.951l1.624 13.725v.046l3.203 12.51c-3.579 3.036-7.375 3.735-10.188 1.854Z" fill="#15A9F3"/><path d="m96.905 148.088-2.912-11.396 7.606 5.087c-1.281 2.488-2.892 4.652-4.694 6.309Z" fill="#15A9F3"/><path opacity=".5" d="m96.905 148.088-2.912-11.396 7.606 5.087c-1.281 2.488-2.892 4.652-4.694 6.309Z" fill="#fff"/><path d="m101.975 141.027-8.015-5.358 9.692-10.465c1.578 4.25.938 10.373-1.67 15.823h-.007Z" fill="#15A9F3"/><path opacity=".2" d="m101.975 141.027-8.015-5.358 9.692-10.465c1.578 4.25.938 10.373-1.67 15.823h-.007Z" fill="#022749"/><path d="m109.839 114.851-2.404 1.386-.171-3.108 2.41-1.392.165 3.114Z" fill="#15A9F3"/><path opacity=".7" d="m109.839 114.851-2.404 1.386-.171-3.108 2.41-1.392.165 3.114Z" fill="#fff"/><path d="M111.939 111.216a.403.403 0 0 1-.337-.192.385.385 0 0 1 .139-.527l8.002-4.619a.386.386 0 1 1 .389.666l-8.002 4.619a.395.395 0 0 1-.191.053ZM112.064 113.565a.403.403 0 0 1-.337-.192.385.385 0 0 1 .139-.527l8.002-4.619a.386.386 0 1 1 .389.666l-8.002 4.619a.395.395 0 0 1-.191.053Z" fill="#E0E0E0"/><path d="m110.189 121.232-2.41 1.386-.165-3.108 2.404-1.386.171 3.108Z" fill="#15A9F3"/><path opacity=".3" d="m110.189 121.232-2.41 1.386-.165-3.108 2.404-1.386.171 3.108Z" fill="#fff"/><path d="M112.282 117.596a.386.386 0 0 1-.198-.719l8.003-4.619a.387.387 0 0 1 .528.139.387.387 0 0 1-.139.528l-8.002 4.619a.4.4 0 0 1-.192.052ZM112.407 119.945a.386.386 0 0 1-.198-.719l8.003-4.619a.387.387 0 0 1 .528.139.387.387 0 0 1-.139.528l-8.002 4.619a.4.4 0 0 1-.192.052Z" fill="#E0E0E0"/><path d="m110.532 127.613-2.403 1.385-.172-3.107 2.403-1.386.172 3.108Z" fill="#15A9F3"/><path opacity=".2" d="m110.532 127.613-2.403 1.385-.172-3.107 2.403-1.386.172 3.108Z" fill="#022749"/><path d="M112.625 123.977a.404.404 0 0 1-.337-.191.387.387 0 0 1 .139-.528l8.002-4.619a.386.386 0 0 1 .39.666l-8.002 4.619a.402.402 0 0 1-.192.053ZM112.757 126.326a.404.404 0 0 1-.337-.191.387.387 0 0 1 .139-.528l8.002-4.619a.386.386 0 0 1 .39.666l-8.003 4.619a.395.395 0 0 1-.191.053Z" fill="#E0E0E0"/><path d="m110.876 133.993-2.404 1.386-.171-3.108 2.41-1.385.165 3.107Z" fill="#15A9F3"/><path opacity=".5" d="m110.876 133.993-2.404 1.386-.171-3.108 2.41-1.385.165 3.107Z" fill="#fff"/><path d="M112.976 130.358a.403.403 0 0 1-.337-.192.386.386 0 0 1 .139-.528l8.002-4.618a.386.386 0 1 1 .389.666l-8.002 4.619a.395.395 0 0 1-.191.053ZM113.101 132.707a.403.403 0 0 1-.337-.192.386.386 0 0 1 .139-.528l8.002-4.618a.386.386 0 1 1 .389.666l-8.002 4.619a.395.395 0 0 1-.191.053Z" fill="#E0E0E0"/><path d="m111.225 140.374-2.41 1.386-.165-3.108 2.404-1.386.171 3.108Z" fill="#15A9F3"/><path d="M113.319 136.738a.4.4 0 0 1-.337-.191.387.387 0 0 1 .138-.528l8.003-4.619a.387.387 0 0 1 .389.667l-8.002 4.618a.395.395 0 0 1-.191.053ZM113.444 139.087a.4.4 0 0 1-.337-.191.387.387 0 0 1 .138-.528l8.003-4.619a.387.387 0 0 1 .389.667l-8.002 4.619a.405.405 0 0 1-.191.052Z" fill="#E0E0E0"/><path d="M65.959 55.48c.548-.317.977-.39 1.294-.238.317.158.495.554.528 1.194.033.64-.092 1.214-.376 1.729-.284.514-.7.924-1.241 1.24l-1.083.62.105 1.947a.434.434 0 0 1-.046.198.342.342 0 0 1-.125.145l-.548.317c-.046.026-.093.026-.132 0-.04-.027-.06-.073-.06-.132l-.303-5.635c0-.066.013-.132.046-.198a.342.342 0 0 1 .125-.145l1.81-1.043h.006Zm-.924 3.457 1.043-.6c.257-.146.455-.33.6-.548.146-.218.212-.489.192-.819-.02-.323-.106-.508-.264-.54-.158-.04-.37.02-.627.164l-1.043.6.092 1.743h.007ZM70.139 55.763c-.271.158-.462.343-.575.567-.112.225-.158.509-.138.858l.125 2.27a.434.434 0 0 1-.046.198.342.342 0 0 1-.126.145l-.515.297c-.052.026-.092.033-.132 0-.04-.026-.059-.072-.059-.132l-.218-4.065c0-.066.013-.131.046-.197a.342.342 0 0 1 .126-.146l.515-.297c.046-.026.092-.026.132 0 .04.027.06.073.066.132l.013.205c.112-.205.231-.39.357-.541.132-.152.303-.29.515-.416l.303-.178c.046-.026.093-.033.132 0 .04.026.06.073.066.132l.033.574a.434.434 0 0 1-.046.198.307.307 0 0 1-.125.145l-.436.251h-.013ZM71.155 56.436c-.02-.33 0-.653.066-.99.06-.33.158-.646.29-.943.132-.297.297-.561.496-.805.198-.238.422-.436.673-.581.25-.145.482-.218.693-.218.212 0 .396.06.548.178.152.12.278.29.37.515.092.224.145.488.165.785l.02.396a.433.433 0 0 1-.046.198.342.342 0 0 1-.126.145l-2.258 1.3a.621.621 0 0 0 .086.317c.046.08.112.132.185.158a.474.474 0 0 0 .257.013c.1-.02.192-.059.29-.112a2.01 2.01 0 0 0 .35-.257c.087-.092.16-.178.212-.27.046-.073.086-.133.119-.166a.38.38 0 0 1 .125-.098l.542-.31c.046-.027.092-.034.132-.007.04.026.06.072.06.138 0 .086-.034.211-.087.376-.059.165-.151.35-.27.548a3.687 3.687 0 0 1-.47.594 2.85 2.85 0 0 1-.66.515c-.25.145-.481.217-.693.224a.8.8 0 0 1-.548-.185c-.158-.125-.277-.31-.37-.554a3.015 3.015 0 0 1-.164-.89l.013-.014Zm1.584-2.263a1.32 1.32 0 0 0-.33.264 1.53 1.53 0 0 0-.224.33 1.47 1.47 0 0 0-.132.343 2.034 2.034 0 0 0-.053.31l1.525-.878a1.028 1.028 0 0 0-.066-.244.413.413 0 0 0-.139-.191.369.369 0 0 0-.23-.066c-.093 0-.212.046-.357.132h.006ZM77.17 53.968c0-.066-.02-.105-.053-.132-.033-.02-.093-.026-.172-.02-.079.014-.185.04-.317.08s-.303.092-.508.151c-.198.053-.37.08-.502.066a.59.59 0 0 1-.33-.125.61.61 0 0 1-.185-.304 1.772 1.772 0 0 1-.072-.455 1.976 1.976 0 0 1 .066-.567 2.52 2.52 0 0 1 .25-.607c.113-.198.251-.39.416-.568.165-.178.363-.336.581-.462.218-.125.416-.21.595-.244.178-.04.33-.04.455 0a.535.535 0 0 1 .304.198.751.751 0 0 1 .139.35c.006.06 0 .125-.04.198a.346.346 0 0 1-.126.145l-.521.297c-.066.04-.119.053-.152.04-.033-.014-.073-.027-.119-.047a.33.33 0 0 0-.165-.013.791.791 0 0 0-.304.125c-.138.08-.25.172-.356.284a.51.51 0 0 0-.139.37c0 .066.02.112.046.138.027.027.08.04.146.04.072 0 .171-.027.297-.06.125-.032.29-.085.488-.145.41-.118.7-.112.879.033.178.139.277.383.297.733.006.171-.013.363-.073.567-.06.205-.145.41-.27.614-.12.204-.271.402-.456.587-.185.185-.39.35-.628.482a1.968 1.968 0 0 1-.64.257 1.059 1.059 0 0 1-.482-.013.605.605 0 0 1-.31-.224.778.778 0 0 1-.132-.363.323.323 0 0 1 .04-.198.4.4 0 0 1 .125-.145l.521-.297c.066-.04.12-.047.159-.027.033.02.08.046.119.073.046.026.105.04.185.04.079 0 .198-.053.35-.14.066-.039.138-.085.21-.138a1.68 1.68 0 0 0 .199-.171.977.977 0 0 0 .145-.192.372.372 0 0 0 .053-.198l-.013-.013ZM78.537 52.173c-.02-.323 0-.653.066-.99.06-.33.158-.646.29-.943.132-.297.297-.567.495-.805a2.54 2.54 0 0 1 .674-.58c.25-.146.482-.218.693-.218.211 0 .396.06.548.178.152.119.277.29.37.515.092.224.145.488.165.785l.02.396a.434.434 0 0 1-.047.198.342.342 0 0 1-.125.145l-2.258 1.3a.621.621 0 0 0 .086.316c.046.08.112.132.185.159a.478.478 0 0 0 .257.013c.1-.02.192-.06.29-.112.146-.086.258-.172.35-.258.087-.092.16-.184.212-.27.046-.073.086-.132.119-.165a.381.381 0 0 1 .125-.099l.542-.31c.046-.027.092-.033.132-.007.04.027.06.073.06.139 0 .086-.027.211-.087.376s-.152.35-.27.541a3.686 3.686 0 0 1-.47.594c-.184.198-.402.37-.66.515-.25.145-.482.224-.693.224a.835.835 0 0 1-.548-.185c-.158-.125-.277-.31-.37-.554a3.018 3.018 0 0 1-.165-.89l.014-.008Zm1.584-2.263a1.323 1.323 0 0 0-.33.264 1.54 1.54 0 0 0-.224.33 1.83 1.83 0 0 0-.132.343 1.104 1.104 0 0 0-.047.31l1.525-.877a1.118 1.118 0 0 0-.066-.244.372.372 0 0 0-.138-.192.369.369 0 0 0-.231-.066c-.093 0-.212.046-.357.132ZM85.997 49.97a.434.434 0 0 1-.046.197.341.341 0 0 1-.125.146l-.515.297c-.047.026-.093.033-.132 0-.04-.027-.06-.073-.066-.132l-.12-2.217c-.019-.35-.098-.594-.237-.726-.138-.139-.337-.132-.594.02a1.32 1.32 0 0 0-.548.64c-.126.29-.178.607-.159.956l.12 2.217a.434.434 0 0 1-.047.198.342.342 0 0 1-.125.145l-.515.297c-.053.027-.093.033-.132 0-.04-.026-.06-.072-.066-.132l-.218-4.064c0-.066.013-.132.046-.198a.341.341 0 0 1 .125-.145l.515-.297c.047-.027.093-.027.132 0 .04.026.06.072.066.132l.014.198a3.71 3.71 0 0 1 .39-.614c.151-.191.336-.35.554-.468.277-.159.508-.238.7-.231.191 0 .343.066.468.184.12.12.212.29.278.515.06.218.099.469.112.74l.125 2.348v-.007ZM87.965 47.383c.006.178.053.303.132.37.08.066.224.04.422-.08l.41-.237c.046-.027.092-.033.132 0 .04.026.06.072.066.132l.033.574a.434.434 0 0 1-.046.198.342.342 0 0 1-.126.145l-.502.29c-.422.244-.752.297-.996.165-.245-.132-.377-.475-.41-1.023l-.099-1.873-.442.257c-.053.026-.093.033-.132 0-.04-.026-.06-.073-.066-.132l-.033-.574c0-.066.013-.132.046-.198a.342.342 0 0 1 .125-.145l.443-.258-.08-1.425c0-.066.014-.132.047-.198a.343.343 0 0 1 .125-.145l.515-.297c.046-.026.093-.026.132 0 .04.026.06.073.066.132l.08 1.425.87-.501c.047-.027.093-.027.133 0 .04.026.06.072.066.132l.033.574a.434.434 0 0 1-.046.198.342.342 0 0 1-.126.145l-.871.502.099 1.847ZM89.648 44.579a2.06 2.06 0 0 1 .106-.462c.06-.178.145-.363.257-.554a2.94 2.94 0 0 1 .423-.555c.172-.178.37-.336.6-.468.232-.132.437-.211.628-.238a.86.86 0 0 1 .495.066c.139.073.251.205.337.396.086.185.132.429.152.726l.138 2.567a.434.434 0 0 1-.046.198.342.342 0 0 1-.125.145l-.515.297c-.053.026-.093.033-.132 0-.04-.027-.06-.073-.06-.132l-.013-.29a2.545 2.545 0 0 1-.383.666c-.172.224-.396.409-.667.567-.191.112-.37.178-.528.198-.158.02-.29 0-.396-.06a.65.65 0 0 1-.264-.296 1.304 1.304 0 0 1-.112-.495 2.03 2.03 0 0 1 .277-1.135c.211-.35.495-.68.858-.97l1.09-.877c-.014-.238-.086-.37-.212-.403-.125-.026-.277.007-.462.112a.958.958 0 0 0-.257.212c-.06.079-.12.164-.172.27a.717.717 0 0 1-.106.158.384.384 0 0 1-.112.093l-.627.363c-.046.026-.086.033-.119.013-.033-.02-.046-.053-.04-.119l-.013.007Zm1.261 1.808c.152-.086.29-.198.403-.317.119-.126.211-.257.29-.396.073-.139.133-.277.166-.422a1.37 1.37 0 0 0 .04-.39v-.085l-.912.739c-.185.145-.31.283-.39.409a.657.657 0 0 0-.105.389c.007.119.06.185.158.185.1 0 .212-.033.344-.106l.006-.006ZM94.759 43.464c.013.178.053.303.132.37.08.065.224.039.422-.08l.41-.238c.046-.026.092-.026.132 0 .04.027.06.073.066.132l.033.574a.434.434 0 0 1-.046.198.342.342 0 0 1-.126.145l-.502.29c-.422.245-.752.298-.997.166-.244-.132-.376-.475-.409-1.023l-.099-1.874-.442.257c-.053.027-.093.033-.132 0-.04-.026-.06-.072-.066-.132l-.033-.574c0-.066.013-.132.046-.197a.342.342 0 0 1 .125-.146l.443-.257-.08-1.425c0-.066.014-.132.047-.198a.342.342 0 0 1 .125-.145l.515-.297c.046-.027.093-.027.132 0 .04.026.06.072.066.132l.08 1.425.87-.502c.047-.026.093-.033.133 0 .04.033.06.073.066.132l.033.574a.434.434 0 0 1-.046.198.306.306 0 0 1-.126.145l-.871.502.099 1.848ZM97.024 37.466c.053-.027.093-.027.132 0 .04.026.06.072.066.132l.04.68a.433.433 0 0 1-.046.197.342.342 0 0 1-.126.145l-.58.337c-.047.026-.093.026-.133 0-.04-.027-.06-.073-.066-.139l-.04-.68c0-.065.014-.131.047-.197a.341.341 0 0 1 .125-.146l.581-.336v.007Zm.469 5.872a.434.434 0 0 1-.046.198.342.342 0 0 1-.126.145l-.515.297c-.052.027-.092.027-.132 0-.04-.026-.06-.072-.06-.132l-.217-4.064c0-.066.013-.132.046-.198a.342.342 0 0 1 .126-.146l.515-.296c.046-.027.092-.027.132 0 .04.026.06.072.066.132l.218 4.064h-.007ZM99.73 37.518c.245-.145.476-.224.681-.237.205-.02.383.02.541.112a.998.998 0 0 1 .383.41c.099.184.165.402.192.659l.02.198c0 .08.006.165.013.244.006.08.006.158.013.238v.198a3.57 3.57 0 0 1-.429 1.643 3.81 3.81 0 0 1-.495.706 2.482 2.482 0 0 1-.667.534c-.251.145-.476.224-.68.238a.911.911 0 0 1-.542-.106.962.962 0 0 1-.383-.41 1.891 1.891 0 0 1-.198-.659 4.496 4.496 0 0 1-.02-.191c-.006-.08-.013-.159-.013-.238 0-.079-.006-.165-.006-.244v-.205c0-.277.033-.554.112-.837.073-.284.178-.555.317-.812.138-.257.303-.495.495-.706.198-.218.416-.396.667-.535Zm.925 1.492a1.043 1.043 0 0 0-.119-.396.384.384 0 0 0-.204-.172.43.43 0 0 0-.258 0 1.259 1.259 0 0 0-.277.119 1.798 1.798 0 0 0-.277.198c-.086.08-.172.172-.245.29a1.716 1.716 0 0 0-.25.904v.178c0 .073 0 .145.006.218 0 .073.007.152.013.218 0 .072.013.125.02.165.026.171.066.303.125.396.06.092.126.145.205.171.08.027.165.027.258 0 .092-.026.184-.066.277-.118.092-.053.185-.12.277-.198a1.36 1.36 0 0 0 .245-.29 1.723 1.723 0 0 0 .25-.904v-.172c0-.073-.006-.145-.013-.225 0-.072-.006-.145-.013-.217a.619.619 0 0 0-.02-.172v.007ZM105.739 38.58a.434.434 0 0 1-.046.199.342.342 0 0 1-.126.145l-.515.297c-.046.026-.092.026-.132 0-.039-.027-.059-.073-.059-.132l-.119-2.217c-.02-.35-.099-.594-.238-.733-.138-.138-.337-.132-.594.02-.238.139-.423.35-.548.64-.125.29-.178.607-.159.957l.119 2.217a.434.434 0 0 1-.046.198.346.346 0 0 1-.125.145l-.515.297c-.053.026-.093.026-.132 0-.04-.026-.06-.072-.066-.132l-.218-4.065c0-.066.013-.131.046-.197a.347.347 0 0 1 .125-.146l.515-.297c.047-.026.093-.033.132 0 .04.027.06.073.066.132l.014.198c.112-.217.237-.422.389-.613.152-.192.337-.35.555-.469.277-.158.508-.237.7-.23.191 0 .343.065.468.184.119.125.212.29.278.515.059.218.099.468.112.739l.125 2.349h-.006ZM28.999 265.928c-6.405-6.605-10.168-23.299-3.922-28.538h31.79c6.247 5.239 2.49 21.92-3.915 28.531-.052.06-.118.119-.178.185l-.218.218c-.178.178-.37.35-.58.521-.054.04-.1.079-.153.119-.158.125-.31.251-.482.369-.27.198-.548.377-.825.535-5.269 3.075-13.812 3.075-19.081 0a8.066 8.066 0 0 1-.832-.541c-.159-.112-.304-.231-.449-.343l-.192-.152c-.198-.165-.382-.33-.56-.501-.087-.08-.172-.165-.258-.251-.046-.053-.1-.099-.145-.152Z" fill="#022749"/><path d="M54.108 235.279c7.256 4.229 7.256 11.091 0 15.328-7.256 4.229-19.015 4.229-26.271 0-7.256-4.23-7.256-11.092 0-15.328 7.256-4.23 19.015-4.23 26.27 0Z" fill="#022749"/><path d="M50.622 237.317c5.328 3.108 5.328 8.149 0 11.257-5.329 3.108-13.965 3.108-19.293 0-5.328-3.108-5.328-8.149 0-11.257 5.328-3.107 13.964-3.107 19.293 0Z" fill="#022749"/><path d="M31.33 242.656c5.328-3.108 13.964-3.108 19.292 0 1.48.864 2.535 1.88 3.19 2.956-.661 1.075-1.71 2.091-3.19 2.956-5.328 3.108-13.964 3.108-19.292 0-1.48-.865-2.536-1.881-3.19-2.956.66-1.076 1.71-2.092 3.19-2.956Z" fill="#fff"/><path d="M36.624 212.112c-2.146 2.712-8.59 3.906-11.806-2.732-3.01-6.229-6.2-12.102-7.157-14.398-.957-2.296 1.314-3.253 1.314-3.253s-.086-3.537 6.081-1.61c6.1 1.914 10.656 5.239 13.713 10.907 3.011 5.583 1.803 9.99-2.139 11.086h-.006Z" fill="#15A9F3"/><path d="M36.624 212.112c-2.146 2.712-8.59 3.906-11.806-2.732-3.01-6.229-6.2-12.102-7.157-14.398-.957-2.296 1.314-3.253 1.314-3.253s-.086-3.537 6.081-1.61c6.1 1.914 10.656 5.239 13.713 10.907 3.011 5.583 1.803 9.99-2.139 11.086h-.006Z" fill="#fff" opacity=".5"/><path d="M39.899 220.967a32.413 32.413 0 0 0-.792-3.53 48.784 48.784 0 0 0-2.51-6.731 50.718 50.718 0 0 0-7.902-12.253c-1.803-2.072-3.75-4.058-5.916-5.76-.066-.053-.106.085-.06.132 3.605 3.325 6.827 6.954 9.429 11.124a55.024 55.024 0 0 1 5.955 12.979c.39 1.281.773 2.561 1.11 3.854.343 1.313.587 2.652.91 3.966.033.131.245.197.245.013-.02-1.267-.258-2.547-.47-3.794Z" fill="#15A9F3"/><path opacity=".3" d="M39.899 220.967a32.413 32.413 0 0 0-.792-3.53 48.784 48.784 0 0 0-2.51-6.731 50.718 50.718 0 0 0-7.902-12.253c-1.803-2.072-3.75-4.058-5.916-5.76-.066-.053-.106.085-.06.132 3.605 3.325 6.827 6.954 9.429 11.124a55.024 55.024 0 0 1 5.955 12.979c.39 1.281.773 2.561 1.11 3.854.343 1.313.587 2.652.91 3.966.033.131.245.197.245.013-.02-1.267-.258-2.547-.47-3.794Z" fill="#022749"/><path d="M43.61 207.361c-5.593 1.729-9.752-2.633-8.313-9.482 1.44-6.843 8.63-14.437 11.35-12.398 1.696-1.696 5.433-1.089 7.19 4.473 1.756 5.556.158 19.835-10.228 17.407Z" fill="#15A9F3"/><path d="M43.61 207.361c-5.593 1.729-9.752-2.633-8.313-9.482 1.44-6.843 8.63-14.437 11.35-12.398 1.696-1.696 5.433-1.089 7.19 4.473 1.756 5.556.158 19.835-10.228 17.407Z" fill="#fff" opacity=".3"/><path d="M46.89 189.644c-1.663 3.926-2.752 8.149-3.716 12.293-.984 4.243-1.644 8.551-2.16 12.873-1.003 8.36-1.175 7.899-1.122 16.312.014 2.329.046 4.658.093 6.981.046 2.395.006 4.816.211 7.205.08.917 1.38.673 1.4-.165.079-4.19-.145-8.4-.192-12.596-.04-4.144-.026.627.08-3.511.217-8.439.831-16.878 2.264-25.199.396-2.322.839-4.638 1.38-6.928.568-2.408 1.268-4.784 1.902-7.179.026-.092-.086-.218-.14-.092v.006Z" fill="#15A9F3"/><path opacity=".3" d="M46.89 189.644c-1.663 3.926-2.752 8.149-3.716 12.293-.984 4.243-1.644 8.551-2.16 12.873-1.003 8.36-1.175 7.899-1.122 16.312.014 2.329.046 4.658.093 6.981.046 2.395.006 4.816.211 7.205.08.917 1.38.673 1.4-.165.079-4.19-.145-8.4-.192-12.596-.04-4.144-.026.627.08-3.511.217-8.439.831-16.878 2.264-25.199.396-2.322.839-4.638 1.38-6.928.568-2.408 1.268-4.784 1.902-7.179.026-.092-.086-.218-.14-.092v.006Z" fill="#022749"/><path d="M30.662 225.856c-.72 3.623-5.678 6.229-11.41 3.86-5.73-2.369-17.033-17.261-11.87-18.898-.284-2.705 15.337-4.922 23.056 4.593 5.612 6.915.224 10.452.224 10.452v-.007Z" fill="#15A9F3"/><path d="M30.662 225.856c-.72 3.623-5.678 6.229-11.41 3.86-5.73-2.369-17.033-17.261-11.87-18.898-.284-2.705 15.337-4.922 23.056 4.593 5.612 6.915.224 10.452.224 10.452v-.007Z" fill="#fff" opacity=".7"/><path d="M38.855 231.227c-.713-.917-1.505-1.748-2.33-2.56a72.66 72.66 0 0 0-5.262-4.705c-3.744-3.028-7.818-5.562-12.096-7.773-2.364-1.22-4.794-2.408-7.303-3.319-.066-.026-.04.106 0 .126 2.087.983 4.173 1.94 6.194 3.068a73.237 73.237 0 0 1 6.067 3.827 88.53 88.53 0 0 1 10.676 8.73c.945.904 1.843 1.854 2.793 2.751.99.931 2.054 1.788 2.998 2.758.139.139.383.08.238-.125-.667-.924-1.281-1.887-1.981-2.791l.006.013Z" fill="#15A9F3"/><path opacity=".3" d="M38.855 231.227c-.713-.917-1.505-1.748-2.33-2.56a72.66 72.66 0 0 0-5.262-4.705c-3.744-3.028-7.818-5.562-12.096-7.773-2.364-1.22-4.794-2.408-7.303-3.319-.066-.026-.04.106 0 .126 2.087.983 4.173 1.94 6.194 3.068a73.237 73.237 0 0 1 6.067 3.827 88.53 88.53 0 0 1 10.676 8.73c.945.904 1.843 1.854 2.793 2.751.99.931 2.054 1.788 2.998 2.758.139.139.383.08.238-.125-.667-.924-1.281-1.887-1.981-2.791l.006.013Z" fill="#022749"/><path d="M62.394 221.495c-.093-2.039-10.373-1.934-15.186 1.939-4.82 3.867-5.387 7.668-2.383 8.987-.529 4.303 6.272 7.14 12.36 1.756 6.087-5.378 7.414-12.26 5.215-12.682h-.006Z" fill="#15A9F3"/><path opacity=".3" d="M62.394 221.495c-.093-2.039-10.373-1.934-15.186 1.939-4.82 3.867-5.387 7.668-2.383 8.987-.529 4.303 6.272 7.14 12.36 1.756 6.087-5.378 7.414-12.26 5.215-12.682h-.006Z" fill="#fff"/><path d="M52.272 226.879c-2.344 1.075-4.49 2.402-6.431 4.111-1.928 1.695-3.565 3.675-4.919 5.859-.152.251.238.732.403.462 2.64-4.283 6.51-7.984 10.953-10.366.027-.013.04-.086 0-.066h-.006Z" fill="#15A9F3"/><path opacity=".3" d="M52.272 226.879c-2.344 1.075-4.49 2.402-6.431 4.111-1.928 1.695-3.565 3.675-4.919 5.859-.152.251.238.732.403.462 2.64-4.283 6.51-7.984 10.953-10.366.027-.013.04-.086 0-.066h-.006Z" fill="#022749"/><path d="M45.439 239.033c-3.48 3.418.37 7.648 6.008 9.746 5.645 2.092 11.884.679 14.611-.68 2.72-1.359 3.282-2.039 3.282-2.039s-1.328-4.487-2.88-6.902c-2.178-3.404-7.004-7.456-14.234-6.539-7.23.924-7.817 3.926-6.787 6.414Z" fill="#15A9F3"/><path d="M45.439 239.033c-3.48 3.418.37 7.648 6.008 9.746 5.645 2.092 11.884.679 14.611-.68 2.72-1.359 3.282-2.039 3.282-2.039s-1.328-4.487-2.88-6.902c-2.178-3.404-7.004-7.456-14.234-6.539-7.23.924-7.817 3.926-6.787 6.414Z" fill="#fff" opacity=".5"/><path d="M60.044 241.6c-2.833-1.366-5.745-2.679-8.848-3.273-3.024-.581-6.754-.607-9.204 1.544-.95.838-2.211 2.646-1.439 3.926.08.125.456.363.541.112.271-.798.35-1.636.78-2.375.442-.772 1.122-1.346 1.895-1.775 1.894-1.056 4.278-1.293 6.41-1.089 3.447.33 6.689 1.709 9.858 3.009.033.013.033-.066 0-.079h.007Z" fill="#15A9F3"/><path opacity=".3" d="M60.044 241.6c-2.833-1.366-5.745-2.679-8.848-3.273-3.024-.581-6.754-.607-9.204 1.544-.95.838-2.211 2.646-1.439 3.926.08.125.456.363.541.112.271-.798.35-1.636.78-2.375.442-.772 1.122-1.346 1.895-1.775 1.894-1.056 4.278-1.293 6.41-1.089 3.447.33 6.689 1.709 9.858 3.009.033.013.033-.066 0-.079h.007Z" fill="#022749"/><path d="M46.389 217.509c-.872 3.055 3.03 5.906 7.89 4.276 4.853-1.637 9.897-3.148 14.037-3.2 4.14-.053 6.76-2.772 5.909-4.606-.852-1.834-1.855-6.189-12.4-7.436-10.544-1.248-15.297 2.474-17.503 5.384-2.198 2.91.31 6.097 2.073 5.589l-.006-.007Z" fill="#15A9F3"/><path d="M46.389 217.509c-.872 3.055 3.03 5.906 7.89 4.276 4.853-1.637 9.897-3.148 14.037-3.2 4.14-.053 6.76-2.772 5.909-4.606-.852-1.834-1.855-6.189-12.4-7.436-10.544-1.248-15.297 2.474-17.503 5.384-2.198 2.91.31 6.097 2.073 5.589l-.006-.007Z" fill="#fff" opacity=".7"/><path d="M65.978 211.089c-1.089-.29-2.277-.323-3.4-.31a21.949 21.949 0 0 0-3.288.27c-2.14.35-4.219 1.049-6.193 1.927-3.704 1.643-7.382 3.787-9.791 7.126-1.268 1.762-2.377 3.761-3.104 5.807-.138.396.621.613.8.264.838-1.716 1.57-3.451 2.634-5.055 1.082-1.636 2.43-3.074 4.04-4.203 3.335-2.336 7.204-4.229 11.185-5.114 1.175-.263 2.37-.461 3.565-.527 1.209-.066 2.384.072 3.585.132.159.006.086-.284-.026-.311l-.007-.006Z" fill="#15A9F3"/><path opacity=".3" d="M65.978 211.089c-1.089-.29-2.277-.323-3.4-.31a21.949 21.949 0 0 0-3.288.27c-2.14.35-4.219 1.049-6.193 1.927-3.704 1.643-7.382 3.787-9.791 7.126-1.268 1.762-2.377 3.761-3.104 5.807-.138.396.621.613.8.264.838-1.716 1.57-3.451 2.634-5.055 1.082-1.636 2.43-3.074 4.04-4.203 3.335-2.336 7.204-4.229 11.185-5.114 1.175-.263 2.37-.461 3.565-.527 1.209-.066 2.384.072 3.585.132.159.006.086-.284-.026-.311l-.007-.006Z" fill="#022749"/><path d="M37.746 234.737c-.825-3.14-4.806-4.909-10.016-5.291-5.21-.39-10.234 1.986-12.96 6.644-2.727 4.659-3.856 8.367-2.2 8.974 1.658.607 8.657 1.577 13.173 1.979 4.523.403 10.161-.409 13.845-3.84 3.684-3.431 2.47-7.733-1.842-8.459v-.007Z" fill="#15A9F3"/><path opacity=".3" d="M37.746 234.737c-.825-3.14-4.806-4.909-10.016-5.291-5.21-.39-10.234 1.986-12.96 6.644-2.727 4.659-3.856 8.367-2.2 8.974 1.658.607 8.657 1.577 13.173 1.979 4.523.403 10.161-.409 13.845-3.84 3.684-3.431 2.47-7.733-1.842-8.459v-.007Z" fill="#fff"/><path d="M37.938 234.322c-1.77-.568-3.803-.469-5.626-.264-1.809.204-3.591.633-5.308 1.221-1.822.626-3.572 1.438-5.262 2.362-.885.481-1.75.996-2.595 1.537-.792.502-1.624.997-2.33 1.61-.027.027-.02.132.026.112.858-.382 1.657-.923 2.476-1.379.878-.495 1.769-.983 2.674-1.438 1.683-.851 3.413-1.617 5.209-2.211 1.79-.593 3.644-1.009 5.526-1.181 1.776-.158 3.506.02 5.269.132.363.027.159-.429-.06-.501Z" fill="#15A9F3"/><path opacity=".3" d="M37.938 234.322c-1.77-.568-3.803-.469-5.626-.264-1.809.204-3.591.633-5.308 1.221-1.822.626-3.572 1.438-5.262 2.362-.885.481-1.75.996-2.595 1.537-.792.502-1.624.997-2.33 1.61-.027.027-.02.132.026.112.858-.382 1.657-.923 2.476-1.379.878-.495 1.769-.983 2.674-1.438 1.683-.851 3.413-1.617 5.209-2.211 1.79-.593 3.644-1.009 5.526-1.181 1.776-.158 3.506.02 5.269.132.363.027.159-.429-.06-.501Z" fill="#022749"/><path d="M265.353 245.341c-7.381-4.256-19.345-4.256-26.726 0-3.691 2.131-5.533 4.922-5.533 7.707v2.356c.059 2.745 1.895 5.483 5.526 7.575 7.382 4.255 19.345 4.255 26.727 0 3.651-2.105 5.493-4.857 5.526-7.615v-2.356c-.02-2.778-1.862-5.549-5.533-7.667h.013Z" fill="#022749"/><path d="M238.633 260.761c-7.382-4.255-7.382-11.164 0-15.42 7.381-4.256 19.345-4.256 26.727 0 7.381 4.256 7.381 11.165 0 15.42-7.382 4.256-19.346 4.256-26.727 0Z" fill="#022749"/><path d="M254.208 251.53h.007V133.373h-4.444V251.53h.02c-.053.363.152.739.634 1.016.872.502 2.278.502 3.15 0 .482-.277.686-.653.633-1.016Z" fill="#022749"/><path d="M222.662 116.607c16.209-9.357 42.494-9.357 58.703 0 8.108 4.678 12.149 13.091 12.149 19.221v1.187c0 6.13-4.041 12.26-12.149 16.938-16.209 9.357-42.494 9.357-58.703 0-8.108-4.678-12.148-10.808-12.148-16.938v-1.187c0-6.13 4.04-14.543 12.148-19.221Z" fill="#15A9F3"/><path opacity=".2" d="M222.662 116.607c16.209-9.357 42.494-9.357 58.703 0 8.108 4.678 12.149 13.091 12.149 19.221v1.187c0 6.13-4.041 12.26-12.149 16.938-16.209 9.357-42.494 9.357-58.703 0-8.108-4.678-12.148-10.808-12.148-16.938v-1.187c0-6.13 4.04-14.543 12.148-19.221Z" fill="#022749"/><path d="M222.622 113.499c16.209-9.357 42.494-9.357 58.703 0 8.108 4.678 12.149 10.808 12.149 16.938v2.045c0 6.13-4.041 14.543-12.149 19.221-16.209 9.357-42.494 9.357-58.703 0-8.108-4.678-12.148-13.942-12.148-20.072v-1.188c0-6.129 4.04-12.259 12.148-16.938v-.006Z" fill="#15A9F3"/><path opacity=".4" d="M222.622 113.499c16.209-9.357 42.494-9.357 58.703 0 8.108 4.678 12.149 10.808 12.149 16.938v2.045c0 6.13-4.041 14.543-12.149 19.221-16.209 9.357-42.494 9.357-58.703 0-8.108-4.678-12.148-13.942-12.148-20.072v-1.188c0-6.129 4.04-12.259 12.148-16.938v-.006Z" fill="#fff"/><path opacity=".1" d="M222.622 113.499c16.209-9.357 42.494-9.357 58.703 0 8.108 4.678 12.149 10.808 12.149 16.938v2.045c0 6.13-4.041 14.543-12.149 19.221-16.209 9.357-42.494 9.357-58.703 0-8.108-4.678-12.148-13.942-12.148-20.072v-1.188c0-6.129 4.04-12.259 12.148-16.938v-.006Z" fill="#022749"/><path d="M281.325 147.368c16.209-9.356 16.209-24.519 0-33.869-16.209-9.357-42.493-9.357-58.702 0-16.209 9.356-16.209 24.519 0 33.869 16.209 9.357 42.493 9.357 58.702 0Z" fill="#15A9F3"/><path opacity=".85" d="M252.011 154.382c22.925 0 41.51-10.723 41.51-23.952 0-13.228-18.585-23.952-41.51-23.952-22.925 0-41.51 10.724-41.51 23.952 0 13.229 18.585 23.952 41.51 23.952Z" fill="#fff"/><path opacity=".2" d="m285.696 122.71-27.011-15.585a1.551 1.551 0 0 0-1.551 0l-46.858 27.04a.346.346 0 0 0 0 .6l27.262 15.731 48.158-27.786Z" fill="#15A9F3"/><path d="M282.751 120.79v.594c0 .877-.469 1.682-1.228 2.124l-42.943 24.777a2.463 2.463 0 0 1-2.456-.006l-23.405-13.461a2.465 2.465 0 0 1-1.222-2.125v-.824c0 .112.046.211.159.277l25.703 14.833 45.392-26.196v.007Z" fill="#022749"/><path d="m282.751 120.79-25.459-14.688a1.456 1.456 0 0 0-1.466 0l-44.17 25.489a.322.322 0 0 0 0 .561l25.696 14.834 45.393-26.196h.006Z" fill="#022749"/><path d="m237.122 144.821-13.733-7.918 40.156-23.167 13.806 7.879-40.229 23.206Z" fill="#022749"/><path d="m277.35 121.608-.528.304-13.278-7.569-39.628 22.864-.521-.297 40.149-23.174 13.806 7.872ZM230.374 122.802l.251.146 6.734 3.886 11.971-6.908.244-.146-6.979-4.025-12.221 7.047Z" fill="#022749"/><path d="m230.625 122.948 6.735 3.886 11.97-6.908-6.735-3.887-11.97 6.909ZM237.359 146.979v1.63c.423 0 .845-.106 1.228-.324l42.943-24.777a2.45 2.45 0 0 0 1.228-2.124v-.594l-45.392 26.195-.007-.006Z" fill="#022749"/><path d="M238.053 147.342c.812.31 1.736.251 2.509-.191l42.751-24.665a2.905 2.905 0 0 0 1.413-2.033l4.681-27.89a2.916 2.916 0 0 0-.819-2.54l-44.428 25.64a2.146 2.146 0 0 0-1.043 1.504l-5.058 30.188-.006-.013Z" fill="#022749"/><path d="m237.359 146.986.291.164c.132.073.264.139.403.192l5.057-30.188a2.152 2.152 0 0 1 1.043-1.504l44.428-25.642a2.849 2.849 0 0 0-.594-.448l-44.52 25.687a2.152 2.152 0 0 0-1.044 1.505l-5.064 30.227v.007Z" fill="#022749"/><path d="m243.519 116.224-.686-.396a2.16 2.16 0 0 0-.41.93l-5.064 30.228.291.165c.132.072.264.138.403.191l5.057-30.188c.06-.343.205-.66.416-.937l-.007.007ZM188.064 240.089l2.906-1.432-2.906-.733v2.165Z" fill="#022749"/><path d="M217.234 244.853s-34.854-14.517-35.251-12.26c-.085.495-.066.944.04 1.353-.033-.04-.066-.08-.092-.119l.706 4.177s2.509 1.992 5.421 2.091v-2.164c.944.363 1.921.798 3.076 1.511 2.245 1.379 3.711 3.834 6.114 6.664 1.75 2.066 4.827 2.996 9.369 3.55 4.886.594 9.171-.376 10.36-1.649.95-1.023.435-2.864.25-3.154h.007Z" fill="#022749"/><path d="M216.27 244.087c-.336-.33-1.597-1.623-3.288-3.022-1.479-1.227-3.208-2.778-5.064-4.025-.739-.495-1.875-1.293-2.515-1.933a26.859 26.859 0 0 1-1.75-1.92c-1.703-2.079-3.103-4.375-4.292-6.757-.567-1.128-1.591-3.622-1.386-8.274.31-7.047.865-9.594.812-14.167l-16.467 2.422c.522 2.527 1.136 8.182 1.433 11.059.456 4.381 1.136 4.783-.568 9.184-.501 1.294-1.261 2.547-1.307 3.927-.073 2.243 1.789 4.15 3.856 5.219 1.71.884 3.671 1.247 5.328 2.19 1.75.99 3.116 2.508 4.378 4.012 1.188 1.419 2.152 3.095 3.803 4.085 1.828 1.088 3.565 1.412 5.671 1.794 2.423.436 5.52.443 7.58.251 3.592-.323 6.246-1.623 3.776-4.031v-.014Z" fill="#FFBDA7"/><path d="M214.244 241.672c-1.512-1.187-3.652-2.883-6.24-4.79-.574-.271-2.865-.759-5.361.554-5.097 2.679-5.916 6.381-5.916 6.381s1.149 2.474 4.259 3.471c5.982 2.408 16.598 1.451 16.658-1.181.039-1.676-1.572-2.996-3.4-4.435Zm-30.748-15.974s-.33.871-1.208 2.58c-.879 1.709-1.024 3.398.138 5.08 1.532 2.217 3.381 2.884 5.262 3.326 1.565-5.021-2.106-9.937-4.186-10.986h-.006ZM156.215 238.136c.019 1.709-.456 6.789-.311 10.61.132 3.477.826 8.908-.244 12.952-1.096 4.151-5.17 8.493-10.564 4.586-3.341-2.421-4.648-5.285-4.998-10.293-.244-3.477 1.452-8.255 2.918-12.497 1.71-4.949 2.377-7.602 2.377-7.602l10.822 2.237v.007Z" fill="#022749"/><path d="M145.545 212.329c-.574 8.097-.138 12.452-.198 17.644-.119 2.415-.264 5.794-.917 8.334-.859 3.293-1.849 7.872-2.457 10.01-.845 2.982-1.479 4.863-.363 8.241.086.264.218.515.37.766 1.598 2.797 5.764 4.962 7.124 4.652.363.554 1.314.897 2.357.765a3.55 3.55 0 0 0 .905-.238c.904-.369 1.776-1.148 2.304-2.507.086-.224.165-.468.231-.732 1.076-4.157.726-6.52.726-8.149 0-1.993.093-4.824.357-7.859.257-3.035 1.921-11.89 3.011-16.489.97-4.091 1.452-7.562 2.733-11.805l-16.183-2.639v.006Z" fill="#FFBDA7"/><path d="M141.062 252.203c3.354-1.22 13.31-1.055 14.756 3.062-.046 3.853-.389 6.288-3.255 9.594-3.809 4.395-8.543-.416-10.333-3.444-1.789-3.029-1.67-7.146-1.168-9.212ZM160.645 98.072c-4.431 7.265-11.277 17.525-11.832 33.968-.739 21.92-1.895 37.71-2.06 40.349-.165 2.64-1.241 6.942-3.017 19.921-1.783 12.986.911 38.073.911 38.073s1.518 2.949 6.708 3.53c4.787.534 7.032-1.61 7.032-1.61s7.579-34.754 9.619-42.547c2.041-7.792 9.006-41.886 9.006-41.886l2.549 20.996s-1.664 7.146-.528 18.601c1.142 11.454 4.925 33.552 4.925 33.552s2.172 2.198 7.263 2.006c4.661-.178 7.005-2.646 7.005-2.646s4.463-43.608 4.826-56.548c.364-12.939-.013-45.251-3.723-64.525l-38.698-1.234h.014Z" fill="#022749"/><path d="m181.185 127.164-4.173 20.712 2.549 20.996.086-19.927 4.139-19.735c3.282-.667 11.72-6.124 12.44-11.389-4.556 6.829-15.041 9.343-15.041 9.343Zm-24.383 77.835a750.488 750.488 0 0 0-3.803 20.224 748.585 748.585 0 0 0 4.906-20.007c1.564-6.684 3.043-13.361 4.509-20.092 1.38-6.75 3.169-22.012 3.955-28.821.799-6.81 1.406-13.639 1.935-20.469-1.083 6.777-2.06 13.56-3.044 20.337-1.01 6.769-2.859 21.999-4.259 28.689-1.432 6.678-2.859 13.415-4.199 20.139Zm40.018-48.558c.059 2.969.158 5.958.026 8.895-.145 2.949-.422 5.925-.66 8.894l-.72 8.915a736.836 736.836 0 0 0-1.248 17.862 472.377 472.377 0 0 0 2.364-17.757c.68-5.938 1.321-11.85 1.703-17.848.152-6.031-.217-11.976-.6-17.941a279.136 279.136 0 0 0-1.783-17.829l.66 17.881c.086 2.976.205 5.959.258 8.935v-.007ZM163.365 19.564c-5.381 1.736-6.583 6.975-6.807 15.975-.086 3.49.007 6.592-2.978 8.934-1.598 1.254-3.473 2.171-4.833 3.675-2.258 2.495-2.502 6.81-.033 9.1-1.888.646-3.202 2.533-3.459 4.513-.258 1.98.422 4.005 1.571 5.642 2.37 3.384 7.032 4.71 11.019 4.018.945 2.679 3.77 4.408 6.603 4.612 2.832.205 5.632-.89 8.002-2.461 1.459 2.85 5.203 3.807 8.148 3.378 3.01-.435 5.856-2.164 7.48-4.757.112-.178.225-.363.416-.455.139-.066.297-.073.456-.073 2.027-.02 3.948 0 5.784-.93 1.65-.832 3.123-1.788 4.159-3.372.68-1.05 1.103-2.27 1.169-3.524.02-.33.204-1.722-.489-3.068 1.737-1.34 1.941-5.312 1.42-7.436-.522-2.125-1.902-3.94-3.401-5.536-1.498-1.597-3.149-3.069-4.417-4.857-1.181-1.663-1.472-3.154-1.439-5.12.013-1.076-.462-3.035.291-3.953 0 0 3.307-4.005 3.162-8.314-.145-4.308-2.529-10.801-10.458-12.873-6.603-1.729-18.599-1.181-21.366 6.876v.006Z" fill="#022749"/><path d="M230.46 72.833c1.452-1.815 2.482-3.867 2.746-4.46 1.823-4.085 3.308-4.864 6.841-7.457.607-.442 1.215-.877 1.829-1.313.297-.211.6-.409.871-.66.251-.23.475-.422.845-.198.264.159.416.45.502.746.291.977-.02 2.045-.561 2.903-.535.865-1.281 1.577-1.955 2.336-.515.58.37.66.793.634 2.08-.12 4.787-2.013 6.477-3.168 1.109-.758 2.073-1.722 3.288-2.316.753-.363 1.598-.574 2.423-.442.561.093 1.043.363.858 1.05-.112.422-.442.752-.739 1.075-.601.68-1.129 1.293-1.076 2.25.033.607.191 1.214.066 1.808-.152.752-.727 1.36-.964 2.092.336.264.343.963-.152 1.65-1.697 2.342-3.117 3.727-4.444 4.664-2.013 1.419-3.294 2.085-6.067 2.97-1.288.409-3.15 1.121-4.979 3.2-1.934 2.197-3.756 4.823-7.876 10.056-5.824 7.397-7.798 10.656-11.687 11.824-2.885.871-5.163-1.188-10.947-6.13-9.441-8.063-16.585-16.47-16.585-16.47l4.615-22.85c3.585 1.874 6.371 6.48 10.419 12.828 7.507 11.778 10.432 15.724 10.432 15.724s13.574-10.532 15.027-12.346Z" fill="#FFBDA7"/><path d="M240.595 66.215c0 5.021-2.482 7.159-4.021 8.538 0 0 2.813-.858 3.869-3.134 1.162-2.494.575-4.23.146-5.404h.006Z" fill="#F0997A"/><path d="m222.728 79.075 2.443-2.052s.416 3.253 2.192 6.03c2.014 3.148 4.622 4.197 4.622 4.197l-2.278 2.811s-2.925-1.214-4.787-3.596-2.198-7.383-2.198-7.383l.006-.007Z" fill="#F0F0F0"/><path d="M188.95 54.99c9.534 1.281 12.135 6.857 14.704 10.882 3.585 5.621 11.779 18 11.779 18l8.213-5.793s-.086 2.943 1.968 6.05c2.053 3.108 5.176 4.725 5.176 4.725s-5.751 7.694-9.059 11.145c-3.307 3.45-5.288 4.447-10.993.461-7.064-4.942-21.986-21.128-21.986-21.128l.191-24.341h.007Z" fill="#15A9F3"/><path opacity=".15" d="M215.439 83.872c-1.651 1.373-3.321 5.008-3.744 7.272-.165-2.475.766-6.295 3.07-8.295l.674 1.023Z" fill="#022749"/><path d="M155.746 106.577c.482-3.477 2.905-3.992 1.723-12.306-.588-4.117-2.648-14.754-2.648-14.754s7.078-5.457 4.807-21.372l7.269-3.392 4.497-1.135 11.607.482 5.962 1.63c2.047 1.755 5.784 4.526 8.794 8.776 4.345 6.13 5.124 12.88.687 17.921-.046.977.132 16.153 1.274 19.841.456 1.465 1.07 3.464.119 5.431-4.272 7.007-29.612 14.147-44.091-1.129v.007Z" fill="#FAFAFA"/><path d="m183.008 54.1 5.942.89c5.711 4.316 12.505 12.096 12.888 18.08.383 5.992-2.661 10.037-2.661 10.037s-.086 12.174 1.308 18.6c1.393 6.427 2.931 23.636 2.931 23.636s.126 1.075-4.648 2.415c-1.466-8.248-5.084-38.508-4.886-45.773.198-7.265.337-18.733-10.874-27.892v.007Z" fill="#15A9F3"/><path opacity=".3" d="m183.008 54.1 5.942.89c5.711 4.316 12.505 12.096 12.888 18.08.383 5.992-2.661 10.037-2.661 10.037s-.086 12.174 1.308 18.6c1.393 6.427 2.931 23.636 2.931 23.636s.126 1.075-4.648 2.415c-1.466-8.248-5.084-38.508-4.886-45.773.198-7.265.337-18.733-10.874-27.892v.007Z" fill="#022749"/><path opacity=".2" d="M194.774 85.37c.469-1.927.99-3.847 1.512-5.754.535-1.907 1.03-3.827 1.505-5.747.225-.957.449-1.927.542-2.884.145-.91-.502-1.67-1.143-2.382-1.333-1.398-2.938-2.593-4.562-3.682l-.152-.099.033-.178c.185-1.016.152-2.111-.013-3.147a8.089 8.089 0 0 0-1.096-2.963c-.588-.877-1.367-1.643-2.232-2.283a15.438 15.438 0 0 0-2.806-1.643c1.03.363 2.014.858 2.925 1.465.925.594 1.763 1.346 2.41 2.257a8.6 8.6 0 0 1 1.268 3.081 9.326 9.326 0 0 1 .066 3.346l-.119-.278c1.677 1.096 3.308 2.25 4.714 3.735.343.376.667.779.931 1.24.073.106.119.245.172.37.053.125.112.25.125.403.073.296.046.56.027.818-.119 1.022-.35 1.986-.595 2.956-.482 1.933-1.096 3.82-1.683 5.72-.594 1.894-1.228 3.775-1.842 5.662l.013-.013Z" fill="#022749"/><path d="M166.898 54.753s2.436 2.791 5.751 10.353c3.308 7.562 6.503 14.43 6.444 21.438-.06 7.001-2.351 43.213-2.351 43.213s-10.049 1.511-19.147-2.144l.746-14.028-3.446 13.368s-4.351-1.564-5.962-3.009c2.37-14.582 7.678-21.504 7.942-26.888.179-3.695-2.958-13.943-3.558-23.18-.522-8.05 1.102-16.18 1.102-16.18l12.472-2.936.007-.007Z" fill="#15A9F3"/><path opacity=".3" d="M166.898 54.753s2.436 2.791 5.751 10.353c3.308 7.562 6.503 14.43 6.444 21.438-.06 7.001-2.351 43.213-2.351 43.213s-10.049 1.511-19.147-2.144l.746-14.028-3.446 13.368s-4.351-1.564-5.962-3.009c2.37-14.582 7.678-21.504 7.942-26.888.179-3.695-2.958-13.943-3.558-23.18-.522-8.05 1.102-16.18 1.102-16.18l12.472-2.936.007-.007Z" fill="#022749"/><path opacity=".2" d="M177.773 88.63c-.562-1.802-1.638-3.36-2.76-4.837-1.129-1.491-2.364-2.897-3.625-4.27-.621-.699-1.261-1.378-1.908-2.065l-.964-1.022c-.165-.179-.317-.337-.489-.541-.039-.06-.079-.08-.125-.165a2.359 2.359 0 0 1-.119-.264c-.053-.172-.04-.317-.053-.475.119-1.09.568-1.92.977-2.791.443-.845.925-1.663 1.44-2.462l.046.469-2.872-2.903-1.426-1.459-.357-.37-.178-.184c-.06-.073-.106-.08-.244-.297-.106-.284-.073-.442-.073-.64.013-.185.033-.363.053-.535.224-1.379.581-2.698.977-4.011a79.175 79.175 0 0 1 1.281-3.9c-.324 1.326-.667 2.653-.964 3.986-.284 1.332-.621 2.665-.766 3.992-.033.303-.046.712.013.857-.046-.072.033.04.099.086l.185.178.37.357 1.479 1.431 2.945 2.884.211.204-.165.258a30.93 30.93 0 0 0-1.367 2.415c-.403.811-.839 1.682-.931 2.474.007.073 0 .172.02.224.013.02.02.033.02.06 0 .026.059.08.086.112.125.159.297.343.448.508l.951 1.036a94.555 94.555 0 0 1 1.882 2.105c1.221 1.438 2.397 2.916 3.466 4.467.535.779 1.024 1.59 1.453 2.435.429.838.785 1.729.964 2.652h.02Z" fill="#022749"/><path d="M101.044 67.785c-1.366-.89-2.502-1.775-4.199-2.89-1.73-1.141-3.09-1.57-3.783-.818-.64.693.238 1.927 2.33 3.629 3.348 2.725 5.751 4.691 5.6 5.067-1.915.113-2.437.212-2.503 1.657-.046.976 1.156 1.623 1.156 1.623s-1.195.145-1.136 1.346c.053 1.2 1.043 1.597 1.043 1.597s-.825.185-.607 1.287c.191.95.753 1.603 1.479 2.045l.171-.864s.39.092.865-.04c.482-.125 1.453.178 2.258.416.806.237 1.71.613 2.291.092.575-.521.542-1.254.166-1.584a3.344 3.344 0 0 0-.865-.514s1.214.303 1.65-.673c.436-.97-.383-1.498-.885-1.874.548-.376 1.044-.812.826-1.36-.218-.547-1.974-1.682-1.974-1.682l.647-1.603s.68-1.366-.271-2.02c-1.71-1.174-2.72-1.834-4.252-2.837h-.007Z" fill="#FFBDA7"/><path d="M143.379 92.127a7.26 7.26 0 0 0-1.122-1.215c-3.876-3.41-8.999-4.981-13.588-7.159-2.997-1.418-6.035-3.035-9.012-4.526-3.579-1.788-4.12-2.006-5.494-4.276a52.063 52.063 0 0 0-2.324-3.57c-.389-.54-.812-1.102-1.347-1.51-.666-.509-1.426-.839-2.264-.865-.621-.02-1.288-.066-1.895.046-.495.092-1.07.033-1.525.29-.39.218-.773.423-1.096.733-.918.87-1.077 1.36-1.077 1.36l.185 3.602s.812.521 1.433.105c.621-.415.759-.87.759-.87s1.671 1.002 1.77 1.576c.099.575.02.911-.872 1.162.535.481 1.387 1.187 1.037 1.94-.35.758-1.644.877-1.644.877s1.505 1.181 1.195 1.722c-.31.535-6.246-1.504-6.246-1.504l.172 2.276c1.525.64 6.582 2.99 9.646 3.537 1.069.191 3.09 1.26 5.843 3.28 3.136 2.296 5.731 5.126 8.715 7.548a27.473 27.473 0 0 0 9.594 5.048c.766.224 1.558.422 2.357.376.838-.046 1.644-.363 2.377-.772 1.637-.917 3.459-3.246 4.582-4.738 1.419-1.88 1.109-2.705-.159-4.493v.02Z" fill="#FFBDA7"/><path d="M105.415 72.477s-.396 1.451-.845 2.105c-.449.646-1.083.62-1.406.448-.311-.158-.344-3.708-.344-3.708l.898-1.247c-.772.693-.957.844-1.116 1.2-.218.482 0 3.082.066 3.702.066.62 1.631 1.01 2.285-.382.026-.053.039-.093.066-.139.013.007.026.02.046.033.528.27.984.653 1.314 1.148.198.297.429.66.145.97a1.027 1.027 0 0 1-.502.264 2.034 2.034 0 0 1-.449.053c-.138 0-.277-.013-.409.04a.049.049 0 0 0-.026.013c-.02.026.013.052.033.072.178.12.369.218.554.33.555.337 1.281 1.03.865 1.696-.211.343-.528.528-.937.56-.291.02-.581-.012-.872.027-.053.007-.119.04-.099.093.007.02.027.026.046.04.416.23.925.421 1.248.778.198.218.416.528.357.838-.073.37-.594.64-.931.72-.053.012-.112.025-.165.039-.013.026-.007.033 0 .04.013.013.033.013.053.02.112.019.224.025.336.032.568 0 1.004-.495 1.044-1.03.052-.6-.251-.943-.641-1.213.456-.027.839-.172 1.208-.746.595-.93-.039-1.518-.792-2.006.244-.086.416-.224.541-.383.39 1.294 1.057 2.673 2.212 3.788 0 0-1.36-2.131-1.749-4.619-.331-2.098.026-3.86.026-3.86s-1.512.587-2.053.303l-.007-.02Zm1.103 1.88c-.04.013-.073.033-.119.04-.152.02-.304.006-.456-.02-.27-.053-.535-.152-.805-.172.495-1.075.607-1.418.607-1.418s.456.066.746-.139c0 0-.059.693.02 1.71h.007Z" fill="#F0997A"/><path d="m124.503 81.53-4.034-2.132s-1.79.687-3.836 4.388c-1.545 2.798-1.552 5.048-1.552 5.048l4.457 3.623 4.971-10.934-.006.007Z" fill="#F0F0F0"/><path d="M132.769 84.948c3.176-4.982 8.656-13.507 12.222-18.496 4.555-6.374 5.189-7.918 11.554-9.31 4.707 12.524 1.334 21.108-.449 23.45-1.776 2.343-8.035 11.502-10.98 15.355-2.951 3.853-5.361 6.414-8.042 6.803-2.68.389-5.658-.957-9.884-3.741-3.308-2.178-9.976-8.288-9.976-8.288s.238-3.583 2.945-7.179c1.617-2.144 3.004-2.89 3.004-2.89l9.6 4.296h.006Z" fill="#15A9F3"/><path opacity=".15" d="M132.77 84.948c1.32.607 5.235 3.444 5.876 5.668.152-2.415-3.222-5.603-4.965-7.094l-.911 1.425Z" fill="#022749"/><path d="M161.523 34.661c1.162-1.352 3.559-1.946 4.747-.119.74 1.136.951 3.042 2.053 2.745.667-.178.898-.983.634-2.44.013.078.872-.456.938-.509.825-.72.634-1.795.904-2.745.297-1.056 1.143-1.854 1.644-2.804.793-1.492.482-3.339.172-4.93-.132-.686-.224-1.504.271-1.999.363-.363.917-.422 1.432-.409 1.605.033 3.15.541 4.715.884 1.564.344 3.248.515 4.727-.098.634-.264 1.195-.66 1.809-.964.614-.303 1.307-.521 1.974-.39.601.12 1.109.502 1.552.925 2.066 1.96 2.733 5.04 3.255 7.753.389 2.026.284 4.124.323 6.17.172 8.808-1.386 10.972-3.222 12.503-1.578 1.313-4.04 2.013-6.932 2.006l.033 5.008s4.199 7.866 2.179 12.451c0 0-6.702-2.797-10.776-6.17-4.998-4.136-5.836-6.663-5.836-6.663l-.04-13.349s-2.126 3.062-5.209.726c-2.542-1.927-3.09-5.55-1.354-7.575l.007-.007Z" fill="#FFBDA7"/><path d="M182.525 50.24c-5.533.033-10.907-2.323-12.901-7.304 0 0 .198 3.306 2.284 5.331 4.173 4.045 10.63 3.715 10.63 3.715l-.013-1.742Z" fill="#F0997A"/><path d="M176.417 32.431a1.364 1.364 0 0 0 1.189 1.511 1.364 1.364 0 0 0 1.512-1.188 1.363 1.363 0 0 0-1.189-1.51 1.364 1.364 0 0 0-1.512 1.187ZM186.968 32.886c.225.72.984 1.115 1.704.891a1.355 1.355 0 0 0 .891-1.702 1.356 1.356 0 0 0-1.704-.891 1.355 1.355 0 0 0-.891 1.702ZM178.794 26.79l-3.255 1.273c-.33-.93.126-1.966 1.023-2.323.898-.35 1.895.12 2.232 1.043v.006ZM186.618 27.04l3.447.587c.138-.976-.522-1.9-1.479-2.065-.951-.165-1.836.502-1.968 1.478Z" fill="#022749"/><path d="M184.836 41.385 179.969 40c-.349 1.386.456 2.818 1.796 3.2 1.347.383 2.714-.428 3.064-1.814h.007Z" fill="#B16668"/><path d="M183.297 43.134a2.942 2.942 0 0 0-3.017-2.217 2.28 2.28 0 0 0-.37.059c.119 1.03.832 1.94 1.855 2.23a2.377 2.377 0 0 0 1.532-.072Z" fill="#F0997A"/><path d="m173.895 29.66-8.563 4.012s.654.264 1.136 1.2l7.883-3.76-.456-1.452Z" fill="#022749"/><path d="M193.201 28.525c-.172-.02-.357-.033-.548-.046-1.763-.126-4.061-.093-5.441.382-1.736.607-2.344 1.234-3.314 1.274-1.037.033-1.69-.548-3.552-1.016-1.486-.37-3.955-.218-5.857.046-.204.026-.403.06-.594.092-.324.053-.687.502-.68 1.016.013.515.383.904.535 1.135.066.1.132.251.185.462.184.805.27 2.362.647 3.22.152.343.369.772.739 1.148a2.56 2.56 0 0 0 .608.482c.198.119.416.224.666.303.04.014.073.027.113.033.059.014.118.034.178.047.059.013.125.026.185.04.185.032.383.059.594.072.079.006.165.006.251.013h.317c2.463-.086 3.493-1.34 4.1-2.606.607-1.254.449-2.976 1.558-3.016h.106c.033 0 .066 0 .099.013.825.165.733 1.749 1.268 2.884.204.435.462.864.812 1.234.059.066.125.125.191.191.033.033.066.06.106.086l.105.086c.033.026.066.046.099.072.06.04.08.053.106.073.026.02.053.033.086.053.02.013.039.026.059.033.284.158.608.29.984.37.026 0 .059.012.093.019.349.066.752.099 1.195.08 2.291-.1 3.037-1.525 3.387-2.416.343-.884.435-2.435.587-3.253a.953.953 0 0 1 .192-.429c.158-.204.455-.68.468-1.187.014-.509-.33-.957-.633-.984v-.006Zm-11.489 4.962c-.105.475-.33 1.168-.851 1.755-.529.587-1.361 1.069-2.681 1.095-1.334.033-2.1-.514-2.549-1.168l-.079-.118c-.026-.04-.053-.08-.072-.12l-.06-.111c-.02-.033-.033-.066-.053-.1l-.039-.078c-.013-.027-.027-.047-.033-.073-.02-.04-.033-.08-.047-.119a5.73 5.73 0 0 1-.118-.356v-.007c-.02-.072-.04-.145-.06-.21-.033-.126-.053-.245-.079-.344a.257.257 0 0 0-.013-.066c0-.02-.007-.04-.013-.066-.172-.851-.35-2.514.072-2.903.41-.376 1.525-.819 3.315-.706.059 0 .125 0 .191.013.277.02.548.06.819.112.105.02.211.046.317.066a7.7 7.7 0 0 1 .799.231c.086.033.165.06.244.092.092.04.178.08.264.12.02.006.033.019.053.026.033.013.066.032.099.052.251.132.436.277.535.423.356.508.251 1.616.046 2.573l-.007-.013Zm10.525-.772c-.119.673-.377 2.138-1.631 2.824-.357.198-.806.33-1.347.363-1.439.086-2.265-.502-2.74-1.194 0 0 0-.007-.007-.014-.019-.026-.033-.053-.052-.079-.02-.033-.04-.06-.053-.092-.007-.014-.02-.033-.027-.046-.026-.047-.046-.093-.072-.132a1.596 1.596 0 0 1-.073-.159c-.013-.026-.026-.053-.033-.079 0-.013-.013-.026-.02-.046-.006-.02-.02-.046-.026-.066 0-.02-.013-.033-.02-.053a4.395 4.395 0 0 1-.178-.633c-.198-.944-.304-2.04.026-2.574.33-.528 1.644-1.148 2.905-1.352a7.78 7.78 0 0 1 .819-.093h.594c.046 0 .093 0 .132.007.079 0 .152.006.225.02.145.013.284.033.416.059l.099.02h.026c.02 0 .046.006.066.013.033 0 .066.02.099.026.04.014.079.027.119.033.073.02.139.047.198.073.013 0 .02.007.033.013.198.08.343.172.449.264.396.356.231 2.026.079 2.884l-.006.013Z" fill="#022749"/><path d="m182.684 33.632 1.591 5.312 4.298-2.085c-.165-.251-4.16-4.923-4.483-5.24-.37-.066-.647.06-.839.31-.303.396-.422 1.076-.567 1.71v-.007Z" fill="#F0997A"/><path d="M254.981 24.473c-3.975-11.79-16.803-18.158-28.602-14.186-11.799 3.972-18.163 16.793-14.189 28.584 3.975 11.791 16.797 18.152 28.596 14.18 11.805-3.972 18.17-16.793 14.195-28.578Zm-40.869 13.751c-3.619-10.735 2.178-22.408 12.914-26.017 10.742-3.616 22.415 2.184 26.034 12.913 3.611 10.729-2.179 22.395-12.921 26.01-10.743 3.617-22.416-2.177-26.027-12.906Z" fill="#022749"/><path d="M240.139 51.13c-10.742 3.617-22.415-2.177-26.027-12.906-3.618-10.735 2.179-22.408 12.915-26.017 10.742-3.616 22.415 2.184 26.033 12.913 3.612 10.729-2.179 22.395-12.921 26.01Z" fill="#fff"/><path d="m205.905 39.696 6.147-5.12 2.628 7.792-7.996-.356c-1.195-.053-1.704-1.55-.779-2.316ZM237.036 41.385h-6.906a.523.523 0 0 1-.522-.521c0-.29.231-.521.522-.521h6.906c.284 0 .522.23.522.52 0 .291-.231.522-.522.522ZM233.583 46.77a3.978 3.978 0 0 1-3.975-3.973c0-.29.231-.521.522-.521h6.906c.284 0 .522.23.522.521a3.978 3.978 0 0 1-3.975 3.972Z" fill="#022749"/><path d="M240.964 19.511c-2.132-2.032-4.938-3.075-7.896-2.936-5.52.264-10.089 4.969-10.168 10.498a10.67 10.67 0 0 0 5.256 9.357c.891.528 1.419 1.438 1.419 2.441 0 .119.053.244.132.33a.477.477 0 0 0 .33.132h7.098a.464.464 0 0 0 .462-.462c0-.99.542-1.92 1.413-2.435 3.242-1.92 5.269-5.443 5.269-9.191a10.61 10.61 0 0 0-3.315-7.734Z" fill="#15A9F3"/><path d="M240.964 19.511c-2.132-2.032-4.938-3.075-7.896-2.936-5.52.264-10.089 4.969-10.168 10.498a10.67 10.67 0 0 0 5.256 9.357c.891.528 1.419 1.438 1.419 2.441 0 .119.053.244.132.33a.477.477 0 0 0 .33.132h7.098a.464.464 0 0 0 .462-.462c0-.99.542-1.92 1.413-2.435 3.242-1.92 5.269-5.443 5.269-9.191a10.61 10.61 0 0 0-3.315-7.734Z" fill="#fff" opacity=".35"/><path d="M227.944 30.57c.515.37 1.407.489 2.377.317h.013v.007c.212.376.41.831.581 1.366.647 2.025.621 4.077.595 6.057v.112c-.007.31-.014.62-.014.924v.171h.892v-.171c0-.343 0-.687.006-1.043.033-1.834.066-4.124-.64-6.321a8.555 8.555 0 0 0-.542-1.326v-.02l.02-.013a6.125 6.125 0 0 0 1.585-.878c.284-.218.528-.429.746-.653l.013-.013.02.02c.218.224.475.448.746.653.475.37 1.01.666 1.585.877l.026.014-.013.02a8.71 8.71 0 0 0-.542 1.325c-.706 2.178-.673 4.382-.64 6.322v1.207h.891v-.171c0-.337 0-.687-.013-1.07-.026-1.965-.053-4.004.601-6.023.172-.528.37-.984.581-1.36v-.013h.02c.937.172 1.862.053 2.383-.317.416-.297.581-.739.436-1.174-.165-.521-.621-.851-1.195-.851-.693 0-1.439.475-2.04 1.306l-.013.013h-.014a5.363 5.363 0 0 1-1.525-.818 6.77 6.77 0 0 1-.713-.64l-.013-.013v-.013c.693-.964.964-2.046.713-2.811-.198-.574-.68-.91-1.287-.91-.608 0-1.083.342-1.281.91-.258.765.013 1.84.706 2.81h.007l-.007.014a5.154 5.154 0 0 1-.713.646 5.107 5.107 0 0 1-1.525.812h-.013l-.007-.006c-.601-.832-1.347-1.307-2.04-1.307-.574 0-1.03.323-1.195.851-.145.442.02.878.442 1.175v.006Zm9.468-.501.027-.027c.343-.37.739-.6 1.036-.6.126 0 .291.04.357.238.02.052-.007.099-.106.171-.218.152-.627.244-1.056.238h-.251l-.007-.02Zm-4.272-4.216c.073-.212.212-.304.443-.304s.376.099.442.303c.145.43-.02 1.102-.422 1.762l-.02.027-.013-.027c-.403-.66-.568-1.34-.43-1.768v.006Zm-4.793 3.82c.059-.191.224-.231.35-.231.297 0 .693.23 1.037.6l.026.033h-.04c-.079.007-.152 0-.231.007-.442 0-.818-.086-1.036-.23-.093-.073-.119-.12-.106-.18Z" fill="#fff"/><path d="m26.786 149.539.786 3.187-4.305 1.063-.785-3.188c-3.064.304-6.352-.475-8.049-4.044l5.176-2.824c.476 1.102 1.75 2.461 4.015 1.9 1.42-.35 2.238-1.161 1.928-2.428-.502-2.033-2.991-1.544-5.95-1.63-3.168-.119-6.271-.818-7.308-5.002-.931-3.761.845-6.479 4.404-7.931l-.786-3.187 4.344-1.069.786 3.187c3.513-.297 6.114.977 7.626 3.662l-4.912 2.719c-.608-1.313-1.902-1.934-3.83-1.458-1.802.442-2.258 1.412-2.02 2.375.39 1.577 1.816 1.59 4.919 1.597 3.275.053 7.46.158 8.63 4.922.943 3.84-1.09 6.665-4.675 8.156l.006-.007ZM276.123 76.884l-3.77-.607.369-2.29c-1.815-.64-3.849-2.012-3.974-4.981l-.014-.363 4.827-.475v.422c0 .383.132 1.663 1.716 1.914.859.138 1.347-.1 1.446-.706.132-.825-.627-1.181-2.086-1.788-.33-.14-.68-.284-1.03-.443-2.027-.95-4.028-2.349-3.506-5.555.423-2.633 2.186-4.105 4.985-4.17l.37-2.297 3.803.614-.37 2.296c2.245.831 3.559 2.415 3.81 4.593l.046.382-4.648.482-.014-.41c-.033-1.095-.95-1.47-1.716-1.596-.891-.145-1.393.073-1.486.647-.119.745.363 1.029 2.463 1.926 1.981.878 4.972 2.198 4.377 5.86-.422 2.62-2.31 4.144-5.222 4.236l-.37 2.296-.006.013Zm-2.899-1.24 2.265.363.35-2.184h.33c1.571.013 4.278-.442 4.787-3.596.495-3.082-1.961-4.17-3.929-5.042-2.027-.864-3.143-1.346-2.912-2.751.06-.376.41-1.597 2.364-1.28 1.294.21 2.113.897 2.311 1.913l3.083-.323c-.33-1.782-1.518-3.016-3.539-3.682l-.31-.099.35-2.177-2.291-.37-.35 2.184h-.33c-1.816-.033-4.074.554-4.556 3.524-.409 2.547.931 3.734 3.077 4.737.343.159.68.297 1.004.43 1.432.593 2.779 1.154 2.548 2.612-.172 1.05-1.037 1.544-2.317 1.34-1.512-.244-2.173-1.287-2.324-2.25l-3.289.323c.265 2.441 2.153 3.543 3.724 4.032l.317.099-.35 2.184-.013.013ZM300.876 170.562l-.489-1.947c-1.657.112-3.743-.29-4.853-2.606l-.132-.284 3.671-2.019.146.33c.132.303.666 1.273 2.013.937.363-.093.634-.238.786-.416.145-.172.178-.376.119-.64-.178-.699-.898-.726-2.265-.706-.31 0-.634.007-.97 0-1.935-.066-4.001-.495-4.681-3.22-.549-2.197.369-4.012 2.541-5.008l-.488-1.947 3.228-.805.489 1.953c2.067-.105 3.651.706 4.589 2.349l.165.291-3.526 1.966-.152-.323c-.402-.858-1.254-.845-1.901-.687-.76.192-1.083.535-.964 1.017.165.666.759.692 2.614.692 1.875.02 4.695.053 5.48 3.168.555 2.223-.429 4.084-2.7 5.14l.489 1.946-3.203.799-.006.02Zm.013-2.66.462 1.855 1.922-.482-.463-1.854.258-.112c1.248-.528 3.248-1.808 2.575-4.487-.654-2.62-2.978-2.646-4.84-2.666-1.901 0-2.951 0-3.255-1.194-.079-.324-.218-1.406 1.439-1.822 1.097-.277 1.988-.006 2.49.733l2.337-1.307c-.865-1.299-2.232-1.88-4.067-1.715l-.284.026-.462-1.854-1.948.488.462 1.854-.264.106c-1.446.594-3.044 1.834-2.41 4.348.542 2.165 2.014 2.653 4.061 2.719.323.007.64 0 .944 0 1.34-.013 2.608-.026 2.912 1.207.118.469.026.891-.251 1.221-.245.29-.628.502-1.136.634-1.281.316-2.166-.284-2.615-.997l-2.502 1.379c1.043 1.854 2.912 2.079 4.331 1.934l.284-.033.02.019ZM17.556 94.14l-.832-1.822c-1.61.41-3.737.396-5.249-1.676l-.185-.25 3.242-2.653.205.297c.185.277.891 1.128 2.152.554.344-.159.581-.35.7-.554.112-.192.106-.41 0-.647-.297-.653-1.017-.548-2.357-.284-.304.06-.62.126-.95.178-1.909.29-4.022.238-5.19-2.309-.945-2.065-.364-4.012 1.584-5.384l-.832-1.828 3.024-1.386.839 1.828c2.013-.475 3.717.026 4.945 1.472l.218.257-3.103 2.573-.205-.29c-.555-.772-1.393-.6-1.994-.323-.713.323-.97.719-.76 1.174.285.62.879.541 2.701.205 1.842-.324 4.629-.805 5.962 2.111.951 2.085.33 4.091-1.716 5.55l.838 1.827-3.004 1.372-.033.007Zm-.469-2.614.8 1.742 1.802-.825-.793-1.735.238-.158c1.136-.746 2.866-2.376 1.717-4.883-1.123-2.455-3.407-2.059-5.25-1.736-1.868.35-2.904.541-3.413-.58-.139-.304-.469-1.34 1.083-2.052 1.03-.469 1.948-.37 2.582.27l2.06-1.709c-1.09-1.121-2.542-1.438-4.312-.95l-.27.073-.793-1.736-1.822.832.799 1.742-.238.158c-1.314.851-2.654 2.356-1.578 4.718.931 2.025 2.463 2.237 4.49 1.933.323-.053.634-.112.924-.171 1.314-.258 2.555-.502 3.083.653.198.435.192.87-.026 1.247-.191.33-.522.607-.997.825-1.202.547-2.179.118-2.753-.502l-2.212 1.808c1.367 1.63 3.242 1.511 4.615 1.109l.277-.08-.013.007ZM138.705 29.468l.356-1.973c-1.558-.58-3.288-1.808-3.347-4.374v-.31l4.166-.324v.363c-.013.33.079 1.439 1.446 1.683.37.066.673.046.891-.053.198-.099.324-.27.37-.535.132-.706-.515-1.029-1.776-1.583a32.026 32.026 0 0 1-.885-.403c-1.73-.857-3.433-2.104-2.931-4.863.409-2.23 1.994-3.497 4.384-3.51l.363-1.973 3.275.594-.363 1.98c1.928.758 3.037 2.15 3.208 4.038l.033.33-4.02.336v-.356c-.014-.95-.799-1.287-1.46-1.406-.772-.138-1.208.04-1.294.535-.125.673.41.943 2.1 1.709 1.697.792 4.258 1.986 3.684 5.14-.409 2.257-2.073 3.543-4.582 3.57l-.363 1.98-3.249-.595h-.006Zm1.109-2.415-.343 1.88 1.947.357.344-1.88h.284c1.353.046 3.704-.304 4.199-3.016.482-2.652-1.618-3.635-3.308-4.427-1.736-.785-2.694-1.221-2.469-2.428.059-.33.383-1.366 2.066-1.063 1.109.205 1.809.812 1.961 1.696l2.668-.224c-.251-1.544-1.261-2.633-2.991-3.24l-.264-.093.343-1.873-1.974-.357-.344 1.88-.284-.013c-1.564-.052-3.532.416-3.994 2.97-.396 2.19.739 3.246 2.575 4.15.29.139.581.27.858.39 1.228.54 2.384 1.049 2.159 2.302-.086.475-.336.819-.733 1.01-.343.165-.779.198-1.294.105-1.3-.237-1.855-1.148-1.967-1.986l-2.846.225c.185 2.118 1.796 3.094 3.15 3.55l.27.092-.013-.007ZM56.477 19.927l-3.44-.765.476-2.118c-1.657-.687-3.493-2.085-3.447-4.863v-.31l4.483-.179-.02.363c-.02.363.034 1.584 1.52 1.914.811.184 1.293-.02 1.419-.6.171-.786-.522-1.162-1.869-1.815-.303-.145-.62-.297-.937-.469-1.836-.996-3.618-2.408-2.958-5.358.541-2.428 2.271-3.701 4.892-3.596l.476-2.118 3.466.772-.475 2.125c2.06.897 3.202 2.448 3.314 4.487l.02.33-4.312.198v-.357c.04-1.042-.812-1.451-1.525-1.61-.845-.191-1.334 0-1.459.541-.165.74.403 1.063 2.212 1.973 1.796.924 4.51 2.323 3.757 5.695-.542 2.415-2.39 3.734-5.11 3.655l-.47 2.125-.013-.02Zm-2.654-1.267 2.152.482.45-2.026.283.02c1.48.092 4.048-.178 4.708-3.121.64-2.877-1.611-4.032-3.413-4.962-1.83-.917-2.846-1.425-2.562-2.705.079-.343.468-1.439 2.245-1.043 1.195.264 1.92.957 2.04 1.92l2.951-.132c-.205-1.709-1.254-2.95-3.13-3.688l-.264-.106.45-2.026-2.18-.481-.448 2.025-.284-.02c-1.704-.125-3.863.304-4.483 3.069-.529 2.375.666 3.57 2.627 4.632.31.165.621.317.911.462 1.295.627 2.523 1.227 2.226 2.553-.212.95-1.044 1.366-2.212 1.102-1.4-.31-1.961-1.3-2.034-2.236l-3.15.125c.1 2.336 1.823 3.477 3.282 4.025l.27.099-.455 2.026.02.006ZM302.387 116.125l-.666 2.158-2.919-.898.667-2.157c-1.915-.904-3.578-2.534-3.314-5.24l4.054.172c-.113.818.158 2.072 1.696 2.547.964.297 1.737.112 2.001-.752.429-1.379-1.215-1.973-2.932-3.075-1.828-1.188-3.413-2.705-2.535-5.543.786-2.547 2.8-3.523 5.414-3.114l.667-2.158 2.945.91-.667 2.158c2.179 1.069 3.255 2.745 3.202 4.863l-3.862-.138c.105-.99-.436-1.815-1.737-2.217-1.221-.376-1.835.033-2.033.679-.331 1.069.508 1.584 2.337 2.693 1.915 1.187 4.344 2.738 3.347 5.964-.805 2.6-3.01 3.55-5.651 3.154l-.014-.006ZM26.377 40.633l1.036 2.256-3.05 1.4-1.037-2.257c-2.231.666-4.787.554-6.556-1.868l3.447-2.83c.515.752 1.65 1.577 3.255.844 1.01-.462 1.498-1.18 1.089-2.078-.66-1.445-2.443-.726-4.655-.37-2.37.363-4.78.284-6.147-2.679-1.228-2.665-.29-4.935 2.146-6.519l-1.037-2.256 3.077-1.413 1.037 2.257c2.568-.72 4.681-.139 6.193 1.636l-3.268 2.719c-.64-.89-1.69-1.168-3.05-.541-1.281.587-1.48 1.372-1.17 2.052.516 1.115 1.579.924 3.883.488 2.436-.429 5.566-.943 7.117 2.429 1.248 2.718.14 5.107-2.31 6.73ZM291.395 35.875l1.148 2.85-3.849 1.551-1.149-2.85c-2.799.686-5.949.396-7.989-2.692l4.424-3.293c.588.964 1.941 2.052 3.968 1.234 1.274-.514 1.921-1.372 1.466-2.5-.733-1.822-2.971-1.043-5.725-.733-2.944.31-5.922.066-7.427-3.675-1.354-3.366-.066-6.117 3.037-7.925l-1.149-2.85 3.882-1.564 1.149 2.85c3.215-.732 5.79.106 7.547 2.389l-4.193 3.16c-.739-1.141-2.02-1.544-3.737-.85-1.618.646-1.908 1.603-1.565 2.46.568 1.406 1.895 1.234 4.767.838 3.037-.382 6.933-.831 8.643 3.425 1.38 3.431-.132 6.315-3.255 8.169l.007.006Z" fill="#F0F0F0"/><path d="M261.47 121.547v6.892l2.144-7.747" fill="#15A9F3"/><path d="m269.947 118-7.841.101a.035.035 0 0 0-.02.005.049.049 0 0 0-.018.014l-.586.678a.02.02 0 0 0-.004.008l.001.009c0 .002.002.005.004.006.002.002.004.003.006.002l4.623-.094a.026.026 0 0 1 .022.007.045.045 0 0 1 .012.026.056.056 0 0 1-.005.029c-.005.009-.012.015-.019.016l-6.036 1.61-.006.004-2.066 2.393a.077.077 0 0 0-.014.04.09.09 0 0 0 .008.043.056.056 0 0 0 .027.026.042.042 0 0 0 .033-.002l11.898-4.795a.055.055 0 0 0 .027-.029c.006-.013.008-.03.006-.045a.068.068 0 0 0-.019-.04.041.041 0 0 0-.033-.012Z" fill="#15A9F3"/><path d="M261.479 118.812v1.233l5.112-1.366-5.112.133Z" fill="#15A9F3"/></g><defs><clipPath id="a"><path fill="#fff" d="M0 0h310v306H0z"/></clipPath></defs></svg>