<svg width="289" height="273" fill="none" xmlns="http://www.w3.org/2000/svg"><g clip-path="url(#a)"><path d="M111.781 11.717 48.052.065a4.217 4.217 0 0 0-4.905 3.394l-10.96 60.083a4.221 4.221 0 0 0 3.39 4.912l63.728 11.652a4.218 4.218 0 0 0 4.906-3.394l10.96-60.084a4.22 4.22 0 0 0-3.39-4.91Z" fill="#E0E0E0"/><path d="M83.866 52.59s-.167-.006-.49-.055l-1.398-.224c-1.248-.212-3.005-.51-5.172-.883-4.41-.783-10.495-1.859-17.351-3.071l-.143-.025v-.143c.043-.939.08-1.94.118-2.947.366-8.63.69-16.326.9-21.362l.087.106-4.607-.883c-.516-.106-.92-.187-1.224-.249-.28-.062-.422-.093-.416-.106 0-.012.15.007.429.05.31.05.714.112 1.235.193 1.106.186 2.67.454 4.627.783l.087.013v.093c-.187 5.036-.466 12.733-.783 21.368-.037 1.007-.08 2.008-.118 2.947l-.136-.168c6.843 1.256 12.923 2.369 17.332 3.177 2.16.41 3.912.746 5.154.983l1.391.28c.317.068.478.105.478.117v.007Z" fill="#FAFAFA"/><path d="M59.684 43.004s.044 0 .125.006l.36.05c.341.056.807.13 1.397.224 1.242.211 3.012.516 5.229.895 4.483.796 10.75 1.902 18.002 3.19l-.18.099c1.08-2.935 2.248-6.112 3.453-9.394.621-1.691 1.236-3.351 1.82-4.93l.124.217c-8.415-1.542-15.848-2.897-21.201-3.88-2.645-.497-4.776-.9-6.272-1.18-.714-.144-1.28-.256-1.69-.336a29.42 29.42 0 0 1-.434-.094.618.618 0 0 1-.149-.043s.05 0 .15.012c.117.019.26.038.44.062.41.069.975.162 1.695.28 1.503.261 3.64.628 6.291 1.082 5.36.951 12.793 2.275 21.22 3.768l.192.037-.068.186c-.584 1.586-1.193 3.246-1.814 4.937-1.21 3.282-2.384 6.46-3.465 9.394l-.043.124-.13-.025-17.985-3.301c-2.204-.416-3.968-.752-5.21-.989-.59-.118-1.05-.21-1.391-.28-.143-.03-.26-.055-.36-.08-.08-.019-.118-.031-.118-.037l.012.006ZM64.385 55.917s.006-.224-.03-.603a2.506 2.506 0 0 0-.665-1.43 2.359 2.359 0 0 0-2.13-.697c-.857.137-1.708.877-1.882 1.884-.192 1.001.348 1.99 1.105 2.419a2.384 2.384 0 0 0 2.242.093 2.488 2.488 0 0 0 1.124-1.107c.174-.342.211-.56.242-.553.013 0 .02.23-.124.61a2.456 2.456 0 0 1-1.136 1.261c-.634.36-1.627.467-2.503-.037-.87-.466-1.503-1.598-1.28-2.748.2-1.15 1.18-1.99 2.162-2.126.994-.162 1.888.28 2.354.84.49.559.62 1.18.62 1.578 0 .404-.08.616-.093.616h-.006ZM80.079 58.746s.006-.224-.031-.604a2.506 2.506 0 0 0-.665-1.43 2.359 2.359 0 0 0-2.13-.696c-.857.137-1.708.877-1.882 1.884-.192 1.001.348 1.99 1.106 2.419a2.384 2.384 0 0 0 2.242.093 2.489 2.489 0 0 0 1.124-1.107c.173-.342.21-.56.242-.553.012 0 .018.23-.124.61a2.456 2.456 0 0 1-1.137 1.261c-.633.36-1.627.466-2.502-.037-.87-.466-1.503-1.598-1.28-2.748.199-1.15 1.18-1.99 2.161-2.126.994-.162 1.888.28 2.354.839.49.56.621 1.181.621 1.58 0 .403-.08.615-.093.615h-.006Z" fill="#FAFAFA"/><path d="M96.119 31.745a7.07 7.07 0 1 1-13.917-2.506 7.07 7.07 0 1 1 13.917 2.506Z" fill="#FAFAFA"/><path d="M88.71 34.362s.025.056.025.168l-.112-.025c0-.441.217-1.865.553-3.531.403-2.027.813-3.644.925-3.625.112.025-.124 1.679-.528 3.706-.329 1.666-.67 3.065-.838 3.475l-.112-.025c.037-.106.068-.155.087-.15v.007Z" fill="#E0E0E0"/><path d="M93.039 31.664c-.025.112-1.67-.125-3.683-.523-2.012-.397-3.626-.814-3.608-.926.025-.112 1.67.125 3.683.529 2.012.398 3.626.814 3.608.926v-.006ZM242.146 63.85s.167-.025.497-.05c.347-.025.838-.062 1.465-.106.323-.012.683-.062 1.081-.056.397.013.838.032 1.31.05.472.025.987.019 1.528.081l1.726.242c2.416.41 5.384 1.157 8.489 2.798a27.873 27.873 0 0 1 9.085 7.566c.336.442.677.883 1.019 1.33.31.473.602.965.912 1.45.659.957 1.118 2.051 1.665 3.127.931 2.22 1.763 4.613 2.105 7.193.261 1.28.279 2.605.36 3.948.031.671-.043 1.349-.062 2.027l-.043 1.025c-.031.342-.094.684-.143 1.026-.298 2.76-1.149 5.521-2.354 8.176-2.378 5.346-6.756 10.103-12.345 13.137-2.789 1.541-5.931 2.53-9.172 3.009-3.242.553-6.633.422-9.936-.255a30.09 30.09 0 0 1-1.267-.293l.18-.024-13.097 8.175-.46.286.118-.528c1.013-4.539 2-8.934 2.944-13.156l.081.218a28.586 28.586 0 0 1-8.62-11.036 28.572 28.572 0 0 1-1.912-6.322c-.193-1.057-.33-2.114-.361-3.165-.031-.522-.055-1.044-.087-1.56-.024-.516.038-1.026.05-1.536a28.1 28.1 0 0 1 2.77-11.035 28.734 28.734 0 0 1 5.688-7.933c2.093-2.133 4.391-3.55 6.403-4.7 2.068-1.07 3.937-1.773 5.495-2.201a348.84 348.84 0 0 1 2.075-.523 383.54 383.54 0 0 0 1.546-.224l.944-.13c.211-.025.323-.031.323-.031s-.106.03-.317.068c-.23.044-.534.093-.938.168-.416.069-.931.156-1.534.261-.596.162-1.285.348-2.061.553-1.547.448-3.391 1.17-5.44 2.245-1.987 1.163-4.254 2.586-6.316 4.706a28.61 28.61 0 0 0-5.589 7.884 27.846 27.846 0 0 0-2.695 10.91c-.012.504-.068 1.008-.043 1.518.031.51.056 1.02.087 1.535a21.47 21.47 0 0 0 .366 3.121 28.289 28.289 0 0 0 1.9 6.23c1.795 4.078 4.689 7.896 8.514 10.855l.112.087-.031.137c-.938 4.221-1.919 8.623-2.925 13.161l-.342-.242 13.097-8.182.081-.05.093.025c.41.106.826.199 1.248.292 3.248.666 6.589.796 9.775.249 3.192-.472 6.284-1.442 9.029-2.953 5.502-2.984 9.824-7.653 12.178-12.919 1.198-2.611 2.037-5.334 2.341-8.051.044-.336.106-.672.143-1.014l.05-1.013c.018-.671.093-1.337.062-2.002-.081-1.324-.093-2.63-.348-3.892-.329-2.549-1.143-4.918-2.056-7.106-.534-1.063-.987-2.145-1.633-3.096-.304-.485-.59-.97-.894-1.436-.335-.448-.671-.883-1-1.318a27.816 27.816 0 0 0-8.948-7.542c-3.068-1.647-6.005-2.412-8.403-2.847-.602-.093-1.173-.18-1.713-.261-.541-.069-1.05-.063-1.516-.1-.472-.025-.906-.05-1.304-.068-.397-.019-.757.025-1.08.03-.634.026-1.118.044-1.466.057-.329.012-.503 0-.503 0h.019Z" fill="#E0E0E0"/><path d="m236.793 79.231-3.359 25.49h24.902l-3.633-25.49h-17.91Z" fill="#E0E0E0"/><path d="M252.684 82.93s.006.274-.13.74a7.201 7.201 0 0 1-.888 1.847 6.725 6.725 0 0 1-2.223 2.089c-1.006.584-2.292.913-3.621.913-1.329.013-2.614-.267-3.639-.839-1.031-.56-1.745-1.38-2.204-2.114a6.714 6.714 0 0 1-.802-1.883c-.118-.473-.124-.74-.093-.747.075-.024.23 1.057 1.162 2.45.472.678 1.161 1.424 2.13 1.921.962.51 2.167.765 3.434.752 1.267 0 2.465-.298 3.421-.826a6.572 6.572 0 0 0 2.161-1.91c.988-1.354 1.218-2.424 1.286-2.393h.006Z" fill="#fff"/><path d="M289 266.746c0 .087-64.702.161-144.494.161S0 266.833 0 266.746c0-.087 64.683-.162 144.506-.162s144.494.075 144.494.162Z" fill="#022749"/><path d="M189.864 266.746h-82.388c-9.924-.044-18.046-8.518-18.01-18.453l.877-207.086c.043-9.941 8.128-17.961 18.052-17.918l82.506.38c9.923.043 17.934 8.132 17.891 18.067l-.876 207.086c-.043 9.941-8.129 17.961-18.052 17.917v.007Z" fill="#022749"/><path d="m190.789 30.818-15.997-.074c-2.142-.013-3.894 1.803-3.9 4.047l-.012 2.903c-.006 2.245-1.758 4.06-3.9 4.048l-31.18-.143c-2.143-.013-3.875-1.84-3.869-4.085l.012-2.903c.006-2.245-1.72-4.072-3.869-4.085l-5.626-.025-14.003-.062c-6.956-.031-12.613 5.59-12.644 12.546l-.85 202.131c-.032 6.957 5.576 12.621 12.531 12.658l82.344.38c6.956.031 12.613-5.59 12.644-12.547l.851-202.13c.031-6.958-5.577-12.621-12.532-12.652v-.007Z" fill="#FAFAFA"/><path d="M119.225 51.471c0 .088-2.757.162-6.154.162s-6.154-.074-6.154-.162c0-.086 2.757-.161 6.154-.161s6.154.075 6.154.161ZM119.225 49.146c0 .087-2.757.162-6.154.162s-6.154-.075-6.154-.162c0-.087 2.757-.161 6.154-.161s6.154.074 6.154.161ZM119.225 46.815c0 .087-2.757.162-6.154.162s-6.154-.075-6.154-.162c0-.087 2.757-.162 6.154-.162s6.154.075 6.154.162Z" fill="#022749"/><path d="M108.32 225.228h81.618c1.105 0 1.999.895 1.999 2.002v15.605a1.999 1.999 0 0 1-1.999 2.001H108.32a2 2 0 0 1-2-2.001V227.23a2 2 0 0 1 2-2.002Z" fill="#15A9F3"/><path d="M125.813 229.207h-8.247c-1.07 0-1.937.868-1.937 1.939v8.257c0 1.071.867 1.939 1.937 1.939h8.247c1.07 0 1.938-.868 1.938-1.939v-8.257a1.939 1.939 0 0 0-1.938-1.939Z" fill="#022749" opacity=".3"/><path d="M121.696 238.8a.307.307 0 0 1-.31-.311v-6.423c0-.174.136-.31.31-.31s.311.136.311.31v6.423a.308.308 0 0 1-.311.311Z" fill="#fff"/><path d="M124.845 235.585h-6.297a.307.307 0 0 1-.311-.31c0-.175.137-.311.311-.311h6.297c.174 0 .31.136.31.311 0 .174-.136.31-.31.31ZM138.388 236.431h-2.142l-.441 1.007h-.59l1.826-4.029h.571l1.832 4.029h-.603l-.44-1.007h-.013Zm-.199-.46-.869-1.977-.869 1.977h1.738ZM140.034 233.409h1.696c1.291 0 2.173.821 2.173 2.015 0 1.193-.882 2.014-2.173 2.014h-1.696v-4.029Zm1.664 3.532c.994 0 1.634-.61 1.634-1.517 0-.908-.64-1.517-1.634-1.517h-1.086v3.028h1.086v.006ZM144.791 233.409h1.695c1.292 0 2.174.821 2.174 2.015 0 1.193-.882 2.014-2.174 2.014h-1.695v-4.029Zm1.664 3.532c.994 0 1.634-.61 1.634-1.517 0-.908-.64-1.517-1.634-1.517h-1.086v3.028h1.086v.006ZM151.895 233.907h-1.378v-.504h3.328v.504h-1.378v3.531h-.572v-3.531ZM154.087 235.424c0-1.182.907-2.064 2.142-2.064 1.236 0 2.137.876 2.137 2.064 0 1.187-.907 2.064-2.137 2.064-1.229 0-2.142-.883-2.142-2.064Zm3.701 0c0-.896-.664-1.548-1.559-1.548-.894 0-1.571.659-1.571 1.548s.665 1.548 1.571 1.548c.907 0 1.559-.659 1.559-1.548ZM160.471 235.424c0-1.194.906-2.064 2.136-2.064.621 0 1.161.211 1.528.628l-.373.36a1.486 1.486 0 0 0-1.13-.479c-.907 0-1.584.659-1.584 1.549 0 .889.671 1.548 1.584 1.548.441 0 .819-.156 1.13-.485l.373.36c-.367.417-.907.634-1.534.634-1.217 0-2.13-.87-2.13-2.064v.013ZM167.426 236.431h-2.142l-.441 1.007h-.59l1.826-4.029h.571l1.832 4.029h-.602l-.441-1.007h-.013Zm-.198-.46-.87-1.977-.869 1.977h1.739ZM171.766 237.438l-.869-1.237c-.081 0-.168.012-.255.012h-.993v1.225h-.578v-4.029h1.571c1.05 0 1.683.529 1.683 1.405 0 .622-.323 1.07-.888 1.275l.957 1.355h-.628v-.006Zm-.018-2.624c0-.578-.385-.901-1.124-.901h-.981v1.815h.981c.739 0 1.124-.335 1.124-.907v-.007ZM174.003 233.907h-1.379v-.504h3.329v.504h-1.379v3.531h-.571v-3.531Z" fill="#fff"/><path d="m113.152 187.931 1.056 2.139 2.359.342-1.707 1.666.403 2.35-2.111-1.107-2.112 1.107.404-2.35-1.708-1.666 2.36-.342 1.056-2.139ZM121.858 187.931l1.056 2.139 2.36.342-1.708 1.666.404 2.35-2.112-1.107-2.105 1.107.398-2.35-1.702-1.666 2.354-.342 1.055-2.139ZM130.565 187.931l1.055 2.139 2.36.342-1.708 1.666.404 2.35-2.111-1.107-2.106 1.107.404-2.35-1.708-1.666 2.36-.342 1.05-2.139ZM139.277 187.931l1.049 2.139 2.36.342-1.708 1.666.404 2.35-2.105-1.107-2.112 1.107.404-2.35-1.708-1.666 2.36-.342 1.056-2.139Z" fill="#15A9F3"/><path d="m147.984 187.931 1.056 2.139 2.353.342-1.701 1.666.397 2.35-2.105-1.107-2.112 1.107.404-2.35-1.708-1.666 2.36-.342 1.056-2.139Z" fill="#E0E0E0"/><path d="M160.757 192.892v.479h-2.775v-.373l1.571-1.517c.41-.398.484-.64.484-.883 0-.398-.279-.64-.82-.64-.416 0-.751.13-.987.416l-.373-.323c.299-.373.814-.584 1.41-.584.807 0 1.323.416 1.323 1.075 0 .373-.112.715-.634 1.213l-1.18 1.137h1.981ZM163.85 192.233c0 .653-.478 1.182-1.46 1.182-.552 0-1.092-.174-1.415-.467l.254-.435c.261.243.69.417 1.161.417.578 0 .907-.268.907-.684 0-.417-.292-.672-.956-.672h-.311v-.385l.969-1.194h-1.857v-.479h2.546v.374l-1.012 1.249c.77.075 1.161.51 1.161 1.107l.013-.013ZM168.738 193.371l-.832-1.187c-.075 0-.162.012-.243.012h-.956v1.175h-.553v-3.867h1.503c1.006 0 1.609.51 1.609 1.349 0 .597-.311 1.026-.851 1.219l.913 1.299h-.603.013Zm-.019-2.518c0-.553-.366-.864-1.074-.864h-.938v1.741h.938c.708 0 1.074-.317 1.074-.871v-.006ZM172.717 192.084h-2.372c.069.516.478.858 1.062.858.342 0 .627-.118.845-.354l.292.342c-.267.311-.665.472-1.155.472-.944 0-1.572-.622-1.572-1.498 0-.877.621-1.492 1.466-1.492s1.447.609 1.447 1.504c0 .044 0 .112-.013.162v.006Zm-2.372-.379h1.876c-.056-.491-.423-.839-.938-.839-.515 0-.882.342-.938.839ZM175.997 190.443l-1.279 2.928h-.54l-1.28-2.928h.553l1.006 2.344 1.025-2.344h.515ZM176.395 189.541a.35.35 0 0 1 .36-.348c.205 0 .36.149.36.336a.347.347 0 0 1-.36.354c-.211 0-.36-.149-.36-.342Zm.093.908h.528v2.928h-.528v-2.928ZM180.661 192.084h-2.372c.068.516.478.858 1.061.858.342 0 .628-.118.845-.354l.292.342c-.267.311-.665.472-1.155.472-.944 0-1.571-.622-1.571-1.498 0-.877.621-1.492 1.465-1.492.845 0 1.447.609 1.447 1.504 0 .044 0 .112-.012.162v.006Zm-2.372-.379h1.875c-.056-.491-.422-.839-.938-.839-.515 0-.882.342-.937.839ZM185.772 190.443l-1.093 2.928h-.509l-.845-2.219-.857 2.219h-.509l-1.087-2.928h.503l.851 2.331.882-2.331h.447l.863 2.344.869-2.344h.485ZM185.896 193.06l.223-.416a1.9 1.9 0 0 0 1.025.304c.49 0 .695-.149.695-.398 0-.659-1.844-.087-1.844-1.255 0-.523.466-.877 1.217-.877.379 0 .807.099 1.062.267l-.224.417a1.56 1.56 0 0 0-.844-.23c-.466 0-.689.168-.689.404 0 .69 1.85.124 1.85 1.262 0 .528-.484.864-1.261.864-.484 0-.962-.149-1.21-.342ZM113.165 209.934v1.15h-.652v-1.15c-.994-.05-1.944-.398-2.472-.883l.379-.796c.478.435 1.273.765 2.093.814v-2.362c-1.118-.274-2.298-.634-2.298-2.014 0-1.008.72-1.884 2.298-2.015v-1.162h.652v1.15c.763.031 1.527.255 2.061.621l-.335.815a3.645 3.645 0 0 0-1.726-.572v2.369c1.136.286 2.359.621 2.359 2.014 0 1.007-.751 1.884-2.359 2.014v.007Zm-.652-4.197v-2.201c-.907.112-1.305.572-1.305 1.107 0 .628.572.895 1.305 1.088v.006Zm2.012 2.238c0-.653-.609-.908-1.36-1.107v2.189c.944-.093 1.36-.529 1.36-1.082ZM125.355 208.112h-1.354v1.753h-.988v-1.753h-3.955v-.715l3.639-4.663h1.099l-3.49 4.501h2.732v-1.548h.957v1.548h1.353v.877h.007ZM125.964 206.297c0-2.319 1.242-3.644 2.906-3.644 1.664 0 2.9 1.325 2.9 3.644s-1.242 3.643-2.9 3.643-2.906-1.324-2.906-3.643Zm4.788 0c0-1.822-.77-2.736-1.882-2.736-1.111 0-1.894.914-1.894 2.736 0 1.821.776 2.735 1.894 2.735 1.118 0 1.882-.914 1.882-2.735ZM132.602 209.219c0-.411.316-.691.689-.691.372 0 .671.286.671.691 0 .404-.305.702-.671.702a.694.694 0 0 1-.689-.702ZM140.644 207.845c0 1.293-1.1 2.095-2.838 2.095-1.739 0-2.82-.802-2.82-2.095 0-.815.447-1.418 1.249-1.723-.653-.304-.994-.833-.994-1.535 0-1.194 1.025-1.934 2.565-1.934s2.583.746 2.583 1.934c0 .702-.354 1.231-1.006 1.535.814.318 1.261.908 1.261 1.723Zm-1.019-.031c0-.784-.689-1.275-1.819-1.275-1.131 0-1.801.491-1.801 1.275 0 .783.67 1.305 1.801 1.305 1.13 0 1.819-.497 1.819-1.305Zm-3.378-3.19c0 .703.577 1.138 1.552 1.138.975 0 1.584-.435 1.584-1.138 0-.702-.627-1.15-1.584-1.15-.956 0-1.552.435-1.552 1.15ZM141.575 206.297c0-2.319 1.242-3.644 2.906-3.644 1.665 0 2.901 1.325 2.901 3.644s-1.242 3.643-2.901 3.643c-1.658 0-2.906-1.324-2.906-3.643Zm4.788 0c0-1.822-.77-2.736-1.882-2.736-1.111 0-1.894.914-1.894 2.736 0 1.821.777 2.735 1.894 2.735 1.118 0 1.882-.914 1.882-2.735Z" fill="#022749"/><path d="m178.812 96.09-59.473.094a4.219 4.219 0 0 0-4.21 4.228l.088 56.035a4.218 4.218 0 0 0 4.223 4.214l59.473-.093a4.22 4.22 0 0 0 4.21-4.228l-.088-56.035a4.22 4.22 0 0 0-4.223-4.215Z" fill="#15A9F3"/><path d="m137.747 136.498-1.392.002.02 12.229 1.391-.002-.019-12.229ZM142.633 136.502l-1.391.003.01 6.242 1.391-.003-.01-6.242ZM156.637 136.474l-1.391.002.01 6.242 1.391-.002-.01-6.242ZM162.81 136.464l-1.391.003.019 12.229 1.391-.002-.019-12.23Z" fill="#022749"/><path d="m132.452 123.696 3.931 13.429 26.411-.044 4.143-12.894s-2.776-.883-4.546-.497l-.516-14.294a1.969 1.969 0 0 0-2.751-1.734l-2.564 1.125-14.898.025-1.714-.858a1.937 1.937 0 0 0-2.801 1.753l.124 14.144s-2.297-.665-4.825-.161l.006.006Z" fill="#FAFAFA"/><path d="M141.575 130.684c1.435 1.623 3.459 2.655 5.571 3.102 2.111.448 4.322.317 6.439-.137 1.155-.242 2.397-.665 2.994-1.684.621-1.051.353-2.375.074-3.557-.36-1.517-.733-3.058-1.503-4.42-.77-1.355-2.012-2.53-3.539-2.847-2.068-.429-4.143.771-5.67 2.232a15.906 15.906 0 0 0-4.266 7.037" fill="#E0E0E0"/><path d="M141.935 129.341c-.106 0-.199-4.582-.205-10.227-.006-5.652.068-10.227.174-10.227.105 0 .198 4.575.205 10.227.006 5.645-.069 10.227-.174 10.227ZM156.858 129.316c-.106 0-.199-4.582-.205-10.227-.007-5.651.068-10.227.174-10.227.105 0 .198 4.576.205 10.227.006 5.645-.069 10.227-.174 10.227Z" fill="#022749"/><path d="M162.397 123.69s-.236.093-.683.205c-.118.031-.242.062-.373.093-.136.05-.279.106-.428.168-.155.062-.323.124-.497.193-.168.093-.341.186-.528.286a5.404 5.404 0 0 0-2.08 2.12c-.559 1.007-.838 2.35-.714 3.736l.018.193h-.186c-2.136.012-4.533.019-7.061.031-2.869 0-5.576-.006-7.911-.012h-.168v-.168a7.23 7.23 0 0 0-.937-3.395 7.708 7.708 0 0 0-1.745-2.126c-1.193-.995-2.093-1.225-2.062-1.287 0-.013.223.043.615.199.391.162.95.447 1.571.932a7.681 7.681 0 0 1 1.863 2.145 7.39 7.39 0 0 1 1.031 3.532l-.168-.168c2.341-.013 5.042-.025 7.911-.037 2.528 0 4.925 0 7.061.006l-.174.192c-.112-1.492.199-2.866.808-3.923a5.524 5.524 0 0 1 2.229-2.163c.192-.1.379-.187.553-.28.18-.062.354-.118.515-.174.155-.05.304-.099.447-.143.137-.025.267-.05.385-.068.46-.081.708-.118.708-.1v.013ZM141.655 130.628c.013.062-.49.155-1.223.491a6.37 6.37 0 0 0-2.41 1.927 6.34 6.34 0 0 0-1.173 2.86c-.118.796-.069 1.306-.131 1.312-.043.006-.192-.497-.136-1.343a5.841 5.841 0 0 1 1.136-3.059 5.801 5.801 0 0 1 2.615-1.946c.794-.286 1.322-.286 1.322-.242Z" fill="#022749"/><path d="M162.533 137.361c-.062 0-.074-.566-.298-1.43a7.618 7.618 0 0 0-1.577-3.046 7.548 7.548 0 0 0-2.788-1.996c-.826-.342-1.385-.435-1.373-.497 0-.044.584-.044 1.466.242.875.28 2.043.92 2.987 2.002a6.863 6.863 0 0 1 1.552 3.239c.162.914.075 1.492.031 1.486Z" fill="#022749"/><path d="M183.486 209.187s-.049 0-.068-.006c-.019 0-.031-.006-.05-.012a.278.278 0 0 1-.105-.069l-2.217-2.263c-.721-.739-.988-1.778-.69-2.71.261-.808.839-1.244 1.671-1.256.553.006.956.149 1.267.466.074.075.136.156.192.243.056-.087.124-.174.205-.255.311-.311.739-.46 1.255-.46.832.012 1.409.447 1.67 1.256.298.932.031 1.97-.689 2.71l-2.217 2.263a.306.306 0 0 1-.224.093Zm-1.422-5.701h-.025c-.565.007-.913.268-1.086.821-.23.715-.019 1.511.54 2.083l1.993 2.039 1.994-2.039c.559-.572.77-1.374.54-2.083-.174-.553-.522-.814-1.087-.821-.348 0-.627.087-.813.28-.336.342-.329.908-.329.914a.39.39 0 0 1-.032.149.313.313 0 0 1-.354.162.319.319 0 0 1-.235-.299v-.043c0-.118-.032-.591-.33-.889-.18-.187-.447-.28-.782-.28l.006.006Z" fill="#15A9F3"/><path d="M172.563 78.64c0 .087-10.489.162-23.431.162-12.941 0-23.43-.075-23.43-.162 0-.087 10.489-.161 23.43-.161 12.942 0 23.431.074 23.431.161Z" fill="#022749"/><path d="M166.185 72.137h-34.913v1.99h34.913v-1.99Z" fill="#15A9F3"/><path d="M180.828 177.841c0 .087-14.19.161-31.69.161s-31.696-.074-31.696-.161c0-.087 14.19-.162 31.696-.162s31.69.075 31.69.162ZM171.904 172.363c0 .087-10.196.162-22.772.162-12.575 0-22.772-.075-22.772-.162 0-.087 10.197-.161 22.772-.161 12.576 0 22.772.074 22.772.161ZM192.193 51.69c0 .049-.882.092-2.341.123-1.454.032-3.478.056-5.757.063h-.155l-.025-.156c-.044-.304-.087-.628-.137-.957a308.305 308.305 0 0 1-.9-6.926l.112.1c-1.311-.032-2.081-.075-2.081-.119 0-.043.77-.087 2.081-.118h.099l.018.1c.268 1.61.64 4.11 1.031 6.907.044.33.087.653.131.957l-.18-.155c2.279 0 4.303.025 5.756.062 1.453.031 2.342.075 2.342.124l.006-.006Z" fill="#022749"/><path d="M183.865 50.01s.218-.043.621-.062c.472-.012 1.044-.03 1.733-.05a339.45 339.45 0 0 1 5.974-.062l-.174.143c.174-1.007.367-2.095.559-3.22.106-.578.205-1.15.298-1.691l.18.211a481.24 481.24 0 0 1-7.042-.062c-.832-.025-1.528-.037-2.086-.056-.491-.019-.758-.043-.758-.062 0-.019.267-.043.758-.062a284.32 284.32 0 0 0 2.086-.056c1.77-.031 4.242-.056 7.042-.062h.218l-.038.211c-.093.541-.192 1.113-.298 1.691-.198 1.125-.397 2.213-.577 3.22l-.025.144h-.149c-2.41-.013-4.496-.038-5.974-.069-.683-.018-1.261-.037-1.733-.05-.403-.018-.621-.037-.621-.062l.006.007ZM186.119 53.884c-.056.012-.062-.317-.397-.541a.686.686 0 0 0-.627-.062.658.658 0 0 0-.41.603.665.665 0 0 0 1.037.54c.335-.223.341-.553.397-.54.025 0 .056.074.044.217a.832.832 0 0 1-.286.535.924.924 0 0 1-.9.174.973.973 0 0 1-.659-.92c0-.441.311-.815.659-.92a.936.936 0 0 1 .9.174c.205.18.273.392.286.535.012.143-.019.217-.044.217v-.012ZM191.329 53.884c-.056.012-.062-.317-.397-.541a.686.686 0 0 0-.627-.062.658.658 0 0 0-.41.603.665.665 0 0 0 1.037.54c.335-.223.341-.553.397-.54.025 0 .056.074.044.217a.832.832 0 0 1-.286.535.924.924 0 0 1-.9.174.973.973 0 0 1-.659-.92c0-.441.311-.815.659-.92a.936.936 0 0 1 .9.174c.205.18.273.392.286.535.012.143-.019.217-.044.217v-.012Z" fill="#022749"/><path d="M196.72 44.595a3.443 3.443 0 0 1-3.441 3.445c-1.9 0-3.44-1.542-3.44-3.445a3.442 3.442 0 0 1 3.44-3.444c1.9 0 3.441 1.542 3.441 3.444Z" fill="#15A9F3"/><path d="M193.59 43.209v2.785h-.392v-2.437h-.627v-.348h1.019Z" fill="#fff"/><path d="M57.871 211.699h-8.216v54.91h8.216v-54.91Z" fill="#455A64"/><path d="M106.141 205.097H43.817v7.603h62.324v-7.603ZM97.093 235.113H54.244v7.603h42.849v-7.603Z" fill="#455A64"/><path d="M101.204 211.699h-8.216v54.91h8.216v-54.91Z" fill="#455A64"/><path d="M106.11 212.588c0 .087-13.966.162-31.2.162-17.232 0-31.198-.075-31.198-.162 0-.087 13.966-.161 31.199-.161 17.233 0 31.199.074 31.199.161ZM57.902 249.108c-.087 0-.162-4.073-.162-9.102 0-5.03.075-9.102.162-9.102.087 0 .161 4.072.161 9.102 0 5.029-.074 9.102-.161 9.102ZM92.97 248.753c-.088 0-.162-3.786-.162-8.455 0-4.669.074-8.455.161-8.455.087 0 .162 3.786.162 8.455 0 4.669-.075 8.455-.162 8.455ZM106.464 207.173s-.224-.056-.646-.174c-.428-.087-1.062-.236-1.894-.267-1.658-.112-4.08.255-6.862 1.305-1.397.516-2.875 1.194-4.496 1.872-1.615.671-3.372 1.361-5.31 1.74-1.937.392-4.055.349-6.154-.068-2.111-.41-4.216-1.15-6.315-2.014-2.105-.864-4.124-1.785-6.13-2.531-1.999-.746-3.999-1.299-5.949-1.541-3.906-.523-7.483-.019-10.327.795a25.062 25.062 0 0 0-6.415 2.842l-.931.596c-.255.187-.472.342-.658.479-.354.255-.547.386-.547.386s.18-.143.528-.411c.18-.137.397-.298.646-.485.273-.18.577-.385.925-.609a24.714 24.714 0 0 1 6.415-2.885c2.85-.827 6.446-1.343 10.37-.827 1.963.243 3.975.79 5.98 1.542 2.013.746 4.031 1.666 6.13 2.531 2.1.864 4.192 1.604 6.29 2.008 2.094.41 4.186.46 6.111.074 1.925-.379 3.677-1.057 5.291-1.728 1.615-.671 3.1-1.349 4.502-1.859 2.795-1.044 5.236-1.393 6.9-1.268.832.043 1.465.199 1.894.292.422.124.64.199.64.199l.012.006Z" fill="#022749"/><path d="M59.666 208.951s-.578.392-1.745.746a8.814 8.814 0 0 1-5.03-.018l-.087-.025.062-.062a10.938 10.938 0 0 1 3.875-2.419 11.574 11.574 0 0 1 5.235-.597c.577.087 1.149.193 1.695.361.54.168 1.087.336 1.547.678.453.329.77.895.664 1.454-.118.572-.646.896-1.106 1.076-1.912.678-3.707 1.013-5.222 1.194-1.515.174-2.757.18-3.608.155-.85-.031-1.323-.087-1.323-.087s.118 0 .342.006c.26.006.583.019.981.031.85.007 2.087-.012 3.596-.199 1.502-.192 3.297-.541 5.185-1.212.447-.18.925-.485 1.024-.989.094-.497-.192-1.025-.62-1.33-.429-.323-.97-.491-1.503-.653-.54-.168-1.1-.273-1.67-.354-1.826-.224-3.621.037-5.174.584a11.08 11.08 0 0 0-3.844 2.375l-.018-.087a8.835 8.835 0 0 0 4.986.062 9.36 9.36 0 0 0 1.317-.478c.292-.137.447-.212.447-.212h-.006ZM101.993 210.487s-.012.286.279.665c.274.367.926.759 1.77.709.416-.031.876-.156 1.255-.466.372-.299.633-.834.521-1.362-.111-.535-.633-.933-1.204-1.063-.584-.137-1.224-.075-1.863-.044-1.292.075-2.515.243-3.596.547-1.08.299-2 .728-2.707 1.194a7.548 7.548 0 0 0-1.522 1.3 6.653 6.653 0 0 0-.348.422.852.852 0 0 1-.124.149s.124-.23.429-.603a7.099 7.099 0 0 1 1.509-1.342c.708-.479 1.633-.927 2.726-1.231 1.087-.311 2.322-.485 3.62-.56.646-.031 1.286-.099 1.9.05.603.137 1.168.566 1.292 1.162.118.591-.168 1.157-.571 1.474-.404.323-.888.447-1.317.472-.875.038-1.54-.379-1.813-.771a1.29 1.29 0 0 1-.224-.503c-.018-.125-.012-.193-.012-.193v-.006ZM105.29 204.835h-.329c-.254 0-.565-.006-.944-.012-.409.025-.912.05-1.49.1-.578.08-1.236.155-1.95.317-1.44.286-3.117.783-4.956 1.398-1.844.61-3.85 1.35-6.03 1.903-2.173.553-4.328.814-6.278.665a15.58 15.58 0 0 1-4.999-1.256 15.634 15.634 0 0 1-3.011-1.747c-.659-.491-.982-.814-.982-.814s.093.068.261.199c.168.137.416.329.752.572a15.838 15.838 0 0 0 7.986 2.928c1.93.143 4.067-.118 6.234-.671 2.168-.554 4.174-1.287 6.024-1.89 1.844-.616 3.527-1.101 4.974-1.381.721-.155 1.385-.223 1.963-.298.583-.044 1.086-.062 1.496-.081.379.019.696.031.944.037.217.013.329.025.329.025l.006.006ZM93.827 266.746s-.013-.193-.025-.554c-.019-.36 0-.895.062-1.585.13-1.374.602-3.332 1.509-5.62.87-2.301 2.198-4.937 3.055-8.07.41-1.567.677-3.258.776-5.024.075-1.765 0-3.599-.335-5.446a24.245 24.245 0 0 0-1.521-5.241c-.677-1.635-1.422-3.177-1.913-4.737-.503-1.555-.677-3.14-.466-4.582.193-1.443.677-2.73 1.236-3.824 1.149-2.195 2.571-3.649 3.534-4.613.987-.964 1.577-1.436 1.577-1.436s-.137.13-.404.379-.658.609-1.142 1.094c-.95.976-2.354 2.437-3.49 4.62-.553 1.088-1.025 2.368-1.211 3.798-.2 1.43-.031 2.991.478 4.533.484 1.548 1.236 3.083 1.913 4.725a24.367 24.367 0 0 1 1.527 5.265c.336 1.853.41 3.7.336 5.472a25.459 25.459 0 0 1-.783 5.048c-.87 3.152-2.205 5.782-3.086 8.076-.92 2.282-1.398 4.228-1.547 5.595-.068.684-.099 1.219-.087 1.579v.554l.007-.006Z" fill="#022749"/><path d="M92.802 232.433s.056.087.15.261c.105.206.241.46.397.765.341.665.838 1.629 1.397 2.841.553 1.219 1.186 2.686 1.689 4.39.51 1.697.876 3.637.826 5.688-.031 2.052-.435 3.979-.92 5.677a42.01 42.01 0 0 1-1.608 4.42c-.521 1.231-.98 2.213-1.297 2.891-.15.311-.274.566-.373.777-.087.174-.137.267-.137.267s.038-.099.112-.279c.093-.212.211-.473.348-.79.304-.684.751-1.672 1.26-2.903.994-2.456 2.391-5.969 2.484-10.066.044-2.033-.316-3.96-.813-5.651-.497-1.698-1.118-3.165-1.658-4.383-.547-1.219-1.031-2.189-1.36-2.86a51.317 51.317 0 0 0-.379-.777c-.087-.181-.124-.274-.124-.274l.006.006ZM98.95 229.287s-.063-.043-.106-.167a.603.603 0 0 1 .118-.554c.149-.217.515-.317.857-.186.354.118.633.478.782.895.155.423.248.908.236 1.436-.025.522-.099 1.101-.422 1.617-.168.242-.398.491-.733.559-.341.075-.677-.155-.844-.429a7.844 7.844 0 0 1-.777-1.828 8.767 8.767 0 0 1-.242-3.792 8.744 8.744 0 0 1 1.03-2.935 8.474 8.474 0 0 1 1.255-1.678c.348-.355.565-.522.565-.522s-.043.055-.136.143c-.093.087-.224.23-.391.41-.33.367-.783.92-1.211 1.691a8.613 8.613 0 0 0-.994 2.903 8.75 8.75 0 0 0 .248 3.743 7.59 7.59 0 0 0 .758 1.791c.162.254.435.441.72.379.28-.056.497-.274.652-.504.305-.479.392-1.05.417-1.554a3.892 3.892 0 0 0-.212-1.405c-.142-.41-.397-.746-.72-.858-.317-.131-.646-.044-.789.149a.615.615 0 0 0-.13.516c.031.124.087.174.08.174l-.012.006ZM102.079 250.687s-.024.056-.08.149c-.075.124-.162.261-.255.41a23.949 23.949 0 0 0-2.912 7.013 23.978 23.978 0 0 0-.534 7.579c.012.174.024.336.037.479.006.111.012.167 0 .167 0 0-.174-.913-.23-2.418-.056-1.505.068-3.593.596-5.838.534-2.238 1.36-4.165 2.087-5.483.72-1.325 1.285-2.064 1.285-2.064l.006.006ZM92.677 240.136s-1.832.715-4.93 1.418c-3.093.677-7.477 1.274-12.321.982a45.275 45.275 0 0 1-6.763-.895c-2.055-.417-3.862-.995-5.384-1.424-1.521-.429-2.794-.628-3.676-.665-.441-.019-.783-.013-1.019 0-.23.012-.354.012-.354.012s.485-.087 1.38-.062c.887.025 2.166.212 3.7.628 1.534.417 3.329.982 5.384 1.393 2.05.422 4.335.746 6.744.883 4.832.286 9.203-.293 12.296-.945a51.822 51.822 0 0 0 4.608-1.231c.223-.069.341-.094.341-.094h-.006Z" fill="#022749"/><path d="M82.53 237.705s-.608.317-1.8.622c-1.187.299-3 .56-5.173.131a2.77 2.77 0 0 1-.802-.293c-.248-.143-.509-.329-.645-.621a.776.776 0 0 1 .186-.895c.242-.224.571-.324.888-.386a28.013 28.013 0 0 1 4.111-.385c2.906-.069 6.123.31 9.327 1.311.621.199 1.23.411 1.795.622l.143.056-.143.062a30.361 30.361 0 0 1-8.427 2.425 30.462 30.462 0 0 1-7.092.162c-2.005-.193-3.601-.523-4.682-.815-1.08-.286-1.664-.491-1.664-.491s.149.037.434.112c.286.068.696.211 1.242.329 1.081.274 2.677.591 4.677.771 2 .187 4.415.193 7.073-.186a30.813 30.813 0 0 0 8.39-2.431v.118a37.351 37.351 0 0 0-1.783-.622 29.565 29.565 0 0 0-9.29-1.318 28.79 28.79 0 0 0-4.092.373c-.31.062-.621.156-.839.355a.68.68 0 0 0-.161.783c.267.51.863.752 1.372.87a11.93 11.93 0 0 0 5.142-.093c.596-.143 1.05-.298 1.354-.404l.46-.168v.006ZM58.517 238.259s.111-.081.335-.199c.217-.125.546-.28.963-.454.832-.342 2.049-.672 3.421-.74a10.666 10.666 0 0 1 3.478.417c.428.13.77.255 1 .36.23.1.353.162.353.168a2.87 2.87 0 0 1-.372-.124 9.883 9.883 0 0 0-1.006-.317 11.319 11.319 0 0 0-3.447-.373c-1.36.068-2.564.379-3.396.696-.416.155-.752.298-.975.41a3.103 3.103 0 0 1-.354.156ZM53.816 251.165s-.143-.161-.391-.484c-.242-.324-.621-.802-.932-1.517a3.376 3.376 0 0 1-.28-1.263c0-.478.168-.994.51-1.436.335-.429.894-.827 1.552-.74.317.044.628.206.864.442.236.236.416.541.54.864.26.653.329 1.393.385 2.145.05.758.043 1.548-.019 2.356a15.65 15.65 0 0 1-.782 3.762c-.137.422-.304.858-.572 1.237-.254.379-.689.715-1.198.69-.51-.012-.925-.373-1.199-.765-.279-.398-.471-.858-.608-1.33a17.821 17.821 0 0 1-.646-7.585c.273-2.101.87-4.091 1.472-5.987.608-1.896 1.223-3.712 1.658-5.49.863-3.55.875-6.901.484-9.63a26.59 26.59 0 0 0-1.689-6.304 23.532 23.532 0 0 0-.733-1.623c-.18-.367-.267-.56-.267-.56s.106.187.292.547c.193.361.447.902.752 1.617a25.868 25.868 0 0 1 1.738 6.31 25.843 25.843 0 0 1-.46 9.668c-.428 1.784-1.042 3.606-1.651 5.502-.602 1.896-1.192 3.873-1.466 5.962a17.839 17.839 0 0 0 .261 6.099c.106.485.236.958.38 1.424.136.466.322.914.589 1.293.267.379.652.703 1.1.715.453.019.85-.273 1.098-.64.261-.367.423-.79.56-1.206.142-.423.266-.84.372-1.262.211-.84.341-1.667.416-2.475.068-.808.075-1.591.025-2.344-.056-.746-.118-1.479-.373-2.113-.23-.641-.72-1.176-1.335-1.256-.615-.081-1.155.292-1.484.702a2.3 2.3 0 0 0-.503 1.393c0 .466.118.889.267 1.237.298.709.67 1.194.907 1.523l.366.498v.024ZM57.566 252.863s.125.876-.03 2.294a14.145 14.145 0 0 1-1.64 5.272c-1.043 1.896-2.366 3.438-3.633 4.128-.627.348-1.21.466-1.608.473-.398 0-.615-.063-.615-.063 0-.018.217.032.609.013a3.617 3.617 0 0 0 1.565-.504c1.23-.69 2.533-2.225 3.564-4.109a14.611 14.611 0 0 0 1.658-5.223c.087-.702.106-1.274.112-1.666v-.454c0-.105 0-.161.006-.161h.012Z" fill="#022749"/><path d="M50.344 212.632s-.03.099-.105.273a6.79 6.79 0 0 0-.28.796c-.199.703-.348 1.772-.199 3.078.143 1.305.578 2.822 1.267 4.414.677 1.598 1.578 3.301 2.217 5.216.317.957.54 1.927.615 2.878.08.952.037 1.872-.08 2.742-.237 1.735-.758 3.239-1.255 4.452a30.174 30.174 0 0 1-1.342 2.816c-.347.647-.565.995-.565.995s.044-.094.13-.268l.392-.752c.335-.653.814-1.61 1.304-2.829.485-1.218.994-2.71 1.217-4.432.112-.858.156-1.772.075-2.711-.075-.939-.298-1.896-.615-2.848-.633-1.902-1.534-3.599-2.204-5.21-.684-1.604-1.118-3.133-1.249-4.451-.142-1.318.025-2.4.242-3.102.218-.709.435-1.057.435-1.057ZM57.038 230.071s0-.069.031-.193c.019-.124.069-.311.1-.553.08-.479.149-1.182.136-2.052-.006-1.741-.515-4.116-1.44-6.603-.932-2.486-1.876-4.706-2.354-6.384-.503-1.673-.609-2.755-.609-2.755s.019.062.05.193c.031.124.056.311.112.547.1.479.273 1.157.534 1.99.497 1.666 1.453 3.879 2.385 6.372.931 2.493 1.428 4.893 1.41 6.646 0 .877-.082 1.579-.18 2.058a6.18 6.18 0 0 1-.181.734h.006Z" fill="#022749"/><path d="m42.7 231.271-3.584 28.033 12.259 1.971 7.6-28.469-16.276-1.535Z" fill="#FFBE9D"/><path d="m39.483 255.592-.162.802s-14.86 3.078-15.512 5.633l27.41 4.582 1.342-9.046c-4.428 1.175-8.738.678-13.078-1.965v-.006Z" fill="#15A9F3"/><path d="M49.239 259.969c.503.23.757.883.534 1.386-.224.51-.9.777-1.404.554-.51-.224-.838-.995-.559-1.474.28-.479 1.087-.758 1.528-.423M51.22 266.603l.322-2.176-26.392-3.594s-1.323.317-1.341 1.188l27.41 4.582Z" fill="#fff" opacity=".6"/><path d="M39.215 256.456c-.018.131.64.305 1.217.84.59.516.82 1.144.957 1.112.13 0 .08-.826-.634-1.461-.708-.64-1.546-.615-1.54-.491ZM36.116 257.146c-.056.125.485.442.833 1.076.366.622.366 1.243.503 1.262.124.043.36-.715-.087-1.492-.441-.783-1.218-.97-1.242-.846h-.007ZM33.837 260.261c.118.05.429-.578.224-1.355-.199-.784-.776-1.169-.857-1.07-.093.094.236.554.397 1.194.174.64.106 1.2.236 1.237v-.006Z" fill="#022749"/><path d="m59.772 231.575 1.993 24.483 11.221-1.629.758-24.047-13.972 1.193Z" fill="#FFBE9D"/><path d="M73.03 249.593s-7.533 6.086-11.731 1.616l-.832 2.381-3.298 16.762c-.211 1.088.385 2.219 1.466 2.542a2.23 2.23 0 0 0 2.279-.603c3.043-3.27 14.17-15.368 13.941-16.879l-.348-4.029a2.074 2.074 0 0 0-1.478-1.79Z" fill="#15A9F3"/><path d="m59.026 272.975 15.724-18.968.062.883c.155.951-.242 1.355-.664 2.001-1.242 1.915-4.757 6.255-13.178 15.394-.49.535-1.223.79-1.944.69ZM72.06 251.57c-.508.398-.627 1.2-.241 1.709.385.51 1.217.634 1.732.243.516-.392.69-1.343.248-1.809-.44-.467-1.428-.56-1.831-.056" fill="#fff" opacity=".6"/><path d="M63.268 263.544c-.118.068-.677-.989-1.981-1.486-1.292-.535-2.453-.162-2.49-.286-.025-.05.236-.23.732-.336.49-.105 1.217-.087 1.938.193.72.286 1.248.765 1.521 1.175.28.41.336.715.28.734v.006ZM61.945 266.435c-.093.099-.826-.529-1.95-.759-1.118-.255-2.056.013-2.1-.118-.067-.099.926-.615 2.205-.329 1.28.267 1.957 1.144 1.851 1.206h-.006ZM65.844 259.776c-.093.106-1.21-.864-2.931-1.374-1.708-.534-3.198-.36-3.217-.497-.043-.106 1.522-.51 3.354.062 1.838.547 2.887 1.747 2.788 1.809h.006ZM65.85 254.747c-.049.13-1.26-.268-2.794-.218-1.54.031-2.726.497-2.782.373-.068-.099 1.118-.79 2.77-.833 1.652-.056 2.869.572 2.807.671v.007Z" fill="#022749"/><path d="M62.18 254.554s-.043-.286.063-.79a5.46 5.46 0 0 1 .875-1.983c.273-.361.572-.833 1.193-1.038.31-.106.745 0 .962.298.218.292.261.641.23.97-.174 1.312-1.478 2.462-3.018 2.487-1.54 0-2.826-.995-3.291-2.195-.1-.311-.15-.677.055-1.013.205-.336.652-.429.95-.348.622.161.976.559 1.317.858a6.017 6.017 0 0 1 1.26 1.765c.218.467.268.74.243.753-.08.043-.416-1.076-1.739-2.282-.335-.28-.72-.634-1.167-.721-.218-.044-.423.018-.516.186-.1.162-.087.423 0 .665.404.983 1.578 1.89 2.875 1.872 1.298-.013 2.441-1.02 2.596-2.077.031-.255-.006-.516-.13-.684a.482.482 0 0 0-.528-.167c-.435.118-.758.522-1.03.864-1.075 1.423-1.119 2.617-1.212 2.586l.013-.006ZM107.656 179.998s6.049 21.53-10.439 25.266l-26.293.262-15.879 42.431-15.83-1.106 5.782-47.673a14.041 14.041 0 0 1 10.942-12.123l34.056-7.455 17.661.398ZM58.236 85.168C46.252 83.11 45.135 93.96 45.215 97.074c.08 3.115 1.143 5.875 2.236 8.791 1.093 2.916.397 6.895-.522 9.867-1.08 3.481-4.514 6.677-3.285 10.109.963 2.698 4.52 4.016 4.956 6.851.347 2.238-1.46 4.19-2.124 6.354-1.255 4.085 1.62 8.182 4.322 11.489 1.118 1.368 2.465 2.854 4.229 2.879 2.434.031 3.881-2.605 4.98-4.781a41.557 41.557 0 0 1 13.091-15.151M31.298 151.536l-7.06-7.156a.518.518 0 0 0-.491-.137l-8.191 2.114a.513.513 0 0 0-.242.852l13.55 14.125s10.134-2.766 9.836-2.897c-.298-.13-7.396-6.913-7.396-6.913l-.006.012Z" fill="#022749"/><path d="m21.616 155.341.156-.385c.167-.423.59-.697 1.043-.672 1.652.087 5.403.305 5.403.435 0 .174.347 1.126-.832 1.436-1.18.305-3.317.025-3.317.025l1.752 1.996.565-.752a.797.797 0 0 1 .664-.23l3.105.366s.273 1.213-.646 1.406c-.919.192-2.068.093-2.068.093l-.36 2.282 3.273 2.524-1.199 1.834-4.328-2.195-.696-2.219a1.067 1.067 0 0 1 .05-.771l.236-.498-.826-.578a1.072 1.072 0 0 1-.44-1.051l.105-.621-1.372-1.256a1.056 1.056 0 0 1-.268-1.175v.006Z" fill="#FFBE9D"/><path d="m35.943 161.807-2.149-1.834-6.353-.914-.354 2.282-2.254 2.169 8.57 4.34 2.54-6.043Z" fill="#FFBE9D"/><path d="M32.857 152.033c.453.032.9-.118 1.248-.41l.354-.292a2.383 2.383 0 0 1 2.415-.883l4.881 1.896 5.267 4.272-2.621 6.608-9.06-2.356a3.693 3.693 0 0 1-2.28-1.759l-.869-1.542s-3.08-1.2-2.825-2.922l-6.75-1.405s-.435-.933.595-1.368c.858-.361 7.459.025 9.645.161Z" fill="#FFBE9D"/><path d="M34.298 155.664c-.019.087-2.652-.385-5.875-1.057-3.23-.671-5.831-1.287-5.813-1.374.02-.087 2.652.386 5.875 1.057 3.23.672 5.831 1.287 5.813 1.374ZM34.62 158.792c-.056.074-.584-.224-1.248-.554-.658-.336-1.217-.584-1.186-.671.025-.081.646.037 1.335.379.69.342 1.155.771 1.1.839v.007ZM28.404 162.945c-.043.043-.683-.585-1.59-1.542l-.05-.05.013-.075c.106-.584.193-1.218.366-1.971.05-.155.168-.335.342-.416.168-.081.323-.087.453-.1l.789-.055c.248-.013.49-.044.727-.013a.672.672 0 0 0 .496-.112c.236-.205.249-.547.236-.733-.012-.206-.068-.299-.05-.318.013-.018.125.075.175.299.037.205.111.584-.212.926a.895.895 0 0 1-.664.205c-.211-.018-.441.025-.69.044-.254.025-.509.05-.776.068-.292.031-.46.069-.534.311-.149.653-.267 1.356-.39 1.915l-.038-.124c.863.994 1.422 1.691 1.378 1.734l.02.007Z" fill="#EB996E"/><path d="M23.604 155.335c.54.814 4.03.932 4.36.87.347-.068.62.019.819.143.31.199.255.672-.087.815l-3.173 1.336-1.925-3.17.006.006Z" fill="#FFBE9D"/><path d="M28.075 157.312c0 .037-.174.037-.46.043-.142 0-.316 0-.509.019a2.703 2.703 0 0 0-.298.037c-.05.013-.1.025-.136.044-.019.006-.038.018-.05.025-.006 0-.012.043.012-.044l-.024.075c-.193.311-.417.659-.671 1.019-.913 1.3-1.807 2.232-1.87 2.17-.068-.062.709-1.069 1.609-2.356l.69-.995-.025.075c.03-.149.08-.143.117-.181.038-.024.075-.037.112-.056a.803.803 0 0 1 .193-.043c.118-.019.23-.019.335-.019.205 0 .385.025.528.05.292.044.453.1.447.131v.006ZM28.342 156.18c0 .087-1.26.15-2.8.131-.392-.013-.74-.013-1.025.106-.286.099-.478.304-.621.503-.273.404-.398.703-.447.678-.031-.013.006-.33.254-.802.125-.23.348-.51.702-.653.342-.155.752-.168 1.13-.155 1.559.018 2.813.105 2.807.192Z" fill="#EB996E"/><path d="M72.153 170.859c1.323.143 3.285-.386 4.161-1.386.876-1.001 1.863-2.04 2.44-3.24 1.212-2.53 3.372-5.856 4.465-7.933.069.603-1.75 6.615-1.912 9.525-.093 1.598.012 3.32 1 4.576.677.864 1.701 1.399 2.44 2.213 1.435 1.567 1.584 4.159.335 5.875-.64.883-1.788 1.555-2.806 1.169-.553-.211-.963-.696-1.236-1.225-.267-.528-.416-1.106-.609-1.672a11.256 11.256 0 0 0-4.62-5.826c-1.074-.671-2.298-1.641-3.453-2.176" fill="#022749" opacity=".3"/><path d="m32.962 168.944 13.507 4.52a13.673 13.673 0 0 0 13.817-3.028l4.775-4.526-14.115-3.817-7.564.858-6.986-2.245-3.428 8.238h-.006Z" fill="#15A9F3"/><path d="M46.766 166.557s.224.335.59.864c.373.528.925 1.231 1.627 1.927s1.41 1.244 1.944 1.604c.534.367.882.566.87.585 0 .006-.094-.038-.255-.119a7.993 7.993 0 0 1-.665-.391 12.168 12.168 0 0 1-3.59-3.563 8.677 8.677 0 0 1-.397-.659c-.087-.161-.13-.248-.124-.255v.007Z" fill="#FAFAFA"/><path d="M49.685 167.781c.044 0-.111.715.118 1.555.224.839.715 1.38.677 1.405-.012.031-.57-.491-.8-1.368-.243-.877-.02-1.604 0-1.592h.005ZM48.3 166.774c.038 0 .056.616.236 1.343.18.728.453 1.281.416 1.3-.025.018-.36-.516-.54-1.269-.186-.746-.143-1.374-.112-1.374ZM47.623 169.522c0-.031.522 0 1.13.187.609.186 1.062.447 1.044.478-.019.032-.485-.174-1.08-.354-.597-.186-1.1-.273-1.094-.311ZM46.332 167.937c.006-.031.652.118 1.354.522.708.398 1.167.877 1.143.902-.025.031-.516-.398-1.205-.784-.69-.391-1.304-.597-1.292-.634v-.006Z" fill="#FAFAFA"/><path d="M47.866 169.541a1.047 1.047 0 0 0-.578-.33c-.074-.012-.173-.012-.21.056-.032.056 0 .131.055.168.05.037.118.05.18.056-.093.037-.18.087-.267.149-.037.031-.074.075-.056.118.019.038.075.038.118.032.1-.019.205-.038.305-.063-.025.05-.087.069-.13.1-.05.031-.082.099-.044.143.03.031.087.012.124-.013.18-.099.335-.236.46-.397M48.263 166.936c-.037.012-.037.075 0 .099.031.025.075.019.112-.006a.264.264 0 0 0 .069-.093c.105-.199.192-.404.21-.628 0-.05 0-.106-.037-.131-.043-.031-.105 0-.142.025a.553.553 0 0 0-.224.435.813.813 0 0 0-.019-.422c-.018-.05-.056-.112-.105-.1-.05.006-.069.062-.075.112a1.14 1.14 0 0 0 .013.435.494.494 0 0 0-.255-.342c-.037-.018-.08-.031-.118-.006-.031.019-.043.062-.031.1a.182.182 0 0 0 .056.093c.161.211.36.392.584.535M46.779 166.55c-.031.038 0 .1.043.106.05.013.1-.019.118-.062.025-.044.025-.087.031-.137.013-.267 0-.541-.093-.796-.018-.056-.056-.118-.111-.124-.069-.012-.119.044-.15.1a.658.658 0 0 0-.018.59.982.982 0 0 0-.242-.454c-.044-.049-.118-.093-.174-.056-.05.031-.044.106-.025.162.05.168.136.33.248.473a.606.606 0 0 0-.472-.249c-.05 0-.111.006-.136.05-.025.037-.013.087.012.124.031.037.068.056.112.081.298.149.615.248.944.298M38.762 162.777s-.111.385-.267 1.013c-.155.628-.329 1.505-.397 2.493-.068.982-.019 1.878.056 2.524.068.641.149 1.039.124 1.045-.006 0-.037-.093-.08-.274a9.034 9.034 0 0 1-.144-.758c-.093-.647-.161-1.548-.093-2.543.069-.995.255-1.878.435-2.506a9.28 9.28 0 0 1 .242-.733c.069-.168.106-.261.112-.261h.012Z" fill="#FAFAFA"/><path d="M39.75 165.792c.025.031-.615.379-1.1 1.107-.49.715-.577 1.442-.614 1.43-.031.006 0-.753.509-1.505.503-.758 1.198-1.063 1.205-1.032ZM39.606 164.082s-.428.442-.857 1.057c-.434.616-.67 1.181-.708 1.163-.03-.006.156-.61.603-1.237.44-.628.944-1.008.962-.983ZM37.086 165.363s.341.398.596.982c.26.585.354 1.094.323 1.101-.038.012-.187-.479-.441-1.051-.255-.572-.51-1.013-.478-1.032ZM37.44 163.355s.335.572.496 1.368c.162.795.1 1.454.069 1.454-.038 0-.038-.646-.193-1.43-.155-.777-.404-1.373-.366-1.392h-.006Z" fill="#FAFAFA"/><path d="M37.228 165.562a1.038 1.038 0 0 0-.13-.653c-.037-.068-.106-.137-.18-.124-.062.012-.1.087-.093.149 0 .062.043.118.074.174a1.193 1.193 0 0 0-.285-.099c-.044-.013-.106-.007-.125.031-.018.043.019.081.056.112.08.068.162.13.249.192-.056.013-.106-.018-.162-.037-.056-.019-.13 0-.13.062 0 .044.05.075.093.087.192.069.397.1.602.087M39.457 164.163c-.037-.019-.08.019-.074.062 0 .038.037.069.074.081.038.013.075 0 .118-.006.218-.05.435-.118.615-.249.038-.031.08-.068.075-.118 0-.05-.062-.081-.118-.093a.538.538 0 0 0-.472.118.838.838 0 0 0 .304-.286c.025-.044.05-.112.006-.143-.037-.031-.093-.012-.136.012a.967.967 0 0 0-.317.299c.093-.112.13-.274.093-.417-.012-.037-.03-.081-.068-.093-.038-.012-.075.012-.093.037-.025.031-.031.069-.038.1-.05.261-.062.528-.025.789M38.78 162.783c-.049 0-.074.062-.049.106.025.043.08.062.124.049a.272.272 0 0 0 .125-.068 1.96 1.96 0 0 0 .54-.591c.03-.049.056-.118.018-.168-.037-.056-.111-.062-.173-.049a.634.634 0 0 0-.46.373.95.95 0 0 0 .186-.479c.006-.068-.006-.149-.068-.168-.056-.018-.106.037-.137.087-.099.149-.161.317-.192.498a.618.618 0 0 0-.118-.523c-.031-.037-.075-.081-.124-.074-.044 0-.075.049-.087.093a.344.344 0 0 0 .012.137c.08.323.211.628.391.907" fill="#FAFAFA"/><path d="M97.98 160.992c-2.278-2.704-3.52-6.173-3.284-9.711.012-.217.037-.441.056-.671.869-8.051 2.434-21.176-.659-27.698-2.03-4.283-14.674-6.291-14.674-6.291l-14.624 3.015-6.713 5.894a6.104 6.104 0 0 0-2 3.618l-6.142 38.36 12.445-.889.963-11.135 1.385 14.71s11.817 9.201 15.649 10.905c3.831 1.703 10.532-3.047 15.699-.939 5.166 2.107 11.873 0 11.873 0 .28-6.118-6.322-14.841-9.973-19.174v.006Z" fill="#15A9F3"/><path d="m86.678 121.103-18.804 34.126-20.313.354-3.453 8.68 26.262 6.043c3.006.516 5.304.136 7.229-2.232l17.282-32.267s1.379-14.331-8.197-14.71l-.006.006Z" fill="#15A9F3"/><path d="M35.458 162.945s3.329.882 5.421 1.429a1.867 1.867 0 0 1 1.36 2.139 1.866 1.866 0 0 0 1.584 2.182c4.62.641 15.972 2.183 16.19 1.99.266-.243 2.222-2.251 2.222-2.251l-18.127-4.171.292-1.045-8.166-2.126-.77 1.853h-.006Z" fill="#022749" opacity=".3"/><path d="M63.919 155.297s-.106-.18-.255-.54l-.62-1.555.03.044a8.728 8.728 0 0 1-2.316-2.891c-.683-1.318-1.006-3.009-.994-4.762 0-1.505.143-2.923.187-4.209.05-1.287-.019-2.444-.205-3.389-.354-1.921-1.168-2.891-1.1-2.916.007-.006.063.05.15.162.093.112.21.292.354.522.28.473.608 1.219.82 2.182.217.964.31 2.145.273 3.445-.025 1.299-.162 2.717-.162 4.196-.006 1.729.292 3.351.932 4.638a9.025 9.025 0 0 0 2.186 2.873l.018.018v.025c.224.634.404 1.163.547 1.585.118.374.173.572.155.579v-.007ZM93.118 161.589s.062.236.093.678a10.98 10.98 0 0 1-.044 1.865 13.017 13.017 0 0 1-2.05 5.763c-1.334 2.027-3.104 3.407-4.483 4.16-.689.379-1.279.627-1.695.77-.416.143-.652.199-.658.181-.025-.056.906-.355 2.235-1.15 1.323-.79 3.03-2.164 4.329-4.141a13.727 13.727 0 0 0 2.093-5.614c.21-1.536.117-2.512.173-2.512h.007Z" fill="#022749"/><path d="M85.418 132.854s-.063.118-.187.317c-.13.199-.304.491-.515.851A18.058 18.058 0 0 0 83.343 137a18.055 18.055 0 0 0-.807 3.177 17.88 17.88 0 0 0-.137.989c-.024.236-.043.361-.055.361-.007 0-.007-.131 0-.367.012-.237.043-.578.099-.995.112-.839.348-1.989.776-3.208a16.195 16.195 0 0 1 1.416-2.978c.224-.361.41-.647.553-.833.136-.193.217-.292.23-.286v-.006Z" fill="#FAFAFA"/><path d="M85.591 136.963c.02.044-.912.243-1.77.982-.869.728-1.223 1.611-1.26 1.592-.012 0 .056-.23.236-.559a4.233 4.233 0 0 1 2.204-1.872c.355-.13.59-.155.59-.143ZM86.014 134.781c.018.037-.702.385-1.453 1.007-.758.616-1.249 1.25-1.28 1.225-.012-.013.093-.18.298-.429s.516-.578.9-.889c.386-.311.77-.553 1.056-.703.286-.149.479-.217.485-.205l-.006-.006ZM82.412 135.502s.267.622.385 1.436c.118.821.069 1.492.038 1.492-.038 0-.05-.665-.168-1.473-.112-.808-.292-1.449-.255-1.455ZM83.56 133.109s.063.205.106.547c.038.342.056.814.019 1.336-.037.523-.13.989-.217 1.318-.087.33-.168.529-.187.523-.037-.013.199-.821.273-1.853.081-1.032-.03-1.865.007-1.871Z" fill="#FAFAFA"/><path d="M82.517 135.794c.118-.267.137-.578.069-.864-.025-.099-.08-.211-.18-.217-.081 0-.15.074-.168.155a.541.541 0 0 0 .031.242 1.732 1.732 0 0 0-.323-.23c-.056-.031-.13-.049-.168 0-.037.044 0 .112.032.156.08.112.161.217.242.323-.075 0-.13-.062-.193-.099-.062-.038-.167-.044-.186.031-.019.056.031.105.08.143.218.155.466.261.721.317M85.803 134.831c-.037-.031-.105 0-.118.049-.012.05.025.1.068.125.044.025.1.031.15.031.285.019.583 0 .856-.093.056-.019.125-.056.137-.119.012-.068-.05-.124-.112-.155a.71.71 0 0 0-.633-.019c.18-.037.348-.124.484-.248.05-.05.1-.125.062-.181-.037-.049-.112-.043-.174-.031-.18.05-.354.137-.503.255a.637.637 0 0 0 .261-.485c0-.056-.012-.112-.056-.143-.037-.025-.093-.012-.13.019a.343.343 0 0 0-.08.112c-.156.304-.262.64-.305.976M85.43 132.866c-.056-.019-.118.05-.1.112.013.062.08.099.137.106.062 0 .118-.019.18-.038.323-.13.64-.298.888-.547.056-.056.106-.13.087-.205-.025-.081-.118-.118-.205-.124a.842.842 0 0 0-.702.304c.174-.136.317-.323.398-.534.03-.081.043-.193-.025-.237-.062-.043-.15.007-.205.056a1.734 1.734 0 0 0-.416.554.772.772 0 0 0 .03-.69c-.024-.062-.067-.125-.13-.137-.055-.006-.111.031-.136.087a.412.412 0 0 0-.031.174c-.013.429.05.864.174 1.275M68.13 143.473s-.063.118-.187.317c-.13.199-.304.491-.515.851a18.05 18.05 0 0 0-1.373 2.978 18.051 18.051 0 0 0-.807 3.177 17.88 17.88 0 0 0-.137.989c-.025.236-.043.36-.056.36-.006 0-.006-.13 0-.366.013-.237.044-.579.1-.995.112-.839.348-1.99.776-3.208a16.195 16.195 0 0 1 1.416-2.978c.224-.361.41-.647.553-.833.136-.193.217-.292.23-.286v-.006Z" fill="#FAFAFA"/><path d="M68.303 147.576c.019.043-.912.242-1.77.982-.869.727-1.223 1.61-1.26 1.592-.013 0 .056-.23.236-.56.18-.329.497-.752.938-1.131.44-.373.912-.616 1.266-.74.354-.131.59-.156.59-.143ZM68.726 145.394c.018.037-.702.385-1.454 1.007-.757.615-1.248 1.249-1.279 1.225-.012-.013.093-.181.298-.429a6.665 6.665 0 0 1 1.956-1.592c.286-.149.479-.218.485-.205l-.006-.006ZM65.123 146.115s.267.621.385 1.436c.118.821.069 1.492.037 1.492-.037 0-.05-.665-.167-1.473-.112-.809-.292-1.449-.255-1.455ZM66.273 143.721s.062.205.105.547c.037.342.056.815.019 1.337-.037.522-.13.989-.218 1.318-.086.33-.167.528-.186.522-.037-.012.199-.82.273-1.852.081-1.033-.03-1.866.007-1.872Z" fill="#FAFAFA"/><path d="M65.235 146.407c.118-.267.137-.578.069-.864-.025-.1-.081-.212-.18-.212-.081 0-.15.075-.168.156a.543.543 0 0 0 .03.242 1.69 1.69 0 0 0-.322-.23c-.056-.031-.13-.049-.168 0-.037.044 0 .112.031.156.081.112.162.217.242.323-.074 0-.13-.062-.192-.099-.062-.038-.168-.044-.186.031-.019.056.03.105.08.143.218.155.466.261.72.317M68.514 145.443c-.037-.031-.106 0-.118.05-.012.05.025.1.068.124.044.025.1.031.15.031.285.019.583 0 .856-.093.056-.018.124-.056.137-.118.012-.068-.05-.124-.112-.155a.71.71 0 0 0-.633-.019.985.985 0 0 0 .484-.255c.05-.05.1-.124.062-.18-.037-.05-.112-.044-.174-.031-.18.049-.354.137-.503.255a.639.639 0 0 0 .261-.485c0-.05-.012-.112-.056-.143-.037-.025-.093-.013-.13.012a.345.345 0 0 0-.08.112c-.156.305-.262.64-.305.976M68.141 143.485c-.055-.019-.118.05-.099.112.013.062.08.099.137.106.062 0 .118-.019.18-.038.323-.13.64-.298.888-.547.056-.056.105-.13.087-.205-.025-.081-.118-.118-.205-.124a.842.842 0 0 0-.702.304c.174-.137.317-.323.398-.534.03-.081.043-.193-.025-.237-.062-.043-.15.007-.205.056a1.734 1.734 0 0 0-.416.554.771.771 0 0 0 .03-.69c-.024-.063-.068-.125-.13-.137-.055-.006-.111.031-.136.087a.396.396 0 0 0-.031.174c-.013.429.05.864.174 1.274M68.96 162.093s.13-.025.367-.038c.236-.012.571-.043.987-.093a18.277 18.277 0 0 0 3.204-.671 18.864 18.864 0 0 0 3.03-1.244c.373-.192.672-.36.876-.478.205-.118.317-.181.323-.174.007.006-.099.08-.298.217-.192.131-.484.311-.857.516a16.113 16.113 0 0 1-6.272 1.927c-.422.038-.763.056-1 .056-.235 0-.366 0-.366-.012l.006-.006Z" fill="#FAFAFA"/><path d="M72.146 159.5c.025-.037.74.585 1.844.833 1.106.268 2.025.019 2.025.063 0 .012-.217.093-.59.143a4.258 4.258 0 0 1-2.813-.653c-.317-.212-.478-.38-.466-.386ZM70.147 160.464c.018-.037.726.329 1.676.572.944.242 1.745.261 1.745.298 0 .019-.198.031-.521.019a6.112 6.112 0 0 1-1.255-.193 6.56 6.56 0 0 1-1.192-.429c-.292-.143-.46-.255-.453-.267ZM72.867 162.926s.335-.585.925-1.169c.584-.584 1.156-.945 1.174-.92.025.031-.503.435-1.08 1.007-.578.572-.982 1.101-1.013 1.076l-.006.006ZM70.265 163.429s.124-.174.372-.404a7.199 7.199 0 0 1 1.062-.814c.441-.28.87-.485 1.186-.609.317-.125.522-.181.528-.162.013.037-.776.329-1.645.883-.876.547-1.478 1.138-1.503 1.106Z" fill="#FAFAFA"/><path d="M73.04 162.665c-.285.068-.546.23-.732.46-.062.074-.118.186-.062.273.043.069.149.075.223.044.075-.031.124-.106.174-.174a1.43 1.43 0 0 0 .013.398c.012.062.037.13.099.136.056 0 .087-.062.105-.118.044-.13.081-.261.118-.391.044.062.025.143.032.211 0 .075.068.155.136.137.056-.019.068-.093.062-.149 0-.268-.062-.529-.174-.771M70.309 160.607c0 .05.062.087.105.062.044-.019.069-.081.056-.131-.006-.049-.037-.093-.062-.136-.162-.243-.348-.473-.584-.628-.05-.038-.118-.069-.174-.038-.062.032-.068.112-.062.181a.712.712 0 0 0 .367.522.982.982 0 0 0-.491-.236c-.068-.013-.155-.006-.18.056-.019.056.031.118.08.155.15.118.324.199.51.249a.612.612 0 0 0-.547.081c-.043.031-.087.074-.08.13 0 .05.043.087.093.1.05.012.093 0 .143 0a2.97 2.97 0 0 0 .962-.342M68.96 162.068c.02.056.113.062.156.012.043-.049.037-.124 0-.174a.426.426 0 0 0-.137-.118c-.298-.18-.62-.336-.968-.385-.075-.013-.168-.013-.218.049-.05.069-.018.168.025.237a.849.849 0 0 0 .665.385 1.232 1.232 0 0 0-.671 0c-.08.025-.18.081-.174.162 0 .074.093.112.168.13.223.05.46.05.689 0a.793.793 0 0 0-.571.386c-.031.056-.056.13-.031.186.024.05.093.069.149.056a.36.36 0 0 0 .155-.081c.354-.248.664-.553.919-.901M88.1 175.659s.131.031.355.099c.224.075.546.174.95.286.807.23 1.944.479 3.217.591a19.034 19.034 0 0 0 4.26-.112c.236-.031.36-.044.366-.038 0 .007-.124.038-.354.087-.23.05-.571.106-.987.156-.838.099-2.012.155-3.298.043a16.306 16.306 0 0 1-3.235-.634 10.187 10.187 0 0 1-.944-.329 2.452 2.452 0 0 1-.335-.149h.006Z" fill="#FAFAFA"/><path d="M92.037 174.471c.038-.025.46.821 1.391 1.474.92.665 1.863.783 1.85.826 0 .013-.235 0-.602-.093a4.223 4.223 0 0 1-2.353-1.672c-.211-.311-.298-.529-.286-.535ZM89.814 174.602s.547.584 1.336 1.162c.782.585 1.515.902 1.502.939-.006.012-.198-.044-.49-.18a6.357 6.357 0 0 1-1.087-.653 6.324 6.324 0 0 1-.938-.852c-.217-.242-.329-.41-.316-.416h-.007ZM91.404 177.915s.534-.416 1.298-.727c.764-.317 1.428-.435 1.435-.404.006.037-.634.211-1.385.522-.751.311-1.33.647-1.348.609ZM88.809 177.393s.18-.112.503-.236a7.794 7.794 0 0 1 1.291-.348 6.915 6.915 0 0 1 1.33-.112c.34 0 .552.031.552.05 0 .043-.845.006-1.857.192-1.018.174-1.8.491-1.813.454h-.006Z" fill="#FAFAFA"/><path d="M91.665 177.741a1.353 1.353 0 0 0-.85.149c-.088.05-.18.131-.162.231.018.08.105.13.192.124.081 0 .156-.05.23-.093a1.34 1.34 0 0 0-.136.373c-.013.056-.013.136.043.161.05.025.106-.025.143-.068.087-.106.174-.211.254-.317.019.068-.03.143-.05.211-.018.069 0 .174.075.174.056 0 .093-.062.118-.112.1-.248.143-.516.13-.783M89.92 174.794c-.024.044.025.106.075.1.05 0 .093-.05.105-.1.013-.049 0-.099-.006-.149-.056-.286-.142-.566-.304-.808-.037-.05-.087-.106-.149-.1-.068 0-.106.081-.124.15a.72.72 0 0 0 .136.621 1.01 1.01 0 0 0-.366-.404c-.056-.037-.143-.068-.186-.012-.044.05-.019.118.012.174.093.162.224.311.373.423a.613.613 0 0 0-.534-.131c-.05.013-.106.037-.125.087-.012.044.013.093.05.124a.25.25 0 0 0 .13.05c.336.075.684.093 1.019.05M88.113 175.64c0 .062.08.099.136.068a.15.15 0 0 0 .069-.161.395.395 0 0 0-.08-.162c-.206-.28-.448-.547-.752-.721-.069-.037-.15-.075-.218-.031-.074.043-.08.143-.068.224a.829.829 0 0 0 .472.609 1.282 1.282 0 0 0-.621-.255c-.087-.013-.199 0-.224.087-.024.075.044.143.106.18.192.131.41.224.64.268a.779.779 0 0 0-.677.143c-.05.043-.106.099-.1.161 0 .056.063.1.118.112a.41.41 0 0 0 .174-.012 3.996 3.996 0 0 0 1.193-.485M79.779 147.197s.025.404.087 1.044a14.01 14.01 0 0 0 1.354 4.837c.279.584.484.926.465.939-.006 0-.068-.075-.161-.23-.1-.149-.23-.38-.385-.666a12.667 12.667 0 0 1-.938-2.362 12.201 12.201 0 0 1-.422-2.506 9.055 9.055 0 0 1-.019-.77c0-.181.013-.28.019-.28v-.006Z" fill="#FAFAFA"/><path d="M81.71 149.702c.037.025-.454.566-.665 1.411-.223.84-.062 1.555-.105 1.555-.025.018-.255-.709-.019-1.592.224-.883.776-1.405.789-1.38v.006ZM81.008 148.142c.038.018-.254.559-.459 1.287-.205.721-.242 1.336-.28 1.336-.03 0-.055-.628.156-1.368.205-.739.552-1.268.584-1.249v-.006ZM79.059 150.193s.453.261.888.728c.44.466.701.914.67.932-.03.019-.335-.385-.763-.845-.429-.454-.82-.784-.795-.815ZM78.723 148.179s.51.423.92 1.125c.415.696.577 1.337.546 1.349-.038.013-.249-.597-.659-1.28-.403-.684-.838-1.163-.813-1.188l.006-.006Z" fill="#FAFAFA"/><path d="M79.257 150.33a1.047 1.047 0 0 0-.342-.572c-.055-.05-.142-.093-.21-.056-.056.031-.063.112-.038.174.025.056.08.1.13.137a1.192 1.192 0 0 0-.304 0c-.043 0-.105.025-.105.075 0 .043.05.068.087.087.099.037.198.068.298.099-.05.031-.106.019-.168.019-.056 0-.124.049-.106.099.013.044.069.056.112.056.205 0 .41-.037.596-.118M80.89 148.266c-.037 0-.069.043-.05.081.013.037.062.049.1.049.037 0 .074-.024.105-.043.186-.118.367-.255.497-.441.025-.038.056-.094.03-.137-.024-.05-.086-.056-.136-.05a.567.567 0 0 0-.41.267.855.855 0 0 0 .193-.373c.012-.049.006-.118-.043-.143-.044-.018-.094.019-.125.056a1.102 1.102 0 0 0-.205.386.486.486 0 0 0-.05-.423c-.024-.031-.055-.068-.099-.062-.037 0-.068.031-.074.068a.34.34 0 0 0 0 .112c.037.261.118.516.242.752M79.791 147.197c-.043.012-.05.087-.012.118a.112.112 0 0 0 .136 0 .255.255 0 0 0 .093-.106c.143-.224.274-.473.317-.74.013-.056.013-.13-.037-.168-.05-.043-.124-.018-.18.013a.665.665 0 0 0-.31.503.97.97 0 0 0 .012-.516c-.019-.062-.056-.143-.124-.136-.063 0-.087.068-.106.124-.043.174-.05.354-.019.535a.61.61 0 0 0-.285-.448c-.044-.025-.1-.05-.143-.025-.037.019-.056.068-.05.118a.315.315 0 0 0 .056.124c.18.274.41.523.677.728M73.234 147.874s-.261.311-.665.815a14.04 14.04 0 0 0-2.372 4.426c-.199.616-.292 1.007-.317 1.001-.006 0 .007-.099.044-.28.031-.18.093-.435.186-.746a12.141 12.141 0 0 1 2.39-4.457 7.65 7.65 0 0 1 .523-.566c.13-.131.205-.193.21-.187v-.006Z" fill="#FAFAFA"/><path d="M72.886 151.02c.007.044-.72.093-1.453.553-.745.448-1.117 1.076-1.155 1.051-.03 0 .31-.69 1.087-1.163.77-.478 1.534-.472 1.522-.447v.006ZM73.463 149.41c.013.037-.571.224-1.217.609-.646.379-1.099.796-1.124.771-.025-.019.398-.491 1.062-.883.665-.391 1.28-.528 1.285-.497h-.006ZM70.638 149.534c.03-.006.149.504.143 1.138 0 .64-.13 1.144-.162 1.138-.037-.007.025-.51.031-1.138.006-.628-.05-1.132-.012-1.138ZM71.793 147.849c.031 0 .075.659-.112 1.449-.18.79-.509 1.368-.54 1.349-.037-.019.236-.609.41-1.38.18-.771.199-1.424.242-1.418Z" fill="#FAFAFA"/><path d="M73.296 149.422s-.08-.012-.093.025c-.012.037.006.081.037.106.031.025.069.031.106.043.217.044.44.069.664.025.05-.006.1-.031.118-.074.019-.05-.024-.1-.068-.131a.55.55 0 0 0-.478-.087.76.76 0 0 0 .397-.137c.044-.031.087-.081.069-.13-.019-.044-.081-.05-.13-.044a1.066 1.066 0 0 0-.41.137.469.469 0 0 0 .254-.342c.006-.037 0-.087-.025-.112-.025-.025-.068-.019-.105 0a.236.236 0 0 0-.075.081 2.279 2.279 0 0 0-.348.709M73.247 147.887c-.044-.025-.093.025-.093.074 0 .05.05.087.093.1.043.012.093 0 .136-.013.261-.062.522-.149.74-.317.049-.037.099-.087.086-.143-.006-.068-.08-.099-.143-.118a.644.644 0 0 0-.57.149.973.973 0 0 0 .366-.36c.03-.056.055-.143.006-.187-.044-.037-.112-.012-.162.019-.149.093-.28.224-.379.373a.602.602 0 0 0 .106-.522c-.012-.05-.037-.106-.087-.118-.043-.013-.087.012-.112.049a.299.299 0 0 0-.043.131 3.103 3.103 0 0 0-.019.988M81.058 120.196s-.26.31-.664.814a14.057 14.057 0 0 0-2.373 4.427c-.198.615-.291 1.007-.316 1.001-.007 0 .006-.1.043-.28.031-.18.093-.435.186-.746a12.169 12.169 0 0 1 2.39-4.458c.212-.249.392-.441.523-.566.13-.13.205-.192.211-.186v-.006Z" fill="#FAFAFA"/><path d="M80.71 123.348c.007.043-.72.093-1.452.553-.746.448-1.118 1.076-1.155 1.051-.031 0 .31-.69 1.086-1.163.77-.479 1.534-.472 1.522-.448v.007ZM81.287 121.731c.013.038-.57.224-1.217.61-.645.379-1.099.795-1.124.77-.025-.018.398-.491 1.062-.882.665-.392 1.28-.529 1.286-.498h-.007ZM78.462 121.862c.031-.006.15.503.143 1.138 0 .64-.13 1.143-.162 1.137-.037-.006.025-.51.032-1.137.006-.628-.05-1.132-.013-1.138ZM79.617 120.171c.031 0 .075.659-.111 1.448-.18.79-.51 1.368-.54 1.349-.038-.018.235-.609.41-1.38.18-.771.198-1.423.241-1.417Z" fill="#FAFAFA"/><path d="M81.12 121.744s-.08-.013-.093.025c-.012.037.007.08.038.105.03.025.068.031.105.044.218.043.441.068.665.025.05-.013.099-.031.118-.075.018-.05-.025-.099-.069-.131a.553.553 0 0 0-.478-.087.768.768 0 0 0 .398-.136c.043-.031.087-.081.068-.131-.019-.043-.08-.05-.13-.043a1.065 1.065 0 0 0-.41.136.467.467 0 0 0 .254-.342c.006-.037 0-.087-.025-.112-.025-.024-.068-.018-.105 0a.237.237 0 0 0-.075.081 2.294 2.294 0 0 0-.347.709M81.07 120.208c-.042-.019-.092.025-.092.075 0 .049.05.087.093.099.043.013.093 0 .136-.012.261-.062.522-.15.74-.317.05-.038.099-.087.087-.143-.007-.069-.081-.1-.143-.119a.645.645 0 0 0-.572.15.975.975 0 0 0 .367-.361c.03-.056.056-.143.006-.186-.043-.038-.112-.013-.161.018-.15.094-.28.224-.38.373a.602.602 0 0 0 .106-.522c-.012-.05-.037-.106-.087-.118-.043-.013-.087.012-.112.05a.292.292 0 0 0-.043.13 3.105 3.105 0 0 0-.019.989M56.92 158.549s.025.404.087 1.044a14.01 14.01 0 0 0 1.354 4.837c.28.585.485.927.466.939a1.11 1.11 0 0 1-.162-.23c-.099-.149-.23-.379-.385-.665a12.645 12.645 0 0 1-.937-2.363 12.187 12.187 0 0 1-.423-2.505c-.018-.323-.025-.591-.018-.771 0-.18.012-.28.018-.28v-.006Z" fill="#FAFAFA"/><path d="M58.851 161.061c.038.025-.453.565-.664 1.411-.224.839-.062 1.554-.106 1.554-.025.019-.254-.708-.018-1.591.223-.883.776-1.405.788-1.381v.007ZM58.15 159.494c.037.019-.255.56-.46 1.287-.204.721-.242 1.337-.279 1.337-.03 0-.056-.628.155-1.368.205-.74.553-1.268.584-1.25v-.006ZM56.2 161.546s.454.261.888.727c.441.466.702.914.671.933-.031.018-.335-.386-.764-.846-.428-.454-.82-.783-.795-.814ZM55.865 159.531s.509.423.919 1.126c.416.696.577 1.336.546 1.349-.037.012-.248-.597-.658-1.281-.404-.684-.838-1.163-.814-1.187l.007-.007Z" fill="#FAFAFA"/><path d="M56.399 161.689a1.047 1.047 0 0 0-.342-.572c-.056-.05-.143-.094-.211-.056-.056.031-.062.112-.037.174.025.056.08.099.13.137a1.192 1.192 0 0 0-.304 0c-.044 0-.106.024-.106.074 0 .044.05.069.087.087.1.038.199.069.298.1-.05.031-.105.018-.167.018-.056 0-.125.05-.106.1.013.043.068.05.112.056.205 0 .41-.038.596-.118M58.038 159.618c-.037 0-.068.044-.05.081.013.037.063.05.1.05.037 0 .075-.025.105-.044.187-.118.367-.254.497-.441.025-.037.056-.093.031-.137-.024-.05-.087-.056-.136-.05a.568.568 0 0 0-.41.268.858.858 0 0 0 .192-.373c.013-.05.007-.118-.043-.143-.043-.019-.093.018-.124.056a1.097 1.097 0 0 0-.205.385.486.486 0 0 0-.05-.423c-.025-.031-.056-.068-.1-.062-.036 0-.067.031-.074.069a.334.334 0 0 0 0 .112c.038.261.118.516.242.752M56.939 158.549c-.044.012-.05.087-.013.118.037.031.093.031.137 0a.255.255 0 0 0 .093-.106c.143-.223.273-.472.317-.739.012-.056.012-.131-.038-.168-.05-.044-.124-.019-.18.012a.669.669 0 0 0-.31.504.967.967 0 0 0 .012-.516c-.018-.062-.056-.143-.124-.137-.062 0-.087.068-.105.124-.044.174-.05.355-.02.535a.613.613 0 0 0-.285-.448c-.043-.025-.1-.049-.143-.025-.037.019-.056.069-.05.119a.285.285 0 0 0 .057.124c.18.274.41.522.676.727M87.044 161.732s.025.404.087 1.045a14.067 14.067 0 0 0 1.354 4.837c.28.584.484.926.466.938-.006 0-.069-.074-.162-.23-.099-.149-.23-.379-.385-.665a12.66 12.66 0 0 1-.937-2.362 12.213 12.213 0 0 1-.423-2.506 9.112 9.112 0 0 1-.018-.771c0-.18.012-.28.018-.28v-.006Z" fill="#FAFAFA"/><path d="M88.975 164.244c.038.025-.453.566-.664 1.411-.224.839-.062 1.554-.106 1.554-.025.019-.254-.708-.018-1.591.223-.883.776-1.405.788-1.38v.006ZM88.274 162.677c.037.019-.255.56-.46 1.287-.204.721-.242 1.337-.279 1.337-.03 0-.056-.628.155-1.368.205-.74.553-1.268.584-1.25v-.006ZM86.324 164.729s.454.261.888.727c.441.467.702.914.671.933-.031.018-.335-.386-.764-.846-.428-.454-.82-.783-.795-.814ZM85.989 162.714s.509.423.919 1.126c.416.696.577 1.336.546 1.349-.037.012-.248-.597-.658-1.281-.404-.684-.838-1.162-.814-1.187l.007-.007Z" fill="#FAFAFA"/><path d="M86.523 164.872a1.047 1.047 0 0 0-.342-.572c-.056-.05-.143-.093-.211-.056-.056.031-.062.112-.037.174.025.056.08.099.13.137a1.192 1.192 0 0 0-.304 0c-.044 0-.106.025-.106.074 0 .044.05.069.087.087.1.038.199.069.298.1-.043.031-.105.019-.167.019-.056 0-.124.049-.106.099.013.044.068.05.112.056.205 0 .41-.037.596-.118M88.162 162.802c-.037 0-.068.043-.05.08.013.038.063.05.1.05.037 0 .075-.025.106-.043.186-.119.366-.255.496-.442.025-.037.056-.093.031-.137-.024-.049-.087-.056-.136-.049a.564.564 0 0 0-.41.267.858.858 0 0 0 .192-.373c.013-.05.007-.118-.043-.143-.043-.019-.093.019-.124.056a1.096 1.096 0 0 0-.205.385.484.484 0 0 0-.05-.422c-.025-.031-.056-.069-.1-.063-.036 0-.067.032-.074.069a.34.34 0 0 0 0 .112c.038.261.118.516.243.752M87.063 161.732c-.043.013-.05.087-.012.118a.112.112 0 0 0 .136 0 .258.258 0 0 0 .094-.105c.142-.224.273-.473.316-.74.013-.056.013-.131-.037-.168-.05-.044-.124-.019-.18.012a.645.645 0 0 0-.304.504.967.967 0 0 0 .012-.516c-.018-.062-.056-.143-.124-.137-.062 0-.087.069-.106.124-.043.175-.05.355-.018.535a.61.61 0 0 0-.286-.447c-.043-.025-.1-.05-.143-.025-.037.018-.056.068-.05.118a.321.321 0 0 0 .056.124c.18.274.41.522.677.728M94.92 136.857s-.374.156-.957.429c-.59.268-1.379.684-2.186 1.25a14.364 14.364 0 0 0-1.931 1.623c-.46.46-.715.764-.733.752-.006 0 .05-.087.161-.23.112-.143.28-.342.503-.584a12.078 12.078 0 0 1 4.148-2.891c.299-.125.547-.218.72-.268.175-.056.274-.081.274-.074v-.007Z" fill="#FAFAFA"/><path d="M93.187 139.506c-.013.044-.683-.242-1.547-.162-.87.063-1.484.454-1.502.417-.025-.019.583-.473 1.49-.541.906-.081 1.583.267 1.559.292v-.006ZM94.429 138.331c-.006.037-.615-.056-1.36-.006-.752.043-1.341.211-1.354.174-.012-.031.571-.261 1.341-.305.77-.05 1.379.106 1.373.137ZM91.852 137.162c.03.006-.094.516-.392 1.082-.291.566-.633.964-.658.945-.03-.025.255-.448.54-1.001.292-.553.472-1.032.503-1.02l.007-.006ZM93.646 136.18s-.236.622-.758 1.243c-.521.622-1.074.989-1.086.964-.025-.031.484-.435.993-1.045.51-.609.82-1.175.857-1.156l-.006-.006Z" fill="#FAFAFA"/><path d="M91.79 137.392a1.04 1.04 0 0 0 .428-.51c.03-.074.043-.167-.02-.217-.049-.038-.123-.019-.173.025a.388.388 0 0 0-.087.168 1.108 1.108 0 0 0-.1-.286c-.018-.044-.061-.088-.105-.075-.043.012-.05.068-.05.112 0 .106 0 .211.007.311-.044-.031-.056-.1-.075-.15-.018-.049-.087-.099-.13-.068-.037.025-.025.081-.013.124.069.193.174.373.31.523M94.274 138.263c-.007-.038-.069-.05-.094-.025-.03.025-.03.074-.012.105.019.038.05.063.08.087.175.137.367.262.578.324.044.012.106.018.137-.013.037-.037.025-.099 0-.149a.55.55 0 0 0-.391-.298c.13.056.273.074.416.062.05-.006.118-.031.118-.087 0-.05-.05-.081-.093-.093a1.016 1.016 0 0 0-.429-.063.47.47 0 0 0 .379-.186c.025-.031.043-.075.03-.112-.011-.031-.055-.05-.092-.05s-.069.019-.106.037a2.376 2.376 0 0 0-.627.479M94.925 136.87c-.025-.037-.1-.019-.118.025-.019.043 0 .099.037.13.038.031.081.044.13.056.262.062.535.1.802.056.056-.012.124-.031.143-.087.025-.062-.025-.124-.075-.168a.645.645 0 0 0-.577-.124.935.935 0 0 0 .49-.155c.056-.038.112-.1.087-.162-.025-.056-.093-.062-.155-.056a1.364 1.364 0 0 0-.51.162.609.609 0 0 0 .33-.417c.012-.05.012-.112-.025-.143-.031-.031-.087-.031-.124-.006-.037.019-.069.056-.1.093-.198.261-.36.56-.46.877M56.144 146.985s-.063.398-.137 1.038a14.77 14.77 0 0 0-.087 2.518c.056.983.217 1.866.366 2.493.15.628.274 1.014.255 1.02-.006 0-.05-.087-.112-.261a10.155 10.155 0 0 1-.23-.734 12.646 12.646 0 0 1-.41-2.511c-.055-.995.02-1.897.125-2.543.05-.323.105-.578.149-.759.043-.174.074-.273.08-.273v.012Z" fill="#FAFAFA"/><path d="M57.49 149.851s-.564.454-.95 1.237c-.397.771-.39 1.505-.434 1.499-.031.012-.093-.746.317-1.554.403-.815 1.055-1.207 1.068-1.176v-.006ZM57.137 148.173s-.373.491-.72 1.156c-.355.659-.522 1.256-.56 1.243-.03 0 .081-.627.448-1.305.36-.684.813-1.119.838-1.094h-.006ZM54.796 149.758s.385.348.714.901c.33.548.49 1.045.46 1.057-.038.013-.243-.453-.566-.988-.322-.535-.633-.939-.602-.964l-.006-.006ZM54.901 147.719s.404.522.659 1.293c.26.771.28 1.43.248 1.436-.037 0-.118-.64-.366-1.393-.249-.752-.572-1.318-.534-1.336H54.9Z" fill="#FAFAFA"/><path d="M54.957 149.938c0-.224-.074-.454-.205-.634-.043-.062-.118-.124-.192-.099-.062.018-.087.099-.075.161.013.063.056.112.093.162a.983.983 0 0 0-.298-.062c-.043 0-.105 0-.118.05-.012.043.031.08.069.099.087.056.18.106.267.155-.05.019-.112 0-.168-.012-.056-.006-.13.019-.124.075 0 .043.056.068.1.074.198.044.409.05.608.013M57 148.272c-.037-.012-.074.031-.068.069.007.037.05.062.087.068a.337.337 0 0 0 .112-.019c.211-.074.416-.174.578-.323.037-.031.074-.075.062-.124-.013-.05-.075-.075-.124-.081a.54.54 0 0 0-.454.174.755.755 0 0 0 .267-.323c.025-.05.031-.119-.012-.143-.038-.025-.093 0-.13.031a1.123 1.123 0 0 0-.28.335.462.462 0 0 0 .037-.422.138.138 0 0 0-.08-.087c-.038 0-.075.018-.087.049a.206.206 0 0 0-.025.106c-.019.261 0 .528.074.783M56.156 146.991c-.05 0-.068.075-.037.112.03.038.087.05.13.038a.296.296 0 0 0 .112-.081c.193-.187.366-.404.466-.653.018-.056.037-.124 0-.168-.044-.05-.118-.043-.18-.025a.643.643 0 0 0-.41.429.926.926 0 0 0 .124-.497c0-.069-.025-.149-.087-.162-.056-.012-.1.05-.13.1-.081.161-.124.335-.13.516a.637.637 0 0 0-.18-.504c-.038-.037-.088-.068-.137-.056-.044.013-.069.056-.075.1a.31.31 0 0 0 .031.13c.118.311.292.597.503.852M97.813 165.811s.08.391.236 1.025a14.227 14.227 0 0 0 2.024 4.595c.36.535.615.852.596.864-.006 0-.074-.068-.192-.205a9.041 9.041 0 0 1-.479-.609c-.385-.529-.857-1.3-1.26-2.207a12.567 12.567 0 0 1-.776-2.425 9.273 9.273 0 0 1-.125-.759c-.018-.18-.03-.279-.018-.279h-.007Z" fill="#FAFAFA"/><path d="M100.08 168.024c.037.019-.367.622-.46 1.492-.106.864.161 1.548.118 1.554-.025.019-.354-.665-.248-1.566.093-.902.571-1.505.583-1.474l.007-.006ZM99.166 166.575c.038.013-.174.591-.267 1.337-.1.746-.05 1.355-.087 1.362-.03.006-.142-.616-.043-1.381.1-.764.366-1.336.397-1.318ZM97.527 168.882s.484.193.987.591c.503.397.826.808.795.826-.025.025-.385-.335-.875-.727-.491-.392-.926-.659-.907-.69ZM96.906 166.936s.565.348 1.075.982c.509.628.763 1.244.732 1.256-.037.019-.335-.559-.832-1.175-.497-.622-.993-1.032-.969-1.063h-.006Z" fill="#FAFAFA"/><path d="M97.744 168.994a1.07 1.07 0 0 0-.416-.522c-.062-.044-.155-.075-.217-.025-.05.043-.044.118-.013.174a.392.392 0 0 0 .15.118c-.1 0-.205.019-.305.043-.043.013-.1.044-.093.087 0 .044.056.063.1.069l.31.056c-.044.037-.106.031-.162.043-.055.013-.117.062-.093.112.019.044.075.044.118.038.205-.025.398-.1.572-.206M99.073 166.718c-.037 0-.062.056-.037.087.018.031.068.044.105.031.037-.012.069-.037.1-.062.167-.143.329-.304.428-.503.025-.044.037-.1.013-.137-.032-.044-.094-.044-.143-.031a.56.56 0 0 0-.367.323.766.766 0 0 0 .137-.398c0-.056-.013-.118-.062-.13-.05-.013-.087.037-.112.074a1.086 1.086 0 0 0-.143.411.471.471 0 0 0-.112-.411c-.024-.031-.062-.056-.105-.049-.037.006-.062.043-.069.08a.2.2 0 0 0 .013.106c.075.255.193.497.348.709M97.831 165.811c-.043.018-.037.093 0 .118.044.025.1.018.137-.013.037-.031.056-.074.08-.118.112-.242.2-.503.206-.777 0-.056-.007-.131-.063-.162-.055-.037-.13 0-.18.038a.63.63 0 0 0-.23.547c.025-.168 0-.348-.062-.51-.024-.062-.074-.131-.142-.118-.056.012-.081.081-.087.137-.019.174 0 .36.062.528a.61.61 0 0 0-.348-.404c-.05-.019-.105-.031-.143 0-.037.025-.043.081-.03.118a.27.27 0 0 0 .074.112c.217.249.484.46.77.622M91.453 154.788s.1-.392.242-1.02c.143-.628.292-1.517.336-2.499a14.328 14.328 0 0 0-.118-2.518c-.087-.641-.174-1.032-.15-1.038.007 0 .038.093.088.267a6.7 6.7 0 0 1 .155.752 12.107 12.107 0 0 1-.224 5.055 8.44 8.44 0 0 1-.223.74c-.062.174-.1.267-.106.261Z" fill="#FAFAFA"/><path d="M90.398 151.797c-.025-.031.609-.398 1.068-1.131.472-.728.54-1.455.584-1.449.031-.006.019.752-.472 1.517-.484.765-1.174 1.094-1.18 1.063ZM90.578 153.507s.416-.454.832-1.082c.422-.622.646-1.194.683-1.181.031.006-.142.615-.571 1.256-.428.64-.919 1.032-.938 1.007h-.006ZM93.068 152.158s-.348-.386-.621-.964-.38-1.088-.348-1.094c.037-.012.199.472.466 1.038.267.566.534 1.001.503 1.02ZM92.764 154.178s-.354-.565-.528-1.355c-.18-.79-.136-1.455-.1-1.449.038 0 .05.647.23 1.424.174.777.435 1.368.404 1.38h-.006Z" fill="#FAFAFA"/><path d="M92.925 151.965c-.025.224.025.46.143.653.037.068.106.137.18.118.062-.012.093-.087.087-.149a.404.404 0 0 0-.08-.174c.093.043.192.074.291.093.044.006.106.006.124-.037.013-.044-.025-.081-.055-.106-.081-.062-.168-.124-.255-.187.056-.012.112.019.161.032.056.012.13-.007.13-.063 0-.043-.049-.074-.092-.087a1.528 1.528 0 0 0-.603-.074M90.727 153.42c.037.019.08-.025.074-.062a.092.092 0 0 0-.08-.075.26.26 0 0 0-.118.013c-.218.056-.429.13-.609.261-.037.031-.08.068-.075.118.007.05.069.081.118.093a.563.563 0 0 0 .472-.131.8.8 0 0 0-.298.293c-.024.043-.043.112 0 .149.038.031.094.006.13-.019.125-.081.23-.18.311-.304a.457.457 0 0 0-.08.416c.012.037.03.081.074.093.037.013.075-.012.093-.043a.303.303 0 0 0 .037-.106c.044-.261.05-.528 0-.789M91.441 154.781c.05 0 .075-.062.05-.105-.025-.044-.08-.056-.124-.05a.344.344 0 0 0-.124.068c-.212.168-.404.361-.528.603-.025.05-.05.119-.019.168.037.056.112.056.174.044a.636.636 0 0 0 .447-.386.977.977 0 0 0-.174.485c0 .069.013.15.075.168.056.019.105-.037.136-.087.094-.149.156-.323.18-.503a.621.621 0 0 0 .13.516c.032.037.082.074.131.068.044-.006.075-.05.081-.093a.262.262 0 0 0-.019-.137 3.13 3.13 0 0 0-.416-.902M73.184 131.281s-.373.155-.957.429a13.89 13.89 0 0 0-2.186 1.249 14.755 14.755 0 0 0-1.93 1.623c-.46.46-.715.765-.734.752-.006 0 .05-.087.162-.23a9.65 9.65 0 0 1 .503-.584 12.075 12.075 0 0 1 1.925-1.666c.82-.566 1.627-.976 2.223-1.225a7.1 7.1 0 0 1 .72-.267c.174-.056.274-.081.274-.075v-.006Z" fill="#FAFAFA"/><path d="M71.451 133.929c-.012.044-.683-.242-1.546-.161-.87.062-1.484.453-1.503.416-.025-.019.584-.472 1.49-.541.907-.081 1.584.268 1.56.292v-.006ZM72.693 132.754c-.006.037-.614-.056-1.36-.006-.75.043-1.34.211-1.353.174-.013-.031.571-.261 1.341-.305.77-.049 1.379.106 1.372.137ZM70.116 131.585c.031.007-.093.516-.391 1.082-.292.566-.633.964-.658.945-.031-.025.254-.447.54-1.001.292-.553.472-1.032.503-1.019l.006-.007ZM71.91 130.603s-.235.622-.757 1.243c-.522.622-1.074.989-1.087.964-.025-.031.485-.435.994-1.044.51-.61.82-1.175.857-1.157l-.006-.006Z" fill="#FAFAFA"/><path d="M70.054 131.822c.192-.119.347-.299.428-.51.031-.075.044-.168-.018-.218-.05-.037-.125-.018-.174.025a.398.398 0 0 0-.087.168 1.109 1.109 0 0 0-.1-.286c-.018-.044-.062-.087-.105-.075-.044.013-.05.069-.05.112 0 .106 0 .212.006.311-.043-.031-.055-.099-.074-.149-.019-.05-.087-.1-.13-.068-.038.024-.025.08-.013.124.068.193.174.373.31.522M72.538 132.686c-.006-.038-.062-.05-.093-.025s-.031.075-.012.106a.36.36 0 0 0 .08.087c.174.136.367.261.578.323.043.012.106.019.137-.012.037-.038.024-.1 0-.15a.549.549 0 0 0-.392-.298c.13.056.273.074.416.062.056-.006.118-.031.118-.087 0-.05-.05-.081-.093-.093a1 1 0 0 0-.428-.062.471.471 0 0 0 .379-.187c.024-.031.043-.075.03-.112-.012-.031-.055-.05-.093-.05-.037 0-.068.019-.105.038a2.374 2.374 0 0 0-.627.478M73.184 131.293c-.025-.037-.1-.018-.118.025-.019.044 0 .099.037.131.037.031.08.043.13.056.261.062.535.099.802.055.056-.012.124-.031.142-.087.025-.062-.024-.124-.074-.167a.642.642 0 0 0-.578-.125.935.935 0 0 0 .491-.155c.056-.037.112-.1.087-.162-.025-.056-.093-.062-.155-.056a1.364 1.364 0 0 0-.51.162.607.607 0 0 0 .33-.417c.012-.049.012-.112-.025-.143-.031-.031-.087-.031-.124-.006-.038.019-.069.056-.1.093-.199.261-.36.56-.46.877M88.59 122.962s.2.348.528.908c.33.553.833 1.293 1.485 2.039.652.74 1.316 1.337 1.825 1.741.503.404.839.628.826.647 0 .006-.093-.044-.248-.137a9.194 9.194 0 0 1-.634-.435 11.898 11.898 0 0 1-1.863-1.729 12.553 12.553 0 0 1-1.465-2.076 10.545 10.545 0 0 1-.348-.69 1.673 1.673 0 0 1-.105-.262v-.006Z" fill="#FAFAFA"/><path d="M91.416 124.392c.044.006-.161.709.013 1.561.161.858.615 1.423.577 1.448-.018.025-.534-.528-.708-1.423-.18-.89.093-1.604.118-1.586ZM90.106 123.286c.037 0 .012.615.143 1.355.124.74.36 1.312.322 1.324-.024.019-.322-.541-.453-1.299-.136-.759-.05-1.387-.012-1.38ZM89.237 125.978c0-.032.521.037 1.117.267.597.23 1.025.522 1.006.547-.018.031-.472-.205-1.055-.429-.584-.224-1.08-.354-1.068-.392v.007ZM88.063 124.305s.64.162 1.316.616c.677.447 1.1.957 1.075.976-.031.025-.485-.435-1.15-.871-.657-.441-1.26-.684-1.241-.721Z" fill="#FAFAFA"/><path d="M89.472 126.015a1.063 1.063 0 0 0-.552-.373c-.075-.019-.168-.025-.212.043-.03.056-.006.131.044.168.05.037.112.056.174.069-.1.031-.187.074-.273.13-.038.025-.081.069-.063.112.019.044.075.044.118.037.106-.012.205-.025.31-.043-.03.05-.092.062-.136.093-.05.025-.093.093-.05.137.032.031.088.019.125 0 .186-.087.354-.212.484-.367M90.063 123.447c-.038.013-.044.069-.013.093.031.025.075.019.112 0a.248.248 0 0 0 .074-.087c.118-.186.224-.391.255-.609.006-.05.006-.106-.031-.137-.044-.031-.1-.012-.15.019a.535.535 0 0 0-.248.423.815.815 0 0 0 .013-.423c-.013-.05-.044-.112-.1-.106-.05 0-.074.056-.086.106a1.14 1.14 0 0 0-.019.435.461.461 0 0 0-.23-.36c-.037-.019-.08-.038-.118-.019-.03.019-.043.062-.037.093a.35.35 0 0 0 .043.1c.15.217.33.416.54.572M88.603 122.956c-.037.031-.006.099.038.112.043.012.099-.013.124-.056a.346.346 0 0 0 .037-.137c.031-.267.043-.541-.037-.802-.019-.056-.044-.118-.106-.137-.062-.018-.124.038-.155.094a.64.64 0 0 0-.056.59.985.985 0 0 0-.211-.472c-.044-.05-.112-.1-.168-.069-.05.031-.05.1-.037.156.037.174.112.342.217.491a.605.605 0 0 0-.453-.28c-.05 0-.112 0-.137.037-.025.038-.018.088.007.125.024.037.068.062.105.087.286.168.596.292.92.36M60.64 126.058s.199.349.528.908c.33.553.832 1.293 1.484 2.039.652.74 1.317 1.337 1.826 1.741.503.404.838.628.826.647 0 .006-.093-.044-.248-.137a8.846 8.846 0 0 1-.634-.435 11.854 11.854 0 0 1-1.863-1.729 12.56 12.56 0 0 1-1.465-2.076 10.297 10.297 0 0 1-.348-.69 1.693 1.693 0 0 1-.106-.261v-.007Z" fill="#FAFAFA"/><path d="M63.465 127.482c.044 0-.161.709.013 1.561.161.858.614 1.423.577 1.448-.019.025-.534-.528-.708-1.424-.18-.889.093-1.604.118-1.585ZM62.156 126.375c.037 0 .012.616.142 1.356.124.74.36 1.312.323 1.324-.025.019-.323-.541-.453-1.299-.137-.759-.05-1.387-.012-1.381ZM61.286 129.074c0-.031.522.037 1.118.267.596.23 1.025.522 1.006.547-.018.031-.472-.205-1.055-.429-.584-.224-1.081-.354-1.069-.392v.007ZM60.112 127.401s.64.162 1.316.616c.677.447 1.1.957 1.075.976-.032.025-.485-.435-1.15-.871-.657-.441-1.26-.683-1.241-.721Z" fill="#FAFAFA"/><path d="M61.522 129.111a1.063 1.063 0 0 0-.553-.373c-.074-.019-.167-.025-.21.043-.032.056-.007.131.043.168.05.044.111.056.173.069-.099.031-.186.074-.273.13-.037.025-.08.069-.062.112.019.044.075.044.118.037.106-.012.205-.024.31-.043-.03.05-.093.062-.136.093-.05.025-.093.093-.05.137.031.031.087.019.125 0 .186-.087.354-.211.484-.367M62.105 126.537c-.037.013-.043.068-.012.093.031.025.074.019.112 0 .037-.018.056-.056.074-.087.118-.186.224-.391.255-.609.006-.05.006-.106-.031-.137-.044-.031-.1-.012-.15.019a.535.535 0 0 0-.248.423.814.814 0 0 0 .013-.423c-.013-.05-.044-.112-.1-.106-.05 0-.074.056-.086.106a1.142 1.142 0 0 0-.02.435.464.464 0 0 0-.229-.361c-.037-.018-.08-.037-.118-.018-.03.018-.043.062-.037.093a.363.363 0 0 0 .043.1c.15.217.33.416.54.572M60.653 126.052c-.038.031-.007.1.037.112.05.012.1-.012.124-.056a.317.317 0 0 0 .037-.137c.031-.267.044-.541-.037-.802-.019-.056-.044-.118-.106-.136-.062-.019-.124.037-.155.093a.66.66 0 0 0-.062.59.99.99 0 0 0-.211-.472c-.044-.05-.112-.1-.168-.068-.05.031-.05.099-.037.155.037.174.112.342.217.491a.606.606 0 0 0-.453-.28c-.05 0-.112 0-.137.038-.024.037-.018.087.007.124.024.037.068.062.105.087.286.168.596.292.92.361" fill="#FAFAFA"/><path d="M89.423 121.688s-.075.012-.218.018c-.155 0-.366.013-.633.025-.553.031-1.385.187-2.366.628-1.969.883-4.303 3.301-5.825 7.001v.006c-3.08 6.453-7.359 15.431-12.37 25.931l-.037.081h-.094l-20.312.367.149-.099c-.839 2.113-1.733 4.352-2.633 6.621-.274.69-.547 1.38-.82 2.058l-.112-.218 29 6.69h-.055c1.304-.292 2.552-.883 3.502-1.753a5.762 5.762 0 0 0 1.174-1.505c.329-.553.652-1.1.969-1.641 1.248-2.183 2.434-4.253 3.552-6.199 2.21-3.904 4.148-7.317 5.744-10.134 1.59-2.804 2.85-5.017 3.714-6.54.428-.746.757-1.324.987-1.722.112-.187.192-.33.26-.442.063-.099.094-.149.094-.143 0 0-.019.056-.075.156-.055.112-.136.261-.236.447-.223.404-.54.989-.95 1.747-.85 1.536-2.08 3.762-3.645 6.584l-5.688 10.165c-1.112 1.952-2.286 4.029-3.528 6.217-.316.541-.64 1.095-.968 1.648a6.37 6.37 0 0 1-1.218 1.567c-1 .907-2.266 1.517-3.638 1.828h-.056c-8.601-1.971-18.494-4.241-29.007-6.653l-.187-.043.069-.174c.267-.678.546-1.368.82-2.058.9-2.27 1.794-4.508 2.633-6.622l.037-.099h.105c7.204-.124 14.072-.236 20.313-.342l-.13.087c5.049-10.482 9.364-19.441 12.47-25.882 1.564-3.724 3.943-6.148 5.961-7.019 1-.435 1.844-.572 2.403-.591h.64c.143 0 .217 0 .217.007h-.012Z" fill="#022749"/><path d="M79.084 175.957c-2.95-3.538-7.371-6.192-11.967-5.944-3.428.187-7.837 1.816-10.687 3.432-8.08 4.588-6.576 15.021-6.576 15.021l8.78 55.289 16.252-2.102-1.782-53.144 9.023-6.888-3.05-5.664h.007Z" fill="#022749"/><path d="M82.388 181.478s-.05.056-.156.149c-.124.106-.28.242-.472.417-.44.373-1.055.895-1.832 1.56-1.62 1.355-3.912 3.283-6.719 5.633l.044-.106c.254 5.272.515 12.055.745 19.429.26 8.679.503 16.531.677 22.244.087 2.829.161 5.123.21 6.74.02.777.038 1.386.05 1.834v.479c0 .105 0 .161-.012.161 0 0-.012-.056-.025-.161-.012-.125-.018-.28-.037-.479l-.106-1.828-.31-6.739c-.242-5.689-.497-13.554-.77-22.245-.23-7.374-.466-14.157-.677-19.429v-.062l.043-.037c2.832-2.319 5.155-4.215 6.788-5.552.795-.64 1.428-1.144 1.875-1.511.205-.161.367-.286.497-.385.112-.087.174-.125.18-.125l.007.013Z" fill="#455A64"/><path d="M74.892 239.086s.012.056.012.167c0 .125.007.286.013.492.006.453.012 1.088.025 1.915v.049l-.05.006c-3.08.417-8.83 1.188-16.245 2.183l-.13.018-.02-.13c-1.043-6.51-2.29-14.324-3.632-22.718-1.801-11.445-3.428-21.809-4.614-29.332-.677-3.761-.429-6.895-.013-8.977.2-1.045.454-1.841.665-2.357.217-.516.391-.758.391-.758s-.025.068-.087.199c-.062.13-.143.323-.242.584-.193.522-.422 1.312-.602 2.356-.373 2.083-.584 5.185.118 8.922 1.204 7.516 2.869 17.874 4.707 29.32 1.322 8.399 2.558 16.214 3.583 22.723l-.15-.111c7.422-.921 13.178-1.642 16.265-2.021l-.05.056c.013-.827.019-1.467.025-1.915 0-.205.012-.367.012-.491 0-.112.013-.168.013-.168l.006-.012ZM69.93 180.029c.032-.025.367.373.795 1.082a14.06 14.06 0 0 1 1.336 2.966c.385 1.212.565 2.362.62 3.189.057.833.013 1.343-.024 1.343-.106.006-.137-2.052-.9-4.439-.746-2.394-1.913-4.091-1.82-4.147l-.006.006Z" fill="#455A64"/><path d="M78.445 119.655c1.223-1.237.509-1.952.05-3.171l-8.726-26.093c-3.788-8.555-14.916-3.476-14.916-3.476-5.248 1.928-5.993 7.84-4.776 11.869 1.348 4.476 3.167 9.891 4.894 12.969 3.477 6.18 8.812 5.148 8.812 5.148l2.204 5.956a3.47 3.47 0 0 0 5.18 1.678l7.278-4.88Z" fill="#FFBE9D"/><path d="M53.164 103.161c.149.447.652.696 1.124.547.472-.149.733-.628.584-1.082-.15-.448-.652-.696-1.124-.547-.472.149-.733.634-.584 1.082ZM52.381 102.029c.143.069.609-.64 1.516-.97.9-.348 1.738-.124 1.794-.273.031-.069-.149-.224-.515-.33a2.447 2.447 0 0 0-1.485.081c-.565.211-.962.597-1.155.908-.198.317-.217.553-.149.578l-.006.006ZM61.634 100.444c.149.447.652.696 1.124.547.472-.149.732-.628.584-1.082-.15-.448-.653-.696-1.124-.547-.473.15-.733.634-.584 1.082ZM61.28 98.728c.142.068.608-.64 1.515-.97.9-.348 1.739-.124 1.795-.273.03-.069-.15-.224-.516-.33a2.438 2.438 0 0 0-1.484.08c-.565.212-.963.598-1.155.909-.199.317-.217.553-.15.578l-.005.006ZM60.709 106.686c-.013-.056-.615.056-1.571.28-.242.062-.478.099-.572-.044-.118-.149-.111-.435-.099-.746.013-.64.019-1.312.031-2.014.019-2.86-.056-5.18-.174-5.18s-.223 2.32-.242 5.18v2.014c.012.298-.031.647.217.951a.624.624 0 0 0 .503.199c.168-.012.298-.056.41-.093.938-.292 1.51-.497 1.49-.553l.007.006Z" fill="#022749"/><path d="M63.783 116.901s4.514-1.356 7.911-5.608c0 0-.46 5.303-7.253 7.125l-.665-1.517h.007ZM62.255 109.658a.875.875 0 0 1-.299-.908.87.87 0 0 1 .74-.609c-.156-.293-.044-.691.21-.902.255-.211.628-.261.95-.174.628.162 1.081.808 1.056 1.455-.024.646-.496 1.243-1.111 1.442-.615.199-1.33 0-1.782-.466" fill="#EB996E"/><path d="M63.61 106.325c-.15.044.21 1.032-.373 2.039-.578 1.014-1.67 1.294-1.627 1.43.006.069.304.106.751-.049a2.651 2.651 0 0 0 1.379-1.138c.354-.622.366-1.275.248-1.685-.112-.423-.317-.628-.379-.597ZM59.902 97.435c.18.211 1.043-.237 2.148-.504 1.106-.286 2.075-.298 2.137-.566.025-.13-.212-.304-.646-.416-.429-.112-1.062-.13-1.726.03-.665.169-1.212.486-1.54.784-.33.305-.454.566-.373.672ZM51.14 99.163c.235.15.782-.298 1.527-.584.733-.317 1.434-.373 1.503-.647.024-.13-.15-.298-.503-.392-.348-.093-.864-.08-1.373.125-.509.205-.888.56-1.068.87-.186.311-.193.553-.087.628ZM65.143 101.034a.197.197 0 0 1-.205.199c-.112 0-.199-.099-.199-.211 0-.112.093-.205.205-.199.112 0 .199.1.199.211Z" fill="#022749"/><path d="m82.63 117.491 4.26.958-.211-1.536c0-.019-.447-6.696-5.8-11.489-5.366-4.8 1.9-6.653-2.758-12.975-1.54-2.09-3.247-3.986-5.452-5.353a8.463 8.463 0 0 1-1.099-.827c-.907-.802-1.702-1.741-2.689-2.444-.745-.528-1.64-.913-2.54-.926a7.09 7.09 0 0 0-1.708-.479c-2.614-.391-5.21.66-7.644 1.685-2.36.995-8.694.759-6.688 7.243.416-1.082 2.037-1.97 3.31-.914.888.74 1.335 1.393 1.546 2.53.286 1.511.727 3.184 2.552 3.576.447.093.913.08 1.354-.02 1.528-.341 2.751-2.654 5.664-2.1 0 0 2.837.882 3.005 2.667.168 1.784-.82 5.098.925 6.677 1.746 1.579 2.044 1.535 1.994 2.897-.013.311-.013.528-.031.684-.224 2.157.199 12.627 8.793 9.288l3.21.871" fill="#022749"/><path d="M78.953 117.491s.037.05.08.162c.038.112.094.28.113.503.018.224 0 .516-.137.821-.13.305-.366.597-.658.87a19.223 19.223 0 0 1-2.18 1.735c-.876.578-1.832 1.2-2.832 1.859-.503.317-.987.671-1.515.92a9.686 9.686 0 0 1-1.552.584c-.51.143-1 .243-1.472.299-.51.043-.956-.131-1.298-.342a3.738 3.738 0 0 1-1.286-1.386c-.21-.398-.242-.653-.223-.653.025-.006.1.224.335.59.236.355.634.871 1.292 1.256.323.187.733.324 1.155.274a9.311 9.311 0 0 0 1.416-.317c.49-.149.993-.336 1.496-.585.503-.236.963-.578 1.478-.901 1.006-.647 1.963-1.268 2.845-1.834a22.495 22.495 0 0 0 2.192-1.654c.602-.491.85-1.088.826-1.517 0-.429-.1-.665-.069-.671l-.006-.013Z" fill="#022749"/><path d="M253.28 219.477c.645-2.238 2.03-4.408 4.167-5.328 2.223-.958 4.8-.417 7.079.416 2.279.827 4.515 1.94 6.93 2.089 2.416.149 5.148-1.001 5.875-3.313.683-2.176-.627-4.495-2.273-6.081-3.446-3.32-8.632-4.731-13.283-3.612-4.651 1.119-8.632 4.731-10.197 9.257" fill="#15A9F3"/><path d="M253.28 219.477c.645-2.238 2.03-4.408 4.167-5.328 2.223-.958 4.8-.417 7.079.416 2.279.827 4.515 1.94 6.93 2.089 2.416.149 5.148-1.001 5.875-3.313.683-2.176-.627-4.495-2.273-6.081-3.446-3.32-8.632-4.731-13.283-3.612-4.651 1.119-8.632 4.731-10.197 9.257" fill="#022749" opacity=".5"/><path d="M234.122 229.207c-3.546-3.376-3.372-9.251-1.602-13.815 1.77-4.569 5.632-8.076 9.948-10.389 8.365-4.482 18.823-4.818 27.455-.889-4.242.143-8.347 2.556-10.539 6.193-1.943 3.232-2.378 7.155-3.98 10.569-1.789 3.805-5.074 6.876-8.986 8.405-3.912 1.53-8.408 1.505-12.296-.074ZM232.414 208.933c-3.931-4.645-4.452-12.093-3.875-18.154.578-6.056 1.981-12.155 1.025-18.161-.565-3.562-1.944-6.957-2.409-10.531-.466-3.575.192-7.616 2.962-9.923 3.179-2.655 8.184-2.027 11.494.466 3.31 2.487 5.223 6.404 6.626 10.302 3.074 8.567 4.205 18.061 1.677 26.802-2.527 8.741-8.458 16.563-17.158 19.199" fill="#15A9F3"/><path d="M230.526 247.019s-.018-.187-.012-.535c0-.348 0-.87.031-1.536.05-1.33.18-3.257.478-5.62a74.3 74.3 0 0 1 1.509-8.231c.733-3.072 1.981-6.348 3.751-9.531 1.776-3.19 3.943-5.938 6.135-8.207a39.369 39.369 0 0 1 6.428-5.353c.981-.677 1.931-1.193 2.745-1.672a78.47 78.47 0 0 1 2.167-1.094l1.416-.597c.323-.131.497-.199.503-.187 0 .013-.162.094-.472.249-.342.162-.801.379-1.385.647-.59.304-1.31.683-2.136 1.137-.808.491-1.739 1.02-2.708 1.704a40.23 40.23 0 0 0-6.34 5.371c-2.161 2.263-4.304 4.999-6.067 8.157-3.615 6.323-4.602 12.975-5.316 17.638a80.052 80.052 0 0 0-.578 5.602c-.037.64-.068 1.15-.087 1.529-.024.348-.037.535-.049.535l-.013-.006Z" fill="#022749"/><path d="M196.645 190.617c-7.266 4.389-7.247 8.387-6.03 12.161 1.211 3.773 5.676 6.391 9.371 4.98 2.093-.796 3.608-2.618 4.899-4.446 1.292-1.828 2.509-3.786 4.323-5.098 1.813-1.312 4.44-1.815 6.259-.516" fill="#15A9F3"/><path d="M196.645 190.617c-7.266 4.389-7.247 8.387-6.03 12.161 1.211 3.773 5.676 6.391 9.371 4.98 2.093-.796 3.608-2.618 4.899-4.446 1.292-1.828 2.509-3.786 4.323-5.098 1.813-1.312 4.44-1.815 6.259-.516" fill="#022749" opacity=".5"/><path d="M191.204 195.429c1.901-2.63 6.595-3.388 9.558-2.077 2.962 1.312 5.135 3.911 7.079 6.51 1.944 2.599 3.838 5.34 6.527 7.143 2.695 1.809 6.452 2.462 9.135.641 1.763-1.194 2.782-3.277 3.105-5.378.316-2.108.012-4.259-.429-6.342-.64-3.052-1.689-6.235-4.13-8.175-2.72-2.164-6.489-2.263-9.96-2.151-3.981.13-8.024.429-11.756 1.809-3.738 1.38-7.551 4.364-9.135 8.02" fill="#15A9F3"/><path d="M224.491 241.193s-.013-.056-.019-.161c-.006-.125-.012-.28-.025-.473-.012-.441-.037-1.044-.062-1.803-.043-1.598-.112-3.854-.193-6.64a421.912 421.912 0 0 0-.403-9.841c-.205-3.7-.485-7.772-1.043-12.006-.286-2.114-.621-4.184-1.205-6.099-.59-1.915-1.373-3.699-2.23-5.334-.863-1.629-1.807-3.115-2.813-4.414a28.949 28.949 0 0 0-3.067-3.37c-2.062-1.89-4.037-3.04-5.44-3.711-.354-.162-.665-.324-.944-.436-.274-.105-.509-.199-.708-.273-.174-.069-.317-.131-.435-.174-.099-.044-.149-.062-.143-.069 0 0 .056.007.156.038.117.037.267.087.447.143.205.068.447.149.726.248.286.106.596.255.963.411 1.428.64 3.44 1.771 5.539 3.655a28.338 28.338 0 0 1 3.124 3.376 30.346 30.346 0 0 1 2.862 4.439c.87 1.648 1.665 3.438 2.267 5.384.596 1.946.938 4.023 1.223 6.149.566 4.252.826 8.331 1.019 12.036.186 3.706.273 7.051.335 9.854.056 2.804.081 5.08.087 6.647v1.809c0 .192 0 .348-.006.472 0 .106-.006.162-.012.162v-.019ZM227.105 244.482s-.404-1.082-.795-3.127c-.379-2.039-.665-5.067-.336-8.779.311-3.711 1.261-8.063 2.77-12.739 1.491-4.681 3.515-9.686 5.248-15.07.857-2.692 1.589-5.359 2.086-7.97a70.797 70.797 0 0 0 1.031-7.61c.41-4.88.348-9.307.23-13.006-.124-3.706-.323-6.702-.447-8.773-.062-1.019-.106-1.821-.143-2.387-.013-.261-.019-.466-.031-.622v-.211s.018.068.031.211c.012.156.037.361.062.616.05.566.118 1.361.199 2.381.161 2.07.391 5.061.546 8.772.149 3.706.23 8.139-.161 13.044-.199 2.449-.51 5.017-1.019 7.641-.497 2.63-1.229 5.309-2.093 8.007-1.732 5.397-3.769 10.402-5.272 15.064-1.521 4.657-2.49 8.978-2.825 12.665-.361 3.686-.112 6.696.229 8.735.18 1.019.342 1.809.485 2.331l.149.603c.031.137.043.205.037.212l.019.012Z" fill="#022749"/><path d="M245.12 247.771h-34.124l-.782-6.578h34.906v6.578Z" fill="#455A64"/><path d="m214.66 247.019 4.266 19.727h18.543l3.993-19.727H214.66Z" fill="#455A64"/><path d="M245.12 247.771c0 .087-7.501.143-16.754.118-9.259-.025-16.755-.118-16.755-.211 0-.087 7.502-.143 16.761-.118 9.253.024 16.755.118 16.755.211h-.007Z" fill="#455A64"/><path d="M239.264 257.507c-.043.068-1.006-.926-3.006-1.722a10.675 10.675 0 0 0-3.657-.734c-1.41-.043-2.944.292-4.496.827-1.553.529-3.006 1.138-4.422 1.48a10.62 10.62 0 0 1-3.825.118c-1.081-.168-1.919-.491-2.459-.777a3.891 3.891 0 0 1-.59-.38c-.131-.099-.193-.149-.187-.161.019-.025.292.168.833.423a8.609 8.609 0 0 0 2.434.665c1.056.137 2.354.13 3.726-.18 1.366-.342 2.819-.964 4.384-1.493 1.565-.54 3.149-.882 4.608-.814 1.453.05 2.732.392 3.732.821a9.58 9.58 0 0 1 2.223 1.299c.243.187.416.342.528.46.118.112.174.174.168.18l.006-.012Z" fill="#022749"/><path d="M239.003 258.825c-.044.068-.969-.895-2.888-1.703a9.653 9.653 0 0 0-3.521-.728c-1.366-.037-2.85.274-4.347.783-1.503.504-2.912 1.088-4.26 1.449-1.348.367-2.614.497-3.676.41-1.062-.074-1.888-.373-2.41-.646a3.707 3.707 0 0 1-.571-.361c-.124-.093-.186-.149-.18-.155.018-.025.279.161.807.404.528.23 1.335.485 2.366.528 1.031.056 2.267-.093 3.577-.472 1.317-.373 2.72-.964 4.242-1.467 1.515-.516 3.049-.833 4.458-.771a9.667 9.667 0 0 1 3.608.814 9.402 9.402 0 0 1 2.13 1.293c.23.181.398.336.51.448.111.106.167.168.155.174Z" fill="#fff"/><path d="M239.605 256.195c-.043.062-1.043-.945-3.086-1.821-1.013-.429-2.292-.815-3.745-.902-1.453-.099-3.037.267-4.639.821-1.608.541-3.099 1.193-4.577 1.498-1.477.267-2.837.187-3.949.006-1.112-.192-1.975-.51-2.534-.802a5.207 5.207 0 0 1-.615-.385c-.13-.1-.198-.156-.192-.162.019-.025.298.174.863.435.565.255 1.422.529 2.515.69 1.093.15 2.428.206 3.857-.074 1.415-.305 2.912-.964 4.533-1.511 1.608-.553 3.254-.932 4.757-.808 1.496.106 2.8.522 3.819.988 1.031.46 1.782.989 2.279 1.374.248.193.428.355.546.473.118.112.18.18.168.186v-.006Z" fill="#fff"/><path d="M245.424 247.796c0 .087-7.675.161-17.145.161-9.471 0-17.146-.074-17.146-.161 0-.087 7.675-.162 17.146-.162 9.47 0 17.145.075 17.145.162ZM151.378 48.454v6.71l2.088-7.543" fill="#022749"/><path d="m159.633 45-7.635.099a.041.041 0 0 0-.02.004.056.056 0 0 0-.017.014l-.57.66c-.002.002-.004.005-.004.008a.013.013 0 0 0 0 .008l.004.007a.01.01 0 0 0 .007.002l4.501-.092c.008-.001.015.001.022.007.006.006.01.015.011.025a.054.054 0 0 1-.005.029.028.028 0 0 1-.019.015l-5.877 1.568a.007.007 0 0 0-.005.004l-2.012 2.33a.073.073 0 0 0-.014.039.083.083 0 0 0 .008.041.05.05 0 0 0 .026.026.036.036 0 0 0 .032-.003l11.586-4.668a.051.051 0 0 0 .026-.028.084.084 0 0 0 .006-.045.068.068 0 0 0-.018-.038.038.038 0 0 0-.033-.012Z" fill="#022749"/><path d="M151.389 45.79v1.202l4.977-1.33-4.977.129Z" fill="#022749"/></g><defs><clipPath id="a"><path fill="#fff" d="M0 0h289v273H0z"/></clipPath></defs></svg>