<svg width="24" height="24" viewBox="0 0 24 24" fill="none" xmlns="http://www.w3.org/2000/svg">
<path d="M11.5528 4.22361C11.8343 4.08285 12.1657 4.08284 12.4472 4.22361L18.2111 7.1056C18.9482 7.47413 18.9482 8.52594 18.2111 8.89446L12.4472 11.7764C12.1657 11.9172 11.8343 11.9172 11.5528 11.7764L5.78886 8.89446C5.05181 8.52594 5.0518 7.47413 5.78885 7.10561L11.5528 4.22361Z" stroke="#6A6ACF" stroke-linecap="square"/>
<path d="M20 12L12.4472 15.7764C12.1657 15.9172 11.8343 15.9172 11.5528 15.7764L4 12" stroke="#6A6ACF" stroke-linecap="round"/>
<path d="M20 16L12.4472 19.7764C12.1657 19.9172 11.8343 19.9172 11.5528 19.7764L4 16" stroke="#6A6ACF" stroke-linecap="round"/>
</svg>
