<svg width="24" height="24" viewBox="0 0 24 24" fill="none" xmlns="http://www.w3.org/2000/svg">
<path d="M5.03535 12.705C5.01216 12.4732 5.00028 12.238 5.00028 12C5.00028 11.762 5.01216 11.5268 5.03535 11.295L3.20605 9.23205L5.20605 5.76795L7.90725 6.32071C8.28757 6.04613 8.69658 5.80882 9.12891 5.61412L10.0003 3H14.0003L14.8717 5.61412C15.304 5.80882 15.713 6.04613 16.0933 6.32071L18.7945 5.76795L20.7945 9.23205L18.9652 11.295C18.9884 11.5268 19.0003 11.762 19.0003 12C19.0003 12.238 18.9884 12.4732 18.9652 12.705L20.7945 14.7679L18.7945 18.232L16.0933 17.6793C15.713 17.9539 15.304 18.1912 14.8717 18.3859L14.0003 21H10.0003L9.12891 18.3859C8.69658 18.1912 8.28757 17.9539 7.90725 17.6793L5.20605 18.232L3.20605 14.7679L5.03535 12.705Z" stroke="#6A6ACF" stroke-linecap="square"/>
<path d="M12 13C12.5523 13 13 12.5523 13 12C13 11.4477 12.5523 11 12 11C11.4477 11 11 11.4477 11 12C11 12.5523 11.4477 13 12 13Z" stroke="#6A6ACF" stroke-linecap="square"/>
</svg>
