<svg width="24" height="24" viewBox="0 0 24 24" fill="none" xmlns="http://www.w3.org/2000/svg">
<path d="M19.4643 0H7.85302C7.84856 0 7.84421 0.000518359 7.83975 0.000673866C7.8354 0.000829374 7.83115 0.00103672 7.82679 0.0012959C7.8102 0.00238445 7.79382 0.00425054 7.77786 0.00736069C7.77755 0.00741253 7.77729 0.00741253 7.77698 0.0075162C7.75972 0.0109374 7.74302 0.0157581 7.72664 0.0213564C7.72369 0.0223931 7.72073 0.0234816 7.71783 0.024622C7.70244 0.030324 7.6874 0.0368035 7.67299 0.0443197C7.67206 0.044838 7.67108 0.0452009 7.67014 0.0457192C7.65501 0.0538056 7.64065 0.0630324 7.62681 0.0729849C7.62365 0.0752138 7.62059 0.0775983 7.61748 0.0799309C7.60374 0.0904017 7.59047 0.101495 7.57829 0.113624C7.57824 0.113676 7.57813 0.113728 7.57808 0.11378L3.43121 4.26065C3.43116 4.2607 3.43111 4.26075 3.43106 4.2608C3.41888 4.27304 3.40778 4.28631 3.39731 4.30004C3.39498 4.30315 3.39265 4.30621 3.39037 4.30932C3.38042 4.32316 3.37119 4.33752 3.3631 4.3526C3.36258 4.35364 3.36212 4.35468 3.3616 4.35571C3.35413 4.37002 3.34771 4.3849 3.342 4.40019C3.34086 4.40325 3.33972 4.40626 3.33864 4.40937C3.33304 4.42559 3.32827 4.44218 3.32485 4.45933C3.32474 4.45996 3.32469 4.46063 3.32454 4.46125C3.32153 4.47686 3.31972 4.49282 3.31858 4.50899C3.31826 4.51356 3.31806 4.51806 3.3179 4.52263C3.3179 4.52703 3.31738 4.53128 3.31738 4.53564V22.7819C3.31738 23.4535 3.86384 24 4.53553 24H19.4643C20.1359 24 20.6824 23.4535 20.6824 22.7819V1.21814C20.6824 0.546454 20.1359 0 19.4643 0ZM7.46425 1.32731V3.70626C7.46425 3.94922 7.2666 4.14687 7.02365 4.14687H4.64469L7.46425 1.32731ZM19.9049 22.7819C19.9049 23.0248 19.7072 23.2225 19.4643 23.2225H4.53553C4.29257 23.2225 4.09492 23.0248 4.09492 22.7819V4.92441H7.02365C7.69534 4.92441 8.24179 4.37795 8.24179 3.70626V0.777538H19.4643C19.7072 0.777538 19.9049 0.975188 19.9049 1.21814V22.7819Z" fill="#6A6ACF"/>
<path d="M7.02353 6.58321H16.976C17.1907 6.58321 17.3648 6.40919 17.3648 6.19444C17.3648 5.97968 17.1907 5.80566 16.976 5.80566H7.02353C6.80883 5.80566 6.63477 5.97968 6.63477 6.19444C6.63477 6.40919 6.80883 6.58321 7.02353 6.58321Z" fill="#6A6ACF"/>
<path d="M7.02353 8.65644H16.976C17.1907 8.65644 17.3648 8.48243 17.3648 8.26768C17.3648 8.05292 17.1907 7.87891 16.976 7.87891H7.02353C6.80883 7.87891 6.63477 8.05292 6.63477 8.26768C6.63477 8.48243 6.80883 8.65644 7.02353 8.65644Z" fill="#6A6ACF"/>
<path d="M7.02353 10.7302H16.976C17.1907 10.7302 17.3648 10.5562 17.3648 10.3414C17.3648 10.1266 17.1907 9.95264 16.976 9.95264H7.02353C6.80883 9.95264 6.63477 10.1266 6.63477 10.3414C6.63477 10.5562 6.80883 10.7302 7.02353 10.7302Z" fill="#6A6ACF"/>
<path d="M7.02353 12.8034H16.976C17.1907 12.8034 17.3648 12.6294 17.3648 12.4146C17.3648 12.1999 17.1907 12.0259 16.976 12.0259H7.02353C6.80883 12.0259 6.63477 12.1999 6.63477 12.4146C6.63477 12.6294 6.80883 12.8034 7.02353 12.8034Z" fill="#6A6ACF"/>
<path d="M7.02353 14.8771H16.976C17.1907 14.8771 17.3648 14.7031 17.3648 14.4884C17.3648 14.2736 17.1907 14.0996 16.976 14.0996H7.02353C6.80883 14.0996 6.63477 14.2736 6.63477 14.4884C6.63477 14.7031 6.80883 14.8771 7.02353 14.8771Z" fill="#6A6ACF"/>
<path d="M11.9998 17.002H7.02353C6.80883 17.002 6.63477 17.176 6.63477 17.3907C6.63477 17.6055 6.80883 17.7795 7.02353 17.7795H11.9998C12.2145 17.7795 12.3885 17.6055 12.3885 17.3907C12.3885 17.176 12.2145 17.002 11.9998 17.002Z" fill="#6A6ACF"/>
<path d="M11.9998 19.0757H7.02353C6.80883 19.0757 6.63477 19.2497 6.63477 19.4645C6.63477 19.6792 6.80883 19.8532 7.02353 19.8532H11.9998C12.2145 19.8532 12.3885 19.6792 12.3885 19.4645C12.3885 19.2497 12.2145 19.0757 11.9998 19.0757Z" fill="#6A6ACF"/>
<path d="M15.5248 17.8315C15.1961 17.8315 14.9287 18.099 14.9287 18.4277C14.9287 18.7563 15.1961 19.0238 15.5248 19.0238C15.8535 19.0238 16.1209 18.7563 16.1209 18.4277C16.1209 18.099 15.8535 17.8315 15.5248 17.8315Z" fill="#6A6ACF"/>
<path d="M15.5244 16.1729C14.2811 16.1729 13.2695 17.1844 13.2695 18.4277C13.2695 19.671 14.2811 20.6826 15.5244 20.6826C16.7677 20.6826 17.7793 19.671 17.7793 18.4277C17.7793 17.1844 16.7677 16.1729 15.5244 16.1729ZM15.5244 19.905C14.7098 19.905 14.0471 19.2423 14.0471 18.4277C14.0471 17.6131 14.7098 16.9504 15.5244 16.9504C16.339 16.9504 17.0017 17.6131 17.0017 18.4277C17.0017 19.2423 16.339 19.905 15.5244 19.905Z" fill="#6A6ACF"/>
</svg>
