<svg width="164" height="164" viewBox="0 0 164 164" fill="none" xmlns="http://www.w3.org/2000/svg">
<g clip-path="url(#clip0_95_16452)">
<path d="M13.9979 69.5075C19.8335 45.6942 9.61849 39.2435 15.6816 26.1645C25.0109 6.04018 65.8629 -2.82803 92.6274 0.79009C125.408 5.2224 157.314 29.4212 162.893 66.0212C168.855 105.131 143.821 141.741 109.086 156.441C95.7951 162.066 79.6835 164.627 64.0905 163.869C61.9716 163.766 59.6699 163.065 57.5787 162.838C55.9398 162.66 54.5024 162.982 52.8895 162.729C48.2297 161.996 43.6954 160.942 39.3841 159.562C37.3923 158.925 36.0892 156.959 34.2013 156.181C32.0582 155.297 29.3473 155.579 27.3654 154.511C21.3667 151.28 16.1724 147.203 12.1736 142.253C10.0967 139.681 -1.01119 125.519 0.0733635 106.956C0.969842 91.6126 9.3713 88.3827 13.997 69.5066L13.9979 69.5075Z" fill="#6A6ACF"/>
<path d="M47.3377 118.844H124.553C125.73 118.844 126.784 118.138 127.206 117.068L163.809 24.4485C164.173 23.525 163.994 22.5673 163.469 21.8491C162.963 21.1586 161.499 19.1187 161.499 19.1187L83.9419 20.6905C82.7651 20.6905 81.711 21.3971 81.2892 22.4669L43.3174 115.537C43.3174 115.537 44.5202 117.067 45.1103 117.795C45.6217 118.426 46.4134 118.845 47.3386 118.845L47.3377 118.844Z" fill="#12123D"/>
<path d="M45.46 116.085H122.675C123.852 116.085 124.906 115.379 125.328 114.309L161.7 21.9504C162.414 20.1382 161.04 18.1924 159.048 18.1924H81.8323C80.6555 18.1924 79.6014 18.899 79.1796 19.9687L42.8064 112.328C42.0926 114.14 43.4664 116.086 45.4591 116.086L45.46 116.085Z" fill="white"/>
<path d="M122.675 116.382H45.46C44.4059 116.382 43.4288 115.87 42.8458 115.012C42.2762 114.174 42.1624 113.156 42.5314 112.218L78.9037 19.8592C79.3667 18.6845 80.5435 17.8945 81.8323 17.8945H159.048C160.102 17.8945 161.079 18.4065 161.662 19.2647C162.231 20.1022 162.345 21.1208 161.976 22.0587L125.603 114.418C125.14 115.593 123.963 116.383 122.674 116.383L122.675 116.382ZM81.8332 18.489C80.7862 18.489 79.8306 19.1275 79.4563 20.0771L43.0831 112.436C42.7867 113.189 42.8789 114.006 43.3356 114.678C43.8085 115.373 44.602 115.788 45.46 115.788H122.675C123.722 115.788 124.678 115.15 125.051 114.2L161.424 21.8408C161.721 21.0885 161.629 20.2707 161.172 19.5991C160.699 18.9042 159.906 18.489 159.049 18.489H81.8332Z" fill="#12123D"/>
<path d="M39.0205 110.327H116.236C117.413 110.327 118.467 109.621 118.889 108.551L155.261 16.1926C155.975 14.3804 154.601 12.4346 152.608 12.4346H75.3928C74.216 12.4346 73.1619 13.1412 72.7401 14.2109L36.3669 106.57C35.6531 108.382 37.027 110.328 39.0196 110.328L39.0205 110.327Z" fill="white"/>
<path d="M116.235 110.624H39.0205C37.9664 110.624 36.9893 110.112 36.4063 109.254C35.8367 108.416 35.723 107.398 36.092 106.46L72.4643 14.1014C72.9273 12.9267 74.1041 12.1367 75.3928 12.1367H152.608C153.662 12.1367 154.639 12.6487 155.222 13.5069C155.792 14.3444 155.906 15.363 155.537 16.3009L119.164 108.66C118.701 109.835 117.524 110.625 116.235 110.625V110.624ZM75.3928 12.7312C74.3459 12.7312 73.3903 13.3697 73.0168 14.3192L36.6436 106.679C36.3472 107.431 36.4394 108.249 36.8962 108.92C37.3691 109.615 38.1625 110.03 39.0196 110.03H116.235C117.282 110.03 118.238 109.392 118.612 108.442L154.985 16.083C155.281 15.3307 155.189 14.5129 154.732 13.8413C154.26 13.1464 153.466 12.7312 152.608 12.7312H75.3928Z" fill="#12123D"/>
<path d="M45.3584 104.807H113.392C114.428 104.807 115.358 104.185 115.73 103.242L147.778 21.8657C148.407 20.2687 147.197 18.5542 145.441 18.5542H77.4068C76.3706 18.5542 75.441 19.1765 75.0693 20.1189L43.0209 101.496C42.3922 103.093 43.6021 104.807 45.3584 104.807Z" fill="#A3A3FC"/>
<path d="M106.944 72.6581H76.4238C73.2651 72.6581 71.0969 69.4758 72.2486 66.5311C72.9212 64.8112 74.578 63.6787 76.4238 63.6787H106.944C110.102 63.6787 112.27 66.861 111.119 69.8049C110.446 71.5247 108.789 72.6572 106.944 72.6572V72.6581Z" fill="white"/>
<path d="M90.3837 46.4526H112.452C113.006 46.4526 113.457 46.0025 113.457 45.4465C113.457 44.8906 113.007 44.4404 112.452 44.4404H90.3837C89.8294 44.4404 89.3789 44.8906 89.3789 45.4465C89.3789 46.0025 89.8285 46.4526 90.3837 46.4526Z" fill="white"/>
<path d="M80.9463 51.5566H114.506C115.06 51.5566 115.51 51.1065 115.51 50.5505C115.51 49.9946 115.061 49.5444 114.506 49.5444H80.9463C80.3919 49.5444 79.9414 49.9946 79.9414 50.5505C79.9414 51.1065 80.391 51.5566 80.9463 51.5566Z" fill="white"/>
<path d="M83.6279 56.7905H105.696C106.25 56.7905 106.701 56.3403 106.701 55.7844C106.701 55.2285 106.251 54.7783 105.696 54.7783H83.6279C83.0735 54.7783 82.623 55.2285 82.623 55.7844C82.623 56.3403 83.0726 56.7905 83.6279 56.7905Z" fill="white"/>
<path d="M113.422 104.971H105.87C105.706 104.971 105.573 104.839 105.573 104.675C105.573 104.511 105.706 104.378 105.87 104.378H113.422C114.33 104.378 115.159 103.825 115.483 103.001L123.433 82.8153C123.493 82.6629 123.666 82.5876 123.818 82.6476C123.97 82.7077 124.046 82.8808 123.986 83.0332L116.035 103.219C115.623 104.268 114.572 104.972 113.422 104.972V104.971Z" fill="#12123D"/>
<path d="M68.8074 36.4336C68.7706 36.4336 68.7339 36.4265 68.6981 36.4121C68.5459 36.3511 68.4715 36.179 68.5315 36.0265L73.8307 22.6695C73.8907 22.5171 74.0635 22.4427 74.2158 22.5027C74.368 22.5637 74.4424 22.7359 74.3824 22.8883L69.0832 36.2453C69.0366 36.3619 68.9256 36.4327 68.8074 36.4327V36.4336Z" fill="#12123D"/>
<path d="M140.445 40.725C140.41 40.725 140.372 40.7178 140.337 40.7043C140.185 40.6443 140.11 40.4712 140.17 40.3188L147.532 21.6229C147.789 20.971 147.71 20.2626 147.314 19.6807C146.903 19.0781 146.215 18.7176 145.471 18.7176H83.8804C83.7165 18.7176 83.584 18.5849 83.584 18.4208C83.584 18.2567 83.7165 18.124 83.8804 18.124H145.471C146.412 18.124 147.284 18.5813 147.804 19.3462C148.312 20.094 148.415 21.0033 148.085 21.8408L140.722 40.5367C140.676 40.6532 140.565 40.725 140.446 40.725H140.445Z" fill="#12123D"/>
<path d="M101.054 61.4964L98.5801 63.9736L98.9999 64.394L101.474 61.9168L101.054 61.4964Z" fill="#12123D"/>
<path d="M98.9999 71.9209L98.5801 72.3413L101.054 74.8185L101.474 74.3982L98.9999 71.9209Z" fill="#12123D"/>
<path d="M88.5878 61.4961L88.168 61.9165L90.6422 64.3937L91.062 63.9734L88.5878 61.4961Z" fill="#12123D"/>
<path d="M95.6613 70.5959L95.4114 70.057C96.2291 69.6768 96.7566 68.8474 96.7566 67.9453C96.7566 66.6622 95.7141 65.6175 94.4317 65.6175C93.6579 65.6175 92.9378 66.0013 92.5044 66.6442L92.0127 66.3116C92.5572 65.5054 93.4617 65.0239 94.4326 65.0239C96.0419 65.0239 97.3504 66.3349 97.3504 67.9453C97.3504 69.0778 96.6876 70.118 95.6613 70.5959Z" fill="#12123D"/>
<path d="M97.7043 28.0449C100.779 23.557 106.193 21.5484 109.799 23.5606C113.405 25.5719 113.835 30.8417 110.76 35.3296C110.568 35.6102 110.367 35.881 110.157 36.142C107.016 40.0533 104.019 38.7262 100.639 36.8405C98.8022 35.8156 95.8155 36.9185 95.6713 34.736C95.5325 32.6359 96.197 30.2463 97.7043 28.0458V28.0449Z" fill="white"/>
<path d="M95.6729 34.735C95.8179 36.9175 96.8281 38.7889 98.665 39.8138C102.045 41.6995 107.015 40.0532 110.156 36.1419C105.17 31.5993 98.3757 33.6401 95.6729 34.735Z" fill="#FFCB03"/>
<path d="M107.261 30.7799L108.806 28.7534C109.391 27.9867 109.475 27.0192 109.013 26.3799C108.88 26.1943 108.192 26.1073 107.651 26.0427C107.268 25.997 106.951 25.7926 106.768 25.4742L106.523 25.0456C106.205 24.7515 105.741 24.6331 105.258 24.7587C105.092 24.8017 104.928 24.8654 104.767 24.9488L104.609 25.0313C103.857 25.4231 103.321 26.1925 103.245 26.9851L103.014 29.7057L107.26 30.779L107.261 30.7799Z" fill="#12123D"/>
<path d="M106.654 27.1529L103.96 27.0659L102.49 30.8123C102.191 31.5009 102.322 32.1429 102.69 32.4765L102.188 33.6314C101.849 34.4125 102.155 35.1971 102.872 35.3836C103.589 35.5701 104.445 35.0886 104.785 34.3075L105.514 32.6307C106.285 32.281 106.95 31.5718 107.315 30.7298L107.913 29.3543C108.455 28.1079 108.142 27.3851 106.654 27.152V27.1529Z" fill="white"/>
<path d="M103.198 35.7221C103.063 35.7221 102.928 35.706 102.798 35.671C102.399 35.567 102.082 35.3087 101.905 34.9447C101.701 34.5242 101.705 34.0014 101.917 33.5127L102.405 32.3918C102.47 32.2412 102.645 32.1721 102.795 32.2376C102.946 32.3031 103.014 32.4779 102.949 32.6286L102.462 33.7494C102.319 34.0794 102.311 34.4192 102.439 34.6847C102.54 34.8936 102.716 35.0362 102.947 35.0962C103.519 35.2451 104.235 34.829 104.514 34.1888L105.243 32.512C105.308 32.3613 105.483 32.2923 105.633 32.3578C105.784 32.4232 105.853 32.5981 105.787 32.7487L105.058 34.4255C104.718 35.2092 103.952 35.7212 103.199 35.7212L103.198 35.7221Z" fill="#12123D"/>
<path d="M104.221 33.1468C104.206 33.1468 104.192 33.1459 104.178 33.1441L103.256 33.0096C102.692 32.9639 102.404 32.6734 102.262 32.4367C101.892 31.8215 102.071 30.8845 102.363 30.2129L103.699 27.0162C103.747 26.9023 103.863 26.8297 103.982 26.8342L106.505 26.9104C107.231 26.8431 107.81 27.0539 108.14 27.5067C108.498 27.999 108.515 28.7154 108.185 29.4722L107.588 30.8477C106.983 32.2403 105.661 33.1433 104.221 33.1468H104.221ZM104.169 27.4341L102.909 30.446C102.668 31.0011 102.532 31.7346 102.771 32.1291C102.875 32.3031 103.053 32.3972 103.312 32.4169C103.319 32.4169 103.325 32.4178 103.332 32.4196L104.241 32.5523C105.437 32.5407 106.535 31.7803 107.043 30.611L107.642 29.2355C107.884 28.6769 107.892 28.1738 107.661 27.8564C107.455 27.573 107.069 27.4511 106.546 27.504C106.533 27.5049 106.52 27.5058 106.507 27.5049L104.17 27.4341H104.169Z" fill="#12123D"/>
<path d="M53.3204 106.764C53.8201 102.704 53.5335 103.326 53.5335 103.326L36.5309 104.329C36.5309 104.329 34.9815 114.877 34.8848 115.598C34.8033 116.206 30.6523 137.628 27.3682 154.509C31.0947 156.517 35.1311 158.198 39.3851 159.56C42.5295 152.493 45.9067 143.951 48.2764 135.369C50.1419 142.951 51.977 153.712 52.8896 162.73C56.5615 163.307 60.3104 163.686 64.0906 163.869C66.4433 148.451 68.7423 123.708 62.8986 107.169L53.3213 106.764H53.3204Z" fill="#12123D"/>
<path d="M48.6181 138.395C48.4757 138.395 48.3504 138.292 48.3262 138.147C47.6814 134.34 45.9833 129.453 44.7143 126.927C43.207 123.927 43.0414 120.855 42.9321 118.824C42.9231 118.659 43.0485 118.52 43.2124 118.511C43.3736 118.503 43.516 118.627 43.525 118.791C43.6315 120.774 43.7927 123.77 45.2445 126.66C46.5332 129.224 48.2563 134.186 48.911 138.048C48.9388 138.209 48.8295 138.363 48.6683 138.39C48.6513 138.393 48.6352 138.395 48.6181 138.395Z" fill="#6A6ACF"/>
<path d="M66.3472 54.8109L66.2801 54.5984C66.0383 53.8389 65.9496 53.0426 65.9863 52.2464C66.0195 51.5138 66.1395 50.1777 65.8815 49.759C65.1561 48.578 62.3404 43.5996 57.3601 45.8082C53.4768 47.5307 53.7634 53.5941 53.9658 55.652C54.0133 56.1281 53.9434 56.6087 53.7652 57.0526C53.7562 57.0759 53.7455 57.0983 53.7347 57.1216L51.4206 61.8696C51.0865 62.5609 51.2253 63.3877 51.7645 63.9329L52.0627 64.2333C52.7174 65.0017 54.1682 65.3837 55.1596 65.4725C55.8824 65.537 56.4331 65.4725 56.9696 65.1918C57.4792 64.9246 57.6852 64.5856 57.8365 64.0225C57.8365 64.0225 59.0384 60.0332 59.5211 60.3416C61.1439 61.3791 62.0099 61.2195 63.0184 60.0359C63.6506 59.2934 64.4925 58.125 65.1006 56.3711C65.1642 56.1882 65.2904 56.034 65.4534 55.9308L66.1529 55.4897C66.349 55.3238 66.4261 55.0557 66.3481 54.8109H66.3472Z" fill="white"/>
<path d="M55.6346 65.7926C55.477 65.7926 55.3104 65.7845 55.133 65.7684C54.0619 65.6733 52.56 65.2672 51.8436 64.435L51.5534 64.1418C50.9256 63.5088 50.7653 62.543 51.1522 61.7405L53.4673 56.9908C53.4753 56.9746 53.4825 56.9576 53.4897 56.9414C53.65 56.5424 53.7118 56.1066 53.6697 55.6816C53.4261 53.2148 53.2873 47.2895 57.2386 45.5365C60.5934 44.0489 63.5605 45.3742 66.0556 49.4765L66.1326 49.603C66.3834 50.011 66.3583 50.861 66.2983 51.929C66.292 52.0482 66.2857 52.1594 66.2813 52.2598C66.2454 53.0543 66.3395 53.8102 66.5616 54.5078L66.6296 54.7194C66.7443 55.0799 66.6323 55.4709 66.344 55.7157C66.3332 55.7246 66.3225 55.7327 66.3099 55.7408L65.6105 56.1819C65.5021 56.2501 65.4197 56.3523 65.3794 56.468C64.8868 57.8892 64.1874 59.1195 63.2425 60.2287C62.124 61.5405 61.0941 61.6652 59.4748 60.6645C59.1659 61.0357 58.5506 62.6757 58.1189 64.1086C57.9667 64.6753 57.7347 65.1255 57.106 65.4554C56.6672 65.685 56.2095 65.7926 55.6337 65.7926H55.6346ZM59.8205 45.5464C59.1059 45.5464 58.3267 45.7051 57.4804 46.0799C53.8828 47.6751 54.0306 53.2848 54.2616 55.6224C54.3127 56.1425 54.2366 56.6751 54.0413 57.1629C54.0288 57.1934 54.0163 57.2221 54.0019 57.2517L51.6877 61.9996C51.4101 62.5753 51.5256 63.2684 51.9761 63.7231L52.2744 64.0234C52.2797 64.0288 52.2842 64.0342 52.2896 64.0396C52.8484 64.696 54.1479 65.0833 55.1868 65.1757C55.8988 65.2385 56.3761 65.1676 56.8329 64.9282C57.2323 64.7193 57.4069 64.4799 57.5502 63.9445C57.9613 62.5789 58.7342 60.2699 59.3163 60.0538C59.4417 60.0072 59.5707 60.0206 59.6808 60.0906C61.2776 61.1119 61.9565 60.8241 62.793 59.8422C63.6895 58.7904 64.3531 57.6229 64.8206 56.2725C64.9048 56.0295 65.074 55.8188 65.2961 55.678L65.975 55.2494C66.0699 55.1597 66.1057 55.0243 66.0654 54.8988L65.9974 54.6863C65.7538 53.9214 65.6508 53.0956 65.6902 52.2303C65.6947 52.128 65.7009 52.0141 65.7081 51.8931C65.7412 51.2995 65.8021 50.1939 65.6293 49.9114L65.5505 49.7823C64.8465 48.6256 62.9703 45.5428 59.8205 45.5428V45.5464Z" fill="#12123D"/>
<path d="M63.3369 42.9238C64.6051 43.5774 65.1756 44.77 65.8723 44.9565C68.4005 45.6344 69.5997 46.9508 68.7194 49.0974C67.2533 52.6707 62.8148 51.0603 61.8888 51.0692C61.0227 51.0773 59.5898 51.5992 58.7471 53.3379C58.6387 53.562 58.3915 53.6867 58.1479 53.6481C57.8631 53.6033 57.6598 53.3495 57.6822 53.0599C57.7557 52.1462 57.7924 50.2963 56.9254 50.0372C55.8373 49.7117 54.1232 52.2448 55.6806 53.9637C56.1588 54.491 56.149 55.3922 55.6304 55.8988C55.2919 56.2297 54.571 56.3794 53.9485 56.0683C53.5688 55.8791 53.3583 55.498 53.2222 55.0963C52.6607 53.4365 51.9326 47.7399 53.816 44.6929C56.0845 41.0237 61.6488 42.054 63.3369 42.9247V42.9238Z" fill="#12123D"/>
<path d="M59.5022 60.629C59.4476 60.629 59.392 60.6137 59.3419 60.5823C58.1714 59.8309 57.4415 58.6975 57.0349 57.8788C56.9623 57.7318 57.0214 57.5533 57.1683 57.4807C57.3143 57.4081 57.4934 57.4673 57.566 57.6143C57.9385 58.3657 58.6057 59.4041 59.6616 60.082C59.7995 60.1708 59.8398 60.3546 59.7512 60.4927C59.6948 60.5814 59.5989 60.6299 59.5013 60.6299L59.5022 60.629Z" fill="#12123D"/>
<path d="M27.8129 128.452L2.64347 121.166C2.31748 121.072 2.12941 120.73 2.22344 120.404L6.69956 104.905C6.7936 104.579 7.13482 104.391 7.46081 104.485L32.6303 111.771C32.9563 111.865 33.1443 112.207 33.0503 112.533L28.5742 128.032C28.4801 128.358 28.1389 128.546 27.8129 128.452Z" fill="white"/>
<path d="M27.4755 128.597C27.3242 128.597 27.1692 128.575 27.017 128.531L3.27509 121.657C2.85059 121.535 2.49952 121.254 2.28548 120.866C2.07233 120.478 2.02217 120.031 2.14487 119.606L6.20813 105.537C6.46158 104.66 7.38045 104.151 8.25722 104.406L31.9991 111.28C32.4236 111.403 32.7747 111.684 32.9887 112.072C33.2019 112.459 33.252 112.907 33.1293 113.332L29.0661 127.401C28.8565 128.125 28.1938 128.597 27.4764 128.597H27.4755ZM7.79779 104.935C7.33746 104.935 6.91206 105.238 6.77861 105.703L2.71536 119.772C2.63654 120.044 2.66879 120.331 2.80581 120.58C2.94283 120.828 3.16762 121.008 3.43988 121.087L27.1818 127.961C27.7433 128.123 28.3326 127.798 28.4956 127.236L32.5589 113.167C32.6377 112.894 32.6054 112.607 32.4684 112.359C32.3314 112.11 32.1066 111.93 31.8343 111.851L8.09243 104.977C7.99482 104.949 7.89541 104.935 7.79779 104.935Z" fill="#12123D"/>
<path d="M6.32812 106.581L6.47769 106.851C7.76643 109.18 9.92389 110.902 12.479 111.642L24.7485 115.195C27.3098 115.936 30.0611 115.629 32.3967 114.339L6.32902 106.582L6.32812 106.581Z" fill="white"/>
<path d="M27.5555 115.892C26.59 115.892 25.6192 115.756 24.6654 115.48L12.395 111.928C9.7468 111.162 7.55263 109.409 6.21731 106.996L6.06865 106.726C5.98894 106.582 6.04088 106.401 6.18418 106.322C6.32747 106.242 6.50838 106.294 6.58719 106.438L6.73586 106.708C7.99505 108.983 10.0638 110.634 12.5598 111.357L24.8302 114.909C27.3343 115.633 29.97 115.338 32.2519 114.078C32.3961 114 32.5761 114.052 32.6549 114.195C32.7337 114.338 32.6818 114.52 32.5385 114.599C30.9864 115.456 29.2795 115.892 27.5546 115.892H27.5555Z" fill="#12123D"/>
<path d="M20.148 111.912L18.1787 111.342L16.8498 115.942L18.8191 116.513L20.148 111.912Z" fill="#12123D"/>
<path d="M87.8331 75.8762C87.8331 75.8762 87.243 71.4573 89.3664 69.9222C90.9749 68.7592 93.3159 68.0356 94.224 67.7657C94.4873 67.6877 94.9781 67.7433 95.0919 67.9943C95.0919 67.9943 95.296 68.4705 94.6154 68.7924L92.6514 69.6128C92.4669 69.6998 92.4391 69.95 92.6003 70.0746C93.0956 70.4584 93.9948 71.5228 94.1398 72.1029C94.3817 73.0714 93.8649 73.9313 92.9425 74.723C92.02 75.5148 91.7782 75.6655 91.7343 75.8762C91.6904 76.0869 91.668 76.9226 91.668 76.9226L87.8331 75.8762Z" fill="white"/>
<path d="M91.6682 77.2204C91.6423 77.2204 91.6163 77.2168 91.5903 77.2097L87.7554 76.1632C87.6399 76.1319 87.5548 76.0341 87.5396 75.9158C87.5145 75.7283 86.9521 71.3023 89.1937 69.6811C90.3329 68.8571 91.9978 68.1164 94.1409 67.4806C94.5171 67.3686 95.17 67.4439 95.3634 67.8716C95.4754 68.1325 95.4861 68.71 94.7437 69.0606L92.8173 69.8658C93.3081 70.2613 94.2574 71.3418 94.4293 72.0304C94.6801 73.0329 94.2574 73.987 93.137 74.9482C92.9221 75.133 92.7429 75.2827 92.5961 75.4073C92.2853 75.6692 92.039 75.8754 92.0265 75.9364C91.9996 76.0637 91.9754 76.5936 91.9665 76.9299C91.9638 77.0214 91.9199 77.1066 91.8465 77.1604C91.7945 77.1989 91.7327 77.2186 91.6691 77.2186L91.6682 77.2204ZM88.1065 75.6432L91.3843 76.5372C91.396 76.2726 91.4148 75.9516 91.4434 75.8153C91.4981 75.5526 91.6781 75.402 92.2119 74.9527C92.3578 74.8299 92.5352 74.681 92.7483 74.4972C93.6806 73.6974 94.0415 72.9379 93.8508 72.1748C93.7344 71.7103 92.9194 70.6979 92.4178 70.3097C92.2602 70.1868 92.1787 69.9958 92.2002 69.7968C92.2217 69.5977 92.3435 69.4282 92.5244 69.3431L94.5001 68.5172C94.904 68.3262 94.8189 68.1128 94.818 68.1101C94.7768 68.0545 94.4884 67.9953 94.3075 68.0491C92.2289 68.6661 90.6249 69.3771 89.5394 70.1617C87.8271 71.4001 88.0259 74.7931 88.1056 75.6414L88.1065 75.6432Z" fill="#12123D"/>
<path d="M16.6012 102.963L15.4396 104.756C15.0805 105.31 14.8951 105.958 14.9068 106.618L19.8477 107.983C19.8477 107.983 20.3752 110.658 21.4544 110.782C22.8577 110.943 21.9263 109.339 21.886 108.898C21.8457 108.457 21.8896 106.941 21.6344 105.572C21.3791 104.204 20.2776 102.658 20.2776 102.658L16.6012 102.964V102.963Z" fill="white"/>
<path d="M21.6349 111.091C21.5668 111.091 21.4952 111.086 21.4199 111.078C20.304 110.95 19.747 108.891 19.5947 108.222L14.8276 106.905C14.7004 106.87 14.6117 106.755 14.6099 106.623C14.5974 105.902 14.798 105.2 15.1903 104.595L16.3518 102.802C16.402 102.725 16.4844 102.675 16.5766 102.667L20.253 102.361C20.3578 102.352 20.4581 102.4 20.519 102.485C20.5656 102.551 21.6617 104.101 21.9259 105.518C22.1176 106.544 22.1445 107.662 22.1606 108.33C22.1669 108.572 22.1713 108.763 22.1812 108.87C22.1866 108.933 22.2421 109.094 22.2904 109.235C22.4561 109.722 22.6836 110.389 22.3522 110.802C22.1982 110.993 21.9582 111.09 21.6367 111.09L21.6349 111.091ZM15.2073 106.393L19.9261 107.697C20.0345 107.726 20.1169 107.815 20.1384 107.925C20.3408 108.948 20.8924 110.419 21.4871 110.487C21.6913 110.51 21.8409 110.489 21.8883 110.43C22.0146 110.273 21.8203 109.702 21.7271 109.428C21.6564 109.222 21.6008 109.059 21.5892 108.925C21.5776 108.797 21.5731 108.598 21.5668 108.344C21.5498 107.652 21.5247 106.605 21.342 105.626C21.1441 104.565 20.3945 103.368 20.1294 102.968L16.771 103.246L15.6882 104.917C15.4007 105.361 15.2359 105.867 15.2073 106.392V106.393Z" fill="#12123D"/>
<path d="M92.216 76.988C91.3186 75.1615 88.4743 75.4466 87.302 75.7775C87.1802 75.8116 87.0745 75.8878 86.9975 75.9873C85.3917 78.0748 83.9614 79.184 82.7596 79.7776C81.4968 80.4017 79.9824 80.2116 78.8817 79.3301C74.385 75.7309 66.8003 69.5177 66.8003 69.5177C64.2595 68.0893 61.8567 66.9631 59.5989 66.0852C57.8149 62.5595 56.3676 62.2008 53.0665 61.505C52.3214 61.348 51.6802 61.279 51.1392 61.2646C49.8827 61.2306 48.6853 61.7955 47.89 62.7702L47.4297 63.3342C40.7764 63.0105 36.5314 65.7947 35.8606 66.2672C28.2625 71.6231 31.0441 73.4838 23.7639 81.2015C16.4838 88.9193 16.0557 102.424 16.0557 102.424C16.0539 104.609 19.1159 104.249 20.7046 103.915C21.242 103.802 21.6396 103.351 21.6871 102.804C21.7856 101.668 39.0498 70.939 36.4185 95.0087C36.1078 97.8521 36.5385 102.721 35.6134 105.249C34.6274 107.942 35.7683 110.988 38.3252 112.282C42.3786 114.335 48.6844 113.922 50.9431 113.731C54.3812 113.439 58.1104 113.147 61.0238 111.922C62.2731 111.396 63.6541 110.312 64.4771 109.608C64.9348 109.218 65.1524 108.615 65.0548 108.02C64.7019 105.874 63.9111 100.362 64.1646 95.3476C64.3589 91.5116 65.2142 87.9069 65.5626 86.5664C65.6333 86.2956 65.9441 86.1701 66.1814 86.3171C68.2162 87.5832 76.4582 92.289 82.704 89.7084C91.444 86.0974 92.5071 77.5834 92.2142 76.988H92.216Z" fill="#FFCB03"/>
<path d="M112.59 154.784L113.523 152.11C116.541 145.383 123.198 141.034 130.562 140.976L137.492 140.921C139 140.909 140.493 140.717 141.942 140.352C142.483 140.215 143.302 142.718 143.829 142.534C144.453 142.317 144.781 139.403 145.379 139.121C146.169 138.748 146.934 138.319 147.671 137.836L155.981 132.385C157.081 131.663 158.434 132.844 157.87 134.034L154.337 141.481C151.249 147.993 144.866 151.98 138.04 152.244C137.219 152.277 136.999 149.667 136.17 149.589C135.613 149.537 134.449 152.047 133.894 151.944C132.972 151.773 132.053 151.531 131.143 151.215C124.297 148.144 112.589 154.784 112.589 154.784H112.59Z" fill="#6A6ACF"/>
<path d="M118.799 150.551C118.704 150.551 118.611 150.506 118.554 150.422C118.462 150.286 118.496 150.102 118.631 150.008C122.207 147.559 126.378 146.33 130.694 146.456C131.584 146.482 132.487 146.559 133.361 146.633C133.763 146.667 134.159 146.701 134.548 146.73C141.565 147.242 146.135 145.399 150.85 140.158C151.986 138.896 154.783 136.006 154.811 135.977C154.926 135.86 155.113 135.856 155.231 135.971C155.349 136.085 155.352 136.273 155.238 136.391C155.21 136.42 152.42 139.303 151.292 140.557C146.437 145.954 141.731 147.85 134.505 147.324C134.115 147.295 133.715 147.261 133.311 147.227C132.445 147.153 131.55 147.076 130.677 147.051C126.49 146.929 122.439 148.121 118.967 150.5C118.916 150.535 118.857 150.552 118.799 150.552V150.551Z" fill="white"/>
<path d="M112.662 154.599L114.717 145.144C116.639 136.303 121.451 128.363 128.38 122.578C128.723 122.292 129.226 122.313 129.538 122.631L130.573 123.689C131.243 123.152 130.707 120.636 131.304 120.032C135.626 115.656 137.966 109.64 137.678 103.416C137.614 102.009 139.513 101.513 140.143 102.773L142.613 107.717C144.351 111.197 144.852 114.989 144.267 118.574C144.184 119.088 142.045 119.4 141.917 119.903C141.792 120.399 143.677 121.086 143.509 121.569C142.162 125.459 139.473 128.896 135.669 131.126C130.494 134.16 125.916 138.111 122.156 142.788L112.661 154.599H112.662Z" fill="white"/>
<path d="M136.614 122.744C136.558 122.744 136.5 122.728 136.449 122.694C136.313 122.602 136.276 122.418 136.368 122.281C139.374 117.777 140.195 112.295 138.877 105.52C138.846 105.359 138.951 105.203 139.112 105.172C139.273 105.14 139.429 105.245 139.46 105.406C140.81 112.342 139.96 117.97 136.861 122.611C136.804 122.697 136.71 122.743 136.614 122.743V122.744Z" fill="#6A6ACF"/>
<path d="M117.51 144.871C117.486 144.871 117.463 144.869 117.44 144.863C117.28 144.825 117.183 144.664 117.221 144.505C117.242 144.42 119.376 135.973 128.749 129.422C130.502 128.198 132.903 126.52 134.936 124.161C135.043 124.036 135.231 124.023 135.354 124.13C135.479 124.238 135.492 124.425 135.385 124.549C133.302 126.965 130.867 128.667 129.089 129.91C119.897 136.333 117.818 144.562 117.798 144.645C117.765 144.781 117.644 144.871 117.51 144.871Z" fill="#6A6ACF"/>
<path d="M8.6149 83.8904C8.6149 83.8904 8.1474 59.6853 19.773 45.7965C20.8674 44.4892 21.1056 43.4831 22.4293 42.4913C23.1448 41.9551 25.1608 43.2607 25.4545 42.8697C25.6847 42.564 24.9064 39.1772 25.1312 38.8723C31.3555 30.4399 35.0856 23.3875 37.0801 19.5039C37.5234 18.6413 38.7996 18.8045 39.011 19.7514C39.9191 23.8233 41.1926 31.906 39.482 40.1967C39.294 41.1078 37.0219 40.8253 36.7577 41.7363C36.5723 42.3748 38.4154 44.2085 38.1888 44.8434C36.849 48.5924 34.9638 52.4517 31.6099 55.418C17.5788 67.8245 8.6149 83.8913 8.6149 83.8913V83.8904Z" fill="white"/>
<path d="M19.5907 58.9176C19.5128 58.9176 19.434 58.8871 19.3758 58.8253C19.2629 58.706 19.2674 58.5186 19.3856 58.4047C27.8274 50.3507 32.1369 41.7802 34.2657 36.0082C36.5736 29.7512 36.8889 25.3422 36.8916 25.2982C36.9023 25.1341 37.0429 25.0104 37.2077 25.0212C37.3716 25.0319 37.4952 25.1736 37.4844 25.3368C37.4817 25.3816 37.1647 29.8579 34.8317 36.1903C32.6814 42.0277 28.3271 50.6941 19.7958 58.8342C19.7385 58.8889 19.665 58.9158 19.5907 58.9158V58.9176Z" fill="#6A6ACF"/>
<path d="M110.713 137.005L109.759 138.787C108.302 141.509 106.46 144.002 104.29 146.192C104.121 146.363 104.161 147.343 104.213 148.042C104.247 148.504 103.767 148.831 103.353 148.625C102.873 148.386 102.364 148.079 102.118 148.34C99.0611 151.578 96.7093 155.426 95.22 159.639L94.7041 161.1C98.582 160.18 102.344 159.047 105.931 157.7L109.978 149.228C111.271 146.522 112.177 143.646 112.669 140.687L113.144 137.837C113.386 136.382 111.409 135.707 110.714 137.006L110.713 137.005Z" fill="white"/>
<path d="M87.0434 137.148C86.2302 137.148 85.5684 136.485 85.5684 135.671C85.5684 134.856 86.2302 134.194 87.0434 134.194C87.8566 134.194 88.5184 134.856 88.5184 135.671C88.5184 136.485 87.8566 137.148 87.0434 137.148ZM87.0434 134.788C86.5571 134.788 86.1621 135.184 86.1621 135.671C86.1621 136.158 86.558 136.553 87.0434 136.553C87.5288 136.553 87.9246 136.158 87.9246 135.671C87.9246 135.184 87.5297 134.788 87.0434 134.788Z" fill="#12123D"/>
<path d="M11.9245 22.0848C10.7137 22.0848 9.72852 21.0985 9.72852 19.8862C9.72852 18.6739 10.7137 17.6875 11.9245 17.6875C13.1353 17.6875 14.1205 18.6739 14.1205 19.8862C14.1205 21.0985 13.1353 22.0848 11.9245 22.0848ZM11.9245 18.282C11.0405 18.282 10.3223 19.002 10.3223 19.8862C10.3223 20.7703 11.0414 21.4903 11.9245 21.4903C12.8075 21.4903 13.5267 20.7703 13.5267 19.8862C13.5267 19.002 12.8075 18.282 11.9245 18.282Z" fill="#12123D"/>
<path d="M10.6287 30.3136C9.75821 30.3136 9.0498 29.6043 9.0498 28.7327C9.0498 27.8611 9.75821 27.1519 10.6287 27.1519C11.4992 27.1519 12.2076 27.8611 12.2076 28.7327C12.2076 29.6043 11.4992 30.3136 10.6287 30.3136ZM10.6287 27.7455C10.0851 27.7455 9.64268 28.1884 9.64268 28.7327C9.64268 29.277 10.0851 29.72 10.6287 29.72C11.1723 29.72 11.6148 29.277 11.6148 28.7327C11.6148 28.1884 11.1723 27.7455 10.6287 27.7455Z" fill="#12123D"/>
<path d="M142.56 93.0455C142.523 93.0455 142.486 93.0383 142.45 93.024C142.297 92.963 142.223 92.7908 142.284 92.6375L149.422 74.6984C149.483 74.546 149.655 74.4716 149.808 74.5325C149.96 74.5935 150.034 74.7657 149.973 74.919L142.836 92.8581C142.789 92.9746 142.678 93.0455 142.56 93.0455Z" fill="#12123D"/>
<path d="M55.6682 35.4776C55.6315 35.4776 55.5948 35.4704 55.558 35.4561C55.4058 35.3951 55.3315 35.2229 55.3924 35.0696L62.5302 17.1305C62.5911 16.9781 62.7639 16.9037 62.9162 16.9647C63.0684 17.0256 63.1427 17.1978 63.0818 17.3511L55.944 35.2902C55.8975 35.4068 55.7864 35.4776 55.6682 35.4776Z" fill="#12123D"/>
<path d="M146.817 99.0004C146.78 99.0004 146.743 98.9932 146.706 98.9789C146.554 98.9179 146.48 98.7449 146.541 98.5924L149.721 90.6003C149.782 90.4478 149.954 90.3734 150.107 90.4344C150.259 90.4954 150.334 90.6675 150.273 90.8209L147.092 98.813C147.046 98.9296 146.935 99.0004 146.817 99.0004Z" fill="#12123D"/>
<path d="M49.01 39.1523C48.9733 39.1523 48.9366 39.1451 48.8999 39.1307C48.7476 39.0698 48.6733 38.8976 48.7342 38.7443L51.9144 30.7521C51.9753 30.5997 52.1481 30.5253 52.3004 30.5862C52.4526 30.6472 52.527 30.8194 52.4661 30.9727L49.2858 38.9649C49.2393 39.0814 49.1282 39.1523 49.01 39.1523Z" fill="#12123D"/>
<path d="M98.0217 131.269C97.985 131.269 97.9483 131.261 97.9116 131.247C97.7593 131.186 97.685 131.013 97.7459 130.861L104.884 112.922C104.945 112.769 105.117 112.695 105.27 112.756C105.422 112.817 105.496 112.989 105.435 113.142L98.2976 131.081C98.251 131.198 98.1399 131.269 98.0217 131.269Z" fill="#12123D"/>
<path d="M76.0646 130.926C76.0269 130.926 75.9893 130.919 75.9526 130.903C75.8004 130.842 75.7278 130.669 75.7896 130.516L79.226 122.056C79.2878 121.903 79.4606 121.831 79.6129 121.893C79.7651 121.955 79.8376 122.128 79.7759 122.28L76.3395 130.74C76.2929 130.856 76.1819 130.926 76.0646 130.926Z" fill="#12123D"/>
<path d="M21.8156 10.7569C21.727 10.7569 21.6383 10.7229 21.5712 10.6556C21.4359 10.5202 21.4359 10.3005 21.5712 10.1651L22.353 9.38231C22.4882 9.24691 22.7076 9.24691 22.8429 9.38231C22.9781 9.51771 22.9781 9.7374 22.8429 9.8728L22.061 10.6556C21.993 10.7229 21.9052 10.7569 21.8165 10.7569H21.8156Z" fill="#12123D"/>
<path d="M18.5256 14.0514C18.4369 14.0514 18.3483 14.0173 18.2811 13.95C18.1459 13.8146 18.1459 13.595 18.2811 13.4596L19.063 12.6767C19.1982 12.5413 19.4176 12.5413 19.5528 12.6767C19.6881 12.8121 19.6881 13.0318 19.5528 13.1672L18.771 13.95C18.7029 14.0173 18.6152 14.0514 18.5265 14.0514H18.5256Z" fill="#12123D"/>
<path d="M22.5975 14.0514C22.5088 14.0514 22.4202 14.0173 22.353 13.95L21.5712 13.1672C21.4359 13.0318 21.4359 12.8121 21.5712 12.6767C21.7064 12.5413 21.9258 12.5413 22.061 12.6767L22.8429 13.4596C22.9781 13.595 22.9781 13.8146 22.8429 13.95C22.7748 14.0173 22.687 14.0514 22.5984 14.0514H22.5975Z" fill="#12123D"/>
<path d="M19.3074 10.7569C19.2188 10.7569 19.1301 10.7229 19.063 10.6556L18.2811 9.8728C18.1459 9.7374 18.1459 9.51771 18.2811 9.38231C18.4163 9.24691 18.6358 9.24691 18.771 9.38231L19.5528 10.1651C19.6881 10.3005 19.6881 10.5202 19.5528 10.6556C19.4857 10.7229 19.397 10.7569 19.3083 10.7569H19.3074Z" fill="#12123D"/>
</g>
<defs>
<clipPath id="clip0_95_16452">
<rect width="164" height="164" fill="white"/>
</clipPath>
</defs>
</svg>
