<svg width="176" height="168" viewBox="0 0 176 168" fill="none" xmlns="http://www.w3.org/2000/svg">
<g clip-path="url(#clip0_434_9688)">
<path d="M167.8 115.408C171.56 107.354 177.115 91.9378 174.812 72.7881C171.857 48.2185 157.512 28.8784 143.579 18.0259C97.3476 -17.9863 12.9644 5.5714 1.87696 39.634C-0.134689 45.8141 0.452081 51.7674 1.17455 59.0929C3.47194 82.3927 15.2504 89.2901 23.2272 114.016C30.4863 136.518 23.3982 139.071 30.1557 149.065C44.8144 170.745 86.9577 171.732 115.925 161.246C127.052 157.218 154.044 144.881 167.801 115.408H167.8Z" fill="#6A6ACF"/>
<path d="M168.37 40.4476C168.157 40.4476 167.944 40.4101 167.74 40.3341C167.296 40.1685 166.947 39.8447 166.756 39.422C166.367 38.5592 166.772 37.5464 167.658 37.1658C168.085 36.9819 168.562 36.9701 168.997 37.1329C169.441 37.2985 169.791 37.6224 169.981 38.0451C170.37 38.9078 169.965 39.9197 169.08 40.3003C168.852 40.3982 168.61 40.4476 168.369 40.4476H168.37ZM168.37 37.6251C168.216 37.6251 168.063 37.6562 167.918 37.7184C167.345 37.9645 167.086 38.6205 167.338 39.1814C167.462 39.454 167.686 39.6626 167.97 39.7687C168.248 39.8721 168.55 39.8639 168.822 39.7477C169.393 39.5016 169.653 38.8456 169.401 38.2848C169.277 38.0121 169.053 37.8035 168.769 37.6974C168.639 37.6489 168.504 37.6251 168.37 37.6251Z" fill="#12123D"/>
<path d="M161.128 31.1486C161.02 31.1486 160.914 31.0955 160.855 30.9986C160.824 30.9482 157.721 25.9483 151.234 20.1122C145.249 14.7298 135.077 7.51495 120.602 3.70989C120.434 3.66598 120.334 3.49855 120.38 3.33753C120.427 3.17559 120.602 3.08136 120.769 3.12527C135.38 6.96602 145.646 14.2513 151.685 19.6868C158.232 25.5796 161.369 30.6408 161.4 30.6912C161.489 30.8357 161.438 31.0214 161.287 31.1056C161.236 31.134 161.182 31.1477 161.126 31.1477L161.128 31.1486Z" fill="#12123D"/>
<path d="M164.367 32.3105C164.24 32.3105 164.122 32.2382 164.072 32.1193C164.053 32.0726 162.077 27.381 156.735 21.4214C151.806 15.9228 142.92 8.18919 128.581 2.57263C128.42 2.5095 128.342 2.33201 128.408 2.17739C128.474 2.02278 128.659 1.94775 128.821 2.0118C143.292 7.67959 152.261 15.4937 157.236 21.0508C162.638 27.0828 164.641 31.8485 164.661 31.896C164.725 32.0516 164.646 32.2281 164.483 32.2894C164.445 32.3041 164.406 32.3105 164.367 32.3105Z" fill="#12123D"/>
<path d="M49.4935 25.1779C49.4686 25.1779 49.4428 25.1752 49.418 25.1688C49.2479 25.1285 49.1447 24.9648 49.1858 24.8019L49.5757 23.2795C49.6177 23.1167 49.7888 23.0179 49.9589 23.0572C50.129 23.0975 50.2322 23.2612 50.1911 23.4241L49.8012 24.9465C49.7659 25.0846 49.6359 25.177 49.4935 25.177V25.1779Z" fill="#12123D"/>
<path d="M48.5853 28.7242C48.5604 28.7242 48.5346 28.7214 48.5098 28.7159C48.3397 28.6757 48.2365 28.5119 48.2776 28.349L48.6675 26.8267C48.7095 26.6638 48.8806 26.565 49.0507 26.6043C49.2208 26.6446 49.324 26.8084 49.2829 26.9712L48.893 28.4936C48.8576 28.6317 48.7277 28.7242 48.5853 28.7242Z" fill="#12123D"/>
<path d="M48.1774 25.9419C48.1526 25.9419 48.1268 25.9391 48.1019 25.9336L46.5117 25.5603C46.3416 25.5201 46.2384 25.3563 46.2795 25.1935C46.3216 25.0306 46.4926 24.9318 46.6627 24.9712L48.2529 25.3444C48.423 25.3847 48.5263 25.5485 48.4852 25.7113C48.4498 25.8495 48.3198 25.9419 48.1774 25.9419Z" fill="#12123D"/>
<path d="M51.8815 26.8111C51.8567 26.8111 51.8309 26.8083 51.8061 26.8028L50.2158 26.4295C50.0457 26.3893 49.9425 26.2255 49.9836 26.0627C50.0257 25.8998 50.1958 25.8001 50.3668 25.8403L51.957 26.2136C52.1272 26.2539 52.2304 26.4176 52.1893 26.5805C52.1539 26.7186 52.0239 26.8111 51.8815 26.8111Z" fill="#12123D"/>
<path d="M64.8648 151.219C67.5177 149.324 70.2786 147.557 73.091 145.871C78.8011 142.451 84.7586 139.393 90.7668 136.431C93.9271 134.872 97.1849 133.462 100.407 132.012C103.649 130.552 106.898 129.107 110.148 127.662C113.119 126.342 116.088 125.021 119.053 123.693C127.72 103.136 137.24 79.8303 135.857 79.8303L31.0863 77.0161C28.6131 77.0161 26.7438 78.9255 26.9197 81.2722L32.0859 150.165C32.2618 152.512 34.4177 154.421 36.8909 154.421H60.2748C61.7742 153.319 63.3491 152.301 64.8638 151.219H64.8648Z" fill="#FFCB03"/>
<path d="M139.14 77.2567H33.2393C30.9018 77.2567 29.1415 79.0545 29.3077 81.2722L34.474 150.165C34.6403 152.383 36.6701 154.18 39.0076 154.18H144.908C147.246 154.18 149.006 152.383 148.84 150.165L143.674 81.2722C143.507 79.0545 141.477 77.2567 139.14 77.2567Z" fill="white"/>
<path d="M135.804 80.6327H37.4283C35.2571 80.6327 33.6219 82.3024 33.7767 84.3627L38.576 148.36C38.7308 150.42 40.6164 152.09 42.7876 152.09H141.163C143.335 152.09 144.97 150.419 144.815 148.36L140.016 84.3627C139.861 82.3024 137.975 80.6327 135.804 80.6327Z" fill="#6A6ACF"/>
<path d="M80.8416 154.097H38.5569C36.852 154.097 35.5657 155.443 35.6899 157.096C35.8142 158.75 37.3021 160.095 39.006 160.095H82.5532C84.2581 160.095 80.8407 154.097 80.8407 154.097H80.8416Z" fill="#A3A3FC"/>
<path d="M82.554 160.399H39.0068C37.1395 160.399 35.5101 158.927 35.3744 157.118C35.3075 156.224 35.6085 155.384 36.2221 154.753C36.8232 154.135 37.6527 153.794 38.5567 153.794H81.0288L81.1186 153.953C81.5888 154.777 83.8967 158.947 83.2067 160.06C83.071 160.279 82.8388 160.399 82.553 160.399H82.554ZM38.5567 154.401C37.8304 154.401 37.1662 154.673 36.6856 155.167C36.1924 155.674 35.9516 156.351 36.0051 157.075C36.1179 158.574 37.4635 159.793 39.0059 159.793H82.553C82.6362 159.793 82.6496 159.771 82.662 159.751C82.9888 159.225 81.886 156.6 80.6522 154.401H38.5567Z" fill="#12123D"/>
<path d="M166.481 154.097H66.6653C64.9576 154.097 63.6741 155.44 63.7983 157.096C63.9226 158.752 65.4077 160.095 67.1145 160.095H166.929C168.637 160.095 169.921 158.752 169.796 157.096C169.672 155.439 168.187 154.097 166.48 154.097H166.481Z" fill="#A3A3FC"/>
<path d="M166.93 160.399H67.1153C65.2479 160.399 63.6185 158.927 63.4828 157.118C63.4159 156.223 63.716 155.383 64.3295 154.752C64.9306 154.135 65.7601 153.794 66.6651 153.794H166.48C168.348 153.794 169.977 155.266 170.113 157.075C170.179 157.97 169.878 158.81 169.266 159.441C168.665 160.06 167.835 160.399 166.93 160.399ZM66.6651 154.401C65.9369 154.401 65.2728 154.673 64.793 155.166C64.3009 155.672 64.06 156.35 64.1145 157.075C64.2273 158.574 65.5728 159.792 67.1153 159.792H166.931C167.658 159.792 168.324 159.521 168.803 159.028C169.296 158.522 169.536 157.844 169.482 157.118C169.369 155.62 168.024 154.4 166.481 154.4H66.6651V154.401Z" fill="#FFCB03"/>
<path d="M32.7182 127.056C32.5539 127.056 32.4153 126.934 32.4029 126.774L28.9922 81.2941C28.9061 80.1414 29.297 79.0554 30.094 78.2356C30.8977 77.4086 32.0149 76.9539 33.2391 76.9539H55.9062C56.0811 76.9539 56.2225 77.0893 56.2225 77.2567C56.2225 77.4241 56.0811 77.5595 55.9062 77.5595H33.2391C32.1926 77.5595 31.2399 77.9465 30.5575 78.6483C29.8819 79.3436 29.5503 80.2676 29.6238 81.2502L33.0346 126.73C33.047 126.896 32.9161 127.042 32.7412 127.054C32.7335 127.054 32.7259 127.054 32.7182 127.054V127.056Z" fill="#12123D"/>
<path d="M136.205 83.1733H37.4027C36.3773 83.1733 35.6051 83.962 35.6787 84.9345L35.7762 86.2309C35.8488 87.2035 36.7395 87.9921 37.7649 87.9921H136.567C137.592 87.9921 138.364 87.2035 138.291 86.2309L138.193 84.9345C138.121 83.962 137.23 83.1733 136.205 83.1733Z" fill="#A3A3FC"/>
<path d="M40.71 104.696H74.5754L76.4284 129.409H42.563L40.71 104.696Z" fill="#6A6ACF"/>
<path d="M81.8828 93.9261H57.2012L78.2055 102.628L101.105 102.083C101.185 102.083 101.2 101.98 101.126 101.948L81.8828 93.9261Z" fill="#A3A3FC"/>
<path d="M101.162 102.386H100.096C99.9207 102.386 99.7793 102.251 99.7793 102.083C99.7793 101.955 99.8624 101.846 99.98 101.802L81.8169 94.2299H58.9452C58.7703 94.2299 58.6289 94.0945 58.6289 93.9271C58.6289 93.7597 58.7703 93.6243 58.9452 93.6243H81.8828C81.9258 93.6243 81.9698 93.6325 82.0089 93.6499L101.305 101.695C101.474 101.764 101.565 101.932 101.528 102.104C101.492 102.271 101.341 102.388 101.162 102.388V102.386Z" fill="#FFCB03"/>
<path d="M76.8169 102.09H38.6348L57.1735 93.9271L76.8169 102.09Z" fill="white"/>
<path d="M76.8174 102.393H38.6352C38.4862 102.393 38.3581 102.294 38.3256 102.155C38.2941 102.016 38.3677 101.874 38.5024 101.814L57.0402 93.6517C57.1223 93.616 57.216 93.6142 57.2982 93.649L76.9426 101.812C77.0802 101.869 77.1566 102.011 77.1261 102.151C77.0955 102.292 76.9665 102.393 76.8164 102.393H76.8174ZM40.0811 101.786H75.2931L57.1768 94.2583L40.0811 101.786Z" fill="#FFCB03"/>
<path d="M99.7004 104.671H74.584L76.436 129.365H101.552L99.7004 104.671Z" fill="#6A6ACF"/>
<path d="M51.3779 129.409H48.9438L47.0908 104.696H49.5239L51.3779 129.409Z" fill="white"/>
<path d="M57.6591 129.409H55.226L53.3721 104.696H55.8061L57.6591 129.409Z" fill="white"/>
<path d="M63.9423 129.409H61.5092L59.6553 104.696H62.0893L63.9423 129.409Z" fill="white"/>
<path d="M70.2246 129.409H67.7915L65.9375 104.696H68.3715L70.2246 129.409Z" fill="white"/>
<path d="M76.4287 129.409H73.9946L72.1416 104.696H74.5757L76.4287 129.409Z" fill="white"/>
<path d="M45.0956 129.409H42.6616L40.8086 104.696H43.2417L45.0956 129.409Z" fill="white"/>
<path d="M82.7109 129.409H80.2768L78.4238 104.696H80.8579L82.7109 129.409Z" fill="#A3A3FC"/>
<path d="M88.9931 129.409H86.5591L84.7061 104.696H87.1401L88.9931 129.409Z" fill="#A3A3FC"/>
<path d="M95.2753 129.409H92.8413L90.9883 104.696H93.4223L95.2753 129.409Z" fill="#A3A3FC"/>
<path d="M101.559 129.409H99.1245L97.2715 104.696H99.7055L101.559 129.409Z" fill="#A3A3FC"/>
<path d="M86.4414 104.7H99.7021L99.5071 102.101H74.3916L74.5866 104.7H79.598H86.4414Z" fill="#A3A3FC"/>
<path d="M74.3918 102.101H40.6133L40.8082 104.7H74.5867L74.3918 102.101Z" fill="white"/>
<path d="M74.5866 105.004H40.8081C40.6418 105.004 40.5042 104.881 40.4927 104.722L40.2978 102.122C40.2911 102.038 40.3217 101.955 40.3819 101.893C40.4421 101.832 40.5262 101.797 40.6131 101.797H74.3916C74.5579 101.797 74.6955 101.92 74.707 102.079L74.902 104.679C74.9086 104.763 74.8781 104.846 74.8179 104.908C74.7576 104.969 74.6736 105.004 74.5866 105.004ZM41.1034 104.397H74.2464L74.0963 102.404H40.9534L41.1034 104.397Z" fill="#FFCB03"/>
<path d="M42.542 129.409H101.576L101.996 135.009H42.9615L42.542 129.409Z" fill="#A3A3FC"/>
<path d="M80.3116 129.509C80.1473 129.509 80.0087 129.388 79.9963 129.228L78.1825 105.511C78.17 105.344 78.301 105.199 78.4749 105.186C78.6488 105.171 78.8008 105.299 78.8141 105.466L80.628 129.184C80.6404 129.35 80.5095 129.496 80.3355 129.508C80.3279 129.508 80.3202 129.508 80.3116 129.508V129.509Z" fill="#FFCB03"/>
<path d="M92.3227 124.035C92.1574 124.035 92.0188 123.912 92.0073 123.752L90.743 106.065C90.7306 105.899 90.8625 105.753 91.0373 105.742C91.2094 105.73 91.3632 105.856 91.3747 106.024L92.639 123.711C92.6514 123.877 92.5196 124.023 92.3447 124.034C92.337 124.034 92.3303 124.034 92.3227 124.034V124.035Z" fill="#FFCB03"/>
<path d="M76.3543 128.728C76.1899 128.728 76.0513 128.606 76.0389 128.446L74.3426 105.828C74.3302 105.662 74.4611 105.516 74.636 105.504C74.8118 105.494 74.9619 105.618 74.9743 105.785L76.6706 128.403C76.683 128.57 76.5521 128.715 76.3772 128.727C76.3695 128.727 76.3619 128.727 76.3543 128.727V128.728Z" fill="#FFCB03"/>
<path d="M42.5922 128.797C42.4278 128.797 42.2892 128.675 42.2768 128.515L40.5633 105.665C40.5509 105.499 40.6818 105.353 40.8567 105.341C41.0316 105.329 41.1826 105.455 41.195 105.622L42.9085 128.472C42.9209 128.638 42.79 128.784 42.6151 128.796C42.6075 128.796 42.5998 128.796 42.5922 128.796V128.797Z" fill="#FFCB03"/>
<path d="M80.3915 135.356C80.2166 135.356 80.0752 135.22 80.0752 135.053C80.0752 134.885 80.2166 134.749 80.3915 134.749L101.656 134.706L99.4692 105.781C99.4568 105.614 99.5877 105.469 99.7616 105.457C99.9346 105.443 100.088 105.57 100.1 105.737L102.31 134.987C102.317 135.071 102.286 135.153 102.226 135.215C102.166 135.276 102.083 135.312 101.995 135.312L80.3915 135.356Z" fill="#FFCB03"/>
<path d="M79.5979 105.004H74.5864C74.4201 105.004 74.2825 104.881 74.2711 104.722L74.0761 102.122C74.0694 102.038 74.1 101.955 74.1602 101.893C74.2204 101.832 74.3045 101.797 74.3915 101.797H80.0604C80.2353 101.797 80.3767 101.933 80.3767 102.1C80.3767 102.267 80.2353 102.403 80.0604 102.403H74.7317L74.8817 104.396H79.5988C79.7737 104.396 79.9151 104.532 79.9151 104.699C79.9151 104.867 79.7737 105.002 79.5988 105.002L79.5979 105.004Z" fill="#FFCB03"/>
<path d="M99.7026 105.004H85.6689C85.494 105.004 85.3526 104.868 85.3526 104.701C85.3526 104.534 85.494 104.398 85.6689 104.398H99.3624L99.2124 102.405H85.3573C85.1825 102.405 85.041 102.269 85.041 102.102C85.041 101.934 85.1825 101.799 85.3573 101.799H99.5067C99.673 101.799 99.8106 101.922 99.8221 102.081L100.017 104.681C100.024 104.765 99.9931 104.847 99.9329 104.909C99.8727 104.971 99.7886 105.006 99.7017 105.006L99.7026 105.004Z" fill="#FFCB03"/>
<path d="M94.9685 143.823H52.3359C51.256 143.823 50.3176 142.992 50.2402 141.966L50.1446 140.694C50.0682 139.669 50.8814 138.838 51.9613 138.838H94.5939C95.6738 138.838 96.6123 139.668 96.6897 140.694L96.7852 141.966C96.8617 142.991 96.0484 143.823 94.9685 143.823Z" fill="white"/>
<path d="M138.014 143.839H109.69C108.88 143.839 108.176 143.216 108.119 142.447L104.813 98.3707C104.756 97.6022 105.366 96.9783 106.176 96.9783H134.5C135.31 96.9783 136.013 97.6013 136.071 98.3707L139.376 142.447C139.434 143.215 138.824 143.839 138.014 143.839Z" fill="white"/>
<path d="M134.12 121.968H110.238C109.967 121.968 109.733 121.76 109.714 121.504L109.449 117.98C109.43 117.724 109.634 117.516 109.903 117.516H133.785C134.056 117.516 134.29 117.724 134.309 117.98L134.574 121.504C134.593 121.76 134.389 121.968 134.12 121.968Z" fill="#A3A3FC"/>
<path d="M134.806 130.271H110.924C110.654 130.271 110.42 130.064 110.401 129.807L110.136 126.283C110.117 126.027 110.32 125.819 110.59 125.819H134.472C134.742 125.819 134.976 126.027 134.995 126.283L135.26 129.807C135.279 130.064 135.076 130.271 134.806 130.271Z" fill="#A3A3FC"/>
<path d="M135.395 138.137H111.513C111.243 138.137 111.009 137.929 110.99 137.673L110.725 134.149C110.706 133.893 110.909 133.685 111.179 133.685H135.061C135.331 133.685 135.565 133.893 135.584 134.149L135.849 137.673C135.868 137.929 135.665 138.137 135.395 138.137Z" fill="#A3A3FC"/>
<path d="M126.197 112.78C128.483 110.21 127.997 106.22 125.112 103.868C122.226 101.516 118.034 101.693 115.748 104.264C113.462 106.834 113.949 110.824 116.834 113.176C119.719 115.528 123.912 115.351 126.197 112.78Z" fill="#A3A3FC"/>
<path d="M123.015 107.053C123.1 108.183 122.202 109.099 121.012 109.099C119.821 109.099 118.787 108.183 118.702 107.053C118.617 105.923 119.514 105.007 120.705 105.007C121.896 105.007 122.93 105.923 123.015 107.053Z" fill="white"/>
<path d="M116.895 111.943C119.596 108.695 123.036 109.283 126.036 111.589C126.292 111.786 126.347 112.135 126.153 112.361C124.182 114.66 119.955 115.494 116.921 112.651C116.716 112.458 116.728 112.144 116.895 111.942L116.895 111.943Z" fill="white"/>
<path d="M122.769 29.2813L121.647 30.0324C121.647 30.0324 121.651 30.037 121.652 30.0388L102.584 43.5701C103.807 45.2783 104.929 47.9251 104.716 50.5106C104.421 54.0942 101.234 61.8059 91.0703 59.8325L112.365 79.5503C113.376 79.2018 114.952 78.6126 115.084 78.5101C123.428 72.0134 128.605 61.6806 128.614 50.5618C128.62 43.1557 128.696 34.0662 124.594 28.4231C124.594 28.4231 123.9 28.8568 122.77 29.2822L122.769 29.2813Z" fill="#12123D"/>
<path d="M108.594 35.1759L110.587 34.3086L128.573 20.6739C123.8 14.405 117.26 8.47738 109.248 6.37952C109.248 6.37952 108.098 7.0172 107.254 7.24684L102.31 30.9262C104.899 31.5786 107.117 33.1138 108.594 35.1759Z" fill="white"/>
<path d="M114.218 79.0434L113.422 77.8833L101.116 59.2167C99.2445 60.4307 96.11 61.0849 93.653 61.083C87.2855 61.0785 82.0007 55.6394 82.0055 49.7292C82.0103 43.8189 85.9954 38.2115 92.3619 38.2161C93.372 38.2161 95.4687 37.8291 96.4024 38.0569L103.255 15.7508C103.263 15.7526 101.665 15.4379 101.665 15.4379C99.0553 14.9072 96.3451 14.6227 93.5632 14.6209C72.6688 14.6062 55.7174 30.3159 55.7012 49.7109C55.6849 69.1058 72.6105 84.8402 93.5049 84.8558C101.174 84.8613 108.311 82.7469 114.275 79.1111C114.275 79.1111 114.22 79.0425 114.218 79.0443V79.0434Z" fill="#12123D"/>
<path d="M110.587 34.3086L130.567 19.8066C125.473 13.1159 117.953 8.24408 109.247 6.37952L104.303 30.0589C106.893 30.7112 109.11 32.2464 110.587 34.3086Z" fill="#12123D"/>
<path d="M131.711 49.4072C131.718 41.5555 129.073 34.2977 124.592 28.4121L124.588 28.4149C124.588 28.4149 124.591 28.4194 124.592 28.4213L104.157 43.2472C105.408 44.9937 106.141 47.1081 106.139 49.388C106.136 53.0631 104.61 56.688 101.695 58.6449C99.9051 59.8471 97.7281 60.5534 95.3782 60.5516C89.2869 60.547 84.3528 55.7996 84.3576 49.9479C84.3624 44.0962 89.3041 39.3561 95.3954 39.3607C96.3625 39.3607 97.2991 39.4824 98.1926 39.7074L103.137 16.0281C103.144 16.029 103.151 16.0308 103.158 16.0326L103.167 15.9942C100.67 15.4691 98.077 15.1873 95.4155 15.1854C75.4261 15.1708 59.2087 30.7259 59.1934 49.9296C59.1781 69.1324 75.3697 84.7122 95.3591 84.7268C102.696 84.7323 109.524 82.639 115.229 79.0389C115.229 79.0389 115.206 79.0106 115.19 78.9904C125.139 72.6227 131.701 61.7537 131.711 49.4072Z" fill="white"/>
<path d="M95.3858 85.0306H95.359C75.2272 85.015 58.8607 69.2696 58.877 49.9296C58.8846 40.561 62.6891 31.757 69.5908 25.1367C76.4849 18.5239 85.6457 14.8826 95.3877 14.8826H95.4163C98.0396 14.8844 100.671 15.1589 103.235 15.6987L103.54 15.7627L103.405 16.3912L103.386 16.3876L98.4371 40.0834L98.1122 40.0011C97.2282 39.7779 96.3137 39.6653 95.3953 39.6644H95.3867C92.5284 39.6644 89.8411 40.733 87.8179 42.6726C85.7929 44.6149 84.6767 47.1986 84.6738 49.9488C84.6691 55.6239 89.4712 60.2451 95.3781 60.2487H95.3867C97.5904 60.2487 99.7082 59.6083 101.512 58.397C104.167 56.6147 105.819 53.1628 105.821 49.388C105.823 47.2443 105.157 45.1803 103.895 43.4182L103.724 43.1795L124.65 27.983L124.846 28.2328C129.549 34.412 132.032 41.7339 132.026 49.4072C132.017 61.3109 125.899 72.372 115.643 79.0627L115.683 79.1139L115.401 79.2914C109.451 83.0452 102.529 85.0296 95.3838 85.0296L95.3858 85.0306ZM95.3858 15.4891C85.813 15.4891 76.8117 19.0664 70.0371 25.5649C63.2548 32.0698 59.5163 40.723 59.5087 49.9296C59.4934 68.9347 75.5751 84.4093 95.358 84.424H95.3848C102.291 84.424 108.984 82.5384 114.765 78.9657L114.728 78.9209L115.013 78.7388C125.26 72.1808 131.384 61.2158 131.394 49.4081C131.4 41.97 129.028 34.8685 124.528 28.8485L104.585 43.3176C105.811 45.1273 106.456 47.2196 106.454 49.3898C106.451 53.419 104.739 56.9725 101.876 58.8947C99.9643 60.1783 97.7204 60.8562 95.3858 60.8562H95.3772C89.1215 60.8516 84.0355 55.9588 84.0402 49.9497C84.0422 47.0385 85.2253 44.3029 87.3688 42.2463C89.5114 40.1914 92.3582 39.0597 95.3858 39.0597H95.3944C96.2544 39.0597 97.1117 39.1548 97.9459 39.3396L102.772 16.2256C100.355 15.7398 97.881 15.4919 95.4135 15.491H95.3848L95.3858 15.4891Z" fill="#12123D"/>
<path d="M60.0883 87.8476C71.4907 87.8476 80.7342 78.9983 80.7342 68.0821C80.7342 57.166 71.4907 48.3167 60.0883 48.3167C48.6859 48.3167 39.4424 57.166 39.4424 68.0821C39.4424 78.9983 48.6859 87.8476 60.0883 87.8476Z" fill="#12123D"/>
<path d="M75.128 81.0452C82.9515 73.5554 82.9515 61.4119 75.128 53.922C67.3045 46.4322 54.6201 46.4322 46.7966 53.922C38.9731 61.4119 38.9731 73.5554 46.7966 81.0452C54.6201 88.5351 67.3045 88.5351 75.128 81.0452Z" fill="#FFCB03"/>
<path d="M72.8498 78.8644C79.4152 72.579 79.4152 62.3883 72.8498 56.1028C66.2844 49.8174 55.6397 49.8174 49.0743 56.1028C42.5089 62.3883 42.5089 72.579 49.0743 78.8644C55.6397 85.1499 66.2844 85.1499 72.8498 78.8644Z" fill="white"/>
<path d="M59.582 78.8669L59.5447 76.221C57.5942 76.1625 55.6963 75.6858 54.582 75.0875L55.4087 71.8176C56.6396 72.4425 58.3645 73.0052 60.2548 72.9805C61.9128 72.9585 63.0386 72.3318 63.0233 71.2174C63.008 70.1589 62.0677 69.5029 59.905 68.8351C56.7781 67.8726 54.6346 66.5085 54.5964 63.8068C54.562 61.3558 56.3376 59.4107 59.4425 58.7858L59.4052 56.1399L62.2559 56.1024L62.2903 58.5534C64.2408 58.612 65.5548 58.9843 66.522 59.418L65.723 62.5762C64.9623 62.2798 63.6149 61.6568 61.5201 61.6842C59.6288 61.7089 59.0296 62.4966 59.0402 63.2761C59.0535 64.1956 60.0799 64.7665 62.5656 65.6256C66.0441 66.75 67.4623 68.2642 67.4977 70.7701C67.533 73.2485 65.7307 75.3894 62.3926 75.9896L62.4327 78.8303L59.582 78.8678V78.8669Z" fill="#FFCB03"/>
<path d="M37.0959 55.236C42.9384 49.6426 42.9384 40.574 37.0959 34.9806C31.2534 29.3872 21.7807 29.3872 15.9382 34.9806C10.0957 40.574 10.0957 49.6426 15.9382 55.236C21.7807 60.8293 31.2534 60.8294 37.0959 55.236Z" fill="#12123D"/>
<path d="M27.1804 58.6157C35.1976 58.6157 41.6968 52.3936 41.6968 44.7183C41.6968 37.0431 35.1976 30.821 27.1804 30.821C19.1633 30.821 12.6641 37.0431 12.6641 44.7183C12.6641 52.3936 19.1633 58.6157 27.1804 58.6157Z" fill="#FFCB03"/>
<path d="M35.7955 52.9657C40.5531 48.411 40.5531 41.0263 35.7955 36.4716C31.0378 31.9168 23.3242 31.9168 18.5666 36.4716C13.809 41.0263 13.809 48.411 18.5666 52.9657C23.3242 57.5204 31.0378 57.5204 35.7955 52.9657Z" fill="white"/>
<path d="M25.5806 52.8792L25.6933 50.9652C24.2866 50.8289 22.9401 50.3925 22.166 49.9058L22.9363 47.5819C23.7925 48.0934 25.01 48.5838 26.3776 48.6569C27.5769 48.7219 28.4246 48.323 28.4714 47.517C28.5163 46.7512 27.8713 46.2316 26.3432 45.6433C24.1337 44.7961 22.6563 43.7055 22.7719 41.7513C22.8761 39.9782 24.2637 38.658 26.54 38.3561L26.6528 36.4421L28.7151 36.5538L28.6109 38.3268C30.0177 38.4631 30.9485 38.7971 31.6241 39.1566L30.8797 41.4009C30.3454 41.1493 29.4041 40.6342 27.8894 40.5519C26.5209 40.4778 26.046 41.0185 26.0125 41.583C25.9733 42.2481 26.6853 42.711 28.436 43.4521C30.8911 44.4338 31.8363 45.5966 31.7292 47.4099C31.6232 49.2031 30.2078 50.6633 27.7633 50.935L27.6419 52.9908L25.5796 52.8792H25.5806Z" fill="#FFCB03"/>
<path d="M78.0703 163.099H28.8981C27.4274 163.099 26.1344 161.977 26.0101 160.593L23.6229 134.083C23.4987 132.699 24.5891 131.577 26.0598 131.577H75.232C76.7027 131.577 77.9957 132.699 78.12 134.083L80.5072 160.593C80.6314 161.976 79.541 163.099 78.0703 163.099Z" fill="#FFCB03"/>
<path d="M39.767 137.533H28.6652C28.003 137.533 27.421 137.028 27.3655 136.405L27.312 135.811C27.2556 135.188 27.7468 134.683 28.4091 134.683H39.5109C40.1732 134.683 40.7552 135.188 40.8106 135.811L40.8641 136.405C40.9205 137.028 40.4293 137.533 39.767 137.533Z" fill="white"/>
<path d="M34.541 147.091H29.9367C29.3967 147.091 28.9218 146.679 28.8759 146.17L28.486 141.837C28.4401 141.329 28.8405 140.916 29.3805 140.916H33.9848C34.5248 140.916 34.9997 141.328 35.0456 141.837L35.4355 146.17C35.4814 146.678 35.081 147.091 34.541 147.091Z" fill="#A3A3FC"/>
<path d="M42.6859 159.082H29.8811C29.4453 159.082 29.0621 158.75 29.0258 158.34L28.956 157.569C28.9188 157.159 29.2427 156.827 29.6776 156.827H42.4823C42.9181 156.827 43.3013 157.159 43.3377 157.569L43.4074 158.34C43.4447 158.75 43.1207 159.082 42.6859 159.082Z" fill="#6A6ACF"/>
<path d="M37.8477 152.315H29.2708C28.835 152.315 28.4518 151.983 28.4155 151.573L28.3457 150.802C28.3084 150.392 28.6324 150.06 29.0672 150.06H37.6442C38.08 150.06 38.4632 150.392 38.4995 150.802L38.5693 151.573C38.6065 151.983 38.2826 152.315 37.8477 152.315Z" fill="#6A6ACF"/>
<path d="M50.2989 152.374H41.7219C41.2862 152.374 40.9029 152.042 40.8666 151.632L40.7969 150.861C40.7596 150.451 41.0836 150.119 41.5184 150.119H50.0954C50.5311 150.119 50.9144 150.451 50.9507 150.861L51.0204 151.632C51.0577 152.042 50.7337 152.374 50.2989 152.374Z" fill="#6A6ACF"/>
<path d="M62.2472 152.374H53.6702C53.2344 152.374 52.8512 152.041 52.8149 151.632L52.7451 150.86C52.7078 150.45 53.0318 150.118 53.4666 150.118H62.0436C62.4794 150.118 62.8626 150.45 62.8989 150.86L62.9687 151.632C63.0059 152.041 62.682 152.374 62.2472 152.374Z" fill="#6A6ACF"/>
<path d="M74.6983 152.433H66.1213C65.6856 152.433 65.3024 152.101 65.266 151.691L65.1963 150.92C65.159 150.51 65.483 150.178 65.9178 150.178H74.4948C74.9306 150.178 75.3138 150.51 75.3501 150.92L75.4198 151.691C75.4571 152.101 75.1332 152.433 74.6983 152.433Z" fill="#6A6ACF"/>
<path d="M77.53 163.403H28.8433C27.2445 163.403 25.834 162.177 25.6983 160.671L23.2986 134.021C23.2336 133.297 23.4706 132.612 23.9676 132.094C24.4731 131.567 25.1822 131.276 25.9639 131.276H75.1103C76.8046 131.276 78.3002 132.575 78.4445 134.172L80.0548 152.054C80.0701 152.221 79.9411 152.368 79.7662 152.382C79.5913 152.399 79.4384 152.273 79.4241 152.105L77.8138 134.223C77.6972 132.932 76.4845 131.881 75.1103 131.881H25.9649C25.3628 131.881 24.8191 132.101 24.4349 132.502C24.0593 132.893 23.8797 133.414 23.9303 133.968L26.33 160.618C26.4379 161.818 27.5656 162.795 28.8443 162.795H77.5309C78.4245 162.795 79.2148 162.415 79.6993 161.754C79.7997 161.617 79.9965 161.584 80.1408 161.68C80.2842 161.776 80.3186 161.965 80.2182 162.102C79.6133 162.929 78.6338 163.402 77.5309 163.402L77.53 163.403Z" fill="#12123D"/>
<path d="M120.599 92.035C120.597 91.7669 136.236 89.4019 137.245 86.6664C138.75 82.5841 140.627 77.6757 140.627 77.6757L144.532 80.037L142.018 91.7834L120.599 92.0359V92.035Z" fill="white"/>
<path d="M120.599 92.3388C120.515 92.3388 120.436 92.3077 120.377 92.2519C120.317 92.1951 120.282 92.1183 120.282 92.0368C120.281 91.8283 121.159 91.5449 122.915 91.1869C126.904 90.3736 136.244 88.4687 136.946 86.5658C138.435 82.5283 140.311 77.6208 140.329 77.5714C140.361 77.4854 140.433 77.4186 140.524 77.3884C140.614 77.3591 140.714 77.3701 140.795 77.4186L144.7 79.78C144.811 79.8477 144.867 79.9739 144.842 80.0974L142.327 91.8438C142.298 91.9838 142.17 92.0844 142.021 92.0863L120.602 92.3388H120.599ZM140.79 78.1322C140.333 79.3307 138.8 83.36 137.543 86.767C136.836 88.6847 130.398 90.2711 123.444 91.6983L141.759 91.4824L144.177 80.1807L140.789 78.1322H140.79Z" fill="#12123D"/>
<path d="M165.201 65.0538C161.472 63.8891 155.789 63.0538 148.998 65.1242C146.522 65.879 144.746 67.9668 144.44 70.437L138.908 100.933C138.633 103.15 141.729 105.306 143.91 106.097C146.188 106.923 149.631 107.705 154.507 107.705C159.734 107.705 163.533 107.995 165.653 107.107C167.412 106.37 170.061 104.585 170.15 102.748L169.766 71.4013C169.904 68.5441 168.041 65.9421 165.201 65.0547V65.0538Z" fill="#FFCB03"/>
<path d="M139.075 78.1579C139.075 78.1579 143.491 66.4472 148.443 65.3209L145.925 81.9153L139.074 78.1588L139.075 78.1579Z" fill="#FFCB03"/>
<path d="M175.5 83.9189C175.5 83.9189 175.016 76.0828 174.308 73.0554C172.82 66.6859 166.474 65.7225 166.474 65.7225L165.704 82.8293L175.5 83.918V83.9189Z" fill="#FFCB03"/>
<path d="M157.522 68.3492C155.203 68.3492 152.497 68.1095 150.132 67.2696C149.969 67.2111 149.885 67.0373 149.946 66.8799C150.006 66.7225 150.189 66.6429 150.353 66.7015C155.592 68.5606 162.833 67.3401 162.905 67.3273C163.075 67.2971 163.242 67.406 163.273 67.5716C163.305 67.7362 163.19 67.8936 163.018 67.9238C162.848 67.9531 160.503 68.3492 157.523 68.3492H157.522Z" fill="#12123D"/>
<path d="M174.263 83.5933C174.263 83.5933 174.74 89.5694 172.267 93.5812C169.314 98.3725 154.416 91.9197 154.416 91.9197L152.684 90.9801C151.511 90.3452 150.115 90.2089 148.833 90.605L146.034 91.4696C146.034 91.4696 148.345 88.8164 150.312 87.8018C151.233 87.326 152.428 87.7762 153.438 88.3882C155.174 89.4413 157.216 89.9344 159.271 89.8759L165.197 89.7075C166.192 89.6792 167.007 88.9418 167.094 87.993L167.544 83.0498L174.263 83.5942V83.5933Z" fill="white"/>
<path d="M167.75 95.6498C162.345 95.6498 154.728 92.3882 154.285 92.1961C154.276 92.1924 154.268 92.1878 154.259 92.1842L152.527 91.2446C151.435 90.6526 150.124 90.5245 148.93 90.8942L146.13 91.7587C145.996 91.7999 145.849 91.7514 145.771 91.6398C145.692 91.5282 145.7 91.38 145.79 91.2757C145.886 91.1659 148.164 88.5657 150.16 87.5356C151.042 87.0799 152.202 87.2812 153.606 88.1321C155.257 89.133 157.214 89.6279 159.26 89.573L165.186 89.4047C166.02 89.3809 166.705 88.7624 166.777 87.9665L167.227 83.0233C167.243 82.8568 167.399 82.7388 167.57 82.747L174.289 83.2914C174.444 83.3042 174.566 83.4222 174.577 83.5704C174.596 83.8183 175.033 89.6874 172.538 93.7349C171.671 95.1411 169.882 95.6489 167.749 95.6489L167.75 95.6498ZM154.558 91.6489C155.063 91.8649 169.253 97.873 171.993 93.4275C174.1 90.0104 174.014 85.0507 173.961 83.8741L167.83 83.3774L167.407 88.0195C167.307 89.122 166.36 89.9783 165.204 90.0113L159.278 90.1796C157.103 90.2455 155.025 89.7103 153.266 88.6444C152.444 88.1458 151.29 87.6408 150.46 88.0689C149.248 88.6947 147.879 89.9857 147.047 90.8383L148.735 90.3169C150.097 89.896 151.593 90.0424 152.838 90.7167L154.558 91.6489Z" fill="#12123D"/>
<path d="M151.402 149.313L154.632 158.539C154.632 158.539 151.114 158.252 150.778 158.315C150.441 158.378 146.326 149.902 146.326 149.902L151.402 149.314V149.313Z" fill="white"/>
<path d="M154.631 158.842C154.622 158.842 154.613 158.842 154.604 158.841C152.931 158.705 151.062 158.581 150.834 158.613C150.527 158.67 150.388 158.696 148.14 154.264C147.08 152.174 146.048 150.05 146.039 150.029C145.995 149.941 145.999 149.838 146.049 149.753C146.099 149.668 146.187 149.611 146.288 149.6L151.363 149.012C151.514 148.997 151.654 149.081 151.702 149.217L154.932 158.443C154.966 158.54 154.946 158.646 154.88 158.727C154.82 158.8 154.728 158.843 154.632 158.843L154.631 158.842ZM150.963 158.005C151.615 158.005 153.232 158.124 154.177 158.199L151.182 149.644L146.795 150.152C148.213 153.058 150.376 157.355 150.886 158.006C150.909 158.006 150.935 158.006 150.962 158.006L150.963 158.005ZM150.726 158.015C150.726 158.015 150.72 158.015 150.718 158.017C150.721 158.017 150.724 158.016 150.726 158.015Z" fill="#12123D"/>
<path d="M153.891 156.512C153.891 156.512 149.033 154.605 148.135 156.997C146.993 160.04 145.207 164.684 145.207 164.684C144.904 165.491 145.486 166.353 146.379 166.422C148.154 166.558 150.802 166.669 152.036 166.255C153.984 165.601 157.214 159.701 157.214 159.701L156.218 154.681C156.218 154.681 154.457 154.443 153.891 156.512Z" fill="#A3A3FC"/>
<path d="M149.239 166.849C148.269 166.849 147.245 166.793 146.354 166.725C145.829 166.684 145.363 166.418 145.078 165.994C144.792 165.57 144.731 165.056 144.909 164.581C144.928 164.533 146.708 159.902 147.838 156.895C148.036 156.366 148.415 155.979 148.962 155.746C150.452 155.112 152.823 155.816 153.687 156.113C154.409 154.155 156.243 154.378 156.263 154.38C156.396 154.398 156.504 154.496 156.529 154.623L157.525 159.643C157.538 159.711 157.528 159.78 157.494 159.841C157.158 160.456 154.148 165.866 152.141 166.541C151.459 166.77 150.387 166.848 149.239 166.848V166.849ZM150.435 156.093C149.992 156.093 149.57 156.15 149.219 156.3C148.83 156.466 148.572 156.728 148.433 157.1C147.303 160.109 145.521 164.741 145.504 164.788C145.394 165.081 145.432 165.401 145.61 165.664C145.788 165.929 146.077 166.094 146.405 166.119C149.068 166.324 151.03 166.271 151.932 165.968C153.404 165.473 155.954 161.329 156.883 159.652L155.955 154.976C155.522 154.999 154.573 155.212 154.197 156.588C154.175 156.672 154.114 156.743 154.032 156.781C153.951 156.821 153.855 156.824 153.771 156.791C153.748 156.781 151.964 156.092 150.435 156.092V156.093Z" fill="#12123D"/>
<path d="M151.44 164.716H146.451C146.276 164.716 146.135 164.58 146.135 164.413C146.135 164.245 146.276 164.11 146.451 164.11H151.44C151.614 164.11 151.756 164.245 151.756 164.413C151.756 164.58 151.614 164.716 151.44 164.716Z" fill="#12123D"/>
<path d="M160.559 151.58L159.461 160.86L155.047 159.701L155.386 151.34L160.559 151.58Z" fill="white"/>
<path d="M159.461 161.163C159.433 161.163 159.405 161.159 159.377 161.152L154.963 159.993C154.821 159.955 154.724 159.83 154.73 159.689L155.069 151.328C155.072 151.247 155.109 151.17 155.171 151.116C155.233 151.062 155.317 151.036 155.401 151.037L160.573 151.278C160.66 151.281 160.742 151.321 160.798 151.384C160.855 151.448 160.881 151.531 160.872 151.614L159.775 160.895C159.764 160.983 159.714 161.062 159.638 161.112C159.585 161.147 159.523 161.164 159.46 161.164L159.461 161.163ZM155.373 159.472L159.189 160.474L160.207 151.867L155.691 151.656L155.374 159.471L155.373 159.472Z" fill="#12123D"/>
<path d="M159.878 167.697H152.893C151.948 167.697 151.221 166.895 151.36 166C151.593 164.489 152.353 161.984 154.63 158.539C154.878 158.163 155.313 157.934 155.778 157.934H157.902C158.268 157.934 158.576 158.2 158.614 158.548L158.775 160.016L159.7 158.846C159.7 158.846 161.351 162.176 161.428 166.188C161.444 167.017 160.744 167.698 159.878 167.698V167.697Z" fill="#A3A3FC"/>
<path d="M159.878 168H152.893C152.349 168 151.834 167.774 151.479 167.381C151.125 166.988 150.968 166.468 151.048 165.955C151.283 164.431 152.049 161.877 154.364 158.376C154.672 157.909 155.202 157.63 155.779 157.63H157.903C158.434 157.63 158.875 158.011 158.93 158.516L159.006 159.221L159.447 158.663C159.514 158.578 159.619 158.533 159.732 158.544C159.841 158.555 159.938 158.62 159.986 158.716C160.055 158.854 161.667 162.15 161.744 166.182C161.754 166.664 161.564 167.121 161.21 167.465C160.856 167.81 160.383 168 159.878 168ZM155.778 158.236C155.424 158.236 155.087 158.414 154.898 158.7C152.643 162.112 151.9 164.576 151.673 166.044C151.621 166.382 151.725 166.725 151.959 166.984C152.193 167.244 152.535 167.393 152.894 167.393H159.879C160.212 167.393 160.525 167.268 160.759 167.039C160.993 166.811 161.118 166.51 161.111 166.192C161.053 163.151 160.065 160.487 159.624 159.444L159.028 160.198C158.95 160.297 158.817 160.34 158.691 160.307C158.566 160.273 158.475 160.17 158.461 160.046L158.301 158.578C158.28 158.383 158.109 158.236 157.904 158.236H155.78H155.778Z" fill="#12123D"/>
<path d="M160.398 166.402H152.036C151.861 166.402 151.72 166.266 151.72 166.099C151.72 165.931 151.861 165.796 152.036 165.796H160.398C160.573 165.796 160.714 165.931 160.714 166.099C160.714 166.266 160.573 166.402 160.398 166.402Z" fill="#12123D"/>
<path d="M143.979 95.8474C144.163 95.4193 144.533 95.0917 144.993 94.9536C147.548 94.186 156.453 92.165 165.619 97.7934C166.052 98.0587 166.328 98.5043 166.365 98.9947C166.696 103.454 167.932 126.768 160.228 154.372L155.039 154.018L153.981 106.821C153.981 106.821 146.295 124.123 152.545 151.66L147.147 152.614C147.147 152.614 139.249 142.671 137.835 127.477C136.584 114.037 142.578 99.1127 143.979 95.8474Z" fill="#12123D"/>
<path d="M158.905 132.543C158.737 132.543 158.597 132.416 158.589 132.253C158.582 132.086 158.717 131.945 158.892 131.937C163.231 131.758 163.735 125.937 163.739 125.878C163.753 125.712 163.905 125.584 164.078 125.598C164.252 125.611 164.383 125.756 164.371 125.923C164.366 125.987 163.814 132.341 158.919 132.543C158.914 132.543 158.909 132.543 158.905 132.543Z" fill="white"/>
<path d="M153.53 111.45C153.53 111.45 153.523 111.45 153.52 111.45C153.345 111.446 153.208 111.306 153.214 111.138L153.391 105.397L150.296 103.314C150.153 103.218 150.118 103.029 150.219 102.891C150.32 102.754 150.518 102.722 150.66 102.817L153.895 104.995C153.982 105.053 154.033 105.15 154.03 105.252L153.846 111.156C153.841 111.319 153.701 111.449 153.53 111.449V111.45Z" fill="white"/>
<path d="M156.179 53.8573C154.206 52.2324 153.756 52.011 153.181 51.0805C152.713 50.3212 151.667 48.6259 152.375 46.8336C152.987 45.2838 154.677 44.3478 156.232 44.2673C157.628 44.195 158.648 44.8272 159.186 45.1612C159.421 45.3075 161.497 46.6332 161.908 48.7997C162.019 49.388 161.936 49.6579 162.216 50.0266C162.847 50.8564 163.989 50.4328 164.779 51.1217C165.773 51.9872 165.312 53.8298 165.274 53.9735C164.756 55.9387 162.537 57.2415 160.73 57.0594C159.686 56.9542 159.798 56.8362 156.18 53.8573H156.179Z" fill="#12123D"/>
<path d="M161.616 63.5771C160.662 62.9724 160.106 61.9376 160.132 60.8425L160.24 56.2991C160.272 56.2707 160.305 56.2415 160.336 56.2131C160.336 56.2131 162.237 56.3348 162.514 55.408C162.791 54.4812 161.447 54.3028 161.447 54.3028C161.447 54.3028 162.716 51.7447 159.432 51.7749C158.55 51.7832 158.235 50.3834 156.788 50.0696C156.788 50.0696 156.072 50.011 155.347 51.8079L153.758 54.0594L154.553 54.4757C154.358 55.332 154.273 56.2762 154.393 57.2771C154.427 57.5653 154.635 57.8078 154.923 57.8965C155.162 57.9706 155.483 58.0493 155.863 58.0914L155.607 61.1325C155.495 62.4637 154.766 63.6759 153.624 64.4426C153.607 64.4545 153.589 64.4664 153.571 64.4774C152.934 64.9028 153.232 65.8561 154.008 65.8827C156.342 65.9613 160.059 65.8827 164.091 65.0016C164.091 65.0016 162.79 64.3209 161.616 63.5762V63.5771Z" fill="white"/>
<path d="M155.422 66.2102C154.909 66.2102 154.432 66.2011 153.997 66.1864C153.504 66.17 153.095 65.8662 152.956 65.4142C152.817 64.9641 152.987 64.4984 153.391 64.2295L153.443 64.1938C154.513 63.4756 155.186 62.3503 155.291 61.1087L155.524 58.3512C155.286 58.311 155.051 58.2561 154.826 58.1856C154.421 58.0603 154.127 57.7181 154.079 57.3128C153.974 56.4382 154.013 55.5388 154.195 54.6349L153.607 54.3257C153.528 54.2845 153.472 54.2141 153.451 54.1308C153.43 54.0475 153.446 53.9606 153.496 53.8902L155.065 51.667C155.833 49.7869 156.658 49.7521 156.816 49.7686C156.83 49.7695 156.844 49.7713 156.859 49.775C157.725 49.9625 158.226 50.4904 158.628 50.914C158.955 51.2599 159.17 51.473 159.426 51.473C159.443 51.473 159.469 51.473 159.49 51.473C160.602 51.473 161.359 51.763 161.741 52.3367C162.141 52.935 162.004 53.6679 161.868 54.0905C162.144 54.1765 162.502 54.3412 162.708 54.6441C162.874 54.8883 162.913 55.1811 162.82 55.4922C162.543 56.4199 161.183 56.5242 160.582 56.5242C160.571 56.5242 160.562 56.5242 160.552 56.5242L160.449 60.8507C160.425 61.8525 160.927 62.7775 161.791 63.3255C162.939 64.0547 164.23 64.7308 164.243 64.7381C164.359 64.7985 164.423 64.9211 164.404 65.0455C164.386 65.17 164.29 65.2715 164.162 65.299C160.855 66.0217 157.759 66.2111 155.422 66.2111V66.2102ZM154.215 53.9533L154.705 54.2104C154.828 54.2754 154.892 54.4099 154.861 54.5407C154.653 55.4538 154.601 56.3632 154.706 57.2424C154.727 57.4116 154.85 57.5553 155.02 57.6083C155.302 57.6962 155.597 57.7575 155.898 57.7904C156.067 57.8096 156.191 57.9532 156.177 58.1161L155.921 61.1572C155.802 62.5799 155.03 63.8681 153.804 64.6915L153.749 64.729C153.539 64.8699 153.514 65.0867 153.562 65.2432C153.61 65.4005 153.756 65.5725 154.018 65.5817C156.23 65.6567 159.558 65.5862 163.211 64.8754C162.724 64.6055 162.063 64.2258 161.44 63.8315C160.394 63.1682 159.786 62.0483 159.814 60.8379L159.922 56.2945C159.924 56.2122 159.962 56.1344 160.025 56.0786L160.118 55.9945C160.182 55.9368 160.268 55.9085 160.356 55.913C160.783 55.9386 162.041 55.8883 162.209 55.3266C162.266 55.139 162.217 55.0375 162.177 54.9771C162.015 54.7383 161.552 54.6258 161.403 54.6056C161.303 54.5919 161.215 54.5334 161.169 54.4492C161.121 54.3641 161.118 54.2626 161.161 54.1756C161.165 54.1674 161.603 53.2562 161.205 52.6624C160.94 52.2681 160.34 52.0723 159.435 52.0805H159.425C158.876 52.0805 158.511 51.6953 158.157 51.323C157.789 50.9351 157.409 50.5334 156.766 50.3788C156.664 50.4044 156.177 50.5947 155.642 51.9195C155.633 51.9405 155.622 51.9607 155.609 51.9799L154.214 53.9551L154.215 53.9533Z" fill="#12123D"/>
<path d="M155.862 58.0913C155.862 58.0913 157.946 58.1609 158.773 57.0758L155.862 58.0913Z" fill="white"/>
<path d="M155.946 58.396C155.894 58.396 155.86 58.3951 155.85 58.3942C155.675 58.3887 155.539 58.2478 155.545 58.0813C155.551 57.9139 155.701 57.7785 155.872 57.7886C155.892 57.7886 157.799 57.8389 158.517 56.8974C158.62 56.762 158.818 56.7328 158.96 56.8316C159.101 56.9304 159.132 57.1198 159.028 57.2552C158.209 58.3283 156.39 58.396 155.946 58.396Z" fill="#12123D"/>
<path d="M117.128 90.8521H137.065L122.286 69.0913C121.824 68.4115 121.019 67.9989 120.154 67.9989H103.975C102.948 67.9989 102.323 69.052 102.871 69.8598L117.129 90.8521H117.128Z" fill="#12123D"/>
<path d="M112.874 75.6292C113.522 76.5825 114.916 77.3565 115.986 77.3565C117.056 77.3565 117.399 76.5834 116.752 75.6292C116.104 74.6749 114.71 73.9019 113.64 73.9019C112.57 73.9019 112.227 74.6749 112.874 75.6292Z" fill="#6A6ACF"/>
<path d="M119.116 92.6692H152.308C153.446 92.6692 154.368 91.7863 154.368 90.6967H117.056C117.056 91.7863 117.978 92.6692 119.116 92.6692Z" fill="#12123D"/>
<path d="M135.285 91.1751H118.164C117.989 91.1751 117.848 91.0397 117.848 90.8723C117.848 90.7049 117.989 90.5695 118.164 90.5695H135.285C135.46 90.5695 135.602 90.7049 135.602 90.8723C135.602 91.0397 135.46 91.1751 135.285 91.1751Z" fill="white"/>
</g>
<defs>
<clipPath id="clip0_434_9688">
<rect width="175" height="168" fill="white" transform="translate(0.5)"/>
</clipPath>
</defs>
</svg>
