<svg width="168" height="167" viewBox="0 0 168 167" fill="none" xmlns="http://www.w3.org/2000/svg">
<g clip-path="url(#clip0_434_9841)">
<path d="M165.971 127.487C165.971 127.487 165.969 127.494 165.969 127.497C165.21 130.818 163.901 133.989 162.108 136.987C151.953 154 126.336 165.427 98.3127 166.848C96.53 166.939 94.7373 166.989 92.9391 166.997C85.4735 167.033 77.8965 166.351 70.45 164.869C69.0324 164.585 67.6267 164.265 66.2347 163.906C64.1983 163.385 62.192 162.783 60.2168 162.104C59.0046 161.689 57.8015 161.244 56.614 160.771C54.4106 159.901 52.2518 158.934 50.1369 157.877C50.0402 157.828 49.9416 157.78 49.8448 157.73C49.6677 157.643 49.4925 157.553 49.3172 157.464C35.5616 150.417 23.8232 139.675 15.3079 127.065C14.7237 126.201 14.1559 125.327 13.6019 124.445C13.5936 124.433 13.5854 124.418 13.5772 124.406C3.61784 108.521 -1.29841 89.9762 1.10039 72.2149C1.44268 69.6715 1.9365 67.1446 2.5864 64.6415C2.60648 64.563 2.62656 64.4863 2.64664 64.4079C2.86845 63.5619 3.10577 62.7306 3.35953 61.9074C4.93042 56.8171 7.07546 52.1539 9.62304 47.8968C14.8149 39.2118 21.6809 32.1987 28.7568 26.623C42.0515 16.1403 56.0819 10.7215 61.1268 8.77221C100.032 -6.25505 152.169 -1.86195 163.681 21.0636C165.707 25.1026 166.188 29.1398 166.337 30.4868C167.036 36.7871 165.569 42.0006 163.128 46.6776C159.82 53.008 154.722 58.3566 150.772 64.0967C150.502 64.4918 150.236 64.886 149.976 65.2848C147.302 69.3905 145.305 73.738 145.033 78.8164C144.995 79.5373 144.991 80.2418 145.017 80.9226C145.029 81.2028 145.045 81.4784 145.065 81.7521C145.074 81.8552 145.082 81.9556 145.092 82.056C145.106 82.2112 145.122 82.3617 145.14 82.515C145.312 83.9788 145.631 85.3486 146.073 86.6453C146.379 87.5396 146.744 88.3993 147.157 89.2288C147.39 89.7024 147.642 90.1651 147.908 90.6205C149.34 93.0707 151.185 95.2618 153.166 97.3497C153.625 97.8334 154.093 98.3125 154.562 98.7852C160.169 104.448 165.498 108.801 166.491 116.902C166.94 120.568 166.741 124.104 165.969 127.487H165.971Z" fill="#6A6ACF"/>
<path d="M6.00767 75.5916C6.00767 75.5916 0.187768 71.0388 0.646898 68.177C1.4465 63.1935 6.80453 54.0723 13.9982 47.2901C29.8267 32.366 39.5935 33.1472 41.1589 33.0167C42.7244 32.8862 46.7872 40.0544 46.7872 40.0544L6.00767 75.5916Z" fill="#A3A3FC"/>
<path d="M95.4473 16.2738C95.4473 16.2738 95.7594 8.89292 98.3545 7.5989C102.873 5.34668 113.409 4.38849 123.114 6.2848C144.467 10.4571 149.52 18.849 150.537 20.0454C151.555 21.2418 148.093 28.7185 148.093 28.7185L95.4473 16.2738Z" fill="#A3A3FC"/>
<path d="M32.4882 103.266C24.4795 99.5001 18.7627 88.4872 20.0269 85.5998C21.2902 82.7134 45.143 55.4139 47.8084 55.7114C50.4737 56.0089 61.365 61.1494 64.264 66.8894C67.163 72.6295 32.4891 103.265 32.4891 103.265L32.4882 103.266Z" fill="#12123D"/>
<path d="M91.6527 57.5822C90.4086 48.8197 96.5753 38.0095 99.7208 37.4875C102.866 36.9655 139.212 41.9864 140.436 44.3801C141.66 46.7738 143.337 58.7001 140.079 64.2668C136.82 69.8335 91.6527 57.5831 91.6527 57.5831V57.5822Z" fill="#12123D"/>
<path d="M167.5 115.785C167.512 119.762 167 123.699 165.971 127.488C165.971 127.489 165.969 127.494 165.969 127.498C165.073 130.796 163.784 133.983 162.108 136.987C161.18 138.653 160.13 140.264 158.964 141.806C153.19 149.438 145.057 155.031 136.325 158.906C126.339 163.333 115.475 165.905 104.581 166.537C102.508 166.658 100.416 166.767 98.3126 166.849C96.5281 166.922 94.7354 166.974 92.939 166.998C85.4734 167.035 77.8964 166.352 70.4499 164.87C69.0324 164.586 67.6267 164.266 66.2347 163.907C64.1983 163.386 62.192 162.784 60.2167 162.105C59.0045 161.69 57.8015 161.245 56.6139 160.772C54.4105 159.902 52.2518 158.936 50.1368 157.878C50.0401 157.83 49.9415 157.781 49.8447 157.731C49.6677 157.644 49.4924 157.554 49.3172 157.466C35.5615 150.418 23.8231 139.676 15.3078 127.066C14.7236 126.202 14.1559 125.328 13.6018 124.446C13.5936 124.434 13.5854 124.42 13.5771 124.408C15.1499 116.937 17.9074 110.218 21.9455 103.304C22.7333 101.955 23.5666 100.62 24.4411 99.3002C24.5461 99.1387 24.6547 98.9781 24.7633 98.8166C26.1087 96.8208 27.5491 94.8661 29.0899 92.957C29.5791 92.3465 30.0784 91.7423 30.5887 91.1428C32.2947 89.1333 34.1056 87.1804 36.0188 85.2896C39.523 81.82 43.3704 78.5621 47.5254 75.5579C51.7269 72.5218 56.2424 69.7485 61.0419 67.2864C61.606 66.9962 62.1774 66.7106 62.7497 66.4304C64.6108 65.516 66.514 64.6482 68.4536 63.8305C69.9826 63.1881 71.5352 62.5739 73.1098 61.9917C74.2133 61.5847 75.3296 61.1923 76.4551 60.8181C77.1379 60.5909 77.8288 60.3673 78.5198 60.152C80.8319 59.4292 83.1458 58.7886 85.4579 58.2246C85.9371 58.1096 86.4145 57.9974 86.8919 57.8888C88.4527 57.5283 90.0154 57.2062 91.5744 56.9206C109.206 53.6764 126.502 54.9613 141.537 60.0178C143.205 60.5772 144.844 61.1859 146.454 61.8384C147.572 62.291 148.828 62.521 149.763 63.2638C150.107 63.5358 150.443 63.8132 150.774 64.097C165.913 77.0609 167.456 100.754 167.501 115.784L167.5 115.785Z" fill="#A3A3FC"/>
<path d="M82.0996 114.446L99.782 101.17C100.654 100.516 100.823 99.2875 100.161 98.4269L82.3004 75.2212C81.6377 74.3607 80.3945 74.1937 79.5237 74.8471L61.8413 88.1231C60.9696 88.7774 60.8007 90.0057 61.4625 90.8663L79.3229 114.072C79.9856 114.933 81.2288 115.1 82.0996 114.446Z" fill="white"/>
<path d="M80.9025 115.146C80.2134 115.146 79.5315 114.839 79.0824 114.256L61.222 91.0506C60.8532 90.5706 60.6944 89.9775 60.7756 89.3797C60.8578 88.7802 61.1709 88.2481 61.6583 87.8822L79.3407 74.6062C80.3421 73.8542 81.777 74.0477 82.5391 75.0369L100.4 98.2426C100.768 98.7226 100.927 99.3158 100.846 99.9135C100.764 100.514 100.451 101.046 99.9632 101.412L82.2808 114.688C81.8692 114.997 81.3845 115.147 80.9025 115.147V115.146ZM80.72 74.7503C80.3649 74.7503 80.0071 74.8608 79.704 75.0889L62.0216 88.3649C61.6647 88.6332 61.4347 89.0229 61.3744 89.4619C61.3151 89.8981 61.431 90.3315 61.7012 90.6829L79.5616 113.889C80.1221 114.617 81.18 114.759 81.9175 114.205L99.6 100.929C99.9578 100.661 100.187 100.271 100.247 99.8323C100.306 99.3961 100.191 98.9626 99.9203 98.6113L82.0599 75.4056C81.7295 74.9767 81.2275 74.7513 80.72 74.7513V74.7503Z" fill="#12123D"/>
<path d="M77.2139 82.9972L81.7531 79.5897L93.0926 94.3222L88.5534 97.7307L77.2139 82.9972Z" fill="#6A6ACF"/>
<path d="M71.542 87.2562L76.0813 83.8478L90.5498 102.647L86.0105 106.055L71.542 87.2562Z" fill="#6A6ACF"/>
<path d="M65.8701 91.5151L70.4094 88.1067L77.1695 96.8902L72.6302 100.299L65.8701 91.5151Z" fill="#6A6ACF"/>
<path d="M88.0777 99.1771C87.9873 99.1771 87.8979 99.1369 87.8376 99.0593L84.5936 94.8442C84.4923 94.7119 84.5169 94.522 84.6493 94.4208C84.7816 94.3195 84.9715 94.3441 85.0728 94.4764L88.1352 98.4552L92.1907 95.41L85.207 86.3354C85.1057 86.2031 85.1303 86.0133 85.2627 85.912C85.395 85.8107 85.5849 85.8353 85.6862 85.9676L92.857 95.284C92.9063 95.3479 92.9282 95.4291 92.9173 95.5094C92.9063 95.5897 92.8634 95.6618 92.7995 95.7102L88.2603 99.1187C88.2055 99.1597 88.1425 99.1789 88.0786 99.1789L88.0777 99.1771Z" fill="#12123D"/>
<path d="M85.5348 107.501C85.4444 107.501 85.355 107.461 85.2947 107.384L72.5477 90.8224C72.4464 90.6901 72.471 90.5003 72.6034 90.399C72.7357 90.2977 72.9256 90.3224 73.0269 90.4547L85.5914 106.78L89.6469 103.734L79.505 90.5578C79.4036 90.4255 79.4283 90.2357 79.5606 90.1344C79.693 90.0331 79.8828 90.0577 79.9842 90.19L90.3123 103.609C90.3616 103.673 90.3835 103.754 90.3725 103.835C90.3616 103.915 90.3187 103.987 90.2548 104.036L85.7155 107.444C85.6608 107.485 85.5978 107.504 85.5339 107.504L85.5348 107.501Z" fill="#12123D"/>
<path d="M72.1539 101.745C72.0636 101.745 71.9741 101.705 71.9139 101.627L68.0135 96.5598C67.9122 96.4274 67.9369 96.2376 68.0692 96.1363C68.2016 96.035 68.3914 96.0597 68.4927 96.192L72.2105 101.023L76.2669 97.9779L70.9025 91.0086C70.8012 90.8763 70.8258 90.6865 70.9582 90.5852C71.0905 90.4839 71.2804 90.5085 71.3817 90.6408L76.9323 97.8529C76.9816 97.9168 77.0035 97.998 76.9926 98.0783C76.9816 98.1586 76.9387 98.2307 76.8748 98.279L72.3356 101.687C72.2808 101.729 72.2178 101.748 72.1539 101.748V101.745Z" fill="#12123D"/>
<path d="M100.408 161.395C100.707 160.67 105.412 151.682 110.288 142.632C109.223 142.331 91.6795 134.683 74.7428 127.158L62.7188 144.248C62.7188 144.248 79.1215 151.781 100.234 161.469C100.308 161.503 100.379 161.462 100.408 161.394V161.395Z" fill="white"/>
<path d="M100.288 161.785C100.227 161.785 100.167 161.771 100.108 161.745C78.9956 152.057 62.5928 144.523 62.5928 144.523C62.5116 144.486 62.4505 144.414 62.4276 144.327C62.4039 144.241 62.4203 144.148 62.4724 144.074L74.4964 126.985C74.5795 126.867 74.7347 126.824 74.8661 126.883C92.1131 134.545 109.367 142.058 110.371 142.341C110.459 142.365 110.531 142.429 110.567 142.513C110.602 142.597 110.598 142.694 110.555 142.774C105.608 151.956 100.975 160.814 100.688 161.51C100.641 161.622 100.552 161.712 100.442 161.755C100.393 161.774 100.341 161.784 100.289 161.784L100.288 161.785ZM63.1752 144.127C65.584 145.233 80.9106 152.271 100.2 161.123C100.89 159.667 105.494 150.901 109.856 142.799C107.014 141.705 89.7682 134.165 74.847 127.537L63.1752 144.127V144.127Z" fill="#12123D"/>
<path d="M78.5679 149.676C78.514 149.676 78.4602 149.661 78.4109 149.632C78.2685 149.545 78.2229 149.359 78.3096 149.217C78.368 149.121 84.1879 139.555 87.3735 134.609C87.4639 134.469 87.651 134.429 87.7907 134.519C87.9312 134.609 87.9714 134.796 87.881 134.936C84.7 139.875 78.8837 149.434 78.8253 149.53C78.7687 149.623 78.6692 149.675 78.567 149.675L78.5679 149.676Z" fill="#12123D"/>
<path d="M79.4232 143.802C79.3721 143.802 79.32 143.79 79.2726 143.762C79.1283 143.679 79.0781 143.495 79.1612 143.35C80.2556 141.448 81.5983 139.341 82.7831 137.481C83.6512 136.12 84.4699 134.833 85.1116 133.759C85.1974 133.615 85.3827 133.569 85.526 133.654C85.6693 133.74 85.7159 133.925 85.631 134.068C84.9857 135.15 84.1642 136.44 83.2934 137.805C82.1122 139.659 80.7732 141.761 79.6851 143.651C79.6295 143.748 79.5272 143.802 79.4232 143.802Z" fill="#12123D"/>
<path d="M76.465 148.629C76.4102 148.629 76.3546 148.614 76.3043 148.582C76.1629 148.494 76.1209 148.307 76.2094 148.166C76.2094 148.166 77.0976 146.757 78.1354 145.128C78.2248 144.988 78.412 144.946 78.5525 145.036C78.6931 145.126 78.7351 145.313 78.6447 145.453C77.6078 147.081 76.7206 148.488 76.7206 148.489C76.6631 148.581 76.5654 148.631 76.465 148.631V148.629Z" fill="#12123D"/>
<path d="M74.2929 147.517C74.2381 147.517 74.1824 147.502 74.1331 147.471C73.9916 147.383 73.9487 147.196 74.0373 147.055C74.0957 146.962 79.8773 137.727 83.2363 132.707C83.3285 132.569 83.5165 132.531 83.6553 132.624C83.794 132.718 83.8314 132.905 83.7383 133.043C80.3839 138.054 74.6069 147.283 74.5494 147.375C74.4918 147.466 74.3933 147.517 74.2929 147.517Z" fill="#12123D"/>
<path d="M97.6589 158.93C97.6206 158.93 97.5813 158.923 97.543 158.907C97.3887 158.843 97.3157 158.666 97.3796 158.512C99.9025 152.436 104.066 144.709 105.042 142.972C105.125 142.827 105.308 142.775 105.454 142.857C105.599 142.939 105.651 143.123 105.569 143.269C104.596 144.999 100.449 152.696 97.9373 158.745C97.8889 158.861 97.7766 158.931 97.658 158.931L97.6589 158.93Z" fill="#12123D"/>
<path d="M97.8381 152.534C97.7906 152.534 97.7422 152.523 97.6966 152.498C97.5496 152.42 97.493 152.237 97.5715 152.09L102.924 142.02C103.003 141.873 103.185 141.817 103.333 141.895C103.48 141.974 103.537 142.156 103.458 142.304L98.1055 152.373C98.0516 152.476 97.9467 152.534 97.8381 152.534Z" fill="#12123D"/>
<path d="M92.8737 156.585C92.8327 156.585 92.7907 156.577 92.7505 156.558C92.5981 156.49 92.5305 156.311 92.599 156.159C95.2004 150.361 100.773 141.103 100.829 141.01C100.914 140.867 101.101 140.821 101.243 140.907C101.386 140.993 101.432 141.179 101.346 141.321C101.291 141.413 95.7371 150.641 93.1503 156.405C93.1001 156.517 92.9897 156.584 92.8747 156.584L92.8737 156.585Z" fill="#12123D"/>
<path d="M87.7396 154.436C87.6913 154.436 87.6429 154.424 87.5972 154.4C87.4503 154.322 87.3946 154.138 87.4731 153.991C87.4904 153.959 89.2138 150.741 91.6253 146.584C91.7093 146.44 91.8937 146.39 92.0379 146.474C92.1821 146.558 92.2314 146.743 92.1475 146.887C89.7414 151.034 88.0226 154.244 88.0052 154.276C87.9505 154.378 87.8464 154.436 87.7387 154.436H87.7396Z" fill="#12123D"/>
<path d="M88.4337 148.283C88.3845 148.283 88.3343 148.271 88.2877 148.245C88.1417 148.164 88.0887 147.98 88.17 147.834C89.4351 145.55 91.1931 142.627 92.6061 140.278C93.1884 139.31 93.7242 138.419 94.1633 137.676C94.2482 137.533 94.4335 137.486 94.5768 137.571C94.7201 137.655 94.7675 137.841 94.6827 137.984C94.2427 138.728 93.706 139.619 93.1227 140.589C91.7125 142.934 89.9572 145.852 88.6975 148.126C88.6428 148.226 88.5396 148.282 88.4328 148.282L88.4337 148.283Z" fill="#12123D"/>
<path d="M85.612 153.388C85.5618 153.388 85.5097 153.375 85.4632 153.349C85.318 153.267 85.2678 153.082 85.35 152.937C85.3582 152.923 86.2135 151.421 87.3052 149.595C87.391 149.452 87.5763 149.406 87.7196 149.491C87.8629 149.577 87.9094 149.762 87.8236 149.906C86.7356 151.725 85.884 153.221 85.8748 153.237C85.8192 153.334 85.7169 153.389 85.612 153.389V153.388Z" fill="#12123D"/>
<path d="M83.3039 152.145C83.2519 152.145 83.199 152.131 83.1515 152.104C83.0073 152.019 82.9589 151.835 83.0438 151.691C83.1031 151.59 88.9687 141.599 92.1762 136.633C92.2666 136.493 92.4537 136.454 92.5943 136.544C92.7348 136.634 92.775 136.821 92.6837 136.962C89.4835 141.915 83.6234 151.897 83.565 151.996C83.5084 152.092 83.408 152.146 83.3039 152.146V152.145Z" fill="#12123D"/>
<path d="M92.7837 145.413C92.7299 145.413 92.676 145.399 92.6267 145.369C92.4843 145.283 92.4387 145.096 92.5254 144.954L96.2596 138.823C96.3463 138.681 96.5325 138.635 96.6749 138.722C96.8173 138.809 96.8629 138.995 96.7762 139.137L93.042 145.268C92.9854 145.361 92.8859 145.413 92.7837 145.413Z" fill="#12123D"/>
<path d="M70.4257 125.649L67.2693 130.129C67.1443 130.307 67.2264 130.529 67.4546 130.632L103.369 146.827C103.621 146.941 103.982 146.84 104.089 146.625C105.402 143.982 113.317 129.281 115.017 126.126C115.19 125.804 115.052 125.465 114.687 125.318L82.3777 112.334C82.1431 112.24 81.8529 112.305 81.6977 112.487L70.4486 125.62C70.4404 125.63 70.4331 125.64 70.4257 125.65V125.649Z" fill="#FFCB03"/>
<path d="M70.2508 123.182L66.3806 128.253C66.3204 128.325 66.3477 128.439 66.4418 128.502C68.5129 129.893 92.0782 140.314 103.25 145.373C103.306 145.399 103.375 145.37 103.4 145.321L104.019 144.174L70.2517 123.183L70.2508 123.182Z" fill="white"/>
<path d="M103.294 145.683C103.237 145.683 103.179 145.672 103.126 145.648C100.397 144.412 96.9105 142.848 93.2183 141.192C81.332 135.861 67.8602 129.817 66.2738 128.752C66.1515 128.669 66.0703 128.543 66.0511 128.405C66.0338 128.279 66.0703 128.153 66.1506 128.057L70.0117 122.999L70.4918 123.366L66.7129 128.315C68.6918 129.528 82.4054 135.679 93.4656 140.641C97.0875 142.265 100.511 143.801 103.216 145.025L103.753 144.03L104.285 144.316L103.666 145.463C103.594 145.601 103.445 145.683 103.294 145.683ZM103.135 145.176C103.135 145.176 103.133 145.179 103.133 145.18L103.135 145.176ZM66.6271 128.429L66.6207 128.437C66.6207 128.437 66.6252 128.431 66.6271 128.429Z" fill="#12123D"/>
<path d="M104.019 144.173C104.318 143.448 109.024 134.46 113.899 125.41C112.835 125.109 95.2909 117.461 78.3542 109.936L66.3301 127.026C66.3301 127.026 82.7328 134.559 103.845 144.247C103.919 144.281 103.991 144.24 104.019 144.172V144.173Z" fill="white"/>
<path d="M103.898 144.562C103.837 144.562 103.777 144.548 103.719 144.522C82.6059 134.834 66.2032 127.301 66.2032 127.301C66.122 127.263 66.0608 127.191 66.038 127.104C66.0143 127.018 66.0307 126.926 66.0827 126.852L78.1068 109.762C78.1899 109.644 78.345 109.601 78.4765 109.66C95.7235 117.323 112.978 124.835 113.981 125.119C114.07 125.143 114.142 125.207 114.177 125.291C114.213 125.375 114.208 125.472 114.165 125.552C109.218 134.735 104.586 143.592 104.298 144.288C104.252 144.4 104.162 144.49 104.053 144.533C104.003 144.552 103.951 144.562 103.899 144.562H103.898ZM66.7856 126.903C69.1944 128.009 84.5209 135.047 103.811 143.899C104.5 142.444 109.104 133.678 113.466 125.575C110.625 124.481 93.3786 116.941 78.4573 110.313L66.7856 126.904V126.903Z" fill="#12123D"/>
<path d="M83.2202 133.075C83.1664 133.075 83.1125 133.061 83.0632 133.032C82.9208 132.945 82.8752 132.759 82.9619 132.616C83.0203 132.52 88.8402 122.955 92.0259 118.009C92.1162 117.868 92.3033 117.828 92.443 117.918C92.5836 118.009 92.6237 118.196 92.5334 118.336C89.3523 123.274 83.5361 132.833 83.4776 132.929C83.4211 133.022 83.3216 133.074 83.2193 133.074L83.2202 133.075Z" fill="#12123D"/>
<path d="M84.0755 127.202C84.0244 127.202 83.9724 127.189 83.9249 127.162C83.7807 127.079 83.7305 126.894 83.8135 126.749C84.908 124.849 86.2507 122.741 87.4346 120.882C88.3026 119.519 89.1223 118.232 89.7631 117.158C89.8489 117.015 90.0342 116.968 90.1775 117.053C90.3208 117.139 90.3673 117.324 90.2824 117.468C89.6371 118.549 88.8147 119.84 87.9439 121.206C86.7627 123.061 85.4246 125.162 84.3366 127.051C84.2809 127.147 84.1787 127.202 84.0746 127.202H84.0755Z" fill="#12123D"/>
<path d="M81.1173 132.029C81.0626 132.029 81.0069 132.014 80.9567 131.982C80.8152 131.893 80.7732 131.706 80.8618 131.565C80.8618 131.565 81.7499 130.156 82.7877 128.527C82.8772 128.387 83.0643 128.345 83.2049 128.435C83.3454 128.524 83.3874 128.711 83.2971 128.852C82.2602 130.48 81.3729 131.888 81.3729 131.888C81.3154 131.979 81.2178 132.029 81.1173 132.029Z" fill="#12123D"/>
<path d="M78.9452 130.916C78.8904 130.916 78.8348 130.902 78.7855 130.871C78.644 130.782 78.6011 130.596 78.6896 130.454C78.748 130.361 84.5296 121.126 87.8887 116.107C87.9808 115.968 88.1689 115.931 88.3076 116.024C88.4464 116.117 88.4838 116.304 88.3907 116.443C85.0362 121.454 79.2592 130.683 79.2008 130.775C79.1433 130.866 79.0447 130.916 78.9443 130.916H78.9452Z" fill="#12123D"/>
<path d="M92.4799 137.517C92.4315 137.517 92.3831 137.505 92.3375 137.481C92.1905 137.403 92.1348 137.219 92.2133 137.072C92.2307 137.04 93.954 133.822 96.3656 129.665C96.4496 129.521 96.6339 129.472 96.7782 129.555C96.9224 129.639 96.9717 129.824 96.8877 129.968C94.4816 134.116 92.7628 137.325 92.7455 137.357C92.6907 137.459 92.5867 137.517 92.479 137.517H92.4799Z" fill="#12123D"/>
<path d="M93.174 131.364C93.1247 131.364 93.0745 131.352 93.0279 131.326C92.8819 131.245 92.8289 131.061 92.9102 130.915C94.1753 128.631 95.9342 125.707 97.3472 123.358C97.9296 122.39 98.4645 121.5 98.9044 120.757C98.9893 120.614 99.1746 120.567 99.3179 120.652C99.4612 120.736 99.5087 120.922 99.4238 121.065C98.9838 121.809 98.448 122.7 97.8648 123.669C96.4545 126.015 94.6992 128.933 93.4387 131.207C93.3839 131.307 93.2808 131.363 93.174 131.363V131.364Z" fill="#12123D"/>
<path d="M90.3522 136.469C90.302 136.469 90.25 136.456 90.2034 136.43C90.0583 136.348 90.0081 136.163 90.0902 136.018C90.0984 136.004 90.9537 134.502 92.0454 132.676C92.1312 132.533 92.3165 132.487 92.4598 132.572C92.6031 132.658 92.6497 132.843 92.5639 132.987C91.4758 134.806 90.6242 136.302 90.6151 136.318C90.5594 136.415 90.4572 136.47 90.3522 136.47V136.469Z" fill="#12123D"/>
<path d="M88.0442 135.226C87.9922 135.226 87.9392 135.213 87.8917 135.185C87.7475 135.1 87.6992 134.916 87.784 134.772C87.8434 134.671 93.7089 124.68 96.9164 119.714C97.0068 119.574 97.1939 119.535 97.3345 119.625C97.4751 119.715 97.5152 119.902 97.4239 120.043C94.2237 124.996 88.3637 134.978 88.3052 135.077C88.2486 135.173 88.1482 135.227 88.0442 135.227V135.226Z" fill="#12123D"/>
<path d="M102.936 138.813C102.887 138.813 102.838 138.801 102.793 138.776C102.646 138.697 102.591 138.513 102.67 138.366L108.247 128.048C108.327 127.901 108.51 127.846 108.657 127.926C108.804 128.005 108.859 128.189 108.779 128.335L103.202 138.654C103.148 138.755 103.044 138.813 102.936 138.813Z" fill="#12123D"/>
<path d="M97.5239 128.494C97.4701 128.494 97.4162 128.48 97.3669 128.45C97.2246 128.364 97.1789 128.178 97.2656 128.035L101 121.905C101.087 121.762 101.273 121.717 101.415 121.803C101.558 121.89 101.603 122.076 101.516 122.218L97.7823 128.349C97.7257 128.442 97.6262 128.494 97.5239 128.494Z" fill="#12123D"/>
<path d="M102.95 127.322C103.08 127.39 103.205 127.396 103.325 127.343C103.444 127.289 103.603 127.162 103.801 126.963C103.999 126.764 104.18 126.618 104.344 126.524C104.657 126.345 104.95 126.327 105.223 126.469C105.463 126.594 105.609 126.793 105.661 127.067C105.713 127.341 105.657 127.631 105.493 127.939C105.383 128.144 105.248 128.306 105.087 128.426C104.925 128.546 104.75 128.615 104.56 128.633C104.37 128.651 104.189 128.616 104.019 128.526L104.29 128.018C104.445 128.099 104.592 128.114 104.731 128.063C104.869 128.013 104.987 127.898 105.082 127.719C105.171 127.552 105.204 127.405 105.181 127.275C105.159 127.145 105.082 127.047 104.953 126.979C104.845 126.923 104.727 126.925 104.601 126.987C104.475 127.049 104.317 127.176 104.126 127.368C103.936 127.561 103.759 127.704 103.598 127.796C103.436 127.889 103.281 127.938 103.133 127.943C102.985 127.949 102.835 127.911 102.682 127.832C102.435 127.703 102.288 127.506 102.241 127.242C102.195 126.978 102.258 126.686 102.429 126.365C102.543 126.153 102.687 125.978 102.861 125.841C103.036 125.704 103.22 125.623 103.413 125.598C103.605 125.572 103.795 125.608 103.981 125.704L103.709 126.215C103.54 126.127 103.381 126.113 103.229 126.175C103.078 126.237 102.947 126.372 102.837 126.577C102.743 126.754 102.708 126.906 102.732 127.034C102.757 127.162 102.83 127.256 102.95 127.319V127.322Z" fill="#FFCB03"/>
<path d="M101.178 130.565L103.174 132.182L102.904 132.687L100.294 130.462L100.554 129.974L103.022 130.546L101.157 128.845L101.419 128.355L104.753 129.225L104.483 129.731L102.006 129.023L103.94 130.746L103.711 131.174L101.178 130.562L101.178 130.565Z" fill="#FFCB03"/>
<path d="M99.8894 134.589C99.5983 134.438 99.3691 134.254 99.203 134.041C99.036 133.827 98.9438 133.596 98.9246 133.351C98.9055 133.104 98.9602 132.862 99.0889 132.621C99.2158 132.383 99.3883 132.202 99.6056 132.077C99.8228 131.952 100.067 131.895 100.339 131.907C100.611 131.919 100.89 131.998 101.175 132.145L101.342 132.233C101.632 132.384 101.86 132.568 102.028 132.785C102.196 133.002 102.289 133.234 102.308 133.48C102.327 133.726 102.273 133.969 102.145 134.208C102.017 134.447 101.846 134.628 101.631 134.753C101.417 134.877 101.173 134.932 100.9 134.92C100.628 134.907 100.346 134.826 100.056 134.676L99.8903 134.59L99.8894 134.589ZM100.317 134.16C100.646 134.332 100.931 134.402 101.173 134.37C101.414 134.338 101.595 134.21 101.716 133.984C101.834 133.763 101.838 133.546 101.73 133.331C101.621 133.115 101.407 132.923 101.09 132.754L100.918 132.665C100.591 132.495 100.306 132.426 100.06 132.458C99.8146 132.491 99.6329 132.619 99.5134 132.843C99.3929 133.068 99.3874 133.287 99.496 133.5C99.6047 133.712 99.8274 133.906 100.162 134.08L100.318 134.161L100.317 134.16Z" fill="#FFCB03"/>
<path d="M99.7247 137.645L100.213 136.729L97.6572 135.398L97.9274 134.892L100.483 136.224L100.968 135.317L101.384 135.534L100.141 137.863L99.7247 137.645V137.645Z" fill="#FFCB03"/>
<path d="M85.9608 48.9164C84.9248 49.3361 85.7381 73.0273 86.0329 74.5048C86.3277 75.9831 88.4554 78.7747 88.6709 80.1663C88.8863 81.558 89.4002 87.1986 88.8315 87.9323C88.2628 88.666 86.9676 87.0362 86.7102 86.3709C86.4784 85.7713 86.0284 83.76 85.9407 83.3676C85.9371 83.353 85.9161 83.3521 85.9124 83.3667C85.8166 83.8376 85.2342 86.7113 85.0489 87.6905C84.8472 88.7582 84.7879 92.8757 82.756 93.5017C80.7242 94.1277 82.8071 86.7697 82.2476 85.8078C81.6881 84.846 78.3738 86.5908 76.4231 82.7051C75.3324 80.5323 78.047 76.6986 78.0452 74.6207C78.0433 72.5428 73.7441 44.5725 76.09 40.3145C78.4367 36.0565 86.9941 48.4957 85.9581 48.9155L85.9608 48.9164Z" fill="white"/>
<path d="M82.5293 93.8412C82.2965 93.8412 82.1304 93.7509 82.0217 93.6596C81.3353 93.0829 81.4978 91.3417 81.8255 88.7518C81.967 87.6276 82.1441 86.2295 81.988 85.9603C81.8857 85.7842 81.4166 85.7641 80.92 85.7422C79.5737 85.6838 77.5382 85.5962 76.1553 82.8411C75.4324 81.4011 76.2164 79.3606 76.9083 77.561C77.3392 76.4395 77.7463 75.3809 77.7454 74.6226C77.7454 74.1644 77.5172 72.3138 77.2013 69.7504C76.0731 60.59 73.9728 43.5377 75.8285 40.1704C76.2931 39.3281 77.0279 38.9858 77.9526 39.1802C81.1455 39.8519 86.2041 47.0584 86.3465 48.6554C86.3739 48.9639 86.2351 49.1053 86.1338 49.1674C85.8673 49.6529 85.6455 53.1827 85.808 61.7015C85.923 67.7327 86.1913 73.7501 86.3301 74.4464C86.4661 75.1281 87.053 76.1694 87.6208 77.1759C88.2542 78.2993 88.853 79.3606 88.9708 80.1208C89.073 80.7806 89.8005 87.1777 89.0712 88.1176C88.8913 88.3494 88.6349 88.4534 88.3473 88.4115C87.5286 88.2919 86.6322 87.0034 86.4296 86.4805C86.299 86.1437 86.1101 85.4118 85.9467 84.7311C85.7349 85.7796 85.4638 87.1339 85.3479 87.7462C85.316 87.9159 85.2859 88.187 85.2503 88.4991C85.0659 90.1463 84.7227 93.2116 82.8469 93.7901C82.7301 93.8266 82.6242 93.8412 82.5293 93.8412ZM77.4642 39.7296C76.9859 39.7296 76.6263 39.9705 76.3561 40.4606C74.5944 43.6573 76.7595 61.2306 77.7992 69.6755C78.1296 72.3557 78.3478 74.1261 78.3478 74.6207C78.3487 75.4913 77.9224 76.6019 77.4706 77.7764C76.8234 79.4601 76.0905 81.3673 76.6938 82.5692C77.9179 85.0067 79.6668 85.0824 80.9447 85.1381C81.6402 85.1682 82.2399 85.1937 82.5092 85.6555C82.7565 86.0798 82.6443 87.0855 82.4243 88.8267C82.2253 90.4045 81.9241 92.7891 82.4097 93.197C82.4343 93.218 82.4927 93.2672 82.668 93.2125C84.1659 92.7507 84.4799 89.9409 84.6487 88.4315C84.6871 88.093 84.7163 87.8256 84.7528 87.633C84.9353 86.6657 85.504 83.8587 85.6163 83.3056L85.6647 83.0665L85.9221 83.0538C85.9221 83.0538 85.9239 83.0538 85.9248 83.0538C86.0718 83.0538 86.2014 83.1569 86.2342 83.3002C86.4752 84.3861 86.8166 85.8125 86.99 86.2614C87.1917 86.7834 87.9804 87.7471 88.4313 87.8128C88.5034 87.8238 88.5436 87.8064 88.5901 87.7471C89.021 87.1914 88.6467 81.9979 88.3701 80.212C88.2688 79.5605 87.67 78.4982 87.0913 77.4716C86.4734 76.3747 85.8892 75.3398 85.734 74.5632C85.5843 73.8122 85.305 67.5529 85.1927 61.3182C84.9938 50.2661 85.4301 48.9365 85.7422 48.691C85.7048 48.2685 84.8687 46.5967 83.139 44.3645C81.2596 41.9398 79.4285 40.2954 78.1159 39.85C77.8768 39.7688 77.6596 39.7278 77.4624 39.7278L77.4642 39.7296ZM86.0754 49.1957C86.0754 49.1957 86.0745 49.1957 86.0736 49.1957H86.0754Z" fill="#12123D"/>
<path d="M165.485 63.2018C165.216 64.6592 163.265 66.8183 160.484 69.1983C156.594 72.5246 151.081 76.2844 146.276 79.1654C145.783 79.461 145.296 79.7494 144.819 80.025C144.617 80.1418 144.415 80.2586 144.217 80.3718C141.716 81.799 139.53 82.9051 138.049 83.4663C138.009 83.4827 137.971 83.4964 137.933 83.511C137.894 83.5256 137.855 83.5393 137.819 83.5512C137.065 83.8213 136.52 83.9335 136.24 83.8532C135.914 83.7611 135.604 83.6278 135.307 83.4645C135.153 83.3796 135.003 83.2856 134.858 83.1825C134.11 82.6605 133.462 81.9259 132.916 81.0763C132.608 80.599 132.333 80.0852 132.088 79.5541C131.908 79.1635 131.746 78.7611 131.599 78.3559C131.582 78.3075 131.566 78.261 131.55 78.2154C131.543 78.199 131.538 78.1853 131.533 78.1716C131.521 78.1378 131.508 78.1031 131.498 78.0694C131.381 77.7253 131.277 77.3785 131.183 77.0363C130.596 74.8735 140.929 66.5655 146.452 61.8403C148.441 60.1383 149.805 58.9 149.813 58.5824C149.842 57.376 146.937 49.3718 146.937 49.3718C146.937 49.3718 145 50.4815 141.857 51.7399C136.829 53.7576 128.718 56.1613 120.524 55.0261C108.374 53.3406 99.6825 46.6296 96.1217 40.7362C95.7794 40.1686 95.4837 39.6083 95.2372 39.0625C95.2372 39.0625 89.9997 46.5593 87.5069 48.4072C85.9716 49.5452 86.375 53.2758 86.8907 57.8916C87.1883 60.5654 87.5251 63.5376 87.5415 66.4734C87.5498 67.9253 86.8296 69.0103 85.7452 69.786C83.56 71.3529 79.8897 71.665 77.6798 71.1831C77.1294 71.0663 76.6685 70.8975 76.3444 70.6876C74.9178 69.7595 73.8206 66.2881 73.1086 61.9954C71.9996 55.3263 71.8179 46.6798 72.7599 42.5321C74.0461 36.8614 83.0899 23.3791 94.5901 15.8824C96.914 14.3639 99.3402 13.0918 101.823 12.1792C103.566 11.5386 105.829 11.1845 108.444 11.0878C114.733 10.8523 123.06 12.0971 131.053 14.384C138.266 16.4482 145.209 19.3638 150.149 22.8088C153.048 24.8301 155.256 27.0349 156.428 29.3574C158.126 32.7284 160.958 38.4046 163.074 44.673C165.147 50.821 166.532 57.5357 165.484 63.2045L165.485 63.2018Z" fill="#FFCB03"/>
<path d="M146.937 49.673C146.88 49.673 146.821 49.6566 146.769 49.6219C146.631 49.5288 146.594 49.3408 146.687 49.203C150.56 43.4429 152.093 37.7421 153.211 33.5789C153.344 33.0825 153.471 32.6116 153.594 32.169C153.639 32.0084 153.806 31.9144 153.967 31.9591C154.127 32.0038 154.221 32.1708 154.177 32.3315C154.054 32.7722 153.928 33.2413 153.795 33.7359C152.665 37.9401 151.118 43.6966 147.189 49.5398C147.131 49.6265 147.036 49.673 146.938 49.673H146.937Z" fill="#12123D"/>
<path d="M95.1847 38.8973C95.0669 38.8973 94.9547 38.828 94.9063 38.7121C92.1743 32.1872 92.7412 22.5797 93.444 18.9486C93.476 18.7852 93.6348 18.6775 93.7982 18.7095C93.9616 18.7414 94.0693 18.8993 94.0373 19.0635C93.3464 22.6353 92.785 32.0813 95.464 38.4784C95.5288 38.6327 95.4558 38.8097 95.3015 38.8736C95.2632 38.8891 95.2239 38.8973 95.1847 38.8973Z" fill="#12123D"/>
<path d="M151.942 38.985C151.869 38.985 151.796 38.9594 151.739 38.9065C146.916 34.5344 138.305 32.2091 138.218 32.1863C138.056 32.1434 137.961 31.9783 138.003 31.8167C138.046 31.6552 138.211 31.5594 138.373 31.6023C138.461 31.626 147.213 33.9896 152.144 38.4593C152.267 38.5716 152.277 38.7623 152.165 38.8855C152.106 38.9512 152.024 38.985 151.942 38.985Z" fill="#12123D"/>
<path d="M93.1893 28.3043C93.046 28.3043 92.9192 28.2021 92.8927 28.0561C92.8626 27.8918 92.9721 27.7348 93.1355 27.7047C93.2907 27.6764 96.9746 27.013 99.1653 27.0614C99.3324 27.065 99.4647 27.2037 99.4602 27.3698C99.4565 27.5368 99.3132 27.6728 99.1516 27.6646C97.0175 27.6162 93.2806 28.2915 93.2432 28.2988C93.2249 28.3025 93.2067 28.3034 93.1884 28.3034L93.1893 28.3043Z" fill="#12123D"/>
<path d="M125.42 82.5401C125.022 82.7089 126.17 84.4975 125.74 84.4108C124.03 84.0677 122.426 83.1031 121.235 83.7246C119.894 84.4254 121.823 88.3796 125.834 89.1617C127.929 89.5705 128.978 89.158 129.398 88.9728C134.109 86.8948 133.472 84.1544 136.081 83.0657C139.642 81.58 137.622 74.9521 131.235 78.4718C130.263 79.0075 129.579 81.6412 128.518 81.8748C127.48 82.1039 126.187 82.2143 125.42 82.5392V82.5401Z" fill="white"/>
<path d="M127.5 89.6389C127.02 89.6389 126.45 89.5896 125.776 89.4582C122.563 88.8313 120.748 86.3482 120.533 84.8671C120.437 84.2073 120.642 83.6935 121.095 83.4572C122.028 82.9699 123.121 83.3194 124.279 83.6899C124.661 83.8122 125.055 83.9381 125.451 84.0366C125.414 83.9363 125.37 83.8286 125.335 83.7401C125.083 83.1131 124.822 82.4652 125.303 82.2617C125.837 82.0363 126.562 81.9149 127.329 81.7872C127.708 81.7242 128.101 81.6585 128.454 81.5809C128.895 81.4833 129.349 80.672 129.751 79.9556C130.172 79.2046 130.569 78.4964 131.091 78.2081C134.073 76.5645 135.868 77.2024 136.672 77.7281C137.675 78.3842 138.229 79.545 138.117 80.7569C138.009 81.9213 137.293 82.8886 136.199 83.3449C135.162 83.7775 134.687 84.4802 134.087 85.369C133.285 86.5544 132.289 88.0291 129.521 89.2501C129.265 89.3633 128.638 89.6389 127.501 89.6389H127.5ZM122.139 83.8213C121.862 83.8213 121.606 83.8706 121.375 83.9919C121.084 84.1434 121.097 84.5504 121.131 84.7795C121.329 86.141 123.093 88.3184 125.892 88.865C127.973 89.2711 128.953 88.8386 129.276 88.6962C131.884 87.5455 132.787 86.2095 133.585 85.0295C134.19 84.1343 134.761 83.2893 135.965 82.7864C136.862 82.4123 137.426 81.6521 137.514 80.7003C137.606 79.712 137.156 78.7666 136.34 78.2327C135.147 77.4525 133.387 77.6313 131.382 78.7355C131.012 78.94 130.638 79.6052 130.279 80.2495C129.77 81.1566 129.291 82.0135 128.585 82.1695C128.217 82.2507 127.816 82.3174 127.429 82.3822C126.78 82.4908 126.11 82.6021 125.643 82.7764C125.671 82.9516 125.814 83.3084 125.896 83.5137C126.109 84.043 126.238 84.3624 126.053 84.5851C125.964 84.6919 125.83 84.7357 125.682 84.7065C125.134 84.596 124.606 84.4272 124.096 84.2639C123.369 84.0321 122.71 83.8204 122.139 83.8204L122.139 83.8213Z" fill="#12123D"/>
<path d="M141.286 89.7083L142.715 84.9584L140.345 84.4026C140.214 84.3716 140.077 84.3725 139.947 84.4026L139.71 84.4592C139.413 84.5304 139.098 84.4373 138.892 84.2192C138.779 84.1005 138.633 84.0166 138.471 83.9783L120.858 79.8316C120.713 79.7978 120.563 79.7823 120.414 79.7859L115.832 79.9128L119.483 82.3083C119.682 82.4388 119.898 82.5437 120.125 82.6194L137.218 88.3449C137.364 88.3942 137.521 88.4024 137.671 88.3705L137.709 88.3622C137.998 88.3011 138.3 88.3924 138.502 88.6022L138.603 88.7081C138.696 88.8048 138.813 88.8788 138.943 88.9226L141.284 89.7074L141.286 89.7083Z" fill="white"/>
<path d="M141.286 90.0103C141.254 90.0103 141.221 90.0048 141.19 89.9948L138.849 89.21C138.673 89.1516 138.514 89.0503 138.387 88.9189L138.285 88.813C138.157 88.6788 137.961 88.6195 137.773 88.6597L137.735 88.6679C137.532 88.7108 137.321 88.6989 137.123 88.6332L120.031 82.9078C119.779 82.8238 119.54 82.707 119.319 82.5628L115.668 80.1673C115.557 80.0952 115.507 79.9593 115.543 79.8324C115.578 79.7056 115.693 79.617 115.825 79.6134L120.407 79.4866C120.582 79.482 120.757 79.4993 120.928 79.5395L138.541 83.6862C138.761 83.7382 138.958 83.8514 139.112 84.0138C139.245 84.1543 139.447 84.2137 139.641 84.1671L139.877 84.1105C140.053 84.0686 140.238 84.0686 140.414 84.1105L142.785 84.6663C142.866 84.6855 142.935 84.7375 142.977 84.8096C143.019 84.8817 143.029 84.9674 143.005 85.0477L141.575 89.7977C141.551 89.8761 141.498 89.9409 141.425 89.9793C141.381 90.0021 141.333 90.013 141.286 90.013V90.0103ZM137.887 88.0437C138.199 88.0437 138.504 88.1687 138.721 88.395L138.823 88.5009C138.882 88.563 138.957 88.6095 139.04 88.6378L141.087 89.3231L142.334 85.1801L140.276 84.6973C140.191 84.6772 140.102 84.6772 140.017 84.6973L139.781 84.7539C139.377 84.8497 138.953 84.7238 138.672 84.4272C138.6 84.3514 138.507 84.2976 138.403 84.273L120.79 80.1263C120.671 80.098 120.546 80.0852 120.424 80.0888L116.803 80.1892L119.65 82.0573C119.827 82.1732 120.02 82.2662 120.222 82.3347L137.315 88.0601C137.41 88.0921 137.512 88.0975 137.61 88.0766L137.648 88.0683C137.728 88.0519 137.808 88.0437 137.887 88.0437H137.887Z" fill="#12123D"/>
<path d="M120 81.9943C119.967 81.9943 119.933 81.9888 119.9 81.977C119.742 81.9222 119.659 81.7497 119.714 81.5928L120.361 79.7348C120.416 79.5778 120.588 79.4939 120.746 79.5486C120.903 79.6034 120.987 79.7758 120.932 79.9328L120.285 81.7908C120.241 81.9158 120.124 81.9934 119.999 81.9934L120 81.9943Z" fill="#12123D"/>
<path d="M146.721 86.0168L142.637 84.9218L141.258 89.7136L145.342 90.8087C146.09 91.0095 146.864 90.5897 147.07 89.8715L147.701 87.6804C147.907 86.9623 147.468 86.2176 146.721 86.0168Z" fill="#FFCB03"/>
<path d="M145.719 91.161C145.568 91.161 145.416 91.1419 145.263 91.1008L141.179 90.0057C141.101 89.9847 141.034 89.9327 140.995 89.8624C140.955 89.7922 140.946 89.7082 140.968 89.6306L142.347 84.8387C142.393 84.6809 142.556 84.5878 142.716 84.6307L146.799 85.7258C147.249 85.8462 147.621 86.1309 147.845 86.5279C148.06 86.9085 148.112 87.3474 147.992 87.7644L147.361 89.9564C147.152 90.6837 146.464 91.1619 145.719 91.1619V91.161ZM141.633 89.502L145.42 90.5177C146.009 90.6755 146.62 90.3488 146.78 89.7894L147.411 87.5974C147.486 87.3374 147.453 87.0636 147.319 86.8254C147.175 86.5708 146.935 86.3883 146.642 86.3098L142.845 85.2914L141.633 89.5029V89.502Z" fill="#12123D"/>
<path d="M140.589 88.7245C140.562 88.7245 140.536 88.7208 140.509 88.7135C140.348 88.6697 140.253 88.5036 140.297 88.3421L141.063 85.5423C141.106 85.3817 141.273 85.2868 141.434 85.3306C141.595 85.3744 141.69 85.5405 141.646 85.702L140.88 88.5018C140.844 88.636 140.721 88.7245 140.589 88.7245Z" fill="#12123D"/>
<path d="M138.363 87.8731C138.336 87.8731 138.309 87.8695 138.282 87.8621C138.122 87.8174 138.027 87.6513 138.072 87.4907L138.7 85.2148C138.743 85.0542 138.91 84.9593 139.071 85.004C139.232 85.0487 139.327 85.2148 139.282 85.3754L138.654 87.6513C138.617 87.7855 138.495 87.8731 138.363 87.8731Z" fill="#12123D"/>
<path d="M137.279 85.1563C137.254 85.1563 137.23 85.1536 137.205 85.1472L132.014 83.8477C131.853 83.8075 131.754 83.6433 131.794 83.4818C131.834 83.3202 131.999 83.2208 132.16 83.2618L137.351 84.5613C137.513 84.6015 137.611 84.7657 137.571 84.9273C137.536 85.0641 137.413 85.1563 137.278 85.1563H137.279Z" fill="#12123D"/>
<path d="M124.445 81.8957C124.421 81.8957 124.396 81.893 124.37 81.8866L121.244 81.0918C121.083 81.0507 120.985 80.8864 121.026 80.7249C121.067 80.5634 121.231 80.4657 121.393 80.5068L124.519 81.3017C124.681 81.3427 124.778 81.507 124.737 81.6685C124.703 81.8054 124.579 81.8967 124.444 81.8967L124.445 81.8957Z" fill="#12123D"/>
<path d="M145.932 89.9282C145.906 89.9282 145.881 89.9246 145.855 89.9182L142.723 89.1023C142.562 89.0604 142.465 88.8952 142.507 88.7336C142.549 88.5721 142.714 88.4754 142.876 88.5174L146.007 89.3332C146.169 89.3752 146.266 89.5404 146.224 89.7019C146.188 89.8379 146.066 89.9282 145.932 89.9282Z" fill="white"/>
<path d="M133.448 78.4674L132.642 78.0266C132.642 78.0266 130.867 77.1496 128.903 77.8979C127.418 78.4637 125.082 79.4438 124.11 80.5407C123.856 80.8273 123.295 81.7061 123.669 82.1779C124.04 82.6469 125.083 82.312 125.967 81.6842C127.114 80.8692 129.782 81.6887 129.782 81.6887L133.448 78.4674Z" fill="white"/>
<path d="M124.314 82.7609C124.26 82.7609 124.207 82.7582 124.155 82.7518C123.856 82.718 123.606 82.5839 123.432 82.3649C122.912 81.7087 123.582 80.6803 123.884 80.3399C124.652 79.473 126.258 78.5823 128.796 77.6159C130.846 76.8347 132.612 77.5173 132.687 77.5465C132.842 77.6077 132.918 77.7838 132.857 77.9389C132.795 78.0941 132.62 78.1698 132.465 78.1087C132.449 78.1023 130.835 77.4854 129.012 78.1808C126.602 79.0988 125.03 79.9603 124.338 80.7414C124.076 81.0371 123.698 81.7261 123.908 81.9907C123.982 82.0838 124.086 82.1367 124.225 82.1522C124.572 82.1924 125.064 81.9898 125.537 81.6111C126.709 80.6739 129.058 81.4432 129.157 81.476C129.315 81.529 129.401 81.6996 129.348 81.8584C129.295 82.0163 129.123 82.1021 128.966 82.0491C128.375 81.8529 126.674 81.4751 125.915 82.0829C125.363 82.5246 124.802 82.7618 124.317 82.7618L124.314 82.7609Z" fill="#12123D"/>
<path d="M129.069 82.0646C129.064 82.0646 129.058 82.0646 129.053 82.0646C128.886 82.0618 128.753 81.924 128.756 81.757C128.76 81.59 128.896 81.4577 129.064 81.4604C129.216 81.4632 129.407 81.3099 129.563 81.1867C129.668 81.1036 129.767 81.0242 129.87 80.9768C130.022 80.9065 130.202 80.9722 130.272 81.1237C130.342 81.2752 130.277 81.455 130.125 81.5252C130.087 81.5426 130.007 81.6055 129.938 81.6612C129.723 81.8319 129.428 82.0646 129.068 82.0646H129.069Z" fill="#12123D"/>
<path d="M104.722 32.8105C104.749 34.1246 105.231 37.4117 108.682 39.9049C109.775 40.6942 110.218 41.0437 110.218 41.0437C110.218 41.0437 110.854 43.5323 111.713 43.8946C112.572 44.2569 114.701 42.231 114.701 42.231C114.701 42.231 118.17 42.3104 119.854 42.0056C121.538 41.7017 124.26 39.0799 124.26 39.0799L104.722 32.8105Z" fill="white"/>
<path d="M111.932 44.2358C111.812 44.2358 111.699 44.2158 111.595 44.1729C110.704 43.7978 110.114 41.8248 109.951 41.2198C109.781 41.0884 109.326 40.7425 108.506 40.1503C104.901 37.5467 104.448 34.1547 104.42 32.8178C104.418 32.7201 104.463 32.628 104.541 32.5696C104.62 32.5112 104.721 32.4938 104.814 32.5239L124.352 38.7933C124.454 38.8261 124.53 38.9092 124.554 39.0123C124.578 39.1154 124.546 39.224 124.469 39.2979C124.355 39.4074 121.662 41.9864 119.907 42.303C118.373 42.5804 115.462 42.5467 114.817 42.5348C114.344 42.9738 112.899 44.2358 111.931 44.2358H111.932ZM105.046 33.2321C105.164 34.6749 105.812 37.4591 108.859 39.6602C109.944 40.4441 110.386 40.7927 110.404 40.8073C110.456 40.8484 110.493 40.905 110.509 40.9698C110.758 41.9435 111.332 43.4081 111.829 43.6171C112.247 43.7942 113.537 42.9217 114.492 42.0128C114.549 41.9581 114.627 41.9252 114.707 41.9298C114.742 41.9298 118.165 42.0046 119.799 41.7099C121.02 41.4899 122.882 39.9203 123.673 39.2103L105.045 33.233L105.046 33.2321Z" fill="#12123D"/>
<path d="M102.196 30.3548C102.397 27.8407 99.9561 27.2201 101.649 24.0617C103.342 20.9033 102.097 19.7389 103.417 17.7102C104.737 15.6816 108.003 9.58929 112.055 9.45331C116.107 9.31734 118.972 8.01237 122.652 8.89573C126.334 9.7791 127.586 13.1191 130.455 14.0983C133.324 15.0775 135.151 21.0566 133.738 24.0398C132.786 26.0502 134.195 32.283 131.317 34.1584C128.403 36.0574 128.355 39.6292 125.338 40.0171C123.617 40.2379 118.732 42.1424 115.849 40.143C112.852 38.0642 112.395 39.4932 109.447 38.5579C106.541 37.6353 106.691 36.0519 105.795 34.7753C104.9 33.4986 102.033 32.4053 102.197 30.3539L102.196 30.3548Z" fill="#12123D"/>
<path d="M67.2088 112.519C68.5515 112.83 71.6687 112.124 72.9101 112.468C74.1514 112.812 79.0476 114.503 79.4492 115.247C79.8509 115.991 78.0107 116.446 77.3608 116.409C76.7748 116.375 74.9291 115.992 74.5704 115.916C74.5567 115.914 74.5485 115.931 74.5595 115.939C74.9164 116.195 77.0988 117.751 77.8473 118.271C78.6633 118.837 82.0771 120.43 81.8471 122.339C81.6171 124.248 78.7491 126.973 70.4939 123.509C68.4484 122.65 66.0843 119.919 64.35 119.142C62.6157 118.366 18.3549 102.503 15.6713 98.9744C13.8019 96.516 20.4022 90.5204 24.2076 89.9327C25.8643 89.6772 65.8679 112.208 67.2106 112.519H67.2088Z" fill="white"/>
<path d="M77.276 125.479C75.6101 125.479 73.3711 125.045 70.3753 123.788C69.2508 123.316 68.0669 122.327 66.9223 121.371C65.9346 120.546 65.0027 119.766 64.2241 119.418C63.9101 119.277 62.1128 118.609 59.3927 117.599C39.965 110.382 17.4111 101.764 15.4285 99.1569C14.9539 98.5327 14.9155 97.6777 15.3181 96.683C16.4855 93.7938 21.1124 90.1043 24.1593 89.6343C25.1278 89.4846 34.3989 94.428 53.5281 104.868C60.3301 108.58 66.7543 112.086 67.2773 112.225C67.8925 112.367 68.9769 112.274 70.0248 112.184C71.1986 112.083 72.3086 111.988 72.9895 112.177C73.5783 112.34 79.1955 114.142 79.7131 115.103C79.8445 115.347 79.8363 115.608 79.6893 115.839C79.2813 116.479 77.8565 116.738 77.3417 116.71C77.0359 116.693 76.4225 116.588 75.8319 116.477C76.6005 117.023 77.5653 117.709 78.0171 118.022C78.1467 118.112 78.3603 118.239 78.6086 118.384C79.9194 119.156 82.3592 120.593 82.1447 122.374C82.0315 123.317 81.4145 124.179 80.4533 124.738C79.7551 125.144 78.7364 125.478 77.275 125.478L77.276 125.479ZM24.2378 90.2329C21.4237 90.6682 16.9629 94.2254 15.8785 96.9093C15.5563 97.7069 15.5664 98.3402 15.9096 98.7919C18.04 101.594 48.2358 112.811 59.6036 117.033C62.4323 118.084 64.1392 118.718 64.4714 118.867C65.3258 119.249 66.2897 120.055 67.3102 120.907C68.4201 121.834 69.5684 122.794 70.609 123.23C76.2874 125.613 79.0239 124.87 80.1503 124.216C81.2812 123.559 81.5031 122.659 81.546 122.303C81.713 120.914 79.4949 119.608 78.3028 118.906C78.0345 118.748 77.8218 118.622 77.6739 118.52C76.8743 117.965 74.4847 116.258 74.3824 116.185L74.1825 116.043L74.2775 115.804C74.3368 115.668 74.4865 115.59 74.6316 115.622C74.9913 115.698 76.8159 116.076 77.3773 116.109C77.8729 116.137 78.9682 115.85 79.1809 115.516C79.2065 115.475 79.2129 115.448 79.1828 115.392C78.898 114.863 74.6417 113.263 72.8289 112.76C72.252 112.6 71.1466 112.695 70.0768 112.787C68.9313 112.886 67.8487 112.979 67.1404 112.814C66.6201 112.694 61.7687 110.054 53.2387 105.399C42.1804 99.3641 25.4682 90.243 24.2369 90.2338L24.2378 90.2329Z" fill="#12123D"/>
<path d="M57.9757 40.4331C57.9757 40.4331 65.7754 50.7031 69.2166 62.1705C70.0773 65.0378 72.1001 75.8818 72.6915 77.7462C74.2752 82.7379 77.0373 83.7336 77.4846 85.8306C77.491 85.8598 77.5001 85.8881 77.5019 85.9173C78.0167 92.0078 74.5463 89.6297 73.3314 87.3875C72.4049 85.6782 71.4328 84.0347 70.6761 83.1194C69.6757 81.9093 69.7113 82.8657 70.0089 84.1606C70.1832 84.9172 69.1536 85.3406 68.7556 84.6735C68.0026 83.4114 67.4074 81.7524 67.684 79.857C68.312 75.556 60.7587 64.0312 57.0017 60.7177C53.2447 57.4032 57.9757 40.4331 57.9757 40.4331Z" fill="white"/>
<path d="M76.2089 90.0896C75.0123 90.0896 73.6677 88.6432 73.0662 87.5317C71.9736 85.5149 71.091 84.0959 70.4438 83.312C70.3041 83.1432 70.201 83.0373 70.1271 82.9707C70.1289 83.1468 70.1627 83.4799 70.3032 84.0922C70.4146 84.5777 70.1681 85.0459 69.7044 85.2329C69.2453 85.4173 68.7488 85.2503 68.4968 84.8278C67.5147 83.1806 67.1404 81.4932 67.386 79.8132C68.0003 75.6072 60.5164 64.2201 56.8023 60.944C52.9476 57.5438 57.4896 41.0519 57.6849 40.3519L57.8483 39.7651L58.2162 40.2497C58.2947 40.3528 66.088 50.695 69.5064 62.0829C69.9682 63.6224 70.7395 67.3302 71.4853 70.9157C72.1142 73.9408 72.7084 76.7981 72.9804 77.655C73.8886 80.5195 75.1784 82.0234 76.2144 83.2317C76.9766 84.1205 77.579 84.8232 77.7807 85.7668C77.7935 85.8188 77.8008 85.8544 77.8045 85.8909C78.0117 88.3393 77.6073 89.7328 76.6033 90.0331C76.4755 90.0714 76.344 90.0896 76.2108 90.0896H76.2089ZM70.0057 82.2598C70.3087 82.2598 70.6163 82.5746 70.9084 82.9278C71.5811 83.7409 72.4857 85.1937 73.5965 87.2442C74.2693 88.4863 75.622 89.6945 76.428 89.4545C77.0907 89.2565 77.3727 87.9761 77.2002 85.9429L77.1883 85.8936C77.0186 85.0997 76.4609 84.449 75.7544 83.625C74.7393 82.4405 73.3492 80.8198 72.4035 77.8375C72.1224 76.9514 71.5254 74.0795 70.8929 71.0389C70.1846 67.6322 69.3813 63.7721 68.9267 62.2572C65.9675 52.3987 59.6921 43.3205 58.1039 41.1203C57.3125 44.1601 54.0174 57.6843 57.2002 60.4914C60.9682 63.815 68.6438 75.3708 67.982 79.9008C67.7575 81.4403 68.1043 82.9935 69.0144 84.5193C69.1349 84.7219 69.3329 84.731 69.4781 84.6735C69.6278 84.6133 69.7674 84.4655 69.7136 84.2291C69.4315 83.0017 69.458 82.4815 69.8112 82.3072C69.876 82.2753 69.9408 82.2607 70.0057 82.2607V82.2598Z" fill="#12123D"/>
<path d="M25.7692 87.3894C31.873 88.6715 38.7334 86.3819 47.1456 77.6167C55.5578 68.8514 55.797 59.7687 55.797 59.7687C55.797 59.7687 56.6404 61.6248 57.5203 62.291C58.4003 62.9572 63.1714 42.5868 58.7572 39.8665C53.5187 36.6396 53.4247 37.9373 47.0991 37.5805C34.3448 36.8595 8.53676 57.2938 5.48076 68.3733C1.69819 82.0873 5.34111 92.7023 16.4405 100.871C21.2911 104.441 30.9438 97.0507 32.7894 91.3563C25.6441 88.635 25.7701 87.3894 25.7701 87.3894H25.7692Z" fill="white"/>
<path d="M19.4932 102.107C18.2527 102.107 17.1601 101.774 16.261 101.113C5.00367 92.8292 1.38266 82.0937 5.18897 68.2929C6.64121 63.0265 13.425 55.183 22.4698 48.3113C32.001 41.0701 41.2183 36.9444 47.1158 37.2793C48.8702 37.3779 50.1508 37.3487 51.1804 37.3258C53.927 37.2629 55.0634 37.2373 58.9154 39.61C60.4853 40.5773 61.1325 43.5231 60.8386 48.3652C60.6688 51.1503 60.1695 54.5268 59.4667 57.6287C59.0751 59.3571 58.3294 62.2974 57.7315 62.5721C57.5991 62.6323 57.4522 62.6177 57.3381 62.5319C56.8278 62.145 56.3413 61.4122 55.9999 60.8163C55.6522 63.4728 54.1086 70.7979 47.3641 77.8256C40.8094 84.6553 34.7257 88.0145 28.8702 88.0154C28.0487 88.0154 27.2318 87.9497 26.4185 87.8173C27.0127 88.3704 28.611 89.4417 32.8956 91.0734L33.1639 91.1756L33.0754 91.4484C31.7619 95.503 26.7955 100.17 22.2306 101.639C21.2594 101.952 20.3412 102.107 19.4932 102.107ZM46.4157 37.8634C33.509 37.8634 8.71961 57.7656 5.77132 68.4536C2.03895 81.9842 5.58694 92.5089 16.6188 100.627C18.3248 101.883 20.5119 101.558 22.0453 101.064C26.2733 99.7035 31.0317 95.3041 32.4072 91.5333C25.8389 89 25.4336 87.7005 25.4674 87.3592L25.5011 87.0252L25.8297 87.0946C26.8329 87.3054 27.8442 87.4112 28.862 87.4112C34.5505 87.4112 40.4908 84.1141 46.9269 77.4086C55.1629 68.8268 55.4915 59.8517 55.4943 59.7623L55.5289 58.4527L56.072 59.6454C56.0793 59.6619 56.7922 61.2169 57.5453 61.9187C58.3577 60.5754 60.7473 50.496 60.2279 44.3654C60.039 42.1314 59.4749 40.6649 58.5986 40.1256C54.8982 37.846 53.8896 37.8697 51.1941 37.9309C50.1545 37.9546 48.8592 37.9838 47.082 37.8834C46.8639 37.8716 46.6412 37.8652 46.4157 37.8652V37.8634Z" fill="#12123D"/>
<path d="M55.7978 60.0706C55.6755 60.0706 55.5605 59.9958 55.5148 59.8744C54.5655 57.3475 53.9512 55.2368 53.4081 53.3733C52.5245 50.339 51.8856 48.1461 50.4096 46.31C50.3047 46.1804 50.3256 45.9897 50.4562 45.8857C50.5867 45.7807 50.7766 45.8017 50.8806 45.9322C52.4333 47.8623 53.0859 50.1036 53.9886 53.2054C54.5281 55.0579 55.1397 57.1577 56.0807 59.6627C56.1392 59.8188 56.0607 59.9931 55.9046 60.0515C55.8699 60.0643 55.8334 60.0706 55.7987 60.0706H55.7978Z" fill="#12123D"/>
<path d="M25.6118 87.6603C25.599 87.6603 25.5862 87.6603 25.5735 87.6576C19.1612 86.8409 11.7786 82.0344 9.20818 79.836C9.0813 79.7274 9.06669 79.5367 9.17532 79.4098C9.28394 79.283 9.47471 79.2684 9.60159 79.377C12.1273 81.5379 19.3738 86.2586 25.6501 87.059C25.8153 87.0799 25.9331 87.2314 25.9112 87.3966C25.892 87.549 25.7615 87.6603 25.6118 87.6603Z" fill="#12123D"/>
<path d="M22.3145 77.2963C23.303 77.9798 25.9966 79.387 29.6706 78.1942C30.8335 77.8164 31.3273 77.6796 31.3273 77.6796C31.3273 77.6796 33.5088 78.5465 34.2327 78.1112C34.9556 77.6759 34.5795 75.0322 34.5795 75.0322C34.5795 75.0322 36.4726 72.5345 37.138 71.1383C37.8035 69.742 37.2987 66.3455 37.2987 66.3455L22.3154 77.2981L22.3145 77.2963Z" fill="white"/>
<path d="M26.8203 78.9645C24.5146 78.9645 22.8716 78.0483 22.1432 77.5445C22.0629 77.4888 22.0145 77.3976 22.0127 77.2999C22.0118 77.2023 22.0574 77.1101 22.1368 77.0526L37.1202 66.1C37.206 66.0379 37.3173 66.0243 37.415 66.0653C37.5127 66.1064 37.582 66.1949 37.5976 66.2998C37.6186 66.4422 38.1078 69.8041 37.4104 71.267C36.808 72.5318 35.2599 74.6261 34.8957 75.1134C34.998 75.8955 35.1723 77.8977 34.3882 78.3695C33.6315 78.8248 31.8598 78.207 31.3131 77.9981C31.1195 78.0546 30.6248 78.2025 29.765 78.4817C28.6952 78.8294 27.7094 78.9645 26.8212 78.9645H26.8203ZM22.8488 77.2808C23.9916 77.9643 26.3767 78.9462 29.5779 77.9068C30.7334 77.5317 31.2263 77.3939 31.2464 77.3885C31.3094 77.3711 31.3769 77.3748 31.439 77.3985C32.2879 77.7352 33.6671 78.0984 34.077 77.852C34.4065 77.6531 34.4485 76.2551 34.2805 75.0742C34.2696 74.9948 34.2906 74.9136 34.3389 74.8497C34.3581 74.8251 36.2211 72.3602 36.8655 71.0078C37.3365 70.0186 37.1704 67.8695 37.0627 66.8912L22.8497 77.2808H22.8488Z" fill="#12123D"/>
<path d="M12.7739 52.6971C12.7739 52.6971 -3.32944 24.3263 18.9644 24.8054C33.6684 25.1212 32.8277 23.9512 36.3401 20.0199C38.0507 25.0025 37.1516 37.5795 24.7259 36.761C12.2992 35.9424 16.6085 50.7935 16.6085 50.7935L12.7748 52.6971H12.7739Z" fill="#12123D"/>
<path d="M19.607 49.1519C19.607 49.1519 17.6391 46.6797 14.4398 49.3271C11.2405 51.9744 11.5316 54.6975 12.7164 54.776C13.9012 54.8545 15.8856 50.5983 19.607 49.151V49.1519Z" fill="#FFCB03"/>
<path d="M37.7212 66.4487C39.6134 58.858 34.6981 52.0976 27.3985 49.2787C19.3113 46.1559 12.1167 52.0082 10.2245 59.599C8.33234 67.1897 12.9547 74.8772 20.5472 76.7689C28.1397 78.6607 35.829 74.0394 37.7212 66.4487Z" fill="#12123D"/>
<path d="M92.2289 91.6702L113.946 94.8122C115.016 94.9673 116.009 94.2254 116.164 93.1549L120.339 64.3059C120.494 63.2364 119.752 62.2435 118.681 62.0884L96.9644 58.9464C95.8937 58.7913 94.9015 59.5332 94.7464 60.6036L90.5713 89.4527C90.4161 90.5222 91.1582 91.5151 92.2289 91.6702Z" fill="white"/>
<path d="M114.232 95.1343C114.123 95.1343 114.013 95.1261 113.903 95.1106L92.1861 91.9687C91.5882 91.882 91.0606 91.5689 90.6991 91.0853C90.3377 90.6016 90.1862 90.0066 90.2729 89.4089L94.4479 60.5599C94.5347 59.9621 94.8477 59.4347 95.3315 59.0733C95.8153 58.7119 96.4104 58.5604 97.0083 58.6471L118.725 61.7891C119.323 61.8758 119.851 62.1897 120.212 62.6725C120.574 63.1561 120.725 63.7511 120.638 64.3489L116.463 93.1979C116.377 93.7956 116.063 94.3231 115.58 94.6845C115.185 94.9792 114.716 95.1343 114.232 95.1343ZM96.6815 59.2284C96.3264 59.2284 95.9832 59.3425 95.6939 59.5579C95.3397 59.8225 95.1097 60.2095 95.0467 60.6466L90.8717 89.4956C90.8087 89.9336 90.9191 90.3689 91.1838 90.7239C91.4485 91.078 91.8356 91.3079 92.2728 91.3709L113.99 94.5129C114.428 94.5759 114.863 94.4654 115.218 94.2008C115.572 93.9361 115.802 93.5492 115.866 93.1121L120.041 64.2631C120.104 63.825 119.994 63.3897 119.729 63.0348C119.465 62.6807 119.078 62.4507 118.64 62.3868L96.9234 59.2449C96.8431 59.233 96.7628 59.2275 96.6824 59.2275L96.6815 59.2284Z" fill="#12123D"/>
<path d="M108.664 78.521C107.971 78.6086 107.246 78.656 106.5 78.656C104.904 78.656 103.407 78.4425 102.114 78.0692C102.104 78.0665 102.101 78.0528 102.109 78.0455L106.486 74.2784L108.663 78.521H108.664Z" fill="#FFCB03"/>
<path d="M106.5 74.3123L102.104 78.0593V73.5923L106.537 69.8599L106.5 74.3123Z" fill="#FFCB03"/>
<path d="M108.681 73.8039L108.664 78.521L106.472 74.2557V69.4902L108.681 73.8039Z" fill="#A3A3FC"/>
<path d="M99.7779 69.8808L106.434 72.8184C106.457 72.8284 106.461 72.8585 106.442 72.874L102.091 76.6393C99.4438 75.8691 97.6611 74.4272 97.6611 72.7745C97.6611 71.6694 98.458 70.6583 99.7779 69.8799V69.8808Z" fill="#6A6ACF"/>
<path d="M99.7812 69.8807V66.3975L106.454 69.6772L106.498 72.8639L99.7812 69.8807Z" fill="#A3A3FC"/>
<path d="M99.7879 66.3911C98.5091 67.1431 97.7186 68.1131 97.6639 69.1754L97.6611 72.7764C97.6611 71.6712 98.458 70.6601 99.7779 69.8817L99.7879 66.392V66.3911Z" fill="#FFCB03"/>
<path d="M102.091 76.9422C102.063 76.9422 102.035 76.9386 102.007 76.9304C101.55 76.7971 101.113 76.6429 100.707 76.4713C100.554 76.4066 100.482 76.2295 100.547 76.0753C100.612 75.922 100.79 75.8499 100.943 75.9147C101.281 76.057 101.641 76.1875 102.019 76.3034L105.925 72.9233L99.8011 70.2203C98.6154 70.9558 97.9646 71.8592 97.9646 72.7754C97.9646 73.2609 98.1425 73.7391 98.4921 74.1972C98.5935 74.3295 98.5679 74.5194 98.4355 74.6207C98.3032 74.722 98.1133 74.6964 98.012 74.5641C97.5794 73.9983 97.3594 73.3969 97.3594 72.7754C97.3594 71.6028 98.1635 70.4822 99.6249 69.6207C99.7089 69.5714 99.8111 69.565 99.9006 69.6043L106.557 72.5418C106.662 72.5884 106.735 72.6842 106.753 72.7992C106.77 72.9132 106.728 73.0273 106.641 73.1031L102.288 76.8692C102.233 76.9176 102.162 76.9431 102.09 76.9431L102.091 76.9422Z" fill="#12123D"/>
<path d="M111.762 68.2492C114.544 68.9957 116.663 70.6812 116.677 72.3804L116.675 69.399C116.599 67.7345 114.496 66.0846 111.756 65.3518L111.763 68.2501L111.762 68.2492Z" fill="#A3A3FC"/>
<path d="M107.621 72.2334L111.753 68.2738L111.765 65.3372L107.624 69.2649L107.621 72.2334Z" fill="#6A6ACF"/>
<path d="M109.782 76.8136C109.669 76.8136 109.564 76.7497 109.512 76.6466L107.365 72.3667C107.306 72.2489 107.33 72.1057 107.425 72.0144L111.553 68.032C111.63 67.9581 111.739 67.9298 111.841 67.9581C114.875 68.7721 116.759 70.3928 116.759 72.1887C116.759 74.3926 113.906 76.2935 109.821 76.8118C109.809 76.8136 109.796 76.8145 109.783 76.8145L109.782 76.8136ZM108.005 72.2946L109.956 76.1839C113.56 75.6756 116.154 74.0129 116.154 72.1887C116.154 70.7094 114.509 69.3379 111.849 68.5868L108.005 72.2955V72.2946Z" fill="#12123D"/>
<path d="M99.7783 68.5466C101.399 67.5903 103.809 66.9834 106.5 66.9834C107.998 66.9834 109.408 67.1714 110.645 67.5027L106.516 71.4906L99.7783 68.5466Z" fill="#6A6ACF"/>
<path d="M106.517 71.7926C106.476 71.7926 106.434 71.7844 106.396 71.767L105.282 71.2797C105.128 71.2131 105.059 71.0351 105.126 70.8818C105.192 70.7285 105.37 70.6592 105.524 70.7258L106.453 71.1319L110.043 67.6641C108.936 67.415 107.723 67.2845 106.501 67.2845C104.229 67.2845 102.071 67.7298 100.469 68.5174L102.848 69.5568C103.002 69.6234 103.071 69.8013 103.004 69.9547C102.938 70.1071 102.76 70.1773 102.606 70.1107L99.6589 68.8231C99.5548 68.7774 99.4855 68.678 99.4782 68.5648C99.4709 68.4517 99.5284 68.344 99.626 68.2865C101.355 67.2662 103.86 66.6813 106.501 66.6813C107.972 66.6813 109.432 66.8647 110.724 67.2115C110.829 67.2398 110.911 67.3219 110.938 67.4278C110.966 67.5327 110.934 67.6449 110.856 67.7207L106.727 71.7086C106.67 71.7643 106.594 71.7935 106.518 71.7935L106.517 71.7926Z" fill="#12123D"/>
<path d="M110.639 67.5008L110.638 65.3517C109.403 65.0213 107.995 64.8342 106.5 64.8342C103.814 64.8342 101.409 65.4383 99.7882 66.392C99.7882 66.392 99.7827 68.5447 99.7846 68.5438C101.406 67.5893 103.813 66.9842 106.501 66.9842C107.996 66.9842 109.404 67.1713 110.639 67.5026V67.5008Z" fill="#A3A3FC"/>
<path d="M99.7847 68.845C99.7317 68.845 99.6779 68.8313 99.6304 68.803C99.5306 68.744 99.4816 68.2984 99.4834 67.4661L99.4862 66.3902C99.4862 66.2834 99.5428 66.1849 99.635 66.131C101.363 65.1144 103.865 64.5322 106.5 64.5322C107.968 64.5322 109.425 64.7147 110.716 65.0606C110.849 65.0962 110.94 65.2157 110.94 65.3517L110.942 67.4844C110.944 67.5264 110.938 67.5702 110.922 67.6121C110.867 67.7527 110.715 67.8312 110.569 67.7956C109.321 67.4616 107.917 67.2854 106.501 67.2854C103.968 67.2854 101.576 67.8385 99.938 68.803C99.8905 68.8304 99.8376 68.845 99.7847 68.845ZM100.09 66.5663C100.09 67.0491 100.088 67.6286 100.087 68.0338C101.785 67.1705 104.087 66.6813 106.5 66.6813C107.825 66.6813 109.143 66.8301 110.336 67.1139V65.5853C109.152 65.2906 107.831 65.1354 106.5 65.1354C104.045 65.1354 101.722 65.6556 100.09 66.5663H100.09Z" fill="#12123D"/>
<path d="M112.861 82.0983L96.1214 79.774C95.5883 79.7001 95.1219 79.8543 95.0808 80.1189L93.8613 87.9086C93.8202 88.1733 94.2191 88.447 94.7522 88.521L111.492 90.8453C112.025 90.9192 112.491 90.765 112.532 90.5003L113.752 82.7106C113.793 82.446 113.394 82.1722 112.861 82.0983Z" fill="#6A6ACF"/>
<path d="M99.5012 80.9201L97.8281 80.6884L96.9473 86.3125L98.6204 86.5452L99.5012 80.9201Z" fill="#FFCB03"/>
<path d="M99.5016 80.9201L97.8284 80.6884L97.2598 84.3167L98.9329 84.5494L99.5016 80.9201Z" fill="#A3A3FC"/>
<path d="M102.638 81.3564L100.965 81.1237L100.214 85.9192L101.887 86.151L102.638 81.3564Z" fill="#FFCB03"/>
<path d="M102.638 81.3564L100.965 81.1237L100.535 83.8714L102.208 84.1032L102.638 81.3564Z" fill="#A3A3FC"/>
<path d="M105.571 81.7369L103.898 81.5042L103.216 85.8589L104.889 86.0907L105.571 81.7369Z" fill="#FFCB03"/>
<path d="M105.57 81.7369L103.897 81.5042L103.58 83.5264L105.253 83.7582L105.57 81.7369Z" fill="#A3A3FC"/>
<path d="M108.585 82.1019L106.912 81.8701L106.031 87.4943L107.704 87.727L108.585 82.1019Z" fill="#FFCB03"/>
<path d="M108.586 82.1019L106.913 81.8701L106.178 86.5616L107.851 86.7934L108.586 82.1019Z" fill="#A3A3FC"/>
<path d="M111.614 82.5491L109.941 82.3173L109.12 87.5527L110.793 87.7854L111.614 82.5491Z" fill="#FFCB03"/>
<path d="M111.614 82.5491L109.941 82.3173L109.4 85.764L111.074 85.9967L111.614 82.5491Z" fill="#A3A3FC"/>
<path d="M94.9962 87.5683C94.9816 87.5683 94.967 87.5674 94.9524 87.5646C94.7871 87.5409 94.673 87.3867 94.6977 87.2224L95.6762 80.5625C95.72 80.2641 96.0605 80.0907 96.4876 80.15L112.701 82.4013C112.867 82.4241 112.982 82.5765 112.959 82.7417C112.936 82.9069 112.784 83.0219 112.618 82.999L96.4046 80.7477C96.3425 80.7386 96.2932 80.7423 96.2595 80.7477L95.2956 87.31C95.2737 87.4606 95.1449 87.5683 94.9971 87.5683H94.9962Z" fill="#FFCB03"/>
<path d="M101.695 88.4552L96.668 87.7571L96.5986 88.1978L101.626 88.896L101.695 88.4552Z" fill="#A3A3FC"/>
<path d="M101.819 87.7836L96.7911 87.0854L96.7227 87.5262L101.749 88.2243L101.819 87.7836Z" fill="#A3A3FC"/>
<path d="M135.9 119.277C136.446 119.17 146.634 119.842 158.618 120.767C158.469 119.854 157.547 107.26 159.243 89.9765C154.978 90.3315 136.076 89.6416 136.076 89.6416C136.076 89.6416 135.714 102.698 135.782 119.19C135.782 119.244 135.844 119.289 135.901 119.277H135.9Z" fill="white"/>
<path d="M158.617 121.069C158.61 121.069 158.602 121.069 158.594 121.069C145.304 120.044 136.498 119.495 135.955 119.575C135.838 119.598 135.717 119.566 135.623 119.489C135.532 119.414 135.479 119.306 135.479 119.191C135.412 102.884 135.769 89.7648 135.773 89.6334C135.775 89.553 135.809 89.4764 135.869 89.4216C135.927 89.3669 136.007 89.3386 136.086 89.3404C136.275 89.3477 155.018 90.0258 159.217 89.6762C159.306 89.6689 159.394 89.7009 159.457 89.7657C159.52 89.8295 159.551 89.9181 159.543 90.0075C157.873 107.025 158.739 119.634 158.916 120.72C158.93 120.811 158.903 120.904 158.84 120.973C158.782 121.036 158.702 121.07 158.617 121.07V121.069ZM136.155 118.967C138.137 118.967 148.353 119.674 158.274 120.437C158.036 118.005 157.388 106.053 158.906 90.3032C154.38 90.5788 138.833 90.0422 136.369 89.9546C136.316 92.006 136.025 104.146 136.082 118.968C136.105 118.968 136.13 118.968 136.156 118.968L136.155 118.967ZM135.843 118.981C135.843 118.981 135.841 118.981 135.84 118.981C135.84 118.981 135.842 118.981 135.843 118.981Z" fill="#A3A3FC"/>
<path d="M155.937 116.78C155.937 116.78 155.929 116.78 155.926 116.78L137.94 116.11C137.859 116.107 137.782 116.071 137.728 116.011C137.674 115.951 137.645 115.872 137.65 115.791C137.654 115.711 138.104 107.721 138.198 105.033C138.278 102.763 138.412 95.7996 138.414 95.7294C138.417 95.5651 138.551 95.4337 138.714 95.4328L156.622 95.3497H156.623C156.71 95.3497 156.792 95.3871 156.849 95.4519C156.907 95.5176 156.933 95.6043 156.922 95.691C156.916 95.7412 156.265 100.772 156.171 105.982C156.119 108.881 156.237 116.398 156.238 116.474C156.239 116.557 156.206 116.636 156.147 116.695C156.091 116.75 156.015 116.78 155.936 116.78L155.937 116.78ZM138.27 115.517L155.629 116.164C155.607 114.694 155.52 108.536 155.567 105.971C155.647 101.51 156.133 97.1813 156.281 95.9557L139.011 96.036C138.984 97.393 138.872 103.048 138.801 105.054C138.717 107.447 138.353 114.017 138.269 115.518L138.27 115.517Z" fill="#A3A3FC"/>
<path d="M142.53 116.332C142.363 116.332 142.228 116.197 142.228 116.03C142.228 115.882 142.238 101.078 143.18 95.6609C143.209 95.4967 143.365 95.3862 143.53 95.4155C143.694 95.4437 143.805 95.6007 143.776 95.765C142.843 101.131 142.832 115.883 142.832 116.031C142.832 116.198 142.697 116.333 142.53 116.333V116.332Z" fill="#A3A3FC"/>
<path d="M147.188 116.559C147.025 116.559 146.891 116.429 146.885 116.266C146.882 116.137 146.515 103.319 147.836 95.9347C147.865 95.7704 148.022 95.66 148.186 95.6901C148.35 95.7193 148.46 95.8763 148.431 96.0406C147.121 103.364 147.486 116.119 147.49 116.248C147.494 116.415 147.364 116.553 147.197 116.559C147.194 116.559 147.19 116.559 147.188 116.559Z" fill="#A3A3FC"/>
<path d="M151.732 116.78C151.572 116.78 151.439 116.655 151.43 116.493C151.424 116.366 150.786 103.681 152.121 95.7403C152.148 95.5761 152.304 95.4648 152.468 95.493C152.633 95.5204 152.744 95.6765 152.717 95.8407C151.392 103.717 152.027 116.335 152.034 116.462C152.042 116.629 151.914 116.77 151.748 116.78C151.743 116.78 151.737 116.78 151.733 116.78H151.732Z" fill="#A3A3FC"/>
<path d="M156.301 98.7747H156.299L138.713 98.6633C138.546 98.6624 138.412 98.5264 138.413 98.3594C138.414 98.1933 138.549 98.0592 138.715 98.0592H138.717L156.303 98.1705C156.47 98.1714 156.604 98.3074 156.603 98.4744C156.602 98.6405 156.467 98.7747 156.301 98.7747Z" fill="#A3A3FC"/>
<path d="M156.13 101.466H156.126L138.711 101.203C138.544 101.2 138.41 101.063 138.413 100.896C138.416 100.731 138.55 100.599 138.715 100.599H138.72L156.135 100.862C156.302 100.864 156.435 101.001 156.432 101.168C156.43 101.333 156.295 101.466 156.13 101.466Z" fill="#A3A3FC"/>
<path d="M155.87 104.089H155.866L138.711 103.836C138.544 103.833 138.41 103.696 138.413 103.529C138.416 103.362 138.547 103.226 138.72 103.232L155.875 103.484C156.042 103.487 156.175 103.624 156.172 103.791C156.169 103.956 156.035 104.089 155.87 104.089Z" fill="#A3A3FC"/>
<path d="M155.861 107.008C155.861 107.008 155.856 107.008 155.853 107.008L138.492 106.611C138.325 106.607 138.193 106.468 138.197 106.302C138.201 106.135 138.343 105.999 138.506 106.008L155.867 106.405C156.034 106.408 156.166 106.547 156.162 106.713C156.158 106.877 156.024 107.008 155.86 107.008H155.861Z" fill="#A3A3FC"/>
<path d="M155.87 109.825C155.87 109.825 155.864 109.825 155.861 109.825L138.461 109.348C138.294 109.343 138.163 109.204 138.167 109.037C138.172 108.87 138.308 108.734 138.477 108.743L155.878 109.221C156.045 109.225 156.176 109.364 156.172 109.531C156.167 109.695 156.033 109.825 155.87 109.825Z" fill="#A3A3FC"/>
<path d="M155.869 113.006C155.869 113.006 155.865 113.006 155.862 113.006L138.209 112.587C138.042 112.584 137.91 112.445 137.914 112.278C137.918 112.111 138.055 111.979 138.224 111.983L155.877 112.402C156.044 112.406 156.175 112.544 156.172 112.711C156.168 112.876 156.033 113.006 155.869 113.006Z" fill="#A3A3FC"/>
<path d="M152.419 93.3849H152.418C148.238 93.3703 143.526 93.3849 143.48 93.3849H143.479C143.313 93.3849 143.178 93.2508 143.177 93.0838C143.177 92.9168 143.311 92.7808 143.478 92.7808C143.525 92.7808 148.238 92.7662 152.421 92.7808C152.588 92.7808 152.722 92.9168 152.722 93.0838C152.722 93.2498 152.586 93.3849 152.42 93.3849H152.419Z" fill="#A3A3FC"/>
<path d="M124.131 90.9174L104.985 102.09L122.615 131.453L123.946 131.854L131.177 100.504L125.665 91.1081L124.131 90.9174Z" fill="#6A6ACF"/>
<path d="M143.209 120.329L142.43 119.046L135.579 107.76L130.896 100.044L125.617 91.3453L106.752 102.335L111.515 110.408L118.008 121.419L118.889 122.913L118.951 123.019L120.38 125.44L120.916 126.35L121.857 127.946L123.191 130.208L123.644 130.975L124.006 131.589L133.58 125.975L134.909 125.197L143.209 120.329Z" fill="white"/>
<path d="M124.006 131.891C123.903 131.891 123.802 131.838 123.746 131.742L106.493 102.489C106.452 102.419 106.441 102.337 106.461 102.259C106.481 102.181 106.532 102.115 106.602 102.074L125.466 91.0844C125.608 91.0013 125.791 91.0479 125.877 91.1884L143.469 120.172C143.511 120.241 143.524 120.324 143.504 120.402C143.483 120.481 143.433 120.548 143.363 120.589L124.159 131.849C124.111 131.877 124.058 131.89 124.006 131.89V131.891ZM107.167 102.443L124.112 131.175L142.792 120.223L125.513 91.7551L107.167 102.443Z" fill="#FFCB03"/>
<path d="M125.198 124.608C125.094 124.608 124.994 124.556 124.937 124.459C124.853 124.315 124.9 124.13 125.045 124.045L131.551 120.233C131.695 120.149 131.88 120.196 131.964 120.34C132.048 120.485 132.001 120.669 131.857 120.754L125.35 124.567C125.302 124.595 125.25 124.608 125.198 124.608V124.608Z" fill="#12123D"/>
<path d="M124.131 122.789C124.027 122.789 123.926 122.735 123.87 122.639C123.786 122.495 123.833 122.311 123.977 122.226L133.398 116.704C133.542 116.62 133.727 116.667 133.812 116.811C133.896 116.956 133.848 117.14 133.704 117.225L124.283 122.747C124.235 122.775 124.183 122.789 124.131 122.789Z" fill="#FFCB03"/>
<path d="M120.928 117.329C120.824 117.329 120.724 117.275 120.667 117.179C120.583 117.035 120.631 116.851 120.775 116.766L132.357 109.977C132.502 109.893 132.687 109.942 132.771 110.085C132.855 110.229 132.807 110.413 132.663 110.498L121.081 117.287C121.033 117.315 120.981 117.328 120.928 117.328V117.329Z" fill="#FFCB03"/>
<path d="M119.861 115.509C119.757 115.509 119.657 115.456 119.6 115.36C119.516 115.215 119.564 115.031 119.708 114.946L131.29 108.158C131.434 108.074 131.62 108.121 131.704 108.265C131.788 108.41 131.74 108.594 131.596 108.679L120.014 115.467C119.965 115.496 119.913 115.508 119.861 115.508V115.509Z" fill="#FFCB03"/>
<path d="M118.793 113.69C118.689 113.69 118.588 113.636 118.532 113.54C118.448 113.396 118.495 113.211 118.639 113.127L130.222 106.338C130.366 106.254 130.551 106.301 130.635 106.446C130.719 106.59 130.672 106.774 130.527 106.859L118.945 113.648C118.897 113.676 118.845 113.689 118.793 113.689V113.69Z" fill="#FFCB03"/>
<path d="M116.153 104.367L118.251 103.133C118.429 103.029 118.473 102.8 118.349 102.621C118.225 102.441 117.981 102.382 117.802 102.486L115.704 103.72C115.526 103.824 115.481 104.053 115.605 104.232C115.73 104.412 115.974 104.471 116.153 104.367Z" fill="#A3A3FC"/>
<path d="M114.162 105.553L114.892 105.116C115.07 105.012 115.115 104.783 114.991 104.604C114.867 104.424 114.622 104.365 114.443 104.469L113.713 104.906C113.535 105.01 113.49 105.239 113.614 105.418C113.738 105.598 113.983 105.657 114.162 105.553Z" fill="#A3A3FC"/>
<path d="M115.087 107.01L119.176 104.593C119.354 104.489 119.399 104.26 119.275 104.081C119.15 103.901 118.906 103.842 118.727 103.946L114.638 106.363C114.46 106.467 114.415 106.697 114.539 106.875C114.663 107.055 114.908 107.115 115.087 107.01Z" fill="#A3A3FC"/>
<path d="M116.011 108.514L120.045 106.142C120.223 106.038 120.268 105.809 120.144 105.63C120.02 105.45 119.775 105.391 119.596 105.495L115.561 107.867C115.383 107.971 115.339 108.2 115.463 108.378C115.587 108.558 115.832 108.618 116.011 108.514Z" fill="#A3A3FC"/>
<path d="M116.896 109.929L121.027 107.512C121.205 107.408 121.249 107.178 121.125 107C121.001 106.82 120.756 106.76 120.578 106.865L116.447 109.282C116.269 109.386 116.225 109.615 116.349 109.794C116.473 109.974 116.717 110.033 116.896 109.929Z" fill="#A3A3FC"/>
<path d="M117.795 111.262L121.794 108.913C121.972 108.809 122.016 108.58 121.892 108.401C121.768 108.221 121.523 108.162 121.345 108.266L117.346 110.615C117.168 110.719 117.123 110.948 117.247 111.127C117.371 111.307 117.616 111.366 117.795 111.262Z" fill="#A3A3FC"/>
<path d="M128.375 103.252C129.34 101.03 128.45 98.5024 126.386 97.6062C124.323 96.71 121.867 97.7845 120.902 100.006C119.937 102.228 120.827 104.755 122.891 105.652C124.954 106.548 127.41 105.473 128.375 103.252Z" fill="#FFCB03"/>
<path d="M124.696 101.581L124.745 97.3127C126.081 97.278 127.373 97.9251 128.132 99.1643C128.613 99.9491 128.807 100.853 128.742 101.742L124.696 101.581Z" fill="#6A6ACF"/>
<path d="M127.516 104.578L124.696 101.581L128.741 101.741C128.666 102.775 128.242 103.79 127.516 104.579V104.578Z" fill="#A3A3FC"/>
<path d="M125.711 100.881C125.345 100.282 124.569 100.136 123.979 100.555C123.39 100.974 123.209 101.797 123.575 102.396C123.941 102.994 124.717 103.14 125.307 102.721C125.896 102.303 126.077 101.479 125.711 100.881Z" fill="white"/>
<path d="M30.0804 123.413C30.1662 125.146 31.1447 136.242 42.2733 142.435C42.3135 142.458 42.3591 142.467 42.4048 142.458C43.4088 142.288 55.0258 140.017 63.4672 125.346C63.5329 125.232 63.4773 125.085 63.3513 125.048C61.7786 124.585 53.0788 121.842 49.8375 117.055C49.7609 116.943 49.6002 116.932 49.5144 117.039C48.5158 118.262 43.0017 124.17 30.2994 123.201C30.178 123.192 30.074 123.291 30.0804 123.414V123.413Z" fill="white"/>
<path d="M42.3716 142.763C42.2858 142.763 42.201 142.741 42.1252 142.699C30.971 136.491 29.883 125.557 29.778 123.428C29.7707 123.283 29.8264 123.142 29.9295 123.042C30.0336 122.94 30.1769 122.888 30.322 122.899C42.881 123.857 48.3175 118.025 49.2796 116.847C49.3809 116.723 49.5315 116.654 49.6903 116.663C49.8492 116.67 49.997 116.753 50.0874 116.885C53.2557 121.566 61.7628 124.265 63.4359 124.759C63.5838 124.803 63.7015 124.911 63.7591 125.054C63.8175 125.199 63.8056 125.36 63.728 125.496C55.2747 140.19 43.7417 142.537 42.4547 142.756C42.4273 142.76 42.399 142.763 42.3716 142.763ZM30.3877 123.511C30.448 124.521 30.7547 127.57 32.3119 131.131C34.3839 135.87 37.7749 139.578 42.389 142.154C43.8065 141.905 54.9069 139.534 63.1429 125.302C61.1941 124.717 52.9271 122.01 49.662 117.333C48.5512 118.646 43.6441 123.608 33.0357 123.609C32.1896 123.609 31.3087 123.578 30.3886 123.511H30.3877Z" fill="#12123D"/>
<path d="M59.1156 126.609C59.0845 126.609 59.0535 126.604 59.0225 126.594C53.6042 124.842 48.8723 120.522 48.8258 120.479C48.7034 120.366 48.6952 120.175 48.8084 120.052C48.9216 119.93 49.1124 119.922 49.2356 120.035C49.2821 120.078 53.9191 124.309 59.2096 126.019C59.3684 126.07 59.4551 126.241 59.404 126.4C59.3629 126.528 59.2443 126.609 59.1165 126.609H59.1156Z" fill="#12123D"/>
<path d="M57.4377 129.502C57.4031 129.502 57.3684 129.496 57.3346 129.483C54.8263 128.569 52.3928 127.07 50.1008 125.028C49.9767 124.917 49.9657 124.726 50.0762 124.602C50.1875 124.478 50.3783 124.467 50.5024 124.577C52.7369 126.568 55.1056 128.028 57.5409 128.917C57.6979 128.974 57.7782 129.148 57.7207 129.304C57.676 129.426 57.5601 129.503 57.4368 129.503L57.4377 129.502Z" fill="#12123D"/>
<path d="M48.7772 123.636C48.6978 123.636 48.6184 123.605 48.5591 123.543C47.5285 122.47 46.9699 121.712 46.9471 121.681C46.8485 121.547 46.8777 121.358 47.0119 121.259C47.1461 121.159 47.335 121.188 47.4345 121.323C47.44 121.331 47.995 122.083 48.9954 123.125C49.1113 123.245 49.1067 123.436 48.9862 123.552C48.9278 123.608 48.8521 123.636 48.7772 123.636Z" fill="#12123D"/>
<path d="M54.7395 132.095C54.6902 132.095 54.64 132.083 54.5944 132.058C47.921 128.389 44.917 122.987 44.8878 122.933C44.8075 122.787 44.8614 122.604 45.0083 122.523C45.1553 122.443 45.3378 122.497 45.4182 122.644C45.4474 122.697 48.3738 127.949 54.8855 131.529C55.0316 131.609 55.0854 131.792 55.0051 131.938C54.9504 132.039 54.8463 132.095 54.7404 132.095H54.7395Z" fill="#12123D"/>
<path d="M52.2739 134.419C52.2164 134.419 52.1589 134.402 52.1078 134.368C45.2528 129.836 42.6577 123.802 42.6322 123.742C42.5674 123.588 42.6395 123.411 42.7937 123.346C42.9471 123.282 43.1242 123.354 43.189 123.508C43.2136 123.566 45.7466 129.439 52.441 133.866C52.5797 133.958 52.618 134.145 52.5258 134.284C52.4674 134.372 52.3716 134.42 52.2739 134.42V134.419Z" fill="#12123D"/>
<path d="M49.1907 136.487C49.1341 136.487 49.0775 136.472 49.0264 136.438C47.7969 135.639 46.6267 134.658 45.5478 133.522C45.4328 133.4 45.4383 133.21 45.5587 133.095C45.6792 132.98 45.8709 132.985 45.9859 133.105C47.032 134.207 48.1656 135.158 49.3559 135.932C49.4956 136.023 49.5357 136.21 49.4445 136.35C49.3869 136.439 49.2902 136.487 49.1907 136.487Z" fill="#12123D"/>
<path d="M44.1374 131.692C44.0462 131.692 43.9558 131.651 43.8965 131.572C41.2467 128.07 40.176 124.712 40.1312 124.57C40.081 124.411 40.1696 124.242 40.3293 124.191C40.4881 124.141 40.6579 124.23 40.7081 124.389C40.7191 124.423 41.7952 127.794 44.3784 131.208C44.4788 131.341 44.4524 131.53 44.32 131.632C44.2652 131.673 44.2013 131.693 44.1384 131.693L44.1374 131.692Z" fill="#12123D"/>
<path d="M67.613 10.4753C67.5043 10.4753 67.3994 10.4169 67.3455 10.3147C67.2679 10.1669 67.3236 9.98434 67.4715 9.90677C73.1545 6.90625 79.2893 5.24538 85.7043 4.97161C85.8704 4.96613 86.0119 5.09389 86.0192 5.26089C86.0265 5.42789 85.8969 5.56842 85.7299 5.57573C79.4052 5.84585 73.3571 7.48299 67.7535 10.4415C67.7088 10.4653 67.6604 10.4762 67.613 10.4762V10.4753Z" fill="#12123D"/>
<path d="M54.4704 21.6361C54.381 21.6361 54.2915 21.5959 54.2322 21.5202C54.1291 21.3887 54.1528 21.1989 54.2842 21.0958C54.4321 20.9799 69.2521 9.5354 84.1897 8.548C84.3568 8.53522 84.5001 8.66298 84.511 8.82907C84.522 8.99516 84.396 9.13934 84.2299 9.15029C69.4757 10.1258 54.8027 21.4572 54.6557 21.5722C54.6001 21.6151 54.5353 21.6361 54.4695 21.6361H54.4704Z" fill="#12123D"/>
<path d="M51.0529 26.3294C50.6258 26.3294 50.1986 26.1843 49.8545 25.8886C49.4866 25.5719 49.2657 25.1312 49.2329 24.6475C49.1991 24.1556 49.3634 23.6793 49.6947 23.306C50.3693 22.544 51.5395 22.4583 52.3025 23.1144C52.6704 23.4311 52.8913 23.8718 52.9241 24.3555C52.9579 24.8474 52.7936 25.3237 52.4632 25.6979C52.0926 26.1158 51.5732 26.3303 51.0539 26.3303L51.0529 26.3294ZM50.2488 25.4305C50.7627 25.8722 51.5531 25.812 52.0105 25.2964C52.2332 25.0445 52.3436 24.7251 52.3208 24.3956C52.2989 24.0744 52.1519 23.7815 51.9073 23.5716C51.3934 23.1299 50.6029 23.1901 50.1456 23.7057C49.9229 23.9567 49.8125 24.277 49.8344 24.6065C49.8563 24.9277 50.0032 25.2206 50.2479 25.4305H50.2488Z" fill="#12123D"/>
<path d="M148.605 144.282C148.941 143.218 130.061 128.521 128.728 127.791C127.394 127.061 123.871 126.884 122.654 126.149C121.437 125.413 116.738 122.16 116.533 121.25C116.327 120.34 118.418 120.403 119.098 120.637C119.71 120.847 121.558 121.803 121.916 121.99C121.93 121.998 121.945 121.981 121.935 121.969C121.631 121.592 119.776 119.288 119.135 118.514C118.436 117.668 115.283 114.961 116.096 113.001C116.908 111.04 120.767 108.998 128.509 115.135C130.426 116.656 132.126 120.262 133.738 121.603C135.35 122.945 153.167 134.229 154.967 138.777C156.768 143.326 148.268 145.346 148.604 144.282H148.605Z" fill="white"/>
<path d="M149.154 144.859C148.866 144.859 148.638 144.815 148.499 144.719C148.341 144.609 148.268 144.436 148.301 144.253C148.091 143.732 145.496 141.279 138.797 135.9C134.047 132.087 129.211 128.399 128.583 128.056C127.966 127.719 126.784 127.495 125.641 127.279C124.366 127.037 123.162 126.809 122.498 126.408C121.922 126.059 116.501 122.482 116.238 121.317C116.173 121.03 116.256 120.766 116.473 120.572C117.088 120.021 118.661 120.167 119.196 120.351C119.539 120.469 120.225 120.797 120.856 121.111C120.178 120.27 119.301 119.186 118.904 118.706C118.793 118.571 118.602 118.373 118.382 118.144C117.224 116.938 115.069 114.694 115.819 112.885C116.216 111.926 117.121 111.201 118.299 110.895C120.139 110.419 123.436 110.726 128.699 114.899C129.75 115.732 130.712 117.133 131.642 118.488C132.447 119.661 133.208 120.767 133.934 121.372C134.265 121.647 135.334 122.377 136.814 123.389C142.75 127.446 153.798 134.996 155.251 138.667C155.891 140.283 155.407 141.793 153.85 143.033C152.48 144.125 150.32 144.859 149.156 144.859H149.154ZM148.916 144.248C149.493 144.388 152.007 143.824 153.636 142.425C154.85 141.382 155.204 140.192 154.688 138.889C153.303 135.39 141.935 127.622 136.472 123.888C134.978 122.866 133.899 122.129 133.546 121.836C132.756 121.178 131.973 120.037 131.143 118.83C130.238 117.512 129.302 116.149 128.322 115.372C122.987 111.143 119.847 111.118 118.45 111.48C117.04 111.846 116.53 112.746 116.377 113.117C115.778 114.561 117.755 116.62 118.818 117.726C119.056 117.974 119.244 118.169 119.37 118.322C119.981 119.061 121.669 121.156 122.172 121.781L122.326 121.973L122.169 122.179C122.074 122.294 121.91 122.327 121.779 122.259C120.784 121.74 119.459 121.08 119.001 120.923C118.466 120.739 117.215 120.719 116.877 121.022C116.824 121.07 116.812 121.11 116.829 121.184C116.984 121.874 121.25 124.947 122.811 125.891C123.382 126.236 124.587 126.464 125.754 126.685C126.998 126.92 128.174 127.143 128.874 127.526C129.551 127.896 134.58 131.73 139.483 135.676C148.091 142.603 148.91 143.839 148.917 144.248H148.916Z" fill="#12123D"/>
<path d="M140.544 121.368C138.558 120.922 137.116 121.151 136.329 121.473C133.868 122.48 131.243 124.161 130.434 126.68C129.178 130.605 129.478 133.701 132.981 135.969C136.06 137.127 139.862 141.048 143.089 145.193C144.181 147.456 146.199 151.874 146.753 154.669C148.304 162.477 161.706 161.772 162.875 154.284C164.104 146.405 155.724 124.78 140.544 121.369V121.368Z" fill="white"/>
<path d="M146.51 153.811C146.368 153.811 146.241 153.709 146.214 153.564C145.887 151.825 144.891 146.53 139.356 140.963C137.467 139.063 135.276 137.473 132.844 136.237C132.835 136.233 132.826 136.227 132.817 136.222C129.52 134.087 128.696 131.116 130.146 126.587C131.037 123.815 133.938 122.124 136.215 121.193C136.741 120.977 138.222 120.536 140.61 121.072C145.01 122.061 149.411 124.961 153.337 129.459C156.837 133.468 159.763 138.534 161.578 143.726C161.632 143.883 161.549 144.055 161.392 144.111C161.235 144.166 161.063 144.083 161.007 143.926C157.782 134.701 149.983 123.798 140.478 121.663C138.256 121.164 136.917 121.56 136.444 121.753C134.286 122.636 131.542 124.223 130.722 126.773C129.354 131.049 130.075 133.721 133.133 135.708C135.616 136.971 137.854 138.596 139.785 140.538C145.451 146.238 146.472 151.67 146.808 153.455C146.839 153.619 146.731 153.777 146.567 153.807C146.548 153.811 146.529 153.813 146.51 153.813V153.811Z" fill="#12123D"/>
</g>
<defs>
<clipPath id="clip0_434_9841">
<rect width="167" height="167" fill="white" transform="translate(0.5)"/>
</clipPath>
</defs>
</svg>
