<svg width="394" height="92" viewBox="0 0 394 92" fill="none" xmlns="http://www.w3.org/2000/svg">
<path fill-rule="evenodd" clip-rule="evenodd" d="M175.234 12.0647C177.513 13.3492 179.303 15.1324 180.602 17.4123C181.901 19.6922 182.55 22.2696 182.55 25.1432C182.55 28.0182 181.901 30.5943 180.602 32.8742C179.303 35.1541 177.513 36.936 175.234 38.2217C172.955 39.5073 170.376 40.1501 167.503 40.1501C164.933 40.1501 162.617 39.7065 160.56 38.8227C158.5 37.9392 156.779 36.6536 155.397 34.9673L159.667 30.9876C161.713 33.2821 164.214 34.429 167.171 34.429C169.298 34.429 171.102 33.8068 172.581 32.563C174.058 31.3206 175.018 29.6477 175.462 27.5471H163.688V22.4073H175.378C174.908 20.4176 173.941 18.8281 172.477 17.6398C171.012 16.4524 169.243 15.8577 167.171 15.8577C164.214 15.8577 161.713 17.0044 159.667 19.2978L155.397 15.318C156.779 13.6332 158.5 12.3473 160.56 11.4638C162.617 10.5803 164.933 10.1377 167.503 10.1377C170.376 10.1377 172.955 10.7791 175.234 12.0647Z" fill="#12123D"/>
<path fill-rule="evenodd" clip-rule="evenodd" d="M199.046 27.962H194.404V39.6517H187.73V10.6348H194.404V22.366H199.212L206.84 10.6348H213.928L204.436 24.6463L214.219 39.6517H206.592L199.046 27.962Z" fill="#12123D"/>
<path fill-rule="evenodd" clip-rule="evenodd" d="M222.946 38.2231C220.556 36.9374 218.675 35.1554 217.308 32.8755C215.94 30.5956 215.256 28.0196 215.256 25.1446C215.256 22.271 215.94 19.6939 217.308 17.4137C218.675 15.1327 220.556 13.3506 222.946 12.0661C225.335 10.7805 228.023 10.1377 231.009 10.1377C233.522 10.1377 235.796 10.5802 237.826 11.4651C239.859 12.349 241.564 13.6195 242.947 15.279L238.636 19.2574C236.674 16.9921 234.241 15.8591 231.339 15.8591C229.542 15.8591 227.94 16.2524 226.531 17.0402C225.123 17.8279 224.024 18.9267 223.235 20.3354C222.449 21.7449 222.054 23.3479 222.054 25.1446C222.054 26.9417 222.449 28.5442 223.235 29.9528C224.024 31.3624 225.123 32.4613 226.531 33.249C227.94 34.0356 229.542 34.4303 231.339 34.4303C234.241 34.4303 236.674 33.2834 238.636 30.9888L242.947 34.9686C241.564 36.6549 239.852 37.9404 237.807 38.824C235.761 39.7079 233.481 40.1503 230.967 40.1503C228.01 40.1503 225.335 39.5075 222.946 38.2231Z" fill="#12123D"/>
<path fill-rule="evenodd" clip-rule="evenodd" d="M273.787 10.6348V39.652H267.113V16.1067H254.014V39.652H247.34V10.6348H273.787Z" fill="#12123D"/>
<path fill-rule="evenodd" clip-rule="evenodd" d="M297.789 24.8734C298.838 24.0035 299.364 22.7671 299.364 21.163C299.364 19.5333 298.838 18.2822 297.789 17.4118C296.739 16.5416 295.204 16.1053 293.188 16.1053H287.716V26.1789H293.188C295.204 26.1789 296.739 25.7438 297.789 24.8734ZM300.256 11.919C302.148 12.7757 303.606 13.9913 304.629 15.567C305.65 17.1415 306.162 19.0085 306.162 21.163C306.162 23.2918 305.65 25.1501 304.629 26.7391C303.606 28.3285 302.148 29.5441 300.256 30.3858C298.363 31.2303 296.131 31.6519 293.562 31.6519H287.716V39.6518H281.001V10.6348H293.562C296.131 10.6348 298.363 11.0627 300.256 11.919Z" fill="#12123D"/>
<path fill-rule="evenodd" clip-rule="evenodd" d="M333.065 34.2637V39.6532H310.597V10.6348H332.527V16.0242H317.271V22.3256H330.742V27.5481H317.271V34.2637H333.065Z" fill="#12123D"/>
<path fill-rule="evenodd" clip-rule="evenodd" d="M344.112 38.2231C341.721 36.9374 339.842 35.1554 338.474 32.8755C337.106 30.5956 336.423 28.0196 336.423 25.1446C336.423 22.271 337.106 19.6939 338.474 17.4137C339.842 15.1327 341.721 13.3506 344.112 12.0661C346.502 10.7805 349.19 10.1377 352.176 10.1377C354.689 10.1377 356.963 10.5802 358.993 11.4651C361.025 12.349 362.731 13.6195 364.114 15.279L359.802 19.2574C357.84 16.9921 355.408 15.8591 352.507 15.8591C350.709 15.8591 349.107 16.2524 347.698 17.0402C346.289 17.8279 345.19 18.9267 344.402 20.3354C343.616 21.7449 343.221 23.3479 343.221 25.1446C343.221 26.9417 343.616 28.5442 344.402 29.9528C345.19 31.3624 346.289 32.4613 347.698 33.249C349.107 34.0356 350.709 34.4303 352.507 34.4303C355.408 34.4303 357.84 33.2834 359.802 30.9888L364.114 34.9686C362.731 36.6549 361.017 37.9404 358.974 38.824C356.929 39.7079 354.647 40.1503 352.133 40.1503C349.176 40.1503 346.502 39.5075 344.112 38.2231Z" fill="#12123D"/>
<path fill-rule="evenodd" clip-rule="evenodd" d="M373.586 38.2231C371.195 36.9374 369.316 35.1554 367.948 32.8755C366.58 30.5956 365.896 28.0196 365.896 25.1446C365.896 22.271 366.58 19.6939 367.948 17.4137C369.316 15.1327 371.195 13.3506 373.586 12.0661C375.975 10.7805 378.665 10.1377 381.65 10.1377C384.163 10.1377 386.437 10.5802 388.467 11.4651C390.499 12.349 392.205 13.6195 393.586 15.279L389.276 19.2574C387.314 16.9921 384.881 15.8591 381.98 15.8591C380.184 15.8591 378.581 16.2524 377.172 17.0402C375.762 17.8279 374.664 18.9267 373.876 20.3354C373.09 21.7449 372.695 23.3479 372.695 25.1446C372.695 26.9417 373.09 28.5442 373.876 29.9528C374.664 31.3624 375.762 32.4613 377.172 33.249C378.581 34.0356 380.184 34.4303 381.98 34.4303C384.881 34.4303 387.314 33.2834 389.276 30.9888L393.586 34.9686C392.205 36.6549 390.492 37.9404 388.448 38.824C386.401 39.7079 384.122 40.1503 381.607 40.1503C378.65 40.1503 375.975 39.5075 373.586 38.2231Z" fill="#12123D"/>
<path fill-rule="evenodd" clip-rule="evenodd" d="M171.605 75.3837C173.318 75.3837 174.631 75.0457 175.543 74.3684C176.455 73.6912 176.911 72.7031 176.911 71.4039C176.911 68.8624 175.143 67.5903 171.605 67.5903H164.89V75.3837H171.605ZM158.216 51.3408H181.637V56.6884H164.89V62.6581H172.931C176.442 62.6581 179.115 63.3905 180.952 64.8555C182.791 66.3194 183.71 68.4345 183.71 71.1976C183.71 74.0994 182.688 76.3523 180.642 77.9538C178.596 79.5579 175.709 80.3577 171.979 80.3577H158.216V51.3408Z" fill="#FFCB03"/>
<path fill-rule="evenodd" clip-rule="evenodd" d="M206.094 69.0419L201.492 57.9324L196.892 69.0419H206.094ZM208.208 74.1399H194.736L192.165 80.3591H185.283L198.218 51.3408H204.85L217.825 80.3591H210.779L208.208 74.1399Z" fill="#FFCB03"/>
<path fill-rule="evenodd" clip-rule="evenodd" d="M248.292 51.3408V80.3577H241.577V68.4617H228.396V80.3577H221.681V51.3408H228.396V62.7821H241.577V51.3408H248.292Z" fill="#FFCB03"/>
<path fill-rule="evenodd" clip-rule="evenodd" d="M266.78 68.6683H262.138V80.3581H255.464V51.3408H262.138V63.0723H266.947L274.574 51.3408H281.661L272.169 65.3523L281.952 80.3581H274.325L266.78 68.6683Z" fill="#FFCB03"/>
<path fill-rule="evenodd" clip-rule="evenodd" d="M301.893 65.5799C302.943 64.7095 303.469 63.4731 303.469 61.8691C303.469 60.2393 302.943 58.9882 301.893 58.1179C300.844 57.2479 299.309 56.8127 297.293 56.8127H291.821V66.885H297.293C299.309 66.885 300.844 66.4497 301.893 65.5799ZM304.36 52.6254C306.252 53.4831 307.71 54.6976 308.733 56.2731C309.756 57.8489 310.267 59.7146 310.267 61.8691C310.267 63.9978 309.756 65.8562 308.733 67.4455C307.71 69.0345 306.252 70.2502 304.36 71.0932C302.467 71.9364 300.235 72.3579 297.666 72.3579H291.821V80.3582H285.105V51.3408H297.666C300.235 51.3408 302.467 51.7697 304.36 52.6254Z" fill="#FFCB03"/>
<path fill-rule="evenodd" clip-rule="evenodd" d="M333.605 73.9557C334.986 73.1679 336.072 72.0691 336.858 70.6605C337.648 69.2508 338.041 67.6483 338.041 65.8512C338.041 64.0555 337.648 62.4529 336.858 61.043C336.072 59.6333 334.986 58.5345 333.605 57.7468C332.224 56.9601 330.676 56.5657 328.963 56.5657C327.248 56.5657 325.701 56.9601 324.32 57.7468C322.937 58.5345 321.853 59.6333 321.066 61.043C320.278 62.4529 319.885 64.0555 319.885 65.8512C319.885 67.6483 320.278 69.2508 321.066 70.6605C321.853 72.0691 322.937 73.1679 324.32 73.9557C325.701 74.7436 327.248 75.137 328.963 75.137C330.676 75.137 332.224 74.7436 333.605 73.9557ZM320.818 78.9088C318.399 77.611 316.507 75.8213 315.138 73.5414C313.769 71.2615 313.086 68.699 313.086 65.8512C313.086 63.0058 313.769 60.442 315.138 58.162C316.507 55.8821 318.399 54.0928 320.818 52.7936C323.234 51.4958 325.949 50.8457 328.963 50.8457C331.975 50.8457 334.683 51.4958 337.088 52.7936C339.492 54.0928 341.384 55.8821 342.767 58.162C344.148 60.442 344.84 63.0058 344.84 65.8512C344.84 68.699 344.148 71.2615 342.767 73.5414C341.384 75.8213 339.492 77.611 337.088 78.9088C334.683 80.208 331.975 80.858 328.963 80.858C325.949 80.858 323.234 80.208 320.818 78.9088Z" fill="#FFCB03"/>
<path fill-rule="evenodd" clip-rule="evenodd" d="M371.783 56.8128H362.497V80.3581H355.865V56.8128H346.62V51.3408H371.783V56.8128Z" fill="#FFCB03"/>
<path fill-rule="evenodd" clip-rule="evenodd" d="M140.005 46.0241C140.005 70.1015 121.521 89.8552 97.9743 91.8809C97.5625 91.9656 96.835 91.9878 96.5303 92H96.3828H65.0035C63.451 92 62.1814 90.7304 62.1814 89.1766C62.1814 88.3987 62.4961 87.6931 63.0099 87.1796C63.5239 86.6657 64.2242 86.3501 65.0035 86.3501H93.9343H93.9445H93.9737C94.3559 86.3501 94.7409 86.3438 95.1182 86.3326C116.859 85.7292 134.298 67.9164 134.298 46.0241C134.298 24.4309 117.322 6.80478 95.9881 5.75507C95.9711 5.76139 95.9599 5.7677 95.9599 5.7677H62.2379C60.6527 5.7677 59.3535 4.46892 59.3535 2.88335C59.3535 2.09284 59.6755 1.37028 60.2001 0.845553C60.7252 0.320571 61.4478 0 62.2379 0H93.4992C93.5166 0 93.5376 -2.78116e-06 93.5559 0.00505972C93.696 -2.78116e-06 93.8326 0 93.9737 0C119.392 0 140.005 20.6048 140.005 46.0241Z" fill="#12123D"/>
<path fill-rule="evenodd" clip-rule="evenodd" d="M37.0303 46.0269C37.0303 46.8198 36.7059 47.541 36.1847 48.0647C35.6612 48.5883 34.9386 48.9116 34.1446 48.9116H2.88576C1.29879 48.9116 0 47.6139 0 46.0269C0 45.2342 0.326782 44.5117 0.847967 43.9905C1.37016 43.4668 2.09031 43.1436 2.88576 43.1436H34.1446C35.7311 43.1436 37.0303 44.4403 37.0303 46.0269Z" fill="#12123D"/>
<path fill-rule="evenodd" clip-rule="evenodd" d="M44.4665 29.6015C44.4665 31.1871 43.1676 32.4849 41.5821 32.4849H14.0066C12.4212 32.4849 11.1221 31.1871 11.1221 29.6015C11.1221 28.0149 12.4212 26.7168 14.0066 26.7168H41.5821C43.1676 26.7168 44.4665 28.0149 44.4665 29.6015Z" fill="#FFCB03"/>
<path fill-rule="evenodd" clip-rule="evenodd" d="M44.4665 62.4502C44.4665 64.0368 43.1676 65.3349 41.5821 65.3349H14.0066C12.4212 65.3349 11.1221 64.0368 11.1221 62.4502C11.1221 60.8636 12.4212 59.5654 14.0066 59.5654H41.5821C43.1676 59.5654 44.4665 60.8636 44.4665 62.4502Z" fill="#FFCB03"/>
<path fill-rule="evenodd" clip-rule="evenodd" d="M50.7192 13.1791C50.7192 13.9728 50.3959 14.6917 49.8737 15.2155C49.35 15.739 48.6309 16.0624 47.8359 16.0624H28.0845C26.5005 16.0624 25.2012 14.7657 25.2012 13.1791C25.2012 12.385 25.5245 11.6635 26.0481 11.1399C26.5719 10.6187 27.292 10.293 28.0845 10.293H47.8359C49.4225 10.293 50.7192 11.5921 50.7192 13.1791Z" fill="#12123D"/>
<path fill-rule="evenodd" clip-rule="evenodd" d="M50.7192 78.8748C50.7192 79.6689 50.3959 80.389 49.8737 80.9126C49.35 81.4349 48.6309 81.7592 47.8359 81.7592H28.0845C26.5005 81.7592 25.2012 80.4614 25.2012 78.8748C25.2012 78.0819 25.5245 77.3618 26.0481 76.8382C26.5719 76.3145 27.292 75.9912 28.0845 75.9912H47.8359C49.4225 75.9912 50.7192 77.2893 50.7192 78.8748Z" fill="#12123D"/>
<path fill-rule="evenodd" clip-rule="evenodd" d="M59.3752 72.3076C59.4515 72.9076 59.7894 73.2602 60.4273 73.2615C61.0653 73.2641 61.7032 73.2717 62.3386 73.2717C73.2121 73.2654 84.0845 73.259 94.958 73.2546C98.9391 73.2533 102.794 72.5589 106.406 70.8741C108.184 70.0455 109.956 69.093 111.501 67.8994C116.206 64.2664 119.939 59.8368 121.768 54.0687C122.86 50.6151 123.31 47.0656 123.001 43.4228C122.394 36.2879 119.445 30.3185 114.139 25.5472C109.688 21.5466 104.439 19.2482 98.4534 18.8844C95.0391 18.6765 91.6049 18.7493 88.1809 18.7431C79.7508 18.7246 71.3217 18.7284 62.893 18.7246H62.8473C62.7797 18.7259 62.7072 18.7259 62.6312 18.7246H62.4947C60.8625 18.7309 60.0661 19.2814 59.6985 19.9363C59.696 19.9414 59.6935 19.9439 59.6922 19.949C59.6514 20.035 59.6085 20.1235 59.5678 20.2145C59.4205 20.6001 59.3946 21.0008 59.4117 21.3314C59.4501 21.5861 59.4918 21.838 59.5386 22.0899C59.5411 22.0937 59.5411 22.095 59.5411 22.095C59.9919 24.4289 60.942 26.5663 62.5042 28.4295C65.3642 31.8428 69.0749 33.4541 73.487 33.4712C79.8794 33.4946 86.2719 33.4848 92.6631 33.475C96.3517 33.4699 99.5213 34.7825 102.043 37.424C105.021 40.5446 106.26 44.293 105.503 48.6072C104.715 53.0994 102.277 56.2813 97.9013 57.7526C96.5519 58.2062 95.072 58.4508 93.6477 58.4679C87.1912 58.5466 80.7327 58.5097 74.2751 58.5135C70.3261 58.5146 66.9721 59.9255 64.1267 62.6576C61.6109 65.0742 59.9072 67.9035 59.4021 71.3927C59.3592 71.6941 59.3372 72.0077 59.3752 72.3076Z" fill="#12123D"/>
<path fill-rule="evenodd" clip-rule="evenodd" d="M70.88 41.9697V41.9944C70.881 42.3114 70.9043 42.9654 71.0458 43.5529C71.2315 44.5841 71.6503 45.5464 72.1997 46.4508C74.3064 49.9122 77.4259 51.5687 81.4743 51.5464C85.5377 51.5232 89.5996 51.5376 93.6644 51.5363H93.7452C93.8153 51.5427 93.8905 51.5464 93.9664 51.5464C96.4039 51.5553 96.1972 50.3075 96.1972 50.3075C96.2415 48.9815 95.9209 47.6615 95.321 46.4299C93.4345 42.5696 90.3323 40.5145 86.0132 40.4629C81.4681 40.4076 76.9218 40.4396 72.3756 40.4333H71.976C71.8938 40.4434 71.8067 40.4604 71.7155 40.4911C71.3332 40.6165 70.9204 40.9496 70.8824 41.8C70.8824 41.8 70.88 41.8628 70.88 41.9697Z" fill="#FFCB03"/>
</svg>
