<svg width="168" height="167" viewBox="0 0 168 167" fill="none" xmlns="http://www.w3.org/2000/svg">
<g clip-path="url(#clip0_434_9424)">
<path d="M59.7909 4.28635C56.1531 5.40566 41.4987 7.84786 25.3824 21.6538C21.4783 24.998 11.298 32.824 4.55588 50.9986C-6.92029 81.9337 6.64793 139.193 46.2008 158.106C92.2714 180.135 150.467 153.021 163.739 116.733C169.626 100.638 169.892 73.9489 155.062 56.3504C143.127 42.1866 122.717 35.4561 123.508 22.0592C123.889 15.6072 128.82 13.8233 127.452 9.75871C124.208 0.120461 85.4974 -3.62455 59.7909 4.28635Z" fill="#6A6ACF"/>
<path d="M93.9819 46.3844H5.8623V114.229H93.9819V46.3844Z" fill="#6A6ACF"/>
<path d="M115.096 16.8177H50.875L103.83 40.7066L163.521 39.2111C163.73 39.2111 163.791 38.9272 163.601 38.8405L115.097 16.8177H115.096Z" fill="#A3A3FC"/>
<path d="M163.669 39.4923H160.894C160.739 39.4923 160.614 39.3664 160.614 39.2121C160.614 39.0578 160.74 38.9318 160.894 38.9318H163.12L115.035 17.0999H55.4128C55.2578 17.0999 55.1328 16.9739 55.1328 16.8196C55.1328 16.6653 55.2587 16.5393 55.4128 16.5393H115.157L115.212 16.564L163.853 38.6488C164.044 38.7355 164.146 38.94 164.102 39.1454C164.057 39.3508 163.88 39.4942 163.669 39.4942V39.4923Z" fill="#12123D"/>
<path d="M100.325 39.2295H0.974609L50.8035 16.8187L100.325 39.2295Z" fill="white"/>
<path d="M100.325 39.5316H0.974152C0.831886 39.5316 0.708771 39.4321 0.678676 39.2924C0.648581 39.1528 0.720626 39.0122 0.850125 38.9537L50.679 16.5439C50.7574 16.5083 50.8486 16.5083 50.9271 16.5439L100.449 38.9537C100.578 39.0122 100.649 39.1537 100.619 39.2924C100.589 39.4312 100.466 39.5307 100.324 39.5307L100.325 39.5316ZM2.38223 38.9273H98.9238L50.8021 17.151L2.38223 38.9273Z" fill="#12123D"/>
<path d="M159.361 46.3132H94.0088V114.109H159.361V46.3132Z" fill="#6A6ACF"/>
<path d="M28.7966 46.3844H22.4639V114.229H28.7966V46.3844Z" fill="white"/>
<path d="M45.1442 46.3844H38.8115V114.229H45.1442V46.3844Z" fill="white"/>
<path d="M61.4909 46.3844H55.1582V114.229H61.4909V46.3844Z" fill="white"/>
<path d="M77.8376 46.3844H71.5049V114.229H77.8376V46.3844Z" fill="white"/>
<path d="M93.9802 46.3844H87.6475V114.229H93.9802V46.3844Z" fill="white"/>
<path d="M12.4499 46.3844H6.11719V114.229H12.4499V46.3844Z" fill="white"/>
<path d="M110.328 46.3844H103.995V114.229H110.328V46.3844Z" fill="#A3A3FC"/>
<path d="M126.674 46.3844H120.342V114.229H126.674V46.3844Z" fill="#A3A3FC"/>
<path d="M143.022 46.3844H136.689V114.229H143.022V46.3844Z" fill="#A3A3FC"/>
<path d="M159.369 46.3844H153.036V114.229H159.369V46.3844Z" fill="#A3A3FC"/>
<path d="M124.858 46.3954H159.361V39.2587H94.0088V46.3954H107.049H124.858Z" fill="#A3A3FC"/>
<path d="M93.9822 114.23H71.5059V129.602H93.9822V114.23Z" fill="white"/>
<path d="M93.9823 129.904H71.506C71.3391 129.904 71.2041 129.769 71.2041 129.602V114.23C71.2041 114.063 71.3391 113.928 71.506 113.928H93.9823C94.1492 113.928 94.2841 114.063 94.2841 114.23V129.602C94.2841 129.769 94.1492 129.904 93.9823 129.904ZM71.8078 129.3H93.6804V114.532H71.8078V129.3Z" fill="#12123D"/>
<path d="M94.0088 39.2587H6.11719V46.3963H94.0088V39.2587Z" fill="white"/>
<path d="M94.0088 46.6976H6.11729C5.9504 46.6976 5.81543 46.5625 5.81543 46.3954V39.2578C5.81543 39.0907 5.9504 38.9556 6.11729 38.9556H94.0088C94.1757 38.9556 94.3107 39.0907 94.3107 39.2578V46.3954C94.3107 46.5625 94.1757 46.6976 94.0088 46.6976ZM6.41915 46.0932H93.707V39.56H6.41915V46.0932Z" fill="#12123D"/>
<path d="M28.787 114.23H6.2998V129.602H28.787V114.23Z" fill="white"/>
<path d="M71.5056 114.23H28.915V129.602H71.5056V114.23Z" fill="white"/>
<path d="M71.5057 129.904H28.9151C28.7483 129.904 28.6133 129.769 28.6133 129.602V114.23C28.6133 114.063 28.7483 113.928 28.9151 113.928H71.5057C71.6726 113.928 71.8076 114.063 71.8076 114.23V129.602C71.8076 129.769 71.6726 129.904 71.5057 129.904ZM29.217 129.3H71.2039V114.532H29.217V129.3Z" fill="#12123D"/>
<path d="M159.415 114.23H94.0762V129.602H159.415V114.23Z" fill="#A3A3FC"/>
<path d="M66.9854 117.692H56.4796C56.3127 117.692 56.1777 117.557 56.1777 117.39C56.1777 117.223 56.3127 117.088 56.4796 117.088H66.9854C67.1523 117.088 67.2873 117.223 67.2873 117.39C67.2873 117.557 67.1523 117.692 66.9854 117.692Z" fill="#A3A3FC"/>
<path d="M66.9854 120.764H51.3917C51.2248 120.764 51.0898 120.629 51.0898 120.462C51.0898 120.295 51.2248 120.16 51.3917 120.16H66.9854C67.1523 120.16 67.2873 120.295 67.2873 120.462C67.2873 120.629 67.1523 120.764 66.9854 120.764Z" fill="#A3A3FC"/>
<path d="M66.9853 123.836H46.2208C46.0539 123.836 45.9189 123.701 45.9189 123.534C45.9189 123.367 46.0539 123.232 46.2208 123.232H66.9853C67.1522 123.232 67.2872 123.367 67.2872 123.534C67.2872 123.701 67.1522 123.836 66.9853 123.836Z" fill="#A3A3FC"/>
<path d="M66.9858 126.908H32.9376C32.7707 126.908 32.6357 126.773 32.6357 126.606C32.6357 126.438 32.7707 126.303 32.9376 126.303H66.9858C67.1527 126.303 67.2877 126.438 67.2877 126.606C67.2877 126.773 67.1527 126.908 66.9858 126.908Z" fill="#A3A3FC"/>
<path d="M104.034 58.894C103.879 58.894 103.753 58.768 103.753 58.6137V48.5582C103.753 48.403 103.879 48.278 104.034 48.278C104.189 48.278 104.314 48.4039 104.314 48.5582V58.6137C104.314 58.7689 104.188 58.894 104.034 58.894Z" fill="#12123D"/>
<path d="M93.9821 111.809C93.827 111.809 93.7012 111.683 93.7012 111.529V49.4337C93.7012 49.2785 93.827 49.1534 93.9821 49.1534C94.1371 49.1534 94.262 49.2794 94.262 49.4337V111.529C94.262 111.684 94.1362 111.809 93.9821 111.809Z" fill="#12123D"/>
<path d="M6.11786 111.997C5.96283 111.997 5.83789 111.871 5.83789 111.717V48.9873C5.83789 48.8321 5.96374 48.707 6.11786 48.707C6.27199 48.707 6.39784 48.833 6.39784 48.9873V111.717C6.39784 111.872 6.27199 111.997 6.11786 111.997Z" fill="#12123D"/>
<path d="M159.369 111.7C159.214 111.7 159.089 111.574 159.089 111.419V49.2996C159.089 49.1444 159.215 49.0193 159.369 49.0193C159.523 49.0193 159.649 49.1453 159.649 49.2996V111.419C159.649 111.574 159.523 111.7 159.369 111.7Z" fill="#12123D"/>
<path d="M28.7872 129.904H6.29991C6.13302 129.904 5.99805 129.769 5.99805 129.602V114.23C5.99805 114.063 6.13302 113.928 6.29991 113.928H28.7872C28.954 113.928 29.089 114.063 29.089 114.23V129.602C29.089 129.769 28.954 129.904 28.7872 129.904ZM6.60177 129.3H28.4853V114.532H6.60177V129.3Z" fill="#A3A3FC"/>
<path d="M107.05 46.6765H93.7295V38.9774H108.761C108.916 38.9774 109.04 39.1034 109.04 39.2586C109.04 39.4138 108.915 39.5389 108.761 39.5389H94.2904V46.115H107.05C107.205 46.115 107.331 46.241 107.331 46.3953C107.331 46.5496 107.205 46.6756 107.05 46.6756V46.6765Z" fill="#12123D"/>
<path d="M159.641 46.6766H122.845C122.69 46.6766 122.565 46.5506 122.565 46.3963C122.565 46.242 122.69 46.116 122.845 46.116H159.081V39.5399H122.544C122.389 39.5399 122.263 39.4139 122.263 39.2596C122.263 39.1053 122.389 38.9784 122.544 38.9784H159.641V46.6775V46.6766Z" fill="#12123D"/>
<path d="M114.377 158.369H14.872C11.6746 158.369 9.12112 155.702 9.25609 152.504L11.7193 94.3283C11.8324 91.6533 14.0321 89.5425 16.7068 89.5425H116.814C120.012 89.5425 122.565 92.2093 122.43 95.4074L119.992 152.98C119.865 155.992 117.389 158.369 114.377 158.369Z" fill="#A3A3FC"/>
<path d="M114.376 158.671H14.8716C13.2419 158.671 11.7235 158.023 10.5963 156.845C9.4682 155.667 8.88545 154.121 8.95476 152.491L11.418 94.3155C11.5384 91.4697 13.862 89.2402 16.7065 89.2402H116.814C118.443 89.2402 119.962 89.8884 121.089 91.0662C122.217 92.2439 122.8 93.7905 122.731 95.4201L120.293 152.993C120.158 156.177 117.559 158.671 114.375 158.671H114.376ZM16.7074 89.8446C14.1867 89.8446 12.1284 91.8194 12.0217 94.341L9.55757 152.517C9.49556 153.98 10.019 155.369 11.0322 156.427C12.0445 157.485 13.4088 158.067 14.8725 158.067H114.377C117.236 158.067 119.571 155.828 119.691 152.968L122.129 95.3955C122.191 93.932 121.667 92.5434 120.654 91.4852C119.642 90.4271 118.278 89.8446 116.814 89.8446H16.7074Z" fill="#12123D"/>
<path d="M51.1265 148.718H16.6843C16.4234 148.718 16.2119 148.929 16.2119 149.191V151.286C16.2119 151.547 16.4234 151.759 16.6843 151.759H51.1265C51.3874 151.759 51.5989 151.547 51.5989 151.286V149.191C51.5989 148.929 51.3874 148.718 51.1265 148.718Z" fill="#6A6ACF"/>
<path d="M112.187 148.718H100.711C100.45 148.718 100.238 148.929 100.238 149.191V151.286C100.238 151.547 100.45 151.759 100.711 151.759H112.187C112.448 151.759 112.659 151.547 112.659 151.286V149.191C112.659 148.929 112.448 148.718 112.187 148.718Z" fill="#6A6ACF"/>
<path d="M37.656 131.309H19.5107C19.0684 131.309 18.71 131.668 18.71 132.111V135.658C18.71 136.101 19.0684 136.46 19.5107 136.46H37.656C38.0983 136.46 38.4567 136.101 38.4567 135.658V132.111C38.4567 131.668 38.0983 131.309 37.656 131.309Z" fill="#6A6ACF"/>
<path d="M62.7371 131.309H44.5917C44.1495 131.309 43.791 131.668 43.791 132.111V135.658C43.791 136.101 44.1495 136.46 44.5917 136.46H62.7371C63.1793 136.46 63.5378 136.101 63.5378 135.658V132.111C63.5378 131.668 63.1793 131.309 62.7371 131.309Z" fill="#6A6ACF"/>
<path d="M87.8191 131.309H69.6738C69.2315 131.309 68.873 131.668 68.873 132.111V135.658C68.873 136.101 69.2315 136.46 69.6738 136.46H87.8191C88.2613 136.46 88.6198 136.101 88.6198 135.658V132.111C88.6198 131.668 88.2613 131.309 87.8191 131.309Z" fill="#6A6ACF"/>
<path d="M112.899 131.309H94.7538C94.3116 131.309 93.9531 131.668 93.9531 132.111V135.658C93.9531 136.101 94.3116 136.46 94.7538 136.46H112.899C113.341 136.46 113.7 136.101 113.7 135.658V132.111C113.7 131.668 113.341 131.309 112.899 131.309Z" fill="#6A6ACF"/>
<path d="M90.8457 96.3906H112.735C113.268 96.3906 113.7 96.8243 113.7 97.3575V101.637C113.7 102.172 113.267 102.604 112.735 102.604H90.8457C90.3122 102.604 89.8799 102.171 89.8799 101.637V97.3575C89.8799 96.8234 90.3131 96.3906 90.8457 96.3906Z" fill="white"/>
<path d="M35.6274 107.891H21.0879C20.4105 107.891 19.8613 108.44 19.8613 109.118V121.333C19.8613 122.011 20.4105 122.561 21.0879 122.561H35.6274C36.3048 122.561 36.854 122.011 36.854 121.333V109.118C36.854 108.44 36.3048 107.891 35.6274 107.891Z" fill="#FFCB03"/>
<path d="M30.8529 118.968H25.9C24.9926 118.968 24.2539 118.229 24.2539 117.321V113.768C24.2539 112.86 24.9926 112.12 25.9 112.12H30.8529C31.7603 112.12 32.499 112.86 32.499 113.768V117.321C32.499 118.229 31.7603 118.968 30.8529 118.968ZM25.9 112.726C25.3255 112.726 24.8576 113.194 24.8576 113.769V117.321C24.8576 117.897 25.3255 118.365 25.9 118.365H30.8529C31.4274 118.365 31.8953 117.897 31.8953 117.321V113.769C31.8953 113.194 31.4274 112.726 30.8529 112.726H25.9Z" fill="white"/>
<path d="M24.4411 115.344C24.4411 115.344 24.432 115.344 24.4274 115.344L19.8812 115.142C19.7144 115.135 19.5858 114.993 19.5931 114.827C19.6004 114.66 19.7399 114.531 19.9077 114.539L24.4538 114.741C24.6207 114.748 24.7493 114.889 24.742 115.055C24.7347 115.218 24.6016 115.344 24.4411 115.344Z" fill="white"/>
<path d="M24.4409 117.258C24.4409 117.258 24.4363 117.258 24.4345 117.258L19.7096 117.157C19.5427 117.154 19.4105 117.016 19.4141 116.849C19.4178 116.682 19.5528 116.549 19.7224 116.553L24.4473 116.653C24.6142 116.657 24.7464 116.795 24.7428 116.962C24.7391 117.126 24.605 117.258 24.4409 117.258Z" fill="white"/>
<path d="M32.1965 115.344C32.0323 115.344 31.8983 115.213 31.8946 115.048C31.891 114.881 32.0232 114.743 32.1901 114.74L36.915 114.639C37.0846 114.634 37.2196 114.768 37.2232 114.935C37.2269 115.102 37.0946 115.24 36.9277 115.244L32.2028 115.344C32.2028 115.344 32.1983 115.344 32.1965 115.344Z" fill="white"/>
<path d="M36.6542 117.258C36.6542 117.258 36.6496 117.258 36.6469 117.258L32.1892 117.157C32.0223 117.154 31.8901 117.015 31.8946 116.849C31.8983 116.682 32.036 116.545 32.2029 116.554L36.6606 116.654C36.8275 116.658 36.9597 116.797 36.9551 116.963C36.9515 117.127 36.8174 117.259 36.6533 117.259L36.6542 117.258Z" fill="white"/>
<path d="M26.848 112.524C26.6921 112.524 26.5598 112.404 26.5471 112.246L26.1905 107.815C26.1768 107.649 26.3008 107.502 26.4668 107.49C26.6346 107.476 26.7787 107.6 26.7924 107.766L27.149 112.198C27.1626 112.364 27.0386 112.51 26.8726 112.523C26.8644 112.523 26.8562 112.524 26.848 112.524Z" fill="white"/>
<path d="M29.2556 112.423C29.2428 112.423 29.23 112.423 29.2173 112.421C29.0522 112.4 28.9346 112.248 28.9555 112.083L29.4909 107.852C29.5118 107.687 29.6623 107.569 29.8283 107.59C29.9934 107.611 30.111 107.763 30.09 107.928L29.5547 112.159C29.5356 112.311 29.4051 112.422 29.2556 112.422V112.423Z" fill="white"/>
<path d="M26.4915 122.899C26.4806 122.899 26.4687 122.899 26.4569 122.897C26.2909 122.878 26.1723 122.728 26.1915 122.563L26.6374 118.634C26.6566 118.468 26.8061 118.349 26.9712 118.368C27.1372 118.387 27.2557 118.537 27.2366 118.702L26.7906 122.63C26.7733 122.785 26.6429 122.899 26.4915 122.899Z" fill="white"/>
<path d="M29.3432 122.899C29.1855 122.899 29.0532 122.777 29.0423 122.618L28.7751 118.689C28.7641 118.523 28.8891 118.379 29.056 118.367C29.2219 118.356 29.366 118.481 29.3779 118.648L29.6451 122.577C29.656 122.743 29.5311 122.887 29.3642 122.899C29.3569 122.899 29.3505 122.899 29.3432 122.899Z" fill="white"/>
<path d="M104.063 158.983L104.065 162.604C104.067 163.701 102.8 164.801 100.253 165.652C95.161 167.354 86.8494 167.426 81.5253 165.835C81.4378 165.808 81.352 165.782 81.2654 165.755C78.5678 164.905 77.2126 163.775 77.2117 162.642L77.209 159.021C77.2108 160.154 78.566 161.285 81.2627 162.135C81.3484 162.162 81.435 162.188 81.5226 162.214C86.8466 163.805 95.1574 163.733 100.251 162.031C102.797 161.181 104.065 160.08 104.063 158.983Z" fill="#FFCB03"/>
<path d="M99.7486 155.79C99.8362 155.816 99.9228 155.842 100.009 155.869C105.319 157.542 105.427 160.3 100.251 162.031C95.1587 163.732 86.847 163.804 81.523 162.213C81.4354 162.187 81.3497 162.16 81.2631 162.134C75.9536 160.46 75.8451 157.702 81.0214 155.972C86.1138 154.27 94.4237 154.198 99.7477 155.79H99.7486Z" fill="#6A6ACF"/>
<path d="M101.175 154.707L101.178 158.328C101.18 159.425 99.912 160.525 97.3657 161.376C92.2733 163.078 83.9617 163.15 78.6376 161.559C78.5501 161.532 78.4644 161.506 78.3777 161.479C75.6801 160.629 74.3249 159.499 74.324 158.366L74.3213 154.745C74.3231 155.878 75.6783 157.008 78.375 157.858C78.4607 157.886 78.5473 157.912 78.6349 157.938C83.9589 159.529 92.2697 159.457 97.363 157.755C99.9092 156.904 101.177 155.804 101.175 154.707Z" fill="#FFCB03"/>
<path d="M96.8609 151.513C96.9485 151.54 97.0351 151.566 97.1208 151.594C102.431 153.266 102.54 156.025 97.3634 157.755C92.271 159.457 83.9594 159.529 78.6353 157.938C78.5477 157.911 78.462 157.885 78.3754 157.858C73.0659 156.185 72.9574 153.427 78.1337 151.697C83.2261 149.995 91.536 149.923 96.86 151.514L96.8609 151.513Z" fill="#6A6ACF"/>
<path d="M103.592 149.488L103.595 153.109C103.597 154.206 102.329 155.307 99.7827 156.157C94.6903 157.859 86.3787 157.931 81.0546 156.34C80.9671 156.314 80.8813 156.287 80.7947 156.261C78.0971 155.411 76.7419 154.28 76.741 153.147L76.7383 149.527C76.7401 150.66 78.0953 151.79 80.792 152.64C80.8777 152.667 80.9643 152.694 81.0519 152.719C86.3759 154.31 94.6867 154.238 99.78 152.537C102.326 151.686 103.594 150.586 103.592 149.488Z" fill="#FFCB03"/>
<path d="M90.1161 157.794C86.8476 157.794 83.5773 157.408 80.9691 156.629C80.8806 156.602 80.7921 156.575 80.7055 156.547C77.9568 155.681 76.4421 154.473 76.4402 153.146L76.4375 149.526C76.4375 149.359 76.5725 149.223 76.7394 149.222C76.9062 149.222 77.0412 149.358 77.0412 149.524C77.043 150.55 78.4429 151.58 80.8842 152.349C80.9691 152.376 81.0539 152.402 81.1396 152.428C86.3816 153.995 94.7005 153.914 99.6853 152.248C101.978 151.482 103.293 150.475 103.291 149.487C103.291 149.32 103.426 149.185 103.593 149.185C103.76 149.185 103.895 149.32 103.895 149.487V149.489L103.898 153.108C103.9 154.392 102.472 155.577 99.8787 156.443C97.1911 157.342 93.6545 157.794 90.1161 157.794ZM77.0412 150.933L77.043 153.146C77.0449 154.172 78.4447 155.202 80.8861 155.97C80.9709 155.997 81.0557 156.023 81.1414 156.049C86.3834 157.615 94.7023 157.535 99.6871 155.869C101.981 155.103 103.295 154.096 103.293 153.108L103.291 150.895C102.643 151.625 101.483 152.285 99.875 152.821C94.7042 154.549 86.398 154.63 80.9654 153.007C80.8769 152.98 80.7894 152.953 80.7019 152.926C78.9664 152.379 77.7225 151.696 77.0412 150.932V150.933Z" fill="#12123D"/>
<path d="M99.2779 146.295C99.3655 146.321 99.4521 146.348 99.5378 146.374C104.848 148.048 104.957 150.806 99.7804 152.536C94.688 154.237 86.3763 154.31 81.0523 152.718C80.9647 152.692 80.879 152.665 80.7924 152.639C75.4829 150.965 75.3744 148.207 80.5507 146.477C85.6431 144.775 93.9529 144.703 99.277 146.295H99.2779Z" fill="white"/>
<path d="M90.1134 154.174C86.8449 154.174 83.5746 153.787 80.9664 153.008C80.8779 152.981 80.7904 152.954 80.7028 152.926C77.9633 152.064 76.4494 150.859 76.4376 149.538C76.4266 148.248 77.8538 147.06 80.4566 146.19C85.6274 144.462 93.9327 144.381 99.3653 146.004C99.4547 146.031 99.5422 146.058 99.6298 146.086C102.369 146.948 103.884 148.152 103.896 149.475C103.907 150.764 102.48 151.952 99.8778 152.822C97.1902 153.721 93.6536 154.174 90.1152 154.174H90.1134ZM90.2283 145.459C86.7337 145.459 83.2399 145.897 80.6472 146.763C78.3472 147.532 77.0322 148.541 77.0413 149.532C77.0504 150.555 78.4512 151.583 80.8843 152.349C80.9691 152.376 81.0539 152.402 81.1397 152.428C86.3816 153.995 94.7006 153.914 99.6854 152.248C101.985 151.479 103.3 150.47 103.291 149.479C103.282 148.456 101.881 147.429 99.4483 146.662C99.3635 146.635 99.2787 146.609 99.192 146.583C96.6768 145.832 93.453 145.459 90.2283 145.459Z" fill="#12123D"/>
<path d="M97.6424 148.37L98.1066 148.929L96.4915 149.156C96.7533 149.547 96.7086 149.84 96.5718 150.069L94.3603 150.194C94.4387 150.017 94.6439 149.695 94.3037 149.284C94.1624 149.113 93.9572 149.011 93.7265 148.957C93.4547 148.894 93.1474 148.897 92.8692 148.936C92.2628 149.021 92.0439 149.275 91.8569 149.842C91.649 150.63 90.8666 151.046 89.215 151.278C88.1325 151.429 87.0235 151.409 86.1344 151.201C85.6811 151.095 85.2844 150.942 84.9771 150.737L83.1048 151L82.6406 150.44L84.3852 150.196C84.1235 149.805 84.1463 149.388 84.3706 149.114L86.6606 148.984C86.4371 149.284 86.3304 149.674 86.6378 150.045C86.7782 150.215 87.0053 150.342 87.2953 150.408C87.5607 150.471 87.879 150.482 88.2301 150.433C88.9277 150.335 89.2168 150.091 89.3253 149.603C89.4804 148.899 90.0531 148.353 91.8341 148.104C92.903 147.954 93.9472 147.981 94.7898 148.177C95.2212 148.278 95.5987 148.423 95.9006 148.611L97.6443 148.366L97.6424 148.37Z" fill="#FFCB03"/>
<path d="M134.312 158.609L134.315 162.409C134.317 163.56 132.986 164.714 130.314 165.608C124.97 167.393 116.248 167.469 110.661 165.799C110.568 165.772 110.478 165.745 110.388 165.715C107.557 164.823 106.135 163.637 106.134 162.449L106.131 158.649C106.133 159.838 107.554 161.024 110.385 161.916C110.475 161.944 110.566 161.972 110.658 162C116.245 163.669 124.967 163.594 130.312 161.808C132.984 160.915 134.314 159.761 134.312 158.609Z" fill="#FFCB03"/>
<path d="M129.785 155.257C129.877 155.285 129.967 155.313 130.057 155.341C135.63 157.097 135.743 159.992 130.312 161.807C124.968 163.593 116.245 163.668 110.658 161.999C110.566 161.971 110.475 161.944 110.385 161.915C104.813 160.159 104.7 157.264 110.132 155.449C115.476 153.663 124.197 153.587 129.784 155.257H129.785Z" fill="#6A6ACF"/>
<path d="M135.092 153.339L135.094 157.139C135.096 158.29 133.766 159.444 131.094 160.338C125.75 162.124 117.028 162.199 111.44 160.53C111.348 160.502 111.257 160.475 111.167 160.446C108.336 159.554 106.915 158.368 106.913 157.179L106.91 153.379C106.912 154.568 108.334 155.754 111.164 156.646C111.255 156.674 111.345 156.702 111.437 156.73C117.024 158.4 125.746 158.325 131.091 156.538C133.763 155.645 135.094 154.491 135.092 153.339Z" fill="#FFCB03"/>
<path d="M130.564 149.988C130.656 150.015 130.746 150.043 130.836 150.072C136.41 151.827 136.523 154.722 131.091 156.537C125.747 158.323 117.025 158.399 111.437 156.729C111.345 156.702 111.255 156.674 111.164 156.645C105.592 154.889 105.479 151.994 110.911 150.179C116.255 148.394 124.976 148.318 130.563 149.988H130.564Z" fill="#6A6ACF"/>
<path d="M132.858 148.028L132.861 151.828C132.863 152.979 131.532 154.133 128.86 155.027C123.516 156.813 114.794 156.889 109.206 155.219C109.114 155.192 109.024 155.164 108.934 155.135C106.103 154.243 104.681 153.057 104.679 151.868L104.677 148.068C104.679 149.257 106.1 150.443 108.931 151.335C109.021 151.363 109.112 151.391 109.204 151.419C114.79 153.089 123.512 153.014 128.858 151.227C131.53 150.334 132.86 149.18 132.858 148.028Z" fill="#FFCB03"/>
<path d="M128.33 144.678C128.423 144.705 128.513 144.733 128.603 144.762C134.176 146.517 134.289 149.412 128.858 151.227C123.513 153.013 114.791 153.089 109.204 151.419C109.112 151.392 109.021 151.364 108.931 151.335C103.359 149.58 103.246 146.684 108.678 144.869C114.022 143.084 122.743 143.008 128.329 144.678H128.33Z" fill="#6A6ACF"/>
<path d="M135.627 143.654L135.63 147.454C135.631 148.605 134.301 149.759 131.629 150.653C126.285 152.439 117.563 152.515 111.975 150.845C111.883 150.817 111.793 150.79 111.702 150.761C108.872 149.869 107.45 148.683 107.448 147.494L107.445 143.694C107.447 144.883 108.869 146.07 111.7 146.961C111.79 146.989 111.88 147.017 111.972 147.045C117.559 148.715 126.281 148.64 131.626 146.853C134.298 145.96 135.629 144.806 135.627 143.654Z" fill="#FFCB03"/>
<path d="M131.098 140.303C131.19 140.33 131.28 140.358 131.372 140.387C136.945 142.142 137.058 145.037 131.626 146.852C126.282 148.638 117.56 148.714 111.972 147.044C111.88 147.017 111.79 146.989 111.7 146.96C106.128 145.205 106.014 142.309 111.446 140.494C116.79 138.709 125.511 138.633 131.098 140.303Z" fill="#6A6ACF"/>
<path d="M132.352 139.32L132.355 143.12C132.357 144.271 131.026 145.425 128.354 146.319C123.01 148.105 114.288 148.181 108.701 146.511C108.609 146.484 108.518 146.456 108.428 146.427C105.597 145.535 104.175 144.349 104.174 143.16L104.171 139.361C104.173 140.549 105.594 141.735 108.425 142.627C108.516 142.656 108.606 142.683 108.698 142.711C114.285 144.381 123.007 144.306 128.352 142.519C131.024 141.627 132.354 140.473 132.352 139.32Z" fill="#FFCB03"/>
<path d="M127.825 135.97C127.917 135.997 128.007 136.026 128.097 136.054C133.67 137.81 133.783 140.705 128.352 142.52C123.008 144.305 114.286 144.381 108.698 142.711C108.606 142.684 108.516 142.656 108.425 142.627C102.853 140.872 102.74 137.977 108.172 136.162C113.516 134.376 122.237 134.3 127.824 135.97H127.825Z" fill="#6A6ACF"/>
<path d="M134.737 134.437L134.74 138.237C134.742 139.388 133.411 140.542 130.739 141.436C125.395 143.222 116.673 143.297 111.085 141.628C110.993 141.6 110.903 141.573 110.813 141.544C107.982 140.652 106.56 139.466 106.558 138.277L106.556 134.477C106.557 135.666 107.979 136.852 110.81 137.744C110.9 137.772 110.991 137.8 111.083 137.828C116.669 139.498 125.391 139.423 130.736 137.636C133.408 136.743 134.739 135.589 134.737 134.437Z" fill="#FFCB03"/>
<path d="M120.595 143.139C117.167 143.139 113.736 142.734 111 141.916C110.907 141.888 110.815 141.86 110.723 141.831C107.845 140.925 106.259 139.662 106.258 138.276L106.255 134.476C106.255 134.309 106.39 134.174 106.557 134.173C106.724 134.173 106.859 134.308 106.859 134.475C106.86 135.56 108.334 136.645 110.901 137.454C110.99 137.483 111.079 137.51 111.169 137.537C116.673 139.182 125.408 139.097 130.641 137.348C133.054 136.542 134.436 135.48 134.436 134.437C134.436 134.27 134.57 134.135 134.737 134.135C134.904 134.135 135.039 134.27 135.039 134.437V134.439L135.042 138.236C135.044 139.576 133.55 140.814 130.835 141.722C128.015 142.664 124.306 143.139 120.595 143.139ZM106.859 135.915L106.86 138.276C106.862 139.36 108.336 140.446 110.903 141.255C110.992 141.283 111.081 141.311 111.171 141.337C116.674 142.982 125.409 142.897 130.643 141.149C133.056 140.343 134.438 139.281 134.437 138.238L134.436 135.877C133.762 136.652 132.538 137.353 130.831 137.924C125.408 139.736 116.695 139.822 110.996 138.118C110.903 138.091 110.811 138.062 110.72 138.033C108.879 137.453 107.566 136.727 106.86 135.917L106.859 135.915Z" fill="#12123D"/>
<path d="M130.208 131.085C130.3 131.113 130.391 131.141 130.481 131.169C136.054 132.925 136.167 135.82 130.735 137.635C125.391 139.421 116.669 139.497 111.082 137.827C110.99 137.799 110.899 137.772 110.809 137.743C105.237 135.987 105.124 133.092 110.555 131.277C115.9 129.491 124.621 129.416 130.207 131.085H130.208Z" fill="white"/>
<path d="M124.104 131.766L123.428 132.358C124.04 132.438 124.5 132.53 124.858 132.626C125.105 132.692 125.303 132.761 125.466 132.827L124.139 133.539C123.969 133.477 123.738 133.383 123.394 133.291C123.079 133.206 122.669 133.122 122.125 133.064C121.098 132.953 120.552 133.106 120.335 133.294C120.082 133.516 120.474 133.717 121.571 134.077C123.129 134.563 123.464 135.015 122.772 135.62C122.088 136.219 120.51 136.623 118.539 136.561L117.755 137.247L116.206 137.08L116.936 136.441C116.352 136.365 115.816 136.258 115.381 136.142C115.044 136.051 114.769 135.954 114.58 135.861L115.953 135.125C116.197 135.239 116.513 135.356 116.895 135.459C117.277 135.561 117.725 135.649 118.239 135.704C119.14 135.801 119.924 135.72 120.232 135.45C120.524 135.195 120.202 134.979 119.226 134.684C117.811 134.26 117.042 133.799 117.787 133.146C118.464 132.554 119.973 132.196 121.826 132.237L122.555 131.598L124.104 131.765V131.766Z" fill="#FFCB03"/>
<path d="M120.602 139.309C117.131 139.309 113.687 138.898 111.002 138.095C110.909 138.068 110.817 138.04 110.726 138.01C107.868 137.11 106.287 135.859 106.275 134.489C106.264 133.153 107.753 131.918 110.468 131.011C112.177 130.44 114.311 130.019 116.64 129.794C116.795 129.78 116.931 129.893 116.946 130.047C116.961 130.202 116.848 130.339 116.694 130.354C114.407 130.575 112.314 130.986 110.646 131.544C108.216 132.355 106.827 133.428 106.836 134.484C106.845 135.575 108.325 136.666 110.895 137.475C110.983 137.504 111.072 137.531 111.163 137.557C115.816 138.948 122.799 139.143 128.147 138.032C128.299 138 128.447 138.098 128.479 138.25C128.511 138.402 128.413 138.551 128.261 138.583C125.912 139.071 123.25 139.31 120.603 139.31L120.602 139.309Z" fill="#12123D"/>
<path d="M165.554 158.551L165.556 162.351C165.558 163.502 164.228 164.656 161.556 165.55C156.211 167.336 147.489 167.412 141.902 165.742C141.81 165.714 141.719 165.687 141.629 165.658C138.798 164.766 137.377 163.58 137.375 162.391L137.372 158.591C137.374 159.78 138.796 160.966 141.626 161.858C141.717 161.886 141.807 161.915 141.899 161.942C147.486 163.612 156.208 163.537 161.553 161.75C164.225 160.857 165.555 159.703 165.554 158.551Z" fill="#FFCB03"/>
<path d="M161.026 155.2C161.118 155.227 161.208 155.255 161.298 155.284C166.871 157.039 166.985 159.934 161.553 161.749C156.209 163.535 147.487 163.611 141.899 161.941C141.807 161.914 141.717 161.886 141.626 161.857C136.054 160.101 135.941 157.206 141.373 155.391C146.717 153.606 155.438 153.53 161.025 155.2H161.026Z" fill="#6A6ACF"/>
<path d="M167.06 153.777L167.063 157.577C167.065 158.728 165.734 159.882 163.062 160.776C157.718 162.562 148.996 162.638 143.409 160.968C143.317 160.941 143.226 160.913 143.136 160.884C140.305 159.992 138.883 158.806 138.882 157.617L138.879 153.818C138.881 155.006 140.302 156.192 143.133 157.084C143.224 157.112 143.314 157.141 143.406 157.168C148.993 158.838 157.715 158.763 163.06 156.976C165.732 156.084 167.062 154.929 167.06 153.777Z" fill="#FFCB03"/>
<path d="M162.533 150.426C162.625 150.453 162.715 150.481 162.805 150.51C168.378 152.265 168.491 155.16 163.06 156.975C157.716 158.761 148.994 158.837 143.406 157.167C143.314 157.14 143.224 157.112 143.133 157.083C137.561 155.328 137.448 152.433 142.88 150.618C148.224 148.832 156.945 148.756 162.532 150.426H162.533Z" fill="#6A6ACF"/>
<path d="M164.928 149.6L164.93 153.4C164.932 154.552 163.602 155.706 160.93 156.599C155.585 158.385 146.863 158.461 141.276 156.791C141.184 156.764 141.093 156.736 141.003 156.707C138.172 155.815 136.751 154.629 136.749 153.44L136.746 149.641C136.748 150.829 138.17 152.015 141 152.907C141.091 152.936 141.181 152.964 141.273 152.991C146.86 154.661 155.582 154.586 160.927 152.8C163.599 151.907 164.929 150.753 164.928 149.6Z" fill="#FFCB03"/>
<path d="M160.399 146.249C160.491 146.276 160.581 146.305 160.671 146.333C166.244 148.089 166.358 150.984 160.926 152.799C155.582 154.584 146.86 154.66 141.272 152.99C141.18 152.963 141.09 152.936 140.999 152.906C135.427 151.151 135.314 148.256 140.746 146.441C146.09 144.655 154.811 144.579 160.398 146.249H160.399Z" fill="#6A6ACF"/>
<path d="M166.086 144.078L166.089 147.878C166.09 149.029 164.76 150.183 162.088 151.077C156.744 152.863 148.022 152.938 142.434 151.268C142.342 151.241 142.252 151.214 142.161 151.184C139.331 150.292 137.909 149.107 137.907 147.918L137.904 144.118C137.906 145.307 139.328 146.493 142.159 147.385C142.249 147.413 142.339 147.441 142.431 147.469C148.018 149.138 156.74 149.064 162.085 147.277C164.757 146.384 166.088 145.23 166.086 144.078Z" fill="#FFCB03"/>
<path d="M161.558 140.726C161.65 140.754 161.74 140.782 161.831 140.81C167.404 142.566 167.517 145.461 162.085 147.276C156.741 149.062 148.019 149.138 142.431 147.468C142.339 147.44 142.249 147.413 142.159 147.384C136.587 145.628 136.473 142.733 141.905 140.918C147.249 139.132 155.97 139.057 161.557 140.726H161.558Z" fill="#6A6ACF"/>
<path d="M165.495 139.4L165.498 143.2C165.5 144.351 164.169 145.505 161.497 146.399C156.153 148.184 147.431 148.26 141.843 146.59C141.751 146.563 141.661 146.536 141.571 146.506C138.74 145.614 137.318 144.428 137.316 143.24L137.313 139.44C137.315 140.629 138.737 141.815 141.568 142.707C141.658 142.735 141.748 142.762 141.84 142.791C147.427 144.46 156.149 144.386 161.494 142.599C164.166 141.706 165.497 140.552 165.495 139.4Z" fill="#FFCB03"/>
<path d="M160.967 136.049C161.059 136.077 161.15 136.105 161.24 136.133C166.813 137.889 166.926 140.784 161.494 142.599C156.15 144.385 147.428 144.46 141.84 142.791C141.748 142.763 141.658 142.736 141.568 142.707C135.996 140.951 135.883 138.056 141.314 136.241C146.658 134.455 155.38 134.379 160.966 136.049H160.967Z" fill="#6A6ACF"/>
<path d="M164.381 134.122L164.384 137.922C164.385 139.073 163.055 140.227 160.383 141.121C155.039 142.907 146.317 142.982 140.729 141.313C140.637 141.285 140.547 141.258 140.456 141.229C137.626 140.337 136.204 139.151 136.202 137.962L136.199 134.162C136.201 135.351 137.623 136.537 140.454 137.429C140.544 137.457 140.634 137.484 140.726 137.513C146.313 139.183 155.035 139.108 160.38 137.321C163.052 136.428 164.383 135.273 164.381 134.122Z" fill="#FFCB03"/>
<path d="M159.853 130.771C159.945 130.799 160.035 130.827 160.126 130.855C165.699 132.611 165.812 135.506 160.38 137.321C155.036 139.107 146.314 139.183 140.726 137.513C140.634 137.485 140.544 137.458 140.454 137.429C134.881 135.673 134.768 132.778 140.2 130.963C145.544 129.177 154.265 129.102 159.852 130.771H159.853Z" fill="#6A6ACF"/>
<path d="M165.562 129.069L165.565 132.868C165.567 134.02 164.236 135.174 161.564 136.067C156.22 137.853 147.498 137.929 141.911 136.259C141.818 136.232 141.728 136.204 141.638 136.175C138.807 135.283 137.385 134.097 137.384 132.909L137.381 129.109C137.383 130.297 138.804 131.483 141.635 132.375C141.725 132.404 141.816 132.432 141.908 132.459C147.495 134.129 156.217 134.054 161.562 132.268C164.234 131.375 165.564 130.221 165.562 129.069Z" fill="#FFCB03"/>
<path d="M161.035 125.717C161.127 125.744 161.217 125.773 161.307 125.801C166.88 127.557 166.993 130.452 161.562 132.267C156.218 134.053 147.495 134.128 141.908 132.458C141.816 132.431 141.725 132.404 141.635 132.374C136.063 130.619 135.95 127.724 141.382 125.909C146.726 124.123 155.447 124.047 161.034 125.717H161.035Z" fill="#6A6ACF"/>
<path d="M163.701 125.203L163.704 129.003C163.706 130.154 162.375 131.308 159.703 132.202C154.359 133.988 145.637 134.064 140.049 132.394C139.957 132.366 139.867 132.339 139.777 132.31C136.946 131.418 135.524 130.232 135.522 129.043L135.52 125.243C135.521 126.432 136.943 127.618 139.774 128.51C139.864 128.538 139.954 128.567 140.047 128.594C145.633 130.264 154.355 130.189 159.7 128.402C162.372 127.509 163.703 126.354 163.701 125.203Z" fill="#FFCB03"/>
<path d="M159.172 121.853C159.264 121.88 159.355 121.908 159.445 121.937C165.018 123.692 165.131 126.587 159.699 128.402C154.355 130.188 145.633 130.264 140.046 128.594C139.953 128.567 139.863 128.539 139.773 128.51C134.201 126.754 134.088 123.859 139.519 122.044C144.863 120.259 153.585 120.183 159.171 121.853H159.172Z" fill="#6A6ACF"/>
<path d="M165.501 119.907L165.504 123.707C165.505 124.858 164.175 126.013 161.503 126.906C156.159 128.691 147.437 128.767 141.849 127.097C141.757 127.07 141.667 127.043 141.576 127.013C138.746 126.121 137.324 124.936 137.322 123.747L137.319 119.947C137.321 121.136 138.743 122.322 141.574 123.214C141.664 123.242 141.754 123.269 141.846 123.298C147.433 124.967 156.155 124.893 161.5 123.106C164.172 122.213 165.503 121.059 165.501 119.907Z" fill="#FFCB03"/>
<path d="M160.973 116.556C161.065 116.584 161.155 116.612 161.246 116.64C166.819 118.396 166.932 121.291 161.5 123.106C156.156 124.892 147.434 124.968 141.846 123.298C141.754 123.27 141.664 123.243 141.574 123.214C136.002 121.458 135.888 118.563 141.32 116.748C146.664 114.962 155.385 114.886 160.972 116.556H160.973Z" fill="#6A6ACF"/>
<path d="M163.858 114.307L163.861 118.107C163.863 119.258 162.532 120.412 159.86 121.306C154.516 123.091 145.794 123.167 140.206 121.497C140.114 121.47 140.024 121.443 139.934 121.413C137.103 120.521 135.681 119.335 135.679 118.147L135.677 114.347C135.679 115.536 137.1 116.722 139.931 117.614C140.021 117.642 140.112 117.669 140.204 117.698C145.79 119.367 154.512 119.292 159.858 117.506C162.53 116.613 163.86 115.459 163.858 114.307Z" fill="#FFCB03"/>
<path d="M159.33 110.956C159.423 110.984 159.513 111.012 159.603 111.04C165.176 112.796 165.289 115.691 159.858 117.506C154.513 119.292 145.791 119.367 140.204 117.698C140.112 117.67 140.021 117.643 139.931 117.614C134.359 115.858 134.246 112.963 139.678 111.148C145.022 109.362 153.743 109.286 159.329 110.956H159.33Z" fill="#6A6ACF"/>
<path d="M164.908 108.995L164.911 112.795C164.913 113.946 163.582 115.1 160.91 115.994C155.566 117.78 146.844 117.856 141.256 116.186C141.164 116.158 141.074 116.131 140.984 116.102C138.153 115.21 136.731 114.024 136.729 112.835L136.727 109.035C136.728 110.224 138.15 111.41 140.981 112.302C141.071 112.33 141.161 112.358 141.254 112.386C146.84 114.056 155.562 113.981 160.907 112.194C163.579 111.301 164.91 110.147 164.908 108.995Z" fill="#FFCB03"/>
<path d="M150.765 117.698C147.337 117.698 143.907 117.292 141.17 116.474C141.077 116.446 140.985 116.418 140.893 116.389C138.015 115.483 136.43 114.22 136.428 112.834L136.425 109.034C136.425 108.867 136.56 108.732 136.727 108.731C136.894 108.731 137.029 108.866 137.029 109.033C137.03 110.118 138.504 111.204 141.071 112.012C141.16 112.041 141.249 112.068 141.339 112.095C146.842 113.74 155.578 113.655 160.811 111.907C163.224 111.1 164.606 110.039 164.605 108.995C164.605 108.828 164.74 108.693 164.907 108.693C165.074 108.693 165.209 108.828 165.209 108.994V108.997L165.212 112.794C165.214 114.134 163.72 115.372 161.005 116.28C158.185 117.222 154.476 117.698 150.765 117.698H150.765ZM137.029 110.473L137.031 112.834C137.033 113.918 138.507 115.004 141.074 115.813C141.162 115.841 141.252 115.869 141.342 115.895C146.845 117.54 155.58 117.456 160.813 115.707C163.227 114.901 164.609 113.839 164.608 112.796L164.606 110.435C163.933 111.21 162.709 111.911 161.002 112.482C155.578 114.294 146.866 114.38 141.167 112.676C141.074 112.649 140.982 112.62 140.891 112.591C139.049 112.011 137.737 111.285 137.029 110.475V110.473Z" fill="#12123D"/>
<path d="M160.38 105.644C160.472 105.671 160.563 105.699 160.653 105.728C166.226 107.483 166.339 110.378 160.907 112.193C155.563 113.979 146.841 114.055 141.254 112.385C141.161 112.358 141.071 112.33 140.981 112.301C135.409 110.545 135.296 107.65 140.727 105.835C146.071 104.05 154.793 103.974 160.379 105.644H160.38Z" fill="white"/>
<path d="M150.763 113.898C147.335 113.898 143.904 113.492 141.167 112.674C141.074 112.647 140.982 112.619 140.891 112.589C138.023 111.686 136.437 110.428 136.425 109.047C136.413 107.701 137.908 106.459 140.632 105.549C146.055 103.736 154.767 103.651 160.466 105.354C160.56 105.382 160.651 105.41 160.743 105.439C163.611 106.343 165.197 107.601 165.209 108.981C165.221 110.327 163.726 111.57 161.002 112.48C158.183 113.422 154.474 113.898 150.762 113.898H150.763ZM150.883 104.753C147.214 104.753 143.546 105.213 140.823 106.122C138.403 106.931 137.019 107.995 137.029 109.043C137.038 110.124 138.511 111.206 141.071 112.013C141.16 112.042 141.249 112.069 141.339 112.096C146.842 113.741 155.578 113.656 160.811 111.907C163.231 111.099 164.615 110.034 164.606 108.987C164.596 107.906 163.123 106.823 160.562 106.016C160.472 105.988 160.384 105.96 160.293 105.934C157.653 105.145 154.267 104.753 150.882 104.753H150.883Z" fill="#12123D"/>
<path d="M154.01 106.603L153.821 107.422C153.229 107.394 152.166 107.32 150.638 107.449C149.261 107.564 148.92 107.792 149.025 107.983C149.062 108.047 149.157 108.1 149.321 108.144C149.721 108.252 150.531 108.306 151.896 108.352C153.358 108.392 154.387 108.496 155.075 108.681C155.65 108.835 155.987 109.046 156.142 109.324C156.478 109.928 155.428 110.556 153.065 110.898L153.451 111.591L151.372 111.766L151.013 111.121C149.582 111.221 148.134 111.214 147.245 111.133L147.44 110.285C148.419 110.366 149.749 110.404 151.126 110.288C152.337 110.186 153.08 109.967 152.93 109.695C152.881 109.607 152.757 109.536 152.548 109.48C152.151 109.373 151.444 109.319 150.353 109.295C148.878 109.262 147.655 109.17 146.845 108.953C146.334 108.816 145.987 108.628 145.845 108.373C145.513 107.776 146.568 107.197 148.758 106.863L148.4 106.219L150.477 106.043L150.808 106.641C152.241 106.542 153.248 106.557 154.008 106.607L154.01 106.603Z" fill="#FFCB03"/>
<path d="M4.39081 148.456C4.14275 148.456 3.88649 148.406 3.63023 148.289C2.94625 147.975 2.47841 147.247 2.49209 146.518C2.51398 145.357 3.68586 144.707 4.30234 144.525C4.61515 144.433 4.94072 144.407 5.27085 144.439C5.0766 144.264 4.8933 144.148 4.79298 144.086C4.58049 143.953 3.45969 143.313 2.25772 143.829C1.64032 144.093 1.26459 144.547 1.05757 144.881C0.970023 145.023 0.783982 145.068 0.641716 144.979C0.500361 144.891 0.456587 144.705 0.544135 144.563C0.79675 144.155 1.25729 143.6 2.0197 143.273C3.4989 142.638 4.85682 143.411 5.11308 143.573C5.33651 143.714 5.8992 144.067 6.26763 144.717C6.9516 145.031 7.59819 145.588 8.10068 146.338C8.1937 146.477 8.15722 146.664 8.0186 146.758C7.87998 146.851 7.69303 146.814 7.60001 146.675C7.30727 146.239 6.95434 145.876 6.57679 145.603C6.64427 146.032 6.70628 147.069 5.93111 147.805C5.57089 148.146 5.00729 148.455 4.38898 148.455L4.39081 148.456ZM4.9927 145.032C4.81487 145.032 4.63977 145.056 4.47288 145.105C3.92753 145.266 3.11041 145.777 3.09673 146.529C3.08761 147.025 3.41044 147.523 3.88284 147.739C4.54402 148.042 5.22252 147.648 5.51799 147.366C6.14087 146.776 6.02049 145.878 5.9685 145.617C5.93841 145.465 5.8919 145.324 5.83445 145.195C5.55265 145.089 5.26812 145.032 4.99361 145.032H4.9927Z" fill="#12123D"/>
<path d="M42.4023 133.59L44.7233 126.991C44.9714 126.285 45.9389 126.208 46.2928 126.868C47.3589 128.85 48.6101 132.607 46.3056 137.058L42.4023 133.59Z" fill="#FFCB03"/>
<path d="M46.3051 137.36C46.2322 137.36 46.1601 137.334 46.1045 137.285L42.2013 133.816C42.1092 133.735 42.0763 133.605 42.1165 133.49L44.4374 126.891C44.5924 126.45 44.9782 126.154 45.4442 126.117C45.9102 126.082 46.3361 126.313 46.5568 126.725C47.5919 128.65 48.969 132.568 46.5714 137.199C46.5285 137.282 46.4501 137.34 46.3589 137.357C46.3407 137.36 46.3224 137.362 46.3042 137.362L46.3051 137.36ZM42.7539 133.498L46.2112 136.571C48.2385 132.34 46.9791 128.781 46.027 127.011C45.9194 126.81 45.7178 126.701 45.4926 126.719C45.2646 126.736 45.084 126.876 45.0083 127.091L42.7548 133.498H42.7539Z" fill="#12123D"/>
<path d="M17.4117 155.643L17.2192 155.608C15.3807 155.277 13.6234 156.502 13.2932 158.341L12.5646 162.403C12.2344 164.244 13.4574 166.003 15.295 166.334L15.4874 166.368C17.3259 166.699 19.0833 165.474 19.4134 163.635L20.1421 159.573C20.4722 157.732 19.2493 155.973 17.4117 155.643Z" fill="#FFCB03"/>
<path d="M16.0874 166.723C15.8722 166.723 15.6542 166.704 15.4344 166.665L15.242 166.63C13.243 166.271 11.9088 164.351 12.2672 162.349L12.9958 158.287C13.3552 156.286 15.273 154.951 17.2721 155.309L17.4645 155.344C19.4635 155.703 20.7977 157.624 20.4393 159.625L19.7106 163.687C19.3915 165.469 17.8347 166.723 16.0865 166.723H16.0874ZM16.62 155.856C15.1581 155.856 13.8577 156.905 13.5904 158.395L12.8618 162.457C12.5617 164.131 13.6771 165.736 15.3487 166.037L15.5411 166.071C17.2119 166.372 18.8169 165.255 19.117 163.582L19.8456 159.52C20.1457 157.847 19.0303 156.241 17.3587 155.94L17.1663 155.906C16.983 155.873 16.8006 155.857 16.6209 155.857L16.62 155.856Z" fill="#12123D"/>
<path d="M40.2776 155.637L40.4696 155.603C42.307 155.273 44.0659 156.498 44.3956 158.337L45.1242 162.398C45.454 164.237 44.2309 165.998 42.3935 166.329L42.2014 166.363C40.364 166.693 38.6052 165.468 38.2754 163.629L37.5469 159.568C37.2169 157.728 38.441 155.968 40.2776 155.637Z" fill="#FFCB03"/>
<path d="M41.5906 166.723C39.8423 166.723 38.2865 165.469 37.9664 163.687L37.2378 159.625C37.0636 158.655 37.2779 157.677 37.8397 156.868C38.4014 156.059 39.2441 155.518 40.2126 155.344L40.405 155.309C42.404 154.95 44.3228 156.286 44.6812 158.287L45.4099 162.349C45.7692 164.351 44.4341 166.271 42.435 166.63L42.2426 166.665C42.0237 166.704 41.8049 166.723 41.5897 166.723H41.5906ZM40.3193 155.939C39.5095 156.084 38.8045 156.537 38.3348 157.214C37.8652 157.89 37.6864 158.708 37.8314 159.519L38.5601 163.581C38.8601 165.254 40.4643 166.371 42.1359 166.071L42.3283 166.036C44 165.736 45.1153 164.13 44.8153 162.456L44.0866 158.394C43.7866 156.721 42.1824 155.604 40.5108 155.905L40.3184 155.939H40.3193Z" fill="#12123D"/>
<path d="M42.2606 132.932L41.7408 127.251C41.6906 126.704 41.1097 126.371 40.6173 126.612C39.6114 127.106 38.1549 128.277 37.5895 131.003C36.3119 130.692 34.9767 130.525 33.6033 130.525H24.0268C14.7557 130.525 7.24023 138.049 7.24023 147.33C7.24023 156.611 14.7557 164.135 24.0268 164.135H33.6033C42.8744 164.135 50.3899 156.611 50.3899 147.33C50.3899 141.219 47.1323 135.871 42.2615 132.93L42.2606 132.932Z" fill="white"/>
<path d="M33.6025 164.439H24.0259C14.6035 164.439 6.9375 156.765 6.9375 147.332C6.9375 137.899 14.6035 130.224 24.0259 130.224H33.6025C34.8683 130.224 36.1304 130.363 37.3607 130.64C37.9799 128.059 39.3889 126.878 40.4832 126.341C40.8015 126.185 41.1772 126.196 41.4873 126.37C41.801 126.546 42.0071 126.866 42.04 127.224L42.5461 132.753C47.6485 135.894 50.69 141.333 50.69 147.332C50.69 156.765 43.024 164.439 33.6015 164.439H33.6025ZM24.0259 130.828C14.9363 130.828 7.54122 138.231 7.54122 147.331C7.54122 156.43 14.9363 163.835 24.0259 163.835H33.6025C42.692 163.835 50.0871 156.431 50.0871 147.332C50.0871 141.495 47.1032 136.209 42.1047 133.191C42.0226 133.141 41.9688 133.056 41.9597 132.96L41.4399 127.279C41.4253 127.117 41.335 126.978 41.1927 126.898C41.0532 126.819 40.8918 126.815 40.7495 126.884C39.7345 127.382 38.414 128.513 37.885 131.065C37.8686 131.146 37.8203 131.216 37.751 131.26C37.6817 131.304 37.5978 131.317 37.5184 131.298C36.2408 130.987 34.923 130.829 33.6034 130.829H24.0268L24.0259 130.828Z" fill="#12123D"/>
<path d="M33.7382 159.387H23.8899C15.954 159.387 9.26929 154.025 7.25111 146.723C7.24382 146.925 7.23926 147.127 7.23926 147.331C7.23926 156.612 14.7548 164.137 24.0258 164.137H33.6024C42.8734 164.137 50.3889 156.613 50.3889 147.332C50.3889 147.127 50.3852 146.924 50.3779 146.72C48.3607 154.024 41.6751 159.387 33.7382 159.387Z" fill="#6A6ACF"/>
<path d="M33.6025 164.439H24.0259C14.6035 164.439 6.9375 156.765 6.9375 147.332C6.9375 137.899 14.6035 130.224 24.0259 130.224H33.6025C34.8683 130.224 36.1304 130.363 37.3607 130.64C37.9799 128.059 39.3889 126.878 40.4832 126.341C40.8015 126.185 41.1772 126.196 41.4873 126.37C41.801 126.546 42.0071 126.866 42.04 127.224L42.5461 132.753C47.6485 135.894 50.69 141.333 50.69 147.332C50.69 156.765 43.024 164.439 33.6015 164.439H33.6025ZM24.0259 130.828C14.9363 130.828 7.54122 138.231 7.54122 147.331C7.54122 156.43 14.9363 163.835 24.0259 163.835H33.6025C42.692 163.835 50.0871 156.431 50.0871 147.332C50.0871 141.495 47.1032 136.209 42.1047 133.191C42.0226 133.141 41.9688 133.056 41.9597 132.96L41.4399 127.279C41.4253 127.117 41.335 126.978 41.1927 126.898C41.0532 126.819 40.8918 126.815 40.7495 126.884C39.7345 127.382 38.414 128.513 37.885 131.065C37.8686 131.146 37.8203 131.216 37.751 131.26C37.6817 131.304 37.5978 131.317 37.5184 131.298C36.2408 130.987 34.923 130.829 33.6034 130.829H24.0268L24.0259 130.828Z" fill="#12123D"/>
<path d="M35.0423 131.94H21.5534C21.2233 131.94 20.9561 132.208 20.9561 132.538C20.9561 132.869 21.2233 133.136 21.5534 133.136H35.0423C35.3724 133.136 35.6396 132.869 35.6396 132.538C35.6396 132.208 35.3724 131.94 35.0423 131.94Z" fill="#12123D"/>
<path d="M51.118 150.195C51.118 148.628 50.8344 147.2 50.3684 146.117V144.073H48.1733C46.5472 144.073 45.2285 146.814 45.2285 150.195C45.2285 153.576 46.5472 156.316 48.1733 156.316H50.3684V154.273C50.8344 153.19 51.118 151.762 51.118 150.195Z" fill="#6A6ACF"/>
<path d="M50.3685 156.619H48.1734C46.3531 156.619 44.9268 153.798 44.9268 150.195C44.9268 146.592 46.3531 143.771 48.1734 143.771H50.3685C50.5353 143.771 50.6703 143.906 50.6703 144.073V146.055C51.1537 147.208 51.4199 148.674 51.4199 150.195C51.4199 151.716 51.1546 153.183 50.6703 154.334V156.316C50.6703 156.483 50.5353 156.619 50.3685 156.619ZM48.1734 144.377C46.7407 144.377 45.5305 147.042 45.5305 150.196C45.5305 153.35 46.7407 156.015 48.1734 156.015H50.0666V154.274C50.0666 154.233 50.0748 154.192 50.0912 154.154C50.5581 153.068 50.8162 151.662 50.8162 150.196C50.8162 148.73 50.5591 147.324 50.0912 146.237C50.0748 146.2 50.0666 146.159 50.0666 146.118V144.377H48.1734Z" fill="#12123D"/>
<path d="M50.3686 156.316C51.9949 156.316 53.3133 153.576 53.3133 150.195C53.3133 146.814 51.9949 144.073 50.3686 144.073C48.7422 144.073 47.4238 146.814 47.4238 150.195C47.4238 153.576 48.7422 156.316 50.3686 156.316Z" fill="white"/>
<path d="M50.3687 156.619C48.5484 156.619 47.1221 153.797 47.1221 150.195C47.1221 146.593 48.5484 143.771 50.3687 143.771C52.189 143.771 53.6153 146.592 53.6153 150.195C53.6153 153.798 52.189 156.619 50.3687 156.619ZM50.3687 144.376C48.936 144.376 47.7258 147.041 47.7258 150.195C47.7258 153.349 48.936 156.014 50.3687 156.014C51.8014 156.014 53.0115 153.349 53.0115 150.195C53.0115 147.041 51.8014 144.376 50.3687 144.376Z" fill="#12123D"/>
<path d="M49.9663 150.179C49.9663 150.835 49.7483 151.367 49.4802 151.367C49.2121 151.367 48.9941 150.835 48.9941 150.179C48.9941 149.522 49.2121 148.99 49.4802 148.99C49.7483 148.99 49.9663 149.522 49.9663 150.179Z" fill="#FFCB03"/>
<path d="M49.4803 151.669C48.9395 151.669 48.6924 150.896 48.6924 150.179C48.6924 149.461 48.9386 148.688 49.4803 148.688C50.022 148.688 50.2683 149.461 50.2683 150.179C50.2683 150.896 50.022 151.669 49.4803 151.669ZM49.4803 149.327C49.4055 149.437 49.2961 149.733 49.2961 150.179C49.2961 150.624 49.4055 150.92 49.4803 151.03C49.5551 150.92 49.6645 150.624 49.6645 150.179C49.6645 149.733 49.5551 149.437 49.4803 149.327Z" fill="#12123D"/>
<path d="M51.8914 151.367C52.1598 151.367 52.3774 150.835 52.3774 150.179C52.3774 149.522 52.1598 148.99 51.8914 148.99C51.6229 148.99 51.4053 149.522 51.4053 150.179C51.4053 150.835 51.6229 151.367 51.8914 151.367Z" fill="#FFCB03"/>
<path d="M51.8915 151.669C51.3507 151.669 51.1035 150.896 51.1035 150.179C51.1035 149.461 51.3497 148.688 51.8915 148.688C52.4332 148.688 52.6794 149.461 52.6794 150.179C52.6794 150.896 52.4332 151.669 51.8915 151.669ZM51.8915 149.327C51.8167 149.437 51.7072 149.733 51.7072 150.179C51.7072 150.624 51.8167 150.92 51.8915 151.03C51.9662 150.92 52.0757 150.624 52.0757 150.179C52.0757 149.733 51.9662 149.437 51.8915 149.327Z" fill="#12123D"/>
<path d="M43.6086 143.818C43.6086 144.45 43.097 144.962 42.4659 144.962C41.8349 144.962 41.3232 144.45 41.3232 143.818C41.3232 143.186 41.8349 142.674 42.4659 142.674C43.097 142.674 43.6086 143.186 43.6086 143.818Z" fill="#12123D"/>
<path d="M42.4657 143.488C42.4657 143.679 42.3116 143.834 42.12 143.834C41.9285 143.834 41.7744 143.68 41.7744 143.488C41.7744 143.297 41.9285 143.142 42.12 143.142C42.3116 143.142 42.4657 143.297 42.4657 143.488Z" fill="white"/>
<path d="M39.7976 128.526C39.7976 128.526 40.4579 131.681 40.8628 133.72C41.2586 135.713 38.2838 135.583 38.1059 132.586C37.9901 130.636 39.7967 128.526 39.7967 128.526H39.7976Z" fill="#FFCB03"/>
<path d="M133.22 111.163C132.463 108.661 132.591 107.082 133.279 105.438L134.435 103.135L130.958 101.738L129.892 104.36C129.549 105.204 129.052 105.978 128.427 106.641L127.853 107.251L133.221 111.163H133.22Z" fill="white"/>
<path d="M133.221 111.465C133.159 111.465 133.096 111.446 133.043 111.407L127.674 107.496C127.604 107.445 127.559 107.366 127.551 107.28C127.543 107.193 127.573 107.107 127.632 107.044L128.207 106.434C128.809 105.795 129.281 105.059 129.612 104.246L130.678 101.624C130.741 101.469 130.916 101.396 131.07 101.458L134.548 102.854C134.626 102.886 134.688 102.949 134.717 103.028C134.747 103.107 134.743 103.195 134.705 103.271L133.553 105.565C132.957 106.994 132.723 108.48 133.509 111.076C133.546 111.2 133.501 111.334 133.395 111.41C133.343 111.447 133.281 111.466 133.22 111.466L133.221 111.465ZM128.307 107.209L132.701 110.41C132.219 108.44 132.317 106.957 133.001 105.321C133.004 105.315 133.007 105.309 133.01 105.302L134.019 103.293L131.124 102.13L130.171 104.474C129.813 105.357 129.299 106.156 128.646 106.849L128.307 107.209Z" fill="#12123D"/>
<path d="M129.425 105.972C129.338 105.701 128.981 105.635 128.786 105.842C128.236 106.428 127.273 107.408 126.542 107.914C125.861 108.385 125.648 109.295 126.034 110.023C127.126 112.083 129.887 116.551 132.798 119.96C132.998 120.194 133.492 120.505 134.205 120.185C136.599 119.107 134.324 114.237 133.025 109.165C132.974 108.966 132.813 108.813 132.611 108.776L131.888 108.643C130.552 108.376 129.99 107.747 129.424 105.971L129.425 105.972Z" fill="#12123D"/>
<path d="M126.706 107.803C126.706 107.803 126.596 107.878 126.542 107.915C125.861 108.386 125.648 109.296 126.034 110.024C127.126 112.084 129.887 116.552 132.798 119.961C132.998 120.195 133.492 120.506 134.205 120.186C134.424 120.087 134.753 119.818 134.753 119.818L134.557 119.569C131.768 116.015 129.246 112.26 127.009 108.334L126.706 107.803Z" fill="white"/>
<path d="M133.615 120.624C133.149 120.624 132.781 120.406 132.569 120.157C129.657 116.745 126.906 112.312 125.768 110.166C125.307 109.297 125.567 108.223 126.371 107.666L126.537 107.553C126.606 107.505 126.693 107.49 126.775 107.509C126.857 107.528 126.927 107.58 126.969 107.653L127.272 108.184C129.494 112.084 132.026 115.852 134.796 119.382L134.992 119.631C135.093 119.761 135.073 119.948 134.944 120.052C134.908 120.082 134.577 120.349 134.329 120.46C134.074 120.575 133.834 120.623 133.615 120.623V120.624ZM126.61 108.243C126.14 108.642 126.005 109.324 126.301 109.882C127.426 112.005 130.146 116.389 133.027 119.764C133.091 119.839 133.441 120.196 134.081 119.909C134.15 119.878 134.24 119.82 134.325 119.761L134.32 119.755C131.532 116.2 128.984 112.409 126.747 108.483L126.611 108.242L126.61 108.243Z" fill="#12123D"/>
<path d="M134.017 113.26C134.001 113.26 133.984 113.258 133.967 113.255L131.57 112.853C131.405 112.825 131.294 112.669 131.322 112.505C131.349 112.34 131.505 112.229 131.669 112.256L134.067 112.659C134.231 112.686 134.342 112.842 134.315 113.007C134.29 113.155 134.162 113.259 134.017 113.259V113.26Z" fill="#6A6ACF"/>
<path d="M134.406 114.627C134.391 114.627 134.376 114.626 134.361 114.624L132.402 114.332C132.237 114.308 132.123 114.154 132.148 113.989C132.172 113.824 132.326 113.71 132.491 113.734L134.45 114.026C134.615 114.05 134.729 114.204 134.704 114.369C134.682 114.519 134.553 114.626 134.406 114.626V114.627Z" fill="#6A6ACF"/>
<path d="M113.625 74.8472C113.625 74.8472 137.763 69.5483 145.12 73.7434C146.229 74.3752 147.28 75.6999 147.511 76.9562C148.218 80.7788 146.091 89.1106 134.462 104.772C134.298 104.993 134.005 105.078 133.748 104.981L130.058 103.579C129.759 103.466 129.597 103.142 129.684 102.833L134.61 85.5746C134.738 85.1254 134.367 84.6909 133.904 84.7475L110.901 87.5777L113.625 74.8472Z" fill="white"/>
<path d="M133.964 105.322C133.856 105.322 133.746 105.303 133.641 105.263L129.952 103.862C129.502 103.691 129.263 103.213 129.394 102.75L134.32 85.4916C134.353 85.3765 134.327 85.2588 134.25 85.1675C134.172 85.0771 134.059 85.0333 133.94 85.047L110.938 87.8772C110.84 87.889 110.745 87.8534 110.678 87.7813C110.612 87.7092 110.585 87.6097 110.605 87.5138L113.329 74.7833C113.354 74.6674 113.444 74.577 113.56 74.5514C114.55 74.3342 137.896 69.2754 145.269 73.4796C146.504 74.1835 147.572 75.6224 147.808 76.8996C148.382 80.011 147.445 87.7923 134.704 104.951C134.527 105.189 134.249 105.321 133.963 105.321L133.964 105.322ZM133.984 84.4408C134.261 84.4408 134.525 84.5613 134.708 84.7749C134.917 85.0187 134.988 85.3492 134.901 85.6577L129.975 102.917C129.93 103.075 130.012 103.238 130.166 103.296L133.856 104.698C133.987 104.747 134.137 104.703 134.22 104.591C146.825 87.617 147.772 80.0247 147.215 77.011C147.009 75.8935 146.065 74.63 144.971 74.0064C138.139 70.1107 116.159 74.6199 113.88 75.1029L111.285 87.2271L133.868 84.449C133.907 84.4444 133.946 84.4417 133.985 84.4417L133.984 84.4408Z" fill="#12123D"/>
<path d="M120.754 120.353L121.227 122.602C121.859 125.877 119.469 127.552 119.469 127.552L126.537 128.414C126.537 128.414 124.994 127.475 125.308 122.926L125.712 119.12L120.754 120.353Z" fill="white"/>
<path d="M126.537 128.716C126.525 128.716 126.513 128.716 126.501 128.714L119.432 127.854C119.308 127.838 119.206 127.749 119.176 127.627C119.146 127.506 119.193 127.378 119.295 127.307C119.386 127.243 121.516 125.694 120.931 122.661L120.458 120.416C120.424 120.258 120.523 120.1 120.681 120.061L125.639 118.829C125.735 118.805 125.836 118.829 125.91 118.895C125.984 118.959 126.022 119.056 126.012 119.155L125.608 122.961C125.315 127.196 126.68 128.15 126.693 128.159C126.815 128.233 126.868 128.382 126.822 128.516C126.779 128.639 126.664 128.72 126.536 128.72L126.537 128.716ZM120.169 127.334L125.804 128.021C125.344 127.277 124.809 125.774 125.008 122.905L125.367 119.517L121.109 120.575L121.522 122.54C121.998 125 120.879 126.599 120.169 127.334Z" fill="#12123D"/>
<path d="M120.606 124.525C120.023 125.196 118.967 126.458 118.157 127.677C117.648 128.443 117.952 129.326 118.498 130.06C119.61 131.557 121.138 132.71 122.932 133.896C124.499 134.931 126.252 136.023 128.361 136.989C128.933 137.251 130.224 137.61 131.086 137.179C133.693 135.878 129.347 131.802 125.929 127.107C125.795 126.922 125.568 126.832 125.345 126.877L124.545 127.036C123.744 127.196 122.929 126.859 122.476 126.181L121.399 124.571C121.216 124.297 120.823 124.275 120.606 124.525Z" fill="#12123D"/>
<path d="M118.578 127.11C118.578 127.11 118.197 127.618 118.157 127.678C118.03 127.87 117.955 128.094 117.913 128.323C117.78 129.06 118.035 129.815 118.552 130.358C118.677 130.488 118.847 130.655 119.045 130.843C121.096 132.797 123.401 134.463 125.885 135.822C127.146 136.511 129.943 137.928 131.086 137.18C131.439 136.949 131.655 136.245 131.655 136.245C131.655 136.245 130.988 136.646 128.976 135.646C125.579 133.955 123.278 132.059 120.474 129.79C119.922 129.343 119.542 128.934 119.149 128.448C118.838 128.063 118.64 127.601 118.577 127.111L118.578 127.11Z" fill="white"/>
<path d="M130.233 137.691C129.197 137.691 127.694 137.155 125.742 136.087C123.201 134.697 120.878 133.006 118.837 131.063C118.625 130.86 118.456 130.693 118.335 130.566C117.738 129.941 117.469 129.081 117.617 128.269C117.67 127.976 117.767 127.72 117.907 127.511C117.948 127.449 118.246 127.05 118.336 126.93C118.41 126.831 118.536 126.787 118.655 126.819C118.773 126.85 118.862 126.951 118.877 127.073C118.933 127.507 119.109 127.917 119.384 128.258C119.818 128.794 120.188 129.17 120.665 129.555L120.935 129.774C123.574 131.909 125.854 133.754 129.111 135.376C130.882 136.257 131.507 135.982 131.513 135.979C131.62 135.914 131.75 135.927 131.848 136.004C131.947 136.081 131.98 136.215 131.944 136.334C131.918 136.417 131.683 137.15 131.252 137.433C130.988 137.606 130.648 137.692 130.233 137.692V137.691ZM118.44 127.802C118.424 127.823 118.413 127.839 118.409 127.845C118.316 127.985 118.249 128.164 118.211 128.376C118.098 128.999 118.307 129.661 118.771 130.148C118.885 130.267 119.048 130.428 119.254 130.624C121.257 132.532 123.537 134.19 126.032 135.555C128.449 136.877 130.232 137.378 130.923 136.926C131.005 136.872 131.088 136.759 131.162 136.627C130.698 136.62 129.959 136.47 128.843 135.915C125.525 134.264 123.223 132.4 120.555 130.243L120.285 130.025C119.774 129.611 119.377 129.208 118.916 128.637C118.712 128.385 118.552 128.103 118.44 127.802H118.44Z" fill="#12123D"/>
<path d="M125.292 130.678C125.152 130.678 125.027 130.581 124.997 130.44C124.962 130.276 125.066 130.116 125.229 130.081L127.865 129.51C128.029 129.476 128.189 129.579 128.224 129.742C128.259 129.906 128.155 130.066 127.992 130.101L125.356 130.672C125.334 130.676 125.313 130.678 125.292 130.678Z" fill="#6A6ACF"/>
<path d="M126.751 131.863C126.614 131.863 126.49 131.769 126.457 131.63C126.419 131.468 126.519 131.305 126.682 131.267L128.82 130.762C128.982 130.724 129.145 130.824 129.183 130.987C129.222 131.149 129.121 131.312 128.959 131.35L126.82 131.855C126.797 131.86 126.774 131.863 126.751 131.863Z" fill="#6A6ACF"/>
<path d="M129.244 81.7557C122.211 75.7346 99.5804 75.5457 99.5804 75.5457C99.5804 75.5457 96.7542 78.92 98.103 85.707C98.5481 87.9447 100.129 89.9533 102.627 89.9533L116.511 90.071C117.528 90.0793 118.336 90.9283 118.298 91.9463C118.04 98.6649 117.809 112.555 119.728 122.021C119.805 122.404 120.094 122.71 120.472 122.812C121.358 123.053 123.096 123.442 124.98 123.416C125.568 123.408 126.059 122.965 126.138 122.383L130.742 87.9621C130.881 86.9249 130.885 85.8705 130.711 84.8388C130.526 83.7359 130.119 82.5062 129.245 81.7566L129.244 81.7557Z" fill="white"/>
<path d="M124.804 123.719C122.947 123.719 121.252 123.336 120.392 123.102C119.901 122.969 119.532 122.576 119.431 122.08C117.533 112.719 117.717 99.1742 117.995 91.9344C118.01 91.5244 117.863 91.1346 117.581 90.8379C117.298 90.5412 116.917 90.3759 116.507 90.3732L102.624 90.2554C99.7272 90.2554 98.2179 87.837 97.8057 85.7654C96.4442 78.9154 99.2284 75.4936 99.3479 75.3511C99.4062 75.2818 99.4929 75.2452 99.5813 75.2434C100.51 75.2516 122.403 75.5036 129.438 81.5265C130.23 82.2039 130.757 83.3013 131.007 84.7876C131.177 85.8065 131.188 86.8875 131.04 88.0013L126.435 122.422C126.337 123.151 125.714 123.708 124.982 123.718C124.922 123.718 124.862 123.719 124.802 123.719H124.804ZM99.7291 75.8487C99.2831 76.475 97.2294 79.7608 98.3985 85.6467C98.766 87.4937 100.093 89.6501 102.626 89.6501L116.513 89.7679C117.086 89.7725 117.621 90.0044 118.018 90.4198C118.414 90.8361 118.62 91.3811 118.599 91.9563C118.321 99.1697 118.138 112.66 120.023 121.958C120.078 122.23 120.28 122.445 120.55 122.518C121.407 122.751 123.126 123.136 124.976 123.112C125.409 123.107 125.78 122.775 125.838 122.341L130.442 87.92C130.584 86.8656 130.574 85.8458 130.412 84.8862C130.187 83.5432 129.727 82.5673 129.047 81.9839C122.475 76.3581 101.715 75.8807 99.7291 75.8478V75.8487Z" fill="#12123D"/>
<path d="M124.455 59.6426L126.316 63.2187C128.124 66.4743 131.03 68.6308 134.247 70.4978L135.551 71.2547C136.387 71.7395 137.36 71.9339 138.318 71.8052L138.464 71.786C139.927 71.5906 141.411 71.9394 142.634 72.7675L139.391 74.0118C137.414 74.7705 135.212 74.7395 133.274 73.8859C131.416 73.0678 127.232 72.0672 125.257 69.7665C121.122 64.9451 121.283 63.8742 121.283 63.8742L124.452 59.6435L124.455 59.6426Z" fill="white"/>
<path d="M136.471 74.8609C135.338 74.8609 134.212 74.6272 133.155 74.1616C132.725 73.9726 132.168 73.7736 131.523 73.5426C129.441 72.7985 126.59 71.7787 125.031 69.9619C121.008 65.2729 120.956 64.0294 120.987 63.8276C120.995 63.7783 121.015 63.7318 121.044 63.6916L124.213 59.4609C124.275 59.3778 124.374 59.3331 124.479 59.3413C124.582 59.3495 124.674 59.4107 124.723 59.5029L126.584 63.079C128.477 66.488 131.597 68.6107 134.399 70.2367L135.703 70.9936C136.477 71.4427 137.393 71.6253 138.278 71.5067L138.425 71.4875C139.964 71.2821 141.518 71.6482 142.805 72.5182C142.898 72.5812 142.949 72.6908 142.937 72.8031C142.924 72.9154 142.85 73.0103 142.745 73.0505L139.502 74.2949C138.515 74.6738 137.49 74.8618 136.472 74.8618L136.471 74.8609ZM121.597 63.9619C121.659 64.2704 122.118 65.6399 125.489 69.5684C126.943 71.2638 129.708 72.2516 131.727 72.9738C132.382 73.2084 132.948 73.4102 133.397 73.6083C135.26 74.4282 137.351 74.4711 139.285 73.7288L141.951 72.7063C140.899 72.1457 139.696 71.9257 138.505 72.0855L138.358 72.1047C137.341 72.2407 136.289 72.0316 135.4 71.5158L134.096 70.7589C131.223 69.0918 128.02 66.9098 126.052 63.3648L124.409 60.2077L121.597 63.9619Z" fill="#12123D"/>
<path d="M115.023 76.906C115.023 76.906 115.26 77.3889 108.982 78.2964C104.457 78.951 100.348 78.6616 98.4063 78.4498C97.7734 78.3804 97.3466 77.7706 97.5017 77.1525C98.0114 75.1138 98.3835 73.2203 100.343 68.0438C101.704 64.4503 99.6366 57.8961 103.863 54.0013C110.993 47.4288 120.832 55.8145 120.832 55.8145L123.926 60.3629C120.38 64.5233 117.595 69.2772 115.699 74.4063L115.023 76.9051V76.906Z" fill="#FFCB03"/>
<path d="M112.381 64.4275C112.229 64.4275 112.098 64.3124 112.081 64.1572L111.551 59.2071C111.534 59.0409 111.654 58.8921 111.82 58.8748C111.984 58.8565 112.134 58.977 112.152 59.1432L112.681 64.0933C112.699 64.2595 112.579 64.4083 112.413 64.4256C112.402 64.4265 112.391 64.4275 112.38 64.4275H112.381Z" fill="#6A6ACF"/>
<path d="M105.841 67.1473C105.733 67.1473 105.628 67.0879 105.574 66.9857C104.482 64.8995 102.958 59.1149 102.924 57.7372C102.919 57.5702 103.052 57.4314 103.219 57.4278C103.389 57.4259 103.524 57.5556 103.528 57.7226C103.557 58.8912 105.009 64.6028 106.109 66.7054C106.187 66.8533 106.13 67.0359 105.982 67.1135C105.937 67.1372 105.89 67.1482 105.842 67.1482L105.841 67.1473Z" fill="#6A6ACF"/>
<path d="M145.816 73.2203L129.055 74.4994L138.264 57.8349C138.607 57.2068 139.256 56.7932 139.983 56.7375L153.585 55.6995C154.448 55.6338 155.044 56.5203 154.636 57.2662L145.815 73.2213L145.816 73.2203Z" fill="#12123D"/>
<path d="M143.636 65.3542C143.308 65.9549 142.544 66.4808 141.929 66.5274C141.314 66.5739 141.083 66.1248 141.411 65.524C141.739 64.9233 142.503 64.3974 143.118 64.3509C143.733 64.3043 143.964 64.7535 143.636 65.3542Z" fill="white"/>
<path d="M144.999 74.3004L118.706 76.3062C118.163 76.3473 117.689 75.9401 117.648 75.396L117.604 75.2481L145.864 73.0925L145.907 73.2404C145.948 73.7846 145.542 74.2593 144.998 74.3004H144.999Z" fill="#12123D"/>
<path d="M131.582 71.2665L128.159 70.0815C127.65 69.9053 127.088 70.0075 126.673 70.3508L125.085 71.6655C124.782 71.9165 124.395 72.0398 124.002 72.0142C122.29 71.901 114.312 69.7172 113.701 68.2674C113.187 67.0468 112.784 65.5869 112.784 65.5869L106.597 67.7525C106.597 67.7525 106.697 69.6661 109.213 72.2352C111.354 74.4217 116.877 75.1567 124.473 74.6975C124.473 74.6975 126.061 74.5176 127.392 72.9263C128.242 71.9102 130.314 72.4333 131.543 72.132C131.978 72.0252 132.007 71.4144 131.583 71.2674L131.582 71.2665Z" fill="white"/>
<path d="M120.472 75.1247C115.823 75.1247 111.053 74.5441 108.997 72.4451C106.431 69.8249 106.299 67.8502 106.294 67.7671C106.287 67.6329 106.369 67.5105 106.496 67.4658L112.684 65.3002C112.762 65.2728 112.849 65.2792 112.923 65.3176C112.997 65.3559 113.052 65.4244 113.074 65.5047C113.078 65.5193 113.477 66.9609 113.978 68.1487C114.498 69.3858 122.234 71.5933 124.021 71.7111C124.339 71.7321 124.648 71.6326 124.891 71.4308L126.479 70.1162C126.971 69.7081 127.653 69.5848 128.257 69.7939L131.68 70.9789C131.998 71.0894 132.201 71.3888 132.185 71.7257C132.17 72.0626 131.94 72.342 131.613 72.4223C131.15 72.5364 130.608 72.541 130.036 72.5456C129.077 72.5538 128.086 72.5629 127.623 73.1171C126.23 74.7814 124.576 74.9859 124.506 74.9942C123.221 75.0718 121.852 75.1229 120.472 75.1229V75.1247ZM106.933 67.9533C107.046 68.5093 107.518 70.0714 109.429 72.0215C111.413 74.0474 116.608 74.8682 124.455 74.3934C124.453 74.3934 125.931 74.2008 127.161 72.73C127.804 71.9622 128.988 71.9512 130.032 71.9421C130.569 71.9375 131.076 71.933 131.471 71.8362C131.569 71.8125 131.582 71.7321 131.584 71.6983C131.586 71.6646 131.579 71.5833 131.485 71.5504L128.062 70.3654C127.656 70.2248 127.198 70.3079 126.867 70.5818L125.279 71.8965C124.916 72.1968 124.456 72.3447 123.984 72.3137C122.392 72.2087 114.125 70.0468 113.424 68.3824C113.046 67.4841 112.731 66.4734 112.584 65.9749L106.934 67.9524L106.933 67.9533Z" fill="#12123D"/>
<path d="M119.978 55.3617C124.204 57.6277 125.914 60.9518 128.128 63.9235C126.568 65.3341 124.707 67.2477 123.499 68.6071C122.362 67.7306 120.923 66.8432 119.877 65.5852L119.977 55.3617H119.978Z" fill="#FFCB03"/>
<path d="M114.724 47.1248L114.715 51.7581C114.744 52.3625 115.139 52.8884 115.711 53.0837L116.593 53.4626C116.82 53.5603 116.004 54.7955 112.379 54.2395C110.985 54.0259 109.66 53.4864 108.502 52.6802L107.653 52.0895C108.24 52.0028 109.851 51.5728 109.999 50.9976L111.336 44.9656L114.724 47.1257V47.1248Z" fill="white"/>
<path d="M114.105 54.686C113.6 54.686 113.014 54.6422 112.333 54.5381C110.914 54.3209 109.53 53.7639 108.33 52.9277L107.481 52.337C107.379 52.2658 107.331 52.1407 107.36 52.0202C107.388 51.8997 107.487 51.8084 107.61 51.7901C108.442 51.6678 109.631 51.2158 109.707 50.9219L111.041 44.899C111.062 44.8031 111.13 44.7228 111.22 44.6853C111.311 44.6479 111.414 44.657 111.497 44.71L114.886 46.8701C114.974 46.9258 115.026 47.0216 115.026 47.1257L115.016 51.7591C115.039 52.2283 115.35 52.6419 115.808 52.798C115.815 52.8008 115.823 52.8035 115.83 52.8062L116.712 53.1851C116.886 53.26 116.968 53.4499 116.912 53.6471C116.815 53.9867 116.117 54.686 114.105 54.686ZM108.391 52.2338L108.675 52.431C109.8 53.2143 111.097 53.7366 112.425 53.9401C114.755 54.298 115.832 53.8872 116.194 53.6197L115.603 53.365C114.915 53.1249 114.448 52.5004 114.414 51.7709L114.422 47.2891L111.536 45.4495L110.293 51.0606C110.137 51.6678 109.106 52.043 108.391 52.2329V52.2338Z" fill="#12123D"/>
<path d="M120.892 41.9026C119.889 41.1466 120.483 43.0958 117.378 39.3965C116.141 37.9229 115.719 40.2364 115.397 39.8548C114.209 38.447 114.251 38.4936 113.404 38.2032C112.844 38.0106 111.947 38.6825 111.599 39.3992C111.138 40.3441 111.703 41.0444 111.112 43.2967C110.697 44.8789 110.066 45.5873 110.455 46.1178C110.849 46.6546 111.701 46.2118 112.175 46.7651C112.789 47.4818 111.765 48.6914 112.138 49.7258C112.373 50.3777 113.346 51.2569 115.64 51.5673C116.013 51.6175 116.369 51.3948 116.489 51.0378C116.641 50.5795 116.831 49.9997 116.966 49.431C117.608 46.7203 117.163 45.7142 117.82 45.3381C118.825 44.762 120.125 46.3424 120.867 45.8147C121.638 45.266 122.266 42.9379 120.892 41.9035V41.9026Z" fill="#12123D"/>
<path d="M115.195 42.5681L115.121 43.325C115.086 43.682 115.027 44.0344 114.943 44.3831C114.786 45.0368 114.525 46.1625 114.426 46.8043C114.281 47.7465 117.159 48.3956 117.159 48.3956L117.593 48.0441L117.933 48.1126C117.998 48.1263 118.067 48.1263 118.131 48.1044C118.289 48.0514 118.388 47.9054 118.387 47.7493C118.382 46.8956 118.434 45.0213 118.929 43.6363C118.929 43.6363 117.521 42.0633 115.195 42.5672V42.5681Z" fill="white"/>
<path d="M117.159 48.6987C117.137 48.6987 117.114 48.696 117.092 48.6914C116.352 48.5243 113.953 47.8925 114.127 46.7596C114.228 46.1004 114.497 44.9446 114.649 44.3137C114.729 43.9796 114.787 43.6372 114.82 43.2966L114.894 42.5398C114.907 42.4092 115.003 42.3015 115.13 42.2741C117.6 41.7391 119.091 43.3669 119.153 43.4372C119.227 43.5194 119.25 43.6363 119.212 43.7404C118.726 45.1016 118.683 46.9978 118.688 47.7501C118.69 48.0423 118.504 48.3007 118.226 48.3938C118.117 48.4303 117.995 48.4367 117.872 48.4111L117.672 48.3709L117.348 48.633C117.294 48.6768 117.227 48.7005 117.159 48.7005V48.6987ZM115.472 42.8228L115.42 43.3542C115.384 43.723 115.322 44.0928 115.235 44.4534C115.086 45.0751 114.821 46.2127 114.724 46.8499C114.666 47.2261 115.894 47.7793 117.084 48.0678L117.404 47.8086C117.474 47.752 117.565 47.7291 117.654 47.7474L117.993 47.8159C118.017 47.8204 118.03 47.8186 118.036 47.8177C118.073 47.8049 118.086 47.7739 118.086 47.751C118.081 46.8189 118.141 45.0915 118.583 43.7184C118.229 43.3943 117.128 42.5526 115.474 42.8219L115.472 42.8228Z" fill="#12123D"/>
<path d="M114.316 44.7967C114.316 44.7967 114.496 42.9772 113.653 43.0758C112.809 43.1744 112.661 45.182 114.316 44.7967Z" fill="white"/>
<path d="M70.8704 8.67325C70.7299 8.67325 70.5867 8.65681 70.4445 8.62395C69.9584 8.50983 69.5453 8.21311 69.2817 7.78767C69.0182 7.36313 68.9361 6.86008 69.0501 6.37347C69.2854 5.36829 70.2931 4.74199 71.2972 4.97662C71.4595 5.01497 71.5607 5.17748 71.5224 5.33999C71.4841 5.5025 71.3209 5.60292 71.1594 5.56549C70.48 5.40572 69.797 5.83025 69.6374 6.51133C69.5599 6.84091 69.6164 7.18145 69.7942 7.46904C69.973 7.75662 70.252 7.95748 70.5813 8.03508C71.2616 8.19485 71.9437 7.77032 72.1033 7.08924C72.1416 6.92673 72.304 6.82631 72.4663 6.86374C72.6286 6.90208 72.7299 7.06459 72.6915 7.2271C72.49 8.08986 71.7194 8.67325 70.8704 8.67325Z" fill="#12123D"/>
<path d="M79.6546 5.51802C79.5534 5.51802 79.4549 5.46689 79.3975 5.37468L78.7335 4.29646C78.646 4.15404 78.6898 3.96871 78.832 3.88106C78.9743 3.79342 79.1594 3.83724 79.247 3.97966L79.9109 5.05788C79.9984 5.20031 79.9547 5.38655 79.8124 5.47328C79.7632 5.50341 79.7084 5.51802 79.6546 5.51802Z" fill="#12123D"/>
<path d="M81.9798 9.29219C81.8786 9.29219 81.7801 9.24106 81.7227 9.14885L81.0587 8.07063C80.9712 7.92821 81.015 7.74196 81.1572 7.65523C81.2986 7.56759 81.4846 7.61141 81.5722 7.75383L82.2361 8.83205C82.3236 8.97448 82.2799 9.16072 82.1376 9.24745C82.0884 9.27758 82.0336 9.29219 81.9798 9.29219Z" fill="#12123D"/>
<path d="M78.0708 8.37656C77.9705 8.37656 77.872 8.32635 77.8146 8.23414C77.7261 8.09263 77.769 7.90638 77.9103 7.81783L78.9837 7.14679C79.1251 7.05823 79.3111 7.10114 79.3996 7.24265C79.488 7.38416 79.4452 7.57041 79.3038 7.65897L78.2304 8.33C78.1803 8.36104 78.1256 8.37565 78.0708 8.37565V8.37656Z" fill="#12123D"/>
<path d="M81.8267 6.02744C81.7264 6.02744 81.6279 5.97723 81.5704 5.88502C81.482 5.74351 81.5248 5.55726 81.6662 5.4687L82.7396 4.79767C82.8809 4.70911 83.067 4.75202 83.1554 4.89353C83.2439 5.03504 83.201 5.22129 83.0597 5.30985L81.9863 5.98088C81.9361 6.01192 81.8814 6.02653 81.8267 6.02653V6.02744Z" fill="#12123D"/>
<path d="M49.5607 117.117C49.3364 117.117 49.1111 117.08 48.8932 117.003C48.3834 116.825 47.9739 116.459 47.7386 115.972C47.2544 114.968 47.6775 113.755 48.6807 113.271C49.1668 113.036 49.7158 113.004 50.2246 113.182C50.7344 113.36 51.1439 113.726 51.3792 114.213C51.8635 115.217 51.4403 116.43 50.4371 116.914C50.159 117.049 49.8599 117.116 49.5598 117.116L49.5607 117.117ZM49.5589 113.673C49.3482 113.673 49.1394 113.721 48.9442 113.815C48.2402 114.154 47.9438 115.004 48.2831 115.709C48.4472 116.051 48.7345 116.307 49.092 116.432C49.4495 116.557 49.8343 116.535 50.1754 116.37C50.8794 116.031 51.1758 115.181 50.8366 114.476C50.6724 114.134 50.3852 113.878 50.0277 113.753C49.8745 113.7 49.7167 113.672 49.5598 113.672L49.5589 113.673Z" fill="#12123D"/>
<path d="M58.7861 121.564C58.6739 121.564 58.5654 121.501 58.5134 121.393L57.9671 120.25C57.8951 120.1 57.9589 119.92 58.1094 119.848C58.2599 119.776 58.4404 119.84 58.5125 119.99L59.0588 121.132C59.1308 121.283 59.067 121.463 58.9165 121.535C58.8745 121.555 58.8299 121.565 58.7861 121.565V121.564Z" fill="#12123D"/>
<path d="M56.872 117.566C56.7598 117.566 56.6513 117.503 56.5993 117.395L56.0531 116.252C55.981 116.102 56.0449 115.922 56.1953 115.85C56.3458 115.778 56.5264 115.842 56.5984 115.992L57.1447 117.134C57.2167 117.285 57.1529 117.465 57.0024 117.537C56.9605 117.557 56.9158 117.567 56.872 117.567V117.566Z" fill="#12123D"/>
<path d="M58.978 118.301C58.8658 118.301 58.7582 118.238 58.7062 118.131C58.6332 117.982 58.6962 117.801 58.8457 117.728L59.9839 117.174C60.1334 117.101 60.314 117.163 60.3869 117.313C60.4599 117.463 60.397 117.644 60.2474 117.717L59.1093 118.271C59.0664 118.292 59.0217 118.301 58.978 118.301Z" fill="#12123D"/>
<path d="M54.9946 120.24C54.8824 120.24 54.7748 120.177 54.7228 120.071C54.6498 119.921 54.7128 119.74 54.8623 119.667L56.0005 119.113C56.15 119.04 56.3306 119.102 56.4035 119.253C56.4765 119.402 56.4136 119.583 56.264 119.656L55.1259 120.21C55.083 120.231 55.0383 120.24 54.9946 120.24Z" fill="#12123D"/>
<path d="M140.584 25.1569C140.546 25.1569 140.506 25.1496 140.468 25.1332C140.314 25.0692 140.241 24.8921 140.306 24.7378L147.824 6.6692C147.888 6.5149 148.065 6.44186 148.219 6.50669C148.373 6.57059 148.446 6.74771 148.381 6.902L140.863 24.9706C140.815 25.0866 140.703 25.1569 140.584 25.1569Z" fill="#12123D"/>
<path d="M144.784 26.2716C144.712 26.2716 144.64 26.2461 144.582 26.194C144.458 26.0827 144.448 25.8909 144.56 25.7677L152.606 16.8142C152.717 16.69 152.909 16.68 153.033 16.7913C153.157 16.9027 153.167 17.0944 153.056 17.2177L145.009 26.1712C144.95 26.2379 144.867 26.2716 144.785 26.2716H144.784Z" fill="#12123D"/>
<path d="M156.661 15.6693C156.307 15.6693 155.955 15.5954 155.622 15.4484C154.993 15.1699 154.51 14.6632 154.262 14.0214C153.749 12.6967 154.409 11.2003 155.733 10.6872C156.374 10.4389 157.073 10.4544 157.703 10.7329C158.332 11.0113 158.815 11.518 159.063 12.1599C159.576 13.4846 158.916 14.9809 157.592 15.494C157.29 15.6109 156.976 15.6693 156.662 15.6693H156.661ZM156.663 11.1172C156.422 11.1172 156.181 11.162 155.951 11.2514C154.937 11.644 154.432 12.7889 154.825 13.8032C155.015 14.2944 155.385 14.6824 155.867 14.8951C156.348 15.1078 156.884 15.1206 157.374 14.9298C158.387 14.5372 158.893 13.3924 158.5 12.3781C158.31 11.8869 157.94 11.4989 157.458 11.2861C157.204 11.1738 156.933 11.1172 156.663 11.1172Z" fill="#12123D"/>
<path d="M138.69 19.3541C138.632 19.3541 138.573 19.3367 138.521 19.3011C137.038 18.2886 136.376 17.3747 136.499 16.5083C136.596 15.8181 137.146 15.4703 137.677 15.1343C138.155 14.8321 138.605 14.5473 138.734 14.0287C138.888 13.4088 138.465 12.8464 138.018 12.2521C137.531 11.6048 136.979 10.8716 137.191 9.97418C137.378 9.17898 138.03 8.79462 138.605 8.45591C139.131 8.14641 139.584 7.87891 139.643 7.36765C139.694 6.92851 139.434 6.54962 139.159 6.14792C138.82 5.65308 138.435 5.09343 138.647 4.36762C138.759 3.98782 138.982 3.75775 139.162 3.57333C139.341 3.38891 139.471 3.25562 139.504 3.00729C139.559 2.59554 139.319 2.12262 138.788 1.60223C138.668 1.48537 138.667 1.29455 138.783 1.17496C138.9 1.05536 139.091 1.05353 139.21 1.17039C139.885 1.83138 140.185 2.47685 140.102 3.08763C140.042 3.53408 139.804 3.77875 139.594 3.99421C139.434 4.15946 139.295 4.30189 139.227 4.53743C139.094 4.98753 139.355 5.36641 139.656 5.80555C139.968 6.2593 140.321 6.77422 140.242 7.43795C140.148 8.24684 139.491 8.63485 138.911 8.97631C138.394 9.28124 137.906 9.56882 137.778 10.113C137.632 10.7338 138.054 11.2953 138.5 11.8887C138.988 12.5387 139.542 13.2755 139.32 14.1748C139.133 14.928 138.531 15.3096 137.999 15.6456C137.546 15.9322 137.155 16.1797 137.096 16.5932C137.011 17.1921 137.621 17.9554 138.86 18.8017C138.998 18.8958 139.033 19.0838 138.939 19.2217C138.881 19.3075 138.786 19.3541 138.689 19.3541H138.69Z" fill="#12123D"/>
</g>
<defs>
<clipPath id="clip0_434_9424">
<rect width="167" height="167" fill="white" transform="translate(0.5)"/>
</clipPath>
</defs>
</svg>
