<svg width="166" height="167" viewBox="0 0 166 167" fill="none" xmlns="http://www.w3.org/2000/svg">
<g clip-path="url(#clip0_95_16799)">
<path d="M39.9646 42.5809C57.2299 25.1033 52.2868 14.1488 64.1012 6.05628C82.2794 -6.39499 116.206 4.31697 136.222 21.4439C160.736 42.4201 173.384 80.7212 158.976 115.371C143.632 152.272 103.26 171.427 67.235 165.654C35.0641 160.499 3.44067 134.998 0.272438 104.411C-0.0711268 101.096 -1.5868 83.1753 9.0465 67.725C17.836 54.954 26.2782 56.4354 39.9646 42.58V42.5809Z" fill="#6A6ACF"/>
<path d="M93.3349 5.02442C93.2579 5.02442 93.1799 4.99445 93.121 4.93451L92.3686 4.16885C92.2525 4.05077 92.2534 3.86004 92.3713 3.74378C92.4891 3.62753 92.6795 3.62934 92.7955 3.74742L93.5479 4.51308C93.664 4.63115 93.6631 4.82188 93.5452 4.93814C93.4872 4.99536 93.4111 5.02442 93.3349 5.02442Z" fill="#12123D"/>
<path d="M96.9394 8.69175C96.8624 8.69175 96.7844 8.66178 96.7255 8.60184L95.9731 7.83618C95.857 7.7181 95.8579 7.52737 95.9758 7.41111C96.0936 7.29486 96.284 7.29576 96.4 7.41475L97.1524 8.18041C97.2685 8.29848 97.2676 8.48921 97.1497 8.60547C97.0917 8.66269 97.0156 8.69175 96.9394 8.69175Z" fill="#12123D"/>
<path d="M92.5829 8.6919C92.5068 8.6919 92.4306 8.66284 92.3726 8.60562C92.2548 8.48936 92.253 8.29954 92.3699 8.18056L93.1223 7.4149C93.2383 7.29682 93.4278 7.29501 93.5465 7.41126C93.6644 7.52752 93.6662 7.71735 93.5493 7.83633L92.7969 8.60199C92.7379 8.66193 92.6609 8.6919 92.5829 8.6919Z" fill="#12123D"/>
<path d="M96.1864 5.02442C96.1103 5.02442 96.0341 4.99536 95.9761 4.93814C95.8583 4.82188 95.8565 4.63115 95.9734 4.51308L96.7258 3.74742C96.8418 3.62934 97.0322 3.62753 97.1501 3.74378C97.2679 3.86004 97.2697 4.05077 97.1528 4.16885L96.4004 4.93451C96.3414 4.99445 96.2644 5.02442 96.1864 5.02442Z" fill="#12123D"/>
<path d="M6.30531 57.3025H6.3035L5.33535 57.2971C5.16946 57.2962 5.03621 57.1608 5.03711 56.9946C5.03802 56.8284 5.17581 56.6985 5.33898 56.6958L6.30713 56.7013C6.47302 56.7022 6.60627 56.8375 6.60537 57.0037C6.60446 57.169 6.4703 57.3025 6.30531 57.3025Z" fill="#12123D"/>
<path d="M10.945 57.3299H10.9431L9.975 57.3244C9.80911 57.3235 9.67586 57.1882 9.67676 57.022C9.67767 56.8557 9.80549 56.7268 9.97863 56.7231L10.9468 56.7286C11.1127 56.7295 11.2459 56.8648 11.245 57.031C11.2441 57.1963 11.1099 57.3299 10.945 57.3299Z" fill="#12123D"/>
<path d="M8.15706 60.1334C7.99207 60.1334 7.85791 59.9999 7.85701 59.8346L7.85157 58.8601C7.85066 58.6939 7.98392 58.5585 8.14981 58.5576H8.15162C8.3166 58.5576 8.45077 58.6911 8.45167 58.8564L8.45711 59.831C8.45802 59.9972 8.32476 60.1325 8.15887 60.1334H8.15706Z" fill="#12123D"/>
<path d="M8.12972 55.4679C7.96473 55.4679 7.83057 55.3344 7.82966 55.1691L7.82422 54.1945C7.82332 54.0283 7.95657 53.893 8.12246 53.8921H8.12428C8.28926 53.8921 8.42342 54.0256 8.42433 54.1909L8.42977 55.1655C8.43067 55.3317 8.29742 55.467 8.13153 55.4679H8.12972Z" fill="#12123D"/>
<path d="M13.0367 54.1539C12.5435 54.1539 12.0513 53.9668 11.6769 53.5908C10.9263 52.8388 10.9282 51.6126 11.6815 50.8578C12.4348 50.1031 13.6585 50.1013 14.4091 50.8533C15.1597 51.6053 15.1579 52.8315 14.4046 53.5862C14.0275 53.9641 13.5316 54.1539 13.0367 54.1539ZM13.0494 50.8915C12.7076 50.8915 12.3659 51.0222 12.1057 51.2829C11.5863 51.8033 11.5845 52.648 12.1012 53.1666C12.6179 53.6843 13.4609 53.6825 13.9813 53.1621C14.5007 52.6417 14.5025 51.797 13.9858 51.2793C13.7283 51.0213 13.3893 50.8924 13.0503 50.8924L13.0494 50.8915Z" fill="#12123D"/>
<path d="M122.353 24.5073H37.6093C34.936 24.5073 32.5301 26.8715 32.2355 29.7888L19.5834 154.962C19.2888 157.878 21.217 160.243 23.8902 160.243H108.634C111.307 160.243 113.713 157.879 114.009 154.962L126.661 29.7888C126.955 26.8715 125.027 24.5073 122.354 24.5073H122.353Z" fill="#FFCB03"/>
<path d="M119.599 23.9062H34.8552C32.1819 23.9062 29.777 26.2886 29.4833 29.2268L16.8801 155.323C16.5864 158.261 18.5155 160.643 21.1887 160.643H105.932C108.606 160.643 111.011 158.261 111.304 155.323L123.907 29.2268C124.201 26.2886 122.272 23.9062 119.599 23.9062Z" fill="#A3A3FC"/>
<path d="M101.924 146.997H27.9248L39.383 32.3496H113.383L101.924 146.997Z" fill="white"/>
<path d="M105.258 115C105.248 115 105.239 115 105.229 114.998C105.064 114.982 104.943 114.834 104.959 114.669L113.052 32.6501H53.9612C53.7953 32.6501 53.6611 32.5157 53.6611 32.3495C53.6611 32.1833 53.7953 32.0488 53.9612 32.0488H113.383C113.467 32.0488 113.548 32.0843 113.605 32.1478C113.662 32.2105 113.689 32.295 113.681 32.3794L105.556 114.729C105.54 114.884 105.41 115 105.258 115H105.258Z" fill="#12123D"/>
<path d="M49.3622 65.828H43.3983C42.6523 65.828 42.1102 65.2249 42.1881 64.482L42.8064 58.5374C42.8834 57.7936 43.5506 57.1914 44.2966 57.1914H50.2605C51.0066 57.1914 51.5487 57.7945 51.4707 58.5374L50.8525 64.482C50.7754 65.2258 50.1083 65.828 49.3622 65.828Z" fill="#A3A3FC"/>
<path d="M47.7479 81.0805H41.784C41.038 81.0805 40.4959 80.4774 40.5739 79.7344L41.1921 73.7899C41.2692 73.046 41.9363 72.4438 42.6824 72.4438H48.6463C49.3923 72.4438 49.9344 73.0469 49.8565 73.7899L49.2382 79.7344C49.1612 80.4783 48.494 81.0805 47.7479 81.0805Z" fill="#A3A3FC"/>
<path d="M46.1981 95.974H40.2342C39.4882 95.974 38.9461 95.3709 39.0241 94.628L39.6423 88.6834C39.7193 87.9396 40.3865 87.3374 41.1326 87.3374H47.0965C47.8425 87.3374 48.3846 87.9405 48.3067 88.6834L47.6884 94.628C47.6114 95.3718 46.9442 95.974 46.1981 95.974Z" fill="#A3A3FC"/>
<path d="M44.7313 111.372H38.7674C38.0214 111.372 37.4793 110.769 37.5573 110.026L38.1755 104.082C38.2526 103.338 38.9197 102.736 39.6658 102.736H45.6297C46.3757 102.736 46.9178 103.339 46.8399 104.082L46.2216 110.026C46.1446 110.77 45.4774 111.372 44.7313 111.372Z" fill="#A3A3FC"/>
<path d="M43.2196 126.566H37.2557C36.5097 126.566 35.9676 125.963 36.0455 125.22L36.6638 119.275C36.7408 118.531 37.408 117.929 38.1541 117.929H44.118C44.864 117.929 45.4061 118.532 45.3281 119.275L44.7099 125.22C44.6329 125.964 43.9657 126.566 43.2196 126.566Z" fill="#A3A3FC"/>
<path d="M93.7193 49.513H59.8323C59.1352 49.513 58.6285 48.9499 58.7001 48.2542L58.8089 47.2051C58.8814 46.5103 59.5051 45.9463 60.2022 45.9463H94.0891C94.7862 45.9463 95.293 46.5094 95.2214 47.2051L95.1126 48.2542C95.0401 48.949 94.4164 49.513 93.7193 49.513Z" fill="#A3A3FC"/>
<path d="M104.967 63.066H57.3196C56.6225 63.066 56.1158 62.5029 56.1874 61.8072C56.2599 61.1124 56.8836 60.5483 57.5807 60.5483H105.228C105.925 60.5483 106.432 61.1115 106.361 61.8072C106.288 62.502 105.664 63.066 104.967 63.066Z" fill="#A3A3FC"/>
<path d="M97.5622 69.5548H56.6517C55.9546 69.5548 55.4478 68.9917 55.5194 68.296C55.592 67.6011 56.2156 67.0371 56.9127 67.0371H97.8233C98.5204 67.0371 99.0271 67.6002 98.9555 68.296C98.883 68.9908 98.2593 69.5548 97.5622 69.5548Z" fill="#A3A3FC"/>
<path d="M99.9199 78.4303H55.7776C55.0805 78.4303 54.5738 77.8672 54.6454 77.1714C54.7179 76.4766 55.3416 75.9126 56.0387 75.9126H100.181C100.878 75.9126 101.385 76.4757 101.313 77.1714C101.241 77.8663 100.617 78.4303 99.9199 78.4303Z" fill="#A3A3FC"/>
<path d="M79.9982 84.798H55.1663C54.4692 84.798 53.9625 84.2348 54.0341 83.5391C54.1066 82.8443 54.7303 82.2803 55.4274 82.2803H80.2593C80.9564 82.2803 81.4631 82.8434 81.3915 83.5391C81.319 84.2339 80.6953 84.798 79.9982 84.798Z" fill="#A3A3FC"/>
<path d="M101.855 93.0001H54.2073C53.5102 93.0001 53.0035 92.437 53.0751 91.7413C53.1476 91.0465 53.7713 90.4824 54.4684 90.4824H102.116C102.813 90.4824 103.32 91.0455 103.248 91.7413C103.176 92.4361 102.552 93.0001 101.855 93.0001Z" fill="#A3A3FC"/>
<path d="M94.4499 99.4898H53.5394C52.8423 99.4898 52.3355 98.9267 52.4071 98.231C52.4797 97.5362 53.1033 96.9722 53.8004 96.9722H94.711C95.4081 96.9722 95.9148 97.5353 95.8432 98.231C95.7707 98.9258 95.147 99.4898 94.4499 99.4898Z" fill="#A3A3FC"/>
<path d="M100.032 108.365H52.5851C51.8762 108.365 51.3613 107.802 51.4347 107.106C51.5081 106.412 52.1427 105.848 52.8516 105.848H100.298C101.007 105.848 101.522 106.411 101.448 107.106C101.375 107.801 100.74 108.365 100.032 108.365Z" fill="#A3A3FC"/>
<path d="M76.9328 114.29H52.1009C51.4038 114.29 50.897 113.727 50.9687 113.031C51.0412 112.336 51.6649 111.772 52.362 111.772H77.1938C77.8909 111.772 78.3977 112.335 78.3261 113.031C78.2535 113.726 77.6299 114.29 76.9328 114.29Z" fill="#A3A3FC"/>
<path d="M98.9117 122.787H51.264C50.5669 122.787 50.0601 122.224 50.1317 121.528C50.2043 120.834 50.8279 120.27 51.525 120.27H99.1727C99.8698 120.27 100.377 120.833 100.305 121.528C100.232 122.223 99.6088 122.787 98.9117 122.787Z" fill="#A3A3FC"/>
<path d="M91.5065 129.276H50.596C49.8989 129.276 49.3922 128.713 49.4638 128.017C49.5363 127.322 50.16 126.758 50.8571 126.758H91.7676C92.4647 126.758 92.9715 127.321 92.8998 128.017C92.8273 128.712 92.2036 129.276 91.5065 129.276Z" fill="#A3A3FC"/>
<path d="M115.257 117.001C115.247 117.001 115.237 117.001 115.227 116.999C115.062 116.983 114.941 116.836 114.958 116.671L123.609 29.1966C123.751 27.7825 123.343 26.4301 122.49 25.4855C121.745 24.6608 120.717 24.2058 119.599 24.2058H61.7122C61.5463 24.2058 61.4121 24.0713 61.4121 23.9051C61.4121 23.7389 61.5463 23.6045 61.7122 23.6045H119.599C120.89 23.6045 122.074 24.1295 122.934 25.0813C123.9 26.1512 124.363 27.6726 124.205 29.2547L115.554 116.729C115.539 116.884 115.408 116.999 115.256 116.999L115.257 117.001Z" fill="#12123D"/>
<path d="M100.954 39.0154H52.8691C50.9084 39.0154 49.4942 37.2689 49.7091 35.1136L50.2738 29.4606C50.7642 24.5524 54.7819 20.5742 59.2464 20.5742H98.2614C102.727 20.5742 105.949 24.5524 105.458 29.4606L104.893 35.1136C104.678 37.2689 102.915 39.0154 100.954 39.0154Z" fill="#12123D"/>
<path d="M100.954 39.3159H52.8696C51.9005 39.3159 51.0103 38.9217 50.364 38.206C49.6406 37.405 49.2934 36.2669 49.4113 35.0834L49.976 29.4305C50.4809 24.3815 54.64 20.2734 59.2477 20.2734H98.2619C100.36 20.2734 102.286 21.1263 103.684 22.6749C105.259 24.4196 106.015 26.9037 105.756 29.4904L105.191 35.1434C104.962 37.444 103.06 39.3159 100.953 39.3159H100.954ZM59.2477 20.8747C54.9391 20.8747 51.0484 24.7402 50.5734 29.4904L50.0086 35.1434C49.9071 36.1579 50.199 37.127 50.8091 37.8028C51.3403 38.3913 52.0718 38.7147 52.8696 38.7147H100.954C102.762 38.7147 104.395 37.0852 104.596 35.0834L105.16 29.4305C105.402 27.0127 104.702 24.6975 103.239 23.0781C101.956 21.6567 100.188 20.8747 98.2619 20.8747H59.2477Z" fill="#12123D"/>
<path d="M99.7585 39.0154H51.6738C49.7131 39.0154 48.2989 37.2689 48.5138 35.1136L49.0785 29.4606C49.5689 24.5524 53.5866 20.5742 58.0511 20.5742H97.0661C101.532 20.5742 104.753 24.5524 104.263 29.4606L103.698 35.1136C103.482 37.2689 101.719 39.0154 99.7585 39.0154Z" fill="#A3A3FC"/>
<path d="M99.7589 39.3159H51.6743C50.7052 39.3159 49.815 38.9217 49.1687 38.206C48.4453 37.405 48.0981 36.2669 48.2159 35.0834L48.7807 29.4305C49.2856 24.3815 53.4447 20.2734 58.0515 20.2734H97.0666C99.1642 20.2734 101.09 21.1263 102.488 22.6749C104.064 24.4196 104.82 26.9037 104.562 29.4904L103.997 35.1434C103.767 37.444 101.866 39.3159 99.7589 39.3159ZM58.0524 20.8747C53.7438 20.8747 49.8531 24.7402 49.3781 29.4904L48.8133 35.1434C48.7118 36.1579 49.0037 37.127 49.6138 37.8028C50.145 38.3913 50.8765 38.7147 51.6743 38.7147H99.7589C101.566 38.7147 103.2 37.0852 103.4 35.0834L103.965 29.4305C104.207 27.0127 103.506 24.6966 102.044 23.0781C100.761 21.6576 98.9929 20.8747 97.0666 20.8747H58.0515H58.0524Z" fill="#12123D"/>
<path d="M80.2879 1.02197C75.2641 1.02197 70.7443 5.49876 70.1922 11.02L68.6339 26.6112C68.4581 28.3695 69.612 29.7946 71.212 29.7946H83.6121C85.2121 29.7946 86.6507 28.3695 86.8266 26.6112L88.3848 11.02C88.9369 5.49786 85.3118 1.02197 80.2879 1.02197ZM79.2001 11.9092C77.6373 11.9092 76.5096 10.5169 76.681 8.79846C76.8523 7.08094 78.2592 5.68768 79.822 5.68768C81.3848 5.68768 82.5125 7.08004 82.3412 8.79846C82.1698 10.516 80.7629 11.9092 79.2001 11.9092Z" fill="#12123D"/>
<path d="M83.6126 30.0951H71.2125C70.4057 30.0951 69.6651 29.7672 69.1275 29.1714C68.5265 28.5056 68.2382 27.562 68.3362 26.581L69.8944 10.9899C70.4601 5.32786 75.1231 0.721191 80.2884 0.721191C82.6381 0.721191 84.7946 1.67668 86.3611 3.41054C88.127 5.36601 88.9736 8.15072 88.6835 11.0499L87.1253 26.641C86.9349 28.5456 85.3594 30.0951 83.6126 30.0951ZM80.2884 1.32155C75.4223 1.32155 71.0276 5.68572 70.4909 11.0499L68.9326 26.641C68.851 27.453 69.084 28.2286 69.5717 28.7681C69.9941 29.2359 70.577 29.4938 71.2125 29.4938H83.6126C85.0602 29.4938 86.3683 28.1868 86.5288 26.581L88.0871 10.9899C88.3599 8.2588 87.5685 5.64303 85.916 3.8138C84.4647 2.2071 82.4658 1.32246 80.2875 1.32246L80.2884 1.32155ZM79.2006 12.2088C78.4101 12.2088 77.6849 11.8873 77.1582 11.3042C76.5699 10.653 76.2871 9.72836 76.3832 8.76833C76.5699 6.90369 78.1128 5.3869 79.8225 5.3869C80.6129 5.3869 81.3381 5.70842 81.8648 6.29152C82.4531 6.94274 82.736 7.86734 82.6399 8.82737C82.4531 10.692 80.9103 12.2088 79.2006 12.2088ZM79.8225 5.98726C78.4119 5.98726 77.1365 7.26154 76.9797 8.82737C76.9008 9.61937 77.1274 10.375 77.6024 10.9009C78.014 11.3569 78.5815 11.6075 79.2006 11.6075C80.6111 11.6075 81.8866 10.3333 82.0434 8.76743C82.1223 7.97543 81.8956 7.22067 81.4206 6.69388C81.0091 6.23793 80.4416 5.98635 79.8225 5.98635V5.98726Z" fill="#12123D"/>
<path d="M79.5135 1.02197C74.4897 1.02197 69.9698 5.49876 69.4178 11.02L67.8595 26.6112C67.6836 28.3695 68.8376 29.7946 70.4376 29.7946H82.8377C84.4377 29.7946 85.8763 28.3695 86.0521 26.6112L87.6104 11.02C88.1625 5.49786 84.5374 1.02197 79.5135 1.02197ZM78.4257 11.9092C76.8629 11.9092 75.7352 10.5169 75.9065 8.79846C76.0779 7.08094 77.4848 5.68768 79.0476 5.68768C80.6104 5.68768 81.7381 7.08004 81.5668 8.79846C81.3954 10.516 79.9885 11.9092 78.4257 11.9092Z" fill="#A3A3FC"/>
<path d="M82.8382 30.0951H70.4381C69.6313 30.0951 68.8907 29.7672 68.3531 29.1714C67.7521 28.5056 67.4638 27.562 67.5617 26.581L69.12 10.9899C69.6857 5.32786 74.3487 0.721191 79.514 0.721191C81.8637 0.721191 84.0202 1.67668 85.5867 3.41054C87.3525 5.36601 88.1992 8.15072 87.9091 11.0499L86.3509 26.641C86.1605 28.5456 84.585 30.0951 82.8382 30.0951ZM79.514 1.32155C74.6479 1.32155 70.2531 5.68572 69.7165 11.0499L68.1582 26.641C68.0766 27.453 68.3096 28.2286 68.7973 28.7681C69.2197 29.2359 69.8026 29.4938 70.4381 29.4938H82.8382C84.2858 29.4938 85.5939 28.1868 85.7544 26.581L87.3127 10.9899C87.5855 8.2588 86.7941 5.64303 85.1416 3.8138C83.6903 2.2071 81.6914 1.32246 79.5131 1.32246L79.514 1.32155ZM78.4262 12.2088C77.6357 12.2088 76.9105 11.8873 76.3838 11.3042C75.7955 10.6521 75.5127 9.72836 75.6088 8.76833C75.7946 6.90369 77.3375 5.3869 79.0481 5.3869C79.8385 5.3869 80.5637 5.70842 81.0904 6.29152C81.6787 6.94274 81.9616 7.86734 81.8655 8.82737C81.6787 10.692 80.1368 12.2088 78.4262 12.2088ZM79.0481 5.98726C77.6366 5.98726 76.3621 7.26154 76.2053 8.82737C76.1264 9.61937 76.353 10.3741 76.828 10.9009C77.2396 11.3569 77.8071 11.6084 78.4262 11.6084C79.8367 11.6084 81.1122 10.3342 81.269 8.76833C81.3479 7.97634 81.1212 7.22067 80.6462 6.69479C80.2347 6.23884 79.6672 5.98726 79.0481 5.98726Z" fill="#12123D"/>
<path d="M120.635 164.297H43.8662C42.986 164.297 42.3578 163.587 42.4638 162.712L47.4777 121.021C47.5829 120.145 48.3815 119.435 49.2617 119.435H126.031C126.911 119.435 127.539 120.145 127.433 121.021L122.419 162.712C122.314 163.587 121.516 164.297 120.635 164.297Z" fill="white"/>
<path d="M120.635 164.597H43.866C43.3538 164.597 42.8933 164.396 42.5715 164.032C42.2488 163.667 42.1046 163.186 42.1663 162.675L47.1811 120.984C47.3034 119.964 48.2381 119.134 49.2624 119.134H126.032C126.544 119.134 127.004 119.335 127.326 119.699C127.649 120.064 127.793 120.546 127.731 121.056L122.717 162.747C122.595 163.767 121.66 164.597 120.636 164.597H120.635ZM49.2615 119.735C48.5299 119.735 47.8628 120.328 47.7748 121.056L42.76 162.747C42.7193 163.084 42.8117 163.399 43.0184 163.633C43.226 163.868 43.526 163.997 43.8651 163.997H120.634C121.366 163.997 122.033 163.404 122.121 162.675L127.135 120.984C127.176 120.647 127.083 120.332 126.876 120.098C126.669 119.864 126.369 119.735 126.03 119.735H49.2606H49.2615Z" fill="#12123D"/>
<path d="M62.2634 161.91H55.0693L56.8452 147.142H64.0392L62.2634 161.91Z" fill="#6A6ACF"/>
<path d="M53.2027 161.911H46.0078L47.3213 150.995H54.5154L53.2027 161.911Z" fill="#6A6ACF"/>
<path d="M71.3552 161.91H64.1611L66.829 139.724H74.0239L71.3552 161.91Z" fill="#6A6ACF"/>
<path d="M80.8483 161.91H73.6543L75.7964 144.1H82.9904L80.8483 161.91Z" fill="#6A6ACF"/>
<path d="M90.3405 161.911H83.1465L86.1815 136.674H93.3764L90.3405 161.911Z" fill="#6A6ACF"/>
<path d="M99.8688 161.612H92.6748L94.893 143.171H102.087L99.8688 161.612Z" fill="#6A6ACF"/>
<path d="M109.561 161.612H102.367L105.447 136.011H112.641L109.561 161.612Z" fill="#6A6ACF"/>
<path d="M118.853 161.612H111.659L115.457 130.042H122.651L118.853 161.612Z" fill="#6A6ACF"/>
<path d="M53.1475 143.72C53.0469 143.72 52.949 143.67 52.8928 143.578C52.8057 143.437 52.8483 143.252 52.9888 143.165L70.6321 132.171C70.7527 132.096 70.9095 132.116 71.0074 132.22L77.1363 138.68L90.9533 130.062C91.0756 129.986 91.2352 130.008 91.3331 130.114L97.9678 137.36L120.917 123.086C121.057 122.999 121.242 123.042 121.329 123.183C121.416 123.324 121.374 123.509 121.232 123.597L98.072 138.002C97.9496 138.078 97.7901 138.056 97.6931 137.95L91.0584 130.705L77.2451 139.32C77.1245 139.396 76.9677 139.376 76.8689 139.272L70.74 132.812L53.3043 143.676C53.2554 143.707 53.2001 143.722 53.1466 143.722L53.1475 143.72Z" fill="#12123D"/>
<path d="M72.9581 132.373C72.8167 133.548 71.7389 134.551 70.5513 134.613C69.3638 134.674 68.5153 133.773 68.6558 132.598C68.7973 131.423 69.8751 130.42 71.0626 130.358C72.2501 130.297 73.0986 131.199 72.9572 132.373H72.9581Z" fill="#A3A3FC"/>
<path d="M93.2403 130.181C93.0989 131.356 92.0211 132.359 90.8336 132.42C89.646 132.482 88.7976 131.58 88.9381 130.406C89.0795 129.231 90.1573 128.228 91.3448 128.166C92.5324 128.104 93.3808 129.006 93.2403 130.181Z" fill="#FFCB03"/>
<path d="M79.4415 138.847C79.3001 140.022 78.2223 141.025 77.0347 141.087C75.8472 141.149 74.9987 140.247 75.1392 139.072C75.2807 137.897 76.3585 136.894 77.546 136.833C78.7335 136.771 79.582 137.673 79.4406 138.847H79.4415Z" fill="#A3A3FC"/>
<path d="M55.3536 143.345C55.2122 144.52 54.1344 145.523 52.9468 145.584C51.7593 145.646 50.9108 144.744 51.0513 143.57C51.1928 142.395 52.2706 141.392 53.4581 141.33C54.6456 141.268 55.4941 142.17 55.3536 143.345Z" fill="#6A6ACF"/>
<path d="M52.83 145.888C52.2163 145.888 51.6687 145.661 51.2771 145.24C50.861 144.794 50.6752 144.187 50.7541 143.533C50.9118 142.221 52.1174 141.098 53.4428 141.028C54.1118 140.993 54.7082 141.222 55.128 141.672C55.544 142.118 55.7299 142.725 55.651 143.38C55.4933 144.691 54.2867 145.814 52.9623 145.884C52.9179 145.886 52.8735 145.888 52.83 145.888ZM53.5733 141.627C53.5407 141.627 53.5071 141.627 53.4736 141.63C52.4266 141.684 51.4729 142.571 51.3487 143.605C51.2916 144.081 51.4213 144.516 51.7141 144.83C52.0105 145.148 52.4438 145.31 52.9306 145.285C53.9776 145.23 54.9312 144.344 55.0554 143.309C55.1125 142.833 54.9829 142.398 54.6901 142.084C54.4136 141.788 54.0202 141.627 53.5733 141.627Z" fill="#12123D"/>
<path d="M100.117 137.466C99.9759 138.642 98.898 139.644 97.7105 139.706C96.523 139.768 95.6745 138.866 95.815 137.691C95.9564 136.516 97.0343 135.513 98.2218 135.452C99.4093 135.39 100.258 136.292 100.117 137.466Z" fill="#A3A3FC"/>
<path d="M123.226 123.227C123.084 124.402 122.006 125.405 120.819 125.467C119.631 125.528 118.783 124.627 118.923 123.452C119.065 122.277 120.143 121.274 121.33 121.212C122.518 121.151 123.366 122.053 123.226 123.227Z" fill="#FFCB03"/>
<path d="M120.702 125.77C120.088 125.77 119.541 125.543 119.149 125.123C118.733 124.677 118.547 124.071 118.626 123.416C118.784 122.104 119.99 120.982 121.315 120.912C121.982 120.877 122.58 121.105 123 121.556C123.416 122.002 123.602 122.608 123.523 123.263C123.365 124.575 122.159 125.697 120.834 125.767C120.79 125.77 120.746 125.771 120.702 125.771V125.77ZM121.445 121.509C121.413 121.509 121.379 121.509 121.346 121.512C120.299 121.566 119.346 122.453 119.221 123.487C119.164 123.963 119.293 124.398 119.586 124.713C119.883 125.031 120.314 125.191 120.802 125.167C121.849 125.112 122.802 124.226 122.927 123.191C122.984 122.715 122.854 122.28 122.561 121.966C122.285 121.67 121.891 121.509 121.444 121.509H121.445Z" fill="#12123D"/>
<path d="M39.2069 38.5094H7.86813C6.96706 38.5094 6.33432 37.7692 6.45398 36.8573L10.4671 6.33717C10.5867 5.42438 11.4144 4.68506 12.3154 4.68506H43.6533C44.5544 4.68506 45.1871 5.42529 45.0674 6.33717L41.0553 36.8573C40.9356 37.7701 40.108 38.5094 39.2069 38.5094Z" fill="white"/>
<path d="M44.5144 10.5433H9.91406L10.467 6.33717C10.5867 5.42438 11.4143 4.68506 12.3154 4.68506H43.6532C44.5543 4.68506 45.1871 5.42529 45.0674 6.33717L44.5144 10.5433Z" fill="#A3A3FC"/>
<path d="M39.2071 38.8098H7.86833C7.35071 38.8098 6.88749 38.6054 6.56296 38.2349C6.23118 37.8552 6.08704 37.3521 6.15684 36.818L10.1699 6.29699C10.3086 5.2416 11.2713 4.3833 12.3156 4.3833H43.6535C44.1711 4.3833 44.6343 4.58766 44.9589 4.95823C45.2906 5.33788 45.4348 5.84105 45.365 6.37511L41.3528 36.8952C41.2141 37.9506 40.2514 38.8089 39.2071 38.8089V38.8098ZM12.3156 4.98457C11.5614 4.98457 10.8652 5.60854 10.7646 6.37601L6.75242 36.8961C6.70528 37.2567 6.79774 37.5918 7.0144 37.8389C7.22289 38.0778 7.52657 38.2094 7.86833 38.2094H39.2062C39.9604 38.2094 40.6566 37.5855 40.7572 36.818L44.7694 6.2979C44.8165 5.93733 44.7232 5.60218 44.5074 5.35513C44.2989 5.11626 43.9953 4.98457 43.6535 4.98457H12.3156Z" fill="#12123D"/>
<path d="M15.9786 27.2807H12.1504C11.6573 27.2807 11.3101 26.8756 11.3763 26.376L11.8902 22.4642C11.9555 21.9647 12.4088 21.5596 12.9028 21.5596H16.731C17.2241 21.5596 17.5713 21.9647 17.5051 22.4642L16.9911 26.376C16.9259 26.8756 16.4726 27.2807 15.9786 27.2807Z" fill="#6A6ACF"/>
<path d="M23.2774 27.2807H19.4492C18.9561 27.2807 18.6089 26.8756 18.6751 26.376L19.1891 22.4642C19.2543 21.9647 19.7076 21.5596 20.2016 21.5596H24.0298C24.5229 21.5596 24.8701 21.9647 24.804 22.4642L24.29 26.376C24.2247 26.8756 23.7714 27.2807 23.2774 27.2807Z" fill="#6A6ACF"/>
<path d="M30.5782 27.2807H26.75C26.2569 27.2807 25.9097 26.8756 25.9759 26.376L26.4899 22.4642C26.5551 21.9647 27.0084 21.5596 27.5024 21.5596H31.3306C31.8237 21.5596 32.1709 21.9647 32.1047 22.4642L31.5908 26.376C31.5255 26.8756 31.0722 27.2807 30.5782 27.2807Z" fill="#FFCB03"/>
<path d="M37.877 27.2807H34.0488C33.5557 27.2807 33.2085 26.8756 33.2747 26.376L33.7887 22.4642C33.8539 21.9647 34.3072 21.5596 34.8012 21.5596H38.6294C39.1226 21.5596 39.4697 21.9647 39.4036 22.4642L38.8896 26.376C38.8243 26.8756 38.3711 27.2807 37.877 27.2807Z" fill="#A3A3FC"/>
<path d="M15.004 34.6918H11.1758C10.6827 34.6918 10.3355 34.2867 10.4016 33.7872L10.9156 29.8753C10.9809 29.3758 11.4342 28.9707 11.9282 28.9707H15.7564C16.2495 28.9707 16.5967 29.3758 16.5305 29.8753L16.0165 33.7872C15.9513 34.2867 15.498 34.6918 15.004 34.6918Z" fill="#6A6ACF"/>
<path d="M22.3028 34.6918H18.4746C17.9815 34.6918 17.6343 34.2867 17.7005 33.7872L18.2145 29.8753C18.2797 29.3758 18.733 28.9707 19.227 28.9707H23.0552C23.5483 28.9707 23.8955 29.3758 23.8293 29.8753L23.3154 33.7872C23.2501 34.2867 22.7968 34.6918 22.3028 34.6918Z" fill="#FFCB03"/>
<path d="M29.6036 34.6918H25.7754C25.2823 34.6918 24.9351 34.2867 25.0013 33.7872L25.5152 29.8753C25.5805 29.3758 26.0338 28.9707 26.5278 28.9707H30.356C30.8491 28.9707 31.1963 29.3758 31.1301 29.8753L30.6161 33.7872C30.5509 34.2867 30.0976 34.6918 29.6036 34.6918Z" fill="#6A6ACF"/>
<path d="M16.9561 19.8446H13.1279C12.6348 19.8446 12.2876 19.4396 12.3538 18.94L12.8678 15.0282C12.933 14.5286 13.3863 14.1235 13.8803 14.1235H17.7085C18.2017 14.1235 18.5488 14.5286 18.4827 15.0282L17.9687 18.94C17.9025 19.4396 17.4493 19.8446 16.9561 19.8446Z" fill="#FFCB03"/>
<path d="M24.2549 19.8446H20.4268C19.9336 19.8446 19.5864 19.4396 19.6526 18.94L20.1666 15.0282C20.2319 14.5286 20.6851 14.1235 21.1792 14.1235H25.0073C25.5005 14.1235 25.8477 14.5286 25.7815 15.0282L25.2675 18.94C25.2022 19.4396 24.749 19.8446 24.2549 19.8446Z" fill="#6A6ACF"/>
<path d="M31.5547 19.8446H27.7266C27.2334 19.8446 26.8862 19.4396 26.9524 18.94L27.4664 15.0282C27.5317 14.5286 27.9849 14.1235 28.479 14.1235H32.3071C32.8003 14.1235 33.1475 14.5286 33.0813 15.0282L32.5673 18.94C32.502 19.4396 32.0488 19.8446 31.5547 19.8446Z" fill="#6A6ACF"/>
<path d="M38.8546 19.8446H35.0264C34.5332 19.8446 34.1861 19.4396 34.2522 18.94L34.7662 15.0282C34.8315 14.5286 35.2847 14.1235 35.7788 14.1235H39.607C40.1001 14.1235 40.4473 14.5286 40.3811 15.0282L39.8671 18.94C39.8018 19.4396 39.3486 19.8446 38.8546 19.8446Z" fill="#A3A3FC"/>
<path d="M15.01 8.13801C14.1806 8.1362 13.4372 7.8065 12.916 7.20978C12.3748 6.58944 12.14 5.76384 12.2552 4.88283C12.4836 3.13807 14.0564 1.72119 15.7642 1.72119C15.8313 1.72119 15.8984 1.72301 15.9637 1.72755C16.1287 1.73845 16.2547 1.88104 16.2438 2.04635C16.2329 2.21165 16.0915 2.33608 15.9256 2.327C15.8721 2.32336 15.8195 2.32336 15.7633 2.32155C14.3465 2.32155 13.0402 3.5041 12.8489 4.96003C12.7565 5.66665 12.9405 6.32514 13.3665 6.81287C13.7727 7.27699 14.3564 7.53403 15.0109 7.53584C15.1768 7.53584 15.3101 7.67117 15.3101 7.83738C15.3101 8.00269 15.1759 8.13711 15.01 8.13711V8.13801Z" fill="#12123D"/>
<path d="M19.3069 8.14973C18.4775 8.14792 17.7341 7.81822 17.2129 7.2215C16.6717 6.60116 16.4369 5.77555 16.552 4.89455C16.7805 3.14979 18.3533 1.73291 20.0611 1.73291C20.1282 1.73291 20.1953 1.73473 20.2606 1.73927C20.4255 1.75017 20.5506 1.89276 20.5407 2.05807C20.5298 2.22337 20.3847 2.34689 20.2225 2.33872C20.1699 2.33508 20.1146 2.33236 20.062 2.33327C18.6443 2.33327 17.338 3.51582 17.1476 4.97175C17.0552 5.67837 17.2392 6.33686 17.6652 6.82459C18.0713 7.28871 18.6551 7.54574 19.3096 7.54756C19.4755 7.54756 19.6088 7.68289 19.6088 7.8491C19.6088 8.0144 19.4746 8.14883 19.3087 8.14883L19.3069 8.14973Z" fill="#12123D"/>
<path d="M23.6048 8.16054C22.7753 8.15873 22.032 7.82903 21.5107 7.23231C20.9696 6.61288 20.7348 5.78637 20.8499 4.90627C21.0783 3.16151 22.6511 1.74463 24.359 1.74463C24.427 1.74463 24.4931 1.74645 24.5584 1.75099C24.7234 1.76189 24.8485 1.90448 24.8385 2.06978C24.8276 2.23509 24.6835 2.35952 24.5194 2.35044C24.4668 2.3468 24.4106 2.34408 24.359 2.34499C22.9412 2.34499 21.6349 3.52753 21.4446 4.98347C21.3521 5.69009 21.5361 6.34858 21.9622 6.83631C22.3683 7.30043 22.9521 7.55746 23.6066 7.55928C23.7725 7.55928 23.9057 7.69461 23.9057 7.86082C23.9057 8.02612 23.7716 8.16054 23.6057 8.16054H23.6048Z" fill="#12123D"/>
<path d="M27.9016 8.17275C27.0722 8.17094 26.3289 7.84124 25.8076 7.24451C25.2664 6.62508 25.0316 5.79857 25.1468 4.91847C25.3752 3.17371 26.948 1.75684 28.6558 1.75684C28.7211 1.75684 28.79 1.75865 28.8553 1.76319C29.0203 1.77409 29.1454 1.91669 29.1354 2.08199C29.1245 2.24729 28.9813 2.37263 28.8172 2.36264C28.7637 2.35901 28.7093 2.35628 28.6558 2.35719C27.239 2.35719 25.9318 3.53974 25.7414 4.99567C25.649 5.7023 25.833 6.36078 26.2591 6.84852C26.6643 7.31263 27.249 7.56967 27.9034 7.57149C28.0693 7.57149 28.2026 7.70682 28.2026 7.87303C28.2026 8.03833 28.0684 8.17275 27.9025 8.17275H27.9016Z" fill="#12123D"/>
<path d="M32.1995 8.18447C31.37 8.18265 30.6267 7.85296 30.1055 7.25623C29.5643 6.63589 29.3295 5.81029 29.4446 4.93019C29.6731 3.18543 31.2458 1.76855 32.9537 1.76855C33.0208 1.76855 33.0879 1.77037 33.1531 1.77491C33.3181 1.78581 33.4432 1.92841 33.4332 2.09371C33.4224 2.25901 33.2782 2.38526 33.1151 2.37436C33.0616 2.37073 33.0081 2.368 32.9537 2.36891C31.5368 2.36891 30.2297 3.55146 30.0393 5.00739C29.9468 5.71402 30.1308 6.3725 30.5569 6.86023C30.963 7.32435 31.5468 7.58139 32.2013 7.58321C32.3672 7.58321 32.5004 7.71853 32.5004 7.88475C32.5004 8.05005 32.3663 8.18447 32.2004 8.18447H32.1995Z" fill="#12123D"/>
<path d="M36.4964 8.19521C35.6669 8.1934 34.9236 7.8637 34.4023 7.26698C33.8612 6.64755 33.6264 5.82103 33.7415 4.94093C33.9699 3.19618 35.5427 1.7793 37.2506 1.7793C37.3168 1.7793 37.3847 1.78111 37.45 1.78565C37.615 1.79655 37.7401 1.93915 37.7301 2.10445C37.7192 2.26975 37.576 2.39419 37.4119 2.3851C37.3585 2.38147 37.3032 2.37965 37.2506 2.37965C35.8337 2.37965 34.5265 3.5622 34.3362 5.01814C34.2437 5.72476 34.4277 6.38324 34.8538 6.87098C35.2599 7.33509 35.8437 7.59213 36.4982 7.59395C36.6641 7.59395 36.7973 7.72928 36.7973 7.89549C36.7973 8.06079 36.6632 8.19521 36.4973 8.19521H36.4964Z" fill="#12123D"/>
<path d="M40.5491 8.20596C39.7196 8.20414 38.9763 7.87444 38.4551 7.27772C37.9139 6.65829 37.6791 5.83178 37.7942 4.95168C38.0227 3.20692 39.5955 1.79004 41.3033 1.79004H41.3115C42.4201 1.79276 43.3574 2.37586 43.817 3.3477C43.8878 3.49756 43.8243 3.67649 43.6747 3.74733C43.5252 3.81817 43.3466 3.7546 43.2759 3.60473C42.9178 2.84634 42.1826 2.39312 41.3106 2.3904H41.3033C39.8864 2.3904 38.5793 3.57294 38.3889 5.02888C38.2964 5.7355 38.4805 6.39399 38.9065 6.88172C39.3126 7.34584 39.8964 7.60287 40.5509 7.60469C40.7168 7.60469 40.8501 7.74002 40.8501 7.90623C40.8501 8.07153 40.7159 8.20596 40.55 8.20596H40.5491Z" fill="#12123D"/>
<path d="M142.066 48.5465C151.581 39.0133 151.581 23.557 142.066 14.0238C132.551 4.49068 117.125 4.49069 107.61 14.0238C98.0951 23.557 98.0951 39.0133 107.61 48.5465C117.125 58.0796 132.551 58.0796 142.066 48.5465Z" fill="#12123D"/>
<path d="M124.838 55.9974C111.238 55.9974 100.174 44.9121 100.174 31.2855C100.174 17.659 111.238 6.57373 124.838 6.57373C138.438 6.57373 149.502 17.659 149.502 31.2855C149.502 44.9121 138.438 55.9974 124.838 55.9974ZM124.838 7.175C111.569 7.175 100.774 17.9914 100.774 31.2855C100.774 44.5797 111.569 55.3961 124.838 55.3961C138.107 55.3961 148.902 44.5797 148.902 31.2855C148.902 17.9914 138.107 7.175 124.838 7.175Z" fill="#12123D"/>
<path d="M139.065 48.5465C148.58 39.0133 148.58 23.557 139.065 14.0238C129.55 4.49068 114.124 4.49069 104.609 14.0238C95.0941 23.557 95.0941 39.0133 104.609 48.5465C114.124 58.0796 129.55 58.0796 139.065 48.5465Z" fill="#FFCB03"/>
<path d="M121.837 55.9974C108.238 55.9974 97.1729 44.9121 97.1729 31.2855C97.1729 17.659 108.237 6.57373 121.837 6.57373C135.437 6.57373 146.501 17.659 146.501 31.2855C146.501 44.9121 135.437 55.9974 121.837 55.9974ZM121.837 7.175C108.568 7.175 97.773 17.9914 97.773 31.2855C97.773 44.5797 108.569 55.3961 121.837 55.3961C135.106 55.3961 145.901 44.5797 145.901 31.2855C145.901 17.9914 135.106 7.175 121.837 7.175Z" fill="#12123D"/>
<path d="M133.322 42.7932C139.665 36.4377 139.665 26.1335 133.322 19.7781C126.979 13.4227 116.695 13.4227 110.352 19.7781C104.008 26.1335 104.008 36.4377 110.352 42.7932C116.695 49.1486 126.979 49.1486 133.322 42.7932Z" fill="white"/>
<path d="M127.58 37.0394C130.751 33.8617 130.751 28.7096 127.58 25.5319C124.408 22.3542 119.266 22.3541 116.094 25.5319C112.923 28.7096 112.923 33.8617 116.094 37.0394C119.266 40.2171 124.408 40.2171 127.58 37.0394Z" fill="#FFCB03"/>
<path d="M121.576 31.58L125.752 26.8916L126.376 27.5174L121.697 31.7017C121.616 31.7735 121.504 31.6609 121.576 31.58H121.576Z" fill="white"/>
<path d="M121.64 32.0251C121.542 32.0251 121.444 31.987 121.368 31.9107C121.221 31.7636 121.214 31.5356 121.352 31.3803L125.528 26.6919C125.583 26.6301 125.661 26.5938 125.743 26.592C125.829 26.5892 125.906 26.6219 125.964 26.6801L126.588 27.3058C126.646 27.364 126.678 27.4439 126.676 27.5266C126.673 27.6092 126.638 27.6873 126.576 27.7418L121.898 31.9261C121.824 31.9924 121.732 32.026 121.64 32.026V32.0251ZM125.765 27.3295L124.307 28.9661L125.941 27.5057L125.765 27.3295Z" fill="#12123D"/>
<path d="M127.476 24.9157L128.352 25.793L126.33 27.8186C126.255 27.8937 126.133 27.8944 126.057 27.8186L125.454 27.2142C125.379 27.1391 125.378 27.0164 125.454 26.9406L127.476 24.915L127.476 24.9157Z" fill="white"/>
<path d="M126.185 28.0432C125.965 28.0432 125.757 27.9569 125.601 27.8007L125.469 27.6681C125.147 27.3456 125.147 26.8216 125.469 26.4991L127.255 24.709C127.372 24.5918 127.561 24.5918 127.679 24.709L128.555 25.5863C128.611 25.6427 128.643 25.7189 128.643 25.7989C128.643 25.8788 128.611 25.9551 128.555 26.0114L126.768 27.8016C126.612 27.9578 126.405 28.0441 126.184 28.0441L126.185 28.0432ZM127.467 25.3466L125.892 26.9242C125.804 27.0123 125.804 27.1558 125.892 27.2439L126.025 27.3765C126.067 27.4192 126.124 27.4428 126.184 27.4428C126.244 27.4428 126.301 27.4192 126.344 27.3765L127.918 25.7989L127.467 25.3466Z" fill="#12123D"/>
<path d="M127.099 26.3714L126.896 26.167C126.537 25.8083 126.537 25.2261 126.896 24.8673L147.157 4.56692C147.515 4.20816 148.096 4.20816 148.454 4.56692L148.658 4.77128C149.016 5.13004 149.016 5.71223 148.658 6.07099L128.397 26.3714C128.039 26.7302 127.458 26.7302 127.099 26.3714Z" fill="white"/>
<path d="M127.749 26.9398C127.437 26.9398 127.125 26.8208 126.888 26.5838L126.684 26.3794C126.454 26.1496 126.328 25.8426 126.328 25.5175C126.328 25.1923 126.455 24.8853 126.684 24.6556L146.946 4.35514C147.421 3.88012 148.192 3.87921 148.667 4.35514L148.871 4.5595C149.346 5.03451 149.346 5.80835 148.871 6.28427L128.61 26.5847C128.372 26.8227 128.06 26.9416 127.75 26.9416L127.749 26.9398ZM127.312 26.1587C127.553 26.4003 127.944 26.4003 128.186 26.1587L148.447 5.8583C148.688 5.61671 148.688 5.22434 148.447 4.98274L148.243 4.77839C148.002 4.5377 147.61 4.53679 147.369 4.77839L127.108 25.0788C126.991 25.196 126.926 25.3513 126.926 25.5166C126.926 25.6819 126.991 25.8372 127.108 25.9544L127.312 26.1587Z" fill="#12123D"/>
<path d="M141.195 10.5411L140.574 7.51657C140.329 6.32494 140.699 5.08881 141.558 4.22869L145.406 0.373145C145.546 0.232366 145.786 0.305026 145.826 0.499393L146.747 4.98072L141.196 10.542L141.195 10.5411Z" fill="#FFCB03"/>
<path d="M141.195 10.8419C141.166 10.8419 141.137 10.8374 141.109 10.8292C141.004 10.7974 140.923 10.7102 140.901 10.6021L140.28 7.57762C140.014 6.28245 140.413 4.95186 141.346 4.01635L145.194 0.160811C145.337 0.0173064 145.545 -0.0353724 145.739 0.0227559C145.933 0.0808842 146.078 0.240737 146.119 0.438737L147.039 4.91916C147.06 5.01816 147.029 5.12079 146.958 5.19164L141.407 10.7529C141.35 10.8101 141.274 10.841 141.195 10.841V10.8419ZM145.55 0.653085L141.769 4.44142C140.979 5.23342 140.642 6.36056 140.867 7.45683L141.376 9.93545L146.419 4.88283L145.55 0.653085Z" fill="#12123D"/>
<path d="M142.696 12.0451L145.715 12.6673C146.904 12.9125 148.138 12.542 148.996 11.6818L152.845 7.82629C152.985 7.68642 152.913 7.44573 152.719 7.40577L148.246 6.48389L142.695 12.0451H142.696Z" fill="#FFCB03"/>
<path d="M146.448 13.0434C146.184 13.0434 145.918 13.0171 145.654 12.9626L142.636 12.3404C142.528 12.3177 142.441 12.2387 142.409 12.1324C142.377 12.0271 142.406 11.9117 142.484 11.8336L148.035 6.27237C148.107 6.20062 148.209 6.17065 148.308 6.19063L152.78 7.11251C152.978 7.15338 153.138 7.29961 153.196 7.49307C153.254 7.68744 153.201 7.89633 153.058 8.03984L149.21 11.8954C148.467 12.6392 147.475 13.0434 146.449 13.0434H146.448ZM143.302 11.8636L145.776 12.374C146.871 12.6002 147.995 12.2623 148.785 11.4703L152.567 7.68199L148.345 6.81188L143.302 11.8645V11.8636Z" fill="#12123D"/>
<path d="M151.254 9.0345C151.236 9.0345 151.217 9.03269 151.199 9.02905L147.564 8.34786C147.401 8.31698 147.294 8.16076 147.325 7.99728C147.355 7.83379 147.513 7.72752 147.675 7.7575L151.31 8.43869C151.473 8.46957 151.58 8.62579 151.549 8.78927C151.522 8.93369 151.396 9.0345 151.254 9.0345Z" fill="#12123D"/>
<path d="M149.777 10.515C149.759 10.515 149.74 10.5132 149.721 10.5095L146.085 9.82833C145.922 9.79745 145.815 9.64123 145.846 9.47775C145.877 9.31426 146.035 9.20799 146.196 9.23797L149.832 9.91916C149.995 9.95004 150.102 10.1063 150.071 10.2697C150.044 10.4142 149.918 10.515 149.777 10.515Z" fill="#12123D"/>
<path d="M141.356 12.9352C141.279 12.9352 141.203 12.9061 141.144 12.8471L140.394 12.0959C140.277 11.9788 140.277 11.788 140.394 11.6709C140.511 11.5537 140.701 11.5537 140.819 11.6709L141.568 12.422C141.685 12.5392 141.685 12.7299 141.568 12.8471C141.509 12.9052 141.433 12.9352 141.356 12.9352Z" fill="#12123D"/>
<path d="M142.223 12.066C142.146 12.066 142.07 12.037 142.011 11.9779L141.262 11.2268C141.145 11.1096 141.145 10.9189 141.262 10.8017C141.378 10.6846 141.568 10.6846 141.686 10.8017L142.435 11.5529C142.552 11.67 142.552 11.8608 142.435 11.9779C142.377 12.037 142.3 12.066 142.223 12.066Z" fill="#12123D"/>
<path d="M143.092 11.1959C143.015 11.1959 142.939 11.1669 142.88 11.1078L142.131 10.3567C142.014 10.2395 142.014 10.0488 142.131 9.93162C142.248 9.81446 142.437 9.81446 142.555 9.93162L143.305 10.6828C143.422 10.7999 143.422 10.9906 143.305 11.1078C143.246 11.1659 143.17 11.1959 143.092 11.1959Z" fill="#12123D"/>
<path d="M31.2588 154.818L31.2279 161.395L26.6211 161.098L27.0952 154.799L31.2588 154.818Z" fill="white"/>
<path d="M31.5257 161.715L26.2988 161.379L26.8164 154.498L31.5593 154.519L31.5266 161.715H31.5257ZM26.9424 160.818L30.9293 161.075L30.9564 155.118L27.3721 155.102L26.9424 160.819V160.818Z" fill="#12123D"/>
<path d="M31.1085 159.661L30.8302 159.93C30.2999 160.441 29.514 160.582 28.8396 160.287L27.1181 159.535C26.8353 159.526 26.5742 159.689 26.4582 159.95C26.0756 160.807 25.2888 162.815 25.3223 164.745C25.3314 165.271 25.7511 165.697 26.2733 165.715L33.9749 165.959H33.9903C34.7618 165.983 35.4833 165.914 36.2992 165.834L37.7016 165.636C38.0098 165.592 38.3125 165.502 38.5854 165.351C38.9906 165.128 39.152 164.694 39.0849 164.292C38.977 163.65 38.5247 163.386 37.0715 162.793C34.8397 161.883 32.4611 160.201 31.6497 159.797C31.4811 159.714 31.298 159.667 31.1104 159.661H31.1085Z" fill="white"/>
<path d="M34.3061 166.264C34.1982 166.264 34.0903 166.262 33.9806 166.259L26.2636 166.014C25.5801 165.992 25.0344 165.438 25.0226 164.75C24.9872 162.738 25.8239 160.637 26.1847 159.827C26.3506 159.454 26.7205 159.219 27.1275 159.234L27.1855 159.236L28.9595 160.012C29.5252 160.259 30.1779 160.141 30.622 159.714L30.9919 159.358L31.1179 159.362C31.35 159.369 31.573 159.426 31.7815 159.529C32.0471 159.662 32.4559 159.914 32.9735 160.233C34.1121 160.936 35.6722 161.899 37.1833 162.515C38.6374 163.108 39.2429 163.43 39.3798 164.242C39.475 164.805 39.2193 165.345 38.7298 165.615C38.4406 165.774 38.1089 165.881 37.7435 165.932L36.3412 166.131C35.645 166.2 34.9914 166.264 34.3061 166.264ZM27.0595 159.836C26.9172 159.85 26.7921 159.938 26.7322 160.072C26.3878 160.845 25.5891 162.848 25.6218 164.739C25.6281 165.106 25.9182 165.402 26.2817 165.414L33.9834 165.658C34.7666 165.682 35.4963 165.61 36.2687 165.534L37.6583 165.338C37.9511 165.296 38.214 165.212 38.4397 165.088C38.7597 164.912 38.8268 164.576 38.7878 164.341C38.709 163.873 38.4008 163.659 36.9567 163.071C35.3993 162.436 33.7504 161.418 32.659 160.744C32.154 160.432 31.7561 160.186 31.514 160.066C31.4198 160.019 31.3201 159.988 31.2176 159.972L31.0372 160.146C30.4172 160.744 29.507 160.906 28.7184 160.562L27.0577 159.836H27.0595Z" fill="#12123D"/>
<path d="M32.4984 162.64C32.435 162.64 32.3715 162.62 32.318 162.579C32.1857 162.479 32.1603 162.29 32.26 162.159L33.1756 160.947C33.2753 160.815 33.4639 160.789 33.5953 160.889C33.7277 160.989 33.753 161.178 33.6533 161.31L32.7378 162.521C32.6788 162.599 32.5891 162.64 32.4984 162.64Z" fill="#12123D"/>
<path d="M34.0089 163.607C33.9508 163.607 33.8919 163.59 33.8402 163.556C33.7034 163.462 33.668 163.276 33.7605 163.139L34.6978 161.757C34.7912 161.62 34.9779 161.585 35.1139 161.678C35.2508 161.772 35.2861 161.958 35.1937 162.095L34.2563 163.477C34.1983 163.562 34.104 163.608 34.0079 163.608L34.0089 163.607Z" fill="#12123D"/>
<path d="M33.5463 164.866C31.9454 164.866 26.7466 164.582 26.5118 164.569C26.3468 164.56 26.2199 164.418 26.229 164.253C26.238 164.088 26.3813 163.959 26.5444 163.97C26.6052 163.973 32.6488 164.303 33.7892 164.263C34.9314 164.222 37.0526 163.959 37.0744 163.956C37.2385 163.935 37.3889 164.052 37.4089 164.217C37.4297 164.381 37.3128 164.532 37.1487 164.552C37.0608 164.563 34.9795 164.822 33.811 164.863C33.7394 164.866 33.6505 164.867 33.5472 164.867L33.5463 164.866Z" fill="#12123D"/>
<path d="M8.74227 154.851L6.74433 159.878L3.14551 158.841L5.29846 153.399L8.74227 154.851Z" fill="white"/>
<path d="M6.9232 160.242L2.74512 159.038L5.13285 153.003L9.13053 154.688L6.9232 160.242ZM3.54647 158.644L6.56694 159.515L8.35547 155.013L5.46463 153.795L3.54647 158.645V158.644Z" fill="#12123D"/>
<path d="M7.07704 158.655L3.48728 157.516C3.23255 157.435 2.95516 157.516 2.78383 157.72C2.21999 158.395 0.998928 160.001 0.542956 161.749C0.417858 162.227 0.691623 162.718 1.16119 162.867L6.26209 164.486C7.38253 164.841 8.53833 165.074 9.70862 165.179C9.70862 165.179 13.4316 165.574 13.5214 164.374C13.6719 162.361 11.0448 162.303 10.704 161.954C9.3986 160.616 8.0325 159.368 7.5312 158.915C7.39976 158.797 7.24565 158.709 7.07704 158.655V158.655Z" fill="white"/>
<path d="M10.9986 165.544C10.3459 165.544 9.80295 165.491 9.67785 165.478C8.49215 165.371 7.31097 165.133 6.1715 164.772L1.0706 163.153C0.446921 162.955 0.0879452 162.305 0.252929 161.673C0.72975 159.846 2.02152 158.165 2.55364 157.527C2.80383 157.229 3.20541 157.111 3.57799 157.229L7.16774 158.368C7.37805 158.436 7.56842 158.544 7.73159 158.692C8.25555 159.164 9.6144 160.407 10.918 161.743C10.9705 161.783 11.2207 161.857 11.422 161.916C12.3049 162.177 13.9493 162.661 13.8197 164.396C13.8015 164.634 13.6864 164.848 13.487 165.015C12.9721 165.445 11.8843 165.544 10.9977 165.544L10.9986 165.544ZM3.28791 157.785C3.18366 157.785 3.08304 157.831 3.01414 157.913C2.50741 158.52 1.28 160.117 0.833092 161.825C0.748787 162.148 0.932807 162.479 1.2519 162.581L6.3528 164.199C7.45057 164.548 8.58914 164.777 9.73587 164.881C10.7611 164.989 12.5769 164.996 13.1035 164.555C13.2033 164.473 13.2187 164.399 13.2223 164.352C13.3084 163.197 12.3403 162.813 11.2534 162.494C10.879 162.384 10.6324 162.311 10.4901 162.165C9.19831 160.841 7.85034 159.608 7.33091 159.139C7.2312 159.05 7.11607 158.983 6.98735 158.942L3.39759 157.803C3.36133 157.792 3.32417 157.786 3.28791 157.786V157.785Z" fill="#12123D"/>
<path d="M7.50516 161.851C7.41723 161.851 7.3293 161.812 7.27037 161.738C7.16703 161.608 7.18879 161.419 7.31842 161.316L8.84588 160.099C8.97551 159.997 9.16406 160.018 9.2674 160.148C9.37074 160.277 9.34899 160.466 9.21936 160.57L7.6919 161.786C7.6366 161.83 7.57133 161.851 7.50516 161.851Z" fill="#12123D"/>
<path d="M8.91172 162.872C8.82289 162.872 8.73495 162.833 8.67513 162.757C8.57269 162.626 8.59626 162.437 8.7268 162.336L9.97415 161.357C10.1047 161.255 10.2932 161.278 10.3948 161.409C10.4972 161.54 10.4736 161.729 10.3431 161.831L9.09574 162.809C9.04135 162.851 8.97608 162.872 8.91082 162.872H8.91172Z" fill="#12123D"/>
<path d="M11.7076 164.317C10.8328 164.317 9.21469 164.194 8.48133 164.06C7.61652 163.903 1.88923 161.743 1.64628 161.652C1.49127 161.594 1.41331 161.42 1.47133 161.265C1.52935 161.11 1.70249 161.031 1.8575 161.09C3.50099 161.71 7.91476 163.347 8.5883 163.469C9.43044 163.623 11.4429 163.748 12.023 163.707C12.1889 163.694 12.3313 163.82 12.343 163.985C12.3548 164.15 12.2306 164.294 12.0656 164.306C11.9705 164.313 11.8481 164.316 11.7067 164.316L11.7076 164.317Z" fill="#12123D"/>
<path d="M16.9877 100.317C16.9877 100.317 14.4749 105.355 13.63 110.662C12.8232 115.731 5.60837 147.662 4.30301 153.344C4.21689 153.719 4.39184 154.104 4.73178 154.284C5.58934 154.737 7.26184 155.528 8.71859 155.656C9.10748 155.689 9.48187 155.505 9.68039 155.168C11.5859 151.938 22.1865 133.483 25.2904 117.475C28.7052 99.8633 28.019 101.236 28.019 101.236L16.9877 100.317Z" fill="#FFCB03"/>
<path d="M20.4917 102.623C20.4917 102.623 19.0259 112.196 21.798 119.278C24.4631 126.088 26.9741 147.995 25.9806 155.708C25.9181 156.193 26.2544 156.637 26.7375 156.706C27.9495 156.876 30.1351 157.108 31.6309 156.828C31.9055 156.776 32.1267 156.575 32.1956 156.302C33.1828 152.389 40.5599 121.805 34.7873 103.677L20.4917 102.623V102.623Z" fill="#FFCB03"/>
<path d="M23.5886 128.054C23.4399 128.054 23.3112 127.943 23.2912 127.791C23.2867 127.753 22.7772 123.889 21.1673 120.114C19.6108 116.467 19.8882 111.912 19.9009 111.719C19.9118 111.554 20.0541 111.428 20.2191 111.44C20.3841 111.451 20.5092 111.593 20.4983 111.759C20.4956 111.804 20.2191 116.365 21.7175 119.878C23.3619 123.732 23.8796 127.675 23.885 127.715C23.9058 127.879 23.7898 128.03 23.6257 128.051C23.613 128.053 23.6003 128.054 23.5868 128.054H23.5886Z" fill="#6A6ACF"/>
<path d="M44.6712 72.2724C44.6712 72.2724 48.5256 71.6048 51.218 71.4568C53.9103 71.3087 58.2715 62.2707 58.3612 61.1799C58.3612 61.1799 58.4328 60.9555 58.3485 60.6921C58.0884 59.8774 57.4747 58.1617 57.9043 57.2589C58.6241 55.7467 59.9712 55.9683 59.9712 55.9683C59.9712 55.9683 60.3428 54.6186 61.2203 54.9265C61.8939 55.1627 62.6345 55.8248 62.7686 57.0546C62.9518 58.7303 62.9799 60.3615 61.4034 61.6503C61.097 61.901 60.8831 62.2453 60.8015 62.6322C60.3011 65.0318 58.4093 73.2769 55.6825 75.2923C52.4816 77.6593 43.8662 80.5003 43.8662 80.5003L44.6712 72.2715V72.2724Z" fill="white"/>
<path d="M43.8671 80.8017C43.8 80.8017 43.7338 80.779 43.6794 80.7354C43.6006 80.6718 43.5589 80.5728 43.5688 80.472L44.3738 72.2432C44.3865 72.1088 44.488 71.9998 44.6213 71.9762C44.6603 71.9698 48.5238 71.3041 51.2025 71.1569C52.2169 71.1015 53.786 69.4103 55.5093 66.5185C57.006 64.0053 58.0285 61.5839 58.0638 61.1552C58.0657 61.1325 58.0702 61.1098 58.0774 61.088C58.0774 61.088 58.1164 60.9454 58.0647 60.7837L58.004 60.5957C57.6976 59.653 57.1854 58.0753 57.6351 57.1298C58.1917 55.9591 59.1598 55.6566 59.7635 55.653C59.8769 55.3669 60.1134 54.9046 60.5177 54.6921C60.7652 54.5622 61.0426 54.5449 61.32 54.6421C61.6826 54.7693 62.881 55.3169 63.0677 57.0208C63.2536 58.7193 63.2926 60.4931 61.5938 61.8827C61.3381 62.0916 61.1614 62.3795 61.0961 62.6938C60.5767 65.1824 58.6649 73.4621 55.8619 75.5347C52.6593 77.9025 44.3149 80.67 43.9614 80.7862C43.9305 80.7962 43.8988 80.8017 43.868 80.8017H43.8671ZM44.9476 72.5311L44.2106 80.0687C46.0001 79.4566 52.7898 77.0606 55.5057 75.0524C58.1382 73.106 60.001 65.008 60.5087 62.5721C60.6021 62.1243 60.8523 61.7147 61.214 61.4186C62.6816 60.2188 62.6462 58.6857 62.4713 57.088C62.3235 55.7338 61.4007 55.3088 61.1215 55.2107C61 55.168 60.8967 55.1725 60.7951 55.2261C60.5014 55.3805 60.3056 55.8846 60.2603 56.0499C60.2195 56.198 60.0727 56.2906 59.9231 56.2661C59.8787 56.2597 58.7845 56.1108 58.1753 57.3896C57.8282 58.1189 58.3131 59.6103 58.5733 60.4114L58.6349 60.6021C58.7274 60.8909 58.6812 61.1443 58.6576 61.2379C58.4881 62.5603 54.1051 71.6011 51.2351 71.7582C48.9616 71.8826 45.8097 72.3885 44.9476 72.532V72.5311Z" fill="#12123D"/>
<path d="M53.8644 66.8736L51.4785 64.0172L52.9244 62.9364C53.0042 62.8764 53.0966 62.8364 53.1945 62.8201L53.3722 62.7892C53.5961 62.7502 53.7819 62.5939 53.8572 62.3823C53.898 62.2679 53.9723 62.1662 54.0711 62.0926L64.8105 54.0473C64.8993 53.981 64.9963 53.9265 65.0987 53.8856L68.2516 52.624L66.4821 55.3515C66.386 55.5005 66.2699 55.6358 66.1385 55.7548L56.2232 64.7365C56.1389 64.8128 56.0346 64.8655 55.9222 64.8882L55.8941 64.8936C55.6793 64.9363 55.5007 65.0889 55.4263 65.2924L55.3892 65.395C55.3547 65.4895 55.2976 65.5748 55.2224 65.643L53.8635 66.8736H53.8644Z" fill="white"/>
<path d="M53.8647 67.1745C53.8575 67.1745 53.8511 67.1745 53.8439 67.1745C53.7623 67.169 53.687 67.13 53.6345 67.0673L51.2485 64.2108C51.196 64.1473 51.1715 64.0655 51.1806 63.9829C51.1905 63.9011 51.2331 63.8266 51.2993 63.7767L52.7452 62.6959C52.8621 62.6087 52.9999 62.5487 53.144 62.5242L53.3217 62.4933C53.4387 62.4733 53.5366 62.3916 53.5755 62.2817C53.6363 62.1109 53.746 61.962 53.8928 61.8521L64.6331 53.8068C64.7428 53.725 64.8624 53.6569 64.9902 53.6069L68.1431 52.3454C68.2645 52.2963 68.4032 52.3327 68.4857 52.4335C68.5682 52.5343 68.5764 52.6778 68.5057 52.7877L66.7362 55.5152C66.6256 55.685 66.4932 55.8413 66.3418 55.9784L56.4256 64.9601C56.3005 65.0728 56.1473 65.15 55.9823 65.1836L55.9542 65.189C55.8418 65.2117 55.7484 65.2907 55.7095 65.397L55.6723 65.4996C55.6215 65.6395 55.5354 65.7667 55.4248 65.8666L54.0669 67.0973C54.0116 67.1472 53.94 67.1745 53.8656 67.1745H53.8647ZM51.9121 64.0682L53.8946 66.4415L55.0223 65.4206C55.0613 65.3852 55.0912 65.3407 55.1084 65.2926L55.1456 65.1899C55.2553 64.8893 55.52 64.6622 55.8364 64.5996L55.8645 64.5941C55.9234 64.5823 55.9778 64.5551 56.0222 64.5142L65.9385 55.5325C66.0509 55.4307 66.1497 55.3145 66.2322 55.1882L67.4868 53.2546L65.2105 54.1646C65.1317 54.1964 65.0582 54.2373 64.9902 54.2881L54.2509 62.3335C54.1992 62.3725 54.1611 62.4243 54.1394 62.4833C54.0279 62.7976 53.7532 63.0283 53.4233 63.0855L53.2456 63.1164C53.1948 63.1255 53.145 63.1464 53.1033 63.1781L51.9112 64.0691L51.9121 64.0682Z" fill="#12123D"/>
<path d="M49.0708 65.9265L51.5211 63.9692L53.8852 66.8693L51.4349 68.8266C50.9862 69.1853 50.3344 69.1236 49.9809 68.6894L48.8995 67.3634C48.545 66.9292 48.6221 66.2853 49.0708 65.9274V65.9265Z" fill="#A3A3FC"/>
<path d="M50.7723 69.3599C50.3861 69.3599 50.0063 69.1964 49.7488 68.8794L48.6673 67.5534C48.448 67.2846 48.3474 66.9449 48.3845 66.5979C48.4226 66.241 48.6003 65.9194 48.884 65.6924L51.5663 63.5498L54.3094 66.9149L51.6216 69.062C51.3705 69.2627 51.0696 69.3599 50.7723 69.3599ZM49.2575 66.1619C49.0998 66.2882 49.0009 66.4653 48.9801 66.6615C48.9602 66.8477 49.0136 67.0293 49.1315 67.1737L50.2129 68.4998C50.4631 68.8068 50.9282 68.8486 51.2482 68.5924L53.4619 66.8241L51.4766 64.389L49.2575 66.1619Z" fill="#12123D"/>
<path d="M54.9453 64.495C54.8601 64.495 54.7749 64.4586 54.716 64.3878L54.0941 63.6476C53.9871 63.5204 54.0035 63.3315 54.1304 63.2243C54.2573 63.1172 54.4458 63.1344 54.5528 63.2607L55.1747 64.0009C55.2816 64.128 55.2653 64.317 55.1384 64.4241C55.0822 64.4714 55.0133 64.495 54.9453 64.495Z" fill="#12123D"/>
<path d="M50.773 68.0674C50.6833 68.0674 50.5944 68.0265 50.5346 67.9502C50.434 67.8185 50.4584 67.6305 50.5899 67.5288L51.9506 66.4825C52.082 66.3816 52.2696 66.4062 52.3712 66.5379C52.4718 66.6696 52.4473 66.8576 52.3159 66.9593L50.9552 68.0056C50.9008 68.0474 50.8365 68.0674 50.773 68.0674Z" fill="white"/>
<path d="M56.5859 65.207C57.7924 63.0563 58.4932 61.0299 58.3617 61.1807C58.3617 61.1807 58.3472 59.3261 59.3054 57.9455C59.8928 57.099 59.9671 53.9138 61.636 55.1063C61.995 55.3633 62.2406 55.5159 62.5053 55.9928C62.6504 56.2534 62.9069 56.9228 62.945 57.268C63.1281 58.9455 62.9785 60.366 61.3976 61.6557C61.093 61.9046 60.8809 62.2479 60.8011 62.633C60.7494 62.8801 60.4911 64.0517 60.4104 64.4087L56.585 65.207H56.5859Z" fill="white"/>
<path d="M58.3623 61.181C58.3623 61.181 58.7385 59.1402 59.306 57.9458C59.7484 57.0149 59.9677 53.9141 61.6366 55.1066C61.9956 55.3637 62.2413 55.5162 62.506 55.9931C62.651 56.2538 62.9075 56.9231 62.9456 57.2683C63.1287 58.9458 62.9791 60.3663 61.3982 61.6561C61.0936 61.9049 60.8815 62.2482 60.8017 62.6333C60.7546 62.8577 58.356 61.2555 58.3623 61.181Z" fill="white"/>
<path d="M56.5215 65.6369C56.4716 65.6369 56.4218 65.6242 56.3746 65.5978C56.2305 65.517 56.1788 65.3335 56.2604 65.1891C57.2766 63.3762 57.9538 61.607 58.0634 61.2155C58.0625 61.2046 58.0616 61.1937 58.0616 61.1828C58.0616 61.1029 58.058 59.2164 59.0588 57.7732C59.2029 57.5661 59.3307 57.1175 59.454 56.6833C59.7142 55.7723 59.9825 54.8305 60.6606 54.5925C61.005 54.4717 61.3921 54.5616 61.81 54.8604L61.8807 54.9113C62.2198 55.152 62.4872 55.3418 62.7673 55.8459C62.9296 56.1384 63.2006 56.8495 63.2432 57.2337C63.4417 59.0539 63.2369 60.5416 61.587 61.8876C61.335 62.0929 61.1601 62.3799 61.0948 62.6941C61.0413 62.9485 60.7403 64.329 60.6597 64.6896C60.6234 64.8513 60.463 64.953 60.3016 64.9166C60.1402 64.8803 60.0387 64.7196 60.075 64.5579C60.1538 64.2091 60.4575 62.8168 60.5083 62.5715C60.6017 62.1229 60.8509 61.715 61.209 61.4226C62.6531 60.2437 62.8307 58.9712 62.6476 57.3C62.6159 57.0057 62.3766 56.3772 62.2442 56.1384C62.0303 55.7533 61.8436 55.6207 61.5354 55.4018L61.4628 55.35C61.2126 55.1711 61.0096 55.1075 60.86 55.1602C60.4747 55.2955 60.2291 56.1565 60.0315 56.8486C59.8882 57.3518 59.7523 57.8268 59.5519 58.1156C58.7986 59.2019 58.6826 60.6315 58.6644 61.0547C58.7188 61.2046 58.6282 61.5343 58.1777 62.6124C57.9429 63.1755 57.4488 64.2963 56.7835 65.4834C56.7282 65.5815 56.6266 65.6369 56.5215 65.6369Z" fill="#12123D"/>
<path d="M12.2058 76.5732C10.7164 78.1636 3.52689 85.6104 4.1968 101.147C4.20496 101.34 4.20405 101.535 4.11702 101.707C3.67828 102.578 2.35931 105.439 3.03647 107.088C3.8206 108.994 6.26091 113.07 6.24459 106.93C6.24459 106.785 6.43496 106.73 6.5111 106.854C6.80662 107.338 7.26803 107.997 7.51732 107.876C8.10292 107.593 6.98339 104.428 7.2209 102.535C9.18076 86.9182 16.1772 83.6785 18.1062 82.2008C18.1062 82.2008 12.3689 76.4007 12.2067 76.5741L12.2058 76.5732Z" fill="white"/>
<path d="M5.36953 110.486C4.12399 110.486 2.81591 107.34 2.7588 107.201C2.05172 105.48 3.28548 102.691 3.84842 101.572C3.90462 101.46 3.90281 101.307 3.89646 101.16C3.59187 94.1069 4.7386 84.0916 11.9254 76.4323L12.074 76.2743L12.2118 76.2688C12.365 76.2643 12.6515 76.2606 18.318 81.9881L18.5583 82.2306L18.2872 82.4377C18.0941 82.5857 17.8566 82.7474 17.582 82.9345C15.0954 84.6293 9.27113 88.5975 7.51795 102.57C7.40826 103.441 7.60406 104.615 7.77721 105.649C8.01108 107.052 8.1525 107.9 7.64758 108.144C7.33302 108.296 6.99127 108.086 6.53892 107.445C6.49722 109.399 6.17451 110.339 5.51004 110.472C5.4629 110.481 5.41576 110.486 5.36862 110.486L5.36953 110.486ZM12.2626 76.9509C5.30789 84.444 4.19833 94.2287 4.49566 101.133C4.50472 101.35 4.50472 101.602 4.38416 101.843C3.97351 102.658 2.68265 105.439 3.31358 106.973C3.96354 108.554 4.9752 109.966 5.39401 109.884C5.45112 109.872 5.95151 109.693 5.94425 106.93C5.94425 106.728 6.07298 106.555 6.26697 106.501C6.46005 106.446 6.6613 106.525 6.76645 106.696C7.07738 107.205 7.27681 107.427 7.38378 107.523C7.42729 107.198 7.28951 106.373 7.18526 105.749C7.00577 104.674 6.80271 103.454 6.92237 102.496C8.71 88.2532 14.6902 84.1779 17.2438 82.4377C17.3889 82.3387 17.5239 82.2469 17.6454 82.1616C15.7762 80.2769 12.9978 77.5331 12.2617 76.95L12.2626 76.9509Z" fill="#12123D"/>
<path d="M15.3467 86.0191C15.5543 85.8121 15.741 85.6495 15.9006 85.5241C16.1508 85.3261 16.5215 85.4742 16.5732 85.7893C16.9059 87.852 17.6973 93.5349 15.0911 103.555C14.0504 107.557 34.6824 109.297 35.579 104.615C36.063 102.087 35.1792 102.99 35.433 97.3869C35.5998 93.7111 36.2833 90.7702 38.4009 86.5259C38.4073 86.5141 38.4118 86.5023 38.4163 86.4905C38.5097 86.248 39.651 83.4724 43.5145 82.0337C43.6024 82.001 43.6777 81.9411 43.7266 81.8611C44.1844 81.1164 46.5159 77.071 46.6039 71.7595C46.6066 71.5742 46.4869 71.408 46.3102 71.3526C45.1526 70.9866 40.853 69.6951 37.8507 69.7032C34.3525 69.7132 35.8246 70.2827 33.2565 69.824C32.9002 69.7605 31.768 69.1347 31.5106 68.9993C29.9224 68.1647 26.9871 70.2055 23.7926 69.4507C23.4182 69.3626 23.0284 69.4099 22.6803 69.5715C21.8237 69.9684 20.1031 70.676 18.349 70.8767C15.9849 71.1474 11.0499 73.4489 8.41466 78.9556C8.31041 79.1736 13.4267 84.5859 14.7412 86.0091C14.9034 86.1844 15.1772 86.1872 15.3467 86.0191Z" fill="#12123D"/>
<path d="M29.9603 69.1454L29.4209 65.1327C29.3874 64.862 29.5315 64.5995 29.7781 64.4833L31.1977 63.8139C31.5004 63.6713 31.6709 63.3434 31.6147 63.0128L31.2385 60.8003C31.2385 60.8003 31.2385 60.7931 31.2412 60.7912L31.8141 60.1727C31.9283 60.0501 31.9229 59.8585 31.8032 59.7413L30.5749 58.5469C30.3356 58.3144 29.6004 56.7931 29.2913 56.9157C29.2913 56.9157 23.351 56.8712 22.5342 59.6069C22.3175 60.3317 22.5324 61.1173 23.0355 61.6813L23.6782 62.4007C24.3454 63.1482 24.7606 64.1027 24.7832 65.1054C24.7914 65.4633 24.7551 65.823 24.6726 66.1781L23.729 69.9682C25.426 70.2035 27.1538 70.0518 28.7846 69.525L29.9594 69.1454H29.9603Z" fill="white"/>
<path d="M25.2789 70.375C24.7468 70.375 24.2147 70.3387 23.6889 70.266C23.6046 70.2542 23.5294 70.207 23.4813 70.1371C23.4333 70.0662 23.4179 69.979 23.4387 69.8964L24.3824 66.1062C24.4577 65.7838 24.4921 65.4486 24.4848 65.1135C24.4649 64.2143 24.0996 63.3233 23.456 62.6022L22.8133 61.8828C22.2258 61.2253 22.0092 60.3206 22.2476 59.5223C23.0897 56.7012 28.653 56.6177 29.2503 56.6168C29.661 56.5259 30.0163 57.109 30.4596 57.8357C30.5738 58.0237 30.7307 58.2798 30.7841 58.3334L32.0125 59.5277C32.2482 59.7566 32.2572 60.1381 32.0342 60.3788L31.5583 60.8919L31.91 62.9637C31.9889 63.4251 31.7478 63.8874 31.3253 64.0863L29.9057 64.7566C29.7761 64.8174 29.7009 64.9546 29.7181 65.0972L30.2566 69.1071C30.2756 69.2515 30.1895 69.3887 30.0517 69.4332L28.8769 69.8128C27.7193 70.187 26.4973 70.3768 25.278 70.3768L25.2789 70.375ZM24.1032 69.712C25.6425 69.8773 27.2216 69.7156 28.6938 69.2397L29.6302 68.9373L29.1243 65.1734C29.0745 64.7693 29.2866 64.3842 29.651 64.2125L31.0706 63.5431C31.251 63.4578 31.3534 63.2616 31.3199 63.0645L30.9437 60.852C30.9283 60.7602 30.9582 60.6567 31.0217 60.5886L31.5955 59.9701L30.3672 58.7639C30.2647 58.6649 30.1478 58.4751 29.9484 58.149C29.7861 57.8829 29.457 57.3443 29.2975 57.218C29.2948 57.218 29.292 57.218 29.2893 57.218C29.2349 57.2162 23.5647 57.2071 22.8214 59.6948C22.6419 60.2943 22.8105 60.98 23.2593 61.4832L23.902 62.2025C24.6408 63.03 25.0596 64.059 25.0831 65.1008C25.0922 65.4859 25.0523 65.8719 24.9644 66.2479L24.1014 69.7138L24.1032 69.712Z" fill="#12123D"/>
<path d="M25.6285 60.8056C25.73 60.6575 25.7001 60.4559 25.5578 60.346C25.2894 60.1398 24.9042 59.8038 24.8743 59.5586C24.8434 59.3097 24.9957 59.0963 25.0818 58.9736C25.5106 58.3687 26.3437 58.366 27.941 58.139C29.9235 57.8574 30.1546 57.8401 30.4601 57.5813C31.2343 56.9246 31.3712 55.6521 31.1038 54.7348C31.0285 54.4778 30.5952 53.1227 29.2164 52.8166C28.2202 52.5959 27.243 52.8565 26.5377 53.7157C26.3709 53.4805 26.0273 52.6086 25.1562 52.7357C22.8709 53.0709 22.1411 55.9283 22.0097 57.2507C21.813 57.2143 21.0814 57.1035 20.4768 57.5504C19.5776 58.2152 19.7462 59.5304 19.7643 59.6548C19.9728 61.1008 21.8574 62.3206 23.006 62.93C23.8318 63.3687 24.1055 63.4141 24.6068 63.5449C24.6558 63.4913 24.7165 63.425 24.78 63.3542C24.993 63.1207 24.9676 62.7547 24.7238 62.554L24.722 62.5522C24.4981 62.3678 24.3059 62.1453 24.1717 61.8873C24.0394 61.6339 23.9397 61.3296 24.0647 61.1226C24.2451 60.8256 24.7211 60.8192 24.79 60.8183C24.9232 60.8165 25.09 60.871 25.2251 60.9264C25.371 60.9863 25.5387 60.9337 25.6276 60.8038L25.6285 60.8056Z" fill="#12123D"/>
<path d="M165.985 90.3512C165.985 90.3512 167.105 94.2004 150.384 95.1377C133.663 96.075 136.46 91.3158 136.46 91.3158L154.015 86.1914L165.985 90.3512Z" fill="#A3A3FC"/>
<path d="M149.264 150.707L149.476 158.614L152.262 158.915L153.641 150.408L149.264 150.707Z" fill="white"/>
<path d="M152.264 159.216C152.253 159.216 152.242 159.216 152.231 159.214L149.444 158.913C149.295 158.896 149.181 158.773 149.177 158.622L148.965 150.717C148.96 150.556 149.084 150.42 149.244 150.409L153.622 150.108C153.712 150.101 153.802 150.138 153.864 150.205C153.925 150.273 153.953 150.365 153.938 150.456L152.559 158.964C152.536 159.111 152.409 159.216 152.264 159.216ZM149.769 158.343L152.013 158.587L153.285 150.733L149.571 150.988L149.769 158.343Z" fill="#12123D"/>
<path d="M133.45 153.303L133.005 159.6L136.688 159.902L138.002 153.303H133.45Z" fill="white"/>
<path d="M136.688 160.202C136.68 160.202 136.672 160.202 136.664 160.202L132.981 159.9C132.816 159.886 132.694 159.744 132.706 159.579L133.15 153.283C133.161 153.125 133.291 153.004 133.449 153.004H138.003C138.092 153.004 138.178 153.044 138.235 153.114C138.292 153.184 138.314 153.274 138.296 153.362L136.982 159.961C136.954 160.103 136.83 160.202 136.688 160.202ZM133.325 159.325L136.446 159.581L137.637 153.604H133.729L133.325 159.325Z" fill="#12123D"/>
<path d="M137.672 162.615C137.928 162.445 138.083 162.158 138.091 161.85C138.116 160.926 138.118 158.958 137.747 158.219C137.254 157.238 135.218 158.606 135.218 158.606C135.218 158.606 134.025 156.951 133.328 156.603C132.968 156.423 130.854 157.833 128.723 159.754C126.389 161.859 125.335 162.531 124.832 164.347C124.595 165.199 125.22 166.055 126.1 166.119C128.244 166.272 132.571 166.015 137.673 162.616L137.672 162.615Z" fill="#FFCB03"/>
<path d="M127.043 166.451C126.685 166.451 126.362 166.438 126.078 166.418C125.561 166.381 125.093 166.115 124.793 165.688C124.499 165.271 124.407 164.752 124.542 164.266C124.99 162.651 125.833 161.908 127.512 160.429C127.819 160.158 128.155 159.862 128.522 159.53C128.563 159.494 132.574 155.892 133.462 156.333C134.065 156.634 134.925 157.715 135.294 158.203C135.753 157.93 136.734 157.423 137.42 157.603C137.687 157.673 137.893 157.839 138.015 158.084C138.408 158.866 138.42 160.784 138.392 161.858C138.381 162.265 138.175 162.641 137.84 162.865C133.337 165.866 129.417 166.451 127.044 166.451H127.043ZM133.227 156.888C132.863 156.929 131.13 157.986 128.924 159.976C128.554 160.31 128.217 160.607 127.908 160.879C126.268 162.324 125.52 162.984 125.12 164.427C125.034 164.739 125.093 165.073 125.283 165.342C125.479 165.621 125.784 165.795 126.122 165.818C128.214 165.968 132.474 165.718 137.507 162.364C137.68 162.249 137.787 162.054 137.793 161.842C137.837 160.135 137.72 158.832 137.48 158.353C137.435 158.263 137.369 158.21 137.269 158.183C136.807 158.062 135.868 158.53 135.385 158.854C135.251 158.944 135.07 158.912 134.975 158.78C134.663 158.346 133.752 157.178 133.229 156.887L133.227 156.888Z" fill="#12123D"/>
<path d="M128.109 164.765C126.788 164.765 125.939 164.575 125.849 164.554C125.688 164.517 125.588 164.355 125.625 164.193C125.662 164.032 125.823 163.932 125.985 163.969C126.041 163.983 131.718 165.235 137.128 160.909C137.258 160.806 137.447 160.827 137.55 160.956C137.653 161.086 137.632 161.275 137.503 161.379C133.95 164.219 130.351 164.765 128.11 164.765H128.109Z" fill="#12123D"/>
<path d="M148.163 160.536L148.204 156.207C148.204 156.207 149.071 154.894 150.258 155.961C150.258 155.961 151.356 154.418 153.395 156.342C153.395 156.342 156.263 161.698 157.532 164.884C157.872 165.737 157.264 166.671 156.348 166.693C155.032 166.724 153.329 166.653 152.588 166.151C151.429 165.366 149.445 162.891 148.58 161.776C148.306 161.421 148.159 160.985 148.163 160.536Z" fill="#FFCB03"/>
<path d="M155.822 167C154.152 167 153.009 166.798 152.419 166.4C151.259 165.614 149.368 163.281 148.343 161.96C148.028 161.554 147.858 161.047 147.862 160.533L147.903 156.204C147.903 156.146 147.921 156.09 147.953 156.042C147.971 156.014 148.418 155.349 149.149 155.254C149.516 155.207 149.878 155.308 150.228 155.555C150.435 155.37 150.789 155.134 151.285 155.085C152.012 155.013 152.792 155.363 153.599 156.123C153.622 156.145 153.642 156.171 153.658 156.199C153.687 156.253 156.549 161.607 157.809 164.772C158.006 165.266 157.949 165.827 157.657 166.271C157.363 166.718 156.888 166.981 156.355 166.993C156.171 166.997 155.994 166.999 155.822 166.999V167ZM148.462 160.539C148.459 160.918 148.585 161.293 148.817 161.591C149.624 162.632 151.623 165.134 152.756 165.902C153.284 166.26 154.561 166.434 156.341 166.393C156.675 166.385 156.973 166.221 157.158 165.94C157.344 165.657 157.38 165.312 157.254 164.995C156.065 162.012 153.429 157.045 153.154 156.527C152.497 155.917 151.892 155.632 151.355 155.681C150.806 155.731 150.513 156.121 150.501 156.137C150.451 156.205 150.373 156.25 150.29 156.259C150.205 156.268 150.121 156.242 150.059 156.185C149.773 155.928 149.492 155.815 149.228 155.849C148.877 155.895 148.609 156.179 148.504 156.308L148.464 160.538L148.462 160.539Z" fill="#12123D"/>
<path d="M150.256 158.596C150.09 158.596 149.957 158.461 149.957 158.295V155.962C149.958 155.796 150.092 155.662 150.258 155.662C150.424 155.662 150.557 155.797 150.557 155.963V158.296C150.556 158.462 150.422 158.596 150.256 158.596Z" fill="#12123D"/>
<path d="M132.332 153.661C132.332 153.661 131.281 137.766 133.005 123.468C134.729 109.17 141.143 88.7537 141.143 88.7537C141.143 88.7537 148.043 88.4404 153.066 89.1161C158.089 89.7927 160.077 89.097 160.077 89.097C160.077 89.097 163.827 93.3985 163.521 101.487C163.214 109.574 154.465 143.689 154.797 151.695C154.797 151.695 151.854 153.176 148.042 152.441L149.622 106.465C149.622 106.465 146.353 115.93 144.82 122.414C143.569 127.7 141.398 131.119 141.398 131.119C141.398 131.119 141.491 143.407 138.676 153.606C138.676 153.606 135.351 154.649 132.332 153.663V153.661Z" fill="#12123D"/>
<path d="M137.849 136.692C137.79 136.692 137.731 136.675 137.68 136.64C137.544 136.546 137.508 136.359 137.603 136.222L140.012 132.709C140.106 132.571 140.292 132.537 140.429 132.631C140.565 132.725 140.601 132.912 140.506 133.049L138.097 136.562C138.039 136.647 137.944 136.692 137.849 136.692Z" fill="white"/>
<path d="M154.052 128.15C153.249 128.15 152.652 128.002 152.602 127.99C152.441 127.949 152.344 127.785 152.385 127.624C152.426 127.464 152.59 127.367 152.75 127.407C152.772 127.413 155.01 127.962 156.534 126.83C156.668 126.731 156.855 126.759 156.954 126.892C157.053 127.026 157.025 127.214 156.892 127.313C155.988 127.985 154.904 128.151 154.053 128.151L154.052 128.15Z" fill="white"/>
<path d="M142.593 75.6871C142.593 75.6871 138.723 84.41 132.412 86.1911C126.101 87.9731 121.706 82.589 121.735 77.0304L123.879 76.3175C123.879 76.3175 126.08 82.014 130.991 80.5318C135.901 79.0495 138.179 67.4629 138.179 67.4629L142.593 75.6871Z" fill="white"/>
<path d="M129.988 86.8434C127.883 86.8434 126.296 86.0323 125.239 85.2258C122.876 83.4229 121.417 80.2821 121.435 77.0288C121.435 76.8998 121.518 76.7854 121.64 76.7454L123.785 76.0324C123.937 75.9825 124.102 76.0597 124.159 76.2086C124.245 76.4302 126.32 81.6273 130.904 80.244C135.587 78.8298 137.862 67.5184 137.885 67.4049C137.91 67.2805 138.009 67.1851 138.134 67.166C138.261 67.147 138.383 67.2087 138.443 67.3204L142.857 75.5447C142.901 75.6264 142.905 75.7245 142.867 75.809C142.707 76.1705 138.867 84.6808 132.494 86.4801C131.59 86.7353 130.754 86.8425 129.988 86.8425V86.8434ZM122.036 77.2468C122.084 80.2376 123.438 83.0959 125.603 84.7471C126.936 85.7644 129.186 86.7898 132.331 85.9015C138.017 84.2966 141.743 76.7881 142.258 75.6964L138.3 68.3213C137.677 71.0143 135.389 79.5183 131.078 80.8198C130.484 80.9988 129.928 81.0787 129.408 81.0787C126.002 81.0787 124.172 77.6736 123.715 76.69L122.036 77.2477V77.2468Z" fill="#12123D"/>
<path d="M165.986 67.2706C165.986 67.2706 162.105 62.1962 151.142 63.1444C138.05 64.2761 137.052 66.8683 137.052 66.8683L140.469 73.8064L136.459 91.3167C136.459 91.3167 139.199 93.591 145.618 92.314C152.037 91.037 163.068 89.4702 165.984 90.353L161.917 73.6448L165.985 67.2725L165.986 67.2706Z" fill="#FFCB03"/>
<path d="M123.883 83.6764H140.75L129.688 63.6104H112.821L123.883 83.6764Z" fill="#12123D"/>
<path d="M140.919 83.7766H123.824L112.651 63.5098H129.746L140.919 83.7766ZM123.942 83.5768H140.58L129.628 63.7105H112.99L123.943 83.5768H123.942Z" fill="#12123D"/>
<path d="M123.497 83.0436C123.497 83.0436 123.814 81.3796 123.497 80.2698C123.179 79.1599 121.215 75.8574 120.653 75.1672C120.091 74.476 119.615 81.8538 123.497 83.0445V83.0436Z" fill="white"/>
<path d="M123.496 83.344C123.467 83.344 123.437 83.3394 123.408 83.3304C120.998 82.591 120.058 79.5965 119.982 77.0398C119.959 76.2932 119.991 75.0153 120.451 74.8436C120.572 74.7982 120.749 74.81 120.885 74.9771C121.483 75.7137 123.463 79.0616 123.785 80.1869C124.117 81.3522 123.805 83.0288 123.791 83.0997C123.775 83.1832 123.724 83.2568 123.651 83.3004C123.604 83.3285 123.551 83.3431 123.496 83.3431V83.344ZM120.652 75.6719C120.525 76.4222 120.494 78.2677 121.114 80.0107C121.588 81.3422 122.307 82.2232 123.256 82.6355C123.327 82.1051 123.418 81.0852 123.208 80.3522C122.942 79.4221 121.387 76.7391 120.652 75.6719Z" fill="#12123D"/>
<path d="M158.791 78.733L145.805 72.4615L139.057 73.6577C139.057 73.6577 139.529 74.3616 140.488 74.1972C141.447 74.0328 142.723 74.3071 143.526 75.1926C144.329 76.0782 145.683 75.515 145.683 75.515C145.683 75.515 153.029 84.9709 159.624 86.1907C164.986 87.1825 165.576 67.9111 165.576 67.9111L159.126 73.6422L158.791 78.7321V78.733Z" fill="white"/>
<path d="M160.02 86.5293C159.872 86.5293 159.722 86.5157 159.57 86.4875C153.346 85.3367 146.632 77.1897 145.579 75.8691C145.118 76.0053 144.038 76.2061 143.303 75.3968C142.557 74.5748 141.376 74.3514 140.538 74.4949C139.402 74.6893 138.831 73.8619 138.808 73.8264C138.752 73.742 138.741 73.6348 138.781 73.5412C138.821 73.4477 138.905 73.3805 139.005 73.3632L145.753 72.167C145.815 72.1561 145.879 72.1652 145.935 72.1925L158.522 78.2705L158.827 73.6239C158.833 73.5449 158.868 73.4713 158.928 73.4186L165.378 67.6875C165.468 67.6076 165.596 67.5894 165.705 67.6403C165.814 67.6912 165.881 67.802 165.877 67.9219C165.859 68.5313 165.377 82.8799 161.597 85.9344C161.108 86.3304 160.578 86.5293 160.021 86.5293H160.02ZM145.683 75.2161C145.773 75.2161 145.861 75.2569 145.919 75.3323C145.992 75.4259 153.272 84.7128 159.678 85.8971C160.231 85.9989 160.735 85.859 161.219 85.4675C164.331 82.9526 165.098 71.5676 165.246 68.6076L159.416 73.7874L159.09 78.7546C159.084 78.8545 159.028 78.9444 158.942 78.9944C158.856 79.0444 158.75 79.0489 158.661 79.0053L145.762 72.7765L139.766 73.8391C139.94 73.91 140.163 73.95 140.438 73.9036C141.439 73.732 142.849 74.0026 143.747 74.9935C144.401 75.7147 145.556 75.2451 145.568 75.2406C145.605 75.2251 145.644 75.2179 145.683 75.2179V75.2161Z" fill="#12123D"/>
<path d="M152.434 58.7476C153.293 59.2844 154.209 59.2262 154.652 59.1972C155.577 59.1372 159.455 58.5133 161.407 55.0592C163.318 51.6768 162.575 47.0102 160.928 46.3844C159.746 45.9348 158.404 47.6841 156.617 46.9757C155.826 46.6623 155.906 46.2464 155.065 45.9139C153.648 45.3535 152.128 46.0211 150.969 46.5497C148.851 47.5134 149.058 48.1128 147.209 49.0283C144.578 50.3326 142.802 49.7904 142.452 50.8067C142.173 51.6169 143.011 52.8003 143.927 53.3934C145.821 54.6205 147.46 52.8775 148.969 54.0628C149.906 54.7985 150.067 56.0519 151.655 58.0346C151.782 58.1935 152.026 58.4915 152.434 58.7467V58.7476Z" fill="#12123D"/>
<path d="M150.537 61.4307C150.558 61.1265 150.577 60.7895 150.589 60.4398C150.017 60.8358 149.368 61.0211 148.932 60.8921C148.394 60.7332 148.194 60.2318 147.866 59.6515C147.728 59.409 147.589 59.1219 147.26 58.9158C147.086 58.8068 146.904 58.7496 146.736 58.7205C146.529 58.6851 146.382 58.498 146.391 58.2882L146.416 58.1592C146.608 57.1429 146.6 56.0993 146.391 55.0857L145.979 53.0857C146.973 52.4163 147.385 52.4036 147.57 52.5444C147.638 52.5961 147.728 52.6206 147.792 52.9285C148.095 54.4154 149.392 53.973 150.446 53.4572C151.5 52.9422 151.558 55.0947 151.558 55.0947C151.558 55.0947 152.055 54.0502 152.991 54.6588C153.663 55.0956 152.789 56.24 152.24 56.8531L153.61 61.0429C153.971 62.1455 154.928 62.9457 156.075 63.1046L157.808 63.3444C157.808 63.3444 151.433 65.2409 146.302 63.8867L149.14 63.1292C149.92 62.9212 150.481 62.2382 150.536 61.4307H150.537Z" fill="white"/>
<path d="M150.498 64.6784C149.086 64.6784 147.617 64.5431 146.226 64.1762C146.095 64.1416 146.003 64.0227 146.002 63.8864C146.002 63.7502 146.094 63.6312 146.225 63.5958L149.063 62.8383C149.718 62.663 150.19 62.089 150.237 61.4096C150.247 61.2625 150.256 61.1171 150.265 60.9727C149.752 61.2161 149.238 61.2952 148.846 61.1789C148.265 61.0072 148.007 60.534 147.734 60.0336C147.692 59.9573 147.649 59.8792 147.604 59.7993L147.566 59.7311C147.447 59.5177 147.334 59.317 147.101 59.1708C146.98 59.0954 146.84 59.0436 146.685 59.0173C146.33 58.9573 146.076 58.6385 146.091 58.2761C146.091 58.2616 146.094 58.2471 146.096 58.2334L146.121 58.1045C146.307 57.1217 146.299 56.1272 146.097 55.1472L145.686 53.1472C145.661 53.0282 145.711 52.9056 145.812 52.8375C146.779 52.1863 147.376 52.0228 147.751 52.3053C147.909 52.4133 148.018 52.545 148.084 52.8684C148.16 53.2362 148.299 53.466 148.511 53.5705C148.966 53.7948 149.758 53.4596 150.314 53.1872C150.695 53.0001 150.979 53.0854 151.15 53.189C151.519 53.4133 151.696 53.9338 151.78 54.3797C151.882 54.308 152.001 54.2462 152.136 54.208C152.465 54.1145 152.807 54.1817 153.154 54.407C153.365 54.5441 153.493 54.7457 153.525 54.9891C153.589 55.4705 153.271 56.1199 152.577 56.9228L153.895 60.9491C154.218 61.9355 155.09 62.6648 156.116 62.8065L157.848 63.0463C157.988 63.0654 158.096 63.1798 158.107 63.3215C158.118 63.4623 158.029 63.5921 157.893 63.6321C157.701 63.6893 154.316 64.6784 150.497 64.6784H150.498ZM147.592 63.8528C150.797 64.3796 154.273 63.8374 156.207 63.4259L156.034 63.4023C154.783 63.2288 153.719 62.3397 153.326 61.1371L151.955 56.9473C151.922 56.8456 151.945 56.733 152.017 56.6531C152.631 55.9673 152.972 55.3752 152.932 55.0682C152.922 54.9982 152.893 54.9528 152.828 54.911C152.63 54.7821 152.457 54.7412 152.299 54.7866C152.009 54.8683 151.83 55.2208 151.828 55.2244C151.768 55.3497 151.63 55.4169 151.496 55.3888C151.36 55.3597 151.262 55.2416 151.258 55.1036C151.245 54.6331 151.102 53.8629 150.84 53.7031C150.814 53.6876 150.745 53.6458 150.577 53.7276C149.851 54.0827 148.93 54.4469 148.247 54.11C147.863 53.921 147.611 53.5432 147.498 52.9892C147.471 52.8566 147.445 52.823 147.444 52.823C147.44 52.8193 147.434 52.8157 147.427 52.8121C147.415 52.803 147.402 52.7948 147.389 52.7848C147.387 52.7839 147.186 52.6676 146.314 53.2262L146.684 55.0264C146.901 56.0827 146.91 57.1562 146.709 58.2162L146.69 58.3179C146.695 58.3724 146.733 58.4169 146.785 58.426C147.017 58.465 147.231 58.545 147.418 58.663C147.782 58.891 147.952 59.1953 148.089 59.4396L148.125 59.505C148.172 59.5876 148.217 59.6694 148.26 59.7484C148.524 60.2307 148.689 60.5086 149.016 60.6058C149.355 60.7057 149.918 60.5404 150.418 60.1944C150.511 60.1299 150.633 60.1235 150.731 60.178C150.831 60.2325 150.891 60.3379 150.887 60.4514C150.876 60.7729 150.859 61.1099 150.836 61.4532C150.771 62.3887 150.12 63.1798 149.217 63.4205L147.591 63.8546L147.592 63.8528Z" fill="#12123D"/>
<path d="M150.589 60.7392C150.487 60.7392 150.389 60.6883 150.332 60.5948C150.246 60.4531 150.29 60.2687 150.432 60.1824C151.398 59.5929 151.526 57.9254 151.527 57.9081C151.539 57.7428 151.683 57.6166 151.847 57.6293C152.012 57.6411 152.136 57.7846 152.125 57.9499C152.12 58.0307 151.971 59.9454 150.744 60.6947C150.695 60.7246 150.641 60.7383 150.588 60.7383L150.589 60.7392Z" fill="#12123D"/>
</g>
<defs>
<clipPath id="clip0_95_16799">
<rect width="166" height="167" fill="white"/>
</clipPath>
</defs>
</svg>
