<svg width="16" height="17" viewBox="0 0 16 17" fill="none" xmlns="http://www.w3.org/2000/svg">
<path d="M14.1274 7.66118C14.5032 8.16623 14.5032 8.83377 14.1274 9.33882C13.2546 10.5118 11.29 12.5 7.99992 12.5C4.70982 12.5 2.7452 10.5118 1.87244 9.33882C1.49665 8.83377 1.49665 8.16623 1.87244 7.66118C2.7452 6.48822 4.70982 4.5 7.99992 4.5C11.29 4.5 13.2546 6.48822 14.1274 7.66118Z" fill="#7181AA" fill-opacity="0.6"/>
<path d="M8 10.5C9.10457 10.5 10 9.60457 10 8.5C10 7.39543 9.10457 6.5 8 6.5C6.89543 6.5 6 7.39543 6 8.5C6 9.60457 6.89543 10.5 8 10.5Z" stroke="white" stroke-linecap="round" stroke-linejoin="round"/>
</svg>
