<svg width="540" height="432" viewBox="0 0 540 432" fill="none" xmlns="http://www.w3.org/2000/svg">
<g opacity="0.7">
<rect width="540" height="432" fill="white"/>
<rect width="540" height="432" stroke="#A7A4A4"/>
<path opacity="0.946" fill-rule="evenodd" clip-rule="evenodd" d="M337.632 48.0413C339.45 47.9303 341.254 48.043 343.044 48.3793C394.912 79.0259 446.779 109.673 498.647 140.319C499.07 140.826 499.409 141.39 499.662 142.009C500.113 155.755 500.113 169.501 499.662 183.247C499.323 184.486 498.534 185.275 497.294 185.613C493.015 185.951 488.73 186.063 484.44 185.951C484.553 193.166 484.44 200.377 484.101 207.584C483.538 209.049 482.523 210.063 481.057 210.626C479.04 210.963 477.01 211.076 474.968 210.964C474.968 233.048 474.968 255.131 474.968 277.215C478.766 276.481 481.811 277.607 484.101 280.595C484.44 299.298 484.553 318.001 484.44 336.706C488.505 336.594 492.564 336.707 496.617 337.044C498.378 337.676 499.392 338.915 499.662 340.762C500.113 353.156 500.113 365.55 499.662 377.944C499.392 379.791 498.378 381.03 496.617 381.662C392.206 382.113 287.794 382.113 183.383 381.662C182.593 380.873 181.804 380.085 181.015 379.296C180.564 366 180.564 352.705 181.015 339.41C181.353 338.171 182.142 337.382 183.383 337.044C187.436 336.707 191.495 336.594 195.56 336.706C195.448 318.452 195.56 300.199 195.899 281.947C196.133 280.36 196.922 279.121 198.266 278.229C200.449 277.419 202.704 277.081 205.032 277.215C205.032 255.131 205.032 233.048 205.032 210.964C200.912 211.886 197.868 210.534 195.899 206.908C195.56 199.926 195.448 192.941 195.56 185.951C191.27 186.063 186.985 185.951 182.706 185.613C181.658 184.793 180.869 183.779 180.338 182.571C179.887 169.276 179.887 155.981 180.338 142.685C180.869 141.478 181.658 140.464 182.706 139.643C234.463 109.202 286.105 78.6676 337.632 48.0413ZM339.662 60.2098C389.141 89.1009 438.528 118.17 487.822 147.418C488.724 154.854 488.724 162.29 487.822 169.727C441.142 142.122 394.461 114.517 347.78 86.913C343.737 83.5976 339.452 83.1469 334.926 85.5609C287.23 113.841 239.535 142.122 191.839 170.403C191.388 162.966 191.388 155.53 191.839 148.094C241.212 118.866 290.487 89.5719 339.662 60.2098ZM339.662 96.0394C384.213 122.408 428.864 148.661 473.615 174.797C384.764 175.248 295.912 175.248 207.061 174.797C251.416 148.697 295.616 122.444 339.662 96.0394ZM207.061 185.951C222.847 185.951 238.633 185.951 254.419 185.951C254.419 190.458 254.419 194.965 254.419 199.472C238.633 199.472 222.847 199.472 207.061 199.472C207.061 194.965 207.061 190.458 207.061 185.951ZM265.92 185.951C278.999 185.951 292.079 185.951 305.159 185.951C305.046 193.166 305.159 200.377 305.497 207.584C306.06 209.049 307.075 210.063 308.541 210.626C310.559 210.963 312.588 211.076 314.63 210.964C314.63 233.048 314.63 255.131 314.63 277.215C310.51 276.294 307.465 277.646 305.497 281.271C305.159 288.253 305.046 295.239 305.159 302.228C292.079 302.228 278.999 302.228 265.92 302.228C266.211 294.739 265.873 287.303 264.905 279.919C262.575 277.632 259.756 276.731 256.448 277.215C256.448 255.131 256.448 233.048 256.448 210.964C260.568 211.886 263.613 210.534 265.581 206.908C265.92 199.926 266.032 192.941 265.92 185.951ZM316.66 185.951C332.22 185.951 347.78 185.951 363.34 185.951C363.34 190.458 363.34 194.965 363.34 199.472C347.78 199.472 332.22 199.472 316.66 199.472C316.66 194.965 316.66 190.458 316.66 185.951ZM374.841 185.951C388.147 185.951 401.451 185.951 414.757 185.951C414.644 193.166 414.757 200.377 415.095 207.584C415.659 209.049 416.673 210.063 418.139 210.626C420.157 210.963 422.186 211.076 424.228 210.964C424.228 233.048 424.228 255.131 424.228 277.215C420.4 276.479 417.356 277.606 415.095 280.595C414.757 287.803 414.644 295.014 414.757 302.228C401.451 302.228 388.147 302.228 374.841 302.228C374.954 295.014 374.841 287.803 374.503 280.595C374.188 279.628 373.624 278.84 372.812 278.229C370.403 277.393 367.922 277.055 365.37 277.215C365.37 255.131 365.37 233.048 365.37 210.964C368.932 211.592 371.976 210.691 374.503 208.26C374.841 200.827 374.954 193.391 374.841 185.951ZM426.258 185.951C441.818 185.951 457.378 185.951 472.939 185.951C472.939 190.458 472.939 194.965 472.939 199.472C457.378 199.472 441.818 199.472 426.258 199.472C426.258 194.965 426.258 190.458 426.258 185.951ZM216.533 210.964C226.004 210.964 235.476 210.964 244.947 210.964C244.947 233.048 244.947 255.131 244.947 277.215C235.476 277.215 226.004 277.215 216.533 277.215C216.533 255.131 216.533 233.048 216.533 210.964ZM326.131 210.964C335.377 210.964 344.623 210.964 353.869 210.964C353.869 233.048 353.869 255.131 353.869 277.215C344.623 277.215 335.377 277.215 326.131 277.215C326.131 255.131 326.131 233.048 326.131 210.964ZM435.729 210.964C444.975 210.964 454.221 210.964 463.467 210.964C463.467 233.048 463.467 255.131 463.467 277.215C454.221 277.215 444.975 277.215 435.729 277.215C435.729 255.131 435.729 233.048 435.729 210.964ZM207.061 288.708C222.847 288.708 238.633 288.708 254.419 288.708C254.419 293.215 254.419 297.721 254.419 302.228C238.633 302.228 222.847 302.228 207.061 302.228C207.061 297.721 207.061 293.215 207.061 288.708ZM316.66 288.708C332.22 288.708 347.78 288.708 363.34 288.708C363.34 293.215 363.34 297.721 363.34 302.228C347.78 302.228 332.22 302.228 316.66 302.228C316.66 297.721 316.66 293.215 316.66 288.708ZM426.258 288.708C441.818 288.708 457.378 288.708 472.939 288.708C472.939 293.215 472.939 297.721 472.939 302.228C457.378 302.228 441.818 302.228 426.258 302.228C426.258 297.721 426.258 293.215 426.258 288.708ZM207.061 313.721C295.687 313.721 384.313 313.721 472.939 313.721C472.939 321.382 472.939 329.044 472.939 336.706C384.313 336.706 295.687 336.706 207.061 336.706C207.061 329.044 207.061 321.382 207.061 313.721ZM192.178 348.198C290.951 348.198 389.725 348.198 488.499 348.198C488.499 355.635 488.499 363.071 488.499 370.507C389.725 370.507 290.951 370.507 192.178 370.507C192.178 363.071 192.178 355.635 192.178 348.198Z" fill="#C0C0C0" fill-opacity="0.1"/>
</g>
</svg>
