<svg width="289" height="282" fill="none" xmlns="http://www.w3.org/2000/svg"><path d="M144.136 281.604c79.604 0 144.136-35.877 144.136-80.134s-64.532-80.134-144.136-80.134S0 157.213 0 201.47s64.532 80.134 144.136 80.134Z" fill="#F5F5F5"/><path d="m270.118 126.166-1.264.747-42.858-24.745 1.258-.748 42.864 24.746Z" fill="#FAFAFA"/><path d="m227.254 101.42 41.601 24.016V29.592L227.254 5.588v95.832Z" fill="#fff"/><path d="m223.617 103.544 47.616 27.486V28.222L223.617.706v102.838Zm2.373-98.697 42.864 24.745v97.297l-42.858-24.733-.006-97.31Z" fill="#F0F0F0"/><path d="m225.996 102.168 1.258-.748V5.589l-1.258-.742v97.321Z" fill="#E0E0E0"/><path d="M268.854 92.088v1.477L225.996 68.82l1.258-.748 41.6 24.016Zm0-33.36v1.477L225.996 35.46l1.258-.754 41.6 24.022ZM223.617.73l1.282-.73 47.616 27.486-1.282.736L223.617.73Z" fill="#FAFAFA"/><path d="m272.515 27.486-1.282.736v102.815l1.282-.736V27.486Zm-21.993-8.477-1.275-.736V115.6l1.275-.736V19.009Z" fill="#E0E0E0"/><path d="m246.868 16.902 2.379 1.37V115.6l-2.379-1.383V16.902Z" fill="#F0F0F0"/><path d="M223.617 34.09v2.74l47.616 27.493v-2.747l-47.616-27.487Zm0 33.353v2.741l47.616 27.493v-2.741l-47.616-27.493Z" fill="#F0F0F0"/><path d="m249.247 48.88 1.275-.736 18.332 10.584v1.477L249.247 48.88Zm0 33.348 1.275-.736 18.332 10.584v1.478l-19.607-11.326Zm-192.47-38.96 1.074.64L79.82 31.224l-1.068-.64-21.975 12.684Z" fill="#FAFAFA"/><path d="M78.752 30.583 57.85 42.645V20.266l20.9-12.055v22.372Z" fill="#fff"/><path d="M81.843 4.082 55.828 19.098v28.305l26.015-15.016V4.082ZM79.82 31.224 57.827 43.91V20.284L79.778 7.6l.042 23.624Z" fill="#F0F0F0"/><path d="m79.82 31.224-1.069-.64V8.21l1.068-.629v23.642Z" fill="#E0E0E0"/><path d="m81.843 4.088-1.092-.623L54.74 18.48l1.086.623L81.843 4.088Z" fill="#FAFAFA"/><path d="m54.742 18.48 1.085.623V47.41l-1.085-.623V18.48Z" fill="#E0E0E0"/><path d="m77.933 29.93-19.27 11.125v-4.046l4.818-11.124 3.002 2.782-1.08 4.663 6.657-14.226 5.873 6.78v4.047ZM66.305 19.377a3.155 3.155 0 0 0-1.43 2.474c0 .907.64 1.275 1.43.818a3.158 3.158 0 0 0 1.424-2.468c0-.907-.641-1.275-1.424-.824Z" fill="#F0F0F0"/><path d="m20.955 63.949 1.073.64 21.97-12.684-1.069-.64-21.974 12.684Z" fill="#FAFAFA"/><path d="M42.93 51.264 22.027 63.326V40.947L42.93 28.892v22.372Z" fill="#fff"/><path d="M46.02 24.763 20.005 39.785v28.3L46.02 53.067V24.763ZM43.997 51.9l-21.95 12.69V40.948l21.95-12.684V51.9Z" fill="#F0F0F0"/><path d="m43.998 51.905-1.068-.64V28.891l1.068-.629v23.642Z" fill="#E0E0E0"/><path d="m46.014 24.763-1.085-.623-26.01 15.022 1.086.617 26.01-15.016Z" fill="#FAFAFA"/><path d="m18.92 39.162 1.085.617v28.305l-1.086-.623v-28.3Z" fill="#E0E0E0"/><path d="M42.11 50.612 22.842 61.736V57.69l4.818-11.124 3.002 2.782-1.08 4.663 6.656-14.232 5.874 6.787v4.046ZM30.477 40.057a3.162 3.162 0 0 0-1.424 2.468c0 .908.64 1.282 1.424.825a3.156 3.156 0 0 0 1.43-2.468c0-.908-.641-1.276-1.43-.825Z" fill="#F0F0F0"/><path d="M120.174 270.978a14.243 14.243 0 0 1-7.036-1.78l-88.321-51.022c-3.02-1.744-4.823-4.669-4.823-7.825 0-3.156 1.78-6.087 4.823-7.831l137.776-79.517a14.833 14.833 0 0 1 14.073 0l88.321 51.022c3.025 1.744 4.829 4.669 4.829 7.825 0 3.156-1.78 6.087-4.829 7.831L127.24 269.204a14.246 14.246 0 0 1-7.066 1.774ZM17.923 233.537c-6.864 3.963-6.864 10.394 0 14.357 6.864 3.963 18 3.963 24.87 0 6.87-3.963 6.864-10.388 0-14.357-6.864-3.969-18-3.964-24.87 0Z" fill="#E0E0E0"/><path d="m251.548 170.329-4.295-2.48s-2.557-10.619-1.536-20.171c1.429-13.438 10.275-18.492 13.645-17.33 3.37 1.163 4.337 5.067-1.222 13.052-3.299 4.735-7.327 14.565-6.592 26.929Z" fill="#7A6BDE"/><path d="m251.548 170.329-4.295-2.48s-2.557-10.619-1.536-20.171c1.429-13.438 10.275-18.492 13.645-17.33 3.37 1.163 4.337 5.067-1.222 13.052-3.299 4.735-7.327 14.565-6.592 26.929Z" fill="#fff" opacity=".65"/><path d="M249.769 165.115h.041a.3.3 0 0 0 .19-.127.298.298 0 0 0 .048-.223c-2.373-12.388 1.975-26.312 7.333-32.102a.29.29 0 0 0 .09-.211.281.281 0 0 0-.024-.114.3.3 0 0 0-.391-.161.3.3 0 0 0-.097.065c-5.458 5.903-9.866 20.052-7.481 32.63a.304.304 0 0 0 .291.243Z" fill="#fff"/><path d="M262.352 176.571c.641.326 2.373-1.134 2.824-1.49a5.98 5.98 0 0 0 1.863-2.373 5.567 5.567 0 0 0 .326-3.375c-.127-.605-.297-1.2-.51-1.78l-.593-1.703a4.383 4.383 0 0 1-.338-1.732c.089-1.187 1.097-2.071 2.017-2.83 1.014-.843 2.059-1.94 1.982-3.364a5.031 5.031 0 0 0-1.407-2.919c-.723-.825-1.566-1.548-2.23-2.426a3.472 3.472 0 0 1-.825-2.172c.038-.492.177-.971.409-1.406.536-.909.994-1.862 1.371-2.848.297-1.014.19-2.248-.623-2.919a3.251 3.251 0 0 0-2.48-.486 5.61 5.61 0 0 0-2.225.937c-2.195 1.371-3.352 4.112-5.701 5.197-.936.346-1.893.631-2.866.855a3.599 3.599 0 0 0-2.307 1.78c-.795 1.779.949 3.886.427 5.784-.469 1.679-2.041 2.373-2.866 3.922a3.488 3.488 0 0 0-.308 2.183 10.314 10.314 0 0 0 1.091 3.607 33.064 33.064 0 0 0 2.172 3.334l10.797 6.224Z" fill="#7A6BDE"/><path d="M262.352 176.571c.641.326 2.373-1.134 2.824-1.49a5.98 5.98 0 0 0 1.863-2.373 5.567 5.567 0 0 0 .326-3.375c-.127-.605-.297-1.2-.51-1.78l-.593-1.703a4.383 4.383 0 0 1-.338-1.732c.089-1.187 1.097-2.071 2.017-2.83 1.014-.843 2.059-1.94 1.982-3.364a5.031 5.031 0 0 0-1.407-2.919c-.723-.825-1.566-1.548-2.23-2.426a3.472 3.472 0 0 1-.825-2.172c.038-.492.177-.971.409-1.406.536-.909.994-1.862 1.371-2.848.297-1.014.19-2.248-.623-2.919a3.251 3.251 0 0 0-2.48-.486 5.61 5.61 0 0 0-2.225.937c-2.195 1.371-3.352 4.112-5.701 5.197-.936.346-1.893.631-2.866.855a3.599 3.599 0 0 0-2.307 1.78c-.795 1.779.949 3.886.427 5.784-.469 1.679-2.041 2.373-2.866 3.922a3.488 3.488 0 0 0-.308 2.183 10.314 10.314 0 0 0 1.091 3.607 33.064 33.064 0 0 0 2.172 3.334l10.797 6.224Z" fill="#fff" opacity=".3"/><path d="M256.141 173.349a.291.291 0 0 0 .261-.308c-1.033-11.148 3.607-23.731 7.256-27.516a.28.28 0 0 0-.199-.479.285.285 0 0 0-.199.081c-3.72 3.851-8.46 16.659-7.416 27.961a.283.283 0 0 0 .297.261Z" fill="#fff"/><path d="M257.244 159.591h.083a37.312 37.312 0 0 1 8.039-1.715.29.29 0 0 0 .226-.416.269.269 0 0 0-.168-.139.264.264 0 0 0-.112-.009c-2.769.282-5.5.863-8.145 1.733a.277.277 0 0 0-.172.356.292.292 0 0 0 .249.19Z" fill="#fff"/><path d="M24.307 206.442c0 2.254 1.69 5.06 3.773 6.265l88.321 51.021a8.301 8.301 0 0 0 7.546 0l137.782-79.57c2.083-1.186 3.774-4.01 3.774-6.265 0-2.254-1.691-5.066-3.774-6.265l-88.326-51.021a8.308 8.308 0 0 0-7.547 0L28.08 200.177c-2.088 1.204-3.773 4.022-3.773 6.265Z" fill="#37474F"/><path d="m28.08 204.531 88.321 51.022a8.301 8.301 0 0 0 7.546 0l137.782-79.57c2.083-1.187 2.083-3.156 0-4.355l-88.326-51.021a8.308 8.308 0 0 0-7.547 0L28.08 200.177c-2.088 1.204-2.088 3.15 0 4.354Z" fill="#455A64"/><path d="M120.18 256.437v8.17a7.64 7.64 0 0 1-3.773-.902l-88.333-51.022c-2.083-1.186-3.767-4.01-3.767-6.265 0-2.118 1.489-4.716 3.387-6.022-1.69 1.187-1.56 2.967.38 4.112l88.333 51.022a7.71 7.71 0 0 0 3.773.907Zm-80.448-55.619 126.611-73.097a3.917 3.917 0 0 1 3.559 0l4.61 2.586c.985.594.985 1.483 0 2.053L47.883 205.446a3.932 3.932 0 0 1-3.56 0l-4.591-2.575c-.985-.57-.985-1.489 0-2.053Zm12.435 7.333 126.611-73.098a3.625 3.625 0 0 1 3.251-.178l32.956 19.027c.813.468.677 1.311-.308 1.874L88.214 228.779a3.652 3.652 0 0 1-3.257.184l-33.063-18.944c-.848-.48-.712-1.299.273-1.868Z" fill="#263238"/><path d="m161.875 165.756 3.963-2.29c.172-.095.184-.25.036-.333l-3.791-2.189a.642.642 0 0 0-.594 0l-3.945 2.32c-.172.095-.184.243-.036.332l3.791 2.189a.64.64 0 0 0 .576-.029Zm-5.785-7.921-3.969 2.29c-.166.095-.183.244-.029.333l3.791 2.189a.66.66 0 0 0 .593 0l3.963-2.29c.172-.101.184-.249.036-.332l-3.791-2.19a.642.642 0 0 0-.594 0Zm-12.832 7.393-6.71 3.874c-.166.095-.184.249-.036.332l3.797 2.189a.643.643 0 0 0 .594 0l6.704-3.874c.172-.095.184-.243.035-.332l-3.791-2.207a.63.63 0 0 0-.593.018Zm7.012-4.047-3.963 2.291c-.172.094-.184.243-.035.332l3.791 2.189a.636.636 0 0 0 .593 0l3.969-2.284c.166-.101.184-.249.03-.332l-3.791-2.196a.654.654 0 0 0-.57 0h-.024Zm-15.549 8.977-3.922 2.29c-.166.095-.184.243-.03.332l3.791 2.189a.631.631 0 0 0 .594 0l3.963-2.29c.172-.095.184-.243.035-.332l-3.791-2.189a.626.626 0 0 0-.617 0h-.023Zm-5.797 3.346-3.963 2.29c-.172.095-.184.243-.035.332l3.791 2.189a.65.65 0 0 0 .593 0l3.969-2.29c.166-.101.184-.249.03-.332l-3.791-2.189a.63.63 0 0 0-.57 0h-.024Zm14.868 8.935 3.963-2.291c.166-.094.184-.243.036-.332l-3.797-2.189a.666.666 0 0 0-.594 0l-3.963 2.29c-.166.101-.184.249-.035.332l3.797 2.19a.637.637 0 0 0 .617 0h-.024Zm-5.773 3.369 3.963-2.29c.172-.095.184-.243.036-.332l-3.791-2.189a.64.64 0 0 0-.593 0l-3.969 2.29c-.166.095-.178.249-.03.332l3.809 2.189a.627.627 0 0 0 .575 0Zm-5.796 3.346 3.969-2.29c.166-.095.184-.249 0-.332l-3.791-2.189a.637.637 0 0 0-.593 0l-3.963 2.29c-.172.095-.184.243-.036.332l3.791 2.189a.635.635 0 0 0 .623-.023v.023Zm-5.79 3.341 3.963-2.285c.166-.1.184-.249.035-.332l-3.785-2.213a.65.65 0 0 0-.593 0l-3.957 2.296c-.166.095-.184.244-.03.332l3.791 2.19a.64.64 0 0 0 .576-.012v.024Zm29.663-23.37 3.952-2.301c.166-.101.183-.25.035-.333l-3.797-2.189a.635.635 0 0 0-.593 0l-3.963 2.29c-.166.095-.184.243-.036.332l3.797 2.19a.667.667 0 0 0 .593-.012l.012.023Zm-6.49 9.967 8.846-5.102c.166-.101.184-.249.035-.332l-9.213-5.339a.642.642 0 0 0-.594 0l-4.556 2.657c-.166.095-.184.244-.036.333l4.877 2.812c.149.089.137.237-.035.332l-3.655 2.112c-.172.101-.184.249-.036.332l3.791 2.19a.596.596 0 0 0 .576.005Zm-26.454-2.242-3.963 2.29c-.166.095-.184.243-.03.332l3.791 2.189a.64.64 0 0 0 .593 0l3.963-2.284c.167-.101.184-.249.036-.332l-3.797-2.189a.595.595 0 0 0-.593-.006Zm-5.791 3.346-3.963 2.284c-.172.101-.184.249-.035.338l3.791 2.189a.635.635 0 0 0 .593 0l3.963-2.284c.172-.101.184-.249.036-.338l-3.791-2.189a.642.642 0 0 0-.594 0Zm-32.036 35.715a.638.638 0 0 0 .593 0l3.963-2.284c.166-.101.184-.249.035-.332L86.12 211.1a.64.64 0 0 0-.594 0l-3.969 2.29c-.166.095-.184.243-.035.332l3.803 2.189Zm-14.292-8.958-3.963 2.29c-.172.101-.184.249-.036.332l3.79 2.189a.64.64 0 0 0 .594 0l3.97-2.29c.165-.095.183-.243.029-.332l-3.791-2.189a.652.652 0 0 0-.617 0h.024Zm7.32 6.739a.652.652 0 0 0 .594 0l3.969-2.29c.166-.101.184-.249.03-.332l-3.791-2.189a.639.639 0 0 0-.594 0l-3.963 2.29c-.172.095-.184.243-.035.332l3.79 2.189Zm16.019 3.596 3.963-2.291c.172-.094.184-.243.036-.332l-3.791-2.189a.651.651 0 0 0-.594 0l-3.963 2.29c-.166.095-.184.249-.03.332l3.792 2.19a.633.633 0 0 0 .558-.036l.029.036ZM88 220.651a.628.628 0 0 0 .594 0l3.969-2.29c.166-.095.177-.249.03-.332L88.8 215.84a.64.64 0 0 0-.593 0l-3.963 2.29c-.172.095-.184.243-.036.332L88 220.651Zm-11.189-17.044-3.969 2.284c-.166.101-.178.249-.03.332l3.791 2.189a.595.595 0 0 0 .594 0l3.963-2.29c.172-.095.184-.243.035-.332l-3.79-2.183a.628.628 0 0 0-.594 0Zm28.97-16.731-3.969 2.29c-.166.101-.184.249 0 .333l3.791 2.189a.635.635 0 0 0 .593 0l3.963-2.29c.172-.095.184-.244.036-.333l-3.791-2.189a.645.645 0 0 0-.629.006l.006-.006Zm-23.18 13.385-3.963 2.29c-.166.094-.184.243-.035.332l3.797 2.189a.64.64 0 0 0 .593 0l3.963-2.284c.166-.101.184-.249.036-.338l-3.797-2.189a.64.64 0 0 0-.6.005l.006-.005Zm28.97-16.725-3.969 2.272c-.166.101-.184.25-.036.333l3.797 2.189a.597.597 0 0 0 .594 0l3.963-2.29c.166-.095.184-.244.035-.333l-3.797-2.189a.642.642 0 0 0-.593.024l.006-.006Zm-11.587 6.686-3.963 2.29c-.172.095-.184.244-.035.333l3.79 2.189a.637.637 0 0 0 .594 0l3.969-2.29c.166-.095.184-.244 0-.333l-3.797-2.201a.645.645 0 0 0-.564.018l.006-.006Zm-5.796 3.346-3.969 2.326c-.166.095-.184.243 0 .332l3.791 2.189a.627.627 0 0 0 .593 0l3.964-2.29c.166-.1.183-.249.035-.332l-3.791-2.189a.65.65 0 0 0-.629-.03l.006-.006Zm-5.79 3.346-3.963 2.29c-.172.095-.184.244-.036.333l3.791 2.189a.639.639 0 0 0 .593 0l3.963-2.284c.172-.101.184-.249.036-.332l-3.791-2.19a.639.639 0 0 0-.6 0l.007-.006Zm26.454 2.243 3.963-2.29c.166-.095.184-.243.036-.332l-3.797-2.189a.642.642 0 0 0-.594 0l-3.963 2.284c-.166.101-.184.249-.035.332l3.797 2.195a.634.634 0 0 0 .587.006l.006-.006Zm54.047-48.72-3.963 2.284c-.166.101-.184.25-.035.333l3.797 2.189a.635.635 0 0 0 .593 0l3.963-2.29c.166-.095.184-.243.035-.332l-3.796-2.19a.645.645 0 0 0-.6.012l.006-.006Zm-7.012 4.046-3.963 2.29c-.166.095-.184.244-.036.333l3.791 2.189a.65.65 0 0 0 .593 0l3.963-2.29c.167-.101.184-.249.036-.332l-3.797-2.19a.64.64 0 0 0-.593.006l.006-.006Zm12.814-7.386-3.963 2.284c-.172.101-.184.249-.035.338l3.791 2.19a.635.635 0 0 0 .593 0l3.969-2.285c.166-.1.184-.249 0-.338l-3.761-2.213a.649.649 0 0 0-.594.024Zm-32.036 29.747 3.963-2.284c.172-.101.184-.249.035-.338l-3.791-2.19a.635.635 0 0 0-.593 0l-3.969 2.291c-.166.094-.178.243-.03.332l3.791 2.189a.642.642 0 0 0 .594 0Zm38.396-33.111a.591.591 0 0 0-.593 0l-3.951 2.326c-.166.095-.184.243-.03.332l3.791 2.189a.642.642 0 0 0 .594 0l3.963-2.284c.172-.101.184-.249.035-.332l-3.809-2.231Zm-60.425 52.084 3.963-2.284c.172-.101.184-.249.036-.332l-3.791-2.196a.65.65 0 0 0-.593 0l-3.963 2.29c-.172.095-.184.244-.036.333l3.791 2.189a.64.64 0 0 0 .593 0Zm71.051-41.019 3.969-2.29c.166-.095.184-.243.03-.332l-3.78-2.19a.635.635 0 0 0-.593 0l-3.963 2.29c-.172.095-.184.25-.036.333l3.792 2.189a.633.633 0 0 0 .581 0Zm-11.207.219 3.963-2.29c.166-.101.184-.249.036-.332l-3.797-2.189a.643.643 0 0 0-.594 0l-3.963 2.29c-.166.095-.184.243-.035.332l3.797 2.189a.649.649 0 0 0 .593 0Zm5.998-8.157a.637.637 0 0 0-.593 0l-3.963 2.29c-.172.095-.184.243-.036.332l3.791 2.189a.626.626 0 0 0 .593 0l3.963-2.29c.172-.101.184-.249.036-.332l-3.791-2.189Zm1.187-.706 9.213 5.339a.626.626 0 0 0 .593 0l3.963-2.29c.172-.095.184-.243.036-.332l-9.214-5.339a.625.625 0 0 0-.593 0l-3.909 2.29c-.19.095-.208.237-.06.332h-.029Zm-13.379 7.416-3.969 2.29c-.166.095-.184.243-.03.332l3.792 2.189a.635.635 0 0 0 .593 0l3.963-2.284c.172-.101.184-.249.035-.332l-3.791-2.195a.624.624 0 0 0-.563 0h-.03Zm-43.611 25.172-3.934 2.32c-.166.101-.184.249 0 .332l3.791 2.19a.64.64 0 0 0 .593 0l3.963-2.29c.167-.095.184-.244.036-.333l-3.791-2.189a.645.645 0 0 0-.629-.03h-.029Zm54.646-20.58a.636.636 0 0 0 .593 0l3.963-2.29c.167-.095.184-.244.036-.333l-3.797-2.189a.636.636 0 0 0-.593 0l-3.963 2.29c-.166.095-.184.244-.036.333l3.797 2.189Zm-48.821 17.24-3.963 2.284c-.172.101-.184.25-.035.333l3.791 2.189a.591.591 0 0 0 .593 0l3.969-2.29c.166-.095.184-.243.03-.332l-3.791-2.19a.653.653 0 0 0-.594.006Zm-45.409 37.163a.664.664 0 0 0 .594 0l3.968-2.29c.167-.101.178-.249.03-.332l-3.809-2.183a.627.627 0 0 0-.593 0l-3.963 2.29c-.172.094-.184.243-.036.332l3.81 2.183Zm-6.733-7.06-3.987 2.29c-.166.095-.178.243-.03.332l3.791 2.19a.638.638 0 0 0 .593 0l3.963-2.291c.172-.1.184-.249.036-.332l-3.791-2.189a.639.639 0 0 0-.576 0Zm13.105 3.696 3.963-2.29c.166-.095.184-.249.036-.332l-3.791-2.189a.638.638 0 0 0-.594 0l-3.963 2.29c-.166.095-.184.243-.03.332l3.792 2.189a.639.639 0 0 0 .587 0Zm5.79-3.346 3.969-2.29c.166-.095.184-.243.03-.332l-3.791-2.189a.626.626 0 0 0-.593 0l-3.963 2.29c-.166.095-.184.249-.036.332l3.791 2.189a.637.637 0 0 0 .593 0Zm5.797-3.346 3.963-2.29c.172-.095.184-.243.035-.332l-3.791-2.213a.649.649 0 0 0-.593 0l-3.969 2.331c-.166.101-.178.25-.03.333l3.791 2.189a.646.646 0 0 0 .299.065.648.648 0 0 0 .295-.083Zm-18.902-.35-3.963 2.29c-.166.095-.184.249-.036.332l3.797 2.189a.627.627 0 0 0 .594 0l3.962-2.29c.167-.095.184-.243.036-.332l-3.797-2.189a.64.64 0 0 0-.593 0Zm5.796-3.346-3.963 2.29c-.172.101-.184.249-.035.332l3.79 2.172a.639.639 0 0 0 .594 0l3.963-2.29c.172-.095.184-.244.036-.333l-3.791-2.189a.656.656 0 0 0-.594.018Zm23.174-13.378-3.964 2.29c-.166.095-.183.243-.035.332l3.797 2.189a.636.636 0 0 0 .593 0l3.963-2.29c.166-.095.184-.249.036-.332l-3.797-2.189a.628.628 0 0 0-.593 0Zm-5.791 3.34-3.969 2.29c-.166.095-.184.243-.03.332l3.792 2.189a.635.635 0 0 0 .593 0l3.963-2.284c.172-.101.184-.249.035-.332l-3.808-2.195a.63.63 0 0 0-.576 0Zm11.587-6.692-3.963 2.29c-.172.095-.184.243-.036.332l3.791 2.189a.64.64 0 0 0 .593 0l3.964-2.29c.172-.095.183-.243.035-.332l-3.791-2.189a.628.628 0 0 0-.593.006v-.006Zm-23.185 13.39-3.97 2.284c-.165.101-.183.249-.029.332l3.791 2.189a.593.593 0 0 0 .593 0l3.963-2.29c.166-.095.184-.243.036-.332l-3.791-2.207a.632.632 0 0 0-.593.024Zm5.79-3.346-3.963 2.29c-.172.095-.184.243-.036.332l3.791 2.189a.631.631 0 0 0 .594 0l3.969-2.284c.166-.101.184-.249 0-.332l-3.791-2.195a.648.648 0 0 0-.552 0h-.012Zm-7.392 21.785 3.963-2.29c.166-.095.184-.243.03-.332l-3.791-2.19a.665.665 0 0 0-.594 0l-3.94 2.308c-.165.101-.183.249-.035.332l3.791 2.19a.656.656 0 0 0 .588-.018h-.012Zm-30.554-1.442-3.79-2.189a.65.65 0 0 0-.594 0l-3.963 2.29c-.166.095-.184.243 0 .332l3.79 2.189a.627.627 0 0 0 .594 0l3.963-2.29c.119-.095.16-.243.012-.332h-.012Zm7.553 1.899-3.797-2.196a.65.65 0 0 0-.594 0l-6.099 3.519c-.166.1-.178.249-.03.332l3.792 2.189a.595.595 0 0 0 .593 0l6.099-3.518c.178-.095.196-.243.047-.326h-.011Zm-13.213-6.224-3.797-2.189a.639.639 0 0 0-.593 0l-4.877 2.818c-.166.095-.184.249-.035.332l3.809 2.213a.639.639 0 0 0 .593 0l4.883-2.818c.16-.119.177-.267.03-.356h-.013Zm3.738-2.159a.638.638 0 0 0 .593 0l3.963-2.29c.172-.095.184-.25.036-.333l-3.791-2.189a.638.638 0 0 0-.593 0l-3.963 2.29c-.173.095-.184.243-.036.332l3.79 2.19Zm16.416 10.625-3.791-2.189a.639.639 0 0 0-.593 0l-7.618 4.426c-.172.095-.184.243-.036.332l3.791 2.189a.639.639 0 0 0 .594 0l7.623-4.402c.178-.119.19-.267.042-.356h-.012Zm2.676 4.717-3.797-2.189a.627.627 0 0 0-.594 0l-4.847 2.859c-.166.095-.184.243-.035.332l3.79 2.19a.678.678 0 0 0 .594 0l4.877-2.819c.166-.142.166-.296.023-.373h-.011Zm23.986-40.212a.66.66 0 0 0 .593 0l3.963-2.291c.172-.1.184-.249.036-.332l-3.797-2.177a.643.643 0 0 0-.594 0l-3.963 2.29c-.172.095-.184.243-.035.332l3.797 2.178Zm-11.587 6.692a.65.65 0 0 0 .593 0l3.963-2.29c.172-.095.184-.244.036-.333l-3.785-2.213a.65.65 0 0 0-.593 0l-3.97 2.285c-.166.1-.177.249 0 .332l3.756 2.219ZM73.447 202.64a.638.638 0 0 0 .593 0l3.964-2.29c.166-.095.183-.244.035-.333l-3.797-2.189a.638.638 0 0 0-.593 0l-3.957 2.29c-.166.095-.184.249-.036.332l3.791 2.19Zm31.491-18.178a.654.654 0 0 0 .594 0l3.963-2.285c.166-.1.184-.249.035-.332l-3.797-2.195a.635.635 0 0 0-.593 0l-3.963 2.29c-.166.095-.184.243-.036.332l3.797 2.19Zm-11.58 6.686a.638.638 0 0 0 .593 0l3.969-2.29c.166-.095.184-.243 0-.332l-3.791-2.19a.664.664 0 0 0-.594 0l-3.963 2.29c-.172.101-.184.25-.035.333l3.82 2.189Zm-3.762 30.411a.64.64 0 0 0-.593 0l-6.099 3.518c-.166.095-.184.249-.036.332l3.797 2.19a.638.638 0 0 0 .594 0l6.099-3.524c.166-.095.183-.244.03-.333l-3.792-2.183Zm-4.55-25.606a.64.64 0 0 0 .593 0l3.963-2.29c.172-.095.184-.243.036-.332l-3.81-2.183a.628.628 0 0 0-.592 0l-3.97 2.284c-.166.101-.183.249 0 .332l3.78 2.189Zm-5.797 3.34a.628.628 0 0 0 .594 0l3.969-2.29c.166-.094.184-.243 0-.332l-3.791-2.189a.664.664 0 0 0-.594 0l-3.963 2.29c-.172.101-.184.249-.035.332l3.82 2.189Zm117.688-39.707a.635.635 0 0 0-.593 0l-9.759 5.63c-.166.101-.184.249-.036.332l3.797 2.189a.596.596 0 0 0 .593 0l9.754-5.636c.172-.095.184-.243.035-.332l-3.791-2.183Zm-12.808 7.398a.631.631 0 0 0-.594 0l-3.963 2.29c-.172.095-.184.243-.035.332l3.791 2.189a.638.638 0 0 0 .593 0l3.963-2.29c.166-.095.184-.249 0-.332l-3.755-2.189Zm-78.2 43.582 3.963-2.29c.172-.095.184-.244.036-.333l-3.791-2.189a.642.642 0 0 0-.594 0l-3.963 2.284c-.172.101-.184.25-.035.333l3.791 2.195a.635.635 0 0 0 .593 0Zm66.613-36.896a.64.64 0 0 0-.593 0l-3.963 2.284c-.172.101-.184.249-.036.338l3.791 2.189a.64.64 0 0 0 .593 0l3.963-2.284c.172-.101.184-.249.036-.332l-3.791-2.195Zm30.192-17.425a.64.64 0 0 0-.594 0l-3.963 2.29c-.166.095-.184.244 0 .333l3.791 2.189a.642.642 0 0 0 .594 0l3.963-2.284c.166-.101.184-.249.035-.332l-3.826-2.196Zm9.581-1.156-9.208-5.34a.635.635 0 0 0-.593 0l-3.963 2.29c-.172.095-.184.243-.035.332l9.207 5.34a.64.64 0 0 0 .593 0l3.969-2.29c.167-.101.184-.249.03-.332Zm-61.422 31.081a.635.635 0 0 0-.593 0l-4.883 2.818c-.166.095-.184.244-.035.333l3.797 2.189a.635.635 0 0 0 .593 0l4.877-2.812c.166-.101.184-.25.035-.339l-3.791-2.189Zm14.636-8.448a.636.636 0 0 0-.593 0l-6.099 3.524c-.172.095-.184.243-.035.332l3.791 2.189a.649.649 0 0 0 .593 0l6.099-3.524c.172-.095.184-.243.035-.332l-3.791-2.189Zm-28.056 16.196a.66.66 0 0 0-.593 0l-32.63 18.843c-.166.095-.184.243-.036.332l3.797 2.189a.653.653 0 0 0 .594 0l32.63-18.842c.166-.095.184-.243 0-.332l-3.762-2.19Zm-34.457 19.893a.64.64 0 0 0-.593 0l-4.847 2.848c-.166.095-.184.243-.03.332l3.791 2.189a.64.64 0 0 0 .593 0l4.877-2.812c.172-.101.184-.249.036-.332l-3.827-2.225Zm41.167-23.767a.647.647 0 0 0-.593 0l-4.883 2.812c-.166.101-.183.25-.029.333l3.791 2.189a.591.591 0 0 0 .593 0l4.877-2.818c.172-.095.184-.243.035-.332l-3.791-2.184Zm-47.877 27.641a.639.639 0 0 0-.593 0l-4.877 2.812c-.172.101-.184.249-.035.332l3.79 2.195a.64.64 0 0 0 .594 0l4.882-2.806c.167-.095.184-.243.03-.332l-3.79-2.201Zm61.291-35.383a.591.591 0 0 0-.593 0l-4.847 2.836c-.166.095-.184.243-.036.332l3.791 2.189a.631.631 0 0 0 .594 0l4.882-2.812c.166-.101.184-.249.036-.332l-3.827-2.213Zm20.765-11.972a.638.638 0 0 0-.593 0l-3.963 2.29c-.167.095-.184.243-.03.332l3.791 2.189a.64.64 0 0 0 .593 0l3.963-2.284c.166-.101.184-.249.036-.332l-3.797-2.195Zm12.951-9.06 3.963-2.29c.172-.094.184-.243.036-.332l-3.791-2.189a.666.666 0 0 0-.593 0l-3.969 2.29c-.167.101-.184.249-.03.332l3.791 2.189a.626.626 0 0 0 .593 0Zm-23.642 1.14 3.963-2.29c.166-.095.184-.244.036-.333l-3.797-2.189a.64.64 0 0 0-.593 0l-3.963 2.29c-.167.101-.184.249-.036.332l3.797 2.19a.636.636 0 0 0 .593 0Zm-15.389 21.399 11.586-6.692c.166-.101.184-.249.036-.332l-3.791-2.19a.654.654 0 0 0-.593 0l-11.575 6.71c-.166.095-.184.244-.03.333l3.791 2.189a.657.657 0 0 0 .576-.018Zm32.659-19.175a.631.631 0 0 0 .594 0l3.969-2.29c.166-.095.184-.243.029-.332l-3.791-2.189a.636.636 0 0 0-.593 0l-3.963 2.29c-.172.095-.184.249-.036.332l3.791 2.189Zm-4.841-3.15 3.963-2.29c.172-.101.184-.249.036-.332l-3.791-2.189a.626.626 0 0 0-.593 0l-3.963 2.29c-.173.095-.184.243-.036.332l3.791 2.189a.637.637 0 0 0 .593 0Zm-33.615 25.659 3.963-2.284c.172-.101.184-.249.036-.332l-3.791-2.195a.64.64 0 0 0-.593 0l-3.963 2.29c-.172.095-.184.243-.036.332l3.791 2.189a.638.638 0 0 0 .593.006v-.006Zm25.654-15.116a.647.647 0 0 0 .593 0l3.963-2.29c.166-.095.184-.244.035-.333l-3.797-2.189a.635.635 0 0 0-.593 0l-3.963 2.284c-.166.101-.184.249-.035.332l3.797 2.196Zm-54.623 31.847 3.969-2.29c.166-.101.178-.25 0-.333l-3.738-2.183a.637.637 0 0 0-.593 0l-3.963 2.29c-.172.095-.184.243-.036.332l3.791 2.189a.653.653 0 0 0 .57 0v-.005Zm5.796-3.347 3.963-2.29c.166-.094.184-.249.036-.332l-3.791-2.189a.643.643 0 0 0-.594 0l-3.969 2.29c-.166.095-.184.243 0 .332l3.791 2.189a.63.63 0 0 0 .564.006v-.006Zm-11.587 6.687 3.963-2.284c.167-.101.184-.25.036-.333l-3.797-2.195a.64.64 0 0 0-.593 0l-3.963 2.29c-.166.095-.184.244-.036.333l3.797 2.189a.65.65 0 0 0 .593.006v-.006Zm23.174-13.379 3.963-2.29c.172-.095.184-.243.035-.332l-3.791-2.189a.649.649 0 0 0-.593 0l-3.969 2.29c-.166.101-.178.249 0 .332l3.791 2.189a.624.624 0 0 0 .564.006v-.006Zm-5.797 3.346 3.969-2.29c.166-.095.184-.243 0-.332l-3.791-2.189a.636.636 0 0 0-.593 0l-3.916 2.337c-.166.095-.183.25-.035.333l3.791 2.189a.638.638 0 0 0 .575-.042v-.006Zm11.593-6.692 3.963-2.29c.166-.095.184-.243.036-.332l-3.797-2.189a.642.642 0 0 0-.594 0l-3.963 2.284c-.166.101-.184.249-.035.332l3.797 2.195a.635.635 0 0 0 .593.006v-.006Zm31.633-46.53a.642.642 0 0 0 .594 0l3.963-2.29c.172-.095.184-.244.035-.333l-1.008-.593a.64.64 0 0 0-.594 0l-3.963 2.29c-.172.101-.184.249-.035.332l1.008.594Zm-28.815 18.237a.64.64 0 0 0 .593 0l3.963-2.284c.172-.101.184-.249.036-.332l-3.791-2.19a.595.595 0 0 0-.593 0l-3.969 2.314c-.166.095-.184.243-.03.332l3.791 2.16Zm11.61-6.692a.642.642 0 0 0 .594 0l3.963-2.29c.172-.095.184-.249.035-.332l-3.791-2.19a.635.635 0 0 0-.593 0l-3.963 2.29c-.172.095-.184.244-.036.333l3.791 2.189Zm-18.688 10.774a.654.654 0 0 0 .593 0l3.964-2.29c.166-.095.183-.244.029-.333l-3.791-2.189a.635.635 0 0 0-.593 0l-3.963 2.29c-.166.095-.184.249-.036.333l3.797 2.189Zm12.874-7.428a.666.666 0 0 0 .594 0l3.963-2.29c.166-.101.184-.249.035-.332l-3.797-2.19a.635.635 0 0 0-.593 0l-3.963 2.291c-.166.094-.184.243-.036.332l3.797 2.189Zm-24.443 14.12a.653.653 0 0 0 .594 0l3.969-2.29c.166-.101.178-.249.029-.332l-3.791-2.19a.635.635 0 0 0-.593 0l-3.963 2.29c-.172.095-.184.244-.036.333l3.791 2.189Zm5.797-3.346a.635.635 0 0 0 .593 0l3.963-2.29c.172-.095.184-.249.036-.332l-3.791-2.19a.642.642 0 0 0-.594 0l-3.969 2.29c-.166.095-.184.244-.029.333l3.791 2.189Zm30.079-18.985a.636.636 0 0 0 .593 0l3.963-2.29c.166-.095.184-.243.036-.332l-1.009-.594a.636.636 0 0 0-.593 0l-3.969 2.29c-.166.095-.184.244-.03.333l1.009.593Zm17.383-10.032a.635.635 0 0 0 .593 0l3.963-2.284c.166-.101.184-.25.036-.339l-1.015-.593a.636.636 0 0 0-.593 0l-3.963 2.284c-.166.101-.184.249-.036.332l1.015.6Zm7.961 4.598a.68.68 0 0 0 .594 0l3.963-2.29c.166-.101.184-.25.035-.333l-3.797-2.189a.635.635 0 0 0-.593 0l-3.963 2.29c-.166.095-.184.243-.036.332l3.797 2.19Zm11.023 12.719 3.964-2.29c.166-.095.183-.243.035-.332l-3.797-2.189a.635.635 0 0 0-.593 0l-3.963 2.284c-.166.101-.184.249-.036.332l3.797 2.195a.642.642 0 0 0 .593 0Zm-30.595-10.619a.642.642 0 0 0 .594 0l3.969-2.29c.166-.095.183-.244.029-.332l-1.008-.594a.642.642 0 0 0-.594 0l-3.963 2.29c-.166.095-.184.244-.035.333l1.008.593Zm-47.462 29.011a.642.642 0 0 0 .594 0l3.963-2.284c.166-.101.184-.249.035-.332l-3.797-2.196a.647.647 0 0 0-.593 0l-3.963 2.291c-.166.094-.184.243-.036.332l3.797 2.189Z" fill="#455A64"/><path d="m137.474 210.334.86.498 22.894 13.218 40.717-23.511.848-.481-23.76-13.716-41.559 23.992Z" fill="#263238"/><path d="m201.423 200.841-22.39-12.915-40.177 23.209 22.372 12.915 40.195-23.209Zm-180.658-.528c-1.952-1.133-1.846-3.037-1.846-5.44V86.968a8.336 8.336 0 0 1 3.774-6.526L160.463.89c2.082-1.187 5.114-1.187 6.882.19 1.768 1.376 2.278 2.705 2.278 5.114v107.899a8.344 8.344 0 0 1-3.773 6.526L28.08 200.177c-2.089 1.204-5.358 1.264-7.315.136Z" fill="#37474F"/><path d="M169.629 6.188c0-2.373-1.691-3.376-3.773-2.177L28.074 83.563a7.712 7.712 0 0 0-2.664 2.818l-5.387-3.132a7.762 7.762 0 0 1 2.676-2.819L160.463.884c2.088-1.186 5.126-1.222 6.882.196 1.857 1.495 2.284 2.711 2.284 5.108Z" fill="#455A64"/><path d="M27.635 200.402c-2.083.979-5.05.962-6.87-.094-1.952-1.122-1.846-3.032-1.846-5.435V86.968a7.605 7.605 0 0 1 1.104-3.714l5.387 3.115a7.714 7.714 0 0 0-1.104 3.714V198c0 2.23 1.484 3.233 3.329 2.402Z" fill="#263238"/><path d="M30.109 87.918 162.7 11.385c1.245-.724 2.26-.136 2.26 1.305v100.347a5.031 5.031 0 0 1-2.26 3.922L30.109 193.491c-1.252.724-2.267.136-2.267-1.305V91.833a5.007 5.007 0 0 1 2.267-3.915Z" fill="#000"/><path d="M30.109 87.917a5.008 5.008 0 0 0-2.267 3.922v98.59l131.078-75.654a4.999 4.999 0 0 0 2.261-3.922V12.257L30.109 87.917Z" fill="#263238"/><path d="M41.725 204.87c-.33.196-.703.31-1.086.332a2.771 2.771 0 0 1-1.596-.279 2.962 2.962 0 0 1-1.293-2.373v-92.39l2.605 1.501v92.408c0 .629.314.991.77.991.213-.014.418-.079.6-.19Z" fill="#E6E6E6"/><path d="M176.078 125.727a3.04 3.04 0 0 1-1.383 2.373l-132.97 76.77c-.76.439-1.383.083-1.383-.801V102.678L176.078 24.33v101.397Z" fill="#FAFAFA"/><path d="M175.425 25.463v100.264a2.421 2.421 0 0 1-1.056 1.833l-132.97 76.746a.63.63 0 0 1-.291.101c-.113 0-.113-.332-.113-.338V103.052l134.43-77.589Zm.653-1.133L40.342 102.678v101.391c0 .629.315.99.766.99.21-.009.416-.074.593-.189l133-76.746a3.042 3.042 0 0 0 1.383-2.374V24.33h-.006Z" fill="#EBEBEB"/><path d="M39.043 106.938a2.962 2.962 0 0 1-1.3-2.373V93.779a3.05 3.05 0 0 1 1.383-2.373l132.971-76.77a2.964 2.964 0 0 1 2.687-.053 2.97 2.97 0 0 1 1.294 2.373v10.792a3.055 3.055 0 0 1-1.383 2.373l-132.97 76.781a2.966 2.966 0 0 1-2.682.036Z" fill="#7A6BDE"/><path opacity=".3" d="M176.066 16.725c-.095-.712-.676-.98-1.37-.594L41.725 92.877c-.405.263-.74.62-.98 1.039l-2.592-1.501a2.87 2.87 0 0 1 .973-1.033l132.977-76.746a2.58 2.58 0 0 1 3.963 2.089Z" fill="#fff"/><path opacity=".2" d="M40.746 93.915c-.25.413-.388.883-.404 1.365v16.404l-2.604-1.501V93.779a1.534 1.534 0 0 1 0-.166c.011-.116.029-.23.053-.344.074-.3.192-.589.35-.854l2.605 1.5Z" fill="#000"/><path d="M176.078 16.932v7.398L82.423 78.425c-.76.44-1.382.083-1.382-.8v-2.801c0-.884-.593-1.24-1.388-.801L46.928 92.877a3.062 3.062 0 0 0-1.389 2.373v2.8a3.07 3.07 0 0 1-1.382 2.374l-3.815 2.201V95.28a3.085 3.085 0 0 1 1.383-2.373L174.7 16.131c.76-.439 1.377-.083 1.377.801Z" fill="#7A6BDE"/><path d="M172.115 20.878c.593-.339 1.062-.066 1.062.593a2.377 2.377 0 0 1-1.062 1.839c-.593.344-1.068.065-1.068-.593a2.379 2.379 0 0 1 1.068-1.84Zm-3.826 2.23c.593-.338 1.061-.065 1.061.593a2.376 2.376 0 0 1-1.061 1.84c-.594.337-1.062.065-1.062-.594a2.376 2.376 0 0 1 1.062-1.84Zm-3.827 2.202c.593-.34 1.062-.066 1.062.592a2.377 2.377 0 0 1-1.062 1.84c-.593.338-1.062.065-1.062-.594a2.364 2.364 0 0 1 1.062-1.839Z" fill="#fff"/><path d="M176.078 24.33v9.006L40.342 111.684v-9.006l2.848-1.649c.76-.439 1.02-1.11 1.382-2.373l.967-3.352c.303-1.187.594-1.958 1.389-2.374l32.167-18.522c.765-.445 1.365-.492 1.946.475l1.187 2.148c.433.753.652 1.186 1.412.753l92.438-53.454Z" fill="#E0E0E0"/><path d="M40.343 102.678v9.006l-2.605-1.501v-9l2.605 1.495Z" fill="#E0E0E0"/><path opacity=".15" d="M40.343 102.678v9.006l-2.605-1.501v-9l2.605 1.495Z" fill="#000"/><path opacity=".5" d="m46.696 103.343-2.171 1.257.842-1.613a.382.382 0 0 0 0-.386c-.065-.077-.172 0-.249.113l-1.186 2.272a.48.48 0 0 0 0 .083v.03a.801.801 0 0 0 0 .118.532.532 0 0 0 0 .101.134.134 0 0 0 0 .048l1.186.907a.105.105 0 0 0 .06.018.105.105 0 0 0 .059-.018.38.38 0 0 0 .13-.166c.066-.148.06-.314 0-.374l-.842-.611 2.171-1.257a.456.456 0 0 0 .172-.368c0-.154-.077-.226-.172-.154Zm1.816-1.062 2.195-1.258-.848-.647c-.077-.059-.083-.225 0-.373.083-.149.172-.22.249-.166l1.187.907a.098.098 0 0 1 0 .048.532.532 0 0 1 0 .101.801.801 0 0 1 0 .118.48.48 0 0 1 0 .083l-1.187 2.272a.364.364 0 0 1-.119.131.094.094 0 0 1-.065.026.094.094 0 0 1-.065-.026.38.38 0 0 1 0-.386l.848-1.548-2.171 1.252c-.095.059-.172 0-.172-.166a.456.456 0 0 1 .148-.368Zm7.131-6.259c0-.136-.124-.119-.184 0l-.296.73c-.51-.054-1.127.439-1.543 1.317-.534 1.145-.534 2.492 0 3.008a.771.771 0 0 0 .98.059 2.66 2.66 0 0 0 .972-1.186.356.356 0 0 0 0-.38c-.065-.065-.178 0-.243.142-.404.849-1.056 1.228-1.46.843-.403-.386-.403-1.395 0-2.243.285-.593.7-.967 1.056-.99l-.225.551c-.06.142 0 .273.089.214l.884-.594a.272.272 0 0 0 .1-.243l-.13-1.228ZM78.14 78.467l.795-1.68a.534.534 0 0 0 0-.522c-.095-.088-.25 0-.344.196l-.79 1.68-.794-.766c-.09-.089-.244 0-.339.196a.505.505 0 0 0 0 .522l.795.765-.794 1.673a.504.504 0 0 0 0 .522.13.13 0 0 0 .172 0 .476.476 0 0 0 .166-.207l.795-1.673.789.759a.137.137 0 0 0 .172 0 .48.48 0 0 0 .172-.208.534.534 0 0 0 0-.522l-.795-.735Z" fill="#455A64"/><path d="M58.526 98.08v-2.8a3.055 3.055 0 0 1 1.389-2.373l106.985-61.7c.765-.44 1.388-.084 1.388.8v2.8a3.07 3.07 0 0 1-1.388 2.374L59.915 98.88c-.766.44-1.389.083-1.389-.8Z" fill="#FAFAFA"/><path d="M165.019 37.382a.38.38 0 0 1-.124 0 .376.376 0 0 1-.208-.42l.136-1.14-.534-.38a.378.378 0 0 1-.148-.309.628.628 0 0 1 .232-.486l.836-.652a.179.179 0 0 0 0-.065l.362-1.187a.51.51 0 0 1 .409-.386.333.333 0 0 1 .321.196l.302.647.688-.261a.315.315 0 0 1 .368.083.496.496 0 0 1 0 .558l-.593 1.103a.143.143 0 0 0 0 .071l.136.997a.587.587 0 0 1-.172.498.376.376 0 0 1-.326.125l-.647-.071-.717.92a.416.416 0 0 1-.321.16Zm-.391-2.313.534.385a.404.404 0 0 1 .142.38l-.095.76.481-.594a.402.402 0 0 1 .367-.172l.665.083a.25.25 0 0 0 0-.077l-.143-.997a.595.595 0 0 1 .078-.362l.51-.967-.528.208a.328.328 0 0 1-.421-.172l-.238-.51-.326 1.062a.59.59 0 0 1-.202.302l-.813.63a.207.207 0 0 0-.023.04h.012Z" fill="#E0E0E0"/><path d="M169.92 30.827a.48.48 0 0 1-.237-.896l3.892-2.254a.474.474 0 0 1 .366-.049.49.49 0 0 1 .292.227.47.47 0 0 1-.178.653l-3.898 2.254a.474.474 0 0 1-.237.065Zm0 2.248a.475.475 0 0 1-.463-.603.482.482 0 0 1 .226-.293l3.892-2.248a.478.478 0 0 1 .679.16.47.47 0 0 1 .061.185.468.468 0 0 1-.108.365.485.485 0 0 1-.152.12l-3.898 2.249a.42.42 0 0 1-.237.065Zm0 2.249a.476.476 0 0 1-.444-.66.47.47 0 0 1 .207-.23l3.892-2.255a.48.48 0 1 1 .48.831l-3.897 2.255a.473.473 0 0 1-.238.059Z" opacity=".5" fill="#455A64"/><path d="M185.167 35.87c-1.988-1.14-4.574-1.027-7.41.592-6.271 3.637-11.361 13.355-11.361 21.72 0 4.586 1.53 7.808 3.939 9.19l2.432 1.406c1.994 1.14 4.58 1.032 7.416-.593 6.277-3.62 11.361-13.343 11.361-21.708 0-4.574-1.518-7.79-3.921-9.178l-2.456-1.43Z" fill="#EBEBEB"/><path d="M189.257 56.885c3.772-8.864 2.765-17.78-2.249-19.913-5.014-2.133-12.136 3.323-15.908 12.187-3.771 8.864-2.764 17.779 2.249 19.912 5.014 2.134 12.137-3.322 15.908-12.186Z" fill="#E0E0E0"/><path d="M187.303 56.053c2.958-6.952 2.167-13.946-1.768-15.62-3.934-1.674-9.522 2.605-12.48 9.557-2.959 6.953-2.167 13.946 1.767 15.62 3.935 1.675 9.523-2.604 12.481-9.557Z" fill="#FAFAFA"/><path d="M183.162 45.32a.211.211 0 0 1 .243 0 .314.314 0 0 1 .101.267v1.815a.998.998 0 0 1-.089.392c-.06.136-.113.255-.166.356l-1.555 2.966a1.918 1.918 0 0 1 1.632.214c.421.296.629.895.629 1.78a6.266 6.266 0 0 1-1.003 3.482 7.932 7.932 0 0 1-2.794 2.593 5.013 5.013 0 0 1-1.638.652 2.13 2.13 0 0 1-1.186-.077 1.501 1.501 0 0 1-.754-.652 2.158 2.158 0 0 1-.273-1.08c0-.11.029-.219.083-.315a.5.5 0 0 1 .196-.225l1.62-.932c.178-.106.314-.13.409-.077l.315.172a.982.982 0 0 0 .45.09 1.79 1.79 0 0 0 .789-.291 3.644 3.644 0 0 0 1.021-.867c.255-.311.398-.7.403-1.103 0-.403-.136-.593-.403-.64a1.782 1.782 0 0 0-1.021.314l-1.067.593a.202.202 0 0 1-.244 0 .292.292 0 0 1-.1-.261v-1.471a.974.974 0 0 1 .088-.398c.06-.136.119-.261.178-.38l1.365-2.616-3.352 1.934a.196.196 0 0 1-.243 0 .317.317 0 0 1-.107-.267v-1.815a.781.781 0 0 1 .107-.38.63.63 0 0 1 .243-.279l6.123-3.494Z" fill="#455A64"/><path d="M168.822 59.582c-.001.618.029 1.236.089 1.851l-31.829 18.392v-3.797l31.835-18.392c-.065.653-.095 1.3-.095 1.946Z" fill="#E6E6E6"/><path d="M168.911 57.636 137.082 76.01l-2.427-1.4 31.829-18.38 2.427 1.407Z" fill="#F0F0F0"/><path d="M133.172 65.895c-1.987-1.133-4.58-1.026-7.41.593-6.271 3.625-11.361 13.343-11.361 21.708 0 4.58 1.531 7.808 3.939 9.19l2.433 1.406c1.987 1.14 4.58 1.032 7.416-.593 6.276-3.625 11.361-13.343 11.361-21.708 0-4.574-1.525-7.79-3.928-9.184l-2.45-1.412Z" fill="#7A6BDE"/><path opacity=".3" d="M133.172 65.895c-1.987-1.133-4.58-1.026-7.41.593-6.271 3.625-11.361 13.343-11.361 21.708 0 4.58 1.531 7.808 3.939 9.19l2.433 1.406c1.987 1.14 4.58 1.032 7.416-.593 6.276-3.625 11.361-13.343 11.361-21.708 0-4.574-1.525-7.79-3.928-9.184l-2.45-1.412Z" fill="#fff"/><path d="M137.252 86.916c3.772-8.864 2.765-17.779-2.249-19.912-5.014-2.134-12.136 3.322-15.908 12.186-3.771 8.865-2.764 17.78 2.25 19.913 5.014 2.134 12.136-3.323 15.907-12.187Z" fill="#7A6BDE"/><path d="M135.298 86.085c2.959-6.953 2.167-13.946-1.767-15.62-3.935-1.674-9.523 2.605-12.481 9.557-2.958 6.953-2.167 13.946 1.767 15.62 3.935 1.674 9.523-2.605 12.481-9.557Z" fill="#FAFAFA"/><path d="M131.677 78.894a7.16 7.16 0 0 1-.077 1.002 6.133 6.133 0 0 1-.267 1.05 9.584 9.584 0 0 1-.486 1.151c-.202.398-.445.825-.736 1.282l-1.78 2.847 3.222-1.856a.206.206 0 0 1 .243 0 .32.32 0 0 1 .081.121.34.34 0 0 1 .02.145v1.816a.854.854 0 0 1-.101.38.682.682 0 0 1-.243.278l-6.776 3.916a.211.211 0 0 1-.249 0 .303.303 0 0 1-.081-.118.302.302 0 0 1-.02-.143v-1.483c.004-.2.032-.4.083-.593.064-.224.162-.436.291-.63l3.839-5.879c.241-.35.43-.734.563-1.139a2.96 2.96 0 0 0 .113-.777 1.842 1.842 0 0 0-.03-.314.72.72 0 0 0-.148-.339.494.494 0 0 0-.326-.184.993.993 0 0 0-.594.178c-.23.123-.432.293-.593.499a2.713 2.713 0 0 0-.344.593 3.112 3.112 0 0 0-.184.522c-.035.166-.065.285-.083.368a.957.957 0 0 1-.196.427 1.187 1.187 0 0 1-.314.261l-1.566.896a.172.172 0 0 1-.202 0 .258.258 0 0 1-.083-.214 7.074 7.074 0 0 1 .213-1.566 7.87 7.87 0 0 1 .665-1.673c.299-.57.67-1.1 1.103-1.578.447-.5.972-.925 1.555-1.258.454-.287.967-.47 1.501-.534.38-.036.76.058 1.079.267.308.227.54.541.665.902.162.44.245.907.243 1.377Z" fill="#455A64"/><path d="M116.81 89.614c-.002.618.028 1.236.089 1.85l-31.83 18.392v-3.797l31.835-18.391c-.065.653-.094 1.3-.094 1.946Z" fill="#7A6BDE"/><path opacity=".3" d="M116.81 89.614c-.002.618.028 1.236.089 1.85l-31.83 18.392v-3.797l31.835-18.391c-.065.653-.094 1.3-.094 1.946Z" fill="#fff"/><path d="m116.899 87.668-31.83 18.374-2.426-1.4 31.829-18.38 2.427 1.406Z" fill="#7A6BDE"/><path opacity=".6" d="m116.899 87.668-31.83 18.374-2.426-1.4 31.829-18.38 2.427 1.406Z" fill="#fff"/><path d="M81.142 95.927c-1.988-1.14-4.58-1.027-7.41.593-6.277 3.619-11.361 13.337-11.361 21.708 0 4.58 1.53 7.802 3.939 9.19.403.225 2.017 1.186 2.432 1.406 1.988 1.139 4.58 1.026 7.416-.593 6.271-3.625 11.361-13.343 11.361-21.708 0-4.574-1.524-7.796-3.927-9.184l-2.45-1.412Z" fill="#7A6BDE"/><path opacity=".3" d="M81.142 95.927c-1.988-1.14-4.58-1.027-7.41.593-6.277 3.619-11.361 13.337-11.361 21.708 0 4.58 1.53 7.802 3.939 9.19.403.225 2.017 1.186 2.432 1.406 1.988 1.139 4.58 1.026 7.416-.593 6.271-3.625 11.361-13.343 11.361-21.708 0-4.574-1.524-7.796-3.927-9.184l-2.45-1.412Z" fill="#fff"/><path d="M85.236 116.946c3.772-8.864 2.765-17.78-2.249-19.913-5.014-2.133-12.136 3.323-15.908 12.187-3.771 8.864-2.764 17.779 2.25 19.912 5.013 2.134 12.136-3.322 15.907-12.186Z" fill="#7A6BDE"/><path d="M83.282 116.114c2.958-6.952 2.167-13.946-1.767-15.62-3.935-1.674-9.523 2.605-12.481 9.557-2.959 6.953-2.167 13.946 1.767 15.62 3.935 1.675 9.523-2.604 12.481-9.557Z" fill="#FAFAFA"/><path d="M72.38 113.132a.39.39 0 0 1-.06-.309.976.976 0 0 1 .137-.386l2.764-4.419c.066-.107.149-.232.25-.38.084-.138.2-.254.338-.338l1.566-.902a.211.211 0 0 1 .243 0 .311.311 0 0 1 .101.267v11.058a.777.777 0 0 1-.1.38.637.637 0 0 1-.244.279l-1.68.979a.205.205 0 0 1-.12.041.205.205 0 0 1-.122-.041.29.29 0 0 1-.107-.261v-7.493l-1.501 2.414a.593.593 0 0 1-.255.244.18.18 0 0 1-.231-.048l-.98-1.085Z" fill="#455A64"/><path d="M45.368 190.637a3.208 3.208 0 0 0 1.447 2.515l.51.297a3.26 3.26 0 0 0 2.658.119c-.682.261-1.186-.131-1.186-.962v-39.624a2.964 2.964 0 0 1 .427-1.436l-3.417-1.97c-.26.433-.405.925-.422 1.43l-.017 39.631Z" fill="#263238" opacity=".9"/><path opacity=".85" d="M105.324 118.856a1.308 1.308 0 0 0-.652.196L50.239 150.46c-.43.265-.782.64-1.02 1.085a2.921 2.921 0 0 0-.428 1.43v39.631c0 .664.32 1.044.8 1.044a1.13 1.13 0 0 0 .351-.065h.047a2.02 2.02 0 0 0 .256-.125l54.581-31.509c1.311-.741 1.317-1.489 1.317-2.42V119.9a2.005 2.005 0 0 0-.048-.409.753.753 0 0 0-.747-.594l-.024-.041Z" fill="#37474F"/><path d="M105.324 119.45c.048 0 .119 0 .166.166.008.091.008.182 0 .273v39.631c0 .884 0 1.329-1.014 1.904l-54.54 31.503a1.079 1.079 0 0 1-.142.071h-.042a.614.614 0 0 1-.16 0c-.184 0-.208-.308-.208-.445v-39.631a2.38 2.38 0 0 1 .356-1.139c.186-.35.46-.647.795-.86l54.433-31.408a.781.781 0 0 1 .356-.119m0-.593a1.318 1.318 0 0 0-.652.196L50.239 150.46c-.43.266-.782.641-1.02 1.086a2.918 2.918 0 0 0-.428 1.43v39.631c0 .664.32 1.044.8 1.044a1.13 1.13 0 0 0 .351-.065h.047c.088-.036.174-.078.256-.125l54.581-31.509c1.311-.741 1.317-1.489 1.317-2.42v-39.631a2.022 2.022 0 0 0-.048-.41.753.753 0 0 0-.747-.593l-.024-.095Z" fill="#455A64"/><path d="M106.072 119.479c-.167-.593-.73-.818-1.401-.427L50.238 150.46a2.86 2.86 0 0 0-1.02 1.086l-3.417-1.976a2.91 2.91 0 0 1 1.026-1.08l54.421-31.443a3.26 3.26 0 0 1 2.907 0l.516.297a3.227 3.227 0 0 1 1.401 2.135Z" fill="#37474F" opacity=".5"/><path d="m52.926 161.044 48.583-28.05v2.806l-48.583 28.05v-2.806Zm.012 11.218 48.583-28.05v2.807l-48.583 28.05v-2.807Zm0 5.613 48.583-28.044v2.8l-48.583 28.05v-2.806Zm25.861-26.098L52.925 166.71v2.806l25.873-14.938v-2.801Zm1.584-.92v2.807l21.126-12.198v-2.806l-21.126 12.197Zm-26.905 7.013a.368.368 0 0 1-.35-.106.406.406 0 0 1-.071-.238c.005-.165.03-.328.077-.486.053-.184.107-.291.172-.327a.19.19 0 0 1 .125 0l.13.036a.495.495 0 0 0 .35-.047.838.838 0 0 0 .279-.279.85.85 0 0 0 .113-.463.692.692 0 0 0-.06-.326.34.34 0 0 0-.148-.155 1.585 1.585 0 0 0-.261-.089.956.956 0 0 1-.558-.385 1.824 1.824 0 0 1-.172-.914 2.79 2.79 0 0 1 .29-1.269c.176-.345.446-.633.778-.831.113-.065.238-.107.368-.125a.47.47 0 0 1 .297 0 .242.242 0 0 1 .094.22 2.375 2.375 0 0 1-.059.463c-.041.178-.089.278-.148.314a.37.37 0 0 1-.148 0 .598.598 0 0 0-.327.071.593.593 0 0 0-.279.297.808.808 0 0 0-.077.344c0 .196 0 .326.101.386a.707.707 0 0 0 .309.154l.118.035a.848.848 0 0 1 .505.38c.122.267.175.561.154.854a3.477 3.477 0 0 1-.119.884 2.888 2.888 0 0 1-.374.813 1.91 1.91 0 0 1-.593.594 1.28 1.28 0 0 1-.516.195Zm2.42-1.584v-4.218l-.593.326c-.048.03-.09 0-.113-.029a.691.691 0 0 1-.035-.273v-.244a1.141 1.141 0 0 1 .035-.32.27.27 0 0 1 .113-.154l1.934-1.116c.053-.035.089 0 .113 0 .03.09.042.185.035.279v.267c.003.106-.009.212-.035.315a.25.25 0 0 1-.113.16l-.593.332v4.212a.492.492 0 0 1-.297.422l-.208.124c-.142.113-.243.083-.243-.083Zm1.892-.931a.321.321 0 0 1-.047-.208v-4.853a.693.693 0 0 1 .048-.267.322.322 0 0 1 .142-.154l1.501-.866a.065.065 0 0 1 .023-.021.078.078 0 0 1 .03-.007c.011 0 .021.003.03.007.01.005.018.012.024.021a.72.72 0 0 1 .036.279v.243c.003.106-.01.212-.036.314a.269.269 0 0 1-.107.16l-.896.517v1.133l.79-.457c.053 0 .088 0 .112.03a.7.7 0 0 1 .036.273v.243c.003.108-.009.216-.036.32a.25.25 0 0 1-.113.16l-.789.457v1.264l.896-.516c.053-.03.09 0 .113 0a.919.919 0 0 1 0 .278v.244c.012.104.012.21 0 .314a.25.25 0 0 1-.113.16l-1.5.867c-.066.094-.108.1-.143.065Zm2.267-1.466v-4.93a.695.695 0 0 1 .048-.267.373.373 0 0 1 .154-.166l.878-.504a.687.687 0 0 1 .712-.054c.202.119.303.511.303 1.187.01.402-.049.803-.172 1.186a2.577 2.577 0 0 1-.398.742 1.857 1.857 0 0 1-.392.362l-.35.202v1.815a.49.49 0 0 1-.308.421l-.172.101c-.202.103-.303.071-.303-.095Zm1.044-3.429a.542.542 0 0 0 .202-.273c.067-.19.097-.391.09-.593a.857.857 0 0 0-.09-.487.146.146 0 0 0-.15-.059.162.162 0 0 0-.052.024l-.267.154v1.394l.267-.16Zm2.012 1.804a.714.714 0 0 1-.036-.273v-.137a1.085 1.085 0 0 1 .036-.314.29.29 0 0 1 .112-.166l.546-.309v-3.518l-.552.439c-.053.03-.094 0-.124-.148a2.252 2.252 0 0 1-.036-.416.375.375 0 0 1 .13-.296l1.128-.967a.161.161 0 0 1 .137 0c.02.003.04.014.053.03.013.017.02.038.018.059v4.402l.427-.243c.053-.036.089 0 .113 0 .03.089.042.184.035.278v.119c.004.108-.008.216-.035.321a.265.265 0 0 1-.113.16l-1.727.996c-.059.042-.059.03-.112-.017Zm37.756 3.547-13.29 7.665a1.428 1.428 0 0 0-.646 1.122v4.111c0 .415.29.593.646.374l13.29-7.659a1.427 1.427 0 0 0 .652-1.122v-4.117c0-.409-.29-.575-.652-.374Zm-8.23 9.119a.303.303 0 0 1-.183.261l-.06.036a.21.21 0 0 1-.106.029s-.048 0-.065-.071l-.594-1.299c0-.04-.03-.129-.089-.267a2.67 2.67 0 0 1 0 .32v1.596a.304.304 0 0 1-.183.261l-.078.042c-.118.071-.178.053-.178-.048v-3.109a.31.31 0 0 1 .178-.261l.083-.047a.158.158 0 0 1 .101-.03s.048 0 .066.071l.593 1.258.107.315v-1.911a.308.308 0 0 1 .184-.261l.077-.047c.124-.065.183-.054.183.053l-.035 3.109Zm1.561-3.761a.58.58 0 0 1 0 .195.175.175 0 0 1-.065.101l-.558.321v.7l.493-.285a.052.052 0 0 1 .016-.012.044.044 0 0 1 .02-.004c.006 0 .013.001.019.004a.05.05 0 0 1 .016.012.59.59 0 0 1 0 .172v.154a.845.845 0 0 1 0 .196.218.218 0 0 1-.071.101l-.493.279v.789l.558-.321a.051.051 0 0 1 .016-.012.065.065 0 0 1 .02-.004c.006 0 .013.002.02.004a.053.053 0 0 1 .015.012.551.551 0 0 1 0 .172v.149a.813.813 0 0 1 0 .196.188.188 0 0 1-.071.1l-.931.54h-.09a.23.23 0 0 1-.03-.136v-3.008a.415.415 0 0 1 .03-.166.193.193 0 0 1 .09-.095l.931-.54h.065a.402.402 0 0 1 0 .172v.214Zm1.596 2.094-.136.077c-.101.065-.16.065-.172 0l-.255-1.092-.285 1.4a.247.247 0 0 1-.054.113.86.86 0 0 1-.118.083l-.143.083c-.124.072-.19.077-.19 0a.985.985 0 0 1 .03-.136l.457-1.827-.398-1.187a.22.22 0 0 1-.03-.101.174.174 0 0 1 .048-.101 1.19 1.19 0 0 1 .143-.101l.148-.089a.51.51 0 0 1 .113-.047.059.059 0 0 1 .018.001.054.054 0 0 1 .017.009c.005.003.01.008.012.014a.042.042 0 0 1 .006.018l.225 1.02.238-1.282a.226.226 0 0 1 .053-.106.585.585 0 0 1 .125-.089l.148-.089c.125-.071.184-.077.184 0a.631.631 0 0 1 0 .136l-.427 1.679.427 1.305v.054a.264.264 0 0 1 0 .059c-.012.065-.077.131-.184.196Zm1.709-3.999c.01.065.01.131 0 .196a.146.146 0 0 1-.071.101l-.35.202v2.622a.314.314 0 0 1-.184.261l-.13.071c-.126.071-.185.053-.185-.047v-2.611l-.35.202a.053.053 0 0 1-.016.012.044.044 0 0 1-.02.004.044.044 0 0 1-.019-.004.051.051 0 0 1-.016-.012.59.59 0 0 1 0-.172v-.154a.845.845 0 0 1 0-.196.19.19 0 0 1 .071-.101l1.187-.688h.07a.402.402 0 0 1 0 .172l.013.142Zm-41.5 26.614a2.489 2.489 0 0 1-.196-1.186 3.97 3.97 0 0 1 .208-1.424c.114-.335.343-.618.647-.801a.757.757 0 0 1 .278-.107c.06 0 .095.042.095.155.002.118-.012.235-.041.35 0 .118-.065.172-.107.178a.533.533 0 0 0-.202.065.71.71 0 0 0-.284.433 3.318 3.318 0 0 0-.09.86c-.014.257.016.514.09.76a.191.191 0 0 0 .123.132.185.185 0 0 0 .18-.032l.1-.071.107-.101a.05.05 0 0 1 .03 0c.041 0 .07 0 .094.066.012.1.012.202 0 .302a.515.515 0 0 1 0 .137.35.35 0 0 1-.077.124c-.045.046-.092.09-.142.131a1.17 1.17 0 0 1-.178.124c-.285.125-.498.107-.635-.095Zm1.139-.373a.6.6 0 0 1 0-.089l.48-3.37a.365.365 0 0 1 .197-.249l.201-.118c.119-.066.184-.06.196 0l.487 2.806a.605.605 0 0 1 0 .083.23.23 0 0 1-.131.19l-.172.095c-.1.059-.154.053-.166 0l-.083-.546-.475.279-.089.64a.27.27 0 0 1-.148.19l-.16.089c-.09.077-.137.071-.137 0Zm.973-1.738-.142-.949c0-.107 0-.226-.036-.35 0 .136 0 .267-.035.391l-.137 1.11.35-.202Zm.778.682v-3.109a.296.296 0 0 1 .183-.261l.083-.047a.152.152 0 0 1 .101-.03s.048 0 .06.071l.593 1.252c.041.105.077.212.107.32a3.404 3.404 0 0 1 0-.367v-1.549a.294.294 0 0 1 .178-.261l.077-.047c.118-.072.184-.054.184.053v3.109a.312.312 0 0 1-.184.261h-.06a.179.179 0 0 1-.106.035s-.048 0-.066-.071l-.593-1.305a1.721 1.721 0 0 1-.083-.261c.006.105.006.21 0 .314v1.602a.316.316 0 0 1-.184.261l-.077.042c-.154.107-.213.089-.213-.012Zm2.016-1.4a2.408 2.408 0 0 1-.201-1.187 4.106 4.106 0 0 1 .207-1.424 1.5 1.5 0 0 1 .647-.8.74.74 0 0 1 .279-.107c.065 0 .095.041.095.154.001.118-.013.236-.042.35 0 .119-.065.172-.107.178a.533.533 0 0 0-.201.065.689.689 0 0 0-.28.433 3.055 3.055 0 0 0-.094.861c-.016.256.016.514.095.759a.18.18 0 0 0 .043.082.182.182 0 0 0 .254.019l.1-.071.107-.101c.042 0 .071 0 .095.065a1.29 1.29 0 0 1 0 .303.5.5 0 0 1 0 .136.246.246 0 0 1-.077.119l-.137.136a1.7 1.7 0 0 1-.183.125c-.256.124-.47.107-.6-.095Zm1.335-.439a.208.208 0 0 1 0-.131v-3.008a.414.414 0 0 1 0-.166.21.21 0 0 1 .09-.101l.93-.534a.037.037 0 0 1 .017-.011.045.045 0 0 1 .02-.005c.006 0 .013.002.019.005a.038.038 0 0 1 .016.011.551.551 0 0 1 0 .172v.149a.9.9 0 0 1 0 .201.176.176 0 0 1-.071.095l-.558.321v.706l.492-.285h.072c.01.057.01.115 0 .172v.148a.853.853 0 0 1 0 .202.135.135 0 0 1-.071.095l-.493.285v.789l.558-.326h.071a.59.59 0 0 1 0 .177v.149a.845.845 0 0 1 0 .196.16.16 0 0 1-.071.1l-.932.534c-.041.078-.07.083-.089.06Zm1.442-.831a.205.205 0 0 1 0-.13v-3.062a.312.312 0 0 1 .184-.261l.13-.071c.12-.071.179-.053.179.047v2.617l.474-.267a.048.048 0 0 1 .015-.015.048.048 0 0 1 .02-.005c.008 0 .015.002.021.005a.047.047 0 0 1 .016.015.551.551 0 0 1 0 .172v.154a.845.845 0 0 1 0 .196.19.19 0 0 1-.072.101l-.848.486c-.047.036-.1.036-.119.018Z" fill="#37474F"/><path d="M53.294 188.952a.443.443 0 0 1-.243-.065.6.6 0 0 1-.262-.546v-4.118a1.576 1.576 0 0 1 .718-1.251l13.29-7.66a.594.594 0 0 1 .593-.047.598.598 0 0 1 .261.552v4.117a1.566 1.566 0 0 1-.718 1.246l-13.26 7.665a.768.768 0 0 1-.38.107Zm13.87-13.45a.428.428 0 0 0-.213.071l-13.278 7.66a1.278 1.278 0 0 0-.593.99v4.118a.322.322 0 0 0 .113.29.324.324 0 0 0 .308-.047l13.29-7.659a1.29 1.29 0 0 0 .593-.991v-4.117a.327.327 0 0 0-.113-.291.247.247 0 0 0-.106-.024Z" fill="#37474F"/><path d="M153.462 128.26a3.22 3.22 0 0 0 1.453 2.521l.511.291a3.243 3.243 0 0 0 2.658.124c-.683.262-1.187-.13-1.187-.961v-39.63c.016-.506.163-.999.427-1.43l-3.417-1.976c-.263.434-.41.929-.427 1.436l-.018 39.625Z" fill="#263238" opacity=".9"/><path opacity=".85" d="M213.406 56.473a1.336 1.336 0 0 0-.646.196l-54.439 31.408c-.427.27-.779.643-1.021 1.086a3.01 3.01 0 0 0-.427 1.435v39.631c0 .659.326 1.038.801 1.038.119 0 .238-.02.35-.059a.157.157 0 0 0 .053 0c.089-.033.175-.075.255-.125l54.582-31.502c1.305-.742 1.317-1.49 1.317-2.421V57.53a1.664 1.664 0 0 0-.054-.41.75.75 0 0 0-.747-.63l-.024-.017Z" fill="#37474F"/><path d="M213.406 57.067c.054 0 .125 0 .167.166.023.089.035.18.035.273v39.63c0 .884 0 1.323-1.02 1.899l-54.582 31.515-.142.071h-.047a.421.421 0 0 1-.161.029c-.184 0-.201-.308-.201-.439v-39.63c.017-.406.137-.8.35-1.145.189-.349.465-.643.801-.855l54.433-31.408a.683.683 0 0 1 .35-.118m0-.594a1.34 1.34 0 0 0-.647.196l-54.439 31.408c-.427.27-.778.643-1.02 1.086a3.022 3.022 0 0 0-.428 1.436v39.63c0 .659.327 1.039.801 1.039.12 0 .238-.02.35-.06a.163.163 0 0 0 .054 0c.089-.033.174-.075.255-.124l54.581-31.503c1.305-.742 1.317-1.49 1.317-2.42V57.516c0-.138-.018-.275-.053-.409a.755.755 0 0 0-.748-.629l-.023-.018Z" fill="#455A64"/><path d="M214.16 57.067c-.172-.593-.73-.813-1.406-.427l-54.427 31.42a2.93 2.93 0 0 0-1.027 1.085l-3.411-1.97c.24-.444.592-.818 1.021-1.085l54.427-31.396a3.212 3.212 0 0 1 2.907 0l.51.297a3.205 3.205 0 0 1 1.406 2.076Z" fill="#37474F" opacity=".5"/><path d="M161.014 98.643 209.592 70.6v2.8l-48.578 28.05v-2.806Zm.006 11.225 48.583-28.05v2.806L161.02 112.67v-2.801Zm0 5.613 48.583-28.05v2.806l-48.583 28.05v-2.806Zm25.861-26.104-25.867 14.939v2.806l25.867-14.939v-2.806Zm1.59-.914v2.806l21.121-12.198v-2.806l-21.121 12.198Zm-26.905 7.007a.4.4 0 0 1-.356-.101.452.452 0 0 1-.065-.237 1.75 1.75 0 0 1 .077-.493.55.55 0 0 1 .166-.32.158.158 0 0 1 .13 0l.131.035a.47.47 0 0 0 .35-.047.757.757 0 0 0 .273-.273.866.866 0 0 0 .118-.469.75.75 0 0 0-.059-.32.368.368 0 0 0-.154-.16 2.18 2.18 0 0 0-.255-.083.946.946 0 0 1-.558-.392 1.777 1.777 0 0 1-.172-.907 2.74 2.74 0 0 1 .291-1.276c.17-.351.441-.644.777-.843a1.02 1.02 0 0 1 .362-.13.532.532 0 0 1 .302 0c.06.036.089.107.089.226a1.952 1.952 0 0 1-.059.462c-.036.172-.083.28-.142.309a.305.305 0 0 1-.149 0 .63.63 0 0 0-.593.368.94.94 0 0 0-.077.35.558.558 0 0 0 .101.385c.09.076.198.127.314.148l.119.036c.209.06.389.195.504.38.119.27.172.565.154.86 0 .297-.042.593-.124.878-.076.29-.2.565-.368.813a1.785 1.785 0 0 1-.593.593 1.3 1.3 0 0 1-.534.208Zm2.421-1.579v-4.194l-.564.326c-.053.03-.089 0-.113 0a.713.713 0 0 1-.035-.279v-.243a1.11 1.11 0 0 1 .035-.314.257.257 0 0 1 .113-.16l1.928-1.116c.054-.03.095 0 .119 0 .03.088.042.18.035.273v.243c.004.108-.008.216-.035.32a.263.263 0 0 1-.119.16l-.593.327v4.218a.485.485 0 0 1-.291.422l-.213.118c-.172.09-.267.066-.267-.1Zm1.886-.931a.352.352 0 0 1-.041-.213v-4.83a.663.663 0 0 1 .041-.26.368.368 0 0 1 .143-.161l1.501-.86c.053-.03.089 0 .112 0 .031.087.043.18.036.273v.243c.003.108-.009.216-.036.32a.26.26 0 0 1-.112.154l-.896.517v1.139l.795-.457h.113c.029.09.041.184.035.279v.243c.004.108-.008.216-.035.32a.288.288 0 0 1-.113.155l-.795.456v1.27l.902-.522c.047-.028.083-.016.106.036a.7.7 0 0 1 .036.273v.243c.003.108-.009.216-.036.32a.276.276 0 0 1-.106.154l-1.507.872c-.066.066-.113.066-.143.036Zm2.267-1.484v-4.93a.648.648 0 0 1 .047-.26.396.396 0 0 1 .161-.167l.878-.51a.68.68 0 0 1 .729-.065c.208.124.309.516.309 1.186.011.403-.049.805-.178 1.187-.09.267-.225.518-.398.741-.108.142-.24.262-.391.356l-.35.202v1.815a.503.503 0 0 1-.303.428l-.172.1c-.225.125-.332.095-.332-.083Zm1.05-3.429a.546.546 0 0 0 .202-.273c.067-.19.098-.391.089-.593a.829.829 0 0 0-.089-.486.136.136 0 0 0-.093-.064.139.139 0 0 0-.109.028l-.273.154v1.394l.273-.16Zm2.473 1.65a.716.716 0 0 1-.409.03c-.113 0-.172-.12-.172-.268.007-.084.021-.167.042-.249 0-.113.059-.214.094-.314a.372.372 0 0 1 .113-.172h.113a.634.634 0 0 0 .231.041.548.548 0 0 0 .261-.083.876.876 0 0 0 .344-.398c.087-.2.13-.416.125-.634a.73.73 0 0 0-.13-.522c-.089-.078-.232-.066-.428.047l-.178.1c-.053.036-.095 0-.118 0a.733.733 0 0 1-.036-.278v-.136a1.154 1.154 0 0 1 .036-.32.261.261 0 0 1 .118-.16l.131-.078a.884.884 0 0 0 .356-.38c.087-.17.132-.36.13-.552a.641.641 0 0 0-.095-.409c-.065-.077-.16-.077-.278 0a.72.72 0 0 0-.22.178 1.82 1.82 0 0 0-.154.208c-.048.077-.077.118-.095.124-.018.006-.107 0-.166-.118a.669.669 0 0 1-.089-.327.889.889 0 0 1 .267-.593c.182-.208.399-.383.641-.516.29-.172.522-.178.694-.036a1.1 1.1 0 0 1 .261.849 2.31 2.31 0 0 1-.131.777c-.073.233-.19.45-.344.64v.03a.48.48 0 0 1 .445.285c.105.245.154.51.142.777.008.477-.091.95-.29 1.383a1.829 1.829 0 0 1-1.187 1.073h-.024Zm37.294 3.719-13.289 7.66a1.44 1.44 0 0 0-.647 1.121v4.111c0 .41.291.594.647.374l13.289-7.665a1.417 1.417 0 0 0 .647-1.121V93.79c0-.415-.291-.581-.647-.374Zm-9.593 7.061a.908.908 0 0 1 0 .195.21.21 0 0 1-.071.095l-.487.279v.706l.457-.267h.071c.01.057.01.115 0 .172v.148a.803.803 0 0 1 0 .196.164.164 0 0 1-.071.101l-.457.261v1.264a.3.3 0 0 1-.184.261l-.124.071c-.119.071-.178.053-.178-.047v-3.038a.392.392 0 0 1 0-.16.204.204 0 0 1 .089-.101l.86-.492a.038.038 0 0 1 .016-.012.045.045 0 0 1 .019-.005c.007 0 .014.002.02.005a.038.038 0 0 1 .016.012.514.514 0 0 1 0 .166l.024.19Zm.813 2.373a.306.306 0 0 1-.178.261l-.131.077c-.125.071-.184.053-.184-.054v-3.085a.29.29 0 0 1 .184-.26l.131-.078c.118-.071.178-.047.178.054v3.085Zm1.928-1.116a.304.304 0 0 1-.056.156.304.304 0 0 1-.128.105l-.06.036a.156.156 0 0 1-.1.03c-.03 0-.054 0-.066-.066l-.593-1.293a1.98 1.98 0 0 1-.083-.261c.007.105.007.21 0 .314v1.584a.299.299 0 0 1-.178.256l-.077.047c-.119.065-.184.053-.184-.053v-3.08a.304.304 0 0 1 .056-.156.302.302 0 0 1 .128-.105l.083-.047a.15.15 0 0 1 .101-.03s.041.03.059.072l.593 1.245c.043.103.078.208.107.315a3.227 3.227 0 0 1 0-.368v-1.537a.296.296 0 0 1 .184-.255l.071-.047c.119-.065.184-.048.184.053l-.041 3.085Zm.896-.516a.305.305 0 0 1-.184.261l-.131.077c-.119.071-.178.054-.178-.053v-3.085a.318.318 0 0 1 .053-.155.316.316 0 0 1 .125-.106l.131-.077c.118-.066.184-.048.184.059v3.079Zm1.495-1.186a1.767 1.767 0 0 1-.232.498 1.122 1.122 0 0 1-.379.362.686.686 0 0 1-.303.101.244.244 0 0 1-.22-.06.294.294 0 0 1-.041-.148 1.25 1.25 0 0 1 .047-.303.33.33 0 0 1 .107-.195h.154a.309.309 0 0 0 .22 0 .52.52 0 0 0 .237-.457.45.45 0 0 0-.035-.202.207.207 0 0 0-.089-.095l-.161-.053a.595.595 0 0 1-.344-.237 1.107 1.107 0 0 1-.106-.564c-.003-.272.057-.54.178-.783a1.23 1.23 0 0 1 .48-.516.597.597 0 0 1 .226-.083.3.3 0 0 1 .183 0c.036 0 .054.065.054.136a1.367 1.367 0 0 1-.036.285c0 .107-.053.172-.089.19a.166.166 0 0 1-.089 0 .346.346 0 0 0-.201.041.36.36 0 0 0-.172.184.465.465 0 0 0-.048.214.344.344 0 0 0 .059.237c.055.047.12.08.19.095h.077a.53.53 0 0 1 .309.237c.076.165.108.347.095.528.003.196-.021.392-.071.582v.006Zm1.886-.766a.3.3 0 0 1-.184.261l-.124.072c-.125.07-.184.053-.184-.048v-1.258l-.534.309v1.257a.298.298 0 0 1-.178.256l-.131.077c-.124.071-.184.053-.184-.048v-3.085a.305.305 0 0 1 .184-.261l.131-.071c.119-.071.178-.053.178.047v1.187l.534-.308v-1.187a.296.296 0 0 1 .054-.155.294.294 0 0 1 .13-.1l.124-.077c.125-.071.184-.054.184.047v3.085Zm-42.289 24.212a2.466 2.466 0 0 1-.201-1.187 4 4 0 0 1 .213-1.423c.116-.335.345-.618.647-.801a.81.81 0 0 1 .273-.101c.065 0 .101.041.101.148-.001.12-.017.24-.048.356 0 .113-.059.172-.101.172a.438.438 0 0 0-.201.071.647.647 0 0 0-.285.428 3.32 3.32 0 0 0-.095.866c-.013.256.019.513.095.759a.177.177 0 0 0 .297.095.466.466 0 0 0 .1-.071.731.731 0 0 0 .107-.101h.03c.041 0 .077 0 .095.071.015.1.015.202 0 .303a.472.472 0 0 1 0 .13.353.353 0 0 1-.071.125 1.097 1.097 0 0 1-.143.13.918.918 0 0 1-.184.131c-.279.119-.492.107-.629-.101Zm1.116-.368a.503.503 0 0 1 0-.095l.487-3.37a.347.347 0 0 1 .195-.243l.202-.119c.119-.071.184-.059.196 0l.486 2.807a.575.575 0 0 1 0 .083c0 .071-.047.13-.136.184l-.166.1c-.101.054-.154.054-.166 0l-.083-.545-.481.273-.083.64a.266.266 0 0 1-.148.19l-.166.095c-.066.077-.137.071-.137 0Zm.973-1.744-.142-.949c0-.107-.03-.22-.036-.345l-.036.392-.142 1.109.356-.207Zm.806.682v-3.109a.299.299 0 0 1 .184-.261l.077-.047a.228.228 0 0 1 .101-.03s.048.03.065.071l.594 1.258c.042.102.078.207.107.314a3.21 3.21 0 0 1 0-.367v-1.549a.305.305 0 0 1 .054-.157.305.305 0 0 1 .129-.104l.072-.041c.124-.072.184-.054.184.047v3.067a.305.305 0 0 1-.184.261l-.06.036a.158.158 0 0 1-.101.03c-.029 0-.053 0-.071-.066l-.593-1.305a1.615 1.615 0 0 1-.083-.261c.006.105.006.21 0 .314v1.596a.3.3 0 0 1-.184.261l-.071.048c-.166.113-.22.101-.22-.006Zm2.006-1.4a2.48 2.48 0 0 1-.202-1.187 4 4 0 0 1 .214-1.423 1.51 1.51 0 0 1 .646-.801.865.865 0 0 1 .273-.101c.065 0 .101.041.101.148-.001.12-.015.239-.041.356-.03.113-.066.172-.107.172a.442.442 0 0 0-.202.071.68.68 0 0 0-.285.427 3.371 3.371 0 0 0-.089.867 2.24 2.24 0 0 0 .089.759c.066.142.16.178.297.095l.101-.065.107-.107h.029c.042 0 .077 0 .095.071.028.098.04.201.036.303a.316.316 0 0 1 0 .13.353.353 0 0 1-.071.125 1.173 1.173 0 0 1-.143.13.918.918 0 0 1-.184.131c-.304.142-.526.109-.664-.101Zm1.341-.433a.231.231 0 0 1-.03-.136v-3.008a.428.428 0 0 1 .03-.166.191.191 0 0 1 .089-.095l.931-.54h.066a.415.415 0 0 1 0 .172v.154c.01.065.01.131 0 .196a.162.162 0 0 1-.066.101l-.557.32v.7l.492-.284a.045.045 0 0 1 .036-.016c.006 0 .013.001.019.004a.048.048 0 0 1 .016.012.551.551 0 0 1 0 .172v.154a.803.803 0 0 1 0 .196.196.196 0 0 1-.071.101l-.492.284v.825l.557-.32h.071a.551.551 0 0 1 0 .172v.148a.853.853 0 0 1 0 .202.142.142 0 0 1-.026.054.147.147 0 0 1-.045.041l-.931.54c-.042.035-.071.035-.089.017Zm1.441-.854a.195.195 0 0 1-.029-.131v-3.055a.295.295 0 0 1 .184-.261l.124-.077c.125-.072.184-.054.184.053v2.616l.469-.273h.071a.389.389 0 0 1 0 .173v.148a.586.586 0 0 1 0 .196.132.132 0 0 1-.024.059.147.147 0 0 1-.047.042l-.843.492c-.043.047-.073.053-.089.018Z" fill="#37474F"/><path d="M161.382 126.557a.474.474 0 0 1-.243-.065.592.592 0 0 1-.267-.552v-4.111a1.578 1.578 0 0 1 .724-1.252l13.289-7.659a.595.595 0 0 1 .594-.048.605.605 0 0 1 .261.546v4.118a1.578 1.578 0 0 1-.724 1.251l-13.29 7.66a.745.745 0 0 1-.344.112Zm13.646-13.384-13.29 7.665a1.284 1.284 0 0 0-.593.991v4.111a.324.324 0 0 0 .113.291.318.318 0 0 0 .308-.042l13.29-7.665a1.29 1.29 0 0 0 .593-.99v-4.106a.305.305 0 0 0-.119-.285.318.318 0 0 0-.308.042l.006-.012Z" fill="#37474F"/><path d="M95.203 201.927a3.215 3.215 0 0 0 1.453 2.515l.51.297a3.26 3.26 0 0 0 2.658.118c-.682.261-1.186-.13-1.186-.961v-69.935c.016-.506.163-.998.427-1.43l-3.417-1.969a2.905 2.905 0 0 0-.428 1.429l-.017 69.936Z" fill="#7A6BDE"/><path opacity=".3" d="M95.203 201.927a3.215 3.215 0 0 0 1.453 2.515l.51.297a3.26 3.26 0 0 0 2.658.118c-.682.261-1.186-.13-1.186-.961v-69.935c.016-.506.163-.998.427-1.43l-3.417-1.969a2.905 2.905 0 0 0-.428 1.429l-.017 69.936Z" fill="#fff"/><path d="M99.842 204.454c-.06.035-.124.065-.19.089H99.6a.745.745 0 0 1-.22.036c-.338 0-.391-.392-.391-.629v-69.912a2.56 2.56 0 0 1 .374-1.228 2.52 2.52 0 0 1 .872-.937l71.4-41.191a.905.905 0 0 1 .445-.142c.071 0 .267 0 .35.32.024.099.036.2.036.302v69.936c0 .896 0 1.435-1.11 2.058l-71.513 41.298Z" fill="#FAFAFA"/><path d="M172.044 90.883c.005.07.005.139 0 .208v69.935c0 .843 0 1.187-.908 1.703l-71.513 41.304-.113.053h-.042a.834.834 0 0 1 0-.213v-69.912c.021-.366.133-.721.327-1.032.164-.316.41-.582.712-.772l71.394-41.19a.594.594 0 0 1 .196-.084m.048-.83c-.231.01-.455.077-.653.196l-71.454 41.197a2.91 2.91 0 0 0-1.02 1.085 2.97 2.97 0 0 0-.428 1.43v69.935c0 .659.327 1.039.801 1.039a1.09 1.09 0 0 0 .35-.06h.054c.09-.03.175-.072.255-.124l71.519-41.292c1.311-.736 1.317-1.489 1.317-2.415V91.091a1.75 1.75 0 0 0-.047-.415.753.753 0 0 0-.748-.623h.054Z" fill="#7A6BDE"/><path d="M172.844 90.676c-.172-.593-.735-.813-1.406-.427l-71.394 41.197c-.432.266-.786.64-1.027 1.086l-3.411-1.976c.24-.442.592-.814 1.02-1.08l71.389-41.197a3.23 3.23 0 0 1 2.913 0l.51.297a3.2 3.2 0 0 1 1.406 2.1Z" fill="#7A6BDE"/><path opacity=".6" d="M172.844 90.676c-.172-.593-.735-.813-1.406-.427l-71.394 41.197c-.432.266-.786.64-1.027 1.086l-3.411-1.976c.24-.442.592-.814 1.02-1.08l71.389-41.197a3.23 3.23 0 0 1 2.913 0l.51.297a3.2 3.2 0 0 1 1.406 2.1Z" fill="#fff"/><path d="M103.882 140.648a.387.387 0 0 1-.356-.107.42.42 0 0 1-.065-.231c.002-.167.028-.333.077-.493a.597.597 0 0 1 .166-.32.165.165 0 0 1 .065-.014c.023 0 .045.005.066.014l.13.035a.465.465 0 0 0 .35-.047.823.823 0 0 0 .392-.742.7.7 0 0 0-.059-.326.39.39 0 0 0-.155-.154 1.043 1.043 0 0 0-.255-.083.946.946 0 0 1-.558-.392 1.833 1.833 0 0 1-.172-.908 2.75 2.75 0 0 1 .291-1.275c.173-.343.444-.628.777-.819a.922.922 0 0 1 .362-.13.521.521 0 0 1 .303 0c.059.035.089.106.089.225a2.4 2.4 0 0 1-.054.463c-.041.172-.089.279-.148.308a.286.286 0 0 1-.148 0 .689.689 0 0 0-.327.072.59.59 0 0 0-.278.296.815.815 0 0 0-.077.35.535.535 0 0 0 .094.38.68.68 0 0 0 .315.154l.119.036c.21.056.391.192.504.379.119.271.172.566.154.861a3.223 3.223 0 0 1-.125.878c-.075.29-.2.564-.367.813-.15.24-.353.443-.594.593a1.265 1.265 0 0 1-.516.184Zm2.421-1.579v-4.218l-.594.326c-.053.03-.089 0-.112 0a.728.728 0 0 1-.036-.278v-.244a1.039 1.039 0 0 1 .036-.314.248.248 0 0 1 .112-.16l1.928-1.116c.06-.029.095 0 .119 0 .03.09.042.185.036.279v.255a1.16 1.16 0 0 1-.036.321.273.273 0 0 1-.119.16l-.593.326v4.218a.481.481 0 0 1-.291.422l-.207.118c-.143.095-.243.071-.243-.095Zm1.892-.931a.32.32 0 0 1-.047-.213v-4.853a.57.57 0 0 1 .047-.261.34.34 0 0 1 .143-.161l1.495-.866c.053-.029.089 0 .113.03.029.09.041.184.035.279v.243a1.07 1.07 0 0 1-.035.314.263.263 0 0 1-.113.161l-.896.516v1.133l.795-.457c.053-.03.089 0 .113 0 .03.09.042.185.035.279v.243c.004.106-.008.212-.035.315a.266.266 0 0 1-.113.16l-.795.457v1.269l.902-.522c.053-.03.089 0 .107.03.029.09.041.184.035.279v.243c.004.108-.008.216-.035.32a.24.24 0 0 1-.037.089.259.259 0 0 1-.07.066l-1.501.866c-.083.071-.083.071-.143.041Zm2.261-1.471v-4.93a.596.596 0 0 1 .053-.267.358.358 0 0 1 .155-.16l.878-.511a.665.665 0 0 1 .706-.053c.207.119.308.516.308 1.186.012.403-.048.805-.178 1.187-.087.269-.222.52-.397.742a1.519 1.519 0 0 1-.392.362l-.35.201v1.816a.505.505 0 0 1-.303.427l-.172.101c-.201.089-.308.065-.308-.101Zm1.05-3.429a.55.55 0 0 0 .202-.273c.067-.19.097-.392.089-.593a.855.855 0 0 0-.089-.487.145.145 0 0 0-.094-.058.147.147 0 0 0-.108.022l-.267.161v1.388l.267-.16Zm1.94 1.69a1.992 1.992 0 0 1-.047-.415.323.323 0 0 1 0-.124l1.109-3.121c.061-.169.11-.341.148-.516.032-.124.048-.252.048-.38 0-.184-.036-.297-.107-.35a.27.27 0 0 0-.153-.025.273.273 0 0 0-.144.061.795.795 0 0 0-.231.201 3.299 3.299 0 0 0-.225.303.566.566 0 0 1-.131.172c-.071.041-.142 0-.202-.071a.6.6 0 0 1-.089-.303c.023-.264.134-.512.315-.706.188-.238.42-.44.682-.593.338-.196.593-.214.777-.053a1.135 1.135 0 0 1 .273.878 3.871 3.871 0 0 1-.273 1.352l-.878 2.504 1.021-.593c.053-.036.095 0 .118 0 .03.089.042.184.036.278v.172a1.16 1.16 0 0 1-.036.321.262.262 0 0 1-.118.16l-1.816 1.044s-.047-.047-.077-.196Z" fill="#37474F"/><path d="m166.52 151.475-17.3 9.973a1.84 1.84 0 0 0-.842 1.459v5.34c0 .534.374.753.842.486l17.3-9.973a1.875 1.875 0 0 0 .843-1.459v-5.34c0-.563-.374-.759-.843-.486Zm-10.714 11.865a.392.392 0 0 1-.244.338l-.077.048a.284.284 0 0 1-.136.041c-.036 0-.059-.035-.083-.094l-.783-1.697a2.163 2.163 0 0 1-.113-.338v.029c0 .184.03.321.03.41v2.082a.388.388 0 0 1-.238.338l-.101.06c-.154.089-.237.071-.237-.066v-4.046a.403.403 0 0 1 .237-.338l.107-.065a.293.293 0 0 1 .137-.042c.029 0 .059.036.077.095l.741 1.638c.036.089.084.225.137.409a4.298 4.298 0 0 1-.03-.481v-2.017a.41.41 0 0 1 .238-.344l.094-.053c.161-.095.244-.071.244.065v4.028Zm2.029-4.9a.956.956 0 0 1-.03.261.198.198 0 0 1-.089.124l-.724.422v.913l.641-.367h.089a.48.48 0 0 1 .03.219v.196a.822.822 0 0 1-.03.261.2.2 0 0 1-.089.124l-.641.374v1.021l.73-.416h.089a.581.581 0 0 1 0 .22v.202a.99.99 0 0 1 0 .255.2.2 0 0 1-.089.124l-1.216.7c-.054.03-.089.036-.113 0a.278.278 0 0 1-.041-.166v-3.921a.438.438 0 0 1 .041-.214.291.291 0 0 1 .113-.13l1.186-.695h.089a.59.59 0 0 1 .03.22l.024.273Zm2.058 2.741-.178.101c-.136.077-.207.083-.225 0l-.338-1.418-.368 1.815a.27.27 0 0 1-.065.148l-.16.113-.184.107c-.161.089-.244.101-.244 0 .007-.06.017-.119.03-.178l.593-2.373-.516-1.554a.33.33 0 0 1-.041-.137.214.214 0 0 1 .065-.125.851.851 0 0 1 .184-.136l.19-.113a.506.506 0 0 1 .154-.059c.041 0 .059 0 .071.053l.285 1.323.314-1.661a.274.274 0 0 1 .071-.142.606.606 0 0 1 .161-.119l.178-.089c.16-.095.243-.101.243 0a.892.892 0 0 1-.036.178l-.557 2.183.563 1.709v.065a.281.281 0 0 1 0 .071c.054.054-.029.143-.213.238h.023Zm2.219-5.209a.728.728 0 0 1 0 .255.21.21 0 0 1-.089.13l-.463.267v3.406a.4.4 0 0 1-.237.344l-.166.095c-.16.089-.243.071-.243-.065v-3.406l-.451.261a.06.06 0 0 1-.021.018.06.06 0 0 1-.027.006.058.058 0 0 1-.026-.006.06.06 0 0 1-.021-.018.613.613 0 0 1-.03-.225v-.196a.913.913 0 0 1 .03-.255.25.25 0 0 1 .095-.131l1.56-.895c.042-.03.071 0 .089 0a.503.503 0 0 1 0 .225v.19Z" fill="#7A6BDE"/><path d="M104.582 194.612a.589.589 0 0 1-.314-.083.75.75 0 0 1-.272-.308.75.75 0 0 1-.072-.404v-5.339a2.035 2.035 0 0 1 .937-1.626l17.306-9.979a.705.705 0 0 1 1.133.659v5.339a2.05 2.05 0 0 1-.943 1.626l-17.3 9.973a.961.961 0 0 1-.475.142Zm17.798-17.418-17.3 9.973a1.692 1.692 0 0 0-.747 1.293v5.339a.437.437 0 0 0 .148.38.437.437 0 0 0 .404-.059l17.3-9.979c.216-.142.396-.332.526-.555.129-.224.205-.475.221-.733v-5.339a.433.433 0 0 0-.148-.38.447.447 0 0 0-.404.06Z" fill="#37474F"/><path d="M109.685 190.156a.26.26 0 0 1-.042-.172v-3.933a.516.516 0 0 1 .042-.208.25.25 0 0 1 .112-.124l.736-.427c.593-.333.866-.143.866.593.008.449-.123.89-.374 1.264a.315.315 0 0 1 .327.178c.092.183.135.388.124.593a2.36 2.36 0 0 1-.237 1.044c-.156.31-.399.568-.7.742l-.748.433c-.047.041-.083.041-.106.017Zm.854-3.061a.45.45 0 0 0 .196-.243c.045-.144.065-.294.059-.445a.761.761 0 0 0-.053-.356c-.042-.053-.107-.059-.196 0l-.291.166v1.05l.285-.172Zm.03 1.845c.1-.06.177-.152.219-.261.059-.153.085-.317.077-.48a.623.623 0 0 0-.071-.374c-.047-.054-.124-.054-.225 0l-.315.184v1.103l.315-.172Zm1.168-.036a1.282 1.282 0 0 1 0-.124l.635-4.39a.45.45 0 0 1 .249-.327l.267-.154c.154-.083.237-.071.255.036l.635 3.66v.107a.445.445 0 0 1-.178.243l-.219.125c-.131.077-.202.071-.22 0l-.107-.712-.593.362-.113.836a.332.332 0 0 1-.196.243l-.207.125c-.131.071-.208.059-.208-.03Zm1.27-2.272-.184-1.24c0-.136-.036-.291-.048-.451 0 .178-.029.35-.047.511l-.178 1.447.457-.267Zm1.317.41a3.248 3.248 0 0 1-.261-1.584 5.196 5.196 0 0 1 .273-1.851c.149-.438.447-.81.842-1.05.112-.066.235-.112.362-.137.083 0 .125.06.125.202 0 .156-.018.311-.054.463-.035.148-.083.219-.136.225a.6.6 0 0 0-.267.089.889.889 0 0 0-.368.558 4.408 4.408 0 0 0-.119 1.127c-.018.335.022.67.119.991a.244.244 0 0 0 .392.131l.13-.095.137-.137h.041c.053-.035.095 0 .125.083.03.131.043.264.041.398 0 .058-.01.116-.029.172a.359.359 0 0 1-.095.16 2.116 2.116 0 0 1-.422.344c-.379.196-.664.172-.836-.089Zm3.726-1.739c0 .066-.072.137-.214.22l-.273.154a.36.36 0 0 1-.148.059.07.07 0 0 1-.077-.047l-.558-1.667v1.898a.404.404 0 0 1-.243.344l-.166.095c-.155.095-.238.072-.238-.065v-4.046a.418.418 0 0 1 .072-.202.408.408 0 0 1 .166-.136l.166-.095c.16-.095.243-.071.243.059v1.887l.552-2.296a.416.416 0 0 1 .071-.137.73.73 0 0 1 .142-.106l.226-.131c.148-.089.225-.095.225-.035a.61.61 0 0 1 0 .148l-.641 2.325.689 1.65a.43.43 0 0 1 .006.124Z" fill="#37474F"/><path d="M104.885 151.398a.268.268 0 0 1-.148-.042.287.287 0 0 1-.149-.255v-5.636a.298.298 0 0 1 .149-.261l61.926-35.751a.297.297 0 0 1 .445.261v5.607a.3.3 0 0 1-.149.261l-61.926 35.751a.27.27 0 0 1-.148.065Zm.297-5.737v4.918l61.332-35.43v-4.918l-61.332 35.43Zm-.297 14.126a.317.317 0 0 1-.148-.036.29.29 0 0 1-.11-.11.306.306 0 0 1-.039-.151v-5.612a.289.289 0 0 1 .039-.149.274.274 0 0 1 .11-.106l29.8-17.205a.307.307 0 0 1 .303 0 .31.31 0 0 1 .148.261v5.606a.31.31 0 0 1-.148.261l-29.807 17.205a.314.314 0 0 1-.148.036Zm.297-5.737v4.924l29.207-16.867v-4.918l-29.207 16.861Zm32.618-13.266a.359.359 0 0 1-.155-.035.313.313 0 0 1-.148-.262v-5.612a.292.292 0 0 1 .148-.255l29.017-16.754a.303.303 0 0 1 .15-.04.292.292 0 0 1 .295.301v5.606a.295.295 0 0 1-.148.261l-29.011 16.755a.332.332 0 0 1-.148.035Zm.296-5.737v4.924l28.418-16.41v-4.918l-28.418 16.404Zm-33.211 35.959a.317.317 0 0 1-.148-.036.29.29 0 0 1-.11-.11.306.306 0 0 1-.039-.151v-5.612a.285.285 0 0 1 .149-.255l61.926-35.757a.3.3 0 0 1 .298.001.31.31 0 0 1 .109.11.315.315 0 0 1 .038.15v5.613a.285.285 0 0 1-.149.255l-61.926 35.762a.315.315 0 0 1-.148.03Zm.297-5.731v4.918l61.332-35.406v-4.925l-61.332 35.413Zm32.618-4.853a.307.307 0 0 1-.263-.149.296.296 0 0 1-.04-.148v-5.612a.303.303 0 0 1 .148-.261l29.017-16.748a.293.293 0 0 1 .299.001.291.291 0 0 1 .146.26v5.606a.295.295 0 0 1-.148.261l-29.011 16.748a.279.279 0 0 1-.148.042Zm.296-5.737v4.918l28.418-16.404v-4.918l-28.418 16.404Zm-33.211 24.739a.26.26 0 0 1-.148-.042.274.274 0 0 1-.11-.106.289.289 0 0 1-.039-.149v-5.612c0-.053.013-.105.039-.151a.29.29 0 0 1 .11-.11l29.8-17.205a.307.307 0 0 1 .303 0 .31.31 0 0 1 .148.261v5.606a.31.31 0 0 1-.148.261l-29.807 17.205a.258.258 0 0 1-.148.042Zm.297-5.737v4.918l29.207-16.861v-4.918l-29.207 16.861Z" fill="#E0E0E0"/><path d="M20.058 241.694c-5.511-5.683-8.75-19.418-3.376-23.926h27.35c5.34 4.508 2.136 18.231-3.37 23.92l-.148.161-.19.184c-.154.154-.32.302-.498.45l-.13.101c-.137.107-.273.22-.416.321a8.551 8.551 0 0 1-.718.462c-4.532 2.646-11.865 2.646-16.41 0a7.265 7.265 0 0 1-.712-.468c-.142-.095-.26-.196-.391-.291l-.16-.131a6.646 6.646 0 0 1-.48-.433l-.22-.219a1.232 1.232 0 0 1-.13-.131Z" fill="#37474F"/><path d="M41.653 215.946c6.242 3.649 6.242 9.552 0 13.195-6.24 3.642-16.356 3.642-22.591 0-6.236-3.643-6.242-9.546 0-13.195 6.24-3.648 16.356-3.643 22.591 0Z" fill="#455A64"/><path d="M38.657 217.702c4.58 2.676 4.58 7.013 0 9.688-4.58 2.676-12.013 2.676-16.611 0-4.598-2.675-4.58-7.012 0-9.688 4.58-2.676 12.05-2.676 16.611 0Z" fill="#263238"/><path d="M22.057 222.3c4.586-2.676 12.014-2.676 16.612 0a7.597 7.597 0 0 1 2.741 2.545 7.657 7.657 0 0 1-2.741 2.545c-4.586 2.676-12.014 2.676-16.612 0a7.656 7.656 0 0 1-2.74-2.545 7.596 7.596 0 0 1 2.74-2.545Z" fill="#F0F0F0"/><path d="m19.264 186.188 9.106 6.366-8.804-3.56c.019 2.529.539 5.03 1.53 7.356a54.956 54.956 0 0 1 6.87 4.29l-6.75-2.373s-.463 3.927 1.388 9.913c.486 1.567 2.485 4.557 3.743 6.793a24.884 24.884 0 0 0 1.964 2.967l.13.178c1.549-.777 3.15-1.537 4.818-2.267 1.08-2.011 2.498-6.982 3.008-11.052 1.94-15.586-11.415-24.514-22.16-27.51 0 .017 3.691 4.099 5.157 8.899Z" fill="#7A6BDE"/><path opacity=".2" d="m19.264 186.188 9.106 6.366-8.804-3.56c.019 2.529.539 5.03 1.53 7.356a54.956 54.956 0 0 1 6.87 4.29l-6.75-2.373s-.463 3.927 1.388 9.913c.486 1.567 2.485 4.557 3.743 6.793a24.884 24.884 0 0 0 1.964 2.967l.13.178c1.549-.777 3.15-1.537 4.818-2.267 1.08-2.011 2.498-6.982 3.008-11.052 1.94-15.586-11.415-24.514-22.16-27.51 0 .017 3.691 4.099 5.157 8.899Z" fill="#fff"/><path d="M26.893 186.84c1.863 1.65 2.966 3.821 3.785 5.986a28.392 28.392 0 0 1 1.638 6.746 25.975 25.975 0 0 1-1.952 13.527.216.216 0 0 0 .006.182.217.217 0 0 0 .142.114.268.268 0 0 0 .326-.13 26.324 26.324 0 0 0 1.703-13.723 28.648 28.648 0 0 0-1.78-6.751c-.819-2.166-1.975-4.331-3.868-5.951Z" fill="#FAFAFA"/><path d="M58.692 194.363a123.091 123.091 0 0 0-9.492 11.795l-9.237 1.311 6.81 1.05-3.654 5.108-9.095 1.661 7.12 1.021s-2.024 6.116-7.108 8.656c-2.806 1.406-4.153 1.619-5.02.913-.593-.492-.723-3.423-1.186-6.039-.463-2.617-.528-6.871 2.266-12.002a16.258 16.258 0 0 1 2.913-3.774c6.693-6.597 19.4-9.783 25.683-9.7Z" fill="#7A6BDE"/><path opacity=".5" d="M58.692 194.363a123.091 123.091 0 0 0-9.492 11.795l-9.237 1.311 6.81 1.05-3.654 5.108-9.095 1.661 7.12 1.021s-2.024 6.116-7.108 8.656c-2.806 1.406-4.153 1.619-5.02.913-.593-.492-.723-3.423-1.186-6.039-.463-2.617-.528-6.871 2.266-12.002a16.258 16.258 0 0 1 2.913-3.774c6.693-6.597 19.4-9.783 25.683-9.7Z" fill="#fff"/><path d="M49.028 197.026c-4.746 1.845-9.297 4.385-12.85 7.826a22.463 22.463 0 0 0-4.403 5.766 19.25 19.25 0 0 0-2.005 6.692 25.086 25.086 0 0 1 6.698-12.215c3.435-3.447 7.861-6.063 12.572-8.027v-.03l-.012-.012Z" fill="#FAFAFA"/><path d="M3.654 197.727c.777-.012 1.553.018 2.326.089 3.027.31 6.011.95 8.9 1.91a43.9 43.9 0 0 1 3.179 1.187c.522.219 1.038.45 1.554.7a25.551 25.551 0 0 1 6.811 4.538c.913.863 1.71 1.84 2.373 2.907.083.137.172.273.25.41.195.361.373.712.54 1.062a17.631 17.631 0 0 1 2.01 9.646c-.1 2.338-1.002 5.013-1.518 5.452a1.135 1.135 0 0 1-.226.149c-.76.427-1.958.178-4.206-.932-4.503-2.219-6.27-7.843-6.27-7.843l-1.78-2.373-3.264-4.485 6.01-.967-8.199-1.086a107.934 107.934 0 0 0-8.478-10.358l-.012-.006Z" fill="#7A6BDE"/><path opacity=".5" d="M3.654 197.727c.777-.012 1.553.018 2.326.089 3.027.31 6.011.95 8.9 1.91a43.9 43.9 0 0 1 3.179 1.187c.522.219 1.038.45 1.554.7a25.551 25.551 0 0 1 6.811 4.538c.913.863 1.71 1.84 2.373 2.907.083.137.172.273.25.41.195.361.373.712.54 1.062a17.631 17.631 0 0 1 2.01 9.646c-.1 2.338-1.002 5.013-1.518 5.452a1.135 1.135 0 0 1-.226.149c-.76.427-1.958.178-4.206-.932-4.503-2.219-6.27-7.843-6.27-7.843l-1.78-2.373-3.264-4.485 6.01-.967-8.199-1.086a107.934 107.934 0 0 0-8.478-10.358l-.012-.006Z" fill="#fff"/><path opacity=".4" d="M5.98 197.816c3.027.31 6.011.951 8.899 1.91 1.062.35 2.13.748 3.18 1.187a32.49 32.49 0 0 1 1.554.7c2.5 1.137 4.8 2.67 6.811 4.538a14.58 14.58 0 0 1 2.373 2.907c.083.137.172.273.25.41.195.362.373.712.54 1.062a17.63 17.63 0 0 1 2.01 9.646c-.1 2.338-1.002 5.014-1.518 5.453a1.133 1.133 0 0 1-.226.148 1.628 1.628 0 0 1-.498.166c.558-3.631-1.466-12.821-4.527-16.612-3.192-3.945-10.78-9.628-21.162-11.598a22.92 22.92 0 0 1 2.314.083Z" fill="#7A6BDE"/><path d="M29.349 225.943a27.438 27.438 0 0 0-.593-8.021 24.164 24.164 0 0 0-3.014-7.6 23.946 23.946 0 0 0-6.105-6.016 35.518 35.518 0 0 0-7.85-4.158.037.037 0 0 0-.017.005 45.455 45.455 0 0 1 7.529 4.45 32.007 32.007 0 0 1 3.31 2.717 18.057 18.057 0 0 1 2.765 3.127 23.808 23.808 0 0 1 3.12 7.469c.65 2.603.916 5.287.79 7.968 0 0 .065.071.065.059Z" fill="#FAFAFA"/><path d="m204.235 210.292 3.898-9.332 11.065 4.372c-5.061 5.809-10.46 12.815-11.599 15.271 0 0-5.844-.842-6.965-3.702-1.121-2.859 2.13-5.523 3.601-6.609Z" fill="#FFA8A7"/><path d="M198.03 214.285a4.63 4.63 0 0 0-1.187 1.483c-.332.593 0 3.227-.279 4.491-.278 1.264-.51 1.608-.984 3.204-.528 1.779-1.62 3.417.071 7.712 1.691 4.296 4.04 6.247 5.968 7.191a4.875 4.875 0 0 0 2.266.373s2.373-1.097 1.875-2.497c-.498-1.4-7.73-21.957-7.73-21.957Z" fill="#263238"/><path d="M209.011 218.355a5.321 5.321 0 0 1-.848 1.59c-.778 1.317-1.05 3.031-1.24 4.526-.914 7.084 2.124 10.424-1.436 13.319-1.038.766-3.31.748-7.066-3.399-1.916-2.112-3.257-6.663-2.729-8.804.528-2.142 1.359-3.56 1.679-5.215.32-1.655-.131-4.622.659-6.069a6.477 6.477 0 0 1 2.04-2.035c.635-.457 2.053-1.098 2.7-1.531.646-.433.996-.908 1.465-.445l-.712 1.026c-1.097 1.78-.735 2.012-.641 2.907.022.975-.059 1.95-.243 2.907.789-1.186 1.074-2.147 2.041-2.052.967.095 1.074.047 2.527 1.222 1.454 1.175 1.834 1.643 1.804 2.053Z" fill="#7A6BDE"/><path opacity=".4" d="M209.011 218.355a5.321 5.321 0 0 1-.848 1.59c-.778 1.317-1.05 3.031-1.24 4.526-.914 7.084 2.124 10.424-1.436 13.319-1.038.766-3.31.748-7.066-3.399-1.916-2.112-3.257-6.663-2.729-8.804.528-2.142 1.359-3.56 1.679-5.215.32-1.655-.131-4.622.659-6.069a6.477 6.477 0 0 1 2.04-2.035c.635-.457 2.053-1.098 2.7-1.531.646-.433.996-.908 1.465-.445l-.712 1.026c-1.097 1.78-.735 2.012-.641 2.907.022.975-.059 1.95-.243 2.907.789-1.186 1.074-2.147 2.041-2.052.967.095 1.074.047 2.527 1.222 1.454 1.175 1.834 1.643 1.804 2.053Z" fill="#000"/><path opacity=".3" d="M198.433 234.391c-1.916-2.112-3.257-6.662-2.729-8.804.178-.706.396-1.401.652-2.083 0 .143-.053.291-.059.41 0 .273-.042.551-.047.824a6.258 6.258 0 0 0 .593 3.139c.463.842 1.536 2.966 2.711 2.919.67 0 1.187-.718 1.382-1.478.083-.32.202-1.186.202-1.186a10.34 10.34 0 0 1 3.144 1.02c1.78.997 1.739 1.252 1.739 1.252-.065.5-.045 1.008.059 1.501.138.53.391 1.022.742 1.442.14.123.296.229.462.314a4.55 4.55 0 0 1-1.779 4.124c-1.056.771-3.329.753-7.072-3.394Z" fill="#000"/><path d="M206.923 224.471a23.63 23.63 0 0 0 0 5.613c-.511 1.833-1.074 1.821-1.187.901-.113-.919.801-4.853 1.483-8.098-.154.54-.231 1.074-.296 1.584Zm-5.079-10.874a3.946 3.946 0 0 1 .493-2.605c.166-.089.314-.178.433-.255.706-.474.997-.907 1.465-.445l-.712 1.027c-1.097 1.78-.735 2.011-.64 2.907.021.975-.06 1.949-.244 2.907-.486 3.085-1.056 4.153-1.186 7.03-.131 2.878.593 4.746.202 4.96-.392.214-1.234-.071-1.555-2.373-.32-2.302.41-6.212.985-8.092.576-1.881.997-3.845.759-5.061Z" fill="#37474F"/><path d="M200.925 228.351a.337.337 0 0 0 .154.072 6.85 6.85 0 0 1 4.746 2.337.286.286 0 0 0 .406.003.28.28 0 0 0 .086-.202.282.282 0 0 0-.083-.204 7.404 7.404 0 0 0-5.108-2.504.28.28 0 0 0-.212.058.27.27 0 0 0-.073.085.266.266 0 0 0-.035.106.274.274 0 0 0 .119.249Zm.184-2.414c.043.035.094.06.148.071a7.713 7.713 0 0 1 5.037 2.569.285.285 0 0 0 .415 0 .295.295 0 0 0 0-.415 8.243 8.243 0 0 0-5.339-2.735.292.292 0 0 0-.316.163.293.293 0 0 0 .079.347h-.024Zm-.243-2.622a.367.367 0 0 0 .16.077 8.753 8.753 0 0 1 5.63 2.883.325.325 0 0 0 .367.096.335.335 0 0 0 .113-.072.337.337 0 0 0 .097-.244.34.34 0 0 0-.032-.13.344.344 0 0 0-.082-.107 9.383 9.383 0 0 0-5.992-3.067.331.331 0 0 0-.232.015.33.33 0 0 0-.175.397.324.324 0 0 0 .146.181v-.029Zm.213-2.273a.299.299 0 0 0 .16.071 8.536 8.536 0 0 1 5.506 2.824.307.307 0 0 0 .223.093.31.31 0 0 0 .222-.093.304.304 0 0 0 .07-.103.3.3 0 0 0 .025-.122.3.3 0 0 0-.025-.122.304.304 0 0 0-.07-.103 9.119 9.119 0 0 0-5.862-2.996.3.3 0 0 0-.123.004.3.3 0 0 0-.112.051.317.317 0 0 0-.126.206.331.331 0 0 0 .112.29Zm.659-2.248a.39.39 0 0 0 .166.077 8.48 8.48 0 0 1 5.499 2.818.328.328 0 0 0 .451 0 .318.318 0 0 0 0-.451 9.118 9.118 0 0 0-5.855-2.996.318.318 0 0 0-.319.145.315.315 0 0 0-.029.274.318.318 0 0 0 .087.133Z" fill="#EBEBEB"/><path d="M190.904 179.875s24.408-4.301 33.692-4.242c9.493.059 10.359 7.173 7.986 11.533-4.539 8.342-19.204 25.392-19.204 25.392s-5.903-1.779-7.529-6.371l3.073-8.253-18.391 2.527-3.341-2.373 3.714-18.213Z" fill="#7A6BDE"/><path opacity=".5" d="M190.904 179.875s24.408-4.301 33.692-4.242c9.493.059 10.359 7.173 7.986 11.533-4.539 8.342-19.204 25.392-19.204 25.392s-5.903-1.779-7.529-6.371l3.073-8.253-18.391 2.527-3.341-2.373 3.714-18.213Z" fill="#fff"/><path opacity=".3" d="M215.247 204.36c-2.041-2.599-3.394-3.204-7.06-4.474l-2.338 6.271c1.626 4.568 7.523 6.348 7.523 6.348s1.697-1.964 4.105-4.888a35.826 35.826 0 0 0-2.23-3.257Zm-5.049-14.257c-1.187 1.78-2.225 3.358-3.103 4.877-.878 1.519-3.613 2.26-6.384 1.691-3.447-.706-7.356-2.427-9.635-3.406 2.522-4.805 1.365-8.151 1.365-8.151.178 3.168-1.887 5.897-3.002 7.439l-1.228 1.454.694 4.811 1.323 1.614 15.805-2.165 2.569-.35c3.263-7.778 4.515-11.195 8.543-12.791 0-.012-3.435-.267-6.947 4.977Z" fill="#7A6BDE"/><path d="M220.699 239.445c.029-1.269 1.542-3.186 4.491-3.648 2.948-.463 3.12.059 4.675 1.014 1.05.653-.789 7.024-.789 7.024s-3.406-2.545-4.889-2.521c-1.483.024-3.209-.231-3.488-1.869Z" fill="#37474F"/><path d="M216.486 220.728a2.055 2.055 0 0 0-1.619.919.668.668 0 0 0-.072.659l11.035 19.335a.661.661 0 0 0 .594.273 2.057 2.057 0 0 0 1.619-.92.664.664 0 0 0 .071-.658l-11.034-19.335a.652.652 0 0 0-.594-.273Z" fill="#E0E0E0"/><path opacity=".1" d="M216.486 220.728a2.055 2.055 0 0 0-1.619.919.668.668 0 0 0-.072.659l11.035 19.335a.661.661 0 0 0 .594.273 2.057 2.057 0 0 0 1.619-.92.664.664 0 0 0 .071-.658l-11.034-19.335a.652.652 0 0 0-.594-.273Z" fill="#000"/><path d="M222.586 235.957c.498.718 2.681-.593 2.236-1.394.481-.059.831-.125 1.418.997.587 1.121 3.56 1.465 4.224 2.373.665.908-.635 3.559-2.652 4.865-2.017 1.305-4.859-.665-5.298-1.549-.812-1.649.878-2.486.261-3.559-.314-.558-.658-1.276-.189-1.733Z" fill="#263238"/><path d="M214.867 221.653a.592.592 0 0 0 .534.932 2.06 2.06 0 0 0 1.62-.926.66.66 0 0 0 .065-.658.65.65 0 0 0-.593-.273 2.045 2.045 0 0 0-1.626.925Z" fill="#455A64"/><path d="M217.216 220.218a4.012 4.012 0 0 0-3.144 1.78 1.282 1.282 0 0 0-.137 1.281l.659 1.151a1.265 1.265 0 0 0 1.186.534 3.987 3.987 0 0 0 1.788-.514 3.99 3.99 0 0 0 1.362-1.266 1.278 1.278 0 0 0 .137-1.281l-.659-1.157a1.27 1.27 0 0 0-1.192-.528Z" fill="#E0E0E0"/><path d="M214.072 222.033a1.101 1.101 0 0 0 1.038 1.815 3.987 3.987 0 0 0 3.144-1.779 1.104 1.104 0 0 0-1.038-1.816 4.012 4.012 0 0 0-3.144 1.78Z" fill="#EBEBEB"/><path d="M213.039 213.864a2.953 2.953 0 0 0-1.324.386c-.406.23-.751.554-1.007.943a.944.944 0 0 0-.101.949l3.88 6.799a.947.947 0 0 0 .872.403 2.96 2.96 0 0 0 2.331-1.335.94.94 0 0 0 .101-.949l-3.88-6.775a.95.95 0 0 0-.872-.421Z" fill="#455A64"/><path d="M210.708 215.193a.817.817 0 0 0 .276 1.292c.157.07.333.089.502.054a2.958 2.958 0 0 0 2.337-1.329.818.818 0 0 0-.771-1.346 2.973 2.973 0 0 0-2.344 1.329Z" fill="#455A64"/><path d="M217.341 213.181c-1.258-2.521-1.78-3.702-3.132-5.933-2.065-3.482-2.866-3.897-6.034-5.137-4.26-1.668-7.422-2.664-7.422-2.664s-4.034 2.782-5.339 6.051a9.364 9.364 0 0 0-.594 2.854 23.603 23.603 0 0 0 .754 7.119s7.641 1.394 8.792 2.373c.777.6 1.463 1.309 2.035 2.106.415.594 1.448.979 2.676.985a10.08 10.08 0 0 0 7.926-4.521c.736-1.269.813-2.408.338-3.233Z" fill="#F28F8F"/><path d="M194.761 209.183v.373c3.559.072 9.492 1.347 11.865 4.681 1.62 2.284 3.251 4.895 4.218 6.473l.38-.101c-.961-1.572-2.64-4.254-4.295-6.591-2.456-3.447-8.496-4.764-12.168-4.835Z" fill="#B16668"/><path d="M198.569 211.319a.59.59 0 0 1-.373.718.592.592 0 0 1-.718-.368.597.597 0 0 1 .04-.435.597.597 0 0 1 .328-.289.595.595 0 0 1 .723.374Zm4.076.824a.593.593 0 1 1-1.185.074.593.593 0 0 1 1.185-.074Zm3.364 2.599a.592.592 0 0 1-.367.724.593.593 0 1 1-.356-1.092.594.594 0 0 1 .723.368Zm2.724 3.589a.597.597 0 0 1-.368.724.594.594 0 0 1-.356-1.092.592.592 0 0 1 .724.368Z" fill="#B16668"/><path d="M223.232 245.627a4.802 4.802 0 0 0 1.08 1.549c.457.486 3.085.961 4.212 1.578a33.321 33.321 0 0 1 2.776 1.875c1.537 1.014 2.801 2.545 7.416 2.183 4.616-.362 7.155-2.047 8.615-3.613a4.914 4.914 0 0 0 1.02-2.065s-.362-2.569-1.845-2.521c-1.483.047-23.274 1.014-23.274 1.014Z" fill="#263238"/><path d="M231.028 236.284c.433.166.973.943 1.281 1.275a9.301 9.301 0 0 0 3.245 2.522c6.526 2.936 10.59 1.008 12.323 5.256.427 1.216-.25 3.382-5.31 5.767-2.587 1.222-7.321 1.186-9.22.047-1.898-1.139-3.019-2.343-4.497-3.126-1.477-.783-4.461-1.228-5.618-2.373a6.532 6.532 0 0 1-1.353-2.546c-.249-.741-.943-3.286-.943-3.286 1.388 1.572 2.753.996 3.643 1.186a14.23 14.23 0 0 1 2.705 1.08c-.878-1.092-1.738-1.655-1.364-2.545.373-.89.35-1.015 1.904-2.065 1.554-1.05 2.824-1.341 3.204-1.192Z" fill="#7A6BDE"/><path opacity=".4" d="M231.028 236.284c.433.166.973.943 1.281 1.275a9.301 9.301 0 0 0 3.245 2.522c6.526 2.936 10.59 1.008 12.323 5.256.427 1.216-.25 3.382-5.31 5.767-2.587 1.222-7.321 1.186-9.22.047-1.898-1.139-3.019-2.343-4.497-3.126-1.477-.783-4.461-1.228-5.618-2.373a6.532 6.532 0 0 1-1.353-2.546c-.249-.741-.943-3.286-.943-3.286 1.388 1.572 2.753.996 3.643 1.186a14.23 14.23 0 0 1 2.705 1.08c-.878-1.092-1.738-1.655-1.364-2.545.373-.89.35-1.015 1.904-2.065 1.554-1.05 2.824-1.341 3.204-1.192Z" fill="#000"/><path opacity=".3" d="M242.567 251.104c-2.587 1.222-7.321 1.186-9.22.047a19.064 19.064 0 0 1-1.78-1.234c.131.059.261.137.38.178.255.101.51.196.771.285a6.303 6.303 0 0 0 3.174.356c.938-.196 3.275-.593 3.56-1.744.172-.641-.338-1.335-1.009-1.751-.284-.172-1.073-.533-1.073-.533.481-1 1.12-1.915 1.892-2.712 1.477-1.418 1.709-1.299 1.709-1.299.457.208.947.336 1.447.38a3.641 3.641 0 0 0 1.596-.291c.16-.097.307-.213.439-.344a4.564 4.564 0 0 1 3.429 2.895c.422 1.216-.255 3.358-5.315 5.767Z" fill="#000"/><path d="M235.625 240.045a23.54 23.54 0 0 0 5.286 1.691c1.608 1.02 1.43 1.56.511 1.43-.92-.131-5.583-2.676-6.817-3.56.486.231.552.225 1.02.439Zm-11.954 1.726c-.872-.095-1.555-.053-2.296-.486a2.27 2.27 0 0 1-.593-2.332 1.44 1.44 0 0 0 .676 1.335c.795.54 2.237.504 3.126.67.937.267 1.843.629 2.706 1.08 2.806 1.365 3.654 2.225 6.378 3.18 2.723.955 4.746.825 4.805 1.252.059.427-.427 1.186-2.705.801-2.278-.386-5.82-2.201-7.452-3.305-1.631-1.103-3.417-2.07-4.645-2.195Z" fill="#37474F"/><path d="M237.518 246.951a.277.277 0 0 0 .107-.125c.316-.856.8-1.641 1.424-2.308a6.855 6.855 0 0 1 2.206-1.578.283.283 0 0 0 .14-.168c.011-.036.015-.073.011-.111a.266.266 0 0 0-.032-.106.28.28 0 0 0-.168-.14c-.036-.011-.074-.014-.111-.011a.283.283 0 0 0-.106.032 7.407 7.407 0 0 0-3.886 4.153.287.287 0 0 0-.006.219.289.289 0 0 0 .148.161.3.3 0 0 0 .273-.018Zm-2.255-.879a.313.313 0 0 0 .107-.124 7.712 7.712 0 0 1 3.928-4.07.289.289 0 0 0 .155-.288.277.277 0 0 0-.037-.109.282.282 0 0 0-.173-.143.285.285 0 0 0-.224.024 8.26 8.26 0 0 0-4.153 4.331.29.29 0 0 0 .136.391.3.3 0 0 0 .261-.012Zm-2.58-.534a.34.34 0 0 0 .119-.136 8.728 8.728 0 0 1 4.402-4.539.325.325 0 1 0-.303-.575 9.38 9.38 0 0 0-4.651 4.847.317.317 0 0 0 .148.433.33.33 0 0 0 .285-.03Zm-2.112-.866a.301.301 0 0 0 .112-.13 8.52 8.52 0 0 1 4.308-4.444.324.324 0 0 0 .13-.433.32.32 0 0 0-.433-.131 9.129 9.129 0 0 0-4.574 4.747.321.321 0 0 0 .148.427.345.345 0 0 0 .159.02.327.327 0 0 0 .15-.056Zm-1.958-1.287a.368.368 0 0 0 .118-.13 8.484 8.484 0 0 1 4.302-4.444.324.324 0 0 0 .052-.529.323.323 0 0 0-.231-.071.351.351 0 0 0-.118.036 9.162 9.162 0 0 0-4.58 4.747.324.324 0 0 0 .148.427.345.345 0 0 0 .159.02.327.327 0 0 0 .15-.056Z" fill="#EBEBEB"/><path d="M223.944 226.37c-1.993 5.15-9.445 5.975-9.445 5.975s-2.07-2.759-3.738-4.806c-4.058-4.978-5.297-6.188-7.178-9.801-6.864-1.37-24.461-4.153-33.609-8.982-8.377-4.438-12.186-9.896-11.427-21.168.76-11.272 33.479-7.855 33.479-7.855l-1.121 3.216c.172 3.506.189 8.59-2.694 11.052 0 0 8.306 3.174 14.779 5.696 2.278.89 4.319 1.696 5.671 2.254 2.373.985 3.679 1.4 6.075 5.589a157.534 157.534 0 0 1 9.208 18.83Z" fill="#7A6BDE"/><path opacity=".6" d="M223.944 226.37c-1.993 5.15-9.445 5.975-9.445 5.975s-2.07-2.759-3.738-4.806c-4.058-4.978-5.297-6.188-7.178-9.801-6.864-1.37-24.461-4.153-33.609-8.982-8.377-4.438-12.186-9.896-11.427-21.168.76-11.272 33.479-7.855 33.479-7.855l-1.121 3.216c.172 3.506.189 8.59-2.694 11.052 0 0 8.306 3.174 14.779 5.696 2.278.89 4.319 1.696 5.671 2.254 2.373.985 3.679 1.4 6.075 5.589a157.534 157.534 0 0 1 9.208 18.83Z" fill="#fff"/><path opacity=".3" d="M217.857 231.52a814.783 814.783 0 0 0-9.012-12.578 54.76 54.76 0 0 1-1.999-2.924c-1.312-2.024-2.178-3.358-3.756-3.744-.344-.083-1.186-.249-2.373-.504-6.277-1.282-22.948-4.699-28.738-7.832-.172-.095-.332-.195-.499-.296 1.982-1.964 1.78-5.725.25-8.039-1.626-2.474-2.866-7.398-1.964-9.795l-.493-.184c-1.05 2.794.493 7.95 2.012 10.27 1.423 2.171 1.578 5.76-.279 7.469-5.547-3.471-8.342-9.534-8.093-17.626h-.522c-.272 8.768 2.967 15.229 9.339 18.682 5.855 3.168 22.586 6.597 28.886 7.885 1.187.243 2.035.421 2.373.498 1.371.338 2.195 1.602 3.441 3.518.558.866 1.187 1.845 2.017 2.966 2.006 2.712 5.731 8.099 8.793 12.459l.617-.225Z" fill="#7A6BDE"/><path d="M181.732 142.861c4.485-.054 6.989 2.474 8.472 7.623 1.483 5.15 3.916 15.704 3.916 15.704a1325.91 1325.91 0 0 1 5.647 4.153l-4.805 6.663-10.086-5.53-2.106-15.223-1.038-13.39Z" fill="#FFA8A7"/><path d="M158.179 165.779c.753-10.946 2.189-16.256 3.275-19.84a47.268 47.268 0 0 1 6.662-1.572 90.255 90.255 0 0 1 9.101-1.246c3.222-.261 4.515-.261 4.515-.261 2.373 2.255 8.739 7.292 10.738 11.866a9.365 9.365 0 0 1-2.723 10.78c.048 3.251 0 7.712 0 7.712s.593 3.779 2.421 6.479c-.522 5.387-5.933 9.344-15.544 11.942a25.67 25.67 0 0 1-18.32-1.886s-.867-13.129-.125-23.974Z" fill="#F5F5F5"/><path d="M182.242 166.734s-2.592 3.488-8.05 3.103c-5.631-.392-6.918-4.99-6.918-4.99s0 6.093 6.745 6.568a8.093 8.093 0 0 0 8.223-4.681Z" fill="#E0E0E0"/><path d="M187.309 129.18c-5.529 8.306-16.754 3.447-16.754 3.447l.166 9.848a16.23 16.23 0 0 1-7.617-2.035c-2.967-14.446-1.49-18.136 1.524-19.578.19-7.713 11.741-9.955 18.588-6.253 4.046 2.213 7.991 7.238 4.093 14.571Z" fill="#263238"/><path d="M184.894 121.004c1.644 1.009 3.002 5.541 2.16 11.996-.635 4.9-2.154 6.858-4.183 7.902-.973.505-2.598.772-4.781.517l-.386 3.263s8.81 6.941 2.842 7.849c-7.031 1.079-13.082-7.956-13.082-7.956l1.187-10.412c-.404.646-2.664 1.56-4.183-.421-1.78-2.32-1.353-5.073.267-6.07 1.62-.996 3.56 0 4.283 1.869 1.721.736 4.669-.759 4.622-7.457 3.447-1.875 4.628.955 7.256.664 1.993-.219 1.969-2.853 3.998-1.744Z" fill="#FFA8A7"/><path d="M165.459 132.876a.885.885 0 0 0 .166.676.897.897 0 0 0 .599.356.908.908 0 1 0-.765-1.032Z" fill="#7A6BDE"/><path d="M178.09 141.419c-5.34-1.186-8.306-3.411-8.858-5.583 0 0 .314 2.836 1.78 4.1 2.094 1.78 6.882 2.913 6.882 2.913l.196-1.43Z" fill="#F28F8F"/><path d="M178.261 129.446a.948.948 0 0 1-.949.944.96.96 0 0 1-.908-.997.93.93 0 0 1 .583-.907.94.94 0 0 1 .745.022.922.922 0 0 1 .529.938Zm-1.186-3.44-1.934 1.186a1.188 1.188 0 0 1 .386-1.608 1.113 1.113 0 0 1 .863-.118 1.12 1.12 0 0 1 .685.54Z" fill="#263238"/><path d="m177.971 134.721 2.575 1.246a1.502 1.502 0 0 1-1.964.676 1.392 1.392 0 0 1-.611-1.922Z" fill="#B16668"/><path d="m185.938 127.263-1.91-1.257a1.1 1.1 0 0 1 1.143-.523c.147.027.287.084.411.167a1.182 1.182 0 0 1 .356 1.613Zm-.397 2.231a.935.935 0 0 1-.69.76.93.93 0 0 1-1.16-.837.935.935 0 0 1 1.031-.991.952.952 0 0 1 .819 1.068Z" fill="#263238"/><path d="m184.194 132.9-3.245 1.4-.926-6.354c1.205-.415 2.7 2.515 4.171 4.954Zm-4.882 3.874a1.895 1.895 0 0 0-1.495-1.555c-.038.288.015.58.152.836.138.255.352.461.613.588.227.107.479.152.73.131Z" fill="#F28F8F"/><path d="M226.424 187.344v.421a1.743 1.743 0 0 1-.819 1.531L195.846 207.8a1.714 1.714 0 0 1-.854.261 1.858 1.858 0 0 1-.884-.201l-16.825-9a1.725 1.725 0 0 1-.914-1.472v-.593a.212.212 0 0 0 .119.19l18.498 9.89 31.438-19.531Z" fill="#37474F"/><path d="m194.968 206.905.036 1.156c.305-.009.601-.099.86-.261l29.759-18.504a1.785 1.785 0 0 0 .818-1.536v-.422l-31.473 19.567Z" fill="#263238"/><path d="m226.429 187.339-18.326-9.789a1.027 1.027 0 0 0-1.038.029l-30.583 19.044a.233.233 0 0 0-.083.313c.02.035.048.064.083.085l18.498 9.89 31.449-19.572Z" fill="#455A64"/><path d="m194.755 205.386-9.89-5.274 27.83-17.312 9.938 5.244-27.878 17.342Z" fill="#37474F"/><path d="m222.633 188.044-.368.226-9.558-5.043-27.463 17.086-.373-.201 27.824-17.312 9.938 5.244Zm-33.159 1.935.178.095 4.847 2.592 8.294-5.161.172-.107-5.025-2.688-8.466 5.269Z" fill="#263238"/><path d="m189.652 190.073 4.847 2.593 8.294-5.162-4.847-2.587-8.294 5.156Z" fill="#37474F"/><path d="M218.96 183.268c-1.008-1.4-2.248-2.634-3.156-4.099a25.166 25.166 0 0 0-2.937-2.569c-3.002-2.124-3.755-2.065-7.552-3.251a16.309 16.309 0 0 1-5.547-2.967l-4.806 6.663a36.92 36.92 0 0 1 1.614.943c.854.516 1.958 2.373 3.886 3.121 2.551.955 5.541.279 5.826 1.014.006.468.074.933.202 1.383a4.73 4.73 0 0 0-1.495-.38c-.469 0-1.133.552-.997.878.136.326.433.445.771.712.232.184 1.027.825 1.133.896a4.57 4.57 0 0 0 2.373.362 1.044 1.044 0 0 0 .778-.683c.177.075.36.138.546.19a1.46 1.46 0 0 0 1.038-.071.883.883 0 0 0 .332-.492c.428-.024.85-.112 1.252-.261.557-.315.563-1.015.664-1.573a6.952 6.952 0 0 0 .066-2.106c1.708 1.033 3.037 2.967 5.102 3.317.765.083 1.738-.202.907-1.027Zm-67.497-7.665c.481-8.11 2.124-15.888 3.251-21.826.944-4.942 2.605-7.025 6.74-7.838 4.639 2.575 4.497 11.694 4.153 14.002l-3.245 15.146s4.651 2.634 8.899 5.061c3.559 2.046 5.933 3.731 9.907 3.749 3.975.018 5.524-.296 7.666.356 1.139.35 3.731 1.187 4.627 1.489.896.303 2.581 1.685 4.094 2.557 1.513.872-.137 1.667-1.187 1.483a13.262 13.262 0 0 1-3.245-1.139 17.803 17.803 0 0 0-2.747-.706c.402.972.706 1.982.908 3.014.071.558.273 1.228-.172 1.691-.34.263-.718.473-1.122.623a.846.846 0 0 1-.166.593c-.267.24-.614.371-.973.368a3.913 3.913 0 0 1-.593 0 1.067 1.067 0 0 1-.546.884 4.566 4.566 0 0 1-2.373.356c-.118-.036-1.068-.415-1.347-.522a2.402 2.402 0 0 1-.943-.451c-.225-.273.243-1.008.694-1.133a4.81 4.81 0 0 1 1.537-.077 5.23 5.23 0 0 1-.593-1.264c-.493-.593-3.412.404-6.129.249-2.047-.118-3.72-1.863-4.669-2.171-6.093-1.94-10.72-3.263-16.968-6.117-5.719-2.652-5.701-4.17-5.458-8.377Z" fill="#FFA8A7"/><path d="M190.904 188.062c-.397-.724-.973-1.578-1.578-1.72a6.797 6.797 0 0 1 1.038 1.596l.54.124Zm-.925 5.203a6.222 6.222 0 0 0-.137-1.661 15.032 15.032 0 0 0-.403-1.62 7.032 7.032 0 0 0-.629-1.554 3.053 3.053 0 0 0-1.145-1.216c.21.176.389.387.528.623.152.224.285.46.398.706.219.498.402 1.011.545 1.536.166.522.315 1.05.469 1.578.158.528.283 1.065.374 1.608Zm-1.715.92a7.926 7.926 0 0 0-.19-1.625 13.33 13.33 0 0 0-.427-1.585c-.17-.52-.379-1.028-.623-1.518a3.19 3.19 0 0 0-.991-1.276c.19.191.341.417.445.665.119.243.226.486.321.735.195.505.379 1.009.545 1.519.339 1.003.665 2.023.92 3.085Zm-4.527-.866a2.89 2.89 0 0 1 .683 0c.225 0 .391.118.67.172l-.131-.161c0 .111.029.219.083.315.046.09.109.17.184.237a.925.925 0 0 0 .487.243 2.616 2.616 0 0 1-.32-.385.87.87 0 0 1-.089-.208.578.578 0 0 1-.036-.184v-.124l-.137-.036a1.927 1.927 0 0 0-.646-.065 1.368 1.368 0 0 0-.748.196Z" fill="#F28F8F"/><path d="M195.466 207.166a2.051 2.051 0 0 0 1.78-.196l29.628-18.427a2.061 2.061 0 0 0 .955-1.471l2.641-19.84a2.383 2.383 0 0 0 0-.338 2.061 2.061 0 0 0-.659-1.441l-30.785 19.168a1.535 1.535 0 0 0-.706 1.086l-2.854 21.459Z" fill="#263238"/><path d="m194.968 206.91.208.107c.093.052.19.096.291.131l2.871-21.459a1.532 1.532 0 0 1 .688-1.068l30.785-19.151a1.859 1.859 0 0 0-.427-.303l-30.85 19.187a1.503 1.503 0 0 0-.706 1.086l-2.86 21.47Z" fill="#455A64"/><path d="m198.611 185.025-.498-.267c-.14.198-.231.425-.267.664l-2.878 21.489.208.106c.093.052.19.096.291.131l2.871-21.459c.036-.24.129-.468.273-.664Z" fill="#37474F"/><path d="M211.877 188.388c.178-1.329 1.483-3.126 2.913-4.016 1.429-.89 2.45-.54 2.272.789-.178 1.329-1.483 3.126-2.913 4.016-1.43.89-2.45.54-2.272-.789Zm4.532-20.088-2.041-3.85 1.643-4.746v-2.901l-5.025 2.901v2.901l2.16 3.744a.285.285 0 0 0 .148.13l3.115 1.821Z" fill="#7A6BDE"/><path opacity=".3" d="m216.409 168.3-2.041-3.85 1.643-4.746v-2.901l-5.025 2.901v2.901l2.16 3.744a.285.285 0 0 0 .148.13l3.115 1.821Z" fill="#000"/><path d="M225.433 135.498a3.339 3.339 0 0 0-1.507-2.61l-1.228-.706a3.333 3.333 0 0 0-3.014 0l-15.289 8.81a3.343 3.343 0 0 0-1.507 2.611v20.699a3.335 3.335 0 0 0 1.507 2.61l1.228.712a3.33 3.33 0 0 0 3.014 0l5.506-3.174 2.153 3.738a.324.324 0 0 0 .314.165.317.317 0 0 0 .172-.068.319.319 0 0 0 .107-.151l2.279-6.579 4.746-2.741a3.343 3.343 0 0 0 1.507-2.61l.012-20.706Z" fill="#7A6BDE"/><path opacity=".3" d="M202.888 164.301a3.335 3.335 0 0 0 1.507 2.611l1.228.711a3.371 3.371 0 0 0 2.759.119c-.712.267-1.252-.13-1.252-.991v-20.693a3.082 3.082 0 0 1 .439-1.483l-4.236-2.45c-.272.45-.425.963-.445 1.489v20.687Z" fill="#000"/><path opacity=".3" d="M225.379 135.071c-.172-.641-.759-.842-1.453-.439l-15.289 8.81a2.972 2.972 0 0 0-1.062 1.122l-4.242-2.445a3.103 3.103 0 0 1 1.062-1.127l15.283-8.81a3.383 3.383 0 0 1 3.019 0l1.229.712a3.304 3.304 0 0 1 1.453 2.177Z" fill="#fff"/><path d="M215.216 158.518c-.339 0-.666-.12-.925-.339l-4.047-3.458a1.429 1.429 0 0 1-.157-2.009 1.429 1.429 0 0 1 1.524-.429c.178.058.342.151.484.272l2.581 2.201 5.672-13.093a1.423 1.423 0 0 1 2.332-.425 1.427 1.427 0 0 1 .284 1.558l-6.443 14.832a1.42 1.42 0 0 1-.985.824 1.456 1.456 0 0 1-.32.066Z" fill="#FAFAFA"/></svg>