<svg width="230" height="211" fill="none" xmlns="http://www.w3.org/2000/svg"><path d="m13.178 131.214 125.092 72.221a5.38 5.38 0 0 0 4.859 0l68.095-39.315c1.341-.777 1.341-2.031 0-2.809L86.132 89.091a5.383 5.383 0 0 0-4.86 0l-68.094 39.315c-1.346.777-1.346 2.031 0 2.808Z" fill="#E0E0E0"/><path d="m22.575 123.406 5.034-2.269s2.197-10.073 2.22-18.042c.03-11.176-5.781-25.267-14.644-22.998-8.863 2.27 2.458 14.82 4.28 24.509 1.823 9.689 3.11 18.8 3.11 18.8Z" fill="#7A6BDE"/><path opacity=".15" d="m22.575 123.406 5.034-2.269s2.197-10.073 2.22-18.042c.03-11.176-5.781-25.267-14.644-22.998-8.863 2.27 2.458 14.82 4.28 24.509 1.823 9.689 3.11 18.8 3.11 18.8Z" fill="#000"/><path d="M25.194 122.502a.29.29 0 0 1-.192-.111.286.286 0 0 1-.055-.214c3.328-24.558-7.688-38.193-7.775-38.329a.288.288 0 0 1 .25-.472.291.291 0 0 1 .197.103c.112.136 11.288 13.97 7.925 38.775a.29.29 0 0 1-.35.248Z" fill="#fff"/><path d="m19.436 124.815 3.557-1.618s1.283-6.934-1.287-15.778c-2.236-7.696-9.024-14.577-12.877-13.668-3.853.908-4.033 3.566-2.493 6.521 1.54 2.954 11.915 10.675 13.1 24.543Z" fill="#7A6BDE"/><path opacity=".2" d="m19.436 124.815 3.557-1.618s1.283-6.934-1.287-15.778c-2.236-7.696-9.024-14.577-12.877-13.668-3.853.908-4.033 3.566-2.493 6.521 1.54 2.954 11.915 10.675 13.1 24.543Z" fill="#fff"/><path d="M21.273 124.251a.289.289 0 0 1-.258-.315c1.643-15.579-11.924-27.585-12.06-27.697a.288.288 0 0 1 .38-.433c.14.122 13.93 12.328 12.259 28.183a.295.295 0 0 1-.106.198.282.282 0 0 1-.215.064Z" fill="#fff"/><path d="M187.147 38.041a2.621 2.621 0 0 0-.107-.782l2.843-3.255-3.644-2.046c-.345-.238-.836-.267-1.502.121l-6.317 3.669-.85.486c.149-.733.25-1.475.301-2.22.024-.312.029-.608.029-.904l.117.058 2.133-2.493-3.644-2.05c-1.225-.749-3.295.729-3.295 1.326 0 .72.311 4.485 0 5.564-.311 1.078-3.566 8.518-3.566 8.518v15.5l11.88-6.87c1.56-.904 2.644-2.828 2.644-4.13a4.098 4.098 0 0 0-.316-1.701c1.01-.584 2.016-2.692 2.016-3.586 0-1.351-.461-1.701-.461-1.701a5.131 5.131 0 0 0 1.739-3.504Z" fill="#7A6BDE"/><path opacity=".1" d="M187.147 38.041a2.621 2.621 0 0 0-.107-.782l2.843-3.255-3.644-2.046c-.345-.238-.836-.267-1.502.121l-6.317 3.669-.85.486c.149-.733.25-1.475.301-2.22.024-.312.029-.608.029-.904l.117.058 2.133-2.493-3.644-2.05c-1.225-.749-3.295.729-3.295 1.326 0 .72.311 4.485 0 5.564-.311 1.078-3.566 8.518-3.566 8.518v15.5l11.88-6.87c1.56-.904 2.644-2.828 2.644-4.13a4.098 4.098 0 0 0-.316-1.701c1.01-.584 2.016-2.692 2.016-3.586 0-1.351-.461-1.701-.461-1.701a5.131 5.131 0 0 0 1.739-3.504Z" fill="#000"/><path d="m173.401 61.666-3.761-2.171-.01-15.51 3.756 2.171.015 15.51Z" fill="#E0E0E0"/><path d="m173.401 61.666-3.761-2.171-.01-15.51 3.756 2.171.015 15.51Z" fill="#7A6BDE"/><path opacity=".3" d="m173.401 61.666-3.761-2.171-.01-15.51 3.756 2.171.015 15.51Z" fill="#000"/><path d="M189.761 45.67c0 2.002-1.141 2.707-2.152 3.29.22.543.324 1.125.306 1.71 0 1.293-1.079 3.227-2.634 4.12l-11.88 6.872V46.156s3.265-7.439 3.571-8.523c.306-1.083 0-4.859 0-5.553 0-.695 2.95-2.692 3.888-.632.937 2.06 1.015 4.16.485 6.9l7.182-4.155c1.516-.874 2.138.38 2.138 1.36 0 1.395-.651 2.77-1.516 3.295 0 0 1.652.083 1.652 2.007a4.063 4.063 0 0 1-1.594 3.134s.554.34.554 1.681Z" fill="#7A6BDE"/><path d="m166.501 67.74 5.189-2.993-.014-18.051-5.175 2.993V67.74Z" fill="#37474F"/><path d="m166.501 67.74-3.761-2.167V47.522l3.761 2.167V67.74Z" fill="#263238"/><path d="m167.92 44.528 3.756 2.168-5.175 2.993-3.761-2.167 5.18-2.994Z" fill="#455A64"/><path d="M176.953 37.633c-.306 1.084-3.571 8.523-3.571 8.523l-3.752-2.114s3.256-7.444 3.567-8.517c.311-1.074 0-4.86 0-5.564l3.761 2.119c-.005.738.311 4.48-.005 5.553Z" fill="#7A6BDE"/><path opacity=".2" d="M176.953 37.633c-.306 1.084-3.571 8.523-3.571 8.523l-3.752-2.114s3.256-7.444 3.567-8.517c.311-1.074 0-4.86 0-5.564l3.761 2.119c-.005.738.311 4.48-.005 5.553Z" fill="#000"/><path d="m221.045 53.397-3.577-2.23c-1.321-.846-3.333-.759-5.617.485-3.158 1.686-5.947 5.943-7.152 9.553l-2.561-1.594c-1.298-.938-3.12-1.137-5.175-.039-.253.136-.486.287-.758.443l-.394.267c-.111.078-.228.15-.34.233-.112.083-.35.267-.52.403l-.194.151c-.199.165-.399.34-.593.52l-.087.083a16.655 16.655 0 0 0-2.386 2.755c-1.458 2.09-2.381 4.421-2.43 6.491-.126 3.854 2.172 6.39 5.044 8.057l2.823 1.754a20.149 20.149 0 0 0 5.413 2.43l4.699 1.413 4.942-6.564c4.727-6.268 10.403-14.956 10.592-20.768.064-1.851-.597-3.168-1.729-3.843Z" fill="#7A6BDE"/><path d="m197.07 80.719-2.784-1.74c-2.867-1.666-5.17-4.203-5.044-8.056.068-2.065 1.006-4.407 2.454-6.492l3.668 2.28c-1.457 2.084-2.385 4.426-2.453 6.49-.112 3.46 1.715 5.856 4.159 7.518Z" fill="#7A6BDE"/><path d="m197.07 80.719-2.784-1.74c-2.867-1.666-5.17-4.203-5.044-8.056.068-2.065 1.006-4.407 2.454-6.492l3.668 2.28c-1.457 2.084-2.385 4.426-2.453 6.49-.112 3.46 1.715 5.856 4.159 7.518Z" fill="#000" opacity=".3"/><path d="M221.03 53.372c-1.326-.768-3.294-.646-5.51.54-3.81 2.03-7.094 7.803-7.687 11.661-.36-3.357-3.372-5.768-7.182-3.727a15.67 15.67 0 0 0-5.287 4.86l-3.668-2.28.184-.262c.054-.073.102-.141.161-.214l.408-.534c.395-.488.817-.954 1.263-1.395.107-.117.224-.223.336-.33l.243-.224a14.11 14.11 0 0 1 2.691-1.914 5.735 5.735 0 0 1 2.867-.744 4.124 4.124 0 0 1 2.308.783l2.542 1.564c1.2-3.605 3.994-7.857 7.157-9.543 2.284-1.224 4.291-1.312 5.612-.486l3.562 2.245Z" fill="#7A6BDE"/><path opacity=".1" d="M221.03 53.372c-1.326-.768-3.294-.646-5.51.54-3.81 2.03-7.094 7.803-7.687 11.661-.36-3.357-3.372-5.768-7.182-3.727a15.67 15.67 0 0 0-5.287 4.86l-3.668-2.28.184-.262c.054-.073.102-.141.161-.214l.408-.534c.395-.488.817-.954 1.263-1.395.107-.117.224-.223.336-.33l.243-.224a14.11 14.11 0 0 1 2.691-1.914 5.735 5.735 0 0 1 2.867-.744 4.124 4.124 0 0 1 2.308.783l2.542 1.564c1.2-3.605 3.994-7.857 7.157-9.543 2.284-1.224 4.291-1.312 5.612-.486l3.562 2.245Z" fill="#000"/><path d="m162.998 15.962-3.596-2.235-1.38 2.78 1.944 2.123s.116.418 1.064-.316a11.177 11.177 0 0 0 1.968-2.352Z" fill="#7A6BDE"/><path opacity=".3" d="m162.998 15.962-3.596-2.235-1.38 2.78 1.944 2.123s.116.418 1.064-.316a11.177 11.177 0 0 0 1.968-2.352Z" fill="#000"/><path d="M160.282 20.875c0 4.373-1.259 9.718-3.591 14.635-2.663 5.627-6.716 10.763-11.856 13.513-2.945 1.574-5.642 1.905-7.877 1.205l-3.596-2.235c2.333-.89 4.699-2.813 6.74-5.462l-2.206-1.375a3.51 3.51 0 0 1-1.458-2.23 5.285 5.285 0 0 0 1.497-.72l-1.458-.913c-1.103-.685-1.725-2.24-1.623-4.27a3.676 3.676 0 0 0 2.328-.404 2.623 2.623 0 0 1-.637-.33c-1.701-1.21-1.987-4.5-.675-7.901l3.586 2.23c1.982.534 4.373.34 6.899-.845-.617-3.854 1.983-9.272 5.345-11.07 1.497-.796 2.824-.694 3.727.127a20.219 20.219 0 0 0 3.358-3.402l3.596 2.236a13.675 13.675 0 0 1-2.43 4.985 17.44 17.44 0 0 0 3.018-2.668 27.392 27.392 0 0 1-2.687 4.894Z" fill="#7A6BDE"/><path d="M160.282 20.875c0 4.373-1.259 9.718-3.591 14.635-2.663 5.627-6.716 10.763-11.856 13.513-2.945 1.575-5.642 1.905-7.877 1.205 2.745-1.05 5.534-3.523 7.775-6.934-2.275 1.157-4.131.224-4.704-2.133a6.249 6.249 0 0 0 2.352-1.37c-2.478.676-4.111-1.35-3.951-4.533a3.689 3.689 0 0 0 2.333-.404 2.71 2.71 0 0 1-.52-.252c-1.803-1.137-2.138-4.505-.792-7.979.384 1.812 3.746 3.212 6.652 3.168 2.808-.044 3.775-1.676 3.829-1.778-.617-3.854 1.987-9.271 5.345-11.07 1.491-.796 2.818-.694 3.727.122a19.994 19.994 0 0 0 3.357-3.401 13.657 13.657 0 0 1-2.429 4.985 17.433 17.433 0 0 0 3.017-2.667 27.356 27.356 0 0 1-2.667 4.893Z" fill="#7A6BDE"/><path opacity=".1" d="M162.385 13.644a20.27 20.27 0 0 1-3.352 3.402 2.4 2.4 0 0 0-.802-.486l-2.799-1.72a20.216 20.216 0 0 0 3.358-3.402l3.595 2.206Z" fill="#000"/><path opacity=".3" d="M142.4 39.79a6.232 6.232 0 0 1-2.352 1.371l-3.59-2.235a5.295 5.295 0 0 0 1.496-.72l2.036 1.264.063.044.093.058a2.87 2.87 0 0 0 2.254.219Z" fill="#000"/><path opacity=".1" d="M149.956 28.008c-.107.19-1.098 1.72-3.819 1.764-2.916.043-6.269-1.356-6.652-3.168a8.477 8.477 0 0 0 1.885.281c1.737.026 3.456-.36 5.015-1.127l3.571 2.25Z" fill="#000"/><path opacity=".2" d="m139.456 26.623-3.591-2.23c-1.312 3.4-1.026 6.69.675 7.9l.243.15.33.21 3.139 1.943c-1.768-1.127-2.128-4.494-.796-7.973Z" fill="#000"/><path opacity=".3" d="M140.782 34.854a3.688 3.688 0 0 1-2.332.403l-3.591-2.235a3.65 3.65 0 0 0 2.264-.374l3.139 1.944c.165.104.339.191.52.262Zm3.97 8.44c-2.259 3.402-5.049 5.885-7.774 6.934l-3.596-2.235c2.332-.894 4.699-2.813 6.739-5.462l1.4.87c.85.535 1.968.535 3.231-.107Z" fill="#000"/><path opacity=".2" d="M158.255 16.584c-.816-.335-1.841-.238-2.954.355-3.358 1.798-5.962 7.215-5.345 11.069l-3.591-2.235c-.617-3.854 1.983-9.271 5.345-11.07 1.497-.796 2.823-.694 3.727.127l2.818 1.754ZM139.99 39.47l-2.036-1.263-1.458-.913c-1.103-.685-1.725-2.24-1.623-4.271l3.591 2.235c-.111 1.972.476 3.498 1.526 4.212Zm1.409 3.863-1.297-.797-2.206-1.37a3.501 3.501 0 0 1-1.458-2.235l3.591 2.235c.171.868.66 1.64 1.37 2.167Z" fill="#000"/><path d="m208.177 106.433.535-.865-2.716-1.783c-2.328-1.652-5.7-1.579-9.446.598-6.988 4.062-12.634 13.911-12.61 21.992 0 3.829 1.293 6.574 3.377 7.974l2.683 1.768.447-.733c1.831.126 3.94-.418 6.185-1.725 6.992-4.063 12.634-13.907 12.634-21.993a12 12 0 0 0-1.089-5.233Z" fill="#7A6BDE"/><path opacity=".2" d="m208.177 106.433.535-.865-2.716-1.783c-2.328-1.652-5.7-1.579-9.446.598-6.988 4.062-12.634 13.911-12.61 21.992 0 3.829 1.293 6.574 3.377 7.974l2.683 1.768.447-.733c1.831.126 3.94-.418 6.185-1.725 6.992-4.063 12.634-13.907 12.634-21.993a12 12 0 0 0-1.089-5.233Z" fill="#000"/><path d="M212.011 113.479c.025 8.08-5.622 17.93-12.633 21.992-7.012 4.062-12.673.802-12.692-7.289-.02-8.09 5.622-17.93 12.609-21.992 6.987-4.062 12.692-.787 12.716 7.289Z" fill="#7A6BDE"/><path d="M209.912 114.713c0 6.735-4.684 14.942-10.505 18.328-5.821 3.387-10.564.666-10.583-6.069-.02-6.734 4.684-14.941 10.51-18.328 5.826-3.387 10.549-.671 10.578 6.069Z" fill="#fff"/><path d="M207.784 115.932c0 5.389-3.751 11.954-8.406 14.665-4.655 2.712-8.441.54-8.455-4.859-.015-5.398 3.746-11.953 8.406-14.665 4.66-2.711 8.445-.51 8.455 4.859Z" fill="#7A6BDE"/><path d="M205.685 117.162c0 4.043-2.814 8.965-6.317 11.001-3.503 2.036-6.317.398-6.346-3.639-.029-4.038 2.808-8.97 6.317-11.001 3.508-2.032 6.331-.399 6.346 3.639Z" fill="#fff"/><path d="M199.344 115.962c-2.333 1.355-4.213 4.64-4.204 7.332.01 2.692 1.9 3.785 4.233 2.43 2.332-1.356 4.212-4.641 4.203-7.333-.01-2.692-1.9-3.785-4.232-2.429Z" fill="#7A6BDE"/><path d="M199.348 118.401a4.687 4.687 0 0 0-2.099 3.669c0 1.346.948 1.89 2.114 1.215a4.684 4.684 0 0 0 2.104-3.669c-.005-1.346-.952-1.89-2.119-1.215Z" fill="#fff"/><path d="m220.471 131.725-2.818-1.171-1.75-.083v.316l2.673 1.545 1.895-.292v-.315Z" fill="#7A6BDE"/><path d="m215.903 130.471 1.75.083 2.818 1.171-1.895.291-2.673-1.545Z" fill="#7A6BDE"/><path opacity=".2" d="M218.576 132.332v-.316l1.895-.291v.315l-1.895.292Z" fill="#000"/><path opacity=".1" d="m218.576 132.016-2.673-1.545v.316l2.673 1.545v-.316Z" fill="#000"/><path d="m203.897 122.026-4.33-1.186v.603l1.905 2.585 1.045-1.001 1.38-.399v-.602Z" fill="#37474F"/><path d="m199.567 120.84 1.905 2.585 1.045-.996 1.38-.403-4.33-1.186Z" fill="#455A64"/><path d="M201.472 123.425v.603l1.045-1.001v-.598l-1.045.996Zm1.045-.996 1.38-.403v.602l-1.38.399v-.598Z" fill="#263238"/><path d="M202.701 122.424a.2.2 0 0 0-.204 0 .646.646 0 0 0-.291.486.202.202 0 0 0 .087.19l17.629 10.204.398-.719-17.619-10.161Z" fill="#455A64"/><path d="M202.269 122.711a.595.595 0 0 0-.063.248.187.187 0 0 0 .017.107c.015.034.04.062.07.082l17.629 10.205.18-.326-17.833-10.316Z" fill="#37474F"/><path d="M220.116 132.628a.647.647 0 0 0-.287.486c0 .185.127.263.287.17a.637.637 0 0 0 .287-.486c.005-.184-.122-.262-.287-.17Z" fill="#263238"/><path d="M218.386 132.439v-.316l-2.667-1.545v.321l.141 1.005 2.021 1.633.505-1.093v-.005Z" fill="#7A6BDE"/><path opacity=".2" d="m215.719 130.578.146 1.011-.005.315-.141-1.005v-.321Zm2.667 1.545-.505 1.094v.315l.505-1.093v-.316Z" fill="#000"/><path opacity=".1" d="m215.864 131.588 2.017 1.628v.316l-2.021-1.628.004-.316Z" fill="#000"/><path d="m220.354 109.324-2.818 1.171-1.744.083v-.316l2.667-1.545 1.895.292v.315Z" fill="#7A6BDE"/><path d="m215.792 110.578 1.744-.082 2.818-1.171-1.895-.292-2.667 1.545Z" fill="#7A6BDE"/><path opacity=".2" d="M218.459 108.717v.316l1.895.291v-.315l-1.895-.292Z" fill="#000"/><path opacity=".1" d="m218.459 109.033-2.667 1.545v-.316l2.667-1.545v.316Z" fill="#000"/><path d="m203.78 119.023-4.325 1.186v-.603l1.9-2.58 1.045.996 1.38.398v.603Z" fill="#37474F"/><path d="m199.455 120.209 1.9-2.585 1.045 1.001 1.38.398-4.325 1.186Z" fill="#455A64"/><path d="M201.355 117.624v-.598l1.045.996v.603l-1.045-1.001Zm1.045 1 1.38.399v-.603l-1.38-.398v.602Z" fill="#263238"/><path d="M202.585 118.624a.183.183 0 0 1-.204 0 .63.63 0 0 1-.202-.209.634.634 0 0 1-.09-.277.194.194 0 0 1 .018-.106.2.2 0 0 1 .069-.083l17.629-10.204.399.714-17.619 10.165Z" fill="#455A64"/><path d="M202.138 118.338a.528.528 0 0 1-.069-.248.217.217 0 0 1 .018-.107.217.217 0 0 1 .07-.083l17.629-10.204.179.321-17.827 10.321Z" fill="#37474F"/><path d="M220.004 108.421a.642.642 0 0 1-.286-.486c0-.185.126-.263.286-.17a.637.637 0 0 1 .287.485c0 .185-.126.263-.287.171Z" fill="#263238"/><path d="M218.27 108.61v.316l-2.668 1.545v-.321l.141-1.005 2.021-1.633.506 1.098Z" fill="#7A6BDE"/><path opacity=".2" d="m215.602 110.471.146-1.011-.005-.316-.141 1.006v.321Zm2.668-1.545-.506-1.093v-.316l.506 1.093v.316Z" fill="#000"/><path opacity=".1" d="m215.748 109.46 2.016-1.627v-.316l-2.021 1.628.005.315Z" fill="#000"/><path d="m169.936 117.964-2.094-5.37 1.686-4.859v-3.003l-5.16 2.979v2.979l2.221 5.272a.324.324 0 0 0 .15.131l3.197 1.871Z" fill="#7A6BDE"/><path opacity=".2" d="m169.936 117.964-2.094-5.37 1.686-4.859v-3.003l-5.16 2.979v2.979l2.221 5.272a.324.324 0 0 0 .15.131l3.197 1.871Z" fill="#000"/><path d="M182.39 95.16a3.4 3.4 0 0 0-1.545-2.677l-.573-.384a3.427 3.427 0 0 0-3.091 0l-21.025 12.147a3.4 3.4 0 0 0-1.545 2.678v7.104a3.398 3.398 0 0 0 1.545 2.677l.593.365a3.4 3.4 0 0 0 3.09 0l7.775-4.495 2.206 5.277a.328.328 0 0 0 .597-.054l2.342-8.207 8.086-4.669a3.4 3.4 0 0 0 1.545-2.677V95.16Z" fill="#7A6BDE"/><path opacity=".2" d="M154.591 114.038a3.411 3.411 0 0 0 1.545 2.677l.593.364a3.454 3.454 0 0 0 2.828.127c-.729.272-1.283-.136-1.283-1.021v-7.079a3.15 3.15 0 0 1 .452-1.526l-3.683-2.148c-.278.46-.434.984-.452 1.521v7.085Z" fill="#000"/><path opacity=".5" d="M182.342 94.723c-.18-.656-.783-.865-1.497-.457l-21.025 12.147c-.46.28-.836.678-1.089 1.152l-3.683-2.143a3.13 3.13 0 0 1 1.089-1.156l21.02-12.148a3.436 3.436 0 0 1 3.095 0l.593.365a3.448 3.448 0 0 1 1.497 2.24Z" fill="#fff"/><path d="M161.146 113.814a.777.777 0 0 1-.573 0 .249.249 0 0 1-.081-.098.258.258 0 0 1-.026-.125 1.5 1.5 0 0 1 .122-.54.76.76 0 0 1 .272-.393.44.44 0 0 1 .209-.039h.209c.198-.01.391-.066.563-.165.17-.098.32-.227.442-.379a.796.796 0 0 0 .19-.525.487.487 0 0 0-.097-.321.406.406 0 0 0-.243-.112 2.588 2.588 0 0 0-.413 0 1.376 1.376 0 0 1-.904-.223 1.155 1.155 0 0 1-.277-.899 2.504 2.504 0 0 1 .486-1.429 3.78 3.78 0 0 1 1.249-1.137 2.57 2.57 0 0 1 .592-.257c.155-.058.321-.082.486-.068.102 0 .151.077.151.199-.008.166-.041.33-.097.486a.656.656 0 0 1-.233.374.95.95 0 0 1-.238.073 1.66 1.66 0 0 0-.535.185 1.174 1.174 0 0 0-.447.398.79.79 0 0 0-.126.389c0 .204.053.325.16.374.157.049.322.068.486.058h.189c.292-.026.583.057.817.233a1.157 1.157 0 0 1 .248.851 2.638 2.638 0 0 1-.195.972 3.409 3.409 0 0 1-.597.971 3.921 3.921 0 0 1-.997.812 3.33 3.33 0 0 1-.792.335Zm3.154-2.017v-5.248c0-.174.16-.354.486-.534l.345-.199c.311-.18.486-.185.486 0v2.026l1.404-.811v-2.027c0-.175.16-.35.486-.534l.335-.195c.316-.184.486-.184.486 0v5.253c0 .175-.16.35-.486.535l-.335.194c-.316.185-.486.185-.486 0v-2.138l-1.404.811v2.119c0 .175-.156.355-.486.534l-.345.2c-.326.184-.486.189-.486.014Zm4.47-2.497a.784.784 0 0 1 .025-.16l1.263-5.948c.039-.175.204-.345.486-.515l.534-.311c.302-.17.486-.194.486-.063l1.264 4.485v.141c0 .121-.122.248-.355.384l-.433.252c-.262.151-.408.175-.437.078l-.214-.879-1.244.719-.223 1.127c0 .131-.151.262-.384.399l-.428.242c-.209.156-.34.171-.34.049Zm2.537-3.455-.37-1.525a8.566 8.566 0 0 1-.102-.569l-.038.024c-.03.234-.059.462-.098.681l-.364 1.943.972-.554Zm2.031.734v-5.165a.528.528 0 0 1 .078-.292.72.72 0 0 1 .252-.223l1.366-.792a1.76 1.76 0 0 1 1.214-.326c.307.068.462.398.462.972a2.739 2.739 0 0 1-.782 1.832v.034a.445.445 0 0 1 .33.141.9.9 0 0 1 .219.364l.486 1.293.024.087c0 .146-.17.316-.51.51l-.287.17c-.287.166-.452.185-.486.063l-.432-1.307a.266.266 0 0 0-.068-.098.275.275 0 0 0-.102-.062.522.522 0 0 0-.302.102l-.194.112v1.851c0 .175-.165.36-.486.549l-.282.161c-.335.194-.5.199-.5.024Zm1.72-4.043a.826.826 0 0 0 .311-.359 1.33 1.33 0 0 0 .126-.598c0-.228-.043-.369-.126-.428a.302.302 0 0 0-.172-.035.302.302 0 0 0-.163.064l-.433.253v1.356l.457-.253Zm2.585 1.71c-.049 0-.073-.097-.073-.209v-5.063a.569.569 0 0 1 .073-.296.641.641 0 0 1 .228-.209l2.43-1.395c.082-.048.141-.053.179 0 .05.086.07.184.059.282v.253a.865.865 0 0 1-.059.345.43.43 0 0 1-.179.204l-1.458.83v1.191l1.278-.738c.082-.049.146-.049.18 0 .049.083.069.18.058.277v.252a.844.844 0 0 1-.058.345.414.414 0 0 1-.18.205l-1.278.738v1.327l1.458-.836c.082-.049.141-.049.175 0a.519.519 0 0 1 .053.282v.252a.98.98 0 0 1-.053.345.421.421 0 0 1-.175.2l-2.43 1.399a.276.276 0 0 1-.228.019Z" fill="#fff"/><path d="m148.202 103.518-2.095-5.37 1.686-4.859v-2.978l-5.155 2.978v2.974l2.216 5.272a.33.33 0 0 0 .15.136l3.198 1.847Z" fill="#7A6BDE"/><path opacity=".2" d="m148.202 103.518-2.095-5.37 1.686-4.859v-2.978l-5.155 2.978v2.974l2.216 5.272a.33.33 0 0 0 .15.136l3.198 1.847Z" fill="#000"/><path d="M162.254 79.766a3.399 3.399 0 0 0-1.545-2.677l-.593-.364a3.424 3.424 0 0 0-3.09 0l-24.262 14.008a3.412 3.412 0 0 0-1.545 2.678v7.099a3.432 3.432 0 0 0 1.545 2.682l.593.36a3.403 3.403 0 0 0 3.091 0l9.402-5.418 2.216 5.267a.32.32 0 0 0 .135.128.333.333 0 0 0 .462-.186l2.338-8.183 9.718-5.612a3.411 3.411 0 0 0 1.545-2.677l-.01-7.105Z" fill="#7A6BDE"/><path opacity=".2" d="M131.219 100.51a3.432 3.432 0 0 0 1.545 2.682l.593.36a3.453 3.453 0 0 0 2.828.126c-.729.277-1.283-.136-1.283-1.016v-7.104c.02-.538.175-1.063.452-1.525l-3.673-2.148a3.188 3.188 0 0 0-.452 1.526l-.01 7.099Z" fill="#000"/><path opacity=".5" d="M162.205 79.33c-.179-.657-.782-.866-1.496-.457L136.447 92.88a3.062 3.062 0 0 0-1.088 1.157l-3.678-2.148a3.138 3.138 0 0 1 1.093-1.156l24.252-14.01a3.435 3.435 0 0 1 3.095 0l.593.365a3.435 3.435 0 0 1 1.491 2.24Z" fill="#fff"/><path d="M137.419 99.84v-4.65a.491.491 0 0 1 .068-.268.595.595 0 0 1 .204-.19l2.032-1.17c.072-.044.126-.044.16 0a.413.413 0 0 1 .053.252v.228a.805.805 0 0 1-.053.311.386.386 0 0 1-.16.18l-1.152.666v1.079l1.083-.627c.073-.044.127-.044.166 0a.403.403 0 0 1 .048.248v.228a.784.784 0 0 1-.048.31.412.412 0 0 1-.166.186l-1.083.626v1.944c0 .156-.146.316-.428.486l-.296.17c-.287.14-.428.146-.428-.01Zm3.008-4.087c0-1.759.641-3.013 1.944-3.76.626-.36 1.108-.424 1.433-.186.326.239.486.812.486 1.716a4.862 4.862 0 0 1-.486 2.284 3.668 3.668 0 0 1-1.433 1.457c-1.327.758-1.944.253-1.944-1.511Zm2.366.16c.123-.199.205-.42.243-.65a5.76 5.76 0 0 0 .083-1.065 4.227 4.227 0 0 0-.083-.972c-.053-.209-.136-.335-.243-.369a.534.534 0 0 0-.427.097 1.304 1.304 0 0 0-.433.399 1.698 1.698 0 0 0-.247.656 5.3 5.3 0 0 0-.088 1.059 3.92 3.92 0 0 0 .088.972c.053.213.136.335.247.369a.57.57 0 0 0 .433-.102c.163-.099.301-.233.403-.394h.024Zm2.236-.321c-.044 0-.068-.082-.068-.184v-4.65c0-.156.145-.321.432-.486l.292-.175c.286-.165.427-.165.427 0v3.98l1.103-.637c.078-.044.136-.049.17 0a.427.427 0 0 1 .049.252v.229a.804.804 0 0 1-.049.31.383.383 0 0 1-.17.186l-1.977 1.141c-.098.044-.166.059-.209.034Zm3.012-1.734c-.044-.024-.068-.083-.068-.19v-4.65c0-.155.146-.316.428-.486l.296-.17c.287-.165.428-.17.428 0v3.98l1.103-.632c.078-.048.131-.053.17 0a.404.404 0 0 1 .048.248v.228a.784.784 0 0 1-.048.311.463.463 0 0 1-.17.19l-1.978 1.137c-.097.039-.165.053-.209.034Zm2.658-4.048c0-1.762.648-3.016 1.944-3.76.632-.365 1.108-.428 1.433-.185.326.243.486.811.486 1.715a4.787 4.787 0 0 1-.486 2.284 3.63 3.63 0 0 1-1.433 1.457c-1.293.755-1.941.251-1.944-1.51Zm2.371.156c.124-.2.206-.42.243-.651.059-.35.085-.705.078-1.06a4.17 4.17 0 0 0-.078-.971c-.053-.214-.136-.336-.243-.375a.57.57 0 0 0-.432.102 1.285 1.285 0 0 0-.428.394 1.87 1.87 0 0 0-.252.66 5.263 5.263 0 0 0-.088 1.055 3.92 3.92 0 0 0 .088.972c.058.214.141.34.252.374a.563.563 0 0 0 .428-.102c.17-.098.315-.234.423-.398h.009Zm2.76-.559a.072.072 0 0 1-.064-.008.08.08 0 0 1-.023-.024.087.087 0 0 1-.01-.031l-.972-4.18a.334.334 0 0 1 0-.062.198.198 0 0 0 0-.049c0-.126.146-.277.438-.442l.214-.126c.291-.17.451-.185.485-.044l.345 2.527.069.486.068.539.131-.972c.017-.077.028-.155.034-.233l.452-3.061a.277.277 0 0 1 .092-.17c.077-.073.164-.135.257-.185l.37-.214a.886.886 0 0 1 .252-.112c.054 0 .083 0 .093.068l.442 2.542.165 1.04.102-.85.044-.365.355-2.916c0-.165.175-.33.486-.486l.17-.102c.291-.165.437-.184.437-.058a.756.756 0 0 1 0 .117l-.972 5.306c0 .112-.136.233-.345.355l-.486.281c-.194.112-.306.127-.33.034l-.486-2.313-.083-.743-.126.826-.51 2.915c0 .112-.131.229-.331.345l-.486.282a.766.766 0 0 1-.277.083Z" fill="#fff"/><path d="m104.63 66.448 20.408-11.783a.418.418 0 0 1 .511 0c.121.097 1.273.704 1.399.796a.652.652 0 0 1 .214.55v18.367a1.691 1.691 0 0 1-.705 1.346l-3.581 2.07-18.732-10.812c.112-.218.279-.403.486-.534Z" fill="#7A6BDE"/><path opacity=".5" d="m104.63 66.448 20.408-11.783a.418.418 0 0 1 .511 0c.121.097 1.273.704 1.399.796a.652.652 0 0 1 .214.55v18.367a1.691 1.691 0 0 1-.705 1.346l-3.581 2.07-18.732-10.812c.112-.218.279-.403.486-.534Z" fill="#fff"/><path d="M105.578 87.536c-.141-.092-1.303-.734-1.429-.821a.646.646 0 0 1-.223-.554V67.803c.007-.284.083-.563.223-.811l18.732 10.811-16.827 9.719a.44.44 0 0 1-.476.014Z" fill="#7A6BDE"/><path opacity=".2" d="M105.578 87.536c-.141-.092-1.303-.734-1.429-.821a.646.646 0 0 1-.223-.554V67.803c.007-.284.083-.563.223-.811l18.732 10.811-16.827 9.719a.44.44 0 0 1-.476.014Z" fill="#000"/><path d="m106.054 87.507 20.408-11.783a1.689 1.689 0 0 0 .705-1.346V56.01c0-.515-.316-.753-.705-.53l-20.408 11.784a1.687 1.687 0 0 0-.704 1.346v18.367c0 .515.315.749.704.53Z" fill="#7A6BDE"/><path opacity=".2" d="M105.349 86.977v-.364l8.441-13.984-8.348-4.617.063-.15 10.394 4.315c.218.087.485-.073.724-.418l10.364-16.288a.475.475 0 0 1 .063.073l-8.319 14.218 8.436 4.242v.36a1.89 1.89 0 0 1-.209.83l-8.654-4.699-1.23 2.095c-.485.83-1.146 1.215-1.632.942l-1.225-.68-8.639 14.67a.659.659 0 0 1-.229-.545Z" fill="#000"/><path d="m109.698 69.427 20.408-11.784a.435.435 0 0 1 .516 0c.116.102 1.273.71 1.399.797a.663.663 0 0 1 .214.554v18.368a1.703 1.703 0 0 1-.705 1.346l-3.586 2.065-18.727-10.812c.111-.217.277-.401.481-.534Z" fill="#7A6BDE"/><path opacity=".5" d="m109.698 69.427 20.408-11.784a.435.435 0 0 1 .516 0c.116.102 1.273.71 1.399.797a.663.663 0 0 1 .214.554v18.368a1.703 1.703 0 0 1-.705 1.346l-3.586 2.065-18.727-10.812c.111-.217.277-.401.481-.534Z" fill="#fff"/><path d="M110.641 90.515c-.136-.088-1.297-.734-1.424-.817a.656.656 0 0 1-.223-.558V70.772c.008-.284.085-.562.223-.811l18.727 10.811-16.822 9.718a.446.446 0 0 1-.481.025Z" fill="#7A6BDE"/><path opacity=".2" d="M110.641 90.515c-.136-.088-1.297-.734-1.424-.817a.656.656 0 0 1-.223-.558V70.772c.008-.284.085-.562.223-.811l18.727 10.811-16.822 9.718a.446.446 0 0 1-.481.025Z" fill="#000"/><path d="m111.122 90.49 20.408-11.783a1.695 1.695 0 0 0 .705-1.345V58.994c0-.52-.316-.758-.705-.534l-20.408 11.783a1.703 1.703 0 0 0-.704 1.346v18.367c0 .52.316.758.704.535Z" fill="#7A6BDE"/><path opacity=".2" d="M110.417 89.956v-.36l8.436-13.984-8.329-4.616c.018-.052.04-.102.064-.15l10.374 4.324c.223.092.486-.073.724-.418l10.364-16.283a.272.272 0 0 1 .063.068l-8.314 14.223 8.436 4.237v.364a1.805 1.805 0 0 1-.214.826l-8.654-4.699-1.225 2.09c-.486.83-1.146 1.215-1.632.972l-1.23-.68-8.639 14.645a.675.675 0 0 1-.224-.56Z" fill="#000"/><path d="m114.762 72.41 20.408-11.783a.426.426 0 0 1 .515 0c.117.097 1.268.704 1.395.796a.636.636 0 0 1 .213.55V80.34a1.667 1.667 0 0 1-.704 1.346l-3.581 2.07-18.732-10.812c.111-.218.279-.403.486-.534Z" fill="#7A6BDE"/><path opacity=".5" d="m114.762 72.41 20.408-11.783a.426.426 0 0 1 .515 0c.117.097 1.268.704 1.395.796a.636.636 0 0 1 .213.55V80.34a1.667 1.667 0 0 1-.704 1.346l-3.581 2.07-18.732-10.812c.111-.218.279-.403.486-.534Z" fill="#fff"/><path d="M115.709 93.498c-.141-.092-1.302-.734-1.428-.821a.638.638 0 0 1-.224-.554V73.756a1.74 1.74 0 0 1 .224-.812l18.731 10.812-16.827 9.718a.436.436 0 0 1-.476.024Z" fill="#7A6BDE"/><path opacity=".2" d="M115.709 93.498c-.141-.092-1.302-.734-1.428-.821a.638.638 0 0 1-.224-.554V73.756a1.74 1.74 0 0 1 .224-.812l18.731 10.812-16.827 9.718a.436.436 0 0 1-.476.024Z" fill="#000"/><path d="m116.185 93.47 20.408-11.784a1.668 1.668 0 0 0 .705-1.346V61.973c0-.515-.311-.753-.705-.53l-20.408 11.783a1.687 1.687 0 0 0-.704 1.346V92.94c0 .515.316.753.704.53Z" fill="#7A6BDE"/><path opacity=".2" d="M115.481 92.94v-.355l8.426-13.994-8.334-4.616.063-.15 10.379 4.328c.219.088.486-.072.724-.417l10.365-16.288a.946.946 0 0 1 .063.068l-8.304 14.223 8.435 4.242v.36a1.893 1.893 0 0 1-.209.83l-8.654-4.699-1.224 2.095c-.486.83-1.152 1.214-1.638.942l-1.224-.68-8.64 14.67a.66.66 0 0 1-.228-.56Z" fill="#000"/><path d="m203.746 163.45-58.153 33.571a6.278 6.278 0 0 1-6.069.117l-117.08-67.624c-1.846-1.064-3.343-3.445-3.343-5.345s1.497-4.252 3.338-5.321l57.945-33.406a7.41 7.41 0 0 1 6.676 0l116.686 67.395c1.846 1.064 3.343 3.445 3.343 5.321s-1.497 4.227-3.343 5.292Z" fill="#7A6BDE"/><path opacity=".5" d="m80.384 85.442-57.945 33.45c-1.841 1.069-3.338 3.45-3.338 5.321 0 1.87 1.497 4.256 3.343 5.345l117.104 67.604a6.556 6.556 0 0 0 2.915.719V117.41L87.07 85.442a7.41 7.41 0 0 0-6.686 0Z" fill="#000"/><path opacity=".4" d="m145.592 197.021 58.154-33.571c1.846-1.064 3.343-3.445 3.343-5.316s-1.497-4.257-3.343-5.321l-61.317-35.403v80.447a6.17 6.17 0 0 0 3.163-.836Z" fill="#000"/><path d="M144.207 191.04a6.516 6.516 0 0 1-5.889 0L22.429 124.13c-2.492-1.458-2.492-3.79 0-5.228l57.95-33.46a7.41 7.41 0 0 1 6.676 0l116.686 67.396c1.837 1.059 1.837 2.794 0 3.853l-59.534 34.349Z" fill="#7A6BDE"/><path opacity=".3" d="M144.207 191.04a6.516 6.516 0 0 1-5.889 0L22.429 124.13c-2.492-1.458-2.492-3.79 0-5.228l57.95-33.46a7.41 7.41 0 0 1 6.676 0l116.686 67.396c1.837 1.059 1.837 2.794 0 3.853l-59.534 34.349Z" fill="#000"/><path d="M138.581 184.305a7.028 7.028 0 0 1-6.346 0L32.512 126.73c-1.754-1.011-1.754-2.653 0-3.664l54.514-31.453a7.05 7.05 0 0 1 6.346 0l99.723 57.556c1.744 1.006 1.744 2.658 0 3.664l-54.514 31.472Z" fill="#37474F"/><path d="M90.005 90.85a6.36 6.36 0 0 0-2.979.763l-54.514 31.453c-1.754 1.01-1.754 2.653 0 3.664l10.807 6.239 46.686-29.816V90.85Z" fill="#263238"/><path d="M93.41 93.974a7.05 7.05 0 0 0-6.345 0l-54.51 31.473a3.095 3.095 0 0 0-.835.665c.233.243.5.451.792.617l99.723 57.575a7.015 7.015 0 0 0 6.346 0l54.514-31.467c.308-.172.585-.394.821-.656a3.201 3.201 0 0 0-.782-.627l-99.723-57.58Z" fill="#455A64"/><path d="m52.44 108.343 9.66-5.554c.577-.331.606-.855.062-1.166a2.235 2.235 0 0 0-2.021.038l-9.66 5.579c-.578.33-.607.855-.063 1.166a2.237 2.237 0 0 0 2.021-.063Zm16.588-9.563a.598.598 0 0 0 0-1.132 2.171 2.171 0 0 0-1.944 0 .598.598 0 0 0 0 1.132 2.173 2.173 0 0 0 1.944 0Zm3.916-2.264a.598.598 0 0 0 0-1.132 2.172 2.172 0 0 0-1.943 0 .598.598 0 0 0 0 1.132 2.172 2.172 0 0 0 1.943 0Zm-31.331 18.09a.595.595 0 0 0 .406-.566.596.596 0 0 0-.406-.566 2.172 2.172 0 0 0-1.944 0 .595.595 0 0 0-.406.566.596.596 0 0 0 .406.566 2.172 2.172 0 0 0 1.944 0Zm3.917-2.264a.6.6 0 0 0 .294-.915.599.599 0 0 0-.294-.217 2.172 2.172 0 0 0-1.944 0 .599.599 0 0 0 0 1.132 2.17 2.17 0 0 0 1.944 0Z" fill="#37474F"/><path d="M59.169 146.909a2.239 2.239 0 0 1 1.045 1.73.664.664 0 0 1-.287.612l-.734.423a.769.769 0 0 1-.753-.082l-13.576-7.843a2.228 2.228 0 0 1-1.045-1.73.671.671 0 0 1 .263-.598c.13-.082.626-.364.753-.437a.778.778 0 0 1 .758.083l13.576 7.842Z" fill="#7A6BDE"/><path opacity=".4" d="M59.169 146.909a2.239 2.239 0 0 1 1.045 1.73.664.664 0 0 1-.287.612l-.734.423a.769.769 0 0 1-.753-.082l-13.576-7.843a2.228 2.228 0 0 1-1.045-1.73.671.671 0 0 1 .263-.598c.13-.082.626-.364.753-.437a.778.778 0 0 1 .758.083l13.576 7.842Z" fill="#000"/><path d="m58.44 147.327-13.576-7.838c-.578-.335-1.045-.097-1.045.53a2.232 2.232 0 0 0 1.045 1.73l13.576 7.842c.578.331 1.045.093 1.045-.529a2.24 2.24 0 0 0-1.045-1.735Z" fill="#7A6BDE"/><path opacity=".3" d="m58.44 147.327-13.576-7.838c-.578-.335-1.045-.097-1.045.53a2.232 2.232 0 0 0 1.045 1.73l13.576 7.842c.578.331 1.045.093 1.045-.529a2.24 2.24 0 0 0-1.045-1.735Z" fill="#000"/><path d="M40.996 136.413a2.252 2.252 0 0 1 1.04 1.735.64.64 0 0 1-.287.607c-.126.069-.598.355-.729.428a.78.78 0 0 1-.753-.087l-6.4-3.698a2.228 2.228 0 0 1-1.044-1.73.671.671 0 0 1 .263-.598l.753-.437a.76.76 0 0 1 .753.088l6.404 3.692Z" fill="#7A6BDE"/><path opacity=".4" d="M40.996 136.413a2.252 2.252 0 0 1 1.04 1.735.64.64 0 0 1-.287.607c-.126.069-.598.355-.729.428a.78.78 0 0 1-.753-.087l-6.4-3.698a2.228 2.228 0 0 1-1.044-1.73.671.671 0 0 1 .263-.598l.753-.437a.76.76 0 0 1 .753.088l6.404 3.692Z" fill="#000"/><path d="m40.267 136.836-6.4-3.697c-.578-.331-1.044-.098-1.044.529a2.23 2.23 0 0 0 1.045 1.73l6.4 3.698c.577.335 1.044.097 1.044-.53a2.234 2.234 0 0 0-1.045-1.73Z" fill="#7A6BDE"/><path opacity=".3" d="m40.267 136.836-6.4-3.697c-.578-.331-1.044-.098-1.044.529a2.23 2.23 0 0 0 1.045 1.73l6.4 3.698c.577.335 1.044.097 1.044-.53a2.234 2.234 0 0 0-1.045-1.73Z" fill="#000"/><path d="M112.813 158.561v.394a2.172 2.172 0 0 0 .972 1.706l21.142 12.206a2.177 2.177 0 0 0 1.972 0l35.01-20.214a2.173 2.173 0 0 0 .972-1.706v-.393a2.19 2.19 0 0 0-.972-1.706l-21.142-12.206a2.165 2.165 0 0 0-1.973 0l-35.009 20.214a2.164 2.164 0 0 0-.972 1.705Z" fill="#7A6BDE"/><path d="M112.813 158.561v.394a2.172 2.172 0 0 0 .972 1.706l21.142 12.206a2.177 2.177 0 0 0 1.972 0l35.01-20.214a2.173 2.173 0 0 0 .972-1.706v-.393a2.19 2.19 0 0 0-.972-1.706l-21.142-12.206a2.165 2.165 0 0 0-1.973 0l-35.009 20.214a2.164 2.164 0 0 0-.972 1.705Z" fill="#7A6BDE"/><path opacity=".3" d="m171.924 148.848-21.142-12.206a2.172 2.172 0 0 0-1.973 0l-12.882 7.449v29.028c.339.005.674-.077.972-.238l35.01-20.214a2.18 2.18 0 0 0 .69-.736c.168-.297.265-.629.282-.969v-.394a2.194 2.194 0 0 0-.957-1.72Z" fill="#fff"/><path opacity=".15" d="m171.924 148.848-21.142-12.206a2.172 2.172 0 0 0-1.973 0l-12.882 7.449v29.028c.339.005.674-.077.972-.238l35.01-20.214a2.18 2.18 0 0 0 .69-.736c.168-.297.265-.629.282-.969v-.394a2.194 2.194 0 0 0-.957-1.72Z" fill="#000"/><path opacity=".3" d="m135.928 144.091-22.129 12.779a2.18 2.18 0 0 0-.971 1.706v.393a2.176 2.176 0 0 0 .971 1.706l21.142 12.206c.298.161.633.243.972.238l.015-29.028Z" fill="#fff"/><path opacity=".2" d="m135.928 144.091-22.129 12.779a2.18 2.18 0 0 0-.971 1.706v.393a2.176 2.176 0 0 0 .971 1.706l21.142 12.206c.298.161.633.243.972.238l.015-29.028Z" fill="#000"/><path d="M131.555 168.246 113.8 157.993a.6.6 0 0 1-.414-.569.598.598 0 0 1 .414-.568l35.009-20.214a2.172 2.172 0 0 1 1.973 0l21.142 12.206a.598.598 0 0 1 0 1.137l-5.807 3.338-2.036 1.176-27.167 15.685a2.165 2.165 0 0 1-1.973 0l-1.72-.996-1.666-.942Z" fill="#7A6BDE"/><path opacity=".3" d="M131.555 168.246 113.8 157.993a.6.6 0 0 1-.414-.569.598.598 0 0 1 .414-.568l35.009-20.214a2.172 2.172 0 0 1 1.973 0l21.142 12.206a.598.598 0 0 1 0 1.137l-5.807 3.338-2.036 1.176-27.167 15.685a2.165 2.165 0 0 1-1.973 0l-1.72-.996-1.666-.942Z" fill="#fff"/><path opacity=".15" d="m147.677 151.215 24.247-2.367-24.033 1.361 2.891-13.567a2.054 2.054 0 0 0-1.074-.228l-4.533 18.367-31.774 2.619a.655.655 0 0 0 .398.617l25.656-1.516-3.532 13.936 4.504-13.989 4.373-.258a2.344 2.344 0 0 0 1.458-.602c.376-.334.635-.781.739-1.273l.68-3.1Z" fill="#000"/><path opacity=".3" d="m120.991 156.749 24.193-1.992.865-3.47.486-1.943 3.197-12.945a2.002 2.002 0 0 0-.903.229l-17.493 10.106-17.493 10.107a.711.711 0 0 0-.398.52l4.859-.398 2.687-.214Z" fill="#fff"/><path d="M145.772 133.746c2.211-1.278 5.797-1.278 8.008 0 2.211 1.278 2.211 3.348 0 4.621-2.211 1.273-5.797 1.278-8.008 0-2.211-1.278-2.191-3.343 0-4.621Z" fill="#F28F8F"/><path d="M146.997 136.803a.294.294 0 0 1-.166-.059.1.1 0 0 1-.043-.111l.33-1.458c0-.034 0-.078.039-.131a.243.243 0 0 1 .122-.132l.806-.485a.343.343 0 0 1 .18-.044.334.334 0 0 1 .18.044l4.29 2.478a.102.102 0 0 1 .052.04.105.105 0 0 1 .021.062.122.122 0 0 1-.073.102l-.87.486a.349.349 0 0 1-.179.043.333.333 0 0 1-.18-.043l-2.916-1.672-.194.802c0 .039-.039.073-.092.097a.398.398 0 0 1-.19.029l-1.117-.048Zm-54.364 13.765 15.661-9.038 10.69 2.648a1.145 1.145 0 0 0 1.232-.48 1.145 1.145 0 0 0-.032-1.322l-4.013-5.404 15.656-9.042c1.156-.671 1.156-1.764 0-2.43l-31.317-18.095a4.688 4.688 0 0 0-4.208 0l-39.198 22.653c-1.157.666-1.157 1.759 0 2.429l31.331 18.081a4.653 4.653 0 0 0 4.198 0Z" fill="#FAFAFA"/><path d="M73.299 126.73c.922-.542 1.91-.963 2.94-1.254.915-.26 1.854-.422 2.803-.486a9.95 9.95 0 0 1 2.503.151c.7.131 1.383.348 2.03.646.649.324 1.316.679 2.003 1.064.686.386 1.299.769 1.837 1.152.45.309.831.709 1.117 1.176.267.435.363.955.267 1.457a3.45 3.45 0 0 1-.85 1.599 8.372 8.372 0 0 1-2.196 1.686c-.917.539-1.896.965-2.916 1.268-.909.265-1.844.428-2.789.486a9.951 9.951 0 0 1-2.502-.155 8.656 8.656 0 0 1-2.036-.642 44.93 44.93 0 0 1-1.997-1.064 21.258 21.258 0 0 1-1.842-1.156 3.799 3.799 0 0 1-1.113-1.171 2.067 2.067 0 0 1-.267-1.458 3.63 3.63 0 0 1 .831-1.618 8.082 8.082 0 0 1 2.177-1.681Zm9.937 3.294a4.473 4.473 0 0 0-.617-.403l-.933-.54-.938-.539a5.01 5.01 0 0 0-.695-.355 4.242 4.242 0 0 0-1.696-.379c-.74.016-1.46.239-2.08.642-.772.447-1.146.845-1.117 1.2a1.404 1.404 0 0 0 .66.972c.192.149.391.287.598.413.282.179.588.364.914.549.326.184.641.364.972.529.233.129.473.244.719.345.533.243 1.11.372 1.696.379a3.994 3.994 0 0 0 2.08-.641c.772-.447 1.146-.845 1.112-1.205a1.377 1.377 0 0 0-.675-.967Zm6.914-12.06c-.025-.21.007-.424.093-.617.17-.258.41-.463.69-.593l2.395-1.385c.271-.162.575-.264.89-.296a1.31 1.31 0 0 1 .762.141.485.485 0 0 1 .219.311l2.755 24.377c.022.21-.012.421-.097.613a1.593 1.593 0 0 1-.686.597l-2.395 1.385a2.128 2.128 0 0 1-.89.292 1.285 1.285 0 0 1-.762-.136.481.481 0 0 1-.136-.127.564.564 0 0 1-.088-.189l-2.75-24.373Zm12.59 5.792a12.798 12.798 0 0 1 2.94-1.259 13.325 13.325 0 0 1 2.803-.486 10.001 10.001 0 0 1 2.503.151 8.77 8.77 0 0 1 2.031.646c.648.324 1.315.677 2.002 1.06.687.382 1.299.767 1.837 1.156a3.9 3.9 0 0 1 1.117 1.171c.267.436.362.956.267 1.458a3.461 3.461 0 0 1-.85 1.608 8.483 8.483 0 0 1-2.196 1.686c-.916.541-1.895.965-2.916 1.264a12.4 12.4 0 0 1-2.784.485 9.946 9.946 0 0 1-2.502-.15 8.921 8.921 0 0 1-2.036-.646 30.809 30.809 0 0 1-3.839-2.216 3.903 3.903 0 0 1-1.113-1.176 2.048 2.048 0 0 1-.267-1.458 3.627 3.627 0 0 1 .831-1.618 7.983 7.983 0 0 1 2.172-1.676Zm9.937 3.289a4.601 4.601 0 0 0-.617-.398l-.933-.535-.938-.539a5.636 5.636 0 0 0-.695-.359 4.389 4.389 0 0 0-1.696-.379c-.74.021-1.46.242-2.084.641-.768.447-1.142.85-1.113 1.205a1.394 1.394 0 0 0 .661.972c.189.15.387.29.593.418.286.179.592.364.918.549.326.184.641.364.972.529.33.166.554.277.719.345a4.353 4.353 0 0 0 1.696.379 4.06 4.06 0 0 0 2.08-.646c.772-.442 1.141-.845 1.112-1.2a1.4 1.4 0 0 0-.675-.982Z" fill="#7A6BDE"/><path d="m33.892 31.642 6.375-3.683v29.33c0 1.102 1.278 2.205 1.278 2.205l-6.375 3.684s-1.278-1.108-1.278-2.211V31.642Z" fill="#37474F"/><path d="m26.142 31.58 2.687 3.4v12.746a18.984 18.984 0 0 1-2.915 10.082l9.232 5.345a3.401 3.401 0 0 1-1.278-2.21v-24.89l-7.726-4.475Z" fill="#455A64"/><path d="M25.914 57.833v1.472l9.256 5.345v-1.473l-9.256-5.344Zm9.256 6.817 6.375-3.683v-1.473l-6.375 3.684v1.472Z" fill="#7A6BDE"/><path opacity=".1" d="m35.17 64.65 6.375-3.683v-1.473l-6.375 3.684v1.472Z" fill="#000"/><path d="M33.6 16.157c-1.083-.652-2.59-.569-4.256.393l-.063.034c-3.294 1.91-5.957 6.516-5.957 10.34v.063c0 1.944.719 3.334 1.866 3.927l4.825 2.837 8.046-14.96-4.46-2.634Z" fill="#7A6BDE"/><path opacity=".8" d="M33.6 16.157c-1.083-.652-2.59-.569-4.256.393l-.063.034c-3.294 1.91-5.957 6.516-5.957 10.34v.063c0 1.944.719 3.334 1.866 3.927l4.825 2.837 8.046-14.96-4.46-2.634Z" fill="#FAFAFA"/><path opacity=".2" d="m25.18 30.923 4.825 2.838 2.672-4.961-8.81-5.088a10.58 10.58 0 0 0-.543 3.212v.063c0 1.978.71 3.343 1.856 3.936Z" fill="#7A6BDE"/><path d="M44.019 19.825c-1.225-.7-2.877-.675-4.704.219a6.765 6.765 0 0 0-.583.31c-.194.117-.462.278-.685.433-.381.263-.746.549-1.094.855a15.022 15.022 0 0 0-1.836 1.886 17.976 17.976 0 0 0-3.372 6.419 12.665 12.665 0 0 0-.486 3.4c0 2.328.796 3.98 2.094 4.787l-4.611-2.658a5.941 5.941 0 0 1-2.722-5.136 12.51 12.51 0 0 1 .457-3.236 17.84 17.84 0 0 1 3.402-6.57 14.693 14.693 0 0 1 1.836-1.885 11.8 11.8 0 0 1 1.103-.894c.229-.155.457-.301.686-.432a6.65 6.65 0 0 1 .592-.306 5.908 5.908 0 0 1 5.219.087l.131.073.165.097 4.408 2.551Z" fill="#7A6BDE"/><path opacity=".1" d="M28.732 35.447a5.942 5.942 0 0 1-2.721-5.136c.01-1.094.163-2.182.457-3.236l5.267 2.867a12.673 12.673 0 0 0-.486 3.4c0 2.328.797 3.98 2.094 4.787l-4.611-2.682Z" fill="#000"/><path d="M46.215 24.674c0 4.777-3.348 10.579-7.483 12.964-2.075 1.206-3.96 1.308-5.316.486l-.073-.043c-1.297-.807-2.094-2.46-2.094-4.787 0-4.771 3.348-10.578 7.483-12.964 2.06-1.19 3.931-1.307 5.287-.53 1.355.778 2.196 2.484 2.196 4.874Z" fill="#7A6BDE"/><path opacity=".2" d="M46.215 24.674c0 4.777-3.348 10.579-7.483 12.964-2.075 1.206-3.96 1.308-5.316.486l-.073-.043c-1.297-.807-2.094-2.46-2.094-4.787 0-4.771 3.348-10.578 7.483-12.964 2.06-1.19 3.931-1.307 5.287-.53 1.355.778 2.196 2.484 2.196 4.874Z" fill="#000"/><path d="M69.164 23.44s-7.55 3.887-13.999 15.063a51.128 51.128 0 0 0-3.06 6.23c-3.237 7.944-2.97 13.42-2.97 13.42-2.25-5.515-5.048-11.22-9.718-15.587a70.349 70.349 0 0 0-5.739-4.801c-1.234-.72-1.943-2.274-1.943-4.422.016-1.507.294-3 .821-4.412.346-.95.775-1.867 1.283-2.74a14.821 14.821 0 0 1 5.131-5.418c1.861-1.074 3.571-1.23 4.806-.52 2.294.98 4.64 1.838 7.026 2.57 6.122 1.856 12.463 1.424 18.362.617Z" fill="#7A6BDE"/><path opacity=".8" d="M69.164 23.44s-7.55 3.887-13.999 15.063a51.128 51.128 0 0 0-3.06 6.23c-3.237 7.944-2.97 13.42-2.97 13.42-2.25-5.515-5.048-11.22-9.718-15.587a70.349 70.349 0 0 0-5.739-4.801c-1.234-.72-1.943-2.274-1.943-4.422.016-1.507.294-3 .821-4.412.346-.95.775-1.867 1.283-2.74a14.821 14.821 0 0 1 5.131-5.418c1.861-1.074 3.571-1.23 4.806-.52 2.294.98 4.64 1.838 7.026 2.57 6.122 1.856 12.463 1.424 18.362.617Z" fill="#FAFAFA"/><path opacity=".2" d="M52.104 44.713c-3.236 7.945-2.969 13.421-2.969 13.421-2.25-5.515-5.048-11.22-9.718-15.588a70.329 70.329 0 0 0-5.739-4.8c-1.234-.72-1.943-2.275-1.943-4.422a13 13 0 0 1 .821-4.393c5.739 2.857 14.995 8.14 19.548 15.782Z" fill="#7A6BDE"/><path d="M83.392 34.213c0 4.98-1.536 10.428-4.087 15.462-3.27 6.467-8.202 12.2-13.707 15.388-9.84 5.68-17.814 1.074-17.814-10.282a30.096 30.096 0 0 1 1.181-8.051 42.36 42.36 0 0 1 10.773-18.285 36.377 36.377 0 0 1 2.143-1.943c.306-.253.617-.486.928-.734.442-.335.884-.656 1.336-.972.452-.316.967-.588 1.453-.865 9.815-5.69 17.794-1.074 17.794 10.282Z" fill="#7A6BDE"/><path opacity=".1" d="M79.305 49.674c-3.27 6.468-8.202 12.202-13.707 15.389-9.84 5.68-17.814 1.074-17.814-10.282a30.097 30.097 0 0 1 1.181-8.051c.666 1.458 3.056 3.566 4.13 2.094a27.212 27.212 0 0 0-1.035 7.143c0 3.265.73 5.899 2.104 7.619a5.831 5.831 0 0 0 4.791 2.216c1.944 0 4.218-.715 6.555-2.066 4.7-2.71 9.019-7.584 12.085-13.119-.02.015.593.53 1.71-.943Z" fill="#000"/><path d="M82.172 34.85c0 5.014-1.759 10.69-4.596 15.781-3.067 5.52-7.386 10.394-12.085 13.12-2.337 1.35-4.602 2.065-6.555 2.065a5.831 5.831 0 0 1-4.791-2.216c-1.375-1.72-2.104-4.373-2.104-7.619a27.212 27.212 0 0 1 1.035-7.143c.248-.923.544-1.846.88-2.77a40.043 40.043 0 0 1 2.099-4.766l.486-.972a37.84 37.84 0 0 1 .894-1.555 40.253 40.253 0 0 1 3.513-4.941l.043-.049c.834-1 1.72-1.954 2.658-2.857a25.417 25.417 0 0 1 2.031-1.779c.292-.233.583-.456.875-.67.355-.258.714-.486 1.074-.744.36-.257.71-.447 1.064-.655 2.342-1.356 4.611-2.066 6.56-2.066 4.344.03 6.92 3.684 6.92 9.835Z" fill="#7A6BDE"/><path opacity=".3" d="M82.172 34.85c0 5.014-1.759 10.69-4.596 15.781-3.067 5.52-7.386 10.394-12.085 13.12-2.337 1.35-4.602 2.065-6.555 2.065a5.831 5.831 0 0 1-4.791-2.216c-1.375-1.72-2.104-4.373-2.104-7.619a27.212 27.212 0 0 1 1.035-7.143c.248-.923.544-1.846.88-2.77a40.043 40.043 0 0 1 2.099-4.766l.486-.972a37.84 37.84 0 0 1 .894-1.555 40.253 40.253 0 0 1 3.513-4.941l.043-.049c.834-1 1.72-1.954 2.658-2.857a25.417 25.417 0 0 1 2.031-1.779c.292-.233.583-.456.875-.67.355-.258.714-.486 1.074-.744.36-.257.71-.447 1.064-.655 2.342-1.356 4.611-2.066 6.56-2.066 4.344.03 6.92 3.684 6.92 9.835Z" fill="#000"/><path d="M67.055 37.639 60.807 49.3c-1.76-.66-4.728-1.715-7.148-2.332.097-.311.204-.612.32-.923a39.605 39.605 0 0 1 2.1-4.767c.165-.32.335-.637.486-.972.286-.525.583-1.045.894-1.55a39.89 39.89 0 0 1 3.557-4.995c.19-.224.379-.447.568-.66a40.553 40.553 0 0 0 5.471 4.538Z" fill="#7A6BDE"/><path d="M67.055 37.639 60.807 49.3c-1.76-.66-4.728-1.715-7.148-2.332.097-.311.204-.612.32-.923a39.605 39.605 0 0 1 2.1-4.767c.165-.32.335-.637.486-.972.286-.525.583-1.045.894-1.55a39.89 39.89 0 0 1 3.557-4.995c.19-.224.379-.447.568-.66a40.553 40.553 0 0 0 5.471 4.538Z" fill="#FAFAFA" opacity=".6"/><path d="M61.307 49.276c-1.414 0-2.255-1.142-2.255-3.052v-.058c0-3.003 2.114-6.671 4.719-8.173l.048-.029a4.088 4.088 0 0 1 1.973-.612c1.41 0 2.255 1.142 2.255 3.056v.059c0 3.002-2.119 6.666-4.718 8.168l-.05.029a4.033 4.033 0 0 1-1.972.612Z" fill="#7A6BDE"/><path d="M61.307 49.276c-1.414 0-2.255-1.142-2.255-3.052v-.058c0-3.003 2.114-6.671 4.719-8.173l.048-.029a4.088 4.088 0 0 1 1.973-.612c1.41 0 2.255 1.142 2.255 3.056v.059c0 3.002-2.119 6.666-4.718 8.168l-.05.029a4.033 4.033 0 0 1-1.972.612Z" fill="#FAFAFA" opacity=".8"/><path d="M68.027 16.414a1.404 1.404 0 0 1-1.404-1.404V1.404a1.404 1.404 0 0 1 2.809 0V15.01a1.405 1.405 0 0 1-1.405 1.404ZM55.68 19.728a1.4 1.4 0 0 1-1.215-.7L47.663 7.259a1.404 1.404 0 1 1 2.43-1.409l6.802 11.769a1.405 1.405 0 0 1-1.22 2.109h.005ZM42.819 85.219a1.41 1.41 0 0 1-1.215-2.11l6.802-11.768a1.403 1.403 0 1 1 2.43 1.404l-6.803 11.77a1.409 1.409 0 0 1-1.215.704Zm25.208 1.817a1.404 1.404 0 0 1-1.404-1.404V72.026a1.404 1.404 0 0 1 2.809 0v13.606a1.405 1.405 0 0 1-1.405 1.404ZM87.21 74.334a1.404 1.404 0 0 1-1.204-.7l-6.803-11.768a1.405 1.405 0 0 1 2.43-1.405l6.802 11.769a1.41 1.41 0 0 1-1.214 2.109l-.01-.005Zm14.019-14.028c-.245 0-.486-.063-.699-.184l-11.769-6.803a1.405 1.405 0 0 1 1.41-2.43l11.763 6.803a1.408 1.408 0 0 1 .652 1.58 1.41 1.41 0 0 1-1.357 1.039v-.005Zm5.136-19.16H92.76a1.404 1.404 0 1 1 0-2.808h13.605a1.403 1.403 0 0 1 .993 2.397 1.4 1.4 0 0 1-.993.411ZM89.466 28.78a1.404 1.404 0 0 1-.705-2.624l11.769-6.802a1.4 1.4 0 0 1 1.595.062 1.413 1.413 0 0 1 .551.954 1.413 1.413 0 0 1-.307 1.058 1.39 1.39 0 0 1-.435.355L90.17 28.586a1.384 1.384 0 0 1-.704.194Zm-9.053-9.052a1.405 1.405 0 0 1-1.21-2.11L86.006 5.85a1.405 1.405 0 0 1 2.43 1.41l-6.803 11.768a1.4 1.4 0 0 1-1.22.7Z" fill="#E0E0E0"/></svg>