<svg width="292" height="217" fill="none" xmlns="http://www.w3.org/2000/svg"><path d="M42.767 194.636c57.012 29.788 149.46 29.788 206.472 0 57.011-29.787 57.018-78.079 0-107.867-57.019-29.787-149.46-29.787-206.478 0-57.019 29.788-57.012 78.08.006 107.867Z" fill="#F5F5F5"/><path d="M28.02 94.88s-.34-7.648-4.53-12.096-8.93-3.33-10.591-2.374c-1.661.957-2.665 3.493.352 5.113 3.018 1.62 9.432 4.848 10.633 7.96l4.136 1.397Z" fill="#37474F"/><path d="M14.736 81.17c2.584.617 10.104 4.312 11.338 11.954" stroke="#fff" stroke-width=".997" stroke-miterlimit="10" stroke-linecap="round"/><path d="M26.073 93.125c-.359-1.92-2.285-3.153-5.471-2.448-3.187.705-2.713.597-6.727-.204-4.014-.8-6.659.97-6.862 2.502-.23 1.669 3.031 2.225 5.492 3.174 2.462.95 4.19 2.23 3.73 4.428-.393 1.878 0 3.431 2.895 3.96 2.57.467 5.208-1.146 6.38 1.234a3.774 3.774 0 0 0 3.837 1.869c.5-.075.98-.249 1.412-.513 5.397-6.184-4.686-14.002-4.686-14.002Z" fill="#455A64"/><path d="M19.13 100.698a11.34 11.34 0 0 1 5.832-2.854" stroke="#fff" stroke-width=".997" stroke-miterlimit="10" stroke-linecap="round"/><path d="M9.875 91.984c4.15.082 16.49 4.388 19.921 10.971" stroke="#fff" stroke-width=".997" stroke-miterlimit="10" stroke-linecap="round"/><path d="M34.292 135.178a15.675 15.675 0 0 1-4.516-1.946c-1.173-.679-13.643-7.859-19.664-11.365a6.994 6.994 0 0 0-6.367-.095 2.57 2.57 0 0 0-.99.95H2.53v.773a2.378 2.378 0 0 0 1.417 1.932l19.745 11.405c1.038.59 2.848 1.688 3.29 2.584l-.306.176v.78l9.27-5.35v-.78l-1.655.936Z" fill="#37474F"/><path d="M3.745 120.972c-1.695.977-1.6 2.611.203 3.655l19.745 11.385c1.465.841 4.476 2.712 2.984 3.539l9.27-5.35c-1.472.861-4.605-.861-6.171-1.769-1.173-.679-13.643-7.859-19.664-11.372a7.022 7.022 0 0 0-6.367-.088Z" fill="#455A64"/><path d="m36.584 133.021-8.992 5.194a3.074 3.074 0 0 0 0 5.425l12.056 6.964a3.61 3.61 0 0 0 3.269 0l8.99-5.194a3.074 3.074 0 0 0 1.638-2.713 3.065 3.065 0 0 0-1.637-2.712l-12.056-6.964a3.611 3.611 0 0 0-3.268 0Z" fill="#37474F"/><path d="m27.592 138.215 8.991-5.194a3.61 3.61 0 0 1 3.269 0l12.056 6.957c.901.522.901 1.356 0 1.892l-8.971 5.187a3.599 3.599 0 0 1-3.268 0l-12.077-6.977c-.929-.502-.929-1.356 0-1.865Z" fill="#7A6BDE"/><path d="M79.553 162.456h-.217a2.938 2.938 0 0 0-1.194-1.166l-24.308-14.036c-1.051-.604-2.035-1.207-1.357-2.747v-.773l-9.357 5.425v.773a5.43 5.43 0 0 1 4.597.888c.936.59 16.898 9.778 24.31 14.036a6.997 6.997 0 0 0 6.332.115 2.033 2.033 0 0 0 1.207-1.715l-.013-.8Z" fill="#37474F"/><path d="M47.73 150.02c.936.583 16.898 9.778 24.31 14.036a7.022 7.022 0 0 0 6.332.115c1.689-.976 1.6-2.617-.203-3.654L53.86 146.481c-1.05-.604-2.034-1.214-1.356-2.747l-9.357 5.425a5.43 5.43 0 0 1 4.584.861Z" fill="#455A64"/><path d="M71.585 160.238a.397.397 0 0 0-.274.379.397.397 0 0 0 .274.38 1.447 1.447 0 0 0 1.316 0 .397.397 0 0 0 .274-.38.4.4 0 0 0-.274-.379 1.446 1.446 0 0 0-1.316 0Zm-4.597-2.65a.41.41 0 0 0 0 .767 1.459 1.459 0 0 0 1.315 0 .41.41 0 0 0 0-.767 1.458 1.458 0 0 0-1.315 0Zm-4.598-2.644a.397.397 0 0 0-.273.38.4.4 0 0 0 .274.379 1.46 1.46 0 0 0 1.322 0 .397.397 0 0 0 .274-.379.402.402 0 0 0-.274-.38 1.46 1.46 0 0 0-1.322 0Zm-4.59-2.658a.397.397 0 0 0-.198.613.39.39 0 0 0 .198.146 1.447 1.447 0 0 0 1.316 0 .4.4 0 0 0 0-.759 1.447 1.447 0 0 0-1.316 0Zm-4.597-2.632a.398.398 0 0 0-.198.614.394.394 0 0 0 .198.145 1.446 1.446 0 0 0 1.316 0 .397.397 0 0 0 .274-.38.399.399 0 0 0-.274-.379 1.446 1.446 0 0 0-1.316 0Z" fill="#37474F"/><path d="M41.282 147.07a2.974 2.974 0 0 1-1.444-.339l-12.056-6.964c-.305-.176-.488-.4-.488-.61 0-.211.183-.441.488-.617l8.991-5.194a3.246 3.246 0 0 1 2.889 0l12.09 6.963c.312.177.488.4.488.611 0 .21-.176.44-.488.617l-8.991 5.194a2.979 2.979 0 0 1-1.479.339Z" fill="#F0F0F0"/><path d="M38.19 133.387a2.59 2.59 0 0 1 1.255.285l12.056 6.963c.244.143.298.265.298.292 0 .027-.054.142-.298.285l-8.991 5.194a2.912 2.912 0 0 1-2.51 0l-12.028-6.964c-.244-.142-.299-.264-.299-.285 0-.02.055-.149.299-.291l8.991-5.194a2.59 2.59 0 0 1 1.255-.285m-.028-.766a3.394 3.394 0 0 0-1.634.393l-8.991 5.194c-.902.515-.902 1.356 0 1.885l12.056 6.957a3.598 3.598 0 0 0 3.268 0l8.991-5.187c.902-.522.902-1.356 0-1.892l-12.028-6.95a3.387 3.387 0 0 0-1.662-.4Z" fill="#fff"/><path d="m29.701 133.456 8.991-5.188a3.61 3.61 0 0 1 3.269 0l12.049 6.957c.901.522.901 1.356 0 1.885l-8.985 5.194a3.598 3.598 0 0 1-3.268 0l-12.056-6.97c-.902-.509-.902-1.356 0-1.878Z" fill="#37474F"/><path d="M40.71 139.952a.277.277 0 0 1-.166.038.657.657 0 0 1-.212-.085l-.083-.048c-.082-.047-.129-.086-.142-.118-.013-.037.007-.071.058-.1l.807-.469-3.295-1.894-.737.583c-.047.028-.126.024-.237-.01a1.442 1.442 0 0 1-.296-.126c-.077-.044-.081-.096-.013-.155l1.044-.932a.509.509 0 0 1 .193-.06c.072-.012.128-.007.166.015l3.83 2.2.691-.401c.052-.03.107-.04.167-.03.06.004.13.03.212.077l.084.048c.08.047.128.089.14.126.014.032-.005.063-.057.092l-2.153 1.249Zm2.789-1.617c-.039.023-.114.019-.225-.01a1.318 1.318 0 0 1-.282-.118c-.052-.03-.08-.053-.084-.07l-.64-2.07a1.486 1.486 0 0 0-.18-.422.923.923 0 0 0-.29-.248 1.113 1.113 0 0 0-.615-.147 1.33 1.33 0 0 0-.629.187.95.95 0 0 0-.307.252c-.051.08-.1.177-.147.293-.013.067-.032.108-.058.123-.051.029-.152.036-.301.019a.897.897 0 0 1-.315-.077c-.09-.052-.114-.135-.07-.248a.975.975 0 0 1 .255-.371c.132-.132.282-.245.449-.342a2.628 2.628 0 0 1 1.224-.362c.428-.02.811.066 1.15.261.15.086.267.178.353.277.09.096.165.221.225.374s.123.366.188.64l.458 1.344 1.544-.896a.248.248 0 0 1 .16-.033.51.51 0 0 1 .212.077l.084.048c.081.047.129.089.142.126.012.032-.007.063-.058.092l-2.243 1.301Zm.596-3.327c-.188.109-.335.132-.442.071l-.47-.27c-.106-.061-.066-.146.122-.256l.141-.081c.188-.109.336-.133.443-.072l.469.27c.107.061.066.147-.122.256l-.14.082Zm2.595 1.491c-.188.109-.335.133-.442.071l-.47-.269c-.106-.062-.066-.147.122-.256l.141-.082c.188-.109.336-.133.443-.071l.469.269c.107.062.066.147-.122.256l-.14.082Zm2.295-1.294c-.393.228-.893.298-1.501.211-.603-.09-1.288-.356-2.055-.796-.767-.441-1.23-.835-1.388-1.183-.155-.35-.036-.64.357-.868.398-.23.9-.302 1.508-.214.607.088 1.294.352 2.061.793.767.44 1.227.836 1.382 1.186.155.35.033.641-.364.871Zm-.54-.317c.184-.107.194-.266.032-.478-.16-.215-.555-.504-1.19-.868-.633-.365-1.136-.592-1.508-.683-.369-.093-.645-.086-.828.02-.184.107-.194.266-.031.478.158.21.557.498 1.195.865s1.141.597 1.51.69c.363.09.637.082.82-.024Zm3.482-1.389c-.393.228-.894.298-1.501.211-.604-.091-1.289-.356-2.055-.797-.767-.44-1.23-.834-1.389-1.182-.154-.351-.035-.64.358-.868.397-.23.9-.302 1.507-.214.608.088 1.295.352 2.062.792.766.441 1.227.836 1.382 1.187.154.35.033.641-.364.871Zm-.54-.317c.184-.107.194-.266.031-.478-.158-.215-.555-.504-1.189-.869-.633-.364-1.136-.591-1.509-.682-.368-.093-.644-.086-.828.02-.183.107-.194.266-.03.478.158.21.556.498 1.194.865.639.366 1.142.596 1.51.689.364.091.637.083.821-.023Z" fill="#fff"/><path d="m113.184 131.264-21.243 12.267a3.065 3.065 0 0 0 0 5.424l39.626 22.885a3.65 3.65 0 0 0 3.268 0l21.244-12.266a3.06 3.06 0 0 0 1.638-2.713 3.062 3.062 0 0 0-1.638-2.712l-39.626-22.885a3.615 3.615 0 0 0-3.269 0Z" fill="#7A6BDE"/><path d="m113.184 131.264-21.243 12.267a3.065 3.065 0 0 0 0 5.424l39.626 22.885a3.65 3.65 0 0 0 3.268 0l21.244-12.266a3.06 3.06 0 0 0 1.638-2.713 3.062 3.062 0 0 0-1.638-2.712l-39.626-22.885a3.615 3.615 0 0 0-3.269 0Z" fill="#7A6BDE"/><path d="m113.184 131.264-21.243 12.267a3.065 3.065 0 0 0 0 5.424l39.626 22.885a3.65 3.65 0 0 0 3.268 0l21.244-12.266a3.06 3.06 0 0 0 1.638-2.713 3.062 3.062 0 0 0-1.638-2.712l-39.626-22.885a3.615 3.615 0 0 0-3.269 0Z" fill="#7A6BDE"/><path opacity=".1" d="m113.184 131.264-21.243 12.267a3.065 3.065 0 0 0 0 5.424l39.626 22.885a3.65 3.65 0 0 0 3.268 0l21.244-12.266a3.06 3.06 0 0 0 1.638-2.713 3.062 3.062 0 0 0-1.638-2.712l-39.626-22.885a3.615 3.615 0 0 0-3.269 0Z" fill="#000"/><path d="m133.201 140.927-16.748-9.663a3.615 3.615 0 0 0-3.269 0l-21.243 12.267a3.065 3.065 0 0 0 0 5.424l39.626 22.885a3.376 3.376 0 0 0 1.634.386v-31.299Z" fill="#7A6BDE"/><path d="m131.574 168.287-39.633-22.885c-.902-.515-.902-1.356 0-1.885l21.244-12.253a3.609 3.609 0 0 1 3.268 0l39.626 22.885c.902.515.902 1.356 0 1.885l-21.244 12.253a3.595 3.595 0 0 1-3.261 0Z" fill="#7A6BDE"/><path d="m131.574 168.287-39.633-22.885c-.902-.515-.902-1.356 0-1.885l21.244-12.253a3.609 3.609 0 0 1 3.268 0l39.626 22.885c.902.515.902 1.356 0 1.885l-21.244 12.253a3.595 3.595 0 0 1-3.261 0Z" fill="#7A6BDE"/><path d="m131.574 168.287-39.633-22.885c-.902-.515-.902-1.356 0-1.885l21.244-12.253a3.609 3.609 0 0 1 3.268 0l39.626 22.885c.902.515.902 1.356 0 1.885l-21.244 12.253a3.595 3.595 0 0 1-3.261 0Z" fill="#7A6BDE"/><path opacity=".2" d="m131.574 168.287-39.633-22.885c-.902-.515-.902-1.356 0-1.885l21.244-12.253a3.609 3.609 0 0 1 3.268 0l39.626 22.885c.902.515.902 1.356 0 1.885l-21.244 12.253a3.595 3.595 0 0 1-3.261 0Z" fill="#fff"/><path d="m97.087 145.856 20.146-11.629a1.416 1.416 0 0 1 1.301 0l32.398 18.735a.399.399 0 0 1 0 .752l-20.138 11.629a1.434 1.434 0 0 1-1.309 0l-32.398-18.701a.403.403 0 0 1-.327-.393.402.402 0 0 1 .327-.393Z" fill="#fff"/><path d="M144.145 161.377a2.3 2.3 0 0 1-2.102 0c-.583-.332-.583-.875 0-1.214a2.338 2.338 0 0 1 2.102 0c.583.339.583.882 0 1.214Z" fill="#7A6BDE"/><path opacity=".1" d="M144.145 161.377a2.3 2.3 0 0 1-2.102 0c-.583-.332-.583-.875 0-1.214a2.338 2.338 0 0 1 2.102 0c.583.339.583.882 0 1.214Z" fill="#000"/><path d="M104.22 138.33a.564.564 0 0 1-.528 0 .152.152 0 0 1-.077-.06.16.16 0 0 1-.03-.092c0-.034.011-.066.03-.093a.158.158 0 0 1 .077-.06.564.564 0 0 1 .528 0 .158.158 0 0 1 .077.06c.019.027.03.059.03.093a.16.16 0 0 1-.03.092.152.152 0 0 1-.077.06Zm-.847 2.428a1.2 1.2 0 0 1-1.071 0 .325.325 0 0 1-.161-.499.323.323 0 0 1 .161-.118 1.183 1.183 0 0 1 1.071 0 .323.323 0 0 1 .222.308.325.325 0 0 1-.222.309Zm.753-1.079c-.197-.115-.19-.305 0-.427l3.512-2.034a.828.828 0 0 1 .732 0c.197.115.183.305 0 .427l-3.505 2.034a.82.82 0 0 1-.739 0Z" fill="#7A6BDE"/><path d="M104.221 138.045a.157.157 0 0 1 .077.06.167.167 0 0 1 .029.092.163.163 0 0 1-.106.153.571.571 0 0 1-.529 0m-.319 2.408a1.2 1.2 0 0 1-1.071 0 .325.325 0 0 1-.161-.499.323.323 0 0 1 .161-.118 1.183 1.183 0 0 1 1.071 0 .323.323 0 0 1 .222.308.325.325 0 0 1-.222.309Zm.753-1.079c-.197-.115-.19-.305 0-.427l3.512-2.034a.828.828 0 0 1 .732 0c.197.115.183.305 0 .427l-3.505 2.034a.82.82 0 0 1-.739 0Z" fill="#7A6BDE"/><path d="M104.221 138.045a.157.157 0 0 1 .077.06.167.167 0 0 1 .029.092.163.163 0 0 1-.106.153.571.571 0 0 1-.529 0m-.319 2.408a1.2 1.2 0 0 1-1.071 0 .325.325 0 0 1-.161-.499.323.323 0 0 1 .161-.118 1.183 1.183 0 0 1 1.071 0 .323.323 0 0 1 .222.308.325.325 0 0 1-.222.309Zm.753-1.079c-.197-.115-.19-.305 0-.427l3.512-2.034a.828.828 0 0 1 .732 0c.197.115.183.305 0 .427l-3.505 2.034a.82.82 0 0 1-.739 0Z" fill="#7A6BDE"/><path opacity=".1" d="M104.22 138.33a.564.564 0 0 1-.528 0 .152.152 0 0 1-.077-.06.16.16 0 0 1-.03-.092c0-.034.011-.066.03-.093a.158.158 0 0 1 .077-.06.564.564 0 0 1 .528 0 .158.158 0 0 1 .077.06c.019.027.03.059.03.093a.16.16 0 0 1-.03.092.152.152 0 0 1-.077.06Z" fill="#000"/><path opacity=".1" d="M104.221 138.045a.157.157 0 0 1 .077.06.167.167 0 0 1 .029.092.163.163 0 0 1-.106.153.571.571 0 0 1-.529 0m-.319 2.408a1.2 1.2 0 0 1-1.071 0 .325.325 0 0 1-.161-.499.323.323 0 0 1 .161-.118 1.183 1.183 0 0 1 1.071 0 .323.323 0 0 1 .222.308.325.325 0 0 1-.222.309Zm.753-1.079c-.197-.115-.19-.305 0-.427l3.512-2.034a.828.828 0 0 1 .732 0c.197.115.183.305 0 .427l-3.505 2.034a.82.82 0 0 1-.739 0Z" fill="#000"/><path d="m254.337 125.941 33.504 19.339a3.06 3.06 0 0 1 1.637 2.712 3.061 3.061 0 0 1-1.637 2.712l-51.893 29.964a3.609 3.609 0 0 1-3.268 0l-33.496-19.345a3.065 3.065 0 0 1 0-5.425l51.919-29.957a3.593 3.593 0 0 1 3.234 0Z" fill="#7A6BDE"/><path d="m254.337 125.941 33.504 19.339a3.06 3.06 0 0 1 1.637 2.712 3.061 3.061 0 0 1-1.637 2.712l-51.893 29.964a3.609 3.609 0 0 1-3.268 0l-33.496-19.345a3.065 3.065 0 0 1 0-5.425l51.919-29.957a3.593 3.593 0 0 1 3.234 0Z" fill="#7A6BDE"/><path opacity=".2" d="m254.337 125.941 33.504 19.339a3.06 3.06 0 0 1 1.637 2.712 3.061 3.061 0 0 1-1.637 2.712l-51.893 29.964a3.609 3.609 0 0 1-3.268 0l-33.496-19.345a3.065 3.065 0 0 1 0-5.425l51.919-29.957a3.593 3.593 0 0 1 3.234 0Z" fill="#000"/><path d="m222.062 142.689 29.041-16.748a3.596 3.596 0 0 1 3.262 0l33.503 19.339a3.06 3.06 0 0 1 1.638 2.712 3.062 3.062 0 0 1-1.638 2.712l-51.893 29.964a3.376 3.376 0 0 1-1.634.386v-6.523l-12.279-31.842Z" fill="#7A6BDE"/><path d="m235.948 177.128 51.893-29.963c.901-.516.901-1.357 0-1.885l-33.504-19.339a3.595 3.595 0 0 0-3.261 0l-51.893 29.964c-.901.515-.901 1.356 0 1.885l33.497 19.338a3.597 3.597 0 0 0 3.268 0Z" fill="#7A6BDE"/><path opacity=".1" d="m235.948 177.128 51.893-29.963c.901-.516.901-1.357 0-1.885l-33.504-19.339a3.595 3.595 0 0 0-3.261 0l-51.893 29.964c-.901.515-.901 1.356 0 1.885l33.497 19.338a3.597 3.597 0 0 0 3.268 0Z" fill="#000"/><path d="m282.694 147.618-32.398-18.707a1.468 1.468 0 0 0-1.308 0l-44.658 25.766a.4.4 0 0 0 0 .753l32.398 18.708a1.488 1.488 0 0 0 1.309 0l44.657-25.767a.399.399 0 0 0 0-.753Z" fill="#FAFAFA"/><path d="M217.349 166.659a2.299 2.299 0 0 0 2.102 0 .639.639 0 0 0 0-1.214 2.303 2.303 0 0 0-2.102 0 .636.636 0 0 0 0 1.214Z" fill="#7A6BDE"/><path d="M217.349 166.659a2.299 2.299 0 0 0 2.102 0 .639.639 0 0 0 0-1.214 2.3 2.3 0 0 0-2.102 0 .635.635 0 0 0-.32.982c.079.109.192.19.32.232Z" fill="#000" opacity=".3"/><path d="M269.262 136.689a.576.576 0 0 0 .535 0 .163.163 0 0 0 .077-.246.169.169 0 0 0-.077-.06.577.577 0 0 0-.535 0 .164.164 0 0 0-.077.246.164.164 0 0 0 .077.06Zm.827 2.441a1.184 1.184 0 0 0 1.064 0 .325.325 0 0 0 .161-.499.323.323 0 0 0-.161-.118 1.171 1.171 0 0 0-1.064 0 .323.323 0 0 0-.222.308.323.323 0 0 0 .222.309Zm-.725-1.085c.196-.115.183-.305 0-.427l-3.513-2.034a.804.804 0 0 0-.732 0c-.197.108-.19.298 0 .42l3.512 2.034a.805.805 0 0 0 .733.007Z" fill="#7A6BDE"/><path d="M269.262 136.69a.577.577 0 0 0 .536 0 .169.169 0 0 0 .077-.06.17.17 0 0 0 .029-.093.17.17 0 0 0-.029-.093.169.169 0 0 0-.077-.06.584.584 0 0 0-.536 0 .163.163 0 0 0-.077.246.169.169 0 0 0 .077.06Zm.827 2.441a1.188 1.188 0 0 0 1.065 0 .328.328 0 0 0 .16-.499.32.32 0 0 0-.16-.118 1.174 1.174 0 0 0-1.065 0 .324.324 0 0 0 0 .617Zm-.725-1.086c.196-.115.183-.305 0-.427l-3.513-2.034a.804.804 0 0 0-.732 0c-.197.108-.19.298 0 .42l3.512 2.034a.805.805 0 0 0 .733.007Z" opacity=".3" fill="#000"/><path d="m85.607 72.876-54.923 31.726a3.068 3.068 0 0 0-1.197 4.297c.29.478.703.868 1.197 1.128l39.633 22.878a3.61 3.61 0 0 0 3.268 0l54.924-31.727a3.066 3.066 0 0 0 1.63-2.712 3.073 3.073 0 0 0-1.63-2.712L88.876 72.876a3.608 3.608 0 0 0-3.269 0Z" fill="#7A6BDE"/><path opacity=".2" d="m85.607 72.876-54.923 31.726a3.068 3.068 0 0 0-1.197 4.297c.29.478.703.868 1.197 1.128l39.633 22.878a3.61 3.61 0 0 0 3.268 0l54.924-31.727a3.066 3.066 0 0 0 1.63-2.712 3.073 3.073 0 0 0-1.63-2.712L88.876 72.876a3.608 3.608 0 0 0-3.269 0Z" fill="#000"/><path d="m71.924 80.775-41.267 23.828a3.065 3.065 0 0 0 0 5.424l39.633 22.878a3.383 3.383 0 0 0 1.634.393V80.775Z" fill="#7A6BDE"/><path opacity=".1" d="m71.924 80.775-41.267 23.828a3.065 3.065 0 0 0 0 5.424l39.633 22.878a3.383 3.383 0 0 0 1.634.393V80.775Z" fill="#000"/><path d="M30.657 104.602 85.58 72.876a3.608 3.608 0 0 1 3.269 0l39.632 22.878c.902.522.902 1.356 0 1.885l-54.923 31.726a3.598 3.598 0 0 1-3.268 0l-39.633-22.877c-.902-.523-.902-1.37 0-1.886Z" fill="#7A6BDE"/><path d="m56.6 71.933-33.225-19.17a3.133 3.133 0 0 0-.394 1.594l2.841 47.533a3.773 3.773 0 0 0 1.648 2.766 3.498 3.498 0 0 0 3.16-.054l26.546-15.304-.576-17.365Z" fill="#7A6BDE"/><path opacity=".2" d="m56.6 71.933-33.225-19.17a3.133 3.133 0 0 0-.394 1.594l2.841 47.533a3.773 3.773 0 0 0 1.648 2.766 3.498 3.498 0 0 0 3.16-.054l26.546-15.304-.576-17.365Z" fill="#000"/><path d="m36.787 104.602 48.82-28.187a3.607 3.607 0 0 1 3.269 0l1.356.766c.902.522.902 1.356 0 1.885l-48.82 28.187a3.598 3.598 0 0 1-3.27 0l-1.355-.766c-.902-.522-.902-1.37 0-1.885Z" fill="#7A6BDE"/><path opacity=".1" d="m36.787 104.602 48.82-28.187a3.607 3.607 0 0 1 3.269 0l1.356.766c.902.522.902 1.356 0 1.885l-48.82 28.187a3.598 3.598 0 0 1-3.27 0l-1.355-.766c-.902-.522-.902-1.37 0-1.885Z" fill="#000"/><path d="m42.937 108.134 48.82-28.187a3.649 3.649 0 0 1 3.269 0l15.114 8.733c.902.516.902 1.357 0 1.886l-48.82 28.187a3.61 3.61 0 0 1-3.27 0l-15.113-8.734c-.922-.515-.922-1.363 0-1.885Z" fill="#7A6BDE"/><path opacity=".1" d="m42.937 108.134 48.82-28.187a3.649 3.649 0 0 1 3.269 0l15.114 8.733c.902.516.902 1.357 0 1.886l-48.82 28.187a3.61 3.61 0 0 1-3.27 0l-15.113-8.734c-.922-.515-.922-1.363 0-1.885Z" fill="#000"/><path d="m82.746 109.905 15.114-8.727a3.61 3.61 0 0 1 3.268 0l5.92 3.425c.902.515.902 1.356 0 1.885l-15.114 8.726a3.599 3.599 0 0 1-3.268 0l-5.927-3.424c-.895-.515-.895-1.363.007-1.885Z" fill="#7A6BDE"/><path opacity=".1" d="m82.746 109.905 15.114-8.727a3.61 3.61 0 0 1 3.268 0l5.92 3.425c.902.515.902 1.356 0 1.885l-15.114 8.726a3.599 3.599 0 0 1-3.268 0l-5.927-3.424c-.895-.515-.895-1.363.007-1.885Z" fill="#000"/><path d="m87.425 92.878 1.519-.881c.067-.041.06-.102 0-.143l-1.933-1.098a.284.284 0 0 0-.258 0l-1.518.874c-.068.041-.055.109 0 .15l1.891 1.091a.298.298 0 0 0 .299.007Zm-3.343-3.655-1.526.875c-.06.04-.054.102 0 .15l1.892 1.09a.272.272 0 0 0 .25 0l1.527-.874c.06-.04.054-.102 0-.149l-1.892-1.092a.272.272 0 0 0-.251 0Zm-4.916 2.835-2.577 1.491c-.068 0-.06.102 0 .143l1.892 1.092a.292.292 0 0 0 .258 0l2.576-1.492c.061-.034.055-.102 0-.143l-1.891-1.091a.278.278 0 0 0-.258-.034v.034Zm2.712-1.553-1.525.881c-.061.034-.055.102 0 .143l1.912 1.085a.278.278 0 0 0 .25 0l1.526-.882c.061-.034.054-.102 0-.142l-1.892-1.092a.278.278 0 0 0-.291-.027l.02.034Zm-5.974 3.445-1.519.881c-.067.034-.06.102 0 .142l1.892 1.099a.284.284 0 0 0 .258 0l1.519-.875c.068-.04.054-.108 0-.15l-1.892-1.118a.299.299 0 0 0-.278-.013l.02.034Zm-2.224 1.288-1.519.874c-.067.041-.06.109 0 .15l1.892 1.091a.312.312 0 0 0 .258 0l1.519-.881c.068-.04.054-.102 0-.15l-1.892-1.091a.272.272 0 0 0-.278-.027l.02.034Zm7.46 4.434 1.525-.874c.06-.041.054-.102 0-.15l-1.892-1.091a.271.271 0 0 0-.251 0l-1.526.874c-.06.041-.054.102 0 .15l1.892 1.091a.272.272 0 0 0 .224-.034l.027.034Zm-2.225 1.289 1.526-.882c.06-.034.054-.101 0-.142l-1.892-1.092a.257.257 0 0 0-.251 0l-1.526.882c-.06.033-.054.101 0 .142l1.892 1.092a.285.285 0 0 0 .21-.034l.041.034Zm-2.224 1.281 1.526-.874c.06-.041.054-.109 0-.15l-1.94-1.146a.3.3 0 0 0-.25 0l-1.526.882c-.061.034-.055.102 0 .142l1.892 1.099a.266.266 0 0 0 .27.013l.028.034Zm-2.224 1.289 1.526-.882c.06-.041.054-.102 0-.149l-1.892-1.092a.274.274 0 0 0-.251 0l-1.526.875c-.06.041-.054.102 0 .149l1.892 1.092a.3.3 0 0 0 .224-.027l.027.034Zm10.76-9.337 1.52-.882c.067 0 .06-.102 0-.142l-1.892-1.092a.292.292 0 0 0-.258 0l-1.519.882c-.068.033-.054.101 0 .142l1.892 1.092a.278.278 0 0 0 .23-.034l.028.034Zm-1.864 4.197 3.39-1.96c.068-.04.055-.102 0-.149l-4.597-2.651a.272.272 0 0 0-.25 0l-1.757 1.01c-.06.04-.054.102 0 .15l2.434 1.403c.075.04.082.108 0 .142l-1.403.814c-.061.034-.055.102 0 .142l1.891 1.092a.277.277 0 0 0 .265-.027l.027.034Zm-11.947-1.906-1.52.882c-.067.034-.06.102 0 .142l1.892 1.092a.291.291 0 0 0 .258 0l1.52-.882c.067-.033.053-.101 0-.142l-1.893-1.091a.278.278 0 0 0-.257 0Zm-2.224 1.289-1.52.874c-.067.041-.06.102 0 .15l1.892 1.091a.284.284 0 0 0 .258 0l1.519-.874c.068-.041.054-.102 0-.15l-1.892-1.091a.271.271 0 0 0-.237 0h-.02Zm-10.592 14.7a.274.274 0 0 0 .251 0l1.519-.874c.068-.041.06-.102 0-.15l-1.892-1.091a.276.276 0 0 0-.129-.031.276.276 0 0 0-.129.031l-1.518.874c-.068.041-.055.102 0 .15l1.898 1.091Zm-7.2-4.428-1.527.875c-.06.041-.054.102 0 .149l1.892 1.092a.274.274 0 0 0 .251 0l1.526-.875c.06-.04.054-.101 0-.149l-1.892-1.092a.285.285 0 0 0-.23 0h-.02Zm3.912 3.201a.274.274 0 0 0 .25 0l1.52-.882c.067 0 .06-.101 0-.142l-1.9-1.092a.287.287 0 0 0-.125-.03.287.287 0 0 0-.125.03l-1.52.882c-.067.034-.06.102 0 .142l1.9 1.092Zm7.41 2.122 1.526-.881c.061-.034.055-.102 0-.143l-1.891-1.091a.274.274 0 0 0-.251 0l-1.526.881c-.06.034-.054.102 0 .143l1.892 1.091a.28.28 0 0 0 .136.036.28.28 0 0 0 .135-.036h-.02Zm-2.474 1.275a.274.274 0 0 0 .25 0l1.526-.875c.061-.04.055-.108 0-.149l-1.891-1.092a.302.302 0 0 0-.251 0l-1.526.882c-.061.041-.054.102 0 .142l1.892 1.092Zm-6.625-7.886-1.526.882c-.06.034-.054.101 0 .142l1.892 1.099a.273.273 0 0 0 .251 0l1.526-.882c.06 0 .054-.102 0-.142l-1.892-1.092a.323.323 0 0 0-.115-.027.305.305 0 0 0-.115.02h-.02Zm11.12-6.421-1.525.881c-.061.034-.055.102 0 .143l1.892 1.098a.274.274 0 0 0 .25 0l1.526-.874c.061-.041.054-.109 0-.15l-1.892-1.091a.285.285 0 0 0-.114-.027.305.305 0 0 0-.116.02h-.02Zm-8.875 5.16-1.526.881c-.061 0-.054.102 0 .143l1.892 1.092a.286.286 0 0 0 .25 0l1.526-.882c.061-.034.055-.102 0-.142l-1.892-1.092a.274.274 0 0 0-.25 0Zm11.12-6.421-1.52.881c-.067 0-.06.102 0 .143l1.893 1.091a.274.274 0 0 0 .25 0l1.526-.881c.061-.034.055-.102 0-.143l-1.891-1.091a.257.257 0 0 0-.258-.02v.02Zm-4.448 2.57-1.526.874c-.061.041-.054.102 0 .149l1.892 1.092a.303.303 0 0 0 .25 0l1.526-.881c.061-.041.055-.102 0-.15l-1.891-1.091a.271.271 0 0 0-.251-.014v.021Zm-2.224 1.281-1.526.882c-.061.033-.054.101 0 .142l1.892 1.092c.039.019.082.03.125.03a.287.287 0 0 0 .126-.03l1.525-.882c.061-.034.055-.102 0-.142l-1.892-1.099a.27.27 0 0 0-.123-.036.265.265 0 0 0-.127.023v.02Zm-2.224 1.288-1.526.875c-.061.041-.054.102 0 .149l1.892 1.092a.274.274 0 0 0 .25 0l1.526-.875c.061-.04.054-.101 0-.149l-1.892-1.092a.282.282 0 0 0-.123-.041.28.28 0 0 0-.127.021v.02Zm11.9 1.865 1.518-.875c.068-.04.061-.101 0-.149l-1.891-1.091a.262.262 0 0 0-.126-.031.262.262 0 0 0-.125.031l-1.54.854c-.06.041-.054.102 0 .149l1.892 1.092a.27.27 0 0 0 .272 0v.02Zm18.986-19.711-1.526.881c-.061.034-.054.102 0 .143l1.892 1.091a.279.279 0 0 0 .25 0l1.526-.881c.061 0 .054-.102 0-.143l-1.892-1.091a.258.258 0 0 0-.23-.02l-.02.02Zm-2.713 1.552-1.525.882c-.061.034-.055.102 0 .142l1.891 1.092a.278.278 0 0 0 .251 0l1.526-.882c.061 0 .054-.101 0-.142l-1.892-1.092a.278.278 0 0 0-.183-.02l-.068.02Zm4.916-2.834-1.458.855c-.06.04-.054.101 0 .149l1.892 1.091a.271.271 0 0 0 .251 0l1.526-.874c.06-.041.054-.102 0-.15l-1.892-1.09a.271.271 0 0 0-.278 0l-.04.02Zm-11.174 12.07 1.525-.882c.061-.04.055-.102 0-.149l-1.891-1.092a.271.271 0 0 0-.251 0l-1.526.875c-.061.04-.054.109 0 .15l1.892 1.091a.3.3 0 0 0 .291-.014l-.04.02Zm13.69-13.358a.278.278 0 0 0-.251 0l-1.526.881c-.06 0-.054.102 0 .143l1.892 1.091a.278.278 0 0 0 .251 0l1.526-.881c.06-.034.054-.102 0-.142l-1.892-1.092Zm-21.481 20.986 1.525-.882c.061 0 .055-.101 0-.142l-1.891-1.092a.286.286 0 0 0-.251 0l-1.54.862c-.06.033-.054.101 0 .142l1.892 1.092a.274.274 0 0 0 .265.013v.007Zm27.278-15.751 1.519-.875c.068-.04.061-.102 0-.15l-1.892-1.091a.286.286 0 0 0-.257 0l-1.52.875c-.067.04-.053.101 0 .149l1.872 1.078a.27.27 0 0 0 .278.007v.007Zm-4.93-.272 1.526-.881c.061-.04.055-.102 0-.15L94.2 86.64a.27.27 0 0 0-.251 0l-1.512.861c-.061.04-.055.102 0 .15l1.891 1.09a.3.3 0 0 0 .238.014v.007Zm1.838-3.39a.298.298 0 0 0-.25 0l-1.526.881c-.061.034-.054.102 0 .143l1.892 1.098a.271.271 0 0 0 .25 0l1.526-.874c.061-.041.054-.109 0-.15l-1.892-1.098Zm.468-.271 4.597 2.651a.28.28 0 0 0 .251 0l1.519-.881c.068-.034.061-.102 0-.143l-4.597-2.651a.259.259 0 0 0-.25 0l-1.527.881c-.074.014-.067.082.007.122v.02Zm-5.167 2.827-1.525.882c-.061 0-.055.102 0 .142l1.892 1.092a.278.278 0 0 0 .25 0l1.526-.882c.061-.034.054-.101 0-.142l-1.892-1.092a.279.279 0 0 0-.25-.02v.02Zm-16.741 9.67-1.512.854c-.061.04-.055.102 0 .149l1.892 1.092a.271.271 0 0 0 .25 0l1.526-.875c.061-.04.054-.102 0-.15l-1.892-1.09a.272.272 0 0 0-.264 0v.02Zm22.057-7.276a.277.277 0 0 0 .251 0l1.52-.882c.067-.034.06-.101 0-.142l-1.893-1.092a.27.27 0 0 0-.257 0l-1.52.882c-.067 0-.053.102 0 .142l1.9 1.092Zm-19.833 5.987-1.526.882c-.06.034-.054.101 0 .142l1.892 1.092a.277.277 0 0 0 .251 0l1.526-.882c.06 0 .054-.102 0-.142l-1.892-1.092a.279.279 0 0 0-.251-.02v.02Zm-16.342 14.918c.04.019.082.03.126.03a.287.287 0 0 0 .125-.03l1.52-.882c.067-.034.06-.102 0-.142l-1.893-1.092a.288.288 0 0 0-.257 0l-1.52.882c-.067.033-.053.101 0 .142l1.9 1.092Zm-3.668-3.377-1.519.875c-.067.04-.054.101 0 .149l1.892 1.091a.262.262 0 0 0 .126.031c.043 0 .086-.01.125-.031l1.519-.874c.068-.041.06-.102 0-.149l-1.892-1.092a.287.287 0 0 0-.25 0Zm6.157 2.034 1.519-.875c.068-.04.06-.101 0-.149l-1.892-1.092a.287.287 0 0 0-.258 0l-1.518.875c-.068.041-.055.102 0 .149l1.891 1.092a.268.268 0 0 0 .244.027l.014-.027Zm2.224-1.282 1.519-.874c.068-.041.061-.109 0-.149l-1.892-1.092a.318.318 0 0 0-.257 0l-1.52.881c-.067.034-.054.102 0 .143l1.892 1.098a.27.27 0 0 0 .244.021l.014-.028Zm2.224-1.281 1.519-.882c.068-.033.061-.101 0-.142l-1.892-1.098a.276.276 0 0 0-.129-.031.275.275 0 0 0-.128.031l-1.52.881c-.067.034-.054.102 0 .142l1.892 1.092a.297.297 0 0 0 .245.034l.013-.027Zm-8.38-.787-1.52.882c-.067 0-.054.102 0 .142l1.892 1.099a.273.273 0 0 0 .251 0l1.519-.875c.068-.041.061-.108 0-.149l-1.892-1.092a.308.308 0 0 0-.264.021l.013-.028Zm2.223-1.281-1.532.922c-.068.034-.054.102 0 .142l1.892 1.092a.274.274 0 0 0 .25 0l1.52-.881c.067-.034.06-.102 0-.143l-1.892-1.091a.26.26 0 0 0-.124-.038.278.278 0 0 0-.127.024l.013-.027Zm8.903-5.14-1.525.882c-.061 0-.055.101 0 .142l1.892 1.098a.262.262 0 0 0 .125.031c.044 0 .087-.01.125-.031l1.526-.874c.061-.041.054-.109 0-.149l-1.933-1.058a.294.294 0 0 0-.223-.014l.013-.027Zm-2.224 1.288-1.525.875c-.061.041-.055.109 0 .149l1.891 1.092a.302.302 0 0 0 .251 0l1.52-.881c.067-.041.06-.102 0-.15l-1.9-1.057a.262.262 0 0 0-.125-.031.262.262 0 0 0-.125.031l.013-.028Zm4.448-2.57-1.525.882c-.061.034-.055.102 0 .142l1.892 1.092a.274.274 0 0 0 .25 0l1.526-.881c.061-.034.054-.102 0-.143l-1.892-1.091a.277.277 0 0 0-.23.027l-.02-.027Zm-8.903 5.14-1.518.875c-.068.041-.055.102 0 .149l1.891 1.092a.274.274 0 0 0 .251 0l1.52-.875c.067-.041.06-.102 0-.149l-1.893-1.092a.286.286 0 0 0-.264.027l.013-.027Zm2.224-1.288-1.518.881c-.068.034-.055.102 0 .143l1.891 1.092a.286.286 0 0 0 .251 0l1.52-.882c.067 0 .06-.102 0-.142l-1.893-1.092a.285.285 0 0 0-.135-.018.284.284 0 0 0-.13.045l.014-.027Zm-1.091 9.371 1.525-.875c.061-.041.055-.102 0-.149l-1.891-1.092a.273.273 0 0 0-.251 0l-1.526.875c-.061.041-.054.102 0 .149l1.892 1.092a.266.266 0 0 0 .237.027l.014-.027Zm-13.63-1.648-1.891-1.092a.286.286 0 0 0-.251 0l-1.526.929c-.06.034-.054.102 0 .143l1.892 1.092a.286.286 0 0 0 .251 0l1.526-.882c.067-.054.06-.122-.014-.163l.014-.027Zm3.526 1.085-1.898-1.092a.273.273 0 0 0-.25 0l-2.34 1.357c-.068.033-.055.101 0 .142l1.892 1.098a.262.262 0 0 0 .125.031c.044 0 .087-.01.125-.031l2.34-1.356c.074-.04.068-.04-.007-.122l.014-.027Zm-6.455-3.187-1.891-1.092a.273.273 0 0 0-.251 0l-1.879 1.079c-.06.04-.054.101 0 .149l1.926 1.125a.262.262 0 0 0 .126.031c.043 0 .086-.01.125-.031l1.878-1.078c.034-.047.027-.108-.047-.156l.013-.027Zm1.438-.827a.273.273 0 0 0 .25 0l1.52-.882c.067-.033.06-.101 0-.142l-1.899-1.092a.287.287 0 0 0-.125-.03.287.287 0 0 0-.126.03l-1.519.882c-.067.034-.06.102 0 .142l1.899 1.092Zm8.306 5.241-1.898-1.098a.274.274 0 0 0-.251 0l-2.91 1.709c-.067.04-.06.101 0 .149L55 114.569a.276.276 0 0 0 .258 0l2.922-1.688c.054-.027.047-.095-.027-.136l.013-.027Zm1.648 2.17-1.892-1.098a.274.274 0 0 0-.25 0l-1.88 1.078c-.06.041-.053.102 0 .149l1.893 1.092a.273.273 0 0 0 .25 0l1.879-1.078c.075-.041.075-.041-.014-.116l.014-.027Zm6.584-16.952a.299.299 0 0 0 .25 0l1.52-.881c.067 0 .06-.102 0-.142l-1.892-1.099a.284.284 0 0 0-.258 0l-1.519.875c-.067.04-.054.108 0 .149l1.899 1.099Zm-4.475 2.591a.273.273 0 0 0 .25 0l1.52-.875c.067-.04.06-.102 0-.15l-1.9-1.09a.271.271 0 0 0-.25 0l-1.519.874c-.068.04-.061.102 0 .149l1.899 1.092Zm-9.866 5.695a.262.262 0 0 0 .125.031c.044 0 .087-.01.126-.031l1.519-.874c.067-.041.06-.102 0-.149l-1.892-1.058a.288.288 0 0 0-.258 0l-1.519.875c-.068.04-.054.101 0 .149l1.899 1.057Zm12.09-6.984a.258.258 0 0 0 .25 0l1.52-.881c.067-.034.06-.102 0-.142l-1.9-1.092a.279.279 0 0 0-.25 0l-1.519.881c-.068.034-.06.102 0 .143l1.899 1.091Zm-4.455 2.57a.288.288 0 0 0 .258 0l1.518-.881c.068-.034.055-.102 0-.143l-1.892-1.091a.277.277 0 0 0-.25 0l-1.52.881c-.067 0-.06.102 0 .143l1.886 1.091Zm1.356 13.304a.288.288 0 0 0-.258 0l-2.339 1.356c-.061 0-.054.102 0 .142l1.892 1.092a.302.302 0 0 0 .25 0l2.34-1.356c.068-.034.061-.102 0-.142l-1.885-1.092Zm-4.55-11.459a.301.301 0 0 0 .251 0l1.519-.882c.068-.041.06-.102 0-.142l-1.892-1.099a.289.289 0 0 0-.258 0l-1.519.875c-.067.041-.054.108 0 .149l1.9 1.099Zm-2.224 1.281a.274.274 0 0 0 .25 0l1.52-.881c.068 0 .06-.102 0-.143l-1.892-1.091a.288.288 0 0 0-.258 0l-1.518.881c-.068.034-.055.102 0 .142l1.898 1.092Zm47.994-13.615a.305.305 0 0 0-.251 0l-3.75 2.163c-.061.04-.054.101 0 .149l1.892 1.091a.297.297 0 0 0 .251 0l3.749-2.163c.061-.04.055-.108 0-.149l-1.891-1.091Zm-4.916 2.84a.277.277 0 0 0-.251 0l-1.526.882c-.06.034-.054.102 0 .143l1.892 1.091a.278.278 0 0 0 .25 0l1.526-.881c.062 0 .055-.102 0-.143l-1.891-1.091ZM67.17 110.8l1.525-.881c.062-.034.055-.102 0-.142l-1.891-1.092a.274.274 0 0 0-.251 0l-1.526.881c-.06.034-.054.102 0 .143l1.892 1.091a.25.25 0 0 0 .136.039.251.251 0 0 0 .135-.039h-.02Zm25.732-14.076a.271.271 0 0 0-.25 0l-1.526.874c-.061.041-.054.109 0 .15l1.892 1.091a.297.297 0 0 0 .25 0l1.526-.881c.061 0 .055-.102 0-.142l-1.892-1.092Zm11.589-6.686a.262.262 0 0 0-.251 0l-1.526.881c-.061.034-.054.102 0 .143l1.926 1.078a.278.278 0 0 0 .251 0l1.525-.881c.061-.034.055-.102 0-.143l-1.925-1.078Zm4.116-.197-4.577-2.65a.303.303 0 0 0-.251 0l-1.519.88c-.068.035-.061.102 0 .143l4.597 2.658a.273.273 0 0 0 .251 0l1.526-.875c.074-.047.074-.095-.007-.156h-.02ZM84.59 101.523a.273.273 0 0 0-.25 0l-1.879 1.079c-.06.04-.054.101 0 .149l1.892 1.091a.262.262 0 0 0 .126.031c.043 0 .086-.01.125-.031l1.878-1.078c.061-.04.055-.101 0-.149l-1.892-1.092Zm5.622-3.24a.292.292 0 0 0-.258 0l-2.34 1.355c-.06.041-.054.109 0 .15l1.892 1.091a.29.29 0 0 0 .126.028.287.287 0 0 0 .125-.028l2.34-1.356c.067-.034.06-.102 0-.142l-1.885-1.099ZM79.437 104.5a.287.287 0 0 0-.125-.03.287.287 0 0 0-.126.03l-12.517 7.222c-.068.033-.06.101 0 .142l1.892 1.092c.04.019.084.03.129.03a.302.302 0 0 0 .129-.03l12.523-7.235c.068 0 .055-.102 0-.143l-1.905-1.078Zm-13.229 7.635a.274.274 0 0 0-.25 0l-1.872 1.078c-.068.041-.061.102 0 .15l1.898 1.091a.274.274 0 0 0 .251 0l1.872-1.078c.067-.041.054-.102 0-.149l-1.899-1.092Zm15.806-9.127a.273.273 0 0 0-.251 0l-1.872 1.079c-.067.04-.06.101 0 .149l1.892 1.091a.302.302 0 0 0 .258 0l1.871-1.084c.061 0 .055-.102 0-.143l-1.898-1.092Zm-18.362 10.626a.274.274 0 0 0-.251 0l-1.872 1.078c-.067.041-.054.102 0 .149l1.892 1.092a.3.3 0 0 0 .251 0l1.871-1.085c.068-.034.062-.102 0-.143l-1.891-1.091Zm23.535-13.562a.286.286 0 0 0-.25 0l-1.879 1.085c-.06.034-.054.102 0 .143l1.892 1.091a.274.274 0 0 0 .251 0l1.878-1.084c.061-.034.055-.102 0-.143l-1.892-1.092Zm7.96-4.63a.298.298 0 0 0-.25 0l-1.526.88c-.06.041-.054.102 0 .143l1.892 1.099a.27.27 0 0 0 .251 0l1.526-.875c.06-.04.054-.109 0-.15l-1.892-1.098Zm4.829-3.567 1.519-.882c.067-.034.054-.102 0-.142l-1.892-1.092a.279.279 0 0 0-.251 0l-1.519.882c-.068.033-.061.101 0 .142l1.892 1.092a.29.29 0 0 0 .25 0Zm-10.327-.285 1.519-.875c.067-.04.06-.108 0-.15l-1.892-1.09a.313.313 0 0 0-.258 0l-1.519.88c-.067.041-.054.102 0 .143l1.892 1.099a.272.272 0 0 0 .258-.007Zm-4.672 8.937 4.448-2.57c.061 0 .054-.102 0-.142l-1.892-1.099a.271.271 0 0 0-.25 0l-4.449 2.57c-.068 0-.06.102 0 .142l1.892 1.092a.286.286 0 0 0 .25.007Zm12.504-7.378a.285.285 0 0 0 .257 0l1.519-.874c.068-.041.054-.102 0-.15l-1.892-1.091a.271.271 0 0 0-.25 0l-1.526.902c-.068.04-.061.101 0 .149l1.892 1.064Zm-2.448-1.552 1.519-.875c.067-.04.06-.109 0-.15l-1.9-1.091a.298.298 0 0 0-.25 0l-1.519.882c-.068.033-.06.101 0 .142l1.892 1.098a.272.272 0 0 0 .271-.006h-.013Zm-12.28 10.211 1.519-.874c.067-.041.054-.102 0-.15l-1.892-1.091a.299.299 0 0 0-.251 0l-1.519.881c-.068.041-.06.102 0 .149l1.892 1.092a.291.291 0 0 0 .264-.007h-.013Zm9.825-5.804a.258.258 0 0 0 .25 0l1.527-.882c.06-.033.054-.101 0-.142l-1.92-1.098a.277.277 0 0 0-.25 0l-1.526.881c-.06 0-.054.102 0 .143l1.919 1.098Zm-20.939 12.205 1.526-.874c.061-.041.054-.102 0-.15l-1.892-1.091a.287.287 0 0 0-.125-.028.287.287 0 0 0-.126.028l-1.525.881c-.061.041-.055.102 0 .149l1.919 1.085a.27.27 0 0 0 .223 0Zm2.224-1.281 1.526-.882c.061-.034.054-.102 0-.142l-1.94-1.085a.274.274 0 0 0-.25 0l-1.526.881c-.06 0-.054.102 0 .143l1.892 1.091a.279.279 0 0 0 .298.014v-.02Zm-4.448 2.57 1.526-.882c.061 0 .054-.102 0-.142l-1.892-1.099a.274.274 0 0 0-.25 0l-1.526.875c-.061.041-.055.108 0 .149l1.891 1.092a.32.32 0 0 0 .123.041c.043.005.087 0 .128-.014v-.02Zm8.903-5.14 1.52-.882c.06-.034.053-.101 0-.142l-1.893-1.092a.287.287 0 0 0-.125-.03.287.287 0 0 0-.125.03l-1.52.882c-.067.034-.06.101 0 .142l1.892 1.092a.29.29 0 0 0 .123.041.28.28 0 0 0 .128-.021v-.02Zm-2.23 1.281 1.525-.874c.061-.041.054-.102 0-.15l-1.892-1.091a.274.274 0 0 0-.25 0l-1.526.874c-.061.041-.054.102 0 .15l1.892 1.091a.257.257 0 0 0 .123.041.267.267 0 0 0 .128-.02v-.021Zm4.454-2.563 1.52-.881c.067 0 .053-.102 0-.143l-1.893-1.098a.274.274 0 0 0-.25 0l-1.52.875c-.067.04-.06.108 0 .149l1.892 1.091a.314.314 0 0 0 .251.028v-.021Zm9.317-19.494a.271.271 0 0 0 .25 0l1.526-.875c.062-.04.055-.102 0-.149l-.501-.292a.285.285 0 0 0-.258 0l-1.519.882c-.068.034-.054.102 0 .142l.502.292Zm-10.896 7.092a.271.271 0 0 0 .25 0l1.526-.874c.061-.041.054-.102 0-.15l-1.892-1.091a.271.271 0 0 0-.25 0l-1.526.875c-.061.04-.055.101 0 .149l1.892 1.091Zm4.448-2.57a.298.298 0 0 0 .25 0l1.526-.88c.061 0 .054-.103 0-.143l-1.892-1.099a.27.27 0 0 0-.25 0l-1.526.875c-.061.04-.055.108 0 .15l1.892 1.098Zm-7.16 4.137a.298.298 0 0 0 .25 0l1.519-.882c.068 0 .054-.101 0-.142l-1.892-1.099a.271.271 0 0 0-.25 0l-1.52.875c-.067.04-.06.109 0 .15l1.892 1.098Zm4.935-2.855a.258.258 0 0 0 .251 0l1.506-.84c.06-.035.054-.102 0-.143L81.05 87.31a.278.278 0 0 0-.251 0l-1.526.882c-.06.034-.054.101 0 .142l1.912 1.051Zm-9.39 5.425a.284.284 0 0 0 .257 0l1.519-.875c.068-.04.054-.102 0-.15l-1.892-1.09a.271.271 0 0 0-.25 0l-1.52.874c-.067.04-.06.102 0 .149l1.885 1.092Zm2.223-1.282a.285.285 0 0 0 .258 0l1.519-.881c.068-.034.054-.102 0-.143l-1.892-1.091a.278.278 0 0 0-.25 0l-1.52.881c-.067 0-.06.102 0 .142l1.885 1.092Zm11.392-7.377a.271.271 0 0 0 .25 0l1.52-.875c.067-.04.06-.109 0-.15l-.502-.29a.285.285 0 0 0-.258 0l-1.519.874c-.067.04-.054.102 0 .15l.509.29Zm6.672-3.859a.258.258 0 0 0 .25 0l1.527-.881c.06-.034.054-.102 0-.142l-.502-.292a.284.284 0 0 0-.258 0l-1.519.875c-.068.04-.054.102 0 .149l.502.291Zm3.974 2.3a.299.299 0 0 0 .25 0l1.526-.882c.061-.041.054-.102 0-.15l-1.892-1.091a.27.27 0 0 0-.25 0l-1.526.874c-.061.041-.055.102 0 .15l1.891 1.098Zm6.143 5.986 1.519-.881c.067-.04.054-.102 0-.15l-1.892-1.09a.273.273 0 0 0-.251 0l-1.519.874c-.068.04-.06.102 0 .149l1.872 1.099a.308.308 0 0 0 .271 0ZM87.635 84.87a.279.279 0 0 0 .25 0l1.526-.881c.061 0 .055-.102 0-.143l-.501-.291a.292.292 0 0 0-.258 0l-1.519.881c-.068 0-.054.102 0 .143l.502.291ZM69.57 96.1a.292.292 0 0 0 .258 0l1.519-.882c.068 0 .054-.101 0-.142l-1.892-1.092a.278.278 0 0 0-.25 0l-1.52.882c-.068 0-.06.102 0 .142L69.57 96.1Zm-42.073 8.556a3.774 3.774 0 0 1-1.648-2.766l-2.84-47.533a3.39 3.39 0 0 1 1.62-2.902L79.552 19.73a3.464 3.464 0 0 1 3.038 0 3.804 3.804 0 0 1 1.648 2.773l2.84 47.532a3.39 3.39 0 0 1-1.525 2.828L30.63 104.589a3.515 3.515 0 0 1-3.133.067Z" fill="#7A6BDE"/><path opacity=".4" d="M27.497 104.656a3.774 3.774 0 0 1-1.648-2.766l-2.84-47.533a3.39 3.39 0 0 1 1.62-2.902L79.552 19.73a3.464 3.464 0 0 1 3.038 0 3.804 3.804 0 0 1 1.648 2.773l2.84 47.532a3.39 3.39 0 0 1-1.525 2.828L30.63 104.589a3.515 3.515 0 0 1-3.133.067Z" fill="#fff"/><path d="M27.592 53.286 82.516 21.56a1.071 1.071 0 0 1 1.749.942l2.841 47.533a3.391 3.391 0 0 1-1.526 2.827L30.657 104.59a1.072 1.072 0 0 1-1.743-.942l-2.84-47.54a3.337 3.337 0 0 1 1.518-2.82Z" fill="#7A6BDE"/><path d="M28.894 54.432 81.64 23.98a.855.855 0 0 1 1.396.753l2.475 41.436a2.713 2.713 0 0 1-1.213 2.258l-52.34 30.229a.868.868 0 0 1-1.41-.753l-2.855-41.227a2.644 2.644 0 0 1 1.2-2.244Z" fill="#fff"/><path d="m176.109 102.006 7.032-4.069a3.779 3.779 0 0 0 1.688-3.709l-2.59-13.466 3.065-1.77 15.31 12.388c.204 1.079 5.011 10.463 3.54 15.664-1.302 4.584-8.815 5.079-9.669 5.56l-18.376-7.072v-3.526Z" fill="#7A6BDE"/><path d="m194.485 112.618 7.025-4.068a3.777 3.777 0 0 0 1.695-3.709l-2.59-13.46 3.058-1.77 2.963 15.399a5.687 5.687 0 0 1-2.556 5.594l-9.595 5.54v-3.526Z" fill="#7A6BDE"/><path opacity=".3" d="m194.485 112.618 7.025-4.068a3.777 3.777 0 0 0 1.695-3.709l-2.59-13.46 3.058-1.77 2.963 15.399a5.687 5.687 0 0 1-2.556 5.594l-9.595 5.54v-3.526Z" fill="#000"/><path d="m176.109 102.006 18.376 10.612v3.539l-18.376-10.612v-3.539Z" fill="#7A6BDE"/><path opacity=".4" d="m176.109 102.006 18.376 10.612v3.539l-18.376-10.612v-3.539Z" fill="#fff"/><path d="M159.246 12.671a3.505 3.505 0 0 0-1.533 2.774v56.374a3.62 3.62 0 0 0 1.634 2.828l70.268 40.568a3.068 3.068 0 0 0 4.321-1.111c.269-.489.4-1.043.378-1.601V56.129a3.608 3.608 0 0 0-1.634-2.828l-70.268-40.569a3.501 3.501 0 0 0-3.166-.06Z" fill="#7A6BDE"/><path d="M229.615 115.215a3.068 3.068 0 0 0 4.321-1.111c.269-.489.4-1.043.378-1.601V56.129a3.341 3.341 0 0 0-.474-1.607l-54.68 31.563 50.455 29.13Z" fill="#7A6BDE"/><path opacity=".2" d="M229.778 115.093a3.061 3.061 0 0 0 3.153.047 3.065 3.065 0 0 0 1.526-2.759L234.152 56a3.398 3.398 0 0 0-.489-1.607l-54.509 31.869 50.624 28.831Z" fill="#000"/><path d="M157.713 71.819V15.444c0-1.044.732-1.464 1.634-.949l70.268 40.576a3.606 3.606 0 0 1 1.634 2.827v56.375c0 1.044-.732 1.464-1.634.942l-70.268-40.569a3.62 3.62 0 0 1-1.634-2.827Z" fill="#7A6BDE"/><path opacity=".4" d="M157.713 71.819V15.444c0-1.044.732-1.464 1.634-.949l70.268 40.576a3.606 3.606 0 0 1 1.634 2.827v56.375c0 1.044-.732 1.464-1.634.942l-70.268-40.569a3.62 3.62 0 0 1-1.634-2.827Z" fill="#fff"/><path d="m160.554 16.964 67.861 39.178a2.885 2.885 0 0 1 1.302 2.265v50.048c0 .834-.583 1.173-1.302.76l-67.861-39.179a2.884 2.884 0 0 1-1.308-2.265V17.716c0-.834.583-1.173 1.308-.752Z" fill="#fff"/><path d="m149.956 99.396-15.121 8.727a3.06 3.06 0 0 0-1.637 2.712 3.061 3.061 0 0 0 1.637 2.712l48.821 28.187a3.597 3.597 0 0 0 3.268 0l15.121-8.726a3.08 3.08 0 0 0 1.63-2.713 3.074 3.074 0 0 0-1.63-2.712l-48.821-28.187a3.593 3.593 0 0 0-3.268 0Z" fill="#37474F"/><path d="M185.29 142.114a3.287 3.287 0 0 0 1.634-.393l15.121-8.727a3.066 3.066 0 0 0 1.63-2.712 3.074 3.074 0 0 0-1.63-2.712l-1.573-.909H185.29v15.453Z" fill="#263238"/><path d="m202.052 127.596-48.821-28.187a3.605 3.605 0 0 0-3.268 0l-15.121 8.733c-.902.516-.902 1.357 0 1.885l48.821 28.188a3.633 3.633 0 0 0 3.261 0l15.121-8.734c.915-.515.915-1.363.007-1.885Z" fill="#455A64"/><path d="M195.088 126.2a.3.3 0 0 1-.251 0l-1.498-.868c-.061 0-.055-.102 0-.142l.495-.285a.274.274 0 0 1 .251 0l1.498.868c.061.034.054.102 0 .142l-.495.285Zm-2.19-1.261a.3.3 0 0 1-.251 0l-1.498-.868c-.061 0-.055-.102 0-.143l.495-.284a.287.287 0 0 1 .244 0l1.505.868c.061.034.054.101 0 .142l-.495.285Zm4.38 2.528a.252.252 0 0 1-.244 0l-1.498-.861c-.068-.04-.061-.101 0-.149l.495-.285a.275.275 0 0 1 .251 0l1.498.862c.068.04.061.101 0 .149l-.502.284Zm2.197 1.27a.3.3 0 0 1-.251 0l-1.498-.861c-.068-.034-.054-.102 0-.143l.495-.285a.286.286 0 0 1 .244 0l1.505.868c.061.041.054.102 0 .143l-.495.278Zm-21.521-9.988-1.872 1.071c-.068.048-.081.109 0 .149l2.536 1.465a.301.301 0 0 0 .251 0l1.865-1.078c.074-.041.081-.102 0-.143l-2.543-1.464a.257.257 0 0 0-.119-.028.253.253 0 0 0-.118.028Zm-28.507-16.458-1.864 1.078c-.075.041-.082.109 0 .143l1.498.868a.287.287 0 0 0 .251 0l1.865-1.079c.074-.04.081-.101 0-.142l-1.499-.861a.271.271 0 0 0-.251-.007Zm2.198 1.269-1.865 1.078c-.075.041-.081.102 0 .142l1.498.868a.3.3 0 0 0 .251 0l1.865-1.078c.075-.041.081-.108 0-.142l-1.505-.868a.287.287 0 0 0-.244 0Zm-4.021 6.007 1.864-1.078c.075-.047.082-.108 0-.142l-1.451-.895a.252.252 0 0 0-.244 0l-1.864 1.078c-.075.04-.082.108 0 .142l1.43.895a.27.27 0 0 0 .265 0Zm2.19 1.235 1.864-1.078c.075-.041.082-.102 0-.143l-1.498-.861a.275.275 0 0 0-.251 0l-1.865 1.078c-.074.041-.081.109 0 .143l1.505.868a.278.278 0 0 0 .123.026.262.262 0 0 0 .122-.033Zm2.197 1.268 1.864-1.079c.068-.04.082-.108 0-.142l-1.498-.868a.275.275 0 0 0-.251 0l-1.865 1.078c-.074.041-.081.102 0 .143l1.499.861a.271.271 0 0 0 .251.007Zm2.19 1.267 1.864-1.078c.075-.048.082-.109 0-.143l-1.505-.867a.246.246 0 0 0-.122-.031.249.249 0 0 0-.122.031l-1.865 1.078c-.074.04-.081.108 0 .142l1.499.868a.275.275 0 0 0 .251 0Zm-.366-8.517-1.865 1.078c-.075.047-.081.108 0 .142l1.505.868a.257.257 0 0 0 .244 0l1.865-1.078c.075-.041.081-.109 0-.142l-1.499-.868a.285.285 0 0 0-.125-.028.285.285 0 0 0-.125.028Zm2.19 1.268-1.885 1.078c-.075.041-.082.108 0 .142l1.498.868a.275.275 0 0 0 .251 0l1.865-1.078c.067-.04.081-.102 0-.142l-1.499-.861a.267.267 0 0 0-.23-.007Zm15.385 15.006c.075-.041.082-.102 0-.143l-1.498-.861a.275.275 0 0 0-.251 0l-1.865 1.078c-.075.041-.081.109 0 .143l1.499.868a.28.28 0 0 0 .25 0l1.865-1.085Zm2.156-4.882-1.864 1.079c-.075.047-.082.108 0 .142l1.498.868a.275.275 0 0 0 .251 0l1.865-1.078c.074-.041.081-.109 0-.143l-1.512-.874a.277.277 0 0 0-.238.006Zm-10.001 5.609 1.865-1.079c.074-.04.081-.108 0-.142l-1.479-.861a.268.268 0 0 0-.125-.03.268.268 0 0 0-.125.03l-1.865 1.071c-.075.048-.082.109 0 .149l1.505.862a.27.27 0 0 0 .224 0Zm4.061.188c.068-.048.082-.109 0-.149l-1.498-.861a.264.264 0 0 0-.251 0l-1.865 1.078c-.074.04-.081.108 0 .142l1.499.868a.274.274 0 0 0 .251 0l1.864-1.078Zm3.75-7.058-1.864 1.078c-.075.04-.089.101 0 .142l1.498.861a.275.275 0 0 0 .251 0l1.865-1.078c.074-.041.081-.108 0-.142l-1.499-.868a.288.288 0 0 0-.251.007Zm-10.964-6.334-1.865 1.079c-.075.047-.081.108 0 .142l1.505.868a.257.257 0 0 0 .244 0l1.865-1.078c.075-.041.081-.109 0-.143l-1.498-.868a.307.307 0 0 0-.251 0Zm8.767 5.066-1.864 1.078c-.075.041-.082.108 0 .142l1.498.868a.262.262 0 0 0 .244 0l1.872-1.071c.068-.048.081-.109 0-.149l-1.499-.861a.272.272 0 0 0-.124-.035.28.28 0 0 0-.127.028Zm-10.971-6.327-1.864 1.078c-.075.041-.082.102 0 .143l1.498.861a.275.275 0 0 0 .251 0l1.865-1.078c.074-.041.081-.109 0-.143l-1.506-.868a.283.283 0 0 0-.244.007Zm4.394 2.53-1.865 1.078c-.074.041-.081.108 0 .142l1.499.868a.262.262 0 0 0 .244 0l1.871-1.078c.068-.04.082-.102 0-.142l-1.498-.861a.273.273 0 0 0-.125-.035.273.273 0 0 0-.126.028Zm2.197 1.267-1.844 1.078c-.075.041-.082.102 0 .143l1.498.861a.275.275 0 0 0 .251 0l1.865-1.078c.074-.041.081-.109 0-.143l-1.506-.868a.29.29 0 0 0-.264.007Zm2.224 1.261-1.865 1.079c-.074.047-.081.108 0 .142l1.499.868a.275.275 0 0 0 .251 0l1.864-1.078c.075-.041.082-.109 0-.143l-1.498-.868a.3.3 0 0 0-.251 0Zm-8.435 3.452 1.864-1.078c.068-.04.082-.108 0-.142l-1.498-.868a.274.274 0 0 0-.251 0l-1.851 1.092c-.075.04-.081.101 0 .142l1.498.861a.277.277 0 0 0 .238-.007Zm-2.197-1.267 1.865-1.078c.074-.041.081-.102 0-.143l-1.499-.861a.272.272 0 0 0-.251 0l-1.844 1.119c-.075.041-.081.108 0 .142l1.505.868a.261.261 0 0 0 .224-.047Zm-4.251-7.669-1.865 1.071c-.075.048-.082.109 0 .149l1.498.862a.275.275 0 0 0 .251 0l1.865-1.079c.068-.04.081-.108 0-.142l-1.499-.868a.272.272 0 0 0-.126-.026.27.27 0 0 0-.124.033Zm-2.191-1.269-1.864 1.079c-.075.04-.082.101 0 .142l1.505.868a.286.286 0 0 0 .244 0l1.865-1.078c.074-.041.081-.109 0-.143l-1.499-.868a.3.3 0 0 0-.251 0Zm19.271 14.192c.075-.041.081-.109 0-.143l-1.499-.868a.262.262 0 0 0-.244 0l-1.864 1.078c-.075.041-.089.109 0 .143l1.498.868a.275.275 0 0 0 .251 0l1.858-1.078Zm-4.062-.19 1.865-1.078c.068-.041.081-.108 0-.142l-1.499-.868a.268.268 0 0 0-.125-.03.268.268 0 0 0-.125.03l-1.865 1.078c-.075.041-.082.102 0 .142l1.498.861a.252.252 0 0 0 .125.036.241.241 0 0 0 .126-.029Zm-2.204-1.282 1.865-1.078c.075-.04.081-.101 0-.142l-1.465-.814a.269.269 0 0 0-.25 0l-1.865 1.078c-.075.041-.081.109 0 .143l1.498.868a.28.28 0 0 0 .217-.055Zm-2.176-1.247 1.865-1.078c.074-.048.081-.109 0-.143l-1.506-.868a.262.262 0 0 0-.244 0l-1.865 1.079c-.074.047-.081.108 0 .142l1.499.868a.275.275 0 0 0 .251 0Zm4.516-2.61-1.865 1.071c-.074.047-.081.108 0 .149l1.499.861a.257.257 0 0 0 .244 0l1.871-1.078c.068-.04.082-.108 0-.142l-1.498-.868a.275.275 0 0 0-.251.007Zm-8.767-5.067-1.865 1.078c-.075.041-.081.102 0 .143l1.505.868a.286.286 0 0 0 .244 0l1.865-1.078c.075-.041.082-.109 0-.143l-1.498-.868a.307.307 0 0 0-.251 0Zm2.19 1.27-1.865 1.071c-.075.048-.081.109 0 .149l1.498.861a.264.264 0 0 0 .251 0l1.865-1.078c.068-.04.081-.108 0-.142l-1.498-.868a.28.28 0 0 0-.251.007Zm-4.381-2.516-1.864 1.079c-.075.04-.082.108 0 .142l1.498.868a.275.275 0 0 0 .251 0l1.865-1.071c.074-.048.081-.109 0-.15l-1.506-.868a.262.262 0 0 0-.244 0Zm8.768 5.045-1.865 1.057c-.075.041-.081.102 0 .143l1.498.868a.307.307 0 0 0 .251 0l1.865-1.078c.075-.041.081-.109 0-.143l-1.499-.868a.288.288 0 0 0-.127-.017.277.277 0 0 0-.123.038Zm-2.183-1.269-1.865 1.079c-.075.04-.082.108 0 .142l1.498.868a.275.275 0 0 0 .251 0l1.865-1.071c.074-.048.081-.109 0-.15l-1.505-.861a.26.26 0 0 0-.244-.007Zm13.147 7.562-1.872 1.078c-.067.041-.081.109 0 .142l1.499.868a.274.274 0 0 0 .251 0l1.865-1.071c.074-.047.081-.108 0-.149l-1.499-.861a.248.248 0 0 0-.121-.034.249.249 0 0 0-.123.027Zm2.305 1.273-3.037 1.756c-.075.04-.082.108 0 .142l1.498.868a.301.301 0 0 0 .251 0l3.038-1.756c.074-.041.088-.102 0-.142l-1.499-.868a.29.29 0 0 0-.251 0Z" fill="#37474F"/><path d="m171.871 121.378-1.865 1.071c-.074.041-.081.108 0 .142l3.262 1.892a.3.3 0 0 0 .251 0l1.864-1.078c.075-.041.082-.108 0-.142l-3.268-1.885a.274.274 0 0 0-.244 0Zm-4.38-5.627-1.865 1.078c-.074.041-.088.109 0 .143l1.499.867a.274.274 0 0 0 .251 0l1.864-1.071c.075-.047.082-.108 0-.149l-1.498-.861a.262.262 0 0 0-.251-.007Zm4.38 2.537-1.865 1.071c-.074.047-.081.108 0 .142l1.499.868a.257.257 0 0 0 .244 0l1.865-1.078c.074-.041.088-.108 0-.142l-1.499-.868a.271.271 0 0 0-.244.007Zm-2.19-1.262-1.865 1.078c-.074.04-.081.102 0 .142l1.499.868a.3.3 0 0 0 .251 0l1.864-1.078c.075-.041.082-.108 0-.142l-1.498-.868a.287.287 0 0 0-.126-.028.285.285 0 0 0-.125.028Zm-8.306 3.526 1.865-1.078c.074-.04.081-.108 0-.142l-1.506-.868a.286.286 0 0 0-.244 0l-1.865 1.078c-.074.041-.081.102 0 .143l1.499.867a.285.285 0 0 0 .125.028.287.287 0 0 0 .126-.028Zm12.503-1.851 1.499.867a.262.262 0 0 0 .244 0l1.864-1.078c.075-.04.089-.101 0-.142l-1.498-.861a.275.275 0 0 0-.251 0l-1.865 1.078c-.067.034-.067.102.007.136Zm-28.797-13.61 2.305 1.356a.275.275 0 0 0 .251 0l1.865-1.078c.068-.041.081-.109 0-.142l-2.306-1.357a.3.3 0 0 0-.251 0l-1.864 1.079c-.061.04-.068.101 0 .142Zm5.743-3.437 1.844 1.065c.039.019.082.03.126.03a.287.287 0 0 0 .125-.03l1.899-1.085c.074-.048.081-.109 0-.149l-1.852-1.065a.282.282 0 0 0-.244 0l-1.864 1.078c-.109.054-.109.115-.034.156Zm-8.584 4.923 2.882 1.668a.285.285 0 0 0 .125.028.285.285 0 0 0 .125-.028l1.865-1.078c.075-.047.081-.108 0-.142l-2.888-1.668a.3.3 0 0 0-.251 0l-1.865 1.078c-.047.047-.061.108.007.142Zm26.525 18.395 1.845 1.072a.3.3 0 0 0 .251 0l1.864-1.078c.075-.041.082-.102 0-.143l-1.851-1.064a.274.274 0 0 0-.244 0l-1.865 1.078c-.054.041-.061.102 0 .135Zm-29.19-16.849 1.844 1.065a.304.304 0 0 0 .251 0l1.865-1.078c.074-.048.081-.109 0-.143l-1.844-1.071a.3.3 0 0 0-.251 0l-1.865 1.078c-.054.047-.068.108 0 .149Zm27.875.82c.075-.04.082-.108 0-.142l-1.505-.868a.268.268 0 0 0-.244 0l-1.865 1.072c-.074.047-.081.108 0 .149l1.499.861a.269.269 0 0 0 .251 0l1.864-1.072Zm4.387 2.529c.068-.041.082-.102 0-.143l-1.498-.868a.304.304 0 0 0-.251 0l-1.865 1.078c-.075.041-.081.109 0 .143l1.499.868a.3.3 0 0 0 .25 0l1.865-1.078Zm-2.197-1.228c.075-.047.082-.108 0-.142l-1.498-.868a.275.275 0 0 0-.251 0l-1.865 1.078c-.074.041-.081.108 0 .142l1.506.868a.27.27 0 0 0 .244 0l1.864-1.078Zm4.387 2.495c.075-.04.082-.108 0-.142l-1.505-.868a.262.262 0 0 0-.244 0l-1.865 1.092c-.074.04-.081.101 0 .142l1.499.861a.264.264 0 0 0 .251 0l1.864-1.085Zm-8.36 13.366c-.075.041-.081.108 0 .142l2.305 1.356a.29.29 0 0 0 .251 0l1.865-1.078c.074-.04.081-.108 0-.142l-2.312-1.356a.257.257 0 0 0-.244 0l-1.865 1.078Zm-1.356-18.952c.067-.04.081-.101 0-.142l-1.458-.834a.3.3 0 0 0-.251 0l-1.865 1.078c-.074.041-.081.102 0 .143l1.499.868a.286.286 0 0 0 .244 0l1.831-1.113Zm-2.17-1.261c.074-.048.081-.109 0-.15l-1.499-.861a.275.275 0 0 0-.251 0l-1.864 1.078c-.075.041-.082.109 0 .143l1.505.868c.038.019.08.03.122.03a.272.272 0 0 0 .122-.03l1.865-1.078Zm-4.381-2.537c.068-.04.082-.101 0-.142l-1.498-.868a.301.301 0 0 0-.251 0l-1.871 1.119c-.075.041-.082.102 0 .142l1.498.868a.301.301 0 0 0 .251 0l1.871-1.119Zm2.191 1.269c.075-.041.081-.108 0-.142l-1.505-.868a.262.262 0 0 0-.244 0l-1.865 1.071c-.075.048-.082.109 0 .149l1.498.861a.264.264 0 0 0 .251 0l1.865-1.071Zm-.767 14.659 1.865-1.071c.075-.048.082-.109 0-.149l-1.485-.861a.264.264 0 0 0-.251 0l-1.864 1.078c-.075.04-.082.108 0 .142l1.498.868a.276.276 0 0 0 .237-.007Zm-16.72-6.57c-.075.041-.082.109 0 .142l1.844 1.072a.3.3 0 0 0 .251 0l1.864-1.078c.068-.041.082-.109 0-.143l-1.844-1.105a.275.275 0 0 0-.251 0l-1.864 1.112Zm-5.54-3.193c-.068.041-.082.102 0 .143l2.305 1.356a.275.275 0 0 0 .251 0l1.865-1.078c.074-.041.081-.109 0-.143l-2.306-1.356a.274.274 0 0 0-.251 0l-1.864 1.078Zm8.082 4.658c-.075.047-.081.108 0 .142l12.348 7.133a.283.283 0 0 0 .244 0l1.864-1.078c.075-.041.089-.102 0-.142l-12.347-7.14a.274.274 0 0 0-.244 0l-1.865 1.085Zm15.575 8.998c-.074.041-.081.102 0 .142l1.845 1.065a.274.274 0 0 0 .251 0l1.864-1.071c.075-.048.082-.109 0-.149l-1.844-1.065a.3.3 0 0 0-.251 0l-1.865 1.078Zm-2.542-1.472c-.068.047-.082.108 0 .149l1.844 1.064a.275.275 0 0 0 .251 0l1.865-1.078c.074-.04.081-.101 0-.142l-1.845-1.065a.267.267 0 0 0-.244 0l-1.871 1.072Zm5.078 2.936c-.074.041-.081.102 0 .142l1.844 1.065c.038.02.08.031.123.031a.263.263 0 0 0 .122-.031l1.871-1.078c.068-.048.081-.109 0-.143l-1.844-1.071a.3.3 0 0 0-.251 0l-1.865 1.085ZM139.9 111.249c-.074.04-.081.108 0 .142l1.845 1.064a.264.264 0 0 0 .251 0l1.864-1.078c.075-.04.082-.108 0-.142l-1.844-1.065a.275.275 0 0 0-.251 0l-1.865 1.079Z" fill="#37474F"/><path d="m170.874 126.037 1.865-1.078c.075-.041.081-.102 0-.142l-4.36-2.529a.264.264 0 0 0-.251 0l-1.864 1.078c-.075.047-.082.108 0 .142l4.387 2.536a.292.292 0 0 0 .223-.007Zm-27.041-15.609 1.865-1.078c.074-.041.081-.109 0-.143l-1.499-.868a.286.286 0 0 0-.251 0l-1.864 1.072c-.075.047-.082.108 0 .149l1.505.861a.26.26 0 0 0 .244.007Zm10.985 6.327 1.864-1.079c.075-.04.082-.101 0-.142l-1.505-.868a.286.286 0 0 0-.244 0l-1.865 1.078c-.074.041-.081.102 0 .143l1.499.868a.3.3 0 0 0 .251 0Zm-2.211-1.269 1.865-1.071c.074-.047.081-.108 0-.149l-1.499-.861a.269.269 0 0 0-.251 0l-1.864 1.078c-.068.041-.082.108 0 .142l1.498.868a.28.28 0 0 0 .251-.007Zm4.381 2.537 1.864-1.078c.075-.041.082-.109 0-.143l-1.498-.868a.288.288 0 0 0-.126-.03.287.287 0 0 0-.125.03l-1.844 1.092c-.075.047-.082.108 0 .149l1.505.861a.26.26 0 0 0 .224-.013Zm-8.768-5.065 1.865-1.078c.075-.041.081-.102 0-.143l-1.505-.868a.286.286 0 0 0-.244 0l-1.865 1.078c-.075.041-.082.102 0 .143l1.498.868a.307.307 0 0 0 .251 0Zm2.19 1.268 1.865-1.078c.075-.041.081-.109 0-.143l-1.498-.868a.288.288 0 0 0-.126-.03.287.287 0 0 0-.125.03l-1.811 1.085c-.074.048-.081.109 0 .149l1.506.862a.257.257 0 0 0 .189-.007Zm-4.407-2.536 1.865-1.072c.074-.047.081-.108 0-.149l-1.499-.861a.275.275 0 0 0-.251 0l-1.864 1.078c-.068.041-.082.109 0 .142l1.498.868a.278.278 0 0 0 .251-.006Zm34.988 14.035 1.865-1.078c.074-.041.081-.108 0-.142l-1.506-.868a.283.283 0 0 0-.244 0l-1.864 1.078c-.075.041-.082.102 0 .142l1.498.868a.287.287 0 0 0 .126.028.285.285 0 0 0 .125-.028Zm2.801-3.613-1.851 1.078c-.075.041-.082.108 0 .142l1.498.868a.287.287 0 0 0 .126.028.285.285 0 0 0 .125-.028l1.865-1.078c.074-.041.081-.102 0-.142l-1.506-.868a.288.288 0 0 0-.257 0Zm2.217 1.267-1.892 1.106c-.075.047-.082.108 0 .149l1.505.861a.257.257 0 0 0 .244 0l1.865-1.078c.075-.041.081-.109 0-.143l-1.499-.868a.294.294 0 0 0-.109-.037.293.293 0 0 0-.114.01Zm-2.828 3.614 1.865-1.078c.075-.04.081-.108 0-.142l-1.498-.868a.275.275 0 0 0-.251 0l-1.865 1.071c-.075.048-.081.109 0 .149l1.505.862a.26.26 0 0 0 .244.006Zm-1.586-6.15-1.865 1.078c-.075.041-.081.109 0 .143l1.498.868a.307.307 0 0 0 .251 0l1.865-1.078c.075-.048.081-.109 0-.143l-1.499-.868a.269.269 0 0 0-.25 0Zm-12.538 7.235c-.068.041-.081.102 0 .143l1.499.868a.3.3 0 0 0 .251 0l1.864-1.078c.075-.041.082-.102 0-.143l-1.498-.868a.3.3 0 0 0-.251 0l-1.865 1.078Zm4.401 2.508c-.075.041-.082.109 0 .143l1.505.868c.038.019.08.03.122.03a.272.272 0 0 0 .122-.03l1.865-1.072c.074-.047.081-.108 0-.149l-1.499-.861a.272.272 0 0 0-.251 0l-1.864 1.071Zm-2.19-1.247c-.075.048-.082.109 0 .15l1.498.861a.275.275 0 0 0 .251 0l1.865-1.078c.074-.041.081-.109 0-.143l-1.505-.868a.276.276 0 0 0-.123-.03.275.275 0 0 0-.122.03l-1.864 1.078Zm7.533-4.855 1.865-1.071c.074-.047.081-.108 0-.149l-1.499-.861a.272.272 0 0 0-.251 0l-1.864 1.078c-.075.041-.082.108 0 .142l1.498.861a.275.275 0 0 0 .251 0Zm-1.275 3.241c.075-.041.081-.109 0-.143l-1.505-.868a.274.274 0 0 0-.244 0l-1.865 1.072c-.075.047-.081.108 0 .149l1.499.861a.269.269 0 0 0 .25 0l1.865-1.071Zm13.419-5.214c.075-.048.081-.109 0-.149l-1.498-.862a.275.275 0 0 0-.251 0l-1.831 1.085c-.075.041-.081.109 0 .143l1.498.868c.039.019.082.03.126.03a.287.287 0 0 0 .125-.03l1.831-1.085Zm-4.38-2.536c.068-.04.081-.101 0-.142l-1.499-.868a.3.3 0 0 0-.25 0l-1.865 1.078c-.075.041-.082.109 0 .143l1.498.908a.293.293 0 0 0 .251 0l1.865-1.119Zm2.19 1.268c.075-.04.081-.108 0-.142l-1.505-.868a.262.262 0 0 0-.244 0l-1.865 1.071c-.075.048-.081.109 0 .149l1.499.862c.038.02.081.03.125.03s.087-.01.125-.03l1.865-1.072Zm4.136 6.11-1.864 1.071c-.075.048-.082.109 0 .149l1.498.861a.264.264 0 0 0 .251 0l1.865-1.078c.074-.04.081-.108 0-.142l-1.499-.868a.275.275 0 0 0-.251.007Zm-4.055-.157c-.074.041-.081.102 0 .143l1.499.868a.3.3 0 0 0 .251 0l1.864-1.078c.075-.041.082-.102 0-.143l-1.505-.868a.286.286 0 0 0-.244 0l-1.865 1.078Zm-3.6 4.07 1.864-1.078c.075-.041.082-.109 0-.143l-1.505-.868a.275.275 0 0 0-.122-.03.272.272 0 0 0-.122.03l-1.865 1.078c-.074.041-.081.102 0 .143l1.499.861a.271.271 0 0 0 .251.007Zm4.841-.299 1.865-1.078c.074-.041.081-.109 0-.143l-1.499-.868a.3.3 0 0 0-.251 0l-1.864 1.078c-.075.048-.082.109 0 .143l1.498.868a.275.275 0 0 0 .251 0Zm-3.905-2.265c-.075.041-.082.102 0 .143l1.498.868a.3.3 0 0 0 .251 0l1.865-1.079c.074-.04.081-.108 0-.142l-1.506-.868a.282.282 0 0 0-.244 0l-1.864 1.078Zm3.119 2.726c.074-.048.081-.109 0-.143l-1.499-.868a.274.274 0 0 0-.251 0l-1.865 1.079c-.074.04-.081.108 0 .142l1.499.868a.3.3 0 0 0 .251 0l1.865-1.078Zm-13.311.623c-.074.041-.081.102 0 .142l3.689 2.13a.274.274 0 0 0 .251 0l1.864-1.079c.075-.04.082-.108 0-.142l-3.695-2.136a.301.301 0 0 0-.251 0l-1.858 1.085Zm4.387 2.53c-.074.04-.081.108 0 .142l1.506.868a.262.262 0 0 0 .244 0l1.864-1.071c.075-.048.082-.109 0-.15l-1.498-.861a.275.275 0 0 0-.251 0l-1.865 1.072Zm4.394-.543 1.865-1.071c.074-.048.081-.109 0-.149l-1.479-.875a.269.269 0 0 0-.25 0l-1.865 1.078c-.075.041-.081.108 0 .142l1.505.868a.273.273 0 0 0 .111.029.274.274 0 0 0 .113-.022Zm3.743-9.221-1.865 1.078c-.074.04-.081.108 0 .142l1.499.868a.26.26 0 0 0 .244 0l1.871-1.071c.068-.048.082-.109 0-.15l-1.498-.861a.272.272 0 0 0-.251-.006Zm-2.665 1.539-1.864 1.078c-.075.04-.082.108 0 .142l1.498.868a.274.274 0 0 0 .251 0l1.865-1.071c.067-.048.081-.109 0-.149l-1.499-.862a.272.272 0 0 0-.251-.006Zm-3.594 4.076c.068-.041.082-.102 0-.143l-1.498-.868a.3.3 0 0 0-.251 0l-1.865 1.078c-.074.041-.081.102 0 .143l1.499.868a.3.3 0 0 0 .251 0l1.864-1.078Zm.801-.461 1.865-1.079c.067-.04.081-.101 0-.142l-1.485-.875a.307.307 0 0 0-.251 0l-1.865 1.078c-.075.041-.081.109 0 .143l1.498.868a.286.286 0 0 0 .238.007Zm11.1 1.037-1.499-.861a.272.272 0 0 0-.251 0l-4.529 2.617c-.075.041-.082.109 0 .143l1.498.868a.307.307 0 0 0 .251 0l4.53-2.618c.074-.047.088-.108 0-.149Zm-11.602 5.003 1.499.868a.3.3 0 0 0 .25 0l4.53-2.618c.074-.04.081-.101 0-.142l-1.458-.902a.3.3 0 0 0-.251 0l-4.529 2.617c-.102.055-.109.116-.041.177Zm14.273-6.393c.068-.047.082-.108 0-.149l-1.498-.861a.275.275 0 0 0-.251 0l-1.865 1.078c-.074.041-.081.109 0 .142l1.499.868a.274.274 0 0 0 .251 0l1.864-1.078Zm-14.246 3.159 1.865-1.078c.074-.04.081-.108 0-.142l-1.506-.868a.262.262 0 0 0-.244 0l-1.864 1.071c-.075.048-.082.109 0 .15l1.498.861a.272.272 0 0 0 .251.006Zm-5.194-18.104c.075-.04.081-.101 0-.142l-1.485-.895a.287.287 0 0 0-.244 0l-1.844 1.119c-.075.04-.082.101 0 .142l1.498.868a.301.301 0 0 0 .251 0l1.824-1.092Zm4.387 2.535c.068-.047.081-.108 0-.149l-1.499-.861a.269.269 0 0 0-.25 0l-1.865 1.078c-.075.041-.082.108 0 .142l1.498.868a.275.275 0 0 0 .251 0l1.865-1.078Zm-2.197-1.267c.075-.041.081-.109 0-.143l-1.498-.868a.288.288 0 0 0-.126-.03.287.287 0 0 0-.125.03l-1.865 1.072c-.075.047-.081.108 0 .149l1.505.861a.257.257 0 0 0 .244 0l1.865-1.071Zm4.408 2.529c.074-.04.081-.101 0-.142l-1.506-.868a.286.286 0 0 0-.244 0l-1.864 1.078c-.075.041-.082.102 0 .143l1.498.868a.3.3 0 0 0 .251 0l1.865-1.079Zm41.145-92.415V68.28a3.62 3.62 0 0 0 1.634 2.827l48.821 28.187c.902.522 1.627.102 1.627-.942V56.128a3.591 3.591 0 0 0-1.627-2.828l-48.821-28.187c-.902-.522-1.634-.102-1.634.942Z" fill="#37474F"/><path d="m226.754 71.106 48.821 28.187c.902.522 1.627.102 1.627-.942V57.782L225.12 27.71v40.569a3.61 3.61 0 0 0 1.634 2.827Z" fill="#455A64"/><path d="m229.168 33.582 16.423 9.493a2.17 2.17 0 0 1 .983 1.695v3.045c0 .63-.441.881-.983.57l-16.423-9.494a2.164 2.164 0 0 1-.983-1.695v-3.044c0-.631.44-.882.983-.57Z" fill="#EBEBEB"/><path d="M274.422 53.876a1.405 1.405 0 0 1 .624 1.092c0 .4-.278.563-.624.36a1.354 1.354 0 0 1-.63-1.086c0-.4.278-.562.63-.366Zm-2.495-1.437a1.408 1.408 0 0 1 .63 1.092c0 .4-.284.562-.63.359a1.356 1.356 0 0 1-.624-1.085c0-.4.278-.563.624-.366Zm-2.516-1.438a1.405 1.405 0 0 1 .624 1.092c0 .4-.278.563-.624.36a1.354 1.354 0 0 1-.63-1.086c.027-.4.311-.562.63-.366Z" fill="#FAFAFA"/><path d="m229.168 40.654 22.552 13.019a2.153 2.153 0 0 1 .977 1.668c0 .61-.434.847-.977.535l-22.552-13.018a2.135 2.135 0 0 1-.983-1.668c0-.61.44-.848.983-.536Zm0 4.902 22.552 13.019a2.132 2.132 0 0 1 .977 1.668c0 .61-.434.848-.977.536l-22.552-13.02a2.158 2.158 0 0 1-.983-1.667c0-.61.44-.848.983-.536Zm0 4.897 22.552 13.005a2.153 2.153 0 0 1 .977 1.668c0 .61-.434.848-.977.536l-22.552-13.019a2.135 2.135 0 0 1-.983-1.668c0-.597.44-.834.983-.522Zm0 4.903 22.552 13.019a2.132 2.132 0 0 1 .977 1.668c0 .603-.434.847-.977.535L229.168 57.56a2.158 2.158 0 0 1-.983-1.668c0-.61.44-.848.983-.536Zm.325 6.746 43.349 25.027a2.851 2.851 0 0 1 1.315 2.231v4.069c0 .834-.596 1.173-1.322.752l-43.294-25.04a2.902 2.902 0 0 1-1.309-2.259v-4.068c-.048-.82.542-1.16 1.261-.712Z" fill="#EBEBEB"/><path d="m256.738 49.504 16.355 9.493a2.201 2.201 0 0 1 .983 1.702l.068 22.457c0 .624-.434.882-.976.57l-16.423-9.493a2.164 2.164 0 0 1-.983-1.695V50.067c0-.624.44-.848.976-.563Z" fill="#FAFAFA"/><path d="M258.827 58.976c2.325 1.356 4.21.25 4.21-2.435a8.58 8.58 0 0 0-1.179-4.068l-5.12-2.977c-.536-.312-.976-.06-.976.563v5.608a8.761 8.761 0 0 0 3.065 3.309ZM274.11 72.72l-3.078-10.503c-.231-.8-.732-.848-1.119-.109l-4.509 8.605-1.838-4.91c-.291-.779-.807-.8-1.152-.04l-4.272 9.31 15.026 8.68c.454.264.834.115.942-.306V72.72ZM106.933 11.03 125.769.18c.719-.42 1.302-.08 1.302.753V40.37a2.892 2.892 0 0 1-1.302 2.264l-18.836 10.85c-.719.413-1.309.074-1.309-.76V13.281a2.908 2.908 0 0 1 1.309-2.251Z" fill="#263238"/><path d="M105.624 18.862 127.071 6.48v28.303l-21.447 12.381V18.862Z" fill="#FAFAFA"/><path d="M114.907 27.12c.23-.8.786-.882 1.241-.183l2.292 3.54 4.299-12.884c.264-.793.786-.834 1.173-.095l3.159 6.103v11.14l-17.263 9.968 5.099-17.59Zm-9.283-1.146a3.392 3.392 0 0 0 3.065-.407 10.167 10.167 0 0 0 4.611-7.974 3.577 3.577 0 0 0-.908-2.638l-6.781 3.906.013 7.113Z" fill="#455A64"/><path d="M108.709 12.271c.617-.36 1.119-.068 1.119.644a2.45 2.45 0 0 1-1.119 1.926c-.617.353-1.112.068-1.112-.678a2.457 2.457 0 0 1 1.112-1.892Zm3.248-1.607 6.286-3.627c.258-.143.468-.04.468.237a1.005 1.005 0 0 1-.468.773l-6.286 3.628c-.257.149-.467.04-.467-.238a.998.998 0 0 1 .467-.773Zm0 1.728 3.459-2.034c.257-.15.467-.04.467.237a1.008 1.008 0 0 1-.467.773l-3.459 2.035c-.257.149-.467.047-.467-.23a1.005 1.005 0 0 1 .467-.78ZM110.1 49.57h-.367c-.474 0-1.044-.223-1.044-.908a1.605 1.605 0 0 1 .726-1.254c.312-.177.576-.102.678.156.101-.386.343-.72.678-.936.4-.23.725-.048.725.413a4.06 4.06 0 0 1-1.037 2.11l-.359.42Zm5.492-5.904 2.631-1.512c.122-.075.217 0 .217.122v1.858a.495.495 0 0 1-.217.38l-2.631 1.512c-.116.074-.217 0-.217-.123v-1.857a.506.506 0 0 1 .217-.38Z" fill="#FAFAFA"/><path d="M115.992 46.303c0 .244.095.264.203.047l.583-1.14-.786.428v.665Zm8.808-6.815L123.288 39v.725a3.091 3.091 0 0 0-1.479 1.675 1.174 1.174 0 0 0-.02.476 1.173 1.173 0 0 0 .498.79c.132.09.281.154.438.185a1.128 1.128 0 0 1-.4-.922c.088-.637.447-.86.963-1.085v.848l1.512-2.204Z" fill="#FAFAFA"/><path d="M97.521 1.644v42.224a3.606 3.606 0 0 1-1.627 2.827l-48.82 28.187c-.903.522-1.628.102-1.628-.942V31.716a3.6 3.6 0 0 1 1.627-2.827L95.893.702c.903-.522 1.628-.102 1.628.942Z" fill="#37474F"/><path d="m95.894 46.696-48.82 28.187c-.903.522-1.628.102-1.628-.942V33.372L97.52 3.3v40.568a3.607 3.607 0 0 1-1.627 2.828Z" fill="#455A64"/><path d="m93.48 9.17-16.423 9.494a2.164 2.164 0 0 0-.983 1.695v3.045c0 .63.441.881.983.57L93.48 14.48a2.164 2.164 0 0 0 .983-1.695V9.741c.007-.631-.44-.882-.983-.57Z" fill="#EBEBEB"/><path d="M48.226 29.466a1.396 1.396 0 0 0-.624 1.092c0 .4.278.563.624.36a1.357 1.357 0 0 0 .63-1.086c0-.4-.278-.562-.63-.366Zm2.495-1.436a1.404 1.404 0 0 0-.63 1.091c0 .4.284.563.63.36a1.356 1.356 0 0 0 .624-1.085c0-.4-.271-.563-.624-.366Zm2.489-1.438a1.396 1.396 0 0 0-.624 1.092c0 .4.278.563.624.36a1.356 1.356 0 0 0 .63-1.086c0-.4-.284-.563-.63-.366Z" fill="#FAFAFA"/><path d="M93.48 16.244 70.927 29.262a2.15 2.15 0 0 0-.976 1.669c0 .61.434.847.976.535L93.48 18.447a2.136 2.136 0 0 0 .983-1.668c.007-.61-.44-.847-.983-.535Zm0 4.902L70.927 34.165a2.129 2.129 0 0 0-.976 1.668c0 .61.434.848.976.536l22.553-13.02a2.155 2.155 0 0 0 .983-1.667c.007-.61-.44-.848-.983-.536Zm0 4.896L70.927 39.047a2.15 2.15 0 0 0-.976 1.668c0 .61.434.848.976.536L93.48 28.232a2.135 2.135 0 0 0 .983-1.668c.007-.597-.44-.834-.983-.522Zm0 4.903L70.927 43.964a2.129 2.129 0 0 0-.976 1.668c0 .603.434.847.976.535L93.48 33.148a2.156 2.156 0 0 0 .983-1.668c.007-.61-.44-.847-.983-.535Zm-.326 6.747L49.806 62.719a2.848 2.848 0 0 0-1.295 2.258v4.069c0 .834.596 1.173 1.315.752l43.301-25.04a2.896 2.896 0 0 0 1.309-2.259v-4.068c.034-.847-.563-1.186-1.282-.739Z" fill="#EBEBEB"/><path d="m65.91 25.093-16.355 9.493a2.205 2.205 0 0 0-.983 1.702l-.068 22.457c0 .624.434.882.976.57l16.423-9.493a2.162 2.162 0 0 0 .983-1.695V25.656c0-.624-.44-.848-.976-.563Z" fill="#FAFAFA"/><path d="M63.822 34.566c-2.326 1.356-4.211.25-4.211-2.435a8.578 8.578 0 0 1 1.18-4.068l5.12-2.977c.535-.312.975-.06.975.563v5.607a8.767 8.767 0 0 1-3.064 3.31ZM48.538 48.31l3.078-10.503c.23-.8.733-.848 1.12-.109l4.508 8.605 1.838-4.91c.291-.779.807-.8 1.152-.04l4.272 9.31-15.026 8.68c-.46.264-.834.114-.942-.306V48.31Z" fill="#263238"/><path d="M197.367 44.248v39.267c0 .407-.285.57-.631.367l-53.527-30.9a1.407 1.407 0 0 1-.637-1.105V12.603c0-.407.285-.57.637-.366l53.527 30.88a1.431 1.431 0 0 1 .631 1.132Z" fill="#455A64"/><path d="m143.209 12.244 53.527 30.872a1.427 1.427 0 0 1 .631 1.106v2.786l-54.795-31.692v-2.713c0-.4.285-.562.637-.359Z" fill="#37474F"/><path d="M195.061 43.23a1.355 1.355 0 0 1 .631 1.093c0 .4-.278.562-.631.359a1.353 1.353 0 0 1-.624-1.085c0-.4.278-.563.624-.366Zm-2.488-1.437a1.396 1.396 0 0 1 .63 1.092c0 .4-.285.563-.63.36a1.356 1.356 0 0 1-.624-1.085c0-.4.278-.563.624-.367Zm-2.496-1.437a1.396 1.396 0 0 1 .624 1.091c0 .4-.278.563-.624.36a1.363 1.363 0 0 1-.63-1.085c.007-.4.291-.563.63-.366Z" fill="#FAFAFA"/><path d="M153.096 25.026c-2.557-1.479-4.625-.278-4.625 2.665a10.213 10.213 0 0 0 4.625 8.007c2.549 1.472 4.617.278 4.617-2.671a10.218 10.218 0 0 0-4.617-8.001Z" fill="#fff"/><path d="M152.784 27.147c-.828-.481-1.499-.095-1.499.868a3.33 3.33 0 0 0 1.499 2.597c.827.475 1.498.089 1.498-.868a3.305 3.305 0 0 0-1.498-2.597Zm-2.611 5.297c0-1.574 1.098-2.211 2.461-1.424l.848.495a5.422 5.422 0 0 1 2.468 4.265v.42a3.515 3.515 0 0 1-2.855-.502 9.06 9.06 0 0 1-2.922-2.888v-.367Z" fill="#263238"/><path d="m161.558 30.464 7.194 4.156a1.645 1.645 0 0 1 .78 1.288c0 .468-.346.645-.78.394l-7.194-4.157a1.64 1.64 0 0 1-.78-1.288c0-.468.346-.624.78-.393Zm0 4.122 11.724 6.78a1.664 1.664 0 0 1 .773 1.289c0 .468-.346.678-.773.393l-11.724-6.78a1.64 1.64 0 0 1-.78-1.289c0-.468.346-.644.78-.393Zm0 3.106 11.724 6.78a1.686 1.686 0 0 1 .773 1.288c0 .468-.346.679-.773.394l-11.724-6.78a1.662 1.662 0 0 1-.78-1.296c0-.461.346-.637.78-.386Zm32.92 36.01v4.55c0 .414-.285.59-.644.38l-12.884-7.425-1.145-.678a1.446 1.446 0 0 1-.679-1.132V64.84c0-.414.292-.583.679-.38l14.015 8.096a1.435 1.435 0 0 1 .658 1.146Zm0-24.015v19.718c0 .42-.285.59-.644.38l-12.884-7.459-1.145-.678a1.429 1.429 0 0 1-.679-1.126V40.845c0-.42.292-.583.679-.38l14.029 8.076a1.443 1.443 0 0 1 .644 1.146Z" fill="#fff"/><path d="M179.16 40.843v4.984a7.072 7.072 0 0 0 2.333 2.38c1.966 1.133 3.553.217 3.553-2.034a7.105 7.105 0 0 0-.861-3.153l-4.367-2.522c-.366-.238-.658-.095-.658.346Zm15.318 21.516v7.045c0 .42-.285.59-.644.38l-12.883-7.46 3.858-8.136 2.441 5.302 3.892-7.879 3.336 10.748Z" fill="#263238"/><path d="M146.437 35.352 175.16 51.93a1.949 1.949 0 0 1 .976 1.451c0 .489-.434.63-.976.319l-28.696-16.572a1.953 1.953 0 0 1-1.004-1.471c0-.475.434-.624.977-.305Zm0 4.434 28.723 16.566a1.949 1.949 0 0 1 .976 1.45c0 .489-.434.631-.976.32l-28.723-16.566a1.961 1.961 0 0 1-.977-1.45c0-.49.434-.632.977-.32Zm0 4.435 28.723 16.572a1.95 1.95 0 0 1 .976 1.444c0 .495-.434.638-.976.326L146.464 45.99a1.961 1.961 0 0 1-.66-.61 1.961 1.961 0 0 1-.316-.841c-.027-.489.407-.631.949-.319Zm0 4.441 28.723 16.566a1.949 1.949 0 0 1 .976 1.451c0 .488-.434.63-.976.318l-28.696-16.565a1.961 1.961 0 0 1-.66-.61 1.961 1.961 0 0 1-.316-.84c-.027-.49.407-.632.949-.32Z" fill="#fff"/><path d="m124.006 153.35-4.821-2.821a.793.793 0 0 1 0-1.506l18.837-10.849a2.861 2.861 0 0 1 2.611 0l4.821 2.821a.793.793 0 0 1 0 1.505l-18.837 10.85a2.914 2.914 0 0 1-2.611 0Z" fill="#37474F"/><path d="m121.064 149.057 3.668-2.115a1.92 1.92 0 0 1 1.722 0l3.669 2.115a.532.532 0 0 1 .352.499.531.531 0 0 1-.352.498l-3.669 2.122a1.92 1.92 0 0 1-1.722 0l-3.668-2.122a.532.532 0 0 1-.352-.498.532.532 0 0 1 .352-.499Z" fill="#fff"/><path d="m123.796 149.484 1.994 1.152a.31.31 0 0 0 .42-.115l.956-1.655c.082-.149 0-.244-.149-.21l-3.187.617c-.163.027-.203.129-.034.211Z" fill="#37474F"/><path d="M129.573 145.924a1.51 1.51 0 0 0 1.357 0l9.011-5.201c.38-.224.4-.57.041-.78a1.496 1.496 0 0 0-1.356 0l-9.019 5.201c-.373.224-.393.57-.034.78Zm2.414 1.376a1.51 1.51 0 0 0 1.356 0l4.069-2.373c.38-.224.4-.569.04-.773a1.478 1.478 0 0 0-1.356 0l-4.068 2.373c-.38.224-.4.57-.041.773Z" fill="#fff"/><path d="m114.812 148.04-4.821-2.814a.805.805 0 0 1-.538-.756.796.796 0 0 1 .538-.756l18.837-10.849a2.895 2.895 0 0 1 2.61 0l4.821 2.821a.793.793 0 0 1 .538.756.798.798 0 0 1-.538.756l-18.837 10.849a2.857 2.857 0 0 1-2.61-.007Z" fill="#37474F"/><path d="m111.89 143.754 3.668-2.115a1.882 1.882 0 0 1 1.722 0l3.669 2.115a.534.534 0 0 1 .352.499.529.529 0 0 1-.352.498l-3.669 2.109a1.88 1.88 0 0 1-1.722 0l-3.668-2.116a.528.528 0 0 1 0-.99Z" fill="#fff"/><path d="m114.622 144.182 1.987 1.146a.313.313 0 0 0 .427-.116l.956-1.647c.081-.149 0-.244-.149-.21l-3.187.61c-.163.034-.183.129-.034.217Z" fill="#37474F"/><path d="M120.399 140.614a1.51 1.51 0 0 0 1.357 0l9.011-5.207c.38-.217.4-.57.041-.773a1.484 1.484 0 0 0-1.356 0l-9.019 5.207c-.373.237-.393.57-.034.773Zm2.414 1.384a1.494 1.494 0 0 0 1.356 0l4.069-2.367c.379-.223.4-.569.04-.78a1.493 1.493 0 0 0-1.356 0l-4.068 2.374c-.38.21-.4.563-.041.773Z" fill="#fff"/><path d="m253.442 148.447 6.015-3.513c.902-.522.902-1.356 0-1.885l-23.502-13.561a3.58 3.58 0 0 0-3.255 0L226.693 133c-.902.522-.902 1.356 0 1.885l23.495 13.562a3.594 3.594 0 0 0 3.254 0Z" fill="#37474F"/><path d="m240.471 133.57-4.577-2.644a2.36 2.36 0 0 0-2.149 0l-4.577 2.644a.678.678 0 0 0 0 1.241l4.577 2.638a2.363 2.363 0 0 0 2.149 0l4.577-2.638a.677.677 0 0 0 0-1.241Z" fill="#fff"/><path d="m234.586 132.974-1.845 1.064c-.366.211-.325.448.082.529l3.39.678c.414.082.563-.142.346-.495l-.936-1.512a.786.786 0 0 0-1.037-.264Z" fill="#37474F"/><path d="M255.694 144.5a1.887 1.887 0 0 1-1.682 0l-11.242-6.496c-.482-.271-.502-.678-.054-.962a1.857 1.857 0 0 1 1.674 0l11.25 6.495c.481.272.501.706.054.963Zm-9.107-1.818a1.856 1.856 0 0 1-1.681 0l-5.086-2.963c-.474-.271-.495-.678-.047-.963a1.87 1.87 0 0 1 1.675 0l5.092 2.964c.495.271.495.705.047.962Z" fill="#fff"/><path d="m237.542 157.486 6.014-3.519c.902-.523.902-1.357 0-1.886l-23.501-13.561a3.584 3.584 0 0 0-3.255 0l-6.021 3.513c-.895.522-.895 1.356 0 1.885l23.501 13.561a3.638 3.638 0 0 0 3.262.007Z" fill="#37474F"/><path d="M222.306 141.279a7.457 7.457 0 0 0-6.727 0c-1.857 1.071-1.857 2.814 0 3.885a7.458 7.458 0 0 0 6.727 0c1.858-1.071 1.858-2.814 0-3.885Zm17.508 12.254a1.834 1.834 0 0 1-1.675 0l-11.249-6.496c-.475-.272-.495-.678-.048-.963a1.874 1.874 0 0 1 1.675 0l11.249 6.496c.488.271.488.705.048.963Zm-9.1-1.818a1.845 1.845 0 0 1-1.682 0l-5.085-2.964c-.475-.271-.502-.678-.048-.962a1.874 1.874 0 0 1 1.675 0l5.092 2.963c.475.278.495.705.048.963Z" fill="#fff"/><path d="m216.936 144.188-.217-.455c-.285-.596-.455-1.41.366-1.885a2.196 2.196 0 0 1 2.034 0c.434.251.529.617.285.922a2.257 2.257 0 0 1 1.6.163.622.622 0 0 1 .301.941.618.618 0 0 1-.301.225c-.8.462-2.21.373-3.255.211l-.813-.122Z" fill="#37474F"/></svg>