<svg width="468" height="462" viewBox="0 0 468 462" fill="none" xmlns="http://www.w3.org/2000/svg">
<line y1="-0.5" x2="395.576" y2="-0.5" transform="matrix(0.180236 -0.983623 -0.983623 -0.180236 46.71 397.657)" stroke="url(#paint0_linear_50_20477)" stroke-opacity="0.36"/>
<line y1="-0.5" x2="401.749" y2="-0.5" transform="matrix(-0.983623 -0.180236 -0.180236 0.983623 404.406 416.371)" stroke="url(#paint1_linear_50_20477)" stroke-opacity="0.36"/>
<line y1="-0.5" x2="395.576" y2="-0.5" transform="matrix(0.180236 -0.983623 -0.983623 -0.180236 216.735 428.812)" stroke="url(#paint2_linear_50_20477)" stroke-opacity="0.36"/>
<line y1="-0.5" x2="401.749" y2="-0.5" transform="matrix(-0.983623 -0.180236 -0.180236 0.983623 435.095 246.259)" stroke="url(#paint3_linear_50_20477)" stroke-opacity="0.36"/>
<line y1="-0.5" x2="395.576" y2="-0.5" transform="matrix(0.180236 -0.983623 -0.983623 -0.180236 89.2158 405.446)" stroke="url(#paint4_linear_50_20477)" stroke-opacity="0.36"/>
<line y1="-0.5" x2="401.274" y2="-0.5" transform="matrix(-0.983623 -0.180236 -0.180236 0.983623 411.728 373.778)" stroke="url(#paint5_linear_50_20477)" stroke-opacity="0.36"/>
<line y1="-0.5" x2="395.576" y2="-0.5" transform="matrix(0.180236 -0.983623 -0.983623 -0.180236 259.243 436.601)" stroke="url(#paint6_linear_50_20477)" stroke-opacity="0.36"/>
<line y1="-0.5" x2="401.274" y2="-0.5" transform="matrix(-0.983623 -0.180236 -0.180236 0.983623 442.415 203.667)" stroke="url(#paint7_linear_50_20477)" stroke-opacity="0.36"/>
<line y1="-0.5" x2="395.576" y2="-0.5" transform="matrix(0.180236 -0.983623 -0.983623 -0.180236 131.723 413.235)" stroke="url(#paint8_linear_50_20477)" stroke-opacity="0.36"/>
<line y1="-0.5" x2="401.749" y2="-0.5" transform="matrix(-0.983623 -0.180236 -0.180236 0.983623 419.517 331.271)" stroke="url(#paint9_linear_50_20477)" stroke-opacity="0.36"/>
<line y1="-0.5" x2="395.576" y2="-0.5" transform="matrix(0.180236 -0.983623 -0.983623 -0.180236 301.749 444.389)" stroke="url(#paint10_linear_50_20477)" stroke-opacity="0.36"/>
<line y1="-0.5" x2="401.749" y2="-0.5" transform="matrix(-0.983623 -0.180236 -0.180236 0.983623 450.205 161.16)" stroke="url(#paint11_linear_50_20477)" stroke-opacity="0.36"/>
<line y1="-0.5" x2="395.576" y2="-0.5" transform="matrix(0.180236 -0.983623 -0.983623 -0.180236 174.229 421.024)" stroke="url(#paint12_linear_50_20477)" stroke-opacity="0.36"/>
<line y1="-0.5" x2="401.749" y2="-0.5" transform="matrix(-0.983623 -0.180236 -0.180236 0.983623 427.306 288.765)" stroke="url(#paint13_linear_50_20477)" stroke-opacity="0.36"/>
<line y1="-0.5" x2="395.576" y2="-0.5" transform="matrix(0.180236 -0.983623 -0.983623 -0.180236 344.256 452.179)" stroke="url(#paint14_linear_50_20477)" stroke-opacity="0.36"/>
<line y1="-0.5" x2="401.749" y2="-0.5" transform="matrix(-0.983623 -0.180236 -0.180236 0.983623 457.993 118.654)" stroke="url(#paint15_linear_50_20477)" stroke-opacity="0.36"/>
<defs>
<linearGradient id="paint0_linear_50_20477" x1="197.788" y1="0" x2="197.788" y2="1" gradientUnits="userSpaceOnUse">
<stop/>
<stop offset="1" stop-opacity="0"/>
</linearGradient>
<linearGradient id="paint1_linear_50_20477" x1="200.875" y1="0" x2="200.875" y2="1" gradientUnits="userSpaceOnUse">
<stop/>
<stop offset="1" stop-opacity="0"/>
</linearGradient>
<linearGradient id="paint2_linear_50_20477" x1="197.788" y1="0" x2="197.788" y2="1" gradientUnits="userSpaceOnUse">
<stop/>
<stop offset="1" stop-opacity="0"/>
</linearGradient>
<linearGradient id="paint3_linear_50_20477" x1="200.875" y1="0" x2="200.875" y2="1" gradientUnits="userSpaceOnUse">
<stop/>
<stop offset="1" stop-opacity="0"/>
</linearGradient>
<linearGradient id="paint4_linear_50_20477" x1="197.788" y1="0" x2="197.788" y2="1" gradientUnits="userSpaceOnUse">
<stop/>
<stop offset="1" stop-opacity="0"/>
</linearGradient>
<linearGradient id="paint5_linear_50_20477" x1="200.637" y1="0" x2="200.637" y2="1" gradientUnits="userSpaceOnUse">
<stop/>
<stop offset="1" stop-opacity="0"/>
</linearGradient>
<linearGradient id="paint6_linear_50_20477" x1="197.788" y1="0" x2="197.788" y2="1" gradientUnits="userSpaceOnUse">
<stop/>
<stop offset="1" stop-opacity="0"/>
</linearGradient>
<linearGradient id="paint7_linear_50_20477" x1="200.637" y1="0" x2="200.637" y2="1" gradientUnits="userSpaceOnUse">
<stop/>
<stop offset="1" stop-opacity="0"/>
</linearGradient>
<linearGradient id="paint8_linear_50_20477" x1="197.788" y1="0" x2="197.788" y2="1" gradientUnits="userSpaceOnUse">
<stop/>
<stop offset="1" stop-opacity="0"/>
</linearGradient>
<linearGradient id="paint9_linear_50_20477" x1="200.875" y1="0" x2="200.875" y2="1" gradientUnits="userSpaceOnUse">
<stop/>
<stop offset="1" stop-opacity="0"/>
</linearGradient>
<linearGradient id="paint10_linear_50_20477" x1="197.788" y1="0" x2="197.788" y2="1" gradientUnits="userSpaceOnUse">
<stop/>
<stop offset="1" stop-opacity="0"/>
</linearGradient>
<linearGradient id="paint11_linear_50_20477" x1="200.875" y1="0" x2="200.875" y2="1" gradientUnits="userSpaceOnUse">
<stop/>
<stop offset="1" stop-opacity="0"/>
</linearGradient>
<linearGradient id="paint12_linear_50_20477" x1="197.788" y1="0" x2="197.788" y2="1" gradientUnits="userSpaceOnUse">
<stop/>
<stop offset="1" stop-opacity="0"/>
</linearGradient>
<linearGradient id="paint13_linear_50_20477" x1="200.875" y1="0" x2="200.875" y2="1" gradientUnits="userSpaceOnUse">
<stop/>
<stop offset="1" stop-opacity="0"/>
</linearGradient>
<linearGradient id="paint14_linear_50_20477" x1="197.788" y1="0" x2="197.788" y2="1" gradientUnits="userSpaceOnUse">
<stop/>
<stop offset="1" stop-opacity="0"/>
</linearGradient>
<linearGradient id="paint15_linear_50_20477" x1="200.875" y1="0" x2="200.875" y2="1" gradientUnits="userSpaceOnUse">
<stop/>
<stop offset="1" stop-opacity="0"/>
</linearGradient>
</defs>
</svg>
