<svg width="149" height="230" viewBox="0 0 149 230" fill="none" xmlns="http://www.w3.org/2000/svg">
<path id="Spiral 8" d="M61.8861 0.918695C24.9458 10.6931 -2.05222 29.7573 1.58406 43.4998C5.22033 57.2424 38.1139 60.4595 75.0543 50.6851C95.7566 45.2073 111.291 36.0506 109.752 30.2332C108.213 24.4157 90.1823 24.1405 69.48 29.6183C32.5396 39.3927 5.54167 58.4569 9.17794 72.1994C12.8142 85.9421 45.7079 89.1594 82.6482 79.385C103.351 73.9072 118.885 64.7504 117.346 58.9328C115.807 53.1153 97.7762 52.8401 77.0739 58.3179C40.1335 68.0923 13.1537 87.2249 16.8122 101.052C20.4708 114.878 53.3825 118.164 90.3229 108.39C111.025 102.912 126.56 93.7552 125.021 87.9376C123.481 82.12 105.451 81.8454 84.7487 87.3232C47.8083 97.0976 20.8102 116.161 24.4465 129.904C28.0828 143.647 60.9762 146.863 97.9166 137.089C118.619 131.611 134.154 122.455 132.615 116.637C131.075 110.82 113.045 110.544 92.3424 116.022C55.402 125.797 28.4042 144.861 32.0405 158.604C35.6768 172.347 68.5702 175.563 105.511 165.789C126.213 160.311 141.748 151.154 140.209 145.337C138.669 139.52 120.639 139.244 99.9364 144.722C62.996 154.496 35.9981 173.561 39.6342 187.303C43.2705 201.046 76.1641 204.263 113.105 194.489C133.807 189.011 149.342 179.854 147.802 174.036C146.263 168.22 128.233 167.944 107.53 173.422C70.5899 183.196 43.6099 202.328 47.2685 216.155C50.9271 229.982 83.8388 233.268 120.779 223.493" stroke="#4F4F4F" stroke-linecap="round"/>
</svg>
