<svg width="235" height="164" viewBox="0 0 235 164" fill="none" xmlns="http://www.w3.org/2000/svg">
<path d="M69.7512 70.9624C69.458 71.2538 69.2255 71.6005 69.0673 71.9824C68.909 72.3643 68.828 72.7737 68.8291 73.1871V73.2532L81.7206 73.2573V73.1889C81.7196 72.3552 81.388 71.5559 80.7985 70.9662C80.2091 70.3766 79.4098 70.0448 78.5761 70.0436L71.9759 70.0413C71.562 70.036 71.1513 70.1149 70.7689 70.2732C70.3864 70.4316 70.0402 70.6661 69.7512 70.9624Z" fill="#6A6ACF" fill-opacity="0.15"/>
<path d="M48.4756 56.504H59.1134L53.7947 44.2832L48.4756 56.504Z" fill="#6A6ACF" fill-opacity="0.15"/>
<path d="M96.6253 65.2926C99.6927 65.2926 102.317 63.5452 103.345 61.0938H89.9053C90.9329 63.5452 93.5574 65.2926 96.6253 65.2926Z" fill="#6A6ACF" fill-opacity="0.15"/>
<path d="M138.404 13.3406L123.174 18.8787C122.081 19.2758 120.948 19.5562 119.795 19.7154V146.921C120.411 146.804 121.016 146.638 121.606 146.427L136.836 140.889C138.655 140.226 140.575 139.888 142.511 139.889H189.059C192.245 139.885 195.298 138.618 197.551 136.366C199.803 134.113 201.07 131.059 201.073 127.874V24.6316C201.07 21.4463 199.803 18.3925 197.551 16.1402C195.298 13.8878 192.245 12.6208 189.059 12.6172H142.511C141.11 12.6164 139.72 12.8613 138.404 13.3406ZM181.92 112.384H138.577C137.969 112.384 137.385 112.143 136.955 111.712C136.524 111.282 136.283 110.698 136.283 110.089C136.283 109.481 136.524 108.897 136.955 108.467C137.385 108.036 137.969 107.795 138.577 107.795H181.92C182.529 107.795 183.113 108.036 183.543 108.467C183.973 108.897 184.215 109.481 184.215 110.089C184.215 110.698 183.973 111.282 183.543 111.712C183.113 112.143 182.529 112.384 181.92 112.384ZM181.92 89.8941H138.577C137.969 89.8941 137.385 89.6523 136.955 89.222C136.524 88.7916 136.283 88.2079 136.283 87.5992C136.283 86.9906 136.524 86.4068 136.955 85.9764C137.385 85.5461 137.969 85.3043 138.577 85.3043H181.92C182.529 85.3043 183.113 85.5461 183.543 85.9764C183.973 86.4068 184.215 86.9906 184.215 87.5992C184.215 88.2079 183.973 88.7916 183.543 89.222C183.113 89.6523 182.529 89.8941 181.92 89.8941ZM184.215 65.109C184.215 65.7176 183.973 66.3013 183.543 66.7317C183.113 67.1621 182.529 67.4039 181.92 67.4039H138.577C137.969 67.4039 137.385 67.1621 136.955 66.7317C136.524 66.3013 136.283 65.7176 136.283 65.109C136.283 64.5003 136.524 63.9166 136.955 63.4862C137.385 63.0558 137.969 62.814 138.577 62.814H181.92C182.222 62.814 182.52 62.8735 182.799 62.9889C183.078 63.1043 183.331 63.2736 183.544 63.4869C183.757 63.7002 183.926 63.9534 184.041 64.232C184.156 64.5107 184.215 64.8093 184.215 65.1108V65.109ZM159.174 42.6187C159.174 43.2274 158.933 43.8111 158.502 44.2415C158.072 44.6718 157.488 44.9136 156.88 44.9136H138.577C137.969 44.9136 137.385 44.6718 136.955 44.2415C136.524 43.8111 136.283 43.2274 136.283 42.6187C136.283 42.0101 136.524 41.4263 136.955 40.996C137.385 40.5656 137.969 40.3238 138.577 40.3238H156.881C157.182 40.3238 157.481 40.3832 157.76 40.4987C158.038 40.6142 158.291 40.7834 158.504 40.9968C158.718 41.2101 158.887 41.4634 159.002 41.7421C159.117 42.0208 159.176 42.3194 159.176 42.621L159.174 42.6187Z" fill="#6A6ACF" fill-opacity="0.15"/>
<path d="M53.7933 65.2926C56.8607 65.2926 59.4847 63.5452 60.5129 61.0938H47.0752C48.1019 63.5452 50.7278 65.2926 53.7933 65.2926Z" fill="#6A6ACF" fill-opacity="0.15"/>
<path d="M101.944 56.504L96.6258 44.2832L91.3066 56.504H101.944Z" fill="#6A6ACF" fill-opacity="0.15"/>
<path d="M216.427 34.1973H205.663V127.876C205.658 132.278 203.907 136.498 200.795 139.611C197.682 142.723 193.462 144.474 189.06 144.479H142.511C141.11 144.479 139.721 144.723 138.405 145.203L131.122 147.85V158.383H216.427C217.279 158.382 218.096 158.043 218.698 157.441C219.3 156.838 219.639 156.022 219.64 155.17V37.4102C219.639 36.5583 219.3 35.7417 218.698 35.1394C218.096 34.5371 217.279 34.1982 216.427 34.1973V34.1973Z" fill="#6A6ACF" fill-opacity="0.15"/>
<path d="M92.4894 144.479H45.9406C41.5384 144.474 37.318 142.723 34.2053 139.61C31.0926 136.497 29.3417 132.276 29.3369 127.874V34.1953H18.5732C17.7214 34.1963 16.9048 34.5351 16.3025 35.1374C15.7001 35.7397 15.3613 36.5564 15.3604 37.4082V155.169C15.3613 156.021 15.7001 156.837 16.3025 157.44C16.9048 158.042 17.7214 158.381 18.5732 158.382H103.878V147.849L96.5955 145.201C95.2795 144.722 93.8898 144.478 92.4894 144.479ZM25.8481 90.4035C25.8481 91.0121 25.6063 91.5958 25.176 92.0262C24.7456 92.4566 24.1619 92.6984 23.5532 92.6984C22.9446 92.6984 22.3608 92.4566 21.9305 92.0262C21.5001 91.5958 21.2583 91.0121 21.2583 90.4035V55.5206C21.2583 54.912 21.5001 54.3283 21.9305 53.8979C22.3608 53.4675 22.9446 53.2257 23.5532 53.2257C24.1619 53.2257 24.7456 53.4675 25.176 53.8979C25.6063 54.3283 25.8481 54.912 25.8481 55.5206V90.4035ZM25.8481 46.7999C25.8481 47.4086 25.6063 47.9923 25.176 48.4227C24.7456 48.8531 24.1619 49.0949 23.5532 49.0949C22.9446 49.0949 22.3608 48.8531 21.9305 48.4227C21.5001 47.9923 21.2583 47.4086 21.2583 46.7999V43.9083C21.2583 43.2997 21.5001 42.716 21.9305 42.2856C22.3608 41.8552 22.9446 41.6134 23.5532 41.6134C24.1619 41.6134 24.7456 41.8552 25.176 42.2856C25.6063 42.716 25.8481 43.2997 25.8481 43.9083V46.7999Z" fill="#6A6ACF" fill-opacity="0.15"/>
<path d="M117.5 151.738C115.565 151.739 113.644 151.401 111.825 150.74L108.468 149.52V157.626C114.376 155.979 120.623 155.979 126.532 157.626V149.52L123.174 150.74C121.355 151.401 119.435 151.739 117.5 151.738V151.738Z" fill="#6A6ACF" fill-opacity="0.15"/>
<path d="M92.4895 12.6172H45.9407C42.7554 12.6208 39.7017 13.8878 37.4494 16.1402C35.1971 18.3925 33.9303 21.4463 33.9268 24.6316V127.874C33.9302 131.06 35.197 134.114 37.4492 136.366C39.7015 138.619 42.7553 139.886 45.9407 139.889H92.4895C94.4248 139.888 96.3454 140.227 98.1639 140.889L113.394 146.427C113.984 146.639 114.589 146.804 115.205 146.921V19.7154C114.052 19.5562 112.919 19.2758 111.826 18.8787L96.5956 13.3406C95.2797 12.8613 93.8899 12.6164 92.4895 12.6172ZM96.4225 112.384H53.0797C52.4711 112.384 51.8873 112.143 51.457 111.712C51.0266 111.282 50.7848 110.698 50.7848 110.089C50.7848 109.481 51.0266 108.897 51.457 108.467C51.8873 108.036 52.4711 107.795 53.0797 107.795H96.4225C97.0312 107.795 97.6149 108.036 98.0453 108.467C98.4757 108.897 98.7175 109.481 98.7175 110.089C98.7175 110.698 98.4757 111.282 98.0453 111.712C97.6149 112.143 97.0312 112.384 96.4225 112.384ZM96.4225 89.8941H53.0797C52.4711 89.8941 51.8873 89.6523 51.457 89.222C51.0266 88.7916 50.7848 88.2079 50.7848 87.5992C50.7848 86.9906 51.0266 86.4068 51.457 85.9764C51.8873 85.5461 52.4711 85.3043 53.0797 85.3043H96.4225C97.0312 85.3043 97.6149 85.5461 98.0453 85.9764C98.4757 86.4068 98.7175 86.9906 98.7175 87.5992C98.7175 88.2079 98.4757 88.7916 98.0453 89.222C97.6149 89.6523 97.0312 89.8941 96.4225 89.8941ZM98.7294 37.6158L107.037 56.7059C107.441 56.8863 107.785 57.1798 108.026 57.551C108.267 57.9222 108.396 58.3552 108.397 58.7979C108.397 64.9093 103.115 69.8815 96.624 69.8815C90.1326 69.8815 84.8511 64.9093 84.8511 58.7979C84.8515 58.3552 84.98 57.9221 85.2213 57.5509C85.4626 57.1798 85.8062 56.8864 86.2106 56.7063L92.4188 42.4425C87.9751 43.4156 83.333 42.8582 79.246 40.8608H77.5684V65.4514H78.5781C80.6285 65.4544 82.594 66.2704 84.0436 67.7205C85.4932 69.1705 86.3087 71.1363 86.3111 73.1866V75.5509C86.3111 76.1595 86.0693 76.7432 85.6389 77.1736C85.2086 77.604 84.6248 77.8458 84.0162 77.8458L66.5348 77.8398C65.9262 77.8398 65.3425 77.598 64.9121 77.1676C64.4817 76.7373 64.2399 76.1535 64.2399 75.5449V73.1848C64.2399 71.1332 65.0549 69.1657 66.5055 67.715C67.9561 66.2643 69.9236 65.4492 71.9752 65.4491H72.9785V40.8622H71.1697C67.0828 42.8601 62.4401 43.4166 57.9968 42.4411L64.2064 56.7072C64.6107 56.8876 64.9543 57.1811 65.1956 57.5523C65.4369 57.9235 65.5657 58.3566 65.5664 58.7993C65.5664 64.9107 60.2849 69.8829 53.7934 69.8829C47.302 69.8829 42.0205 64.9107 42.0205 58.7993C42.0209 58.3566 42.1495 57.9235 42.3907 57.5523C42.632 57.1811 42.9756 56.8878 43.38 56.7077L51.6876 37.6172C51.9912 37.0556 52.4943 36.6281 53.0975 36.4191C53.7008 36.2101 54.3604 36.2347 54.9464 36.4881L55.7886 36.8819C57.9534 37.8866 60.3208 38.3784 62.7066 38.319C65.0924 38.2595 67.4324 37.6504 69.5444 36.539C69.8754 36.364 70.244 36.2724 70.6184 36.2723H72.9785V34.4148C72.9785 33.8062 73.2203 33.2224 73.6507 32.7921C74.0811 32.3617 74.6648 32.1199 75.2734 32.1199C75.8821 32.1199 76.4658 32.3617 76.8962 32.7921C77.3266 33.2224 77.5684 33.8062 77.5684 34.4148V36.2737H79.7981C80.1723 36.2739 80.5409 36.3654 80.8717 36.5404C82.9838 37.6518 85.3238 38.261 87.7097 38.3204C90.0956 38.3799 92.4631 37.8881 94.6279 36.8832L95.4701 36.4894C95.7577 36.3467 96.0709 36.2627 96.3913 36.2423C96.7117 36.2219 97.0329 36.2655 97.3363 36.3706C97.6397 36.4757 97.919 36.6402 98.1581 36.8545C98.3973 37.0687 98.5913 37.3285 98.7289 37.6185L98.7294 37.6158Z" fill="#6A6ACF" fill-opacity="0.15"/>
</svg>
