<svg width="160" height="160" viewBox="0 0 160 160" fill="none" xmlns="http://www.w3.org/2000/svg">
<path d="M30.1022 120.93C41.4984 120.93 51.2075 114.092 54.7678 104.592H5.4375C8.99656 114.094 18.7056 120.93 30.1022 120.93V120.93Z" fill="#6A6ACF" fill-opacity="0.1"/>
<path d="M56.2242 96.5948C56.2242 96.1804 56.0596 95.783 55.7665 95.49C55.4735 95.197 55.0761 95.0323 54.6617 95.0323H53.9976L32.2379 42.6886H52.5845C52.2053 41.2983 52.2053 39.8317 52.5845 38.4414H20.7926C21.1852 39.8324 21.1678 41.3072 20.7426 42.6886H27.9661L6.20606 95.0323H5.54199C5.12759 95.0323 4.73016 95.197 4.43714 95.49C4.14411 95.783 3.97949 96.1804 3.97949 96.5948C3.97903 98.2341 4.15568 99.8686 4.50637 101.47H55.6973C56.048 99.8686 56.2246 98.2341 56.2242 96.5948V96.5948ZM9.59043 95.0323L30.102 45.6886L50.6136 95.0323H9.59043Z" fill="#6A6ACF" fill-opacity="0.1"/>
<path d="M129.898 120.93C141.294 120.93 151.003 114.092 154.563 104.592H105.232C108.792 114.094 118.501 120.93 129.898 120.93Z" fill="#6A6ACF" fill-opacity="0.1"/>
<path d="M154.458 95.0323H153.794L132.034 42.6886H139.257C138.832 41.3072 138.814 39.8324 139.207 38.4414H107.415C107.794 39.8317 107.794 41.2983 107.415 42.6886H127.762L106.002 95.0323H105.338C104.923 95.0323 104.526 95.197 104.233 95.49C103.94 95.783 103.775 96.1804 103.775 96.5948C103.775 98.2341 103.952 99.8686 104.302 101.47H155.493C155.844 99.8686 156.021 98.2341 156.02 96.5948C156.02 96.1804 155.855 95.783 155.562 95.49C155.269 95.197 154.872 95.0323 154.458 95.0323ZM109.386 95.0323L129.898 45.6886L150.409 95.0323H109.386Z" fill="#6A6ACF" fill-opacity="0.1"/>
<path d="M77.8765 21.0254V32.4629H82.1249V21.0254C80.739 21.4354 79.264 21.4354 77.878 21.0254H77.8765Z" fill="#6A6ACF" fill-opacity="0.1"/>
<path d="M80.0002 18.2094C80.869 18.2094 81.7184 17.9518 82.4408 17.4691C83.1631 16.9864 83.7262 16.3004 84.0587 15.4977C84.3911 14.695 84.4781 13.8118 84.3086 12.9596C84.1391 12.1075 83.7208 11.3248 83.1064 10.7105C82.4921 10.0961 81.7093 9.67773 80.8572 9.50824C80.0051 9.33874 79.1219 9.42573 78.3192 9.75821C77.5165 10.0907 76.8304 10.6537 76.3477 11.3761C75.8651 12.0985 75.6074 12.9478 75.6074 13.8166C75.6087 14.9813 76.072 16.0978 76.8955 16.9214C77.719 17.7449 78.8356 18.2081 80.0002 18.2094V18.2094Z" fill="#6A6ACF" fill-opacity="0.1"/>
<path d="M146.442 44.8657C147.311 44.8658 148.16 44.6082 148.883 44.1255C149.605 43.6429 150.168 42.9568 150.501 42.1542C150.833 41.3515 150.921 40.4682 150.751 39.6161C150.582 38.7639 150.163 37.9812 149.549 37.3668C148.935 36.7524 148.152 36.334 147.3 36.1645C146.448 35.995 145.564 36.082 144.762 36.4144C143.959 36.7469 143.273 37.3099 142.79 38.0323C142.307 38.7547 142.05 39.6041 142.05 40.4729C142.051 41.6375 142.514 42.754 143.338 43.5775C144.161 44.401 145.278 44.8643 146.442 44.8657V44.8657Z" fill="#6A6ACF" fill-opacity="0.1"/>
<path d="M60.3967 45.5316H99.6029C100.922 45.5316 102.186 45.0078 103.119 44.0754C104.051 43.143 104.575 41.8784 104.575 40.5598C104.575 39.2411 104.051 37.9765 103.119 37.0441C102.186 36.1117 100.922 35.5879 99.6029 35.5879H60.3967C59.0781 35.5879 57.8134 36.1117 56.881 37.0441C55.9486 37.9765 55.4248 39.2411 55.4248 40.5598C55.4248 41.8784 55.9486 43.143 56.881 44.0754C57.8134 45.0078 59.0781 45.5316 60.3967 45.5316Z" fill="#6A6ACF" fill-opacity="0.1"/>
<path d="M59.3545 136.563H64.0623C63.849 136.347 63.7034 136.073 63.6432 135.776C63.5831 135.478 63.611 135.169 63.7236 134.887C64.8517 132.068 66.9736 129.644 69.8592 127.877C70.2125 127.664 70.6358 127.599 71.0368 127.697C71.4378 127.795 71.7838 128.047 71.9993 128.399C72.2148 128.751 72.2823 129.174 72.1871 129.575C72.0919 129.977 71.8417 130.325 71.4911 130.542C69.1839 131.955 67.5011 133.859 66.6248 136.048C66.5461 136.241 66.4292 136.417 66.2811 136.563H100.644C99.0423 127.911 90.3267 121.355 79.9998 121.355C69.6729 121.355 60.9573 127.912 59.3545 136.563V136.563Z" fill="#6A6ACF" fill-opacity="0.1"/>
<path d="M104.793 139.688H102.524C102.49 139.69 102.455 139.692 102.422 139.692C102.408 139.692 102.395 139.688 102.382 139.688H55.2069C53.2299 139.69 51.3345 140.476 49.9365 141.874C48.5386 143.272 47.7522 145.167 47.75 147.144V150.577H112.25V147.144C112.248 145.167 111.461 143.272 110.063 141.874C108.665 140.476 106.77 139.69 104.793 139.688Z" fill="#6A6ACF" fill-opacity="0.1"/>
<path d="M13.5577 44.8657C14.4265 44.8656 15.2758 44.608 15.9981 44.1252C16.7205 43.6425 17.2834 42.9564 17.6159 42.1537C17.9483 41.351 18.0353 40.4678 17.8657 39.6157C17.6962 38.7636 17.2778 37.9809 16.6634 37.3666C16.0491 36.7523 15.2664 36.3339 14.4142 36.1645C13.5621 35.995 12.6789 36.082 11.8762 36.4145C11.0736 36.747 10.3875 37.31 9.90485 38.0324C9.42218 38.7548 9.16455 39.6041 9.16455 40.4729C9.16579 41.6376 9.62905 42.7543 10.4527 43.5778C11.2763 44.4014 12.393 44.8645 13.5577 44.8657V44.8657Z" fill="#6A6ACF" fill-opacity="0.1"/>
<path d="M82.1248 118.316V48.6582H77.8779V118.317C78.5786 118.262 79.2861 118.23 80.0014 118.23C80.7167 118.23 81.423 118.262 82.1248 118.316V118.316Z" fill="#6A6ACF" fill-opacity="0.1"/>
</svg>
