<svg width="160" height="160" viewBox="0 0 160 160" fill="none" xmlns="http://www.w3.org/2000/svg">
<path d="M143.924 64.7748C144.374 64.3152 144.726 63.7696 144.959 63.1705C145.192 62.5715 145.302 61.9315 145.282 61.2889C145.221 60.0245 144.674 58.8326 143.754 57.9626C142.834 57.0927 141.614 56.612 140.348 56.6212H116.982C116.325 56.6213 115.675 56.756 115.072 57.0172C114.47 57.2783 113.927 57.6603 113.477 58.1396C113.028 58.6188 112.682 59.1851 112.46 59.8034C112.238 60.4217 112.145 61.079 112.188 61.7345C112.274 62.8952 112.775 63.9863 113.598 64.8092C114.421 65.6321 115.512 66.1322 116.673 66.2185C117.328 66.2607 117.985 66.168 118.604 65.9461C119.222 65.7243 119.788 65.378 120.268 64.9287C120.747 64.4794 121.129 63.9366 121.39 63.3338C121.651 62.731 121.786 62.0811 121.786 61.4242C121.786 61.0098 121.951 60.6124 122.244 60.3194C122.537 60.0264 122.934 59.8618 123.348 59.8618H134.114C134.528 59.8618 134.926 60.0264 135.219 60.3194C135.512 60.6124 135.677 61.0098 135.677 61.4242C135.677 62.38 135.962 63.314 136.495 64.1068C137.029 64.8996 137.787 65.5152 138.673 65.8749C139.558 66.2345 140.531 66.3219 141.466 66.1257C142.402 65.9296 143.257 65.4589 143.924 64.7738V64.7748Z" fill="#6A6ACF" fill-opacity="0.1"/>
<path d="M125.681 62.9883L124.599 115.169H132.875L131.793 62.9883H125.681Z" fill="#6A6ACF" fill-opacity="0.1"/>
<path d="M118.818 121.332V123.994H138.652V121.332L137.127 118.281H120.344L118.818 121.332Z" fill="#6A6ACF" fill-opacity="0.1"/>
<path d="M79.9946 46.9613C82.3519 46.9613 84.6562 46.2624 86.6161 44.9528C88.5761 43.6433 90.1038 41.782 91.0059 39.6042C91.908 37.4265 92.1441 35.0301 91.6843 32.7182C91.2244 30.4063 90.0893 28.2827 88.4225 26.6159C86.7558 24.949 84.6321 23.8139 82.3202 23.354C80.0083 22.8941 77.6119 23.1301 75.4341 24.0322C73.2563 24.9342 71.3949 26.4618 70.0853 28.4217C68.7757 30.3817 68.0767 32.6859 68.0767 35.0431C68.0802 38.2029 69.337 41.2322 71.5713 43.4665C73.8055 45.7008 76.8348 46.9576 79.9946 46.9613V46.9613ZM79.9946 30.8784C80.8989 30.8456 81.7924 31.0838 82.5604 31.5624C83.3284 32.041 83.9358 32.7382 84.3047 33.5644C84.6736 34.3907 84.7871 35.3084 84.6308 36.1996C84.4744 37.0909 84.0552 37.9151 83.4271 38.5665C82.7989 39.2178 81.9904 39.6666 81.1054 39.8552C80.2204 40.0437 79.2992 39.9635 78.4601 39.6248C77.6209 39.2861 76.9022 38.7044 76.3961 37.9543C75.8899 37.2041 75.6195 36.3199 75.6196 35.415C75.5998 34.2337 76.0493 33.0928 76.8694 32.2424C77.6895 31.392 78.8134 30.9015 79.9946 30.8784V30.8784Z" fill="#6A6ACF" fill-opacity="0.1"/>
<path d="M45.7812 74.8828C45.7812 74.4684 45.6166 74.071 45.3236 73.778C45.0306 73.4849 44.6332 73.3203 44.2188 73.3203C43.8043 73.3203 43.4069 73.4849 43.1139 73.778C42.8209 74.071 42.6563 74.4684 42.6562 74.8828V76.0078C42.6562 76.4222 42.8209 76.8196 43.1139 77.1127C43.4069 77.4057 43.8043 77.5703 44.2188 77.5703C44.6332 77.5703 45.0306 77.4057 45.3236 77.1127C45.6166 76.8196 45.7812 76.4222 45.7812 76.0078V74.8828Z" fill="#6A6ACF" fill-opacity="0.1"/>
<path d="M44.2188 80.7227C43.8043 80.7227 43.4069 80.8873 43.1139 81.1803C42.8209 81.4733 42.6563 81.8708 42.6562 82.2852V108.069C42.6562 108.483 42.8209 108.88 43.1139 109.173C43.4069 109.466 43.8043 109.631 44.2188 109.631C44.6332 109.631 45.0306 109.466 45.3236 109.173C45.6166 108.88 45.7812 108.483 45.7812 108.069V82.2852C45.7812 81.8708 45.6166 81.4733 45.3236 81.1803C45.0306 80.8873 44.6332 80.7227 44.2188 80.7227Z" fill="#6A6ACF" fill-opacity="0.1"/>
<path d="M80 36.8277C80.6904 36.8277 81.25 36.1955 81.25 35.4158C81.25 34.636 80.6904 34.0039 80 34.0039C79.3096 34.0039 78.75 34.636 78.75 35.4158C78.75 36.1955 79.3096 36.8277 80 36.8277Z" fill="#6A6ACF" fill-opacity="0.1"/>
<path d="M149.425 53.3551L149.308 43.3805L79.9946 14.4336L10.5571 43.3711L10.6737 53.3551H149.425ZM60.6853 33.4802H65.0328C65.4195 29.7814 67.1626 26.357 69.9256 23.8678C72.6886 21.3786 76.2757 20.0011 79.9946 20.0011C83.7135 20.0011 87.3007 21.3786 90.0637 23.8678C92.8267 26.357 94.5698 29.7814 94.9565 33.4802H99.304C99.7184 33.4802 100.116 33.6448 100.409 33.9378C100.702 34.2308 100.867 34.6283 100.867 35.0427C100.867 35.4571 100.702 35.8545 100.409 36.1475C100.116 36.4405 99.7184 36.6052 99.304 36.6052H94.9565C94.5705 40.3044 92.8277 43.7295 90.0646 46.2193C87.3015 48.709 83.714 50.0869 79.9946 50.0869C76.2753 50.0869 72.6878 48.709 69.9247 46.2193C67.1616 43.7295 65.4188 40.3044 65.0328 36.6052H60.6853C60.2709 36.6052 59.8734 36.4405 59.5804 36.1475C59.2874 35.8545 59.1228 35.4571 59.1228 35.0427C59.1228 34.6283 59.2874 34.2308 59.5804 33.9378C59.8734 33.6448 60.2709 33.4802 60.6853 33.4802V33.4802Z" fill="#6A6ACF" fill-opacity="0.1"/>
<path d="M21.3477 121.332V123.994H41.1814V121.332L39.6561 118.281H22.873L21.3477 121.332Z" fill="#6A6ACF" fill-opacity="0.1"/>
<path d="M13.9062 127.129H146.094V134.629H13.9062V127.129Z" fill="#6A6ACF" fill-opacity="0.1"/>
<path d="M47.8215 61.289C47.76 60.0246 47.2122 58.8329 46.2925 57.963C45.3729 57.0932 44.1527 56.6124 42.8868 56.6212H19.5211C18.8641 56.6212 18.2142 56.7559 17.6113 57.017C17.0085 57.2781 16.4656 57.6601 16.0163 58.1394C15.5669 58.6186 15.2207 59.1849 14.9989 59.8033C14.7771 60.4217 14.6845 61.079 14.7268 61.7346C14.8132 62.8952 15.3135 63.9863 16.1366 64.8092C16.9596 65.6321 18.0507 66.1322 19.2114 66.2186C19.867 66.2608 20.5243 66.1681 21.1426 65.9463C21.7609 65.7244 22.3272 65.3782 22.8064 64.9288C23.2857 64.4795 23.6677 63.9367 23.9288 63.3339C24.19 62.7311 24.3248 62.0812 24.3248 61.4243C24.3248 61.0099 24.4894 60.6124 24.7824 60.3194C25.0755 60.0264 25.4729 59.8618 25.8873 59.8618H36.6528C37.0672 59.8618 37.4646 60.0264 37.7577 60.3194C38.0507 60.6124 38.2153 61.0099 38.2153 61.4243C38.2156 62.0607 38.3423 62.6907 38.5881 63.2778C38.834 63.8648 39.194 64.3971 39.6473 64.8439C40.1006 65.2906 40.6381 65.6428 41.2287 65.88C41.8193 66.1172 42.4511 66.2347 43.0875 66.2257C43.7238 66.2167 44.3521 66.0813 44.9357 65.8274C45.5193 65.5736 46.0466 65.2063 46.4871 64.7469C46.9275 64.2875 47.2723 63.7451 47.5014 63.1513C47.7304 62.5576 47.8392 61.9242 47.8215 61.288V61.289Z" fill="#6A6ACF" fill-opacity="0.1"/>
<path d="M9.21875 137.754H150.781V145.562H9.21875V137.754Z" fill="#6A6ACF" fill-opacity="0.1"/>
<path d="M76.9413 62.9883L75.8594 115.169H84.1356L83.0538 62.9883H76.9413Z" fill="#6A6ACF" fill-opacity="0.1"/>
<path d="M28.2108 62.9883L27.1289 115.169H35.4052L34.3233 62.9883H28.2108Z" fill="#6A6ACF" fill-opacity="0.1"/>
<path d="M95.1941 64.7752C95.6438 64.3156 95.996 63.77 96.2295 63.1709C96.463 62.5719 96.573 61.9318 96.5529 61.2891C96.4914 60.0247 95.9436 58.833 95.0239 57.9631C94.1043 57.0932 92.884 56.6124 91.6182 56.6212H68.2513C67.5944 56.6212 66.9444 56.756 66.3416 57.0171C65.7388 57.2783 65.196 57.6603 64.7467 58.1395C64.2973 58.6188 63.9511 59.1851 63.7293 59.8035C63.5075 60.4219 63.4149 61.0792 63.4572 61.7348C63.5437 62.8956 64.0441 63.9867 64.8673 64.8097C65.6905 65.6327 66.7818 66.1328 67.9426 66.2189C68.5981 66.2611 69.2554 66.1684 69.8737 65.9466C70.492 65.7247 71.0583 65.3784 71.5375 64.9291C72.0167 64.4797 72.3987 63.9369 72.6599 63.3341C72.9211 62.7313 73.0559 62.0814 73.056 61.4245C73.056 61.01 73.2206 60.6126 73.5136 60.3196C73.8067 60.0265 74.2041 59.8619 74.6185 59.8619H85.3841C85.7985 59.8619 86.1959 60.0265 86.489 60.3196C86.782 60.6126 86.9466 61.01 86.9466 61.4245C86.9467 62.3802 87.2318 63.3143 87.7655 64.1072C88.2993 64.9 89.0574 65.5157 89.9429 65.8753C90.8285 66.235 91.8011 66.3223 92.7366 66.1262C93.672 65.93 94.5277 65.4593 95.1941 64.7742V64.7752Z" fill="#6A6ACF" fill-opacity="0.1"/>
<path d="M70.0874 121.332V123.994H89.9206V121.332L88.3953 118.281H71.6127L70.0874 121.332Z" fill="#6A6ACF" fill-opacity="0.1"/>
</svg>
