<svg width="160" height="160" viewBox="0 0 160 160" fill="none" xmlns="http://www.w3.org/2000/svg">
<g clip-path="url(#clip0_32_22214)">
<path d="M107.949 79.1718C111.749 79.1718 115.578 77.2247 116.733 73.7559H99.2285C100.391 77.5716 104.421 79.1718 107.949 79.1718Z" fill="#6A6ACF" fill-opacity="0.2"/>
<path d="M82.5934 41.3392C82.5934 42.6644 81.5189 43.7389 80.1937 43.7389C78.8685 43.7389 77.7939 42.6644 77.7939 41.3392C77.7939 40.0126 78.8685 38.9395 80.1937 38.9395C81.5189 38.9395 82.5934 40.0126 82.5934 41.3392Z" fill="#6A6ACF" fill-opacity="0.2"/>
<path d="M52.3566 79.1718C56.1574 79.1718 59.9853 77.2247 61.1398 73.7559H43.6357C44.7983 77.5716 48.8282 79.1718 52.3566 79.1718Z" fill="#6A6ACF" fill-opacity="0.2"/>
<path d="M52.3565 49.3262L45.0557 68.8994H59.6573L52.3565 49.3262Z" fill="#6A6ACF" fill-opacity="0.2"/>
<path d="M80.1941 116.286C107.335 116.286 129.415 94.2061 129.415 67.0666C129.415 39.9256 107.335 17.8457 80.1941 17.8457C53.0546 17.8457 30.9746 39.9256 30.9746 67.0666C30.9746 94.2061 53.0546 116.286 80.1941 116.286ZM39.7714 68.904L50.0817 41.2658C50.0911 41.24 50.102 41.217 50.1128 41.1926C50.1291 41.1519 50.1467 41.1113 50.1643 41.072C50.1819 41.0313 50.1995 40.9988 50.2199 40.9636C50.2415 40.9284 50.2551 40.8972 50.2754 40.8647C50.2957 40.8322 50.3215 40.7915 50.3445 40.7549C50.3649 40.7265 50.3838 40.6966 50.4055 40.6682C50.4312 40.6343 50.4583 40.5991 50.4855 40.5666C50.5085 40.5381 50.5315 40.511 50.5546 40.4853C50.5776 40.4582 50.6115 40.4243 50.6413 40.3945C50.6697 40.3647 50.6955 40.3416 50.7239 40.3145C50.7524 40.2888 50.7822 40.2644 50.812 40.24C50.8432 40.2143 50.8757 40.1885 50.9082 40.1641C50.9407 40.1397 50.9705 40.1194 51.0017 40.0991C51.0329 40.0774 51.0695 40.0544 51.106 40.0327C51.1426 40.0124 51.1752 39.992 51.2117 39.9731C51.2497 39.9541 51.2781 39.9392 51.3134 39.9216C51.354 39.9013 51.3974 39.8836 51.4394 39.866C51.4624 39.8579 51.4841 39.8457 51.5071 39.8376C51.5153 39.8349 51.5247 39.8322 51.5329 39.8294C51.5749 39.8145 51.6169 39.8538 51.6589 39.8416C51.9136 39.7712 52.1792 39.7454 52.4434 39.7617H73.144C73.9191 36.4948 76.8364 34.1885 80.1941 34.1885C83.5518 34.1885 86.4705 36.4948 87.2456 39.7617H107.945C108.21 39.7454 108.477 39.7725 108.733 39.843C108.774 39.8552 108.813 39.8403 108.853 39.8552C108.862 39.8579 108.872 39.8471 108.881 39.8511C108.907 39.8606 108.931 39.866 108.957 39.8769C108.996 39.8931 109.034 39.9053 109.074 39.9243C109.111 39.9419 109.147 39.9582 109.183 39.9785C109.219 39.9988 109.248 40.0137 109.281 40.0313C109.313 40.0503 109.354 40.0774 109.391 40.1018C109.419 40.1208 109.449 40.1397 109.476 40.1614C109.511 40.1872 109.546 40.2143 109.58 40.2414C109.609 40.2644 109.636 40.2874 109.663 40.3118C109.69 40.3349 109.723 40.3674 109.751 40.3958C109.779 40.4243 109.807 40.4514 109.832 40.4812C109.858 40.5097 109.882 40.5381 109.907 40.5679C109.931 40.5964 109.958 40.6316 109.984 40.6655C110.008 40.6994 110.026 40.7251 110.046 40.7563C110.068 40.7861 110.094 40.8254 110.117 40.8593C110.14 40.8945 110.155 40.9297 110.174 40.9622C110.191 40.9948 110.21 41.0313 110.228 41.0666C110.244 41.1004 110.262 41.1465 110.279 41.1872C110.29 41.2116 110.301 41.2346 110.311 41.259L120.617 68.8999C121.429 69.3145 121.941 70.1492 121.941 71.0598C121.941 78.5381 116.187 83.7603 107.95 83.7603C99.7619 83.7603 94.0424 78.5381 94.0424 71.0598C94.0437 70.1221 94.6033 69.2752 95.4638 68.904L104.546 44.6181H86.7104C85.8811 46.3037 84.4082 47.5842 82.6223 48.1695V87.9785H87.5017C88.8432 87.9785 89.9299 89.0652 89.9299 90.4067C89.9299 91.7481 88.8432 92.8349 87.5017 92.8349H72.8865C71.5464 92.8349 70.4584 91.7481 70.4584 90.4067C70.4584 89.0652 71.5464 87.9785 72.8865 87.9785H77.7659V48.1695C75.9814 47.5842 74.5085 46.3037 73.6792 44.6181H55.8432L64.9231 68.9053C65.7876 69.2861 66.3459 70.1424 66.3472 71.0869C66.3472 78.5652 60.5939 83.7752 52.3567 83.7752C44.167 83.7752 38.4489 78.5462 38.4489 71.0679C38.4489 70.156 38.9597 69.32 39.7714 68.904Z" fill="#6A6ACF" fill-opacity="0.2"/>
<path d="M115.333 68.8994L108.032 49.3262L100.731 68.8994H115.333Z" fill="#6A6ACF" fill-opacity="0.2"/>
<path d="M11.8809 65.2019C11.8809 76.7331 15.4838 88.8997 22.5895 101.365C28.3416 111.454 36.3809 121.748 46.4825 131.963C56.8226 142.339 68.1085 151.725 80.1939 160C92.2806 151.725 103.566 142.339 113.907 131.963C124.008 121.748 132.049 111.453 137.798 101.365C144.905 88.8984 148.508 76.7317 148.508 65.2019C148.508 29.2507 117.862 0 80.1939 0C42.5258 0 11.8809 29.2507 11.8809 65.2019ZM80.1939 12.9892C110.012 12.9892 134.271 37.248 134.271 67.0664C134.271 96.8835 110.012 121.142 80.1939 121.142C50.3768 121.142 26.118 96.8835 26.118 67.0664C26.118 37.248 50.3768 12.9892 80.1939 12.9892Z" fill="#6A6ACF" fill-opacity="0.2"/>
</g>
<defs>
<clipPath id="clip0_32_22214">
<rect width="160" height="160" fill="white"/>
</clipPath>
</defs>
</svg>
