<svg xmlns="http://www.w3.org/2000/svg" width="33" height="32" fill="none" viewBox="0 0 33 32">
  <path fill="#000" fill-opacity=".25" d="M8.383 16.092c0-.479.168-.887.506-1.224.341-.337.75-.506 1.223-.506.479 0 .887.169 1.224.506.342.337.513.745.513 1.224 0 .478-.171.889-.513 1.23a1.667 1.667 0 0 1-1.224.506c-.474 0-.882-.168-1.223-.506a1.69 1.69 0 0 1-.506-1.23Zm6.908 0c0-.479.169-.887.506-1.224.342-.337.75-.506 1.223-.506.479 0 .887.169 1.224.506.342.337.513.745.513 1.224 0 .478-.171.889-.513 1.23a1.667 1.667 0 0 1-1.224.506 1.68 1.68 0 0 1-1.223-.506 1.69 1.69 0 0 1-.506-1.23Zm6.908 0c0-.479.169-.887.506-1.224.342-.337.75-.506 1.224-.506.478 0 .886.169 1.223.506.342.337.513.745.513 1.224 0 .478-.17.889-.513 1.23a1.667 1.667 0 0 1-1.223.506 1.68 1.68 0 0 1-1.224-.506 1.69 1.69 0 0 1-.506-1.23Z"/>
</svg>