<svg width="102" height="24" viewBox="0 0 102 24" fill="none" xmlns="http://www.w3.org/2000/svg">
<path d="M92.3536 12.3535C92.5488 12.1583 92.5488 11.8417 92.3536 11.6464L89.1716 8.46446C88.9763 8.2692 88.6597 8.2692 88.4645 8.46446C88.2692 8.65972 88.2692 8.9763 88.4645 9.17157L91.2929 12L88.4645 14.8284C88.2692 15.0237 88.2692 15.3403 88.4645 15.5355C88.6597 15.7308 88.9763 15.7308 89.1716 15.5355L92.3536 12.3535ZM5.09966e-08 12.5L92 12.5L92 11.5L-5.09966e-08 11.5L5.09966e-08 12.5Z" fill="white"/>
<path d="M101.5 12C101.5 17.8084 95.9786 22.6429 89 22.6429C82.0214 22.6429 76.5 17.8084 76.5 12C76.5 6.19165 82.0214 1.35715 89 1.35715C95.9786 1.35715 101.5 6.19165 101.5 12Z" stroke="white"/>
</svg>
