<svg width="146" height="146" viewBox="0 0 146 146" fill="none" xmlns="http://www.w3.org/2000/svg">
<g filter="url(#filter0_b_317_4)">
<path d="M0 29.1421C0 26.49 1.05357 23.9464 2.92893 22.0711L22.0711 2.92893C23.9464 1.05357 26.49 0 29.1421 0H136C141.523 0 146 4.47715 146 10V136C146 141.523 141.523 146 136 146H10C4.47715 146 0 141.523 0 136V29.1421Z" fill="white" fill-opacity="0.95"/>
<path d="M145.5 10V136C145.5 141.247 141.247 145.5 136 145.5H10C4.75329 145.5 0.5 141.247 0.5 136V29.1421C0.5 26.6226 1.50089 24.2062 3.28249 22.4246L22.4246 3.28249C24.2062 1.50089 26.6226 0.5 29.1421 0.5H136C141.247 0.5 145.5 4.75329 145.5 10Z" stroke="white" stroke-opacity="0.3"/>
</g>
<path d="M37.12 7C36.5014 7 36 6.49856 36 5.88C36 2.63257 38.6326 2.26911e-06 41.88 2.12716e-06L104.88 -6.26655e-07C105.499 -6.53693e-07 106 0.50144 106 1.12C106 4.36743 103.367 7 100.12 7L37.12 7Z" fill="#CDD2D9"/>
<path d="M102.103 19.1024C99.987 17.2112 96.8114 16.5108 94.0599 17.3513C93.0016 17.7017 92.0844 18.3325 91.0966 18.9623C90.3202 19.4529 89.403 19.6631 88.6976 20.2238C88.3446 20.5041 88.627 20.9942 88.627 21.3441C87.7098 23.5158 87.2157 25.8976 87.9917 28.2094C88.627 28.9798 89.7559 29.1906 90.6731 29.5405C90.8143 30.5212 90.4613 31.4318 90.3202 32.4125C90.5319 32.5526 90.6731 32.6928 90.8849 32.833C89.5442 32.7629 88.2035 32.4826 86.8628 32.2027C86.3691 31.7121 85.5931 31.9925 84.9578 31.9224C84.8872 30.9412 84.5343 30.0306 84.5343 29.0499C84.3931 29.0499 84.1108 28.9798 83.9701 28.9098C83.8995 29.6106 83.9701 30.3114 83.7583 31.0118C83.4058 31.2921 82.8411 31.1519 82.4176 31.2215C82.4176 31.5019 82.4176 31.7822 82.3475 32.0625C74.1626 31.9925 65.9075 32.0625 57.7226 32.0625V33.2535H56.9461V28.7H56.0289C56.0289 29.961 56.0995 31.1515 56.0289 32.4125C55.9323 32.5002 55.8069 32.55 55.676 32.5526C55.676 32.6928 55.6059 32.9731 55.6059 33.1133C55.3235 32.833 54.9706 32.6227 54.5475 32.7629C54.4769 32.9731 54.4063 33.1834 54.3358 33.4637C54.6181 33.7441 54.7593 34.094 54.6181 34.514C52.3598 34.5841 50.1019 34.514 47.7734 34.514C47.5621 34.2337 47.2092 34.0935 46.8562 33.9534C46.7151 34.0239 46.5038 34.1641 46.4327 34.2337H43.117C42.9758 34.7943 42.9758 35.355 43.0464 35.8451H46.4332C46.5038 35.9152 46.7155 36.1255 46.8567 36.1955C47.2092 35.9853 47.4915 35.8451 47.8445 35.6349H53.9828C55.1823 35.9853 56.4525 35.9152 57.652 35.705V37.0361H67.7419C68.1654 37.3865 68.5884 37.5967 69.1527 37.6668C68.9414 38.7176 70.1409 38.9974 70.5645 39.7683C70.8463 40.1888 71.2694 40.4687 71.6929 40.6089C72.0459 42.7805 71.2694 44.8119 70.7047 46.8439C71.34 46.984 72.0459 47.1938 72.6812 47.334C73.0336 48.7351 73.3866 50.2059 73.6684 51.6066C73.9508 52.8681 74.939 53.9189 76.1381 54.409C76.9851 55.3902 78.1136 56.3709 79.4543 56.4409C79.9484 56.5811 80.3014 56.2307 80.6538 55.9504C82.4176 56.0905 84.0407 55.2495 85.5931 54.5492C87.2863 53.7787 88.8388 52.798 90.4613 51.8874C90.3202 52.8681 90.8143 53.7086 91.1672 54.5492C90.3908 54.8996 89.3324 55.1799 88.9094 56.0204C88.627 56.6507 88.3446 57.3515 88.3446 58.122C88.4152 60.644 88.6976 63.1656 88.8388 65.6876C88.7682 67.5093 89.6853 69.3305 90.9555 70.6611C91.802 70.5915 92.5075 70.2411 93.2839 69.8907C93.5663 70.5214 94.2011 71.1522 93.8486 71.9226C93.5663 72.8332 93.5663 73.8139 93.1428 74.6544C90.7437 77.1764 88.6976 79.9783 87.2157 83.1306C85.7343 86.1432 84.6054 89.2956 83.4058 92.4479C83.1941 92.4479 82.7705 92.3778 82.5588 92.3778C82.2764 93.2884 82.5588 94.3391 81.9941 95.1801C81.5004 95.9506 81.6416 96.8612 81.6416 97.7718C81.7828 99.8733 81.924 101.975 82.1357 104.076C82.2769 105.548 82.6294 107.019 82.8411 108.49C82.7705 109.611 82.2764 110.731 82.3475 111.852C82.4176 112.904 82.4176 114.024 83.2647 114.795C83.1941 117.177 83.8294 119.558 82.9823 121.87C81.8529 123.411 80.5832 124.882 79.2425 126.213C77.7611 126.914 75.9969 127.054 74.7268 128.315C74.2331 129.086 74.5155 129.996 74.6562 130.837C77.6755 131.257 80.739 131.257 83.7583 130.837C84.9578 130.556 86.0868 130.066 87.2863 129.926C88.9094 129.996 90.8143 130.627 92.2957 129.506C92.4369 127.614 91.7315 125.793 91.3785 123.971C91.2373 123.341 90.6025 122.921 90.6731 122.29C90.8143 120.119 90.9555 117.877 91.0966 115.705C91.379 115.565 91.8726 115.425 91.8021 115.005C91.8021 113.954 92.155 112.904 92.4369 111.922C92.931 109.261 93.1428 106.528 93.2133 103.797C93.2839 103.026 92.7898 102.465 92.2251 101.975C92.0839 100.784 91.9427 99.5234 91.8726 98.3324C92.0844 97.7017 92.5785 97.2111 92.8609 96.6509C94.1305 96.7911 95.9649 97.0714 96.7409 95.7403C98.5757 93.008 100.481 90.2062 102.315 87.4743C103.091 87.4043 104.009 87.4743 104.714 86.9838C105.491 86.1428 105.985 85.0224 106.478 83.9716C106.69 84.8121 106.831 85.7227 107.325 86.4231C107.748 87.1239 108.454 87.614 108.948 88.2448C109.442 89.3656 109.865 90.4865 110.288 91.6073C110.782 93.008 111.488 94.4092 111.629 95.9506C111.699 96.721 111.841 97.4218 112.123 98.1222C112.475 98.6829 113.111 98.8926 113.675 99.173C114.098 100.084 114.381 100.994 115.016 101.765C115.439 102.255 116.145 102.395 116.427 103.026C116.709 103.867 117.133 104.637 117.485 105.407C117.626 106.248 117.062 107.159 117.344 108C117.838 110.101 118.897 112.063 119.884 113.954C120.378 115.355 120.731 116.826 121.436 118.157C121.719 118.718 122.425 118.858 122.989 118.928C123.624 120.469 124.33 121.94 124.753 123.551C124.964 125.092 124.964 126.704 124.894 128.245C124.894 128.945 124.47 129.506 124.188 130.136C123.906 130.977 124.118 131.817 124.259 132.658C127.01 133.008 129.833 133.289 132.514 132.448C132.796 132.238 132.726 131.887 132.796 131.607C133.008 130.347 133.149 129.015 132.726 127.825C131.809 124.532 131.033 121.24 130.115 117.947C130.468 117.597 130.962 117.317 130.962 116.756C131.033 115.846 130.962 114.865 130.75 113.954C130.327 112.412 129.198 111.222 128.634 109.751C128.422 109.12 128.492 108.49 128.422 107.859C128.422 106.388 127.575 105.197 126.94 103.937C126.305 102.886 125.811 101.765 124.964 100.854C124.4 100.364 124.4 99.5935 123.977 98.9627C123.553 98.1923 122.848 97.5615 122.848 96.6509C122.706 95.5301 123.13 94.4092 122.989 93.2884C122.706 89.9959 122.072 86.7735 121.507 83.4815C121.789 83.1306 122.213 82.7807 122.354 82.2901C122.283 81.9402 122.213 81.6598 122.142 81.3094L122.777 80.2587C122.495 79.8382 122.212 79.3481 121.93 78.9276C122.212 78.7173 122.565 78.4375 122.848 78.2267C122.495 77.1764 122.636 75.6351 121.366 75.145C121.225 75.2151 120.872 75.2852 120.731 75.3548C120.943 73.5336 120.943 71.6423 121.154 69.8206C121.648 67.8592 121.719 65.8282 121.507 63.8659C120.802 62.8156 119.461 62.3951 118.261 62.325C119.814 61.9751 121.366 61.8349 122.848 61.3444C122.918 60.0833 122.706 58.8223 122.495 57.5618C121.86 55.1098 122.142 52.5883 121.789 50.0658C121.436 49.3654 120.519 49.2252 119.743 49.3654C118.826 49.5056 117.909 49.2252 116.991 48.9449C116.991 48.595 116.921 48.1745 116.991 47.8241C117.556 45.3726 117.415 42.8506 116.991 40.4687C116.426 37.3865 115.157 34.3738 112.829 32.2027C111.276 30.7314 109.018 30.0306 106.901 30.1007C106.196 30.1007 105.773 30.8015 105.208 31.222C104.926 30.9417 104.643 30.6614 104.432 30.381C104.785 29.1901 105.349 27.9291 105.279 26.6685C105.138 23.8662 104.22 20.9942 102.104 19.1024M80.0896 38.9273C79.9484 39.0675 79.9484 39.0675 80.0896 38.9273V38.9273ZM79.1014 39.0675C79.0313 39.5581 78.8901 40.0487 79.1719 40.4687C79.5249 40.6089 79.9484 40.6089 80.3014 40.8191C79.3131 40.8191 78.3254 40.8892 77.3376 40.8191C76.5616 40.6089 76.8435 39.6282 76.8435 39.0675C77.3376 38.5068 78.396 38.8573 79.1014 39.0675ZM81.571 42.01C80.8651 42.7805 80.5127 43.9714 79.8778 44.7418C78.9607 43.5509 78.2548 42.2899 77.1964 41.2391C78.4665 41.169 79.7367 41.3092 81.0068 41.169C81.2185 41.4494 81.3592 41.7297 81.5715 42.01H81.571Z" fill="url(#paint0_linear_317_4)"/>
<defs>
<filter id="filter0_b_317_4" x="-13" y="-13" width="172" height="172" filterUnits="userSpaceOnUse" color-interpolation-filters="sRGB">
<feFlood flood-opacity="0" result="BackgroundImageFix"/>
<feGaussianBlur in="BackgroundImageFix" stdDeviation="6.5"/>
<feComposite in2="SourceAlpha" operator="in" result="effect1_backgroundBlur_317_4"/>
<feBlend mode="normal" in="SourceGraphic" in2="effect1_backgroundBlur_317_4" result="shape"/>
</filter>
<linearGradient id="paint0_linear_317_4" x1="88" y1="17" x2="88" y2="133" gradientUnits="userSpaceOnUse">
<stop stop-color="#E5E8ED"/>
<stop offset="1" stop-color="#E5E8ED" stop-opacity="0"/>
</linearGradient>
</defs>
</svg>
