<svg width="73" height="72" viewBox="0 0 73 72" fill="none" xmlns="http://www.w3.org/2000/svg"><path d="M35.866 1.68344l-.5592 1.69559-1.9009.06143-1.901.06143 1.4537 1.0321c.7952.56519 1.4785 1.09353 1.5034 1.16725.0248.07372-.1988.87236-.5095 1.78159-.3106.90922-.5342 1.67101-.5094 1.70787.0373.02457.7331-.43004 1.5531-1.01981l1.5034-1.06895 1.5034 1.06895c.82.58977 1.5158 1.04438 1.5531 1.01981.0248-.03686-.1988-.79865-.5094-1.70787-.3106-.90923-.5343-1.70787-.5094-1.78159.0248-.07372.7082-.60206 1.5033-1.16725l1.4537-1.0321-1.9009-.06143-1.901-.06143-.5591-1.69559c-.3106-.921512-.5964-1.683296-.6337-1.683296s-.323.761784-.6336 1.683296zM19.7495 5.64814l-.6134 1.80624-1.8777.03613-1.8902.03612 1.5147 1.04762 1.5146 1.04762-.5507 1.66173c-.3005.9152-.5383 1.6979-.5258 1.734.025.0482.6885-.3733 1.4771-.9272.7887-.5539 1.5022-.9994 1.5648-.9994.0751 0 .7761.4455 1.5648.9994.7886.5539 1.4521.9754 1.4771.9272.0125-.0361-.2253-.8188-.5258-1.734l-.5508-1.66173 1.5147-1.04762 1.5147-1.04762-1.8777-.03612-1.8777-.02409-.6259-1.81828-.6259-1.81828-.6009 1.81828zM51.6744 5.62768l-.5662 1.79782-1.7333.02381-1.7333.03572 1.3982 1.04773 1.3982 1.03583-.5547 1.72641c-.312.9525-.5315 1.7264-.4969 1.7264.0231 0 .6702-.4525 1.4098-1.0121.7511-.5595 1.4097-1.012 1.4675-1.012.0577 0 .7048.4525 1.4328 1.0001.728.5477 1.3404.9644 1.3635.9168.0116-.0357-.208-.8096-.4853-1.7145l-.5084-1.64301 1.3982-1.03583 1.3981-1.03583-1.7448-.03572-1.7333-.03572-.5662-1.78591-.5662-1.79782-.5777 1.79782zM8.24891 17.012l-.55089 1.7048-1.92199.0596-1.93423.0596 1.50576 1.061c.83245.5841 1.51801 1.0729 1.53025 1.0848.01224 0-.22036.7749-.52641 1.7167-.30605.9418-.53864 1.7167-.51416 1.7406.02448.0238.56313-.3338 1.19971-.7988.63659-.453 1.30989-.9298 1.48128-1.049l.31829-.2266 1.21198.8703c.6733.4769 1.3588.9537 1.5425 1.073l.3183.2026-.5387-1.6452c-.2938-.906-.5386-1.7047-.5386-1.7763 0-.0596.6733-.596 1.5057-1.1921l1.4936-1.061-1.9098-.0358-1.92199-.0238-.56313-1.7287c-.31829-.9537-.58761-1.7286-.6121-1.7286-.01224 0-.28156.763-.57537 1.6929zM63.1275 17.076l-.632 1.7568-2.0541.0239-2.041.0359 1.6196 1.0637c.8822.5736 1.6064 1.1234 1.6064 1.1951 0 .0837-.1843.6215-.395 1.219-.6715 1.7927-.8032 2.223-.6189 2.1154.0922-.0478.8296-.5258 1.6591-1.0636l1.488-.992 1.6064 1.0637c.8691.5736 1.6196 1.0397 1.646 1.0158.0131-.0239-.2371-.8127-.5794-1.7449-.3687-.9919-.5662-1.721-.5004-1.7688.0659-.0358.8296-.5258 1.6723-1.0875l1.5538-1.0159-2.0805-.0598-2.0805-.0597-.6189-1.721-.6057-1.733-.6452 1.7569zM67.3648 33.0794l-.5474 1.7349-1.9033.0611-1.9034.0611 1.5053 1.0752c1.7167 1.234 1.6172.8797.8459 3.1279-.2612.7697-.4478 1.4173-.4229 1.4417.0248.0244.7091-.4276 1.5177-1.0019.8086-.5742 1.5425-1.0141 1.6172-.9897.0871.0367.7713.501 1.5301 1.0508.7713.562 1.4182.9897 1.4431.953.0249-.0244-.1991-.7819-.5101-1.6861-.2985-.9041-.5224-1.7105-.4976-1.7838.0249-.0733.7091-.5987 1.5053-1.1608l1.4555-1.0263-1.9033-.0611-1.891-.0611-.5722-1.6739c-.311-.9163-.5971-1.6983-.6469-1.7349-.0373-.0367-.311.7208-.622 1.6739zM4.36107 33.0875l-.55911 1.6956-1.90098.0614L0 34.9059l1.45369 1.0321c.79518.5652 1.47854 1.0935 1.50339 1.1673.02485.0737-.1988.8723-.50942 1.7815-.31061.9093-.53426 1.671-.50941 1.7079.02485.0246.68336-.4055 1.45369-.9584s1.45369-1.0321 1.52824-1.0566c.08697-.0369.8076.4177 1.61521 1.0075.8076.5775 1.49096 1.0321 1.51581 1.0075.02485-.0369-.19879-.7986-.50941-1.7079-.31062-.9092-.53426-1.7078-.50941-1.7815.02485-.0738.7082-.6021 1.50338-1.1673l1.45369-1.0321-1.90097-.0614-1.90098-.0614-.55911-1.6956c-.31062-.9215-.59639-1.6833-.63366-1.6833-.03728 0-.32304.7618-.63366 1.6833zM8.23667 48.5574l-.55089 1.8468-1.92199.0646-1.92199.0646 1.44455 1.0977c.78349.607 1.46904 1.1236 1.51801 1.1624.06121.0387-.14691.8782-.44072 1.8727-.30605.9944-.53864 1.8468-.51416 1.8985.01224.0387.55089-.3229 1.18747-.8266.63659-.4908 1.30989-1.0074 1.48128-1.1365l.31829-.2454 1.21198.9428c.6733.5166 1.3588 1.0332 1.5425 1.1624l.3183.2195-.5387-1.7823c-.2938-.9815-.5386-1.8468-.5386-1.9372 0-.0775.6733-.6587 1.5057-1.2915l1.4936-1.1365-1.9098-.0388-1.9097-.0258-.57542-1.8727c-.31829-1.0332-.58761-1.8727-.6121-1.8727-.01224 0-.28156.8266-.58761 1.834zM63.1333 48.4781l-.6328 1.7665-2.0566.0239-2.0435.0358 1.6216 1.0623c.8833.5729 1.6084 1.122 1.6084 1.1936 0 .0835-.1846.6206-.3955 1.2174-.6724 1.7904-.8042 2.2201-.6197 2.1127.0923-.0478.8306-.5252 1.6612-1.0623l1.4897-.9907 1.6085 1.0623c.8701.5729 1.6084 1.0384 1.6347 1.0146.0264-.0239-.2241-.7997-.5669-1.7427-.3296-.931-.5537-1.7307-.4878-1.7665.0528-.0358.8042-.5252 1.648-1.0862l1.5557-1.0145-2.0831-.0597-2.0698-.0597-.6196-1.7307-.6065-1.7307-.646 1.7546zM19.7601 59.9592l-.5659 1.7343-1.9192.0362-1.9068.0361 1.4516 1.0237c.7874.5661 1.4763 1.0478 1.5378 1.096.0492.0361-.1722.8551-.5044 1.8306-.3444.9756-.5413 1.7343-.4675 1.6861.0862-.0481.7259-.4937 1.4394-.9996.7135-.5058 1.3533-.9514 1.4271-.9996.0861-.0482.7627.3613 1.5378.9153.775.554 1.4639 1.0358 1.55 1.0839.0739.0482-.123-.7105-.4674-1.6861-.3322-.9755-.5536-1.7945-.5044-1.8306.0615-.0482.7504-.5299 1.5377-1.096l1.4517-1.0237-1.9068-.0361-1.9069-.0362-.5659-1.7343c-.3076-.9634-.5905-1.7463-.6028-1.7463-.0246 0-.3076.7829-.6151 1.7463zM51.702 59.9276l-.533 1.7503-1.758.0362-1.7694.0362 1.4064 1.0744 1.4178 1.0743-.2723.9174c-.1474.507-.3856 1.3158-.5444 1.7987-.1588.507-.2155.8329-.1361.7846.0794-.0483.7146-.5311 1.4291-1.0864.7146-.5553 1.3384-.9657 1.4178-.9174.068.0482.6578.4949 1.3156 1.0019.6579.507 1.2477.9536 1.327 1.0019.0681.0483-.0453-.4708-.2608-1.1468-.2155-.688-.465-1.4968-.5444-1.7986l-.1588-.5553 1.4064-1.0743 1.4177-1.0744-1.758-.0362-1.758-.0362-.5217-1.702c-.2836-.9416-.5331-1.7383-.5671-1.7624-.0227-.0242-.2722.7484-.5558 1.7141zM35.547 64.5326l-.5282 1.724-1.757.0607-1.7569.0607 1.3435 1.0077c.7349.5584 1.355 1.0805 1.3895 1.1655.023.0728-.1837.862-.4708 1.7604s-.4938 1.6511-.4708 1.6875c.0229.0243.6201-.4006 1.332-.9469.7005-.5342 1.3321-1.0077 1.4125-1.0441.0803-.0243.7579.4127 1.5043.9955.7464.5706 1.3779 1.0198 1.4009.9955.023-.0364-.1837-.7891-.4708-1.6875s-.4938-1.6876-.4708-1.7604c.0344-.085.6545-.5949 1.3895-1.1534l1.332-1.0198-1.7569-.0607-1.7455-.0607-.5282-1.724c-.2871-.947-.5397-1.724-.5742-1.724-.0344 0-.287.777-.5741 1.724zM27.4262 28.5414h-2.2846v-4.0139h2.2846v.6971H25.981v.8826h1.3452v.6971H25.981v1.0344h1.4452v.7027zM31.3594 24.5275v3.3056h.5281v1.8776h-.8116v-1.1693h-2.4848v1.1693h-.8115v-1.8776h.3057c.1038-.2099.2038-.431.3002-.6634.0963-.2324.1853-.4816.2668-.7477.0852-.2661.1612-.5547.2279-.8657.0667-.3149.1223-.6578.1668-1.0288h2.3124zm-1.6454.7083c-.0259.1949-.063.4029-.1112.624-.0481.2174-.1056.4404-.1723.669-.063.2286-.1334.4535-.2112.6746-.0778.2211-.1612.431-.2502.6297H30.52v-2.5973h-.806zM32.4971 24.5275h.756v1.9395c0 .0937-.0019.1986-.0056.3148-.0037.1162-.0074.2305-.0111.3429-.0037.1087-.0074.2043-.0111.2867-.0037.0787-.0074.1331-.0111.1631h.0166l1.8344-3.047h1.0061v4.0139h-.7504v-1.9283c0-.1011.0019-.2117.0056-.3316.0037-.1237.0074-.2418.0111-.3542.0074-.1124.0129-.2099.0167-.2923.0074-.0862.0129-.1425.0166-.1687h-.0222l-1.8399 3.0751h-1.0117v-4.0139zM40.3251 28.5414h-.8394v-1.7315h-1.5731v1.7315h-.8394v-4.0139h.8394v1.5741h1.5731v-1.5741h.8394v4.0139zM43.7528 28.5414l-.289-.9557h-1.4453l-.289.9557h-.9061l1.4008-4.0308h1.0284l1.4063 4.0308h-.9061zm-.7782-2.6029c-.0185-.0637-.0426-.1443-.0722-.2417-.0297-.0974-.0593-.1968-.089-.2979-.0296-.1012-.0537-.1893-.0722-.2643-.0186.075-.0445.1687-.0779.2811-.0296.1087-.0593.2136-.0889.3148-.0259.0975-.0463.1668-.0612.208l-.2834.9332h1.0339l-.2891-.9332z" fill="#fff"/><path d="M46.4957 27.001l-.9283 1.5404h-.9339l1.1284-1.7652c-.1075-.045-.2149-.1106-.3224-.1968-.1075-.0899-.1964-.208-.2668-.3542-.0704-.1499-.1056-.3335-.1056-.5509 0-.371.1315-.654.3946-.8489.2632-.1986.6319-.2979 1.1062-.2979h1.2896v4.0139h-.8393V27.001h-.5225zm.1056-1.7764c-.1446 0-.2687.0168-.3725.0506-.1.0337-.1778.088-.2334.163-.0519.075-.0778.1743-.0778.298 0 .1761.0574.3166.1723.4216.1186.1012.2964.1518.5336.1518h.3947v-1.085h-.4169zM19.7247 33.7316c0 .3111-.0352.5941-.1056.8489-.0704.2511-.1797.4685-.328.6521-.1445.1837-.3279.3242-.5503.4217-.2223.0974-.4836.1461-.7837.1461-.3706 0-.6819-.073-.9339-.2192-.2483-.1499-.441-.3579-.5781-.624-.1334-.2699-.2149-.5847-.2446-.9445h-.7615v1.7315h-.8394v-4.0139h.8394v1.5741h.7782c.0408-.3336.1297-.6221.2668-.8658.1408-.2473.3335-.4366.5781-.5677.2446-.135.5448-.2024.9005-.2024.4002 0 .7301.0862.9895.2586.2631.1686.4576.4085.5836.7196.126.3073.189.6689.189 1.0849zm-2.6626 0c0 .2811.0315.5229.0945.7252.063.2024.1612.358.2946.4666.1334.1087.302.1631.5059.1631.2112 0 .3835-.0544.5169-.1631.1334-.1086.2298-.2642.2891-.4666.063-.2023.0945-.4441.0945-.7252 0-.281-.0315-.5228-.0945-.7252-.0593-.2023-.1557-.3579-.2891-.4666-.1297-.1086-.2983-.163-.5058-.163-.2075 0-.3799.0544-.517.163-.1334.1087-.2316.2643-.2946.4666-.063.2024-.0945.4442-.0945.7252zM21.8165 31.7303c.5114 0 .8839.1124 1.1173.3373.2372.2211.3558.5266.3558.9164 0 .1761-.026.3448-.0778.5059-.0519.1574-.139.2998-.2613.4273-.1186.1236-.2761.2211-.4725.2923-.1964.0712-.4391.1068-.7282.1068h-.3613v1.4279h-.8394v-4.0139h1.2674zm-.0444.6971h-.3836v1.1918h.2779c.1594 0 .2965-.0206.4114-.0618.1149-.0413.2038-.1068.2668-.1968.063-.0899.0945-.2061.0945-.3485 0-.1987-.0537-.3448-.1612-.4385-.1075-.0975-.2761-.1462-.5058-.1462zM24.0396 31.7303h.756v1.9395c0 .0937-.0019.1986-.0056.3148-.0037.1162-.0074.2305-.0111.3429-.0037.1087-.0074.2043-.0111.2868-.0037.0787-.0074.133-.0111.163h.0167l1.8343-3.047h1.0062v4.0139h-.7505V33.816c0-.1012.0019-.2118.0056-.3317.0037-.1237.0074-.2417.0111-.3542.0074-.1124.013-.2099.0167-.2923.0074-.0862.013-.1424.0167-.1687h-.0223l-1.8399 3.0751h-1.0117v-4.0139zM31.7231 31.7303v3.3056h.5281v1.8776h-.8116v-1.1693h-2.4847v1.1693h-.8116v-1.8776h.3057c.1038-.2099.2038-.431.3002-.6634.0963-.2323.1853-.4816.2668-.7477.0852-.2661.1612-.5546.2279-.8657.0667-.3148.1223-.6578.1668-1.0288h2.3124zm-1.6454.7083c-.0259.1949-.063.4029-.1112.6241-.0481.2173-.1056.4403-.1723.6689-.063.2287-.1334.4535-.2112.6746-.0778.2212-.1612.431-.2502.6297h1.5509v-2.5973h-.806zM32.8608 31.7303h.756v1.9395c0 .0937-.0019.1986-.0056.3148-.0037.1162-.0074.2305-.0111.3429-.0037.1087-.0074.2043-.0111.2868-.0037.0787-.0074.133-.0111.163h.0166l1.8344-3.047h1.0061v4.0139h-.7504V33.816c0-.1012.0019-.2118.0056-.3317.0037-.1237.0074-.2417.0111-.3542.0074-.1124.013-.2099.0167-.2923.0074-.0862.0129-.1424.0166-.1687h-.0222l-1.8399 3.0751h-1.0117v-4.0139zM40.4831 35.7442h-.8394v-1.5516c-.2334.0825-.4484.1443-.6448.1855-.1927.0413-.3872.0619-.5836.0619-.3706 0-.6615-.09-.8727-.2699-.2076-.1836-.3113-.4441-.3113-.7814v-1.6584h.8393v1.4167c0 .1949.0445.341.1334.4385.089.0974.2391.1461.4503.1461.1556 0 .3113-.0168.4669-.0506.1557-.0337.3298-.0843.5225-.1517v-1.799h.8394v4.0139zM43.7657 35.7442h-2.2846v-4.0139h2.2846v.6971h-1.4452v.8826h1.3452v.6971h-1.3452v1.0344h1.4452v.7027zM46.2759 32.3824c-.1594 0-.302.0319-.428.0956-.1223.0637-.2261.1555-.3113.2755-.0853.1161-.1501.2586-.1946.4272-.0408.1687-.0611.3579-.0611.5678 0 .2848.0333.5284.1.7308.0704.1987.1798.3504.328.4554.1482.1049.3372.1574.567.1574.163 0 .3242-.0187.4836-.0562.163-.0375.3391-.09.5281-.1574v.7139c-.1742.0712-.3465.1237-.517.1574-.1705.0338-.3613.0506-.5725.0506-.4077 0-.7449-.0843-1.0117-.2529-.2631-.1724-.4577-.4123-.5837-.7196-.126-.3111-.189-.6728-.189-1.085 0-.3036.0408-.5809.1223-.832.0815-.2549.2001-.4741.3558-.6578.1593-.1836.3539-.326.5836-.4272.2335-.1012.5003-.1518.8005-.1518.1964 0 .3928.0262.5892.0787.2001.0487.391.1162.5725.2024l-.2723.6915c-.1483-.0713-.2984-.1331-.4503-.1856-.1482-.0524-.2946-.0787-.4391-.0787zM51.3661 35.7442H50.41l-1.4397-2.035v2.035h-.8394v-4.0139h.8394v1.9451l1.423-1.9451h.895l-1.4453 1.9283 1.5231 2.0856z" fill="#fff"/><path d="M54.2948 35.7442l-.289-.9557h-1.4453l-.2891.9557h-.906l1.4008-4.0308h1.0283l1.4064 4.0308h-.9061zm-.7782-2.6028c-.0185-.0638-.0426-.1443-.0723-.2418-.0296-.0974-.0593-.1967-.0889-.2979-.0297-.1012-.0537-.1893-.0723-.2642-.0185.0749-.0444.1686-.0778.281-.0296.1087-.0593.2137-.0889.3149-.026.0974-.0464.1667-.0612.208l-.2835.9332h1.0339l-.289-.9332z" fill="#fff"/><path d="M57.0376 34.2039l-.9283 1.5403h-.9338l1.1284-1.7652c-.1075-.045-.2149-.1106-.3224-.1968-.1075-.0899-.1964-.208-.2668-.3541-.0704-.1499-.1056-.3336-.1056-.551 0-.371.1315-.654.3946-.8488.2631-.1987.6319-.298 1.1062-.298h1.2896v4.0139h-.8393v-1.5403h-.5226zm.1057-1.7765c-.1446 0-.2687.0169-.3725.0506-.1.0337-.1779.0881-.2334.163-.0519.075-.0779.1743-.0779.298 0 .1761.0575.3167.1724.4216.1185.1012.2964.1518.5336.1518h.3947v-1.085h-.4169zM26.6874 39.5853c-.1593 0-.302.0318-.428.0955-.1223.0637-.226.1556-.3113.2755-.0852.1162-.15.2586-.1945.4272-.0408.1687-.0612.358-.0612.5678 0 .2849.0334.5285.1001.7309.0704.1986.1797.3504.328.4553.1482.105.3372.1574.5669.1574.1631 0 .3243-.0187.4837-.0562.163-.0375.339-.0899.528-.1574v.714c-.1741.0712-.3465.1236-.5169.1574-.1705.0337-.3613.0506-.5726.0506-.4076 0-.7448-.0844-1.0117-.253-.2631-.1724-.4576-.4123-.5836-.7196-.126-.3111-.189-.6727-.189-1.085 0-.3036.0407-.5809.1223-.832.0815-.2549.2001-.4741.3557-.6577.1594-.1837.3539-.3261.5837-.4273.2335-.1012.5003-.1518.8004-.1518.1965 0 .3929.0263.5893.0787.2001.0487.3909.1162.5725.2024l-.2724.6915c-.1482-.0712-.2983-.1331-.4502-.1855-.1482-.0525-.2946-.0787-.4392-.0787zM31.6832 42.947h-.8394v-3.3055h-.9728c-.0222.1724-.0463.3598-.0722.5621-.0223.2024-.0482.4086-.0779.6184-.0259.2062-.0537.4029-.0833.5903-.0297.1837-.0593.3467-.089.4891-.0482.2324-.113.431-.1945.5959-.0779.1649-.1872.2905-.328.3767-.1371.0862-.3169.1293-.5392.1293-.0741 0-.1445-.0057-.2112-.0169-.0667-.0113-.1297-.0262-.189-.045v-.6971c.0481.015.0945.0281.1389.0394.0482.0112.1001.0168.1557.0168.0741 0 .1352-.0243.1834-.073.0482-.0488.0908-.1312.1279-.2474.037-.1199.0741-.2848.1111-.4947.0186-.09.0408-.2174.0668-.3823.0259-.1686.0555-.3654.0889-.5903.037-.2286.0741-.4759.1112-.742.037-.2699.0722-.5491.1056-.8377h2.507v4.0139zM34.641 41.7721c-.1111.2549-.2297.476-.3557.6634-.1223.1836-.2798.3242-.4725.4216-.1927.0974-.4447.1462-.756.1462-.0964 0-.202-.0075-.3168-.0225-.1149-.015-.2205-.0356-.3169-.0619v-.7308c.0889.0375.1872.0637.2946.0787.1075.015.2075.0225.3002.0225.1223 0 .2205-.0206.2946-.0618.0778-.0413.139-.0975.1834-.1687.0482-.0749.0871-.1555.1168-.2417l-1.373-2.884h.8894l.7393 1.7371c.0185.0375.0407.0862.0667.1462.0259.06.0519.1218.0778.1855.0259.0637.0463.12.0611.1687h.0278c.0149-.045.0334-.0993.0556-.1631.026-.0674.0519-.1349.0778-.2023.0297-.0712.0556-.1331.0779-.1856l.6892-1.6865h.8672l-1.2285 2.839zM37.2819 40.8614l-1.3341-1.9283h.8672l1.284 1.9451v-1.9451h.7838v1.9451l1.284-1.9451h.8672l-1.3341 1.9283 1.4119 2.0856h-.9005l-1.3285-2.035v2.035h-.7838v-2.035l-1.3285 2.035H35.87l1.4119-2.0856zM41.6141 42.947v-4.0139h2.507v.7027h-1.6676v.8377h.3335c.3743 0 .68.0525.9172.1574.2409.1049.4187.2492.5336.4329.1149.1836.1723.3935.1723.6296 0 .2623-.0574.4872-.1723.6746-.1149.1874-.2927.3317-.5336.4329-.2409.0974-.5522.1461-.9339.1461h-1.1562zm1.1229-.6971c.2557 0 .4558-.0412.6003-.1236.1482-.0825.2223-.2268.2223-.4329 0-.1424-.037-.2511-.1111-.3261-.0704-.0749-.1723-.1255-.3058-.1517-.1297-.03-.2872-.045-.4724-.045h-.2168v1.0793h.2835zM47.588 42.947l-.289-.9557h-1.4453l-.2891.9557h-.906l1.4008-4.0307h1.0283l1.4064 4.0307h-.9061zm-.7782-2.6028c-.0185-.0637-.0426-.1443-.0723-.2417-.0296-.0975-.0593-.1968-.0889-.298-.0297-.1012-.0537-.1893-.0723-.2642-.0185.0749-.0444.1686-.0778.2811-.0296.1087-.0593.2136-.0889.3148-.026.0974-.0464.1668-.0612.208l-.2835.9332h1.0339l-.289-.9332zM22.498 50.1499V46.136h3.1406v4.0139h-.8394v-3.3056h-1.4619v3.3056h-.8393zM30.2419 48.1373c0 .3111-.0389.594-.1168.8489-.0741.2511-.189.4684-.3446.6521-.1519.1836-.3484.3242-.5892.4216-.2372.0975-.517.1462-.8394.1462s-.604-.0487-.8449-.1462c-.2372-.1012-.4336-.2417-.5892-.4216-.152-.1837-.2669-.4029-.3447-.6578-.0741-.2548-.1111-.5378-.1111-.8488 0-.416.0667-.7777.2001-1.085.1371-.3073.3446-.5453.6225-.714.2817-.1724.6393-.2586 1.0729-.2586.4298 0 .7837.0862 1.0617.2586.2779.1687.4836.4085.617.7196.1371.3073.2057.669.2057 1.085zm-2.8961 0c0 .2811.0352.5228.1056.7252.0704.2024.1797.3579.328.4666.1482.1087.339.163.5725.163.2409 0 .4336-.0543.5781-.163.1482-.1087.2557-.2642.3224-.4666.0704-.2024.1056-.4441.1056-.7252 0-.4235-.0778-.7552-.2334-.9951-.1557-.2398-.4114-.3597-.7671-.3597-.2372 0-.4299.0543-.5781.163-.1483.1087-.2576.2642-.328.4666-.0704.2024-.1056.4441-.1056.7252zM32.7427 50.1499l-.9561-3.1482h-.0222c.0037.075.0092.1874.0167.3373.0074.1499.0148.3111.0222.4835.0074.1686.0111.3223.0111.461v1.8664h-.7504V46.136h1.1451l.9394 3.0694h.0167l.995-3.0694h1.1451v4.0139h-.7838v-1.9002c0-.1274.0018-.2736.0056-.4385.0074-.1649.0129-.3204.0166-.4666.0074-.1499.013-.2623.0167-.3373h-.0222l-1.0228 3.1426h-.7727zM39.9099 48.1373c0 .3111-.0389.594-.1168.8489-.0741.2511-.189.4684-.3446.6521-.1519.1836-.3484.3242-.5892.4216-.2372.0975-.517.1462-.8394.1462s-.604-.0487-.8449-.1462c-.2372-.1012-.4336-.2417-.5892-.4216-.152-.1837-.2669-.4029-.3447-.6578-.0741-.2548-.1111-.5378-.1111-.8488 0-.416.0667-.7777.2001-1.085.1371-.3073.3446-.5453.6225-.714.2817-.1724.6393-.2586 1.0729-.2586.4298 0 .7837.0862 1.0617.2586.2779.1687.4836.4085.617.7196.1371.3073.2057.669.2057 1.085zm-2.8961 0c0 .2811.0352.5228.1056.7252.0704.2024.1797.3579.328.4666.1482.1087.339.163.5725.163.2409 0 .4336-.0543.5781-.163.1482-.1087.2557-.2642.3224-.4666.0704-.2024.1056-.4441.1056-.7252 0-.4235-.0778-.7552-.2334-.9951-.1557-.2398-.4114-.3597-.7671-.3597-.2372 0-.4299.0543-.5781.163-.1483.1087-.2576.2642-.328.4666-.0704.2024-.1056.4441-.1056.7252zM46.3129 49.4753v1.8439h-.8116v-1.1693H40.732V46.136h.8394v3.3055h1.234V46.136h.8449v3.3055h1.234V46.136h.8394v3.3393h.5892zM46.9258 46.136h.756v1.9395c0 .0936-.0019.1986-.0056.3148-.0037.1161-.0074.2305-.0111.3429-.0037.1087-.0074.2042-.0111.2867-.0037.0787-.0074.133-.0111.163h.0167l1.8343-3.0469H50.5v4.0139h-.7504v-1.9283c0-.1012.0019-.2117.0056-.3317.0037-.1236.0074-.2417.0111-.3541.0074-.1125.013-.2099.0167-.2924.0074-.0862.0129-.1424.0167-.1686h-.0223l-1.8399 3.0751h-1.0117V46.136z" fill="#fff"/></svg>