<svg width="149" height="165" viewBox="0 0 149 165" fill="none" xmlns="http://www.w3.org/2000/svg">
<path d="M74.25 16.5C65.4979 16.5 57.1042 19.9768 50.9155 26.1655C44.7268 32.3542 41.25 40.7479 41.25 49.5C41.25 58.2521 44.7268 66.6458 50.9155 72.8345C57.1042 79.0232 65.4979 82.5 74.25 82.5C83.0021 82.5 91.3958 79.0232 97.5845 72.8345C103.773 66.6458 107.25 58.2521 107.25 49.5C107.25 40.7479 103.773 32.3542 97.5845 26.1655C91.3958 19.9768 83.0021 16.5 74.25 16.5ZM24.75 49.5C24.75 36.3718 29.9652 23.7813 39.2482 14.4982C48.5313 5.21516 61.1218 0 74.25 0C87.3782 0 99.9687 5.21516 109.252 14.4982C118.535 23.7813 123.75 36.3718 123.75 49.5C123.75 62.6282 118.535 75.2187 109.252 84.5018C99.9687 93.7848 87.3782 99 74.25 99C61.1218 99 48.5313 93.7848 39.2482 84.5018C29.9652 75.2187 24.75 62.6282 24.75 49.5ZM41.25 132C34.6859 132 28.3906 134.608 23.7491 139.249C19.1076 143.891 16.5 150.186 16.5 156.75C16.5 158.938 15.6308 161.036 14.0836 162.584C12.5365 164.131 10.438 165 8.25 165C6.06196 165 3.96354 164.131 2.41637 162.584C0.869194 161.036 0 158.938 0 156.75C0 145.81 4.34597 135.318 12.0818 127.582C19.8177 119.846 30.3098 115.5 41.25 115.5H107.25C118.19 115.5 128.682 119.846 136.418 127.582C144.154 135.318 148.5 145.81 148.5 156.75C148.5 158.938 147.631 161.036 146.084 162.584C144.536 164.131 142.438 165 140.25 165C138.062 165 135.964 164.131 134.416 162.584C132.869 161.036 132 158.938 132 156.75C132 150.186 129.392 143.891 124.751 139.249C120.109 134.608 113.814 132 107.25 132H41.25Z" fill="url(#paint0_linear_547_6111)"/>
<defs>
<linearGradient id="paint0_linear_547_6111" x1="74.25" y1="0" x2="74.25" y2="165" gradientUnits="userSpaceOnUse">
<stop stop-color="white"/>
<stop offset="1" stop-color="#DFDFDF"/>
</linearGradient>
</defs>
</svg>
