<svg width="30" height="30" viewBox="0 0 30 30" fill="none" xmlns="http://www.w3.org/2000/svg">
<circle cx="15" cy="15" r="15" fill="#D9D9D9"/>
<g clip-path="url(#clip0_72_4222)">
<path d="M18.8155 9L17.8735 7.77867C17.6859 7.5372 17.4457 7.34161 17.1713 7.2067C16.8968 7.07179 16.5953 7.00111 16.2895 7H13.7135C13.4077 7.00111 13.1062 7.07179 12.8317 7.2067C12.5573 7.34161 12.3171 7.5372 12.1295 7.77867L11.1875 9H18.8155Z" fill="#2B2B37"/>
<path d="M14.9987 18.9998C16.4715 18.9998 17.6654 17.8059 17.6654 16.3332C17.6654 14.8604 16.4715 13.6665 14.9987 13.6665C13.5259 13.6665 12.332 14.8604 12.332 16.3332C12.332 17.8059 13.5259 18.9998 14.9987 18.9998Z" fill="#2B2B37"/>
<path d="M19.6667 10.3335H10.3333C9.4496 10.3346 8.60237 10.6861 7.97748 11.311C7.35259 11.9359 7.00106 12.7831 7 13.6668L7 19.6668C7.00106 20.5506 7.35259 21.3978 7.97748 22.0227C8.60237 22.6476 9.4496 22.9991 10.3333 23.0002H19.6667C20.5504 22.9991 21.3976 22.6476 22.0225 22.0227C22.6474 21.3978 22.9989 20.5506 23 19.6668V13.6668C22.9989 12.7831 22.6474 11.9359 22.0225 11.311C21.3976 10.6861 20.5504 10.3346 19.6667 10.3335ZM15 20.3335C14.2089 20.3335 13.4355 20.0989 12.7777 19.6594C12.1199 19.2198 11.6072 18.5951 11.3045 17.8642C11.0017 17.1333 10.9225 16.3291 11.0769 15.5531C11.2312 14.7772 11.6122 14.0645 12.1716 13.5051C12.731 12.9457 13.4437 12.5647 14.2196 12.4104C14.9956 12.256 15.7998 12.3352 16.5307 12.638C17.2616 12.9407 17.8864 13.4534 18.3259 14.1112C18.7654 14.769 19 15.5424 19 16.3335C18.9989 17.394 18.5772 18.4108 17.8273 19.1608C17.0773 19.9107 16.0605 20.3324 15 20.3335Z" fill="#2B2B37"/>
</g>
<defs>
<clipPath id="clip0_72_4222">
<rect width="16" height="16" fill="white" transform="translate(7 7)"/>
</clipPath>
</defs>
</svg>
