<svg width="208" height="53" viewBox="0 0 208 53" fill="none" xmlns="http://www.w3.org/2000/svg">
<path d="M206.955 27.9989L207.455 28.0231L206.955 27.9989ZM184.49 51.0703H24.2465V52.0703H184.49V51.0703ZM184.49 52.0703C188.715 52.0703 194.264 49.8627 198.84 45.7828C203.429 41.6911 207.084 35.6786 207.455 28.0231L206.456 27.9747C206.101 35.3192 202.598 41.0924 198.174 45.0364C193.737 48.9922 188.416 51.0703 184.49 51.0703V52.0703ZM24.2465 51.0703C18.8844 51.0703 14.7739 49.3826 12.7648 47.7534L12.1349 48.5301C14.3539 50.3295 18.6995 52.0703 24.2465 52.0703V51.0703ZM207.455 28.0231C207.758 21.7538 206.506 16.9081 204.417 13.1829L203.545 13.672C205.531 17.2139 206.752 21.8691 206.456 27.9747L207.455 28.0231Z" fill="white"/>
<path d="M1.03624 24.2841L0.536828 24.2599L1.03624 24.2841ZM23.0729 1.5H183.316V0.5H23.0729V1.5ZM183.316 1.5C185.406 1.5 188.48 1.60644 192.018 3.17153C195.553 4.73549 199.591 7.77473 203.562 13.7067L204.393 13.1504C200.331 7.08241 196.152 3.90737 192.422 2.25704C188.695 0.607843 185.455 0.5 183.316 0.5V1.5ZM23.0729 0.5C18.8505 0.5 13.4083 2.63368 8.93624 6.64485C4.45123 10.6676 0.907189 16.6088 0.536828 24.2599L1.53566 24.3083C1.89139 16.9594 5.28998 11.2586 9.60394 7.38928C13.9308 3.50838 19.1439 1.5 23.0729 1.5V0.5ZM0.536828 24.2599C-0.108333 37.588 7.87173 45.0723 12.1372 48.5312L12.767 47.7545C8.57634 44.3562 0.91416 37.1475 1.53566 24.3083L0.536828 24.2599Z" fill="#3A3A3A"/>
</svg>
