<svg width="302" height="61" viewBox="0 0 302 61" fill="none" xmlns="http://www.w3.org/2000/svg">
<path d="M300.935 32.5L301.434 32.5302L300.935 32.5ZM268.219 59.5H34.8571V60.5H268.219V59.5ZM268.219 60.5C274.272 60.5 282.286 57.9593 288.923 53.2194C295.566 48.4749 300.894 41.4765 301.434 32.5302L300.436 32.4698C299.919 41.0235 294.825 47.7751 288.341 52.4056C281.852 57.0407 274.037 59.5 268.219 59.5V60.5ZM34.8571 59.5C26.9834 59.5 20.9276 57.5151 17.95 55.5807L17.4052 56.4193C20.5849 58.4849 26.8438 60.5 34.8571 60.5V59.5ZM301.434 32.5302C301.877 25.2056 300.048 19.5504 297.013 15.2133L296.194 15.7867C299.092 19.9279 300.866 25.3571 300.436 32.4698L301.434 32.5302Z" fill="white"/>
<path d="M1.05278 28.1648L0.553691 28.1347L1.05278 28.1648ZM33.1447 1.5H266.506V0.5H33.1447V1.5ZM266.506 1.5C269.567 1.5 274.096 1.62492 279.306 3.47127C284.51 5.31598 290.419 8.88845 296.211 15.8206L296.979 15.1794C291.073 8.11155 285.015 4.43402 279.64 2.52873C274.269 0.625078 269.603 0.5 266.506 0.5V1.5ZM33.1447 0.5C27.0943 0.5 19.2351 2.95536 12.7519 7.61386C6.2612 12.2778 1.09397 19.1931 0.553691 28.1347L1.55187 28.195C2.069 19.6366 7.01229 12.9695 13.3355 8.42595C19.6661 3.87705 27.3242 1.5 33.1447 1.5V0.5ZM0.553691 28.1347C-0.386793 43.6996 11.2381 52.4129 17.4052 56.4193L17.95 55.5807C11.8026 51.5871 0.647726 43.1585 1.55187 28.195L0.553691 28.1347Z" fill="#3A3A3A"/>
</svg>
