<svg width="20" height="21" viewBox="0 0 20 21" fill="none" xmlns="http://www.w3.org/2000/svg">
<path fill-rule="evenodd" clip-rule="evenodd" d="M9.21241 2.39565C8.81491 2.70109 8.34402 3.17301 7.6449 3.8771L3.2923 8.26067V13.205C3.2923 15.5707 4.75426 17.6502 6.89768 18.4664C6.80156 17.9318 6.80248 17.3808 6.90389 16.8405L6.92373 16.7348C7.14204 15.5717 7.99958 14.6314 9.13901 14.3152C9.70247 14.1589 10.2975 14.1589 10.861 14.3152C12.0004 14.6314 12.858 15.5717 13.0763 16.7348L13.0961 16.8405C13.1975 17.3808 13.1984 17.9318 13.1023 18.4664C15.2457 17.6502 16.7077 15.5707 16.7077 13.205V8.26065L12.3551 3.8771C11.656 3.17301 11.1851 2.70109 10.7876 2.39565C10.4076 2.10368 10.1873 2.03846 10 2.03846C9.81266 2.03846 9.59238 2.10368 9.21241 2.39565ZM18.2461 9.81005L18.6849 10.2519C18.9843 10.5534 19.4713 10.5551 19.7728 10.2558C20.0742 9.95647 20.076 9.46942 19.7766 9.16796L13.4091 2.75518C12.7575 2.09887 12.2143 1.55171 11.725 1.17574C11.2088 0.779092 10.6623 0.5 10 0.5C9.33767 0.5 8.79123 0.779091 8.27503 1.17574C7.78574 1.55171 7.24249 2.09887 6.59087 2.75517L0.223378 9.16796C-0.0759586 9.46942 -0.0742324 9.95647 0.227234 10.2558C0.5287 10.5551 1.01575 10.5534 1.31508 10.2519L1.75384 9.81007V13.205C1.75384 16.5272 4.02483 19.4182 7.24544 20.179C9.05719 20.607 10.9428 20.607 12.7545 20.179C15.9751 19.4182 18.2461 16.5272 18.2461 13.205V9.81005ZM11.3808 18.8698C11.6234 18.3233 11.6948 17.7142 11.5841 17.1243L11.5642 17.0186C11.4533 16.4276 11.019 15.9557 10.4497 15.7977C10.1553 15.716 9.84467 15.716 9.55034 15.7977C8.98099 15.9557 8.54671 16.4276 8.43579 17.0186L8.41595 17.1243C8.30522 17.7142 8.37661 18.3233 8.61919 18.8698C9.53571 18.9921 10.4643 18.9921 11.3808 18.8698Z" fill="#FFBA08"/>
</svg>
