<svg width="613" height="408" viewBox="0 0 613 408" fill="none" xmlns="http://www.w3.org/2000/svg">
<path d="M518.93 371.476H419.27C419.817 370.163 419.817 366.879 420.146 365.675L511.921 367.645L514.768 344.114H420.584C420.146 342.801 421.241 338.204 420.693 337L518.93 338.423C522.215 347.945 521.668 360.312 518.93 371.476Z" fill="#041931"/>
<path d="M599.206 374.65L519.039 371.476C521.12 360.312 520.573 347.945 518.163 338.423L599.315 342.144C604.243 351.776 603.696 363.596 599.206 374.65Z" fill="#0F73E7"/>
<path d="M511.921 367.645L427.045 365.785C430.659 358.452 430.878 352.542 427.045 344.114H514.768L511.921 367.645Z" fill="white"/>
<path opacity="0.3" d="M560.875 363.049C576.419 363.049 589.021 359.863 589.021 355.934C589.021 352.005 576.419 348.82 560.875 348.82C545.33 348.82 532.729 352.005 532.729 355.934C532.729 359.863 545.33 363.049 560.875 363.049Z" fill="white"/>
<path d="M497.793 350.572L438.983 349.149C437.668 349.149 437.668 351.119 438.983 351.119L497.793 352.542C499.107 352.542 499.107 350.572 497.793 350.572Z" fill="url(#paint0_linear_720_4680)"/>
<path d="M498.998 358.014C483.008 357.576 467.129 357.248 451.139 356.81C449.825 356.81 449.825 358.78 451.139 358.78C467.129 359.218 483.008 359.546 498.998 359.984C500.312 359.984 500.312 358.014 498.998 358.014Z" fill="url(#paint1_linear_720_4680)"/>
<path d="M511.921 407.375H392C392.657 405.843 393.643 402.997 394.081 401.465L506.883 402.778V374.541L394.3 376.62C393.862 375.088 392.548 371.476 392 369.944H511.921C515.863 381.326 515.206 394.022 511.921 407.375Z" fill="#0B0C0E" fill-opacity="0.79"/>
<path d="M608.515 405.405L512.03 407.485C514.549 394.132 514.878 381.436 512.03 369.944L608.515 373.665C614.429 385.048 613.881 391.943 608.515 405.405Z" fill="#0F73E7"/>
<path d="M506.883 402.778L402.404 401.574C406.785 392.818 406.018 386.58 401.309 376.401L506.883 374.431V402.778Z" fill="white"/>
<path d="M484.87 381.436C467.238 381.655 449.715 381.874 432.083 382.202C427.045 382.312 422.117 382.312 417.079 382.421C415.765 382.421 415.765 384.391 417.079 384.391C434.711 384.172 452.234 383.953 469.866 383.625C474.904 383.516 479.832 383.516 484.87 383.406C486.075 383.406 486.075 381.436 484.87 381.436Z" fill="#0B0C0E" fill-opacity="0.79"/>
<path d="M497.355 389.098C477.423 389.426 457.491 389.645 437.559 389.973C431.864 390.083 426.279 390.192 420.584 390.192C419.27 390.192 419.27 392.162 420.584 392.162C440.516 391.834 460.448 391.615 480.38 391.287C486.075 391.177 491.66 391.068 497.355 391.068C498.56 391.068 498.56 389.098 497.355 389.098Z" fill="#0B0C0E" fill-opacity="0.79"/>
<path d="M488.813 393.803H498.779C498.779 393.803 487.28 406.937 468.333 407.375C470.852 406.499 472.604 405.405 473.59 403.982C468.552 405.624 463.186 406.062 457.601 405.952C457.491 405.952 480.161 402.45 488.813 393.803Z" fill="#FFB552"/>
<path d="M325.011 30.5095L326.405 46.0354C323.364 46.323 320.323 46.6105 317.281 46.898C300.048 48.4793 282.688 49.9169 265.328 51.2107C245.053 52.9359 224.652 54.2297 204.251 55.811L189.172 56.9611C185.37 57.3924 181.695 59.98 180.048 64.0053C179.668 65.0116 179.288 66.0179 179.161 67.1679C179.161 67.3117 179.161 67.4555 179.034 67.5992V68.1743L178.908 69.3243L178.654 71.6245L177.514 80.9688L175.36 99.5136L173.079 118.058L171.938 127.259L171.305 131.859C171.178 132.578 171.051 133.584 170.924 134.447C170.671 135.309 170.418 136.172 170.037 137.035C169.404 138.328 168.644 139.478 167.757 140.485C166.489 141.922 164.842 142.929 163.195 143.647C160.407 144.654 157.366 144.366 154.705 143.072C152.044 141.779 149.763 139.191 148.622 135.885L148.242 134.591C148.116 134.159 148.116 133.728 147.989 133.297L147.862 132.003V130.853L147.609 126.109L148.749 125.965L149.383 130.565L149.51 131.716L149.763 132.722L150.016 133.728L150.397 134.734C151.537 137.322 153.438 139.047 155.592 139.91C157.746 140.772 160.154 140.629 162.181 139.622C164.209 138.616 165.856 136.891 166.743 134.591C166.996 134.016 167.123 133.441 167.25 132.866C167.376 132.291 167.376 131.716 167.376 130.853L167.63 126.109L168.263 116.765L169.531 98.076L170.798 79.3874L171.431 70.0431L171.558 67.743L171.685 66.5929V66.0179L171.812 65.2991C172.065 63.2865 172.445 61.2738 173.205 59.5487C175.866 52.2171 181.822 47.473 188.158 46.4667L203.49 44.5979C223.765 42.154 244.04 39.5663 264.314 37.2662C284.462 34.8223 304.737 32.6659 325.011 30.5095Z" fill="url(#paint2_linear_720_4680)"/>
<path d="M323.998 30.653L325.392 46.1789C328.433 45.8914 331.474 45.6039 334.515 45.1726C351.749 43.4475 368.982 41.4349 386.342 39.4223C406.617 37.1221 426.891 34.5345 447.166 32.0906L462.245 30.2217C466.046 29.7904 470.101 31.8031 472.382 35.397C473.016 36.2596 473.396 37.2659 473.776 38.2722C473.776 38.4159 473.903 38.5597 473.903 38.7035L474.03 39.2785L474.41 40.4286L475.043 42.5849L477.704 51.498L483.026 69.324L488.475 87.1501L491.136 96.0631L492.53 100.52C492.783 101.238 493.037 102.245 493.417 102.964C493.797 103.826 494.304 104.689 494.811 105.407C495.571 106.557 496.585 107.564 497.599 108.283C499.119 109.433 500.893 110.151 502.667 110.439C505.582 110.87 508.496 110.151 510.904 108.139C513.311 106.27 515.085 103.251 515.592 99.9446L515.719 98.6508C515.719 98.2195 515.719 97.7882 515.719 97.3569L515.592 96.0631L515.466 94.913L514.832 90.3128L513.692 90.4565L513.945 95.2006V96.3506V97.3569L513.818 98.3633L513.692 99.3696C513.058 102.101 511.411 104.257 509.51 105.551C507.483 106.845 505.202 107.133 503.047 106.557C500.893 105.982 498.993 104.545 497.725 102.532C497.472 101.957 497.092 101.526 496.965 100.951C496.712 100.376 496.712 99.9446 496.458 99.082L495.318 94.4818L493.164 85.425L488.729 67.1676L484.293 49.0541L482.013 39.9973L481.379 37.6972L481.126 36.5471L480.999 35.9721L480.745 35.2533C480.239 33.2406 479.352 31.5155 478.465 29.7904C474.536 23.0338 467.947 19.5836 461.611 19.8711L446.152 20.8774C425.751 22.315 405.476 23.7526 385.075 25.4777C364.674 27.059 344.272 28.7841 323.998 30.653Z" fill="url(#paint3_linear_720_4680)"/>
<path d="M346.03 45.144C351.674 30.8732 347.761 14.983 337.289 9.65227C326.817 4.32152 313.752 11.5688 308.108 25.8396C302.464 40.1104 306.377 56.0006 316.849 61.3314C327.321 66.6621 340.386 59.4148 346.03 45.144Z" fill="url(#paint4_linear_720_4680)"/>
<path d="M324.378 23.6082C320.196 26.4833 316.141 26.7709 315.127 24.0394C314.114 21.308 316.775 16.7078 320.956 13.8326C325.138 10.9574 329.193 10.6699 330.207 13.4013C331.094 16.1327 328.559 20.5892 324.378 23.6082Z" fill="white"/>
<path d="M339.837 354.828H312.213C317.788 268.717 318.422 169.236 317.662 60.9861H333.121C331.854 166.792 333.248 266.417 339.837 354.828Z" fill="url(#paint5_linear_720_4680)"/>
<path d="M325.138 60.8423L323.617 354.685H317.535C323.364 282.949 321.463 106.989 320.829 60.8423H325.138Z" fill="white"/>
<path d="M335.529 285.824H316.394C310.565 285.824 310.565 295.456 316.394 295.456H335.529C341.357 295.456 341.357 285.824 335.529 285.824Z" fill="#0F73E7"/>
<path d="M332.741 228.178H317.662C313.1 228.178 313.1 237.81 317.662 237.81H332.741C337.303 237.81 337.429 228.178 332.741 228.178Z" fill="#0F73E7"/>
<path d="M332.741 172.399H317.662C313.1 172.399 313.1 182.031 317.662 182.031H332.741C337.303 182.031 337.429 172.399 332.741 172.399Z" fill="#0F73E7"/>
<path d="M331.98 116.62H318.422C314.24 116.62 314.24 126.252 318.422 126.252H331.98C336.035 126.252 336.162 116.62 331.98 116.62Z" fill="#0F73E7"/>
<path d="M332.741 60.8423H317.662C313.1 60.8423 313.1 70.4741 317.662 70.4741H332.741C337.303 70.4741 337.429 60.8423 332.741 60.8423Z" fill="#0F73E7"/>
<path d="M378.232 366.904H276.606C276.606 366.904 276.733 366.329 277.239 365.466C279.647 360.435 290.165 343.902 323.618 342.752C323.744 342.752 323.744 342.752 323.744 342.752C324.885 342.752 326.152 342.752 327.419 342.752C363.913 342.752 375.064 360.434 377.599 365.61C378.105 366.329 378.232 366.904 378.232 366.904Z" fill="url(#paint6_linear_720_4680)"/>
<path d="M404.462 385.592H250.502C250.502 385.592 251.009 384.442 252.403 382.573C252.657 382.286 252.91 381.855 253.163 381.567C256.585 377.398 263.681 370.785 277.239 365.61C281.548 364.029 286.49 362.447 292.192 361.297C301.696 359.285 313.354 357.991 327.419 357.991C339.584 357.991 349.974 358.997 358.718 360.578C366.067 361.872 372.276 363.741 377.599 365.754C391.157 370.929 398.253 377.542 401.675 381.711C403.702 383.867 404.462 385.592 404.462 385.592Z" fill="#50A1FF"/>
<path d="M474.029 404.999H180.808C180.808 404.999 193.86 389.186 253.163 381.423C257.472 380.848 262.033 380.273 266.975 379.842C267.229 379.842 267.609 379.842 267.736 379.698C267.862 379.698 268.116 379.698 268.242 379.698C268.496 379.698 268.749 379.698 268.749 379.698C285.222 378.116 304.61 377.254 327.546 377.254C348.961 377.254 367.334 378.116 383.047 379.41C389.763 379.985 395.972 380.704 401.801 381.423C460.978 389.186 474.029 404.999 474.029 404.999Z" fill="url(#paint7_linear_720_4680)"/>
<path d="M323.617 342.752C321.716 342.896 300.428 344.621 292.192 361.153C292.192 361.153 286.236 363.022 280.154 366.904C275.592 369.923 270.903 374.092 268.622 379.698C268.622 379.698 268.496 379.698 268.116 379.698C267.989 379.698 267.862 379.698 267.609 379.698C267.355 379.698 267.102 379.698 266.848 379.842C264.187 380.129 258.865 380.848 252.276 382.43C239.224 385.592 221.611 392.061 212.107 404.856H180.682C180.682 404.856 193.733 389.042 253.036 381.28C256.458 377.111 263.554 370.498 277.112 365.322C279.647 360.435 290.164 343.902 323.617 342.752Z" fill="white"/>
<path d="M77.4082 239.246L161.041 137.034L244.927 239.246" stroke="#FFB552" stroke-width="1.8014" stroke-miterlimit="10" stroke-linecap="round" stroke-linejoin="round"/>
<path d="M161.041 137.034L193.987 239.246" stroke="#FFB552" stroke-width="1.8014" stroke-miterlimit="10" stroke-linecap="round" stroke-linejoin="round"/>
<path d="M264.187 235.365C264.187 235.365 252.276 299.913 163.448 299.913C162.435 299.913 161.421 299.913 160.407 299.913C74.3669 298.475 62.709 235.365 62.709 235.365C66.5105 234.79 70.312 234.215 74.2402 233.784C85.7713 232.202 97.3025 231.052 108.834 230.046C152.044 226.452 195.254 227.027 238.464 231.915C247.081 232.921 255.571 234.071 264.187 235.365Z" fill="#FFB552"/>
<path opacity="0.5" d="M163.448 299.913C162.435 299.913 161.421 299.913 160.407 299.913C108.073 298.619 84.6309 263.254 74.2402 233.784C85.7713 232.202 97.3025 231.052 108.834 230.046C121.759 286.255 163.448 299.913 163.448 299.913Z" fill="white"/>
<path d="M425.75 207.907L509.509 105.551L593.268 207.907" stroke="#FFB552" stroke-width="1.8014" stroke-miterlimit="10" stroke-linecap="round" stroke-linejoin="round"/>
<path d="M509.51 105.551L542.329 207.907" stroke="#FFB552" stroke-width="1.8014" stroke-miterlimit="10" stroke-linecap="round" stroke-linejoin="round"/>
<path d="M612.53 204.025C612.53 204.025 600.618 268.573 511.79 268.573C510.777 268.573 509.763 268.573 508.749 268.573C422.709 267.135 411.051 204.025 411.051 204.025C414.853 203.45 418.654 202.875 422.582 202.444C434.114 200.863 445.645 199.713 457.176 198.706C500.386 195.112 543.596 195.687 586.806 200.575C595.423 201.438 604.04 202.588 612.53 204.025Z" fill="#FFB552"/>
<path opacity="0.5" d="M511.79 268.573C510.777 268.573 509.763 268.573 508.749 268.573C456.416 267.28 432.973 231.915 422.582 202.445C434.114 200.863 445.645 199.713 457.176 198.707C470.228 254.773 511.79 268.573 511.79 268.573Z" fill="white"/>
<path d="M297.315 400.034C296.949 400.95 296.49 401.683 295.94 402.324C278.705 420.924 152.004 350.283 152.004 350.283C152.004 350.283 138.802 361.186 131.01 343.503L114.232 339.564C114.232 339.564 111.757 345.885 105.706 340.663L115.699 313.543C115.699 313.543 121.75 315.559 121.017 321.148L135.502 331.409C135.502 331.409 149.895 321.606 155.488 338.831C155.396 338.922 306.85 374.197 297.315 400.034Z" fill="#041931"/>
<path d="M93.9711 381.71C90.9457 382.259 85.4449 381.526 78.844 380.06C70.868 378.32 61.15 375.388 52.3488 372.089C38.5052 366.959 20.8112 357.338 16.0438 354.406C15.1271 353.857 14.4853 353.032 14.0269 352.207C13.1101 350.009 12.1016 345.794 16.5939 343.778C17.7858 343.229 19.2526 343.229 20.5361 343.778L80.586 365.951L95.1629 371.356C97.1799 372.089 98.5551 373.83 98.4634 375.571C98.5551 378.32 98.0967 380.977 93.9711 381.71Z" fill="#041931"/>
<path d="M93.5128 368.516C93.2377 369.158 92.596 369.616 91.4958 369.799C91.2208 369.89 90.8541 369.89 90.579 369.89C88.5621 369.982 85.17 369.432 80.8611 368.425C74.0768 366.867 65.3673 364.118 57.3912 361.186C46.2064 357.063 31.7211 349.825 27.8705 347.626C27.1371 347.168 26.4953 346.619 26.2203 346.069C26.1286 345.886 26.0369 345.702 25.8536 345.427C25.6702 345.061 25.4869 344.603 25.3952 344.236C25.1202 342.954 25.3952 341.579 27.4121 340.846C27.5038 340.846 27.5955 340.755 27.5955 340.755C28.5123 340.48 29.6124 340.572 30.7126 340.938L91.0374 363.202C91.3125 363.294 91.5875 363.385 91.7709 363.569C93.0544 364.21 93.8795 365.218 93.8795 366.134C93.8795 367.142 93.8795 367.875 93.5128 368.516Z" fill="#77AFF0"/>
<path d="M94.1544 368.608C93.9711 368.608 93.7877 368.608 93.5127 368.608C90.854 368.424 86.27 367.417 80.7693 365.951C73.5266 363.935 64.7254 361.095 56.566 358.071C49.8734 355.597 41.989 352.207 35.4798 349.275C31.4459 347.443 27.7788 345.702 25.3034 344.511C24.2033 343.961 23.3782 343.503 22.7364 343.228C21.9113 342.77 21.1779 342.221 20.7195 341.671C19.6193 340.205 18.2441 337.456 22.003 336.723C22.9198 336.54 24.2033 336.723 25.4868 337.181L94.1544 362.561C95.988 363.294 97.4549 364.485 97.5466 365.584C97.7299 366.958 97.6382 368.608 94.1544 368.608Z" fill="url(#paint8_linear_720_4680)"/>
<path d="M113.224 329.944C108.182 344.053 98.0052 356.88 93.5129 362.103C93.2379 362.378 93.0545 362.653 92.8711 362.836C92.5044 363.202 92.1377 363.477 91.771 363.752C90.9459 364.21 90.0291 364.302 89.1123 364.118C86.4536 363.569 83.8866 362.927 81.2279 362.194C63.2588 357.522 45.6564 350.467 28.2374 341.488C27.9623 341.305 27.6873 341.121 27.5039 340.938C26.6788 340.205 26.2204 339.289 26.1287 338.19C26.1287 337.823 26.0371 337.457 26.0371 336.998C25.762 330.677 25.9454 316.109 31.9962 299.708C37.9553 283.491 48.9568 273.047 54.2742 268.649C56.1078 267.091 57.2996 266.358 57.2996 266.358L109.923 286.332L117.716 289.264C117.716 289.264 117.808 290.455 117.9 292.47C118.083 299.342 118.358 315.742 113.224 329.944Z" fill="#0F73E7"/>
<path d="M123.859 293.478C122.483 293.478 120.283 293.111 117.716 292.562C114.874 291.92 111.482 291.096 107.815 289.996C101.122 288.072 93.4211 285.507 86.2702 282.85C74.7186 278.544 60.0499 271.672 53.9991 268.74C53.3574 268.465 52.8073 268.19 52.4406 267.915C51.6155 267.457 50.882 266.908 50.4236 266.358C49.3235 264.892 47.9483 262.143 51.7071 261.41C52.6239 261.227 53.9074 261.41 55.1909 261.868L123.859 287.248C125.692 287.981 127.159 289.172 127.251 290.271C127.526 291.92 127.434 293.57 123.859 293.478Z" fill="url(#paint9_linear_720_4680)"/>
<path d="M122.3 286.606C122.025 286.698 121.658 286.698 121.292 286.698C118.908 286.881 114.324 285.965 108.732 284.591C102.497 282.942 94.9798 280.559 88.1038 277.994C76.919 273.871 62.4337 266.633 58.5832 264.434C57.8497 263.976 57.208 263.426 56.9329 262.876C56.8413 262.693 56.7496 262.51 56.5662 262.235C56.0162 261.136 55.6494 259.761 56.5662 258.753C56.9329 258.295 57.483 257.929 58.3998 257.654C59.3166 257.379 60.4168 257.471 61.5169 257.837L121.842 280.101C123.492 280.743 124.684 281.934 124.684 283.033C124.684 283.4 124.684 283.766 124.684 284.041C124.5 285.324 124.042 286.24 122.3 286.606Z" fill="#77AFF0"/>
<path d="M133.118 284.224C131.193 284.682 128.259 284.591 124.684 284.133C119.091 283.4 111.94 281.842 104.422 279.643C102.589 279.093 100.664 278.544 98.7383 277.902C95.6212 276.894 92.4125 275.795 89.3871 274.696C87.0951 273.871 84.7114 272.863 82.3278 271.855C72.7931 267.732 62.7084 262.418 56.4743 258.753C54.274 257.471 52.5321 256.463 51.5236 255.73C50.6068 255.089 49.8734 254.264 49.5066 253.256C48.5899 250.782 47.6731 246.018 52.4404 243.544C53.7239 242.903 55.2824 242.811 56.6576 243.361L134.86 272.222C136.969 273.046 138.435 274.97 138.252 276.986C138.069 280.193 137.427 283.308 133.118 284.224Z" fill="#041931"/>
<path opacity="0.5" d="M53.082 293.936C47.1229 302.182 39.9719 307.313 37.1299 305.297C34.2878 303.282 36.8548 294.944 42.814 286.607C48.7731 278.361 55.9241 273.23 58.7661 275.246C61.5165 277.261 59.0412 285.599 53.082 293.936Z" fill="white"/>
<path d="M112.765 393.713H14.9437L15.1271 392.43L17.5107 377.954C22.5531 378.32 27.5954 378.595 32.6378 378.87C36.4883 379.053 40.3388 379.236 44.1894 379.328C45.7479 379.42 47.3065 379.42 48.7733 379.511C50.1485 379.511 51.6154 379.603 52.9906 379.603C66.4674 379.878 79.7609 379.694 92.871 379.053C98.7384 378.778 104.606 378.412 110.382 377.954L112.49 392.43L112.765 393.713Z" fill="url(#paint10_linear_720_4680)"/>
<g opacity="0.5">
<path d="M44.2812 379.328L42.906 393.712H31.4461L32.7296 378.87C36.5801 379.053 40.4307 379.236 44.2812 379.328Z" fill="white"/>
<path d="M53.0821 379.602L51.7069 393.712H47.673L48.8649 379.511C50.3317 379.511 51.7069 379.602 53.0821 379.602Z" fill="white"/>
</g>
<path d="M127.617 407.456H-6.10352e-05L2.56695 391.697C6.78419 391.972 11.0014 392.247 15.2187 392.43C16.9606 392.521 18.7025 392.613 20.3527 392.705C24.2032 392.888 28.0537 393.071 31.996 393.163C33.5545 393.254 35.0214 393.254 36.5799 393.346C37.9551 393.438 39.422 393.438 40.7971 393.438C48.5899 393.621 56.3826 393.713 64.0836 393.713C74.3517 393.713 84.6198 393.529 94.8878 393.163C100.755 392.98 106.714 392.705 112.582 392.338C116.891 392.155 121.2 391.88 125.417 391.605L127.617 407.456Z" fill="#1B2026"/>
<g opacity="0.5">
<path d="M31.9962 393.163L30.621 407.456H19.0695L20.353 392.705C24.2035 392.888 28.054 392.98 31.9962 393.163Z" fill="white"/>
<path d="M40.7974 393.438L39.4222 407.456H35.2966L36.4885 393.346C37.9553 393.346 39.3305 393.346 40.7974 393.438Z" fill="white"/>
</g>
<defs>
<linearGradient id="paint0_linear_720_4680" x1="437.997" y1="350.845" x2="503.967" y2="350.845" gradientUnits="userSpaceOnUse">
<stop stop-color="#0F73E7"/>
<stop offset="1" stop-color="#0F73E7" stop-opacity="0"/>
</linearGradient>
<linearGradient id="paint1_linear_720_4680" x1="450.153" y1="358.397" x2="504.237" y2="358.397" gradientUnits="userSpaceOnUse">
<stop stop-color="#0F73E7"/>
<stop offset="1" stop-color="#0F73E7" stop-opacity="0"/>
</linearGradient>
<linearGradient id="paint2_linear_720_4680" x1="237.007" y1="30.5095" x2="237.007" y2="144.253" gradientUnits="userSpaceOnUse">
<stop stop-color="#0F73E7"/>
<stop offset="1" stop-color="#044DA3"/>
</linearGradient>
<linearGradient id="paint3_linear_720_4680" x1="419.858" y1="19.8545" x2="419.858" y2="110.559" gradientUnits="userSpaceOnUse">
<stop stop-color="#0F73E7"/>
<stop offset="1" stop-color="#044DA3"/>
</linearGradient>
<linearGradient id="paint4_linear_720_4680" x1="308.108" y1="25.8396" x2="347.503" y2="41.4207" gradientUnits="userSpaceOnUse">
<stop stop-color="#0F73E7"/>
<stop offset="1" stop-color="#044DA3"/>
</linearGradient>
<linearGradient id="paint5_linear_720_4680" x1="326.025" y1="60.9861" x2="326.025" y2="354.828" gradientUnits="userSpaceOnUse">
<stop stop-color="#0F73E7"/>
<stop offset="1" stop-color="#044DA3"/>
</linearGradient>
<linearGradient id="paint6_linear_720_4680" x1="327.419" y1="342.752" x2="327.419" y2="366.904" gradientUnits="userSpaceOnUse">
<stop stop-color="#0F73E7"/>
<stop offset="1" stop-color="#044DA3"/>
</linearGradient>
<linearGradient id="paint7_linear_720_4680" x1="327.419" y1="377.254" x2="327.419" y2="404.999" gradientUnits="userSpaceOnUse">
<stop stop-color="#0F73E7"/>
<stop offset="1" stop-color="#044DA3"/>
</linearGradient>
<linearGradient id="paint8_linear_720_4680" x1="58.5699" y1="336.653" x2="58.5699" y2="368.608" gradientUnits="userSpaceOnUse">
<stop stop-color="#0F73E7"/>
<stop offset="1" stop-color="#044DA3"/>
</linearGradient>
<linearGradient id="paint9_linear_720_4680" x1="88.295" y1="261.34" x2="88.295" y2="293.482" gradientUnits="userSpaceOnUse">
<stop stop-color="#0F73E7"/>
<stop offset="1" stop-color="#044DA3"/>
</linearGradient>
<linearGradient id="paint10_linear_720_4680" x1="63.8545" y1="377.954" x2="63.8545" y2="393.713" gradientUnits="userSpaceOnUse">
<stop stop-color="#0F73E7"/>
<stop offset="1" stop-color="#044DA3"/>
</linearGradient>
</defs>
</svg>
