<svg width="675" height="600" viewBox="0 0 675 600" fill="none" xmlns="http://www.w3.org/2000/svg">
<path d="M298.125 199.279C298.125 199.279 281.037 190.665 266.491 191.22C251.945 191.776 249.12 193.721 236.693 192.888C224.265 192.193 193.195 186.357 189.382 183.856C185.569 181.355 178.508 166.905 168.905 157.456C159.301 148.008 130.35 118.412 122.724 104.379L108.037 112.16C108.037 112.16 122.301 140.088 134.728 160.652C147.156 181.216 152.805 190.942 159.443 198.029C166.08 205.115 168.057 208.866 173.848 211.09C179.638 213.313 199.974 218.315 218.192 222.761C236.41 227.207 256.323 234.71 256.323 234.71L298.125 199.279Z" fill="url(#paint0_linear_26_1049)"/>
<path d="M258.723 232.487C253.639 226.374 239.234 209.144 234.998 205.532C231.185 202.336 236.834 219.287 240.364 229.153C249.544 232.209 256.181 234.71 256.181 234.71L258.723 232.487Z" fill="url(#paint1_linear_26_1049)"/>
<path d="M188.252 183.162C188.252 183.162 201.951 201.641 202.94 200.669C203.787 199.835 202.092 192.193 199.974 187.191C194.608 185.941 190.371 184.829 189.241 183.995C188.959 183.717 188.676 183.44 188.252 183.162Z" fill="url(#paint2_linear_26_1049)"/>
<path d="M239.658 381.854C239.658 381.854 183.451 519.133 180.344 532.611C177.237 546.089 170.458 558.177 171.588 565.402C172.718 572.627 174.695 600 174.695 600H216.356C216.356 600 215.65 584.577 212.684 577.074C209.578 569.709 209.436 567.07 210.566 562.484C211.696 557.899 225.112 535.39 243.754 515.937C262.396 496.485 274.258 470.363 288.24 454.106C302.221 437.85 312.248 429.096 307.587 406.17C302.786 383.244 264.655 332.528 239.658 381.854Z" fill="url(#paint3_linear_26_1049)"/>
<path d="M283.579 459.803L281.602 367.126C270.304 359.067 257.17 357.4 245.731 371.989C235.28 391.859 221.016 423.677 215.226 458.136C208.589 497.319 210.001 531.5 213.108 556.51C218.051 547.478 229.207 530.805 243.612 515.799C260.136 498.708 271.434 476.06 283.579 459.803Z" fill="url(#paint4_linear_26_1049)"/>
<path d="M251.097 348.09C251.097 348.09 223.841 401.168 220.593 459.525C216.073 542.754 243.471 600 243.471 600H244.601H308.434L274.54 348.09H251.097Z" fill="url(#paint5_linear_26_1049)"/>
<path d="M254.204 327.527C254.204 327.527 243.754 382.272 247.708 453.829C251.662 525.386 284.144 600 284.144 600H394.158L281.602 329.194L254.204 327.527Z" fill="url(#paint6_linear_26_1049)"/>
<path d="M254.204 327.527C254.204 327.527 248.273 357.122 265.079 428.263C286.121 517.327 354.05 600 354.05 600H469.148L281.602 327.527H254.204Z" fill="url(#paint7_linear_26_1049)"/>
<path d="M256.888 324.331C256.888 324.331 253.357 381.994 296.995 451.467C340.493 520.801 439.773 600 439.773 600H623.365C623.365 600 601.899 561.512 559.108 555.26C516.317 549.007 503.325 541.643 495.275 526.776C487.225 511.908 483.977 491.067 445.846 477.867C407.715 464.667 385.12 447.298 378.058 417.564C370.997 387.829 359.558 338.781 334.844 326.554L256.888 324.331Z" fill="url(#paint8_linear_26_1049)"/>
<path d="M360.97 360.457C354.474 345.034 346 331.973 334.843 326.554L257.029 324.331C257.029 324.331 256.887 326.276 257.029 329.611C268.327 331.139 302.927 336.697 333.572 349.48C345.435 354.621 354.332 358.095 360.97 360.457Z" fill="url(#paint9_linear_26_1049)"/>
<path d="M255.193 317.661C255.193 317.661 254.063 320.857 254.204 327.665C254.204 327.665 300.526 323.636 339.928 329.333V323.497C339.928 323.358 288.804 313.771 255.193 317.661Z" fill="url(#paint10_linear_26_1049)"/>
<path d="M674.489 56.1646C669.405 56.3035 664.179 56.7203 658.813 57.4151C648.927 58.6656 638.476 60.7498 627.885 63.6676C617.151 66.5855 606.136 70.3371 595.12 74.7833C572.948 83.5369 550.635 94.7916 528.604 106.046C506.573 117.44 484.824 128.972 464.064 138.421C453.613 143.145 443.445 147.174 433.559 150.37C428.617 152.037 423.815 153.288 419.013 154.4C414.212 155.372 409.693 156.345 405.315 156.901C396.417 158.012 388.226 157.873 381.165 156.901C374.104 155.928 368.031 153.844 363.371 151.76C362.1 151.343 361.111 150.787 360.123 150.231C359.134 149.675 358.146 149.259 357.298 148.703C355.603 147.591 354.191 146.896 353.061 146.063C350.661 144.395 349.39 143.562 349.39 143.562L345.859 148.147C345.859 148.147 347.13 149.12 349.39 150.926C350.519 151.76 352.214 152.871 354.05 154.122C355.039 154.816 356.027 155.233 357.157 155.928C358.287 156.623 359.417 157.178 360.688 157.873C365.772 160.374 372.268 163.014 380.035 164.543C387.803 166.071 396.841 166.766 406.444 165.932C411.246 165.654 416.189 164.82 421.273 163.987C426.357 163.014 431.582 161.903 436.808 160.513C447.399 157.734 458.133 153.983 469.148 149.675C491.038 141.2 513.634 130.501 536.089 120.358C558.543 110.215 580.998 100.349 602.464 93.1242C613.197 89.5116 623.648 86.4548 633.534 84.2317C643.419 82.0085 652.881 80.6191 661.637 79.9243C666.298 79.6465 670.817 79.5075 675.054 79.5075V56.1646H674.489Z" fill="url(#paint11_linear_26_1049)"/>
<path d="M674.489 0.725098C666.298 1.83667 657.259 3.78191 647.656 6.69979C638.053 9.61766 627.884 13.6471 617.716 18.5102C607.548 23.3733 597.098 29.2091 586.788 35.6006C576.479 41.9921 566.311 49.2173 556.001 56.5815C545.833 64.0846 535.665 71.7266 525.779 79.6466C505.725 95.2085 485.954 110.909 466.324 123.97C456.579 130.501 446.835 136.337 437.231 141.2C432.43 143.701 427.628 145.785 422.968 147.73C418.307 149.537 413.647 151.343 409.128 152.593C404.608 153.983 400.23 154.816 395.994 155.65C391.757 156.345 387.803 156.762 383.99 157.04C376.363 157.456 369.726 156.901 364.218 156.067C358.71 155.094 354.615 154.122 351.79 153.288C348.966 152.454 347.412 151.899 347.412 151.899L346.989 153.149C346.989 153.149 348.542 153.705 351.226 154.678C354.05 155.65 358.287 157.04 363.794 158.151C369.302 159.263 376.222 160.235 384.131 160.096C388.085 160.096 392.322 159.819 396.7 159.402C401.078 158.846 405.738 158.012 410.399 156.901C415.2 155.789 420.002 154.261 424.945 152.732C429.888 150.926 434.972 148.981 439.915 146.758C450.083 142.311 460.392 136.753 470.702 130.64C491.32 118.413 512.222 103.545 532.982 89.0949C543.432 81.8697 553.742 74.6445 564.192 67.9751C574.502 61.1667 584.811 54.7752 595.12 49.2173C605.289 43.5205 615.315 38.5185 625.06 34.628C634.804 30.5985 644.125 27.4028 652.881 25.3186C660.649 23.3733 667.851 22.1228 674.347 21.567V0.725098H674.489Z" fill="url(#paint12_linear_26_1049)"/>
<path d="M674.489 379.492C673.218 378.381 671.947 377.269 670.676 376.158C661.637 368.238 650.763 360.596 638.618 354.065C635.652 352.398 632.404 350.869 629.156 349.341C627.461 348.646 625.907 347.952 624.213 347.257C623.365 346.84 622.518 346.562 621.671 346.145L619.129 345.173C612.35 342.533 605.289 340.31 598.086 338.503C583.681 334.752 568.711 332.39 553.6 330.861C538.489 329.194 523.378 328.36 508.267 327.249C504.454 326.971 500.782 326.693 496.969 326.415L491.32 325.998L485.813 325.581C478.469 324.886 471.125 324.053 463.923 323.08C456.72 321.969 449.659 320.857 442.739 319.329C435.819 317.8 429.182 315.994 422.685 313.91C416.33 311.687 410.116 309.186 404.326 306.407C398.536 303.628 393.169 300.293 388.226 296.68C383.283 293.207 378.764 289.177 374.81 285.148C370.714 281.118 367.325 276.672 364.218 272.365C358.145 263.611 353.909 254.58 350.802 246.382C350.378 245.409 349.954 244.298 349.672 243.325C349.39 242.352 348.966 241.38 348.683 240.268C348.119 238.323 347.412 236.378 346.989 234.571C346.424 232.765 346 230.959 345.577 229.292C345.153 227.624 344.87 225.957 344.447 224.428C343.741 221.372 343.317 218.593 342.752 216.092C342.328 213.73 342.046 211.506 341.763 209.839C341.34 206.365 341.057 204.559 341.057 204.559L333.149 205.532C333.149 205.532 333.29 207.338 333.714 210.812C333.855 212.479 334.137 214.702 334.42 217.203C334.843 219.704 335.126 222.761 335.832 225.957C336.114 227.624 336.397 229.292 336.821 231.098C337.244 232.904 337.668 234.71 338.092 236.795C338.515 238.74 339.08 240.824 339.645 242.908C339.928 244.02 340.21 244.992 340.492 246.104C340.775 247.216 341.199 248.327 341.622 249.439C344.588 258.331 348.683 268.196 354.897 278.201C358.146 283.064 361.676 288.205 366.054 292.929C370.291 297.653 375.092 302.238 380.459 306.407C385.826 310.575 391.616 314.466 397.971 317.939C404.185 321.274 410.822 324.331 417.742 326.971C424.662 329.611 431.724 331.834 439.067 333.779C446.27 335.724 453.755 337.253 461.239 338.642C468.724 340.032 476.209 341.143 483.835 342.116L489.484 342.811L495.133 343.505C498.946 343.922 502.618 344.339 506.431 344.756C521.542 346.423 536.371 347.952 550.917 350.036C565.322 352.12 579.162 354.899 592.013 358.789C598.369 360.735 604.582 362.958 610.373 365.459L612.491 366.431L614.609 367.404C616.022 368.099 617.434 368.793 618.846 369.349C621.529 370.878 624.354 372.128 626.896 373.796C637.205 379.909 646.244 386.857 653.87 393.943C661.496 401.168 667.851 408.393 673.218 415.202C673.641 415.618 673.924 416.035 674.347 416.591V379.492H674.489Z" fill="url(#paint13_linear_26_1049)"/>
<path d="M317.332 159.124C317.332 159.124 319.874 289.733 437.09 308.769C554.307 327.805 584.953 288.205 674.489 338.781V167.044C674.489 167.044 600.487 156.345 488.92 177.604C377.352 198.863 317.332 159.124 317.332 159.124Z" fill="url(#paint14_linear_26_1049)"/>
<path d="M367.467 320.301C367.467 320.301 358.852 286.676 351.084 276.95C343.317 267.224 331.313 287.232 334.985 298.626C338.657 310.019 359.134 321.135 367.467 320.301Z" fill="url(#paint15_linear_26_1049)"/>
<path d="M287.957 165.376C287.957 165.376 295.724 170.378 299.114 179.826C302.503 189.275 304.056 194.555 301.373 195.388C298.69 196.222 293.606 196.778 290.781 198.723C287.957 200.668 259.571 220.677 250.956 238.323C242.341 255.969 252.086 297.236 269.315 307.796C286.545 318.356 328.771 317.383 336.256 307.796C343.599 298.209 343.599 290.428 354.615 280.007C365.63 269.586 371.421 268.196 379.894 263.055C388.367 257.914 401.643 237.906 389.215 221.649C376.787 205.393 366.478 206.226 357.581 201.641C348.683 197.056 340.21 186.357 333.996 173.296C327.923 160.235 320.862 145.785 320.862 145.785L287.957 165.376Z" fill="url(#paint16_linear_26_1049)"/>
<path d="M371.138 253.33L358.852 254.997C358.852 254.997 345.859 253.885 339.786 271.948C336.114 282.647 337.527 295.013 339.221 303.211C343.882 295.569 345.294 288.622 354.615 279.868C365.63 269.447 371.421 268.058 379.894 262.917C380.741 262.361 381.589 261.805 382.436 261.111L371.138 253.33Z" fill="url(#paint17_linear_26_1049)"/>
<path d="M253.071 393.007L258.497 388.275L319.77 452.047L309.115 461.49L253.071 393.007Z" fill="url(#paint18_linear_26_1049)"/>
<path d="M463.037 611.535L348.595 466.445C335.986 465.236 329.452 458.034 329.232 457.857C327.84 456.206 327.046 455.39 327.046 455.39L319.179 462.261L505.312 672.356C505.312 672.356 494.917 651.011 463.037 611.535Z" fill="url(#paint19_linear_26_1049)"/>
<path d="M450.115 622.901L319.853 491.661C320.165 479.085 313.805 471.666 313.695 471.578C312.304 469.927 311.51 469.112 311.51 469.112L319.376 462.241L505.399 672.247C505.399 672.247 485.415 659.242 450.115 622.901Z" fill="url(#paint20_linear_26_1049)"/>
<path d="M311.51 469.112C311.51 469.112 312.304 469.927 313.695 471.578C313.806 471.666 314.977 473.141 316.397 475.884C317.986 477.514 318.548 479.747 318.693 481.823C319.232 483.859 319.684 486.003 319.766 488.384L346.311 492.76L345.348 465.978C343.111 465.608 341.134 464.913 339.354 464.197C337.116 463.827 334.722 462.974 333.197 461.039L333.087 460.95C330.71 459.399 329.452 458.034 329.429 457.837C328.037 456.186 327.243 455.371 327.243 455.371L319.463 462.133L319.376 462.241L311.51 469.112Z" fill="url(#paint21_linear_26_1049)"/>
<path d="M301.162 488.777C296.037 485.912 295.568 481.082 297.463 479.396C299.359 477.711 303.063 474.448 306.42 471.619C309.666 468.701 317.11 470.933 319.713 473.556C322.316 476.179 320.838 481.406 320.838 481.406L338.74 484.369L338.096 466.216C338.096 466.216 332.6 466.972 330.368 464.112C328.136 461.253 326.837 453.619 330.084 450.702C333.33 447.784 337.034 444.521 339.04 442.924C340.936 441.238 345.852 442.333 347.881 447.702C347.881 447.702 352.895 436.939 345.081 428.175L336.947 427.705C336.947 427.705 337.254 434.543 333.289 438.131C329.214 441.631 321.683 442.892 310.657 452.572C299.631 462.252 297.399 469.547 293.434 473.135C289.359 476.634 282.535 475.435 282.535 475.435L281.886 483.465C289.811 492.318 301.162 488.777 301.162 488.777Z" fill="url(#paint22_linear_26_1049)"/>
<path d="M314.008 465.772C311.602 463.129 311.927 459.114 314.541 456.758C317.156 454.403 321.191 454.79 323.596 457.433C326.002 460.076 325.678 464.091 323.063 466.447C320.339 468.714 316.217 468.435 314.008 465.772Z" fill="url(#paint23_linear_26_1049)"/>
<path d="M256.892 397.498L259.79 395.014L262.689 392.529C258.097 387.42 259.935 380.165 259.935 380.165L243.099 376.099L244.92 393.237C244.92 393.237 252.3 392.389 256.892 397.498Z" fill="url(#paint24_linear_26_1049)"/>
<path d="M389.266 220.959C389.266 220.959 400.253 235.008 401.11 256.821C401.967 278.635 409.96 301.214 415.031 323.842C419.984 346.392 422.878 362.88 421.22 366.117C419.484 369.47 395.977 389.847 374.793 393.051C353.687 396.139 318.337 410.089 313.375 414.96C308.412 419.83 301.221 430.566 296.726 435.248C292.153 440.045 286.851 439.839 284.275 439.117C281.622 438.51 275.814 430.941 270.782 430.079C265.75 429.217 261.225 428.36 259.814 426.913C258.521 425.545 259.707 421.49 260.867 419.758C262.027 418.027 274.204 406.951 275.364 405.22C276.524 403.488 275.257 399.797 279.62 399.374C283.865 398.873 297.246 401.481 307.392 396.738C317.579 392.188 348.07 373.312 358.859 364.818C369.57 356.439 387.228 349.871 387.228 349.871C387.228 349.871 383.774 338.025 381.835 332.545C379.896 327.066 370.46 304.357 367.009 293.014C363.48 281.787 364.317 270.641 360.303 263.437C356.29 256.234 347.148 252.117 344.353 246.901C333.296 227.119 369.966 197.497 389.266 220.959Z" fill="url(#paint25_linear_26_1049)"/>
<path d="M281.602 225.262C281.602 225.262 333.149 208.172 346.706 191.082C346.706 191.082 358.428 199.557 360.405 202.753C360.405 202.753 319.45 227.624 281.602 226.93V225.262Z" fill="url(#paint26_linear_26_1049)"/>
<path d="M393.452 224.012C390.486 220.955 387.52 218.315 384.696 216.231C374.245 205.393 365.348 205.532 357.581 201.502C348.825 197.056 340.21 186.218 333.996 173.157C329.618 163.987 324.958 154.122 322.557 149.12C320.862 153.566 319.732 158.985 320.156 165.237C321.568 189.692 340.21 210.812 386.39 222.344C388.65 223.039 391.051 223.595 393.452 224.012Z" fill="url(#paint27_linear_26_1049)"/>
<path d="M302.362 194.556C302.362 194.556 285.274 212.202 281.602 224.429L279.766 223.456C279.766 223.456 284.285 209.423 292.759 196.779C292.759 196.779 297.843 194.834 302.362 194.556Z" fill="url(#paint28_linear_26_1049)"/>
<path d="M308.576 274.171C308.576 274.171 320.58 273.755 331.172 268.197C341.764 262.5 343.035 260.833 343.035 260.833C343.035 260.833 338.939 275.144 320.439 280.007C301.938 284.592 308.576 274.171 308.576 274.171Z" fill="url(#paint29_linear_26_1049)"/>
<path d="M320.863 145.924L287.957 165.376C287.957 165.376 295.725 170.378 299.114 179.827C300.385 183.3 301.374 186.079 301.938 188.441C312.53 178.437 319.309 158.707 322.134 148.425C321.427 146.758 320.863 145.924 320.863 145.924Z" fill="url(#paint30_linear_26_1049)"/>
<path d="M369.726 128.555C382.127 128.555 392.18 118.664 392.18 106.463C392.18 94.2617 382.127 84.3706 369.726 84.3706C357.324 84.3706 347.271 94.2617 347.271 106.463C347.271 118.664 357.324 128.555 369.726 128.555Z" fill="url(#paint31_linear_26_1049)"/>
<path d="M359.699 122.025C359.699 122.025 368.737 113.272 368.737 105.63C368.737 105.63 366.478 106.186 365.489 106.88C365.489 106.88 369.867 96.4593 370.291 92.0131C370.291 92.0131 368.031 91.8741 366.619 93.1246C366.619 93.1246 366.478 83.8152 371.421 80.2026C363.512 80.3416 354.05 85.3436 349.813 93.2636C349.954 93.2636 358.71 108.826 359.699 122.025Z" fill="url(#paint32_linear_26_1049)"/>
<path d="M283.297 91.596C280.472 94.9307 275.953 102.434 274.682 106.88C273.552 111.326 274.399 115.912 272.846 119.246C271.151 122.581 268.75 128.556 266.067 131.751C263.384 134.947 260.277 137.865 260.701 139.393C261.124 141.061 262.395 141.756 264.231 142.589C266.067 143.423 266.773 143.701 267.056 144.673C267.197 145.646 267.479 146.063 267.056 146.897C266.632 147.73 265.502 148.842 265.785 149.675C266.067 150.509 267.762 151.343 268.75 151.621C268.75 151.621 267.197 153.01 268.044 154.678C268.75 156.345 269.88 155.65 270.163 158.012C270.445 160.374 270.586 165.654 271.01 167.183C271.434 168.711 272.987 172.324 282.167 170.934C291.346 169.545 303.35 164.682 311.683 158.985C320.015 153.288 328.771 139.81 331.313 118.829C334.42 88.5392 298.831 72.8383 283.297 91.596Z" fill="url(#paint33_linear_26_1049)"/>
<path opacity="0.4" d="M304.904 138.282C303.915 144.673 296.713 149.119 288.522 148.008C280.472 146.896 274.541 140.783 275.529 134.252C276.377 127.861 283.72 123.414 291.911 124.526C299.961 125.638 305.893 131.89 304.904 138.282Z" fill="url(#paint34_radial_26_1049)"/>
<path d="M299.538 133.836C299.397 134.113 297.984 134.252 296.29 133.836C294.595 133.558 293.183 133.002 293.324 132.724C293.324 132.446 294.877 132.307 296.572 132.724C298.267 133.002 299.538 133.558 299.538 133.836Z" fill="#FFF3F0"/>
<path d="M282.026 88.5391C281.461 90.0675 278.778 96.4591 292.759 115.078C306.74 133.697 316.343 136.198 324.958 131.473C333.714 126.888 355.886 135.642 355.886 135.642C355.886 135.642 364.218 128.695 360.97 109.52C357.722 90.3454 338.092 77.5624 319.027 75.7561C297.137 73.8108 284.144 83.1202 282.026 88.5391Z" fill="url(#paint35_linear_26_1049)"/>
<path d="M326.935 133.696C326.935 133.696 316.061 146.896 320.015 165.376C325.1 189.275 346.707 207.615 394.017 212.34C473.244 220.121 576.903 149.953 674.348 191.359V118.273C606.984 102.016 554.025 127.027 510.245 141.894C466.465 156.761 407.292 169.822 378.624 160.096C349.955 150.37 356.451 137.17 356.451 137.17L328.489 131.195L326.935 133.696Z" fill="url(#paint36_linear_26_1049)"/>
<path d="M274.54 107.436C274.54 107.436 266.632 118.968 266.349 131.334C266.349 131.334 310.553 130.223 321.427 131.751C332.301 133.418 355.886 138.421 355.886 138.421L358.71 133.418C358.71 133.418 308.999 113.132 274.54 107.436Z" fill="url(#paint37_linear_26_1049)"/>
<path d="M284.85 77.7008C284.85 77.7008 300.95 55.8863 313.377 48.939C313.377 48.939 308.576 62.8336 306.034 66.1683L303.351 64.5009C303.351 64.5009 296.007 75.1998 292.053 84.6481L284.85 77.7008Z" fill="url(#paint38_linear_26_1049)"/>
<path d="M294.03 88.6778C294.03 88.6778 308.576 68.9474 319.733 62.6948C319.733 62.6948 315.355 75.2 313.095 78.2568L310.694 76.7284C310.694 76.7284 304.057 86.4546 300.526 95.0693L294.03 88.6778Z" fill="url(#paint39_linear_26_1049)"/>
<path d="M303.209 99.5155C303.209 99.5155 316.202 81.8694 326.229 76.3115C326.229 76.3115 322.275 87.5662 320.298 90.2061L318.179 88.9556C318.179 88.9556 312.248 97.7092 309 105.351L303.209 99.5155Z" fill="url(#paint40_linear_26_1049)"/>
<path d="M312.389 110.492C312.389 110.492 323.828 94.93 332.725 90.0669C332.725 90.0669 329.336 99.9321 327.5 102.433L325.523 101.322C325.523 101.322 320.298 108.964 317.473 115.772L312.389 110.492Z" fill="url(#paint41_linear_26_1049)"/>
<path d="M321.569 121.469C321.569 121.469 331.596 107.991 339.222 103.684C339.222 103.684 336.256 112.299 334.702 114.383L333.008 113.41C333.008 113.41 328.489 120.08 326.088 125.915L321.569 121.469Z" fill="url(#paint42_linear_26_1049)"/>
<path d="M328.347 130.362L277.789 92.569C277.789 92.569 278.212 81.3144 287.816 73.6724L332.301 128.556L328.347 130.362Z" fill="url(#paint43_linear_26_1049)"/>
<path d="M319.309 133.697C323.122 127.027 329.195 122.442 333.149 127.305C337.103 132.307 326.794 153.427 319.309 149.953C316.343 148.703 316.908 138.004 319.309 133.697Z" fill="url(#paint44_linear_26_1049)"/>
<path d="M281.32 152.037C281.32 152.037 280.331 152.454 279.625 152.315C278.919 152.176 271.151 149.814 270.163 149.397C269.174 148.981 268.045 148.703 267.762 148.703C267.48 148.842 266.491 149.258 265.644 149.397C265.644 149.536 265.644 149.675 265.644 149.814C265.926 150.648 267.621 151.482 268.609 151.759C268.609 151.759 269.457 151.482 270.445 151.482C271.434 151.482 275.671 152.176 278.213 152.315C280.755 152.454 281.743 152.593 281.743 152.315C281.885 152.037 281.461 152.037 281.32 152.037Z" fill="#DD6F76"/>
<path d="M269.315 143.701C269.315 143.701 267.479 142.867 268.044 142.451C268.609 142.034 269.88 141.617 271.151 142.173C272.422 142.728 273.552 143.701 273.552 143.701C273.552 143.701 271.434 143.284 269.315 143.701Z" fill="#DD8076"/>
<path d="M280.613 224.151C278.212 223.595 257.029 227.763 254.345 229.292C251.662 230.82 242.624 244.576 241.353 253.329C240.082 262.083 245.731 271.67 248.696 281.952C251.803 292.095 252.651 295.986 251.521 299.599C250.391 303.211 244.177 307.657 246.013 312.382C247.849 317.106 253.216 319.607 255.475 320.44C257.735 321.274 280.896 317.662 304.621 320.44C328.347 323.219 333.572 325.304 334.561 323.914C335.55 322.525 324.675 278.757 319.874 266.113C315.072 253.468 294.736 227.347 280.613 224.151Z" fill="url(#paint45_linear_26_1049)"/>
<path d="M288.804 319.328C293.888 319.467 299.255 319.745 304.621 320.301C328.347 323.08 333.572 325.164 334.561 323.775C334.984 323.219 333.572 316.133 331.313 306.962L269.033 267.224C269.315 267.224 275.388 294.318 288.804 319.328Z" fill="url(#paint46_linear_26_1049)"/>
<path d="M257.453 228.319C256.04 229.014 256.888 250.133 267.338 264.584C277.789 279.034 294.736 303.211 316.202 319.329C337.668 335.446 344.729 339.893 350.096 338.642C355.462 337.392 367.608 323.08 367.325 320.44C367.043 317.8 345.859 303.489 333.996 285.704C322.133 267.919 313.942 249.439 301.091 237.628C288.24 225.818 284.003 224.845 279.907 224.428C275.953 223.595 261.831 226.096 257.453 228.319Z" fill="url(#paint47_linear_26_1049)"/>
<path d="M286.827 225.262C286.827 228.18 284.568 230.542 281.602 230.542C278.778 230.542 276.377 228.18 276.377 225.262C276.377 222.345 278.636 219.982 281.602 219.982C284.427 219.982 286.827 222.345 286.827 225.262Z" fill="url(#paint48_linear_26_1049)"/>
<path d="M124.842 108.131C124.842 108.131 111.285 114.522 107.895 112.16C104.506 109.798 97.5861 101.739 96.7387 98.6823C95.7502 95.6254 99.422 74.9225 103.094 74.5056C106.766 74.0888 112.556 77.7014 115.663 81.0361C118.77 84.2319 123.148 87.2887 123.713 91.596C124.136 95.7644 125.407 106.463 124.842 108.131Z" fill="url(#paint49_linear_26_1049)"/>
<path d="M119.194 37.5455C119.194 30.4592 113.827 24.2067 106.625 21.4277C99.5633 24.3456 94.0556 30.5982 94.0556 37.5455C87.5592 38.6571 84.3111 46.0212 89.6776 51.5791C89.6776 51.5791 91.9372 47.4107 95.1854 48.5222C98.4335 49.6338 102.247 65.1958 102.247 72.0042C102.247 78.8125 102.247 177.464 102.247 177.464H106.625H111.003C111.003 177.464 111.003 78.8125 111.003 72.0042C111.003 65.1958 114.957 49.6338 118.064 48.5222C121.171 47.4107 123.572 51.5791 123.572 51.5791C128.938 45.8823 125.69 38.6571 119.194 37.5455Z" fill="url(#paint50_linear_26_1049)"/>
<path d="M48.7225 297.375L26.409 220.26L4.0955 297.375L1.41223 296.542L26.409 210.117L51.547 296.542L48.7225 297.375Z" fill="#705636"/>
<path d="M26.409 317.106C40.9551 317.106 52.818 307.38 52.818 295.43H0C0 307.38 11.8629 317.106 26.409 317.106Z" fill="url(#paint51_linear_26_1049)"/>
<path d="M83.6048 177.742C83.6048 177.742 83.4636 177.742 83.1812 177.881C83.0399 177.881 82.8987 178.02 82.7575 178.02C82.6163 178.159 82.3338 178.159 82.3338 178.298C82.3338 178.437 81.4865 178.993 81.204 179.827C81.0628 179.966 81.0628 180.244 80.9216 180.521C80.9216 180.799 80.7803 181.077 80.9216 181.355C80.9216 181.494 80.9216 181.633 80.9216 181.772C81.0628 182.05 80.7803 181.355 80.7803 181.494L80.9216 181.772L81.0628 182.189C81.204 182.467 81.3452 182.883 81.3452 183.022C81.4865 183.161 81.4865 183.161 81.6277 183.3C81.6277 183.3 81.6277 183.439 81.7689 183.439L81.9101 183.717C82.0514 183.856 82.1926 183.995 82.3338 184.134C82.475 184.273 82.6162 184.412 82.8987 184.551C83.0399 184.551 83.0399 184.69 83.1812 184.69L83.4636 184.829C84.3109 185.246 85.2995 185.385 86.2881 185.385H86.7118H86.853C86.7118 185.385 87.1354 185.246 86.5705 185.523H86.7118C87.1354 185.385 87.5591 185.246 87.8416 185.107L88.4065 184.829L88.6889 184.551C88.8301 184.412 89.1126 184.273 89.2538 184.134C90.1012 183.3 91.0897 182.467 91.6546 181.216C92.0783 179.966 92.502 178.576 92.0783 177.326C91.7959 175.797 91.231 174.408 90.2424 173.157C88.2652 170.656 84.8758 169.128 81.4865 169.406C81.0628 169.406 80.6391 169.545 80.2154 169.545H80.0742C79.933 169.545 80.2154 169.545 80.2154 169.545H80.0742L79.6505 169.684L78.9444 169.961C78.662 170.1 78.5207 170.1 78.3795 170.239L77.8146 170.517C77.5322 170.656 77.1085 170.934 76.6848 171.212C75.2726 172.185 74.0016 173.574 72.8718 175.103C70.7534 178.298 69.4824 182.189 68.635 186.218C67.7877 190.109 67.364 194.277 66.6579 198.307C66.2342 200.391 65.8105 202.336 64.9632 204.42C64.1158 206.365 62.986 208.311 61.4326 209.839C61.0089 210.256 60.7264 210.534 60.3028 210.951C59.8791 211.229 59.4554 211.506 59.0317 211.923C58.6081 212.201 58.1844 212.479 57.7607 212.757L57.4783 212.896L57.337 213.035H57.1958L57.0546 213.174L56.4897 213.452L55.9248 213.73C55.6424 213.868 55.3599 213.868 55.0775 214.007C54.5126 214.146 53.9477 214.285 53.3828 214.285H52.5354C52.253 214.285 51.9705 214.285 51.6881 214.146C51.1232 214.146 50.5583 214.007 50.1346 213.73C48.1575 213.035 46.604 211.506 45.7566 209.839C44.9093 208.172 44.7681 206.226 45.333 204.559C45.4742 204.142 45.6154 203.725 45.7566 203.448C45.8979 203.031 46.1803 202.753 46.4628 202.475C46.604 202.197 46.8864 201.919 47.1689 201.641L47.5925 201.224L47.7338 201.085L47.875 200.947H48.0162L48.2987 200.669L48.4399 200.53L48.7224 200.391C49.146 200.252 49.4285 199.974 49.8521 199.974C50.5583 199.696 51.2644 199.696 51.9705 199.696C53.3828 199.696 54.5126 200.252 55.2187 200.808C56.066 201.363 56.6309 202.197 56.9134 202.892C57.4783 204.42 57.0546 205.393 57.0546 205.393C56.7722 206.226 55.9248 206.643 55.0775 206.504C54.2301 206.226 53.8064 205.393 53.9477 204.559C53.9477 204.559 54.0889 204.42 53.8064 204.003C53.6652 203.586 52.8179 202.753 51.6881 202.753C51.4056 202.753 51.1232 202.753 50.8407 202.892C50.6995 202.892 50.5583 203.031 50.417 203.031H50.2758L50.1346 203.17L49.8521 203.448C49.8521 203.448 49.5697 203.725 49.4285 203.864C49.2872 204.003 49.146 204.142 49.0048 204.42C48.8636 204.559 48.7224 204.837 48.7224 204.976C48.7224 205.115 48.5811 205.393 48.4399 205.532C48.1575 206.365 48.2987 207.477 48.7224 208.311C49.146 209.283 50.1346 209.978 51.1232 210.395C51.4056 210.534 51.6881 210.534 51.9705 210.534C52.1117 210.534 52.253 210.534 52.3942 210.534H52.8179C53.1003 210.534 53.3828 210.395 53.6652 210.395C53.8064 210.395 53.9477 210.395 54.0889 210.256L54.6538 209.978L55.2187 209.7C55.3599 209.7 55.0775 209.839 55.0775 209.7L55.2187 209.561L55.5011 209.422C55.7836 209.144 56.2073 209.005 56.4897 208.727C56.7722 208.45 57.0546 208.311 57.4783 208.033L58.3256 207.199C60.5852 204.976 61.5738 201.502 62.1387 197.751C62.7036 193.86 62.986 189.692 63.8334 185.385C64.6807 181.077 65.9518 176.631 68.4938 172.601C69.7648 170.656 71.4595 168.711 73.4367 167.183C74.0016 166.905 74.4252 166.488 75.1313 166.21L76.1199 165.793C76.4024 165.654 76.826 165.515 76.9673 165.376L77.6734 165.098L78.0971 164.959H78.2383H78.5207H78.8032C79.3681 164.82 80.0742 164.682 80.6391 164.682C85.8644 163.987 91.0897 166.349 94.1967 170.1C95.7501 171.907 96.8799 174.269 97.3036 176.631C97.4448 177.187 97.5861 177.881 97.5861 178.437C97.5861 178.993 97.5861 179.688 97.5861 180.244C97.5861 180.799 97.4448 181.494 97.3036 182.05C97.1624 182.606 97.0212 183.161 96.7387 183.717C95.8914 185.94 94.3379 187.747 92.6432 189.275C92.0783 189.553 91.5134 189.97 91.0897 190.248L90.2424 190.664L89.6775 190.942C89.2538 191.081 88.8301 191.22 88.5477 191.359H88.4065C87.8416 191.498 88.2652 191.359 88.124 191.498H87.9828L87.5591 191.637L86.7118 191.776C84.4522 192.054 82.1926 191.776 80.4979 190.803L79.7918 190.526C79.5093 190.387 79.3681 190.248 79.2269 190.109C78.8032 189.831 78.3795 189.553 78.0971 189.275C77.8146 188.997 77.3909 188.58 77.1085 188.302C76.9673 188.163 76.826 188.025 76.6848 187.747L76.2611 187.052C75.9787 186.635 75.6963 186.218 75.4138 185.662C75.2726 185.246 75.1313 185.107 74.9901 184.69L74.8489 184.273L74.7077 184.134C74.7077 184.134 74.5664 183.578 74.5664 183.856V183.717C74.4252 183.3 74.4252 182.883 74.284 182.467C74.1428 181.633 74.284 180.799 74.284 180.105C74.4252 179.41 74.5665 178.576 74.8489 178.02C75.1313 177.326 75.4138 176.77 75.8375 176.214C76.2611 175.658 76.5436 175.241 76.9673 174.825C77.3909 174.408 77.6734 174.13 78.2383 173.852C78.662 173.574 79.0856 173.296 79.5093 173.157C79.933 172.879 80.0742 172.879 80.3567 172.879C80.4979 172.879 80.6391 172.74 80.7803 172.74C81.0628 172.601 81.204 172.601 81.204 172.601C82.8987 172.046 84.5934 173.018 85.1583 174.547C85.7232 175.519 85.0171 177.048 83.6048 177.742Z" fill="url(#paint52_linear_26_1049)"/>
<path d="M104.506 188.58C104.506 188.58 58.7493 221.927 44.062 226.374C29.3746 230.82 23.5844 219.01 22.0309 216.648C20.4775 214.285 15.9583 210.812 12.7101 210.812C14.9697 207.338 19.3477 204.976 23.1607 207.199C24.8554 203.587 30.5044 201.919 33.3289 204.281C35.871 206.227 35.0236 209.561 35.0236 209.561C32.3403 208.311 29.2334 209.561 29.3746 213.035C29.5158 216.509 31.9167 224.567 42.6497 220.121C53.3828 215.675 98.5747 181.494 98.5747 181.494L104.506 188.58Z" fill="url(#paint53_linear_26_1049)"/>
<path d="M164.668 297.375L186.982 220.26L209.295 297.375L211.978 296.542L186.982 210.117L161.844 296.542L164.668 297.375Z" fill="#705636"/>
<path d="M186.981 317.106C172.435 317.106 160.572 307.38 160.572 295.43H213.249C213.249 307.38 201.527 317.106 186.981 317.106Z" fill="url(#paint54_linear_26_1049)"/>
<path d="M129.785 177.742C129.785 177.742 129.927 177.742 130.209 177.881C130.35 177.881 130.491 178.02 130.633 178.02C130.774 178.159 131.056 178.159 131.056 178.298C131.056 178.437 131.904 178.993 132.186 179.827C132.327 179.966 132.327 180.244 132.469 180.521C132.469 180.799 132.61 181.077 132.469 181.355C132.469 181.494 132.469 181.633 132.469 181.772C132.327 182.05 132.61 181.355 132.61 181.494L132.469 181.772L132.327 182.189C132.186 182.467 132.045 182.883 132.045 183.022C131.904 183.161 131.904 183.161 131.763 183.3C131.763 183.3 131.763 183.439 131.621 183.439L131.48 183.717C131.339 183.856 131.198 183.995 131.056 184.134C130.915 184.273 130.774 184.412 130.491 184.551C130.35 184.551 130.35 184.69 130.209 184.69L129.927 184.829C129.079 185.246 128.091 185.385 127.102 185.385H126.678H126.537C126.678 185.385 126.255 185.246 126.82 185.523H126.678C126.255 185.385 125.831 185.246 125.549 185.107L124.984 184.829L124.701 184.551C124.56 184.412 124.278 184.273 124.136 184.134C123.289 183.3 122.3 182.467 121.736 181.216C121.312 179.966 120.888 178.576 121.312 177.326C121.594 175.797 122.159 174.408 123.148 173.157C125.125 170.656 128.514 169.128 131.904 169.406C132.327 169.406 132.751 169.545 133.175 169.545H133.316C133.457 169.545 133.175 169.545 133.175 169.545H133.316L133.74 169.684L134.446 169.961C134.728 170.1 134.869 170.1 135.011 170.239L135.576 170.517C135.858 170.656 136.282 170.934 136.705 171.212C138.118 172.185 139.389 173.574 140.518 175.103C142.637 178.298 143.908 182.189 144.755 186.218C145.603 190.109 146.026 194.277 146.732 198.307C147.156 200.391 147.58 202.336 148.427 204.42C149.274 206.365 150.404 208.311 151.958 209.839C152.381 210.256 152.664 210.534 153.087 210.951C153.511 211.229 153.935 211.506 154.358 211.923C154.782 212.201 155.206 212.479 155.629 212.757L155.912 212.896L156.053 213.035H156.194L156.336 213.174L156.9 213.452L157.465 213.73C157.748 213.868 158.03 213.868 158.313 214.007C158.878 214.146 159.443 214.285 160.007 214.285H160.855C161.137 214.285 161.42 214.285 161.702 214.146C162.267 214.146 162.832 214.007 163.256 213.73C165.233 213.035 166.786 211.506 167.634 209.839C168.481 208.172 168.622 206.226 168.057 204.559C167.916 204.142 167.775 203.725 167.634 203.448C167.492 203.031 167.21 202.753 166.927 202.475C166.786 202.197 166.504 201.919 166.221 201.641L165.798 201.224L165.656 201.085L165.515 200.947H165.374L165.092 200.669L164.95 200.53L164.668 200.391C164.244 200.252 163.962 199.974 163.538 199.974C162.832 199.696 162.126 199.696 161.42 199.696C160.007 199.696 158.878 200.252 158.172 200.808C157.324 201.363 156.759 202.197 156.477 202.892C155.912 204.42 156.336 205.393 156.336 205.393C156.618 206.226 157.465 206.643 158.313 206.504C159.16 206.226 159.584 205.393 159.443 204.559C159.443 204.559 159.301 204.42 159.584 204.003C159.725 203.586 160.572 202.753 161.702 202.753C161.985 202.753 162.267 202.753 162.549 202.892C162.691 202.892 162.832 203.031 162.973 203.031H163.114L163.256 203.17L163.538 203.448C163.538 203.448 163.82 203.725 163.962 203.864C164.103 204.003 164.244 204.142 164.385 204.42C164.527 204.559 164.668 204.837 164.668 204.976C164.668 205.115 164.809 205.393 164.95 205.532C165.233 206.365 165.092 207.477 164.668 208.311C164.244 209.283 163.256 209.978 162.267 210.395C161.985 210.534 161.702 210.534 161.42 210.534C161.278 210.534 161.137 210.534 160.996 210.534H160.572C160.29 210.534 160.007 210.395 159.725 210.395C159.584 210.395 159.443 210.395 159.301 210.256L158.736 209.978L158.172 209.7C158.03 209.7 158.313 209.839 158.313 209.7L158.172 209.561L157.889 209.422C157.607 209.144 157.183 209.005 156.9 208.727C156.618 208.45 156.336 208.311 155.912 208.033L155.065 207.199C152.805 204.976 151.816 201.502 151.252 197.751C150.687 193.86 150.404 189.692 149.557 185.385C148.709 181.077 147.438 176.631 144.896 172.601C143.625 170.656 141.931 168.711 139.954 167.183C139.389 166.905 138.965 166.488 138.259 166.21L137.27 165.793C136.988 165.654 136.564 165.515 136.423 165.376L135.717 165.098L135.293 164.959H135.152H134.869H134.587C134.022 164.82 133.316 164.682 132.751 164.682C127.526 163.987 122.3 166.349 119.194 170.1C117.64 171.907 116.51 174.269 116.087 176.631C115.945 177.187 115.804 177.881 115.804 178.437C115.804 178.993 115.804 179.688 115.804 180.244C115.804 180.799 115.945 181.494 116.087 182.05C116.228 182.606 116.369 183.161 116.651 183.717C117.499 185.94 119.052 187.747 120.747 189.275C121.312 189.553 121.877 189.97 122.3 190.248L123.148 190.664L123.713 190.942C124.136 191.081 124.56 191.22 124.843 191.359H124.984C125.549 191.498 125.125 191.359 125.266 191.498H125.407L125.831 191.637L126.678 191.776C128.938 192.054 131.198 191.776 132.892 190.803L133.598 190.526C133.881 190.387 134.022 190.248 134.163 190.109C134.587 189.831 135.011 189.553 135.293 189.275C135.576 188.997 135.999 188.58 136.282 188.302C136.423 188.163 136.564 188.025 136.705 187.747L137.129 187.052C137.411 186.635 137.694 186.218 137.976 185.662C138.118 185.246 138.259 185.107 138.4 184.69L138.541 184.273L138.683 184.134C138.683 184.134 138.824 183.578 138.824 183.856V183.717C138.965 183.3 138.965 182.883 139.106 182.467C139.247 181.633 139.106 180.799 139.106 180.105C138.965 179.41 138.824 178.576 138.541 178.02C138.259 177.326 137.976 176.77 137.553 176.214C137.129 175.658 136.847 175.241 136.423 174.825C135.999 174.408 135.717 174.13 135.152 173.852C134.728 173.574 134.305 173.296 133.881 173.157C133.457 172.879 133.316 172.879 133.034 172.879C132.892 172.879 132.751 172.74 132.61 172.74C132.327 172.601 132.186 172.601 132.186 172.601C130.491 172.046 128.797 173.018 128.232 174.547C127.667 175.519 128.373 177.048 129.785 177.742Z" fill="url(#paint55_linear_26_1049)"/>
<path d="M108.884 188.58C108.884 188.58 154.641 221.927 169.187 226.374C183.733 230.82 189.665 219.01 191.218 216.648C192.772 214.285 197.291 210.812 200.539 210.812C198.279 207.338 193.901 204.976 190.088 207.199C188.394 203.587 182.745 201.919 179.92 204.281C177.378 206.227 178.226 209.561 178.226 209.561C180.909 208.311 184.016 209.561 183.875 213.035C183.733 216.509 181.332 224.567 170.599 220.121C159.866 215.675 114.674 181.494 114.674 181.494L108.884 188.58Z" fill="url(#paint56_linear_26_1049)"/>
<path d="M116.51 182.189C116.51 187.608 112.132 191.915 106.624 191.915C101.117 191.915 96.7387 187.608 96.7387 182.189C96.7387 176.77 101.117 172.463 106.624 172.463C112.132 172.463 116.51 176.77 116.51 182.189Z" fill="url(#paint57_linear_26_1049)"/>
<path d="M119.194 80.2024C119.052 81.8698 116.369 97.1539 114.533 99.6549C112.697 102.156 111.285 102.156 107.896 101.739C104.648 101.322 96.7389 100.489 95.4679 98.2654C94.1969 96.0423 94.0557 75.4783 94.3381 72.5604C94.6206 69.6425 99.281 66.8636 101.399 67.2804C103.518 67.6973 111.568 70.6151 114.533 73.672C117.358 76.7288 119.476 76.7288 119.194 80.2024Z" fill="url(#paint58_linear_26_1049)"/>
<path d="M124.843 108.13C124.984 105.212 128.091 96.7367 129.362 92.5683C130.633 88.3999 130.915 87.8441 129.362 84.7873C127.808 81.7305 124.136 79.5074 122.583 77.7011C120.888 75.8948 117.216 76.5895 116.369 77.0063C115.522 77.4232 111.991 82.981 111.85 84.2315C111.567 85.482 110.438 91.1788 110.155 92.4294C109.873 93.6799 112.556 95.7641 115.239 94.3746C117.923 92.9851 118.629 90.6231 118.629 90.6231C118.629 90.6231 115.522 96.7367 116.793 100.488C118.064 104.24 124.843 108.13 124.843 108.13Z" fill="url(#paint59_linear_26_1049)"/>
<defs>
<linearGradient id="paint0_linear_26_1049" x1="197.189" y1="142.059" x2="148.606" y2="23.5493" gradientUnits="userSpaceOnUse">
<stop stop-color="#FBDAD0"/>
<stop offset="1" stop-color="#FBD0C4"/>
</linearGradient>
<linearGradient id="paint1_linear_26_1049" x1="256.94" y1="239.491" x2="238.414" y2="216.79" gradientUnits="userSpaceOnUse">
<stop stop-color="#FBB8A6"/>
<stop offset="1" stop-color="#FBDAD0" stop-opacity="0.1"/>
</linearGradient>
<linearGradient id="paint2_linear_26_1049" x1="190.534" y1="177.894" x2="197.584" y2="192.401" gradientUnits="userSpaceOnUse">
<stop stop-color="#FBB8A6"/>
<stop offset="1" stop-color="#FBDAD0" stop-opacity="0.1"/>
</linearGradient>
<linearGradient id="paint3_linear_26_1049" x1="222.487" y1="458.299" x2="164.583" y2="317.05" gradientUnits="userSpaceOnUse">
<stop stop-color="#FBDAD0"/>
<stop offset="1" stop-color="#FBD0C4"/>
</linearGradient>
<linearGradient id="paint4_linear_26_1049" x1="220.259" y1="438.07" x2="267.219" y2="480.923" gradientUnits="userSpaceOnUse">
<stop stop-color="#FBB8A6"/>
<stop offset="1" stop-color="#FBDAD0" stop-opacity="0.1"/>
</linearGradient>
<linearGradient id="paint5_linear_26_1049" x1="231.869" y1="450.031" x2="331.073" y2="540.559" gradientUnits="userSpaceOnUse">
<stop stop-color="white"/>
<stop offset="0.4474" stop-color="#EDFCFF"/>
<stop offset="1" stop-color="#DBF8FF"/>
</linearGradient>
<linearGradient id="paint6_linear_26_1049" x1="289.172" y1="473.905" x2="368.908" y2="594.944" gradientUnits="userSpaceOnUse">
<stop stop-color="white"/>
<stop offset="0.4474" stop-color="#EDFCFF"/>
<stop offset="1" stop-color="#DBF8FF"/>
</linearGradient>
<linearGradient id="paint7_linear_26_1049" x1="252.455" y1="413.267" x2="382.852" y2="517.453" gradientUnits="userSpaceOnUse">
<stop stop-color="white"/>
<stop offset="0.4474" stop-color="#EDFCFF"/>
<stop offset="1" stop-color="#DBF8FF"/>
</linearGradient>
<linearGradient id="paint8_linear_26_1049" x1="332.868" y1="414.986" x2="546.263" y2="609.719" gradientUnits="userSpaceOnUse">
<stop stop-color="white"/>
<stop offset="0.4474" stop-color="#EDFCFF"/>
<stop offset="1" stop-color="#DBF8FF"/>
</linearGradient>
<linearGradient id="paint9_linear_26_1049" x1="233.899" y1="318.141" x2="308.628" y2="335.338" gradientUnits="userSpaceOnUse">
<stop stop-color="white"/>
<stop offset="0.4474" stop-color="#EDFCFF"/>
<stop offset="1" stop-color="#DBF8FF"/>
</linearGradient>
<linearGradient id="paint10_linear_26_1049" x1="270.664" y1="322.965" x2="327.388" y2="322.965" gradientUnits="userSpaceOnUse">
<stop stop-color="#FFD441"/>
<stop offset="1" stop-color="#FF8229"/>
</linearGradient>
<linearGradient id="paint11_linear_26_1049" x1="385.172" y1="51.2325" x2="638.498" y2="161.868" gradientUnits="userSpaceOnUse">
<stop stop-color="#3B3757"/>
<stop offset="1" stop-color="#886AA8"/>
</linearGradient>
<linearGradient id="paint12_linear_26_1049" x1="400.212" y1="30.2633" x2="627.317" y2="129.448" gradientUnits="userSpaceOnUse">
<stop stop-color="#3B3757"/>
<stop offset="1" stop-color="#886AA8"/>
</linearGradient>
<linearGradient id="paint13_linear_26_1049" x1="311.337" y1="236.875" x2="682.25" y2="398.865" gradientUnits="userSpaceOnUse">
<stop stop-color="#3B3757"/>
<stop offset="1" stop-color="#886AA8"/>
</linearGradient>
<linearGradient id="paint14_linear_26_1049" x1="382.075" y1="166.81" x2="617.56" y2="269.654" gradientUnits="userSpaceOnUse">
<stop stop-color="#3B3757"/>
<stop offset="1" stop-color="#886AA8"/>
</linearGradient>
<linearGradient id="paint15_linear_26_1049" x1="354.071" y1="291.685" x2="348.864" y2="314.715" gradientUnits="userSpaceOnUse">
<stop stop-color="#DBEEF2"/>
<stop offset="0.5429" stop-color="#C0E4EC"/>
<stop offset="1" stop-color="#AEDDE8"/>
</linearGradient>
<linearGradient id="paint16_linear_26_1049" x1="344.445" y1="307.246" x2="275.768" y2="139.717" gradientUnits="userSpaceOnUse">
<stop stop-color="#FBDAD0"/>
<stop offset="1" stop-color="#FBD0C4"/>
</linearGradient>
<linearGradient id="paint17_linear_26_1049" x1="383.661" y1="253.476" x2="347.572" y2="279.269" gradientUnits="userSpaceOnUse">
<stop stop-color="#FBB8A6"/>
<stop offset="1" stop-color="#FBDAD0" stop-opacity="0.1"/>
</linearGradient>
<linearGradient id="paint18_linear_26_1049" x1="259.437" y1="394.698" x2="309.479" y2="451.824" gradientUnits="userSpaceOnUse">
<stop stop-color="#3B3757"/>
<stop offset="1" stop-color="#886AA8"/>
</linearGradient>
<linearGradient id="paint19_linear_26_1049" x1="446.715" y1="591.69" x2="261.8" y2="380.599" gradientUnits="userSpaceOnUse">
<stop stop-color="#FFD441"/>
<stop offset="1" stop-color="#FF8229"/>
</linearGradient>
<linearGradient id="paint20_linear_26_1049" x1="461.538" y1="654.542" x2="366.402" y2="510.483" gradientUnits="userSpaceOnUse">
<stop stop-color="#FFD441"/>
<stop offset="1" stop-color="#FF8229"/>
</linearGradient>
<linearGradient id="paint21_linear_26_1049" x1="336.711" y1="481.907" x2="309.895" y2="451.295" gradientUnits="userSpaceOnUse">
<stop stop-color="#FFD441"/>
<stop offset="1" stop-color="#FF8229"/>
</linearGradient>
<linearGradient id="paint22_linear_26_1049" x1="328.626" y1="472.81" x2="299.826" y2="439.933" gradientUnits="userSpaceOnUse">
<stop stop-color="#FFD441"/>
<stop offset="1" stop-color="#FF8229"/>
</linearGradient>
<linearGradient id="paint23_linear_26_1049" x1="314.961" y1="457.385" x2="322.247" y2="465.702" gradientUnits="userSpaceOnUse">
<stop stop-color="white"/>
<stop offset="0.4474" stop-color="#EDFCFF"/>
<stop offset="1" stop-color="#DBF8FF"/>
</linearGradient>
<linearGradient id="paint24_linear_26_1049" x1="261.462" y1="396.984" x2="246.927" y2="380.391" gradientUnits="userSpaceOnUse">
<stop stop-color="#FFD441"/>
<stop offset="1" stop-color="#FF8229"/>
</linearGradient>
<linearGradient id="paint25_linear_26_1049" x1="358.577" y1="299.716" x2="394.49" y2="123.574" gradientUnits="userSpaceOnUse">
<stop stop-color="#FBDAD0"/>
<stop offset="1" stop-color="#FBD0C4"/>
</linearGradient>
<linearGradient id="paint26_linear_26_1049" x1="323.136" y1="204.943" x2="316.863" y2="232.69" gradientUnits="userSpaceOnUse">
<stop stop-color="white"/>
<stop offset="0.4474" stop-color="#EDFCFF"/>
<stop offset="1" stop-color="#DBF8FF"/>
</linearGradient>
<linearGradient id="paint27_linear_26_1049" x1="334.425" y1="167.028" x2="366.517" y2="216.832" gradientUnits="userSpaceOnUse">
<stop stop-color="#FBB8A6"/>
<stop offset="1" stop-color="#FBDAD0" stop-opacity="0.1"/>
</linearGradient>
<linearGradient id="paint28_linear_26_1049" x1="291.914" y1="205.249" x2="287.632" y2="224.186" gradientUnits="userSpaceOnUse">
<stop stop-color="white"/>
<stop offset="0.4474" stop-color="#EDFCFF"/>
<stop offset="1" stop-color="#DBF8FF"/>
</linearGradient>
<linearGradient id="paint29_linear_26_1049" x1="345.11" y1="257.329" x2="321.215" y2="274.407" gradientUnits="userSpaceOnUse">
<stop stop-color="#FBB8A6"/>
<stop offset="1" stop-color="#FBDAD0" stop-opacity="0.1"/>
</linearGradient>
<linearGradient id="paint30_linear_26_1049" x1="313.163" y1="152.711" x2="293.724" y2="179.846" gradientUnits="userSpaceOnUse">
<stop stop-color="#FBB8A6"/>
<stop offset="1" stop-color="#FBDAD0" stop-opacity="0.1"/>
</linearGradient>
<linearGradient id="paint31_linear_26_1049" x1="347.276" y1="106.437" x2="392.115" y2="106.437" gradientUnits="userSpaceOnUse">
<stop stop-color="#3B3757"/>
<stop offset="1" stop-color="#886AA8"/>
</linearGradient>
<linearGradient id="paint32_linear_26_1049" x1="359.042" y1="103.194" x2="385.136" y2="86.123" gradientUnits="userSpaceOnUse">
<stop stop-color="#FFD441"/>
<stop offset="1" stop-color="#FF8229"/>
</linearGradient>
<linearGradient id="paint33_linear_26_1049" x1="295.859" y1="151.329" x2="295.859" y2="92.9724" gradientUnits="userSpaceOnUse">
<stop stop-color="#FBDAD0"/>
<stop offset="1" stop-color="#FBD0C4"/>
</linearGradient>
<radialGradient id="paint34_radial_26_1049" cx="0" cy="0" r="1" gradientUnits="userSpaceOnUse" gradientTransform="translate(290.24 136.309) rotate(7.79964) scale(14.8309 7.42316)">
<stop stop-color="#FA8787"/>
<stop offset="1" stop-color="#FACDAB" stop-opacity="0"/>
</radialGradient>
<linearGradient id="paint35_linear_26_1049" x1="281.381" y1="105.649" x2="361.697" y2="105.649" gradientUnits="userSpaceOnUse">
<stop stop-color="#3B3757"/>
<stop offset="1" stop-color="#886AA8"/>
</linearGradient>
<linearGradient id="paint36_linear_26_1049" x1="297.258" y1="121.53" x2="609.482" y2="181.272" gradientUnits="userSpaceOnUse">
<stop stop-color="#3B3757"/>
<stop offset="1" stop-color="#886AA8"/>
</linearGradient>
<linearGradient id="paint37_linear_26_1049" x1="266.371" y1="122.898" x2="358.663" y2="122.898" gradientUnits="userSpaceOnUse">
<stop stop-color="white"/>
<stop offset="0.4474" stop-color="#EDFCFF"/>
<stop offset="1" stop-color="#DBF8FF"/>
</linearGradient>
<linearGradient id="paint38_linear_26_1049" x1="301.169" y1="56.0919" x2="293.062" y2="86.1482" gradientUnits="userSpaceOnUse">
<stop stop-color="#FFD441"/>
<stop offset="1" stop-color="#FF8229"/>
</linearGradient>
<linearGradient id="paint39_linear_26_1049" x1="308.773" y1="69.0782" x2="301.441" y2="96.2642" gradientUnits="userSpaceOnUse">
<stop stop-color="#FFD441"/>
<stop offset="1" stop-color="#FF8229"/>
</linearGradient>
<linearGradient id="paint40_linear_26_1049" x1="316.38" y1="82.0649" x2="309.822" y2="106.379" gradientUnits="userSpaceOnUse">
<stop stop-color="#FFD441"/>
<stop offset="1" stop-color="#FF8229"/>
</linearGradient>
<linearGradient id="paint41_linear_26_1049" x1="323.985" y1="95.0515" x2="318.201" y2="116.494" gradientUnits="userSpaceOnUse">
<stop stop-color="#FFD441"/>
<stop offset="1" stop-color="#FF8229"/>
</linearGradient>
<linearGradient id="paint42_linear_26_1049" x1="331.59" y1="108.039" x2="326.581" y2="126.61" gradientUnits="userSpaceOnUse">
<stop stop-color="#FFD441"/>
<stop offset="1" stop-color="#FF8229"/>
</linearGradient>
<linearGradient id="paint43_linear_26_1049" x1="297.654" y1="108.918" x2="318.37" y2="95.3653" gradientUnits="userSpaceOnUse">
<stop stop-color="#FFD441"/>
<stop offset="1" stop-color="#FF8229"/>
</linearGradient>
<linearGradient id="paint44_linear_26_1049" x1="325.636" y1="144.752" x2="325.636" y2="128.062" gradientUnits="userSpaceOnUse">
<stop stop-color="#FBDAD0"/>
<stop offset="1" stop-color="#FBD0C4"/>
</linearGradient>
<linearGradient id="paint45_linear_26_1049" x1="267.615" y1="271.608" x2="318.929" y2="303.85" gradientUnits="userSpaceOnUse">
<stop stop-color="white"/>
<stop offset="0.4474" stop-color="#EDFCFF"/>
<stop offset="1" stop-color="#DBF8FF"/>
</linearGradient>
<linearGradient id="paint46_linear_26_1049" x1="260.149" y1="284.138" x2="308.909" y2="308.561" gradientUnits="userSpaceOnUse">
<stop stop-color="white"/>
<stop offset="0.4474" stop-color="#EDFCFF"/>
<stop offset="1" stop-color="#DBF8FF"/>
</linearGradient>
<linearGradient id="paint47_linear_26_1049" x1="313.591" y1="269.083" x2="301.268" y2="323.59" gradientUnits="userSpaceOnUse">
<stop stop-color="white"/>
<stop offset="0.4474" stop-color="#EDFCFF"/>
<stop offset="1" stop-color="#DBF8FF"/>
</linearGradient>
<linearGradient id="paint48_linear_26_1049" x1="279.818" y1="226.445" x2="288.11" y2="221.02" gradientUnits="userSpaceOnUse">
<stop stop-color="#FFD441"/>
<stop offset="1" stop-color="#FF8229"/>
</linearGradient>
<linearGradient id="paint49_linear_26_1049" x1="119.58" y1="112.047" x2="106.617" y2="87.2094" gradientUnits="userSpaceOnUse">
<stop stop-color="#FBDAD0"/>
<stop offset="1" stop-color="#FBA58D"/>
</linearGradient>
<linearGradient id="paint50_linear_26_1049" x1="106.683" y1="76.5003" x2="106.683" y2="232.467" gradientUnits="userSpaceOnUse">
<stop stop-color="#FFD441"/>
<stop offset="1" stop-color="#FF8229"/>
</linearGradient>
<linearGradient id="paint51_linear_26_1049" x1="19.5232" y1="305.158" x2="57.0294" y2="280.62" gradientUnits="userSpaceOnUse">
<stop stop-color="#FFD441"/>
<stop offset="1" stop-color="#FF8229"/>
</linearGradient>
<linearGradient id="paint52_linear_26_1049" x1="42.8062" y1="190.531" x2="98.9637" y2="187.376" gradientUnits="userSpaceOnUse">
<stop stop-color="#FFD441"/>
<stop offset="1" stop-color="#FF8229"/>
</linearGradient>
<linearGradient id="paint53_linear_26_1049" x1="27.1786" y1="219.832" x2="90.1329" y2="179.307" gradientUnits="userSpaceOnUse">
<stop stop-color="#FFD441"/>
<stop offset="1" stop-color="#FF8229"/>
</linearGradient>
<linearGradient id="paint54_linear_26_1049" x1="193.843" y1="305.158" x2="156.337" y2="280.62" gradientUnits="userSpaceOnUse">
<stop stop-color="#FFD441"/>
<stop offset="1" stop-color="#FF8229"/>
</linearGradient>
<linearGradient id="paint55_linear_26_1049" x1="170.56" y1="190.531" x2="114.402" y2="187.376" gradientUnits="userSpaceOnUse">
<stop stop-color="#FFD441"/>
<stop offset="1" stop-color="#FF8229"/>
</linearGradient>
<linearGradient id="paint56_linear_26_1049" x1="186.187" y1="219.832" x2="123.233" y2="179.307" gradientUnits="userSpaceOnUse">
<stop stop-color="#FFD441"/>
<stop offset="1" stop-color="#FF8229"/>
</linearGradient>
<linearGradient id="paint57_linear_26_1049" x1="106.683" y1="179.323" x2="106.683" y2="198.735" gradientUnits="userSpaceOnUse">
<stop stop-color="#FFD441"/>
<stop offset="1" stop-color="#FF8229"/>
</linearGradient>
<linearGradient id="paint58_linear_26_1049" x1="100.909" y1="83.9563" x2="130.76" y2="90.1688" gradientUnits="userSpaceOnUse">
<stop stop-color="#FBDAD0"/>
<stop offset="1" stop-color="#FBA58D"/>
</linearGradient>
<linearGradient id="paint59_linear_26_1049" x1="119.677" y1="88.4508" x2="110.589" y2="66.2806" gradientUnits="userSpaceOnUse">
<stop stop-color="#FBDAD0"/>
<stop offset="1" stop-color="#FBD0C4"/>
</linearGradient>
</defs>
</svg>
