<svg width="908" height="639" viewBox="0 0 908 639" fill="none" xmlns="http://www.w3.org/2000/svg">
<path opacity="0.2" d="M901.345 123.932C672.701 95.6494 515.379 27.3177 465.351 3.37068C454.807 -1.79032 441.577 -0.964563 430.62 5.43508C327.875 65.3027 45.8942 155.104 5.78845 168.936C2.27403 170.174 0 173.271 0 176.78V193.915C0 198.25 3.51442 201.76 8.0625 201.553L88.4807 195.154C86.6201 260.389 105.846 260.595 106.673 260.595L89.3076 261.214C82.4855 261.421 77.1105 266.788 77.1105 272.982C77.1105 279.175 82.4855 284.129 89.3076 283.923L99.6442 283.51C63.0528 298.787 89.5143 616.704 89.5143 616.704H77.9374C71.1153 616.704 65.5336 621.659 65.5336 627.852C65.5336 634.045 71.1153 639 77.9374 639H111.635H115.769H149.673C156.702 639 162.284 634.045 162.49 627.646C162.49 621.453 156.909 616.292 149.88 616.292H138.096C138.096 616.292 168.692 295.071 131.687 282.065L142.024 281.652C148.846 281.446 154.428 276.078 154.634 269.885C154.634 263.692 149.259 258.737 142.231 258.944L124.865 259.563C125.899 259.563 145.125 257.911 144.091 192.263L211.485 189.373C209.005 255.641 228.644 255.847 229.678 255.847L211.899 256.466C204.87 256.673 199.288 262.04 199.082 268.44C199.082 274.839 204.457 279.588 211.485 279.381L222.029 278.968C184.197 294.451 208.798 616.085 208.798 616.085H196.808C189.779 616.085 183.99 621.246 183.99 627.439C183.99 633.633 189.572 638.794 196.601 638.794H231.125H235.466H270.404C277.639 638.794 283.428 633.633 283.634 627.439C283.841 621.04 278.053 616.085 270.817 616.085H258.62C258.62 616.085 292.937 291.148 255.106 277.936L265.649 277.523C272.678 277.317 278.466 271.949 278.673 265.55C278.88 259.15 273.091 254.195 266.062 254.402L248.077 255.021C249.11 255.021 268.957 253.37 268.543 186.69L337.798 183.593C334.49 250.686 354.75 250.892 355.783 250.892L337.384 251.512C330.149 251.718 324.36 257.086 324.154 263.692C323.947 270.091 329.735 275.046 336.764 274.84L347.514 274.427C308.442 290.116 330.976 615.466 330.976 615.466H318.779C311.543 615.466 305.548 620.627 305.341 627.026C305.134 633.426 310.923 638.381 318.158 638.381H353.716H358.057H393.822C401.264 638.381 407.259 633.22 407.466 626.82C407.673 620.42 401.884 615.259 394.442 615.259H382.038C382.038 615.259 420.077 286.607 381.211 273.188L392.168 272.775C399.404 272.569 405.399 266.995 405.605 260.595C405.812 254.195 400.024 249.034 392.788 249.447L374.389 250.067C375.423 250.067 395.889 248.209 396.303 180.909L467.418 177.813C463.283 245.938 484.163 246.144 485.197 246.144L466.384 246.764C458.942 246.97 452.947 252.544 452.74 258.944C452.533 265.343 458.322 270.504 465.557 270.298L476.721 269.885C436.408 285.987 456.668 615.053 456.668 615.053H444.057C436.615 615.053 430.413 620.214 430.206 626.82C430 633.22 435.788 638.381 443.23 638.381H479.822H484.37H521.168C528.817 638.381 535.019 633.22 535.432 626.614C535.639 620.214 529.851 614.846 522.202 614.846H509.384C509.384 614.846 551.351 282.065 511.658 268.646L522.822 268.233C530.264 268.027 536.466 262.453 536.879 255.847C537.086 249.241 531.298 244.08 523.855 244.493L504.836 245.112C505.87 245.112 526.956 243.254 527.99 174.922L601.173 171.619C596.211 240.777 617.711 240.983 618.745 240.983L599.312 241.603C591.663 241.809 585.461 247.383 585.048 253.989C584.841 260.595 590.629 265.756 598.072 265.55L609.442 265.137C567.889 281.446 585.668 614.434 585.668 614.434H572.644C564.995 614.434 558.586 619.801 558.379 626.201C558.173 632.6 563.961 637.968 571.61 637.968H609.235H613.783H651.615C659.471 637.968 666.086 632.6 666.293 625.994C666.706 619.388 660.711 614.021 652.855 614.021H639.624C639.624 614.021 685.932 277.317 645.206 263.692L656.783 263.279C664.432 263.072 670.841 257.499 671.254 250.686C671.668 244.08 665.673 238.919 658.024 239.125L638.591 239.745C639.624 239.745 661.331 237.887 663.192 168.316L738.648 165.013C732.86 235.203 754.773 235.409 755.807 235.409L735.961 236.235C728.105 236.442 721.49 242.222 721.076 248.828C720.663 255.434 726.658 260.802 734.514 260.389L746.297 259.976C703.298 276.491 718.802 613.608 718.802 613.608H705.365C697.509 613.608 690.894 618.975 690.48 625.581C690.067 632.187 696.062 637.555 703.918 637.555H742.576H747.331H786.197C794.259 637.555 801.081 632.187 801.495 625.581C801.908 618.975 795.706 613.401 787.85 613.608H774.206C774.206 613.608 824.855 272.775 783.096 258.944L795.086 258.531C802.942 258.324 809.764 252.544 810.177 245.731C810.591 238.919 804.595 233.758 796.74 233.964L776.687 234.79C777.721 234.79 800.047 232.932 802.735 162.33L896.797 158.201C901.759 157.994 906.1 154.072 906.514 149.53L907.961 130.331C908.374 127.854 905.48 124.551 901.345 123.932Z" fill="url(#paint0_linear_722_4682)"/>
<path d="M644.93 584.476H545.27C545.817 583.163 545.817 579.879 546.146 578.675L637.921 580.645L640.768 557.114H546.584C546.146 555.801 547.241 551.204 546.693 550L644.93 551.423C648.215 560.945 647.668 573.312 644.93 584.476Z" fill="#041931"/>
<path d="M725.206 587.65L645.039 584.476C647.12 573.312 646.573 560.945 644.163 551.423L725.315 555.144C730.243 564.776 729.696 576.596 725.206 587.65Z" fill="#0F73E7"/>
<path d="M637.921 580.645L553.045 578.785C556.659 571.452 556.878 565.542 553.045 557.114H640.768L637.921 580.645Z" fill="white"/>
<path opacity="0.3" d="M686.875 576.049C702.419 576.049 715.021 572.863 715.021 568.934C715.021 565.005 702.419 561.82 686.875 561.82C671.33 561.82 658.729 565.005 658.729 568.934C658.729 572.863 671.33 576.049 686.875 576.049Z" fill="white"/>
<path d="M623.793 563.572L564.983 562.149C563.668 562.149 563.668 564.119 564.983 564.119L623.793 565.542C625.107 565.542 625.107 563.572 623.793 563.572Z" fill="url(#paint1_linear_722_4682)"/>
<path d="M624.998 571.014C609.008 570.576 593.129 570.248 577.139 569.81C575.825 569.81 575.825 571.78 577.139 571.78C593.129 572.218 609.008 572.546 624.998 572.984C626.312 572.984 626.312 571.014 624.998 571.014Z" fill="url(#paint2_linear_722_4682)"/>
<path d="M637.921 620.375H518C518.657 618.843 519.643 615.997 520.081 614.465L632.883 615.778V587.541L520.3 589.62C519.862 588.088 518.548 584.476 518 582.944H637.921C641.863 594.326 641.206 607.022 637.921 620.375Z" fill="#0B0C0E" fill-opacity="0.79"/>
<path d="M734.515 618.405L638.03 620.485C640.549 607.132 640.878 594.436 638.03 582.944L734.515 586.665C740.429 598.048 739.881 604.943 734.515 618.405Z" fill="#0F73E7"/>
<path d="M632.883 615.778L528.404 614.574C532.785 605.818 532.018 599.58 527.309 589.401L632.883 587.431V615.778V615.778Z" fill="white"/>
<path d="M610.87 594.436C593.238 594.655 575.715 594.874 558.083 595.202C553.045 595.312 548.117 595.312 543.079 595.421C541.765 595.421 541.765 597.391 543.079 597.391C560.711 597.172 578.234 596.953 595.866 596.625C600.904 596.516 605.832 596.516 610.87 596.406C612.075 596.406 612.075 594.436 610.87 594.436Z" fill="#0B0C0E" fill-opacity="0.79"/>
<path d="M623.355 602.098C603.423 602.426 583.491 602.645 563.559 602.973C557.864 603.083 552.279 603.192 546.584 603.192C545.27 603.192 545.27 605.162 546.584 605.162C566.516 604.834 586.448 604.615 606.38 604.287C612.075 604.177 617.66 604.068 623.355 604.068C624.56 604.068 624.56 602.098 623.355 602.098Z" fill="#0B0C0E" fill-opacity="0.79"/>
<path d="M614.813 606.803H624.779C624.779 606.803 613.28 619.937 594.333 620.375C596.852 619.499 598.604 618.405 599.59 616.982C594.552 618.624 589.186 619.062 583.601 618.952C583.491 618.952 606.161 615.45 614.813 606.803Z" fill="#FFB552"/>
<path d="M451.011 243.51L452.405 259.035C449.364 259.323 446.323 259.61 443.281 259.898C426.048 261.479 408.688 262.917 391.328 264.211C371.053 265.936 350.652 267.23 330.251 268.811L315.172 269.961C311.37 270.392 307.695 272.98 306.048 277.005C305.668 278.012 305.288 279.018 305.161 280.168C305.161 280.312 305.161 280.455 305.034 280.599V281.174L304.908 282.324L304.654 284.624L303.514 293.969L301.36 312.514L299.079 331.058L297.938 340.259L297.305 344.859C297.178 345.578 297.051 346.584 296.924 347.447C296.671 348.309 296.418 349.172 296.037 350.035C295.404 351.328 294.644 352.478 293.757 353.485C292.489 354.922 290.842 355.929 289.195 356.647C286.407 357.654 283.366 357.366 280.705 356.072C278.044 354.779 275.763 352.191 274.622 348.885L274.242 347.591C274.116 347.159 274.116 346.728 273.989 346.297L273.862 345.003V343.853L273.609 339.109L274.749 338.965L275.383 343.565L275.51 344.716L275.763 345.722L276.016 346.728L276.397 347.734C277.537 350.322 279.438 352.047 281.592 352.91C283.746 353.772 286.154 353.629 288.181 352.622C290.209 351.616 291.856 349.891 292.743 347.591C292.996 347.016 293.123 346.441 293.25 345.866C293.376 345.291 293.376 344.716 293.376 343.853L293.63 339.109L294.263 329.765L295.531 311.076L296.798 292.387L297.431 283.043L297.558 280.743L297.685 279.593V279.018L297.812 278.299C298.065 276.286 298.445 274.274 299.205 272.549C301.866 265.217 307.822 260.473 314.158 259.467L329.49 257.598C349.765 255.154 370.04 252.566 390.314 250.266C410.462 247.822 430.737 245.666 451.011 243.51Z" fill="url(#paint3_linear_722_4682)"/>
<path d="M449.998 243.653L451.392 259.179C454.433 258.891 457.474 258.604 460.515 258.173C477.749 256.447 494.982 254.435 512.342 252.422C532.617 250.122 552.891 247.534 573.166 245.091L588.245 243.222C592.046 242.79 596.101 244.803 598.382 248.397C599.016 249.26 599.396 250.266 599.776 251.272C599.776 251.416 599.903 251.56 599.903 251.703L600.03 252.279L600.41 253.429L601.043 255.585L603.704 264.498L609.026 282.324L614.475 300.15L617.136 309.063L618.53 313.52C618.783 314.238 619.037 315.245 619.417 315.964C619.797 316.826 620.304 317.689 620.811 318.407C621.571 319.557 622.585 320.564 623.599 321.283C625.119 322.433 626.893 323.151 628.667 323.439C631.582 323.87 634.496 323.151 636.904 321.139C639.311 319.27 641.085 316.251 641.592 312.945L641.719 311.651C641.719 311.219 641.719 310.788 641.719 310.357L641.592 309.063L641.466 307.913L640.832 303.313L639.692 303.457L639.945 308.201V309.351V310.357L639.818 311.363L639.692 312.37C639.058 315.101 637.411 317.257 635.51 318.551C633.483 319.845 631.202 320.133 629.047 319.557C626.893 318.982 624.993 317.545 623.725 315.532C623.472 314.957 623.092 314.526 622.965 313.951C622.712 313.376 622.712 312.945 622.458 312.082L621.318 307.482L619.164 298.425L614.729 280.168L610.293 262.054L608.013 252.997L607.379 250.697L607.126 249.547L606.999 248.972L606.745 248.253C606.239 246.241 605.352 244.516 604.465 242.79C600.536 236.034 593.947 232.584 587.611 232.871L572.152 233.877C551.751 235.315 531.476 236.753 511.075 238.478C490.674 240.059 470.272 241.784 449.998 243.653Z" fill="url(#paint4_linear_722_4682)"/>
<path d="M472.03 258.144C477.674 243.873 473.761 227.983 463.289 222.652C452.817 217.322 439.752 224.569 434.108 238.84C428.464 253.11 432.377 269.001 442.849 274.331C453.321 279.662 466.386 272.415 472.03 258.144Z" fill="url(#paint5_linear_722_4682)"/>
<path d="M450.378 236.608C446.196 239.483 442.141 239.771 441.127 237.039C440.114 234.308 442.775 229.708 446.956 226.833C451.138 223.957 455.193 223.67 456.207 226.401C457.094 229.133 454.559 233.589 450.378 236.608Z" fill="white"/>
<path d="M465.837 567.828H438.213C443.788 481.717 444.422 382.236 443.662 273.986H459.121C457.854 379.792 459.248 479.417 465.837 567.828Z" fill="url(#paint6_linear_722_4682)"/>
<path d="M451.138 273.842L449.617 567.685H443.535C449.364 495.949 447.463 319.989 446.829 273.842H451.138V273.842Z" fill="white"/>
<path d="M461.529 498.824H442.394C436.565 498.824 436.565 508.456 442.394 508.456H461.529C467.357 508.456 467.357 498.824 461.529 498.824Z" fill="#0F73E7"/>
<path d="M458.741 441.178H443.662C439.1 441.178 439.1 450.81 443.662 450.81H458.741C463.303 450.81 463.429 441.178 458.741 441.178Z" fill="#0F73E7"/>
<path d="M458.741 385.399H443.662C439.1 385.399 439.1 395.031 443.662 395.031H458.741C463.303 395.031 463.429 385.399 458.741 385.399Z" fill="#0F73E7"/>
<path d="M457.98 329.62H444.422C440.24 329.62 440.24 339.252 444.422 339.252H457.98C462.035 339.252 462.162 329.62 457.98 329.62Z" fill="#0F73E7"/>
<path d="M458.741 273.842H443.662C439.1 273.842 439.1 283.474 443.662 283.474H458.741C463.303 283.474 463.429 273.842 458.741 273.842Z" fill="#0F73E7"/>
<path d="M504.232 579.904H402.606C402.606 579.904 402.733 579.329 403.239 578.466C405.647 573.435 416.165 556.902 449.618 555.752C449.744 555.752 449.744 555.752 449.744 555.752C450.885 555.752 452.152 555.752 453.419 555.752C489.913 555.752 501.064 573.434 503.599 578.61C504.105 579.329 504.232 579.904 504.232 579.904Z" fill="url(#paint7_linear_722_4682)"/>
<path d="M530.462 598.592H376.502C376.502 598.592 377.009 597.442 378.403 595.573C378.657 595.286 378.91 594.855 379.163 594.567C382.585 590.398 389.681 583.785 403.239 578.61C407.548 577.029 412.49 575.447 418.192 574.297C427.696 572.285 439.354 570.991 453.419 570.991C465.584 570.991 475.974 571.997 484.718 573.578C492.067 574.872 498.276 576.741 503.599 578.754C517.157 583.929 524.253 590.542 527.675 594.711C529.702 596.867 530.462 598.592 530.462 598.592Z" fill="#50A1FF"/>
<path d="M600.029 617.999H306.808C306.808 617.999 319.86 602.186 379.163 594.423C383.472 593.848 388.033 593.273 392.975 592.842C393.229 592.842 393.609 592.842 393.736 592.698C393.862 592.698 394.116 592.698 394.242 592.698C394.496 592.698 394.749 592.698 394.749 592.698C411.222 591.116 430.61 590.254 453.546 590.254C474.961 590.254 493.334 591.116 509.047 592.41C515.763 592.985 521.972 593.704 527.801 594.423C586.978 602.186 600.029 617.999 600.029 617.999Z" fill="url(#paint8_linear_722_4682)"/>
<path d="M449.617 555.752C447.716 555.896 426.428 557.621 418.192 574.153C418.192 574.153 412.236 576.022 406.154 579.904C401.592 582.923 396.903 587.092 394.622 592.698C394.622 592.698 394.496 592.698 394.116 592.698C393.989 592.698 393.862 592.698 393.609 592.698C393.355 592.698 393.102 592.698 392.848 592.842C390.187 593.129 384.865 593.848 378.276 595.43C365.224 598.592 347.611 605.061 338.107 617.856H306.682C306.682 617.856 319.733 602.042 379.036 594.28C382.458 590.111 389.554 583.498 403.112 578.322C405.647 573.435 416.164 556.902 449.617 555.752Z" fill="white"/>
<path d="M203.408 452.246L287.041 350.034L370.927 452.246" stroke="#FFB552" stroke-width="1.8014" stroke-miterlimit="10" stroke-linecap="round" stroke-linejoin="round"/>
<path d="M287.041 350.034L319.987 452.246" stroke="#FFB552" stroke-width="1.8014" stroke-miterlimit="10" stroke-linecap="round" stroke-linejoin="round"/>
<path d="M390.187 448.365C390.187 448.365 378.276 512.913 289.448 512.913C288.435 512.913 287.421 512.913 286.407 512.913C200.367 511.475 188.709 448.365 188.709 448.365C192.511 447.79 196.312 447.215 200.24 446.784C211.771 445.202 223.303 444.052 234.834 443.046C278.044 439.452 321.254 440.027 364.464 444.915C373.081 445.921 381.571 447.071 390.187 448.365Z" fill="#FFB552"/>
<path opacity="0.5" d="M289.448 512.913C288.435 512.913 287.421 512.913 286.407 512.913C234.073 511.619 210.631 476.254 200.24 446.784C211.771 445.202 223.302 444.052 234.834 443.046C247.759 499.255 289.448 512.913 289.448 512.913Z" fill="white"/>
<path d="M551.75 420.907L635.509 318.551L719.268 420.907" stroke="#FFB552" stroke-width="1.8014" stroke-miterlimit="10" stroke-linecap="round" stroke-linejoin="round"/>
<path d="M635.51 318.551L668.329 420.907" stroke="#FFB552" stroke-width="1.8014" stroke-miterlimit="10" stroke-linecap="round" stroke-linejoin="round"/>
<path d="M738.53 417.025C738.53 417.025 726.618 481.573 637.79 481.573C636.777 481.573 635.763 481.573 634.749 481.573C548.709 480.135 537.051 417.025 537.051 417.025C540.853 416.45 544.654 415.875 548.582 415.444C560.114 413.863 571.645 412.713 583.176 411.706C626.386 408.112 669.596 408.687 712.806 413.575C721.423 414.438 730.04 415.588 738.53 417.025Z" fill="#FFB552"/>
<path opacity="0.5" d="M637.79 481.573C636.777 481.573 635.763 481.573 634.749 481.573C582.416 480.28 558.973 444.915 548.582 415.445C560.114 413.863 571.645 412.713 583.176 411.707C596.228 467.773 637.79 481.573 637.79 481.573Z" fill="white"/>
<path d="M423.315 613.034C422.949 613.95 422.49 614.683 421.94 615.324C404.705 633.924 278.004 563.283 278.004 563.283C278.004 563.283 264.802 574.186 257.01 556.503L240.232 552.564C240.232 552.564 237.757 558.885 231.706 553.663L241.699 526.543C241.699 526.543 247.75 528.559 247.017 534.148L261.502 544.409C261.502 544.409 275.895 534.606 281.488 551.831C281.396 551.922 432.85 587.197 423.315 613.034Z" fill="#041931"/>
<path d="M219.971 594.71C216.946 595.259 211.445 594.526 204.844 593.06C196.868 591.32 187.15 588.388 178.349 585.089C164.505 579.959 146.811 570.338 142.044 567.406C141.127 566.857 140.485 566.032 140.027 565.207C139.11 563.009 138.102 558.794 142.594 556.778C143.786 556.229 145.253 556.229 146.536 556.778L206.586 578.951L221.163 584.356C223.18 585.089 224.555 586.83 224.463 588.571C224.555 591.32 224.097 593.977 219.971 594.71Z" fill="#041931"/>
<path d="M219.513 581.516C219.238 582.158 218.596 582.616 217.496 582.799C217.221 582.89 216.854 582.89 216.579 582.89C214.562 582.982 211.17 582.432 206.861 581.425C200.077 579.867 191.367 577.118 183.391 574.186C172.206 570.063 157.721 562.825 153.871 560.626C153.137 560.168 152.495 559.619 152.22 559.069C152.129 558.886 152.037 558.702 151.854 558.427C151.67 558.061 151.487 557.603 151.395 557.236C151.12 555.954 151.395 554.579 153.412 553.846C153.504 553.846 153.595 553.755 153.595 553.755C154.512 553.48 155.612 553.572 156.713 553.938L217.037 576.202C217.312 576.294 217.588 576.385 217.771 576.569C219.054 577.21 219.879 578.218 219.879 579.134C219.879 580.142 219.879 580.875 219.513 581.516Z" fill="#77AFF0"/>
<path d="M220.154 581.608C219.971 581.608 219.788 581.608 219.513 581.608C216.854 581.424 212.27 580.417 206.769 578.951C199.527 576.935 190.725 574.095 182.566 571.071C175.873 568.597 167.989 565.207 161.48 562.275C157.446 560.443 153.779 558.702 151.303 557.511C150.203 556.961 149.378 556.503 148.736 556.228C147.911 555.77 147.178 555.221 146.719 554.671C145.619 553.205 144.244 550.456 148.003 549.723C148.92 549.54 150.203 549.723 151.487 550.181L220.154 575.561C221.988 576.294 223.455 577.485 223.547 578.584C223.73 579.958 223.638 581.608 220.154 581.608Z" fill="url(#paint9_linear_722_4682)"/>
<path d="M239.224 542.944C234.182 557.053 224.005 569.88 219.513 575.103C219.238 575.378 219.054 575.653 218.871 575.836C218.504 576.202 218.138 576.477 217.771 576.752C216.946 577.21 216.029 577.302 215.112 577.118C212.454 576.569 209.887 575.927 207.228 575.194C189.259 570.522 171.656 563.467 154.237 554.488C153.962 554.305 153.687 554.121 153.504 553.938C152.679 553.205 152.22 552.289 152.129 551.19C152.129 550.823 152.037 550.457 152.037 549.998C151.762 543.677 151.945 529.109 157.996 512.708C163.955 496.491 174.957 486.047 180.274 481.649C182.108 480.091 183.3 479.358 183.3 479.358L235.923 499.332L243.716 502.264C243.716 502.264 243.808 503.455 243.9 505.47C244.083 512.342 244.358 528.742 239.224 542.944Z" fill="#0F73E7"/>
<path d="M249.859 506.478C248.483 506.478 246.283 506.111 243.716 505.562C240.874 504.92 237.482 504.096 233.815 502.996C227.122 501.072 219.421 498.507 212.27 495.85C200.719 491.544 186.05 484.672 179.999 481.74C179.357 481.465 178.807 481.19 178.441 480.915C177.615 480.457 176.882 479.908 176.424 479.358C175.323 477.892 173.948 475.143 177.707 474.41C178.624 474.227 179.907 474.41 181.191 474.868L249.859 500.248C251.692 500.981 253.159 502.172 253.251 503.271C253.526 504.92 253.434 506.57 249.859 506.478Z" fill="url(#paint10_linear_722_4682)"/>
<path d="M248.3 499.606C248.025 499.698 247.658 499.698 247.292 499.698C244.908 499.881 240.324 498.965 234.732 497.591C228.497 495.942 220.98 493.559 214.104 490.994C202.919 486.871 188.434 479.633 184.583 477.434C183.85 476.976 183.208 476.426 182.933 475.876C182.841 475.693 182.75 475.51 182.566 475.235C182.016 474.136 181.649 472.761 182.566 471.753C182.933 471.295 183.483 470.929 184.4 470.654C185.317 470.379 186.417 470.471 187.517 470.837L247.842 493.101C249.492 493.743 250.684 494.934 250.684 496.033C250.684 496.4 250.684 496.766 250.684 497.041C250.5 498.324 250.042 499.24 248.3 499.606Z" fill="#77AFF0"/>
<path d="M259.118 497.224C257.193 497.682 254.259 497.591 250.684 497.133C245.091 496.4 237.94 494.842 230.422 492.643C228.589 492.093 226.664 491.544 224.738 490.902C221.621 489.894 218.412 488.795 215.387 487.696C213.095 486.871 210.711 485.863 208.328 484.855C198.793 480.732 188.708 475.418 182.474 471.753C180.274 470.471 178.532 469.463 177.524 468.73C176.607 468.089 175.873 467.264 175.507 466.256C174.59 463.782 173.673 459.018 178.44 456.544C179.724 455.903 181.282 455.811 182.658 456.361L260.86 485.222C262.969 486.046 264.435 487.97 264.252 489.986C264.069 493.193 263.427 496.308 259.118 497.224Z" fill="#041931"/>
<path opacity="0.5" d="M179.082 506.936C173.123 515.182 165.972 520.313 163.13 518.297C160.288 516.282 162.855 507.944 168.814 499.607C174.773 491.361 181.924 486.23 184.766 488.246C187.516 490.261 185.041 498.599 179.082 506.936Z" fill="white"/>
<path d="M238.765 606.713H140.944L141.127 605.43L143.511 590.954C148.553 591.32 153.595 591.595 158.638 591.87C162.488 592.053 166.339 592.236 170.189 592.328C171.748 592.42 173.306 592.42 174.773 592.511C176.149 592.511 177.615 592.603 178.991 592.603C192.467 592.878 205.761 592.694 218.871 592.053C224.738 591.778 230.606 591.412 236.382 590.954L238.49 605.43L238.765 606.713Z" fill="url(#paint11_linear_722_4682)"/>
<g opacity="0.5">
<path d="M170.281 592.328L168.906 606.712H157.446L158.73 591.87C162.58 592.053 166.431 592.236 170.281 592.328Z" fill="white"/>
<path d="M179.082 592.602L177.707 606.712H173.673L174.865 592.511C176.332 592.511 177.707 592.602 179.082 592.602Z" fill="white"/>
</g>
<path d="M253.617 620.456H126L128.567 604.697C132.784 604.972 137.001 605.247 141.219 605.43C142.961 605.521 144.702 605.613 146.353 605.705C150.203 605.888 154.054 606.071 157.996 606.163C159.554 606.254 161.021 606.254 162.58 606.346C163.955 606.438 165.422 606.438 166.797 606.438C174.59 606.621 182.383 606.713 190.084 606.713C200.352 606.713 210.62 606.529 220.888 606.163C226.755 605.98 232.714 605.705 238.582 605.338C242.891 605.155 247.2 604.88 251.417 604.605L253.617 620.456Z" fill="#1B2026"/>
<g opacity="0.5">
<path d="M157.996 606.163L156.621 620.456H145.069L146.353 605.705C150.203 605.888 154.054 605.98 157.996 606.163Z" fill="white"/>
<path d="M166.797 606.438L165.422 620.456H161.297L162.488 606.346C163.955 606.346 165.331 606.346 166.797 606.438Z" fill="white"/>
</g>
<defs>
<linearGradient id="paint0_linear_722_4682" x1="0" y1="319.517" x2="985.512" y2="319.517" gradientUnits="userSpaceOnUse">
<stop stop-color="#0F73E7"/>
<stop offset="1" stop-color="#0F73E7" stop-opacity="0"/>
</linearGradient>
<linearGradient id="paint1_linear_722_4682" x1="563.997" y1="563.845" x2="629.967" y2="563.845" gradientUnits="userSpaceOnUse">
<stop stop-color="#0F73E7"/>
<stop offset="1" stop-color="#0F73E7" stop-opacity="0"/>
</linearGradient>
<linearGradient id="paint2_linear_722_4682" x1="576.153" y1="571.397" x2="630.237" y2="571.397" gradientUnits="userSpaceOnUse">
<stop stop-color="#0F73E7"/>
<stop offset="1" stop-color="#0F73E7" stop-opacity="0"/>
</linearGradient>
<linearGradient id="paint3_linear_722_4682" x1="363.007" y1="243.51" x2="363.007" y2="357.253" gradientUnits="userSpaceOnUse">
<stop stop-color="#0F73E7"/>
<stop offset="1" stop-color="#044DA3"/>
</linearGradient>
<linearGradient id="paint4_linear_722_4682" x1="545.858" y1="232.854" x2="545.858" y2="323.559" gradientUnits="userSpaceOnUse">
<stop stop-color="#0F73E7"/>
<stop offset="1" stop-color="#044DA3"/>
</linearGradient>
<linearGradient id="paint5_linear_722_4682" x1="434.108" y1="238.84" x2="473.503" y2="254.421" gradientUnits="userSpaceOnUse">
<stop stop-color="#0F73E7"/>
<stop offset="1" stop-color="#044DA3"/>
</linearGradient>
<linearGradient id="paint6_linear_722_4682" x1="452.025" y1="273.986" x2="452.025" y2="567.828" gradientUnits="userSpaceOnUse">
<stop stop-color="#0F73E7"/>
<stop offset="1" stop-color="#044DA3"/>
</linearGradient>
<linearGradient id="paint7_linear_722_4682" x1="453.419" y1="555.752" x2="453.419" y2="579.904" gradientUnits="userSpaceOnUse">
<stop stop-color="#0F73E7"/>
<stop offset="1" stop-color="#044DA3"/>
</linearGradient>
<linearGradient id="paint8_linear_722_4682" x1="453.419" y1="590.254" x2="453.419" y2="617.999" gradientUnits="userSpaceOnUse">
<stop stop-color="#0F73E7"/>
<stop offset="1" stop-color="#044DA3"/>
</linearGradient>
<linearGradient id="paint9_linear_722_4682" x1="184.57" y1="549.653" x2="184.57" y2="581.608" gradientUnits="userSpaceOnUse">
<stop stop-color="#0F73E7"/>
<stop offset="1" stop-color="#044DA3"/>
</linearGradient>
<linearGradient id="paint10_linear_722_4682" x1="214.295" y1="474.34" x2="214.295" y2="506.482" gradientUnits="userSpaceOnUse">
<stop stop-color="#0F73E7"/>
<stop offset="1" stop-color="#044DA3"/>
</linearGradient>
<linearGradient id="paint11_linear_722_4682" x1="189.855" y1="590.954" x2="189.855" y2="606.713" gradientUnits="userSpaceOnUse">
<stop stop-color="#0F73E7"/>
<stop offset="1" stop-color="#044DA3"/>
</linearGradient>
</defs>
</svg>
