<svg width="784" height="563" viewBox="0 0 784 563" fill="none" xmlns="http://www.w3.org/2000/svg">
<path d="M366.5 1H0V562.5H692C783.215 382.652 674.183 205.299 366.5 1Z" fill="white"/>
<path d="M729.088 562C750.541 520.118 773.544 432.945 740.54 344.797C718.542 271.455 672.315 225.005 630.028 178.243C580.198 123.143 525.009 87.4071 475.01 52.1092C440.819 27.9734 411.294 12.6328 390 0C400.642 0 413.862 1.94801 424.504 1.94801C437.505 16.0711 798.547 193.827 783.545 461.191C782.737 491.219 767.69 524.17 754.042 562C744.339 562 738.791 562 729.088 562Z" fill="#0F73E7"/>
</svg>
