<svg width="35" height="47" viewBox="0 0 35 47" fill="none" xmlns="http://www.w3.org/2000/svg">
<g clip-path="url(#clip0_222_314)">
<path d="M16.7092 36.3527C16.6327 36.417 16.5561 36.4813 16.4796 36.5456C16.3265 36.6742 16.1607 36.8027 15.9949 36.9056L12.6531 45.2898H9.31122L5.5102 36.5584C5.33163 36.417 5.16581 36.2627 5 36.1212L4.92347 36.1855C1.22449 39.4131 0.242346 44.3896 -0.0127563 47H21.5944C20.8801 39.3488 17.7168 36.7256 16.9005 36.1598C16.824 36.2241 16.7602 36.2884 16.6837 36.3527H16.7092Z" fill="#222222"/>
<path d="M2.7934 29.6274C2.7934 34.1795 6.46686 37.8829 10.9822 37.8829C15.4975 37.8829 19.1709 34.1795 19.1709 29.6274C19.1709 25.0752 15.4975 21.3718 10.9822 21.3718C6.46686 21.3718 2.7934 25.0752 2.7934 29.6274Z" fill="#222222"/>
<path d="M34.6301 40.339L34.6556 40.1718C33.9413 38.423 33.5842 36.3527 33.2398 34.3338C33.0357 33.0993 32.8316 31.9163 32.551 30.849C32.4617 30.386 32.3214 29.936 32.1301 29.5245C31.926 28.9973 31.6964 28.5215 31.4158 28.1228C31.1097 27.6856 30.2806 26.5026 28.3801 26.104C27.7679 25.8982 27.1173 25.7953 26.4413 25.7953C25.0893 25.7953 23.9031 26.2454 22.9337 27.0041C22.0153 27.5956 21.3265 28.4829 20.8163 29.756C20.4847 30.4761 20.2423 31.2605 20.102 32.0834C20.0638 32.3149 20.0383 32.5335 20.0255 32.7393C19.9745 33.0093 19.9362 33.2793 19.898 33.5751C19.7066 34.9253 19.8469 36.687 20.102 38.3458C21.1862 40.0947 22.2704 42.8337 22.6403 46.9871H35C34.9107 45.8427 34.6301 43.8881 33.75 41.9464C34.1582 41.7406 34.4133 41.5735 34.4388 41.5477L34.5153 41.4063L34.426 41.2777C34.426 41.2777 33.0357 40.5576 32.6786 39.5803C33.1633 40.0561 33.7245 40.249 34.477 40.3904L34.6301 40.339Z" fill="#222222"/>
<path d="M14.6811 16.241H24.8342C26.0332 16.241 26.9898 15.2637 26.9898 14.0679V2.17319C26.9898 0.964432 26.0204 0 24.8342 0H2.9592C1.76022 0 0.790833 0.977291 0.790833 2.17319V14.055C0.790833 15.2637 1.76022 16.2282 2.94644 16.2282H11.7347L11.4413 19.9573L14.6556 16.2282L14.6811 16.241Z" fill="#222222"/>
<path d="M34.2985 20.0216V11.8947C34.2985 11.136 33.6862 10.5316 32.9464 10.5316H27.9719V14.8266C27.9719 16.1253 26.926 17.1669 25.6378 17.1669H19.0689V20.0216C19.0689 20.7803 19.6811 21.3847 20.4209 21.3847H27.0918L29.1071 23.7251L28.9286 21.3847H32.9337C33.6735 21.3847 34.2857 20.7675 34.2857 20.0216H34.2985Z" fill="#222222"/>
<path d="M9.31122 45.3026H12.6531L11.824 39.8118H11.7985L12.6148 38.3073H9.36224L10.1658 39.8118H10.1403L9.31122 45.3026Z" fill="#FFEA30"/>
</g>
<defs>
<clipPath id="clip0_222_314">
<rect width="35" height="47" fill="white"/>
</clipPath>
</defs>
</svg>
