<svg width="45" height="47" viewBox="0 0 45 47" fill="none" xmlns="http://www.w3.org/2000/svg">
<g clip-path="url(#clip0_222_444)">
<path d="M0 11.0367H45L22.4706 0L0 11.0367Z" fill="#222222"/>
<path d="M11.8452 41.0761H2.89517V44.0453H0V47.0145H45V44.0453H42.0901V41.0761H32.0232V42.2638H12.9768V41.0761H11.8452ZM32.0232 46.9855H12.9768V45.7978H32.0232V46.9855ZM32.0232 43.437V44.6246H12.9768V43.437H32.0232Z" fill="#222222"/>
<path d="M11.8452 16.1929V13.6872H10.7283H5.49641H4.37949V16.1929H5.49641V38.6283H4.37949V41.0761H5.49641H10.7283H11.8452V38.6283H10.7283V16.1929H11.8452Z" fill="#FFEA30"/>
<path d="M40.6058 16.1929V13.6872H39.5036H34.257H33.1548V16.1929H34.257V38.6283H33.1548V41.0761H34.257H39.5036H40.6058V38.6283H39.5036V16.1929H40.6058Z" fill="#FFEA30"/>
<path d="M26.2329 16.1929V13.6872H25.1159H19.8841H18.7671V16.1929H19.8841V38.6283H18.7671V41.0761H19.8841H25.1159H26.2329V38.6283H25.1159V16.1929H26.2329Z" fill="#FFEA30"/>
<path d="M0 13.6872H4.37949H5.49641H10.7283H11.8452H18.7671H19.8841H25.1159H26.2329H33.1548H34.257H39.5036H40.6058H45V11.8478H0V13.6872Z" fill="#222222"/>
<path d="M25.1159 41.0761H19.8841H18.7671H12.9768V42.2638H32.0232V41.0761H26.2329H25.1159Z" fill="#FFEA30"/>
<path d="M32.0232 43.437H12.9768V44.6246H32.0232V43.437Z" fill="#FFEA30"/>
<path d="M32.0232 45.7979H12.9768V46.9855H32.0232V45.7979Z" fill="#FFEA30"/>
</g>
<defs>
<clipPath id="clip0_222_444">
<rect width="45" height="47" fill="white"/>
</clipPath>
</defs>
</svg>
