<svg width="97" height="72" viewBox="0 0 97 72" fill="none" xmlns="http://www.w3.org/2000/svg">
<path d="M0.5 22.2856V61.7142C0.5 67.3947 5.10507 71.9999 10.7857 71.9999H86.2143C91.8947 71.9999 96.5 67.3947 96.5 61.7142V22.2856H0.5Z" fill="#222222"/>
<path fill-rule="evenodd" clip-rule="evenodd" d="M10.7857 0C5.10507 0 0.5 4.60505 0.5 10.2857V22.2857H96.5V10.2857C96.5 4.60505 91.8947 0 86.2143 0H10.7857ZM65.6429 47.1429C63.2759 47.1429 61.3571 49.0616 61.3571 51.4286C61.3571 53.7955 63.2759 55.7143 65.6429 55.7143H75.9286C78.2957 55.7143 80.2143 53.7955 80.2143 51.4286C80.2143 49.0616 78.2957 47.1429 75.9286 47.1429H65.6429Z" fill="#FFEA30"/>
</svg>
