<svg width="247" height="127" viewBox="0 0 247 127" fill="none" xmlns="http://www.w3.org/2000/svg">
<g opacity="0.4">
<path d="M223.25 75.3901V85.2002C223.25 86.5303 223.25 87.1954 223.509 87.7034C223.737 88.1503 224.1 88.5136 224.547 88.7413C225.055 89.0002 225.72 89.0002 227.05 89.0002H236.86M223.25 110.375H209M228 100.875H209M237.5 93.722V110.85C237.5 114.84 237.5 116.836 236.723 118.36C236.04 119.7 234.95 120.79 233.61 121.473C232.086 122.25 230.09 122.25 226.1 122.25H210.9C206.91 122.25 204.914 122.25 203.39 121.473C202.05 120.79 200.96 119.7 200.277 118.36C199.5 116.836 199.5 114.84 199.5 110.85V86.15C199.5 82.1596 199.5 80.1644 200.277 78.6403C200.96 77.2997 202.05 76.2097 203.39 75.5266C204.914 74.75 206.91 74.75 210.9 74.75H218.528C220.271 74.75 221.142 74.75 221.962 74.9469C222.689 75.1214 223.384 75.4093 224.022 75.7999C224.741 76.2406 225.357 76.8567 226.589 78.089L234.161 85.661C235.393 86.8933 236.009 87.5094 236.45 88.2285C236.841 88.866 237.129 89.561 237.303 90.288C237.5 91.108 237.5 91.9793 237.5 93.722Z" stroke="white" stroke-width="4" stroke-linecap="round" stroke-linejoin="round"/>
</g>
<g opacity="0.4">
<path d="M159.583 50.038V64.667C159.583 66.6505 159.583 67.6422 159.969 68.3998C160.309 69.0662 160.851 69.6081 161.517 69.9476C162.275 70.3336 163.267 70.3336 165.25 70.3336H179.879M159.583 102.208H138.333M166.667 88.0417H138.333M180.833 77.375V102.917C180.833 108.867 180.833 111.843 179.675 114.115C178.657 116.115 177.031 117.74 175.032 118.759C172.759 119.917 169.784 119.917 163.833 119.917H141.167C135.216 119.917 132.241 119.917 129.968 118.759C127.969 117.74 126.343 116.115 125.325 114.115C124.167 111.843 124.167 108.867 124.167 102.917V66.0834C124.167 60.1328 124.167 57.1575 125.325 54.8847C126.343 52.8855 127.969 51.2601 129.968 50.2414C132.241 49.0834 135.216 49.0834 141.167 49.0834H152.542C155.141 49.0834 156.44 49.0834 157.663 49.3769C158.747 49.6372 159.783 50.0665 160.734 50.6491C161.806 51.3061 162.725 52.2249 164.563 54.0626L175.854 65.3542C177.692 67.1918 178.611 68.1106 179.268 69.1828C179.85 70.1335 180.28 71.1699 180.54 72.254C180.833 73.4768 180.833 74.7762 180.833 77.375Z" stroke="white" stroke-width="4" stroke-linecap="round" stroke-linejoin="round"/>
</g>
<g opacity="0.5">
<path d="M74.0834 12.0096V33.8671C74.0834 36.8307 74.0834 38.3125 74.6602 39.4444C75.1675 40.4401 75.977 41.2497 76.9727 41.757C78.1047 42.3337 79.5865 42.3337 82.5501 42.3337H104.408M74.0834 89.9584H42.3334M84.6668 68.7917H42.3334M105.833 52.8544V91.0167C105.833 99.9075 105.833 104.353 104.103 107.749C102.581 110.736 100.153 113.164 97.1655 114.686C93.7697 116.417 89.3243 116.417 80.4334 116.417H46.5668C37.6759 116.417 33.2305 116.417 29.8346 114.686C26.8476 113.164 24.419 110.736 22.897 107.749C21.1667 104.353 21.1667 99.9075 21.1667 91.0167V35.9834C21.1667 27.0925 21.1667 22.6471 22.897 19.2513C24.419 16.2642 26.8476 13.8356 29.8346 12.3136C33.2305 10.5834 37.6759 10.5834 46.5668 10.5834H63.5624C67.4453 10.5834 69.3867 10.5834 71.2137 11.022C72.8335 11.4109 74.3821 12.0523 75.8024 12.9227C77.4045 13.9044 78.7773 15.2773 81.5229 18.0229L98.3939 34.8939C101.14 37.6395 102.512 39.0123 103.494 40.6143C104.364 42.0347 105.006 43.5832 105.395 45.2031C105.833 47.0301 105.833 48.9715 105.833 52.8544Z" stroke="white" stroke-width="4" stroke-linecap="round" stroke-linejoin="round"/>
</g>
</svg>
