<svg width="83" height="82" viewBox="0 0 83 82" fill="none" xmlns="http://www.w3.org/2000/svg">
<path fill-rule="evenodd" clip-rule="evenodd" d="M60.4839 55.3337C55.644 55.3337 51.7205 59.257 51.7205 64.0969C51.7205 68.9368 55.644 72.8603 60.4839 72.8603C65.3237 72.8603 69.2473 68.9368 69.2473 64.0969C69.2473 59.257 65.3237 55.3337 60.4839 55.3337ZM45.7083 54.6713C48.8212 49.8017 54.2755 46.5732 60.4839 46.5732C70.1618 46.5732 78.0077 54.4189 78.0077 64.0969C78.0077 73.7749 70.1618 81.6207 60.4839 81.6207C50.8901 81.6207 43.097 73.9115 42.9619 64.3498C42.9585 64.2908 42.9563 64.2312 42.9553 64.1717L42.9544 64.1582C42.9513 64.1144 42.943 64.0239 42.923 63.9042C42.8795 63.6431 42.8006 63.3622 42.6867 63.1338C42.5812 62.923 42.4919 62.8453 42.4399 62.8109C42.4097 62.7904 42.1756 62.6333 41.4916 62.6333C40.8076 62.6333 40.5746 62.7898 40.5444 62.8103C40.4925 62.8447 40.4019 62.923 40.2965 63.1338C40.1825 63.3622 40.1037 63.6431 40.0602 63.9042C40.0481 63.9766 40.0403 64.0385 40.0353 64.0852C40.0353 64.0893 40.0353 64.0934 40.0353 64.0975C40.0353 73.7754 32.1897 81.6213 22.5117 81.6213C12.8337 81.6213 4.9881 73.7754 4.9881 64.0975C4.9881 54.4196 12.8337 46.574 22.5117 46.574C28.718 46.574 34.1708 49.8005 37.2842 54.6675C38.5431 54.1444 39.9541 53.8731 41.4916 53.8731C43.0329 53.8731 44.4469 54.1458 45.7083 54.6713ZM31.2726 64.2984C31.1659 69.0454 27.2843 72.8609 22.5117 72.8609C17.672 72.8609 13.7486 68.9373 13.7486 64.0975C13.7486 59.2576 17.672 55.3345 22.5117 55.3345C27.278 55.3345 31.1556 59.1396 31.2721 63.8779C31.2721 63.8802 31.272 63.8831 31.2719 63.8855L31.2688 64.0093L31.2682 64.0578L31.2681 64.0788V64.0881C31.2681 64.0881 31.2681 64.0934 31.2748 64.0934C31.2748 64.0922 31.2748 64.0946 31.2748 64.0934L31.2681 64.0969C31.2681 64.1646 31.2696 64.2318 31.2726 64.2984Z" fill="#FFEA30"/>
<path fill-rule="evenodd" clip-rule="evenodd" d="M15.4785 7.55248C16.1625 3.44871 19.7131 0.440918 23.8735 0.440918H59.1272C63.2872 0.440918 66.8381 3.44888 67.522 7.55283L71.6838 32.5257H77.8401C80.2591 32.5257 82.2203 34.4868 82.2203 36.9059C82.2203 39.325 80.2591 41.2861 77.8401 41.2861H5.15992C2.74079 41.2861 0.779694 39.325 0.779694 36.9059C0.779694 34.4868 2.74079 32.5257 5.15992 32.5257H11.3158L15.4785 7.55248Z" fill="#222222"/>
</svg>
