<svg width="55" height="71" viewBox="0 0 55 71" fill="none" xmlns="http://www.w3.org/2000/svg">
<g clip-path="url(#clip0_214_214)">
<path d="M48.1117 20.6223C48.5599 18.5968 47.6635 16.6068 46.0122 15.5526C46.2481 15.1262 46.4486 14.676 46.5548 14.1785C47.1446 11.5489 45.5876 8.94298 43.0517 8.17304C42.9691 5.75663 41.2942 3.58896 38.8291 3.03223C38.2393 2.90194 37.6614 2.89009 37.0834 2.94932C36.305 1.57528 34.9957 0.509212 33.3444 0.130166C30.2305 -0.5687 27.1521 1.38575 26.4444 4.51288C25.7485 7.64001 27.6946 10.7316 30.8085 11.4423C31.6224 11.62 32.4244 11.62 33.1911 11.466C33.9342 12.5439 35.0665 13.3612 36.4347 13.6811C36.4701 13.6811 36.4937 13.6811 36.5291 13.6811C36.7296 15.3038 37.7086 16.7253 39.1475 17.5189C39.006 17.8269 38.8881 18.1585 38.8055 18.502C38.3573 20.5276 39.2537 22.5176 40.8932 23.5718C39.7255 24.1403 38.8173 25.2064 38.5106 26.5686C38.204 27.9426 38.5814 29.293 39.3834 30.3117C37.9798 30.7026 36.8121 31.816 36.4701 33.3559C36.2342 34.422 36.4347 35.488 36.9537 36.3646C35.1844 36.3053 33.5803 37.5135 33.1793 39.3022C33.026 40.001 33.0849 40.6999 33.2972 41.3277C33.2383 41.3158 33.1793 41.2803 33.1203 41.2685C31.2803 40.8539 29.4403 42.0147 29.0275 43.8626C28.6146 45.7104 29.7705 47.5583 31.6106 47.9728C33.4506 48.3874 35.2906 47.2266 35.7034 45.3787C35.8332 44.7983 35.7978 44.2179 35.6444 43.6849C35.7742 43.7323 35.8921 43.7796 36.0219 43.8152C38.0506 44.2771 40.0558 42.9979 40.5158 40.9605C40.7281 40.0366 40.5629 39.1126 40.1383 38.3427C42.1435 38.5085 44.0071 37.1937 44.4553 35.1682C44.7266 33.9837 44.4317 32.811 43.783 31.8871C45.3989 31.5199 46.7553 30.2761 47.1446 28.5349C47.5456 26.7226 46.7907 24.9221 45.3635 23.9153C46.6845 23.323 47.7343 22.1385 48.0881 20.6105L48.1117 20.6223Z" fill="#9F9F9F"/>
<path d="M6.88826 20.6223C6.44005 18.5968 7.33647 16.6068 8.98777 15.5526C8.75187 15.1262 8.55135 14.676 8.4452 14.1785C7.85545 11.5489 9.41239 8.94298 11.9483 8.17304C12.0309 5.75663 13.7058 3.58896 16.1709 3.03223C16.7607 2.90194 17.3386 2.89009 17.9166 2.94932C18.695 1.57528 20.0043 0.509212 21.6556 0.130166C24.7695 -0.5687 27.8479 1.38575 28.5556 4.51288C29.2515 7.64001 27.3054 10.7316 24.1915 11.4423C23.3776 11.62 22.5756 11.62 21.8089 11.466C21.0658 12.5439 19.9335 13.3612 18.5653 13.6811C18.5299 13.6811 18.5063 13.6811 18.4709 13.6811C18.2704 15.3038 17.2914 16.7253 15.8524 17.5189C15.994 17.8269 16.1119 18.1585 16.1945 18.502C16.6427 20.5276 15.7463 22.5176 14.1068 23.5718C15.2745 24.1403 16.1827 25.2064 16.4894 26.5686C16.796 27.9426 16.4186 29.293 15.6165 30.3117C17.0201 30.7026 18.1879 31.816 18.5299 33.3559C18.7658 34.422 18.5653 35.488 18.0463 36.3646C19.8156 36.3053 21.4197 37.5135 21.8207 39.3022C21.974 40.001 21.9151 40.6999 21.7028 41.3277C21.7617 41.3158 21.8207 41.2803 21.8797 41.2685C23.7197 40.8539 25.5597 42.0147 25.9725 43.8626C26.3854 45.7104 25.2295 47.5583 23.3894 47.9728C21.5494 48.3874 19.7094 47.2266 19.2966 45.3787C19.1668 44.7983 19.2022 44.2179 19.3556 43.6849C19.2258 43.7323 19.1079 43.7796 18.9781 43.8152C16.9494 44.2771 14.9442 42.9979 14.4842 40.9605C14.2719 40.0366 14.437 39.1126 14.8617 38.3427C12.8565 38.5085 10.9929 37.1937 10.5447 35.1682C10.2734 33.9837 10.5683 32.811 11.217 31.8871C9.60111 31.5199 8.24468 30.2761 7.85545 28.5349C7.45442 26.7226 8.2093 24.9221 9.63649 23.9153C8.31545 23.323 7.2657 22.1385 6.91185 20.6105L6.88826 20.6223Z" fill="#9F9F9F"/>
<path d="M53.7733 50.8277C51.0487 46.6345 35.5265 42.7256 35.5265 42.7256H19.4617C19.4617 42.7256 3.93952 46.6345 1.21488 50.8277C-1.52155 55.0564 1.21488 71.0118 1.21488 71.0118H53.7733C53.7733 71.0118 56.5098 55.0564 53.7733 50.8277Z" fill="#9F9F9F"/>
<path d="M41.825 22.648C41.825 22.648 41.7189 22.6124 41.6717 22.5888C41.7071 21.9728 41.7424 21.345 41.7424 20.6817C41.7424 11.478 36.6706 6.38455 27.5059 6.38455C18.3412 6.38455 13.2694 11.478 13.2694 20.6817C13.2694 21.345 13.3047 21.9728 13.3401 22.5888C13.293 22.6124 13.234 22.6243 13.1868 22.648C12.3847 23.0507 11.9247 24.1523 12.5263 26.4858C13.0924 28.7009 14.4135 31.2239 15.2391 31.1173C17.433 36.2463 20.6648 38.2244 20.6648 38.2244L19.4853 42.7137C19.4853 43.6732 23.0828 44.4431 27.5177 44.4431C31.9526 44.4431 35.5501 43.6732 35.5501 42.7137L34.3706 38.2244C34.3706 38.2244 37.6024 36.2344 39.7963 31.1173C40.6219 31.2239 41.9312 28.7009 42.5091 26.4858C43.1107 24.1523 42.6507 23.0507 41.8486 22.648H41.825Z" fill="white"/>
<path d="M20.594 68.702C19.6032 63.7863 25.312 49.2049 25.312 49.2049H29.6762C29.6762 49.2049 35.3731 63.7863 34.4059 68.702C34.3116 69.2114 33.5567 69.8747 32.6957 69.8747C31.8346 69.8747 31.8346 68.702 30.9736 68.702C30.1126 68.702 30.1126 69.8747 29.2515 69.8747C28.3905 69.8747 28.3905 68.702 27.5295 68.702C26.6684 68.702 26.6684 69.8747 25.8074 69.8747C24.9464 69.8747 24.9464 68.702 24.0853 68.702C23.2243 68.702 23.2243 69.8747 22.3515 69.8747C21.4787 69.8747 20.7238 69.2114 20.6176 68.702H20.594Z" fill="white"/>
<path d="M27.4941 50.0814C26.2085 50.0814 25.0054 49.7616 24.1797 49.2167L24.51 48.7192C25.2413 49.2049 26.3264 49.4892 27.4941 49.4892C28.6618 49.4892 29.7469 49.2049 30.4782 48.7192L30.8085 49.2167C29.9829 49.7735 28.7798 50.0814 27.4941 50.0814Z" fill="white"/>
<path d="M29.3105 47.7124C29.629 47.9019 29.9474 48.1033 30.2305 48.3165C30.5254 48.5297 30.8085 48.7548 31.0916 48.9917L30.7731 48.9443C33.4034 47.6176 36.069 46.3739 38.8409 45.3315C36.3167 46.8714 33.6865 48.198 31.0208 49.4418L30.8439 49.5247L30.7141 49.3944C30.4546 49.1338 30.2187 48.8614 29.9828 48.5771C29.7469 48.3046 29.5228 48.0085 29.3223 47.6887L29.3105 47.7124Z" fill="white"/>
<path d="M25.6895 47.7124C25.489 48.0204 25.2649 48.3165 25.029 48.6008C24.7931 48.8851 24.5572 49.1575 24.2977 49.4181L24.1679 49.5484L23.991 49.4655C21.3253 48.2099 18.6951 46.8832 16.1709 45.3552C18.9427 46.3976 21.6084 47.6413 24.2387 48.968L23.9202 49.0154C24.1915 48.7785 24.4746 48.5534 24.7813 48.3402C25.0643 48.1151 25.371 47.9138 25.7013 47.7361L25.6895 47.7124Z" fill="white"/>
<path d="M33.2029 11.478C33.946 12.5559 35.0783 13.3732 36.4465 13.693C36.4819 13.693 36.5055 13.693 36.5409 13.693C36.7414 15.3158 37.7204 16.7372 39.1593 17.5309C39.1947 17.5545 42.0963 19.3669 48.2179 19.6275C48.2415 17.981 47.4158 16.4648 46.0594 15.5764C46.0594 15.5764 46.024 15.5527 46.0122 15.5409C46.2481 15.1144 46.4486 14.6643 46.5548 14.1668C47.1446 11.5372 45.5876 8.93126 43.0517 8.16132C42.9691 5.74491 41.2942 3.57724 38.8291 3.02052C38.2393 2.89022 37.6614 2.87837 37.0834 2.9376C36.305 1.56356 34.9957 0.497493 33.3444 0.118447C30.2305 -0.580418 27.1521 1.37404 26.4444 4.50116C25.7485 7.62829 27.6946 10.7199 30.8085 11.4306C31.6224 11.6083 32.4244 11.6083 33.1911 11.4543L33.2029 11.478Z" fill="#9F9F9F"/>
<path d="M21.7971 11.478C21.054 12.5559 19.9217 13.3732 18.5535 13.693C18.5181 13.693 18.4945 13.693 18.4591 13.693C18.2586 15.3158 17.2796 16.7372 15.8407 17.5309C15.8053 17.5545 12.9037 19.3669 6.78211 19.6275C6.75852 17.981 7.58417 16.4648 8.94059 15.5764C8.94059 15.5764 8.97597 15.5527 8.98777 15.5409C8.75187 15.1144 8.55136 14.6643 8.4452 14.1668C7.85545 11.5372 9.41239 8.93126 11.9483 8.16132C12.0309 5.74491 13.7058 3.57724 16.1709 3.02052C16.7607 2.89022 17.3386 2.87837 17.9166 2.9376C18.695 1.56356 20.0043 0.497493 21.6556 0.118447C24.7695 -0.580418 27.8479 1.37404 28.5556 4.50116C29.2515 7.62829 27.3054 10.7199 24.1915 11.4306C23.3776 11.6083 22.5756 11.6083 21.8089 11.4543L21.7971 11.478Z" fill="#9F9F9F"/>
</g>
<defs>
<clipPath id="clip0_214_214">
<rect width="55" height="71" fill="white"/>
</clipPath>
</defs>
</svg>
