<svg width="199" height="169" viewBox="0 0 199 169" fill="none" xmlns="http://www.w3.org/2000/svg">
<g id="Frame" clip-path="url(#clip0_338_10533)">
<g id="Background Complete">
<g id="Group">
<g id="Group_2">
<path id="Vector" d="M199 148.518H0V148.631H199V148.518Z" fill="#EBEBEB"/>
<path id="Vector_2" d="M94.3299 128.289H17.4801C16.2264 128.289 15.2075 127.128 15.2075 125.699V2.58981C15.2075 1.16111 16.2264 0 17.4801 0H94.3339C95.5876 0 96.6065 1.16111 96.6065 2.58981V125.699C96.6065 127.128 95.5876 128.289 94.3339 128.289H94.3299ZM17.4801 0.113389C16.2821 0.113389 15.307 1.22461 15.307 2.58981V125.699C15.307 127.064 16.2821 128.175 17.4801 128.175H94.3339C95.5319 128.175 96.507 127.064 96.507 125.699V2.58981C96.507 1.22461 95.5319 0.113389 94.3339 0.113389H17.4801Z" fill="#EBEBEB"/>
<path id="Vector_3" d="M180.417 128.289H103.564C102.31 128.289 101.291 127.128 101.291 125.699V2.58981C101.291 1.16111 102.31 0 103.564 0H180.417C181.671 0 182.69 1.16111 182.69 2.58981V125.699C182.69 127.128 181.671 128.289 180.417 128.289ZM103.564 0.113389C102.366 0.113389 101.391 1.22461 101.391 2.58981V125.699C101.391 127.064 102.366 128.175 103.564 128.175H180.417C181.615 128.175 182.59 127.064 182.59 125.699V2.58981C182.59 1.22461 181.615 0.113389 180.417 0.113389H103.564Z" fill="#EBEBEB"/>
</g>
<g id="Group_3">
<path id="Vector_4" d="M30.7577 152.836H20.4097V152.949H30.7577V152.836Z" fill="#EBEBEB"/>
<path id="Vector_5" d="M75.692 151.606H57.77V151.72H75.692V151.606Z" fill="#EBEBEB"/>
<path id="Vector_6" d="M55.3502 157.049H31.1558V157.162H55.3502V157.049Z" fill="#EBEBEB"/>
<path id="Vector_7" d="M178.591 156.287H170.938V156.4H178.591V156.287Z" fill="#EBEBEB"/>
<path id="Vector_8" d="M167.391 156.287H145.386V156.4H167.391V156.287Z" fill="#EBEBEB"/>
<path id="Vector_9" d="M131.945 154.368H102.306V154.482H131.945V154.368Z" fill="#EBEBEB"/>
</g>
</g>
<g id="Group_4">
<g id="Group_5">
<g id="Group_6">
<path id="Vector_10" d="M67.5163 109.176H45.7935L44.4761 91.8408H66.1989L67.5163 109.176Z" fill="#E6E6E6"/>
<path id="Vector_11" d="M68.6428 109.176H46.92L45.5986 91.8408H67.3215L68.6428 109.176Z" fill="#F0F0F0"/>
<path id="Vector_12" d="M49.8889 105.457L49.1646 95.5645H64.3522L65.0766 105.457H49.8889Z" fill="white"/>
</g>
<g id="Group_7">
<path id="Vector_13" d="M81.4344 109.176H78.334V148.513H81.4344V109.176Z" fill="#E6E6E6"/>
<path id="Vector_14" d="M82.4095 109.176H80.2563V148.513H82.4095V109.176Z" fill="#F0F0F0"/>
<path id="Vector_15" d="M52.3965 113.521H82.4097V109.18H52.3965V113.521Z" fill="#F0F0F0"/>
<path id="Vector_16" d="M53.4593 113.521H50.3589V148.517H53.4593V113.521Z" fill="#E6E6E6"/>
<path id="Vector_17" d="M54.4383 113.521H52.2852V148.517H54.4383V113.521Z" fill="#F0F0F0"/>
<path id="Vector_18" d="M31.3861 113.521H28.2856V148.517H31.3861V113.521Z" fill="#E6E6E6"/>
<path id="Vector_19" d="M32.3651 113.521H30.2119V148.517H32.3651V113.521Z" fill="#F0F0F0"/>
<path id="Vector_20" d="M61.8094 113.521H58.709V148.517H61.8094V113.521Z" fill="#E6E6E6"/>
<path id="Vector_21" d="M62.7884 113.521H60.6353V148.517H62.7884V113.521Z" fill="#F0F0F0"/>
<path id="Vector_22" d="M52.3965 109.176H28.2856V113.516H52.3965V109.176Z" fill="#E6E6E6"/>
</g>
</g>
<g id="Group_8">
<path id="Vector_23" d="M117.505 12.4551H27.4658V71.3178H117.505V12.4551Z" fill="#E6E6E6"/>
<path id="Vector_24" d="M119.909 12.4551H28.5884V71.3178H119.909V12.4551Z" fill="#F0F0F0"/>
<path id="Vector_25" d="M117.505 71.3174H27.4658V76.4154H117.505V71.3174Z" fill="#E6E6E6"/>
<path id="Vector_26" d="M123.917 71.3174H32.5962V76.4154H123.917V71.3174Z" fill="#F0F0F0"/>
<path id="Vector_27" d="M116.542 67.4808V16.2969L31.959 16.2969V67.4808H116.542Z" fill="#FAFAFA"/>
<path id="Vector_28" d="M38.1719 67.4808L57.9445 16.2969H67.2816L47.505 67.4808H38.1719Z" fill="white"/>
<path id="Vector_29" d="M33.5196 63.6569C33.3882 63.6569 33.2808 63.5345 33.2808 63.3848V18.7956C33.2808 18.6459 33.3882 18.5234 33.5196 18.5234C33.6509 18.5234 33.7584 18.6459 33.7584 18.7956V63.3848C33.7584 63.5345 33.6509 63.6569 33.5196 63.6569Z" fill="#F0F0F0"/>
<path id="Vector_30" d="M49.5112 67.4808L69.2878 16.2969H72.9256L53.1529 67.4808H49.5112Z" fill="white"/>
<path id="Vector_31" d="M116.538 67.4808V16.2969H116.108V67.4808H116.538Z" fill="#E6E6E6"/>
<path id="Vector_32" opacity="0.6" d="M120.705 22.0842H30.6658L30.3594 17.7891H120.395L120.705 22.0842Z" fill="#EBEBEB"/>
<path id="Vector_33" opacity="0.6" d="M120.705 29.1321H30.6658L30.3594 24.8369H120.395L120.705 29.1321Z" fill="#EBEBEB"/>
<path id="Vector_34" opacity="0.6" d="M120.705 36.1809H30.6658L30.3594 31.8857H120.395L120.705 36.1809Z" fill="#EBEBEB"/>
<path id="Vector_35" opacity="0.6" d="M120.705 43.2294H30.6658L30.3594 38.9297H120.395L120.705 43.2294Z" fill="#EBEBEB"/>
<path id="Vector_36" opacity="0.6" d="M120.705 50.2727H30.6658L30.3594 45.9775H120.395L120.705 50.2727Z" fill="#EBEBEB"/>
<path id="Vector_37" opacity="0.6" d="M120.705 57.3206H30.6658L30.3594 53.0254H120.395L120.705 57.3206Z" fill="#EBEBEB"/>
</g>
<g id="Group_9">
<g id="Group_10">
<path id="Vector_38" d="M145.437 40.0898H169.683V12.4591L145.437 12.4591V40.0898Z" fill="#EBEBEB"/>
<path id="Vector_39" d="M145.437 12.4551H144.362V40.0858H145.437V12.4551Z" fill="#E0E0E0"/>
<path id="Vector_40" d="M148.724 36.3438H166.399V16.2013L148.724 16.2013V36.3438Z" fill="white"/>
<path id="Vector_41" d="M157.562 33.0139L163.478 26.2725L157.562 19.5311L151.646 26.2725L157.562 33.0139Z" fill="#F5F5F5"/>
</g>
<g id="Group_11">
<path id="Vector_42" d="M137.083 76.416H161.329V48.7853H137.083V76.416Z" fill="#EBEBEB"/>
<path id="Vector_43" d="M137.083 48.7852H136.008V76.4159H137.083V48.7852Z" fill="#E0E0E0"/>
<path id="Vector_44" d="M140.37 72.6699H158.045V52.5274H140.37V72.6699Z" fill="white"/>
<path id="Vector_45" d="M147.948 66.8955H150.464C151.851 66.8955 152.975 65.6142 152.975 64.0336V61.1671C152.975 59.5865 151.851 58.3051 150.464 58.3051H147.948C146.561 58.3051 145.437 59.5865 145.437 61.1671V64.0336C145.437 65.6142 146.561 66.8955 147.948 66.8955Z" fill="#F5F5F5"/>
</g>
</g>
<g id="Group_12">
<g id="Group_13">
<path id="Vector_46" d="M122.472 89.8408H116.427V146.662H122.472V89.8408Z" fill="#F0F0F0"/>
<path id="Vector_47" d="M175.319 146.662H117.267V148.517H175.319V146.662Z" fill="#F0F0F0"/>
<path id="Vector_48" d="M122.473 146.662H176.155V89.8405H122.473V146.662Z" fill="#FAFAFA"/>
<path id="Vector_49" d="M165.648 123.046H132.988C129.78 123.046 127.173 120.075 127.173 116.419C127.173 112.764 129.78 109.793 132.988 109.793H165.648C168.855 109.793 171.462 112.764 171.462 116.419C171.462 120.075 168.855 123.046 165.648 123.046ZM132.988 110.237C129.999 110.237 127.563 113.009 127.563 116.419C127.563 119.83 129.995 122.601 132.988 122.601H165.648C168.636 122.601 171.072 119.83 171.072 116.419C171.072 113.009 168.64 110.237 165.648 110.237H132.988Z" fill="#F0F0F0"/>
<path id="Vector_50" d="M165.648 139.528H132.988C129.78 139.528 127.173 136.558 127.173 132.902C127.173 129.246 129.78 126.275 132.988 126.275H165.648C168.855 126.275 171.462 129.246 171.462 132.902C171.462 136.558 168.855 139.528 165.648 139.528ZM132.988 126.72C129.999 126.72 127.563 129.491 127.563 132.902C127.563 136.313 129.995 139.084 132.988 139.084H165.648C168.636 139.084 171.072 136.313 171.072 132.902C171.072 129.491 168.64 126.72 165.648 126.72H132.988Z" fill="#F0F0F0"/>
<path id="Vector_51" d="M154.245 114.99H144.386C143.718 114.99 143.172 114.369 143.172 113.607C143.172 112.845 143.718 112.224 144.386 112.224H154.245C154.913 112.224 155.459 112.845 155.459 113.607C155.459 114.369 154.913 114.99 154.245 114.99Z" fill="#EBEBEB"/>
<path id="Vector_52" d="M165.648 106.559H132.988C129.78 106.559 127.173 103.588 127.173 99.9321C127.173 96.2765 129.78 93.3057 132.988 93.3057H165.648C168.855 93.3057 171.462 96.2765 171.462 99.9321C171.462 103.588 168.855 106.559 165.648 106.559ZM132.988 93.7501C129.999 93.7501 127.563 96.5214 127.563 99.9321C127.563 103.343 129.995 106.114 132.988 106.114H165.648C168.636 106.114 171.072 103.343 171.072 99.9321C171.072 96.5214 168.64 93.7501 165.648 93.7501H132.988Z" fill="#F0F0F0"/>
<path id="Vector_53" d="M154.245 98.504H144.386C143.718 98.504 143.172 97.8826 143.172 97.1207C143.172 96.3587 143.718 95.7373 144.386 95.7373H154.245C154.913 95.7373 155.459 96.3587 155.459 97.1207C155.459 97.8826 154.913 98.504 154.245 98.504Z" fill="#EBEBEB"/>
<path id="Vector_54" d="M154.245 131.473H144.386C143.718 131.473 143.172 130.851 143.172 130.089C143.172 129.327 143.718 128.706 144.386 128.706H154.245C154.913 128.706 155.459 129.327 155.459 130.089C155.459 130.851 154.913 131.473 154.245 131.473Z" fill="#EBEBEB"/>
</g>
<path id="Vector_55" d="M177.261 86.9521H122.477V89.8413H177.261V86.9521Z" fill="#F0F0F0"/>
<path id="Vector_56" d="M115.241 89.8457H122.472V86.9565H115.241V89.8457Z" fill="#E6E6E6"/>
</g>
</g>
</g>
<g id="Shadow">
<path id="&#38;lt;Path&#38;gt;" d="M99.4998 169C142.119 169 176.668 166.701 176.668 163.866C176.668 161.03 142.119 158.731 99.4998 158.731C56.8809 158.731 22.3315 161.03 22.3315 163.866C22.3315 166.701 56.8809 169 99.4998 169Z" fill="#F5F5F5"/>
</g>
<g id="Terms and Conditions">
<g id="Group_14">
<g id="Group_15">
<path id="Vector_57" d="M164.629 42.3076H104.642C104.642 42.3076 93.8327 53.6329 93.8327 81.2183C93.8327 104.926 102.027 137.065 98.951 150.227C96.6306 160.155 85.3792 161.856 79.9902 162.097H137.087C137.087 162.097 155.865 163.389 158.941 150.227C162.018 137.065 153.823 104.926 153.823 81.2183C153.823 53.6329 164.633 42.3076 164.633 42.3076H164.629Z" fill="#FFC727"/>
<path id="Vector_58" opacity="0.7" d="M164.629 42.3076H104.642C104.642 42.3076 93.8327 53.6329 93.8327 81.2183C93.8327 104.926 102.027 137.065 98.951 150.227C96.6306 160.155 85.3792 161.856 79.9902 162.097H137.087C137.087 162.097 155.865 163.389 158.941 150.227C162.018 137.065 153.823 104.926 153.823 81.2183C153.823 53.6329 164.633 42.3076 164.633 42.3076H164.629Z" fill="white"/>
</g>
<g id="Group_16" opacity="0.8">
<path id="Vector_59" opacity="0.8" d="M148.311 71.381H100.336C101.693 59.2529 105.351 52.1955 107.369 49.1113H153.608C151.36 54.5087 149.218 61.8608 148.311 71.381Z" fill="#FFC727"/>
<path id="Vector_60" opacity="0.3" d="M147.909 77.8121H99.8662C99.906 76.71 99.9617 75.6396 100.041 74.6055H148.056C147.988 75.6487 147.941 76.719 147.909 77.8121Z" fill="#FFC727"/>
<path id="Vector_61" opacity="0.3" d="M114.931 84.2392H99.8504C99.8226 83.2142 99.8066 82.2073 99.8066 81.214V81.0371H114.891V81.214C114.891 82.2118 114.903 83.2233 114.931 84.2392Z" fill="#FFC727"/>
<path id="Vector_62" opacity="0.3" d="M148.196 90.666H100.189C100.105 89.5865 100.038 88.5161 99.9858 87.4639H148.013C148.06 88.5252 148.12 89.5911 148.196 90.666Z" fill="#FFC727"/>
<path id="Vector_63" opacity="0.3" d="M148.725 97.0973H100.758C100.646 96.0223 100.543 94.9519 100.447 93.8906H148.434C148.522 94.9565 148.621 96.0269 148.725 97.0973Z" fill="#FFC727"/>
<path id="Vector_64" opacity="0.3" d="M149.417 103.524H101.482C101.351 102.454 101.227 101.384 101.108 100.322H149.059C149.17 101.388 149.29 102.454 149.417 103.524Z" fill="#FFC727"/>
<path id="Vector_65" opacity="0.3" d="M150.209 109.951H102.298C102.159 108.881 102.02 107.815 101.884 106.749H149.807C149.939 107.815 150.074 108.885 150.209 109.951Z" fill="#FFC727"/>
<path id="Vector_66" opacity="0.3" d="M151.057 116.383H103.15C103.074 115.798 102.995 115.204 102.915 114.61C102.851 114.134 102.788 113.658 102.724 113.177H150.631C150.775 114.247 150.914 115.318 151.057 116.383Z" fill="#FFC727"/>
<path id="Vector_67" opacity="0.3" d="M103.986 122.81C103.854 121.753 103.719 120.687 103.576 119.607H151.487C151.626 120.678 151.77 121.744 151.905 122.81H103.986Z" fill="#FFC727"/>
<path id="Vector_68" opacity="0.3" d="M104.746 129.236C104.635 128.189 104.511 127.118 104.384 126.034H144.343C144.478 127.114 144.606 128.184 144.725 129.236H104.746Z" fill="#FFC727"/>
<path id="Vector_69" opacity="0.3" d="M105.335 135.669C105.259 134.621 105.172 133.55 105.072 132.462H153.039C153.147 133.56 153.246 134.63 153.33 135.669H105.335Z" fill="#FFC727"/>
<path id="Vector_70" opacity="0.3" d="M105.61 142.095C105.606 141.061 105.574 139.99 105.522 138.893H130.831C130.894 140.013 130.93 141.083 130.942 142.095H105.61Z" fill="#FFC727"/>
</g>
<path id="Vector_71" d="M141.692 158.622C138.647 159.253 135.563 158.772 132.502 158.604C131.034 158.523 129.557 158.518 128.096 158.74C126.668 158.958 125.239 159.384 123.794 159.239C124.272 158.944 124.717 158.6 125.135 158.201C125.227 158.114 125.167 157.956 125.068 157.915C120.574 156.119 116.483 161.013 112.005 159.865C113.271 158.795 115.058 158.772 116.14 157.371C116.224 157.262 116.168 157.085 116.033 157.08C112.025 157.008 108.236 158.781 104.276 159.176C104.085 159.194 104.085 159.534 104.276 159.516C108.117 159.135 111.798 157.461 115.671 157.425C114.513 158.604 112.746 158.645 111.567 159.833C111.48 159.92 111.532 160.087 111.635 160.119C116.144 161.539 120.256 156.631 124.709 158.151C124.244 158.563 123.742 158.913 123.201 159.198C123.09 159.257 123.113 159.484 123.237 159.511C124.705 159.793 126.142 159.434 127.587 159.171C129.211 158.876 130.851 158.863 132.49 158.953C135.583 159.126 138.687 159.598 141.76 158.963C141.947 158.922 141.867 158.595 141.68 158.636L141.692 158.622Z" fill="#FFC727"/>
</g>
</g>
<g id="Character">
<g id="Group_17">
<path id="Vector_72" d="M60.4483 59.0439C60.6991 59.4113 61.0215 59.8422 61.316 60.2413C61.6185 60.645 61.9329 61.0441 62.2513 61.4342C62.8921 62.2143 63.5408 62.9808 64.2254 63.6929C65.5905 65.1035 67.0591 66.378 68.5954 67.1853C68.7864 67.2851 68.9775 67.3758 69.1725 67.4574C69.272 67.5028 69.3596 67.5345 69.4431 67.5663C69.5267 67.598 69.6143 67.6298 69.7058 67.6525C70.064 67.7568 70.458 67.8294 70.872 67.8611C71.7038 67.911 72.5993 67.852 73.5067 67.6888C74.4142 67.5391 75.3335 67.3032 76.2489 67.0266C77.1604 66.7544 78.0996 66.4188 78.9713 66.0696L79.7752 67.8656C77.9922 69.1175 76.1415 70.0881 74.0838 70.7503C73.057 71.0723 71.9824 71.3081 70.8361 71.349C70.263 71.3671 69.666 71.3354 69.0571 71.2129C68.9058 71.1857 68.7506 71.1494 68.5994 71.104C68.4402 71.0632 68.2929 71.0179 68.1576 70.968C67.879 70.8773 67.6084 70.7684 67.3417 70.655C65.2204 69.7162 63.4532 68.2829 61.8652 66.7181C61.0732 65.929 60.313 65.1125 59.6086 64.2417C59.2543 63.8063 58.9081 63.3664 58.5698 62.9128C58.2235 62.4547 57.9171 62.0147 57.5708 61.4841L60.4404 59.053L60.4483 59.0439Z" fill="#FFB573"/>
<path id="Vector_73" d="M56.4008 57.7598C56.3132 60.2997 57.1769 64.8761 57.1769 64.8761L62.6931 64.1141C62.6931 64.1141 62.8961 57.4151 61.8255 55.7913C60.0305 53.07 56.4804 55.3559 56.3968 57.7552L56.4008 57.7598Z" fill="#FFC727"/>
<path id="Vector_74" d="M78.2549 66.7176L80.8419 64.0234L81.1722 66.9262C81.1722 66.9262 80.1016 68.559 78.8877 67.8741L78.2589 66.7176H78.2549Z" fill="#FFB573"/>
<path id="Vector_75" d="M82.1354 64.1822L83.2299 65.815L81.1682 66.9262L80.8379 64.0234L82.1354 64.1822Z" fill="#FFB573"/>
<g id="Group_18">
<path id="Vector_76" d="M81.4826 56.8391C81.7572 56.821 81.9084 56.8391 82.1034 56.8391C82.2029 56.8391 82.2905 56.8437 82.3502 56.8573L82.5572 56.889C82.7999 56.9434 82.9512 57.0205 83.0507 57.1158C83.1462 57.211 83.1502 57.3335 83.186 57.4469L83.2776 57.7916L83.6477 59.1704L84.388 61.9235L85.8646 67.4297C86.8397 71.1035 87.8546 74.7682 88.7938 78.4511C90.7241 85.8078 92.5549 93.1917 94.3459 100.589C96.1369 107.987 97.8284 115.412 99.5597 122.827C101.319 130.234 102.847 137.708 103.4 145.469C103.488 146.707 102.68 147.796 101.594 147.895C100.742 147.972 99.9697 147.419 99.6354 146.585C96.8096 139.491 94.9628 132.111 93.347 124.664C91.7032 117.226 90.0157 109.796 88.4317 102.34C86.8476 94.8835 85.2994 87.4134 83.8547 79.9161C83.1064 76.1743 82.4338 72.4097 81.7174 68.6588L80.6627 63.0256L80.1334 60.209L79.8707 58.803L79.803 58.4492C79.7871 58.3313 79.7393 58.2225 79.7791 58.0864C79.8229 57.9503 79.9264 57.7961 80.1134 57.6147L80.2806 57.4741C80.3284 57.4287 80.404 57.3743 80.4916 57.3199C80.6627 57.2065 80.7861 57.1113 81.0328 56.9752C81.1761 56.8981 81.3313 56.8527 81.4786 56.8437L81.4826 56.8391Z" fill="#263238"/>
<g id="Group_19">
<path id="Vector_77" d="M103.026 146.594C102.959 146.34 102.732 146.185 102.509 146.253L101.633 146.512L100.758 146.77C100.531 146.838 100.399 147.097 100.451 147.356C100.996 150.208 100.463 152.259 101.036 154.767C101.637 157.411 104.252 158.767 104.252 158.767L104.168 157.642L104.574 158.676C104.574 158.676 106.282 156.046 105.681 153.401C105.112 150.889 103.77 149.397 103.03 146.598L103.026 146.594Z" fill="#FFC727"/>
<path id="Vector_78" opacity="0.3" d="M103.026 146.594C102.959 146.34 102.732 146.185 102.509 146.253L101.633 146.512L100.758 146.77C100.531 146.838 100.399 147.097 100.451 147.356C100.996 150.208 100.463 152.259 101.036 154.767C101.637 157.411 104.252 158.767 104.252 158.767L104.168 157.642L104.574 158.676C104.574 158.676 106.282 156.046 105.681 153.401C105.112 150.889 103.77 149.397 103.03 146.598L103.026 146.594Z" fill="white"/>
</g>
<path id="Vector_79" d="M103.707 153.152C103.782 153.487 103.607 153.827 103.313 153.914C103.018 154 102.72 153.8 102.644 153.465C102.568 153.129 102.744 152.789 103.038 152.703C103.333 152.616 103.631 152.816 103.707 153.152Z" fill="#263238"/>
<path id="Vector_80" d="M104.196 157.778C104.129 157.796 104.061 157.751 104.045 157.678L103.058 153.342C103.042 153.265 103.082 153.188 103.146 153.17C103.209 153.152 103.281 153.197 103.297 153.27L104.284 157.606C104.3 157.683 104.26 157.76 104.196 157.778Z" fill="#263238"/>
<path id="Vector_81" d="M100.973 131.014L95.6076 132.597C95.3011 132.688 94.9827 132.475 94.9031 132.125C94.8235 131.776 95.0106 131.413 95.317 131.323L100.682 129.74C100.989 129.649 101.307 129.862 101.387 130.211C101.466 130.561 101.279 130.923 100.973 131.014Z" fill="#FFC727"/>
</g>
<path id="Vector_82" d="M73.7377 48.009C73.6421 48.2811 73.6899 48.5669 73.8451 48.644C74.0003 48.7211 74.2073 48.5623 74.3028 48.2902C74.3983 48.0181 74.3506 47.7323 74.1954 47.6552C74.0401 47.5781 73.8332 47.7369 73.7377 48.009Z" fill="#263238"/>
<path id="Vector_83" d="M74.1235 47.6367L74.7643 47.732C74.7643 47.732 74.2907 48.0993 74.1235 47.6367Z" fill="#263238"/>
<path id="Vector_84" d="M73.849 48.3721C73.849 48.3721 73.841 49.7463 74.0878 50.5355C73.6539 50.717 73.1724 50.2952 73.1724 50.2952L73.849 48.3721Z" fill="#ED893E"/>
<path id="Vector_85" d="M74.7006 46.3491C74.6767 46.3445 74.6528 46.3309 74.6329 46.3128C74.1155 45.8048 73.5782 45.9545 73.5544 45.959C73.4748 45.9817 73.3912 45.9272 73.3673 45.8365C73.3474 45.7458 73.3952 45.6506 73.4748 45.6234C73.5026 45.6143 74.1872 45.4193 74.828 46.0497C74.8916 46.1132 74.8996 46.2221 74.8439 46.2946C74.8041 46.3445 74.7484 46.3627 74.6966 46.3491H74.7006Z" fill="#263238"/>
<path id="Vector_86" d="M65.3001 47.8678C65.4712 50.0721 64.8225 53.6915 63.3618 54.9206C63.3618 54.9206 64.4643 57.2428 67.9945 57.7826C71.875 58.3767 70.0522 55.8867 70.0522 55.8867C67.9866 54.9887 68.2055 53.2198 68.7308 51.6051L65.3001 47.8633V47.8678Z" fill="#FFB573"/>
<path id="Vector_87" d="M75.8746 59.652C76.1771 61.7157 76.5552 63.8519 76.9532 65.9292C77.1642 66.9679 77.3751 68.0111 77.6219 69.0316C77.8487 70.0611 78.1154 71.0726 78.39 72.0749C78.5373 72.5648 78.6726 73.0728 78.8318 73.5535L79.0706 74.2792L79.1303 74.4561L79.1462 74.506C79.1581 74.5378 79.1621 74.565 79.1741 74.5876C79.2099 74.6738 79.2974 74.8053 79.5482 74.9187C79.791 75.0276 80.1412 75.1002 80.5233 75.1319C81.2994 75.1818 82.1869 75.0684 83.0705 74.8961C83.954 74.7192 84.8774 74.4743 85.7411 74.1976L86.4694 76.039C86.0117 76.352 85.5779 76.6014 85.1162 76.8554C84.6625 77.1094 84.1928 77.3362 83.7113 77.5358C82.7441 77.9394 81.7372 78.2751 80.587 78.3839C80.0099 78.4338 79.393 78.4293 78.7084 78.2388C78.0398 78.0574 77.2438 77.631 76.6826 76.8464C76.5393 76.6559 76.4199 76.4518 76.3164 76.2431C76.2647 76.1388 76.2169 76.0345 76.1731 75.9256L76.0935 75.7261L75.7831 74.9323C75.5801 74.4017 75.401 73.871 75.214 73.3358C74.8717 72.2654 74.5453 71.1905 74.2627 70.111C73.9762 69.027 73.7294 67.943 73.4866 66.8545C73.009 64.6683 72.627 62.5049 72.3364 60.2416L75.8746 59.6475V59.652Z" fill="#FFB573"/>
<path id="Vector_88" d="M85.347 74.3283L86.8833 72.9404L87.5718 75.6391C87.5718 75.6391 85.4704 77.3717 84.9092 75.3352L85.347 74.3328V74.3283Z" fill="#FFB573"/>
<path id="Vector_89" d="M88.2723 73.4212L88.8216 75.3851L87.5758 75.6391L86.8833 72.9404L88.2723 73.4212Z" fill="#FFB573"/>
<path id="Vector_90" d="M59.5688 159.86L62.7807 160.128L63.7319 151.724L60.5201 151.456L59.5688 159.86Z" fill="#FFB573"/>
<path id="Vector_91" d="M39 149.184L41.782 151.112L46.4108 144.526L43.6287 142.599L39 149.184Z" fill="#FFB573"/>
<path id="Vector_92" d="M43.7241 152.082C43.6883 152.096 43.6485 152.1 43.6087 152.1C43.1987 152.091 42.7371 151.388 42.4983 150.971C42.4823 150.944 42.4823 150.903 42.4983 150.876C42.5142 150.848 42.546 150.83 42.5779 150.839C42.7092 150.871 43.8594 151.143 44.0107 151.583C44.0425 151.678 44.0306 151.783 43.9748 151.873C43.9032 151.982 43.8236 152.055 43.7281 152.087L43.7241 152.082ZM42.7331 151.052C43.0674 151.597 43.3938 151.919 43.6127 151.923C43.7042 151.923 43.7798 151.873 43.8475 151.769C43.8833 151.71 43.8753 151.669 43.8674 151.642C43.7878 151.411 43.1908 151.179 42.7331 151.052Z" fill="#FFC727"/>
<path id="Vector_93" d="M43.5531 150.948C43.2068 151.057 42.7571 151.07 42.5382 151.007C42.5103 150.998 42.4904 150.975 42.4864 150.948C42.4785 150.916 42.4864 150.889 42.5063 150.866C42.5342 150.834 43.163 150.095 43.6287 150.118C43.7561 150.122 43.8595 150.181 43.9391 150.295C44.0625 150.467 44.0187 150.608 43.9789 150.676C43.9073 150.803 43.7481 150.893 43.5531 150.957V150.948ZM42.7173 150.866C43.1033 150.916 43.7282 150.784 43.8476 150.576C43.8675 150.539 43.8834 150.49 43.8197 150.399C43.768 150.326 43.7043 150.29 43.6207 150.286C43.3421 150.272 42.9402 150.63 42.7173 150.866Z" fill="#FFC727"/>
<path id="Vector_94" d="M42.6179 150.404L39.9791 147.51C39.8836 147.406 39.7443 147.392 39.6408 147.483L37.3881 149.465C37.1533 149.669 37.1493 150.1 37.3762 150.341C38.3115 151.334 38.805 151.76 39.9672 153.035C40.6796 153.819 41.6547 155.044 42.6417 156.128C43.6049 157.185 44.5919 156.187 44.2616 155.638C42.789 153.18 43.0119 152.259 42.8766 150.998C42.8527 150.771 42.7611 150.563 42.6179 150.409V150.404Z" fill="#263238"/>
<path id="Vector_95" d="M64.1737 160.251C63.8195 160.251 63.4374 160.183 63.1668 160.119C63.1349 160.11 63.111 160.083 63.1071 160.047C63.1031 160.01 63.119 159.974 63.1469 159.956C63.2941 159.87 64.5956 159.122 64.9816 159.371C65.0573 159.421 65.101 159.498 65.105 159.602C65.113 159.775 65.0652 159.915 64.9578 160.024C64.7906 160.192 64.4961 160.246 64.1737 160.246V160.251ZM63.4215 159.997C64.1299 160.133 64.6593 160.097 64.8583 159.897C64.9299 159.825 64.9617 159.734 64.9538 159.616C64.9538 159.571 64.9379 159.543 64.906 159.525C64.6951 159.389 63.9548 159.707 63.4215 159.997Z" fill="#FFC727"/>
<path id="Vector_96" d="M63.1786 160.119C63.1786 160.119 63.1468 160.115 63.1349 160.101C63.111 160.083 63.103 160.051 63.103 160.024C63.111 159.961 63.2582 158.464 63.9746 158.464C63.9945 158.464 64.0144 158.464 64.0383 158.464C64.2453 158.487 64.305 158.609 64.3209 158.704C64.3806 159.117 63.6005 159.911 63.2105 160.11C63.2025 160.115 63.1906 160.119 63.1786 160.119ZM63.9786 158.636C63.5169 158.636 63.3339 159.507 63.2742 159.879C63.6761 159.607 64.2015 158.985 64.1697 158.736C64.1697 158.718 64.1577 158.654 64.0224 158.641C64.0065 158.641 63.9945 158.641 63.9786 158.641V158.636Z" fill="#FFC727"/>
<path id="Vector_97" d="M62.9797 159.606H59.3698C59.2385 159.606 59.131 159.711 59.1071 159.856L58.6215 163.112C58.5698 163.448 58.8206 163.77 59.123 163.766C60.3807 163.743 60.9897 163.657 62.5777 163.657C63.5528 163.657 65.5706 163.77 66.9199 163.77C68.2691 163.77 68.3726 162.251 67.8154 162.115C65.3119 161.498 64.3408 160.645 63.509 159.833C63.3578 159.688 63.1707 159.606 62.9757 159.606H62.9797Z" fill="#263238"/>
<g id="Group_20">
<path id="Vector_98" opacity="0.2" d="M63.7317 151.729L63.2024 156.4L60.0264 155.792L60.5199 151.461L63.7317 151.729Z" fill="black"/>
<path id="Vector_99" opacity="0.2" d="M43.625 142.599L46.411 144.526L44.4926 147.252L41.6509 145.406L43.625 142.599Z" fill="black"/>
</g>
<path id="Vector_100" d="M57.9486 76.9725C60.464 77.358 65.7972 78.1744 70.9513 78.9636C75.99 58.1816 74.5054 57.6101 74.5054 57.6101C74.1074 57.338 73.3313 57.0659 72.7343 56.821C72.1214 56.567 71.5005 56.3357 70.8757 56.127C69.6259 55.7052 68.3523 55.3696 67.0668 55.1156C64.5713 54.6257 62.0201 54.4625 59.4928 54.6303C58.9993 54.662 58.4939 54.984 58.2153 55.4557C58.1635 55.5465 58.1158 55.6417 58.076 55.7415C57.9367 56.0862 57.881 56.4717 57.9208 56.8482C59.0312 67.7834 58.6769 71.3802 57.9446 76.9725H57.9486Z" fill="#FFC727"/>
<path id="Vector_101" opacity="0.2" d="M72.2169 63.9873C71.8587 66.89 72.5115 69.2395 72.9214 70.3552C73.7851 66.3004 74.2547 63.5337 74.4855 61.6469C73.4945 61.5653 72.4597 62.0007 72.2169 63.9873Z" fill="black"/>
<path id="Vector_102" d="M74.3903 57.5516C76.6151 59.0075 78.1633 62.4636 78.633 64.4774L73.8888 69.4303C73.8888 69.4303 71.4292 62.9126 71.6282 60.8852C71.8272 58.8352 73.5505 57.0028 74.3903 57.5516Z" fill="#FFC727"/>
<path id="Vector_103" d="M66.0044 43.3052C65.0054 46.7432 64.5199 48.1719 65.3955 50.6257C66.7168 54.3131 70.6292 55.0932 72.5077 52.0952C74.1992 49.3965 75.5484 44.2305 73.1405 41.4774C70.7724 38.7651 66.9994 39.8718 66.0004 43.3098L66.0044 43.3052Z" fill="#FFB573"/>
<path id="Vector_104" d="M70.9516 46.3582C70.7247 46.966 70.7247 47.7189 70.8561 48.3312C71.0551 49.2474 71.6561 49.3154 72.0222 48.7303C72.3526 48.2042 72.6471 47.093 72.2451 46.3265C71.8511 45.5736 71.2103 45.6643 70.9516 46.3582Z" fill="#FFB573"/>
<path id="Vector_105" d="M67.0868 39.0283C64.9416 37.6677 61.073 41.6499 60.0979 48.1494C59.4014 52.8029 68.1216 55.0525 73.6299 54.9799C73.2677 53.8823 70.9792 50.5804 72.4399 47.4055C73.5025 45.0969 74.7125 45.6276 74.7921 42.9425C74.8916 39.559 70.9593 37.2912 67.0908 39.0329L67.0868 39.0283Z" fill="#263238"/>
<path id="Vector_106" d="M71.9785 40.4887C74.474 40.212 76.9893 43.0105 75.1227 45.7998C75.1227 45.7998 73.7615 44.421 71.8432 44.9018C70.7049 45.1875 71.9785 40.4932 71.9785 40.4932V40.4887Z" fill="#263238"/>
<path id="Vector_107" d="M67.5205 78.438C67.5205 78.438 62.4699 102.762 60.1097 116.732C57.6183 131.472 45.6743 146.83 45.6743 146.83L41.6187 144.254C41.6187 144.254 49.1369 130.234 51.5726 116.473C56.5238 88.5342 53.1726 82.9055 57.9486 76.9775L67.5205 78.4425V78.438Z" fill="#263238"/>
<path id="Vector_108" d="M46.0763 147.261L41.0098 144.045L41.75 142.34L47.4335 145.315L46.0763 147.261Z" fill="#FFC727"/>
<path id="Vector_109" opacity="0.2" d="M64.8341 83.7216C60.9098 87.604 61.3317 101.388 61.7417 107.601C63.3894 98.7706 65.3714 88.933 66.5296 83.2408C66.1157 82.887 65.5545 83.005 64.8302 83.7171L64.8341 83.7216Z" fill="black"/>
<path id="Vector_110" d="M70.7605 78.9735C70.7605 78.9735 73.0331 107.847 71.7913 118.859C70.5018 130.316 63.9428 155.239 63.9428 155.239L59.3101 154.559C59.3101 154.559 63.0712 129.858 63.7398 118.519C64.4681 106.155 61.2324 77.5176 61.2324 77.5176L70.7565 78.9735H70.7605Z" fill="#263238"/>
<path id="Vector_111" d="M64.926 155.547L58.3271 154.572L58.4266 152.35L65.5906 153.143L64.926 155.547Z" fill="#FFC727"/>
<g id="Group_21">
<path id="Vector_112" d="M57.8335 76.0796L57.1251 77.3087C57.0693 77.404 57.1688 77.5264 57.3161 77.5491L70.9556 79.6355C71.071 79.6536 71.1745 79.6037 71.1904 79.5221L71.4292 78.2249C71.4451 78.1342 71.3496 78.0435 71.2222 78.0208L58.0524 76.007C57.9569 75.9934 57.8653 76.0252 57.8295 76.0841L57.8335 76.0796Z" fill="#FFC727"/>
<path id="Vector_113" opacity="0.5" d="M57.8335 76.0796L57.1251 77.3087C57.0693 77.404 57.1688 77.5264 57.3161 77.5491L70.9556 79.6355C71.071 79.6536 71.1745 79.6037 71.1904 79.5221L71.4292 78.2249C71.4451 78.1342 71.3496 78.0435 71.2222 78.0208L58.0524 76.007C57.9569 75.9934 57.8653 76.0252 57.8295 76.0841L57.8335 76.0796Z" fill="black"/>
</g>
<path id="Vector_114" d="M59.4494 78.0164L59.0952 77.962C59.0236 77.9529 58.9758 77.903 58.9838 77.8532L59.3101 76.1659C59.3181 76.116 59.3858 76.0843 59.4534 76.0979L59.8076 76.1523C59.8793 76.1614 59.927 76.2113 59.9191 76.2612L59.5927 77.9484C59.5848 77.9983 59.5171 78.03 59.4494 78.0164Z" fill="#263238"/>
<path id="Vector_115" d="M68.3567 79.3992L68.0024 79.3448C67.9308 79.3357 67.883 79.2859 67.891 79.236L68.2174 77.5487C68.2253 77.4988 68.293 77.4671 68.3606 77.4807L68.7149 77.5351C68.7865 77.5442 68.8343 77.5941 68.8263 77.644L68.4999 79.3312C68.492 79.3811 68.4243 79.4129 68.3567 79.3992Z" fill="#263238"/>
</g>
</g>
</g>
<defs>
<clipPath id="clip0_338_10533">
<rect width="199" height="169" fill="white"/>
</clipPath>
</defs>
</svg>
