<svg width="200" height="35" viewBox="0 0 200 35" fill="none" xmlns="http://www.w3.org/2000/svg">
<path d="M0 35V34.4697L1.01118 34.0985C1.68529 33.8864 2.12347 33.5682 2.32571 33.1439C2.56165 32.7197 2.67962 32.154 2.67962 31.447V3.65909C2.67962 2.95202 2.56165 2.38636 2.32571 1.96212C2.08977 1.53788 1.63474 1.20202 0.960618 0.954546L0 0.530303V0H12.2858C17.308 0 20.9314 0.972222 23.1559 2.91667C25.4142 4.82576 26.5434 7.35354 26.5434 10.5C26.5434 12.5152 26.0715 14.3712 25.1277 16.0682C24.2177 17.7298 22.7009 19.0556 20.5774 20.0455C18.454 21.0354 15.589 21.5303 11.9824 21.5303H10.2634V31.2879C10.2634 32.6667 10.9207 33.5682 12.2352 33.9924L13.752 34.4697V35H0ZM10.2634 20.4697H12.1847C13.8363 20.4697 15.1845 20.1869 16.2294 19.6212C17.2743 19.0556 18.0495 18.0657 18.5551 16.6515C19.0607 15.2374 19.3135 13.2753 19.3135 10.7652C19.3135 8.2197 19.027 6.2399 18.454 4.82576C17.9147 3.41162 17.1057 2.43939 16.0272 1.90909C14.9486 1.34343 13.6003 1.06061 11.9824 1.06061H10.2634V20.4697Z" fill="#222222"/>
<path d="M34.1314 35V34.4697L35.1426 34.0985C36.2886 33.7096 36.8616 32.702 36.8616 31.0758V3.92424C36.8616 3.21717 36.7773 2.65152 36.6088 2.22727C36.474 1.80303 36.0864 1.44949 35.446 1.16667L34.1314 0.530303V0H43.8893L53.2427 25.6667L62.0399 0H72V0.530303L71.1911 0.848483C70.5506 1.09596 70.1125 1.4495 69.8765 1.90909C69.6406 2.33333 69.5226 2.89899 69.5226 3.60606V31.3409C69.5226 32.048 69.6069 32.596 69.7754 32.9848C69.9439 33.3737 70.3484 33.7096 70.9888 33.9924L72 34.4697V35H59.4109V34.4697L60.4726 33.9924C61.113 33.7096 61.5175 33.3737 61.686 32.9848C61.8545 32.596 61.9388 32.048 61.9388 31.3409V19.4091L62.0399 4.24242L51.4731 35H48.9452L37.9233 4.61364L38.075 17.8182V31.1818C38.075 31.9596 38.1761 32.596 38.3784 33.0909C38.6143 33.5505 39.0525 33.8864 39.6929 34.0985L40.8052 34.4697V35H34.1314Z" fill="#222222"/>
<path d="M0 15H72V29.25H0V15Z" fill="#fff"/>
<path d="M11.4059 26.0366V25.9181L11.6325 25.8351C11.7835 25.7877 11.8816 25.7166 11.9269 25.6218C11.9798 25.5269 12.0062 25.4005 12.0062 25.2425V19.0312C12.0062 18.8732 11.9798 18.7468 11.9269 18.6519C11.8741 18.5571 11.7721 18.482 11.6211 18.4267L11.4059 18.3319V18.2134H14.1581C15.2831 18.2134 16.0948 18.4307 16.5931 18.8653C17.099 19.292 17.3519 19.857 17.3519 20.5603C17.3519 21.0108 17.2462 21.4256 17.0348 21.805C16.8309 22.1764 16.4912 22.4727 16.0155 22.694C15.5398 22.9152 14.898 23.0259 14.0901 23.0259H13.7051V25.2069C13.7051 25.5151 13.8523 25.7166 14.1468 25.8114L14.4865 25.9181V26.0366H11.4059ZM13.7051 22.7888H14.1354C14.5054 22.7888 14.8074 22.7256 15.0415 22.5991C15.2756 22.4727 15.4492 22.2514 15.5625 21.9353C15.6757 21.6193 15.7324 21.1807 15.7324 20.6196C15.7324 20.0506 15.6682 19.6081 15.5398 19.292C15.419 18.9759 15.2378 18.7586 14.9962 18.6401C14.7546 18.5137 14.4526 18.4504 14.0901 18.4504H13.7051V22.7888Z" fill="#222222"/>
<path d="M18.4354 26.0366V25.9181L18.6732 25.8351C18.8242 25.7798 18.9224 25.7087 18.9677 25.6218C19.013 25.5269 19.0357 25.3966 19.0357 25.2306V19.0312C19.0357 18.8732 19.013 18.7507 18.9677 18.6638C18.9299 18.569 18.8393 18.4939 18.6959 18.4386L18.4354 18.3319V18.2134H21.6745C22.5655 18.2134 23.2488 18.3912 23.7245 18.7468C24.2002 19.0945 24.438 19.5805 24.438 20.2047C24.438 20.5524 24.3134 20.9001 24.0643 21.2478C23.8151 21.5955 23.4225 21.8642 22.8864 22.0539L24.4607 25.3254C24.5286 25.4598 24.6041 25.5704 24.6872 25.6573C24.7778 25.7364 24.8948 25.8075 25.0383 25.8707L25.1855 25.93V26.0366H23.1582L21.482 22.3028H20.7119V25.2306C20.7119 25.3807 20.7345 25.5032 20.7798 25.5981C20.8251 25.6929 20.9195 25.764 21.063 25.8114L21.3348 25.9181V26.0366H18.4354ZM20.7119 22.0657H21.2555C21.7991 22.0657 22.1917 21.9156 22.4334 21.6153C22.675 21.3071 22.7958 20.8527 22.7958 20.2522C22.7958 19.6437 22.6825 19.1932 22.456 18.9009C22.2295 18.6006 21.8482 18.4504 21.3121 18.4504H20.7119V22.0657Z" fill="#222222"/>
<path d="M26.2353 26.0366V25.9181L26.5185 25.8114C26.6695 25.7482 26.7865 25.6731 26.8696 25.5862C26.9526 25.4914 27.0206 25.361 27.0734 25.195L29.4065 18.1897H30.3692L32.6683 25.2425C32.7287 25.4163 32.7967 25.5506 32.8722 25.6455C32.9477 25.7324 33.0647 25.8075 33.2233 25.8707L33.3592 25.9181V26.0366H30.4825V25.9181L30.6524 25.8588C30.8109 25.7956 30.9053 25.7087 30.9355 25.5981C30.9733 25.4795 30.9695 25.3412 30.9242 25.1832L30.3919 23.4763H27.8776L27.3339 25.1476C27.2811 25.3215 27.2622 25.4598 27.2773 25.5625C27.3 25.6652 27.3906 25.7482 27.5491 25.8114L27.7983 25.9181V26.0366H26.2353ZM27.9569 23.2392H30.3239L29.18 19.5528L27.9569 23.2392Z" fill="#222222"/>
<path d="M36.1805 26.0722L33.7569 19.0075C33.704 18.8495 33.6323 18.727 33.5417 18.6401C33.4586 18.5453 33.3416 18.4741 33.1906 18.4267L32.9187 18.3319V18.2134H36.1805V18.3319L35.8295 18.4386C35.6558 18.486 35.5576 18.569 35.535 18.6875C35.5199 18.806 35.5388 18.9522 35.5916 19.1261L37.2678 24.3297L38.9553 19.1142C39.0157 18.9325 39.0422 18.7823 39.0346 18.6638C39.0346 18.5453 38.9478 18.4623 38.7741 18.4149L38.4797 18.3319V18.2134H40.0653V18.3319L39.7595 18.4267C39.616 18.4662 39.5141 18.5374 39.4537 18.6401C39.3933 18.7349 39.3366 18.8614 39.2838 19.0194L37.0187 26.0722H36.1805Z" fill="#222222"/>
<path d="M44.1526 26.25C43.692 26.25 43.2465 26.1631 42.8162 25.9892C42.3933 25.8154 42.012 25.5585 41.6723 25.2188C41.34 24.871 41.0758 24.4404 40.8795 23.9267C40.6832 23.4131 40.585 22.8125 40.585 22.125C40.585 21.4454 40.6832 20.8488 40.8795 20.3351C41.0758 19.8215 41.3438 19.3948 41.6836 19.055C42.0234 18.7073 42.4047 18.4465 42.8275 18.2726C43.2579 18.0909 43.6996 18 44.1526 18C44.6132 18 45.0549 18.0869 45.4777 18.2608C45.9081 18.4267 46.2894 18.6835 46.6216 19.0312C46.9614 19.371 47.2294 19.8017 47.4257 20.3233C47.622 20.8369 47.7202 21.4375 47.7202 22.125C47.7202 22.7967 47.622 23.3933 47.4257 23.9149C47.2294 24.4285 46.9614 24.8592 46.6216 25.2069C46.2894 25.5467 45.9081 25.8075 45.4777 25.9892C45.0549 26.1631 44.6132 26.25 44.1526 26.25ZM44.1526 26.0011C44.5679 26.0011 44.9039 25.8865 45.1606 25.6573C45.4173 25.4203 45.6023 25.0212 45.7155 24.4601C45.8364 23.8912 45.8968 23.1128 45.8968 22.125C45.8968 21.1293 45.8364 20.3509 45.7155 19.7899C45.6023 19.2209 45.4173 18.8218 45.1606 18.5927C44.9039 18.3556 44.5679 18.2371 44.1526 18.2371C43.7449 18.2371 43.4127 18.3556 43.1559 18.5927C42.8992 18.8218 42.7105 19.2209 42.5896 19.7899C42.4764 20.3509 42.4198 21.1293 42.4198 22.125C42.4198 23.1128 42.4764 23.8912 42.5896 24.4601C42.7105 25.0212 42.8992 25.4203 43.1559 25.6573C43.4127 25.8865 43.7449 26.0011 44.1526 26.0011Z" fill="#222222"/>
<path d="M52.1111 26.0366V25.9181L52.3376 25.8351C52.5943 25.7482 52.7227 25.523 52.7227 25.1595V19.0905C52.7227 18.9325 52.7038 18.806 52.6661 18.7112C52.6359 18.6164 52.549 18.5374 52.4056 18.4741L52.1111 18.3319V18.2134H54.297L56.3922 23.9504L58.3629 18.2134H60.5941V18.3319L60.4128 18.403C60.2694 18.4583 60.1712 18.5374 60.1184 18.6401C60.0655 18.7349 60.0391 18.8614 60.0391 19.0194V25.2188C60.0391 25.3768 60.058 25.4993 60.0957 25.5862C60.1335 25.6731 60.2241 25.7482 60.3675 25.8114L60.5941 25.9181V26.0366H57.774V25.9181L58.0118 25.8114C58.1553 25.7482 58.2459 25.6731 58.2836 25.5862C58.3214 25.4993 58.3402 25.3768 58.3402 25.2188V22.5517L58.3629 19.1616L55.9958 26.0366H55.4295L52.9605 19.2446L52.9945 22.1961V25.1832C52.9945 25.357 53.0172 25.4993 53.0625 25.6099C53.1153 25.7126 53.2135 25.7877 53.3569 25.8351L53.6061 25.9181V26.0366H52.1111Z" fill="#222222"/>
<path d="M84.2886 13.1728L85.4501 13.3523V13.8633H81V13.3523L82.1615 13.1728V5.29409L81 5.10765V4.60358H85.4501V5.10765L84.2886 5.29409V8.71211H86.8074C86.8884 7.28506 87.2958 6.22627 88.0296 5.53576C88.7679 4.84525 89.8349 4.5 91.2304 4.5C92.6935 4.5 93.7965 4.89819 94.5393 5.69458C95.2866 6.49097 95.6602 7.66714 95.6602 9.22309C95.6602 10.7928 95.2843 11.9828 94.5325 12.793C93.7807 13.5986 92.68 14.0014 91.2304 14.0014C89.8168 14.0014 88.7342 13.6216 87.9823 12.8621C87.235 12.1025 86.8389 10.977 86.7939 9.48548H84.2886V13.1728ZM89.0358 9.22309C89.0358 10.6916 89.2068 11.7411 89.549 12.3718C89.8956 12.9979 90.4561 13.3109 91.2304 13.3109C92.0002 13.3109 92.5562 12.9979 92.8984 12.3718C93.245 11.7411 93.4183 10.6916 93.4183 9.22309C93.4183 7.76381 93.245 6.72805 92.8984 6.11579C92.5562 5.50354 92.0002 5.19741 91.2304 5.19741C90.4606 5.19741 89.9024 5.50354 89.5557 6.11579C89.2091 6.72344 89.0358 7.75921 89.0358 9.22309Z" fill="#222222"/>
<path d="M102.217 7.3449C102.217 6.60836 102.082 6.09508 101.812 5.80506C101.546 5.51045 101.076 5.36314 100.401 5.36314H99.8672V9.47167H100.428C101.053 9.47167 101.508 9.31055 101.792 8.98831C102.075 8.66608 102.217 8.11827 102.217 7.3449ZM99.8672 10.2312V13.1728L101.373 13.3592V13.8633H96.6596V13.3592L97.7333 13.1728V5.28718L96.5719 5.10765V4.60358H100.563C101.846 4.60358 102.805 4.82454 103.439 5.26647C104.074 5.70379 104.392 6.392 104.392 7.33109C104.392 9.26452 103.289 10.2312 101.083 10.2312H99.8672Z" fill="#222222"/>
<path d="M105.026 13.8633V13.3523L106.188 13.1728V5.29409L105.026 5.10765V4.60358H109.476V5.10765L108.315 5.29409V11.2808L112.015 5.68768V5.29409L110.854 5.10765V4.60358H115.317V5.10765L114.149 5.29409V13.1728L115.317 13.3523V13.8633H110.854V13.3523L112.015 13.1728V7.00655L108.315 12.5997V13.1728L109.476 13.3523V13.8633H105.026Z" fill="#222222"/>
<path d="M117.411 4.60358H124.704V5.10765L123.536 5.29409V13.1728L124.886 13.3592L124.65 16.8808H123.806L122.935 13.8633H117.613L116.715 16.8808H115.871L115.635 13.3592L116.985 13.1866C117.508 12.137 117.915 10.9379 118.208 9.58906C118.5 8.24026 118.656 6.81091 118.674 5.30099L117.411 5.10765V4.60358ZM121.408 5.36314H119.497C119.488 6.76257 119.349 8.14819 119.079 9.52001C118.809 10.8872 118.435 12.0818 117.958 13.1038H121.408V5.36314Z" fill="#222222"/>
<path d="M125.312 13.8633V13.3523L126.473 13.1728V5.29409L125.312 5.10765V4.60358H129.762V5.10765L128.6 5.29409V11.2808L132.301 5.68768V5.29409L131.139 5.10765V4.60358H135.603V5.10765L134.435 5.29409V13.1728L135.603 13.3523V13.8633H131.139V13.3523L132.301 13.1728V7.00655L128.6 12.5997V13.1728L129.762 13.3523V13.8633H125.312Z" fill="#222222"/>
<path d="M136.974 5.29409L136.008 5.10765V4.60358H139.999V5.10765L139.101 5.29409V8.22185C139.101 8.70981 139.227 9.08729 139.479 9.35428C139.735 9.62128 140.084 9.75478 140.526 9.75478C141.025 9.75478 141.667 9.62128 142.45 9.35428V5.29409L141.349 5.10765V4.60358H145.752V5.10765L144.584 5.29409V13.1728L145.658 13.3592V13.8633H141.214V13.3592L142.45 13.1728V10.2174C141.442 10.5811 140.622 10.7629 139.992 10.7629C139.24 10.7629 138.651 10.6547 138.223 10.4384C137.795 10.222 137.48 9.90669 137.277 9.49239C137.075 9.07348 136.974 8.54869 136.974 7.91802V5.29409Z" fill="#222222"/>
<path d="M146.232 13.3592L147.393 13.1728V5.28718L146.232 5.10765V4.60358H153.943V6.95822H153.329L153.113 5.45981C152.608 5.39536 151.879 5.36314 150.925 5.36314H149.52V8.76045H151.89L152.1 7.73849H152.701V10.5834H152.1L151.89 9.53382H149.52V13.1038H151.229C152.39 13.1038 153.151 13.0669 153.511 12.9933L153.896 11.2808H154.51L154.382 13.8633H146.232V13.3592Z" fill="#222222"/>
<path d="M160.723 14.0014C159.206 14.0014 158.022 13.5894 157.171 12.7654C156.32 11.9414 155.895 10.7998 155.895 9.34047C155.895 7.75691 156.3 6.55542 157.11 5.73601C157.925 4.912 159.127 4.5 160.716 4.5C161.765 4.5 162.852 4.65421 163.978 4.96264L164.018 7.18608H163.411L163.222 5.84649C162.627 5.43219 161.936 5.22504 161.148 5.22504C160.104 5.22504 159.341 5.55878 158.859 6.22627C158.378 6.88916 158.137 7.92033 158.137 9.31976C158.137 10.6133 158.389 11.5984 158.893 12.2751C159.397 12.9518 160.131 13.2902 161.094 13.2902C161.603 13.2902 162.047 13.2211 162.425 13.083C162.807 12.9449 163.107 12.7815 163.323 12.5928L163.539 11.0737H164.153L164.113 13.4214C163.708 13.5825 163.181 13.7206 162.533 13.8357C161.884 13.9462 161.281 14.0014 160.723 14.0014Z" fill="#222222"/>
<path d="M174.931 4.60358V5.10765L173.823 5.28718L171.034 7.98708L174.411 13.1728L175.12 13.3592V13.8633H172.345L169.576 9.36809L168.739 10.0241V13.1728L170.042 13.3592V13.8633H165.45V13.3592L166.611 13.1728V5.28718L165.45 5.10765V4.60358H169.907V5.10765L168.739 5.28718V9.16094L172.662 5.28718L171.831 5.10765V4.60358H174.931Z" fill="#222222"/>
<path d="M178.138 13.3592V13.8633H175.383V13.3592L176.059 13.1728L179.28 4.52762H181.238L184.445 13.1728L185.134 13.3592V13.8633H181.103V13.3592L182.15 13.1728L181.285 10.7767H177.807L176.977 13.1728L178.138 13.3592ZM179.577 5.92245L178.084 10.0172H181.029L179.577 5.92245Z" fill="#222222"/>
<path d="M186.498 7.19299C186.498 6.30453 186.825 5.65085 187.477 5.23194C188.135 4.81303 189.132 4.60358 190.469 4.60358H195V5.10765L193.839 5.28718V13.1728L194.912 13.3592V13.8633H190.543V13.3592L191.705 13.1728V9.94122H190.246L188.193 13.8633H185.263V13.3592L186.242 13.1728L188.166 9.69954C187.63 9.5154 187.219 9.20007 186.93 8.75354C186.642 8.30701 186.498 7.78683 186.498 7.19299ZM188.605 7.2068C188.605 7.89731 188.774 8.39908 189.112 8.71211C189.449 9.02514 189.987 9.18166 190.726 9.18166H191.705V5.36314H190.759C189.967 5.36314 189.409 5.50814 189.085 5.79816C188.765 6.08817 188.605 6.55772 188.605 7.2068Z" fill="#222222"/>
<path d="M90.4809 21.1022V21.6062L89.3734 21.7858L86.5845 24.4857L89.9609 29.6714L90.6699 29.8578V30.3619H87.8946L85.1259 25.8667L84.2886 26.5227V29.6714L85.5919 29.8578V30.3619H81V29.8578L82.1615 29.6714V21.7858L81 21.6062V21.1022H85.4568V21.6062L84.2886 21.7858V25.6595L88.2119 21.7858L87.3814 21.6062V21.1022H90.4809Z" fill="#222222"/>
<path d="M93.3643 25.7217C93.3643 27.1902 93.5601 28.2397 93.9518 28.8704C94.3479 29.4965 94.9737 29.8095 95.829 29.8095C96.6799 29.8095 97.3011 29.4942 97.6928 28.8635C98.089 28.2328 98.2871 27.1856 98.2871 25.7217C98.2871 24.2624 98.089 23.2266 97.6928 22.6144C97.3011 22.0021 96.6799 21.696 95.829 21.696C94.9737 21.696 94.3479 22.0021 93.9518 22.6144C93.5601 23.2266 93.3643 24.2624 93.3643 25.7217ZM91.1224 25.7217C91.1224 22.5729 92.6913 20.9986 95.829 20.9986C97.3777 20.9986 98.5482 21.3991 99.3405 22.2001C100.133 22.9965 100.529 24.1703 100.529 25.7217C100.529 27.2914 100.128 28.4814 99.327 29.2916C98.5256 30.0972 97.3597 30.5 95.829 30.5C94.3029 30.5 93.137 30.0972 92.3311 29.2916C91.5253 28.486 91.1224 27.296 91.1224 25.7217Z" fill="#222222"/>
<path d="M107.167 30.3619H106.796L103.453 22.5384V29.6714L104.668 29.8578V30.3619H101.447V29.8578L102.609 29.6714V21.7858L101.447 21.6062V21.1022H105.006L107.592 27.1925L110.233 21.1022H113.866V21.6062L112.704 21.7858V29.6714L113.866 29.8578V30.3619H109.362V29.8578L110.577 29.6714V22.5384L107.167 30.3619Z" fill="#222222"/>
<path d="M114.541 30.3619V29.8509L115.702 29.6714V21.7927L114.541 21.6062V21.1022H124.758V21.6062L123.59 21.7927V29.6714L124.758 29.8509V30.3619H120.294V29.8509L121.456 29.6714V21.8617H117.83V29.6714L118.991 29.8509V30.3619H114.541Z" fill="#222222"/>
<path d="M127.925 29.8578V30.3619H125.17V29.8578L125.845 29.6714L129.066 21.0262H131.024L134.232 29.6714L134.921 29.8578V30.3619H130.889V29.8578L131.936 29.6714L131.072 27.2753H127.594L126.763 29.6714L127.925 29.8578ZM129.363 22.421L127.871 26.5158H130.815L129.363 22.421Z" fill="#222222"/>
<path d="M135.265 30.3619V29.8509L136.427 29.6714V21.7927L135.265 21.6062V21.1022H139.715V21.6062L138.554 21.7927V25.2176H142.254V21.7927L141.093 21.6062V21.1022H145.556V21.6062L144.388 21.7927V29.6714L145.556 29.8509V30.3619H141.093V29.8509L142.254 29.6714V25.9772H138.554V29.6714L139.715 29.8509V30.3619H135.265Z" fill="#222222"/>
<path d="M146.029 30.3619V29.8509L147.19 29.6714V21.7927L146.029 21.6062V21.1022H150.479V21.6062L149.318 21.7927V27.7794L153.018 22.1863V21.7927L151.857 21.6062V21.1022H156.32V21.6062L155.152 21.7927V29.6714L156.32 29.8509V30.3619H151.857V29.8509L153.018 29.6714V23.5051L149.318 29.0983V29.6714L150.479 29.8509V30.3619H146.029Z" fill="#222222"/>
<path d="M157.813 23.6916C157.813 22.8031 158.139 22.1494 158.792 21.7305C159.449 21.3116 160.446 21.1022 161.783 21.1022H166.314V21.6062L165.153 21.7858V29.6714L166.227 29.8578V30.3619H161.857V29.8578L163.019 29.6714V26.4398H161.56L159.508 30.3619H156.577V29.8578L157.556 29.6714L159.481 26.1981C158.945 26.014 158.533 25.6987 158.245 25.2521C157.957 24.8056 157.813 24.2854 157.813 23.6916ZM159.919 23.7054C159.919 24.3959 160.088 24.8977 160.426 25.2107C160.764 25.5237 161.302 25.6802 162.04 25.6802H163.019V21.8617H162.074C161.281 21.8617 160.723 22.0067 160.399 22.2967C160.079 22.5868 159.919 23.0563 159.919 23.7054Z" fill="#222222"/>
</svg>
