<svg width="118" height="118" viewBox="0 0 118 118" fill="none" xmlns="http://www.w3.org/2000/svg">
<circle cx="59" cy="59" r="59" fill="#7181AA" fill-opacity="0.6"/>
<path d="M56.2441 78.9754H65.9209C66.0556 78.9752 66.1846 78.9217 66.2798 78.8265C66.375 78.7313 66.4286 78.6022 66.4287 78.4676V38.9854C66.4286 38.8507 66.375 38.7217 66.2798 38.6265C66.1846 38.5313 66.0556 38.4777 65.9209 38.4775H56.2441C56.1095 38.4777 55.9804 38.5313 55.8852 38.6265C55.79 38.7217 55.7365 38.8507 55.7363 38.9854V78.4676C55.7365 78.6022 55.79 78.7313 55.8852 78.8265C55.9804 78.9217 56.1095 78.9752 56.2441 78.9754ZM61.0826 74.9196C60.4675 74.9196 59.8663 74.7372 59.3549 74.3956C58.8435 74.0539 58.4449 73.5682 58.2096 73C57.9742 72.4318 57.9126 71.8065 58.0326 71.2033C58.1526 70.6001 58.4487 70.046 58.8836 69.6111C59.3185 69.1762 59.8726 68.88 60.4758 68.76C61.0791 68.6401 61.7043 68.7017 62.2725 68.937C62.8408 69.1724 63.3264 69.571 63.6681 70.0824C64.0098 70.5938 64.1921 71.195 64.1921 71.81C64.1912 72.6345 63.8633 73.4248 63.2803 74.0078C62.6974 74.5907 61.907 74.9186 61.0826 74.9196ZM57.3225 45.6584C57.3225 45.5237 57.376 45.3946 57.4713 45.2993C57.5665 45.2041 57.6957 45.1506 57.8303 45.1506H64.3348C64.4695 45.1506 64.5987 45.2041 64.6939 45.2993C64.7891 45.3946 64.8426 45.5237 64.8426 45.6584V63.8708C64.8426 64.0055 64.7891 64.1346 64.6939 64.2299C64.5987 64.3251 64.4695 64.3786 64.3348 64.3786H57.8303C57.6957 64.3786 57.5665 64.3251 57.4713 64.2299C57.376 64.1346 57.3225 64.0055 57.3225 63.8708V45.6584Z" fill="#12123D"/>
<path d="M61.0824 69.7168C60.6682 69.7168 60.2634 69.8396 59.919 70.0697C59.5746 70.2997 59.3062 70.6268 59.1477 71.0094C58.9892 71.392 58.9477 71.8131 59.0285 72.2193C59.1093 72.6255 59.3087 72.9986 59.6016 73.2915C59.8944 73.5843 60.2675 73.7838 60.6737 73.8646C61.0799 73.9454 61.501 73.9039 61.8836 73.7454C62.2663 73.587 62.5933 73.3186 62.8234 72.9742C63.0535 72.6298 63.1763 72.225 63.1763 71.8108C63.1757 71.2557 62.9549 70.7234 62.5623 70.3308C62.1698 69.9383 61.6376 69.7174 61.0824 69.7168Z" fill="#12123D"/>
<path d="M63.8267 46.167H58.3379V63.3638H63.8267V46.167ZM62.3832 59.1758H59.7816C59.6469 59.1758 59.5178 59.1223 59.4225 59.0271C59.3273 58.9319 59.2738 58.8027 59.2738 58.668C59.2738 58.5333 59.3273 58.4042 59.4225 58.3089C59.5178 58.2137 59.6469 58.1602 59.7816 58.1602H62.3834C62.5181 58.1602 62.6473 58.2137 62.7425 58.3089C62.8377 58.4042 62.8912 58.5333 62.8912 58.668C62.8912 58.8027 62.8377 58.9319 62.7425 59.0271C62.6473 59.1223 62.5181 59.1758 62.3834 59.1758H62.3832ZM62.3832 55.2732H59.7816C59.6469 55.2732 59.5178 55.2197 59.4225 55.1245C59.3273 55.0292 59.2738 54.9001 59.2738 54.7654C59.2738 54.6307 59.3273 54.5015 59.4225 54.4063C59.5178 54.3111 59.6469 54.2576 59.7816 54.2576H62.3834C62.5181 54.2576 62.6473 54.3111 62.7425 54.4063C62.8377 54.5015 62.8912 54.6307 62.8912 54.7654C62.8912 54.9001 62.8377 55.0292 62.7425 55.1245C62.6473 55.2197 62.5181 55.2732 62.3834 55.2732H62.3832ZM62.3832 51.3705H59.7816C59.6469 51.3705 59.5178 51.317 59.4225 51.2218C59.3273 51.1266 59.2738 50.9974 59.2738 50.8627C59.2738 50.7281 59.3273 50.5989 59.4225 50.5037C59.5178 50.4084 59.6469 50.3549 59.7816 50.3549H62.3834C62.5181 50.3549 62.6473 50.4084 62.7425 50.5037C62.8377 50.5989 62.8912 50.7281 62.8912 50.8627C62.8912 50.9974 62.8377 51.1266 62.7425 51.2218C62.6473 51.317 62.5181 51.3705 62.3834 51.3705H62.3832Z" fill="#12123D"/>
<path d="M76.5022 69.7168C76.0881 69.7168 75.6832 69.8396 75.3388 70.0697C74.9945 70.2998 74.7261 70.6268 74.5676 71.0095C74.4091 71.3921 74.3676 71.8131 74.4484 72.2193C74.5292 72.6255 74.7287 72.9987 75.0215 73.2915C75.3144 73.5844 75.6875 73.7838 76.0937 73.8646C76.4999 73.9454 76.9209 73.9039 77.3036 73.7454C77.6862 73.5869 78.0132 73.3185 78.2433 72.9742C78.4734 72.6298 78.5962 72.225 78.5962 71.8108C78.5956 71.2556 78.3748 70.7234 77.9822 70.3308C77.5897 69.9382 77.0574 69.7174 76.5022 69.7168Z" fill="#12123D"/>
<path d="M71.6641 78.9754H81.3408C81.4755 78.9752 81.6045 78.9217 81.6997 78.8265C81.7949 78.7313 81.8485 78.6022 81.8486 78.4676V38.9854C81.8485 38.8507 81.7949 38.7217 81.6997 38.6265C81.6045 38.5313 81.4755 38.4777 81.3408 38.4775H71.6641C71.5294 38.4777 71.4004 38.5313 71.3052 38.6265C71.21 38.7217 71.1564 38.8507 71.1562 38.9854V78.4676C71.1564 78.6022 71.21 78.7313 71.3052 78.8265C71.4004 78.9217 71.5294 78.9752 71.6641 78.9754ZM76.5024 74.9196C75.8874 74.9196 75.2861 74.7372 74.7748 74.3955C74.2634 74.0538 73.8648 73.5681 73.6295 72.9999C73.3941 72.4317 73.3325 71.8065 73.4525 71.2032C73.5725 70.6 73.8687 70.0459 74.3036 69.6111C74.7385 69.1762 75.2926 68.88 75.8958 68.76C76.499 68.6401 77.1243 68.7017 77.6925 68.937C78.2607 69.1724 78.7463 69.571 79.088 70.0824C79.4297 70.5938 79.6121 71.195 79.612 71.81C79.6111 72.6345 79.2832 73.4249 78.7002 74.0078C78.1172 74.5908 77.3268 74.9187 76.5024 74.9196ZM72.7425 45.6584C72.7425 45.5237 72.796 45.3946 72.8912 45.2993C72.9864 45.2041 73.1156 45.1506 73.2503 45.1506H79.7546C79.8893 45.1506 80.0185 45.2041 80.1137 45.2993C80.2089 45.3946 80.2624 45.5237 80.2624 45.6584V63.8708C80.2624 64.0055 80.2089 64.1346 80.1137 64.2299C80.0185 64.3251 79.8893 64.3786 79.7546 64.3786H73.2503C73.1156 64.3786 72.9864 64.3251 72.8912 64.2299C72.796 64.1346 72.7425 64.0055 72.7425 63.8708V45.6584Z" fill="#12123D"/>
<path d="M79.2466 46.167H73.7578V63.3638H79.2466V46.167ZM77.803 59.1758H75.2013C75.0666 59.1758 74.9375 59.1223 74.8422 59.0271C74.747 58.9319 74.6935 58.8027 74.6935 58.668C74.6935 58.5333 74.747 58.4042 74.8422 58.3089C74.9375 58.2137 75.0666 58.1602 75.2013 58.1602H77.803C77.9377 58.1602 78.0669 58.2137 78.1621 58.3089C78.2574 58.4042 78.3109 58.5333 78.3109 58.668C78.3109 58.8027 78.2574 58.9319 78.1621 59.0271C78.0669 59.1223 77.9377 59.1758 77.803 59.1758ZM77.803 55.2732H75.2013C75.0666 55.2732 74.9375 55.2197 74.8422 55.1245C74.747 55.0292 74.6935 54.9001 74.6935 54.7654C74.6935 54.6307 74.747 54.5015 74.8422 54.4063C74.9375 54.3111 75.0666 54.2576 75.2013 54.2576H77.803C77.9377 54.2576 78.0669 54.3111 78.1621 54.4063C78.2574 54.5015 78.3109 54.6307 78.3109 54.7654C78.3109 54.9001 78.2574 55.0292 78.1621 55.1245C78.0669 55.2197 77.9377 55.2732 77.803 55.2732ZM77.803 51.3705H75.2013C75.0666 51.3705 74.9375 51.317 74.8422 51.2218C74.747 51.1266 74.6935 50.9974 74.6935 50.8627C74.6935 50.7281 74.747 50.5989 74.8422 50.5037C74.9375 50.4084 75.0666 50.3549 75.2013 50.3549H77.803C77.9377 50.3549 78.0669 50.4084 78.1621 50.5037C78.2574 50.5989 78.3109 50.7281 78.3109 50.8627C78.3109 50.9974 78.2574 51.1266 78.1621 51.2218C78.0669 51.317 77.9377 51.3705 77.803 51.3705Z" fill="#12123D"/>
<path d="M42.2096 73.687C42.6176 73.7581 43.0375 73.7066 43.4162 73.5391C43.7949 73.3716 44.1155 73.0955 44.3373 72.7458C44.5591 72.396 44.6723 71.9884 44.6624 71.5744C44.6526 71.1604 44.5202 70.7586 44.282 70.4198C44.0438 70.081 43.7105 69.8205 43.3242 69.6712C42.9379 69.5218 42.5161 69.4904 42.1119 69.5808C41.7078 69.6712 41.3395 69.8794 41.0537 70.1791C40.7679 70.4788 40.5774 70.8566 40.5063 71.2645C40.4116 71.8116 40.5378 72.3738 40.8571 72.8279C41.1764 73.2821 41.6628 73.591 42.2096 73.687Z" fill="#12123D"/>
<path d="M49.6764 46.8331L44.2692 45.8906L41.3164 62.8322L46.7237 63.7748L49.6764 46.8331ZM44.385 50.6772C44.4082 50.5445 44.4831 50.4265 44.5933 50.349C44.7034 50.2716 44.8399 50.2411 44.9726 50.2642L47.5356 50.7111C47.6609 50.7327 47.7736 50.8006 47.8512 50.9013C47.9289 51.0021 47.966 51.1282 47.9551 51.255C47.9442 51.3817 47.8861 51.4997 47.7924 51.5857C47.6987 51.6717 47.5761 51.7193 47.449 51.7193C47.4195 51.7193 47.3902 51.7167 47.3612 51.7117L44.7981 51.2648C44.6654 51.2417 44.5474 51.1668 44.4699 51.0567C44.3925 50.9465 44.3619 50.8101 44.385 50.6775V50.6772ZM46.6082 58.9878C46.5851 59.1205 46.5102 59.2385 46.4 59.316C46.2899 59.3935 46.1535 59.424 46.0208 59.4009L43.4576 58.954C43.3919 58.9425 43.3291 58.9183 43.2728 58.8825C43.2165 58.8468 43.1678 58.8003 43.1294 58.7458C43.0911 58.6912 43.0638 58.6296 43.0493 58.5646C43.0347 58.4995 43.0331 58.4322 43.0446 58.3665C43.0561 58.3008 43.0803 58.238 43.1161 58.1816C43.1518 58.1253 43.1983 58.0766 43.2528 58.0383C43.3074 57.9999 43.369 57.9727 43.434 57.9581C43.4991 57.9435 43.5664 57.942 43.6321 57.9534L46.1953 58.4003C46.261 58.4117 46.3238 58.436 46.3801 58.4718C46.4365 58.5075 46.4852 58.554 46.5235 58.6086C46.5619 58.6632 46.5891 58.7248 46.6036 58.79C46.6182 58.8551 46.6197 58.9224 46.6082 58.9881V58.9878ZM44.1279 55.1095C44.0622 55.098 43.9994 55.0737 43.943 55.038C43.8867 55.0023 43.838 54.9558 43.7996 54.9012C43.7613 54.8467 43.7341 54.7851 43.7195 54.72C43.7049 54.6549 43.7033 54.5876 43.7148 54.5219C43.7263 54.4562 43.7505 54.3934 43.7863 54.3371C43.822 54.2808 43.8685 54.2321 43.923 54.1937C43.9776 54.1553 44.0392 54.1281 44.1042 54.1136C44.1693 54.099 44.2366 54.0974 44.3023 54.1089L46.8655 54.5557C46.9312 54.5672 46.994 54.5915 47.0503 54.6272C47.1066 54.6629 47.1553 54.7094 47.1937 54.764C47.232 54.8185 47.2593 54.8801 47.2738 54.9452C47.2884 55.0103 47.29 55.0776 47.2785 55.1433C47.2671 55.209 47.2428 55.2718 47.2071 55.3281C47.1713 55.3844 47.1249 55.4331 47.0703 55.4715C47.0157 55.5098 46.9542 55.5371 46.8891 55.5516C46.824 55.5662 46.7567 55.5678 46.691 55.5563L44.1279 55.1095Z" fill="#12123D"/>
<path d="M36.5729 77.8526L46.1058 79.5144C46.2385 79.5375 46.3749 79.507 46.485 79.4295C46.5952 79.3521 46.6701 79.2341 46.6932 79.1014L53.27 41.3741C53.293 41.2414 53.2624 41.1051 53.1849 40.995C53.1075 40.8848 52.9895 40.8099 52.8569 40.7867L43.324 39.1249C43.2583 39.1133 43.191 39.1148 43.1259 39.1294C43.0607 39.1439 42.9992 39.1712 42.9447 39.2097C42.89 39.2479 42.8435 39.2966 42.8077 39.353C42.772 39.4093 42.7478 39.4722 42.7366 39.538L36.1599 77.2652C36.1368 77.3979 36.1673 77.5343 36.2448 77.6444C36.3222 77.7546 36.4403 77.8295 36.5729 77.8526ZM40.2292 63.1575L43.3573 45.2157C43.3805 45.083 43.4554 44.965 43.5656 44.8876C43.6757 44.8101 43.8122 44.7796 43.9449 44.8028L50.3525 45.9199C50.4852 45.9432 50.6032 46.0182 50.6805 46.1284C50.7579 46.2386 50.7883 46.375 50.7651 46.5077L47.6375 64.449C47.6143 64.5817 47.5395 64.6997 47.4293 64.7772C47.3191 64.8546 47.1827 64.8852 47.05 64.8621L40.6422 63.7449C40.5765 63.7334 40.5137 63.7091 40.4574 63.6734C40.4011 63.6377 40.3524 63.5912 40.314 63.5367C40.2757 63.4821 40.2484 63.4205 40.2339 63.3554C40.2193 63.2903 40.2177 63.223 40.2292 63.1573V63.1575ZM39.5066 71.0906C39.6085 70.5078 39.8746 69.9661 40.2736 69.5292C40.6727 69.0924 41.1881 68.7785 41.7593 68.6244C42.3306 68.4703 42.934 68.4824 43.4986 68.6593C44.0632 68.8362 44.5656 69.1706 44.9468 69.6231C45.328 70.0756 45.5721 70.6275 45.6505 71.2139C45.729 71.8004 45.6384 72.3971 45.3895 72.9338C45.1406 73.4706 44.7437 73.9252 44.2454 74.2443C43.7472 74.5633 43.1682 74.7335 42.5765 74.735C42.1225 74.7352 41.674 74.6361 41.2624 74.4448C40.8507 74.2534 40.4859 73.9744 40.1934 73.6272C39.901 73.28 39.6879 72.8731 39.5693 72.4349C39.4506 71.9967 39.4292 71.5379 39.5066 71.0906Z" fill="#12123D"/>
</svg>
