<svg width="118" height="118" viewBox="0 0 118 118" fill="none" xmlns="http://www.w3.org/2000/svg">
<circle cx="59" cy="59" r="59" fill="#7181AA" fill-opacity="0.6"/>
<path d="M49.8564 60.0645H53.9243C53.6066 59.3731 52.8108 58.8857 51.8904 58.8857C50.9701 58.8857 50.174 59.3731 49.8564 60.0645Z" fill="#12123D"/>
<path d="M53.034 48.6406H50.7479C50.6751 48.6406 50.6054 48.6695 50.554 48.7209C50.5025 48.7724 50.4736 48.8421 50.4736 48.9148C50.4736 48.9876 50.5025 49.0573 50.554 49.1087C50.6054 49.1602 50.6751 49.1891 50.7479 49.1891H51.8477C51.8621 49.1878 51.8761 49.1847 51.8909 49.1847C51.9058 49.1847 51.9198 49.1878 51.9342 49.1891H53.034C53.1068 49.1891 53.1765 49.1602 53.2279 49.1087C53.2794 49.0573 53.3082 48.9876 53.3082 48.9148C53.3082 48.8421 53.2794 48.7724 53.2279 48.7209C53.1765 48.6695 53.1068 48.6406 53.034 48.6406V48.6406Z" fill="#12123D"/>
<path d="M57.9071 50.1504L55.7344 54.5219H60.0799L57.9071 50.1504Z" fill="#12123D"/>
<path d="M43.7012 54.5219H48.0467L45.874 50.1504L43.7012 54.5219Z" fill="#12123D"/>
<path d="M45.8741 57.5026C47.1758 57.5026 48.2656 56.6586 48.5226 55.5381H43.2256C43.4826 56.6586 44.5725 57.5026 45.8741 57.5026Z" fill="#12123D"/>
<path d="M48.3516 61.6517V61.7419H55.4305V61.6518C55.4303 61.5002 55.37 61.3549 55.2628 61.2477C55.1557 61.1405 55.0103 61.0802 54.8588 61.0801H54.5866C54.5826 61.0801 54.5786 61.0801 54.5746 61.0801C54.573 61.0801 54.5716 61.0801 54.5699 61.0801H48.9233C48.7717 61.0802 48.6264 61.1405 48.5192 61.2477C48.412 61.3548 48.3518 61.5001 48.3516 61.6517V61.6517Z" fill="#12123D"/>
<path d="M57.9072 57.5026C59.2089 57.5026 60.2987 56.6586 60.5557 55.5381H55.2588C55.5157 56.6586 56.6056 57.5026 57.9072 57.5026V57.5026Z" fill="#12123D"/>
<path d="M76.2656 39.7002H41.7344C40.5227 39.7016 39.361 40.1835 38.5042 41.0403C37.6474 41.8971 37.1654 43.0588 37.1641 44.2705V66.1968C37.1654 67.4085 37.6474 68.5702 38.5042 69.427C39.361 70.2838 40.5227 70.7658 41.7344 70.7672H43.3874C43.5956 70.7644 43.7983 70.834 43.9609 70.964C44.1235 71.0941 44.2359 71.2766 44.2789 71.4803C45.1727 76.5374 48.4836 77.993 49.1019 78.2231C49.1835 78.2727 49.2771 78.2989 49.3725 78.2988C49.3985 78.2988 49.4245 78.2969 49.4503 78.2931C49.5816 78.2736 49.8169 78.188 49.9166 77.8323C49.9997 77.4532 50.0527 77.068 50.0752 76.6805C50.3426 73.8195 50.9524 70.7672 54.8277 70.7672H76.2656C77.4773 70.7658 78.639 70.2838 79.4958 69.427C80.3526 68.5702 80.8346 67.4085 80.8359 66.1968V44.2705C80.8346 43.0588 80.3526 41.8971 79.4958 41.0403C78.639 40.1835 77.4773 39.7016 76.2656 39.7002V39.7002ZM41.3301 56.7069C41.3301 56.7736 41.3169 56.8397 41.2914 56.9013C41.2659 56.9629 41.2285 57.0189 41.1813 57.066C41.1342 57.1132 41.0782 57.1506 41.0166 57.1761C40.955 57.2016 40.8889 57.2148 40.8222 57.2148C40.7556 57.2148 40.6895 57.2016 40.6279 57.1761C40.5663 57.1506 40.5103 57.1132 40.4632 57.066C40.416 57.0189 40.3786 56.9629 40.3531 56.9013C40.3276 56.8397 40.3144 56.7736 40.3144 56.7069V46.9105C40.3144 46.7758 40.3679 46.6467 40.4632 46.5514C40.5584 46.4562 40.6876 46.4027 40.8222 46.4027C40.9569 46.4027 41.0861 46.4562 41.1813 46.5514C41.2766 46.6467 41.3301 46.7758 41.3301 46.9105V56.7069ZM41.4316 44.8091C41.4316 44.9438 41.3781 45.0729 41.2829 45.1682C41.1876 45.2634 41.0585 45.3169 40.9238 45.3169C40.7891 45.3169 40.66 45.2634 40.5647 45.1682C40.4695 45.0729 40.416 44.9438 40.416 44.8091V44.143C40.416 44.0084 40.4695 43.8792 40.5647 43.784C40.66 43.6887 40.7891 43.6352 40.9238 43.6352C41.0585 43.6352 41.1876 43.6887 41.2829 43.784C41.3781 43.8792 41.4316 44.0084 41.4316 44.143V44.8091ZM63.3672 46.6308H70.4374C70.572 46.6308 70.7012 46.6843 70.7964 46.7796C70.8917 46.8748 70.9452 47.004 70.9452 47.1386C70.9452 47.2733 70.8917 47.4025 70.7964 47.4977C70.7012 47.5929 70.572 47.6464 70.4374 47.6464H63.3672C63.2325 47.6464 63.1033 47.5929 63.0081 47.4977C62.9129 47.4025 62.8594 47.2733 62.8594 47.1386C62.8594 47.004 62.9129 46.8748 63.0081 46.7796C63.1033 46.6843 63.2325 46.6308 63.3672 46.6308ZM63.3672 52.7246H67.2266C67.3612 52.7246 67.4904 52.7781 67.5856 52.8733C67.6809 52.9685 67.7344 53.0977 67.7344 53.2324C67.7344 53.3671 67.6809 53.4962 67.5856 53.5915C67.4904 53.6867 67.3612 53.7402 67.2266 53.7402H63.3672C63.2325 53.7402 63.1033 53.6867 63.0081 53.5915C62.9129 53.4962 62.8594 53.3671 62.8594 53.2324C62.8594 53.0977 62.9129 52.9685 63.0081 52.8733C63.1033 52.7781 63.2325 52.7246 63.3672 52.7246ZM57.9069 58.5174C55.8553 58.5174 54.1854 56.9527 54.1854 55.0294C54.1856 54.9119 54.2264 54.7981 54.3011 54.7073C54.3758 54.6166 54.4796 54.5545 54.5949 54.5318L57.1746 49.3419H54.2496C54.161 49.5937 53.9965 49.8118 53.7788 49.9662C53.5611 50.1207 53.3009 50.2038 53.034 50.2043H52.3984V57.9068C53.6712 58.0904 54.706 58.9514 55.0021 60.0715C55.3963 60.1078 55.7627 60.2898 56.0297 60.5821C56.2967 60.8743 56.4449 61.2557 56.4455 61.6515V62.2495C56.4455 62.3842 56.392 62.5134 56.2968 62.6086C56.2015 62.7038 56.0724 62.7573 55.9377 62.7573H47.8432C47.7085 62.7573 47.5793 62.7038 47.4841 62.6086C47.3888 62.5134 47.3353 62.3842 47.3353 62.2495V61.6516C47.3359 61.2558 47.4842 60.8744 47.7511 60.5822C48.0181 60.29 48.3845 60.1079 48.7786 60.0716C49.0748 58.9517 50.1098 58.0905 51.3824 57.9069V50.2042H50.7471C50.4802 50.2037 50.22 50.1206 50.0023 49.9661C49.7846 49.8117 49.6202 49.5936 49.5315 49.3418H46.6065L49.1862 54.5317C49.3015 54.5544 49.4054 54.6165 49.48 54.7072C49.5547 54.798 49.5956 54.9118 49.5957 55.0293C49.5957 56.9526 47.9262 58.5173 45.8743 58.5173C43.8223 58.5173 42.1528 56.9527 42.1528 55.0294C42.1529 54.9119 42.1938 54.7981 42.2685 54.7073C42.3432 54.6166 42.447 54.5545 42.5623 54.5318L45.142 49.3419H45.0923C44.9577 49.3419 44.8285 49.2884 44.7333 49.1932C44.638 49.098 44.5845 48.9688 44.5845 48.8341C44.5845 48.6994 44.638 48.5703 44.7333 48.475C44.8285 48.3798 44.9577 48.3263 45.0923 48.3263H49.601C49.7091 48.1152 49.8733 47.938 50.0756 47.8142C50.2779 47.6904 50.5104 47.6248 50.7475 47.6245H53.0337C53.2709 47.6247 53.5035 47.6904 53.7058 47.8142C53.9081 47.9381 54.0723 48.1153 54.1805 48.3264H58.6492C58.7839 48.3264 58.913 48.3799 59.0083 48.4751C59.1035 48.5704 59.157 48.6995 59.157 48.8342C59.157 48.9689 59.1035 49.0981 59.0083 49.1933C58.913 49.2885 58.7839 49.342 58.6492 49.342H58.6397L61.2193 54.5319C61.3347 54.5546 61.4385 54.6166 61.5132 54.7074C61.5879 54.7981 61.6288 54.912 61.6289 55.0295C61.6284 56.9527 59.959 58.5174 57.9069 58.5174V58.5174ZM64.8538 63.8964H63.3672C63.2325 63.8964 63.1033 63.8429 63.0081 63.7477C62.9129 63.6525 62.8594 63.5233 62.8594 63.3886C62.8594 63.254 62.9129 63.1248 63.0081 63.0296C63.1033 62.9343 63.2325 62.8808 63.3672 62.8808H64.8532C64.9879 62.8808 65.1171 62.9343 65.2123 63.0296C65.3076 63.1248 65.3611 63.254 65.3611 63.3886C65.3611 63.5233 65.3076 63.6525 65.2123 63.7477C65.1171 63.8429 64.9879 63.8964 64.8532 63.8964H64.8538ZM69.8677 63.8964H67.7273C67.5926 63.8964 67.4634 63.8429 67.3682 63.7477C67.273 63.6525 67.2195 63.5233 67.2195 63.3886C67.2195 63.254 67.273 63.1248 67.3682 63.0296C67.4634 62.9343 67.5926 62.8808 67.7273 62.8808H69.8672C70.0019 62.8808 70.131 62.9343 70.2263 63.0296C70.3215 63.1248 70.375 63.254 70.375 63.3886C70.375 63.5233 70.3215 63.6525 70.2263 63.7477C70.131 63.8429 70.0019 63.8964 69.8672 63.8964H69.8677ZM75.2505 58.8183H63.3672C63.2325 58.8183 63.1033 58.7648 63.0081 58.6696C62.9129 58.5744 62.8594 58.4452 62.8594 58.3105C62.8594 58.1758 62.9129 58.0467 63.0081 57.9514C63.1033 57.8562 63.2325 57.8027 63.3672 57.8027H75.25C75.3847 57.8027 75.5138 57.8562 75.6091 57.9514C75.7043 58.0467 75.7578 58.1758 75.7578 58.3105C75.7578 58.4452 75.7043 58.5744 75.6091 58.6696C75.5138 58.7648 75.3847 58.8183 75.25 58.8183H75.2505ZM75.2505 53.7402H70.2978C70.1631 53.7402 70.034 53.6867 69.9387 53.5915C69.8435 53.4962 69.79 53.3671 69.79 53.2324C69.79 53.0977 69.8435 52.9685 69.9387 52.8733C70.034 52.7781 70.1631 52.7246 70.2978 52.7246H75.25C75.3847 52.7246 75.5138 52.7781 75.6091 52.8733C75.7043 52.9685 75.7578 53.0977 75.7578 53.2324C75.7578 53.3671 75.7043 53.4962 75.6091 53.5915C75.5138 53.6867 75.3847 53.7402 75.25 53.7402H75.2505ZM75.2505 47.6464H73.3572C73.2225 47.6464 73.0933 47.5929 72.9981 47.4977C72.9029 47.4025 72.8494 47.2733 72.8494 47.1386C72.8494 47.004 72.9029 46.8748 72.9981 46.7796C73.0933 46.6843 73.2225 46.6308 73.3572 46.6308H75.25C75.3847 46.6308 75.5138 46.6843 75.6091 46.7796C75.7043 46.8748 75.7578 47.004 75.7578 47.1386C75.7578 47.2733 75.7043 47.4025 75.6091 47.4977C75.5138 47.5929 75.3847 47.6464 75.25 47.6464H75.2505Z" fill="#12123D"/>
</svg>
