<svg width="244" height="168" viewBox="0 0 244 168" fill="none" xmlns="http://www.w3.org/2000/svg">
<g id="Frame" clip-path="url(#clip0_338_8444)">
<g id="Background Complete">
<g id="Group">
<g id="Group_2">
<path id="Vector" d="M69.3258 48.2334H12.5923V96.5138H69.3258V48.2334Z" fill="white"/>
<path id="Vector_2" d="M69.5108 96.7428H12.4072V47.9951H69.5108V96.7428ZM12.7773 96.2755H69.1407V48.4624H12.7773V96.2755Z" fill="#EBEBEB"/>
</g>
<g id="Group_3">
<path id="Vector_3" d="M18.0761 51.8878C18.0761 52.799 17.4914 53.5373 16.7698 53.5373C16.0483 53.5373 15.4636 52.799 15.4636 51.8878C15.4636 50.9766 16.0483 50.2383 16.7698 50.2383C17.4914 50.2383 18.0761 50.9766 18.0761 51.8878Z" fill="#37474F"/>
<path id="Vector_4" d="M23.412 51.8878C23.412 52.799 22.8273 53.5373 22.1058 53.5373C21.3842 53.5373 20.7996 52.799 20.7996 51.8878C20.7996 50.9766 21.3842 50.2383 22.1058 50.2383C22.8273 50.2383 23.412 50.9766 23.412 51.8878Z" fill="#EBEBEB"/>
<path id="Vector_5" d="M28.744 51.8878C28.744 52.799 28.1594 53.5373 27.4378 53.5373C26.7162 53.5373 26.1316 52.799 26.1316 51.8878C26.1316 50.9766 26.7162 50.2383 27.4378 50.2383C28.1594 50.2383 28.744 50.9766 28.744 51.8878Z" fill="#FFC727"/>
</g>
<path id="Vector_6" d="M69.3258 55.2705H12.5923V55.7378H69.3258V55.2705Z" fill="#EBEBEB"/>
</g>
<g id="Group_4">
<g id="Group_5">
<path id="Vector_7" d="M240.281 81.916H183.548V130.196H240.281V81.916Z" fill="white"/>
<path id="Vector_8" d="M240.466 130.43H183.363V81.6826H240.466V130.43ZM183.733 129.963H240.096V82.1499H183.733V129.963Z" fill="#EBEBEB"/>
</g>
<g id="Group_6">
<path id="Vector_9" d="M189.028 85.5704C189.028 86.4816 188.443 87.22 187.722 87.22C187 87.22 186.415 86.4816 186.415 85.5704C186.415 84.6592 187 83.9209 187.722 83.9209C188.443 83.9209 189.028 84.6592 189.028 85.5704Z" fill="#37474F"/>
<path id="Vector_10" d="M194.364 85.5704C194.364 86.4816 193.779 87.22 193.057 87.22C192.336 87.22 191.751 86.4816 191.751 85.5704C191.751 84.6592 192.336 83.9209 193.057 83.9209C193.779 83.9209 194.364 84.6592 194.364 85.5704Z" fill="#EBEBEB"/>
<path id="Vector_11" d="M199.7 85.5704C199.7 86.4816 199.115 87.22 198.393 87.22C197.672 87.22 197.087 86.4816 197.087 85.5704C197.087 84.6592 197.672 83.9209 198.393 83.9209C199.115 83.9209 199.7 84.6592 199.7 85.5704Z" fill="#FFC727"/>
</g>
<path id="Vector_12" d="M240.281 88.9541H183.548V89.4214H240.281V88.9541Z" fill="#EBEBEB"/>
</g>
<g id="Group_7">
<path id="Vector_13" d="M52.4632 95.6124C52.4632 99.8087 49.7731 103.197 46.4576 103.197C46.3503 103.197 46.2504 103.197 46.1505 103.187C46.1505 103.187 35.6341 103.215 35.4639 103.215C32.1447 103.215 29.4583 99.818 29.4583 95.6311C29.4583 91.4442 32.1484 88.047 35.4639 88.047H46.0505C46.1875 88.0377 46.3207 88.0283 46.4576 88.0283C49.7731 88.0283 52.4632 91.4255 52.4632 95.6124Z" fill="#A6A6A6"/>
<g id="IaQ7Yo">
<g id="Group_8">
<path id="Vector_14" d="M35.5308 95.8646C35.5308 95.5702 35.6196 95.3132 35.738 95.0748C35.7898 94.9674 35.849 94.8646 35.9045 94.7617L36.2671 94.3038C36.4077 94.1776 36.5447 94.0421 36.689 93.9206C37.2699 93.4347 37.9138 93.1543 38.5909 92.9861C40.1673 92.5935 41.7436 92.6029 43.32 92.9954C43.9897 93.1636 44.6262 93.4393 45.1997 93.916C45.3477 94.0421 45.4921 94.1776 45.6364 94.3085L45.9879 94.7477C46.0767 94.9253 46.1766 95.0889 46.2469 95.2758C46.3135 95.4487 46.3431 95.6449 46.3949 95.8459C46.3394 95.8505 46.3135 95.8552 46.2876 95.8552C45.2922 95.8552 44.2969 95.8552 43.3015 95.8599C43.2423 95.8599 43.209 95.8365 43.1831 95.7711C42.9906 95.3365 42.6983 95.0935 42.2987 95.0608C41.3995 94.9907 40.5003 94.986 39.5974 95.0608C39.2015 95.0935 38.9092 95.3412 38.7167 95.7758C38.6945 95.8272 38.6723 95.8646 38.6168 95.8646C37.6067 95.8646 36.5965 95.8646 35.5863 95.8646C35.5715 95.8646 35.5567 95.8646 35.5345 95.8599L35.5308 95.8646Z" fill="white"/>
<path id="Vector_15" d="M35.5269 98.0698C35.5269 97.6258 35.5269 97.1819 35.5269 96.738C35.5269 96.7053 35.5269 96.6679 35.5269 96.6445C36.5482 96.6445 37.5621 96.6445 38.5871 96.6445C38.5871 96.7286 38.576 96.8268 38.576 96.9296C38.576 97.3081 38.576 97.6866 38.576 98.0651C38.576 98.3922 38.4465 98.5557 38.1874 98.5557C37.4289 98.5557 36.6666 98.5557 35.908 98.5557C35.6527 98.5557 35.5269 98.3922 35.5232 98.0698H35.5269Z" fill="white"/>
<path id="Vector_16" d="M43.3199 98.0888C43.3236 97.6028 43.3384 97.1215 43.3495 96.6355C44.3301 96.6355 45.344 96.6355 46.3653 96.6309C46.3653 96.6542 46.369 96.6823 46.369 96.715C46.369 97.1682 46.369 97.6168 46.369 98.0654C46.369 98.3739 46.2395 98.5374 45.9952 98.5374C45.2256 98.5374 44.4559 98.5374 43.6899 98.5374C43.4568 98.5374 43.3162 98.3739 43.3199 98.0841V98.0888Z" fill="white"/>
</g>
</g>
</g>
<g id="Group_9">
<path id="Vector_17" d="M237.04 83.4156C236.707 82.738 236.725 81.8923 237.051 81.2147C237.14 81.0278 237.225 80.8408 237.306 80.6493C237.387 80.453 237.465 80.2614 237.539 80.0605C237.806 79.3455 238.353 78.8595 238.979 78.8362L241.125 78.7521L240.906 69.925L238.745 70.0091C238.12 70.0324 237.55 69.5885 237.251 68.8969C237.088 68.5231 236.91 68.1539 236.718 67.8035C236.359 67.1446 236.296 66.2988 236.596 65.5932L237.606 63.21L231.441 59.0371L230.431 61.4203C230.131 62.1259 229.539 62.5324 228.906 62.5137C228.566 62.5044 228.225 62.5184 227.889 62.5558C227.263 62.6259 226.656 62.2708 226.327 61.5979L225.187 59.2801L219.245 63.9343L220.381 66.2474C220.706 66.9109 220.703 67.7427 220.381 68.4109C220.288 68.6072 220.196 68.8035 220.111 69.0044C220.025 69.2053 219.944 69.4109 219.866 69.6165C219.604 70.3268 219.052 70.7894 218.431 70.8128L216.284 70.8969L216.503 79.724L218.642 79.6399C219.259 79.6165 219.84 80.0231 220.133 80.71C220.31 81.1212 220.506 81.5184 220.717 81.9063C221.069 82.5418 221.102 83.3782 220.81 84.0651L219.8 86.4483L225.964 90.6212L226.975 88.238C227.274 87.5324 227.866 87.1259 228.503 87.1446C228.843 87.1539 229.184 87.1399 229.524 87.1025C230.15 87.0371 230.756 87.3876 231.089 88.0605L232.222 90.3736L238.164 85.7194L237.036 83.4203L237.04 83.4156ZM226.682 81.5979C223.156 79.8876 221.865 74.4904 224.055 70.6025C225.546 67.9577 228.336 66.8969 230.738 68.0605C234.264 69.7708 235.552 75.1539 233.361 79.0465C231.87 81.696 229.084 82.7614 226.682 81.5979Z" fill="#EBEBEB"/>
<path id="Vector_18" d="M212.325 57.3175C211.944 57.0371 211.733 56.5091 211.755 55.953C211.763 55.8035 211.763 55.6493 211.763 55.4997C211.763 55.3502 211.763 55.1913 211.755 55.0418C211.733 54.4857 211.944 53.9577 212.325 53.682L213.628 52.7334L211.178 47.3736L209.875 48.3222C209.494 48.6025 209.024 48.5745 208.654 48.2661C208.451 48.0979 208.24 47.9437 208.022 47.8035C207.629 47.5511 207.378 47.0511 207.378 46.4951V44.6025H202.478V46.4951C202.478 47.0511 202.227 47.5511 201.835 47.8035C201.616 47.9437 201.405 48.0979 201.202 48.2661C200.832 48.5698 200.362 48.5979 199.981 48.3222L198.678 47.3736L196.229 52.7334L197.535 53.6867C197.916 53.9624 198.123 54.4904 198.101 55.0465C198.094 55.196 198.094 55.3502 198.094 55.4997C198.094 55.6493 198.094 55.8035 198.101 55.953C198.123 56.5091 197.912 57.0418 197.531 57.3175L196.225 58.2661L198.674 63.6259L199.973 62.6773C200.354 62.3969 200.824 62.425 201.194 62.7287C201.398 62.8969 201.609 63.0511 201.827 63.1913C202.219 63.4437 202.471 63.9437 202.471 64.4997V66.3923H207.37V64.4997C207.37 63.9437 207.622 63.4437 208.014 63.1913C208.232 63.0511 208.443 62.8969 208.647 62.7287C209.017 62.425 209.487 62.3969 209.868 62.6773L211.167 63.6259L213.616 58.2661L212.314 57.3175H212.325ZM204.932 60.5652C202.715 60.5652 200.917 58.2941 200.917 55.4951C200.917 52.696 202.715 50.4296 204.932 50.4296C207.148 50.4296 208.943 52.696 208.943 55.4951C208.943 58.2941 207.148 60.5652 204.932 60.5652Z" fill="#EBEBEB"/>
<path id="Vector_19" d="M34.6202 42.9624L37.0699 48.3222L38.3687 47.3736C38.7498 47.0932 39.2197 47.1213 39.5898 47.425C39.7933 47.5932 40.0042 47.7474 40.2225 47.8876C40.6148 48.14 40.8664 48.64 40.8664 49.196V51.0886H45.7656V49.196C45.7656 48.64 46.0173 48.14 46.4095 47.8876C46.6278 47.7474 46.8387 47.5932 47.0423 47.425C47.4123 47.1213 47.8822 47.0932 48.2634 47.3736L49.5622 48.3222L52.0118 42.9624L50.7056 42.0138C50.3244 41.7334 50.1135 41.2054 50.1357 40.6493C50.1431 40.4998 50.1431 40.3456 50.1431 40.196C50.1431 40.0465 50.1431 39.8923 50.1357 39.7428C50.1135 39.1867 50.3207 38.6633 50.7019 38.3829L52.0081 37.4297L49.5585 32.0699L48.256 33.0185C47.8748 33.2988 47.4049 33.2708 47.0349 32.9624C46.8313 32.7942 46.6204 32.64 46.4021 32.4998C46.0099 32.2474 45.7582 31.7474 45.7582 31.1914V29.2988H40.859V31.1914C40.859 31.7474 40.6074 32.2474 40.2151 32.4998C39.9968 32.64 39.7859 32.7942 39.5824 32.9624C39.2123 33.2661 38.7424 33.2942 38.3613 33.0185L37.0588 32.0699L34.6091 37.4297L35.9116 38.3783C36.2928 38.654 36.5037 39.182 36.4815 39.7381C36.4741 39.8876 36.4741 40.0418 36.4741 40.196C36.4741 40.3502 36.4741 40.4998 36.4815 40.6493C36.5037 41.2054 36.2928 41.7381 35.9116 42.0138L34.6091 42.9624H34.6202ZM39.3049 40.196C39.3049 37.397 41.0995 35.1306 43.316 35.1306C45.5325 35.1306 47.3309 37.397 47.3309 40.196C47.3309 42.9951 45.5325 45.2661 43.316 45.2661C41.0995 45.2661 39.3049 42.9951 39.3049 40.196Z" fill="#EBEBEB"/>
</g>
<g id="Group_10">
<path id="Vector_20" d="M132.365 47.8607C135.268 33.1328 128.168 18.221 116.505 14.5544C104.842 10.8878 93.034 19.8547 90.1305 34.5827C87.227 49.3106 94.3277 64.2224 105.99 67.889C117.653 71.5557 129.461 62.5887 132.365 47.8607Z" fill="#EBEBEB"/>
<path id="Vector_21" d="M127.345 46.3087C129.574 35.0707 124.166 23.6789 115.267 20.8644C106.368 18.05 97.3473 24.8786 95.1186 36.1166C92.89 47.3546 98.2974 58.7464 107.196 61.5609C116.095 64.3753 125.116 57.5467 127.345 46.3087Z" fill="white"/>
<path id="Vector_22" d="M122.755 44.8862C124.358 36.8583 120.503 28.7097 114.146 26.6858C107.789 24.6618 101.337 29.529 99.7339 37.557C98.1313 45.5849 101.985 53.7335 108.343 55.7574C114.7 57.7813 121.152 52.9141 122.755 44.8862Z" fill="#EBEBEB"/>
<path id="Vector_23" d="M117.598 43.2506C118.489 38.8155 116.364 34.3077 112.852 33.1821C109.34 32.0566 105.771 34.7395 104.879 39.1746C103.988 43.6097 106.113 48.1175 109.625 49.2431C113.137 50.3686 116.706 47.6857 117.598 43.2506Z" fill="white"/>
<path id="Vector_24" d="M114.125 42.1509C114.53 40.1454 113.571 38.1048 111.983 37.5932C110.395 37.0816 108.779 38.2928 108.374 40.2983C107.969 42.3039 108.928 44.3444 110.516 44.856C112.104 45.3676 113.72 44.1565 114.125 42.1509Z" fill="#EBEBEB"/>
<g id="Group_11">
<g id="Group_12">
<path id="Vector_25" d="M137.582 7.19045L112.655 38.6699L113.254 39.4266L138.182 7.94711L137.582 7.19045Z" fill="#C7C7C7"/>
<path id="Vector_26" d="M114.496 40.1166L111.236 41.2194L112.109 37.1025L114.496 40.1166Z" fill="#A6A6A6"/>
</g>
<path id="Vector_27" d="M142.052 5.52334L137.379 11.4252L133.712 12.8364L134.829 8.20558L139.503 2.30371L138.385 6.93455L142.052 5.52334Z" fill="#A6A6A6"/>
</g>
</g>
</g>
<g id="Desk">
<path id="Vector_28" d="M0 153.743L30.4981 153.631L61 153.589L122 153.51L183 153.589L213.498 153.627L244 153.743L213.498 153.856L183 153.898L122 153.977L61 153.898L30.4981 153.856L0 153.743Z" fill="#263238"/>
</g>
<g id="Devices">
<g id="Group_13">
<path id="Vector_29" d="M77.1816 156.5H26.1873L22.239 112.762H73.2333L77.1816 156.5Z" fill="#37474F"/>
<path id="Vector_30" d="M74.4027 153.565H28.4372L25.0181 115.691H70.9836L74.4027 153.565Z" fill="white"/>
<g id="Group_14">
<path id="Vector_31" d="M106.007 153.565H53.666V156.5H106.007V153.565Z" fill="#37474F"/>
<path id="Vector_32" d="M106.004 153.565H79.6609V156.5H106.004V153.565Z" fill="#263238"/>
</g>
<g id="Group_15">
<path id="Vector_33" d="M58.1654 115.696L28.411 153.271L27.5229 143.444L49.4918 115.696H58.1654Z" fill="#EBEBEB"/>
<path id="Vector_34" d="M73.6255 144.939L66.7947 153.565H58.1211L72.7374 135.107L73.6255 144.939Z" fill="#EBEBEB"/>
<path id="Vector_35" d="M30.7127 115.696L25.6025 122.15L25.2991 118.799L27.7561 115.696H30.7127Z" fill="#EBEBEB"/>
<path id="Vector_36" d="M72.1676 128.79L52.5484 153.565H49.5881L71.8641 125.435L72.1676 128.79Z" fill="#EBEBEB"/>
<path id="Vector_37" d="M34.5683 115.696L25.9947 126.523L25.9207 125.682L33.8283 115.696H34.5683Z" fill="#EBEBEB"/>
<path id="Vector_38" d="M62.417 115.696L32.4295 153.565H31.6895L61.677 115.696H62.417Z" fill="#EBEBEB"/>
<path id="Vector_39" d="M71.668 123.252L47.6639 153.565H46.9238L71.5939 122.411L71.668 123.252Z" fill="#EBEBEB"/>
</g>
</g>
<g id="Group_16">
<path id="Vector_40" d="M166.515 156.5H217.509L221.458 112.762H170.463L166.515 156.5Z" fill="#37474F"/>
<path id="Vector_41" d="M169.294 153.565H215.263L218.679 115.691H172.713L169.294 153.565Z" fill="white"/>
<g id="Group_17">
<path id="Vector_42" d="M190.034 153.565H137.693V156.5H190.034V153.565Z" fill="#37474F"/>
<path id="Vector_43" d="M164.036 153.565H137.693V156.5H164.036V153.565Z" fill="#263238"/>
</g>
<g id="Group_18">
<path id="Vector_44" d="M217.358 130.364L216.24 142.729L207.659 153.565H198.985L217.358 130.364Z" fill="#EBEBEB"/>
<path id="Vector_45" d="M201.058 115.696L171.074 153.565H169.294L170.182 143.738L192.388 115.696H201.058Z" fill="#EBEBEB"/>
<path id="Vector_46" d="M181.524 115.696L171.581 128.252L171.962 124.033L178.563 115.696H181.524Z" fill="#EBEBEB"/>
<path id="Vector_47" d="M214.231 115.696L184.243 153.565H181.283L211.27 115.696H214.231Z" fill="#EBEBEB"/>
<path id="Vector_48" d="M217.783 125.645L217.691 126.701L196.417 153.565H195.677L217.783 125.645Z" fill="#EBEBEB"/>
<path id="Vector_49" d="M217.335 115.696L187.352 153.565H186.612L216.599 115.696H217.335Z" fill="#EBEBEB"/>
<path id="Vector_50" d="M189.405 115.696L170.563 139.491L170.659 138.435L188.665 115.696H189.405Z" fill="#EBEBEB"/>
</g>
</g>
</g>
<g id="Characters">
<g id="Group_19">
<g id="Group_20">
<path id="Vector_51" d="M73.5662 90.6297C79.8938 106.756 89.2556 122.849 91.7682 125.891C98.5102 134.064 116.509 139.938 121.811 140.12C124.102 140.2 127.269 120.985 125.582 118.742C123.894 116.499 101.67 110.401 100.479 109.247C99.6499 108.447 89.0521 95.7232 82.0252 88.1671C73.2924 78.7792 71.9085 86.3914 73.5699 90.625L73.5662 90.6297Z" fill="#F7A9A0"/>
<path id="Vector_52" d="M120.675 116.078L114.94 138.952C114.94 138.952 96.1311 132.676 91.0987 126.588C86.0662 120.499 75.6424 98.5969 73.6072 91.3866C71.572 84.1763 72.8967 78.4707 82.0995 87.8352C91.3022 97.195 99.1395 106.77 100.771 108.312C102.407 109.854 120.672 116.078 120.672 116.078H120.675Z" fill="#455A64"/>
<g id="Group_21">
<path id="Vector_53" d="M114.847 116.994C114.925 117.634 115.395 118.069 115.902 117.975C116.409 117.877 116.753 117.284 116.679 116.643C116.601 116.003 116.131 115.569 115.624 115.662C115.117 115.76 114.773 116.354 114.847 116.994Z" fill="#263238"/>
<path id="Vector_54" d="M110.24 115.316C110.318 115.956 110.788 116.391 111.295 116.297C111.802 116.204 112.146 115.606 112.072 114.966C111.994 114.325 111.524 113.891 111.017 113.984C110.51 114.082 110.166 114.676 110.24 115.316Z" fill="#263238"/>
</g>
<path id="Vector_55" d="M101.063 133.284C96.9449 131.265 93.0189 128.915 91.0984 126.592C86.066 120.499 75.6421 98.6015 73.6069 91.3865C72.3044 86.7743 72.3747 82.7837 75.002 82.9472L101.063 133.284Z" fill="#263238"/>
</g>
<path id="Vector_56" d="M43.5752 153.555L91.0505 153.569C91.2392 151.378 81.4703 90.2888 76.8227 82.63C75.8273 80.9944 72.5451 80.5365 69.7551 80.9758C68.9817 81.0926 68.249 81.2795 67.6089 81.5318C67.5941 81.5412 67.5682 81.5505 67.5386 81.5552C66.891 81.8216 66.3397 82.1487 65.9585 82.5318C58.1989 90.3543 43.2015 153.023 43.5752 153.56V153.555Z" fill="#455A64"/>
<g id="Group_22">
<path id="Vector_57" d="M72.9595 96.4382L74.9799 91.4756L77.5812 95.0644L76.9447 98.6345L74.373 99.055L72.9595 96.4382Z" fill="#263238"/>
<path id="Vector_58" d="M74.373 99.0553L73.1445 135.565L78.5618 147.635L81.3741 134.051L76.9448 98.6348L74.373 99.0553Z" fill="#263238"/>
</g>
<g id="Group_23">
<g id="Group_24">
<path id="Vector_59" d="M74.2989 90.8119C73.5514 90.7745 68.593 85.8774 67.0685 82.0596C66.9648 81.7979 67.3497 79.1017 67.6901 75.8026C67.8936 73.7979 68.0786 71.5596 68.1341 69.5035C68.1453 69.083 69.2627 69.9054 69.2627 69.9054L71.3534 70.639L78.2731 73.0736C78.2731 73.0736 77.1556 77.3446 77.0779 80.9334C77.0742 81.2325 77.089 81.5129 77.126 81.7792C77.126 81.8166 77.1371 81.8633 77.1371 81.9194C77.2999 83.5316 75.5237 90.8774 74.2989 90.8166V90.8119Z" fill="#F7A9A0"/>
<path id="Vector_60" d="M77.126 81.7749C77.126 81.8123 77.1371 81.859 77.1371 81.9151C76.8152 81.9572 76.4673 81.9665 76.0862 81.9431C69.2073 81.4572 68.6411 70.373 68.6411 70.373L71.3572 70.6347L78.2768 73.0693C78.2768 73.0693 77.1593 77.3403 77.0816 80.9291C77.0779 81.2282 77.0927 81.5086 77.1297 81.7749H77.126Z" fill="#263238"/>
</g>
<g id="Group_25">
<path id="Vector_61" d="M66.5281 54.3825C65.492 58.99 67.6049 72.1676 70.2284 75.0554C74.0324 79.2423 80.1601 79.504 82.9502 73.7563C85.6551 68.1862 82.6579 51.0741 79.7383 48.4619C75.4348 44.6162 68.0601 47.5788 66.5281 54.3825Z" fill="#F7A9A0"/>
<g id="Group_26">
<g id="Group_27">
<path id="Vector_62" d="M76.867 62.051C76.8559 62.0183 76.8189 62.1071 76.8263 62.1445C76.9891 63.0277 77.0557 64.0744 76.4636 64.5277C76.4451 64.5417 76.4525 64.5838 76.4784 64.5744C77.2333 64.2426 77.1334 62.8548 76.8707 62.051H76.867Z" fill="#263238"/>
<path id="Vector_63" d="M76.0937 61.2797C74.9466 61.4526 75.3055 64.3404 76.3675 64.1816C77.4147 64.0227 77.0558 61.1348 76.0937 61.2797Z" fill="#263238"/>
</g>
<g id="Group_28">
<path id="Vector_64" d="M80.9855 61.3817C80.9855 61.3444 81.0447 61.4145 81.0484 61.4518C81.1372 62.349 81.3592 63.3631 82.0364 63.5313C82.0586 63.536 82.0623 63.5827 82.0364 63.5827C81.2371 63.5967 80.9522 62.2509 80.9818 61.3817H80.9855Z" fill="#263238"/>
<path id="Vector_65" d="M81.5035 60.3213C82.6284 59.9849 83.0798 62.854 82.0363 63.1671C81.0114 63.4755 80.5599 60.6064 81.5035 60.3213Z" fill="#263238"/>
</g>
<path id="Vector_66" d="M75.028 60.1393C75.3277 59.9804 75.583 59.7655 75.8642 59.5692C76.1825 59.3449 76.4563 59.2094 76.6302 58.7842C76.7227 58.5552 76.6302 58.1954 76.46 58.0599C76.0678 57.7421 75.6237 57.8963 75.2315 58.144C74.8059 58.415 74.5321 58.7608 74.336 59.3075C74.1473 59.8402 74.632 60.3542 75.028 60.1393Z" fill="#263238"/>
<path id="Vector_67" d="M82.2066 58.6954C81.881 58.6954 81.5812 58.6206 81.2593 58.5786C80.8967 58.5272 80.6043 58.5365 80.312 58.2281C80.1566 58.0599 80.1344 57.686 80.2454 57.4758C80.5081 56.9944 80.967 56.915 81.4036 56.9524C81.881 56.9944 82.2362 57.1767 82.584 57.5879C82.9207 57.9851 82.6284 58.6954 82.2029 58.6954H82.2066Z" fill="#263238"/>
<path id="Vector_68" d="M77.2445 70.4896C77.4407 70.6671 77.6442 70.9195 77.9069 70.8961C78.1585 70.8727 78.4286 70.6765 78.6396 70.5176C78.6618 70.5036 78.6877 70.5269 78.6766 70.5597C78.5359 70.9382 78.1733 71.2326 77.8366 71.2232C77.5073 71.2139 77.3037 70.8961 77.1816 70.541C77.1631 70.4896 77.2149 70.4615 77.2445 70.4849V70.4896Z" fill="#263238"/>
<path id="Vector_69" d="M79.9457 68.289C79.9457 68.289 79.5646 69.2095 78.9392 69.6394C78.7098 69.7983 78.4508 69.8964 78.1659 69.8544C77.5775 69.7796 77.4813 69.1254 77.5146 68.546C77.5405 68.0693 77.6626 67.6348 77.6626 67.6348C77.6626 67.6348 78.6099 68.4478 79.9494 68.289H79.9457Z" fill="white"/>
<path id="Vector_70" d="M77.6589 67.6628C78.1511 68.3591 78.7875 68.6675 79.4388 68.7002C79.7274 68.7142 80.0271 68.6675 80.3121 68.5787C80.3676 68.5647 80.4268 68.546 80.4749 68.5226C80.5267 68.5039 80.5711 68.4852 80.6266 68.4619C80.708 68.4291 80.7413 68.3357 80.745 68.2329C80.7413 68.1955 80.7376 68.1675 80.7265 68.1348L80.7154 68.0506C80.6451 67.3591 80.4601 66.3217 80.4601 66.3217C80.6747 66.4105 81.7626 66.7843 81.7034 66.4291C81.1928 63.4759 80.6229 60.1955 79.6201 57.3918C79.5905 57.2983 79.4758 57.345 79.4943 57.4385C79.8976 60.2983 80.6969 63.0506 81.1372 65.9198C80.7931 65.831 80.227 65.6441 79.9457 65.7095C79.8717 65.7516 80.3269 67.7049 80.3417 68.0226C80.3417 68.0226 80.3417 68.0366 80.3417 68.0553C79.4425 68.3871 78.7098 68.1721 77.7218 67.574C77.6626 67.532 77.6145 67.6067 77.6663 67.6675L77.6589 67.6628Z" fill="#263238"/>
</g>
<g id="Group_29">
<path id="Vector_71" d="M67.7568 64.658C70.2471 64.186 70.0732 58.3823 70.0732 58.3823C70.0732 58.3823 74.2509 56.7094 74.4026 52.5225C74.4026 52.5225 78.843 55.0505 81.8699 52.9991C84.8968 50.9477 83.6978 46.5085 83.2316 45.5973C82.7654 44.6861 81.2038 46.8262 81.2038 46.8262C81.2038 46.8262 80.7043 44.2795 80.127 44.1206C79.5498 43.9571 79.139 45.63 79.139 45.63C79.139 45.63 74.8207 44.644 71.1019 45.4664C67.3831 46.2889 66.0843 51.3823 66.0843 51.3823C66.0843 51.3823 64.149 52.2842 63.7049 54.172C63.2609 56.0599 66.1731 64.9571 67.7605 64.658H67.7568Z" fill="#263238"/>
<path id="Vector_72" d="M69.0704 58.611C72.4451 58.555 74.3212 55.3727 74.3397 51.2792C74.3397 51.2278 74.3989 51.2232 74.4026 51.2746C74.7394 55.0222 72.4599 59.6905 69.063 58.8026C68.9816 58.7792 68.9853 58.6157 69.0741 58.611H69.0704Z" fill="#263238"/>
<path id="Vector_73" d="M66.1619 51.2932C66.1989 51.2745 66.2248 51.3446 66.1915 51.3726C65.3293 52.0876 64.3117 52.6904 63.7863 53.8726C63.1498 55.3072 63.5124 56.9661 63.975 58.3726C64.6928 60.5595 65.9583 63.3352 67.7197 64.3726C67.8196 64.4333 67.7456 64.6203 67.642 64.5689C65.5513 63.4894 63.9861 59.8726 63.4125 57.2511C62.7687 54.3165 64.0453 52.3399 66.1582 51.2932H66.1619Z" fill="#263238"/>
<path id="Vector_74" d="M78.1658 53.0227C79.7532 53.8638 81.9216 53.5134 83.2056 51.9853C84.7672 50.1255 84.1048 47.6629 83.1057 45.6863C83.0576 45.5881 83.1612 45.4573 83.2315 45.5461C84.4785 47.2143 84.8893 50.0227 83.646 51.8825C82.3656 53.8031 79.8013 54.2237 78.0548 53.2984C77.9067 53.219 78.0178 52.9433 78.1658 53.018V53.0227Z" fill="#263238"/>
</g>
<g id="Group_30">
<path id="Vector_75" d="M76.2787 67.2982C74.9096 67.3637 73.6219 66.2562 73.2185 64.5225C72.7412 62.4711 73.67 60.3123 75.2944 59.7048C76.9188 59.0973 78.6284 60.2749 79.1094 62.3263C79.5868 64.3777 78.658 66.5366 77.0336 67.144C76.7819 67.2375 76.5303 67.2889 76.2787 67.2982ZM76.0604 60.0693C75.8458 60.0786 75.6237 60.1253 75.4091 60.2048C74.003 60.7281 73.1963 62.602 73.6107 64.3777C74.0252 66.1534 75.509 67.1721 76.9152 66.6487C78.3213 66.1253 79.1279 64.2515 78.7135 62.4758C78.362 60.9758 77.2482 60.0132 76.0604 60.0693Z" fill="#455A64"/>
<path id="Vector_76" d="M83.2315 65.8778C82.0585 65.9338 80.9484 64.4665 80.7005 62.4665C80.5746 61.4572 80.6857 60.4619 81.0113 59.6628C81.348 58.8357 81.8698 58.3123 82.4877 58.1908C83.1057 58.0693 83.7273 58.3637 84.2491 59.0226C84.7523 59.6581 85.0965 60.5647 85.2186 61.574C85.4776 63.6862 84.6783 65.6021 83.435 65.8497C83.3684 65.8637 83.3018 65.8731 83.2352 65.8731L83.2315 65.8778ZM82.7023 58.6862C82.6505 58.6862 82.5987 58.6955 82.5469 58.7049C82.0659 58.7983 81.6477 59.2236 81.3739 59.9011C81.089 60.6067 80.9928 61.4899 81.1038 62.3871C81.3295 64.2189 82.3434 65.5413 83.3684 65.3404C84.3897 65.1394 85.0372 63.4852 84.8115 61.6581C84.7005 60.7563 84.3971 59.9525 83.9531 59.3918C83.5756 58.9105 83.1353 58.6628 82.7023 58.6862Z" fill="#455A64"/>
<path id="Vector_77" d="M79.0577 62.7894L78.7468 62.4482C79.1465 61.8688 80.1308 61.0043 80.9929 61.8595L80.7413 62.266C79.9679 61.4996 79.0947 62.738 79.0577 62.7894Z" fill="#455A64"/>
<path id="Vector_78" d="M65.6661 66.434L65.2776 66.2705C65.3368 66.0415 65.8955 64.0181 66.7799 63.6583C67.6051 63.3219 73.1223 62.8919 73.3554 62.8779L73.3813 63.3966C71.8013 63.5181 67.5459 63.8919 66.9094 64.1536C66.3248 64.3919 65.8178 65.8826 65.6698 66.4387L65.6661 66.434Z" fill="#455A64"/>
</g>
<g id="Group_31">
<path id="Vector_79" d="M69.3442 65.2466C69.3442 65.2466 66.8465 61.0877 65.3404 62.2326C63.8381 63.3728 65.8104 69.4849 67.6383 70.2419C69.4663 70.999 70.0583 68.8775 70.0583 68.8775L69.3442 65.2513V65.2466Z" fill="#F7A9A0"/>
<path id="Vector_80" d="M65.9398 63.9617C65.9102 63.9617 65.9065 64.0131 65.9324 64.0225C67.2164 64.6066 67.9268 66.0552 68.4412 67.5645C68.0453 66.9944 67.5235 66.6954 66.9167 67.2888C66.8833 67.3215 66.9167 67.3823 66.9537 67.3729C67.468 67.2094 67.8454 67.3028 68.2118 67.8075C68.4708 68.1673 68.6558 68.6253 68.8445 69.0458C68.9074 69.186 69.1109 69.0972 69.0628 68.9383C69.0628 68.9243 69.0554 68.915 69.0517 68.901C69.0221 66.8636 67.6789 64.0785 65.9435 63.957L65.9398 63.9617Z" fill="#263238"/>
</g>
</g>
<g id="Group_32">
<path id="Vector_81" d="M77.163 82.0882L74.6912 89.7471L67.2017 80.0742L65.0703 83.1677C65.0703 83.1677 72.3859 98.5228 72.434 97.8312L74.9354 91.2611L78.521 95.8452L78.2472 84.3593L77.163 82.0882Z" fill="#455A64"/>
<path id="Vector_82" d="M78.6394 90.1586C78.5432 88.266 78.4914 86.3548 78.3249 84.467C78.3175 84.4015 78.2361 84.3688 78.2213 84.4483C77.9179 86.2754 78.3138 93.5184 78.3027 95.2567C78.299 95.252 78.2916 95.2427 78.2879 95.238C78.1399 95.0417 74.965 91.2053 74.9317 91.266C74.3915 92.3081 72.5561 97.0931 72.4303 97.5277C71.2721 95.0885 66.8391 86.2193 65.4663 83.9156C65.4256 83.8501 65.3441 83.9015 65.3774 83.981C66.3987 86.5558 72.2675 98.495 72.36 98.4623C72.4229 98.523 74.7023 92.6305 74.9761 91.5184C75.5127 92.3548 78.7171 96.6819 78.7282 96.4015C78.806 94.4997 78.7356 92.0651 78.6431 90.1679L78.6394 90.1586Z" fill="#263238"/>
</g>
</g>
<g id="Group_33">
<g id="Group_34">
<g id="Group_35">
<path id="Vector_83" d="M92.6822 161.985L55.7122 166.607L55.5938 130.411L92.5638 125.789L92.6822 161.985Z" fill="#FFC727"/>
<path id="Vector_84" d="M67.6606 124.901L55.5605 126.411L55.5939 130.411L68.5413 128.794L67.6606 124.901Z" fill="#FFC727"/>
</g>
<g id="Group_36" opacity="0.1">
<path id="Vector_85" d="M92.6822 161.985L55.7122 166.607L55.5938 130.411L92.5638 125.789L92.6822 161.985Z" fill="black"/>
<path id="Vector_86" d="M67.6606 124.901L55.5605 126.411L55.5939 130.411L68.5413 128.794L67.6606 124.901Z" fill="black"/>
</g>
</g>
<path id="Vector_87" d="M92.6564 161.99L56.9999 166.448L51.9009 130.154L89.907 126.121L92.6564 161.99Z" fill="#EBEBEB"/>
<path id="Vector_88" d="M92.6563 161.99L56.0933 166.56L50.6279 131.677L89.0596 126.873L92.6563 161.99Z" fill="white"/>
<path id="Vector_89" d="M92.5897 161.995L55.5383 166.631L50.1321 132.5L87.1835 127.864L92.5897 161.995Z" fill="#FFC727"/>
</g>
<g id="Group_37">
<path id="Vector_90" d="M60.9851 87.9854C48.3485 102.462 39.2308 127.425 39.5084 134.149C39.8784 143.032 52.6223 158.224 60.9222 162.621C63.024 163.733 71.1425 142.032 68.0712 140.906C64.8298 139.714 57.3329 131.13 56.9702 130.742C56.1895 129.911 62.2321 110.925 64.7594 99.4013C67.6124 86.3872 66.3062 81.8966 60.9888 87.99L60.9851 87.9854Z" fill="#F7A9A0"/>
<g id="Group_38">
<path id="Vector_91" d="M56.2339 159.298C64.271 166.626 75.1981 168.214 77.0853 167.976C78.6912 167.775 79.5201 167.654 79.5201 167.654C82.41 167.369 83.4461 165.635 83.4461 165.635C83.4461 165.635 86.8653 166.546 87.6423 164.027C88.523 161.21 83.5497 160.481 81.0113 157.971C75.1907 152.219 68.1897 141.99 66.6429 140.116L56.2376 159.294L56.2339 159.298Z" fill="#F7A9A0"/>
<path id="Vector_92" d="M71.5534 157.36C73.2925 159.009 74.9688 160.687 76.8745 162.032C78.9689 163.504 81.1779 164.481 83.4055 165.546C83.4759 165.579 83.4463 165.705 83.3722 165.687C79.0947 164.57 74.5284 161.425 71.4313 157.546C71.3573 157.453 71.4646 157.28 71.5497 157.364L71.5534 157.36Z" fill="#263238"/>
<path id="Vector_93" d="M68.2933 161.294C70.0584 162.78 73.1704 165.369 79.5386 167.57C79.5608 167.579 79.5571 167.626 79.5312 167.621C75.2463 166.887 71.5348 164.897 68.1823 161.523C68.0787 161.42 68.1786 161.196 68.2933 161.294Z" fill="#263238"/>
<path id="Vector_94" d="M74.3396 150.481C73.8178 149.355 74.2804 148.999 75.9936 149.85C77.7291 150.705 83.9124 155.901 85.1668 153.013C86.4286 150.116 77.5811 142.943 74.643 141.803C71.705 140.654 66.6355 140.116 66.6355 140.116C68.1341 141.948 71.4348 146.836 74.3396 150.476V150.481Z" fill="#F7A9A0"/>
</g>
<g id="Group_39">
<path id="Vector_95" d="M56.5226 160.934L66.5912 139.593C66.5912 139.593 57.1701 131.252 57.1257 130.415C57.0813 129.579 63.7456 106.584 65.7623 95.2706C67.779 83.9575 66.7799 78.5556 57.9583 91.1725C49.1367 103.789 37.8248 125.018 38.4242 134.116C39.0237 143.215 56.5263 160.944 56.5263 160.944L56.5226 160.934Z" fill="#455A64"/>
<path id="Vector_96" d="M64.0861 106.083C63.7197 106.892 63.3275 107.686 62.9982 108.518C62.8909 108.789 62.7835 109.06 62.6762 109.331C62.7576 109.004 62.8428 108.677 62.9242 108.35C63.4422 106.298 63.9417 104.238 64.3784 102.158C64.3895 102.107 64.3266 102.074 64.3081 102.125C63.1425 105.658 62.1841 109.298 61.2294 112.929C60.2673 116.583 59.3644 120.266 58.5023 123.962C58.0212 126.027 57.5254 128.097 57.1479 130.196C57.1405 130.242 57.1923 130.256 57.2034 130.214C57.7585 128.415 58.2284 126.569 58.7095 124.742C59.1905 122.911 59.6753 121.083 60.1489 119.252C60.9001 116.326 61.6438 113.401 62.3839 110.471C62.7206 109.943 62.9464 109.317 63.1906 108.71C63.531 107.859 63.8085 106.976 64.112 106.102C64.1194 106.079 64.0935 106.06 64.0824 106.083H64.0861Z" fill="#263238"/>
<g id="Group_40">
<path id="Vector_97" d="M54.7353 155.574C54.5762 156.187 54.8426 156.845 55.3273 157.046C55.8121 157.247 56.3338 156.911 56.4929 156.299C56.6521 155.687 56.3856 155.028 55.9009 154.827C55.4162 154.626 54.8944 154.962 54.7353 155.574Z" fill="#263238"/>
<path id="Vector_98" d="M51.2162 151.462C51.0571 152.074 51.3235 152.733 51.8083 152.934C52.293 153.135 52.8148 152.799 52.9739 152.186C53.133 151.574 52.8666 150.915 52.3818 150.714C51.8971 150.514 51.3754 150.85 51.2162 151.462Z" fill="#263238"/>
</g>
<path id="Vector_99" d="M44.8887 147.252C46.0543 148.509 47.1496 149.85 48.2338 151.205C48.7703 151.887 49.3106 152.57 49.8397 153.266C50.3726 153.958 50.8906 154.663 51.4124 155.373C50.1765 154.219 49.0626 152.892 47.9747 151.537C46.8943 150.173 45.8471 148.766 44.8887 147.252Z" fill="#263238"/>
</g>
</g>
</g>
<g id="Group_41">
<g id="Group_42">
<path id="Vector_100" d="M173.786 50.9152C174.578 47.7002 178.042 40.6254 183.633 42.761C191.611 45.8077 191.307 65.7469 194.893 72.3965C201.391 84.4525 200.802 95.546 194.656 96.5974C187.77 97.775 181.897 87.8591 183.625 68.1301C184.706 55.7937 182.356 49.9899 180.376 50.1254C178.397 50.261 177.098 53.2469 177.098 53.2469L173.786 50.9152Z" fill="#263238"/>
<path id="Vector_101" d="M174.149 49.7192C174.659 48.2473 175.318 46.8501 176.102 45.565C176.894 44.2893 177.86 43.1398 179.029 42.3548C180.184 41.551 181.564 41.2099 182.893 41.4295C184.202 41.6398 185.479 42.2379 186.571 43.2052C187.659 44.1772 188.524 45.4903 189.176 46.9108C189.823 48.3407 190.308 49.8688 190.678 51.4202C191.389 54.5417 191.718 57.7566 191.862 60.9622C191.44 57.794 190.926 54.6492 190.145 51.6351C189.72 50.1445 189.242 48.6819 188.595 47.3501C187.958 46.0183 187.152 44.8127 186.156 43.9435C185.172 43.051 184.003 42.4996 182.8 42.28C181.609 42.037 180.38 42.3174 179.281 42.9856C178.182 43.6585 177.201 44.6772 176.369 45.8548C175.94 46.4342 175.555 47.065 175.181 47.7052C174.818 48.3594 174.474 49.0323 174.149 49.7239V49.7192Z" fill="#263238"/>
<path id="Vector_102" d="M184.084 61.3223C184.021 63.2942 183.784 65.2475 183.61 67.2008C183.411 69.1494 183.218 71.098 183.074 73.0512C182.937 74.9998 182.826 76.9531 182.837 78.9017C182.841 80.8456 182.941 82.7942 183.24 84.6821C183.529 86.5699 184.025 88.4111 184.839 90.0092C185.66 91.5839 186.756 93.0092 187.966 94.1447C189.191 95.2755 190.611 96.0793 192.125 96.3924C192.88 96.5559 193.649 96.6026 194.419 96.5092C194.804 96.4671 195.185 96.3877 195.563 96.2755C195.936 96.1634 196.317 96.0325 196.654 95.7849C195.999 96.3316 195.215 96.5793 194.445 96.7475C193.668 96.9064 192.869 96.9297 192.081 96.8316C191.292 96.7241 190.512 96.4765 189.764 96.126C189.017 95.7662 188.31 95.2849 187.647 94.7241C186.985 94.1634 186.371 93.5092 185.808 92.7989L185.394 92.2568L185.002 91.6914C184.739 91.3129 184.491 90.9017 184.269 90.4765C183.377 88.7709 182.852 86.8176 182.537 84.855C181.945 80.897 182.127 76.883 182.519 72.9718C182.715 71.0092 182.985 69.0699 183.266 67.1307C183.562 65.1961 183.866 63.2709 184.088 61.3223H184.084Z" fill="#263238"/>
<path id="Vector_103" d="M173.316 50.9155C173.294 49.9902 173.823 48.8033 174.297 48.6398C174.77 48.4762 178.278 50.3781 178.582 51.5136C178.881 52.6491 177.324 53.6538 177.324 53.6538L173.32 50.9155H173.316Z" fill="#455A64"/>
</g>
<g id="Group_43">
<path id="Vector_104" d="M176.025 91.7188C173.941 97.4478 158.426 124.382 150.726 125.116C142.666 125.887 123.332 109.252 121.482 107.868C116.401 104.069 130.566 86.5599 133.016 89.6674C137.108 94.8637 146.896 104.663 149.29 103.999C154.319 102.607 164.798 91.4945 172.228 85.7141C176.713 82.2235 178.334 85.3824 176.025 91.7188Z" fill="#F7A9A0"/>
<g id="Group_44">
<g id="Group_45">
<path id="Vector_105" d="M122.696 108.761C121.819 108.027 114.77 103.079 112.124 98.3078C110.721 95.7797 107.491 88.2891 108.601 87.018C109.615 85.8591 110.899 87.6395 110.899 87.6395C110.899 87.6395 109.497 84.2704 110.921 82.6816C112.346 81.0928 114.392 84.233 114.392 84.233C114.392 84.233 113.152 80.6442 114.662 79.1863C116.172 77.7283 117.811 81.3264 117.811 81.3264C117.811 81.3264 116.557 78.1115 118.2 77.5694C120.176 76.9199 121.959 83.1816 123.876 85.5881C124.313 86.1349 133.327 95.8732 133.327 95.8732L122.696 108.752V108.761Z" fill="#F7A9A0"/>
<g id="Group_46">
<path id="Vector_106" d="M117.922 81.326C119.243 85.9241 120.45 87.6484 123.462 90.6017C123.521 90.6578 123.465 90.7839 123.399 90.7279C120.239 88.1765 118.477 86.2886 117.741 81.3914C117.704 81.1531 117.859 81.1017 117.922 81.3213V81.326Z" fill="#263238"/>
<path id="Vector_107" d="M114.503 84.2182C116.205 88.8444 117.5 90.7276 120.476 94.1154C120.516 94.1621 120.457 94.2603 120.413 94.2135C117.275 91.1995 115.55 89.2696 114.333 84.3631C114.277 84.1434 114.425 84.0079 114.503 84.2182Z" fill="#263238"/>
<path id="Vector_108" d="M111.051 87.7978C112.953 92.1249 114.303 94.2697 117.526 97.0875C117.604 97.1529 117.534 97.3025 117.452 97.2417C113.944 94.7697 112.242 92.1109 110.954 87.8819C110.866 87.5922 110.932 87.5221 111.051 87.7931V87.7978Z" fill="#263238"/>
</g>
</g>
<g id="Group_47">
<path id="Vector_109" d="M136.379 94.4762C136.379 94.4762 134.378 88.8921 133.071 86.6818C131.765 84.4715 124.494 78.5089 123.384 80.4154C121.952 82.8827 125.611 87.3687 127.632 89.2706C127.632 89.2706 124.313 94.9715 126.389 98.9108C128.464 102.85 136.379 94.4715 136.379 94.4715V94.4762Z" fill="#F7A9A0"/>
<path id="Vector_110" d="M123.166 81.257C123.143 84.6962 125.922 86.9766 127.773 89.0093C127.913 89.1635 127.865 89.3598 127.75 89.4719C126.485 91.9766 125.279 95.9813 126.237 98.8738C126.267 98.9579 126.174 99.0187 126.137 98.9392C124.775 96.0093 125.708 91.9579 127.232 89.3224C125.308 87.2757 122.599 84.8364 123.14 81.2523C123.14 81.2336 123.166 81.2336 123.166 81.2523V81.257Z" fill="#263238"/>
</g>
</g>
<g id="Group_48">
<path id="Vector_111" d="M175.81 93.3502C173.394 99.4297 159.314 125.364 151.706 125.775C144.098 126.187 128.161 117.986 128.161 117.986L139.969 95.2801C139.969 95.2801 148.143 102.729 149.423 102.789C150.703 102.85 167.869 88.5278 171.88 85.3829C175.891 82.2381 179.74 83.4624 175.81 93.3502Z" fill="#FFC727"/>
<g id="Group_49">
<path id="Vector_112" d="M138.94 118.153C138.87 117.448 138.914 116.761 138.981 116.079C139.062 115.401 139.169 114.724 139.388 114.069C139.458 114.775 139.414 115.462 139.347 116.144C139.266 116.822 139.158 117.499 138.94 118.153Z" fill="white"/>
<path id="Vector_113" d="M162.444 113.607C162.374 112.901 162.418 112.214 162.485 111.532C162.566 110.854 162.674 110.177 162.892 109.522C162.962 110.228 162.918 110.915 162.851 111.597C162.77 112.275 162.663 112.952 162.444 113.607Z" fill="white"/>
<path id="Vector_114" d="M163.747 96.336C163.188 96.4248 162.644 96.3687 162.104 96.2846C161.568 96.1818 161.031 96.0463 160.513 95.7706C161.072 95.6818 161.616 95.7379 162.156 95.822C162.692 95.9248 163.229 96.0603 163.747 96.336Z" fill="white"/>
<path id="Vector_115" d="M144.805 104.168C144.246 104.257 143.702 104.201 143.162 104.117C142.625 104.014 142.089 103.878 141.571 103.603C142.13 103.514 142.674 103.57 143.214 103.654C143.75 103.757 144.287 103.892 144.805 104.168Z" fill="white"/>
<path id="Vector_116" d="M147.569 125.266C147.547 125.303 147.525 125.341 147.499 125.374C147.469 125.369 147.436 125.364 147.403 125.355C147.458 125.327 147.514 125.294 147.569 125.266Z" fill="white"/>
<path id="Vector_117" d="M134.215 110.005C134.562 109.444 134.973 108.995 135.406 108.575C135.843 108.168 136.298 107.785 136.82 107.519C136.476 108.079 136.061 108.528 135.628 108.948C135.191 109.355 134.736 109.738 134.215 110.005Z" fill="white"/>
<path id="Vector_118" d="M153.908 104.845C154.256 104.285 154.67 103.836 155.099 103.415C155.536 103.009 155.991 102.626 156.513 102.359C156.169 102.92 155.754 103.369 155.321 103.789C154.885 104.196 154.429 104.579 153.908 104.845Z" fill="white"/>
<path id="Vector_119" d="M147.373 111.962C147.817 112.401 148.172 112.925 148.505 113.467C148.827 114.018 149.131 114.593 149.342 115.252C148.898 114.817 148.542 114.294 148.209 113.747C147.887 113.196 147.584 112.621 147.373 111.962Z" fill="white"/>
<path id="Vector_120" d="M166.071 101.312C166.515 101.752 166.87 102.275 167.203 102.817C167.525 103.369 167.828 103.943 168.039 104.602C167.595 104.168 167.24 103.644 166.907 103.098C166.585 102.546 166.282 101.971 166.071 101.312Z" fill="white"/>
</g>
<path id="Vector_121" d="M142.525 98.9713C141.038 102.364 139.606 105.794 138 109.107C136.416 112.373 134.788 115.649 132.938 118.686C132.905 118.742 132.823 118.686 132.853 118.616C134.274 115.228 135.898 111.957 137.478 108.686C139.069 105.387 140.768 102.172 142.359 98.8732C142.418 98.747 142.585 98.8405 142.525 98.9713Z" fill="#263238"/>
<path id="Vector_122" d="M175.814 93.3503C173.397 99.4298 159.314 125.364 151.706 125.776C149.86 125.874 147.521 125.467 145.042 124.79C150.955 116.804 167.492 94.2802 175.148 83.855C177.471 83.6774 178.6 86.3316 175.814 93.3503Z" fill="#263238"/>
</g>
</g>
<g id="Group_50">
<path id="Vector_123" d="M161.779 153.556H206.434C206.434 153.556 189.072 98.0465 179.825 86.8783C177.313 83.8409 171.103 84.0652 168.062 89.1867C165.568 93.383 158.644 110.098 158.33 116.107C158.026 122.131 161.749 128.051 161.749 128.051L161.782 153.556H161.779Z" fill="#FFC727"/>
<g id="Group_51">
<path id="Vector_124" d="M167.484 132.757C167.414 132.051 167.458 131.364 167.525 130.682C167.606 130.005 167.714 129.327 167.932 128.673C168.002 129.378 167.958 130.065 167.891 130.748C167.81 131.425 167.703 132.103 167.484 132.757Z" fill="white"/>
<path id="Vector_125" d="M198.167 143.205C198.097 142.5 198.142 141.813 198.208 141.13C198.29 140.453 198.397 139.775 198.615 139.121C198.686 139.827 198.641 140.514 198.575 141.196C198.493 141.873 198.386 142.551 198.167 143.205Z" fill="white"/>
<path id="Vector_126" d="M178.904 152.336C178.833 151.63 178.878 150.944 178.944 150.261C179.026 149.584 179.133 148.906 179.351 148.252C179.422 148.958 179.377 149.644 179.311 150.327C179.229 151.004 179.122 151.682 178.904 152.336Z" fill="white"/>
<path id="Vector_127" d="M174.463 110.435C174.393 109.729 174.437 109.042 174.504 108.36C174.585 107.682 174.693 107.005 174.911 106.351C174.981 107.056 174.937 107.743 174.87 108.425C174.789 109.103 174.681 109.78 174.463 110.435Z" fill="white"/>
<path id="Vector_128" d="M186.33 127.304C186.26 126.598 186.304 125.911 186.371 125.229C186.452 124.551 186.56 123.874 186.778 123.22C186.848 123.925 186.804 124.612 186.737 125.294C186.656 125.972 186.549 126.65 186.33 127.304Z" fill="white"/>
<path id="Vector_129" d="M162.445 113.608C162.374 112.902 162.419 112.215 162.485 111.533C162.567 110.855 162.674 110.178 162.892 109.523C162.963 110.229 162.918 110.916 162.852 111.598C162.77 112.276 162.663 112.953 162.445 113.608Z" fill="white"/>
<path id="Vector_130" d="M178.149 130.2C177.59 130.289 177.046 130.233 176.506 130.149C175.969 130.046 175.433 129.911 174.915 129.635C175.474 129.546 176.017 129.598 176.558 129.686C177.094 129.789 177.631 129.925 178.149 130.2Z" fill="white"/>
<path id="Vector_131" d="M191.618 114.074C191.059 114.163 190.515 114.107 189.975 114.023C189.439 113.92 188.902 113.785 188.384 113.509C188.943 113.42 189.487 113.476 190.027 113.56C190.564 113.663 191.1 113.799 191.618 114.074Z" fill="white"/>
<path id="Vector_132" d="M167.584 149.163C167.026 149.252 166.482 149.196 165.941 149.112C165.405 149.009 164.868 148.873 164.35 148.598C164.909 148.509 165.453 148.565 165.993 148.649C166.53 148.752 167.066 148.887 167.584 149.163Z" fill="white"/>
<path id="Vector_133" d="M192.639 135.196C192.081 135.285 191.537 135.229 190.996 135.145C190.46 135.042 189.923 134.907 189.405 134.631C189.964 134.542 190.508 134.598 191.048 134.682C191.585 134.785 192.121 134.921 192.639 135.196Z" fill="white"/>
<path id="Vector_134" d="M171.499 142.86C171.847 142.299 172.258 141.851 172.691 141.43C173.127 141.024 173.583 140.64 174.104 140.374C173.76 140.935 173.346 141.383 172.913 141.804C172.476 142.21 172.021 142.594 171.499 142.86Z" fill="white"/>
<path id="Vector_135" d="M188.384 146.934C188.732 146.373 189.143 145.925 189.576 145.504C190.012 145.098 190.467 144.715 190.989 144.448C190.645 145.009 190.23 145.458 189.798 145.878C189.361 146.285 188.906 146.668 188.384 146.934Z" fill="white"/>
<path id="Vector_136" d="M192.854 126.986C193.202 126.425 193.613 125.977 194.046 125.556C194.482 125.15 194.937 124.766 195.459 124.5C195.115 125.061 194.7 125.509 194.268 125.93C193.831 126.336 193.376 126.72 192.854 126.986Z" fill="white"/>
<path id="Vector_137" d="M166.193 119.817C166.541 119.256 166.952 118.808 167.385 118.387C167.821 117.981 168.276 117.597 168.798 117.331C168.454 117.892 168.04 118.34 167.607 118.761C167.17 119.168 166.715 119.551 166.193 119.817Z" fill="white"/>
<path id="Vector_138" d="M183.459 106.089C183.807 105.528 184.217 105.079 184.65 104.659C185.087 104.252 185.542 103.869 186.064 103.603C185.72 104.163 185.305 104.612 184.872 105.032C184.436 105.439 183.98 105.822 183.459 106.089Z" fill="white"/>
<path id="Vector_139" d="M162.929 136.238C162.589 136.79 162.182 137.234 161.756 137.65V137.079C162.119 136.752 162.504 136.458 162.929 136.238Z" fill="white"/>
<path id="Vector_140" d="M174.663 97.2946C175.011 96.7338 175.425 96.2852 175.855 95.8647C176.291 95.4581 176.746 95.0749 177.268 94.8086C176.924 95.3693 176.51 95.8179 176.077 96.2385C175.64 96.645 175.185 97.0282 174.663 97.2946Z" fill="white"/>
<path id="Vector_141" d="M159.939 122.663C160.383 123.102 160.739 123.626 161.072 124.168C161.394 124.719 161.697 125.294 161.908 125.953C161.464 125.518 161.109 124.995 160.776 124.448C160.454 123.897 160.15 123.322 159.939 122.663Z" fill="white"/>
<path id="Vector_142" d="M166.071 101.312C166.515 101.752 166.87 102.275 167.203 102.817C167.525 103.369 167.828 103.943 168.039 104.602C167.595 104.168 167.24 103.644 166.907 103.098C166.585 102.546 166.282 101.971 166.071 101.312Z" fill="white"/>
<path id="Vector_143" d="M181.557 135.836C182.001 136.275 182.356 136.799 182.689 137.341C183.011 137.892 183.315 138.467 183.525 139.126C183.081 138.691 182.726 138.168 182.393 137.621C182.071 137.07 181.768 136.495 181.557 135.836Z" fill="white"/>
<path id="Vector_144" d="M197.635 149.393C198.079 149.832 198.434 150.355 198.767 150.897C199.089 151.449 199.392 152.023 199.603 152.682C199.159 152.248 198.804 151.724 198.471 151.178C198.149 150.626 197.846 150.051 197.635 149.393Z" fill="white"/>
<path id="Vector_145" d="M181.261 91.2334C181.705 91.6727 182.06 92.196 182.393 92.7381C182.715 93.2895 183.018 93.8642 183.229 94.5231C182.785 94.0885 182.43 93.5652 182.097 93.0184C181.775 92.467 181.472 91.8923 181.261 91.2334Z" fill="white"/>
<path id="Vector_146" d="M178.378 117.547C178.822 117.986 179.177 118.509 179.51 119.052C179.832 119.603 180.136 120.178 180.347 120.837C179.903 120.402 179.547 119.879 179.214 119.332C178.893 118.781 178.589 118.206 178.378 117.547Z" fill="white"/>
</g>
</g>
<g id="Group_52">
<g id="Group_53">
<path id="Vector_147" d="M176.854 87.4159C176.606 88.2477 172.787 93.2897 169.701 92.5981C168.695 92.3692 169.435 85.3832 169.435 85.3832L169.394 84.8505L168.857 77.4065L176.143 73.0608L177.191 72.5C177.191 72.5 177.231 74.5467 177.261 77.0981C177.261 77.215 177.265 77.3365 177.265 77.4626C177.268 77.6075 177.276 77.743 177.276 77.8785C177.283 78.2617 177.29 78.6495 177.29 79.0374C177.29 79.3318 177.294 79.6215 177.29 79.9299C177.29 80.243 177.283 80.5421 177.283 80.8551C177.22 83.9206 176.954 87.0654 176.854 87.4206V87.4159Z" fill="#F7A9A0"/>
<path id="Vector_148" d="M177.265 77.0981C175.033 82.5841 171.152 84.3365 169.398 84.8505L168.861 77.4065L176.147 73.0608L177.194 72.5C177.194 72.5 177.235 74.5467 177.265 77.0981Z" fill="#263238"/>
</g>
<g id="Group_54">
<path id="Vector_149" d="M161.364 66.4479C160.539 79.5227 166.648 81.6208 168.88 81.8405C170.907 82.0414 177.827 82.4012 179.718 69.504C181.605 56.6068 177.054 51.99 172.439 51.2236C167.825 50.4526 162.189 53.3732 161.368 66.4479H161.364Z" fill="#F7A9A0"/>
<g id="Group_55">
<path id="Vector_150" d="M163.111 63.6681C163.355 63.6354 163.577 63.5513 163.814 63.4905C164.084 63.4204 164.302 63.3971 164.502 63.1354C164.61 62.9952 164.602 62.7102 164.506 62.5653C164.28 62.2289 163.932 62.2148 163.603 62.2849C163.248 62.3597 162.989 62.5326 162.756 62.8737C162.526 63.2055 162.789 63.7102 163.111 63.6681Z" fill="#263238"/>
<path id="Vector_151" d="M170.001 63.8554C169.757 63.818 169.538 63.7292 169.302 63.6591C169.035 63.5797 168.813 63.5517 168.617 63.29C168.513 63.1498 168.521 62.8648 168.621 62.7199C168.854 62.3881 169.202 62.3834 169.527 62.4582C169.883 62.5423 170.138 62.7246 170.367 63.0704C170.593 63.4068 170.323 63.9068 170.001 63.8554Z" fill="#263238"/>
<g id="Group_56">
<g id="Group_57">
<path id="Vector_152" d="M168.38 67.1493C168.387 67.1166 168.436 67.1961 168.432 67.2288C168.387 68.1213 168.454 69.1493 169.083 69.4718C169.102 69.4811 169.098 69.5279 169.076 69.5232C168.299 69.3503 168.221 67.9811 168.376 67.1493H168.38Z" fill="#263238"/>
<path id="Vector_153" d="M169.035 66.2431C170.175 66.1824 170.19 69.0656 169.131 69.1216C168.091 69.1777 168.077 66.2945 169.035 66.2431Z" fill="#263238"/>
</g>
<path id="Vector_154" d="M169.483 66.3924C169.683 66.5559 169.879 66.841 170.119 66.869C170.397 66.9017 170.608 66.598 170.785 66.3083C170.804 66.2802 170.822 66.3036 170.826 66.341C170.837 66.8924 170.671 67.4625 170.201 67.5466C169.775 67.626 169.464 67.14 169.353 66.584C169.331 66.4812 169.401 66.327 169.483 66.3924Z" fill="#263238"/>
</g>
<g id="Group_58">
<g id="Group_59">
<path id="Vector_155" d="M164.454 66.9534C164.447 66.9207 164.399 66.9954 164.402 67.0328C164.436 67.9254 164.354 68.9534 163.718 69.2618C163.699 69.2711 163.699 69.3179 163.725 69.3132C164.506 69.159 164.602 67.7945 164.458 66.9534H164.454Z" fill="#263238"/>
<path id="Vector_156" d="M163.814 66.0333C162.674 65.9445 162.619 68.8277 163.673 68.9071C164.709 68.9865 164.769 66.108 163.814 66.0333Z" fill="#263238"/>
</g>
<path id="Vector_157" d="M163.333 66.2058C163.148 66.3507 162.967 66.6264 162.748 66.6358C162.497 66.6498 162.319 66.332 162.167 66.0283C162.152 65.9956 162.134 66.0189 162.13 66.0563C162.108 66.6077 162.241 67.1871 162.656 67.304C163.037 67.4114 163.325 66.9488 163.44 66.4021C163.462 66.2993 163.403 66.1451 163.329 66.2012L163.333 66.2058Z" fill="#263238"/>
</g>
<path id="Vector_158" d="M168.432 74.2153C168.273 74.4349 168.114 74.734 167.859 74.776C167.614 74.8181 167.318 74.6966 167.089 74.6031C167.067 74.5938 167.044 74.6265 167.059 74.6499C167.255 74.9816 167.651 75.1686 167.977 75.0751C168.295 74.9816 168.439 74.6265 168.499 74.248C168.506 74.1966 168.454 74.1779 168.428 74.2106L168.432 74.2153Z" fill="#263238"/>
<path id="Vector_159" d="M165.49 70.9672C165.49 70.9672 165.339 72.299 165.335 72.9298C165.335 72.9906 165.457 73.0186 165.623 73.0326C165.631 73.0326 165.635 73.0419 165.642 73.0326C166.523 73.2102 167.407 72.8363 167.947 71.9298C167.981 71.8691 167.918 71.8036 167.873 71.841C167.215 72.4438 166.489 72.598 165.709 72.6074C165.675 72.4345 166.03 70.3363 165.949 70.327C165.675 70.2943 165.139 70.5279 164.817 70.6448C165.068 67.855 165.672 65.1448 165.894 62.3644C165.901 62.2663 165.786 62.2335 165.764 62.3223C164.972 65.112 164.624 68.3083 164.306 71.1821C164.265 71.5373 165.29 71.0747 165.49 70.9672Z" fill="#263238"/>
<g id="Group_60">
<path id="Vector_160" d="M165.731 72.9016C165.731 72.9016 166.212 73.7427 166.882 74.0558C167.126 74.1726 167.392 74.2193 167.673 74.1305C168.247 73.9483 168.269 73.2847 168.169 72.7146C168.088 72.2474 167.921 71.8408 167.921 71.8408C167.921 71.8408 167.074 72.8175 165.734 72.9016H165.731Z" fill="#263238"/>
<path id="Vector_161" d="M166.878 74.056C167.122 74.1728 167.389 74.2195 167.67 74.1307C168.243 73.9485 168.266 73.2849 168.166 72.7148C167.551 72.7849 166.937 73.3036 166.878 74.056Z" fill="#EB9481"/>
</g>
</g>
<g id="Group_61">
<path id="Vector_162" d="M179.259 70.8082C176.979 69.4343 176.891 66.4157 176.891 66.4157C174.06 64.8689 172.535 62.0699 172.38 61.7848C172.45 62.0558 172.942 63.9998 173.216 64.9811C166.667 63.397 164.661 57.0512 164.661 57.0512C162.526 59.7194 162.097 61.4297 161.786 62.2801C161.786 62.2801 161.756 57.2007 163.836 53.8128C166.382 49.6633 174.929 48.5885 178.863 54.0418C183.1 59.925 179.255 70.8035 179.255 70.8035L179.259 70.8082Z" fill="#263238"/>
<path id="Vector_163" d="M168.239 63.5795C169.279 64.3271 170.441 64.8365 171.596 65.1589C171.607 65.1589 171.607 65.1449 171.596 65.1402C169.753 64.4673 168.099 63.2383 166.796 61.4393C166.245 60.6776 165.775 59.8411 165.39 58.9346C164.991 57.986 164.598 56.8552 164.532 55.7757C164.528 55.6916 164.424 55.7056 164.432 55.7851C164.502 56.9299 164.58 57.9813 164.939 59.0514C165.283 60.0654 165.775 61.0094 166.386 61.7991C166.929 62.5047 167.559 63.0935 168.236 63.5841" fill="#263238"/>
</g>
<g id="Group_62">
<g id="Group_63">
<path id="Vector_164" d="M178.008 70.3408C178.008 70.3408 180.251 66.2286 181.727 67.2333C183.203 68.2426 181.535 74.1912 179.81 75.0183C178.09 75.8454 177.449 73.8454 177.449 73.8454L178.005 70.3408H178.008Z" fill="#F7A9A0"/>
<path id="Vector_165" d="M181.216 68.9248C181.246 68.9248 181.25 68.9715 181.228 68.9809C180.021 69.6117 179.392 71.037 178.952 72.5089C179.307 71.9388 179.795 71.6257 180.402 72.1631C180.436 72.1912 180.402 72.2519 180.369 72.2472C179.873 72.1164 179.514 72.2285 179.181 72.7332C178.944 73.0884 178.785 73.5416 178.619 73.9528C178.563 74.0884 178.367 74.0183 178.408 73.8594C178.408 73.85 178.415 73.836 178.419 73.822C178.378 71.8734 179.562 69.1351 181.216 68.9248Z" fill="#263238"/>
</g>
<path id="Vector_166" d="M178.371 74.7236C178.371 75.2516 178.711 75.6815 179.129 75.6815C179.548 75.6815 179.888 75.2516 179.888 74.7236C179.888 74.1955 179.548 73.7656 179.129 73.7656C178.711 73.7656 178.371 74.1955 178.371 74.7236Z" fill="white"/>
</g>
</g>
</g>
<path id="Vector_167" d="M166.067 90.0836C166.067 90.0836 163.947 97.6817 167.777 98.2191C171.607 98.7565 181.609 89.4154 181.609 89.4154C181.609 89.4154 178.83 83.7378 174.397 84.3453C170.719 84.85 166.064 90.0836 166.064 90.0836H166.067Z" fill="#F7A9A0"/>
<g id="Group_64">
<g id="Group_65">
<path id="Vector_168" d="M184.154 98.9806C184.147 108.364 179.884 136.499 175.784 140.289C167.581 147.873 148.343 147.35 143.036 147.467C140.746 147.518 137.737 128.261 139.443 126.041C141.149 123.822 164.587 123.009 165.79 121.868C166.622 121.079 173.238 107.382 177.068 98.5787C182.245 86.6769 184.158 94.2516 184.154 98.9806Z" fill="#F7A9A0"/>
<g id="Group_66">
<path id="Vector_169" d="M143.525 125.013C143.525 125.013 136.601 124.046 132.046 123.681C129.508 123.48 125.127 123.621 123.206 124.55C120.335 125.938 109.027 134.064 110.529 137.569C111.887 140.742 115.343 137.233 115.343 137.233C115.343 137.233 111.284 140.621 113.397 143.242C115.528 145.892 119.676 140.765 119.676 140.765C119.676 140.765 115.169 143.985 117.633 146.513C119.776 148.709 125.06 143.462 125.06 143.462C125.06 143.462 120.035 146.186 122.052 148.705C124.283 151.49 132.99 144.882 132.99 144.882C138.655 147.265 142.311 147.728 146.644 147.382C147.44 147.317 143.521 125.008 143.521 125.008L143.525 125.013Z" fill="#F7A9A0"/>
<g id="Group_67">
<path id="Vector_170" d="M118.418 141.925C118.758 141.542 119.106 141.168 119.443 140.78C120.109 140.028 120.768 139.299 121.5 138.649C122.211 138.023 122.94 137.439 123.683 136.878C124.468 136.289 125.308 135.794 126.081 135.182C126.144 135.13 126.196 135.247 126.133 135.294C125.352 135.85 124.634 136.584 123.909 137.247C123.191 137.906 122.485 138.574 121.774 139.243C121.082 139.897 120.357 140.49 119.65 141.116C119.299 141.429 118.954 141.766 118.614 142.098C118.296 142.411 117.981 142.785 117.626 143.023C117.589 143.046 117.559 142.985 117.582 142.948C117.807 142.556 118.133 142.242 118.418 141.92V141.925Z" fill="#263238"/>
<path id="Vector_171" d="M114.51 137.962C114.98 137.191 117.567 134.527 118.259 133.897C119.598 132.677 121.03 131.602 122.533 130.742C122.584 130.714 122.633 130.808 122.584 130.855C121.249 132.084 119.894 133.294 118.547 134.499C117.889 135.088 114.954 137.887 114.618 138.13C114.536 138.191 114.462 138.042 114.51 137.957V137.962Z" fill="#263238"/>
<path id="Vector_172" d="M122.011 145.77C122.488 145.06 124.927 142.593 125.589 142.027C126.211 141.499 128.982 139.709 129.848 139.359C129.904 139.336 129.948 139.434 129.9 139.471C128.542 140.495 127.169 141.481 125.848 142.583C125.204 143.121 122.74 145.448 122.089 145.896C122.03 145.938 121.967 145.831 122.011 145.77Z" fill="#263238"/>
</g>
</g>
</g>
<g id="Group_68">
<path id="Vector_173" d="M148.195 148.882L141.867 123.49C141.867 123.49 164.894 121.63 165.642 121.144C166.389 120.658 174.596 102.345 177.842 95.2282C181.087 88.1067 186.116 91.0413 184.239 107.107C182.352 123.27 180.284 135.836 177.412 139.569C173.93 144.102 161.201 148.775 148.195 148.882Z" fill="#FFC727"/>
<g id="Group_69">
<path id="Vector_174" d="M167.484 132.756C167.414 132.05 167.458 131.363 167.525 130.681C167.606 130.004 167.714 129.326 167.932 128.672C168.002 129.377 167.958 130.064 167.891 130.747C167.81 131.424 167.703 132.102 167.484 132.756Z" fill="white"/>
<path id="Vector_175" d="M154.763 147.289C154.692 146.584 154.737 145.897 154.803 145.214C154.885 144.537 154.992 143.859 155.21 143.205C155.281 143.911 155.236 144.598 155.17 145.28C155.088 145.957 154.981 146.635 154.763 147.289Z" fill="white"/>
<path id="Vector_176" d="M174.463 110.434C174.393 109.728 174.437 109.041 174.504 108.359C174.585 107.681 174.693 107.004 174.911 106.35C174.981 107.055 174.937 107.742 174.87 108.424C174.789 109.102 174.681 109.78 174.463 110.434Z" fill="white"/>
<path id="Vector_177" d="M178.149 130.2C177.59 130.289 177.046 130.233 176.506 130.149C175.969 130.046 175.433 129.911 174.915 129.635C175.473 129.546 176.017 129.598 176.557 129.686C177.094 129.789 177.631 129.925 178.149 130.2Z" fill="white"/>
<path id="Vector_178" d="M156.043 130.999C155.484 131.088 154.94 131.032 154.4 130.948C153.863 130.845 153.327 130.709 152.809 130.434C153.368 130.345 153.912 130.401 154.452 130.485C154.988 130.588 155.525 130.723 156.043 130.999Z" fill="white"/>
<path id="Vector_179" d="M171.499 142.859C171.847 142.298 172.258 141.85 172.691 141.429C173.127 141.023 173.583 140.639 174.104 140.373C173.76 140.934 173.346 141.382 172.913 141.803C172.476 142.209 172.021 142.593 171.499 142.859Z" fill="white"/>
<path id="Vector_180" d="M144.964 127.747C145.312 127.186 145.723 126.737 146.156 126.317C146.592 125.91 147.047 125.527 147.569 125.261C147.225 125.821 146.811 126.27 146.378 126.691C145.941 127.097 145.486 127.48 144.964 127.747Z" fill="white"/>
<path id="Vector_181" d="M168.798 117.331C168.454 117.892 168.039 118.34 167.606 118.761C167.27 119.074 166.922 119.373 166.541 119.616C166.655 119.392 166.781 119.144 166.911 118.878C166.911 118.873 166.911 118.873 166.911 118.873C167.063 118.705 167.222 118.541 167.381 118.387C167.817 117.981 168.273 117.597 168.794 117.331H168.798Z" fill="white"/>
<path id="Vector_182" d="M184.458 104.85C184.447 105.046 184.428 105.242 184.41 105.443C184.114 105.691 183.799 105.915 183.459 106.088C183.755 105.611 184.099 105.219 184.458 104.85Z" fill="white"/>
<path id="Vector_183" d="M160.324 138.718C160.672 138.158 161.086 137.709 161.516 137.288C161.952 136.882 162.408 136.499 162.929 136.232C162.585 136.793 162.171 137.242 161.738 137.662C161.301 138.069 160.846 138.452 160.324 138.718Z" fill="white"/>
<path id="Vector_184" d="M159.939 122.663C160.383 123.102 160.739 123.626 161.072 124.168C161.394 124.719 161.697 125.294 161.908 125.953C161.464 125.518 161.109 124.995 160.776 124.448C160.454 123.897 160.15 123.322 159.939 122.663Z" fill="white"/>
<path id="Vector_185" d="M183.226 94.5226C182.782 94.088 182.43 93.5647 182.097 93.0226C181.827 92.5647 181.575 92.0927 181.379 91.5693C181.449 91.5693 181.516 91.574 181.583 91.5834C181.882 91.9385 182.141 92.331 182.389 92.7376C182.715 93.2936 183.015 93.8637 183.226 94.5226Z" fill="white"/>
<path id="Vector_186" d="M178.378 117.546C178.822 117.985 179.177 118.509 179.51 119.051C179.832 119.602 180.136 120.177 180.347 120.836C179.903 120.401 179.547 119.878 179.214 119.331C178.893 118.78 178.589 118.205 178.378 117.546Z" fill="white"/>
</g>
<path id="Vector_187" d="M172.846 105.966C172.095 107.387 171.403 108.85 170.707 110.312C170.689 110.354 170.67 110.392 170.648 110.434C170.681 110.322 170.718 110.214 170.752 110.102C170.977 109.378 171.177 108.635 171.422 107.915C171.436 107.873 171.385 107.836 171.37 107.878C171.122 108.583 170.844 109.27 170.604 109.98C170.445 110.462 170.3 110.948 170.163 111.438C169.649 112.522 169.135 113.607 168.628 114.7C167.947 116.172 167.27 117.644 166.581 119.111C166.415 119.471 166.248 119.831 166.078 120.186C165.93 120.494 165.764 120.77 165.482 120.882C165.19 121.004 164.842 120.999 164.539 121.041C164.202 121.088 163.865 121.139 163.529 121.191C161.997 121.424 160.476 121.747 158.944 121.999C158.907 122.004 158.907 122.074 158.944 122.074C160.35 121.943 161.764 121.873 163.17 121.728C163.862 121.658 164.561 121.597 165.249 121.485C165.512 121.443 165.764 121.373 165.975 121.158C166.174 120.952 166.308 120.667 166.437 120.387C167.832 117.34 169.227 114.294 170.619 111.242C171.407 109.513 172.206 107.794 172.931 106.022C172.961 105.948 172.879 105.892 172.842 105.962L172.846 105.966Z" fill="#263238"/>
<path id="Vector_188" d="M184.277 112.742C184.236 113.312 184.069 113.905 183.947 114.457C183.836 114.957 183.729 115.457 183.61 115.952C183.474 116.513 183.322 117.069 183.166 117.625C183.477 115.153 183.725 112.667 183.906 110.167C183.91 110.092 183.81 110.078 183.803 110.153C183.433 113.644 182.922 117.116 182.345 120.56C181.764 124.008 181.061 127.433 180.265 130.812C179.873 132.476 179.462 134.134 179 135.77C178.604 137.172 178.13 138.588 177.386 139.756C176.576 141.027 175.473 141.826 174.319 142.499C173.094 143.209 171.832 143.835 170.552 144.363C167.64 145.569 164.624 146.335 161.649 147.237C161.619 147.247 161.627 147.317 161.656 147.307C164.391 146.798 167.107 146.167 169.775 145.233C171.118 144.761 172.469 144.233 173.756 143.555C174.944 142.929 176.169 142.247 177.127 141.134C178.034 140.083 178.645 138.69 179.111 137.27C179.61 135.742 180.003 134.153 180.391 132.574C181.239 129.125 181.953 125.648 182.534 122.111C182.7 121.088 182.856 120.06 182.996 119.032C183.34 118.069 183.588 117.036 183.803 116.013C183.918 115.476 184.025 114.938 184.106 114.391C184.188 113.849 184.221 113.275 184.339 112.747C184.351 112.7 184.288 112.686 184.284 112.737L184.277 112.742Z" fill="#263238"/>
<path id="Vector_189" d="M152.198 146.831C151.155 143.182 150.052 139.565 149.134 135.86C148.232 132.205 147.347 128.5 146.755 124.743C146.744 124.673 146.833 124.64 146.851 124.705C147.936 128.285 148.816 131.981 149.726 135.64C150.644 139.327 151.443 143.056 152.365 146.738C152.398 146.878 152.239 146.976 152.198 146.831Z" fill="#263238"/>
<path id="Vector_190" d="M148.317 122.892C147.773 122.841 147.21 122.883 146.663 122.897C146.111 122.915 145.56 122.943 145.008 122.971C143.906 123.032 142.807 123.135 141.708 123.252C141.626 123.261 141.541 123.364 141.578 123.476C141.726 123.953 141.889 124.523 142.141 124.929C142.156 124.957 142.196 124.948 142.193 124.911C142.167 124.471 142.033 124.009 141.904 123.588C142.955 123.5 144.006 123.42 145.057 123.317C145.608 123.266 146.159 123.219 146.707 123.163C147.243 123.112 147.791 123.088 148.32 122.981C148.365 122.971 148.346 122.892 148.309 122.887L148.317 122.892Z" fill="#263238"/>
</g>
</g>
<g id="Group_70">
<path id="Vector_191" d="M123.465 117.453C124.838 118.313 131.11 118.64 132.942 121.481C134.159 123.369 134.037 125.28 134.748 130.92C135.362 135.818 132.15 134.649 131.225 132.145C129.774 128.205 128.527 123.888 128.527 123.888C127.058 123.762 125.315 123.948 125.315 123.948L123.465 117.453Z" fill="#F7A9A0"/>
<g id="Group_71">
<path id="Vector_192" d="M127.987 135.972C130.159 134.234 137.105 145.304 133.634 148.239C130.163 151.173 125.526 137.939 127.987 135.972Z" fill="#F7A9A0"/>
<path id="Vector_193" d="M124.468 138.328C126.64 136.589 133.586 147.659 130.115 150.594C126.644 153.529 122.007 140.295 124.468 138.328Z" fill="#F7A9A0"/>
<path id="Vector_194" d="M121.974 138.762C124.139 137.566 129.234 148.851 125.752 150.903C122.274 152.959 119.521 140.118 121.974 138.762Z" fill="#F7A9A0"/>
<path id="Vector_195" d="M119.425 138.453C121.7 138.112 123.913 150.402 120.224 151.07C116.535 151.743 116.845 138.841 119.425 138.453Z" fill="#F7A9A0"/>
<path id="Vector_196" d="M127.491 139.804C127.906 140.342 128.235 140.973 128.572 141.585C128.931 142.244 129.286 142.912 129.597 143.608C129.893 144.276 130.181 144.963 130.411 145.673C130.655 146.43 130.829 147.23 131.088 147.973C131.117 148.057 131.021 148.108 130.995 148.019C130.773 147.295 130.414 146.599 130.111 145.926C129.808 145.248 129.526 144.552 129.227 143.87C128.934 143.206 128.657 142.533 128.357 141.874C128.05 141.201 127.698 140.557 127.421 139.865C127.399 139.809 127.454 139.753 127.491 139.8V139.804Z" fill="#263238"/>
<path id="Vector_197" d="M123.872 139.738C124.098 140.57 124.842 143.748 125.093 144.57C125.349 145.397 125.623 146.22 125.908 147.028C126.196 147.851 126.451 148.724 126.799 149.514C126.833 149.589 126.744 149.65 126.71 149.58C126.359 148.785 125.956 148.042 125.637 147.224C125.323 146.416 125.042 145.594 124.786 144.752C124.531 143.907 123.858 140.631 123.769 139.753C123.761 139.673 123.858 139.668 123.876 139.734L123.872 139.738Z" fill="#263238"/>
<path id="Vector_198" d="M121.149 140.533C121.323 141.72 121.438 142.921 121.615 144.108C121.704 144.692 121.793 145.276 121.878 145.865C121.919 146.15 121.956 146.435 121.996 146.715C122.041 147.019 122.048 147.402 122.141 147.687C122.167 147.766 122.052 147.804 122.041 147.706C122.007 147.365 121.856 146.995 121.778 146.664C121.711 146.388 121.649 146.112 121.593 145.832C121.478 145.252 121.39 144.673 121.312 144.084C121.168 142.93 121.027 141.724 121.023 140.556C121.023 140.467 121.134 140.444 121.149 140.537V140.533Z" fill="#263238"/>
</g>
</g>
</g>
</g>
<g id="Speech Bubble">
<g id="Group_72">
<path id="Vector_199" d="M155.007 61.9486C155.917 60.1962 156.432 58.2243 156.432 56.1355C156.432 48.771 150.03 42.8037 142.137 42.8037C134.244 42.8037 127.846 48.7757 127.846 56.1355C127.846 63.4953 134.244 69.4673 142.137 69.4673C145.963 69.4673 149.434 68.0654 151.999 65.7804L156.924 67.3598L155.011 61.9486H155.007Z" fill="#FFC727"/>
<g id="Group_73">
<path id="Vector_200" d="M136.997 56.1355C136.997 57.1683 136.335 58.0094 135.514 58.0094C134.692 58.0094 134.03 57.1729 134.03 56.1355C134.03 55.0982 134.692 54.2617 135.514 54.2617C136.335 54.2617 136.997 55.0982 136.997 56.1355Z" fill="#263238"/>
<path id="Vector_201" d="M142.141 58.0094C142.96 58.0094 143.625 57.1704 143.625 56.1355C143.625 55.1007 142.96 54.2617 142.141 54.2617C141.321 54.2617 140.657 55.1007 140.657 56.1355C140.657 57.1704 141.321 58.0094 142.141 58.0094Z" fill="#263238"/>
<path id="Vector_202" d="M150.245 56.1355C150.245 57.1683 149.582 58.0094 148.761 58.0094C147.939 58.0094 147.277 57.1729 147.277 56.1355C147.277 55.0982 147.939 54.2617 148.761 54.2617C149.582 54.2617 150.245 55.0982 150.245 56.1355Z" fill="#263238"/>
</g>
</g>
</g>
<g id="Light Bulb">
<g id="Group_74">
<g id="Group_75">
<path id="Vector_203" d="M103.413 21.9581C102.588 30.673 98.1512 32.2665 97.4038 34.5889C97.0041 35.8459 96.4713 39.0469 96.4713 39.0469L89.2556 39.0235C89.2556 39.0235 88.7413 35.8226 88.3416 34.5609C87.609 32.2338 83.1686 30.617 82.3841 21.8973C81.8624 16.1684 85.2926 7.13098 92.9264 7.15434C100.56 7.17771 103.95 16.2338 103.413 21.9628V21.9581Z" fill="#FFC727"/>
<g id="Group_76">
<path id="Vector_204" d="M89.1588 25.0873L88.7949 25.1719L90.9084 39.6713L91.2723 39.5867L89.1588 25.0873Z" fill="white"/>
<path id="Vector_205" d="M96.618 25.1027L94.4524 39.5898L94.816 39.6765L96.9816 25.1894L96.618 25.1027Z" fill="white"/>
<path id="Vector_206" d="M92.8856 29.9579C92.3194 29.9579 91.7496 29.3878 91.2797 28.3551C91.2574 28.3084 91.2389 28.2616 91.2167 28.2102C91.0169 28.4906 90.806 28.6355 90.5988 28.6355C89.5183 28.6355 89.0891 25.8177 89.0706 25.6962L89.2519 25.6542C89.2556 25.6822 89.6663 28.3972 90.5988 28.4018C90.7653 28.4018 90.9503 28.2523 91.1279 27.9859C90.6691 26.799 90.4175 25.2476 90.7431 24.542C90.8541 24.299 91.028 24.1729 91.2427 24.1729C91.5054 24.1729 91.7089 24.3224 91.8384 24.6028C92.164 25.3177 91.9235 26.7897 91.4943 27.7243C91.4462 27.8271 91.3981 27.9252 91.3463 28.014C91.3759 28.0887 91.4092 28.1635 91.4425 28.2383C91.6941 28.7943 92.2158 29.7196 92.8856 29.7243C93.3333 29.7243 93.7811 29.2803 94.1548 28.4719C94.1844 28.4065 94.214 28.3364 94.2436 28.2663C94.1511 28.1355 94.066 27.9859 93.9883 27.8177C93.5443 26.8364 93.4517 25.3831 93.7922 24.6448C93.9328 24.3411 94.1326 24.1822 94.3768 24.1822C94.5693 24.1822 94.7247 24.3037 94.832 24.5373C95.1502 25.2383 94.9726 26.9065 94.4656 28.2196C94.6507 28.4345 94.8875 28.5981 95.1872 28.6028C95.8459 28.6028 96.4342 26.6121 96.6044 25.8457L96.782 25.9065C96.7561 26.028 96.1234 28.8317 95.1872 28.8317C94.8875 28.8317 94.6137 28.6962 94.3768 28.4345C94.3546 28.4859 94.3324 28.5327 94.3102 28.5841C94.0253 29.2056 93.5443 29.9486 92.8819 29.9486L92.8856 29.9579ZM94.3768 24.4205C94.2029 24.4205 94.0586 24.5373 93.955 24.7663C93.6479 25.4299 93.7404 26.8037 94.1511 27.7056C94.2029 27.8177 94.2621 27.9299 94.3324 28.042C94.7839 26.8177 94.9541 25.2757 94.6729 24.6588C94.5989 24.5 94.5026 24.4205 94.3768 24.4205ZM91.239 24.4112C91.0872 24.4112 90.9762 24.4953 90.8985 24.6635C90.6432 25.2196 90.8097 26.5887 91.2463 27.7757C91.2723 27.7243 91.3019 27.6682 91.3278 27.6121C91.72 26.757 91.9605 25.3598 91.6719 24.7243C91.5757 24.514 91.4351 24.4112 91.239 24.4112Z" fill="white"/>
</g>
<g id="Group_77">
<path id="Vector_207" d="M97.3102 38.6686L88.4109 38.6416L88.4066 40.8379L97.3059 40.8649L97.3102 38.6686Z" fill="#455A64"/>
<path id="Vector_208" d="M97.305 41.2208L88.4058 41.1934L88.4015 43.3896L97.3008 43.4171L97.305 41.2208Z" fill="#455A64"/>
<path id="Vector_209" d="M97.3099 43.7501L88.4106 43.7246L88.4067 45.9209L97.306 45.9464L97.3099 43.7501Z" fill="#455A64"/>
</g>
</g>
<g id="Group_78">
<path id="Vector_210" d="M93.2558 0C93.3927 0.607477 93.4186 1.21495 93.4186 1.81776C93.4075 2.42523 93.3668 3.02804 93.2114 3.63084C93.0708 3.02336 93.0486 2.41589 93.0486 1.81308C93.0634 1.20561 93.1041 0.602804 93.2558 0Z" fill="#263238"/>
<path id="Vector_211" d="M85.1853 2.49023C85.5442 2.92949 85.807 3.43883 86.0475 3.9622C86.2769 4.49491 86.4804 5.04164 86.584 5.66313C86.2214 5.22388 85.9624 4.71453 85.7218 4.19117C85.4924 3.65846 85.2889 3.11173 85.1853 2.49023Z" fill="#263238"/>
<path id="Vector_212" d="M79.1833 9.73828C79.6681 9.89249 80.0973 10.1682 80.5118 10.4719C80.9188 10.7897 81.3147 11.1355 81.6515 11.6028C81.163 11.4532 80.7375 11.1775 80.3231 10.8691C79.916 10.5514 79.5201 10.2056 79.1833 9.73828Z" fill="#263238"/>
<path id="Vector_213" d="M76.8596 19.8081C77.3407 19.6352 77.8217 19.6025 78.299 19.6025C78.7764 19.6166 79.2574 19.668 79.7348 19.8642C79.2537 20.0418 78.7727 20.0698 78.2953 20.0698C77.818 20.0511 77.337 19.9997 76.8596 19.8081Z" fill="#263238"/>
<path id="Vector_214" d="M78.8318 29.9949C79.1796 29.5416 79.583 29.2098 79.9974 28.9061C80.4192 28.6164 80.8522 28.3594 81.3443 28.2285C80.9965 28.6865 80.5931 29.0136 80.1787 29.3173C79.7569 29.607 79.3239 29.864 78.8318 29.9949Z" fill="#263238"/>
<path id="Vector_215" d="M106.614 30.7707C106.129 30.6165 105.7 30.3408 105.286 30.0371C104.879 29.7193 104.483 29.3735 104.146 28.9062C104.634 29.0558 105.06 29.3315 105.474 29.6399C105.881 29.9577 106.277 30.3034 106.614 30.7707Z" fill="#263238"/>
<path id="Vector_216" d="M108.942 20.7055C108.461 20.8784 107.979 20.9111 107.502 20.9111C107.021 20.897 106.544 20.8456 106.066 20.6494C106.547 20.4718 107.028 20.4391 107.506 20.4438C107.983 20.4625 108.464 20.5139 108.942 20.7055Z" fill="#263238"/>
<path id="Vector_217" d="M106.969 10.5137C106.621 10.9669 106.218 11.2987 105.804 11.6025C105.382 11.8922 104.949 12.1492 104.457 12.28C104.805 11.8221 105.208 11.495 105.622 11.1912C106.044 10.9015 106.477 10.6445 106.969 10.5137Z" fill="#263238"/>
<path id="Vector_218" d="M101.226 2.93945C101.104 3.5516 100.886 4.09366 100.645 4.61702C100.394 5.13104 100.12 5.63104 99.75 6.05628C99.8684 5.43945 100.087 4.90207 100.331 4.37871C100.583 3.86469 100.856 3.36469 101.226 2.93945Z" fill="#263238"/>
</g>
</g>
</g>
</g>
<defs>
<clipPath id="clip0_338_8444">
<rect width="244" height="168" fill="white"/>
</clipPath>
</defs>
</svg>
