<svg width="60" height="72" viewBox="0 0 60 72" fill="none" xmlns="http://www.w3.org/2000/svg">
<g clip-path="url(#clip0_401_9025)">
<path fill-rule="evenodd" clip-rule="evenodd" d="M35.3571 10.2857C35.3571 15.9664 29.6008 20.5714 22.5 20.5714C15.3992 20.5714 9.64286 15.9664 9.64286 10.2857C9.64286 4.60507 15.3992 0 22.5 0C29.6008 0 35.3571 4.60507 35.3571 10.2857ZM35.6459 51.2769V51.4286H35.3571L32.4948 69.7474C32.2937 71.0342 30.9264 72 29.3054 72H15.6947C14.0736 72 12.7063 71.0342 12.5052 69.7474L9.64286 51.4286H3.21429C1.43909 51.4286 0 50.2773 0 48.8571V43.7143C0 38.9404 2.37053 34.362 6.59012 30.9864C10.8096 27.6107 16.5326 25.7143 22.5 25.7143C28.4674 25.7143 34.1904 27.6107 38.4099 30.9864C41.345 33.3344 43.3854 36.2644 44.3557 39.4373C39.1608 41.7485 35.6459 46.1843 35.6459 51.2769Z" fill="#222222"/>
<g clip-path="url(#clip1_401_9025)">
<path fill-rule="evenodd" clip-rule="evenodd" d="M48.7031 46.3712C47.8747 46.3712 47.2031 47.369 47.2031 48.5998V49.1569C47.2031 50.6955 46.3637 51.9427 45.3281 51.9427C44.2926 51.9427 43.4531 50.6955 43.4531 49.1569V48.5998C43.4531 44.292 45.8036 40.7998 48.7031 40.7998C51.6026 40.7998 53.9531 44.292 53.9531 48.5998V69.2141C53.9531 70.7527 53.1137 71.9998 52.0781 71.9998C51.0426 71.9998 50.2031 70.7527 50.2031 69.2141V48.5998C50.2031 47.369 49.5315 46.3712 48.7031 46.3712Z" fill="#FFEA30"/>
</g>
</g>
<defs>
<clipPath id="clip0_401_9025">
<rect width="60" height="72" fill="white"/>
</clipPath>
<clipPath id="clip1_401_9025">
<rect width="21" height="31.2" fill="white" transform="translate(39 40.7998)"/>
</clipPath>
</defs>
</svg>
