<svg width="85" height="83" viewBox="0 0 85 83" fill="none" xmlns="http://www.w3.org/2000/svg">
<path d="M42.3665 80.4248C39.2604 82.4248 35.5634 83.3014 31.8899 82.9089C28.2166 82.5165 24.7881 80.8783 22.1746 78.2678L19.8978 75.991C18.8879 74.97 18.3215 73.5919 18.3215 72.1563C18.3215 70.7201 18.8879 69.342 19.8978 68.3216L29.4844 58.7947C30.495 57.7885 31.863 57.2236 33.2891 57.2236C34.7152 57.2236 36.0833 57.7885 37.0938 58.7947C38.1146 59.8045 39.4926 60.3707 40.9285 60.3707C42.3644 60.3707 43.7423 59.8045 44.7631 58.7947L60.0419 43.5159C61.0519 42.4951 61.6181 41.1172 61.6181 39.6813C61.6181 38.2454 61.0519 36.8674 60.0419 35.8466C59.0357 34.836 58.4708 33.468 58.4708 32.0419C58.4708 30.6158 59.0357 29.2478 60.0419 28.2372L69.2689 18.6506C70.2899 17.6407 71.6679 17.0742 73.1035 17.0742C74.5397 17.0742 75.9178 17.6407 76.9382 18.6506L79.215 20.9274C81.8729 23.504 83.5668 26.9143 84.0137 30.5889C84.4607 34.2636 83.6345 37.9805 81.6716 41.1193C71.224 56.6304 57.8775 69.9765 42.3665 80.4248Z" fill="#222222"/>
<path fill-rule="evenodd" clip-rule="evenodd" d="M44.3073 0.440918C46.7891 0.440918 48.8011 2.45283 48.8011 4.93466C48.8011 7.4165 46.7891 9.42838 44.3073 9.42838C39.783 9.42838 35.303 10.3195 31.1231 12.0509C26.9432 13.7823 23.1452 16.32 19.946 19.5192C16.7469 22.7183 14.2091 26.5163 12.4778 30.6962C10.7464 34.8761 9.85531 39.3561 9.85531 43.8804C9.85531 46.3623 7.84337 48.3741 5.36154 48.3741C2.87971 48.3741 0.867798 46.3623 0.867798 43.8804C0.867798 38.1759 1.99139 32.5272 4.17443 27.2568C6.35748 21.9865 9.55722 17.1978 13.5909 13.1641C17.6247 9.13029 22.4134 5.93057 27.6837 3.74755C32.954 1.56451 38.6027 0.440918 44.3073 0.440918ZM46.1885 17.7717C48.6703 17.7717 50.6822 19.7836 50.6822 22.2654C50.6822 24.7472 48.6703 26.7592 46.1885 26.7592C41.024 26.7592 36.071 28.8108 32.419 32.4626C28.7672 36.1146 26.7156 41.0676 26.7156 46.2321C26.7156 48.7139 24.7037 50.7258 22.2218 50.7258C19.74 50.7258 17.7281 48.7139 17.7281 46.2321C17.7281 38.6839 20.7266 31.4449 26.0639 26.1075C31.4013 20.7702 38.6403 17.7717 46.1885 17.7717Z" fill="#FFEA30"/>
</svg>
