<svg width="84" height="84" viewBox="0 0 84 84" fill="none" xmlns="http://www.w3.org/2000/svg">
<g clip-path="url(#clip0_401_9093)">
<path fill-rule="evenodd" clip-rule="evenodd" d="M4.8411 4.78201C7.62063 2.00246 11.3905 0.440918 15.3214 0.440918H71.6429C72.0223 0.440918 72.3845 0.512149 72.7183 0.641961C68.7141 1.50807 65.7143 5.07059 65.7143 9.33377V12.2981V36.0123V80.4766C65.7143 81.5444 65.1398 82.5297 64.2102 83.0561C63.2812 83.5826 62.1405 83.5678 61.2252 83.0182L47.9286 75.0407L34.6323 83.0182C33.6935 83.582 32.5207 83.582 31.582 83.0182L18.2857 75.0407L4.9894 83.0182C4.07364 83.5678 2.93312 83.5826 2.00379 83.0561C1.07446 82.5297 0.5 81.5444 0.5 80.4766V15.2623C0.5 11.3315 2.06154 7.56155 4.8411 4.78201Z" fill="#222222"/>
<path d="M65.7143 9.33377V36.0123H77.5714C80.8458 36.0123 83.5 33.358 83.5 30.0838V9.33377C83.5 4.42239 79.5184 0.440918 74.6072 0.440918C69.6959 0.440918 65.7143 4.42239 65.7143 9.33377Z" fill="#FFEA30"/>
<path d="M24.7855 61.3076V38.7533M24.7855 38.7533V19.8076H36.3137C39.1958 19.8076 45.3442 21.0707 46.8812 26.1228C48.4183 31.175 46.8812 34.2424 45.9206 35.1446C44.9599 36.3475 41.6935 38.7533 36.3137 38.7533C30.9339 38.7533 26.3866 38.7533 24.7855 38.7533ZM17.1 51.6243L45.9206 51.6243" stroke="#FFEA30" stroke-width="5" stroke-linecap="round" stroke-linejoin="round"/>
</g>
<defs>
<clipPath id="clip0_401_9093">
<rect width="83" height="83" fill="white" transform="translate(0.5 0.440918)"/>
</clipPath>
</defs>
</svg>
