<svg width="174" height="148" viewBox="0 0 174 148" fill="none" xmlns="http://www.w3.org/2000/svg">
<circle cx="9" cy="9" r="9" transform="matrix(1 0 0 -1 0 18)" fill="#FFC01F"/>
<circle cx="9" cy="9" r="9" transform="matrix(1 0 0 -1 26 18)" fill="#FFC01F"/>
<circle cx="9" cy="9" r="9" transform="matrix(1 0 0 -1 52 18)" fill="#FFC01F"/>
<circle cx="9" cy="9" r="9" transform="matrix(1 0 0 -1 78 18)" fill="#FFC01F"/>
<circle cx="9" cy="9" r="9" transform="matrix(1 0 0 -1 104 18)" fill="#FFC01F"/>
<circle cx="9" cy="9" r="9" transform="matrix(1 0 0 -1 130 18)" fill="#FFC01F"/>
<circle cx="9" cy="9" r="9" transform="matrix(1 0 0 -1 156 18)" fill="#FFC01F"/>
<circle cx="9" cy="9" r="9" transform="matrix(1 0 0 -1 0 44)" fill="#FFC01F"/>
<circle cx="9" cy="9" r="9" transform="matrix(1 0 0 -1 26 44)" fill="#FFC01F"/>
<circle cx="9" cy="9" r="9" transform="matrix(1 0 0 -1 52 44)" fill="#FFC01F"/>
<circle cx="9" cy="9" r="9" transform="matrix(1 0 0 -1 78 44)" fill="#FFC01F"/>
<circle cx="9" cy="9" r="9" transform="matrix(1 0 0 -1 104 44)" fill="#FFC01F"/>
<circle cx="9" cy="9" r="9" transform="matrix(1 0 0 -1 130 44)" fill="#FFC01F"/>
<circle cx="9" cy="9" r="9" transform="matrix(1 0 0 -1 156 44)" fill="#FFC01F"/>
<circle cx="9" cy="9" r="9" transform="matrix(1 0 0 -1 0 70)" fill="#FFC01F"/>
<circle cx="9" cy="9" r="9" transform="matrix(1 0 0 -1 26 70)" fill="#FFC01F"/>
<circle cx="9" cy="9" r="9" transform="matrix(1 0 0 -1 52 70)" fill="#FFC01F"/>
<circle cx="9" cy="9" r="9" transform="matrix(1 0 0 -1 78 70)" fill="#FFC01F"/>
<circle cx="9" cy="9" r="9" transform="matrix(1 0 0 -1 104 70)" fill="#FFC01F"/>
<circle cx="9" cy="9" r="9" transform="matrix(1 0 0 -1 130 70)" fill="#FFC01F"/>
<circle cx="9" cy="9" r="9" transform="matrix(1 0 0 -1 156 70)" fill="#FFC01F"/>
<circle cx="9" cy="9" r="9" transform="matrix(1 0 0 -1 0 96)" fill="#FFC01F"/>
<circle cx="9" cy="9" r="9" transform="matrix(1 0 0 -1 26 96)" fill="#FFC01F"/>
<circle cx="9" cy="9" r="9" transform="matrix(1 0 0 -1 52 96)" fill="#FFC01F"/>
<circle cx="9" cy="9" r="9" transform="matrix(1 0 0 -1 78 96)" fill="#FFC01F"/>
<circle cx="9" cy="9" r="9" transform="matrix(1 0 0 -1 104 96)" fill="#FFC01F"/>
<circle cx="9" cy="9" r="9" transform="matrix(1 0 0 -1 130 96)" fill="#FFC01F"/>
<circle cx="9" cy="9" r="9" transform="matrix(1 0 0 -1 156 96)" fill="#FFC01F"/>
<circle cx="9" cy="9" r="9" transform="matrix(1 0 0 -1 0 122)" fill="#FFC01F"/>
<circle cx="9" cy="9" r="9" transform="matrix(1 0 0 -1 26 122)" fill="#FFC01F"/>
<circle cx="9" cy="9" r="9" transform="matrix(1 0 0 -1 52 122)" fill="#FFC01F"/>
<circle cx="9" cy="9" r="9" transform="matrix(1 0 0 -1 78 122)" fill="#FFC01F"/>
<circle cx="9" cy="9" r="9" transform="matrix(1 0 0 -1 104 122)" fill="#FFC01F"/>
<circle cx="9" cy="9" r="9" transform="matrix(1 0 0 -1 130 122)" fill="#FFC01F"/>
<circle cx="9" cy="9" r="9" transform="matrix(1 0 0 -1 156 122)" fill="#FFC01F"/>
<circle cx="9" cy="9" r="9" transform="matrix(1 0 0 -1 0 148)" fill="#FFC01F"/>
<circle cx="9" cy="9" r="9" transform="matrix(1 0 0 -1 26 148)" fill="#FFC01F"/>
<circle cx="9" cy="9" r="9" transform="matrix(1 0 0 -1 52 148)" fill="#FFC01F"/>
<circle cx="9" cy="9" r="9" transform="matrix(1 0 0 -1 78 148)" fill="#FFC01F"/>
<circle cx="9" cy="9" r="9" transform="matrix(1 0 0 -1 104 148)" fill="#FFC01F"/>
<circle cx="9" cy="9" r="9" transform="matrix(1 0 0 -1 130 148)" fill="#FFC01F"/>
<circle cx="9" cy="9" r="9" transform="matrix(1 0 0 -1 156 148)" fill="#FFC01F"/>
</svg>
