<svg width="294" height="37" viewBox="0 0 294 37" fill="none" xmlns="http://www.w3.org/2000/svg">
<g clip-path="url(#clip0_414_4961)">
<path d="M32.0727 0H5.34545C2.39324 0 0 2.36649 0 5.28571V31.7143C0 34.6335 2.39324 37 5.34545 37H32.0727C35.0249 37 37.4182 34.6335 37.4182 31.7143V5.28571C37.4182 2.36649 35.0249 0 32.0727 0Z" fill="#162E3C"/>
<path d="M14.9854 22.644V14.7789H11.1367L11.0885 16.3963C11.0565 17.0834 11.0084 17.7336 10.9442 18.3467C10.8908 18.9599 10.8052 19.5202 10.6876 20.0276C10.57 20.5244 10.415 20.9473 10.2226 21.2962C10.0408 21.645 9.81098 21.8934 9.53302 22.0414L6.75873 21.6926C7.1436 21.7032 7.45898 21.571 7.70487 21.2962C7.96146 21.0213 8.16458 20.6354 8.31426 20.1386C8.46393 19.6312 8.57084 19.0392 8.63498 18.3626C8.70982 17.686 8.76327 16.9513 8.79535 16.1584L8.92364 12.6857H17.5512V22.644H14.9854ZM6.38989 26.085L6.40593 21.6926H19.1228V26.085H16.7173V23.7857H8.79535V26.085H6.38989ZM28.1361 23.7857L24.6402 18.4419L26.7409 17.1892L31.0868 23.7857H28.1361ZM20.8395 23.7857V12.6857H23.4214V23.7857H20.8395ZM22.6677 19.314V17.1733H26.5806V19.314H22.6677ZM26.9814 18.5212L24.592 18.2357L28.2323 12.6857H30.9745L26.9814 18.5212Z" fill="#FFC01F"/>
<path d="M46.1046 0V37" stroke="#162E3C" stroke-width="0.5"/>
<path d="M63.6262 24.1557V15.7514H59.2322L59.152 17.7177C59.12 18.4577 59.0718 19.1607 59.0077 19.8267C58.9542 20.4821 58.8634 21.0794 58.7351 21.6186C58.6175 22.1577 58.4518 22.607 58.2379 22.9664C58.0241 23.3259 57.7622 23.5637 57.4522 23.68L55.2071 23.3629C55.6133 23.384 55.9448 23.2466 56.2013 22.9506C56.4686 22.6546 56.6771 22.2423 56.8268 21.7137C56.9764 21.1851 57.0887 20.5667 57.1635 19.8584C57.2383 19.1396 57.2918 18.3626 57.3239 17.5274L57.4522 14.0071H65.6788V24.1557H63.6262ZM54.8222 27.4699L54.8382 23.3629H67.2985V27.4699H65.3741V25.1071H56.7626V27.4699H54.8222ZM71.186 18.6216H76.7666V20.3183H71.186V18.6216ZM71.3463 23.3787H77.6807V25.1071H69.2616V14.0071H77.4562V15.7356H71.3463V23.3787ZM79.7962 25.2657C79.6144 25.2657 79.4327 25.2499 79.2509 25.2181C79.0692 25.1864 78.8714 25.1494 78.6576 25.1071L78.8019 23.3153C78.9516 23.3576 79.112 23.3787 79.283 23.3787C79.732 23.3787 80.0902 23.199 80.3574 22.8396C80.6247 22.4696 80.8172 21.9304 80.9348 21.2221C81.0524 20.5139 81.1325 19.6417 81.1753 18.6057L81.3357 14.0071H89.5944V25.1071H87.5417V15.244L88.0228 15.7514H82.6827L83.1317 15.2281L83.0195 18.5264C82.9874 19.6259 82.9126 20.5931 82.795 21.4283C82.6774 22.2634 82.4956 22.9664 82.2497 23.5373C82.0145 24.0976 81.6992 24.5257 81.3036 24.8217C80.908 25.1177 80.4056 25.2657 79.7962 25.2657ZM97.964 25.2657C97.0874 25.2657 96.2802 25.123 95.5425 24.8376C94.8049 24.5521 94.1634 24.1557 93.6182 23.6483C93.0729 23.1303 92.6507 22.5277 92.3513 21.8406C92.052 21.1429 91.9023 20.3817 91.9023 19.5571C91.9023 18.7326 92.052 17.9767 92.3513 17.2896C92.6507 16.5919 93.0729 15.9893 93.6182 15.4819C94.1634 14.9639 94.8049 14.5621 95.5425 14.2767C96.2802 13.9913 97.082 13.8486 97.948 13.8486C98.8247 13.8486 99.6265 13.9913 100.353 14.2767C101.091 14.5621 101.733 14.9639 102.278 15.4819C102.823 15.9893 103.245 16.5919 103.545 17.2896C103.844 17.9767 103.994 18.7326 103.994 19.5571C103.994 20.3817 103.844 21.1429 103.545 21.8406C103.245 22.5383 102.823 23.1409 102.278 23.6483C101.733 24.1557 101.091 24.5521 100.353 24.8376C99.6265 25.123 98.83 25.2657 97.964 25.2657ZM97.948 23.458C98.5146 23.458 99.0385 23.3629 99.5196 23.1726C100.001 22.9823 100.418 22.7127 100.77 22.3639C101.123 22.0044 101.396 21.5921 101.588 21.127C101.791 20.6513 101.893 20.128 101.893 19.5571C101.893 18.9863 101.791 18.4683 101.588 18.0031C101.396 17.5274 101.123 17.1151 100.77 16.7663C100.418 16.4069 100.001 16.132 99.5196 15.9417C99.0385 15.7514 98.5146 15.6563 97.948 15.6563C97.3814 15.6563 96.8575 15.7514 96.3764 15.9417C95.906 16.132 95.4891 16.4069 95.1256 16.7663C94.7728 17.1151 94.4948 17.5274 94.2917 18.0031C94.0993 18.4683 94.0031 18.9863 94.0031 19.5571C94.0031 20.1174 94.0993 20.6354 94.2917 21.1111C94.4948 21.5869 94.7728 22.0044 95.1256 22.3639C95.4784 22.7127 95.8953 22.9823 96.3764 23.1726C96.8575 23.3629 97.3814 23.458 97.948 23.458ZM106.315 25.1071V14.0071H111.334C112.596 14.0071 113.579 14.2556 114.285 14.7524C114.99 15.2387 115.343 15.9417 115.343 16.8614C115.343 17.7706 115.006 18.4736 114.333 18.9704C113.659 19.4567 112.772 19.6999 111.671 19.6999L111.959 19.129C113.21 19.129 114.178 19.3774 114.862 19.8743C115.546 20.3711 115.888 21.09 115.888 22.0309C115.888 22.9929 115.53 23.7487 114.814 24.2984C114.098 24.8376 113.039 25.1071 111.639 25.1071H106.315ZM108.367 23.5214H111.575C112.302 23.5214 112.852 23.3893 113.226 23.125C113.601 22.8501 113.788 22.4326 113.788 21.8723C113.788 21.312 113.601 20.905 113.226 20.6513C112.852 20.387 112.302 20.2549 111.575 20.2549H108.367V23.5214ZM108.367 18.7484H111.158C111.831 18.7484 112.344 18.6163 112.697 18.352C113.05 18.0771 113.226 17.686 113.226 17.1786C113.226 16.65 113.05 16.2536 112.697 15.9893C112.344 15.725 111.831 15.5929 111.158 15.5929H108.367V18.7484ZM123.443 17.7653C124.78 17.7653 125.811 18.0613 126.538 18.6533C127.265 19.2453 127.629 20.1333 127.629 21.3173C127.629 22.5647 127.228 23.5109 126.426 24.1557C125.635 24.79 124.528 25.1071 123.106 25.1071H118.279V14.0071H120.332V17.7653H123.443ZM123.01 23.5214C123.812 23.5214 124.432 23.3364 124.87 22.9664C125.319 22.5964 125.544 22.0573 125.544 21.349C125.544 20.6513 125.325 20.1439 124.886 19.8267C124.448 19.499 123.823 19.3351 123.01 19.3351H120.332V23.5214H123.01ZM129.248 25.1071V14.0071H131.301V25.1071H129.248ZM136.381 18.6216H141.961V20.3183H136.381V18.6216ZM136.541 23.3787H142.875V25.1071H134.456V14.0071H142.651V15.7356H136.541V23.3787ZM157.056 25.1071L153.256 19.6999L154.939 18.6691L159.414 25.1071H157.056ZM149.631 25.1071V14.0071H151.684V25.1071H149.631ZM151.059 20.4293V18.6533H154.843V20.4293H151.059ZM155.132 19.795L153.223 19.5413L157.056 14.0071H159.269L155.132 19.795ZM166.009 25.2657C165.132 25.2657 164.325 25.123 163.588 24.8376C162.85 24.5521 162.208 24.1557 161.663 23.6483C161.118 23.1303 160.696 22.5277 160.396 21.8406C160.097 21.1429 159.947 20.3817 159.947 19.5571C159.947 18.7326 160.097 17.9767 160.396 17.2896C160.696 16.5919 161.118 15.9893 161.663 15.4819C162.208 14.9639 162.85 14.5621 163.588 14.2767C164.325 13.9913 165.127 13.8486 165.993 13.8486C166.87 13.8486 167.671 13.9913 168.398 14.2767C169.136 14.5621 169.778 14.9639 170.323 15.4819C170.868 15.9893 171.29 16.5919 171.59 17.2896C171.889 17.9767 172.039 18.7326 172.039 19.5571C172.039 20.3817 171.889 21.1429 171.59 21.8406C171.29 22.5383 170.868 23.1409 170.323 23.6483C169.778 24.1557 169.136 24.5521 168.398 24.8376C167.671 25.123 166.875 25.2657 166.009 25.2657ZM165.993 23.458C166.56 23.458 167.083 23.3629 167.565 23.1726C168.046 22.9823 168.463 22.7127 168.815 22.3639C169.168 22.0044 169.441 21.5921 169.633 21.127C169.836 20.6513 169.938 20.128 169.938 19.5571C169.938 18.9863 169.836 18.4683 169.633 18.0031C169.441 17.5274 169.168 17.1151 168.815 16.7663C168.463 16.4069 168.046 16.132 167.565 15.9417C167.083 15.7514 166.56 15.6563 165.993 15.6563C165.426 15.6563 164.902 15.7514 164.421 15.9417C163.951 16.132 163.534 16.4069 163.171 16.7663C162.818 17.1151 162.54 17.5274 162.337 18.0031C162.144 18.4683 162.048 18.9863 162.048 19.5571C162.048 20.1174 162.144 20.6354 162.337 21.1111C162.54 21.5869 162.818 22.0044 163.171 22.3639C163.523 22.7127 163.94 22.9823 164.421 23.1726C164.902 23.3629 165.426 23.458 165.993 23.458ZM182.234 14.0071H184.318V25.1071H182.234V14.0071ZM176.428 25.1071H174.344V14.0071H176.428V25.1071ZM182.394 20.35H176.252V18.5899H182.394V20.35ZM192.631 25.2657C191.775 25.2657 190.979 25.1283 190.241 24.8534C189.514 24.568 188.878 24.1716 188.333 23.6641C187.798 23.1461 187.381 22.5383 187.082 21.8406C186.783 21.1429 186.633 20.3817 186.633 19.5571C186.633 18.7326 186.783 17.9714 187.082 17.2737C187.381 16.576 187.804 15.9734 188.349 15.466C188.894 14.948 189.53 14.5516 190.257 14.2767C190.984 13.9913 191.781 13.8486 192.647 13.8486C193.566 13.8486 194.405 14.0071 195.164 14.3243C195.923 14.6309 196.565 15.0907 197.089 15.7039L195.742 16.9566C195.336 16.5231 194.881 16.2007 194.379 15.9893C193.876 15.7673 193.331 15.6563 192.743 15.6563C192.155 15.6563 191.615 15.7514 191.123 15.9417C190.642 16.132 190.22 16.4016 189.856 16.7504C189.504 17.0993 189.226 17.5116 189.023 17.9873C188.83 18.463 188.734 18.9863 188.734 19.5571C188.734 20.128 188.83 20.6513 189.023 21.127C189.226 21.6027 189.504 22.015 189.856 22.3639C190.22 22.7127 190.642 22.9823 191.123 23.1726C191.615 23.3629 192.155 23.458 192.743 23.458C193.331 23.458 193.876 23.3523 194.379 23.1409C194.881 22.9189 195.336 22.5859 195.742 22.1419L197.089 23.4104C196.565 24.013 195.923 24.4729 195.164 24.79C194.405 25.1071 193.561 25.2657 192.631 25.2657ZM198.95 23.3629C199.538 23.5637 200.057 23.6166 200.506 23.5214C200.955 23.4263 201.356 23.1039 201.708 22.5541L202.254 21.7137L202.462 21.4917L206.375 14.0071H208.428L203.553 22.9664C203.157 23.717 202.687 24.2879 202.141 24.679C201.596 25.0701 201.008 25.2869 200.377 25.3291C199.757 25.382 199.11 25.2657 198.437 24.9803L198.95 23.3629ZM202.414 23.2677L197.411 14.0071H199.64L203.553 21.682L202.414 23.2677ZM209.512 25.2657C209.33 25.2657 209.149 25.2499 208.967 25.2181C208.785 25.1864 208.587 25.1494 208.374 25.1071L208.518 23.3153C208.668 23.3576 208.828 23.3787 208.999 23.3787C209.448 23.3787 209.806 23.199 210.073 22.8396C210.341 22.4696 210.533 21.9304 210.651 21.2221C210.768 20.5139 210.849 19.6417 210.891 18.6057L211.052 14.0071H219.31V25.1071H217.258V15.244L217.739 15.7514H212.399L212.848 15.2281L212.735 18.5264C212.703 19.6259 212.629 20.5931 212.511 21.4283C212.393 22.2634 212.212 22.9664 211.966 23.5373C211.731 24.0976 211.415 24.5257 211.02 24.8217C210.624 25.1177 210.122 25.2657 209.512 25.2657ZM227.648 17.7653C228.984 17.7653 230.016 18.0613 230.743 18.6533C231.47 19.2453 231.833 20.1333 231.833 21.3173C231.833 22.5647 231.433 23.5109 230.631 24.1557C229.84 24.79 228.733 25.1071 227.311 25.1071H222.484V14.0071H224.537V17.7653H227.648ZM227.215 23.5214C228.017 23.5214 228.637 23.3364 229.075 22.9664C229.524 22.5964 229.749 22.0573 229.749 21.349C229.749 20.6513 229.53 20.1439 229.091 19.8267C228.653 19.499 228.027 19.3351 227.215 19.3351H224.537V23.5214H227.215ZM235.193 25.1071V15.244L235.69 15.7514H231.488V14.0071H240.982V15.7514H236.78L237.262 15.244V25.1071H235.193ZM240.789 25.1071L245.84 14.0071H247.893L252.961 25.1071H250.78L246.434 15.1013H247.268L242.938 25.1071H240.789ZM243.114 22.5383L243.675 20.9209H249.737L250.299 22.5383H243.114ZM254.698 25.1071V14.0071H256.751V23.3629H262.412V14.0071H264.48V25.1071H254.698ZM264.224 27.5491V24.5997L264.689 25.1071H262.412V23.3629H266.148V27.5491H264.224ZM268.072 25.1071V14.0071H270.125V21.8881L276.154 14.0071H278.095V25.1071H276.042V17.242L270.012 25.1071H268.072ZM281.259 25.1071V14.0071H283.312V21.8881L289.341 14.0071H291.282V25.1071H289.229V17.242L283.2 25.1071H281.259Z" fill="#162E3C"/>
</g>
<defs>
<clipPath id="clip0_414_4961">
<rect width="294" height="37" fill="white"/>
</clipPath>
</defs>
</svg>
