<svg width="800" height="600" viewBox="0 0 800 600" fill="none" xmlns="http://www.w3.org/2000/svg">
<g clip-path="url(#clip0_107_19593)">
<rect width="800" height="600" rx="12" fill="white"/>
<circle cx="9" cy="9" r="9" transform="matrix(1 0 0 -1 661 506)" fill="#FFC01F"/>
<circle cx="9" cy="9" r="9" transform="matrix(1 0 0 -1 687 506)" fill="#FFC01F"/>
<circle cx="9" cy="9" r="9" transform="matrix(1 0 0 -1 713 506)" fill="#FFC01F"/>
<circle cx="9" cy="9" r="9" transform="matrix(1 0 0 -1 739 506)" fill="#FFC01F"/>
<circle cx="9" cy="9" r="9" transform="matrix(1 0 0 -1 765 506)" fill="#FFC01F"/>
<circle cx="9" cy="9" r="9" transform="matrix(1 0 0 -1 791 506)" fill="#FFC01F"/>
<circle cx="9" cy="9" r="9" transform="matrix(1 0 0 -1 661 532)" fill="#FFC01F"/>
<circle cx="9" cy="9" r="9" transform="matrix(1 0 0 -1 687 532)" fill="#FFC01F"/>
<circle cx="9" cy="9" r="9" transform="matrix(1 0 0 -1 713 532)" fill="#FFC01F"/>
<circle cx="9" cy="9" r="9" transform="matrix(1 0 0 -1 739 532)" fill="#FFC01F"/>
<circle cx="9" cy="9" r="9" transform="matrix(1 0 0 -1 765 532)" fill="#FFC01F"/>
<circle cx="9" cy="9" r="9" transform="matrix(1 0 0 -1 791 532)" fill="#FFC01F"/>
<circle cx="9" cy="9" r="9" transform="matrix(1 0 0 -1 661 558)" fill="#FFC01F"/>
<circle cx="9" cy="9" r="9" transform="matrix(1 0 0 -1 687 558)" fill="#FFC01F"/>
<circle cx="9" cy="9" r="9" transform="matrix(1 0 0 -1 713 558)" fill="#FFC01F"/>
<circle cx="9" cy="9" r="9" transform="matrix(1 0 0 -1 739 558)" fill="#FFC01F"/>
<circle cx="9" cy="9" r="9" transform="matrix(1 0 0 -1 765 558)" fill="#FFC01F"/>
<circle cx="9" cy="9" r="9" transform="matrix(1 0 0 -1 791 558)" fill="#FFC01F"/>
<circle cx="9" cy="9" r="9" transform="matrix(1 0 0 -1 661 584)" fill="#FFC01F"/>
<circle cx="9" cy="9" r="9" transform="matrix(1 0 0 -1 687 584)" fill="#FFC01F"/>
<circle cx="9" cy="9" r="9" transform="matrix(1 0 0 -1 713 584)" fill="#FFC01F"/>
<circle cx="9" cy="9" r="9" transform="matrix(1 0 0 -1 739 584)" fill="#FFC01F"/>
<circle cx="9" cy="9" r="9" transform="matrix(1 0 0 -1 765 584)" fill="#FFC01F"/>
<circle cx="9" cy="9" r="9" transform="matrix(1 0 0 -1 791 584)" fill="#FFC01F"/>
<circle cx="9" cy="9" r="9" transform="matrix(1 0 0 -1 661 610)" fill="#FFC01F"/>
<circle cx="9" cy="9" r="9" transform="matrix(1 0 0 -1 687 610)" fill="#FFC01F"/>
<circle cx="9" cy="9" r="9" transform="matrix(1 0 0 -1 713 610)" fill="#FFC01F"/>
<circle cx="9" cy="9" r="9" transform="matrix(1 0 0 -1 739 610)" fill="#FFC01F"/>
<circle cx="9" cy="9" r="9" transform="matrix(1 0 0 -1 765 610)" fill="#FFC01F"/>
<circle cx="9" cy="9" r="9" transform="matrix(1 0 0 -1 791 610)" fill="#FFC01F"/>
<circle cx="9" cy="9" r="9" transform="matrix(1 0 0 -1 -6 9)" fill="#FFC01F"/>
<circle cx="9" cy="9" r="9" transform="matrix(1 0 0 -1 20 9)" fill="#FFC01F"/>
<circle cx="9" cy="9" r="9" transform="matrix(1 0 0 -1 46 9)" fill="#FFC01F"/>
<circle cx="9" cy="9" r="9" transform="matrix(1 0 0 -1 72 9)" fill="#FFC01F"/>
<circle cx="9" cy="9" r="9" transform="matrix(1 0 0 -1 98 9)" fill="#FFC01F"/>
<circle cx="9" cy="9" r="9" transform="matrix(1 0 0 -1 -6 35)" fill="#FFC01F"/>
<circle cx="9" cy="9" r="9" transform="matrix(1 0 0 -1 20 35)" fill="#FFC01F"/>
<circle cx="9" cy="9" r="9" transform="matrix(1 0 0 -1 46 35)" fill="#FFC01F"/>
<circle cx="9" cy="9" r="9" transform="matrix(1 0 0 -1 72 35)" fill="#FFC01F"/>
<circle cx="9" cy="9" r="9" transform="matrix(1 0 0 -1 98 35)" fill="#FFC01F"/>
<circle cx="9" cy="9" r="9" transform="matrix(1 0 0 -1 -6 61)" fill="#FFC01F"/>
<circle cx="9" cy="9" r="9" transform="matrix(1 0 0 -1 20 61)" fill="#FFC01F"/>
<circle cx="9" cy="9" r="9" transform="matrix(1 0 0 -1 46 61)" fill="#FFC01F"/>
<circle cx="9" cy="9" r="9" transform="matrix(1 0 0 -1 72 61)" fill="#FFC01F"/>
<circle cx="9" cy="9" r="9" transform="matrix(1 0 0 -1 98 61)" fill="#FFC01F"/>
</g>
<defs>
<clipPath id="clip0_107_19593">
<rect width="800" height="600" rx="12" fill="white"/>
</clipPath>
</defs>
</svg>
