<svg width="345" height="257" viewBox="0 0 345 257" fill="none" xmlns="http://www.w3.org/2000/svg">
<g clip-path="url(#clip0_210_5375)">
<rect width="345" height="257" rx="6" fill="white"/>
<circle cx="6" cy="6" r="6" transform="matrix(1 0 0 -1 267 233)" fill="#FFC01F"/>
<circle cx="6" cy="6" r="6" transform="matrix(1 0 0 -1 283 233)" fill="#FFC01F"/>
<circle cx="6" cy="6" r="6" transform="matrix(1 0 0 -1 299 233)" fill="#FFC01F"/>
<circle cx="6" cy="6" r="6" transform="matrix(1 0 0 -1 315 233)" fill="#FFC01F"/>
<circle cx="6" cy="6" r="6" transform="matrix(1 0 0 -1 331 233)" fill="#FFC01F"/>
<circle cx="6" cy="6" r="6" transform="matrix(1 0 0 -1 267 249)" fill="#FFC01F"/>
<circle cx="6" cy="6" r="6" transform="matrix(1 0 0 -1 283 249)" fill="#FFC01F"/>
<circle cx="6" cy="6" r="6" transform="matrix(1 0 0 -1 299 249)" fill="#FFC01F"/>
<circle cx="6" cy="6" r="6" transform="matrix(1 0 0 -1 315 249)" fill="#FFC01F"/>
<circle cx="6" cy="6" r="6" transform="matrix(1 0 0 -1 331 249)" fill="#FFC01F"/>
<circle cx="6" cy="6" r="6" transform="matrix(1 0 0 -1 267 265)" fill="#FFC01F"/>
<circle cx="6" cy="6" r="6" transform="matrix(1 0 0 -1 283 265)" fill="#FFC01F"/>
<circle cx="6" cy="6" r="6" transform="matrix(1 0 0 -1 299 265)" fill="#FFC01F"/>
<circle cx="6" cy="6" r="6" transform="matrix(1 0 0 -1 315 265)" fill="#FFC01F"/>
<circle cx="6" cy="6" r="6" transform="matrix(1 0 0 -1 331 265)" fill="#FFC01F"/>
<circle cx="6" cy="6" r="6" transform="matrix(1 0 0 -1 -10 6)" fill="#FFC01F"/>
<circle cx="6" cy="6" r="6" transform="matrix(1 0 0 -1 6 6)" fill="#FFC01F"/>
<circle cx="6" cy="6" r="6" transform="matrix(1 0 0 -1 22 6)" fill="#FFC01F"/>
<circle cx="6" cy="6" r="6" transform="matrix(1 0 0 -1 38 6)" fill="#FFC01F"/>
<circle cx="6" cy="6" r="6" transform="matrix(1 0 0 -1 54 6)" fill="#FFC01F"/>
<circle cx="6" cy="6" r="6" transform="matrix(1 0 0 -1 -10 22)" fill="#FFC01F"/>
<circle cx="6" cy="6" r="6" transform="matrix(1 0 0 -1 6 22)" fill="#FFC01F"/>
<circle cx="6" cy="6" r="6" transform="matrix(1 0 0 -1 22 22)" fill="#FFC01F"/>
<circle cx="6" cy="6" r="6" transform="matrix(1 0 0 -1 38 22)" fill="#FFC01F"/>
<circle cx="6" cy="6" r="6" transform="matrix(1 0 0 -1 54 22)" fill="#FFC01F"/>
<circle cx="6" cy="6" r="6" transform="matrix(1 0 0 -1 -10 38)" fill="#FFC01F"/>
<circle cx="6" cy="6" r="6" transform="matrix(1 0 0 -1 6 38)" fill="#FFC01F"/>
<circle cx="6" cy="6" r="6" transform="matrix(1 0 0 -1 22 38)" fill="#FFC01F"/>
<circle cx="6" cy="6" r="6" transform="matrix(1 0 0 -1 38 38)" fill="#FFC01F"/>
<circle cx="6" cy="6" r="6" transform="matrix(1 0 0 -1 54 38)" fill="#FFC01F"/>
</g>
<defs>
<clipPath id="clip0_210_5375">
<rect width="345" height="257" rx="6" fill="white"/>
</clipPath>
</defs>
</svg>
