<svg width="639" height="207" fill="none" xmlns="http://www.w3.org/2000/svg"><path d="M60.469 70.495V206.5L97.832 53.614" fill="url(#a)"/><path d="M208.217.508 71.557 2.503a.619.619 0 0 0-.352.083.935.935 0 0 0-.302.286l-10.219 13.38a.315.315 0 0 0-.065.147.417.417 0 0 0 .007.177.28.28 0 0 0 .076.135.135.135 0 0 0 .113.039l80.569-1.856c.134-.033.271.016.381.137.11.12.184.303.206.507.021.204-.011.412-.09.58-.079.167-.199.28-.333.313L36.356 48.207a.155.155 0 0 0-.098.07L.244 95.497a1.66 1.66 0 0 0-.24.792c-.018.299.032.597.143.845.11.248.273.43.462.516.188.085.39.068.572-.047L208.545 2.982c.199-.09.369-.29.476-.561.107-.272.144-.594.103-.904-.041-.31-.157-.586-.325-.773-.167-.187-.375-.271-.582-.236Z" fill="url(#b)"/><path d="M60.659 16.52v24.344l89.078-26.957-89.078 2.613Z" fill="url(#c)"/><path d="M131.758 173.878c-1.095 0-2.041-.451-2.838-1.353-.797-.902-1.195-1.973-1.195-3.214V60.041c0-1.24.398-2.312 1.195-3.214.797-.902 1.743-1.353 2.838-1.353h76.636c1.095 0 2.041.45 2.838 1.353.797.902 1.195 1.973 1.195 3.214v23.85c0 1.24-.398 2.311-1.195 3.214-.797.902-1.743 1.353-2.838 1.353h-44.816v10.656h41.529c1.096 0 2.042.451 2.838 1.353.797.902 1.195 1.974 1.195 3.214v21.99c0 1.24-.398 2.311-1.195 3.213-.796.903-1.742 1.354-2.838 1.354h-41.529v10.656h46.011c1.095 0 2.041.451 2.838 1.353.797.902 1.195 1.974 1.195 3.214v23.85c0 1.241-.398 2.312-1.195 3.214-.797.902-1.743 1.353-2.838 1.353h-77.831Z" fill="url(#d)"/><path d="M231.398 173.878c-1.096 0-2.042-.451-2.839-1.353-.796-.902-1.195-1.973-1.195-3.214V60.041c0-1.24.399-2.312 1.195-3.214.797-.902 1.743-1.353 2.839-1.353h29.877c1.096 0 2.042.45 2.838 1.353.797.902 1.195 1.973 1.195 3.214v79.162h41.38c1.096 0 2.042.451 2.839 1.353.796.902 1.195 1.973 1.195 3.214v25.541c0 1.241-.399 2.312-1.195 3.214-.797.902-1.743 1.353-2.839 1.353h-75.29Z" fill="url(#e)"/><path d="M324.91 173.878c-1.096 0-2.042-.451-2.838-1.353-.797-.902-1.195-1.973-1.195-3.214V60.041c0-1.24.398-2.312 1.195-3.214.796-.902 1.742-1.353 2.838-1.353h45.264c9.063 0 16.93 1.522 23.603 4.567 6.772 2.932 12.001 7.499 15.685 13.7 3.785 6.09 5.677 13.815 5.677 23.174 0 9.36-1.892 17.028-5.677 23.005-3.684 5.863-8.913 10.205-15.685 13.024-6.673 2.706-14.54 4.06-23.603 4.06h-10.457v32.307c0 1.241-.398 2.312-1.195 3.214-.797.902-1.743 1.353-2.838 1.353H324.91Zm34.06-68.167h10.457c1.594 0 3.137-.677 4.631-2.03 1.494-1.466 2.241-3.834 2.241-7.104 0-2.143-.498-4.285-1.494-6.428-.896-2.142-2.689-3.214-5.378-3.214H358.97v18.776Z" fill="url(#f)"/><path d="M430.239 173.878c-1.096 0-2.042-.394-2.839-1.184-.796-.902-1.195-2.03-1.195-3.383V60.041c0-1.24.399-2.312 1.195-3.214.797-.902 1.743-1.353 2.839-1.353h29.28c1.095 0 2.041.45 2.838 1.353.797.902 1.195 1.973 1.195 3.214v35.521h24.2V60.041c0-1.24.399-2.312 1.196-3.214.796-.902 1.742-1.353 2.838-1.353h29.28c1.095 0 2.041.45 2.838 1.353.797.902 1.195 1.973 1.195 3.214v109.27c0 1.241-.398 2.312-1.195 3.214-.797.902-1.743 1.353-2.838 1.353h-29.28c-1.096 0-2.042-.451-2.838-1.353-.797-.902-1.196-1.973-1.196-3.214v-36.536h-24.2v36.536c0 1.241-.398 2.312-1.195 3.214-.797.902-1.743 1.353-2.838 1.353h-29.28Z" fill="url(#g)"/><path d="M571.776 173.878c-1.095 0-2.041-.451-2.838-1.353-.797-.902-1.195-1.973-1.195-3.214v-33.322l-33.612-75.272-.299-.676v-.846c0-1.015.299-1.86.897-2.537.697-.79 1.493-1.184 2.39-1.184h28.084c1.992 0 3.486.563 4.482 1.691.996 1.128 1.593 1.974 1.792 2.537l14.939 34 14.939-34c.199-.563.796-1.41 1.792-2.537.996-1.128 2.49-1.691 4.482-1.691h28.085c.896 0 1.643.394 2.24 1.184.697.676 1.046 1.522 1.046 2.537 0 .225-.05.507-.149.846 0 .225-.05.45-.15.676l-33.612 75.272v33.322c0 1.241-.398 2.312-1.195 3.214-.796.902-1.743 1.353-2.838 1.353h-29.28Z" fill="url(#h)"/><defs><linearGradient id="a" x1="303.368" y1="119.295" x2="303.617" y2="4.187" gradientUnits="userSpaceOnUse"><stop stop-color="#CCE0F4"/><stop offset=".06" stop-color="#C3DCF2"/><stop offset=".17" stop-color="#A9D2EE"/><stop offset=".31" stop-color="#80C2E7"/><stop offset=".46" stop-color="#47ACDE"/><stop offset=".57" stop-color="#1E9CD7"/><stop offset=".87" stop-color="#0075BE"/><stop offset=".99" stop-color="#005B97"/></linearGradient><linearGradient id="b" x1="6.23" y1="123.974" x2="630.412" y2="25.434" gradientUnits="userSpaceOnUse"><stop stop-color="#CCE0F4"/><stop offset=".06" stop-color="#C3DCF2"/><stop offset=".17" stop-color="#A9D2EE"/><stop offset=".31" stop-color="#80C2E7"/><stop offset=".46" stop-color="#47ACDE"/><stop offset=".57" stop-color="#1E9CD7"/><stop offset=".87" stop-color="#0075BE"/><stop offset=".99" stop-color="#005B97"/></linearGradient><linearGradient id="c" x1="101.825" y1="85.965" x2="724.88" y2="21.9" gradientUnits="userSpaceOnUse"><stop stop-color="#CCE0F4"/><stop offset=".06" stop-color="#C3DCF2"/><stop offset=".17" stop-color="#A9D2EE"/><stop offset=".31" stop-color="#80C2E7"/><stop offset=".46" stop-color="#47ACDE"/><stop offset=".57" stop-color="#1E9CD7"/><stop offset=".87" stop-color="#0075BE"/><stop offset=".99" stop-color="#005B97"/></linearGradient><linearGradient id="d" x1="101.825" y1="85.965" x2="724.88" y2="21.9" gradientUnits="userSpaceOnUse"><stop stop-color="#CCE0F4"/><stop offset=".06" stop-color="#C3DCF2"/><stop offset=".17" stop-color="#A9D2EE"/><stop offset=".31" stop-color="#80C2E7"/><stop offset=".46" stop-color="#47ACDE"/><stop offset=".57" stop-color="#1E9CD7"/><stop offset=".87" stop-color="#0075BE"/><stop offset=".99" stop-color="#005B97"/></linearGradient><linearGradient id="e" x1="101.825" y1="85.965" x2="724.88" y2="21.9" gradientUnits="userSpaceOnUse"><stop stop-color="#CCE0F4"/><stop offset=".06" stop-color="#C3DCF2"/><stop offset=".17" stop-color="#A9D2EE"/><stop offset=".31" stop-color="#80C2E7"/><stop offset=".46" stop-color="#47ACDE"/><stop offset=".57" stop-color="#1E9CD7"/><stop offset=".87" stop-color="#0075BE"/><stop offset=".99" stop-color="#005B97"/></linearGradient><linearGradient id="f" x1="101.825" y1="85.965" x2="724.88" y2="21.9" gradientUnits="userSpaceOnUse"><stop stop-color="#CCE0F4"/><stop offset=".06" stop-color="#C3DCF2"/><stop offset=".17" stop-color="#A9D2EE"/><stop offset=".31" stop-color="#80C2E7"/><stop offset=".46" stop-color="#47ACDE"/><stop offset=".57" stop-color="#1E9CD7"/><stop offset=".87" stop-color="#0075BE"/><stop offset=".99" stop-color="#005B97"/></linearGradient><linearGradient id="g" x1="101.825" y1="85.965" x2="724.88" y2="21.9" gradientUnits="userSpaceOnUse"><stop stop-color="#CCE0F4"/><stop offset=".06" stop-color="#C3DCF2"/><stop offset=".17" stop-color="#A9D2EE"/><stop offset=".31" stop-color="#80C2E7"/><stop offset=".46" stop-color="#47ACDE"/><stop offset=".57" stop-color="#1E9CD7"/><stop offset=".87" stop-color="#0075BE"/><stop offset=".99" stop-color="#005B97"/></linearGradient><linearGradient id="h" x1="101.825" y1="85.965" x2="724.88" y2="21.9" gradientUnits="userSpaceOnUse"><stop stop-color="#CCE0F4"/><stop offset=".06" stop-color="#C3DCF2"/><stop offset=".17" stop-color="#A9D2EE"/><stop offset=".31" stop-color="#80C2E7"/><stop offset=".46" stop-color="#47ACDE"/><stop offset=".57" stop-color="#1E9CD7"/><stop offset=".87" stop-color="#0075BE"/><stop offset=".99" stop-color="#005B97"/></linearGradient></defs></svg>