<svg width="30" height="87" viewBox="0 0 30 87" fill="none" xmlns="http://www.w3.org/2000/svg">
<path d="M16 2C16 1.44772 15.5523 1 15 1C14.4477 1 14 1.44772 14 2H16ZM14.2929 85.7071C14.6834 86.0976 15.3166 86.0976 15.7071 85.7071L22.0711 79.3431C22.4616 78.9526 22.4616 78.3195 22.0711 77.9289C21.6805 77.5384 21.0474 77.5384 20.6569 77.9289L15 83.5858L9.34315 77.9289C8.95262 77.5384 8.31946 77.5384 7.92893 77.9289C7.53841 78.3195 7.53841 78.9526 7.92893 79.3431L14.2929 85.7071ZM14 6.15C14 6.70228 14.4477 7.15 15 7.15C15.5523 7.15 16 6.70228 16 6.15H14ZM16 14.45C16 13.8977 15.5523 13.45 15 13.45C14.4477 13.45 14 13.8977 14 14.45H16ZM14 22.75C14 23.3023 14.4477 23.75 15 23.75C15.5523 23.75 16 23.3023 16 22.75H14ZM16 31.05C16 30.4977 15.5523 30.05 15 30.05C14.4477 30.05 14 30.4977 14 31.05H16ZM14 39.35C14 39.9023 14.4477 40.35 15 40.35C15.5523 40.35 16 39.9023 16 39.35H14ZM16 47.65C16 47.0977 15.5523 46.65 15 46.65C14.4477 46.65 14 47.0977 14 47.65H16ZM14 55.95C14 56.5023 14.4477 56.95 15 56.95C15.5523 56.95 16 56.5023 16 55.95H14ZM16 64.25C16 63.6977 15.5523 63.25 15 63.25C14.4477 63.25 14 63.6977 14 64.25H16ZM14 72.55C14 73.1023 14.4477 73.55 15 73.55C15.5523 73.55 16 73.1023 16 72.55H14ZM16 80.85C16 80.2977 15.5523 79.85 15 79.85C14.4477 79.85 14 80.2977 14 80.85H16ZM14 2V6.15H16V2H14ZM14 14.45L14 22.75H16V14.45H14ZM14 31.05V39.35H16L16 31.05H14ZM14 47.65V55.95H16V47.65H14ZM14 64.25V72.55H16V64.25H14ZM14 80.85V85H16V80.85H14ZM17 2C17 0.895431 16.1046 0 15 0C13.8954 0 13 0.895431 13 2L17 2ZM13.5858 86.4142C14.3668 87.1953 15.6332 87.1953 16.4142 86.4142L29.1421 73.6863C29.9232 72.9052 29.9232 71.6389 29.1421 70.8579C28.3611 70.0768 27.0948 70.0768 26.3137 70.8579L15 82.1716L3.68629 70.8579C2.90524 70.0768 1.63891 70.0768 0.857864 70.8579C0.0768158 71.6389 0.0768158 72.9052 0.857864 73.6863L13.5858 86.4142ZM13 6.15C13 7.25457 13.8954 8.15 15 8.15C16.1046 8.15 17 7.25457 17 6.15H13ZM17 14.45C17 13.3454 16.1046 12.45 15 12.45C13.8954 12.45 13 13.3454 13 14.45H17ZM13 22.75C13 23.8546 13.8954 24.75 15 24.75C16.1046 24.75 17 23.8546 17 22.75H13ZM17 31.05C17 29.9454 16.1046 29.05 15 29.05C13.8954 29.05 13 29.9454 13 31.05H17ZM13 39.35C13 40.4546 13.8954 41.35 15 41.35C16.1046 41.35 17 40.4546 17 39.35H13ZM17 47.65C17 46.5454 16.1046 45.65 15 45.65C13.8954 45.65 13 46.5454 13 47.65H17ZM13 55.95C13 57.0546 13.8954 57.95 15 57.95C16.1046 57.95 17 57.0546 17 55.95H13ZM17 64.25C17 63.1454 16.1046 62.25 15 62.25C13.8954 62.25 13 63.1454 13 64.25H17ZM13 72.55C13 73.6546 13.8954 74.55 15 74.55C16.1046 74.55 17 73.6546 17 72.55H13ZM17 80.85C17 79.7454 16.1046 78.85 15 78.85C13.8954 78.85 13 79.7454 13 80.85H17ZM13 2V6.15H17V2L13 2ZM13 14.45L13 22.75H17V14.45H13ZM13 31.05V39.35H17L17 31.05H13ZM13 47.65V55.95H17V47.65H13ZM13 64.25V72.55H17V64.25H13ZM13 80.85V85H17V80.85H13Z" fill="#022749"/>
</svg>
