<svg width="809" height="833" fill="none" xmlns="http://www.w3.org/2000/svg"><path opacity=".19" d="M181.806 651.224 54.734 727.77c-5.352 3.222-5.352 11.278 0 14.501l127.347 76.722c8.039 4.834 17.939 4.834 25.978 0l127.072-76.545c5.352-3.223 5.352-11.279 0-14.502l-127.347-76.722c-8.039-4.856-17.939-4.856-25.978 0Z" fill="url(#a)"/><path opacity=".19" d="M50.8 541.129 2.483 570.22c-2.031 1.236-2.031 4.281 0 5.518l48.4 29.157c3.046 1.832 6.812 1.832 9.88 0l48.294-29.091c2.031-1.236 2.031-4.282 0-5.518l-48.4-29.157a9.431 9.431 0 0 0-9.858 0Z" fill="url(#b)"/><path opacity=".19" d="M388.863 12.703 258.934 90.97c-7.34 4.415-11.867 12.603-11.867 21.454v49.375c0 6.71 6.96 10.904 12.523 7.549L389.519 91.08c7.34-4.414 11.867-12.603 11.867-21.454V20.23c0-6.688-6.96-10.881-12.523-7.526Z" fill="url(#c)"/><path opacity=".19" d="m572.691 20.56-44.762 26.972c-6.24 3.753-10.069 10.683-10.069 18.188v41.87c0 5.695 5.902 9.248 10.619 6.401l44.762-26.972c6.241-3.752 10.07-10.683 10.07-18.187v-41.87c0-5.695-5.902-9.249-10.62-6.402Z" fill="url(#d)"/><path opacity=".19" d="m253.498 1.6-44.762 26.973c-6.24 3.752-10.069 10.682-10.069 18.187v41.893c0 5.694 5.902 9.248 10.619 6.4l44.762-26.972c6.241-3.752 10.07-10.683 10.07-18.187V8.001c0-5.694-5.902-9.248-10.62-6.4Z" fill="url(#e)"/><path d="m246.749 655.749-127.072 76.545c-5.352 3.223-5.352 11.279 0 14.502l127.347 76.722c8.039 4.834 17.939 4.834 25.977 0l127.073-76.546c5.352-3.222 5.352-11.278 0-14.501l-127.348-76.722c-8.038-4.834-17.938-4.834-25.977 0Z" stroke="url(#f)" stroke-miterlimit="10" stroke-linejoin="round"/><g opacity=".35" fill="#fff"><path d="m316.304 698.348-.275-.177c-.507-.309-1.332-.309-1.84 0l-120.642 72.551c-.507.309-.507.794 0 1.103l.275.177c.508.309 1.333.309 1.841 0l120.641-72.551c.508-.287.508-.794 0-1.103ZM326.311 704.395l-.275-.176c-.508-.309-1.333-.309-1.841 0l-120.641 72.55c-.508.309-.508.795 0 1.104l.275.177c.507.309 1.332.309 1.84 0l120.642-72.551c.507-.309.507-.817 0-1.104ZM336.316 710.421l-.275-.177c-.508-.309-1.333-.309-1.84 0l-120.642 72.551c-.508.309-.508.795 0 1.104l.275.176c.508.309 1.333.309 1.84 0l120.642-72.55c.508-.309.508-.817 0-1.104ZM269.088 762.864l-.275-.177c-.507-.309-1.332-.309-1.84 0l-43.408 26.156c-.508.309-.508.794 0 1.103l.275.177c.508.309 1.333.309 1.84 0l43.408-26.155c.508-.309.508-.817 0-1.104ZM279.094 768.89l-.275-.177c-.507-.309-1.332-.309-1.84 0l-43.408 26.155c-.508.309-.508.795 0 1.104l.275.177c.507.309 1.332.309 1.84 0l43.408-26.156c.508-.309.508-.816 0-1.103ZM289.101 774.915l-.275-.176c-.508-.309-1.333-.309-1.841 0l-43.408 26.155c-.508.309-.508.795 0 1.104l.275.176c.508.309 1.333.309 1.84 0l43.409-26.155c.507-.309.507-.795 0-1.104ZM299.106 780.941l-.275-.177c-.508-.309-1.333-.309-1.84 0l-43.409 26.156c-.507.309-.507.794 0 1.103l.275.177c.508.309 1.333.309 1.841 0l43.408-26.155c.508-.309.508-.795 0-1.104ZM183.541 765.822l.275.176c.508.309 1.333.309 1.841 0l120.642-72.55c.507-.309.507-.795 0-1.104l-.275-.177c-.508-.309-1.333-.309-1.841 0l-120.642 72.551c-.507.309-.507.795 0 1.104Z"/></g><path d="m522.472 339.744 28.558-17.194c13.983-8.432 31.223-8.432 45.206 0l3.343 2.008c8.8 5.297 8.8 18.541 0 23.86l-2.983 1.81 7.7 4.635-18.15 1.655-15.104 9.094c-13.983 8.432-31.224 8.432-45.207 0l-3.342-2.008c-8.821-5.298-8.821-18.541-.021-23.86Z" stroke="url(#g)" stroke-miterlimit="10" stroke-linejoin="round"/><path d="M579.461 338.839c-2.305 1.39-5.796 1.545-7.805.331-1.989-1.214-1.756-3.311.55-4.702 2.305-1.39 5.796-1.545 7.805-.331 1.989 1.192 1.756 3.311-.55 4.702Zm-12.29 2.847c-1.989-1.214-5.479-1.059-7.806.331-2.306 1.391-2.56 3.487-.55 4.701 1.989 1.214 5.479 1.06 7.806-.331 2.285-1.39 2.538-3.509.55-4.701Zm-12.841 7.549c-1.988-1.214-5.479-1.06-7.805.331-2.306 1.39-2.56 3.487-.551 4.701 1.989 1.214 5.479 1.059 7.806-.331 2.285-1.391 2.539-3.51.55-4.701Z" fill="url(#h)"/><path opacity=".55" d="m598.52 765.557 182.391-109.875c13.242-7.968 13.242-27.899 0-35.867L372.108 373.536c-17.558-10.573-39.198-10.595-56.777 0A632961.644 632961.644 0 0 1 132.919 483.41c-13.242 7.968-13.221 27.899 0 35.867l408.824 246.28c17.579 10.594 39.22 10.594 56.777 0Z" fill="url(#i)"/><path d="m598.521 719.029 182.39-109.874c6.6-3.973 9.922-10.926 9.922-17.901.021-6.997 0-19.776 0-19.776l-418.724-244.47c-17.558-10.572-39.199-10.594-56.778 0-45.82 27.612-192.333 108.639-192.333 108.639v19.18c0 6.975 3.3 13.95 9.921 17.945l408.824 246.279c17.579 10.551 39.22 10.551 56.778-.022Z" fill="url(#j)"/><path d="m598.52 698.899 182.391-109.874c13.242-7.968 13.242-27.899 0-35.867l-408.803-246.28c-17.558-10.572-39.198-10.594-56.777 0a632855.734 632855.734 0 0 1-182.412 109.875c-13.242 7.968-13.221 27.899 0 35.867l408.824 246.279c17.579 10.573 39.22 10.573 56.777 0Z" fill="url(#k)"/><path d="M231.857 376.074c.275-.397.698-.772 1.227-1.081l37.781-22.624c1.65-.971 3.807-1.082 4.844-.243 1.037.839.55 2.318-1.1 3.289l-37.781 22.624c-1.65.971-3.808 1.081-4.845.242-.698-.573-.698-1.412-.126-2.207Zm49.183-29.952c-.825.928-.571 2.252.571 2.98 1.142.729 2.729.574 3.575-.353.825-.927.571-2.251-.571-2.98-1.142-.728-2.75-.574-3.575.353Z" fill="url(#l)"/><path d="M191.853 499.545c-.465-.066-.973-.243-1.523-.574l-18.319-11.19c-1.629-.994-2.814-2.892-2.623-4.26.19-1.369 1.65-1.656 3.279-.662l18.319 11.19c1.629.993 2.814 2.892 2.623 4.26-.106.905-.804 1.346-1.756 1.236ZM232.553 524.354c-.465-.066-.973-.243-1.523-.574l-28.812-17.547c-1.628-.993-2.813-2.892-2.623-4.26.191-1.369 1.65-1.656 3.279-.662l28.812 17.547c1.629.993 2.814 2.891 2.623 4.26-.106.927-.804 1.346-1.756 1.236ZM272.726 548.589c-.466-.066-.973-.243-1.523-.574l-28.812-17.547c-1.629-.993-2.814-2.892-2.623-4.26.19-1.369 1.65-1.655 3.279-.662l28.811 17.547c1.629.993 2.814 2.891 2.624 4.26-.106.927-.804 1.346-1.756 1.236Z" fill="#050A2D"/><path d="M190.204 499.766c-.465-.066-.973-.243-1.523-.574l-18.32-11.191c-1.628-.993-2.813-2.891-2.623-4.26.191-1.368 1.65-1.655 3.279-.662l18.32 11.191c1.629.993 2.813 2.891 2.623 4.26-.106.927-.825 1.368-1.756 1.236Z" fill="url(#m)"/><path d="M230.904 524.597c-.465-.066-.973-.243-1.523-.574l-28.812-17.547c-1.628-.994-2.813-2.892-2.623-4.26.191-1.369 1.65-1.656 3.279-.662l28.812 17.547c1.629.993 2.814 2.891 2.623 4.26-.127.905-.825 1.346-1.756 1.236Z" fill="url(#n)"/><path d="M271.076 548.832c-.466-.066-.973-.243-1.523-.574l-28.812-17.547c-1.629-.994-2.814-2.892-2.623-4.26.19-1.369 1.65-1.656 3.279-.662l28.811 17.547c1.629.993 2.814 2.891 2.624 4.26-.106.905-.825 1.346-1.756 1.236Z" fill="url(#o)"/><path d="M775.537 562.87 366.713 316.612a44.56 44.56 0 0 0-23.015-6.423c-8.06 0-16.014 2.23-22.995 6.423l-22.465 13.53c-2.793 1.678-2.793 5.872 0 7.549l7.298 4.392c2.517 1.523 2.517 5.32 0 6.843l-80.195 48.315c-3.999 2.406-8.906 2.406-12.883 0-1.481-.905-3.046-1.832-4.633-2.803-5.056-3.046-11.296-3.046-16.331 0l-53.16 32.027c-4.104 2.472-4.548 6.555-4.548 8.21 0 1.656.444 5.739 4.548 8.211l408.824 246.28a44.509 44.509 0 0 0 23.015 6.423c8.06 0 16.014-2.23 23.016-6.423L775.58 579.291c4.103-2.472 4.548-6.555 4.548-8.211-.043-1.633-.487-5.738-4.591-8.21Z" fill="#fff"/><path d="M714.043 636.568c-.466.066-.973.243-1.523.574l-28.812 17.547c-1.629.994-2.814 2.892-2.623 4.26.19 1.369 1.65 1.656 3.278.662l28.812-17.547c1.629-.993 2.814-2.891 2.623-4.26-.127-.927-.825-1.368-1.755-1.236Z" fill="url(#p)"/><path d="M681.042 505.946 366.714 316.59a44.56 44.56 0 0 0-23.016-6.423c-8.06 0-16.014 2.229-22.994 6.423l-22.466 13.53c-2.792 1.678-2.792 5.871 0 7.549l7.298 4.392c2.517 1.523 2.517 5.32 0 6.843l-80.195 48.337c-3.998 2.406-8.906 2.406-12.883 0-1.481-.905-3.046-1.832-4.633-2.803-5.055-3.046-11.296-3.046-16.331 0l-39.727 23.926 529.275 87.582Z" fill="url(#q)"/><path opacity=".55" d="m214.552 488.818 557.939 92.305 3.047-1.832c4.103-2.472 4.548-6.555 4.548-8.211 0-1.655-.445-5.738-4.548-8.21l-24.222-14.59-603.907-99.92 67.143 40.458Z" fill="url(#r)"/><path opacity=".23" d="M683.559 609.419c-1.502.905-3.765.994-5.077.221-1.29-.772-1.142-2.141.36-3.046 1.502-.905 3.765-.993 5.077-.221 1.29.773 1.142 2.141-.36 3.046Z" fill="#fff"/><path opacity=".45" d="M674.357 611.825c-1.29-.772-3.575-.684-5.077.221-1.502.905-1.671 2.273-.359 3.046 1.311.773 3.575.684 5.077-.221 1.502-.883 1.671-2.251.359-3.046Z" fill="#fff"/><path d="M664.5 617.476c-1.291-.773-3.575-.685-5.077.22-1.502.905-1.671 2.274-.36 3.046 1.291.773 3.575.685 5.077-.22 1.502-.883 1.65-2.252.36-3.046Z" fill="#fff"/><path d="M261.642 33.12 93.552 134.363c-9.499 5.716-15.358 16.311-15.358 27.744v63.877c0 8.674 8.99 14.104 16.204 9.755l168.09-101.266c9.498-5.717 15.358-16.311 15.358-27.745V42.875c-.021-8.674-9.012-14.104-16.204-9.756Z" stroke="url(#s)" stroke-miterlimit="10" stroke-linejoin="round"/><path d="m171.187 113.66-20.329 12.25c-9.942 6.004-16.077 17.084-16.077 29.069v2.869c0 7.549 7.827 12.25 14.089 8.498l2.136-1.28v6.599l7.447-11.08 10.746-6.467c9.942-6.003 16.077-17.084 16.077-29.069v-2.869c0-7.571-7.827-12.272-14.089-8.52Z" stroke="url(#t)" stroke-miterlimit="10" stroke-linejoin="round"/><path d="M147.389 148.666c0-1.721 1.332-3.906 2.982-4.9 1.65-.993 2.983-.397 2.983 1.303 0 1.721-1.333 3.906-2.983 4.9-1.65 1.015-2.982.419-2.982-1.303Zm12.015-4.26c1.65-.993 2.983-3.178 2.983-4.9 0-1.721-1.333-2.295-2.983-1.302-1.65.993-2.983 3.179-2.983 4.9 0 1.7 1.333 2.296 2.983 1.302Zm9.012-5.562c1.65-.993 2.983-3.178 2.983-4.9 0-1.721-1.333-2.295-2.983-1.302-1.65.993-2.983 3.178-2.983 4.9.021 1.7 1.354 2.296 2.983 1.302Z" fill="url(#u)"/><path d="M423.471 61.526 189.126 202.699c-11.233 6.754-18.129 19.246-18.129 32.776v137.112l8.863-18.872L429.648 203.25c11.232-6.754 18.129-19.246 18.129-32.777V76.182c.021-13.023-13.497-21.167-24.306-14.656Z" fill="#0A59A3" fill-opacity=".62"/><path opacity=".75" d="M188.068 227.309v20.284c0 2.45 2.56 3.995 4.59 2.759l15.633-9.403c1.989-1.192 3.216-3.399 3.216-5.805V214.86c0-2.45-2.56-3.995-4.591-2.759l-15.633 9.403c-1.988 1.214-3.215 3.421-3.215 5.805Z" fill="url(#v)"/><path opacity=".75" d="M201.818 227.198c.952-1.147 1.587-2.604 1.587-3.84 0-1.854-1.439-2.472-3.195-1.413-1.776 1.06-3.194 3.421-3.194 5.276 0 1.236.635 1.92 1.587 1.92-2.391 2.163-4.146 5.518-4.146 8.255v5.915l11.507-6.931v-5.915c0-2.737-1.734-3.995-4.146-3.267Z" fill="#5FC6FF"/><path opacity=".75" d="m366.439 116.11-141.351 85.154c-1.735 1.037-2.793 2.98-2.793 5.054v21.918c0 2.053 2.137 3.333 3.85 2.317L367.497 145.4c1.735-1.038 2.792-2.98 2.792-5.055v-21.917c0-2.075-2.136-3.355-3.85-2.318Z" fill="url(#w)"/><path d="m232.301 215.125 116.897-70.41c1.016-.618 1.841-1.677 1.841-2.361 0-.685-.825-.773-1.841-.155l-116.897 70.41c-1.016.618-1.841 1.677-1.841 2.362.022.684.825.75 1.841.154ZM390.386 118.45c0 .684.825.772 1.84.154l36.512-22.006c1.015-.618 1.841-1.677 1.841-2.361 0-.684-.826-.773-1.841-.155l-36.512 22.006c-1.036.596-1.84 1.655-1.84 2.362Z" fill="#fff"/><path opacity=".35" d="m189.887 291.362 238.83-143.91c1.015-.618 1.84-1.677 1.84-2.361 0-.685-.825-.773-1.84-.155l-238.83 143.91c-1.015.618-1.84 1.677-1.84 2.361.021.707.846.773 1.84.155ZM333.545 234.791l-143.637 86.545c-1.015.618-1.84 1.677-1.84 2.361 0 .685.825.773 1.84.155l143.637-86.545c1.015-.618 1.84-1.677 1.84-2.361-.021-.707-.846-.773-1.84-.155Z" fill="#fff"/><g opacity=".35" fill="#fff"><path d="M359.945 203.89c0 .685.825.773 1.84.155l66.953-40.348c1.015-.618 1.84-1.677 1.84-2.361 0-.685-.825-.773-1.84-.155l-66.953 40.348c-1.015.596-1.84 1.655-1.84 2.361ZM352.964 206.826l-163.077 98.265c-1.015.618-1.84 1.677-1.84 2.361 0 .685.825.773 1.84.155l163.077-98.265c1.016-.618 1.841-1.677 1.841-2.361 0-.685-.825-.751-1.841-.155Z"/></g><path opacity=".35" d="M188.068 276.022c0 .684.825.772 1.84.154l88.509-53.546c1.015-.618 1.84-1.678 1.84-2.362 0-.684-.825-.773-1.84-.155l-88.509 53.547c-1.015.618-1.84 1.677-1.84 2.362Z" fill="#fff"/><path d="M191.959 335.704v113.649" stroke="#fff" stroke-width=".5" stroke-miterlimit="10" stroke-linejoin="round"/><path opacity=".27" d="M198.644 451.229c-2.348 2.45-7.234 3.598-10.936 2.561-3.702-1.038-4.781-3.863-2.454-6.291 2.348-2.45 7.235-3.598 10.937-2.56 3.702 1.015 4.802 3.84 2.453 6.29Z" fill="#fff"/><path opacity=".21" d="M202.791 452.377c-3.787 3.951-11.72 5.805-17.728 4.15-5.986-1.678-7.763-6.247-3.976-10.198 3.786-3.95 11.719-5.805 17.727-4.149 6.007 1.677 7.784 6.246 3.977 10.197Z" fill="#fff"/><path d="M195.282 450.28c-1.164 1.214-3.597 1.788-5.416 1.258-1.84-.507-2.369-1.92-1.206-3.112 1.164-1.214 3.596-1.788 5.416-1.258 1.819.508 2.348 1.898 1.206 3.112ZM188.978 337.492c0-1.721 1.332-3.906 2.982-4.9 1.65-.993 2.983-.397 2.983 1.303 0 1.721-1.333 3.906-2.983 4.9-1.65.993-2.982.397-2.982-1.303Z" fill="#fff"/><path d="M710.003 63.181 476.356 203.935c-11.487 6.908-18.552 19.688-18.552 33.527v93.453c0 13.177 13.665 21.41 24.602 14.81l245.155-147.684 7.044 7.902V78.013c0-13.176-13.666-21.41-24.602-14.832Z" fill="#0A59A3" fill-opacity=".62"/><path opacity=".75" d="M474.875 228.788v20.284c0 2.45 2.56 3.995 4.59 2.759l15.633-9.403c1.989-1.192 3.216-3.399 3.216-5.805v-20.284c0-2.45-2.56-3.995-4.591-2.759l-15.633 9.403c-1.988 1.214-3.215 3.421-3.215 5.805Z" fill="url(#x)"/><path opacity=".75" d="M488.625 228.677c.952-1.147 1.586-2.604 1.586-3.84 0-1.854-1.438-2.472-3.194-1.413-1.777 1.06-3.194 3.421-3.194 5.275 0 1.236.634 1.921 1.586 1.921-2.39 2.163-4.146 5.518-4.146 8.255v5.915l11.508-6.931v-5.915c0-2.737-1.735-3.995-4.146-3.267Z" fill="#5FC6FF"/><path opacity=".75" d="m653.246 117.589-141.351 85.154c-1.735 1.037-2.792 2.979-2.792 5.054v21.918c0 2.052 2.136 3.333 3.85 2.317l141.351-85.154c1.735-1.037 2.793-2.979 2.793-5.054v-21.918c0-2.074-2.137-3.355-3.851-2.317Z" fill="url(#y)"/><path d="M677.192 119.929c0 .684.825.772 1.841.154l36.512-22.006c1.015-.618 1.84-1.677 1.84-2.361 0-.685-.825-.773-1.84-.155l-36.512 22.006c-1.037.596-1.841 1.655-1.841 2.362ZM517.29 216.714c0 .684.825.773 1.84.155l88.509-53.547c1.015-.618 1.84-1.677 1.84-2.362 0-.684-.825-.772-1.84-.154l-88.509 53.547c-1.037.595-1.84 1.655-1.84 2.361Z" fill="#fff"/><g opacity=".35" fill="#fff"><path d="m476.779 293.017 238.83-143.909c1.015-.618 1.84-1.678 1.84-2.362 0-.684-.825-.773-1.84-.155l-238.83 143.91c-1.015.618-1.84 1.677-1.84 2.362.021.684.825.75 1.84.154ZM474.959 277.677c0 .684.825.773 1.84.155l88.488-53.547c1.015-.618 1.84-1.678 1.84-2.362 0-.684-.825-.772-1.84-.154l-88.509 53.546c-1.015.596-1.819 1.656-1.819 2.362ZM636.006 227.044l-159.227 95.947c-1.015.618-1.84 1.677-1.84 2.362 0 .684.825.772 1.84.154l159.227-95.947c1.016-.618 1.841-1.677 1.841-2.362 0-.706-.825-.772-1.841-.154ZM550.565 262.293l-73.786 44.453c-1.015.618-1.84 1.677-1.84 2.362 0 .684.825.772 1.84.154l73.786-44.453c1.015-.618 1.84-1.677 1.84-2.362 0-.706-.825-.772-1.84-.154ZM560.401 257.614c0 .684.825.772 1.84.154l153.389-92.415c1.015-.618 1.84-1.678 1.84-2.362 0-.684-.825-.773-1.84-.155l-153.389 92.416c-1.036.618-1.84 1.677-1.84 2.362Z"/></g><path d="M476.461 336.786v113.649" stroke="#fff" stroke-width=".5" stroke-miterlimit="10" stroke-linejoin="round"/><path opacity=".27" d="M483.147 452.311c-2.348 2.45-7.235 3.598-10.937 2.56-3.702-1.037-4.781-3.84-2.454-6.29 2.348-2.45 7.235-3.598 10.937-2.561 3.702 1.016 4.802 3.841 2.454 6.291Z" fill="#fff"/><path opacity=".21" d="M477.487 457.942c7.067-1.043 12.338-5.274 11.771-9.45-.566-4.176-6.754-6.716-13.822-5.672-7.068 1.043-12.338 5.274-11.772 9.45.566 4.176 6.755 6.716 13.823 5.672Z" fill="#fff"/><path d="M479.783 451.362c-1.163 1.214-3.596 1.788-5.415 1.258-1.84-.508-2.369-1.92-1.206-3.112 1.164-1.214 3.596-1.788 5.416-1.258 1.819.507 2.369 1.898 1.205 3.112ZM473.479 338.574c0-1.722 1.333-3.907 2.983-4.9 1.65-.993 2.983-.397 2.983 1.302 0 1.722-1.333 3.907-2.983 4.9-1.65.993-2.983.397-2.983-1.302Z" fill="#fff"/><path d="M835.574 220.908 601.229 362.081c-11.233 6.754-18.129 19.246-18.129 32.776v137.112l8.863-18.872 249.788-150.465c11.232-6.754 18.129-19.246 18.129-32.777v-94.291c0-13.023-13.497-21.167-24.306-14.656Z" fill="#0A59A3" fill-opacity=".62"/><path opacity=".75" d="M600.15 386.691v20.284c0 2.45 2.56 3.995 4.59 2.759l15.633-9.403c1.989-1.192 3.216-3.399 3.216-5.805v-20.284c0-2.45-2.56-3.995-4.591-2.759l-15.633 9.425c-1.988 1.192-3.215 3.399-3.215 5.783Z" fill="url(#z)"/><path opacity=".75" d="M613.921 386.558c.952-1.147 1.587-2.604 1.587-3.84 0-1.854-1.439-2.472-3.195-1.413-1.776 1.06-3.194 3.421-3.194 5.276 0 1.236.635 1.92 1.587 1.92-2.391 2.163-4.146 5.518-4.146 8.255v5.915l11.507-6.931v-5.915c0-2.715-1.755-3.973-4.146-3.267Z" fill="#5FC6FF"/><path opacity=".75" d="m778.52 275.47-141.351 85.154c-1.735 1.037-2.793 2.98-2.793 5.054v21.918c0 2.052 2.137 3.333 3.851 2.317l141.351-85.153c1.735-1.038 2.792-2.98 2.792-5.055v-21.917c0-2.053-2.136-3.333-3.85-2.318Z" fill="url(#A)"/><path d="m644.404 374.507 116.897-70.41c1.016-.618 1.841-1.677 1.841-2.361 0-.685-.825-.773-1.841-.155l-116.897 70.41c-1.016.618-1.841 1.677-1.841 2.362 0 .684.825.75 1.841.154ZM802.468 277.81c0 .684.825.772 1.84.154l36.512-22.006c1.016-.618 1.841-1.677 1.841-2.361 0-.685-.825-.773-1.841-.155l-36.512 22.006c-1.015.618-1.84 1.677-1.84 2.362Z" fill="#fff"/><path opacity=".35" d="m601.99 450.744 238.83-143.91c1.015-.618 1.84-1.677 1.84-2.361 0-.685-.825-.773-1.84-.155l-238.83 143.91c-1.015.618-1.84 1.677-1.84 2.361 0 .685.825.751 1.84.155ZM745.627 394.173 601.99 480.718c-1.015.618-1.84 1.677-1.84 2.361 0 .685.825.773 1.84.155l143.637-86.545c1.015-.618 1.84-1.677 1.84-2.361 0-.684-.825-.773-1.84-.155Z" fill="#fff"/><g opacity=".35" fill="#fff"><path d="M772.048 363.272c0 .685.825.773 1.84.155l66.953-40.348c1.015-.618 1.84-1.677 1.84-2.361 0-.685-.825-.773-1.84-.155l-66.953 40.348c-1.036.596-1.84 1.655-1.84 2.361ZM765.067 366.208 601.99 464.473c-1.015.618-1.84 1.677-1.84 2.361 0 .684.825.773 1.84.155l163.077-98.265c1.016-.618 1.841-1.677 1.841-2.361 0-.685-.825-.773-1.841-.155Z"/></g><path opacity=".35" d="M600.15 435.404c0 .684.825.772 1.84.154l88.509-53.546c1.015-.618 1.84-1.678 1.84-2.362 0-.684-.825-.773-1.84-.155l-88.509 53.547c-1.015.596-1.84 1.655-1.84 2.362Z" fill="#fff"/><path d="M600.15 494.402v113.671" stroke="#fff" stroke-width=".5" stroke-miterlimit="10" stroke-linejoin="round"/><path opacity=".27" d="M606.834 609.949c-2.348 2.45-7.234 3.598-10.936 2.561-3.702-1.038-4.781-3.863-2.454-6.291 2.348-2.45 7.235-3.598 10.937-2.56 3.701 1.015 4.802 3.84 2.453 6.29Z" fill="#fff"/><path opacity=".21" d="M611.002 611.097c-3.787 3.951-11.72 5.805-17.728 4.15-5.986-1.678-7.763-6.247-3.977-10.198 3.787-3.951 11.72-5.805 17.728-4.149 5.986 1.677 7.763 6.246 3.977 10.197Z" fill="#fff"/><path d="M603.47 609c-1.163 1.214-3.596 1.788-5.415 1.258-1.84-.507-2.369-1.92-1.206-3.112 1.164-1.214 3.596-1.788 5.416-1.258 1.819.508 2.369 1.898 1.205 3.112ZM597.188 496.212c0-1.721 1.332-3.907 2.982-4.9 1.65-.993 2.983-.397 2.983 1.302 0 1.722-1.333 3.907-2.983 4.9-1.65.994-2.982.398-2.982-1.302Z" fill="#fff"/><path d="m556.488 775.842 49.691-29.929c24.349-14.656 54.324-14.656 78.651 0l5.818 3.509c15.315 9.226 15.315 32.292 0 41.518l-5.204 3.134 13.39 8.078-31.604 2.892-26.295 15.847c-24.327 14.656-54.323 14.656-78.65 0l-5.818-3.509c-15.294-9.248-15.294-32.314.021-41.54Z" stroke="url(#B)" stroke-miterlimit="10" stroke-linejoin="round"/><path d="M655.659 774.231c-4.02 2.428-10.091 2.693-13.56.596-3.469-2.097-3.046-5.761.973-8.166 4.019-2.428 10.091-2.693 13.56-.596 3.469 2.096 3.046 5.738-.973 8.166Zm-21.387 4.966c-3.469-2.096-9.562-1.832-13.56.596-4.019 2.428-4.442 6.07-.973 8.167 3.469 2.097 9.562 1.832 13.56-.596 4.019-2.406 4.442-6.07.973-8.167Zm-22.36 13.133c-3.469-2.097-9.562-1.832-13.56.596-4.019 2.428-4.442 6.07-.973 8.167 3.47 2.097 9.562 1.832 13.56-.596 4.019-2.406 4.464-6.07.973-8.167Z" fill="url(#C)"/><path d="m373.484 701.46-85.716 51.626c-3.618 2.185-3.618 7.615 0 9.778l85.885 51.737a16.877 16.877 0 0 0 17.516 0l85.716-51.626c3.618-2.186 3.618-7.615 0-9.778L391 701.46a16.877 16.877 0 0 0-17.516 0Z" stroke="url(#D)" stroke-miterlimit="10" stroke-linejoin="round"/><path d="m420.784 504.374 53.29 55.603-40.453-82.8" fill="url(#E)"/><path d="m470.281 395.504-70.364 75.049a.604.604 0 0 0-.151.225.697.697 0 0 0-.045.282l-.078 11.02a.176.176 0 0 0 .097.164.15.15 0 0 0 .092.015.123.123 0 0 0 .075-.046l41.217-44.524a.338.338 0 0 1 .252-.15.43.43 0 0 1 .306.095.503.503 0 0 1 .18.286.41.41 0 0 1-.05.309l-42.313 70.13a.13.13 0 0 0-.024.082l-.246 38.868a.821.821 0 0 0 .59.722.617.617 0 0 0 .443-.04.572.572 0 0 0 .279-.33l70.88-151.323a.69.69 0 0 0 .028-.488.83.83 0 0 0-.301-.426.699.699 0 0 0-.472-.139.55.55 0 0 0-.395.219Z" fill="url(#F)"/><path d="m399.736 482.204 9.539 9.953 35.811-59.408-45.35 49.455Z" fill="url(#G)"/><defs><linearGradient id="q" x1="414.958" y1="468.506" x2="449.341" y2="329.002" gradientUnits="userSpaceOnUse"><stop stop-color="#fff" stop-opacity=".3"/><stop offset="1" stop-color="#fff" stop-opacity=".05"/></linearGradient><linearGradient id="a" x1="50.719" y1="735.103" x2="339.141" y2="735.103" gradientUnits="userSpaceOnUse"><stop stop-color="#005BFF"/><stop offset="1" stop-color="#0093FF"/></linearGradient><linearGradient id="c" x1="247.064" y1="91.013" x2="401.38" y2="91.013" gradientUnits="userSpaceOnUse"><stop stop-color="#005BFF"/><stop offset="1" stop-color="#0093FF"/></linearGradient><linearGradient id="d" x1="563.808" y1="96.845" x2="535.485" y2="38.632" gradientUnits="userSpaceOnUse"><stop stop-color="#005BFF"/><stop offset="1" stop-color="#0093FF"/></linearGradient><linearGradient id="e" x1="244.599" y1="77.882" x2="216.276" y2="19.669" gradientUnits="userSpaceOnUse"><stop stop-color="#005BFF"/><stop offset="1" stop-color="#0093FF"/></linearGradient><linearGradient id="f" x1="221.311" y1="809.32" x2="303.44" y2="672.985" gradientUnits="userSpaceOnUse"><stop stop-color="#005BFF"/><stop offset="1" stop-color="#0093FF"/></linearGradient><linearGradient id="g" x1="545.077" y1="378.5" x2="583.987" y2="313.91" gradientUnits="userSpaceOnUse"><stop stop-color="#005BFF"/><stop offset="1" stop-color="#0093FF"/></linearGradient><linearGradient id="h" x1="571.422" y1="328.959" x2="553.458" y2="358.778" gradientUnits="userSpaceOnUse"><stop stop-color="#005BFF"/><stop offset="1" stop-color="#0093FF"/></linearGradient><linearGradient id="i" x1="318.518" y1="713.96" x2="607.078" y2="437.4" gradientUnits="userSpaceOnUse"><stop stop-color="#501779" stop-opacity=".5"/><stop offset="1" stop-color="#004BFF"/></linearGradient><linearGradient id="j" x1="557.026" y1="739.466" x2="348.396" y2="310.663" gradientUnits="userSpaceOnUse"><stop stop-color="#15164C"/><stop offset="1" stop-color="#10166B"/></linearGradient><linearGradient id="k" x1="554.259" y1="720.683" x2="345.629" y2="291.881" gradientUnits="userSpaceOnUse"><stop stop-color="#0093FF"/><stop offset="1" stop-color="#1D39F2"/></linearGradient><linearGradient id="l" x1="230.397" y1="374.965" x2="287.343" y2="351.189" gradientUnits="userSpaceOnUse"><stop stop-color="#101C82"/><stop offset="1" stop-color="#10148E"/></linearGradient><linearGradient id="m" x1="186.219" y1="502.664" x2="172.652" y2="480.143" gradientUnits="userSpaceOnUse"><stop stop-color="#101676"/><stop offset="1" stop-color="#1040BE"/></linearGradient><linearGradient id="n" x1="224.296" y1="529.057" x2="205.116" y2="497.218" gradientUnits="userSpaceOnUse"><stop stop-color="#101676"/><stop offset="1" stop-color="#1040BE"/></linearGradient><linearGradient id="o" x1="264.475" y1="553.29" x2="245.295" y2="521.451" gradientUnits="userSpaceOnUse"><stop stop-color="#101676"/><stop offset="1" stop-color="#1040BE"/></linearGradient><linearGradient id="p" x1="689.425" y1="664.638" x2="708.605" y2="632.799" gradientUnits="userSpaceOnUse"><stop stop-color="#8EECC8"/><stop offset="1" stop-color="#6486EF"/></linearGradient><linearGradient id="b" x1=".966" y1="573.013" x2="110.6" y2="573.013" gradientUnits="userSpaceOnUse"><stop stop-color="#005BFF"/><stop offset="1" stop-color="#0093FF"/></linearGradient><linearGradient id="r" x1="456.648" y1="541.642" x2="472.614" y2="476.864" gradientUnits="userSpaceOnUse"><stop stop-color="#fff" stop-opacity=".3"/><stop offset="1" stop-color="#fff" stop-opacity=".05"/></linearGradient><linearGradient id="s" x1="111.826" y1="254.049" x2="252.805" y2="20.021" gradientUnits="userSpaceOnUse"><stop stop-color="#005BFF"/><stop offset="1" stop-color="#0093FF"/></linearGradient><linearGradient id="t" x1="170.485" y1="163.388" x2="150.564" y2="122.443" gradientUnits="userSpaceOnUse"><stop stop-color="#005BFF"/><stop offset="1" stop-color="#0093FF"/></linearGradient><linearGradient id="u" x1="147.393" y1="141.308" x2="171.399" y2="141.308" gradientUnits="userSpaceOnUse"><stop stop-color="#005BFF"/><stop offset="1" stop-color="#0093FF"/></linearGradient><linearGradient id="v" x1="205.53" y1="244.12" x2="193.193" y2="218.763" gradientUnits="userSpaceOnUse"><stop stop-color="#005BFF"/><stop offset="1" stop-color="#0093FF"/></linearGradient><linearGradient id="w" x1="304.76" y1="192.3" x2="286.584" y2="154.943" gradientUnits="userSpaceOnUse"><stop stop-color="#005BFF"/><stop offset="1" stop-color="#0093FF"/></linearGradient><linearGradient id="x" x1="492.338" y1="245.598" x2="480" y2="220.241" gradientUnits="userSpaceOnUse"><stop stop-color="#005BFF"/><stop offset="1" stop-color="#0093FF"/></linearGradient><linearGradient id="y" x1="591.568" y1="193.778" x2="573.392" y2="156.421" gradientUnits="userSpaceOnUse"><stop stop-color="#005BFF"/><stop offset="1" stop-color="#0093FF"/></linearGradient><linearGradient id="z" x1="617.621" y1="403.496" x2="605.284" y2="378.14" gradientUnits="userSpaceOnUse"><stop stop-color="#005BFF"/><stop offset="1" stop-color="#0093FF"/></linearGradient><linearGradient id="A" x1="716.85" y1="351.676" x2="698.674" y2="314.32" gradientUnits="userSpaceOnUse"><stop stop-color="#005BFF"/><stop offset="1" stop-color="#0093FF"/></linearGradient><linearGradient id="B" x1="596.219" y1="842.564" x2="663.104" y2="731.537" gradientUnits="userSpaceOnUse"><stop stop-color="#005BFF"/><stop offset="1" stop-color="#0093FF"/></linearGradient><linearGradient id="C" x1="641.679" y1="757.05" x2="610.415" y2="808.948" gradientUnits="userSpaceOnUse"><stop stop-color="#005BFF"/><stop offset="1" stop-color="#0093FF"/></linearGradient><linearGradient id="D" x1="356.153" y1="805.347" x2="411.914" y2="712.784" gradientUnits="userSpaceOnUse"><stop stop-color="#005BFF"/><stop offset="1" stop-color="#0093FF"/></linearGradient><linearGradient id="E" x1="457.95" y1="523.882" x2="423.729" y2="489.704" gradientUnits="userSpaceOnUse"><stop stop-color="#CCE0F4"/><stop offset=".06" stop-color="#C3DCF2"/><stop offset=".17" stop-color="#A9D2EE"/><stop offset=".31" stop-color="#80C2E7"/><stop offset=".46" stop-color="#47ACDE"/><stop offset=".57" stop-color="#1E9CD7"/><stop offset=".87" stop-color="#0075BE"/><stop offset=".99" stop-color="#005B97"/></linearGradient><linearGradient id="F" x1="385.769" y1="531.316" x2="482.021" y2="407.654" gradientUnits="userSpaceOnUse"><stop stop-color="#CCE0F4"/><stop offset=".06" stop-color="#C3DCF2"/><stop offset=".17" stop-color="#A9D2EE"/><stop offset=".31" stop-color="#80C2E7"/><stop offset=".46" stop-color="#47ACDE"/><stop offset=".57" stop-color="#1E9CD7"/><stop offset=".87" stop-color="#0075BE"/><stop offset=".99" stop-color="#005B97"/></linearGradient><linearGradient id="G" x1="410.484" y1="477.998" x2="450.831" y2="426.157" gradientUnits="userSpaceOnUse"><stop stop-color="#CCE0F4"/><stop offset=".06" stop-color="#C3DCF2"/><stop offset=".17" stop-color="#A9D2EE"/><stop offset=".31" stop-color="#80C2E7"/><stop offset=".46" stop-color="#47ACDE"/><stop offset=".57" stop-color="#1E9CD7"/><stop offset=".87" stop-color="#0075BE"/><stop offset=".99" stop-color="#005B97"/></linearGradient></defs></svg>