<svg width="825" height="766" fill="none" xmlns="http://www.w3.org/2000/svg"><g opacity=".1"><path d="M225.733 260.011v505.161L376.336 197.31" fill="url(#a)"/><path d="M821.28.056 270.434 7.467a2.666 2.666 0 0 0-1.42.308 3.668 3.668 0 0 0-1.221 1.063l-41.188 49.694c-.127.138-.219.33-.261.548a1.42 1.42 0 0 0 .027.658c.059.21.166.386.304.503a.574.574 0 0 0 .458.144l324.757-6.893c.539-.123 1.091.06 1.534.508.443.449.741 1.126.829 1.882.087.757-.043 1.532-.362 2.154-.32.622-.802 1.04-1.341 1.163L128.544 177.226a.621.621 0 0 0-.396.259L-17.016 352.876c-.556.794-.898 1.833-.97 2.941-.072 1.108.132 2.217.577 3.138.445.921 1.103 1.598 1.863 1.915.76.317 1.575.255 2.306-.175L822.6 9.246c.803-.334 1.488-1.078 1.92-2.085.432-1.007.579-2.205.414-3.357-.166-1.153-.633-2.176-1.309-2.87-.676-.694-1.513-1.007-2.345-.878Z" fill="url(#b)"/><path d="M226.5 59.532v90.419L585.554 49.823 226.5 59.533Z" fill="url(#c)"/></g><defs><linearGradient id="a" x1="297.232" y1="524.783" x2="305.239" y2="207.675" gradientUnits="userSpaceOnUse"><stop stop-color="#CCE0F4"/><stop offset=".06" stop-color="#C3DCF2"/><stop offset=".17" stop-color="#A9D2EE"/><stop offset=".31" stop-color="#80C2E7"/><stop offset=".46" stop-color="#47ACDE"/><stop offset=".57" stop-color="#1E9CD7"/><stop offset=".87" stop-color="#0075BE"/><stop offset=".99" stop-color="#005B97"/></linearGradient><linearGradient id="b" x1="-9.781" y1="216.432" x2="822.441" y2="117.536" gradientUnits="userSpaceOnUse"><stop stop-color="#CCE0F4"/><stop offset=".06" stop-color="#C3DCF2"/><stop offset=".17" stop-color="#A9D2EE"/><stop offset=".31" stop-color="#80C2E7"/><stop offset=".46" stop-color="#47ACDE"/><stop offset=".57" stop-color="#1E9CD7"/><stop offset=".87" stop-color="#0075BE"/><stop offset=".99" stop-color="#005B97"/></linearGradient><linearGradient id="c" x1="283.715" y1="91.364" x2="632.583" y2="49.895" gradientUnits="userSpaceOnUse"><stop stop-color="#CCE0F4"/><stop offset=".06" stop-color="#C3DCF2"/><stop offset=".17" stop-color="#A9D2EE"/><stop offset=".31" stop-color="#80C2E7"/><stop offset=".46" stop-color="#47ACDE"/><stop offset=".57" stop-color="#1E9CD7"/><stop offset=".87" stop-color="#0075BE"/><stop offset=".99" stop-color="#005B97"/></linearGradient></defs></svg>