<svg xmlns="http://www.w3.org/2000/svg" width="240" height="74" fill="none"><path fill="#022749" d="M17.5 65.883c-.702 0-1.404.31-1.917.817a2.902 2.902 0 0 0-.783 2c0 .198.027.367.054.564.027.17.08.338.135.508.08.169.162.338.27.507.08.14.189.282.324.422.243.254.54.451.891.592.648.31 1.405.31 2.053 0 .324-.14.621-.338.891-.592l.324-.422c.108-.17.19-.338.243-.507.081-.17.135-.339.162-.508.027-.197.054-.366.054-.563 0-.733-.297-1.466-.783-2.001-.513-.507-1.215-.817-1.918-.817ZM77.997 2.677c-.081 1.55 1.08 2.874 2.565 2.959 1.486.084 2.755-1.128 2.836-2.677.081-1.55-1.08-2.875-2.566-2.96h-.135c-1.431 0-2.62 1.184-2.7 2.678ZM71.353.225c-1.485.17-2.566 1.55-2.43 3.1.161 1.55 1.485 2.677 2.97 2.536 1.485-.169 2.566-1.55 2.404-3.1-.135-1.437-1.324-2.536-2.674-2.536h-.27ZM87.07 3.41c-.27 1.522.73 2.987 2.188 3.27 1.458.253 2.862-.762 3.132-2.283.27-1.55-.729-3.015-2.187-3.269-.162 0-.324-.056-.486-.056-1.27 0-2.43.958-2.647 2.338Zm-25.09-1.324c-1.458.423-2.295 1.944-1.89 3.466.378 1.494 1.89 2.367 3.322 1.973 1.431-.423 2.268-1.973 1.89-3.495-.35-1.24-1.431-2.057-2.62-2.057-.215 0-.486 0-.702.113ZM95.983 5.27c-.405 1.494.432 3.072 1.864 3.495 1.431.422 2.917-.451 3.322-1.945.432-1.493-.405-3.043-1.837-3.466a2.346 2.346 0 0 0-.756-.113c-1.161 0-2.241.79-2.593 2.03Zm-42.94.226c-1.378.648-1.972 2.31-1.351 3.72.62 1.437 2.241 2.056 3.592 1.408 1.35-.648 1.944-2.339 1.323-3.747-.46-1.043-1.431-1.635-2.458-1.635a2.55 2.55 0 0 0-1.107.254Zm51.637 2.564c-.513 1.465.162 3.072 1.566 3.635a2.665 2.665 0 0 0 3.484-1.634c.54-1.466-.162-3.1-1.566-3.635-.324-.113-.649-.198-.946-.198-1.107 0-2.133.705-2.538 1.832Zm-59.956 2.226c-1.242.845-1.594 2.593-.783 3.889.81 1.296 2.484 1.662 3.727.817 1.269-.845 1.62-2.592.783-3.889a2.601 2.601 0 0 0-2.242-1.268 2.63 2.63 0 0 0-1.485.451Zm68.409 1.268c-.594 1.41 0 3.072 1.35 3.72 1.351.648 2.971.028 3.592-1.41.594-1.408 0-3.07-1.35-3.719a2.732 2.732 0 0 0-1.107-.253c-1.027 0-2.026.62-2.485 1.662Zm8.264 4.03c-.675 1.38-.162 3.071 1.161 3.776 1.324.704 2.971.169 3.646-1.212.676-1.409.135-3.1-1.188-3.804a2.687 2.687 0 0 0-1.215-.31c-.999 0-1.945.564-2.404 1.55Zm-84.208.676c-1.134 1.043-1.242 2.818-.243 3.973.972 1.184 2.674 1.297 3.808.254 1.107-1.015 1.215-2.79.243-3.973-.54-.62-1.27-.958-2.026-.958-.648 0-1.269.253-1.782.704Zm92.256 3.692c-.702 1.38-.243 3.071 1.081 3.832 1.296.733 2.943.253 3.673-1.127.702-1.353.216-3.072-1.081-3.833a2.7 2.7 0 0 0-1.296-.338c-.945 0-1.864.536-2.377 1.466Zm-98.927 3.325c-.972 1.183-.837 2.959.297 3.973 1.134 1.014 2.836.902 3.808-.282.972-1.183.837-2.959-.297-3.973a2.652 2.652 0 0 0-3.808.282Zm106.894 1.268c-.702 1.352-.243 3.071 1.054 3.832 1.323.76 2.97.254 3.673-1.099.729-1.353.27-3.071-1.054-3.832a2.451 2.451 0 0 0-1.296-.367c-.945 0-1.863.536-2.377 1.466Zm7.967 4.593c-.702 1.38-.216 3.072 1.108 3.804 1.296.76 2.944.225 3.646-1.127.702-1.38.216-3.072-1.081-3.832a2.78 2.78 0 0 0-1.296-.338c-.945 0-1.89.535-2.377 1.493ZM24.847 31.194c-.784 1.296-.433 3.043.81 3.889 1.27.845 2.917.479 3.727-.846.81-1.296.459-3.043-.783-3.888-.46-.31-.973-.451-1.459-.451-.891 0-1.755.45-2.295 1.296Zm128.581 2.395c-.676 1.41-.135 3.1 1.215 3.776 1.323.705 2.944.141 3.592-1.268.675-1.38.135-3.071-1.188-3.776a2.74 2.74 0 0 0-1.216-.282 2.64 2.64 0 0 0-2.403 1.55Zm8.183 4.143c-.621 1.437.027 3.1 1.404 3.72 1.351.62 2.944 0 3.538-1.466.594-1.437 0-3.1-1.404-3.72a2.856 2.856 0 0 0-1.081-.225c-1.026 0-2.025.648-2.457 1.69Zm62.575.479c-1.296.76-1.755 2.48-1.026 3.832.729 1.352 2.377 1.832 3.673 1.07 1.296-.76 1.783-2.479 1.053-3.832-.513-.93-1.431-1.437-2.376-1.437-.432 0-.892.113-1.324.367ZM20.309 39.845c-.62 1.437 0 3.1 1.324 3.748 1.35.648 2.944 0 3.565-1.381.62-1.409 0-3.1-1.324-3.748a2.639 2.639 0 0 0-1.107-.253c-1.026 0-2.026.62-2.458 1.634Zm149.674 1.55c-.486 1.465.27 3.071 1.674 3.607 1.405.507 2.944-.282 3.43-1.747.486-1.466-.243-3.072-1.647-3.58a2.496 2.496 0 0 0-.891-.168c-1.135 0-2.161.733-2.566 1.888Zm46.371.366c-1.431.48-2.187 2.085-1.728 3.55.459 1.494 1.971 2.283 3.403 1.804 1.404-.479 2.187-2.057 1.728-3.55-.378-1.184-1.431-1.945-2.566-1.945-.27 0-.567.057-.837.141Zm-37.729 2.62c-.351 1.523.54 3.044 1.999 3.41 1.431.367 2.89-.563 3.268-2.085.351-1.493-.54-3.015-1.999-3.41-.216-.056-.432-.056-.648-.056-1.215 0-2.323.846-2.62 2.142Zm29.303-.563c-1.458.226-2.485 1.663-2.269 3.184.216 1.55 1.594 2.621 3.079 2.367 1.459-.197 2.485-1.662 2.269-3.184-.189-1.409-1.35-2.395-2.674-2.395h-.405v.028Zm-20.417 2.593c-.162 1.55.891 2.959 2.349 3.128 1.486.197 2.836-.902 3.025-2.452.162-1.55-.891-2.959-2.35-3.128 0 0-.243-.028-.351-.028-1.35 0-2.511 1.043-2.673 2.48Zm11.748-1.916c-1.486 0-2.701 1.268-2.701 2.817 0 1.579 1.242 2.818 2.728 2.818 1.485 0 2.7-1.268 2.7-2.846 0-1.55-1.215-2.79-2.7-2.79h-.027Zm-182.271 4.65c-.406 1.493.432 3.07 1.863 3.493 1.431.423 2.944-.45 3.349-1.944.405-1.494-.432-3.043-1.864-3.494a3.284 3.284 0 0 0-.756-.085c-1.161 0-2.241.79-2.592 2.03Zm-1.864 9.749c-.19 1.522.864 2.93 2.35 3.128 1.485.169 2.835-.93 2.997-2.48.19-1.55-.89-2.959-2.35-3.128 0 0-.215-.028-.323-.028-1.35 0-2.512 1.07-2.674 2.508ZM232.991 32.322c-.702 0-1.405.281-1.918.817-.513.507-.783 1.24-.783 2 0 .367.054.733.189 1.071.162.338.351.648.594.902.999 1.07 2.809 1.07 3.808 0a2.47 2.47 0 0 0 .594-.902 2.91 2.91 0 0 0 .216-1.07c0-.761-.297-1.494-.81-2.001a2.557 2.557 0 0 0-1.89-.818Z"/><path fill="#022749" d="m0 55.485 2.863-3.1L17.42 67.066l12.963-16.203 3.16 2.734-15.8 19.753L0 55.485ZM236.701 25.041c-.702 0-1.405.282-1.918.817-.513.508-.783 1.24-.783 2.001 0 .366.054.733.189 1.07.162.34.351.65.594.903.999 1.07 2.809 1.07 3.808 0a2.47 2.47 0 0 0 .594-.902 2.91 2.91 0 0 0 .216-1.07c0-.762-.297-1.494-.81-2.002a2.557 2.557 0 0 0-1.89-.817Z"/></svg>