<svg xmlns="http://www.w3.org/2000/svg" width="213" height="56" fill="none"><path fill="#022749" d="M197.184 50.285c.635 0 1.269.236 1.733.623.464.409.708.968.708 1.527 0 .151-.024.28-.049.43a2.307 2.307 0 0 1-.122.388c-.073.129-.146.258-.244.387a1.747 1.747 0 0 1-.293.322 2.33 2.33 0 0 1-.805.452 2.513 2.513 0 0 1-1.855 0 2.893 2.893 0 0 1-.806-.452l-.292-.322a1.555 1.555 0 0 1-.22-.387 1.28 1.28 0 0 1-.147-.387c-.024-.151-.048-.28-.048-.43 0-.56.268-1.119.707-1.528a2.76 2.76 0 0 1 1.733-.623ZM142.513 2.043c.073 1.183-.977 2.194-2.319 2.258-1.342.065-2.49-.86-2.563-2.043-.073-1.183.977-2.194 2.319-2.258h.122c1.294 0 2.367.903 2.441 2.043Zm6.004-1.871c1.342.13 2.318 1.183 2.196 2.366-.146 1.183-1.342 2.043-2.684 1.936-1.343-.13-2.319-1.183-2.173-2.366.122-1.097 1.196-1.936 2.417-1.936h.244Zm-14.205 2.43c.244 1.162-.659 2.28-1.977 2.495-1.318.194-2.587-.58-2.831-1.742-.244-1.183.659-2.301 1.977-2.495.146 0 .293-.043.439-.043 1.147 0 2.197.732 2.392 1.785Zm22.674-1.01c1.318.322 2.075 1.484 1.709 2.645-.342 1.14-1.709 1.807-3.003 1.505-1.293-.322-2.05-1.505-1.708-2.666.317-.947 1.294-1.57 2.367-1.57.196 0 .44 0 .635.086Zm-30.728 2.43c.366 1.14-.391 2.344-1.684 2.667-1.294.322-2.636-.344-3.003-1.484-.39-1.14.367-2.323 1.66-2.646.22-.064.464-.086.684-.086 1.049 0 2.025.603 2.343 1.549Zm38.807.172c1.245.495 1.781 1.764 1.22 2.839-.561 1.097-2.026 1.57-3.246 1.075-1.22-.494-1.757-1.785-1.196-2.86.415-.796 1.294-1.248 2.221-1.248.342 0 .683.065 1.001.194ZM118.399 6.15c.463 1.119-.147 2.344-1.416 2.775-1.269.408-2.685-.13-3.149-1.248-.488-1.118.147-2.366 1.416-2.774.293-.086.586-.15.854-.15 1.001 0 1.928.537 2.295 1.397Zm54.183 1.7c1.123.644 1.44 1.978.708 2.967-.732.99-2.246 1.27-3.368.624-1.147-.645-1.465-1.979-.708-2.968.464-.645 1.245-.968 2.026-.968.463 0 .927.108 1.342.344Zm-61.823.967c.537 1.075 0 2.344-1.22 2.839-1.221.495-2.685.021-3.246-1.075-.537-1.076 0-2.345 1.22-2.84.342-.128.683-.193 1.001-.193.927 0 1.83.473 2.245 1.269Zm-7.468 3.076c.61 1.053.146 2.344-1.05 2.882-1.196.537-2.685.129-3.295-.925-.61-1.076-.122-2.366 1.074-2.904a2.79 2.79 0 0 1 1.098-.236c.903 0 1.758.43 2.173 1.183Zm76.101.516c1.025.796 1.122 2.15.219 3.032-.878.904-2.416.99-3.441.194-1.001-.774-1.098-2.13-.22-3.033a2.626 2.626 0 0 1 1.831-.73c.586 0 1.147.193 1.611.537Zm-83.375 2.817c.635 1.054.22 2.345-.976 2.925-1.171.56-2.66.194-3.32-.86-.634-1.032-.195-2.344.977-2.925a2.8 2.8 0 0 1 1.172-.258c.854 0 1.684.409 2.147 1.118Zm89.403 2.538c.879.904.757 2.258-.268 3.033-1.025.774-2.563.688-3.442-.215-.878-.904-.756-2.259.269-3.033a2.663 2.663 0 0 1 1.586-.516c.684 0 1.367.236 1.855.731Zm-96.603.968c.635 1.032.22 2.344-.952 2.925-1.196.58-2.684.194-3.319-.839-.659-1.032-.244-2.344.952-2.925.366-.193.78-.28 1.171-.28.855 0 1.684.41 2.148 1.119Zm-7.2 3.506c.635 1.054.195 2.344-1 2.903-1.172.58-2.66.172-3.295-.86-.635-1.054-.196-2.344.976-2.925.39-.172.78-.258 1.171-.258.855 0 1.709.409 2.148 1.14Zm108.929 1.57c.707.99.39 2.323-.733 2.968-1.147.645-2.636.365-3.368-.645-.732-.99-.415-2.323.708-2.968a2.675 2.675 0 0 1 1.318-.345c.806 0 1.587.345 2.075.99ZM74.344 25.637c.61 1.075.122 2.366-1.098 2.882-1.196.538-2.66.107-3.246-.968-.61-1.054-.123-2.344 1.073-2.882.367-.15.733-.215 1.099-.215.903 0 1.757.43 2.172 1.183Zm-7.395 3.162c.561 1.096-.025 2.365-1.27 2.838-1.22.474-2.66 0-3.197-1.118-.537-1.097 0-2.366 1.27-2.839.317-.107.634-.172.976-.172.927 0 1.83.495 2.22 1.29Zm-56.551.365c1.171.58 1.586 1.893.927 2.925-.659 1.032-2.148 1.398-3.32.817-1.17-.58-1.61-1.892-.951-2.925.463-.71 1.293-1.097 2.148-1.097.39 0 .805.087 1.196.28Zm184.248 1.248c.561 1.097 0 2.365-1.196 2.86-1.22.495-2.66 0-3.222-1.054-.561-1.075 0-2.366 1.196-2.86a2.763 2.763 0 0 1 1.001-.194c.927 0 1.831.473 2.221 1.248ZM59.382 31.595c.44 1.118-.244 2.344-1.513 2.752-1.269.388-2.66-.215-3.1-1.333-.439-1.118.22-2.344 1.49-2.732.268-.085.536-.128.805-.128 1.025 0 1.952.559 2.318 1.44Zm-41.906.28c1.293.365 1.977 1.59 1.562 2.709-.415 1.14-1.782 1.742-3.076 1.377-1.269-.366-1.977-1.57-1.562-2.71.342-.904 1.294-1.484 2.319-1.484.244 0 .512.043.757.107Zm34.096 2c.317 1.16-.488 2.322-1.806 2.602-1.294.28-2.611-.43-2.953-1.592-.318-1.14.488-2.301 1.806-2.602.195-.043.39-.043.586-.043 1.098 0 2.099.645 2.367 1.634Zm-26.481-.43c1.318.171 2.245 1.268 2.05 2.43-.195 1.182-1.44 2-2.783 1.806-1.318-.15-2.245-1.269-2.05-2.43.171-1.076 1.22-1.828 2.416-1.828h.367v.021Zm18.451 1.978c.147 1.183-.805 2.258-2.123 2.387-1.343.15-2.563-.688-2.734-1.871-.146-1.183.806-2.258 2.124-2.387 0 0 .22-.022.317-.022 1.22 0 2.27.796 2.416 1.893ZM32.925 33.96c1.343 0 2.44.968 2.44 2.151 0 1.205-1.122 2.15-2.464 2.15-1.343 0-2.44-.967-2.44-2.172 0-1.182 1.097-2.129 2.44-2.129h.024Zm164.723 3.55c.366 1.139-.39 2.343-1.684 2.666-1.294.323-2.66-.344-3.026-1.484-.367-1.14.39-2.323 1.684-2.667a3.48 3.48 0 0 1 .683-.064c1.05 0 2.026.602 2.343 1.548Zm1.684 7.44c.171 1.162-.781 2.237-2.123 2.388-1.343.129-2.563-.71-2.709-1.893-.171-1.183.805-2.258 2.123-2.387 0 0 .195-.022.293-.022 1.22 0 2.27.818 2.416 1.915ZM2.44 24.67c.635 0 1.27.214 1.734.623.463.387.707.946.707 1.527 0 .28-.048.56-.17.817a2.626 2.626 0 0 1-.537.689c-.904.817-2.539.817-3.442 0a1.894 1.894 0 0 1-.537-.689A1.926 1.926 0 0 1 0 26.82c0-.58.268-1.14.732-1.527.44-.409 1.074-.624 1.709-.624Z"/><path fill="#022749" d="m213 42.348-2.587-2.365-13.156 11.205-11.715-12.367-2.856 2.086 14.279 15.077L213 42.348Z"/></svg>