<svg width="231" height="254" fill="none" xmlns="http://www.w3.org/2000/svg"><path d="m140.09 227.417-.208-.949c52.23-11.276 90.142-58.152 90.142-111.454 0-6.841-.611-13.702-1.824-20.386l.962-.17a115.533 115.533 0 0 1 1.838 20.56c0 26.422-9.219 52.23-25.963 72.663-16.51 20.151-39.573 34.262-64.947 39.739v-.003Zm-76.259-9.51C24.46 198.262 0 158.836 0 115.014c0-9.609 1.193-19.155 3.542-28.376l.946.24a114.035 114.035 0 0 0-3.512 28.136c0 43.453 24.252 82.546 63.293 102.025l-.438.868ZM190.405 28.745C169.621 10.834 143.017.972 115.5.972c-25.007 0-48.768 7.885-68.707 22.795l-.588-.778C66.317 7.952 90.275.003 115.5 0c27.754 0 54.582 9.946 75.543 28.007l-.638.735v.003Z" fill="#022749"/><path d="m115.503 214.965-1.417-.01.054-3.886 1.36.01c53.195 0 96.474-43.096 96.474-96.068s-40.582-93.836-92.391-95.982l.164-3.883c53.904 2.233 96.129 46.098 96.129 99.865 0 53.767-45.029 99.951-100.373 99.951v.003ZM43.041 184.18c-18.004-18.696-27.914-43.259-27.914-69.166 0-27.624 11.644-54.276 31.944-73.126l2.66 2.842c-19.515 18.114-30.705 43.735-30.705 70.284 0 24.902 9.526 48.507 26.825 66.478l-2.817 2.692.007-.004Z" fill="#022749"/><path d="M47.228 132c-.315 0-.598-.113-.85-.34a1.279 1.279 0 0 1-.378-.923V99.263c0-.389.126-.696.378-.923.252-.227.535-.34.85-.34h7.701c.347 0 .63.13.85.389.253.226.379.518.379.874v23.508h5.48V99.263c0-.356.11-.648.33-.874a1.21 1.21 0 0 1 .898-.389h7.701c.347 0 .63.13.85.389.253.226.379.518.379.874v23.508h5.433V99.263c0-.356.11-.648.33-.874a1.21 1.21 0 0 1 .898-.389h7.701c.346 0 .63.13.85.389.252.226.378.518.378.874v31.474c0 .356-.126.664-.378.923-.22.227-.504.34-.85.34h-38.93ZM91.544 132c-.284 0-.535-.097-.756-.291a1.181 1.181 0 0 1-.284-.778c0-.129.032-.242.095-.34l10.772-31.085c.094-.356.299-.697.614-1.02.346-.324.803-.486 1.37-.486h8.646c.598 0 1.055.162 1.37.486.315.323.52.663.614 1.02l10.819 31.085c.032.098.047.211.047.34 0 .292-.11.551-.33.778a.949.949 0 0 1-.709.291h-7.276c-.535 0-.929-.13-1.181-.389s-.425-.501-.519-.728l-1.465-4.08h-11.386l-1.465 4.08c-.094.227-.267.469-.519.728-.22.259-.615.389-1.181.389h-7.276Zm12.614-13.406h7.04l-3.544-10.928-3.496 10.928ZM129.215 132c-.315 0-.599-.113-.851-.34a1.279 1.279 0 0 1-.378-.923V99.263c0-.356.126-.648.378-.874.252-.26.536-.389.851-.389h21.307c.346 0 .63.13.85.389.252.226.378.518.378.874v6.12c0 .356-.126.664-.378.923-.22.226-.504.34-.85.34h-12.378v24.091c0 .356-.126.664-.378.923-.221.227-.504.34-.851.34h-7.7ZM180.063 132c-.347 0-.646-.113-.898-.34a1.381 1.381 0 0 1-.331-.923v-4.808h-14.409a1.3 1.3 0 0 1-.898-.34 1.381 1.381 0 0 1-.331-.923v-5.78c0-.356.048-.648.142-.875.126-.259.252-.469.378-.631l13.559-18.554c.441-.55 1.024-.826 1.748-.826h8.363c.346 0 .63.13.85.389.252.226.378.518.378.874v18.117h4.158c.378 0 .677.13.897.389.221.226.331.518.331.874v6.023c0 .356-.126.664-.378.923-.22.226-.504.34-.85.34h-4.158v4.808c0 .356-.126.664-.378.923-.22.227-.504.34-.85.34h-7.323Zm-7.418-14.183h6.473v-9.228l-6.473 9.228ZM106.46 234.337c10.905-10.859 10.905-28.465 0-39.325-10.905-10.859-28.586-10.859-39.49 0-10.906 10.86-10.906 28.466 0 39.325 10.904 10.86 28.585 10.86 39.49 0Z" fill="#022749"/><path d="M99.75 207.917v14.166c0 4.25-2.125 7.084-7.083 7.084H81.333c-4.958 0-7.083-2.834-7.083-7.084v-14.166c0-4.25 2.125-7.084 7.083-7.084h11.334c4.958 0 7.083 2.834 7.083 7.084Z" stroke="#fff" stroke-width="3" stroke-miterlimit="10" stroke-linecap="round" stroke-linejoin="round"/><path d="M90.542 204.375v2.833a2.842 2.842 0 0 0 2.833 2.834h2.834m-14.876 6.375H87m-5.666 5.666h11.333" stroke="#fff" stroke-width="3" stroke-miterlimit="10" stroke-linecap="round" stroke-linejoin="round"/></svg>