<svg width="231" height="254" fill="none" xmlns="http://www.w3.org/2000/svg"><path d="m140.09 232.804-.208-.97c52.23-11.544 90.142-59.531 90.142-114.095 0-7.003-.611-14.027-1.824-20.87l.962-.174A120.994 120.994 0 0 1 231 117.742c0 27.049-9.219 53.468-25.963 74.385-16.51 20.628-39.573 35.074-64.947 40.681v-.004Zm-76.259-9.735C24.46 202.959 0 162.599 0 117.739c0-9.837 1.193-19.61 3.542-29.048l.946.245A119.356 119.356 0 0 0 .976 117.74c0 44.482 24.252 84.501 63.293 104.441l-.438.889ZM190.405 29.426C169.621 11.091 143.02.995 115.5.995c-25.007 0-48.768 8.072-68.707 23.336l-.588-.797C66.317 8.14 90.28.003 115.5 0c27.754 0 54.582 10.181 75.543 28.67l-.638.753v.003Z" fill="url(#a)"/><path d="m115.503 220.058-1.417-.01.054-3.979 1.36.011c53.195 0 96.474-44.118 96.474-98.345 0-54.226-40.582-96.058-92.391-98.255l.164-3.975c53.904 2.286 96.129 47.19 96.129 102.23 0 55.041-45.029 102.32-100.373 102.32v.003Zm-72.462-31.514c-18.004-19.14-27.914-44.284-27.914-70.805 0-28.279 11.644-55.562 31.944-74.858l2.66 2.908c-19.515 18.544-30.705 44.772-30.705 71.95 0 25.492 9.523 49.656 26.825 68.053l-2.817 2.755.007-.003Z" fill="url(#b)"/><path d="M47.174 143.521c-.301 0-.572-.112-.813-.335a1.281 1.281 0 0 1-.361-.91v-31.031c0-.383.12-.686.361-.91.241-.223.512-.335.813-.335h7.36c.33 0 .602.128.813.383.24.224.36.511.36.862v23.178h5.238v-23.178c0-.351.106-.638.316-.862.241-.255.527-.383.858-.383h7.36c.331 0 .602.128.813.383.24.224.361.511.361.862v23.178h5.193v-23.178c0-.351.105-.638.316-.862.24-.255.526-.383.858-.383h7.36c.33 0 .601.128.812.383.24.224.361.511.361.862v31.031c0 .351-.12.655-.36.91-.212.223-.483.335-.814.335H47.174Z" fill="url(#c)"/><path d="M89.527 143.521c-.271 0-.512-.096-.723-.287a1.186 1.186 0 0 1-.27-.766c0-.128.03-.24.09-.336l10.294-30.647c.09-.352.286-.687.587-1.006.332-.319.768-.479 1.31-.479h8.263c.572 0 1.008.16 1.309.479.301.319.497.654.587 1.006l10.34 30.647c.03.096.045.208.045.336 0 .287-.105.542-.316.766a.894.894 0 0 1-.677.287h-6.954c-.512 0-.888-.128-1.129-.383-.24-.255-.406-.495-.496-.718l-1.4-4.023H99.505l-1.4 4.023c-.09.223-.255.463-.496.718-.21.255-.587.383-1.129.383h-6.953Zm12.055-13.217h6.728l-3.386-10.774-3.342 10.774Z" fill="url(#d)"/><path d="M125.529 143.521c-.301 0-.572-.112-.813-.335a1.28 1.28 0 0 1-.361-.91v-31.031c0-.351.12-.638.361-.862.241-.255.512-.383.813-.383h20.364c.331 0 .602.128.812.383.241.224.361.511.361.862v6.034c0 .351-.12.654-.361.91-.21.223-.481.335-.812.335h-11.83v23.752c0 .351-.121.655-.362.91-.21.223-.481.335-.812.335h-7.36Z" fill="url(#e)"/><path d="M171.958 144c-2.499 0-4.636-.319-6.412-.958-1.776-.638-3.206-1.436-4.289-2.394-1.084-.99-1.897-2.043-2.439-3.161-.511-1.117-.782-2.155-.812-3.112 0-.288.09-.527.271-.719.21-.223.451-.335.722-.335h7.495c.392 0 .693.08.903.24.211.127.407.335.587.622.211.383.497.718.858 1.006a3.86 3.86 0 0 0 1.31.574c.511.096 1.128.144 1.851.144 1.294 0 2.272-.303 2.935-.91.662-.638.993-1.468.993-2.49 0-1.022-.331-1.756-.993-2.203-.663-.479-1.611-.718-2.845-.718h-5.328c-.331 0-.617-.128-.858-.383a1.325 1.325 0 0 1-.316-.862v-3.304c0-.447.075-.814.226-1.102.181-.319.376-.543.587-.67l6.818-5.124h-12.191c-.331 0-.617-.128-.858-.383a1.32 1.32 0 0 1-.316-.862v-5.651c0-.351.105-.638.316-.862.241-.255.527-.383.858-.383h21.944c.331 0 .602.128.813.383.24.224.361.511.361.862v5.076c0 .415-.075.782-.226 1.102-.151.287-.331.494-.542.622l-6.095 5.268.18.095c1.596.32 3.04.862 4.335 1.629 1.294.734 2.318 1.771 3.07 3.112.753 1.341 1.129 3.033 1.129 5.076 0 2.171-.617 4.071-1.851 5.699-1.204 1.596-2.86 2.841-4.967 3.735-2.077.894-4.485 1.341-7.224 1.341Z" fill="url(#f)"/><path d="M113.854 226.302c3.558-15.297-5.722-30.638-20.728-34.265-15.006-3.627-30.055 5.833-33.614 21.13-3.558 15.297 5.722 30.638 20.728 34.265 15.006 3.627 30.056-5.833 33.614-21.13Z" fill="url(#g)"/><path d="M82.75 221.417a5.964 5.964 0 0 0-2.295 2.026 1.456 1.456 0 0 0 0 1.615 5.97 5.97 0 0 0 2.295 2.025m8.797-5.666a5.963 5.963 0 0 1 2.295 2.026 1.456 1.456 0 0 1 0 1.615 5.969 5.969 0 0 1-2.295 2.025" stroke="#fff" stroke-width="3" stroke-linecap="round" stroke-linejoin="round"/><path d="m73.16 214.347 27.228-.014M82.75 234.167h8.5c7.084 0 9.917-2.834 9.917-9.917v-8.5c0-7.083-2.834-9.917-9.917-9.917h-8.5c-7.083 0-9.916 2.834-9.916 9.917v8.5c0 7.083 2.833 9.917 9.916 9.917Z" stroke="#fff" stroke-width="3" stroke-linecap="round" stroke-linejoin="round"/><defs><linearGradient id="a" x1="0" y1="116.404" x2="231" y2="116.404" gradientUnits="userSpaceOnUse"><stop stop-color="#00D2FF"/><stop offset="1" stop-color="#3A7BD5"/></linearGradient><linearGradient id="b" x1="15.127" y1="117.781" x2="215.876" y2="117.781" gradientUnits="userSpaceOnUse"><stop stop-color="#00D2FF"/><stop offset="1" stop-color="#3A7BD5"/></linearGradient><linearGradient id="c" x1="46" y1="127" x2="186" y2="127" gradientUnits="userSpaceOnUse"><stop stop-color="#00D2FF"/><stop offset="1" stop-color="#3A7BD5"/></linearGradient><linearGradient id="d" x1="46" y1="127" x2="186" y2="127" gradientUnits="userSpaceOnUse"><stop stop-color="#00D2FF"/><stop offset="1" stop-color="#3A7BD5"/></linearGradient><linearGradient id="e" x1="46" y1="127" x2="186" y2="127" gradientUnits="userSpaceOnUse"><stop stop-color="#00D2FF"/><stop offset="1" stop-color="#3A7BD5"/></linearGradient><linearGradient id="f" x1="46" y1="127" x2="186" y2="127" gradientUnits="userSpaceOnUse"><stop stop-color="#00D2FF"/><stop offset="1" stop-color="#3A7BD5"/></linearGradient><linearGradient id="g" x1="80.24" y1="247.432" x2="93.603" y2="192.152" gradientUnits="userSpaceOnUse"><stop stop-color="#00D2FF"/><stop offset="1" stop-color="#3A7BD5"/></linearGradient></defs></svg>