<svg width="231" height="254" fill="none" xmlns="http://www.w3.org/2000/svg"><path d="m140.09 229.557-.208-.957c52.23-11.383 90.142-58.7 90.142-112.503 0-6.906-.611-13.831-1.824-20.579l.962-.171A117.696 117.696 0 0 1 231 116.1c0 26.672-9.219 52.722-25.963 73.347-16.51 20.341-39.573 34.585-64.947 40.113v-.003Zm-76.259-9.599C24.46 200.128 0 160.331 0 116.097c0-9.7 1.193-19.336 3.542-28.643l.946.242a116.131 116.131 0 0 0-3.512 28.401c0 43.861 24.252 83.322 63.293 102.984l-.438.877ZM190.405 29.016A114.137 114.137 0 0 0 115.5.98c-25.007 0-48.768 7.96-68.707 23.01l-.588-.786C66.317 8.027 90.28.003 115.5 0c27.754 0 54.582 10.04 75.543 28.27l-.638.742v.004Z" fill="url(#a)"/><path d="m115.5 216.989-1.414-.01.054-3.923 1.36.01c53.195 0 96.474-43.502 96.474-96.972 0-53.47-40.582-94.719-92.394-96.885l.163-3.92c53.904 2.254 96.133 46.532 96.133 100.805 0 54.273-45.029 100.892-100.376 100.892v.003Zm-72.46-31.075c-18-18.869-27.913-43.663-27.913-69.817 0-27.884 11.644-54.787 31.944-73.81l2.66 2.868C30.22 63.439 19.028 89.298 19.028 116.1c0 25.137 9.527 48.97 26.829 67.104l-2.817 2.714v-.004Z" fill="url(#b)"/><path d="M47.303 134.642a1.27 1.27 0 0 1-.863-.34 1.27 1.27 0 0 1-.383-.923v-31.475c0-.388.127-.696.383-.922.256-.227.543-.34.863-.34h7.813c.352 0 .64.129.863.388.256.227.384.518.384.874v23.509h5.56v-23.509c0-.356.112-.647.336-.874.255-.259.559-.388.91-.388h7.814c.351 0 .639.129.863.388.255.227.383.518.383.874v23.509h5.513v-23.509c0-.356.111-.647.335-.874.256-.259.56-.388.91-.388h7.814c.352 0 .64.129.863.388.256.227.384.518.384.874v31.475c0 .356-.128.664-.384.923-.224.226-.511.34-.863.34H47.303Z" fill="url(#c)"/><path d="M92.266 134.642c-.288 0-.543-.098-.767-.292a1.168 1.168 0 0 1-.288-.777c0-.129.032-.243.096-.34l10.929-31.086c.096-.356.304-.696.624-1.02.351-.323.814-.485 1.39-.485h8.772c.607 0 1.07.162 1.39.485.319.324.527.664.623 1.02l10.977 31.086c.032.097.048.211.048.34 0 .291-.112.551-.335.777a.972.972 0 0 1-.719.292h-7.382c-.544 0-.943-.13-1.199-.389-.256-.259-.431-.502-.527-.729l-1.486-4.08H102.86l-1.486 4.08c-.096.227-.272.47-.528.729-.223.259-.623.389-1.198.389h-7.382Zm12.799-13.406h7.142l-3.595-10.929-3.547 10.929Z" fill="url(#d)"/><path d="M130.487 134.642a1.27 1.27 0 0 1-.863-.34 1.268 1.268 0 0 1-.383-.923v-31.475c0-.356.127-.647.383-.874.256-.259.543-.388.863-.388h21.619c.351 0 .639.129.862.388.256.227.384.518.384.874v6.12c0 .357-.128.664-.384.923-.223.227-.511.34-.862.34h-12.559v24.092c0 .356-.128.664-.384.923-.224.226-.511.34-.863.34h-7.813Z" fill="url(#e)"/><path d="M176.997 134.642a1.33 1.33 0 0 1-.911-.34 1.365 1.365 0 0 1-.335-.923v-21.372l-5.992 4.663c-.32.227-.639.308-.959.243-.288-.097-.559-.308-.815-.631l-3.499-4.615a1.662 1.662 0 0 1-.192-.971c.064-.356.256-.632.575-.826l11.313-8.888c.16-.13.32-.211.479-.243a1.53 1.53 0 0 1 .576-.097h7.525c.352 0 .655.129.911.388.256.227.384.518.384.874v31.475c0 .356-.128.664-.384.923a1.33 1.33 0 0 1-.911.34h-7.765Z" fill="url(#f)"/><path d="M98.473 242.164c13.984-6.537 20.049-23.231 13.546-37.287-6.503-14.056-23.112-20.152-37.096-13.616-13.984 6.537-20.048 23.231-13.545 37.287 6.503 14.057 23.111 20.153 37.095 13.616Z" fill="url(#g)"/><path d="M100.911 232.733c0-6.375-6.336-11.531-14.136-11.531-7.801 0-14.137 5.156-14.137 11.531m14.136-16.474a8.223 8.223 0 0 0 5.819-2.412 8.242 8.242 0 0 0 0-11.649 8.224 8.224 0 0 0-11.637 0 8.242 8.242 0 0 0 0 11.649 8.223 8.223 0 0 0 5.819 2.412Z" stroke="#fff" stroke-width="3" stroke-linecap="round" stroke-linejoin="round"/><defs><linearGradient id="a" x1="0" y1="114.78" x2="231" y2="114.78" gradientUnits="userSpaceOnUse"><stop stop-color="#00D2FF"/><stop offset="1" stop-color="#3A7BD5"/></linearGradient><linearGradient id="b" x1="15.127" y1="116.139" x2="215.876" y2="116.139" gradientUnits="userSpaceOnUse"><stop stop-color="#00D2FF"/><stop offset="1" stop-color="#3A7BD5"/></linearGradient><linearGradient id="c" x1="46.057" y1="117.642" x2="186.057" y2="117.642" gradientUnits="userSpaceOnUse"><stop stop-color="#00D2FF"/><stop offset="1" stop-color="#3A7BD5"/></linearGradient><linearGradient id="d" x1="46.057" y1="117.642" x2="186.057" y2="117.642" gradientUnits="userSpaceOnUse"><stop stop-color="#00D2FF"/><stop offset="1" stop-color="#3A7BD5"/></linearGradient><linearGradient id="e" x1="46.057" y1="117.642" x2="186.057" y2="117.642" gradientUnits="userSpaceOnUse"><stop stop-color="#00D2FF"/><stop offset="1" stop-color="#3A7BD5"/></linearGradient><linearGradient id="f" x1="46.057" y1="117.642" x2="186.057" y2="117.642" gradientUnits="userSpaceOnUse"><stop stop-color="#00D2FF"/><stop offset="1" stop-color="#3A7BD5"/></linearGradient><linearGradient id="g" x1="61.378" y1="228.548" x2="112.111" y2="205.077" gradientUnits="userSpaceOnUse"><stop stop-color="#00D2FF"/><stop offset="1" stop-color="#3A7BD5"/></linearGradient></defs></svg>