<svg width="231" height="254" fill="none" xmlns="http://www.w3.org/2000/svg"><path d="m140.09 232.23-.208-.969c52.23-11.515 90.142-59.383 90.142-113.812 0-6.986-.611-13.993-1.824-20.819l.962-.173A120.405 120.405 0 0 1 231 117.452c0 26.982-9.219 53.335-25.963 74.201-16.51 20.577-39.573 34.987-64.947 40.58v-.003Zm-76.259-9.711C24.46 202.458 0 162.198 0 117.449c0-9.813 1.193-19.562 3.542-28.977l.946.245c-2.33 9.334-3.512 19-3.512 28.732 0 44.372 24.252 84.292 63.293 104.183l-.438.887ZM190.405 29.354C169.621 11.064 143.017.992 115.5.992c-25.007 0-48.768 8.053-68.707 23.278l-.588-.795C66.317 8.121 90.275.003 115.5 0c27.754 0 54.582 10.156 75.543 28.6l-.638.75v.004Z" fill="#022749"/><path d="m115.503 219.515-1.417-.01.054-3.969 1.36.01c53.195 0 96.474-44.008 96.474-98.101 0-54.093-40.582-95.822-92.391-98.013l.164-3.965c53.904 2.28 96.129 47.073 96.129 101.978 0 54.905-45.029 102.067-100.373 102.067v.003Zm-72.462-31.437c-18.004-19.092-27.914-44.174-27.914-70.63 0-28.208 11.644-55.425 31.944-74.673l2.66 2.901c-19.515 18.498-30.705 44.661-30.705 71.772 0 25.429 9.523 49.534 26.825 67.885l-2.817 2.749.007-.004Z" fill="#022749"/><path d="M113.706 226.566c3.979-15.152-4.875-30.714-19.775-34.76-14.9-4.046-30.205 4.957-34.183 20.109-3.979 15.151 4.875 30.714 19.775 34.759 14.9 4.046 30.205-4.957 34.183-20.108Z" fill="#022749"/><path d="M80.999 216.66v20.567l6.414-23.12" fill="#fff"/><path d="m106.365 206.077-23.463.301a.118.118 0 0 0-.06.013.146.146 0 0 0-.052.043l-1.755 2.023a.053.053 0 0 0-.01.049.042.042 0 0 0 .013.021.024.024 0 0 0 .02.006l13.833-.281a.072.072 0 0 1 .065.021.128.128 0 0 1 .035.076.15.15 0 0 1-.015.088.089.089 0 0 1-.057.047l-18.06 4.806a.026.026 0 0 0-.017.01l-6.183 7.141a.228.228 0 0 0-.042.12.244.244 0 0 0 .025.127.156.156 0 0 0 .08.078.11.11 0 0 0 .097-.007l35.602-14.308a.159.159 0 0 0 .082-.085c.018-.041.025-.09.018-.137a.208.208 0 0 0-.056-.117.116.116 0 0 0-.1-.035Z" fill="#fff"/><path d="M81.031 208.498v3.681l15.294-4.076-15.294.395Z" fill="#fff"/><path d="M47.302 134.019c-.32 0-.607-.112-.862-.334a1.237 1.237 0 0 1-.384-.906v-30.901c0-.381.128-.683.384-.906.255-.222.543-.334.862-.334h7.81c.352 0 .64.128.863.382.256.222.383.509.383.858v23.08h5.559v-23.08c0-.349.112-.636.335-.858.256-.254.56-.382.91-.382h7.811c.352 0 .64.128.863.382.255.222.383.509.383.858v23.08h5.51v-23.08c0-.349.113-.636.336-.858.256-.254.56-.382.91-.382h7.811c.352 0 .64.128.863.382.255.222.383.509.383.858v30.901c0 .349-.128.651-.383.906-.224.222-.511.334-.863.334H47.302ZM92.249 134.019c-.288 0-.543-.096-.767-.287a1.133 1.133 0 0 1-.287-.763c0-.127.032-.238.096-.333l10.925-30.519c.096-.35.303-.684.623-1.002.351-.318.814-.477 1.389-.477h8.769c.607 0 1.07.159 1.39.477.319.318.527.652.623 1.002l10.973 30.519c.032.095.048.206.048.333 0 .287-.112.541-.336.763a.975.975 0 0 1-.718.287h-7.38c-.543 0-.942-.128-1.198-.382-.255-.254-.431-.493-.527-.715l-1.485-4.006h-11.548l-1.486 4.006c-.096.222-.271.461-.527.715-.223.254-.623.382-1.198.382h-7.38Zm12.794-13.162h7.14l-3.594-10.729-3.546 10.729ZM130.456 134.019a1.28 1.28 0 0 1-.862-.334 1.236 1.236 0 0 1-.384-.906v-30.901c0-.349.128-.636.384-.858.255-.254.543-.382.862-.382h21.611a1.1 1.1 0 0 1 .863.382c.255.222.383.509.383.858v6.009c0 .349-.128.651-.383.906-.224.222-.512.334-.863.334h-12.554v23.652c0 .349-.128.651-.384.906-.223.222-.511.334-.862.334h-7.811ZM166.695 134.019c-.351 0-.655-.112-.91-.334a1.328 1.328 0 0 1-.336-.906v-4.149c0-.222.048-.588.144-1.097.128-.508.479-.969 1.054-1.383l2.779-2.622a476.906 476.906 0 0 0 7.332-5.484c1.948-1.526 3.402-2.845 4.36-3.958.991-1.113 1.486-2.146 1.486-3.1 0-.763-.192-1.414-.575-1.955-.352-.572-1.07-.858-2.157-.858-.798 0-1.437.175-1.916.524-.479.35-.847.779-1.102 1.288-.224.509-.4 1.001-.527 1.478-.128.413-.352.7-.671.858-.32.159-.687.239-1.102.239h-7.476c-.319 0-.575-.095-.766-.286a1.136 1.136 0 0 1-.288-.763c.032-1.685.384-3.211 1.054-4.578a11.847 11.847 0 0 1 2.876-3.672c1.213-1.049 2.651-1.844 4.312-2.384 1.693-.572 3.546-.858 5.559-.858 2.811 0 5.223.429 7.235 1.287 2.013.858 3.562 2.066 4.648 3.624 1.086 1.558 1.629 3.418 1.629 5.579a9.64 9.64 0 0 1-1.15 4.626c-.766 1.431-1.852 2.798-3.258 4.101-1.406 1.272-3.067 2.591-4.983 3.958l-2.348 2.289h11.212c.352 0 .639.127.863.381.255.255.383.557.383.906v6.009c0 .349-.128.651-.383.906-.224.222-.511.334-.863.334h-26.115Z" fill="#022749"/></svg>